<?xml version="1.0" encoding="UTF-8" standalone="no"?>
<!-- Created with Inkscape (http://www.inkscape.org/) -->

<svg
   xmlns:ns0="http://www.iki.fi/pav/software/textext/"
   xmlns:dc="http://purl.org/dc/elements/1.1/"
   xmlns:cc="http://creativecommons.org/ns#"
   xmlns:rdf="http://www.w3.org/1999/02/22-rdf-syntax-ns#"
   xmlns:svg="http://www.w3.org/2000/svg"
   xmlns="http://www.w3.org/2000/svg"
   xmlns:sodipodi="http://sodipodi.sourceforge.net/DTD/sodipodi-0.dtd"
   xmlns:inkscape="http://www.inkscape.org/namespaces/inkscape"
   width="425.19684"
   height="283.46457"
   id="svg2"
   version="1.1"
   inkscape:version="0.47 r22583"
   sodipodi:docname="fig8.7c.svg">
  <sodipodi:namedview
     id="base"
     pagecolor="#ffffff"
     bordercolor="#666666"
     borderopacity="1.0"
     inkscape:pageopacity="0.0"
     inkscape:pageshadow="2"
     inkscape:zoom="1.9967223"
     inkscape:cx="218.45261"
     inkscape:cy="165.50858"
     inkscape:document-units="cm"
     inkscape:current-layer="layer1"
     showgrid="false"
     units="cm"
     inkscape:object-nodes="true"
     inkscape:window-width="1024"
     inkscape:window-height="689"
     inkscape:window-x="0"
     inkscape:window-y="27"
     inkscape:window-maximized="1"
     showguides="true"
     inkscape:guide-bbox="true">
    <inkscape:grid
       snapvisiblegridlinesonly="true"
       enabled="true"
       visible="true"
       empspacing="5"
       id="grid2985"
       type="xygrid" />
  </sodipodi:namedview>
  <defs
     id="defs4">
    <inkscape:perspective
       sodipodi:type="inkscape:persp3d"
       inkscape:vp_x="0 : 141.73228 : 1"
       inkscape:vp_y="0 : 1000 : 0"
       inkscape:vp_z="425.19684 : 141.73228 : 1"
       inkscape:persp3d-origin="212.59842 : 94.48819 : 1"
       id="perspective29" />
    <marker
       inkscape:stockid="Arrow1Mstart"
       orient="auto"
       refY="0.0"
       refX="0.0"
       id="Arrow1Mstart"
       style="overflow:visible">
      <path
         id="path6343"
         d="M 0.0,0.0 L 5.0,-5.0 L -12.5,0.0 L 5.0,5.0 L 0.0,0.0 z "
         style="fill-rule:evenodd;stroke:#000000;stroke-width:1.0pt"
         transform="scale(0.4) translate(10,0)" />
    </marker>
    <marker
       style="overflow:visible"
       id="Arrow1Mend"
       refX="0"
       refY="0"
       orient="auto"
       inkscape:stockid="Arrow1Mend">
      <path
         inkscape:connector-curvature="0"
         transform="matrix(-0.4,0,0,-0.4,-4,0)"
         style="fill-rule:evenodd;stroke:#000000;stroke-width:1pt"
         d="M 0,0 5,-5 -12.5,0 5,5 0,0 z"
         id="path3949" />
    </marker>
    <marker
       style="overflow:visible"
       id="Arrow1Mend-0"
       refX="0"
       refY="0"
       orient="auto"
       inkscape:stockid="Arrow1Mend">
      <path
         inkscape:connector-curvature="0"
         transform="matrix(-0.4,0,0,-0.4,-4,0)"
         style="fill-rule:evenodd;stroke:#000000;stroke-width:1pt"
         d="M 0,0 5,-5 -12.5,0 5,5 0,0 z"
         id="path3949-9" />
    </marker>
  </defs>
  <metadata
     id="metadata7">
    <rdf:RDF>
      <cc:Work
         rdf:about="">
        <dc:format>image/svg+xml</dc:format>
        <dc:type
           rdf:resource="http://purl.org/dc/dcmitype/StillImage" />
        <dc:title />
      </cc:Work>
    </rdf:RDF>
  </metadata>
  <g
     transform="translate(0,-768.89631)"
     id="layer1"
     inkscape:groupmode="layer"
     inkscape:label="Layer 1">
    <text
       transform="translate(0,768.89631)"
       sodipodi:linespacing="125%"
       id="text3819"
       y="115.38005"
       x="140.30785"
       style="font-size:12px;font-style:normal;font-variant:normal;font-weight:normal;font-stretch:normal;text-align:center;line-height:125%;letter-spacing:0px;word-spacing:0px;text-anchor:middle;fill:#000000;fill-opacity:1;stroke:none;font-family:LMRoman12;-inkscape-font-specification:LMRoman12"
       xml:space="preserve"><tspan
         y="115.38005"
         x="140.30785"
         id="tspan3821"
         sodipodi:role="line" /></text>
    <text
       xml:space="preserve"
       style="font-size:12px;font-style:normal;font-variant:normal;font-weight:normal;font-stretch:normal;text-align:center;line-height:125%;letter-spacing:0px;word-spacing:0px;text-anchor:middle;fill:#000000;fill-opacity:1;stroke:none;font-family:LMRoman12;-inkscape-font-specification:LMRoman12"
       x="96.023048"
       y="182.0696"
       id="text6981"
       sodipodi:linespacing="125%"
       transform="translate(0,768.89631)"><tspan
         sodipodi:role="line"
         id="tspan6983"
         x="96.023048"
         y="182.0696" /></text>
    <path
       inkscape:connector-curvature="0"
       id="path5801"
       d="m 64.999998,902.36088 326.805792,0"
       style="fill:none;stroke:#000000;stroke-width:0.99212598;stroke-linecap:butt;stroke-linejoin:miter;stroke-miterlimit:4;stroke-opacity:1;stroke-dasharray:none;stroke-dashoffset:0;marker-end:url(#Arrow1Mend-0)" />
    <path
       sodipodi:nodetypes="csc"
       style="fill:none;stroke:#000000;stroke-width:1;stroke-linecap:butt;stroke-linejoin:miter;stroke-miterlimit:4;stroke-opacity:1;stroke-dasharray:4, 4;stroke-dashoffset:0"
       d="m 65,882.36088 c 50,10 103.10976,-35.42311 150,-35 52.71645,0.47568 105,45 155,35"
       id="path5803"
       inkscape:connector-curvature="0" />
    <path
       sodipodi:nodetypes="ccccccccccccccccccccccccccccccc"
       transform="translate(0,768.89631)"
       inkscape:connector-curvature="0"
       id="path5809"
       d="m 75,133.46457 c 0,0 1.080683,-18.65152 5,-18.65132 4.324499,-0.20482 5.653048,18.65132 10,18.65132 6.500515,0 4.053593,-19.48494 10,-20.36042 6.03651,-1.82336 4.83611,20.36042 10,20.36042 6.48405,0 3.60307,-24.09377 10,-26.10881 6.39693,-2.0759 3.47853,26.10881 10,26.10881 6.86243,0 2.70201,-30.59167 10,-33.36855 7.56831,-3.097678 3.58361,33.36855 10,33.36855 7.3399,0 2.52179,-38.503336 10,-41.425093 7.92874,-3.223112 3.22468,41.425093 10,41.425093 8.31011,0 1.71084,-45.649592 10,-48.603854 7.47821,-2.216383 1.77218,48.603854 10,48.603854 7.60755,0 0.17904,-51.566403 10,-53.642708 7.74852,-0.978227 2.12662,53.642708 10,53.642708 7.96199,0 1.44052,-54.965629 10,-54.970709 8.9199,1.064702 2.83549,54.970709 10,54.970709 6.98729,0 2.07922,-53.684417 10,-51.783506 9.19507,2.348458 2.48106,51.783506 10,51.783506 7.16451,0 1.1702,-48.758489 10,-46.294432 9.01001,3.373124 2.12662,46.294432 10,46.294432 7.25312,0 1.26031,-42.167334 10,-38.946157 9.73086,3.882215 2.48106,38.946157 10,38.946157 8.0506,0 3.60807,-33.837738 9.86644,-30.9215 5.69967,2.48658 5.27032,31.3307 10.27032,31.3307 5,0 3.76988,-25.85458 9.86324,-24.74734 4.62416,2.21099 5,24.33814 10,24.33814 5,0 4.79828,-20.89967 10,-20 5.90555,1.00899 4.31958,20 10,20 6.37726,0 3.06243,-18.47527 10,-18.9376 4.35171,-0.35362 2.61768,18.9376 10,18.9376"
       style="fill:none;stroke:#000000;stroke-width:0.8125;stroke-linecap:butt;stroke-linejoin:miter;stroke-opacity:1;stroke-miterlimit:4;stroke-dasharray:none" />
    <path
       inkscape:connector-curvature="0"
       id="path5811"
       d="m 309.79105,837.89014 -37.29908,18.15559"
       style="fill:none;stroke:#000000;stroke-width:1px;stroke-linecap:butt;stroke-linejoin:miter;stroke-opacity:1;marker-end:url(#Arrow1Mend-0)" />
    <text
       sodipodi:linespacing="125%"
       id="text5999"
       y="832.70972"
       x="319.89294"
       style="font-size:12px;font-style:normal;font-variant:normal;font-weight:normal;font-stretch:normal;text-align:center;line-height:125%;letter-spacing:0px;word-spacing:0px;text-anchor:middle;fill:#000000;fill-opacity:1;stroke:none;font-family:LMRoman12;-inkscape-font-specification:LMRoman12"
       xml:space="preserve"><tspan
         y="832.70972"
         x="319.89294"
         id="tspan6001"
         sodipodi:role="line">Detected top envelope</tspan></text>
    <g
       style="font-style:normal;font-variant:normal;font-weight:normal;font-stretch:normal;letter-spacing:normal;word-spacing:normal;text-anchor:start;fill:none;stroke:#000000;stroke-width:1;stroke-linecap:butt;stroke-linejoin:miter;stroke-miterlimit:10.43299961;stroke-opacity:1;stroke-dasharray:none;stroke-dashoffset:0"
       ns0:preamble="/home/sriranga/Desktop/Basic-Electronics-Figures/package.tex"
       ns0:text="$t$"
       word-spacing="normal"
       letter-spacing="normal"
       font-size-adjust="none"
       font-stretch="normal"
       font-weight="normal"
       font-variant="normal"
       font-style="normal"
       stroke-miterlimit="10.433"
       xml:space="preserve"
       transform="matrix(1.2,0,0,-1.2,127.16165,1753.6159)"
       id="content"><path
         id="path5660"
         d="m 226.38,711.38 h -0.8 l 0.28,1.02 c 0.01,0.02 0.01,0.04 0.01,0.05 0,0.07 -0.03,0.1 -0.08,0.1 -0.06,0 -0.09,-0.01 -0.15,-0.09 -0.39,-0.51 -1,-1 -1.32,-1.09 -0.25,-0.08 -0.32,-0.14 -0.32,-0.25 0,-0.01 0,-0.03 0.01,-0.06 h 0.73 l -0.71,-2.73 c -0.02,-0.09 -0.03,-0.12 -0.06,-0.21 -0.09,-0.3 -0.17,-0.65 -0.17,-0.73 0,-0.22 0.21,-0.37 0.48,-0.37 0.46,0 0.78,0.27 1.41,1.2 l -0.13,0.07 c -0.49,-0.63 -0.65,-0.79 -0.8,-0.79 -0.09,0 -0.15,0.08 -0.15,0.2 0,0.01 0,0.02 0.01,0.05 l 0.87,3.31 h 0.84 z"
         inkscape:connector-curvature="0"
         style="fill:#000000;stroke-width:0" /></g>    <text
       xml:space="preserve"
       style="font-size:12px;font-style:normal;font-variant:normal;font-weight:normal;font-stretch:normal;text-align:center;line-height:125%;letter-spacing:0px;word-spacing:0px;text-anchor:middle;fill:#000000;fill-opacity:1;stroke:none;font-family:LMRoman12;-inkscape-font-specification:LMRoman12"
       x="218.4149"
       y="922.73639"
       id="text5684"
       sodipodi:linespacing="125%"><tspan
         sodipodi:role="line"
         id="tspan5686"
         x="218.4149"
         y="922.73639">(c) Output of AM detector</tspan></text>
    <path
       style="fill:none;stroke:#000000;stroke-width:1px;stroke-linecap:butt;stroke-linejoin:miter;stroke-opacity:1"
       d="m 80.034231,114.71983 15.404819,3.7184 4.56095,-5.33408 15.97881,0.90741 4.07254,-7.25974 15.58188,1.23947 4.60374,-8.499213 15.58189,0.177067 4.42667,-7.790943 16.16859,-1.229631 3.75615,-6.009849 15.52545,1.752873 L 200,79.821862 216.41017,83.93001 220,78.493861 l 16.63782,7.271707 3.00492,-4.382182 16.15147,9.766005 4.20579,-3.979253 15.57663,10.990744 3.38054,-4.256977 17.52873,12.457915 2.00328,-4.69519 17.71654,11.58148 2.87971,-4.25698 17.27832,8.57656 3.19274,-4.06917 16.02626,5.07081 4.00657,-4.25698 11.26846,5.38383"
       id="path5726"
       inkscape:connector-curvature="0"
       transform="translate(0,768.89631)"
       sodipodi:nodetypes="cccccccccccccccccccccccccccccc" />
  </g>
</svg>
