<?xml version="1.0" encoding="UTF-8" standalone="no"?>
<!-- Created with Inkscape (http://www.inkscape.org/) -->

<svg
   xmlns:ns0="http://www.iki.fi/pav/software/textext/"
   xmlns:dc="http://purl.org/dc/elements/1.1/"
   xmlns:cc="http://creativecommons.org/ns#"
   xmlns:rdf="http://www.w3.org/1999/02/22-rdf-syntax-ns#"
   xmlns:svg="http://www.w3.org/2000/svg"
   xmlns="http://www.w3.org/2000/svg"
   xmlns:sodipodi="http://sodipodi.sourceforge.net/DTD/sodipodi-0.dtd"
   xmlns:inkscape="http://www.inkscape.org/namespaces/inkscape"
   sodipodi:docname="exr1.5.svg"
   xml:space="preserve"
   height="177.16534"
   width="283.46457"
   inkscape:version="0.48.4 r9939"
   version="1.1"
   id="svg2"><sodipodi:namedview
     pagecolor="#ffffff"
     bordercolor="#666666"
     borderopacity="1"
     objecttolerance="10"
     gridtolerance="10"
     guidetolerance="10"
     inkscape:pageopacity="0"
     inkscape:pageshadow="2"
     inkscape:window-width="1366"
     inkscape:window-height="744"
     id="namedview4"
     showgrid="false"
     inkscape:zoom="2.9950833"
     inkscape:cx="141.73228"
     inkscape:cy="88.582672"
     inkscape:window-x="0"
     inkscape:window-y="24"
     inkscape:window-maximized="1"
     inkscape:current-layer="g10"
     units="cm"
     inkscape:document-units="cm"
     inkscape:object-nodes="true"><inkscape:grid
       type="xygrid"
       id="grid3015"
       empspacing="5"
       visible="true"
       enabled="true"
       snapvisiblegridlinesonly="true" /></sodipodi:namedview><metadata
     id="metadata8"><rdf:RDF><cc:Work
         rdf:about=""><dc:format>image/svg+xml</dc:format><dc:type
           rdf:resource="http://purl.org/dc/dcmitype/StillImage" /><dc:title></dc:title></cc:Work></rdf:RDF></metadata><defs
     id="defs6" /><g
     transform="matrix(1.25,0,0,-1.25,0,177.16539)"
     inkscape:label="ink_ext_XXXXXX"
     inkscape:groupmode="layer"
     id="g10"><path
       d="m 65.107028,80.418079 -10.3144,0"
       style="fill:none;stroke:#231f20;stroke-width:0.69999999;stroke-linecap:round;stroke-linejoin:round;stroke-miterlimit:3.86369991;stroke-opacity:1;stroke-dasharray:none"
       id="path28"
       inkscape:connector-curvature="0" /><path
       d="m 63.134428,76.958679 -6.3692,0"
       style="fill:none;stroke:#231f20;stroke-width:0.69999999;stroke-linecap:round;stroke-linejoin:round;stroke-miterlimit:3.86369991;stroke-opacity:1;stroke-dasharray:none"
       id="path30"
       inkscape:connector-curvature="0" /><path
       d="m 60,80.483384 0,31.375696 44,0"
       style="fill:none;stroke:#231f20;stroke-width:0.75;stroke-linecap:butt;stroke-linejoin:miter;stroke-miterlimit:4;stroke-opacity:1;stroke-dasharray:none"
       id="path38"
       inkscape:connector-curvature="0"
       sodipodi:nodetypes="ccc" /><path
       d="M 180,86.027516 180,48.038379 60,48.000037 59.97505,76.89732"
       style="fill:none;stroke:#231f20;stroke-width:0.75;stroke-linecap:butt;stroke-linejoin:miter;stroke-miterlimit:4;stroke-opacity:1;stroke-dasharray:none"
       id="path42"
       inkscape:connector-curvature="0"
       sodipodi:nodetypes="cccc" /><path
       d="m 136,111.85908 44,0 0,-24.513629"
       style="fill:none;stroke:#231f20;stroke-width:0.75;stroke-linecap:butt;stroke-linejoin:miter;stroke-miterlimit:4;stroke-opacity:1;stroke-dasharray:none"
       id="path46"
       inkscape:connector-curvature="0"
       sodipodi:nodetypes="ccc" /><path
       d="m 100.42785,111.87864 8.1992,0 1.6109,-5.6024 3.2371,11.3125 3.2821,-11.3125 3.2855,11.3122 3.2363,-11.3122 3.209,11.3122 3.2368,-11.3122 3.2839,11.168 1.5711,-5.5656 3.90271,0"
       style="fill:none;stroke:#231f20;stroke-width:0.80000001;stroke-linecap:round;stroke-linejoin:round;stroke-miterlimit:3.86369991;stroke-opacity:1;stroke-dasharray:none"
       id="path48"
       inkscape:connector-curvature="0"
       sodipodi:nodetypes="cccccccccccc" /><path
       d="m 187.56222,74.132451 -15.06562,0"
       style="fill:none;stroke:#231f20;stroke-width:0.75;stroke-linecap:round;stroke-linejoin:round;stroke-miterlimit:3.86369991;stroke-opacity:1;stroke-dasharray:none"
       id="path50"
       inkscape:connector-curvature="0" /><path
       d="m 180.00608,74.455451 -7.426,12.8633 14.852,0 -7.426,-12.8633"
       style="fill:#ffffff;fill-opacity:1;fill-rule:nonzero;stroke:none"
       id="path52"
       inkscape:connector-curvature="0" /><path
       d="m 180.00608,74.455451 -7.426,12.8633 14.852,0 -7.426,-12.8633 z"
       style="fill:none;stroke:#231f20;stroke-width:0.75;stroke-linecap:round;stroke-linejoin:round;stroke-miterlimit:3.86369991;stroke-opacity:1;stroke-dasharray:none"
       id="path54"
       inkscape:connector-curvature="0" /><text
       style="font-size:12px"
       id="text32"
       x="117.33594"
       y="-77.068153"
       transform="scale(1,-1)"><tspan
         style="font-size:8px;font-style:italic;font-variant:normal;writing-mode:lr-tb;fill:#231f20;fill-opacity:1;fill-rule:nonzero;stroke:none;font-family:Times;-inkscape-font-specification:Times-Italic"
         x="117.33594"
         y="-77.068153"
         id="tspan34">I</tspan></text>
<text
       style="font-size:12px"
       id="text36"
       x="120"
       y="-75.068153"
       transform="scale(1,-1)"><tspan
         style="font-size:6px;font-style:italic;font-variant:normal;writing-mode:lr-tb;fill:#231f20;fill-opacity:1;fill-rule:nonzero;stroke:none;font-family:Times;-inkscape-font-specification:Times-Italic"
         x="120"
         y="-75.068153"
         id="tspan38">F</tspan></text>
<path
       inkscape:connector-curvature="0"
       id="path72"
       style="fill:none;stroke:#231f20;stroke-width:0.8;stroke-linecap:butt;stroke-linejoin:miter;stroke-miterlimit:4;stroke-opacity:1;stroke-dasharray:none"
       d="m 111.80169,88.07605 c 4.92973,4.931569 12.9234,4.931601 17.8551,0 4.9293,-4.929702 4.92929,-12.925803 0,-17.855511 -4.9317,-4.931592 -12.92541,-4.931592 -17.8551,8e-6" /><path
       inkscape:connector-curvature="0"
       id="path74"
       style="fill:#231f20;fill-opacity:1;fill-rule:nonzero;stroke:none"
       d="m 112.08609,69.935348 -0.3946,-1.615199 -0.0578,0.01062 -0.9863,2.290195 c -0.4453,0.697301 -0.8914,1.394504 -1.3367,2.091805 0.6961,-0.4465 1.3933,-0.892606 2.0906,-1.337904 l 2.2891,-0.988298 0.0175,-0.05079 -1.6218,-0.400396" /><text
       transform="scale(1,-1)"
       sodipodi:linespacing="100%"
       id="text3260"
       y="-75.2948"
       x="42.715034"
       style="font-size:9.60000038px;font-style:normal;font-variant:normal;font-weight:normal;font-stretch:normal;text-align:start;line-height:100%;letter-spacing:0px;word-spacing:0px;text-anchor:start;fill:#000000;fill-opacity:1;stroke:none;font-family:LMRoman12;-inkscape-font-specification:LMRoman12"
       xml:space="preserve"><tspan
         y="-75.2948"
         x="42.715034"
         id="tspan3262"
         sodipodi:role="line">V</tspan></text>
<g
       style="font-style:normal;font-variant:normal;font-weight:normal;font-stretch:normal;letter-spacing:normal;word-spacing:normal;text-anchor:start;fill:none;stroke:#000000;stroke-width:1.44882679;stroke-linecap:butt;stroke-linejoin:miter;stroke-miterlimit:10.43299961;stroke-opacity:1;stroke-dasharray:none;stroke-dashoffset:0"
       ns0:preamble="/home/sriranga/Desktop/UBM-2014/package.tex"
       ns0:text="5 K$\\Omega$"
       word-spacing="normal"
       letter-spacing="normal"
       font-size-adjust="none"
       font-stretch="normal"
       font-weight="normal"
       font-variant="normal"
       font-style="normal"
       stroke-miterlimit="10.433"
       xml:space="preserve"
       transform="matrix(0.82533123,0,0,0.83119179,-72.389304,-467.28162)"
       id="content"><path
         id="path3446"
         d="m 225.23,712.92 h 1.95 c 0.16,0 0.2,0.02 0.23,0.09 l 0.38,0.88 -0.09,0.07 c -0.15,-0.21 -0.25,-0.26 -0.46,-0.26 h -2.08 l -1.08,-2.35 c -0.01,-0.02 -0.01,-0.03 -0.01,-0.05 0,-0.05 0.04,-0.08 0.12,-0.08 0.32,0 0.71,-0.07 1.12,-0.2 1.15,-0.37 1.67,-0.98 1.67,-1.97 0,-0.95 -0.6,-1.7 -1.38,-1.7 -0.2,0 -0.37,0.07 -0.67,0.29 -0.31,0.23 -0.54,0.33 -0.75,0.33 -0.29,0 -0.43,-0.12 -0.43,-0.37 0,-0.38 0.47,-0.61 1.21,-0.61 0.84,0 1.56,0.26 2.05,0.77 0.46,0.45 0.67,1.01 0.67,1.77 0,0.71 -0.19,1.17 -0.69,1.67 -0.43,0.44 -1,0.66 -2.17,0.87 z"
         inkscape:connector-curvature="0"
         style="fill:#000000;stroke-width:0" /><path
         id="path3448"
         d="m 235.01,713.51 0.03,0 0.02,0 0.02,0 0.02,0 0.02,0 0.01,0 0.01,0 0.01,-0.01 0,0 0.01,0 0.01,0 0.01,0 0.01,0 0.01,0 0,0 0.01,0 0.01,0 0,0 0.01,0 0.01,0 0,0 0.01,0 0,0 0.01,0 0,0 0.01,0 0,0 c 0.3,-0.02 0.42,-0.1 0.42,-0.29 0,-0.22 -0.23,-0.52 -0.78,-1.03 l -1.76,-1.6 v 2.04 c 0,0.72 0.11,0.83 0.92,0.89 v 0.19 h -2.83 v -0.19 c 0.78,-0.06 0.9,-0.19 0.9,-0.89 v -4.3 c 0,-0.83 -0.11,-0.96 -0.9,-1.01 v -0.19 h 2.81 v 0.19 c -0.78,0.05 -0.9,0.17 -0.9,0.9 v 1.86 l 0.26,0.2 1.06,-1.04 c 0.75,-0.74 1.29,-1.45 1.29,-1.69 0,-0.14 -0.14,-0.21 -0.42,-0.22 -0.05,0 -0.16,0 -0.28,-0.01 v -0.19 h 3.04 v 0.19 c -0.52,0.01 -0.66,0.11 -1.56,1.08 l -2.32,2.48 1.89,1.87 c 0.67,0.64 0.83,0.72 1.51,0.77 v 0.19 h -2.61 z"
         inkscape:connector-curvature="0"
         style="fill:#000000;stroke-width:0" /><path
         id="path3450"
         d="m 245.2,707.12 v 1.53 h -0.18 c -0.02,-0.51 -0.31,-0.62 -0.76,-0.62 h -1.36 l 0.05,0.33 c 1.27,0.36 2.02,1.35 2.02,2.67 0,1.8 -1.45,2.82 -3.14,2.82 -1.68,0 -3.2,-1.07 -3.2,-2.86 0,-1.21 0.8,-2.4 2.04,-2.63 l 0.01,-0.33 h -1.32 c -0.48,0 -0.76,0.1 -0.79,0.62 h -0.18 v -1.53 h 2.72 l -0.1,1.47 c -1.02,0.37 -1.24,1.4 -1.24,2.38 0,1.22 0.66,2.53 2.04,2.53 1.43,0 2.05,-1.36 2.05,-2.6 0,-0.95 -0.23,-1.99 -1.26,-2.31 l -0.12,-1.47 z"
         inkscape:connector-curvature="0"
         style="fill:#000000;stroke-width:0" /></g><g
       style="font-style:normal;font-variant:normal;font-weight:normal;font-stretch:normal;letter-spacing:normal;word-spacing:normal;text-anchor:start;fill:none;stroke:#000000;stroke-width:1.44882679;stroke-linecap:butt;stroke-linejoin:miter;stroke-miterlimit:10.43299961;stroke-opacity:1;stroke-dasharray:none;stroke-dashoffset:0"
       ns0:preamble="/home/sriranga/Desktop/UBM-2014/package.tex"
       ns0:text="$Ge$"
       text-anchor="start"
       word-spacing="normal"
       letter-spacing="normal"
       font-size-adjust="none"
       font-stretch="normal"
       font-weight="normal"
       font-variant="normal"
       font-style="normal"
       fill-opacity="1"
       fill-rule="evenodd"
       fill="none"
       stroke-opacity="1"
       stroke-dashoffset="0"
       stroke-dasharray="none"
       stroke-miterlimit="10.433"
       stroke-linejoin="miter"
       stroke-linecap="butt"
       stroke="black"
       xml:space="preserve"
       transform="matrix(0.82533123,0,0,0.83119179,6.6641358,-509.75399)"
       id="g3802"><path
         id="path3804"
         fill="black"
         stroke-width="0"
         d="M230.23,713.7 L230.08,713.74 C229.91,713.5,229.74,713.4,229.48,713.4 C229.38,713.4,229.26,713.43,229.04,713.5 C228.55,713.66,228.12,713.74,227.71,713.74 C225.61,713.74,223.7,711.75,223.7,709.57 C223.7,708.89,223.99,708.2,224.46,707.72 C224.96,707.21,225.69,706.95,226.56,706.95 C227.43,706.95,228.15,707.14,228.91,707.56 L229.4,709.42 C229.56,709.98,229.72,710.09,230.37,710.14 V710.29 H227.72 V710.14 C227.84,710.12,227.97,710.1,228.01,710.1 C228.34,710.08,228.5,709.98,228.5,709.8 C228.5,709.58,228.44,709.3,228.22,708.57 C228,707.85,227.97,707.77,227.85,707.65 C227.63,707.43,227.25,707.31,226.8,707.31 C225.52,707.31,224.79,708.05,224.79,709.35 C224.79,710.57,225.28,711.83,226.07,712.67 C226.52,713.14,227.13,713.4,227.79,713.4 C228.44,713.4,228.98,713.14,229.28,712.68 C229.44,712.42,229.51,712.21,229.56,711.77 L229.74,711.74 Z " /><path
         id="path3806"
         fill="black"
         stroke-width="0"
         d="M234.19,708.21 L234.12,708.15 L234.06,708.1 L234,708.05 L233.94,708.01 L233.88,707.96 L233.82,707.92 L233.77,707.88 L233.72,707.84 L233.67,707.81 L233.62,707.78 L233.57,707.74 L233.53,707.71 L233.48,707.69 L233.44,707.66 L233.39,707.64 L233.35,707.62 L233.31,707.6 L233.27,707.58 L233.23,707.56 L233.19,707.54 L233.15,707.53 L233.12,707.52 L233.08,707.51 L233.04,707.5 L233,707.49 L232.97,707.48 L232.93,707.48 L232.89,707.47 L232.81,707.46 L232.73,707.46 C232.17,707.46,231.8,707.82,231.8,708.36 C231.8,708.51,231.82,708.66,231.9,708.97 L231.97,709.19 L232.14,709.63 C232.48,710.51,233.21,711.28,233.72,711.28 C233.93,711.28,234.07,711.12,234.07,710.89 C234.07,710.58,233.88,710.22,233.57,709.93 C233.2,709.58,232.82,709.4,231.97,709.19 L231.9,708.97 L232.18,709.01 C233.67,709.22,234.72,709.98,234.72,710.83 C234.72,711.25,234.43,711.51,233.93,711.51 C232.49,711.51,230.93,709.87,230.93,708.38 C230.93,707.57,231.47,707.02,232.25,707.02 C232.95,707.02,233.72,707.42,234.31,708.09 Z " /></g></g></svg>