<?xml version="1.0" encoding="UTF-8" standalone="no"?>
<!-- Created with Inkscape (http://www.inkscape.org/) -->

<svg
   xmlns:ns0="http://www.iki.fi/pav/software/textext/"
   xmlns:dc="http://purl.org/dc/elements/1.1/"
   xmlns:cc="http://creativecommons.org/ns#"
   xmlns:rdf="http://www.w3.org/1999/02/22-rdf-syntax-ns#"
   xmlns:svg="http://www.w3.org/2000/svg"
   xmlns="http://www.w3.org/2000/svg"
   xmlns:sodipodi="http://sodipodi.sourceforge.net/DTD/sodipodi-0.dtd"
   xmlns:inkscape="http://www.inkscape.org/namespaces/inkscape"
   sodipodi:docname="exr1.6.eps"
   xml:space="preserve"
   height="177.16534"
   width="283.46457"
   inkscape:version="0.48.4 r9939"
   version="1.1"
   id="svg2"><sodipodi:namedview
     pagecolor="#ffffff"
     bordercolor="#666666"
     borderopacity="1"
     objecttolerance="10"
     gridtolerance="10"
     guidetolerance="10"
     inkscape:pageopacity="0"
     inkscape:pageshadow="2"
     inkscape:window-width="1366"
     inkscape:window-height="744"
     id="namedview4"
     showgrid="false"
     inkscape:zoom="3.3697335"
     inkscape:cx="141.73228"
     inkscape:cy="88.582672"
     inkscape:window-x="0"
     inkscape:window-y="24"
     inkscape:window-maximized="1"
     inkscape:current-layer="g10"
     units="cm"
     inkscape:document-units="cm"
     inkscape:object-nodes="true"><inkscape:grid
       type="xygrid"
       id="grid3015"
       empspacing="5"
       visible="true"
       enabled="true"
       snapvisiblegridlinesonly="true" /></sodipodi:namedview><metadata
     id="metadata8"><rdf:RDF><cc:Work
         rdf:about=""><dc:format>image/svg+xml</dc:format><dc:type
           rdf:resource="http://purl.org/dc/dcmitype/StillImage" /><dc:title></dc:title></cc:Work></rdf:RDF></metadata><defs
     id="defs6" /><g
     transform="matrix(1.25,0,0,-1.25,0,177.16539)"
     inkscape:label="ink_ext_XXXXXX"
     inkscape:groupmode="layer"
     id="g10"><path
       d="m 65.107028,80.418079 -10.3144,0"
       style="fill:none;stroke:#231f20;stroke-width:0.69999999;stroke-linecap:round;stroke-linejoin:round;stroke-miterlimit:3.86369991;stroke-opacity:1;stroke-dasharray:none"
       id="path28"
       inkscape:connector-curvature="0" /><path
       d="m 63.134428,76.958679 -6.3692,0"
       style="fill:none;stroke:#231f20;stroke-width:0.69999999;stroke-linecap:round;stroke-linejoin:round;stroke-miterlimit:3.86369991;stroke-opacity:1;stroke-dasharray:none"
       id="path30"
       inkscape:connector-curvature="0" /><path
       d="m 60,80.330251 0,31.528829 44,0"
       style="fill:none;stroke:#231f20;stroke-width:0.75;stroke-linecap:butt;stroke-linejoin:miter;stroke-miterlimit:4;stroke-opacity:1;stroke-dasharray:none"
       id="path38"
       inkscape:connector-curvature="0"
       sodipodi:nodetypes="ccc" /><path
       d="M 180,86.027516 180,48.038379 60,48.000037 59.97505,76.89732"
       style="fill:none;stroke:#231f20;stroke-width:0.75;stroke-linecap:butt;stroke-linejoin:miter;stroke-miterlimit:4;stroke-opacity:1;stroke-dasharray:none"
       id="path42"
       inkscape:connector-curvature="0"
       sodipodi:nodetypes="cccc" /><path
       d="m 136,111.85908 44,0 0,-24.513629"
       style="fill:none;stroke:#231f20;stroke-width:0.75;stroke-linecap:butt;stroke-linejoin:miter;stroke-miterlimit:4;stroke-opacity:1;stroke-dasharray:none"
       id="path46"
       inkscape:connector-curvature="0"
       sodipodi:nodetypes="ccc" /><path
       d="m 100.42785,111.87864 8.1992,0 1.6109,-5.6024 3.2371,11.3125 3.2821,-11.3125 3.2855,11.3122 3.2363,-11.3122 3.209,11.3122 3.2368,-11.3122 3.2839,11.168 1.5711,-5.5656 3.90271,0"
       style="fill:none;stroke:#231f20;stroke-width:0.80000001;stroke-linecap:round;stroke-linejoin:round;stroke-miterlimit:3.86369991;stroke-opacity:1;stroke-dasharray:none"
       id="path48"
       inkscape:connector-curvature="0"
       sodipodi:nodetypes="cccccccccccc" /><path
       sodipodi:nodetypes="cccc"
       d="m 188.79206,91.689525 -1.72136,-3.689488 -13.66477,0 -2.13915,-3.142897"
       style="fill:none;stroke:#231f20;stroke-width:0.75;stroke-linecap:round;stroke-linejoin:round;stroke-miterlimit:3.86369991;stroke-opacity:1;stroke-dasharray:none"
       id="path50"
       inkscape:connector-curvature="0" /><path
       d="m 180.00608,87.677037 -7.426,-12.8633 14.852,0 -7.426,12.8633"
       style="fill:#ffffff;fill-opacity:1;fill-rule:nonzero;stroke:none"
       id="path52"
       inkscape:connector-curvature="0" /><path
       d="m 180.00608,87.677037 -7.426,-12.8633 14.852,0 -7.426,12.8633 z"
       style="fill:none;stroke:#231f20;stroke-width:0.75;stroke-linecap:round;stroke-linejoin:round;stroke-miterlimit:3.86369991;stroke-opacity:1;stroke-dasharray:none"
       id="path54"
       inkscape:connector-curvature="0" /><text
       transform="scale(1,-1)"
       sodipodi:linespacing="100%"
       id="text3260"
       y="-74.841949"
       x="32.304966"
       style="font-size:9.60000038px;font-style:normal;font-variant:normal;font-weight:normal;font-stretch:normal;text-align:start;line-height:100%;letter-spacing:0px;word-spacing:0px;text-anchor:start;fill:#000000;fill-opacity:1;stroke:none;font-family:LMRoman12;-inkscape-font-specification:LMRoman12"
       xml:space="preserve"><tspan
         y="-74.841949"
         x="32.304966"
         id="tspan3262"
         sodipodi:role="line">25 V</tspan></text>
<g
       id="content"
       transform="matrix(0.82533123,0,0,0.83119179,-72.656408,-466.48292)"
       xml:space="preserve"
       stroke-miterlimit="10.433"
       font-style="normal"
       font-variant="normal"
       font-weight="normal"
       font-stretch="normal"
       font-size-adjust="none"
       letter-spacing="normal"
       word-spacing="normal"
       ns0:text="2 K$\\Omega$"
       ns0:preamble="/home/sriranga/Desktop/UBM-2014/package.tex"
       style="font-style:normal;font-variant:normal;font-weight:normal;font-stretch:normal;letter-spacing:normal;word-spacing:normal;text-anchor:start;fill:none;stroke:#000000;stroke-width:1.44882679;stroke-linecap:butt;stroke-linejoin:miter;stroke-miterlimit:10.43299961;stroke-opacity:1;stroke-dasharray:none;stroke-dashoffset:0"><path
         d="m 228.16,708.49 -0.13,0.05 c -0.37,-0.57 -0.5,-0.66 -0.95,-0.66 h -2.37 l 1.67,1.75 c 0.88,0.92 1.27,1.68 1.27,2.45 0,1 -0.8,1.76 -1.84,1.76 -0.55,0 -1.07,-0.22 -1.43,-0.62 -0.32,-0.33 -0.47,-0.65 -0.64,-1.36 l 0.21,-0.05 c 0.4,0.98 0.76,1.29 1.44,1.29 0.84,0 1.4,-0.56 1.4,-1.39 0,-0.78 -0.45,-1.7 -1.29,-2.59 l -1.77,-1.88 v -0.12 h 3.88 z"
         id="path3674"
         inkscape:connector-curvature="0"
         style="fill:#000000;stroke-width:0" /><path
         d="m 235.01,713.51 0.03,0 0.02,0 0.02,0 0.02,0 0.02,0 0.01,0 0.01,0 0.01,-0.01 0,0 0.01,0 0.01,0 0.01,0 0.01,0 0.01,0 0,0 0.01,0 0.01,0 0,0 0.01,0 0.01,0 0,0 0.01,0 0,0 0.01,0 0,0 0.01,0 0,0 c 0.3,-0.02 0.42,-0.1 0.42,-0.29 0,-0.22 -0.23,-0.52 -0.78,-1.03 l -1.76,-1.6 v 2.04 c 0,0.72 0.11,0.83 0.92,0.89 v 0.19 h -2.83 v -0.19 c 0.78,-0.06 0.9,-0.19 0.9,-0.89 v -4.3 c 0,-0.83 -0.11,-0.96 -0.9,-1.01 v -0.19 h 2.81 v 0.19 c -0.78,0.05 -0.9,0.17 -0.9,0.9 v 1.86 l 0.26,0.2 1.06,-1.04 c 0.75,-0.74 1.29,-1.45 1.29,-1.69 0,-0.14 -0.14,-0.21 -0.42,-0.22 -0.05,0 -0.16,0 -0.28,-0.01 v -0.19 h 3.04 v 0.19 c -0.52,0.01 -0.66,0.11 -1.56,1.08 l -2.32,2.48 1.89,1.87 c 0.67,0.64 0.83,0.72 1.51,0.77 v 0.19 h -2.61 z"
         id="path3676"
         inkscape:connector-curvature="0"
         style="fill:#000000;stroke-width:0" /><path
         d="m 245.2,707.12 v 1.53 h -0.18 c -0.02,-0.51 -0.31,-0.62 -0.76,-0.62 h -1.36 l 0.05,0.33 c 1.27,0.36 2.02,1.35 2.02,2.67 0,1.8 -1.45,2.82 -3.14,2.82 -1.68,0 -3.2,-1.07 -3.2,-2.86 0,-1.21 0.8,-2.4 2.04,-2.63 l 0.01,-0.33 h -1.32 c -0.48,0 -0.76,0.1 -0.79,0.62 h -0.18 v -1.53 h 2.72 l -0.1,1.47 c -1.02,0.37 -1.24,1.4 -1.24,2.38 0,1.22 0.66,2.53 2.04,2.53 1.43,0 2.05,-1.36 2.05,-2.6 0,-0.95 -0.23,-1.99 -1.26,-2.31 l -0.12,-1.47 z"
         id="path3678"
         inkscape:connector-curvature="0"
         style="fill:#000000;stroke-width:0" /></g><g
       style="font-style:normal;font-variant:normal;font-weight:normal;font-stretch:normal;letter-spacing:normal;word-spacing:normal;text-anchor:start;fill:none;stroke:#000000;stroke-width:1.44882679;stroke-linecap:butt;stroke-linejoin:miter;stroke-miterlimit:10.43299961;stroke-opacity:1;stroke-dasharray:none;stroke-dashoffset:0"
       ns0:preamble="/home/sriranga/Desktop/UBM-2014/package.tex"
       ns0:text="$V_Z=7.5$V"
       text-anchor="start"
       word-spacing="normal"
       letter-spacing="normal"
       font-size-adjust="none"
       font-stretch="normal"
       font-weight="normal"
       font-variant="normal"
       font-style="normal"
       fill-opacity="1"
       fill-rule="evenodd"
       fill="none"
       stroke-opacity="1"
       stroke-dashoffset="0"
       stroke-dasharray="none"
       stroke-miterlimit="10.433"
       stroke-linejoin="miter"
       stroke-linecap="butt"
       stroke="black"
       xml:space="preserve"
       transform="matrix(0.82533123,0,0,0.83119179,3.7654005,-508.01475)"
       id="g3028"><path
         id="path3030"
         fill="black"
         stroke-width="0"
         d="M230.28,713.61 H228.43 V713.45 C228.87,713.4,229.05,713.3,229.05,713.11 C229.05,712.93,228.86,712.5,228.54,711.93 L226.49,708.4 L225.83,712.8 C225.82,712.85,225.82,712.89,225.82,712.95 C225.82,713.28,225.96,713.38,226.59,713.45 V713.61 H224.19 V713.45 C224.74,713.38,224.76,713.35,224.97,712.11 L225.82,706.95 H226.01 L229.72,713.05 C229.89,713.32,230.05,713.44,230.28,713.45 Z " /><path
         id="path3032"
         fill="black"
         stroke-width="0"
         d="M233.74,710.17 H230.35 L230.03,709.16 L230.17,709.12 C230.31,709.43,230.4,709.55,230.53,709.66 C230.73,709.83,231.1,709.92,231.62,709.92 H232.81 L229.48,705.73 V705.63 H232.99 L233.37,706.8 L233.24,706.82 C233.01,706.38,232.89,706.21,232.65,706.08 C232.42,705.94,232.07,705.88,231.5,705.88 H230.38 L233.74,710.07 Z " /><polygon
         id="polygon3034"
         fill="black"
         stroke-width="0"
         points="242.72,710.4 242.72,710.96 237.63,710.96 237.63,710.4 " /><polygon
         id="polygon3036"
         fill="black"
         stroke-width="0"
         points="242.72,708.39 242.72,708.94 237.63,708.94 237.63,708.39 " /><path
         id="path3038"
         fill="black"
         stroke-width="0"
         d="M250.58,713.7 H246.9 L246.31,712.24 L246.48,712.16 C246.91,712.84,247.09,712.97,247.64,712.97 H249.79 L247.82,707.05 H248.47 L250.58,713.54 Z " /><path
         id="path3040"
         fill="black"
         stroke-width="0"
         d="M252.9,707.55 L252.9,707.58 L252.89,707.61 L252.89,707.64 L252.89,707.66 L252.88,707.69 L252.87,707.72 L252.86,707.74 L252.85,707.77 L252.84,707.8 L252.83,707.82 L252.81,707.84 L252.8,707.87 L252.78,707.89 L252.77,707.91 L252.75,707.93 L252.73,707.95 L252.71,707.97 L252.69,707.99 L252.67,708 L252.65,708.02 L252.62,708.03 L252.6,708.05 L252.58,708.06 L252.55,708.07 L252.53,708.08 L252.5,708.09 L252.48,708.1 L252.45,708.11 L252.42,708.11 L252.4,708.12 L252.37,708.12 L252.34,708.12 C252.04,708.12,251.79,707.87,251.79,707.55 C251.79,707.17,252.13,707.02,252.34,707.02 C252.55,707.02,252.9,707.18,252.9,707.55 Z " /><path
         id="path3042"
         fill="black"
         stroke-width="0"
         d="M255.39,712.92 H257.34 C257.5,712.92,257.54,712.94,257.57,713.01 L257.94,713.89 L257.85,713.96 C257.7,713.75,257.61,713.7,257.4,713.7 H255.32 L254.23,711.35 C254.22,711.33,254.22,711.32,254.22,711.3 C254.22,711.25,254.26,711.22,254.34,711.22 C254.66,711.22,255.06,711.15,255.47,711.02 C256.61,710.65,257.14,710.04,257.14,709.05 C257.14,708.1,256.53,707.35,255.76,707.35 C255.56,707.35,255.39,707.42,255.09,707.64 C254.77,707.87,254.54,707.97,254.33,707.97 C254.04,707.97,253.9,707.85,253.9,707.6 C253.9,707.22,254.37,706.99,255.12,706.99 C255.95,706.99,256.67,707.25,257.17,707.76 C257.62,708.21,257.83,708.77,257.83,709.53 C257.83,710.24,257.64,710.7,257.15,711.2 C256.71,711.64,256.14,711.86,254.97,712.07 Z " /><path
         id="path3044"
         fill="black"
         stroke-width="0"
         d="M265.5,713.7 H263.46 V713.51 C264.01,713.48,264.19,713.37,264.19,713.09 C264.19,712.94,264.12,712.67,264,712.37 L262.54,708.72 L261.04,712.08 C260.71,712.81,260.63,713.04,260.63,713.18 C260.63,713.37,260.77,713.47,261.08,713.49 C261.12,713.49,261.23,713.5,261.37,713.51 V713.7 H258.73 V713.51 C259.21,713.49,259.35,713.35,259.78,712.47 L262.23,707.02 H262.38 L264.59,712.59 C264.92,713.37,265.02,713.48,265.5,713.51 Z " /></g></g></svg>