<?xml version="1.0" encoding="UTF-8" standalone="no"?>
<!-- Created with Inkscape (http://www.inkscape.org/) -->

<svg
   xmlns:ns0="http://www.iki.fi/pav/software/textext/"
   xmlns:dc="http://purl.org/dc/elements/1.1/"
   xmlns:cc="http://creativecommons.org/ns#"
   xmlns:rdf="http://www.w3.org/1999/02/22-rdf-syntax-ns#"
   xmlns:svg="http://www.w3.org/2000/svg"
   xmlns="http://www.w3.org/2000/svg"
   xmlns:sodipodi="http://sodipodi.sourceforge.net/DTD/sodipodi-0.dtd"
   xmlns:inkscape="http://www.inkscape.org/namespaces/inkscape"
   width="496.06299"
   height="354.33069"
   id="svg2"
   version="1.1"
   inkscape:version="0.48.4 r9939"
   sodipodi:docname="exr2.6.eps">
  <sodipodi:namedview
     id="base"
     pagecolor="#ffffff"
     bordercolor="#666666"
     borderopacity="1.0"
     inkscape:pageopacity="0.0"
     inkscape:pageshadow="2"
     inkscape:zoom="1.8772705"
     inkscape:cx="236.81498"
     inkscape:cy="217.42391"
     inkscape:document-units="cm"
     inkscape:current-layer="layer1"
     showgrid="false"
     units="cm"
     inkscape:window-width="1366"
     inkscape:window-height="744"
     inkscape:window-x="0"
     inkscape:window-y="24"
     inkscape:window-maximized="1"
     inkscape:snap-global="true"
     inkscape:snap-bbox="false"
     inkscape:object-paths="false"
     inkscape:object-nodes="true">
    <inkscape:grid
       snapvisiblegridlinesonly="true"
       enabled="true"
       visible="true"
       empspacing="5"
       id="grid2985"
       type="xygrid" />
  </sodipodi:namedview>
  <defs
     id="defs4">
    <marker
       style="overflow:visible"
       id="Arrow1Mend"
       refX="0"
       refY="0"
       orient="auto"
       inkscape:stockid="Arrow1Mend">
      <path
         transform="matrix(-0.4,0,0,-0.4,-4,0)"
         style="fill-rule:evenodd;stroke:#000000;stroke-width:1pt"
         d="M 0,0 5,-5 -12.5,0 5,5 0,0 z"
         id="path5100"
         inkscape:connector-curvature="0" />
    </marker>
    <marker
       style="overflow:visible"
       id="Arrow1Mend-6"
       refX="0"
       refY="0"
       orient="auto"
       inkscape:stockid="Arrow1Mend">
      <path
         transform="matrix(-0.4,0,0,-0.4,-4,0)"
         style="fill-rule:evenodd;stroke:#000000;stroke-width:1pt"
         d="M 0,0 5,-5 -12.5,0 5,5 0,0 z"
         id="path5100-8"
         inkscape:connector-curvature="0" />
    </marker>
    <marker
       inkscape:stockid="Arrow1Mend"
       orient="auto"
       refY="0"
       refX="0"
       id="Arrow1Mend-9"
       style="overflow:visible">
      <path
         inkscape:connector-curvature="0"
         id="path5100-86"
         d="M 0,0 5,-5 -12.5,0 5,5 0,0 z"
         style="fill-rule:evenodd;stroke:#000000;stroke-width:1pt"
         transform="matrix(-0.4,0,0,-0.4,-4,0)" />
    </marker>
    <marker
       style="overflow:visible"
       id="Arrow1Mend-62"
       refX="0"
       refY="0"
       orient="auto"
       inkscape:stockid="Arrow1Mend">
      <path
         transform="matrix(-0.4,0,0,-0.4,-4,0)"
         style="fill-rule:evenodd;stroke:#000000;stroke-width:1pt"
         d="M 0,0 5,-5 -12.5,0 5,5 0,0 z"
         id="path5100-5"
         inkscape:connector-curvature="0" />
    </marker>
    <marker
       inkscape:stockid="Arrow1Mend"
       orient="auto"
       refY="0"
       refX="0"
       id="Arrow1Mend-62-6"
       style="overflow:visible">
      <path
         inkscape:connector-curvature="0"
         id="path5100-5-8"
         d="M 0,0 5,-5 -12.5,0 5,5 0,0 z"
         style="fill-rule:evenodd;stroke:#000000;stroke-width:1pt"
         transform="matrix(-0.4,0,0,-0.4,-4,0)" />
    </marker>
    <marker
       style="overflow:visible"
       id="Arrow1Mend-62-1"
       refX="0"
       refY="0"
       orient="auto"
       inkscape:stockid="Arrow1Mend">
      <path
         transform="matrix(-0.4,0,0,-0.4,-4,0)"
         style="fill-rule:evenodd;stroke:#000000;stroke-width:1pt"
         d="M 0,0 5,-5 -12.5,0 5,5 0,0 z"
         id="path5100-5-4"
         inkscape:connector-curvature="0" />
    </marker>
  </defs>
  <metadata
     id="metadata7">
    <rdf:RDF>
      <cc:Work
         rdf:about="">
        <dc:format>image/svg+xml</dc:format>
        <dc:type
           rdf:resource="http://purl.org/dc/dcmitype/StillImage" />
        <dc:title></dc:title>
      </cc:Work>
    </rdf:RDF>
  </metadata>
  <g
     transform="translate(0,-698.03023)"
     id="layer1"
     inkscape:groupmode="layer"
     inkscape:label="Layer 1">
    <g
       id="content"
       transform="matrix(1.2,0,0,-1.2,31.030362,1698.5319)"
       xml:space="preserve"
       stroke-miterlimit="10.433"
       font-style="normal"
       font-variant="normal"
       font-weight="normal"
       font-stretch="normal"
       font-size-adjust="none"
       letter-spacing="normal"
       word-spacing="normal"
       ns0:text="$R_1$"
       ns0:preamble="/home/sriranga/Desktop/MCT/package.tex"
       style="font-style:normal;font-variant:normal;font-weight:normal;font-stretch:normal;letter-spacing:normal;word-spacing:normal;text-anchor:start;fill:none;stroke:#000000;stroke-width:1;stroke-linecap:butt;stroke-linejoin:miter;stroke-miterlimit:10.43299961;stroke-opacity:1;stroke-dasharray:none;stroke-dashoffset:0"><path
         d="m 229.07,707.28 -0.04,0.01 -0.04,0 -0.03,0.01 -0.04,0 -0.04,0.01 -0.03,0.01 -0.03,0.01 -0.03,0.01 -0.03,0.01 -0.03,0.01 -0.03,0.01 -0.03,0.02 -0.03,0.01 -0.02,0.02 -0.03,0.02 -0.02,0.02 -0.03,0.02 -0.02,0.02 -0.02,0.03 -0.02,0.02 -0.02,0.03 -0.03,0.03 -0.02,0.03 -0.02,0.03 -0.01,0.04 -0.02,0.03 -0.02,0.04 -0.02,0.04 -0.02,0.04 -0.02,0.05 -0.02,0.04 -0.01,0.05 -0.93,2.43 c 0.77,0.17 1.1,0.31 1.45,0.63 0.33,0.29 0.51,0.67 0.51,1.12 0,0.92 -0.73,1.43 -2.07,1.43 l -0.21,-0.3 c 0.83,0 1.24,-0.37 1.24,-1.11 0,-0.98 -0.64,-1.49 -1.88,-1.49 -0.16,0 -0.27,0.01 -0.51,0.05 l 0.65,2.28 c 0.06,0.2 0.18,0.27 0.5,0.27 l 0.21,0.3 h -2.47 v -0.16 c 0.42,-0.06 0.47,-0.07 0.57,-0.14 0.08,-0.05 0.14,-0.16 0.14,-0.27 0,-0.12 -0.05,-0.36 -0.12,-0.63 l -1.22,-4.39 c -0.18,-0.59 -0.25,-0.65 -0.81,-0.74 v -0.16 h 2.43 v 0.16 c -0.61,0.08 -0.68,0.13 -0.68,0.46 0,0.1 0.03,0.23 0.12,0.58 l 0.56,2.07 0.65,-0.05 1.22,-3.22 h 1.47 z"
         id="path4368"
         inkscape:connector-curvature="0"
         style="fill:#000000;stroke-width:0" /><path
         d="m 231.55,710.33 -1.26,-0.63 v -0.1 c 0.09,0.04 0.16,0.06 0.19,0.08 0.12,0.05 0.24,0.08 0.31,0.08 0.15,0 0.21,-0.11 0.21,-0.33 v -3.15 c 0,-0.23 -0.05,-0.39 -0.16,-0.45 -0.11,-0.07 -0.21,-0.09 -0.5,-0.1 v -0.1 h 1.92 v 0.1 c -0.55,0.01 -0.66,0.08 -0.66,0.42 v 4.17 z"
         id="path4370"
         inkscape:connector-curvature="0"
         style="fill:#000000;stroke-width:0" /></g>    <g
       style="font-style:normal;font-variant:normal;font-weight:normal;font-stretch:normal;letter-spacing:normal;word-spacing:normal;text-anchor:start;fill:none;stroke:#000000;stroke-width:1;stroke-linecap:butt;stroke-linejoin:miter;stroke-miterlimit:10.43299961;stroke-opacity:1;stroke-dasharray:none;stroke-dashoffset:0"
       ns0:preamble="/home/sriranga/Desktop/MCT/package.tex"
       ns0:text="$+$"
       word-spacing="normal"
       letter-spacing="normal"
       font-size-adjust="none"
       font-stretch="normal"
       font-weight="normal"
       font-variant="normal"
       font-style="normal"
       stroke-miterlimit="10.433"
       xml:space="preserve"
       transform="matrix(1.2,0,0,-1.2,109.32853,1657.7937)"
       id="g5311"><polygon
         style="fill:#000000;stroke-width:0"
         id="polygon5313"
         points="229.14,709.4 229.14,709.96 226.87,709.96 226.87,712.2 226.32,712.2 226.32,709.96 224.05,709.96 224.05,709.4 226.32,709.4 226.32,707.12 226.87,707.12 226.87,709.4 " /></g>    <g
       id="g7510"
       transform="matrix(1.2,0,0,-1.2,113.89705,1695.1458)"
       xml:space="preserve"
       stroke-miterlimit="10.433"
       font-style="normal"
       font-variant="normal"
       font-weight="normal"
       font-stretch="normal"
       font-size-adjust="none"
       letter-spacing="normal"
       word-spacing="normal"
       ns0:text="$v_o$"
       ns0:preamble="/home/sriranga/Desktop/MCT/package.tex"
       style="font-style:normal;font-variant:normal;font-weight:normal;font-stretch:normal;letter-spacing:normal;word-spacing:normal;text-anchor:start;fill:none;stroke:#000000;stroke-width:1;stroke-linecap:butt;stroke-linejoin:miter;stroke-miterlimit:10.43299961;stroke-opacity:1;stroke-dasharray:none;stroke-dashoffset:0"><path
         d="m 223.64,711.13 0.02,0 0.02,0 0.02,0 0.02,0 0.02,0 0.01,0.01 0.02,0 0.02,0 0.04,0 0.01,0 0.02,0 0.02,0 0.02,0 0.02,0 0.02,0 c 0.39,0 0.49,-0.17 0.63,-1.09 0.1,-0.68 0.22,-2.18 0.22,-2.76 0,-0.27 0.01,-0.34 0.09,-0.34 0.24,0 1.17,1.05 2.18,2.46 0.35,0.5 0.61,1.14 0.61,1.51 0,0.32 -0.26,0.59 -0.56,0.59 -0.22,0 -0.37,-0.13 -0.37,-0.34 0,-0.16 0.06,-0.28 0.24,-0.44 0.13,-0.12 0.18,-0.2 0.18,-0.3 0,-0.45 -0.65,-1.56 -1.36,-2.29 l -0.31,-0.32 c -0.07,1.4 -0.13,1.92 -0.26,2.65 -0.2,1.02 -0.2,1.04 -0.29,1.04 -0.04,0 -0.12,-0.01 -0.2,-0.04 -0.17,-0.05 -0.72,-0.15 -1.1,-0.21 z"
         id="path7512"
         inkscape:connector-curvature="0"
         style="fill:#000000;stroke-width:0" /><path
         d="m 230.12,708.7 -0.08,-0.15 c 0.3,0 0.49,-0.26 0.49,-0.65 0,-0.51 -0.23,-1.2 -0.54,-1.66 -0.25,-0.37 -0.52,-0.54 -0.82,-0.54 -0.32,0 -0.54,0.25 -0.54,0.63 0,0.52 0.2,1.13 0.54,1.62 0.27,0.39 0.57,0.6 0.87,0.6 h 0 l 0.08,0.15 c -1.05,0 -2.08,-1.08 -2.08,-2.17 0,-0.6 0.39,-0.98 1.03,-0.98 0.46,0 0.9,0.21 1.31,0.61 0.46,0.45 0.74,1.04 0.74,1.56 0,0.58 -0.41,0.98 -1,0.98 z"
         id="path7514"
         inkscape:connector-curvature="0"
         style="fill:#000000;stroke-width:0" /></g>    <path
       inkscape:connector-curvature="0"
       id="path4084"
       d="m 193.29413,892.31421 184.998,0.0467"
       style="fill:none;stroke:#000000;stroke-width:1.20000005;stroke-linecap:butt;stroke-linejoin:miter;stroke-miterlimit:4;stroke-opacity:1;stroke-dasharray:none"
       sodipodi:nodetypes="cc" />
    <path
       transform="translate(8.2399322,795.48352)"
       d="m 185,96.830688 c 0,1.380712 -1.11929,2.5 -2.5,2.5 -1.38071,0 -2.5,-1.119288 -2.5,-2.5 0,-1.380711 1.11929,-2.5 2.5,-2.5 1.38071,0 2.5,1.119289 2.5,2.5 z"
       sodipodi:ry="2.5"
       sodipodi:rx="2.5"
       sodipodi:cy="96.830688"
       sodipodi:cx="182.5"
       id="path4090"
       style="color:#000000;fill:none;stroke:#000000;stroke-width:0.80000001;stroke-linecap:square;stroke-linejoin:round;stroke-miterlimit:4;stroke-opacity:1;stroke-dasharray:none;stroke-dashoffset:0;marker:none;visibility:visible;display:inline;overflow:visible;enable-background:accumulate"
       sodipodi:type="arc" />
    <g
       id="g4638"
       transform="matrix(1.2,0,0,-1.2,-81.673868,1657.2002)"
       xml:space="preserve"
       stroke-miterlimit="10.433"
       font-style="normal"
       font-variant="normal"
       font-weight="normal"
       font-stretch="normal"
       font-size-adjust="none"
       letter-spacing="normal"
       word-spacing="normal"
       ns0:text="$+$"
       ns0:preamble="/home/sriranga/Desktop/MCT/package.tex"
       style="font-style:normal;font-variant:normal;font-weight:normal;font-stretch:normal;letter-spacing:normal;word-spacing:normal;text-anchor:start;fill:none;stroke:#000000;stroke-width:1;stroke-linecap:butt;stroke-linejoin:miter;stroke-miterlimit:10.43299961;stroke-opacity:1;stroke-dasharray:none;stroke-dashoffset:0"><polygon
         points="224.05,709.96 224.05,709.4 226.32,709.4 226.32,707.12 226.87,707.12 226.87,709.4 229.14,709.4 229.14,709.96 226.87,709.96 226.87,712.2 226.32,712.2 226.32,709.96 "
         id="polygon4640"
         style="fill:#000000;stroke-width:0" /></g>    <g
       style="font-style:normal;font-variant:normal;font-weight:normal;font-stretch:normal;letter-spacing:normal;word-spacing:normal;text-anchor:start;fill:none;stroke:#000000;stroke-width:1;stroke-linecap:butt;stroke-linejoin:miter;stroke-miterlimit:10.43299961;stroke-opacity:1;stroke-dasharray:none;stroke-dashoffset:0"
       ns0:preamble="/home/sriranga/Desktop/MCT/package.tex"
       ns0:text="$-$"
       word-spacing="normal"
       letter-spacing="normal"
       font-size-adjust="none"
       font-stretch="normal"
       font-weight="normal"
       font-variant="normal"
       font-style="normal"
       stroke-miterlimit="10.433"
       xml:space="preserve"
       transform="matrix(1.2,0,0,-1.2,-81.054378,1736.8214)"
       id="g4642"><polygon
         id="polygon4644"
         points="224.05,709.96 224.05,709.4 229.14,709.4 229.14,709.96 "
         style="fill:#000000;stroke-width:0" /></g>    <g
       id="g6892"
       transform="matrix(1.2,0,0,-1.2,-84.435428,1695.1981)"
       xml:space="preserve"
       stroke-miterlimit="10.433"
       font-style="normal"
       font-variant="normal"
       font-weight="normal"
       font-stretch="normal"
       font-size-adjust="none"
       letter-spacing="normal"
       word-spacing="normal"
       ns0:text="$v_i$"
       ns0:preamble="/home/sriranga/Desktop/MCT/package.tex"
       style="font-style:normal;font-variant:normal;font-weight:normal;font-stretch:normal;letter-spacing:normal;word-spacing:normal;text-anchor:start;fill:none;stroke:#000000;stroke-width:1;stroke-linecap:butt;stroke-linejoin:miter;stroke-miterlimit:10.43299961;stroke-opacity:1;stroke-dasharray:none;stroke-dashoffset:0"><path
         style="fill:#000000;stroke-width:0"
         inkscape:connector-curvature="0"
         d="m 223.64,711.13 0.02,0 0.02,0 0.02,0 0.02,0 0.02,0 0.01,0.01 0.02,0 0.02,0 0.04,0 0.01,0 0.02,0 0.02,0 0.02,0 0.02,0 0.02,0 c 0.39,0 0.49,-0.17 0.63,-1.09 0.1,-0.68 0.22,-2.18 0.22,-2.76 0,-0.27 0.01,-0.34 0.09,-0.34 0.24,0 1.17,1.05 2.18,2.46 0.35,0.5 0.61,1.14 0.61,1.51 0,0.32 -0.26,0.59 -0.56,0.59 -0.22,0 -0.37,-0.13 -0.37,-0.34 0,-0.16 0.06,-0.28 0.24,-0.44 0.13,-0.12 0.18,-0.2 0.18,-0.3 0,-0.45 -0.65,-1.56 -1.36,-2.29 l -0.31,-0.32 c -0.07,1.4 -0.13,1.92 -0.26,2.65 -0.2,1.02 -0.2,1.04 -0.29,1.04 -0.04,0 -0.12,-0.01 -0.2,-0.04 -0.17,-0.05 -0.72,-0.15 -1.1,-0.21 z"
         id="path6894" /><path
         style="fill:#000000;stroke-width:0"
         inkscape:connector-curvature="0"
         d="m 229.4,706.42 -0.01,-0.02 -0.02,-0.02 -0.01,-0.01 -0.02,-0.02 -0.01,-0.02 -0.01,-0.01 -0.01,-0.02 -0.01,-0.01 -0.01,-0.02 -0.01,-0.01 -0.01,-0.01 -0.01,-0.02 -0.01,-0.01 -0.01,-0.01 -0.01,-0.01 -0.01,-0.01 0,-0.01 -0.01,-0.01 -0.01,-0.01 -0.01,0 0,-0.01 -0.01,-0.01 -0.01,-0.01 -0.02,-0.02 -0.01,-0.01 -0.01,-0.02 -0.01,-0.01 c -0.12,-0.12 -0.23,-0.19 -0.29,-0.19 -0.06,0 -0.11,0.06 -0.11,0.11 0,0.06 0.02,0.17 0.07,0.3 0,0.02 0.02,0.07 0.03,0.13 v 0.01 l 0.01,0.02 0.61,2.23 -0.02,0.02 c -0.7,-0.13 -0.84,-0.16 -1.11,-0.18 v -0.11 c 0.37,0 0.44,-0.02 0.44,-0.16 0,-0.06 -0.02,-0.17 -0.07,-0.31 l -0.33,-1.23 c -0.11,-0.41 -0.15,-0.62 -0.15,-0.76 0,-0.26 0.11,-0.4 0.32,-0.4 0.32,0 0.58,0.21 0.97,0.8 z"
         id="path6896" /><path
         style="fill:#000000;stroke-width:0"
         inkscape:connector-curvature="0"
         d="m 229.35,710.18 -0.02,0 -0.02,0 -0.02,-0.01 -0.01,0 -0.02,0 -0.01,-0.01 -0.02,0 -0.01,-0.01 -0.02,-0.01 -0.01,0 -0.02,-0.01 -0.01,-0.01 -0.01,-0.01 -0.02,-0.01 -0.01,-0.02 -0.01,-0.01 -0.01,-0.01 -0.01,-0.01 -0.01,-0.02 -0.01,-0.01 -0.01,-0.02 0,-0.01 -0.01,-0.02 -0.01,-0.01 0,-0.02 -0.01,-0.02 0,-0.02 0,-0.01 -0.01,-0.02 0,-0.02 0,-0.02 0,-0.02 c 0,-0.22 0.13,-0.37 0.33,-0.37 0.18,0 0.35,0.16 0.35,0.36 0,0.2 -0.17,0.38 -0.35,0.38 z"
         id="path6898" /></g>    <g
       id="g5315"
       transform="matrix(1.2,0,0,-1.2,109.05774,1736.8214)"
       xml:space="preserve"
       stroke-miterlimit="10.433"
       font-style="normal"
       font-variant="normal"
       font-weight="normal"
       font-stretch="normal"
       font-size-adjust="none"
       letter-spacing="normal"
       word-spacing="normal"
       ns0:text="$-$"
       ns0:preamble="/home/sriranga/Desktop/MCT/package.tex"
       style="font-style:normal;font-variant:normal;font-weight:normal;font-stretch:normal;letter-spacing:normal;word-spacing:normal;text-anchor:start;fill:none;stroke:#000000;stroke-width:1;stroke-linecap:butt;stroke-linejoin:miter;stroke-miterlimit:10.43299961;stroke-opacity:1;stroke-dasharray:none;stroke-dashoffset:0"><polygon
         style="fill:#000000;stroke-width:0"
         points="229.14,709.4 229.14,709.96 224.05,709.96 224.05,709.4 "
         id="polygon5317" /></g>    <path
       sodipodi:type="arc"
       style="color:#000000;fill:#ffffff;stroke:#000000;stroke-width:0.80000001;stroke-linecap:square;stroke-linejoin:round;stroke-miterlimit:4;stroke-opacity:1;stroke-dasharray:none;stroke-dashoffset:0;marker:none;visibility:visible;display:inline;overflow:visible;enable-background:accumulate"
       id="path4092"
       sodipodi:cx="182.5"
       sodipodi:cy="96.830688"
       sodipodi:rx="2.5"
       sodipodi:ry="2.5"
       d="m 185,96.830688 c 0,1.380712 -1.11929,2.5 -2.5,2.5 -1.38071,0 -2.5,-1.119288 -2.5,-2.5 0,-1.380711 1.11929,-2.5 2.5,-2.5 1.38071,0 2.5,1.119289 2.5,2.5 z"
       transform="translate(198.29213,795.48352)" />
    <path
       style="fill:none;stroke:#000000;stroke-width:1.20000005;stroke-linecap:round;stroke-linejoin:round;stroke-miterlimit:4;stroke-opacity:1;stroke-dasharray:none;stroke-dashoffset:0"
       d="m 248.07773,804.59953 c -3.07327,-4.59559 -3.78016,-9.36835 0,-14.47723"
       id="path9049"
       inkscape:connector-curvature="0"
       sodipodi:nodetypes="cc" />
    <path
       transform="translate(58.294122,-0.04671457)"
       d="m 287.5,892.3609 c 0,1.38071 -1.11929,2.5 -2.5,2.5 -1.38071,0 -2.5,-1.11929 -2.5,-2.5 0,-1.38071 1.11929,-2.5 2.5,-2.5 1.38071,0 2.5,1.11929 2.5,2.5 z"
       sodipodi:ry="2.5"
       sodipodi:rx="2.5"
       sodipodi:cy="892.3609"
       sodipodi:cx="285"
       style="fill:#000000;stroke:none"
       id="path3918"
       sodipodi:type="arc" />
    <path
       style="fill:none;stroke:#000000;stroke-width:1.20000005;stroke-linecap:butt;stroke-linejoin:miter;stroke-miterlimit:4;stroke-opacity:1;stroke-dasharray:none"
       d="m 343.29213,867.36092 0,24.95329"
       id="path3920"
       inkscape:connector-curvature="0"
       sodipodi:nodetypes="cc" />
    <path
       inkscape:transform-center-y="-2.4999884"
       transform="matrix(-0.86602541,0.50000001,-0.50000001,-0.86602541,596.47345,835.05606)"
       d="m 245,99.330688 -15,8.660252 0,-17.320506 z"
       inkscape:randomized="0"
       inkscape:rounded="0"
       inkscape:flatsided="true"
       sodipodi:arg2="1.0471976"
       sodipodi:arg1="0"
       sodipodi:r2="5"
       sodipodi:r1="10"
       sodipodi:cy="99.330688"
       sodipodi:cx="235"
       sodipodi:sides="3"
       id="path3922"
       style="fill:#ffffff;fill-opacity:1;stroke:#000000;stroke-width:1.20000005;stroke-linecap:square;stroke-linejoin:round;stroke-miterlimit:4;stroke-opacity:1;stroke-dasharray:none;stroke-dashoffset:0"
       sodipodi:type="star" />
    <path
       sodipodi:type="arc"
       id="path3926"
       style="fill:#000000;stroke:none"
       sodipodi:cx="295"
       sodipodi:cy="797.3609"
       sodipodi:rx="2.5"
       sodipodi:ry="2.5"
       d="m 297.5,797.3609 c 0,1.38071 -1.11929,2.5 -2.5,2.5 -1.38071,0 -2.5,-1.11929 -2.5,-2.5 0,-1.38071 1.11929,-2.5 2.5,-2.5 1.38071,0 2.5,1.11929 2.5,2.5 z"
       transform="translate(48.292122,-0.04671457)" />
    <path
       sodipodi:type="arc"
       id="path3928"
       style="fill:#000000;stroke:none"
       sodipodi:cx="295"
       sodipodi:cy="892.3609"
       sodipodi:rx="2.5"
       sodipodi:ry="2.5"
       d="m 297.5,892.3609 c 0,1.38071 -1.11929,2.5 -2.5,2.5 -1.38071,0 -2.5,-1.11929 -2.5,-2.5 0,-1.38071 1.11929,-2.5 2.5,-2.5 1.38071,0 2.5,1.11929 2.5,2.5 z"
       transform="translate(48.292122,-0.04671457)" />
    <path
       style="fill:#ffffff;fill-opacity:1;stroke:#000000;stroke-width:1.20000005;stroke-linecap:square;stroke-linejoin:round;stroke-miterlimit:4;stroke-opacity:1;stroke-dasharray:none;stroke-dashoffset:0"
       d="m 343.29213,856.83093 0,-24.46998"
       id="path3930"
       inkscape:connector-curvature="0"
       sodipodi:nodetypes="cc" />
    <path
       inkscape:connector-curvature="0"
       id="path3932"
       d="m 343.29213,797.31428 0,22.06536"
       style="fill:none;stroke:#000000;stroke-width:1.20000029;stroke-linecap:butt;stroke-linejoin:miter;stroke-miterlimit:4;stroke-opacity:1;stroke-dasharray:none" />
    <path
       style="fill:none;stroke:#000000;stroke-width:1.20000017;stroke-linecap:butt;stroke-linejoin:round;stroke-miterlimit:4;stroke-opacity:1;stroke-dasharray:none"
       d="m 290.55561,892.36092 0.20761,-22.07505 -0.009,-2.30282 5.17455,-2.26435 -10.61317,-4.56221 10.61317,-4.56221 -10.61317,-4.56221 10.61317,-4.56221 -10.61317,-4.56221 10.71267,-4.58529 -10.4727,-4.56221 10.3732,-4.56221 -10.61317,-4.56222 5.43862,-2.2748 0,-2.73733 -0.1519,-22.26267"
       id="path3104"
       inkscape:connector-curvature="0"
       sodipodi:nodetypes="cccccccccccccccc" />
    <path
       sodipodi:type="arc"
       id="path3106"
       style="fill:#000000;stroke:none"
       sodipodi:cx="130"
       sodipodi:cy="892.3609"
       sodipodi:rx="2.5"
       sodipodi:ry="2.5"
       d="m 132.5,892.3609 c 0,1.38071 -1.11929,2.5 -2.5,2.5 -1.38071,0 -2.5,-1.11929 -2.5,-2.5 0,-1.38071 1.11929,-2.5 2.5,-2.5 1.38071,0 2.5,1.11929 2.5,2.5 z"
       transform="translate(160.75422,0)" />
    <path
       sodipodi:type="arc"
       id="path3108"
       style="fill:#000000;stroke:none"
       sodipodi:cx="130"
       sodipodi:cy="797.3609"
       sodipodi:rx="2.5"
       sodipodi:ry="2.5"
       d="m 132.5,797.3609 c 0,1.38071 -1.11929,2.5 -2.5,2.5 -1.38071,0 -2.5,-1.11929 -2.5,-2.5 0,-1.38071 1.11929,-2.5 2.5,-2.5 1.38071,0 2.5,1.11929 2.5,2.5 z"
       transform="translate(160.75422,0)" />
    <path
       style="fill:#cccccc;fill-opacity:1;stroke:#000000;stroke-width:1.2;stroke-linecap:round;stroke-linejoin:miter;stroke-miterlimit:4;stroke-opacity:1;stroke-dasharray:none;stroke-dashoffset:0"
       d="m 378.29214,797.36092 -132.24848,0"
       id="path3111"
       inkscape:connector-curvature="0" />
    <path
       style="fill:#cccccc;fill-opacity:1;stroke:#000000;stroke-width:1.2;stroke-linecap:round;stroke-linejoin:miter;stroke-miterlimit:4;stroke-opacity:1;stroke-dasharray:none;stroke-dashoffset:0"
       d="m 193.29213,797.36092 45,0"
       id="path3113"
       inkscape:connector-curvature="0" />
    <path
       sodipodi:type="arc"
       style="color:#000000;fill:#ffffff;stroke:#000000;stroke-width:0.80000001;stroke-linecap:square;stroke-linejoin:round;stroke-miterlimit:4;stroke-opacity:1;stroke-dasharray:none;stroke-dashoffset:0;marker:none;visibility:visible;display:inline;overflow:visible;enable-background:accumulate"
       id="path4086"
       sodipodi:cx="182.5"
       sodipodi:cy="96.830688"
       sodipodi:rx="2.5"
       sodipodi:ry="2.5"
       d="m 185,96.830688 c 0,1.380712 -1.11929,2.5 -2.5,2.5 -1.38071,0 -2.5,-1.119288 -2.5,-2.5 0,-1.380711 1.11929,-2.5 2.5,-2.5 1.38071,0 2.5,1.119289 2.5,2.5 z"
       transform="translate(8.2399322,700.48352)" />
    <path
       transform="translate(198.29213,700.48352)"
       d="m 185,96.830688 c 0,1.380712 -1.11929,2.5 -2.5,2.5 -1.38071,0 -2.5,-1.119288 -2.5,-2.5 0,-1.380711 1.11929,-2.5 2.5,-2.5 1.38071,0 2.5,1.119289 2.5,2.5 z"
       sodipodi:ry="2.5"
       sodipodi:rx="2.5"
       sodipodi:cy="96.830688"
       sodipodi:cx="182.5"
       id="path4088"
       style="color:#000000;fill:#ffffff;stroke:#000000;stroke-width:0.80000001;stroke-linecap:square;stroke-linejoin:round;stroke-miterlimit:4;stroke-opacity:1;stroke-dasharray:none;stroke-dashoffset:0;marker:none;visibility:visible;display:inline;overflow:visible;enable-background:accumulate"
       sodipodi:type="arc" />
    <path
       style="fill:none;stroke:#000000;stroke-width:1.20000005;stroke-linecap:round;stroke-linejoin:round;stroke-miterlimit:4;stroke-opacity:1;stroke-dasharray:none;stroke-dashoffset:0"
       d="m 238.67319,804.59953 0,-14.47723"
       id="path3115"
       inkscape:connector-curvature="0"
       sodipodi:nodetypes="cc" />
    <g
       id="g3246"
       transform="matrix(1.2,0,0,-1.2,-30.429158,1631.1478)"
       xml:space="preserve"
       stroke-miterlimit="10.433"
       font-style="normal"
       font-variant="normal"
       font-weight="normal"
       font-stretch="normal"
       font-size-adjust="none"
       letter-spacing="normal"
       word-spacing="normal"
       ns0:text="$C_1$"
       ns0:preamble="/home/sriranga/Desktop/MCT/package.tex"
       style="font-style:normal;font-variant:normal;font-weight:normal;font-stretch:normal;letter-spacing:normal;word-spacing:normal;text-anchor:start;fill:none;stroke:#000000;stroke-width:1;stroke-linecap:butt;stroke-linejoin:miter;stroke-miterlimit:10.43299961;stroke-opacity:1;stroke-dasharray:none;stroke-dashoffset:0"><path
         d="m 229.67,711.74 0.37,1.98 h -0.21 c -0.08,-0.16 -0.18,-0.22 -0.38,-0.22 -0.08,0 -0.2,0.02 -0.41,0.07 -0.44,0.11 -0.84,0.17 -1.16,0.17 -2.12,0 -4.04,-2 -4.04,-4.2 0,-1.52 1.07,-2.59 2.6,-2.59 1.02,0 1.82,0.43 2.71,1.48 l -0.17,0.14 c -0.89,-0.88 -1.47,-1.18 -2.28,-1.18 -1.11,0 -1.75,0.76 -1.75,2.04 0,1.18 0.48,2.38 1.26,3.19 0.47,0.48 1.1,0.76 1.76,0.76 0.91,0 1.42,-0.53 1.52,-1.61 z"
         id="path3248"
         inkscape:connector-curvature="0"
         style="fill:#000000;stroke-width:0" /><path
         d="m 232.1,710.33 -1.25,-0.63 v -0.1 c 0.08,0.04 0.16,0.06 0.19,0.08 0.12,0.05 0.24,0.08 0.31,0.08 0.15,0 0.21,-0.11 0.21,-0.33 v -3.15 c 0,-0.23 -0.05,-0.39 -0.17,-0.45 -0.1,-0.07 -0.2,-0.09 -0.49,-0.1 v -0.1 h 1.92 v 0.1 c -0.55,0.01 -0.66,0.08 -0.66,0.42 v 4.17 z"
         id="path3250"
         inkscape:connector-curvature="0"
         style="fill:#000000;stroke-width:0" /></g>    <path
       inkscape:connector-curvature="0"
       id="path50"
       style="fill:none;stroke:#231f20;stroke-width:0.9375;stroke-linecap:round;stroke-linejoin:round;stroke-miterlimit:3.86369991;stroke-opacity:1;stroke-dasharray:none"
       d="m 354.25247,852.03165 -2.1517,4.61186 -17.08097,0 -2.67393,3.92862"
       sodipodi:nodetypes="cccc" />
    <path
       sodipodi:type="star"
       style="fill:#ffffff;fill-opacity:1;stroke:#000000;stroke-width:1.20000005;stroke-linecap:square;stroke-linejoin:round;stroke-miterlimit:4;stroke-opacity:1;stroke-dasharray:none;stroke-dashoffset:0"
       id="path3800"
       sodipodi:sides="3"
       sodipodi:cx="235"
       sodipodi:cy="99.330688"
       sodipodi:r1="10"
       sodipodi:r2="5"
       sodipodi:arg1="0"
       sodipodi:arg2="1.0471976"
       inkscape:flatsided="true"
       inkscape:rounded="0"
       inkscape:randomized="0"
       d="m 245,99.330688 -15,8.660252 0,-17.320506 z"
       transform="matrix(-0.86602541,-0.50000001,-0.50000001,0.86602541,596.47345,855.99647)"
       inkscape:transform-center-y="2.4999861" />
    <path
       sodipodi:nodetypes="cccc"
       d="m 354.25247,830.4804 -2.1517,4.61186 -17.08097,0 -2.67393,3.92862"
       style="fill:none;stroke:#231f20;stroke-width:0.9375;stroke-linecap:round;stroke-linejoin:round;stroke-miterlimit:3.86369991;stroke-opacity:1;stroke-dasharray:none"
       id="path3802"
       inkscape:connector-curvature="0" />
    <path
       inkscape:connector-curvature="0"
       id="path3983"
       d="m 149.4723,842.36092 -132.248483,0"
       style="fill:#cccccc;fill-opacity:1;stroke:#000000;stroke-width:1;stroke-linecap:square;stroke-linejoin:miter;stroke-miterlimit:4;stroke-opacity:1;stroke-dasharray:4,4;stroke-dashoffset:0" />
    <path
       sodipodi:nodetypes="cccccc"
       inkscape:connector-curvature="0"
       id="path4789"
       d="m 44.088789,842.36092 0,-35 40,0 0,70 40.000001,0 0,-35"
       style="fill:none;stroke:#000000;stroke-width:1.50000000000000000;stroke-linecap:butt;stroke-linejoin:miter;stroke-miterlimit:4;stroke-opacity:1;stroke-dasharray:none;stroke-dashoffset:0" />
    <g
       style="font-style:normal;font-variant:normal;font-weight:normal;font-stretch:normal;letter-spacing:normal;word-spacing:normal;text-anchor:start;fill:none;stroke:#000000;stroke-width:1;stroke-linecap:butt;stroke-linejoin:miter;stroke-miterlimit:10.43299961;stroke-opacity:1;stroke-dasharray:none;stroke-dashoffset:0"
       ns0:preamble="/home/sriranga/Desktop/MCT/package.tex"
       ns0:text="$10V$"
       word-spacing="normal"
       letter-spacing="normal"
       font-size-adjust="none"
       font-stretch="normal"
       font-weight="normal"
       font-variant="normal"
       font-style="normal"
       stroke-miterlimit="10.433"
       xml:space="preserve"
       transform="matrix(1.2,0,0,-1.2,-248.48912,1660.5221)"
       id="g4873"><path
         id="path4875"
         d="m 226.33,713.84 -1.79,-0.9 v -0.14 c 0.12,0.05 0.22,0.09 0.26,0.11 0.18,0.07 0.35,0.11 0.45,0.11 0.21,0 0.3,-0.15 0.3,-0.47 v -4.5 c 0,-0.33 -0.08,-0.56 -0.24,-0.65 -0.15,-0.09 -0.29,-0.12 -0.7,-0.13 v -0.15 h 2.74 v 0.15 c -0.78,0.01 -0.94,0.11 -0.94,0.59 v 5.96 z"
         inkscape:connector-curvature="0"
         style="fill:#000000;stroke-width:0" /><path
         id="path4877"
         d="m 230.94,713.84 -0.05,0 -0.05,0 -0.05,0 -0.05,-0.01 -0.05,0 -0.04,-0.01 -0.05,0 -0.05,-0.01 -0.04,-0.01 -0.05,-0.01 -0.04,-0.01 -0.05,-0.01 -0.04,-0.01 -0.04,-0.02 -0.04,-0.01 -0.04,-0.02 -0.04,-0.01 -0.04,-0.02 -0.04,-0.02 -0.04,-0.02 -0.04,-0.02 -0.04,-0.02 -0.04,-0.03 -0.04,-0.02 -0.03,-0.02 -0.04,-0.03 -0.04,-0.03 -0.03,-0.02 -0.04,-0.03 -0.03,-0.03 -0.04,-0.03 -0.03,-0.04 c -0.58,-0.55 -0.96,-1.7 -0.96,-2.86 0,-1.08 0.33,-2.24 0.8,-2.8 0.37,-0.44 0.87,-0.67 1.45,-0.67 v 0.25 c -0.86,0 -1.29,1.07 -1.29,3.13 0,2.11 0.44,3.21 1.3,3.21 h 0 c 0.84,0 1.28,-1.12 1.28,-3.2 0,-2.07 -0.43,-3.14 -1.29,-3.14 v -0.25 c 0.51,0 0.94,0.17 1.29,0.51 0.58,0.55 0.96,1.7 0.96,2.9 0,2.04 -0.91,3.44 -2.21,3.44 z"
         inkscape:connector-curvature="0"
         style="fill:#000000;stroke-width:0" /><path
         id="path4879"
         d="m 240.24,713.61 h -1.85 v -0.16 c 0.45,-0.05 0.63,-0.15 0.63,-0.34 0,-0.18 -0.19,-0.61 -0.52,-1.18 l -2.05,-3.53 -0.66,4.4 c -0.01,0.05 -0.01,0.09 -0.01,0.15 0,0.33 0.14,0.43 0.77,0.5 v 0.16 h -2.4 v -0.16 c 0.56,-0.07 0.58,-0.1 0.79,-1.34 l 0.84,-5.16 h 0.19 l 3.71,6.1 c 0.17,0.27 0.33,0.39 0.56,0.4 z"
         inkscape:connector-curvature="0"
         style="fill:#000000;stroke-width:0" /></g>    <g
       id="g5059"
       transform="matrix(1.2,0,0,-1.2,-140.66131,1730.6095)"
       xml:space="preserve"
       stroke-miterlimit="10.433"
       font-style="normal"
       font-variant="normal"
       font-weight="normal"
       font-stretch="normal"
       font-size-adjust="none"
       letter-spacing="normal"
       word-spacing="normal"
       ns0:text="$-10V$"
       ns0:preamble="/home/sriranga/Desktop/MCT/package.tex"
       style="font-style:normal;font-variant:normal;font-weight:normal;font-stretch:normal;letter-spacing:normal;word-spacing:normal;text-anchor:start;fill:none;stroke:#000000;stroke-width:1;stroke-linecap:butt;stroke-linejoin:miter;stroke-miterlimit:10.43299961;stroke-opacity:1;stroke-dasharray:none;stroke-dashoffset:0"><polygon
         style="fill:#000000;stroke-width:0"
         points="229.14,709.96 224.05,709.96 224.05,709.4 229.14,709.4 "
         id="polygon5061" /><path
         style="fill:#000000;stroke-width:0"
         inkscape:connector-curvature="0"
         d="m 232.66,713.84 -1.79,-0.9 v -0.14 c 0.12,0.05 0.23,0.09 0.27,0.11 0.18,0.07 0.35,0.11 0.45,0.11 0.21,0 0.3,-0.15 0.3,-0.47 v -4.5 c 0,-0.33 -0.08,-0.56 -0.24,-0.65 -0.15,-0.09 -0.29,-0.12 -0.71,-0.13 v -0.15 h 2.75 v 0.15 c -0.79,0.01 -0.95,0.11 -0.95,0.59 v 5.96 z"
         id="path5063" /><path
         style="fill:#000000;stroke-width:0"
         inkscape:connector-curvature="0"
         d="m 237.28,713.84 -0.05,0 -0.06,0 -0.04,0 -0.05,-0.01 -0.05,0 -0.05,-0.01 -0.05,0 -0.04,-0.01 -0.05,-0.01 -0.04,-0.01 -0.05,-0.01 -0.04,-0.01 -0.04,-0.01 -0.04,-0.02 -0.05,-0.01 -0.04,-0.02 -0.04,-0.01 -0.04,-0.02 -0.04,-0.02 -0.04,-0.02 -0.04,-0.02 -0.03,-0.02 -0.04,-0.03 -0.04,-0.02 -0.04,-0.02 -0.03,-0.03 -0.04,-0.03 -0.04,-0.02 -0.03,-0.03 -0.04,-0.03 -0.03,-0.03 -0.04,-0.04 c -0.57,-0.55 -0.95,-1.7 -0.95,-2.86 0,-1.08 0.33,-2.24 0.79,-2.8 0.37,-0.44 0.88,-0.67 1.46,-0.67 v 0.25 c -0.86,0 -1.3,1.07 -1.3,3.13 0,2.11 0.45,3.21 1.31,3.21 h 0 c 0.83,0 1.28,-1.12 1.28,-3.2 0,-2.07 -0.44,-3.14 -1.29,-3.14 v -0.25 c 0.5,0 0.93,0.17 1.29,0.51 0.58,0.55 0.96,1.7 0.96,2.9 0,2.04 -0.91,3.44 -2.21,3.44 z"
         id="path5065" /><path
         style="fill:#000000;stroke-width:0"
         inkscape:connector-curvature="0"
         d="m 246.58,713.61 h -1.85 v -0.16 c 0.44,-0.05 0.62,-0.15 0.62,-0.34 0,-0.18 -0.19,-0.61 -0.51,-1.18 l -2.05,-3.53 -0.66,4.4 c -0.01,0.05 -0.01,0.09 -0.01,0.15 0,0.33 0.14,0.43 0.76,0.5 v 0.16 h -2.39 v -0.16 c 0.55,-0.07 0.57,-0.1 0.78,-1.34 l 0.85,-5.16 h 0.19 l 3.71,6.1 c 0.17,0.27 0.33,0.39 0.56,0.4 z"
         id="path5067" /></g>    <text
       sodipodi:linespacing="100%"
       id="text5158"
       y="845.87781"
       x="10.196812"
       style="font-size:12px;font-style:normal;font-variant:normal;font-weight:normal;font-stretch:normal;text-align:start;line-height:100%;letter-spacing:0px;word-spacing:0px;text-anchor:start;fill:#000000;fill-opacity:1;stroke:none;font-family:LMRoman12;-inkscape-font-specification:LMRoman12"
       xml:space="preserve"><tspan
         y="845.87781"
         x="10.196812"
         id="tspan5160"
         sodipodi:role="line">0</tspan></text>
    <g
       style="font-style:normal;font-variant:normal;font-weight:normal;font-stretch:normal;letter-spacing:normal;word-spacing:normal;text-anchor:start;fill:none;stroke:#000000;stroke-width:1;stroke-linecap:butt;stroke-linejoin:miter;stroke-miterlimit:10.43299961;stroke-opacity:1;stroke-dasharray:none;stroke-dashoffset:0"
       ns0:preamble="/home/sriranga/Desktop/MCT/package.tex"
       ns0:text="\\begin{align*}\nV_Z &amp; = 5V\\\\\nV_F &amp; = 0.7V\n\\end{align*}"
       text-anchor="start"
       word-spacing="normal"
       letter-spacing="normal"
       font-size-adjust="none"
       font-stretch="normal"
       font-weight="normal"
       font-variant="normal"
       font-style="normal"
       fill-opacity="1"
       fill-rule="evenodd"
       fill="none"
       stroke-opacity="1"
       stroke-dashoffset="0"
       stroke-dasharray="none"
       stroke-miterlimit="10.433"
       stroke-linejoin="miter"
       stroke-linecap="butt"
       stroke="black"
       xml:space="preserve"
       transform="matrix(1.2,0,0,-1.2,-36.954844,1686.4396)"
       id="g3140"><path
         id="path3142"
         fill="black"
         stroke-width="0"
         d="M381.45,713.61 H379.6 V713.45 C380.05,713.4,380.22,713.3,380.22,713.11 C380.22,712.93,380.04,712.5,379.71,711.93 L377.66,708.4 L377,712.8 C376.99,712.85,376.99,712.89,376.99,712.95 C376.99,713.28,377.13,713.38,377.76,713.45 V713.61 H375.36 V713.45 C375.92,713.38,375.94,713.35,376.14,712.11 L376.99,706.95 H377.18 L380.89,713.05 C381.06,713.32,381.22,713.44,381.45,713.45 Z " /><path
         id="path3144"
         fill="black"
         stroke-width="0"
         d="M384.91,710.17 H381.53 L381.2,709.16 L381.34,709.12 C381.48,709.43,381.57,709.55,381.7,709.66 C381.9,709.83,382.27,709.92,382.79,709.92 H383.98 L380.65,705.73 V705.63 H384.17 L384.54,706.8 L384.41,706.82 C384.19,706.38,384.06,706.21,383.82,706.08 C383.59,705.94,383.24,705.88,382.67,705.88 H381.55 L384.91,710.07 Z " /><polygon
         id="polygon3146"
         fill="black"
         stroke-width="0"
         points="393.89,710.4 393.89,710.96 388.8,710.96 388.8,710.4 " /><polygon
         id="polygon3148"
         fill="black"
         stroke-width="0"
         points="393.89,708.39 393.89,708.94 388.8,708.94 388.8,708.39 " /><path
         id="path3150"
         fill="black"
         stroke-width="0"
         d="M399.09,712.92 H401.04 C401.2,712.92,401.23,712.94,401.27,713.01 L401.64,713.89 L401.55,713.96 C401.4,713.75,401.3,713.7,401.1,713.7 H399.02 L397.93,711.35 C397.92,711.33,397.92,711.32,397.92,711.3 C397.92,711.25,397.96,711.22,398.04,711.22 C398.36,711.22,398.76,711.15,399.17,711.02 C400.31,710.65,400.84,710.04,400.84,709.05 C400.84,708.1,400.23,707.35,399.45,707.35 C399.26,707.35,399.09,707.42,398.79,707.64 C398.47,707.87,398.24,707.97,398.03,707.97 C397.74,707.97,397.6,707.85,397.6,707.6 C397.6,707.22,398.07,706.99,398.82,706.99 C399.65,706.99,400.37,707.25,400.87,707.76 C401.32,708.21,401.53,708.77,401.53,709.53 C401.53,710.24,401.34,710.7,400.85,711.2 C400.41,711.64,399.84,711.86,398.67,712.07 Z " /><path
         id="path3152"
         fill="black"
         stroke-width="0"
         d="M409.11,713.61 H407.26 V713.45 C407.71,713.4,407.89,713.3,407.89,713.11 C407.89,712.93,407.7,712.5,407.37,711.93 L405.32,708.4 L404.67,712.8 C404.65,712.85,404.65,712.89,404.65,712.95 C404.65,713.28,404.79,713.38,405.42,713.45 V713.61 H403.02 V713.45 C403.58,713.38,403.6,713.35,403.81,712.11 L404.65,706.95 H404.84 L408.55,713.05 C408.72,713.32,408.88,713.44,409.11,713.45 Z " /><path
         id="path3154"
         fill="black"
         stroke-width="0"
         d="M380.83,698.67 H378.98 V698.51 C379.42,698.46,379.6,698.36,379.6,698.17 C379.6,697.98,379.41,697.55,379.09,696.99 L377.04,693.45 L376.38,697.85 C376.37,697.9,376.37,697.94,376.37,698 C376.37,698.34,376.51,698.44,377.14,698.51 V698.67 H374.74 V698.51 C375.3,698.44,375.32,698.41,375.52,697.17 L376.37,692 H376.56 L380.27,698.11 C380.44,698.38,380.6,698.5,380.83,698.51 Z " /><path
         id="path3156"
         fill="black"
         stroke-width="0"
         d="M384.74,695.23 H381.27 V695.12 C381.72,695.08,381.8,695.03,381.8,694.83 C381.8,694.73,381.78,694.55,381.73,694.39 L380.87,691.31 C380.74,690.9,380.7,690.85,380.3,690.8 V690.69 H382.05 V690.8 C381.65,690.82,381.52,690.9,381.52,691.1 C381.52,691.16,381.55,691.26,381.59,691.42 L382.02,692.97 C382.28,692.95,382.43,692.95,382.58,692.95 C382.86,692.95,382.9,692.94,382.97,692.91 C383.07,692.86,383.12,692.77,383.12,692.63 C383.12,692.52,383.11,692.43,383.07,692.22 L383.18,692.18 L383.71,693.81 L383.59,693.84 C383.27,693.22,383.25,693.21,382.08,693.2 L382.54,694.82 C382.58,694.96,382.68,695,382.97,695 C384.14,695,384.39,694.91,384.39,694.48 C384.39,694.43,384.39,694.4,384.38,694.31 C384.37,694.27,384.37,694.26,384.37,694.18 L384.51,694.16 Z " /><polygon
         id="polygon3158"
         fill="black"
         stroke-width="0"
         points="393.89,695.46 393.89,696.02 388.8,696.02 388.8,695.46 " /><polygon
         id="polygon3160"
         fill="black"
         stroke-width="0"
         points="393.89,693.44 393.89,694 388.8,694 388.8,693.44 " /><path
         id="path3162"
         fill="black"
         stroke-width="0"
         d="M399.81,698.9 L399.76,698.9 L399.71,698.89 L399.66,698.89 L399.61,698.89 L399.56,698.88 L399.52,698.88 L399.47,698.87 L399.42,698.86 L399.38,698.86 L399.33,698.85 L399.29,698.84 L399.25,698.82 L399.2,698.81 L399.16,698.8 L399.12,698.78 L399.08,698.77 L399.04,698.75 L399,698.73 L398.96,698.72 L398.92,698.7 L398.88,698.68 L398.84,698.65 L398.8,698.63 L398.77,698.61 L398.73,698.58 L398.69,698.56 L398.66,698.53 L398.62,698.5 L398.58,698.47 L398.55,698.44 L398.51,698.41 L398.48,698.38 C397.9,697.82,397.52,696.68,397.52,695.52 C397.52,694.44,397.85,693.27,398.32,692.72 C398.69,692.28,399.2,692.04,399.77,692.04 V692.3 C398.92,692.3,398.48,693.36,398.48,695.43 C398.48,697.53,398.93,698.64,399.78,698.64 H399.78 C400.62,698.64,401.07,697.52,401.07,695.44 C401.07,693.36,400.63,692.3,399.77,692.3 V692.04 C400.28,692.04,400.71,692.21,401.07,692.56 C401.64,693.1,402.02,694.26,402.02,695.46 C402.02,697.5,401.11,698.9,399.81,698.9 Z " /><path
         id="path3164"
         fill="black"
         stroke-width="0"
         d="M404.07,692.61 L404.07,692.64 L404.07,692.67 L404.06,692.69 L404.06,692.72 L404.05,692.75 L404.04,692.77 L404.03,692.8 L404.02,692.83 L404.01,692.85 L404,692.88 L403.99,692.9 L403.97,692.92 L403.95,692.94 L403.94,692.97 L403.92,692.99 L403.9,693.01 L403.88,693.03 L403.86,693.04 L403.84,693.06 L403.82,693.08 L403.8,693.09 L403.77,693.1 L403.75,693.12 L403.72,693.13 L403.7,693.14 L403.67,693.15 L403.65,693.16 L403.62,693.16 L403.59,693.17 L403.57,693.17 L403.54,693.17 L403.51,693.17 C403.21,693.17,402.96,692.93,402.96,692.61 C402.96,692.23,403.3,692.07,403.51,692.07 C403.72,692.07,404.07,692.24,404.07,692.61 Z " /><path
         id="path3166"
         fill="black"
         stroke-width="0"
         d="M409.22,698.76 H405.54 L404.96,697.3 L405.12,697.22 C405.55,697.89,405.73,698.02,406.28,698.02 H408.44 L406.47,692.1 H407.11 L409.22,698.6 Z " /><path
         id="path3168"
         fill="black"
         stroke-width="0"
         d="M416.58,698.67 H414.73 V698.51 C415.18,698.46,415.36,698.36,415.36,698.17 C415.36,697.98,415.17,697.55,414.84,696.99 L412.79,693.45 L412.14,697.85 C412.13,697.9,412.13,697.94,412.13,698 C412.13,698.34,412.27,698.44,412.89,698.51 V698.67 H410.49 V698.51 C411.05,698.44,411.07,698.41,411.28,697.17 L412.13,692 H412.32 L416.03,698.11 C416.2,698.38,416.36,698.5,416.58,698.51 Z " /></g>  </g>
</svg>
