<?xml version="1.0" encoding="UTF-8" standalone="no"?>
<!-- Created with Inkscape (http://www.inkscape.org/) -->

<svg
   xmlns:ns0="http://www.iki.fi/pav/software/textext/"
   xmlns:dc="http://purl.org/dc/elements/1.1/"
   xmlns:cc="http://creativecommons.org/ns#"
   xmlns:rdf="http://www.w3.org/1999/02/22-rdf-syntax-ns#"
   xmlns:svg="http://www.w3.org/2000/svg"
   xmlns="http://www.w3.org/2000/svg"
   xmlns:sodipodi="http://sodipodi.sourceforge.net/DTD/sodipodi-0.dtd"
   xmlns:inkscape="http://www.inkscape.org/namespaces/inkscape"
   width="425.19684"
   height="283.46457"
   id="svg2"
   version="1.1"
   inkscape:version="0.48.4 r9939"
   sodipodi:docname="exr5.3.svg">
  <sodipodi:namedview
     id="base"
     pagecolor="#ffffff"
     bordercolor="#666666"
     borderopacity="1.0"
     inkscape:pageopacity="0.0"
     inkscape:pageshadow="2"
     inkscape:zoom="2.4004692"
     inkscape:cx="225.46972"
     inkscape:cy="156.61727"
     inkscape:document-units="cm"
     inkscape:current-layer="layer1"
     showgrid="false"
     units="cm"
     inkscape:object-nodes="true"
     inkscape:window-width="1366"
     inkscape:window-height="744"
     inkscape:window-x="0"
     inkscape:window-y="24"
     inkscape:window-maximized="1"
     showguides="true"
     inkscape:guide-bbox="true">
    <inkscape:grid
       type="xygrid"
       id="grid2985"
       empspacing="5"
       visible="true"
       enabled="true"
       snapvisiblegridlinesonly="true" />
  </sodipodi:namedview>
  <defs
     id="defs4">
    <marker
       style="overflow:visible"
       id="Arrow1Mstart"
       refX="0.0"
       refY="0.0"
       orient="auto"
       inkscape:stockid="Arrow1Mstart">
      <path
         transform="scale(0.4) translate(10,0)"
         style="fill-rule:evenodd;stroke:#000000;stroke-width:1.0pt"
         d="M 0.0,0.0 L 5.0,-5.0 L -12.5,0.0 L 5.0,5.0 L 0.0,0.0 z "
         id="path6343" />
    </marker>
    <marker
       inkscape:stockid="Arrow1Mend"
       orient="auto"
       refY="0"
       refX="0"
       id="Arrow1Mend"
       style="overflow:visible">
      <path
         id="path3949"
         d="M 0,0 5,-5 -12.5,0 5,5 0,0 z"
         style="fill-rule:evenodd;stroke:#000000;stroke-width:1pt"
         transform="matrix(-0.4,0,0,-0.4,-4,0)"
         inkscape:connector-curvature="0" />
    </marker>
    <marker
       inkscape:stockid="Arrow1Mend"
       orient="auto"
       refY="0"
       refX="0"
       id="Arrow1Mend-0"
       style="overflow:visible">
      <path
         id="path3949-9"
         d="M 0,0 5,-5 -12.5,0 5,5 0,0 z"
         style="fill-rule:evenodd;stroke:#000000;stroke-width:1pt"
         transform="matrix(-0.4,0,0,-0.4,-4,0)"
         inkscape:connector-curvature="0" />
    </marker>
    <marker
       inkscape:stockid="Arrow1Mend"
       orient="auto"
       refY="0"
       refX="0"
       id="Arrow1Mend-0-1"
       style="overflow:visible">
      <path
         id="path3949-9-4"
         d="M 0,0 5,-5 -12.5,0 5,5 0,0 z"
         style="fill-rule:evenodd;stroke:#000000;stroke-width:1pt"
         transform="matrix(-0.4,0,0,-0.4,-4,0)"
         inkscape:connector-curvature="0" />
    </marker>
    <marker
       inkscape:stockid="Arrow1Mend"
       orient="auto"
       refY="0"
       refX="0"
       id="Arrow1Mend-8"
       style="overflow:visible">
      <path
         id="path3949-6"
         d="M 0,0 5,-5 -12.5,0 5,5 0,0 z"
         style="fill-rule:evenodd;stroke:#000000;stroke-width:1pt"
         transform="matrix(-0.4,0,0,-0.4,-4,0)"
         inkscape:connector-curvature="0" />
    </marker>
    <marker
       style="overflow:visible"
       id="Arrow1Mstart-6"
       refX="0.0"
       refY="0.0"
       orient="auto"
       inkscape:stockid="Arrow1Mstart">
      <path
         transform="scale(0.4) translate(10,0)"
         style="fill-rule:evenodd;stroke:#000000;stroke-width:1.0pt"
         d="M 0.0,0.0 L 5.0,-5.0 L -12.5,0.0 L 5.0,5.0 L 0.0,0.0 z "
         id="path6343-6" />
    </marker>
  </defs>
  <metadata
     id="metadata7">
    <rdf:RDF>
      <cc:Work
         rdf:about="">
        <dc:format>image/svg+xml</dc:format>
        <dc:type
           rdf:resource="http://purl.org/dc/dcmitype/StillImage" />
        <dc:title></dc:title>
      </cc:Work>
    </rdf:RDF>
  </metadata>
  <g
     inkscape:label="Layer 1"
     inkscape:groupmode="layer"
     id="layer1"
     transform="translate(0,-768.89631)">
    <path
       inkscape:connector-curvature="0"
       d="m 216.51417,966.85371 0,-43.65797"
       style="fill:none;stroke:#231f20;stroke-width:1;stroke-linecap:round;stroke-linejoin:round;stroke-miterlimit:3.86369991;stroke-opacity:1;stroke-dasharray:none"
       id="path9587" />
    <path
       inkscape:connector-curvature="0"
       d="m 216.48292,965.35946 0,8.03755"
       style="fill:none;stroke:#231f20;stroke-width:1;stroke-linecap:round;stroke-linejoin:round;stroke-miterlimit:3.86369991;stroke-opacity:1;stroke-dasharray:none"
       id="path9589" />
    <path
       inkscape:connector-curvature="0"
       d="m 225.23292,973.39701 -17.5,0"
       style="fill:none;stroke:#231f20;stroke-width:1;stroke-linecap:round;stroke-linejoin:round;stroke-miterlimit:3.86369991;stroke-opacity:1;stroke-dasharray:none"
       id="path9591" />
    <path
       inkscape:connector-curvature="0"
       d="m 223.35792,976.70221 -13.75,0"
       style="fill:none;stroke:#231f20;stroke-width:1;stroke-linecap:round;stroke-linejoin:round;stroke-miterlimit:3.86369991;stroke-opacity:1;stroke-dasharray:none"
       id="path9593" />
    <path
       inkscape:connector-curvature="0"
       d="m 221.48292,980.00591 -10,0"
       style="fill:none;stroke:#231f20;stroke-width:1;stroke-linecap:round;stroke-linejoin:round;stroke-miterlimit:3.86369991;stroke-opacity:1;stroke-dasharray:none"
       id="path9595" />
    <path
       inkscape:connector-curvature="0"
       d="m 297.71538,908.88525 91.27522,0"
       style="fill:none;stroke:#231f20;stroke-width:1;stroke-linecap:round;stroke-linejoin:round;stroke-miterlimit:3.86369991;stroke-opacity:1;stroke-dasharray:none"
       id="path9641" />
    <path
       sodipodi:nodetypes="cc"
       inkscape:connector-curvature="0"
       d="m 257.23815,891.20365 -177.960832,0"
       style="fill:none;stroke:#231f20;stroke-width:1;stroke-linecap:round;stroke-linejoin:round;stroke-miterlimit:3.86369991;stroke-opacity:1;stroke-dasharray:none"
       id="path9645" />
    <path
       inkscape:connector-curvature="0"
       d="m 218.71732,924.70078 38.81733,0"
       style="fill:none;stroke:#231f20;stroke-width:1;stroke-linecap:round;stroke-linejoin:round;stroke-miterlimit:3.86369991;stroke-opacity:1;stroke-dasharray:none"
       id="path9647" />
    <path
       sodipodi:nodetypes="ccc"
       inkscape:connector-curvature="0"
       d="m 257.56076,826.9389 -40.62024,0 0,65.64412"
       style="fill:none;stroke:#231f20;stroke-width:1;stroke-linecap:round;stroke-linejoin:round;stroke-miterlimit:3.86369991;stroke-opacity:1;stroke-dasharray:none"
       id="path9649" />
    <text
       style="font-size:15px"
       y="913.41785"
       x="394.3602"
       id="text9663">
      <tspan
         id="tspan9665"
         y="913.41785"
         x="394.3602"
         style="font-size:10px;font-style:italic;font-variant:normal;writing-mode:lr-tb;fill:#231f20;fill-opacity:1;fill-rule:nonzero;stroke:none;font-family:Times;-inkscape-font-specification:Times-Italic">v</tspan>
    </text>
    <text
       style="font-size:15px"
       y="915.91785"
       x="398.80014"
       id="text9667">
      <tspan
         id="tspan9669"
         y="915.91785"
         x="398.80014"
         style="font-size:7.5px;font-style:italic;font-variant:normal;writing-mode:lr-tb;fill:#231f20;fill-opacity:1;fill-rule:nonzero;stroke:none;font-family:Times;-inkscape-font-specification:Times-Italic">o</tspan>
    </text>
    <path
       inkscape:connector-curvature="0"
       d="m 219.11802,891.20365 c 0,1.14988 -0.9325,2.0835 -2.08375,2.0835 -1.15125,0 -2.08375,-0.93362 -2.08375,-2.0835 0,-1.14987 0.9325,-2.084 2.08375,-2.084 1.15125,0 2.08375,0.93413 2.08375,2.084"
       style="fill:#ffffff;fill-opacity:1;fill-rule:nonzero;stroke:none"
       id="path9671" />
    <path
       inkscape:connector-curvature="0"
       d="m 219.11802,891.20365 c 0,1.14988 -0.9325,2.0835 -2.08375,2.0835 -1.15125,0 -2.08375,-0.93362 -2.08375,-2.0835 0,-1.14987 0.9325,-2.084 2.08375,-2.084 1.15125,0 2.08375,0.93413 2.08375,2.084 z"
       style="fill:none;stroke:#231f20;stroke-width:0.625;stroke-linecap:butt;stroke-linejoin:miter;stroke-miterlimit:4;stroke-opacity:1;stroke-dasharray:none"
       id="path9673" />
    <path
       inkscape:connector-curvature="0"
       d="m 390.33642,908.80941 c 0,1.15138 -0.9325,2.084 -2.08375,2.084 -1.15125,0 -2.08375,-0.93262 -2.08375,-2.084 0,-1.15087 0.9325,-2.0835 2.08375,-2.0835 1.15125,0 2.08375,0.93263 2.08375,2.0835"
       style="fill:#ffffff;fill-opacity:1;fill-rule:nonzero;stroke:none"
       id="path9675" />
    <path
       inkscape:connector-curvature="0"
       d="m 390.33642,908.80941 c 0,1.15138 -0.9325,2.084 -2.08375,2.084 -1.15125,0 -2.08375,-0.93262 -2.08375,-2.084 0,-1.15087 0.9325,-2.0835 2.08375,-2.0835 1.15125,0 2.08375,0.93263 2.08375,2.0835 z"
       style="fill:none;stroke:#231f20;stroke-width:0.625;stroke-linecap:butt;stroke-linejoin:miter;stroke-miterlimit:4;stroke-opacity:1;stroke-dasharray:none"
       id="path9677" />
    <path
       inkscape:connector-curvature="0"
       d="m 109.67297,895.82765 40.564,0 0,-9.33594 -40.564,0 0,9.33594 z"
       style="fill:#ffffff;fill-opacity:1;fill-rule:nonzero;stroke:none"
       id="path9683" />
    <path
       inkscape:connector-curvature="0"
       d="m 150.51522,891.20365 -4.51563,0 -1.96287,4.624 -3.9365,-9.33625 -3.99412,9.33625 -3.99663,-9.33625 -3.938,9.33625 -3.90375,-9.33625 -3.938,9.33625 -3.99662,-9.21625 -1.91163,4.59225 -4.7485,0"
       style="fill:none;stroke:#231f20;stroke-width:1;stroke-linecap:round;stroke-linejoin:round;stroke-miterlimit:3.86369991;stroke-opacity:1;stroke-dasharray:none"
       id="path9685" />
    <path
       inkscape:connector-curvature="0"
       d="m 296.06405,826.96765 -4.51625,0 -1.9625,4.62375 -3.93625,-9.335 -3.99375,9.335 -3.9975,-9.335 -3.9375,9.335 -3.90375,-9.335 -3.93875,9.335 -3.99625,-9.21625 -1.91125,4.5925 -4.74875,0"
       style="fill:none;stroke:#231f20;stroke-width:1;stroke-linecap:round;stroke-linejoin:round;stroke-miterlimit:3.86369991;stroke-opacity:1;stroke-dasharray:none"
       id="path9689" />
    <text
       style="font-size:15.00007534px"
       y="-922.02716"
       x="-265.69739"
       id="text9721"
       transform="matrix(-1.000005,1.99999e-5,-9.99995e-6,-0.999995,0,0)">
      <tspan
         id="tspan9723"
         y="-922.02716"
         x="-265.69739"
         style="font-size:10.00014973px;font-variant:normal;font-weight:normal;writing-mode:lr-tb;fill:#231f20;fill-opacity:1;fill-rule:nonzero;stroke:none;font-family:Symbol;-inkscape-font-specification:Symbol">+</tspan>
      <tspan
         id="tspan9725"
         y="-888.63318"
         x="-265.69739"
         style="font-size:10.00014973px;font-variant:normal;font-weight:normal;writing-mode:lr-tb;fill:#231f20;fill-opacity:1;fill-rule:nonzero;stroke:none;font-family:Symbol;-inkscape-font-specification:Symbol">−</tspan>
    </text>
    <path
       inkscape:connector-curvature="0"
       d="m 218.50017,924.57528 c 0,1.14987 -0.9325,2.08387 -2.08375,2.08387 -1.15125,0 -2.08375,-0.934 -2.08375,-2.08387 0,-1.15001 0.9325,-2.0835 2.08375,-2.0835 1.15125,0 2.08375,0.93349 2.08375,2.0835 z"
       style="fill:#ffffff;stroke:#231f20;stroke-width:0.625;stroke-linecap:butt;stroke-linejoin:miter;stroke-miterlimit:4;stroke-opacity:1;stroke-dasharray:none"
       id="path9729" />
    <path
       inkscape:connector-curvature="0"
       d="m 257.80659,883.95065 40,24.99808 -40,25 0,-49.99808 z"
       style="fill:none;stroke:#231f20;stroke-width:1.2;stroke-linecap:round;stroke-linejoin:round;stroke-miterlimit:3.86369991;stroke-opacity:1;stroke-dasharray:none"
       id="path4319" />
    <path
       id="path4134"
       style="fill:none;stroke:#231f20;stroke-width:1;stroke-linecap:round;stroke-linejoin:round;stroke-miterlimit:3.86369991;stroke-opacity:1;stroke-dasharray:none"
       d="m 294.19302,826.9389 47.88349,0 0,81.71871"
       inkscape:connector-curvature="0"
       sodipodi:nodetypes="ccc" />
    <path
       id="path4665"
       style="fill:none;stroke:#231f20;stroke-width:0.99999994;stroke-linecap:round;stroke-linejoin:round;stroke-miterlimit:3.86369991;stroke-opacity:1;stroke-dasharray:none"
       d="m 214.3641,891.25398 -34.56754,0 0,81.38115"
       inkscape:connector-curvature="0"
       sodipodi:nodetypes="ccc" />
    <path
       sodipodi:nodetypes="cccccccccccc"
       inkscape:connector-curvature="0"
       d="m 179.5682,972.85329 -33.56861,0 -1.96287,4.624 -3.9365,-9.33625 -3.99412,9.33625 -3.99663,-9.33625 -3.938,9.33625 -3.90375,-9.33625 -3.938,9.33625 -3.99662,-9.21625 -1.91163,4.59225 -35.617296,0"
       style="fill:none;stroke:#231f20;stroke-width:1;stroke-linecap:round;stroke-linejoin:round;stroke-miterlimit:3.86369991;stroke-opacity:1;stroke-dasharray:none"
       id="path4669" />
    <path
       id="path4671"
       style="fill:none;stroke:#231f20;stroke-width:0.992;stroke-linecap:round;stroke-linejoin:round;stroke-miterlimit:3.86369991;stroke-opacity:1;stroke-dasharray:none"
       d="m 179.5682,931.98868 -33.56861,0 -1.96287,4.624 -3.9365,-9.33625 -3.99412,9.33625 -3.99663,-9.33625 -3.938,9.33625 -3.90375,-9.33625 -3.938,9.33625 -3.99662,-9.21625 -1.91163,4.59225 -35.617296,0"
       inkscape:connector-curvature="0"
       sodipodi:nodetypes="cccccccccccc" />
    <path
       id="path4673"
       style="fill:#ffffff;stroke:#231f20;stroke-width:0.62500000000000000;stroke-linecap:butt;stroke-linejoin:miter;stroke-miterlimit:4;stroke-opacity:1;stroke-dasharray:none"
       d="m 80.81371,891.20365 c 0,1.14988 -0.9325,2.0835 -2.08375,2.0835 -1.15125,0 -2.08375,-0.93362 -2.08375,-2.0835 0,-1.14987 0.9325,-2.084 2.08375,-2.084 1.15125,0 2.08375,0.93413 2.08375,2.084 z"
       inkscape:connector-curvature="0" />
    <path
       inkscape:connector-curvature="0"
       d="m 80.81371,931.98375 c 0,1.14988 -0.9325,2.0835 -2.08375,2.0835 -1.15125,0 -2.08375,-0.93362 -2.08375,-2.0835 0,-1.14987 0.9325,-2.084 2.08375,-2.084 1.15125,0 2.08375,0.93413 2.08375,2.084 z"
       style="fill:#ffffff;stroke:#231f20;stroke-width:0.625;stroke-linecap:butt;stroke-linejoin:miter;stroke-miterlimit:4;stroke-opacity:1;stroke-dasharray:none"
       id="path4675" />
    <path
       id="path4677"
       style="fill:#ffffff;stroke:#231f20;stroke-width:0.625;stroke-linecap:butt;stroke-linejoin:miter;stroke-miterlimit:4;stroke-opacity:1;stroke-dasharray:none"
       d="m 80.81371,972.76385 c 0,1.14988 -0.9325,2.0835 -2.08375,2.0835 -1.15125,0 -2.08375,-0.93362 -2.08375,-2.0835 0,-1.14987 0.9325,-2.084 2.08375,-2.084 1.15125,0 2.08375,0.93413 2.08375,2.084 z"
       inkscape:connector-curvature="0" />
    <path
       d="m 182.29655,891.25397 c 0,1.38071 -1.11928,2.5 -2.5,2.5 -1.38071,0 -2.5,-1.11929 -2.5,-2.5 0,-1.38071 1.11929,-2.5 2.5,-2.5 1.38072,0 2.5,1.11929 2.5,2.5 z"
       sodipodi:ry="2.5"
       sodipodi:rx="2.5"
       sodipodi:cy="891.25397"
       sodipodi:cx="179.79655"
       style="fill:#000000;stroke:none"
       id="path4679"
       sodipodi:type="arc" />
    <path
       d="m 182.06821,931.98871 c 0,1.38071 -1.11929,2.5 -2.5,2.5 -1.38072,0 -2.5,-1.11929 -2.5,-2.5 0,-1.38071 1.11928,-2.5 2.5,-2.5 1.38071,0 2.5,1.11929 2.5,2.5 z"
       sodipodi:ry="2.5"
       sodipodi:rx="2.5"
       sodipodi:cy="931.98871"
       sodipodi:cx="179.56821"
       style="fill:#000000;stroke:none"
       id="path4681"
       sodipodi:type="arc" />
    <g
       style="font-style:normal;font-variant:normal;font-weight:normal;font-stretch:normal;letter-spacing:normal;word-spacing:normal;text-anchor:start;fill:none;stroke:#000000;stroke-linecap:butt;stroke-linejoin:miter;stroke-miterlimit:10.43299961;stroke-opacity:1;stroke-dasharray:none;stroke-dashoffset:0"
       ns0:preamble="/home/sriranga/Desktop/Basic-Electronics-Figures/package.tex"
       ns0:text="10 K$\\Omega$"
       text-anchor="start"
       word-spacing="normal"
       letter-spacing="normal"
       font-size-adjust="none"
       font-stretch="normal"
       font-weight="normal"
       font-variant="normal"
       font-style="normal"
       fill-opacity="1"
       fill-rule="evenodd"
       fill="none"
       stroke-opacity="1"
       stroke-dashoffset="0"
       stroke-dasharray="none"
       stroke-miterlimit="10.433"
       stroke-linejoin="miter"
       stroke-linecap="butt"
       stroke="black"
       xml:space="preserve"
       transform="matrix(1,0,0,-1,-104.73915,1588.4526)"
       id="content"><path
         id="path5083"
         fill="black"
         stroke-width="0"
         d="M226.33,713.84 L224.54,712.94 V712.8 C224.66,712.85,224.76,712.89,224.8,712.91 C224.98,712.98,225.15,713.02,225.25,713.02 C225.46,713.02,225.55,712.87,225.55,712.55 V708.05 C225.55,707.72,225.47,707.49,225.31,707.4 C225.16,707.31,225.02,707.28,224.61,707.27 V707.12 H227.35 V707.27 C226.57,707.28,226.41,707.38,226.41,707.86 V713.82 Z " /><path
         id="path5085"
         fill="black"
         stroke-width="0"
         d="M230.94,713.84 L230.89,713.84 L230.84,713.84 L230.79,713.84 L230.74,713.83 L230.69,713.83 L230.65,713.82 L230.6,713.82 L230.55,713.81 L230.51,713.8 L230.46,713.79 L230.42,713.78 L230.37,713.77 L230.33,713.76 L230.29,713.74 L230.25,713.73 L230.21,713.71 L230.17,713.7 L230.13,713.68 L230.09,713.66 L230.05,713.64 L230.01,713.62 L229.97,713.6 L229.93,713.57 L229.89,713.55 L229.86,713.53 L229.82,713.5 L229.78,713.47 L229.75,713.45 L229.71,713.42 L229.68,713.39 L229.64,713.36 L229.61,713.32 C229.03,712.77,228.65,711.62,228.65,710.46 C228.65,709.38,228.98,708.22,229.45,707.66 C229.82,707.22,230.32,706.99,230.9,706.99 V707.24 C230.04,707.24,229.61,708.31,229.61,710.37 C229.61,712.48,230.05,713.58,230.91,713.58 H230.91 C231.75,713.58,232.19,712.46,232.19,710.38 C232.19,708.31,231.76,707.24,230.9,707.24 V706.99 C231.41,706.99,231.84,707.16,232.19,707.5 C232.77,708.05,233.15,709.2,233.15,710.4 C233.15,712.44,232.24,713.84,230.94,713.84 Z " /><path
         id="path5087"
         fill="black"
         stroke-width="0"
         d="M239.99,713.51 L240.02,713.51 L240.04,713.51 L240.06,713.51 L240.08,713.51 L240.09,713.51 L240.1,713.51 L240.11,713.51 L240.12,713.51 L240.13,713.5 L240.14,713.5 L240.14,713.5 L240.15,713.5 L240.16,713.5 L240.17,713.5 L240.18,713.5 L240.19,713.5 L240.19,713.5 L240.2,713.5 L240.21,713.5 L240.21,713.5 L240.22,713.5 L240.22,713.5 L240.23,713.5 L240.24,713.5 L240.24,713.5 L240.24,713.5 L240.25,713.5 L240.25,713.5 C240.55,713.48,240.67,713.4,240.67,713.21 C240.67,712.99,240.44,712.69,239.9,712.18 L238.13,710.58 V712.62 C238.13,713.34,238.24,713.45,239.05,713.51 V713.7 H236.22 V713.51 C237,713.45,237.12,713.32,237.12,712.62 V708.32 C237.12,707.49,237.01,707.36,236.22,707.31 V707.12 H239.03 V707.31 C238.25,707.36,238.13,707.48,238.13,708.21 V710.07 L238.39,710.27 L239.45,709.23 C240.2,708.49,240.74,707.78,240.74,707.54 C240.74,707.4,240.6,707.33,240.32,707.32 C240.27,707.32,240.16,707.32,240.04,707.31 V707.12 H243.08 V707.31 C242.56,707.32,242.42,707.42,241.52,708.39 L239.2,710.87 L241.09,712.74 C241.76,713.38,241.92,713.46,242.6,713.51 V713.7 H239.99 Z " /><path
         id="path5089"
         fill="black"
         stroke-width="0"
         d="M250.18,707.12 V708.65 H250 C249.98,708.14,249.69,708.03,249.24,708.03 H247.88 L247.93,708.36 C249.2,708.72,249.95,709.71,249.95,711.03 C249.95,712.83,248.5,713.85,246.81,713.85 C245.13,713.85,243.62,712.78,243.62,710.99 C243.62,709.78,244.41,708.59,245.65,708.36 L245.66,708.03 H244.34 C243.86,708.03,243.59,708.13,243.55,708.65 H243.37 V707.12 H246.09 L245.99,708.59 C244.97,708.96,244.75,709.99,244.75,710.97 C244.75,712.19,245.41,713.5,246.79,713.5 C248.22,713.5,248.84,712.14,248.84,710.9 C248.84,709.95,248.61,708.91,247.59,708.59 L247.46,707.12 Z " /></g>    <g
       id="g5241"
       transform="matrix(1,0,0,-1,-104.73915,1630.1189)"
       xml:space="preserve"
       stroke="black"
       stroke-linecap="butt"
       stroke-linejoin="miter"
       stroke-miterlimit="10.433"
       stroke-dasharray="none"
       stroke-dashoffset="0"
       stroke-opacity="1"
       fill="none"
       fill-rule="evenodd"
       fill-opacity="1"
       font-style="normal"
       font-variant="normal"
       font-weight="normal"
       font-stretch="normal"
       font-size-adjust="none"
       letter-spacing="normal"
       word-spacing="normal"
       text-anchor="start"
       ns0:text="5 K$\\Omega$"
       ns0:preamble="/home/sriranga/Desktop/Basic-Electronics-Figures/package.tex"
       style="font-style:normal;font-variant:normal;font-weight:normal;font-stretch:normal;letter-spacing:normal;word-spacing:normal;text-anchor:start;fill:none;stroke:#000000;stroke-linecap:butt;stroke-linejoin:miter;stroke-miterlimit:10.43299961;stroke-opacity:1;stroke-dasharray:none;stroke-dashoffset:0"><path
         d="M225.23,712.92 H227.18 C227.34,712.92,227.38,712.94,227.41,713.01 L227.79,713.89 L227.7,713.96 C227.55,713.75,227.45,713.7,227.24,713.7 H225.16 L224.08,711.35 C224.07,711.33,224.07,711.32,224.07,711.3 C224.07,711.25,224.11,711.22,224.19,711.22 C224.51,711.22,224.9,711.15,225.31,711.02 C226.46,710.65,226.98,710.04,226.98,709.05 C226.98,708.1,226.38,707.35,225.6,707.35 C225.4,707.35,225.23,707.42,224.93,707.64 C224.62,707.87,224.39,707.97,224.18,707.97 C223.89,707.97,223.75,707.85,223.75,707.6 C223.75,707.22,224.22,706.99,224.96,706.99 C225.8,706.99,226.52,707.25,227.01,707.76 C227.47,708.21,227.68,708.77,227.68,709.53 C227.68,710.24,227.49,710.7,226.99,711.2 C226.56,711.64,225.99,711.86,224.82,712.07 Z "
         stroke-width="0"
         fill="black"
         id="path5243" /><path
         d="M235.01,713.51 L235.04,713.51 L235.06,713.51 L235.08,713.51 L235.1,713.51 L235.12,713.51 L235.13,713.51 L235.14,713.51 L235.15,713.5 L235.15,713.5 L235.16,713.5 L235.17,713.5 L235.18,713.5 L235.19,713.5 L235.2,713.5 L235.2,713.5 L235.21,713.5 L235.22,713.5 L235.22,713.5 L235.23,713.5 L235.24,713.5 L235.24,713.5 L235.25,713.5 L235.25,713.5 L235.26,713.5 L235.26,713.5 L235.27,713.5 L235.27,713.5 C235.57,713.48,235.69,713.4,235.69,713.21 C235.69,712.99,235.46,712.69,234.91,712.18 L233.15,710.58 V712.62 C233.15,713.34,233.26,713.45,234.07,713.51 V713.7 H231.24 V713.51 C232.02,713.45,232.14,713.32,232.14,712.62 V708.32 C232.14,707.49,232.03,707.36,231.24,707.31 V707.12 H234.05 V707.31 C233.27,707.36,233.15,707.48,233.15,708.21 V710.07 L233.41,710.27 L234.47,709.23 C235.22,708.49,235.76,707.78,235.76,707.54 C235.76,707.4,235.62,707.33,235.34,707.32 C235.29,707.32,235.18,707.32,235.06,707.31 V707.12 H238.1 V707.31 C237.58,707.32,237.44,707.42,236.54,708.39 L234.22,710.87 L236.11,712.74 C236.78,713.38,236.94,713.46,237.62,713.51 V713.7 H235.01 Z "
         stroke-width="0"
         fill="black"
         id="path5245" /><path
         d="M245.2,707.12 V708.65 H245.02 C245,708.14,244.71,708.03,244.26,708.03 H242.9 L242.95,708.36 C244.22,708.72,244.97,709.71,244.97,711.03 C244.97,712.83,243.52,713.85,241.83,713.85 C240.15,713.85,238.63,712.78,238.63,710.99 C238.63,709.78,239.43,708.59,240.67,708.36 L240.68,708.03 H239.36 C238.88,708.03,238.6,708.13,238.57,708.65 H238.39 V707.12 H241.11 L241.01,708.59 C239.99,708.96,239.77,709.99,239.77,710.97 C239.77,712.19,240.43,713.5,241.81,713.5 C243.24,713.5,243.86,712.14,243.86,710.9 C243.86,709.95,243.63,708.91,242.6,708.59 L242.48,707.12 Z "
         stroke-width="0"
         fill="black"
         id="path5247" /></g>    <g
       style="font-style:normal;font-variant:normal;font-weight:normal;font-stretch:normal;letter-spacing:normal;word-spacing:normal;text-anchor:start;fill:none;stroke:#000000;stroke-linecap:butt;stroke-linejoin:miter;stroke-miterlimit:10.43299961;stroke-opacity:1;stroke-dasharray:none;stroke-dashoffset:0"
       ns0:preamble="/home/sriranga/Desktop/Basic-Electronics-Figures/package.tex"
       ns0:text="15 K$\\Omega$"
       word-spacing="normal"
       letter-spacing="normal"
       font-size-adjust="none"
       font-stretch="normal"
       font-weight="normal"
       font-variant="normal"
       font-style="normal"
       stroke-miterlimit="10.433"
       xml:space="preserve"
       transform="matrix(1,0,0,-1,-108.25315,1671.7852)"
       id="g5411"><path
         id="path5413"
         d="m 226.33,713.84 -1.79,-0.9 v -0.14 c 0.12,0.05 0.22,0.09 0.26,0.11 0.18,0.07 0.35,0.11 0.45,0.11 0.21,0 0.3,-0.15 0.3,-0.47 v -4.5 c 0,-0.33 -0.08,-0.56 -0.24,-0.65 -0.15,-0.09 -0.29,-0.12 -0.7,-0.13 v -0.15 h 2.74 v 0.15 c -0.78,0.01 -0.94,0.11 -0.94,0.59 v 5.96 z"
         inkscape:connector-curvature="0"
         style="fill:#000000;stroke-width:0" /><path
         id="path5415"
         d="m 230.21,712.92 h 1.95 c 0.16,0 0.2,0.02 0.23,0.09 l 0.38,0.88 -0.09,0.07 c -0.15,-0.21 -0.25,-0.26 -0.46,-0.26 h -2.07 l -1.09,-2.35 c -0.01,-0.02 -0.01,-0.03 -0.01,-0.05 0,-0.05 0.04,-0.08 0.12,-0.08 0.32,0 0.72,-0.07 1.12,-0.2 1.15,-0.37 1.67,-0.98 1.67,-1.97 0,-0.95 -0.6,-1.7 -1.38,-1.7 -0.2,0 -0.37,0.07 -0.66,0.29 -0.32,0.23 -0.55,0.33 -0.76,0.33 -0.29,0 -0.43,-0.12 -0.43,-0.37 0,-0.38 0.47,-0.61 1.22,-0.61 0.83,0 1.55,0.26 2.04,0.77 0.46,0.45 0.67,1.01 0.67,1.77 0,0.71 -0.19,1.17 -0.68,1.67 -0.44,0.44 -1.01,0.66 -2.18,0.87 z"
         inkscape:connector-curvature="0"
         style="fill:#000000;stroke-width:0" /><path
         id="path5417"
         d="m 239.99,713.51 0.03,0 0.02,0 0.02,0 0.02,0 0.01,0 0.01,0 0.01,0 0.01,0 0.01,-0.01 0.01,0 0,0 0.01,0 0.01,0 0.01,0 0.01,0 0.01,0 0,0 0.01,0 0.01,0 0,0 0.01,0 0,0 0.01,0 0.01,0 0,0 0,0 0.01,0 0,0 c 0.3,-0.02 0.42,-0.1 0.42,-0.29 0,-0.22 -0.23,-0.52 -0.77,-1.03 l -1.77,-1.6 v 2.04 c 0,0.72 0.11,0.83 0.92,0.89 v 0.19 h -2.83 v -0.19 c 0.78,-0.06 0.9,-0.19 0.9,-0.89 v -4.3 c 0,-0.83 -0.11,-0.96 -0.9,-1.01 v -0.19 h 2.81 v 0.19 c -0.78,0.05 -0.9,0.17 -0.9,0.9 v 1.86 l 0.26,0.2 1.06,-1.04 c 0.75,-0.74 1.29,-1.45 1.29,-1.69 0,-0.14 -0.14,-0.21 -0.42,-0.22 -0.05,0 -0.16,0 -0.28,-0.01 v -0.19 h 3.04 v 0.19 c -0.52,0.01 -0.66,0.11 -1.56,1.08 l -2.32,2.48 1.89,1.87 c 0.67,0.64 0.83,0.72 1.51,0.77 v 0.19 h -2.61 z"
         inkscape:connector-curvature="0"
         style="fill:#000000;stroke-width:0" /><path
         id="path5419"
         d="m 250.18,707.12 v 1.53 H 250 c -0.02,-0.51 -0.31,-0.62 -0.76,-0.62 h -1.36 l 0.05,0.33 c 1.27,0.36 2.02,1.35 2.02,2.67 0,1.8 -1.45,2.82 -3.14,2.82 -1.68,0 -3.19,-1.07 -3.19,-2.86 0,-1.21 0.79,-2.4 2.03,-2.63 l 0.01,-0.33 h -1.32 c -0.48,0 -0.75,0.1 -0.79,0.62 h -0.18 v -1.53 h 2.72 l -0.1,1.47 c -1.02,0.37 -1.24,1.4 -1.24,2.38 0,1.22 0.66,2.53 2.04,2.53 1.43,0 2.05,-1.36 2.05,-2.6 0,-0.95 -0.23,-1.99 -1.25,-2.31 l -0.13,-1.47 z"
         inkscape:connector-curvature="0"
         style="fill:#000000;stroke-width:0" /></g>    <g
       id="g5609"
       transform="matrix(1,0,0,-1,40.247853,1524.8313)"
       xml:space="preserve"
       stroke="black"
       stroke-linecap="butt"
       stroke-linejoin="miter"
       stroke-miterlimit="10.433"
       stroke-dasharray="none"
       stroke-dashoffset="0"
       stroke-opacity="1"
       fill="none"
       fill-rule="evenodd"
       fill-opacity="1"
       font-style="normal"
       font-variant="normal"
       font-weight="normal"
       font-stretch="normal"
       font-size-adjust="none"
       letter-spacing="normal"
       word-spacing="normal"
       text-anchor="start"
       ns0:text="20 K$\\Omega$"
       ns0:preamble="/home/sriranga/Desktop/Basic-Electronics-Figures/package.tex"
       style="font-style:normal;font-variant:normal;font-weight:normal;font-stretch:normal;letter-spacing:normal;word-spacing:normal;text-anchor:start;fill:none;stroke:#000000;stroke-linecap:butt;stroke-linejoin:miter;stroke-miterlimit:10.43299961;stroke-opacity:1;stroke-dasharray:none;stroke-dashoffset:0"><path
         d="M228.16,708.49 L228.03,708.54 C227.66,707.97,227.53,707.88,227.08,707.88 H224.71 L226.38,709.63 C227.26,710.55,227.65,711.31,227.65,712.08 C227.65,713.08,226.85,713.84,225.81,713.84 C225.26,713.84,224.74,713.62,224.38,713.22 C224.06,712.89,223.91,712.57,223.74,711.86 L223.95,711.81 C224.35,712.79,224.71,713.1,225.39,713.1 C226.23,713.1,226.79,712.54,226.79,711.71 C226.79,710.93,226.34,710.01,225.5,709.12 L223.73,707.24 V707.12 H227.61 Z "
         stroke-width="0"
         fill="black"
         id="path5611" /><path
         d="M230.94,713.84 L230.89,713.84 L230.84,713.84 L230.79,713.84 L230.74,713.83 L230.69,713.83 L230.65,713.82 L230.6,713.82 L230.55,713.81 L230.51,713.8 L230.46,713.79 L230.42,713.78 L230.37,713.77 L230.33,713.76 L230.29,713.74 L230.25,713.73 L230.21,713.71 L230.17,713.7 L230.13,713.68 L230.09,713.66 L230.05,713.64 L230.01,713.62 L229.97,713.6 L229.93,713.57 L229.89,713.55 L229.86,713.53 L229.82,713.5 L229.78,713.47 L229.75,713.45 L229.71,713.42 L229.68,713.39 L229.64,713.36 L229.61,713.32 C229.03,712.77,228.65,711.62,228.65,710.46 C228.65,709.38,228.98,708.22,229.45,707.66 C229.82,707.22,230.32,706.99,230.9,706.99 V707.24 C230.04,707.24,229.61,708.31,229.61,710.37 C229.61,712.48,230.05,713.58,230.91,713.58 H230.91 C231.75,713.58,232.19,712.46,232.19,710.38 C232.19,708.31,231.76,707.24,230.9,707.24 V706.99 C231.41,706.99,231.84,707.16,232.19,707.5 C232.77,708.05,233.15,709.2,233.15,710.4 C233.15,712.44,232.24,713.84,230.94,713.84 Z "
         stroke-width="0"
         fill="black"
         id="path5613" /><path
         d="M239.99,713.51 L240.02,713.51 L240.04,713.51 L240.06,713.51 L240.08,713.51 L240.09,713.51 L240.1,713.51 L240.11,713.51 L240.12,713.51 L240.13,713.5 L240.14,713.5 L240.14,713.5 L240.15,713.5 L240.16,713.5 L240.17,713.5 L240.18,713.5 L240.19,713.5 L240.19,713.5 L240.2,713.5 L240.21,713.5 L240.21,713.5 L240.22,713.5 L240.22,713.5 L240.23,713.5 L240.24,713.5 L240.24,713.5 L240.24,713.5 L240.25,713.5 L240.25,713.5 C240.55,713.48,240.67,713.4,240.67,713.21 C240.67,712.99,240.44,712.69,239.9,712.18 L238.13,710.58 V712.62 C238.13,713.34,238.24,713.45,239.05,713.51 V713.7 H236.22 V713.51 C237,713.45,237.12,713.32,237.12,712.62 V708.32 C237.12,707.49,237.01,707.36,236.22,707.31 V707.12 H239.03 V707.31 C238.25,707.36,238.13,707.48,238.13,708.21 V710.07 L238.39,710.27 L239.45,709.23 C240.2,708.49,240.74,707.78,240.74,707.54 C240.74,707.4,240.6,707.33,240.32,707.32 C240.27,707.32,240.16,707.32,240.04,707.31 V707.12 H243.08 V707.31 C242.56,707.32,242.42,707.42,241.52,708.39 L239.2,710.87 L241.09,712.74 C241.76,713.38,241.92,713.46,242.6,713.51 V713.7 H239.99 Z "
         stroke-width="0"
         fill="black"
         id="path5615" /><path
         d="M250.18,707.12 V708.65 H250 C249.98,708.14,249.69,708.03,249.24,708.03 H247.88 L247.93,708.36 C249.2,708.72,249.95,709.71,249.95,711.03 C249.95,712.83,248.5,713.85,246.81,713.85 C245.13,713.85,243.62,712.78,243.62,710.99 C243.62,709.78,244.41,708.59,245.65,708.36 L245.66,708.03 H244.34 C243.86,708.03,243.59,708.13,243.55,708.65 H243.37 V707.12 H246.09 L245.99,708.59 C244.97,708.96,244.75,709.99,244.75,710.97 C244.75,712.19,245.41,713.5,246.79,713.5 C248.22,713.5,248.84,712.14,248.84,710.9 C248.84,709.95,248.61,708.91,247.59,708.59 L247.46,707.12 Z "
         stroke-width="0"
         fill="black"
         id="path5617" /></g>    <g
       style="font-style:normal;font-variant:normal;font-weight:normal;font-stretch:normal;letter-spacing:normal;word-spacing:normal;text-anchor:start;fill:none;stroke:#000000;stroke-linecap:butt;stroke-linejoin:miter;stroke-miterlimit:10.43299961;stroke-opacity:1;stroke-dasharray:none;stroke-dashoffset:0"
       ns0:preamble="/home/sriranga/Desktop/Basic-Electronics-Figures/package.tex"
       ns0:text="$1V$"
       word-spacing="normal"
       letter-spacing="normal"
       font-size-adjust="none"
       font-stretch="normal"
       font-weight="normal"
       font-variant="normal"
       font-style="normal"
       stroke-miterlimit="10.433"
       xml:space="preserve"
       transform="matrix(1,0,0,-1,-162.36862,1601.8617)"
       id="g5796"><path
         id="path5798"
         d="m 226.33,713.84 -1.79,-0.9 v -0.14 c 0.12,0.05 0.22,0.09 0.26,0.11 0.18,0.07 0.35,0.11 0.45,0.11 0.21,0 0.3,-0.15 0.3,-0.47 v -4.5 c 0,-0.33 -0.08,-0.56 -0.24,-0.65 -0.15,-0.09 -0.29,-0.12 -0.7,-0.13 v -0.15 h 2.74 v 0.15 c -0.78,0.01 -0.94,0.11 -0.94,0.59 v 5.96 z"
         inkscape:connector-curvature="0"
         style="fill:#000000;stroke-width:0" /><path
         id="path5800"
         d="m 235.26,713.61 h -1.85 v -0.16 c 0.44,-0.05 0.62,-0.15 0.62,-0.34 0,-0.18 -0.18,-0.61 -0.51,-1.18 l -2.05,-3.53 -0.66,4.4 c -0.01,0.05 -0.01,0.09 -0.01,0.15 0,0.33 0.14,0.43 0.77,0.5 v 0.16 h -2.4 v -0.16 c 0.56,-0.07 0.58,-0.1 0.79,-1.34 l 0.84,-5.16 h 0.19 l 3.71,6.1 c 0.17,0.27 0.33,0.39 0.56,0.4 z"
         inkscape:connector-curvature="0"
         style="fill:#000000;stroke-width:0" /></g>    <g
       id="g5976"
       transform="matrix(1,0,0,-1,-175.42071,1641.771)"
       xml:space="preserve"
       stroke-miterlimit="10.433"
       font-style="normal"
       font-variant="normal"
       font-weight="normal"
       font-stretch="normal"
       font-size-adjust="none"
       letter-spacing="normal"
       word-spacing="normal"
       ns0:text="$-0.5 V$"
       ns0:preamble="/home/sriranga/Desktop/Basic-Electronics-Figures/package.tex"
       style="font-style:normal;font-variant:normal;font-weight:normal;font-stretch:normal;letter-spacing:normal;word-spacing:normal;text-anchor:start;fill:none;stroke:#000000;stroke-linecap:butt;stroke-linejoin:miter;stroke-miterlimit:10.43299961;stroke-opacity:1;stroke-dasharray:none;stroke-dashoffset:0"><polygon
         style="fill:#000000;stroke-width:0"
         points="224.05,709.96 224.05,709.4 229.14,709.4 229.14,709.96 "
         id="polygon5978" /><path
         style="fill:#000000;stroke-width:0"
         inkscape:connector-curvature="0"
         d="m 232.29,713.84 -0.05,0 -0.05,0 -0.05,0 -0.04,-0.01 -0.05,0 -0.05,-0.01 -0.05,0 -0.04,-0.01 -0.05,-0.01 -0.04,-0.01 -0.05,-0.01 -0.04,-0.01 -0.04,-0.01 -0.05,-0.02 -0.04,-0.01 -0.04,-0.02 -0.04,-0.01 -0.04,-0.02 -0.04,-0.02 -0.04,-0.02 -0.04,-0.02 -0.04,-0.02 -0.03,-0.03 -0.04,-0.02 -0.04,-0.02 -0.04,-0.03 -0.03,-0.03 -0.04,-0.02 -0.03,-0.03 -0.04,-0.03 -0.03,-0.03 -0.04,-0.04 c -0.58,-0.55 -0.95,-1.7 -0.95,-2.86 0,-1.08 0.33,-2.24 0.79,-2.8 0.37,-0.44 0.88,-0.67 1.46,-0.67 v 0.25 c -0.86,0 -1.3,1.07 -1.3,3.13 0,2.11 0.45,3.21 1.3,3.21 h 0 c 0.84,0 1.29,-1.12 1.29,-3.2 0,-2.07 -0.44,-3.14 -1.29,-3.14 v -0.25 c 0.5,0 0.93,0.17 1.29,0.51 0.58,0.55 0.95,1.7 0.95,2.9 0,2.04 -0.9,3.44 -2.21,3.44 z"
         id="path5980" /><path
         style="fill:#000000;stroke-width:0"
         inkscape:connector-curvature="0"
         d="m 236.55,707.55 0,0.03 0,0.03 -0.01,0.03 0,0.02 -0.01,0.03 0,0.03 -0.01,0.02 -0.01,0.03 -0.02,0.03 -0.01,0.02 -0.01,0.02 -0.02,0.03 -0.01,0.02 -0.02,0.02 -0.02,0.02 -0.02,0.02 -0.02,0.02 -0.02,0.02 -0.02,0.01 -0.02,0.02 -0.02,0.01 -0.02,0.02 -0.03,0.01 -0.02,0.01 -0.03,0.01 -0.02,0.01 -0.03,0.01 -0.03,0.01 -0.02,0 -0.03,0.01 -0.03,0 -0.03,0 c -0.29,0 -0.54,-0.25 -0.54,-0.57 0,-0.38 0.34,-0.53 0.54,-0.53 0.21,0 0.56,0.16 0.56,0.53 z"
         id="path5982" /><path
         style="fill:#000000;stroke-width:0"
         inkscape:connector-curvature="0"
         d="m 239.04,712.92 h 1.95 c 0.16,0 0.2,0.02 0.23,0.09 l 0.38,0.88 -0.09,0.07 c -0.15,-0.21 -0.25,-0.26 -0.46,-0.26 h -2.08 l -1.08,-2.35 c -0.01,-0.02 -0.01,-0.03 -0.01,-0.05 0,-0.05 0.04,-0.08 0.12,-0.08 0.31,0 0.71,-0.07 1.12,-0.2 1.14,-0.37 1.67,-0.98 1.67,-1.97 0,-0.95 -0.61,-1.7 -1.38,-1.7 -0.2,0 -0.37,0.07 -0.67,0.29 -0.32,0.23 -0.54,0.33 -0.75,0.33 -0.29,0 -0.43,-0.12 -0.43,-0.37 0,-0.38 0.47,-0.61 1.21,-0.61 0.84,0 1.55,0.26 2.05,0.77 0.46,0.45 0.67,1.01 0.67,1.77 0,0.71 -0.19,1.17 -0.69,1.67 -0.44,0.44 -1,0.66 -2.18,0.87 z"
         id="path5984" /><path
         style="fill:#000000;stroke-width:0"
         inkscape:connector-curvature="0"
         d="m 249.07,713.61 h -1.85 v -0.16 c 0.44,-0.05 0.62,-0.15 0.62,-0.34 0,-0.18 -0.19,-0.61 -0.51,-1.18 l -2.05,-3.53 -0.66,4.4 c -0.01,0.05 -0.01,0.09 -0.01,0.15 0,0.33 0.14,0.43 0.77,0.5 v 0.16 h -2.4 v -0.16 c 0.56,-0.07 0.57,-0.1 0.78,-1.34 l 0.85,-5.16 h 0.19 l 3.71,6.1 c 0.17,0.27 0.33,0.39 0.56,0.4 z"
         id="path5986" /></g>    <g
       style="font-style:normal;font-variant:normal;font-weight:normal;font-stretch:normal;letter-spacing:normal;word-spacing:normal;text-anchor:start;fill:none;stroke:#000000;stroke-linecap:butt;stroke-linejoin:miter;stroke-miterlimit:10.43299961;stroke-opacity:1;stroke-dasharray:none;stroke-dashoffset:0"
       ns0:preamble="/home/sriranga/Desktop/Basic-Electronics-Figures/package.tex"
       ns0:text="$1.5 V$"
       word-spacing="normal"
       letter-spacing="normal"
       font-size-adjust="none"
       font-stretch="normal"
       font-weight="normal"
       font-variant="normal"
       font-style="normal"
       stroke-miterlimit="10.433"
       xml:space="preserve"
       transform="matrix(1,0,0,-1,-169.89868,1683.1863)"
       id="g6180"><path
         id="path6182"
         d="m 226.33,713.84 -1.79,-0.9 v -0.14 c 0.12,0.05 0.22,0.09 0.26,0.11 0.18,0.07 0.35,0.11 0.45,0.11 0.21,0 0.3,-0.15 0.3,-0.47 v -4.5 c 0,-0.33 -0.08,-0.56 -0.24,-0.65 -0.15,-0.09 -0.29,-0.12 -0.7,-0.13 v -0.15 h 2.74 v 0.15 c -0.78,0.01 -0.94,0.11 -0.94,0.59 v 5.96 z"
         inkscape:connector-curvature="0"
         style="fill:#000000;stroke-width:0" /><path
         id="path6184"
         d="m 230.21,707.55 0,0.03 0,0.03 0,0.03 -0.01,0.02 0,0.03 -0.01,0.03 -0.01,0.02 -0.01,0.03 -0.01,0.03 -0.02,0.02 -0.01,0.02 -0.01,0.03 -0.02,0.02 -0.02,0.02 -0.01,0.02 -0.02,0.02 -0.02,0.02 -0.02,0.02 -0.02,0.01 -0.03,0.02 -0.02,0.01 -0.02,0.02 -0.03,0.01 -0.02,0.01 -0.03,0.01 -0.02,0.01 -0.03,0.01 -0.02,0.01 -0.03,0 -0.03,0.01 -0.03,0 -0.02,0 c -0.3,0 -0.55,-0.25 -0.55,-0.57 0,-0.38 0.34,-0.53 0.55,-0.53 0.21,0 0.55,0.16 0.55,0.53 z"
         inkscape:connector-curvature="0"
         style="fill:#000000;stroke-width:0" /><path
         id="path6186"
         d="m 232.71,712.92 h 1.94 c 0.16,0 0.2,0.02 0.23,0.09 l 0.38,0.88 -0.09,0.07 c -0.15,-0.21 -0.25,-0.26 -0.46,-0.26 h -2.08 l -1.08,-2.35 c -0.01,-0.02 -0.01,-0.03 -0.01,-0.05 0,-0.05 0.04,-0.08 0.12,-0.08 0.32,0 0.72,-0.07 1.12,-0.2 1.15,-0.37 1.68,-0.98 1.68,-1.97 0,-0.95 -0.61,-1.7 -1.39,-1.7 -0.2,0 -0.36,0.07 -0.66,0.29 -0.32,0.23 -0.55,0.33 -0.76,0.33 -0.29,0 -0.43,-0.12 -0.43,-0.37 0,-0.38 0.47,-0.61 1.22,-0.61 0.83,0 1.55,0.26 2.05,0.77 0.45,0.45 0.66,1.01 0.66,1.77 0,0.71 -0.19,1.17 -0.68,1.67 -0.44,0.44 -1.01,0.66 -2.18,0.87 z"
         inkscape:connector-curvature="0"
         style="fill:#000000;stroke-width:0" /><path
         id="path6188"
         d="m 242.73,713.61 h -1.85 v -0.16 c 0.45,-0.05 0.63,-0.15 0.63,-0.34 0,-0.18 -0.19,-0.61 -0.52,-1.18 l -2.05,-3.53 -0.66,4.4 c -0.01,0.05 -0.01,0.09 -0.01,0.15 0,0.33 0.14,0.43 0.77,0.5 v 0.16 h -2.4 v -0.16 c 0.56,-0.07 0.58,-0.1 0.79,-1.34 l 0.84,-5.16 h 0.19 l 3.71,6.1 c 0.17,0.27 0.33,0.39 0.56,0.4 z"
         inkscape:connector-curvature="0"
         style="fill:#000000;stroke-width:0" /></g>    <path
       sodipodi:type="arc"
       id="path6284"
       style="fill:#000000;stroke:none"
       sodipodi:cx="342.07651"
       sodipodi:cy="908.65759"
       sodipodi:rx="2.5"
       sodipodi:ry="2.5"
       d="m 344.57651,908.65759 c 0,1.38071 -1.11929,2.5 -2.5,2.5 -1.38071,0 -2.5,-1.11929 -2.5,-2.5 0,-1.38071 1.11929,-2.5 2.5,-2.5 1.38071,0 2.5,1.11929 2.5,2.5 z" />
  </g>
</svg>
