<?xml version="1.0" encoding="UTF-8" standalone="no"?>
<!-- Created with Inkscape (http://www.inkscape.org/) -->

<svg
   xmlns:ns0="http://www.iki.fi/pav/software/textext/"
   xmlns:dc="http://purl.org/dc/elements/1.1/"
   xmlns:cc="http://creativecommons.org/ns#"
   xmlns:rdf="http://www.w3.org/1999/02/22-rdf-syntax-ns#"
   xmlns:svg="http://www.w3.org/2000/svg"
   xmlns="http://www.w3.org/2000/svg"
   xmlns:sodipodi="http://sodipodi.sourceforge.net/DTD/sodipodi-0.dtd"
   xmlns:inkscape="http://www.inkscape.org/namespaces/inkscape"
   width="425.19684"
   height="283.46457"
   id="svg2"
   version="1.1"
   inkscape:version="0.48.4 r9939"
   sodipodi:docname="S3-EE-06-017b.svg">
  <sodipodi:namedview
     id="base"
     pagecolor="#ffffff"
     bordercolor="#666666"
     borderopacity="1.0"
     inkscape:pageopacity="0.0"
     inkscape:pageshadow="2"
     inkscape:zoom="1.4892258"
     inkscape:cx="179.02793"
     inkscape:cy="151.85847"
     inkscape:document-units="cm"
     inkscape:current-layer="layer1"
     showgrid="false"
     units="cm"
     inkscape:object-nodes="true"
     inkscape:window-width="1366"
     inkscape:window-height="744"
     inkscape:window-x="0"
     inkscape:window-y="24"
     inkscape:window-maximized="1"
     showguides="true"
     inkscape:guide-bbox="true">
    <inkscape:grid
       snapvisiblegridlinesonly="true"
       enabled="true"
       visible="true"
       empspacing="5"
       id="grid2985"
       type="xygrid" />
  </sodipodi:namedview>
  <defs
     id="defs4">
    <marker
       inkscape:stockid="Arrow1Mstart"
       orient="auto"
       refY="0.0"
       refX="0.0"
       id="Arrow1Mstart"
       style="overflow:visible">
      <path
         id="path6343"
         d="M 0.0,0.0 L 5.0,-5.0 L -12.5,0.0 L 5.0,5.0 L 0.0,0.0 z "
         style="fill-rule:evenodd;stroke:#000000;stroke-width:1.0pt"
         transform="scale(0.4) translate(10,0)" />
    </marker>
    <marker
       style="overflow:visible"
       id="Arrow1Mend"
       refX="0"
       refY="0"
       orient="auto"
       inkscape:stockid="Arrow1Mend">
      <path
         inkscape:connector-curvature="0"
         transform="matrix(-0.4,0,0,-0.4,-4,0)"
         style="fill-rule:evenodd;stroke:#000000;stroke-width:1pt"
         d="M 0,0 5,-5 -12.5,0 5,5 0,0 z"
         id="path3949" />
    </marker>
    <marker
       style="overflow:visible"
       id="Arrow1Mend-0"
       refX="0"
       refY="0"
       orient="auto"
       inkscape:stockid="Arrow1Mend">
      <path
         inkscape:connector-curvature="0"
         transform="matrix(-0.4,0,0,-0.4,-4,0)"
         style="fill-rule:evenodd;stroke:#000000;stroke-width:1pt"
         d="M 0,0 5,-5 -12.5,0 5,5 0,0 z"
         id="path3949-9" />
    </marker>
    <marker
       style="overflow:visible"
       id="Arrow1Mend-0-1"
       refX="0"
       refY="0"
       orient="auto"
       inkscape:stockid="Arrow1Mend">
      <path
         inkscape:connector-curvature="0"
         transform="matrix(-0.4,0,0,-0.4,-4,0)"
         style="fill-rule:evenodd;stroke:#000000;stroke-width:1pt"
         d="M 0,0 5,-5 -12.5,0 5,5 0,0 z"
         id="path3949-9-4" />
    </marker>
    <marker
       style="overflow:visible"
       id="Arrow1Mend-8"
       refX="0"
       refY="0"
       orient="auto"
       inkscape:stockid="Arrow1Mend">
      <path
         inkscape:connector-curvature="0"
         transform="matrix(-0.4,0,0,-0.4,-4,0)"
         style="fill-rule:evenodd;stroke:#000000;stroke-width:1pt"
         d="M 0,0 5,-5 -12.5,0 5,5 0,0 z"
         id="path3949-6" />
    </marker>
    <marker
       inkscape:stockid="Arrow1Mstart"
       orient="auto"
       refY="0.0"
       refX="0.0"
       id="Arrow1Mstart-6"
       style="overflow:visible">
      <path
         id="path6343-6"
         d="M 0.0,0.0 L 5.0,-5.0 L -12.5,0.0 L 5.0,5.0 L 0.0,0.0 z "
         style="fill-rule:evenodd;stroke:#000000;stroke-width:1.0pt"
         transform="scale(0.4) translate(10,0)" />
    </marker>
  </defs>
  <metadata
     id="metadata7">
    <rdf:RDF>
      <cc:Work
         rdf:about="">
        <dc:format>image/svg+xml</dc:format>
        <dc:type
           rdf:resource="http://purl.org/dc/dcmitype/StillImage" />
        <dc:title></dc:title>
      </cc:Work>
    </rdf:RDF>
  </metadata>
  <g
     transform="translate(0,-768.89631)"
     id="layer1"
     inkscape:groupmode="layer"
     inkscape:label="Layer 1">
    <path
       id="path9587"
       style="fill:none;stroke:#231f20;stroke-width:0.625;stroke-linecap:round;stroke-linejoin:round;stroke-miterlimit:3.86369991;stroke-opacity:1;stroke-dasharray:none"
       d="m 150.27347,999.48393 0,-74.99078"
       inkscape:connector-curvature="0" />
    <path
       id="path9589"
       style="fill:none;stroke:#231f20;stroke-width:1;stroke-linecap:round;stroke-linejoin:round;stroke-miterlimit:3.86369991;stroke-opacity:1;stroke-dasharray:none"
       d="m 150.24222,996.66115 0,8.03755"
       inkscape:connector-curvature="0" />
    <path
       id="path9591"
       style="fill:none;stroke:#231f20;stroke-width:1;stroke-linecap:round;stroke-linejoin:round;stroke-miterlimit:3.86369991;stroke-opacity:1;stroke-dasharray:none"
       d="m 158.99222,1004.6987 -17.5,0"
       inkscape:connector-curvature="0" />
    <path
       id="path9593"
       style="fill:none;stroke:#231f20;stroke-width:1;stroke-linecap:round;stroke-linejoin:round;stroke-miterlimit:3.86369991;stroke-opacity:1;stroke-dasharray:none"
       d="m 157.11722,1008.0039 -13.75,0"
       inkscape:connector-curvature="0" />
    <path
       id="path9595"
       style="fill:none;stroke:#231f20;stroke-width:1;stroke-linecap:round;stroke-linejoin:round;stroke-miterlimit:3.86369991;stroke-opacity:1;stroke-dasharray:none"
       d="m 155.24222,1011.3076 -10,0"
       inkscape:connector-curvature="0" />
    <path
       inkscape:connector-curvature="0"
       id="path9996"
       style="font-size:10px;font-variant:normal;font-weight:normal;writing-mode:lr-tb;fill:#231f20;fill-opacity:1;fill-rule:nonzero;stroke:none;font-family:Times;-inkscape-font-specification:Times-Roman"
       d="m 155.78215,880.8241 -1.8,0.91 0,0.14 c 0.12,-0.05 0.23,-0.09 0.27,-0.11 0.18,-0.07 0.35,-0.11 0.45,-0.11 0.21,0 0.3,0.15001 0.3,0.47 l 0,4.53 c 0,0.33 -0.08,0.56 -0.24,0.65 -0.15,0.09 -0.29,0.12 -0.71,0.13 l 0,0.15 2.76,0 0,-0.15 c -0.78999,-0.01 -0.95,-0.11 -0.95,-0.59 l 0,-6 -0.08,-0.02" />
    <text
       transform="matrix(1.00001,-2.99997e-5,2.99997e-5,0.99999,0,0)"
       id="text9631"
       x="161.28923"
       y="962.54236"
       style="font-size:15.00014973px">
      <tspan
         style="font-size:10.00030041px;font-variant:normal;font-weight:normal;writing-mode:lr-tb;fill:#231f20;fill-opacity:1;fill-rule:nonzero;stroke:none;font-family:Symbol;-inkscape-font-specification:Symbol"
         x="161.28923"
         y="962.54236"
         id="tspan9633">+</tspan>
      <tspan
         style="font-size:10.00030041px;font-variant:normal;font-weight:normal;writing-mode:lr-tb;fill:#231f20;fill-opacity:1;fill-rule:nonzero;stroke:none;font-family:Symbol;-inkscape-font-specification:Symbol"
         x="161.29012"
         y="981.95508"
         id="tspan9635">−</tspan>
    </text>
    <path
       id="path9637"
       style="fill:#ffffff;fill-opacity:1;fill-rule:nonzero;stroke:none"
       d="m 159.74347,968.63528 c 0,5.3325 -4.32375,9.65625 -9.65625,9.65625 -5.3325,0 -9.655,-4.32375 -9.655,-9.65625 0,-5.3325 4.3225,-9.65625 9.655,-9.65625 5.3325,0 9.65625,4.32375 9.65625,9.65625"
       inkscape:connector-curvature="0" />
    <path
       id="path9639"
       style="fill:none;stroke:#231f20;stroke-width:0.625;stroke-linecap:round;stroke-linejoin:round;stroke-miterlimit:3.86369991;stroke-opacity:1;stroke-dasharray:none"
       d="m 159.74347,968.63528 c 0,5.3325 -4.32375,9.65625 -9.65625,9.65625 -5.3325,0 -9.655,-4.32375 -9.655,-9.65625 0,-5.3325 4.3225,-9.65625 9.655,-9.65625 5.3325,0 9.65625,4.32375 9.65625,9.65625 z"
       inkscape:connector-curvature="0" />
    <path
       id="path9641"
       style="fill:none;stroke:#231f20;stroke-width:0.625;stroke-linecap:round;stroke-linejoin:round;stroke-miterlimit:3.86369991;stroke-opacity:1;stroke-dasharray:none"
       d="m 306.53972,907.95027 92.04,0"
       inkscape:connector-curvature="0" />
    <path
       id="path9643"
       style="fill:none;stroke:#231f20;stroke-width:0.625;stroke-linecap:round;stroke-linejoin:round;stroke-miterlimit:3.86369991;stroke-opacity:1;stroke-dasharray:none"
       d="m 20.303949,891.35503 0,105.68012"
       inkscape:connector-curvature="0" />
    <path
       id="path9645"
       style="fill:none;stroke:#231f20;stroke-width:0.625;stroke-linecap:round;stroke-linejoin:round;stroke-miterlimit:3.86369991;stroke-opacity:1;stroke-dasharray:none"
       d="m 242.92222,891.20365 -222.606071,0"
       inkscape:connector-curvature="0" />
    <path
       id="path9647"
       style="fill:none;stroke:#231f20;stroke-width:0.625;stroke-linecap:round;stroke-linejoin:round;stroke-miterlimit:3.86369991;stroke-opacity:1;stroke-dasharray:none"
       d="m 150.64097,924.70078 92.28125,0"
       inkscape:connector-curvature="0" />
    <path
       id="path9649"
       style="fill:none;stroke:#231f20;stroke-width:0.625;stroke-linecap:round;stroke-linejoin:round;stroke-miterlimit:3.86369991;stroke-opacity:1;stroke-dasharray:none"
       d="m 282.62972,826.9389 -132.21625,0 0,65.64412"
       inkscape:connector-curvature="0" />
    <path
       id="path9651"
       style="fill:none;stroke:#231f20;stroke-width:0.625;stroke-linecap:round;stroke-linejoin:round;stroke-miterlimit:3.86369991;stroke-opacity:1;stroke-dasharray:none"
       d="m 362.11847,907.95027 0,-81.01137 -79.22375,0"
       inkscape:connector-curvature="0" />
    <text
       id="text9655"
       x="146.82472"
       y="971.82867"
       style="font-size:15px">
      <tspan
         style="font-size:10px;font-style:italic;font-variant:normal;writing-mode:lr-tb;fill:#231f20;fill-opacity:1;fill-rule:nonzero;stroke:none;font-family:Times;-inkscape-font-specification:Times-Italic"
         x="146.82472"
         y="971.82867"
         id="tspan9657">v</tspan>
    </text>
    <text
       id="text9659"
       x="151.26465"
       y="974.32867"
       style="font-size:15px">
      <tspan
         style="font-size:7.5px;font-style:italic;font-variant:normal;writing-mode:lr-tb;fill:#231f20;fill-opacity:1;fill-rule:nonzero;stroke:none;font-family:Times;-inkscape-font-specification:Times-Italic"
         x="151.26465"
         y="974.32867"
         id="tspan9661">i</tspan>
    </text>
    <text
       id="text9663"
       x="406.20468"
       y="912.72705"
       style="font-size:15px">
      <tspan
         style="font-size:10px;font-style:italic;font-variant:normal;writing-mode:lr-tb;fill:#231f20;fill-opacity:1;fill-rule:nonzero;stroke:none;font-family:Times;-inkscape-font-specification:Times-Italic"
         x="406.20468"
         y="912.72705"
         id="tspan9665">v</tspan>
    </text>
    <text
       id="text9667"
       x="410.64462"
       y="915.22705"
       style="font-size:15px">
      <tspan
         style="font-size:7.5px;font-style:italic;font-variant:normal;writing-mode:lr-tb;fill:#231f20;fill-opacity:1;fill-rule:nonzero;stroke:none;font-family:Times;-inkscape-font-specification:Times-Italic"
         x="410.64462"
         y="915.22705"
         id="tspan9669">o</tspan>
    </text>
    <path
       id="path9671"
       style="fill:#ffffff;fill-opacity:1;fill-rule:nonzero;stroke:none"
       d="m 152.59097,891.20365 c 0,1.14988 -0.9325,2.0835 -2.08375,2.0835 -1.15125,0 -2.08375,-0.93362 -2.08375,-2.0835 0,-1.14987 0.9325,-2.084 2.08375,-2.084 1.15125,0 2.08375,0.93413 2.08375,2.084"
       inkscape:connector-curvature="0" />
    <path
       id="path9673"
       style="fill:none;stroke:#231f20;stroke-width:0.625;stroke-linecap:butt;stroke-linejoin:miter;stroke-miterlimit:4;stroke-opacity:1;stroke-dasharray:none"
       d="m 152.59097,891.20365 c 0,1.14988 -0.9325,2.0835 -2.08375,2.0835 -1.15125,0 -2.08375,-0.93362 -2.08375,-2.0835 0,-1.14987 0.9325,-2.084 2.08375,-2.084 1.15125,0 2.08375,0.93413 2.08375,2.084 z"
       inkscape:connector-curvature="0" />
    <path
       id="path9675"
       style="fill:#ffffff;fill-opacity:1;fill-rule:nonzero;stroke:none"
       d="m 402.18097,908.11865 c 0,1.15138 -0.9325,2.084 -2.08375,2.084 -1.15125,0 -2.08375,-0.93262 -2.08375,-2.084 0,-1.15087 0.9325,-2.0835 2.08375,-2.0835 1.15125,0 2.08375,0.93263 2.08375,2.0835"
       inkscape:connector-curvature="0" />
    <path
       id="path9677"
       style="fill:none;stroke:#231f20;stroke-width:0.625;stroke-linecap:butt;stroke-linejoin:miter;stroke-miterlimit:4;stroke-opacity:1;stroke-dasharray:none"
       d="m 402.18097,908.11865 c 0,1.15138 -0.9325,2.084 -2.08375,2.084 -1.15125,0 -2.08375,-0.93262 -2.08375,-2.084 0,-1.15087 0.9325,-2.0835 2.08375,-2.0835 1.15125,0 2.08375,0.93263 2.08375,2.0835 z"
       inkscape:connector-curvature="0" />
    <path
       id="path9679"
       style="fill:#231f20;fill-opacity:1;fill-rule:nonzero;stroke:none"
       d="m 364.20222,907.95027 c 0,1.15138 -0.9325,2.08388 -2.08375,2.08388 -1.15125,0 -2.08375,-0.9325 -2.08375,-2.08388 0,-1.15087 0.9325,-2.08349 2.08375,-2.08349 1.15125,0 2.08375,0.93262 2.08375,2.08349"
       inkscape:connector-curvature="0" />
    <path
       id="path9681"
       style="fill:none;stroke:#231f20;stroke-width:0.625;stroke-linecap:butt;stroke-linejoin:miter;stroke-miterlimit:4;stroke-opacity:1;stroke-dasharray:none"
       d="m 364.20222,907.95027 c 0,1.15138 -0.9325,2.08388 -2.08375,2.08388 -1.15125,0 -2.08375,-0.9325 -2.08375,-2.08388 0,-1.15087 0.9325,-2.08349 2.08375,-2.08349 1.15125,0 2.08375,0.93262 2.08375,2.08349 z"
       inkscape:connector-curvature="0" />
    <path
       id="path9683"
       style="fill:#ffffff;fill-opacity:1;fill-rule:nonzero;stroke:none"
       d="m 63.119849,895.82765 40.564001,0 0,-9.33594 -40.564001,0 0,9.33594 z"
       inkscape:connector-curvature="0" />
    <path
       id="path9685"
       style="fill:none;stroke:#231f20;stroke-width:1;stroke-linecap:round;stroke-linejoin:round;stroke-miterlimit:3.86369991;stroke-opacity:1;stroke-dasharray:none"
       d="m 103.9621,891.20365 -4.515626,0 -1.962875,4.624 -3.9365,-9.33625 -3.994125,9.33625 -3.996625,-9.33625 -3.938,9.33625 -3.90375,-9.33625 -3.938,9.33625 -3.996625,-9.21625 -1.911625,4.59225 -4.7485,0"
       inkscape:connector-curvature="0" />
    <path
       id="path9687"
       style="fill:#ffffff;fill-opacity:1;fill-rule:nonzero;stroke:none"
       d="m 240.44347,831.5914 40.565,0 0,-9.33594 -40.565,0 0,9.33594 z"
       inkscape:connector-curvature="0" />
    <path
       id="path9689"
       style="fill:none;stroke:#231f20;stroke-width:1;stroke-linecap:round;stroke-linejoin:round;stroke-miterlimit:3.86369991;stroke-opacity:1;stroke-dasharray:none"
       d="m 281.28597,826.96765 -4.51625,0 -1.9625,4.62375 -3.93625,-9.335 -3.99375,9.335 -3.9975,-9.335 -3.9375,9.335 -3.90375,-9.335 -3.93875,9.335 -3.99625,-9.21625 -1.91125,4.5925 -4.74875,0"
       inkscape:connector-curvature="0" />
    <path
       id="path9691"
       style="fill:none;stroke:#231f20;stroke-width:1;stroke-linecap:round;stroke-linejoin:round;stroke-miterlimit:3.86369991;stroke-opacity:1;stroke-dasharray:none"
       d="m 20.292224,996.66115 0,8.03755"
       inkscape:connector-curvature="0" />
    <path
       id="path9693"
       style="fill:none;stroke:#231f20;stroke-width:1;stroke-linecap:round;stroke-linejoin:round;stroke-miterlimit:3.86369991;stroke-opacity:1;stroke-dasharray:none"
       d="m 29.042224,1004.6987 -17.5,0"
       inkscape:connector-curvature="0" />
    <path
       id="path9695"
       style="fill:none;stroke:#231f20;stroke-width:1;stroke-linecap:round;stroke-linejoin:round;stroke-miterlimit:3.86369991;stroke-opacity:1;stroke-dasharray:none"
       d="m 27.167224,1008.0039 -13.75,0"
       inkscape:connector-curvature="0" />
    <path
       id="path9697"
       style="fill:none;stroke:#231f20;stroke-width:1;stroke-linecap:round;stroke-linejoin:round;stroke-miterlimit:3.86369991;stroke-opacity:1;stroke-dasharray:none"
       d="m 25.292224,1011.3076 -10,0"
       inkscape:connector-curvature="0" />
    <path
       id="path9699"
       style="fill:#ffffff;fill-opacity:1;fill-rule:nonzero;stroke:none"
       d="m 402.18097,994.3414 c 0,1.14988 -0.9325,2.08487 -2.08375,2.08487 -1.15125,0 -2.08375,-0.93499 -2.08375,-2.08487 0,-1.149 0.9325,-2.0835 2.08375,-2.0835 1.15125,0 2.08375,0.9345 2.08375,2.0835"
       inkscape:connector-curvature="0" />
    <path
       id="path9701"
       style="fill:none;stroke:#231f20;stroke-width:0.625;stroke-linecap:butt;stroke-linejoin:miter;stroke-miterlimit:4;stroke-opacity:1;stroke-dasharray:none"
       d="m 402.18097,994.3414 c 0,1.14988 -0.9325,2.08487 -2.08375,2.08487 -1.15125,0 -2.08375,-0.93499 -2.08375,-2.08487 0,-1.149 0.9325,-2.0835 2.08375,-2.0835 1.15125,0 2.08375,0.9345 2.08375,2.0835 z"
       inkscape:connector-curvature="0" />
    <path
       id="path9703"
       style="fill:none;stroke:#231f20;stroke-width:1;stroke-linecap:round;stroke-linejoin:round;stroke-miterlimit:3.86369991;stroke-opacity:1;stroke-dasharray:none"
       d="m 400.07972,996.66115 0,8.03755"
       inkscape:connector-curvature="0" />
    <path
       id="path9705"
       style="fill:none;stroke:#231f20;stroke-width:1;stroke-linecap:round;stroke-linejoin:round;stroke-miterlimit:3.86369991;stroke-opacity:1;stroke-dasharray:none"
       d="m 408.82972,1004.6987 -17.5,0"
       inkscape:connector-curvature="0" />
    <path
       id="path9707"
       style="fill:none;stroke:#231f20;stroke-width:1;stroke-linecap:round;stroke-linejoin:round;stroke-miterlimit:3.86369991;stroke-opacity:1;stroke-dasharray:none"
       d="m 406.95472,1008.0039 -13.75,0"
       inkscape:connector-curvature="0" />
    <path
       id="path9709"
       style="fill:none;stroke:#231f20;stroke-width:1;stroke-linecap:round;stroke-linejoin:round;stroke-miterlimit:3.86369991;stroke-opacity:1;stroke-dasharray:none"
       d="m 405.07972,1011.3076 -10,0"
       inkscape:connector-curvature="0" />
    <path
       id="path9711"
       style="fill:none;stroke:#231f20;stroke-width:0.625;stroke-linecap:round;stroke-linejoin:round;stroke-miterlimit:3.86369991;stroke-opacity:1;stroke-dasharray:none"
       d="m 306.87347,907.93065 59.25375,0"
       inkscape:connector-curvature="0" />
    <path
       id="path9713"
       style="fill:none;stroke:#231f20;stroke-width:0.625;stroke-linecap:round;stroke-linejoin:round;stroke-miterlimit:3.86369991;stroke-opacity:1;stroke-dasharray:none"
       d="m 243.00222,891.20365 -70.0875,0"
       inkscape:connector-curvature="0" />
    <path
       id="path9715"
       style="fill:none;stroke:#231f20;stroke-width:0.625;stroke-linecap:round;stroke-linejoin:round;stroke-miterlimit:3.86369991;stroke-opacity:1;stroke-dasharray:none"
       d="m 172.92972,924.70078 70.0725,0"
       inkscape:connector-curvature="0" />
    <path
       id="path9717"
       style="fill:none;stroke:#231f20;stroke-width:0.625;stroke-linecap:round;stroke-linejoin:round;stroke-miterlimit:3.86369991;stroke-opacity:1;stroke-dasharray:none"
       d="m 243.00222,870.62265 63.90625,37.32762 -63.90625,37.331 0,-74.65862 z"
       inkscape:connector-curvature="0" />
    <text
       transform="matrix(-1.000005,1.99999e-5,-9.99995e-6,-0.999995,0,0)"
       id="text9721"
       x="-251.95551"
       y="-922.02679"
       style="font-size:15.00007534px">
      <tspan
         style="font-size:10.00014973px;font-variant:normal;font-weight:normal;writing-mode:lr-tb;fill:#231f20;fill-opacity:1;fill-rule:nonzero;stroke:none;font-family:Symbol;-inkscape-font-specification:Symbol"
         x="-251.95551"
         y="-922.02679"
         id="tspan9723">+</tspan>
      <tspan
         style="font-size:10.00014973px;font-variant:normal;font-weight:normal;writing-mode:lr-tb;fill:#231f20;fill-opacity:1;fill-rule:nonzero;stroke:none;font-family:Symbol;-inkscape-font-specification:Symbol"
         x="-251.95551"
         y="-888.63281"
         id="tspan9725">−</tspan>
    </text>
    <path
       id="path9727"
       style="fill:#ffffff;fill-opacity:1;fill-rule:nonzero;stroke:none"
       d="m 152.72472,924.70078 c 0,1.14987 -0.9325,2.08387 -2.08375,2.08387 -1.15125,0 -2.08375,-0.934 -2.08375,-2.08387 0,-1.15001 0.9325,-2.0835 2.08375,-2.0835 1.15125,0 2.08375,0.93349 2.08375,2.0835"
       inkscape:connector-curvature="0" />
    <path
       id="path9729"
       style="fill:none;stroke:#231f20;stroke-width:0.625;stroke-linecap:butt;stroke-linejoin:miter;stroke-miterlimit:4;stroke-opacity:1;stroke-dasharray:none"
       d="m 152.72472,924.70078 c 0,1.14987 -0.9325,2.08387 -2.08375,2.08387 -1.15125,0 -2.08375,-0.934 -2.08375,-2.08387 0,-1.15001 0.9325,-2.0835 2.08375,-2.0835 1.15125,0 2.08375,0.93349 2.08375,2.0835 z"
       inkscape:connector-curvature="0" />
    <path
       inkscape:connector-curvature="0"
       id="path9987"
       style="font-size:10.00030041px;font-variant:normal;font-weight:normal;writing-mode:lr-tb;fill:#231f20;fill-opacity:1;fill-rule:nonzero;stroke:none;font-family:Symbol;-inkscape-font-specification:Symbol"
       d="m 400.56014,913.7521 -0.55002,10e-6 7e-5,2.39005 -2.37009,7e-5 10e-6,0.55001 2.3701,-7e-5 7e-5,2.39005 0.55002,-2e-5 -7e-5,-2.39004 2.3701,-7e-5 -2e-5,-0.55002 -2.37009,7e-5 -8e-5,-2.39004" />
    <path
       inkscape:connector-curvature="0"
       id="path9989"
       style="font-size:10.00030041px;font-variant:normal;font-weight:normal;writing-mode:lr-tb;fill:#231f20;fill-opacity:1;fill-rule:nonzero;stroke:none;font-family:Symbol;-inkscape-font-specification:Symbol"
       d="m 397.65157,988.97145 2e-5,0.55001 5.24021,-1.6e-4 -2e-5,-0.55001 -5.24021,1.6e-4" />
    <text
       xml:space="preserve"
       style="font-size:10px;font-style:normal;font-variant:normal;font-weight:normal;font-stretch:normal;text-align:center;line-height:125%;letter-spacing:0px;word-spacing:0px;text-anchor:middle;fill:#000000;fill-opacity:1;stroke:none;font-family:LMRoman12;-inkscape-font-specification:LMRoman12"
       x="155.1458"
       y="934.20435"
       id="text10015"
       sodipodi:linespacing="125%"><tspan
         sodipodi:role="line"
         id="tspan10017"
         x="155.1458"
         y="934.20435">2</tspan></text>
    <g
       id="content"
       transform="matrix(1,0,0,-1,-160.11751,1587.2305)"
       xml:space="preserve"
       stroke-miterlimit="10.433"
       font-style="normal"
       font-variant="normal"
       font-weight="normal"
       font-stretch="normal"
       font-size-adjust="none"
       letter-spacing="normal"
       word-spacing="normal"
       ns0:text="$R_1=1\\, k \\Omega$"
       ns0:preamble="/home/sriranga/Desktop/Basic-Electronics-Figures/package.tex"
       style="font-style:normal;font-variant:normal;font-weight:normal;font-stretch:normal;letter-spacing:normal;word-spacing:normal;text-anchor:start;fill:none;stroke:#000000;stroke-linecap:butt;stroke-linejoin:miter;stroke-miterlimit:10.43299961;stroke-opacity:1;stroke-dasharray:none;stroke-dashoffset:0"><path
         style="fill:#000000;stroke-width:0"
         inkscape:connector-curvature="0"
         d="m 229.07,707.28 -0.04,0.01 -0.04,0 -0.03,0.01 -0.04,0 -0.04,0.01 -0.03,0.01 -0.03,0.01 -0.03,0.01 -0.03,0.01 -0.03,0.01 -0.03,0.01 -0.03,0.02 -0.03,0.01 -0.02,0.02 -0.03,0.02 -0.02,0.02 -0.03,0.02 -0.02,0.02 -0.02,0.03 -0.02,0.02 -0.02,0.03 -0.03,0.03 -0.02,0.03 -0.02,0.03 -0.01,0.04 -0.02,0.03 -0.02,0.04 -0.02,0.04 -0.02,0.04 -0.02,0.05 -0.02,0.04 -0.01,0.05 -0.93,2.43 c 0.77,0.17 1.1,0.31 1.45,0.63 0.33,0.29 0.51,0.67 0.51,1.12 0,0.92 -0.73,1.43 -2.07,1.43 l -0.21,-0.3 c 0.83,0 1.24,-0.37 1.24,-1.11 0,-0.98 -0.64,-1.49 -1.88,-1.49 -0.16,0 -0.27,0.01 -0.51,0.05 l 0.65,2.28 c 0.06,0.2 0.18,0.27 0.5,0.27 l 0.21,0.3 h -2.47 v -0.16 c 0.42,-0.06 0.47,-0.07 0.57,-0.14 0.08,-0.05 0.14,-0.16 0.14,-0.27 0,-0.12 -0.05,-0.36 -0.12,-0.63 l -1.22,-4.39 c -0.18,-0.59 -0.25,-0.65 -0.81,-0.74 v -0.16 h 2.43 v 0.16 c -0.61,0.08 -0.68,0.13 -0.68,0.46 0,0.1 0.03,0.23 0.12,0.58 l 0.56,2.07 0.65,-0.05 1.22,-3.22 h 1.47 z"
         id="path12771" /><path
         style="fill:#000000;stroke-width:0"
         inkscape:connector-curvature="0"
         d="m 231.55,710.33 -1.26,-0.63 v -0.1 c 0.09,0.04 0.16,0.06 0.19,0.08 0.12,0.05 0.24,0.08 0.31,0.08 0.15,0 0.21,-0.11 0.21,-0.33 v -3.15 c 0,-0.23 -0.05,-0.39 -0.16,-0.45 -0.11,-0.07 -0.21,-0.09 -0.5,-0.1 v -0.1 h 1.92 v 0.1 c -0.55,0.01 -0.66,0.08 -0.66,0.42 v 4.17 z"
         id="path12773" /><polygon
         style="fill:#000000;stroke-width:0"
         points="241.98,710.96 236.89,710.96 236.89,710.4 241.98,710.4 "
         id="polygon12775" /><polygon
         style="fill:#000000;stroke-width:0"
         points="241.98,708.94 236.89,708.94 236.89,708.39 241.98,708.39 "
         id="polygon12777" /><path
         style="fill:#000000;stroke-width:0"
         inkscape:connector-curvature="0"
         d="m 248.27,713.84 -1.79,-0.9 v -0.14 c 0.12,0.05 0.23,0.09 0.27,0.11 0.18,0.07 0.35,0.11 0.45,0.11 0.2,0 0.29,-0.15 0.29,-0.47 v -4.5 c 0,-0.33 -0.08,-0.56 -0.23,-0.65 -0.15,-0.09 -0.29,-0.12 -0.71,-0.13 v -0.15 h 2.74 v 0.15 c -0.78,0.01 -0.94,0.11 -0.94,0.59 v 5.96 z"
         id="path12779" /><path
         style="fill:#000000;stroke-width:0"
         inkscape:connector-curvature="0"
         d="m 256.14,708.21 -0.15,-0.26 c -0.18,-0.31 -0.3,-0.42 -0.45,-0.42 -0.21,0 -0.42,0.33 -0.81,1.28 -0.05,0.13 -0.2,0.49 -0.36,0.88 1.46,1.3 1.77,1.5 2.23,1.53 v 0.16 h -1.82 v -0.16 h 0.16 c 0.25,0 0.39,-0.07 0.39,-0.18 0,-0.2 -0.5,-0.69 -1.42,-1.39 -0.14,-0.11 -0.26,-0.21 -0.43,-0.33 l 1.19,4.54 -0.05,0.05 c -0.58,-0.13 -0.96,-0.2 -1.55,-0.27 v -0.16 c 0.48,0.01 0.67,-0.06 0.68,-0.25 -0.02,-0.16 -0.09,-0.43 -0.22,-0.89 -0.04,-0.14 -0.07,-0.25 -0.09,-0.33 l -0.02,-0.09 -1.26,-4.8 h 0.74 l 0.48,1.79 0.42,0.32 c 0.16,-0.44 0.42,-1.04 0.6,-1.4 0.31,-0.63 0.49,-0.81 0.78,-0.81 0.4,0 0.66,0.24 1.11,1.08 z"
         id="path12781" /><path
         style="fill:#000000;stroke-width:0"
         inkscape:connector-curvature="0"
         d="m 263.71,707.12 v 1.53 h -0.17 c -0.02,-0.51 -0.31,-0.62 -0.77,-0.62 h -1.35 l 0.04,0.33 c 1.27,0.36 2.02,1.35 2.02,2.67 0,1.8 -1.45,2.82 -3.14,2.82 -1.68,0 -3.19,-1.07 -3.19,-2.86 0,-1.21 0.79,-2.4 2.04,-2.63 l 0.01,-0.33 h -1.33 c -0.47,0 -0.75,0.1 -0.79,0.62 h -0.18 v -1.53 h 2.72 l -0.1,1.47 c -1.02,0.37 -1.24,1.4 -1.24,2.38 0,1.22 0.66,2.53 2.04,2.53 1.43,0 2.05,-1.36 2.05,-2.6 0,-0.95 -0.23,-1.99 -1.25,-2.31 l -0.13,-1.47 z"
         id="path12783" /></g>    <g
       style="font-style:normal;font-variant:normal;font-weight:normal;font-stretch:normal;letter-spacing:normal;word-spacing:normal;text-anchor:start;fill:none;stroke:#000000;stroke-linecap:butt;stroke-linejoin:miter;stroke-miterlimit:10.43299961;stroke-opacity:1;stroke-dasharray:none;stroke-dashoffset:0"
       ns0:preamble="/home/sriranga/Desktop/Basic-Electronics-Figures/package.tex"
       ns0:text="$R_f=9\\, k \\Omega$"
       text-anchor="start"
       word-spacing="normal"
       letter-spacing="normal"
       font-size-adjust="none"
       font-stretch="normal"
       font-weight="normal"
       font-variant="normal"
       font-style="normal"
       fill-opacity="1"
       fill-rule="evenodd"
       fill="none"
       stroke-opacity="1"
       stroke-dashoffset="0"
       stroke-dasharray="none"
       stroke-miterlimit="10.433"
       stroke-linejoin="miter"
       stroke-linecap="butt"
       stroke="black"
       xml:space="preserve"
       transform="matrix(1,0,0,-1,17.033061,1522.0732)"
       id="g12994"><path
         id="path12996"
         fill="black"
         stroke-width="0"
         d="M229.07,707.28 L229.03,707.29 L228.99,707.29 L228.96,707.3 L228.92,707.3 L228.88,707.31 L228.85,707.32 L228.82,707.33 L228.79,707.34 L228.76,707.35 L228.73,707.36 L228.7,707.37 L228.67,707.39 L228.64,707.4 L228.62,707.42 L228.59,707.44 L228.57,707.46 L228.54,707.48 L228.52,707.5 L228.5,707.53 L228.48,707.55 L228.46,707.58 L228.43,707.61 L228.41,707.64 L228.39,707.67 L228.38,707.71 L228.36,707.74 L228.34,707.78 L228.32,707.82 L228.3,707.86 L228.28,707.91 L228.26,707.95 L228.25,708 L227.32,710.43 C228.09,710.6,228.42,710.74,228.77,711.06 C229.1,711.35,229.28,711.73,229.28,712.18 C229.28,713.1,228.55,713.61,227.21,713.61 L227,713.31 C227.83,713.31,228.24,712.94,228.24,712.2 C228.24,711.22,227.6,710.71,226.36,710.71 C226.2,710.71,226.09,710.72,225.85,710.76 L226.5,713.04 C226.56,713.24,226.68,713.31,227,713.31 L227.21,713.61 H224.74 V713.45 C225.16,713.39,225.21,713.38,225.31,713.31 C225.39,713.26,225.45,713.15,225.45,713.04 C225.45,712.92,225.4,712.68,225.33,712.41 L224.11,708.02 C223.93,707.43,223.86,707.37,223.3,707.28 V707.12 H225.73 V707.28 C225.12,707.36,225.05,707.41,225.05,707.74 C225.05,707.84,225.08,707.97,225.17,708.32 L225.73,710.39 L226.38,710.34 L227.6,707.12 H229.07 Z " /><path
         id="path12998"
         fill="black"
         stroke-width="0"
         d="M230.81,708.39 H231.44 L230.82,705.46 C230.67,704.72,230.44,704.34,230.15,704.34 C230.06,704.34,230.01,704.39,230.01,704.45 C230.01,704.47,230.01,704.49,230.04,704.53 C230.06,704.57,230.07,704.59,230.07,704.64 C230.07,704.78,229.95,704.9,229.8,704.9 C229.65,704.9,229.54,704.78,229.54,704.62 C229.54,704.38,229.79,704.19,230.09,704.19 C230.71,704.19,231.2,704.88,231.48,706.16 L231.99,708.39 H232.74 L232.79,708.61 H232.04 C232.24,709.7,232.49,710.19,232.88,710.19 C232.98,710.19,233.04,710.16,233.04,710.11 C233.04,710.09,233.03,710.07,233.01,710.04 C232.98,709.98,232.97,709.94,232.97,709.89 C232.97,709.73,233.07,709.61,233.23,709.61 C233.39,709.61,233.52,709.74,233.52,709.89 C233.52,710.15,233.26,710.35,232.92,710.35 C232.58,710.35,232.31,710.19,232.05,709.87 C231.85,709.59,231.71,709.28,231.5,708.61 H230.86 Z " /><polygon
         id="polygon13000"
         fill="black"
         stroke-width="0"
         points="242.5,710.4 242.5,710.96 237.4,710.96 237.4,710.4 " /><polygon
         id="polygon13002"
         fill="black"
         stroke-width="0"
         points="242.5,708.39 242.5,708.94 237.4,708.94 237.4,708.39 " /><path
         id="path13004"
         fill="black"
         stroke-width="0"
         d="M246.48,706.91 L246.58,706.92 L246.68,706.93 L246.78,706.94 L246.87,706.96 L246.96,706.97 L247.05,706.99 L247.13,707 L247.22,707.02 L247.3,707.03 L247.38,707.05 L247.45,707.07 L247.53,707.09 L247.6,707.11 L247.67,707.13 L247.81,707.17 L247.94,707.22 L248.07,707.28 L248.2,707.33 L248.32,707.4 L248.44,707.47 L248.57,707.54 L248.69,707.62 L248.75,707.67 L248.82,707.71 C249.85,708.47,250.46,709.7,250.46,711.04 C250.46,712.68,249.54,713.84,248.26,713.84 C247.07,713.84,246.19,712.84,246.19,711.5 C246.19,710.28,246.91,709.48,247.98,709.48 C248.53,709.48,248.95,709.64,249.47,710.05 L249.34,710.27 C249.07,710.04,248.7,709.91,248.34,709.91 C247.58,709.91,247.1,710.65,247.1,711.83 C247.1,712.4,247.26,713,247.47,713.25 C247.64,713.45,247.89,713.56,248.18,713.56 C249.04,713.56,249.49,712.71,249.49,711.04 V710.65 C249.49,710.45,249.45,710.36,249.34,710.27 L249.47,710.05 C249.07,708.43,247.96,707.36,246.45,707.1 Z " /><path
         id="path13006"
         fill="black"
         stroke-width="0"
         d="M256.65,708.21 L256.5,707.95 C256.32,707.64,256.2,707.53,256.05,707.53 C255.85,707.53,255.64,707.86,255.25,708.81 C255.2,708.94,255.05,709.3,254.88,709.69 C256.34,710.99,256.65,711.19,257.12,711.22 V711.38 H255.3 V711.22 H255.46 C255.71,711.22,255.85,711.15,255.85,711.04 C255.85,710.84,255.35,710.35,254.42,709.65 C254.28,709.54,254.16,709.44,254,709.32 L255.19,713.86 L255.14,713.91 C254.55,713.78,254.18,713.71,253.59,713.64 V713.48 C254.07,713.49,254.25,713.42,254.26,713.23 C254.24,713.07,254.18,712.8,254.04,712.34 C254.01,712.2,253.98,712.09,253.96,712.01 L253.94,711.92 L252.67,707.12 H253.42 L253.9,708.91 L254.31,709.23 C254.47,708.79,254.73,708.19,254.91,707.83 C255.23,707.2,255.41,707.02,255.7,707.02 C256.1,707.02,256.35,707.26,256.8,708.1 Z " /><path
         id="path13008"
         fill="black"
         stroke-width="0"
         d="M264.23,707.12 V708.65 H264.05 C264.03,708.14,263.74,708.03,263.29,708.03 H261.93 L261.98,708.36 C263.24,708.72,264,709.71,264,711.03 C264,712.83,262.55,713.85,260.86,713.85 C259.17,713.85,257.66,712.78,257.66,710.99 C257.66,709.78,258.46,708.59,259.7,708.36 L259.71,708.03 H258.39 C257.91,708.03,257.63,708.13,257.59,708.65 H257.42 V707.12 H260.14 L260.04,708.59 C259.02,708.96,258.8,709.99,258.8,710.97 C258.8,712.19,259.45,713.5,260.84,713.5 C262.27,713.5,262.89,712.14,262.89,710.9 C262.89,709.95,262.66,708.91,261.63,708.59 L261.5,707.12 Z " /></g>  </g>
</svg>
