<?xml version="1.0" encoding="UTF-8" standalone="no"?>
<!-- Created with Inkscape (http://www.inkscape.org/) -->

<svg
   xmlns:dc="http://purl.org/dc/elements/1.1/"
   xmlns:cc="http://creativecommons.org/ns#"
   xmlns:rdf="http://www.w3.org/1999/02/22-rdf-syntax-ns#"
   xmlns:svg="http://www.w3.org/2000/svg"
   xmlns="http://www.w3.org/2000/svg"
   xmlns:sodipodi="http://sodipodi.sourceforge.net/DTD/sodipodi-0.dtd"
   xmlns:inkscape="http://www.inkscape.org/namespaces/inkscape"
   width="425.19684"
   height="283.46457"
   id="svg2"
   version="1.1"
   inkscape:version="0.48.4 r9939"
   sodipodi:docname="S3-EE-06-IN007.eps">
  <sodipodi:namedview
     id="base"
     pagecolor="#ffffff"
     bordercolor="#666666"
     borderopacity="1.0"
     inkscape:pageopacity="0.0"
     inkscape:pageshadow="2"
     inkscape:zoom="2.1060833"
     inkscape:cx="212.59842"
     inkscape:cy="141.73228"
     inkscape:document-units="cm"
     inkscape:current-layer="layer1"
     showgrid="false"
     units="cm"
     inkscape:object-nodes="true"
     inkscape:window-width="1366"
     inkscape:window-height="744"
     inkscape:window-x="0"
     inkscape:window-y="24"
     inkscape:window-maximized="1"
     showguides="true"
     inkscape:guide-bbox="true">
    <inkscape:grid
       snapvisiblegridlinesonly="true"
       enabled="true"
       visible="true"
       empspacing="5"
       id="grid2985"
       type="xygrid" />
  </sodipodi:namedview>
  <defs
     id="defs4">
    <marker
       inkscape:stockid="Arrow1Mstart"
       orient="auto"
       refY="0.0"
       refX="0.0"
       id="Arrow1Mstart"
       style="overflow:visible">
      <path
         id="path6343"
         d="M 0.0,0.0 L 5.0,-5.0 L -12.5,0.0 L 5.0,5.0 L 0.0,0.0 z "
         style="fill-rule:evenodd;stroke:#000000;stroke-width:1.0pt"
         transform="scale(0.4) translate(10,0)" />
    </marker>
    <marker
       style="overflow:visible"
       id="Arrow1Mend"
       refX="0"
       refY="0"
       orient="auto"
       inkscape:stockid="Arrow1Mend">
      <path
         inkscape:connector-curvature="0"
         transform="matrix(-0.4,0,0,-0.4,-4,0)"
         style="fill-rule:evenodd;stroke:#000000;stroke-width:1pt"
         d="M 0,0 5,-5 -12.5,0 5,5 0,0 z"
         id="path3949" />
    </marker>
    <marker
       style="overflow:visible"
       id="Arrow1Mend-0"
       refX="0"
       refY="0"
       orient="auto"
       inkscape:stockid="Arrow1Mend">
      <path
         inkscape:connector-curvature="0"
         transform="matrix(-0.4,0,0,-0.4,-4,0)"
         style="fill-rule:evenodd;stroke:#000000;stroke-width:1pt"
         d="M 0,0 5,-5 -12.5,0 5,5 0,0 z"
         id="path3949-9" />
    </marker>
    <marker
       style="overflow:visible"
       id="Arrow1Mend-0-1"
       refX="0"
       refY="0"
       orient="auto"
       inkscape:stockid="Arrow1Mend">
      <path
         inkscape:connector-curvature="0"
         transform="matrix(-0.4,0,0,-0.4,-4,0)"
         style="fill-rule:evenodd;stroke:#000000;stroke-width:1pt"
         d="M 0,0 5,-5 -12.5,0 5,5 0,0 z"
         id="path3949-9-4" />
    </marker>
    <marker
       style="overflow:visible"
       id="Arrow1Mend-8"
       refX="0"
       refY="0"
       orient="auto"
       inkscape:stockid="Arrow1Mend">
      <path
         inkscape:connector-curvature="0"
         transform="matrix(-0.4,0,0,-0.4,-4,0)"
         style="fill-rule:evenodd;stroke:#000000;stroke-width:1pt"
         d="M 0,0 5,-5 -12.5,0 5,5 0,0 z"
         id="path3949-6" />
    </marker>
    <marker
       inkscape:stockid="Arrow1Mstart"
       orient="auto"
       refY="0.0"
       refX="0.0"
       id="Arrow1Mstart-6"
       style="overflow:visible">
      <path
         id="path6343-6"
         d="M 0.0,0.0 L 5.0,-5.0 L -12.5,0.0 L 5.0,5.0 L 0.0,0.0 z "
         style="fill-rule:evenodd;stroke:#000000;stroke-width:1.0pt"
         transform="scale(0.4) translate(10,0)" />
    </marker>
  </defs>
  <metadata
     id="metadata7">
    <rdf:RDF>
      <cc:Work
         rdf:about="">
        <dc:format>image/svg+xml</dc:format>
        <dc:type
           rdf:resource="http://purl.org/dc/dcmitype/StillImage" />
        <dc:title></dc:title>
      </cc:Work>
    </rdf:RDF>
  </metadata>
  <g
     transform="translate(0,-768.89631)"
     id="layer1"
     inkscape:groupmode="layer"
     inkscape:label="Layer 1">
    <g
       transform="matrix(1.25,0,0,-1.25,11.042232,1013.0686)"
       inkscape:label="ink_ext_XXXXXX"
       id="g13177">
      <g
         transform="scale(0.1,0.1)"
         id="g13179">
        <g
           transform="scale(10,10)"
           id="g13181">
          <text
             id="text13183"
             transform="matrix(1,0,0,-1,37.1898,104.475)">
            <tspan
               id="tspan13185"
               y="0"
               x="0"
               style="font-size:8px;font-style:italic;font-variant:normal;writing-mode:lr-tb;fill:#231f20;fill-opacity:1;fill-rule:nonzero;stroke:none;font-family:Times;-inkscape-font-specification:Times-Italic">R</tspan>
          </text>
          <text
             id="text13187"
             transform="matrix(1,0,0,-1,42.07769,102.475)">
            <tspan
               id="tspan13189"
               y="0"
               x="0"
               style="font-size:6px;font-variant:normal;font-weight:normal;writing-mode:lr-tb;fill:#231f20;fill-opacity:1;fill-rule:nonzero;stroke:none;font-family:Times;-inkscape-font-specification:Times-Roman">1</tspan>
          </text>
          <text
             id="text13191"
             transform="matrix(1,0,0,-1,47.07769,104.475)">
            <tspan
               id="tspan13193"
               sodipodi:role="line"
               y="0"
               x="0 4.5120001 6.5120001 10.512 14.512 18.511999 20.511999"
               style="font-size:8px;font-variant:normal;font-weight:normal;writing-mode:lr-tb;fill:#231f20;fill-opacity:1;fill-rule:nonzero;stroke:none;font-family:Times;-inkscape-font-specification:Times-Roman">= 120 k</tspan>
          </text>
          <text
             id="text13195"
             transform="matrix(1,0,0,-1,71.58979,104.475)">
            <tspan
               id="tspan13197"
               y="0"
               x="0"
               style="font-size:8px;font-variant:normal;font-weight:normal;writing-mode:lr-tb;fill:#231f20;fill-opacity:1;fill-rule:nonzero;stroke:none;font-family:Symbol;-inkscape-font-specification:Symbol">Ω</tspan>
          </text>
          <text
             id="text13199"
             transform="matrix(1,0,0,-1,181.91079,158.416)">
            <tspan
               id="tspan13201"
               y="0"
               x="0"
               style="font-size:8px;font-style:italic;font-variant:normal;writing-mode:lr-tb;fill:#231f20;fill-opacity:1;fill-rule:nonzero;stroke:none;font-family:Times;-inkscape-font-specification:Times-Italic">R</tspan>
          </text>
          <text
             id="text13203"
             transform="matrix(1,0,0,-1,186.7979,156.416)">
            <tspan
               id="tspan13205"
               sodipodi:role="line"
               y="0"
               x="0 1.6684577"
               style="font-size:6px;font-style:italic;font-variant:normal;writing-mode:lr-tb;fill:#231f20;fill-opacity:1;fill-rule:nonzero;stroke:none;font-family:Times;-inkscape-font-specification:Times-Italic">f</tspan>
          </text>
          <text
             id="text13207"
             transform="matrix(1,0,0,-1,191.96704,158.416)">
            <tspan
               id="tspan13209"
               sodipodi:role="line"
               y="0"
               x="0 4.5120001 6.5120001 10.512 14.512 18.511999 20.511999"
               style="font-size:8px;font-variant:normal;font-weight:normal;writing-mode:lr-tb;fill:#231f20;fill-opacity:1;fill-rule:nonzero;stroke:none;font-family:Times;-inkscape-font-specification:Times-Roman">= 360 k</tspan>
          </text>
          <text
             id="text13211"
             transform="matrix(1,0,0,-1,216.47874,158.416)">
            <tspan
               id="tspan13213"
               y="0"
               x="0"
               style="font-size:8px;font-variant:normal;font-weight:normal;writing-mode:lr-tb;fill:#231f20;fill-opacity:1;fill-rule:nonzero;stroke:none;font-family:Symbol;-inkscape-font-specification:Symbol">Ω</tspan>
          </text>
        </g>
        <path
           id="path13215"
           style="fill:none;stroke:#231f20;stroke-width:5;stroke-linecap:round;stroke-linejoin:round;stroke-miterlimit:3.86369991;stroke-opacity:1;stroke-dasharray:none"
           d="m 1113.85,98.5898 0,599.9262"
           inkscape:connector-curvature="0" />
        <path
           id="path13217"
           style="fill:none;stroke:#231f20;stroke-width:8;stroke-linecap:round;stroke-linejoin:round;stroke-miterlimit:3.86369991;stroke-opacity:1;stroke-dasharray:none"
           d="m 1113.6,121.172 0,-64.3009"
           inkscape:connector-curvature="0" />
        <path
           id="path13219"
           style="fill:none;stroke:#231f20;stroke-width:8;stroke-linecap:round;stroke-linejoin:round;stroke-miterlimit:3.86369991;stroke-opacity:1;stroke-dasharray:none"
           d="m 1183.6,56.8711 -140,0"
           inkscape:connector-curvature="0" />
        <path
           id="path13221"
           style="fill:none;stroke:#231f20;stroke-width:8;stroke-linecap:round;stroke-linejoin:round;stroke-miterlimit:3.86369991;stroke-opacity:1;stroke-dasharray:none"
           d="m 1168.6,30.4297 -110,0"
           inkscape:connector-curvature="0" />
        <path
           id="path13223"
           style="fill:none;stroke:#231f20;stroke-width:8;stroke-linecap:round;stroke-linejoin:round;stroke-miterlimit:3.86369991;stroke-opacity:1;stroke-dasharray:none"
           d="m 1153.6,4 -80,0"
           inkscape:connector-curvature="0" />
        <g
           transform="scale(10,10)"
           id="g13225">
          <text
             id="text13227"
             transform="matrix(1.00002,3e-5,3e-5,-1,120.222,39.4238)">
            <tspan
               id="tspan13229"
               y="0"
               x="0"
               style="font-size:8.00016022px;font-variant:normal;font-weight:normal;writing-mode:lr-tb;fill:#231f20;fill-opacity:1;fill-rule:nonzero;stroke:none;font-family:Symbol;-inkscape-font-specification:Symbol">+</tspan>
            <tspan
               id="tspan13231"
               y="15.530011"
               x="0.00070598413"
               style="font-size:8.00016022px;font-variant:normal;font-weight:normal;writing-mode:lr-tb;fill:#231f20;fill-opacity:1;fill-rule:nonzero;stroke:none;font-family:Symbol;-inkscape-font-specification:Symbol">−</tspan>
          </text>
        </g>
        <path
           id="path13233"
           style="fill:#ffffff;fill-opacity:1;fill-rule:nonzero;stroke:none"
           d="m 1189.61,345.379 c 0,-42.66 -34.59,-77.25 -77.25,-77.25 -42.66,0 -77.24,34.59 -77.24,77.25 0,42.66 34.58,77.25 77.24,77.25 42.66,0 77.25,-34.59 77.25,-77.25"
           inkscape:connector-curvature="0" />
        <path
           id="path13235"
           style="fill:none;stroke:#231f20;stroke-width:5;stroke-linecap:round;stroke-linejoin:round;stroke-miterlimit:3.86369991;stroke-opacity:1;stroke-dasharray:none"
           d="m 1189.61,345.379 c 0,-42.66 -34.59,-77.25 -77.25,-77.25 -42.66,0 -77.24,34.59 -77.24,77.25 0,42.66 34.58,77.25 77.24,77.25 42.66,0 77.25,-34.59 77.25,-77.25 z"
           inkscape:connector-curvature="0" />
        <path
           id="path13237"
           style="fill:none;stroke:#231f20;stroke-width:5;stroke-linecap:round;stroke-linejoin:round;stroke-miterlimit:3.86369991;stroke-opacity:1;stroke-dasharray:none"
           d="m 2363.98,830.859 736.32,0"
           inkscape:connector-curvature="0" />
        <path
           id="path13239"
           style="fill:none;stroke:#231f20;stroke-width:5;stroke-linecap:round;stroke-linejoin:round;stroke-miterlimit:3.86369991;stroke-opacity:1;stroke-dasharray:none"
           d="m 74.0938,963.621 0,-845.441"
           inkscape:connector-curvature="0" />
        <path
           id="path13241"
           style="fill:none;stroke:#231f20;stroke-width:5;stroke-linecap:round;stroke-linejoin:round;stroke-miterlimit:3.86369991;stroke-opacity:1;stroke-dasharray:none"
           d="m 1855.05,964.832 -1780.8586,0"
           inkscape:connector-curvature="0" />
        <path
           id="path13243"
           style="fill:none;stroke:#231f20;stroke-width:5;stroke-linecap:round;stroke-linejoin:round;stroke-miterlimit:3.86369991;stroke-opacity:1;stroke-dasharray:none"
           d="m 1116.79,696.855 738.26,0"
           inkscape:connector-curvature="0" />
        <path
           id="path13245"
           style="fill:none;stroke:#231f20;stroke-width:5;stroke-linecap:round;stroke-linejoin:round;stroke-miterlimit:3.86369991;stroke-opacity:1;stroke-dasharray:none"
           d="m 2172.7,1478.95 -1057.73,0 0,-525.153"
           inkscape:connector-curvature="0" />
        <path
           id="path13247"
           style="fill:none;stroke:#231f20;stroke-width:5;stroke-linecap:round;stroke-linejoin:round;stroke-miterlimit:3.86369991;stroke-opacity:1;stroke-dasharray:none"
           d="m 2808.61,830.859 0,648.091 -633.79,0"
           inkscape:connector-curvature="0" />
        <g
           transform="scale(10,10)"
           id="g13249">
          <text
             id="text13251"
             transform="matrix(1,0,0,-1,108.626,31.9828)">
            <tspan
               id="tspan13253"
               y="0"
               x="0"
               style="font-size:8px;font-style:italic;font-variant:normal;writing-mode:lr-tb;fill:#231f20;fill-opacity:1;fill-rule:nonzero;stroke:none;font-family:Times;-inkscape-font-specification:Times-Italic">v</tspan>
          </text>
          <text
             id="text13255"
             transform="matrix(1,0,0,-1,112.17795,29.9828)">
            <tspan
               id="tspan13257"
               y="0"
               x="0"
               style="font-size:6px;font-style:italic;font-variant:normal;writing-mode:lr-tb;fill:#231f20;fill-opacity:1;fill-rule:nonzero;stroke:none;font-family:Times;-inkscape-font-specification:Times-Italic">i</tspan>
          </text>
          <text
             id="text13259"
             transform="matrix(1,0,0,-1,316.12995,79.2644)">
            <tspan
               id="tspan13261"
               y="0"
               x="0"
               style="font-size:8px;font-style:italic;font-variant:normal;writing-mode:lr-tb;fill:#231f20;fill-opacity:1;fill-rule:nonzero;stroke:none;font-family:Times;-inkscape-font-specification:Times-Italic">v</tspan>
          </text>
          <text
             id="text13263"
             transform="matrix(1,0,0,-1,319.6819,77.2644)">
            <tspan
               id="tspan13265"
               y="0"
               x="0"
               style="font-size:6px;font-style:italic;font-variant:normal;writing-mode:lr-tb;fill:#231f20;fill-opacity:1;fill-rule:nonzero;stroke:none;font-family:Times;-inkscape-font-specification:Times-Italic">o</tspan>
          </text>
        </g>
        <path
           id="path13267"
           style="fill:#ffffff;fill-opacity:1;fill-rule:nonzero;stroke:none"
           d="m 1132.39,964.832 c 0,-9.199 -7.46,-16.668 -16.67,-16.668 -9.21,0 -16.67,7.469 -16.67,16.668 0,9.199 7.46,16.672 16.67,16.672 9.21,0 16.67,-7.473 16.67,-16.672"
           inkscape:connector-curvature="0" />
        <path
           id="path13269"
           style="fill:none;stroke:#231f20;stroke-width:5;stroke-linecap:butt;stroke-linejoin:miter;stroke-miterlimit:4;stroke-opacity:1;stroke-dasharray:none"
           d="m 1132.39,964.832 c 0,-9.199 -7.46,-16.668 -16.67,-16.668 -9.21,0 -16.67,7.469 -16.67,16.668 0,9.199 7.46,16.672 16.67,16.672 9.21,0 16.67,-7.473 16.67,-16.672 z"
           inkscape:connector-curvature="0" />
        <path
           id="path13271"
           style="fill:#ffffff;fill-opacity:1;fill-rule:nonzero;stroke:none"
           d="m 3129.11,829.512 c 0,-9.211 -7.46,-16.672 -16.67,-16.672 -9.21,0 -16.67,7.461 -16.67,16.672 0,9.207 7.46,16.668 16.67,16.668 9.21,0 16.67,-7.461 16.67,-16.668"
           inkscape:connector-curvature="0" />
        <path
           id="path13273"
           style="fill:none;stroke:#231f20;stroke-width:5;stroke-linecap:butt;stroke-linejoin:miter;stroke-miterlimit:4;stroke-opacity:1;stroke-dasharray:none"
           d="m 3129.11,829.512 c 0,-9.211 -7.46,-16.672 -16.67,-16.672 -9.21,0 -16.67,7.461 -16.67,16.672 0,9.207 7.46,16.668 16.67,16.668 9.21,0 16.67,-7.461 16.67,-16.668 z"
           inkscape:connector-curvature="0" />
        <path
           id="path13275"
           style="fill:#231f20;fill-opacity:1;fill-rule:nonzero;stroke:none"
           d="m 2825.28,830.859 c 0,-9.211 -7.46,-16.671 -16.67,-16.671 -9.21,0 -16.67,7.46 -16.67,16.671 0,9.207 7.46,16.668 16.67,16.668 9.21,0 16.67,-7.461 16.67,-16.668"
           inkscape:connector-curvature="0" />
        <path
           id="path13277"
           style="fill:none;stroke:#231f20;stroke-width:5;stroke-linecap:butt;stroke-linejoin:miter;stroke-miterlimit:4;stroke-opacity:1;stroke-dasharray:none"
           d="m 2825.28,830.859 c 0,-9.211 -7.46,-16.671 -16.67,-16.671 -9.21,0 -16.67,7.46 -16.67,16.671 0,9.207 7.46,16.668 16.67,16.668 9.21,0 16.67,-7.461 16.67,-16.668 z"
           inkscape:connector-curvature="0" />
        <path
           id="path13279"
           style="fill:#ffffff;fill-opacity:1;fill-rule:nonzero;stroke:none"
           d="m 416.621,927.84 324.512,0 0,74.6875 -324.512,0 0,-74.6875 z"
           inkscape:connector-curvature="0" />
        <path
           id="path13281"
           style="fill:none;stroke:#231f20;stroke-width:8;stroke-linecap:round;stroke-linejoin:round;stroke-miterlimit:3.86369991;stroke-opacity:1;stroke-dasharray:none"
           d="m 743.359,964.832 -36.125,0 -15.703,-36.992 -31.492,74.69 -31.953,-74.69 -31.973,74.69 -31.504,-74.69 -31.23,74.69 -31.504,-74.69 -31.973,73.73 -15.293,-36.738 -37.988,0"
           inkscape:connector-curvature="0" />
        <path
           id="path13283"
           style="fill:#ffffff;fill-opacity:1;fill-rule:nonzero;stroke:none"
           d="m 1835.21,1441.73 324.52,0 0,74.6875 -324.52,0 0,-74.6875 z"
           inkscape:connector-curvature="0" />
        <path
           id="path13285"
           style="fill:none;stroke:#231f20;stroke-width:8;stroke-linecap:round;stroke-linejoin:round;stroke-miterlimit:3.86369991;stroke-opacity:1;stroke-dasharray:none"
           d="m 2161.95,1478.72 -36.13,0 -15.7,-36.99 -31.49,74.68 -31.95,-74.68 -31.98,74.68 -31.51,-74.68 -31.23,74.68 -31.5,-74.68 -31.97,73.73 -15.3,-36.74 -37.98,0"
           inkscape:connector-curvature="0" />
        <path
           id="path13287"
           style="fill:none;stroke:#231f20;stroke-width:8;stroke-linecap:round;stroke-linejoin:round;stroke-miterlimit:3.86369991;stroke-opacity:1;stroke-dasharray:none"
           d="M 74,121.172 74,56.8711"
           inkscape:connector-curvature="0" />
        <path
           id="path13289"
           style="fill:none;stroke:#231f20;stroke-width:8;stroke-linecap:round;stroke-linejoin:round;stroke-miterlimit:3.86369991;stroke-opacity:1;stroke-dasharray:none"
           d="m 144,56.8711 -140,0"
           inkscape:connector-curvature="0" />
        <path
           id="path13291"
           style="fill:none;stroke:#231f20;stroke-width:8;stroke-linecap:round;stroke-linejoin:round;stroke-miterlimit:3.86369991;stroke-opacity:1;stroke-dasharray:none"
           d="m 129,30.4297 -110,0"
           inkscape:connector-curvature="0" />
        <path
           id="path13293"
           style="fill:none;stroke:#231f20;stroke-width:8;stroke-linecap:round;stroke-linejoin:round;stroke-miterlimit:3.86369991;stroke-opacity:1;stroke-dasharray:none"
           d="M 114,4 34,4"
           inkscape:connector-curvature="0" />
        <path
           id="path13295"
           style="fill:#ffffff;fill-opacity:1;fill-rule:nonzero;stroke:none"
           d="m 3129.11,139.73 c 0,-9.199 -7.46,-16.679 -16.67,-16.679 -9.21,0 -16.67,7.48 -16.67,16.679 0,9.2 7.46,16.668 16.67,16.668 9.21,0 16.67,-7.468 16.67,-16.668"
           inkscape:connector-curvature="0" />
        <path
           id="path13297"
           style="fill:none;stroke:#231f20;stroke-width:5;stroke-linecap:butt;stroke-linejoin:miter;stroke-miterlimit:4;stroke-opacity:1;stroke-dasharray:none"
           d="m 3129.11,139.73 c 0,-9.199 -7.46,-16.679 -16.67,-16.679 -9.21,0 -16.67,7.48 -16.67,16.679 0,9.2 7.46,16.668 16.67,16.668 9.21,0 16.67,-7.468 16.67,-16.668 z"
           inkscape:connector-curvature="0" />
        <path
           id="path13299"
           style="fill:none;stroke:#231f20;stroke-width:8;stroke-linecap:round;stroke-linejoin:round;stroke-miterlimit:3.86369991;stroke-opacity:1;stroke-dasharray:none"
           d="m 3112.3,121.172 0,-64.3009"
           inkscape:connector-curvature="0" />
        <path
           id="path13301"
           style="fill:none;stroke:#231f20;stroke-width:8;stroke-linecap:round;stroke-linejoin:round;stroke-miterlimit:3.86369991;stroke-opacity:1;stroke-dasharray:none"
           d="m 3182.3,56.8711 -140,0"
           inkscape:connector-curvature="0" />
        <path
           id="path13303"
           style="fill:none;stroke:#231f20;stroke-width:8;stroke-linecap:round;stroke-linejoin:round;stroke-miterlimit:3.86369991;stroke-opacity:1;stroke-dasharray:none"
           d="m 3167.3,30.4297 -110,0"
           inkscape:connector-curvature="0" />
        <path
           id="path13305"
           style="fill:none;stroke:#231f20;stroke-width:8;stroke-linecap:round;stroke-linejoin:round;stroke-miterlimit:3.86369991;stroke-opacity:1;stroke-dasharray:none"
           d="m 3152.3,4 -80,0"
           inkscape:connector-curvature="0" />
        <path
           id="path13307"
           style="fill:none;stroke:#231f20;stroke-width:5;stroke-linecap:round;stroke-linejoin:round;stroke-miterlimit:3.86369991;stroke-opacity:1;stroke-dasharray:none"
           d="m 2366.65,831.016 474.03,0"
           inkscape:connector-curvature="0" />
        <path
           id="path13309"
           style="fill:none;stroke:#231f20;stroke-width:5;stroke-linecap:round;stroke-linejoin:round;stroke-miterlimit:3.86369991;stroke-opacity:1;stroke-dasharray:none"
           d="m 1855.68,964.832 -560.7,0"
           inkscape:connector-curvature="0" />
        <path
           id="path13311"
           style="fill:none;stroke:#231f20;stroke-width:5;stroke-linecap:round;stroke-linejoin:round;stroke-miterlimit:3.86369991;stroke-opacity:1;stroke-dasharray:none"
           d="m 1295.1,696.855 560.58,0"
           inkscape:connector-curvature="0" />
        <path
           id="path13313"
           style="fill:none;stroke:#231f20;stroke-width:5;stroke-linecap:round;stroke-linejoin:round;stroke-miterlimit:3.86369991;stroke-opacity:1;stroke-dasharray:none"
           d="m 1855.68,1129.48 511.25,-298.621 -511.25,-298.648 0,597.269 z"
           inkscape:connector-curvature="0" />
        <g
           transform="scale(10,10)"
           id="g13315">
          <text
             id="text13317"
             transform="matrix(-1.00001,-2e-5,-1e-5,1,192.739,71.8336)">
            <tspan
               id="tspan13319"
               y="0"
               x="0"
               style="font-size:8.00008011px;font-variant:normal;font-weight:normal;writing-mode:lr-tb;fill:#231f20;fill-opacity:1;fill-rule:nonzero;stroke:none;font-family:Symbol;-inkscape-font-specification:Symbol">+</tspan>
            <tspan
               id="tspan13321"
               y="26.715067"
               x="0"
               style="font-size:8.00008011px;font-variant:normal;font-weight:normal;writing-mode:lr-tb;fill:#231f20;fill-opacity:1;fill-rule:nonzero;stroke:none;font-family:Symbol;-inkscape-font-specification:Symbol">−</tspan>
          </text>
        </g>
        <path
           id="path13323"
           style="fill:#ffffff;fill-opacity:1;fill-rule:nonzero;stroke:none"
           d="m 1133.46,696.855 c 0,-9.199 -7.46,-16.671 -16.67,-16.671 -9.21,0 -16.67,7.472 -16.67,16.671 0,9.2 7.46,16.668 16.67,16.668 9.21,0 16.67,-7.468 16.67,-16.668"
           inkscape:connector-curvature="0" />
        <path
           id="path13325"
           style="fill:none;stroke:#231f20;stroke-width:5;stroke-linecap:butt;stroke-linejoin:miter;stroke-miterlimit:4;stroke-opacity:1;stroke-dasharray:none"
           d="m 1133.46,696.855 c 0,-9.199 -7.46,-16.671 -16.67,-16.671 -9.21,0 -16.67,7.472 -16.67,16.671 0,9.2 7.46,16.668 16.67,16.668 9.21,0 16.67,-7.468 16.67,-16.668 z"
           inkscape:connector-curvature="0" />
      </g>
    </g>
    <path
       inkscape:connector-curvature="0"
       id="path9987"
       style="font-size:10.00030041px;font-variant:normal;font-weight:normal;writing-mode:lr-tb;fill:#231f20;fill-opacity:1;fill-rule:nonzero;stroke:none;font-family:Symbol;-inkscape-font-specification:Symbol"
       d="m 400.24198,914.02197 -0.55002,10e-6 7e-5,2.39005 -2.37009,7e-5 1e-5,0.55001 2.3701,-7e-5 7e-5,2.39005 0.55002,-2e-5 -7e-5,-2.39004 2.3701,-7e-5 -2e-5,-0.55002 -2.37009,7e-5 -8e-5,-2.39004" />
    <path
       inkscape:connector-curvature="0"
       id="path9989"
       style="font-size:10.00030041px;font-variant:normal;font-weight:normal;writing-mode:lr-tb;fill:#231f20;fill-opacity:1;fill-rule:nonzero;stroke:none;font-family:Symbol;-inkscape-font-specification:Symbol"
       d="m 397.33341,989.24132 2e-5,0.55001 5.24021,-1.6e-4 -2e-5,-0.55001 -5.24021,1.6e-4" />
  </g>
</svg>
