<?xml version="1.0" encoding="UTF-8" standalone="no"?>
<!-- Created with Inkscape (http://www.inkscape.org/) -->

<svg
   xmlns:dc="http://purl.org/dc/elements/1.1/"
   xmlns:cc="http://creativecommons.org/ns#"
   xmlns:rdf="http://www.w3.org/1999/02/22-rdf-syntax-ns#"
   xmlns:svg="http://www.w3.org/2000/svg"
   xmlns="http://www.w3.org/2000/svg"
   xmlns:sodipodi="http://sodipodi.sourceforge.net/DTD/sodipodi-0.dtd"
   xmlns:inkscape="http://www.inkscape.org/namespaces/inkscape"
   width="496.06299"
   height="283.46457"
   id="svg2"
   version="1.1"
   inkscape:version="0.48.4 r9939"
   sodipodi:docname="S3-EE-06-IN012.eps">
  <sodipodi:namedview
     id="base"
     pagecolor="#ffffff"
     bordercolor="#666666"
     borderopacity="1.0"
     inkscape:pageopacity="0.0"
     inkscape:pageshadow="2"
     inkscape:zoom="1.7074445"
     inkscape:cx="248.03149"
     inkscape:cy="141.73228"
     inkscape:document-units="cm"
     inkscape:current-layer="layer1"
     showgrid="false"
     units="cm"
     inkscape:object-nodes="true"
     inkscape:window-width="1366"
     inkscape:window-height="744"
     inkscape:window-x="0"
     inkscape:window-y="24"
     inkscape:window-maximized="1"
     showguides="true"
     inkscape:guide-bbox="true">
    <inkscape:grid
       type="xygrid"
       id="grid2985"
       empspacing="5"
       visible="true"
       enabled="true"
       snapvisiblegridlinesonly="true" />
  </sodipodi:namedview>
  <defs
     id="defs4">
    <marker
       style="overflow:visible"
       id="Arrow1Mstart"
       refX="0"
       refY="0"
       orient="auto"
       inkscape:stockid="Arrow1Mstart">
      <path
         transform="matrix(0.4,0,0,0.4,4,0)"
         style="fill-rule:evenodd;stroke:#000000;stroke-width:1pt"
         d="M 0,0 5,-5 -12.5,0 5,5 0,0 z"
         id="path6343"
         inkscape:connector-curvature="0" />
    </marker>
    <marker
       inkscape:stockid="Arrow1Mend"
       orient="auto"
       refY="0"
       refX="0"
       id="Arrow1Mend"
       style="overflow:visible">
      <path
         id="path3949"
         d="M 0,0 5,-5 -12.5,0 5,5 0,0 z"
         style="fill-rule:evenodd;stroke:#000000;stroke-width:1pt"
         transform="matrix(-0.4,0,0,-0.4,-4,0)"
         inkscape:connector-curvature="0" />
    </marker>
    <marker
       inkscape:stockid="Arrow1Mend"
       orient="auto"
       refY="0"
       refX="0"
       id="Arrow1Mend-0"
       style="overflow:visible">
      <path
         id="path3949-9"
         d="M 0,0 5,-5 -12.5,0 5,5 0,0 z"
         style="fill-rule:evenodd;stroke:#000000;stroke-width:1pt"
         transform="matrix(-0.4,0,0,-0.4,-4,0)"
         inkscape:connector-curvature="0" />
    </marker>
    <marker
       inkscape:stockid="Arrow1Mend"
       orient="auto"
       refY="0"
       refX="0"
       id="Arrow1Mend-0-1"
       style="overflow:visible">
      <path
         id="path3949-9-4"
         d="M 0,0 5,-5 -12.5,0 5,5 0,0 z"
         style="fill-rule:evenodd;stroke:#000000;stroke-width:1pt"
         transform="matrix(-0.4,0,0,-0.4,-4,0)"
         inkscape:connector-curvature="0" />
    </marker>
    <marker
       inkscape:stockid="Arrow1Mend"
       orient="auto"
       refY="0"
       refX="0"
       id="Arrow1Mend-8"
       style="overflow:visible">
      <path
         id="path3949-6"
         d="M 0,0 5,-5 -12.5,0 5,5 0,0 z"
         style="fill-rule:evenodd;stroke:#000000;stroke-width:1pt"
         transform="matrix(-0.4,0,0,-0.4,-4,0)"
         inkscape:connector-curvature="0" />
    </marker>
    <marker
       style="overflow:visible"
       id="Arrow1Mstart-6"
       refX="0"
       refY="0"
       orient="auto"
       inkscape:stockid="Arrow1Mstart">
      <path
         transform="matrix(0.4,0,0,0.4,4,0)"
         style="fill-rule:evenodd;stroke:#000000;stroke-width:1pt"
         d="M 0,0 5,-5 -12.5,0 5,5 0,0 z"
         id="path6343-6"
         inkscape:connector-curvature="0" />
    </marker>
  </defs>
  <metadata
     id="metadata7">
    <rdf:RDF>
      <cc:Work
         rdf:about="">
        <dc:format>image/svg+xml</dc:format>
        <dc:type
           rdf:resource="http://purl.org/dc/dcmitype/StillImage" />
        <dc:title></dc:title>
      </cc:Work>
    </rdf:RDF>
  </metadata>
  <g
     inkscape:label="Layer 1"
     inkscape:groupmode="layer"
     id="layer1"
     transform="translate(0,-768.89631)">
    <g
       transform="matrix(1.25,0,0,-1.25,7.2004125,1012.5143)"
       inkscape:label="ink_ext_XXXXXX"
       id="g16940">
      <g
         transform="scale(0.1,0.1)"
         id="g16942">
        <g
           transform="scale(10,10)"
           id="g16944">
          <text
             id="text16946"
             transform="matrix(1,0,0,-1,3.90625e-4,94.0867)">
            <tspan
               id="tspan16948"
               y="0"
               x="0"
               style="font-size:8px;font-style:italic;font-variant:normal;writing-mode:lr-tb;fill:#231f20;fill-opacity:1;fill-rule:nonzero;stroke:none;font-family:Times;-inkscape-font-specification:Times-Italic">v</tspan>
          </text>
          <text
             id="text16950"
             transform="matrix(1,0,0,-1,3.5523406,92.0867)">
            <tspan
               id="tspan16952"
               sodipodi:role="line"
               y="0"
               x="0 3"
               style="font-size:6px;font-variant:normal;font-weight:normal;writing-mode:lr-tb;fill:#231f20;fill-opacity:1;fill-rule:nonzero;stroke:none;font-family:Times;-inkscape-font-specification:Times-Roman">1</tspan>
          </text>
          <text
             id="text16954"
             transform="matrix(1,0,0,-1,8.0523406,94.0867)">
            <tspan
               id="tspan16956"
               sodipodi:role="line"
               y="0"
               x="0 4.5122442"
               style="font-size:8px;font-variant:normal;font-weight:normal;writing-mode:lr-tb;fill:#231f20;fill-opacity:1;fill-rule:nonzero;stroke:none;font-family:Times;-inkscape-font-specification:Times-Roman">=</tspan>
          </text>
          <text
             id="text16958"
             transform="matrix(1,0,0,-1,14.564451,94.0867)">
            <tspan
               id="tspan16960"
               y="0"
               x="0"
               style="font-size:8px;font-variant:normal;font-weight:normal;writing-mode:lr-tb;fill:#231f20;fill-opacity:1;fill-rule:nonzero;stroke:none;font-family:Symbol;-inkscape-font-specification:Symbol">−</tspan>
          </text>
          <text
             id="text16962"
             transform="matrix(1,0,0,-1,18.956641,94.0867)">
            <tspan
               id="tspan16964"
               sodipodi:role="line"
               y="0"
               x="0 4"
               style="font-size:8px;font-variant:normal;font-weight:normal;writing-mode:lr-tb;fill:#231f20;fill-opacity:1;fill-rule:nonzero;stroke:none;font-family:Times;-inkscape-font-specification:Times-Roman">1V</tspan>
          </text>
          <text
             id="text16966"
             transform="matrix(1,0,0,-1,4.3925406,64.9836)">
            <tspan
               id="tspan16968"
               y="0"
               x="0"
               style="font-size:8px;font-style:italic;font-variant:normal;writing-mode:lr-tb;fill:#231f20;fill-opacity:1;fill-rule:nonzero;stroke:none;font-family:Times;-inkscape-font-specification:Times-Italic">v</tspan>
          </text>
          <text
             id="text16970"
             transform="matrix(1,0,0,-1,7.9444906,62.9836)">
            <tspan
               id="tspan16972"
               sodipodi:role="line"
               y="0"
               x="0 3"
               style="font-size:6px;font-variant:normal;font-weight:normal;writing-mode:lr-tb;fill:#231f20;fill-opacity:1;fill-rule:nonzero;stroke:none;font-family:Times;-inkscape-font-specification:Times-Roman">2</tspan>
          </text>
          <text
             id="text16974"
             transform="matrix(1,0,0,-1,12.444101,64.9836)">
            <tspan
               id="tspan16976"
               sodipodi:role="line"
               y="0"
               x="0 4.5122442 6.5124998 10.5125"
               style="font-size:8px;font-variant:normal;font-weight:normal;writing-mode:lr-tb;fill:#231f20;fill-opacity:1;fill-rule:nonzero;stroke:none;font-family:Times;-inkscape-font-specification:Times-Roman">= 2V</tspan>
          </text>
          <text
             id="text16978"
             transform="matrix(1,0,0,-1,4.3929006,35.9852)">
            <tspan
               id="tspan16980"
               y="0"
               x="0"
               style="font-size:8px;font-style:italic;font-variant:normal;writing-mode:lr-tb;fill:#231f20;fill-opacity:1;fill-rule:nonzero;stroke:none;font-family:Times;-inkscape-font-specification:Times-Italic">v</tspan>
          </text>
          <text
             id="text16982"
             transform="matrix(1,0,0,-1,7.9448506,33.9852)">
            <tspan
               id="tspan16984"
               sodipodi:role="line"
               y="0"
               x="0 3"
               style="font-size:6px;font-variant:normal;font-weight:normal;writing-mode:lr-tb;fill:#231f20;fill-opacity:1;fill-rule:nonzero;stroke:none;font-family:Times;-inkscape-font-specification:Times-Roman">3</tspan>
          </text>
          <text
             id="text16986"
             transform="matrix(1,0,0,-1,12.444851,35.9852)">
            <tspan
               id="tspan16988"
               sodipodi:role="line"
               y="0"
               x="0 4.5122442 6.5121102 10.51211"
               style="font-size:8px;font-variant:normal;font-weight:normal;writing-mode:lr-tb;fill:#231f20;fill-opacity:1;fill-rule:nonzero;stroke:none;font-family:Times;-inkscape-font-specification:Times-Roman">= 3V</tspan>
          </text>
          <text
             id="text16990"
             transform="matrix(1,0,0,-1,58.285861,104.9211)">
            <tspan
               id="tspan16992"
               y="0"
               x="0"
               style="font-size:8px;font-style:italic;font-variant:normal;writing-mode:lr-tb;fill:#231f20;fill-opacity:1;fill-rule:nonzero;stroke:none;font-family:Times;-inkscape-font-specification:Times-Italic">R</tspan>
          </text>
          <text
             id="text16994"
             transform="matrix(1,0,0,-1,63.173751,102.9211)">
            <tspan
               id="tspan16996"
               sodipodi:role="line"
               y="0"
               x="0 3"
               style="font-size:6px;font-variant:normal;font-weight:normal;writing-mode:lr-tb;fill:#231f20;fill-opacity:1;fill-rule:nonzero;stroke:none;font-family:Times;-inkscape-font-specification:Times-Roman">1</tspan>
          </text>
          <text
             id="text16998"
             transform="matrix(1,0,0,-1,67.673751,104.9211)">
            <tspan
               id="tspan17000"
               sodipodi:role="line"
               y="0"
               x="0 4.5122442 6.5122442 10.5121 14.5121 16.5121"
               style="font-size:8px;font-variant:normal;font-weight:normal;writing-mode:lr-tb;fill:#231f20;fill-opacity:1;fill-rule:nonzero;stroke:none;font-family:Times;-inkscape-font-specification:Times-Roman">= 10 k</tspan>
          </text>
          <text
             id="text17002"
             transform="matrix(1,0,0,-1,88.185851,104.9211)">
            <tspan
               id="tspan17004"
               y="0"
               x="0"
               style="font-size:8px;font-variant:normal;font-weight:normal;writing-mode:lr-tb;fill:#231f20;fill-opacity:1;fill-rule:nonzero;stroke:none;font-family:Symbol;-inkscape-font-specification:Symbol">Ω</tspan>
          </text>
          <text
             id="text17006"
             transform="matrix(1,0,0,-1,58.285851,76.0859)">
            <tspan
               id="tspan17008"
               y="0"
               x="0"
               style="font-size:8px;font-style:italic;font-variant:normal;writing-mode:lr-tb;fill:#231f20;fill-opacity:1;fill-rule:nonzero;stroke:none;font-family:Times;-inkscape-font-specification:Times-Italic">R</tspan>
          </text>
          <text
             id="text17010"
             transform="matrix(1,0,0,-1,63.173741,74.0859)">
            <tspan
               id="tspan17012"
               sodipodi:role="line"
               y="0"
               x="0 3"
               style="font-size:6px;font-variant:normal;font-weight:normal;writing-mode:lr-tb;fill:#231f20;fill-opacity:1;fill-rule:nonzero;stroke:none;font-family:Times;-inkscape-font-specification:Times-Roman">2</tspan>
          </text>
          <text
             id="text17014"
             transform="matrix(1,0,0,-1,67.673741,76.0859)">
            <tspan
               id="tspan17016"
               sodipodi:role="line"
               y="0"
               x="0 4.5122442 6.5121102 10.51211 14.51211 16.51211"
               style="font-size:8px;font-variant:normal;font-weight:normal;writing-mode:lr-tb;fill:#231f20;fill-opacity:1;fill-rule:nonzero;stroke:none;font-family:Times;-inkscape-font-specification:Times-Roman">= 20 k</tspan>
          </text>
          <text
             id="text17018"
             transform="matrix(1,0,0,-1,88.185851,76.0859)">
            <tspan
               id="tspan17020"
               y="0"
               x="0"
               style="font-size:8px;font-variant:normal;font-weight:normal;writing-mode:lr-tb;fill:#231f20;fill-opacity:1;fill-rule:nonzero;stroke:none;font-family:Symbol;-inkscape-font-specification:Symbol">Ω</tspan>
          </text>
          <text
             id="text17022"
             transform="matrix(1,0,0,-1,-4.9375e-5,7.0898)">
            <tspan
               id="tspan17024"
               y="0"
               x="0"
               style="font-size:8px;font-style:italic;font-variant:normal;writing-mode:lr-tb;fill:#231f20;fill-opacity:1;fill-rule:nonzero;stroke:none;font-family:Times;-inkscape-font-specification:Times-Italic">v</tspan>
          </text>
          <text
             id="text17026"
             transform="matrix(1,0,0,-1,3.5519006,5.0898)">
            <tspan
               id="tspan17028"
               sodipodi:role="line"
               y="0"
               x="0 3"
               style="font-size:6px;font-variant:normal;font-weight:normal;writing-mode:lr-tb;fill:#231f20;fill-opacity:1;fill-rule:nonzero;stroke:none;font-family:Times;-inkscape-font-specification:Times-Roman">4</tspan>
          </text>
          <text
             id="text17030"
             transform="matrix(1,0,0,-1,8.0519006,7.0898)">
            <tspan
               id="tspan17032"
               sodipodi:role="line"
               y="0"
               x="0 4.5122442"
               style="font-size:8px;font-variant:normal;font-weight:normal;writing-mode:lr-tb;fill:#231f20;fill-opacity:1;fill-rule:nonzero;stroke:none;font-family:Times;-inkscape-font-specification:Times-Roman">=</tspan>
          </text>
          <text
             id="text17034"
             transform="matrix(1,0,0,-1,14.564011,7.0898)">
            <tspan
               id="tspan17036"
               y="0"
               x="0"
               style="font-size:8px;font-variant:normal;font-weight:normal;writing-mode:lr-tb;fill:#231f20;fill-opacity:1;fill-rule:nonzero;stroke:none;font-family:Symbol;-inkscape-font-specification:Symbol">−</tspan>
          </text>
          <text
             id="text17038"
             transform="matrix(1,0,0,-1,18.956201,7.0898)">
            <tspan
               id="tspan17040"
               sodipodi:role="line"
               y="0"
               x="0 4"
               style="font-size:8px;font-variant:normal;font-weight:normal;writing-mode:lr-tb;fill:#231f20;fill-opacity:1;fill-rule:nonzero;stroke:none;font-family:Times;-inkscape-font-specification:Times-Roman">2V</tspan>
          </text>
          <text
             id="text17042"
             transform="matrix(1,0,0,-1,58.286701,19.5699)">
            <tspan
               id="tspan17044"
               y="0"
               x="0"
               style="font-size:8px;font-style:italic;font-variant:normal;writing-mode:lr-tb;fill:#231f20;fill-opacity:1;fill-rule:nonzero;stroke:none;font-family:Times;-inkscape-font-specification:Times-Italic">R</tspan>
          </text>
          <text
             id="text17046"
             transform="matrix(1,0,0,-1,63.174201,17.5699)">
            <tspan
               id="tspan17048"
               sodipodi:role="line"
               y="0"
               x="0 3"
               style="font-size:6px;font-variant:normal;font-weight:normal;writing-mode:lr-tb;fill:#231f20;fill-opacity:1;fill-rule:nonzero;stroke:none;font-family:Times;-inkscape-font-specification:Times-Roman">4</tspan>
          </text>
          <text
             id="text17050"
             transform="matrix(1,0,0,-1,67.674201,19.5699)">
            <tspan
               id="tspan17052"
               sodipodi:role="line"
               y="0"
               x="0 4.5122442 6.5121102 10.51211 14.51211 16.51211"
               style="font-size:8px;font-variant:normal;font-weight:normal;writing-mode:lr-tb;fill:#231f20;fill-opacity:1;fill-rule:nonzero;stroke:none;font-family:Times;-inkscape-font-specification:Times-Roman">= 40 k</tspan>
          </text>
          <text
             id="text17054"
             transform="matrix(1,0,0,-1,88.186311,19.5699)">
            <tspan
               id="tspan17056"
               y="0"
               x="0"
               style="font-size:8px;font-variant:normal;font-weight:normal;writing-mode:lr-tb;fill:#231f20;fill-opacity:1;fill-rule:nonzero;stroke:none;font-family:Symbol;-inkscape-font-specification:Symbol">Ω</tspan>
          </text>
          <text
             id="text17058"
             transform="matrix(1,0,0,-1,58.286711,49.3961)">
            <tspan
               id="tspan17060"
               y="0"
               x="0"
               style="font-size:8px;font-style:italic;font-variant:normal;writing-mode:lr-tb;fill:#231f20;fill-opacity:1;fill-rule:nonzero;stroke:none;font-family:Times;-inkscape-font-specification:Times-Italic">R</tspan>
          </text>
          <text
             id="text17062"
             transform="matrix(1,0,0,-1,63.174211,47.3961)">
            <tspan
               id="tspan17064"
               sodipodi:role="line"
               y="0"
               x="0 3"
               style="font-size:6px;font-variant:normal;font-weight:normal;writing-mode:lr-tb;fill:#231f20;fill-opacity:1;fill-rule:nonzero;stroke:none;font-family:Times;-inkscape-font-specification:Times-Roman">3</tspan>
          </text>
          <text
             id="text17066"
             transform="matrix(1,0,0,-1,67.674211,49.3961)">
            <tspan
               id="tspan17068"
               sodipodi:role="line"
               y="0"
               x="0 4.5122442 6.5121102 10.51211 14.51211 16.51211"
               style="font-size:8px;font-variant:normal;font-weight:normal;writing-mode:lr-tb;fill:#231f20;fill-opacity:1;fill-rule:nonzero;stroke:none;font-family:Times;-inkscape-font-specification:Times-Roman">= 30 k</tspan>
          </text>
          <text
             id="text17070"
             transform="matrix(1,0,0,-1,88.186321,49.3961)">
            <tspan
               id="tspan17072"
               y="0"
               x="0"
               style="font-size:8px;font-variant:normal;font-weight:normal;writing-mode:lr-tb;fill:#231f20;fill-opacity:1;fill-rule:nonzero;stroke:none;font-family:Symbol;-inkscape-font-specification:Symbol">Ω</tspan>
          </text>
          <text
             id="text17074"
             transform="matrix(1,0,0,-1,243.78632,157.5291)">
            <tspan
               id="tspan17076"
               y="0"
               x="0"
               style="font-size:8px;font-style:italic;font-variant:normal;writing-mode:lr-tb;fill:#231f20;fill-opacity:1;fill-rule:nonzero;stroke:none;font-family:Times;-inkscape-font-specification:Times-Italic">R</tspan>
          </text>
          <text
             id="text17078"
             transform="matrix(1,0,0,-1,248.67421,155.5291)">
            <tspan
               id="tspan17080"
               y="0"
               x="0"
               style="font-size:6px;font-style:italic;font-variant:normal;writing-mode:lr-tb;fill:#231f20;fill-opacity:1;fill-rule:nonzero;stroke:none;font-family:Times;-inkscape-font-specification:Times-Italic">f</tspan>
          </text>
          <text
             id="text17082"
             transform="matrix(1,0,0,-1,253.34257,157.5291)">
            <tspan
               id="tspan17084"
               sodipodi:role="line"
               y="0"
               x="0 4.5117559 6.5117559 10.5117 14.5117 16.5117"
               style="font-size:8px;font-variant:normal;font-weight:normal;writing-mode:lr-tb;fill:#231f20;fill-opacity:1;fill-rule:nonzero;stroke:none;font-family:Times;-inkscape-font-specification:Times-Roman">= 10 k</tspan>
          </text>
          <text
             id="text17086"
             transform="matrix(1,0,0,-1,273.85427,157.5291)">
            <tspan
               id="tspan17088"
               y="0"
               x="0"
               style="font-size:8px;font-variant:normal;font-weight:normal;writing-mode:lr-tb;fill:#231f20;fill-opacity:1;fill-rule:nonzero;stroke:none;font-family:Symbol;-inkscape-font-specification:Symbol">Ω</tspan>
          </text>
        </g>
        <path
           id="path17090"
           style="fill:none;stroke:#231f20;stroke-width:5;stroke-linecap:round;stroke-linejoin:round;stroke-miterlimit:3.86369991;stroke-opacity:1;stroke-dasharray:none"
           d="m 1392.79,391.488 0,573.344 -1056.259,0"
           inkscape:connector-curvature="0" />
        <path
           id="path17092"
           style="fill:none;stroke:#231f20;stroke-width:5;stroke-linecap:round;stroke-linejoin:round;stroke-miterlimit:3.86369991;stroke-opacity:1;stroke-dasharray:none"
           d="m 1740.59,98.5898 0,599.9222"
           inkscape:connector-curvature="0" />
        <path
           id="path17094"
           style="fill:none;stroke:#231f20;stroke-width:8;stroke-linecap:round;stroke-linejoin:round;stroke-miterlimit:3.86369991;stroke-opacity:1;stroke-dasharray:none"
           d="m 1740.33,121.172 0,-64.3009"
           inkscape:connector-curvature="0" />
        <path
           id="path17096"
           style="fill:none;stroke:#231f20;stroke-width:8;stroke-linecap:round;stroke-linejoin:round;stroke-miterlimit:3.86369991;stroke-opacity:1;stroke-dasharray:none"
           d="m 1810.33,56.8711 -140,0"
           inkscape:connector-curvature="0" />
        <path
           id="path17098"
           style="fill:none;stroke:#231f20;stroke-width:8;stroke-linecap:round;stroke-linejoin:round;stroke-miterlimit:3.86369991;stroke-opacity:1;stroke-dasharray:none"
           d="m 1795.33,30.4297 -110,0"
           inkscape:connector-curvature="0" />
        <path
           id="path17100"
           style="fill:none;stroke:#231f20;stroke-width:8;stroke-linecap:round;stroke-linejoin:round;stroke-miterlimit:3.86369991;stroke-opacity:1;stroke-dasharray:none"
           d="m 1780.33,4 -80,0"
           inkscape:connector-curvature="0" />
        <path
           id="path17102"
           style="fill:none;stroke:#231f20;stroke-width:5;stroke-linecap:round;stroke-linejoin:round;stroke-miterlimit:3.86369991;stroke-opacity:1;stroke-dasharray:none"
           d="m 2990.71,830.855 736.32,0"
           inkscape:connector-curvature="0" />
        <path
           id="path17104"
           style="fill:none;stroke:#231f20;stroke-width:5;stroke-linecap:round;stroke-linejoin:round;stroke-miterlimit:3.86369991;stroke-opacity:1;stroke-dasharray:none"
           d="m 1392.79,964.832 -1056.259,0"
           inkscape:connector-curvature="0" />
        <path
           id="path17106"
           style="fill:none;stroke:#231f20;stroke-width:5;stroke-linecap:round;stroke-linejoin:round;stroke-miterlimit:3.86369991;stroke-opacity:1;stroke-dasharray:none"
           d="m 1743.52,696.852 738.26,0"
           inkscape:connector-curvature="0" />
        <path
           id="path17108"
           style="fill:none;stroke:#231f20;stroke-width:5;stroke-linecap:round;stroke-linejoin:round;stroke-miterlimit:3.86369991;stroke-opacity:1;stroke-dasharray:none"
           d="m 2799.42,1478.95 -1057.72,0 0,-525.153"
           inkscape:connector-curvature="0" />
        <path
           id="path17110"
           style="fill:none;stroke:#231f20;stroke-width:5;stroke-linecap:round;stroke-linejoin:round;stroke-miterlimit:3.86369991;stroke-opacity:1;stroke-dasharray:none"
           d="m 3435.34,830.855 0,648.095 -633.79,0"
           inkscape:connector-curvature="0" />
        <g
           transform="scale(10,10)"
           id="g17112">
          <text
             id="text17114"
             transform="matrix(1,0,0,-1,378.803,79.2645)">
            <tspan
               id="tspan17116"
               y="0"
               x="0"
               style="font-size:8px;font-style:italic;font-variant:normal;writing-mode:lr-tb;fill:#231f20;fill-opacity:1;fill-rule:nonzero;stroke:none;font-family:Times;-inkscape-font-specification:Times-Italic">v</tspan>
          </text>
          <text
             id="text17118"
             transform="matrix(1,0,0,-1,382.35378,77.2645)">
            <tspan
               id="tspan17120"
               y="0"
               x="0"
               style="font-size:6px;font-style:italic;font-variant:normal;writing-mode:lr-tb;fill:#231f20;fill-opacity:1;fill-rule:nonzero;stroke:none;font-family:Times;-inkscape-font-specification:Times-Italic">o</tspan>
          </text>
        </g>
        <path
           id="path17122"
           style="fill:#ffffff;fill-opacity:1;fill-rule:nonzero;stroke:none"
           d="m 3755.84,829.508 c 0,-9.207 -7.46,-16.668 -16.67,-16.668 -9.21,0 -16.67,7.461 -16.67,16.668 0,9.211 7.46,16.672 16.67,16.672 9.21,0 16.67,-7.461 16.67,-16.672"
           inkscape:connector-curvature="0" />
        <path
           id="path17124"
           style="fill:none;stroke:#231f20;stroke-width:5;stroke-linecap:butt;stroke-linejoin:miter;stroke-miterlimit:4;stroke-opacity:1;stroke-dasharray:none"
           d="m 3755.84,829.508 c 0,-9.207 -7.46,-16.668 -16.67,-16.668 -9.21,0 -16.67,7.461 -16.67,16.668 0,9.211 7.46,16.672 16.67,16.672 9.21,0 16.67,-7.461 16.67,-16.672 z"
           inkscape:connector-curvature="0" />
        <path
           id="path17126"
           style="fill:#231f20;fill-opacity:1;fill-rule:nonzero;stroke:none"
           d="m 3452.01,830.855 c 0,-9.207 -7.46,-16.667 -16.67,-16.667 -9.21,0 -16.67,7.46 -16.67,16.667 0,9.211 7.46,16.672 16.67,16.672 9.21,0 16.67,-7.461 16.67,-16.672"
           inkscape:connector-curvature="0" />
        <path
           id="path17128"
           style="fill:none;stroke:#231f20;stroke-width:5;stroke-linecap:butt;stroke-linejoin:miter;stroke-miterlimit:4;stroke-opacity:1;stroke-dasharray:none"
           d="m 3452.01,830.855 c 0,-9.207 -7.46,-16.667 -16.67,-16.667 -9.21,0 -16.67,7.46 -16.67,16.667 0,9.211 7.46,16.672 16.67,16.672 9.21,0 16.67,-7.461 16.67,-16.672 z"
           inkscape:connector-curvature="0" />
        <path
           id="path17130"
           style="fill:#ffffff;fill-opacity:1;fill-rule:nonzero;stroke:none"
           d="m 632.367,927.84 324.512,0 0,74.6875 -324.512,0 0,-74.6875 z"
           inkscape:connector-curvature="0" />
        <path
           id="path17132"
           style="fill:none;stroke:#231f20;stroke-width:8;stroke-linecap:round;stroke-linejoin:round;stroke-miterlimit:3.86369991;stroke-opacity:1;stroke-dasharray:none"
           d="m 959.105,964.832 -36.121,0 -15.703,-36.992 -31.496,74.69 -31.953,-74.69 -31.973,74.69 -31.504,-74.69 -31.23,74.69 -31.504,-74.69 -31.973,73.73 -15.293,-36.738 -37.988,0"
           inkscape:connector-curvature="0" />
        <path
           id="path17134"
           style="fill:none;stroke:#231f20;stroke-width:5;stroke-linecap:round;stroke-linejoin:round;stroke-miterlimit:3.86369991;stroke-opacity:1;stroke-dasharray:none"
           d="m 1392.79,678.16 -1056.259,0"
           inkscape:connector-curvature="0" />
        <path
           id="path17136"
           style="fill:#ffffff;fill-opacity:1;fill-rule:nonzero;stroke:none"
           d="m 632.367,641.172 324.512,0 0,74.6836 -324.512,0 0,-74.6836 z"
           inkscape:connector-curvature="0" />
        <path
           id="path17138"
           style="fill:none;stroke:#231f20;stroke-width:8;stroke-linecap:round;stroke-linejoin:round;stroke-miterlimit:3.86369991;stroke-opacity:1;stroke-dasharray:none"
           d="m 959.105,678.16 -36.121,0 -15.703,-36.988 -31.496,74.683 -31.953,-74.683 -31.973,74.683 -31.504,-74.683 -31.23,74.683 -31.504,-74.683 -31.973,73.726 -15.293,-36.738 -37.988,0"
           inkscape:connector-curvature="0" />
        <path
           id="path17140"
           style="fill:none;stroke:#231f20;stroke-width:5;stroke-linecap:round;stroke-linejoin:round;stroke-miterlimit:3.86369991;stroke-opacity:1;stroke-dasharray:none"
           d="m 1392.79,391.488 -1056.259,0"
           inkscape:connector-curvature="0" />
        <path
           id="path17142"
           style="fill:#ffffff;fill-opacity:1;fill-rule:nonzero;stroke:none"
           d="m 2461.93,1441.73 324.531,0 0,74.6875 -324.531,0 0,-74.6875 z"
           inkscape:connector-curvature="0" />
        <path
           id="path17144"
           style="fill:none;stroke:#231f20;stroke-width:8;stroke-linecap:round;stroke-linejoin:round;stroke-miterlimit:3.86369991;stroke-opacity:1;stroke-dasharray:none"
           d="m 2788.68,1478.72 -36.13,0 -15.7,-36.99 -31.49,74.68 -31.95,-74.68 -31.98,74.68 -31.51,-74.68 -31.23,74.68 -31.5,-74.68 -31.98,73.73 -15.29,-36.74 -37.99,0"
           inkscape:connector-curvature="0" />
        <path
           id="path17146"
           style="fill:#ffffff;fill-opacity:1;fill-rule:nonzero;stroke:none"
           d="m 3755.84,139.719 c 0,-9.199 -7.46,-16.68 -16.67,-16.68 -9.21,0 -16.67,7.481 -16.67,16.68 0,9.203 7.46,16.672 16.67,16.672 9.21,0 16.67,-7.469 16.67,-16.672"
           inkscape:connector-curvature="0" />
        <path
           id="path17148"
           style="fill:none;stroke:#231f20;stroke-width:5;stroke-linecap:butt;stroke-linejoin:miter;stroke-miterlimit:4;stroke-opacity:1;stroke-dasharray:none"
           d="m 3755.84,139.719 c 0,-9.199 -7.46,-16.68 -16.67,-16.68 -9.21,0 -16.67,7.481 -16.67,16.68 0,9.203 7.46,16.672 16.67,16.672 9.21,0 16.67,-7.469 16.67,-16.672 z"
           inkscape:connector-curvature="0" />
        <path
           id="path17150"
           style="fill:none;stroke:#231f20;stroke-width:8;stroke-linecap:round;stroke-linejoin:round;stroke-miterlimit:3.86369991;stroke-opacity:1;stroke-dasharray:none"
           d="m 3739.03,121.172 0,-64.3009"
           inkscape:connector-curvature="0" />
        <path
           id="path17152"
           style="fill:none;stroke:#231f20;stroke-width:8;stroke-linecap:round;stroke-linejoin:round;stroke-miterlimit:3.86369991;stroke-opacity:1;stroke-dasharray:none"
           d="m 3809.03,56.8711 -140,0"
           inkscape:connector-curvature="0" />
        <path
           id="path17154"
           style="fill:none;stroke:#231f20;stroke-width:8;stroke-linecap:round;stroke-linejoin:round;stroke-miterlimit:3.86369991;stroke-opacity:1;stroke-dasharray:none"
           d="m 3794.03,30.4297 -110,0"
           inkscape:connector-curvature="0" />
        <path
           id="path17156"
           style="fill:none;stroke:#231f20;stroke-width:8;stroke-linecap:round;stroke-linejoin:round;stroke-miterlimit:3.86369991;stroke-opacity:1;stroke-dasharray:none"
           d="m 3779.03,4 -80,0"
           inkscape:connector-curvature="0" />
        <path
           id="path17158"
           style="fill:none;stroke:#231f20;stroke-width:5;stroke-linecap:round;stroke-linejoin:round;stroke-miterlimit:3.86369991;stroke-opacity:1;stroke-dasharray:none"
           d="m 2993.38,831.012 474.03,0"
           inkscape:connector-curvature="0" />
        <path
           id="path17160"
           style="fill:none;stroke:#231f20;stroke-width:5;stroke-linecap:round;stroke-linejoin:round;stroke-miterlimit:3.86369991;stroke-opacity:1;stroke-dasharray:none"
           d="m 2482.41,1129.48 511.25,-298.625 -511.25,-298.656 0,597.281 z"
           inkscape:connector-curvature="0" />
        <g
           transform="scale(10,10)"
           id="g17162">
          <text
             id="text17164"
             transform="matrix(-1.00001,-2e-5,-1e-5,1,255.413,71.8324)">
            <tspan
               id="tspan17166"
               y="0"
               x="0"
               style="font-size:8.00008011px;font-variant:normal;font-weight:normal;writing-mode:lr-tb;fill:#231f20;fill-opacity:1;fill-rule:nonzero;stroke:none;font-family:Symbol;-inkscape-font-specification:Symbol">+</tspan>
            <tspan
               id="tspan17168"
               y="26.715067"
               x="0"
               style="font-size:8.00008011px;font-variant:normal;font-weight:normal;writing-mode:lr-tb;fill:#231f20;fill-opacity:1;fill-rule:nonzero;stroke:none;font-family:Symbol;-inkscape-font-specification:Symbol">−</tspan>
          </text>
        </g>
        <path
           id="path17170"
           style="fill:#ffffff;fill-opacity:1;fill-rule:nonzero;stroke:none"
           d="m 1760.19,696.852 c 0,-9.2 -7.47,-16.668 -16.67,-16.668 -9.21,0 -16.67,7.468 -16.67,16.668 0,9.199 7.46,16.671 16.67,16.671 9.2,0 16.67,-7.472 16.67,-16.671"
           inkscape:connector-curvature="0" />
        <path
           id="path17172"
           style="fill:none;stroke:#231f20;stroke-width:5;stroke-linecap:butt;stroke-linejoin:miter;stroke-miterlimit:4;stroke-opacity:1;stroke-dasharray:none"
           d="m 1760.19,696.852 c 0,-9.2 -7.47,-16.668 -16.67,-16.668 -9.21,0 -16.67,7.468 -16.67,16.668 0,9.199 7.46,16.671 16.67,16.671 9.2,0 16.67,-7.472 16.67,-16.671 z"
           inkscape:connector-curvature="0" />
        <path
           id="path17174"
           style="fill:none;stroke:#231f20;stroke-width:5;stroke-linecap:round;stroke-linejoin:round;stroke-miterlimit:3.86369991;stroke-opacity:1;stroke-dasharray:none"
           d="m 2482.41,964.832 -1089.62,0"
           inkscape:connector-curvature="0" />
        <path
           id="path17176"
           style="fill:none;stroke:#231f20;stroke-width:5;stroke-linecap:round;stroke-linejoin:round;stroke-miterlimit:3.86369991;stroke-opacity:1;stroke-dasharray:none"
           d="m 1921.83,696.852 560.58,0"
           inkscape:connector-curvature="0" />
        <path
           id="path17178"
           style="fill:#ffffff;fill-opacity:1;fill-rule:nonzero;stroke:none"
           d="m 1759.12,964.832 c 0,-9.199 -7.46,-16.672 -16.68,-16.672 -9.2,0 -16.66,7.473 -16.66,16.672 0,9.199 7.46,16.668 16.66,16.668 9.22,0 16.68,-7.469 16.68,-16.668"
           inkscape:connector-curvature="0" />
        <path
           id="path17180"
           style="fill:none;stroke:#231f20;stroke-width:5;stroke-linecap:butt;stroke-linejoin:miter;stroke-miterlimit:4;stroke-opacity:1;stroke-dasharray:none"
           d="m 1759.12,964.832 c 0,-9.199 -7.46,-16.672 -16.68,-16.672 -9.2,0 -16.66,7.473 -16.66,16.672 0,9.199 7.46,16.668 16.66,16.668 9.22,0 16.68,-7.469 16.68,-16.668 z"
           inkscape:connector-curvature="0" />
        <path
           id="path17182"
           style="fill:#231f20;fill-opacity:1;fill-rule:nonzero;stroke:none"
           d="m 1409.46,964.832 c 0,-9.199 -7.46,-16.672 -16.68,-16.672 -9.2,0 -16.66,7.473 -16.66,16.672 0,9.199 7.46,16.668 16.66,16.668 9.22,0 16.68,-7.469 16.68,-16.668"
           inkscape:connector-curvature="0" />
        <path
           id="path17184"
           style="fill:#231f20;fill-opacity:1;fill-rule:nonzero;stroke:none"
           d="m 1409.46,678.16 c 0,-9.199 -7.46,-16.668 -16.68,-16.668 -9.2,0 -16.66,7.469 -16.66,16.668 0,9.199 7.46,16.672 16.66,16.672 9.22,0 16.68,-7.473 16.68,-16.672"
           inkscape:connector-curvature="0" />
        <path
           id="path17186"
           style="fill:#231f20;fill-opacity:1;fill-rule:nonzero;stroke:none"
           d="m 1409.46,391.488 c 0,-9.199 -7.46,-16.668 -16.68,-16.668 -9.2,0 -16.66,7.469 -16.66,16.668 0,9.203 7.46,16.672 16.66,16.672 9.22,0 16.68,-7.469 16.68,-16.672"
           inkscape:connector-curvature="0" />
        <path
           id="path17188"
           style="fill:#ffffff;fill-opacity:1;fill-rule:nonzero;stroke:none"
           d="m 353.203,964.832 c 0,-9.199 -7.461,-16.672 -16.68,-16.672 -9.199,0 -16.66,7.473 -16.66,16.672 0,9.199 7.461,16.668 16.66,16.668 9.219,0 16.68,-7.469 16.68,-16.668"
           inkscape:connector-curvature="0" />
        <path
           id="path17190"
           style="fill:none;stroke:#231f20;stroke-width:5;stroke-linecap:butt;stroke-linejoin:miter;stroke-miterlimit:4;stroke-opacity:1;stroke-dasharray:none"
           d="m 353.203,964.832 c 0,-9.199 -7.461,-16.672 -16.68,-16.672 -9.199,0 -16.66,7.473 -16.66,16.672 0,9.199 7.461,16.668 16.66,16.668 9.219,0 16.68,-7.469 16.68,-16.668 z"
           inkscape:connector-curvature="0" />
        <path
           id="path17192"
           style="fill:#ffffff;fill-opacity:1;fill-rule:nonzero;stroke:none"
           d="m 353.203,678.16 c 0,-9.199 -7.461,-16.668 -16.68,-16.668 -9.199,0 -16.66,7.469 -16.66,16.668 0,9.199 7.461,16.672 16.66,16.672 9.219,0 16.68,-7.473 16.68,-16.672"
           inkscape:connector-curvature="0" />
        <path
           id="path17194"
           style="fill:none;stroke:#231f20;stroke-width:5;stroke-linecap:butt;stroke-linejoin:miter;stroke-miterlimit:4;stroke-opacity:1;stroke-dasharray:none"
           d="m 353.203,678.16 c 0,-9.199 -7.461,-16.668 -16.68,-16.668 -9.199,0 -16.66,7.469 -16.66,16.668 0,9.199 7.461,16.672 16.66,16.672 9.219,0 16.68,-7.473 16.68,-16.672 z"
           inkscape:connector-curvature="0" />
        <path
           id="path17196"
           style="fill:#ffffff;fill-opacity:1;fill-rule:nonzero;stroke:none"
           d="m 353.203,391.488 c 0,-9.199 -7.461,-16.668 -16.68,-16.668 -9.199,0 -16.66,7.469 -16.66,16.668 0,9.203 7.461,16.672 16.66,16.672 9.219,0 16.68,-7.469 16.68,-16.672"
           inkscape:connector-curvature="0" />
        <path
           id="path17198"
           style="fill:none;stroke:#231f20;stroke-width:5;stroke-linecap:butt;stroke-linejoin:miter;stroke-miterlimit:4;stroke-opacity:1;stroke-dasharray:none"
           d="m 353.203,391.488 c 0,-9.199 -7.461,-16.668 -16.68,-16.668 -9.199,0 -16.66,7.469 -16.66,16.668 0,9.203 7.461,16.672 16.66,16.672 9.219,0 16.68,-7.469 16.68,-16.672 z"
           inkscape:connector-curvature="0" />
        <path
           id="path17200"
           style="fill:#ffffff;fill-opacity:1;fill-rule:nonzero;stroke:none"
           d="m 632.367,354.5 324.512,0 0,74.6914 -324.512,0 0,-74.6914 z"
           inkscape:connector-curvature="0" />
        <path
           id="path17202"
           style="fill:none;stroke:#231f20;stroke-width:8;stroke-linecap:round;stroke-linejoin:round;stroke-miterlimit:3.86369991;stroke-opacity:1;stroke-dasharray:none"
           d="m 959.105,391.488 -36.121,0 -15.703,-36.988 -31.496,74.691 -31.953,-74.691 -31.973,74.691 -31.504,-74.691 -31.23,74.691 -31.504,-74.691 -31.973,73.73 -15.293,-36.742 -37.988,0"
           inkscape:connector-curvature="0" />
        <path
           id="path17204"
           style="fill:none;stroke:#231f20;stroke-width:5;stroke-linecap:round;stroke-linejoin:round;stroke-miterlimit:3.86369991;stroke-opacity:1;stroke-dasharray:none"
           d="m 1392.79,111.281 0,823.551"
           inkscape:connector-curvature="0" />
        <path
           id="path17206"
           style="fill:none;stroke:#231f20;stroke-width:5;stroke-linecap:round;stroke-linejoin:round;stroke-miterlimit:3.86369991;stroke-opacity:1;stroke-dasharray:none"
           d="m 1392.79,111.281 -1056.259,0"
           inkscape:connector-curvature="0" />
        <path
           id="path17208"
           style="fill:#ffffff;fill-opacity:1;fill-rule:nonzero;stroke:none"
           d="m 353.203,111.281 c 0,-9.199 -7.461,-16.6716 -16.68,-16.6716 -9.199,0 -16.66,7.4726 -16.66,16.6716 0,9.199 7.461,16.668 16.66,16.668 9.219,0 16.68,-7.469 16.68,-16.668"
           inkscape:connector-curvature="0" />
        <path
           id="path17210"
           style="fill:none;stroke:#231f20;stroke-width:5;stroke-linecap:butt;stroke-linejoin:miter;stroke-miterlimit:4;stroke-opacity:1;stroke-dasharray:none"
           d="m 353.203,111.281 c 0,-9.199 -7.461,-16.6716 -16.68,-16.6716 -9.199,0 -16.66,7.4726 -16.66,16.6716 0,9.199 7.461,16.668 16.66,16.668 9.219,0 16.68,-7.469 16.68,-16.668 z"
           inkscape:connector-curvature="0" />
        <path
           id="path17212"
           style="fill:#ffffff;fill-opacity:1;fill-rule:nonzero;stroke:none"
           d="m 632.367,74.2813 324.512,0 0,74.6875 -324.512,0 0,-74.6875 z"
           inkscape:connector-curvature="0" />
        <path
           id="path17214"
           style="fill:none;stroke:#231f20;stroke-width:8;stroke-linecap:round;stroke-linejoin:round;stroke-miterlimit:3.86369991;stroke-opacity:1;stroke-dasharray:none"
           d="m 959.105,111.281 -36.121,0 -15.703,-36.9997 -31.496,74.6877 -31.953,-74.6877 -31.973,74.6877 -31.504,-74.6877 -31.23,74.6877 -31.504,-74.6877 -31.973,73.7307 -15.293,-36.731 -37.988,0"
           inkscape:connector-curvature="0" />
      </g>
    </g>
    <path
       inkscape:connector-curvature="0"
       id="path9987"
       style="font-size:10.00030041px;font-variant:normal;font-weight:normal;writing-mode:lr-tb;fill:#231f20;fill-opacity:1;fill-rule:nonzero;stroke:none;font-family:Symbol;-inkscape-font-specification:Symbol"
       d="m 474.53209,913.15518 -0.55002,10e-6 7e-5,2.39005 -2.37009,7e-5 10e-6,0.55001 2.3701,-7e-5 7e-5,2.39005 0.55002,-2e-5 -7e-5,-2.39004 2.3701,-7e-5 -2e-5,-0.55002 -2.37009,7e-5 -8e-5,-2.39004" />
    <path
       inkscape:connector-curvature="0"
       id="path9989"
       style="font-size:10.00030041px;font-variant:normal;font-weight:normal;writing-mode:lr-tb;fill:#231f20;fill-opacity:1;fill-rule:nonzero;stroke:none;font-family:Symbol;-inkscape-font-specification:Symbol"
       d="m 471.62352,988.37458 2e-5,0.55 5.24021,-2e-4 -2e-5,-0.55 -5.24021,2e-4" />
  </g>
</svg>
