<?xml version="1.0" encoding="UTF-8" standalone="no"?>
<!-- Created with Inkscape (http://www.inkscape.org/) -->

<svg
   xmlns:dc="http://purl.org/dc/elements/1.1/"
   xmlns:cc="http://creativecommons.org/ns#"
   xmlns:rdf="http://www.w3.org/1999/02/22-rdf-syntax-ns#"
   xmlns:svg="http://www.w3.org/2000/svg"
   xmlns="http://www.w3.org/2000/svg"
   xmlns:sodipodi="http://sodipodi.sourceforge.net/DTD/sodipodi-0.dtd"
   xmlns:inkscape="http://www.inkscape.org/namespaces/inkscape"
   width="496.06299"
   height="283.46457"
   id="svg2"
   version="1.1"
   inkscape:version="0.48.4 r9939"
   sodipodi:docname="S3-EE-06-IN011.eps">
  <sodipodi:namedview
     id="base"
     pagecolor="#ffffff"
     bordercolor="#666666"
     borderopacity="1.0"
     inkscape:pageopacity="0.0"
     inkscape:pageshadow="2"
     inkscape:zoom="1.7074445"
     inkscape:cx="248.03149"
     inkscape:cy="141.73228"
     inkscape:document-units="cm"
     inkscape:current-layer="layer1"
     showgrid="false"
     units="cm"
     inkscape:object-nodes="true"
     inkscape:window-width="1366"
     inkscape:window-height="744"
     inkscape:window-x="0"
     inkscape:window-y="24"
     inkscape:window-maximized="1"
     showguides="true"
     inkscape:guide-bbox="true">
    <inkscape:grid
       type="xygrid"
       id="grid2985"
       empspacing="5"
       visible="true"
       enabled="true"
       snapvisiblegridlinesonly="true" />
  </sodipodi:namedview>
  <defs
     id="defs4">
    <marker
       style="overflow:visible"
       id="Arrow1Mstart"
       refX="0"
       refY="0"
       orient="auto"
       inkscape:stockid="Arrow1Mstart">
      <path
         transform="matrix(0.4,0,0,0.4,4,0)"
         style="fill-rule:evenodd;stroke:#000000;stroke-width:1pt"
         d="M 0,0 5,-5 -12.5,0 5,5 0,0 z"
         id="path6343"
         inkscape:connector-curvature="0" />
    </marker>
    <marker
       inkscape:stockid="Arrow1Mend"
       orient="auto"
       refY="0"
       refX="0"
       id="Arrow1Mend"
       style="overflow:visible">
      <path
         id="path3949"
         d="M 0,0 5,-5 -12.5,0 5,5 0,0 z"
         style="fill-rule:evenodd;stroke:#000000;stroke-width:1pt"
         transform="matrix(-0.4,0,0,-0.4,-4,0)"
         inkscape:connector-curvature="0" />
    </marker>
    <marker
       inkscape:stockid="Arrow1Mend"
       orient="auto"
       refY="0"
       refX="0"
       id="Arrow1Mend-0"
       style="overflow:visible">
      <path
         id="path3949-9"
         d="M 0,0 5,-5 -12.5,0 5,5 0,0 z"
         style="fill-rule:evenodd;stroke:#000000;stroke-width:1pt"
         transform="matrix(-0.4,0,0,-0.4,-4,0)"
         inkscape:connector-curvature="0" />
    </marker>
    <marker
       inkscape:stockid="Arrow1Mend"
       orient="auto"
       refY="0"
       refX="0"
       id="Arrow1Mend-0-1"
       style="overflow:visible">
      <path
         id="path3949-9-4"
         d="M 0,0 5,-5 -12.5,0 5,5 0,0 z"
         style="fill-rule:evenodd;stroke:#000000;stroke-width:1pt"
         transform="matrix(-0.4,0,0,-0.4,-4,0)"
         inkscape:connector-curvature="0" />
    </marker>
    <marker
       inkscape:stockid="Arrow1Mend"
       orient="auto"
       refY="0"
       refX="0"
       id="Arrow1Mend-8"
       style="overflow:visible">
      <path
         id="path3949-6"
         d="M 0,0 5,-5 -12.5,0 5,5 0,0 z"
         style="fill-rule:evenodd;stroke:#000000;stroke-width:1pt"
         transform="matrix(-0.4,0,0,-0.4,-4,0)"
         inkscape:connector-curvature="0" />
    </marker>
    <marker
       style="overflow:visible"
       id="Arrow1Mstart-6"
       refX="0"
       refY="0"
       orient="auto"
       inkscape:stockid="Arrow1Mstart">
      <path
         transform="matrix(0.4,0,0,0.4,4,0)"
         style="fill-rule:evenodd;stroke:#000000;stroke-width:1pt"
         d="M 0,0 5,-5 -12.5,0 5,5 0,0 z"
         id="path6343-6"
         inkscape:connector-curvature="0" />
    </marker>
  </defs>
  <metadata
     id="metadata7">
    <rdf:RDF>
      <cc:Work
         rdf:about="">
        <dc:format>image/svg+xml</dc:format>
        <dc:type
           rdf:resource="http://purl.org/dc/dcmitype/StillImage" />
        <dc:title></dc:title>
      </cc:Work>
    </rdf:RDF>
  </metadata>
  <g
     inkscape:label="Layer 1"
     inkscape:groupmode="layer"
     id="layer1"
     transform="translate(0,-768.89631)">
    <g
       transform="matrix(1.25,0,0,-1.25,5.6883254,1012.3654)"
       inkscape:label="ink_ext_XXXXXX"
       id="g16503">
      <g
         transform="scale(0.1,0.1)"
         id="g16505">
        <g
           transform="scale(10,10)"
           id="g16507">
          <text
             id="text16509"
             transform="matrix(1,0,0,-1,0,94.2227)">
            <tspan
               id="tspan16511"
               y="0"
               x="0"
               style="font-size:8px;font-style:italic;font-variant:normal;writing-mode:lr-tb;fill:#231f20;fill-opacity:1;fill-rule:nonzero;stroke:none;font-family:Times;-inkscape-font-specification:Times-Italic">v</tspan>
          </text>
          <text
             id="text16513"
             transform="matrix(1,0,0,-1,3.55195,92.2227)">
            <tspan
               id="tspan16515"
               sodipodi:role="line"
               y="0"
               x="0 3"
               style="font-size:6px;font-variant:normal;font-weight:normal;writing-mode:lr-tb;fill:#231f20;fill-opacity:1;fill-rule:nonzero;stroke:none;font-family:Times;-inkscape-font-specification:Times-Roman">1</tspan>
          </text>
          <text
             id="text16517"
             transform="matrix(1,0,0,-1,8.05195,94.2227)">
            <tspan
               id="tspan16519"
               sodipodi:role="line"
               y="0"
               x="0 4.5122442"
               style="font-size:8px;font-variant:normal;font-weight:normal;writing-mode:lr-tb;fill:#231f20;fill-opacity:1;fill-rule:nonzero;stroke:none;font-family:Times;-inkscape-font-specification:Times-Roman">=</tspan>
          </text>
          <text
             id="text16521"
             transform="matrix(1,0,0,-1,14.56406,94.2227)">
            <tspan
               id="tspan16523"
               y="0"
               x="0"
               style="font-size:8px;font-variant:normal;font-weight:normal;writing-mode:lr-tb;fill:#231f20;fill-opacity:1;fill-rule:nonzero;stroke:none;font-family:Symbol;-inkscape-font-specification:Symbol">−</tspan>
          </text>
          <text
             id="text16525"
             transform="matrix(1,0,0,-1,18.95625,94.2227)">
            <tspan
               id="tspan16527"
               sodipodi:role="line"
               y="0"
               x="0 4"
               style="font-size:8px;font-variant:normal;font-weight:normal;writing-mode:lr-tb;fill:#231f20;fill-opacity:1;fill-rule:nonzero;stroke:none;font-family:Times;-inkscape-font-specification:Times-Roman">1V</tspan>
          </text>
          <text
             id="text16529"
             transform="matrix(1,0,0,-1,-5e-5,62.7731)">
            <tspan
               id="tspan16531"
               y="0"
               x="0"
               style="font-size:8px;font-style:italic;font-variant:normal;writing-mode:lr-tb;fill:#231f20;fill-opacity:1;fill-rule:nonzero;stroke:none;font-family:Times;-inkscape-font-specification:Times-Italic">v</tspan>
          </text>
          <text
             id="text16533"
             transform="matrix(1,0,0,-1,3.5519,60.7731)">
            <tspan
               id="tspan16535"
               sodipodi:role="line"
               y="0"
               x="0 3"
               style="font-size:6px;font-variant:normal;font-weight:normal;writing-mode:lr-tb;fill:#231f20;fill-opacity:1;fill-rule:nonzero;stroke:none;font-family:Times;-inkscape-font-specification:Times-Roman">2</tspan>
          </text>
          <text
             id="text16537"
             transform="matrix(1,0,0,-1,8.0519,62.7731)">
            <tspan
               id="tspan16539"
               sodipodi:role="line"
               y="0"
               x="0 4.5122442"
               style="font-size:8px;font-variant:normal;font-weight:normal;writing-mode:lr-tb;fill:#231f20;fill-opacity:1;fill-rule:nonzero;stroke:none;font-family:Times;-inkscape-font-specification:Times-Roman">=</tspan>
          </text>
          <text
             id="text16541"
             transform="matrix(1,0,0,-1,14.56401,62.7731)">
            <tspan
               id="tspan16543"
               y="0"
               x="0"
               style="font-size:8px;font-variant:normal;font-weight:normal;writing-mode:lr-tb;fill:#231f20;fill-opacity:1;fill-rule:nonzero;stroke:none;font-family:Symbol;-inkscape-font-specification:Symbol">−</tspan>
          </text>
          <text
             id="text16545"
             transform="matrix(1,0,0,-1,18.9562,62.7731)">
            <tspan
               id="tspan16547"
               sodipodi:role="line"
               y="0"
               x="0 4"
               style="font-size:8px;font-variant:normal;font-weight:normal;writing-mode:lr-tb;fill:#231f20;fill-opacity:1;fill-rule:nonzero;stroke:none;font-family:Times;-inkscape-font-specification:Times-Roman">2V</tspan>
          </text>
          <text
             id="text16549"
             transform="matrix(1,0,0,-1,-1e-4,35.1512)">
            <tspan
               id="tspan16551"
               y="0"
               x="0"
               style="font-size:8px;font-style:italic;font-variant:normal;writing-mode:lr-tb;fill:#231f20;fill-opacity:1;fill-rule:nonzero;stroke:none;font-family:Times;-inkscape-font-specification:Times-Italic">v</tspan>
          </text>
          <text
             id="text16553"
             transform="matrix(1,0,0,-1,3.55185,33.1512)">
            <tspan
               id="tspan16555"
               sodipodi:role="line"
               y="0"
               x="0 3"
               style="font-size:6px;font-variant:normal;font-weight:normal;writing-mode:lr-tb;fill:#231f20;fill-opacity:1;fill-rule:nonzero;stroke:none;font-family:Times;-inkscape-font-specification:Times-Roman">3</tspan>
          </text>
          <text
             id="text16557"
             transform="matrix(1,0,0,-1,8.05185,35.1512)">
            <tspan
               id="tspan16559"
               sodipodi:role="line"
               y="0"
               x="0 4.5122442"
               style="font-size:8px;font-variant:normal;font-weight:normal;writing-mode:lr-tb;fill:#231f20;fill-opacity:1;fill-rule:nonzero;stroke:none;font-family:Times;-inkscape-font-specification:Times-Roman">=</tspan>
          </text>
          <text
             id="text16561"
             transform="matrix(1,0,0,-1,14.56396,35.1512)">
            <tspan
               id="tspan16563"
               y="0"
               x="0"
               style="font-size:8px;font-variant:normal;font-weight:normal;writing-mode:lr-tb;fill:#231f20;fill-opacity:1;fill-rule:nonzero;stroke:none;font-family:Symbol;-inkscape-font-specification:Symbol">+</tspan>
          </text>
          <text
             id="text16565"
             transform="matrix(1,0,0,-1,18.95615,35.1512)">
            <tspan
               id="tspan16567"
               sodipodi:role="line"
               y="0"
               x="0 4"
               style="font-size:8px;font-variant:normal;font-weight:normal;writing-mode:lr-tb;fill:#231f20;fill-opacity:1;fill-rule:nonzero;stroke:none;font-family:Times;-inkscape-font-specification:Times-Roman">3V</tspan>
          </text>
          <text
             id="text16569"
             transform="matrix(1,0,0,-1,61.70105,105.1762)">
            <tspan
               id="tspan16571"
               y="0"
               x="0"
               style="font-size:8px;font-style:italic;font-variant:normal;writing-mode:lr-tb;fill:#231f20;fill-opacity:1;fill-rule:nonzero;stroke:none;font-family:Times;-inkscape-font-specification:Times-Italic">R</tspan>
          </text>
          <text
             id="text16573"
             transform="matrix(1,0,0,-1,66.58894,103.1762)">
            <tspan
               id="tspan16575"
               sodipodi:role="line"
               y="0"
               x="0 3"
               style="font-size:6px;font-variant:normal;font-weight:normal;writing-mode:lr-tb;fill:#231f20;fill-opacity:1;fill-rule:nonzero;stroke:none;font-family:Times;-inkscape-font-specification:Times-Roman">1</tspan>
          </text>
          <text
             id="text16577"
             transform="matrix(1,0,0,-1,71.08894,105.1762)">
            <tspan
               id="tspan16579"
               sodipodi:role="line"
               y="0"
               x="0 4.5122442 6.5122442 10.5121 14.5121 16.5121"
               style="font-size:8px;font-variant:normal;font-weight:normal;writing-mode:lr-tb;fill:#231f20;fill-opacity:1;fill-rule:nonzero;stroke:none;font-family:Times;-inkscape-font-specification:Times-Roman">= 10 k</tspan>
          </text>
          <text
             id="text16581"
             transform="matrix(1,0,0,-1,91.60104,105.1762)">
            <tspan
               id="tspan16583"
               y="0"
               x="0"
               style="font-size:8px;font-variant:normal;font-weight:normal;writing-mode:lr-tb;fill:#231f20;fill-opacity:1;fill-rule:nonzero;stroke:none;font-family:Symbol;-inkscape-font-specification:Symbol">Ω</tspan>
          </text>
          <text
             id="text16585"
             transform="matrix(1,0,0,-1,61.70104,76.1899)">
            <tspan
               id="tspan16587"
               y="0"
               x="0"
               style="font-size:8px;font-style:italic;font-variant:normal;writing-mode:lr-tb;fill:#231f20;fill-opacity:1;fill-rule:nonzero;stroke:none;font-family:Times;-inkscape-font-specification:Times-Italic">R</tspan>
          </text>
          <text
             id="text16589"
             transform="matrix(1,0,0,-1,66.58893,74.1899)">
            <tspan
               id="tspan16591"
               sodipodi:role="line"
               y="0"
               x="0 3"
               style="font-size:6px;font-variant:normal;font-weight:normal;writing-mode:lr-tb;fill:#231f20;fill-opacity:1;fill-rule:nonzero;stroke:none;font-family:Times;-inkscape-font-specification:Times-Roman">2</tspan>
          </text>
          <text
             id="text16593"
             transform="matrix(1,0,0,-1,71.08893,76.1899)">
            <tspan
               id="tspan16595"
               sodipodi:role="line"
               y="0"
               x="0 4.5122442 6.5121102 10.51211 14.51211 16.51211"
               style="font-size:8px;font-variant:normal;font-weight:normal;writing-mode:lr-tb;fill:#231f20;fill-opacity:1;fill-rule:nonzero;stroke:none;font-family:Times;-inkscape-font-specification:Times-Roman">= 20 k</tspan>
          </text>
          <text
             id="text16597"
             transform="matrix(1,0,0,-1,91.60104,76.1899)">
            <tspan
               id="tspan16599"
               y="0"
               x="0"
               style="font-size:8px;font-variant:normal;font-weight:normal;writing-mode:lr-tb;fill:#231f20;fill-opacity:1;fill-rule:nonzero;stroke:none;font-family:Symbol;-inkscape-font-specification:Symbol">Ω</tspan>
          </text>
          <text
             id="text16601"
             transform="matrix(1,0,0,-1,61.70024,50.4829)">
            <tspan
               id="tspan16603"
               y="0"
               x="0"
               style="font-size:8px;font-style:italic;font-variant:normal;writing-mode:lr-tb;fill:#231f20;fill-opacity:1;fill-rule:nonzero;stroke:none;font-family:Times;-inkscape-font-specification:Times-Italic">R</tspan>
          </text>
          <text
             id="text16605"
             transform="matrix(1,0,0,-1,66.58774,48.4829)">
            <tspan
               id="tspan16607"
               sodipodi:role="line"
               y="0"
               x="0 3"
               style="font-size:6px;font-variant:normal;font-weight:normal;writing-mode:lr-tb;fill:#231f20;fill-opacity:1;fill-rule:nonzero;stroke:none;font-family:Times;-inkscape-font-specification:Times-Roman">3</tspan>
          </text>
          <text
             id="text16609"
             transform="matrix(1,0,0,-1,71.08774,50.4829)">
            <tspan
               id="tspan16611"
               sodipodi:role="line"
               y="0"
               x="0 4.5122442 6.5121102 10.51211 14.51211 16.51211"
               style="font-size:8px;font-variant:normal;font-weight:normal;writing-mode:lr-tb;fill:#231f20;fill-opacity:1;fill-rule:nonzero;stroke:none;font-family:Times;-inkscape-font-specification:Times-Roman">= 30 k</tspan>
          </text>
          <text
             id="text16613"
             transform="matrix(1,0,0,-1,91.59985,50.4829)">
            <tspan
               id="tspan16615"
               y="0"
               x="0"
               style="font-size:8px;font-variant:normal;font-weight:normal;writing-mode:lr-tb;fill:#231f20;fill-opacity:1;fill-rule:nonzero;stroke:none;font-family:Symbol;-inkscape-font-specification:Symbol">Ω</tspan>
          </text>
          <text
             id="text16617"
             transform="matrix(1,0,0,-1,245.75285,157.2909)">
            <tspan
               id="tspan16619"
               y="0"
               x="0"
               style="font-size:8px;font-style:italic;font-variant:normal;writing-mode:lr-tb;fill:#231f20;fill-opacity:1;fill-rule:nonzero;stroke:none;font-family:Times;-inkscape-font-specification:Times-Italic">R</tspan>
          </text>
          <text
             id="text16621"
             transform="matrix(1,0,0,-1,250.64074,155.2909)">
            <tspan
               id="tspan16623"
               y="0"
               x="0"
               style="font-size:6px;font-style:italic;font-variant:normal;writing-mode:lr-tb;fill:#231f20;fill-opacity:1;fill-rule:nonzero;stroke:none;font-family:Times;-inkscape-font-specification:Times-Italic">f</tspan>
          </text>
          <text
             id="text16625"
             transform="matrix(1,0,0,-1,255.30871,157.2909)">
            <tspan
               id="tspan16627"
               sodipodi:role="line"
               y="0"
               x="0 4.5117559 6.5121102 10.51211 14.51211 16.51211"
               style="font-size:8px;font-variant:normal;font-weight:normal;writing-mode:lr-tb;fill:#231f20;fill-opacity:1;fill-rule:nonzero;stroke:none;font-family:Times;-inkscape-font-specification:Times-Roman">= 60 k</tspan>
          </text>
          <text
             id="text16629"
             transform="matrix(1,0,0,-1,275.82082,157.2909)">
            <tspan
               id="tspan16631"
               y="0"
               x="0"
               style="font-size:8px;font-variant:normal;font-weight:normal;writing-mode:lr-tb;fill:#231f20;fill-opacity:1;fill-rule:nonzero;stroke:none;font-family:Symbol;-inkscape-font-specification:Symbol">Ω</tspan>
          </text>
        </g>
        <path
           id="path16633"
           style="fill:none;stroke:#231f20;stroke-width:5;stroke-linecap:round;stroke-linejoin:round;stroke-miterlimit:3.86369991;stroke-opacity:1;stroke-dasharray:none"
           d="m 1416.98,391.488 0,573.344 -1056.257,0"
           inkscape:connector-curvature="0" />
        <path
           id="path16635"
           style="fill:none;stroke:#231f20;stroke-width:5;stroke-linecap:round;stroke-linejoin:round;stroke-miterlimit:3.86369991;stroke-opacity:1;stroke-dasharray:none"
           d="m 1764.78,98.5898 0,599.9262"
           inkscape:connector-curvature="0" />
        <path
           id="path16637"
           style="fill:none;stroke:#231f20;stroke-width:8;stroke-linecap:round;stroke-linejoin:round;stroke-miterlimit:3.86369991;stroke-opacity:1;stroke-dasharray:none"
           d="m 1764.52,121.172 0,-64.3009"
           inkscape:connector-curvature="0" />
        <path
           id="path16639"
           style="fill:none;stroke:#231f20;stroke-width:8;stroke-linecap:round;stroke-linejoin:round;stroke-miterlimit:3.86369991;stroke-opacity:1;stroke-dasharray:none"
           d="m 1834.52,56.8711 -140,0"
           inkscape:connector-curvature="0" />
        <path
           id="path16641"
           style="fill:none;stroke:#231f20;stroke-width:8;stroke-linecap:round;stroke-linejoin:round;stroke-miterlimit:3.86369991;stroke-opacity:1;stroke-dasharray:none"
           d="m 1819.52,30.4297 -110,0"
           inkscape:connector-curvature="0" />
        <path
           id="path16643"
           style="fill:none;stroke:#231f20;stroke-width:8;stroke-linecap:round;stroke-linejoin:round;stroke-miterlimit:3.86369991;stroke-opacity:1;stroke-dasharray:none"
           d="m 1804.52,4 -80,0"
           inkscape:connector-curvature="0" />
        <path
           id="path16645"
           style="fill:none;stroke:#231f20;stroke-width:5;stroke-linecap:round;stroke-linejoin:round;stroke-miterlimit:3.86369991;stroke-opacity:1;stroke-dasharray:none"
           d="m 3014.9,830.859 736.32,0"
           inkscape:connector-curvature="0" />
        <path
           id="path16647"
           style="fill:none;stroke:#231f20;stroke-width:5;stroke-linecap:round;stroke-linejoin:round;stroke-miterlimit:3.86369991;stroke-opacity:1;stroke-dasharray:none"
           d="m 1416.98,964.832 -1056.257,0"
           inkscape:connector-curvature="0" />
        <path
           id="path16649"
           style="fill:none;stroke:#231f20;stroke-width:5;stroke-linecap:round;stroke-linejoin:round;stroke-miterlimit:3.86369991;stroke-opacity:1;stroke-dasharray:none"
           d="m 1767.71,696.855 738.26,0"
           inkscape:connector-curvature="0" />
        <path
           id="path16651"
           style="fill:none;stroke:#231f20;stroke-width:5;stroke-linecap:round;stroke-linejoin:round;stroke-miterlimit:3.86369991;stroke-opacity:1;stroke-dasharray:none"
           d="m 2823.61,1478.95 -1057.72,0 0,-525.153"
           inkscape:connector-curvature="0" />
        <path
           id="path16653"
           style="fill:none;stroke:#231f20;stroke-width:5;stroke-linecap:round;stroke-linejoin:round;stroke-miterlimit:3.86369991;stroke-opacity:1;stroke-dasharray:none"
           d="m 3459.53,830.859 0,648.091 -633.79,0"
           inkscape:connector-curvature="0" />
        <g
           transform="scale(10,10)"
           id="g16655">
          <text
             id="text16657"
             transform="matrix(1,0,0,-1,381.222,79.2645)">
            <tspan
               id="tspan16659"
               y="0"
               x="0"
               style="font-size:8px;font-style:italic;font-variant:normal;writing-mode:lr-tb;fill:#231f20;fill-opacity:1;fill-rule:nonzero;stroke:none;font-family:Times;-inkscape-font-specification:Times-Italic">v</tspan>
          </text>
          <text
             id="text16661"
             transform="matrix(1,0,0,-1,384.77317,77.2645)">
            <tspan
               id="tspan16663"
               y="0"
               x="0"
               style="font-size:6px;font-style:italic;font-variant:normal;writing-mode:lr-tb;fill:#231f20;fill-opacity:1;fill-rule:nonzero;stroke:none;font-family:Times;-inkscape-font-specification:Times-Italic">o</tspan>
          </text>
        </g>
        <path
           id="path16665"
           style="fill:#ffffff;fill-opacity:1;fill-rule:nonzero;stroke:none"
           d="m 3780.03,829.512 c 0,-9.211 -7.46,-16.672 -16.67,-16.672 -9.21,0 -16.67,7.461 -16.67,16.672 0,9.207 7.46,16.668 16.67,16.668 9.21,0 16.67,-7.461 16.67,-16.668"
           inkscape:connector-curvature="0" />
        <path
           id="path16667"
           style="fill:none;stroke:#231f20;stroke-width:5;stroke-linecap:butt;stroke-linejoin:miter;stroke-miterlimit:4;stroke-opacity:1;stroke-dasharray:none"
           d="m 3780.03,829.512 c 0,-9.211 -7.46,-16.672 -16.67,-16.672 -9.21,0 -16.67,7.461 -16.67,16.672 0,9.207 7.46,16.668 16.67,16.668 9.21,0 16.67,-7.461 16.67,-16.668 z"
           inkscape:connector-curvature="0" />
        <path
           id="path16669"
           style="fill:#231f20;fill-opacity:1;fill-rule:nonzero;stroke:none"
           d="m 3476.2,830.859 c 0,-9.211 -7.46,-16.671 -16.67,-16.671 -9.21,0 -16.67,7.46 -16.67,16.671 0,9.207 7.46,16.668 16.67,16.668 9.21,0 16.67,-7.461 16.67,-16.668"
           inkscape:connector-curvature="0" />
        <path
           id="path16671"
           style="fill:none;stroke:#231f20;stroke-width:5;stroke-linecap:butt;stroke-linejoin:miter;stroke-miterlimit:4;stroke-opacity:1;stroke-dasharray:none"
           d="m 3476.2,830.859 c 0,-9.211 -7.46,-16.671 -16.67,-16.671 -9.21,0 -16.67,7.46 -16.67,16.671 0,9.207 7.46,16.668 16.67,16.668 9.21,0 16.67,-7.461 16.67,-16.668 z"
           inkscape:connector-curvature="0" />
        <path
           id="path16673"
           style="fill:#ffffff;fill-opacity:1;fill-rule:nonzero;stroke:none"
           d="m 656.559,927.84 324.512,0 0,74.6875 -324.512,0 0,-74.6875 z"
           inkscape:connector-curvature="0" />
        <path
           id="path16675"
           style="fill:none;stroke:#231f20;stroke-width:8;stroke-linecap:round;stroke-linejoin:round;stroke-miterlimit:3.86369991;stroke-opacity:1;stroke-dasharray:none"
           d="m 983.297,964.832 -36.125,0 -15.703,-36.992 -31.492,74.69 -31.954,-74.69 -31.972,74.69 -31.504,-74.69 -31.231,74.69 -31.503,-74.69 -31.973,73.73 -15.293,-36.738 -37.988,0"
           inkscape:connector-curvature="0" />
        <path
           id="path16677"
           style="fill:none;stroke:#231f20;stroke-width:5;stroke-linecap:round;stroke-linejoin:round;stroke-miterlimit:3.86369991;stroke-opacity:1;stroke-dasharray:none"
           d="m 1416.98,678.164 -1056.257,0"
           inkscape:connector-curvature="0" />
        <path
           id="path16679"
           style="fill:#ffffff;fill-opacity:1;fill-rule:nonzero;stroke:none"
           d="m 656.559,641.172 324.512,0 0,74.6875 -324.512,0 0,-74.6875 z"
           inkscape:connector-curvature="0" />
        <path
           id="path16681"
           style="fill:none;stroke:#231f20;stroke-width:8;stroke-linecap:round;stroke-linejoin:round;stroke-miterlimit:3.86369991;stroke-opacity:1;stroke-dasharray:none"
           d="m 983.297,678.164 -36.125,0 -15.703,-36.992 -31.492,74.687 -31.954,-74.687 -31.972,74.687 -31.504,-74.687 -31.231,74.687 -31.503,-74.687 -31.973,73.73 -15.293,-36.738 -37.988,0"
           inkscape:connector-curvature="0" />
        <path
           id="path16683"
           style="fill:none;stroke:#231f20;stroke-width:5;stroke-linecap:round;stroke-linejoin:round;stroke-miterlimit:3.86369991;stroke-opacity:1;stroke-dasharray:none"
           d="m 1416.98,391.488 -1056.257,0"
           inkscape:connector-curvature="0" />
        <path
           id="path16685"
           style="fill:#ffffff;fill-opacity:1;fill-rule:nonzero;stroke:none"
           d="m 2486.12,1441.73 324.52,0 0,74.6875 -324.52,0 0,-74.6875 z"
           inkscape:connector-curvature="0" />
        <path
           id="path16687"
           style="fill:none;stroke:#231f20;stroke-width:8;stroke-linecap:round;stroke-linejoin:round;stroke-miterlimit:3.86369991;stroke-opacity:1;stroke-dasharray:none"
           d="m 2812.87,1478.72 -36.13,0 -15.7,-36.99 -31.49,74.68 -31.95,-74.68 -31.98,74.68 -31.51,-74.68 -31.23,74.68 -31.5,-74.68 -31.98,73.73 -15.29,-36.74 -37.99,0"
           inkscape:connector-curvature="0" />
        <path
           id="path16689"
           style="fill:#ffffff;fill-opacity:1;fill-rule:nonzero;stroke:none"
           d="m 3780.03,139.73 c 0,-9.199 -7.46,-16.679 -16.67,-16.679 -9.21,0 -16.67,7.48 -16.67,16.679 0,9.2 7.46,16.668 16.67,16.668 9.21,0 16.67,-7.468 16.67,-16.668"
           inkscape:connector-curvature="0" />
        <path
           id="path16691"
           style="fill:none;stroke:#231f20;stroke-width:5;stroke-linecap:butt;stroke-linejoin:miter;stroke-miterlimit:4;stroke-opacity:1;stroke-dasharray:none"
           d="m 3780.03,139.73 c 0,-9.199 -7.46,-16.679 -16.67,-16.679 -9.21,0 -16.67,7.48 -16.67,16.679 0,9.2 7.46,16.668 16.67,16.668 9.21,0 16.67,-7.468 16.67,-16.668 z"
           inkscape:connector-curvature="0" />
        <path
           id="path16693"
           style="fill:none;stroke:#231f20;stroke-width:8;stroke-linecap:round;stroke-linejoin:round;stroke-miterlimit:3.86369991;stroke-opacity:1;stroke-dasharray:none"
           d="m 3763.22,121.172 0,-64.3009"
           inkscape:connector-curvature="0" />
        <path
           id="path16695"
           style="fill:none;stroke:#231f20;stroke-width:8;stroke-linecap:round;stroke-linejoin:round;stroke-miterlimit:3.86369991;stroke-opacity:1;stroke-dasharray:none"
           d="m 3833.22,56.8711 -140,0"
           inkscape:connector-curvature="0" />
        <path
           id="path16697"
           style="fill:none;stroke:#231f20;stroke-width:8;stroke-linecap:round;stroke-linejoin:round;stroke-miterlimit:3.86369991;stroke-opacity:1;stroke-dasharray:none"
           d="m 3818.22,30.4297 -110,0"
           inkscape:connector-curvature="0" />
        <path
           id="path16699"
           style="fill:none;stroke:#231f20;stroke-width:8;stroke-linecap:round;stroke-linejoin:round;stroke-miterlimit:3.86369991;stroke-opacity:1;stroke-dasharray:none"
           d="m 3803.22,4 -80,0"
           inkscape:connector-curvature="0" />
        <path
           id="path16701"
           style="fill:none;stroke:#231f20;stroke-width:5;stroke-linecap:round;stroke-linejoin:round;stroke-miterlimit:3.86369991;stroke-opacity:1;stroke-dasharray:none"
           d="m 3017.57,831.016 474.03,0"
           inkscape:connector-curvature="0" />
        <path
           id="path16703"
           style="fill:none;stroke:#231f20;stroke-width:5;stroke-linecap:round;stroke-linejoin:round;stroke-miterlimit:3.86369991;stroke-opacity:1;stroke-dasharray:none"
           d="m 2506.6,1129.48 511.25,-298.621 -511.25,-298.648 0,597.269 z"
           inkscape:connector-curvature="0" />
        <g
           transform="scale(10,10)"
           id="g16705">
          <text
             id="text16707"
             transform="matrix(-1.00001,-2e-5,-1e-5,1,257.832,71.8316)">
            <tspan
               id="tspan16709"
               y="0"
               x="0"
               style="font-size:8.00008011px;font-variant:normal;font-weight:normal;writing-mode:lr-tb;fill:#231f20;fill-opacity:1;fill-rule:nonzero;stroke:none;font-family:Symbol;-inkscape-font-specification:Symbol">+</tspan>
            <tspan
               id="tspan16711"
               y="26.715067"
               x="0"
               style="font-size:8.00008011px;font-variant:normal;font-weight:normal;writing-mode:lr-tb;fill:#231f20;fill-opacity:1;fill-rule:nonzero;stroke:none;font-family:Symbol;-inkscape-font-specification:Symbol">−</tspan>
          </text>
        </g>
        <path
           id="path16713"
           style="fill:#ffffff;fill-opacity:1;fill-rule:nonzero;stroke:none"
           d="m 1784.38,696.855 c 0,-9.199 -7.47,-16.671 -16.67,-16.671 -9.21,0 -16.67,7.472 -16.67,16.671 0,9.2 7.46,16.668 16.67,16.668 9.2,0 16.67,-7.468 16.67,-16.668"
           inkscape:connector-curvature="0" />
        <path
           id="path16715"
           style="fill:none;stroke:#231f20;stroke-width:5;stroke-linecap:butt;stroke-linejoin:miter;stroke-miterlimit:4;stroke-opacity:1;stroke-dasharray:none"
           d="m 1784.38,696.855 c 0,-9.199 -7.47,-16.671 -16.67,-16.671 -9.21,0 -16.67,7.472 -16.67,16.671 0,9.2 7.46,16.668 16.67,16.668 9.2,0 16.67,-7.468 16.67,-16.668 z"
           inkscape:connector-curvature="0" />
        <path
           id="path16717"
           style="fill:none;stroke:#231f20;stroke-width:5;stroke-linecap:round;stroke-linejoin:round;stroke-miterlimit:3.86369991;stroke-opacity:1;stroke-dasharray:none"
           d="m 2506.6,964.832 -1089.62,0"
           inkscape:connector-curvature="0" />
        <path
           id="path16719"
           style="fill:none;stroke:#231f20;stroke-width:5;stroke-linecap:round;stroke-linejoin:round;stroke-miterlimit:3.86369991;stroke-opacity:1;stroke-dasharray:none"
           d="m 1946.02,696.855 560.58,0"
           inkscape:connector-curvature="0" />
        <path
           id="path16721"
           style="fill:#ffffff;fill-opacity:1;fill-rule:nonzero;stroke:none"
           d="m 1783.31,964.832 c 0,-9.199 -7.46,-16.668 -16.68,-16.668 -9.2,0 -16.66,7.469 -16.66,16.668 0,9.199 7.46,16.672 16.66,16.672 9.22,0 16.68,-7.473 16.68,-16.672"
           inkscape:connector-curvature="0" />
        <path
           id="path16723"
           style="fill:none;stroke:#231f20;stroke-width:5;stroke-linecap:butt;stroke-linejoin:miter;stroke-miterlimit:4;stroke-opacity:1;stroke-dasharray:none"
           d="m 1783.31,964.832 c 0,-9.199 -7.46,-16.668 -16.68,-16.668 -9.2,0 -16.66,7.469 -16.66,16.668 0,9.199 7.46,16.672 16.66,16.672 9.22,0 16.68,-7.473 16.68,-16.672 z"
           inkscape:connector-curvature="0" />
        <path
           id="path16725"
           style="fill:#231f20;fill-opacity:1;fill-rule:nonzero;stroke:none"
           d="m 1433.65,964.832 c 0,-9.199 -7.46,-16.668 -16.68,-16.668 -9.2,0 -16.66,7.469 -16.66,16.668 0,9.199 7.46,16.672 16.66,16.672 9.22,0 16.68,-7.473 16.68,-16.672"
           inkscape:connector-curvature="0" />
        <path
           id="path16727"
           style="fill:#231f20;fill-opacity:1;fill-rule:nonzero;stroke:none"
           d="m 1433.65,678.164 c 0,-9.199 -7.46,-16.672 -16.68,-16.672 -9.2,0 -16.66,7.473 -16.66,16.672 0,9.199 7.46,16.668 16.66,16.668 9.22,0 16.68,-7.469 16.68,-16.668"
           inkscape:connector-curvature="0" />
        <path
           id="path16729"
           style="fill:#ffffff;fill-opacity:1;fill-rule:nonzero;stroke:none"
           d="m 377.395,964.832 c 0,-9.199 -7.461,-16.668 -16.68,-16.668 -9.199,0 -16.66,7.469 -16.66,16.668 0,9.199 7.461,16.672 16.66,16.672 9.219,0 16.68,-7.473 16.68,-16.672"
           inkscape:connector-curvature="0" />
        <path
           id="path16731"
           style="fill:none;stroke:#231f20;stroke-width:5;stroke-linecap:butt;stroke-linejoin:miter;stroke-miterlimit:4;stroke-opacity:1;stroke-dasharray:none"
           d="m 377.395,964.832 c 0,-9.199 -7.461,-16.668 -16.68,-16.668 -9.199,0 -16.66,7.469 -16.66,16.668 0,9.199 7.461,16.672 16.66,16.672 9.219,0 16.68,-7.473 16.68,-16.672 z"
           inkscape:connector-curvature="0" />
        <path
           id="path16733"
           style="fill:#ffffff;fill-opacity:1;fill-rule:nonzero;stroke:none"
           d="m 377.395,678.164 c 0,-9.199 -7.461,-16.672 -16.68,-16.672 -9.199,0 -16.66,7.473 -16.66,16.672 0,9.199 7.461,16.668 16.66,16.668 9.219,0 16.68,-7.469 16.68,-16.668"
           inkscape:connector-curvature="0" />
        <path
           id="path16735"
           style="fill:none;stroke:#231f20;stroke-width:5;stroke-linecap:butt;stroke-linejoin:miter;stroke-miterlimit:4;stroke-opacity:1;stroke-dasharray:none"
           d="m 377.395,678.164 c 0,-9.199 -7.461,-16.672 -16.68,-16.672 -9.199,0 -16.66,7.473 -16.66,16.672 0,9.199 7.461,16.668 16.66,16.668 9.219,0 16.68,-7.469 16.68,-16.668 z"
           inkscape:connector-curvature="0" />
        <path
           id="path16737"
           style="fill:#ffffff;fill-opacity:1;fill-rule:nonzero;stroke:none"
           d="m 377.395,391.488 c 0,-9.199 -7.461,-16.668 -16.68,-16.668 -9.199,0 -16.66,7.469 -16.66,16.668 0,9.203 7.461,16.672 16.66,16.672 9.219,0 16.68,-7.469 16.68,-16.672"
           inkscape:connector-curvature="0" />
        <path
           id="path16739"
           style="fill:none;stroke:#231f20;stroke-width:5;stroke-linecap:butt;stroke-linejoin:miter;stroke-miterlimit:4;stroke-opacity:1;stroke-dasharray:none"
           d="m 377.395,391.488 c 0,-9.199 -7.461,-16.668 -16.68,-16.668 -9.199,0 -16.66,7.469 -16.66,16.668 0,9.203 7.461,16.672 16.66,16.672 9.219,0 16.68,-7.469 16.68,-16.672 z"
           inkscape:connector-curvature="0" />
        <path
           id="path16741"
           style="fill:#ffffff;fill-opacity:1;fill-rule:nonzero;stroke:none"
           d="m 656.559,355.07 324.512,0 0,74.6914 -324.512,0 0,-74.6914 z"
           inkscape:connector-curvature="0" />
        <path
           id="path16743"
           style="fill:none;stroke:#231f20;stroke-width:8;stroke-linecap:round;stroke-linejoin:round;stroke-miterlimit:3.86369991;stroke-opacity:1;stroke-dasharray:none"
           d="m 983.297,392.059 -36.125,0 -15.703,-36.989 -31.492,74.692 -31.954,-74.692 -31.972,74.692 -31.504,-74.692 -31.231,74.692 -31.503,-74.692 -31.973,73.731 -15.293,-36.742 -37.988,0"
           inkscape:connector-curvature="0" />
      </g>
    </g>
    <path
       inkscape:connector-curvature="0"
       id="path9987"
       style="font-size:10.00030041px;font-variant:normal;font-weight:normal;writing-mode:lr-tb;fill:#231f20;fill-opacity:1;fill-rule:nonzero;stroke:none;font-family:Symbol;-inkscape-font-specification:Symbol"
       d="m 476.25358,913.49827 -0.55002,10e-6 7e-5,2.39005 -2.37009,7e-5 10e-6,0.55001 2.3701,-7e-5 7e-5,2.39005 0.55002,-2e-5 -7e-5,-2.39004 2.3701,-7e-5 -2e-5,-0.55002 -2.37009,7e-5 -8e-5,-2.39004" />
    <path
       inkscape:connector-curvature="0"
       id="path9989"
       style="font-size:10.00030041px;font-variant:normal;font-weight:normal;writing-mode:lr-tb;fill:#231f20;fill-opacity:1;fill-rule:nonzero;stroke:none;font-family:Symbol;-inkscape-font-specification:Symbol"
       d="m 473.34501,988.71758 2e-5,0.5501 5.24021,-2e-4 -2e-5,-0.55 -5.24021,10e-5" />
  </g>
</svg>
