<?xml version="1.0" encoding="UTF-8" standalone="no"?>
<!-- Created with Inkscape (http://www.inkscape.org/) -->

<svg
   xmlns:ns0="http://www.iki.fi/pav/software/textext/"
   xmlns:dc="http://purl.org/dc/elements/1.1/"
   xmlns:cc="http://creativecommons.org/ns#"
   xmlns:rdf="http://www.w3.org/1999/02/22-rdf-syntax-ns#"
   xmlns:svg="http://www.w3.org/2000/svg"
   xmlns="http://www.w3.org/2000/svg"
   xmlns:sodipodi="http://sodipodi.sourceforge.net/DTD/sodipodi-0.dtd"
   xmlns:inkscape="http://www.inkscape.org/namespaces/inkscape"
   width="460.62991"
   height="283.46457"
   id="svg2"
   version="1.1"
   inkscape:version="0.48.4 r9939"
   sodipodi:docname="sol4.25b.eps">
  <sodipodi:namedview
     id="base"
     pagecolor="#ffffff"
     bordercolor="#666666"
     borderopacity="1.0"
     inkscape:pageopacity="0.0"
     inkscape:pageshadow="2"
     inkscape:zoom="2.4725146"
     inkscape:cx="210.46963"
     inkscape:cy="126.36286"
     inkscape:document-units="cm"
     inkscape:current-layer="layer1"
     showgrid="false"
     units="cm"
     inkscape:object-nodes="true"
     inkscape:window-width="1366"
     inkscape:window-height="744"
     inkscape:window-x="0"
     inkscape:window-y="24"
     inkscape:window-maximized="1"
     showguides="true"
     inkscape:guide-bbox="true">
    <inkscape:grid
       type="xygrid"
       id="grid2985"
       empspacing="5"
       visible="true"
       enabled="true"
       snapvisiblegridlinesonly="true" />
  </sodipodi:namedview>
  <defs
     id="defs4">
    <marker
       style="overflow:visible"
       id="Arrow1Mstart"
       refX="0"
       refY="0"
       orient="auto"
       inkscape:stockid="Arrow1Mstart">
      <path
         transform="matrix(0.4,0,0,0.4,4,0)"
         style="fill-rule:evenodd;stroke:#000000;stroke-width:1pt"
         d="M 0,0 5,-5 -12.5,0 5,5 0,0 z"
         id="path6343"
         inkscape:connector-curvature="0" />
    </marker>
    <marker
       inkscape:stockid="Arrow1Mend"
       orient="auto"
       refY="0"
       refX="0"
       id="Arrow1Mend"
       style="overflow:visible">
      <path
         id="path3949"
         d="M 0,0 5,-5 -12.5,0 5,5 0,0 z"
         style="fill-rule:evenodd;stroke:#000000;stroke-width:1pt"
         transform="matrix(-0.4,0,0,-0.4,-4,0)"
         inkscape:connector-curvature="0" />
    </marker>
    <marker
       inkscape:stockid="Arrow1Mend"
       orient="auto"
       refY="0"
       refX="0"
       id="Arrow1Mend-0"
       style="overflow:visible">
      <path
         id="path3949-9"
         d="M 0,0 5,-5 -12.5,0 5,5 0,0 z"
         style="fill-rule:evenodd;stroke:#000000;stroke-width:1pt"
         transform="matrix(-0.4,0,0,-0.4,-4,0)"
         inkscape:connector-curvature="0" />
    </marker>
    <marker
       inkscape:stockid="Arrow1Mend"
       orient="auto"
       refY="0"
       refX="0"
       id="Arrow1Mend-0-1"
       style="overflow:visible">
      <path
         id="path3949-9-4"
         d="M 0,0 5,-5 -12.5,0 5,5 0,0 z"
         style="fill-rule:evenodd;stroke:#000000;stroke-width:1pt"
         transform="matrix(-0.4,0,0,-0.4,-4,0)"
         inkscape:connector-curvature="0" />
    </marker>
    <marker
       inkscape:stockid="Arrow1Mend"
       orient="auto"
       refY="0"
       refX="0"
       id="Arrow1Mend-8"
       style="overflow:visible">
      <path
         id="path3949-6"
         d="M 0,0 5,-5 -12.5,0 5,5 0,0 z"
         style="fill-rule:evenodd;stroke:#000000;stroke-width:1pt"
         transform="matrix(-0.4,0,0,-0.4,-4,0)"
         inkscape:connector-curvature="0" />
    </marker>
    <marker
       style="overflow:visible"
       id="Arrow1Mstart-6"
       refX="0"
       refY="0"
       orient="auto"
       inkscape:stockid="Arrow1Mstart">
      <path
         transform="matrix(0.4,0,0,0.4,4,0)"
         style="fill-rule:evenodd;stroke:#000000;stroke-width:1pt"
         d="M 0,0 5,-5 -12.5,0 5,5 0,0 z"
         id="path6343-6"
         inkscape:connector-curvature="0" />
    </marker>
  </defs>
  <metadata
     id="metadata7">
    <rdf:RDF>
      <cc:Work
         rdf:about="">
        <dc:format>image/svg+xml</dc:format>
        <dc:type
           rdf:resource="http://purl.org/dc/dcmitype/StillImage" />
        <dc:title></dc:title>
      </cc:Work>
    </rdf:RDF>
  </metadata>
  <g
     inkscape:label="Layer 1"
     inkscape:groupmode="layer"
     id="layer1"
     transform="translate(0,-768.89631)">
    <text
       xml:space="preserve"
       style="font-size:12px;font-style:normal;font-variant:normal;font-weight:normal;font-stretch:normal;text-align:center;line-height:125%;letter-spacing:0px;word-spacing:0px;text-anchor:middle;fill:#000000;fill-opacity:1;stroke:none;font-family:LMRoman12;-inkscape-font-specification:LMRoman12"
       x="113.46947"
       y="928.43805"
       id="text23323"
       sodipodi:linespacing="125%"><tspan
         sodipodi:role="line"
         id="tspan23325"
         x="113.46947"
         y="928.43805">0</tspan></text>
    <path
       transform="translate(0,768.89631)"
       inkscape:connector-curvature="0"
       id="path23451"
       d="m 120,153.46457 155,0"
       style="fill:none;stroke:#000000;stroke-width:1px;stroke-linecap:butt;stroke-linejoin:miter;stroke-opacity:1;marker-end:url(#Arrow1Mend-8)" />
    <path
       style="fill:none;stroke:#000000;stroke-width:1px;stroke-linecap:butt;stroke-linejoin:miter;stroke-opacity:1;marker-end:url(#Arrow1Mend-8)"
       d="m 120,977.36088 0,-105"
       id="path23645"
       inkscape:connector-curvature="0" />
    <path
       inkscape:connector-curvature="0"
       id="path23647"
       d="m 120,922.36088 130.39998,34.94057"
       style="fill:none;stroke:#000000;stroke-width:1px;stroke-linecap:butt;stroke-linejoin:miter;stroke-opacity:1" />
    <g
       id="content-4"
       transform="matrix(1,0,0,-1,-114.01829,1578.6121)"
       xml:space="preserve"
       stroke-miterlimit="10.433"
       font-style="normal"
       font-variant="normal"
       font-weight="normal"
       font-stretch="normal"
       font-size-adjust="none"
       letter-spacing="normal"
       word-spacing="normal"
       ns0:text="$v_0$"
       ns0:preamble="/home/sriranga/Desktop/Basic-Electronics-Figures/package.tex"
       style="font-style:normal;font-variant:normal;font-weight:normal;font-stretch:normal;letter-spacing:normal;word-spacing:normal;text-anchor:start;fill:none;stroke:#000000;stroke-linecap:butt;stroke-linejoin:miter;stroke-miterlimit:10.43299961;stroke-opacity:1;stroke-dasharray:none;stroke-dashoffset:0"><path
         d="m 223.64,711.13 0.02,0 0.02,0 0.02,0 0.02,0 0.02,0 0.01,0.01 0.02,0 0.02,0 0.04,0 0.01,0 0.02,0 0.02,0 0.02,0 0.02,0 0.02,0 c 0.39,0 0.49,-0.17 0.63,-1.09 0.1,-0.68 0.22,-2.18 0.22,-2.76 0,-0.27 0.01,-0.34 0.09,-0.34 0.24,0 1.17,1.05 2.18,2.46 0.35,0.5 0.61,1.14 0.61,1.51 0,0.32 -0.26,0.59 -0.56,0.59 -0.22,0 -0.37,-0.13 -0.37,-0.34 0,-0.16 0.06,-0.28 0.24,-0.44 0.13,-0.12 0.18,-0.2 0.18,-0.3 0,-0.45 -0.65,-1.56 -1.36,-2.29 l -0.31,-0.32 c -0.07,1.4 -0.13,1.92 -0.26,2.65 -0.2,1.02 -0.2,1.04 -0.29,1.04 -0.04,0 -0.12,-0.01 -0.2,-0.04 -0.17,-0.05 -0.72,-0.15 -1.1,-0.21 z"
         id="path4455"
         inkscape:connector-curvature="0"
         style="fill:#000000;stroke-width:0" /><path
         d="m 229.62,710.33 -0.03,0 -0.04,0 -0.03,0 -0.03,0 -0.04,-0.01 -0.03,0 -0.03,-0.01 -0.04,0 -0.03,-0.01 -0.03,0 -0.03,-0.01 -0.03,-0.01 -0.03,-0.01 -0.03,-0.01 -0.03,-0.01 -0.03,-0.01 -0.03,-0.01 -0.03,-0.01 -0.02,-0.01 -0.03,-0.02 -0.03,-0.01 -0.02,-0.02 -0.03,-0.01 -0.03,-0.02 -0.02,-0.02 -0.03,-0.02 -0.02,-0.02 -0.03,-0.01 -0.02,-0.02 -0.03,-0.03 -0.02,-0.02 -0.03,-0.02 c -0.4,-0.39 -0.67,-1.19 -0.67,-2 0,-0.76 0.23,-1.57 0.56,-1.96 0.26,-0.31 0.61,-0.48 1.02,-0.48 v 0.18 c -0.6,0 -0.91,0.75 -0.91,2.2 0,1.47 0.32,2.24 0.91,2.24 h 0 c 0.59,0 0.9,-0.79 0.9,-2.24 0,-1.45 -0.3,-2.2 -0.9,-2.2 v -0.18 c 0.35,0 0.65,0.12 0.9,0.37 0.41,0.38 0.67,1.18 0.67,2.03 0,1.42 -0.63,2.4 -1.55,2.4 z"
         id="path4457"
         inkscape:connector-curvature="0"
         style="fill:#000000;stroke-width:0" /></g>    <g
       id="g23782"
       transform="matrix(1,0,0,-1,54.524827,1631.9)"
       xml:space="preserve"
       stroke-miterlimit="10.433"
       font-style="normal"
       font-variant="normal"
       font-weight="normal"
       font-stretch="normal"
       font-size-adjust="none"
       letter-spacing="normal"
       word-spacing="normal"
       ns0:text="$t$"
       ns0:preamble="/home/sriranga/Desktop/Basic-Electronics-Figures/package.tex"
       style="font-style:normal;font-variant:normal;font-weight:normal;font-stretch:normal;letter-spacing:normal;word-spacing:normal;text-anchor:start;fill:none;stroke:#000000;stroke-linecap:butt;stroke-linejoin:miter;stroke-miterlimit:10.43299961;stroke-opacity:1;stroke-dasharray:none;stroke-dashoffset:0"><path
         style="fill:#000000;stroke-width:0"
         inkscape:connector-curvature="0"
         d="m 226.38,711.38 h -0.8 l 0.28,1.02 c 0.01,0.02 0.01,0.04 0.01,0.05 0,0.07 -0.03,0.1 -0.08,0.1 -0.06,0 -0.09,-0.01 -0.15,-0.09 -0.39,-0.51 -1,-1 -1.32,-1.09 -0.25,-0.08 -0.32,-0.14 -0.32,-0.25 0,-0.01 0,-0.03 0.01,-0.06 h 0.73 l -0.71,-2.73 c -0.02,-0.09 -0.03,-0.12 -0.06,-0.21 -0.09,-0.3 -0.17,-0.65 -0.17,-0.73 0,-0.22 0.21,-0.37 0.48,-0.37 0.46,0 0.78,0.27 1.41,1.2 l -0.13,0.07 c -0.49,-0.63 -0.65,-0.79 -0.8,-0.79 -0.09,0 -0.15,0.08 -0.15,0.2 0,0.01 0,0.02 0.01,0.05 l 0.87,3.31 h 0.84 z"
         id="path23784" /></g>    <g
       style="font-style:normal;font-variant:normal;font-weight:normal;font-stretch:normal;letter-spacing:normal;word-spacing:normal;text-anchor:start;fill:none;stroke:#000000;stroke-linecap:butt;stroke-linejoin:miter;stroke-miterlimit:10.43299961;stroke-opacity:1;stroke-dasharray:none;stroke-dashoffset:0"
       ns0:preamble="/home/sriranga/Desktop/Basic-Electronics-Figures/package.tex"
       ns0:text="slope $=-10$"
       word-spacing="normal"
       letter-spacing="normal"
       font-size-adjust="none"
       font-stretch="normal"
       font-weight="normal"
       font-variant="normal"
       font-style="normal"
       stroke-miterlimit="10.433"
       xml:space="preserve"
       transform="matrix(0.96592583,0.25881905,0.25881905,-0.96592583,-213.72863,1577.0945)"
       id="content"><path
         id="path23908"
         d="m 226.57,710.24 -0.04,1.35 h -0.11 l -0.02,-0.01 c -0.09,-0.07 -0.1,-0.08 -0.14,-0.08 -0.06,0 -0.16,0.02 -0.27,0.07 -0.22,0.08 -0.44,0.11 -0.7,0.11 -0.78,0 -1.35,-0.5 -1.35,-1.22 0,-0.55 0.32,-0.95 1.16,-1.43 l 0.58,-0.33 c 0.35,-0.19 0.52,-0.43 0.52,-0.74 0,-0.44 -0.32,-0.72 -0.83,-0.72 -0.34,0 -0.64,0.13 -0.83,0.35 -0.21,0.25 -0.3,0.48 -0.43,1.05 h -0.16 v -1.55 h 0.13 c 0.07,0.09 0.11,0.11 0.23,0.11 0.09,0 0.23,-0.02 0.45,-0.08 0.28,-0.05 0.55,-0.09 0.73,-0.09 0.77,0 1.4,0.57 1.4,1.27 0,0.49 -0.23,0.82 -0.83,1.18 l -1.08,0.63 c -0.27,0.16 -0.42,0.41 -0.42,0.68 0,0.4 0.31,0.68 0.76,0.68 0.57,0 0.87,-0.34 1.1,-1.23 z"
         inkscape:connector-curvature="0"
         style="fill:#000000;stroke-width:0" /><path
         id="path23910"
         d="m 227.5,713.31 h 0.06 c 0.11,0.01 0.23,0.02 0.31,0.02 0.31,0 0.41,-0.13 0.41,-0.6 v -4.74 c 0,-0.54 -0.14,-0.67 -0.76,-0.72 v -0.15 h 2.34 v 0.15 c -0.62,0.04 -0.74,0.14 -0.74,0.69 v 5.93 l -0.04,0.02 c -0.52,-0.17 -0.9,-0.27 -1.58,-0.44 z"
         inkscape:connector-curvature="0"
         style="fill:#000000;stroke-width:0" /><path
         id="path23912"
         d="m 232.56,711.7 -0.12,-0.01 -0.11,-0.01 -0.12,-0.01 -0.11,-0.02 -0.11,-0.02 -0.11,-0.03 -0.1,-0.04 -0.1,-0.04 -0.1,-0.04 -0.1,-0.05 -0.09,-0.05 -0.09,-0.06 -0.09,-0.06 -0.08,-0.07 -0.08,-0.07 -0.07,-0.07 -0.07,-0.08 -0.07,-0.08 -0.06,-0.09 -0.06,-0.09 -0.05,-0.1 -0.05,-0.09 -0.05,-0.1 -0.04,-0.11 -0.04,-0.11 -0.03,-0.11 -0.03,-0.11 -0.02,-0.12 -0.02,-0.12 -0.01,-0.12 -0.01,-0.12 0,-0.13 c 0,-1.34 0.92,-2.34 2.17,-2.34 l 0.12,0.27 c -0.38,0 -0.75,0.24 -0.96,0.64 -0.28,0.52 -0.44,1.21 -0.44,1.92 0,0.94 0.47,1.56 1.17,1.56 h 0 c 0.84,0 1.43,-0.96 1.43,-2.32 0,-1.12 -0.45,-1.8 -1.2,-1.8 l -0.12,-0.27 c 1.26,0 2.21,1.05 2.21,2.42 0,1.3 -0.91,2.25 -2.19,2.25 z"
         inkscape:connector-curvature="0"
         style="fill:#000000;stroke-width:0" /><path
         id="path23914"
         d="m 235.15,711.03 0.01,0 0.02,0 0.02,0 0.01,0 0.02,0.01 0.01,0 0.03,0 0.03,0 0.02,0 0.01,0 0.02,0 0.01,0 0.02,0 0.02,0 c 0.34,0 0.4,-0.1 0.4,-0.57 v -4.65 c 0,-0.51 -0.1,-0.62 -0.69,-0.68 v -0.17 h 2.41 v 0.18 c -0.75,0.01 -0.88,0.12 -0.88,0.74 v 1.56 c 0.35,-0.33 0.59,-0.42 1.01,-0.42 l 0.03,0.31 c -0.47,0 -1.04,0.36 -1.04,0.66 v 2.44 c 0,0.3 0.56,0.66 1.01,0.66 0.74,0 1.23,-0.76 1.23,-1.91 0,-1.1 -0.49,-1.85 -1.2,-1.85 l -0.03,-0.31 c 1.17,0 2.08,1.11 2.08,2.55 0,1.23 -0.69,2.12 -1.66,2.12 -0.55,0 -0.99,-0.25 -1.43,-0.79 v 0.76 l -0.06,0.03 c -0.54,-0.21 -0.88,-0.34 -1.43,-0.51 z"
         inkscape:connector-curvature="0"
         style="fill:#000000;stroke-width:0" /><path
         id="path23916"
         d="m 244.1,708.75 -0.05,-0.07 -0.04,-0.06 -0.04,-0.07 -0.05,-0.06 -0.04,-0.06 -0.05,-0.05 -0.04,-0.06 -0.04,-0.05 -0.05,-0.05 -0.04,-0.04 -0.05,-0.05 -0.04,-0.04 -0.05,-0.04 -0.04,-0.03 -0.05,-0.04 -0.04,-0.03 -0.05,-0.03 -0.05,-0.03 -0.04,-0.02 -0.05,-0.03 -0.05,-0.02 -0.05,-0.02 -0.05,-0.02 -0.05,-0.01 -0.05,-0.02 -0.06,-0.01 -0.05,-0.01 -0.05,-0.01 -0.06,0 -0.06,-0.01 -0.05,0 -0.06,0 c -0.57,0 -1,0.29 -1.29,0.86 -0.18,0.37 -0.25,0.7 -0.26,1.31 l 0.01,0.32 c 0.11,0.77 0.45,1.14 1.06,1.14 0.61,0 0.85,-0.28 0.97,-1.14 h -2.03 l -0.01,-0.32 h 3.06 c -0.08,0.64 -0.18,0.93 -0.43,1.25 -0.3,0.36 -0.76,0.57 -1.27,0.57 -0.5,0 -0.97,-0.18 -1.35,-0.52 -0.46,-0.41 -0.73,-1.11 -0.73,-1.93 0,-1.37 0.72,-2.22 1.86,-2.22 0.94,0 1.69,0.58 2.11,1.65 z"
         inkscape:connector-curvature="0"
         style="fill:#000000;stroke-width:0" /><polygon
         id="polygon23918"
         points="247.57,710.96 247.57,710.4 252.66,710.4 252.66,710.96 "
         style="fill:#000000;stroke-width:0" /><polygon
         id="polygon23920"
         points="247.57,708.94 247.57,708.39 252.66,708.39 252.66,708.94 "
         style="fill:#000000;stroke-width:0" /><polygon
         id="polygon23922"
         points="256.67,709.96 256.67,709.4 261.77,709.4 261.77,709.96 "
         style="fill:#000000;stroke-width:0" /><path
         id="path23924"
         d="m 265.29,713.84 -1.79,-0.9 v -0.14 c 0.12,0.05 0.23,0.09 0.27,0.11 0.18,0.07 0.34,0.11 0.44,0.11 0.21,0 0.3,-0.15 0.3,-0.47 v -4.5 c 0,-0.33 -0.08,-0.56 -0.24,-0.65 -0.15,-0.09 -0.28,-0.12 -0.7,-0.13 v -0.15 h 2.74 v 0.15 c -0.78,0.01 -0.94,0.11 -0.94,0.59 v 5.96 z"
         inkscape:connector-curvature="0"
         style="fill:#000000;stroke-width:0" /><path
         id="path23926"
         d="m 269.9,713.84 -0.05,0 -0.05,0 -0.05,0 -0.05,-0.01 -0.05,0 -0.04,-0.01 -0.05,0 -0.05,-0.01 -0.04,-0.01 -0.05,-0.01 -0.04,-0.01 -0.04,-0.01 -0.05,-0.01 -0.04,-0.02 -0.04,-0.01 -0.04,-0.02 -0.04,-0.01 -0.04,-0.02 -0.04,-0.02 -0.04,-0.02 -0.04,-0.02 -0.04,-0.02 -0.04,-0.03 -0.03,-0.02 -0.04,-0.02 -0.04,-0.03 -0.03,-0.03 -0.04,-0.02 -0.04,-0.03 -0.03,-0.03 -0.04,-0.03 -0.03,-0.04 c -0.58,-0.55 -0.96,-1.7 -0.96,-2.86 0,-1.08 0.33,-2.24 0.8,-2.8 0.37,-0.44 0.88,-0.67 1.45,-0.67 v 0.25 c -0.85,0 -1.29,1.07 -1.29,3.13 0,2.11 0.45,3.21 1.3,3.21 h 0 c 0.84,0 1.29,-1.12 1.29,-3.2 0,-2.07 -0.44,-3.14 -1.3,-3.14 v -0.25 c 0.51,0 0.94,0.17 1.3,0.51 0.57,0.55 0.95,1.7 0.95,2.9 0,2.04 -0.9,3.44 -2.21,3.44 z"
         inkscape:connector-curvature="0"
         style="fill:#000000;stroke-width:0" /></g>  </g>
</svg>
