<?xml version="1.0" encoding="UTF-8" standalone="no"?>
<!-- Created with Inkscape (http://www.inkscape.org/) -->

<svg
   xmlns:ns0="http://www.iki.fi/pav/software/textext/"
   xmlns:dc="http://purl.org/dc/elements/1.1/"
   xmlns:cc="http://creativecommons.org/ns#"
   xmlns:rdf="http://www.w3.org/1999/02/22-rdf-syntax-ns#"
   xmlns:svg="http://www.w3.org/2000/svg"
   xmlns="http://www.w3.org/2000/svg"
   xmlns:sodipodi="http://sodipodi.sourceforge.net/DTD/sodipodi-0.dtd"
   xmlns:inkscape="http://www.inkscape.org/namespaces/inkscape"
   id="svg2"
   version="1.1"
   inkscape:version="0.48.4 r9939"
   width="496.06299"
   height="283.46457"
   xml:space="preserve"
   sodipodi:docname="exp1.17.eps"><sodipodi:namedview
     pagecolor="#ffffff"
     bordercolor="#666666"
     borderopacity="1"
     objecttolerance="10"
     gridtolerance="10"
     guidetolerance="10"
     inkscape:pageopacity="0"
     inkscape:pageshadow="2"
     inkscape:window-width="1366"
     inkscape:window-height="744"
     id="namedview4"
     showgrid="false"
     inkscape:zoom="1.7114762"
     inkscape:cx="248.03149"
     inkscape:cy="141.73228"
     inkscape:window-x="0"
     inkscape:window-y="24"
     inkscape:window-maximized="1"
     inkscape:current-layer="g10"
     units="cm"
     inkscape:document-units="cm"
     inkscape:object-nodes="true"><inkscape:grid
       snapvisiblegridlinesonly="true"
       enabled="true"
       visible="true"
       empspacing="5"
       id="grid3159"
       type="xygrid" /></sodipodi:namedview><metadata
     id="metadata8"><rdf:RDF><cc:Work
         rdf:about=""><dc:format>image/svg+xml</dc:format><dc:type
           rdf:resource="http://purl.org/dc/dcmitype/StillImage" /><dc:title></dc:title></cc:Work></rdf:RDF></metadata><defs
     id="defs6"><marker
       inkscape:stockid="Arrow1Mstart"
       orient="auto"
       refY="0.0"
       refX="0.0"
       id="Arrow1Mstart"
       style="overflow:visible"><path
         id="path3828"
         d="M 0.0,0.0 L 5.0,-5.0 L -12.5,0.0 L 5.0,5.0 L 0.0,0.0 z "
         style="fill-rule:evenodd;stroke:#000000;stroke-width:1.0pt"
         transform="scale(0.4) translate(10,0)" /></marker></defs><g
     transform="matrix(1.25,0,0,-1.25,0,283.46442)"
     inkscape:label="ink_ext_XXXXXX"
     inkscape:groupmode="layer"
     id="g10"><path
       inkscape:connector-curvature="0"
       d="m 80,168.32434 -48,0 0,-96.324459 132,0 0,96.324459 -50.18491,0"
       style="fill:none;stroke:#231f20;stroke-width:0.8;stroke-linecap:butt;stroke-linejoin:miter;stroke-miterlimit:3.92427778;stroke-opacity:1;stroke-dasharray:none"
       id="path108-3"
       sodipodi:nodetypes="cccccc" /><path
       inkscape:connector-curvature="0"
       d="m 25.676176,113.07135 12.647416,0 0,14.18271 -12.647416,0 0,-14.18271 z"
       style="fill:#ffffff;fill-opacity:1;fill-rule:nonzero;stroke:none"
       id="path110" /><path
       d="m 227.98735,55.261347 c -0.43999,0 -0.776,-0.136 -1.072,-0.416 -0.46399,-0.447999 -0.768,-1.368001 -0.768,-2.304 0,-0.871999 0.26401,-1.808 0.64,-2.256 0.296,-0.351999 0.70401,-0.544 1.168,-0.544 0.408,0 0.752,0.136001 1.04,0.416 0.464,0.44 0.768,1.368001 0.768,2.336 0,1.639998 -0.728,2.768 -1.776,2.768 m -0.024,-0.208 c 0.672,0 1.032,-0.904002 1.032,-2.576 0,-1.671998 -0.352,-2.528 -1.04,-2.528 -0.68799,0 -1.04,0.856002 -1.04,2.52 0,1.695998 0.36001,2.584 1.048,2.584"
       style="font-size:8px;font-variant:normal;font-weight:normal;writing-mode:lr-tb;fill:#231f20;fill-opacity:1;fill-rule:nonzero;stroke:none;font-family:Times;-inkscape-font-specification:Times-Roman"
       id="path3166"
       inkscape:connector-curvature="0" /><path
       d="m 231.86987,182.91251 0,-139.574003"
       style="fill:#ed1c24;fill-opacity:1;fill-rule:nonzero;stroke:none"
       id="path68"
       inkscape:connector-curvature="0" /><path
       d="m 232.09847,183.1405 0,-138.912627"
       style="fill:none;stroke:#231f20;stroke-width:0.80000000000000004;stroke-linecap:butt;stroke-linejoin:miter;stroke-miterlimit:3.92427778000000016;stroke-opacity:1;stroke-dasharray:none;marker-start:url(#Arrow1Mstart)"
       id="path70"
       inkscape:connector-curvature="0" /><path
       d="m 246.41487,59.999881 -34.3164,0"
       style="fill:#ed1c24;fill-opacity:1;fill-rule:nonzero;stroke:none"
       id="path74"
       inkscape:connector-curvature="0" /><path
       d="m 380.26147,59.999881 -130.3942,0"
       style="fill:#ed1c24;fill-opacity:1;fill-rule:nonzero;stroke:none"
       id="path78"
       inkscape:connector-curvature="0" /><path
       d="m 354.32175,59.999881 -138.22328,0"
       style="fill:none;stroke:#231f20;stroke-width:0.80000000000000004;stroke-linecap:butt;stroke-linejoin:miter;stroke-miterlimit:3.92427778000000016;stroke-opacity:1;stroke-dasharray:none;marker-start:url(#Arrow1Mstart)"
       id="path80"
       inkscape:connector-curvature="0" /><path
       d="m 256.09847,59.999881 0,-4"
       style="fill:none;stroke:#231f20;stroke-width:0.5;stroke-linecap:butt;stroke-linejoin:miter;stroke-miterlimit:4;stroke-opacity:1;stroke-dasharray:none"
       id="path84"
       inkscape:connector-curvature="0" /><path
       d="m 328.40415,59.999881 0,-4"
       style="fill:none;stroke:#231f20;stroke-width:0.5;stroke-linecap:butt;stroke-linejoin:miter;stroke-miterlimit:4;stroke-opacity:1;stroke-dasharray:none"
       id="path88"
       inkscape:connector-curvature="0" /><path
       d="m 304.09847,59.999881 0,-4"
       style="fill:none;stroke:#231f20;stroke-width:0.5;stroke-linecap:butt;stroke-linejoin:miter;stroke-miterlimit:4;stroke-opacity:1;stroke-dasharray:none"
       id="path90"
       inkscape:connector-curvature="0" /><path
       d="m 280.09847,59.999881 0,-4"
       style="fill:none;stroke:#231f20;stroke-width:0.5;stroke-linecap:butt;stroke-linejoin:miter;stroke-miterlimit:4;stroke-opacity:1;stroke-dasharray:none"
       id="path92"
       inkscape:connector-curvature="0" /><path
       d="m 232.12387,83.999881 -4,0"
       style="fill:none;stroke:#231f20;stroke-width:0.5;stroke-linecap:butt;stroke-linejoin:miter;stroke-miterlimit:4;stroke-opacity:1;stroke-dasharray:none"
       id="path94"
       inkscape:connector-curvature="0" /><path
       d="m 232.12387,107.99988 -4,0"
       style="fill:none;stroke:#231f20;stroke-width:0.5;stroke-linecap:butt;stroke-linejoin:miter;stroke-miterlimit:4;stroke-opacity:1;stroke-dasharray:none"
       id="path96"
       inkscape:connector-curvature="0" /><path
       d="m 232.12387,131.99988 -4,0"
       style="fill:none;stroke:#231f20;stroke-width:0.5;stroke-linecap:butt;stroke-linejoin:miter;stroke-miterlimit:4;stroke-opacity:1;stroke-dasharray:none"
       id="path98"
       inkscape:connector-curvature="0" /><path
       d="m 232.12387,156.00304 -4,0"
       style="fill:none;stroke:#231f20;stroke-width:0.5;stroke-linecap:butt;stroke-linejoin:miter;stroke-miterlimit:4;stroke-opacity:1;stroke-dasharray:none"
       id="path100"
       inkscape:connector-curvature="0" /><path
       sodipodi:nodetypes="csc"
       d="m 260.09847,155.17169 c 0,0 -2.056,-73.356831 -10.32435,-89.850223 -2.43471,-4.856655 -10.96038,-5.321586 -17.67565,-5.321586"
       style="fill:none;stroke:#231f20;stroke-width:1.2;stroke-linecap:butt;stroke-linejoin:miter;stroke-miterlimit:4;stroke-opacity:1;stroke-dasharray:none"
       id="path108"
       inkscape:connector-curvature="0" /><text
       transform="scale(1,-1)"
       sodipodi:linespacing="100%"
       id="text3043"
       y="-76.558105"
       x="224.45528"
       style="font-size:9.60000038px;font-style:normal;font-variant:normal;font-weight:normal;font-stretch:normal;text-align:end;line-height:100%;letter-spacing:0px;word-spacing:0px;text-anchor:end;fill:#000000;fill-opacity:1;stroke:none;font-family:LMRoman12;-inkscape-font-specification:LMRoman12"
       xml:space="preserve"><tspan
         y="-76.558105"
         x="224.45528"
         id="tspan3045"
         sodipodi:role="line">10</tspan></text>
<text
       xml:space="preserve"
       style="font-size:9.60000038px;font-style:normal;font-variant:normal;font-weight:normal;font-stretch:normal;text-align:end;line-height:100%;letter-spacing:0px;word-spacing:0px;text-anchor:end;fill:#000000;fill-opacity:1;stroke:none;font-family:LMRoman12;-inkscape-font-specification:LMRoman12"
       x="224.45528"
       y="-99.999878"
       id="text3063"
       sodipodi:linespacing="100%"
       transform="scale(1,-1)"><tspan
         sodipodi:role="line"
         id="tspan3065"
         x="224.45528"
         y="-99.999878">20</tspan></text>
<text
       transform="scale(1,-1)"
       sodipodi:linespacing="100%"
       id="text3067"
       y="-123.99988"
       x="224.09854"
       style="font-size:9.60000038px;font-style:normal;font-variant:normal;font-weight:normal;font-stretch:normal;text-align:end;line-height:100%;letter-spacing:0px;word-spacing:0px;text-anchor:end;fill:#000000;fill-opacity:1;stroke:none;font-family:LMRoman12;-inkscape-font-specification:LMRoman12"
       xml:space="preserve"><tspan
         y="-123.99988"
         x="224.09854"
         id="tspan3069"
         sodipodi:role="line">30</tspan></text>
<text
       xml:space="preserve"
       style="font-size:9.60000038px;font-style:normal;font-variant:normal;font-weight:normal;font-stretch:normal;text-align:end;line-height:100%;letter-spacing:0px;word-spacing:0px;text-anchor:end;fill:#000000;fill-opacity:1;stroke:none;font-family:LMRoman12;-inkscape-font-specification:LMRoman12"
       x="224.09854"
       y="-147.99988"
       id="text3071"
       sodipodi:linespacing="100%"
       transform="scale(1,-1)"><tspan
         sodipodi:role="line"
         id="tspan3073"
         x="224.09854"
         y="-147.99988">40</tspan></text>
<text
       transform="scale(1,-1)"
       sodipodi:linespacing="100%"
       id="text3075"
       y="-45.661198"
       x="257.84204"
       style="font-size:9.60000038px;font-style:normal;font-variant:normal;font-weight:normal;font-stretch:normal;text-align:end;line-height:100%;letter-spacing:0px;word-spacing:0px;text-anchor:end;fill:#000000;fill-opacity:1;stroke:none;font-family:LMRoman12;-inkscape-font-specification:LMRoman12"
       xml:space="preserve"><tspan
         y="-45.661198"
         x="257.84204"
         id="tspan3077"
         sodipodi:role="line">1</tspan></text>
<text
       xml:space="preserve"
       style="font-size:9.60000038px;font-style:normal;font-variant:normal;font-weight:normal;font-stretch:normal;text-align:end;line-height:100%;letter-spacing:0px;word-spacing:0px;text-anchor:end;fill:#000000;fill-opacity:1;stroke:none;font-family:LMRoman12;-inkscape-font-specification:LMRoman12"
       x="281.82349"
       y="-45.661198"
       id="text3079"
       sodipodi:linespacing="100%"
       transform="scale(1,-1)"><tspan
         sodipodi:role="line"
         id="tspan3081"
         x="281.82349"
         y="-45.661198">2</tspan></text>
<text
       transform="scale(1,-1)"
       sodipodi:linespacing="100%"
       id="text3083"
       y="-45.661198"
       x="306.20786"
       style="font-size:9.60000038px;font-style:normal;font-variant:normal;font-weight:normal;font-stretch:normal;text-align:end;line-height:100%;letter-spacing:0px;word-spacing:0px;text-anchor:end;fill:#000000;fill-opacity:1;stroke:none;font-family:LMRoman12;-inkscape-font-specification:LMRoman12"
       xml:space="preserve"><tspan
         y="-45.661198"
         x="306.20786"
         id="tspan3085"
         sodipodi:role="line">3</tspan></text>
<text
       xml:space="preserve"
       style="font-size:9.60000038px;font-style:normal;font-variant:normal;font-weight:normal;font-stretch:normal;text-align:end;line-height:100%;letter-spacing:0px;word-spacing:0px;text-anchor:end;fill:#000000;fill-opacity:1;stroke:none;font-family:LMRoman12;-inkscape-font-specification:LMRoman12"
       x="329.32202"
       y="-45.661198"
       id="text3087"
       sodipodi:linespacing="100%"
       transform="scale(1,-1)"><tspan
         sodipodi:role="line"
         id="tspan3089"
         x="329.32202"
         y="-45.661198">4</tspan></text>
<g
       style="font-style:normal;font-variant:normal;font-weight:normal;font-stretch:normal;letter-spacing:normal;word-spacing:normal;text-anchor:start;fill:none;stroke:#000000;stroke-linecap:butt;stroke-linejoin:miter;stroke-miterlimit:10.43299961;stroke-opacity:1;stroke-dasharray:none;stroke-dashoffset:0"
       ns0:preamble="/home/sriranga/Desktop/UBM-2014/package.tex"
       ns0:text="$I_F$(mA)"
       word-spacing="normal"
       letter-spacing="normal"
       font-size-adjust="none"
       font-stretch="normal"
       font-weight="normal"
       font-variant="normal"
       font-style="normal"
       stroke-miterlimit="10.433"
       xml:space="preserve"
       transform="matrix(1.2,0,0,1.2,-53.841011,-658.67214)"
       id="g4194"><path
         id="path4196"
         d="m 223.6,707.12 h 2.43 v 0.16 c -0.57,0.07 -0.68,0.13 -0.68,0.41 0,0.19 0.02,0.31 0.11,0.63 l 1.23,4.4 c 0.18,0.57 0.24,0.63 0.81,0.73 v 0.16 h -2.46 v -0.16 c 0.58,-0.07 0.7,-0.15 0.7,-0.42 0,-0.14 -0.04,-0.37 -0.11,-0.62 l -1.22,-4.39 c -0.18,-0.58 -0.25,-0.64 -0.81,-0.74 z"
         inkscape:connector-curvature="0"
         style="fill:#000000;stroke-width:0" /><path
         id="path4198"
         d="m 231.66,710.17 h -3.46 v -0.11 c 0.45,-0.04 0.53,-0.08 0.53,-0.28 0,-0.11 -0.02,-0.28 -0.07,-0.45 l -0.86,-3.07 c -0.13,-0.42 -0.17,-0.46 -0.57,-0.52 v -0.11 h 1.75 v 0.11 c -0.4,0.02 -0.53,0.1 -0.53,0.31 0,0.05 0.03,0.16 0.07,0.31 l 0.43,1.55 c 0.26,-0.01 0.41,-0.02 0.56,-0.02 0.28,0 0.32,-0.01 0.39,-0.03 0.1,-0.06 0.15,-0.15 0.15,-0.29 0,-0.11 -0.01,-0.19 -0.06,-0.41 l 0.12,-0.03 0.53,1.62 -0.12,0.04 c -0.32,-0.63 -0.34,-0.63 -1.51,-0.65 l 0.46,1.62 c 0.04,0.14 0.14,0.18 0.43,0.18 1.17,0 1.42,-0.09 1.42,-0.52 0,-0.04 0,-0.08 -0.01,-0.17 -0.01,-0.04 -0.01,-0.04 -0.01,-0.13 l 0.14,-0.01 z"
         inkscape:connector-curvature="0"
         style="fill:#000000;stroke-width:0" /><path
         id="path4200"
         d="m 235.28,713.84 -0.07,-0.04 -0.06,-0.05 -0.07,-0.04 -0.06,-0.04 -0.06,-0.04 -0.05,-0.04 -0.06,-0.04 -0.05,-0.03 -0.05,-0.04 -0.05,-0.04 -0.05,-0.03 -0.04,-0.04 -0.05,-0.03 -0.04,-0.04 -0.08,-0.06 -0.08,-0.07 -0.07,-0.07 -0.07,-0.07 -0.07,-0.07 -0.07,-0.07 -0.07,-0.08 -0.07,-0.08 -0.06,-0.08 c -0.71,-0.87 -1.06,-1.86 -1.06,-3.02 0,-1.26 0.37,-2.24 1.25,-3.25 0.4,-0.48 0.66,-0.7 1.18,-1.01 l 0.12,0.16 c -0.8,0.62 -1.08,0.97 -1.35,1.71 -0.23,0.67 -0.34,1.42 -0.34,2.42 0,1.04 0.13,1.86 0.39,2.47 0.28,0.62 0.58,0.97 1.3,1.55 z"
         inkscape:connector-curvature="0"
         style="fill:#000000;stroke-width:0" /><path
         id="path4202"
         d="m 235.85,711.08 0.01,0 0.01,0 0.02,0.01 0.01,0 0.01,0 0.01,0 0.02,0.01 0.02,0 0.02,0 0.02,0.01 0.02,0 0.02,0 0.01,0 0.02,0 0.02,0.01 0.02,0 0.02,0 0.02,0 0.02,0 c 0.26,0 0.35,-0.16 0.35,-0.64 v -2.51 c 0,-0.54 -0.14,-0.69 -0.7,-0.7 v -0.15 h 2.21 v 0.15 c -0.53,0.02 -0.68,0.13 -0.68,0.52 v 2.8 c 0,0.02 0.08,0.12 0.15,0.19 0.25,0.23 0.68,0.4 1.03,0.4 0.43,0 0.65,-0.35 0.65,-1.04 v -2.16 c 0,-0.56 -0.11,-0.67 -0.67,-0.71 v -0.15 h 2.23 v 0.15 c -0.57,0.01 -0.72,0.18 -0.72,0.8 v 2.5 c 0.3,0.43 0.63,0.61 1.08,0.61 0.57,0 0.75,-0.27 0.75,-1.09 v -2.1 c 0,-0.57 -0.08,-0.65 -0.66,-0.72 v -0.15 h 2.18 v 0.15 l -0.26,0.02 c -0.29,0.02 -0.42,0.2 -0.42,0.59 v 2.05 c 0,1.17 -0.39,1.77 -1.16,1.77 -0.57,0 -1.08,-0.26 -1.62,-0.84 -0.18,0.57 -0.52,0.84 -1.06,0.84 -0.43,0 -0.71,-0.15 -1.54,-0.77 v 0.74 l -0.07,0.03 c -0.5,-0.19 -0.84,-0.3 -1.39,-0.45 z"
         inkscape:connector-curvature="0"
         style="fill:#000000;stroke-width:0" /><path
         id="path4204"
         d="m 250.44,707.31 -0.04,0.01 -0.04,0 -0.04,0 -0.04,0.01 -0.03,0.01 -0.03,0 -0.03,0.01 -0.03,0.01 -0.03,0.01 -0.03,0.01 -0.03,0.01 -0.02,0.02 -0.03,0.01 -0.02,0.02 -0.02,0.02 -0.03,0.02 -0.02,0.03 -0.02,0.02 -0.03,0.03 -0.02,0.03 -0.02,0.03 -0.03,0.04 -0.02,0.04 -0.03,0.04 -0.02,0.04 -0.03,0.05 -0.02,0.05 -0.03,0.05 -0.03,0.06 -0.03,0.06 -0.01,0.03 -0.02,0.03 -0.01,0.03 -0.02,0.04 -2.48,5.64 h -0.19 l -2.08,-4.88 c -0.63,-1.45 -0.75,-1.61 -1.23,-1.63 v -0.19 h 1.97 v 0.19 c -0.48,0 -0.68,0.13 -0.68,0.41 0,0.12 0.03,0.26 0.08,0.39 l 0.46,1.16 H 248 l -0.14,0.41 h -2.3 l 1.15,2.73 1.15,-2.73 0.14,-0.41 0.41,-0.95 c 0.12,-0.27 0.19,-0.53 0.19,-0.67 0,-0.25 -0.17,-0.33 -0.7,-0.34 v -0.19 h 2.54 z"
         inkscape:connector-curvature="0"
         style="fill:#000000;stroke-width:0" /><path
         id="path4206"
         d="m 250.98,705.37 0.07,0.04 0.07,0.04 0.06,0.05 0.06,0.04 0.06,0.04 0.05,0.03 0.06,0.04 0.05,0.04 0.05,0.04 0.05,0.03 0.05,0.04 0.04,0.03 0.05,0.04 0.04,0.03 0.08,0.07 0.08,0.07 0.07,0.07 0.08,0.07 0.07,0.07 0.06,0.07 0.07,0.08 0.07,0.08 0.07,0.08 c 0.7,0.86 1.05,1.86 1.05,3.02 0,1.27 -0.37,2.23 -1.24,3.25 -0.41,0.47 -0.67,0.69 -1.19,1.01 l -0.12,-0.16 c 0.8,-0.63 1.07,-0.97 1.35,-1.72 0.24,-0.66 0.35,-1.42 0.35,-2.41 0,-1.03 -0.13,-1.86 -0.4,-2.46 -0.28,-0.63 -0.58,-0.99 -1.3,-1.56 z"
         inkscape:connector-curvature="0"
         style="fill:#000000;stroke-width:0" /></g><path
       inkscape:connector-curvature="0"
       d="m 38.323712,123.1286 -12.647536,0"
       style="fill:none;stroke:#231f20;stroke-width:0.8;stroke-linecap:round;stroke-linejoin:round;stroke-miterlimit:3.90913343;stroke-opacity:1;stroke-dasharray:none"
       id="path112" /><path
       inkscape:connector-curvature="0"
       d="m 35.904416,119.24718 -7.808944,0"
       style="fill:none;stroke:#231f20;stroke-width:0.8;stroke-linecap:round;stroke-linejoin:round;stroke-miterlimit:3.90913343;stroke-opacity:1;stroke-dasharray:none"
       id="path114" /><path
       inkscape:connector-curvature="0"
       d="m 32,118.79661 0,-5.7253"
       style="fill:none;stroke:#231f20;stroke-width:0.8;stroke-linecap:round;stroke-linejoin:round;stroke-miterlimit:3.90913343;stroke-opacity:1;stroke-dasharray:none"
       id="path116" /><path
       inkscape:connector-curvature="0"
       d="m 32,128.89004 0,-5.72543"
       style="fill:none;stroke:#231f20;stroke-width:0.8;stroke-linecap:round;stroke-linejoin:round;stroke-miterlimit:3.90913343;stroke-opacity:1;stroke-dasharray:none"
       id="path118" /><path
       inkscape:connector-curvature="0"
       d="m 116.15569,168.32434 -4.42883,0 -1.92505,-4.53902 -3.86234,9.16443 -3.9173,-9.16443 -3.920828,9.16443 -3.862848,-9.16443 -3.828752,9.16443 -3.86284,-9.16443 -3.920848,9.047 -1.875136,-4.50798 -4.657384,0"
       style="fill:none;stroke:#231f20;stroke-width:0.80000001;stroke-linecap:round;stroke-linejoin:round;stroke-miterlimit:3.86369991;stroke-opacity:1;stroke-dasharray:none"
       id="path122" /><path
       inkscape:connector-curvature="0"
       d="m 86.197406,131.47323 c 6.131824,5.96285 15.939804,5.82747 21.906964,-0.30243 5.9636,-6.12774 5.82855,-15.93025 -0.30222,-21.89112 -6.13428,-5.96301 -15.942148,-5.82778 -21.906975,0.30245"
       style="fill:none;stroke:#231f20;stroke-width:0.8;stroke-linecap:butt;stroke-linejoin:miter;stroke-miterlimit:3.92427778;stroke-opacity:1;stroke-dasharray:none"
       id="path124" /><path
       inkscape:connector-curvature="0"
       d="m 86.239206,109.22788 -0.511378,-1.97451 -0.06973,0.0147 -1.172308,2.82558 c -0.53455,0.86203 -1.070068,1.72297 -1.604595,2.58626 0.847353,-0.55856 1.694866,-1.1172 2.542337,-1.6746 l 2.792645,-1.2513 0.02006,-0.0631 -1.997261,-0.46273"
       style="fill:#231f20;fill-opacity:1;fill-rule:nonzero;stroke:none"
       id="path126" /><path
       inkscape:connector-curvature="0"
       d="m 153.13513,113.67638 21.70998,0 0,16.43309 -21.70998,0 0,-16.43309 z"
       style="fill:#ffffff;fill-opacity:1;fill-rule:nonzero;stroke:none;stroke-width:0.8;stroke-miterlimit:3.92427778;stroke-dasharray:none"
       id="path142" /><path
       inkscape:connector-curvature="0"
       d="m 163.98896,114.32581 -9.10535,15.78362 18.21068,0 -9.10533,-15.78362 z"
       style="fill:none;stroke:#231f20;stroke-width:0.8;stroke-linecap:round;stroke-linejoin:round;stroke-miterlimit:3.92427778;stroke-opacity:1;stroke-dasharray:none"
       id="path144" /><path
       inkscape:connector-curvature="0"
       d="m 173.00724,113.67635 -18.30755,0"
       style="fill:none;stroke:#231f20;stroke-width:0.8;stroke-linecap:round;stroke-linejoin:round;stroke-miterlimit:3.92427778;stroke-opacity:1;stroke-dasharray:none"
       id="path146" /><g
       id="content"
       transform="matrix(1.2,0,0,1.2,-176.91684,-670.11634)"
       xml:space="preserve"
       stroke-miterlimit="10.433"
       font-style="normal"
       font-variant="normal"
       font-weight="normal"
       font-stretch="normal"
       font-size-adjust="none"
       letter-spacing="normal"
       word-spacing="normal"
       ns0:text="$R_L$"
       ns0:preamble="/home/sriranga/Desktop/UBM-2014/package.tex"
       style="font-style:normal;font-variant:normal;font-weight:normal;font-stretch:normal;letter-spacing:normal;word-spacing:normal;text-anchor:start;fill:none;stroke:#000000;stroke-linecap:butt;stroke-linejoin:miter;stroke-miterlimit:10.43299961;stroke-opacity:1;stroke-dasharray:none;stroke-dashoffset:0"><path
         style="fill:#000000;stroke-width:0"
         inkscape:connector-curvature="0"
         d="m 229.07,707.28 -0.04,0.01 -0.04,0 -0.03,0.01 -0.04,0 -0.04,0.01 -0.03,0.01 -0.03,0.01 -0.03,0.01 -0.03,0.01 -0.03,0.01 -0.03,0.01 -0.03,0.02 -0.03,0.01 -0.02,0.02 -0.03,0.02 -0.02,0.02 -0.03,0.02 -0.02,0.02 -0.02,0.03 -0.02,0.02 -0.02,0.03 -0.03,0.03 -0.02,0.03 -0.02,0.03 -0.01,0.04 -0.02,0.03 -0.02,0.04 -0.02,0.04 -0.02,0.04 -0.02,0.05 -0.02,0.04 -0.01,0.05 -0.93,2.43 c 0.77,0.17 1.1,0.31 1.45,0.63 0.33,0.29 0.51,0.67 0.51,1.12 0,0.92 -0.73,1.43 -2.07,1.43 l -0.21,-0.3 c 0.83,0 1.24,-0.37 1.24,-1.11 0,-0.98 -0.64,-1.49 -1.88,-1.49 -0.16,0 -0.27,0.01 -0.51,0.05 l 0.65,2.28 c 0.06,0.2 0.18,0.27 0.5,0.27 l 0.21,0.3 h -2.47 v -0.16 c 0.42,-0.06 0.47,-0.07 0.57,-0.14 0.08,-0.05 0.14,-0.16 0.14,-0.27 0,-0.12 -0.05,-0.36 -0.12,-0.63 l -1.22,-4.39 c -0.18,-0.59 -0.25,-0.65 -0.81,-0.74 v -0.16 h 2.43 v 0.16 c -0.61,0.08 -0.68,0.13 -0.68,0.46 0,0.1 0.03,0.23 0.12,0.58 l 0.56,2.07 0.65,-0.05 1.22,-3.22 h 1.47 z"
         id="path4840" /><path
         style="fill:#000000;stroke-width:0"
         inkscape:connector-curvature="0"
         d="m 232.5,710.17 h -1.9 v -0.11 c 0.43,-0.04 0.54,-0.1 0.54,-0.3 0,-0.1 -0.03,-0.26 -0.08,-0.43 l -0.86,-3.07 c -0.12,-0.41 -0.17,-0.45 -0.56,-0.52 v -0.11 h 3.54 l 0.41,1.25 -0.14,0.04 c -0.25,-0.5 -0.43,-0.73 -0.74,-0.88 -0.24,-0.12 -0.53,-0.16 -1.14,-0.16 -0.53,0 -0.7,0.06 -0.7,0.24 0,0.05 0.04,0.21 0.07,0.35 l 0.86,3.08 c 0.1,0.35 0.28,0.48 0.7,0.51 z"
         id="path4842" /></g><text
       transform="scale(1,-1)"
       sodipodi:linespacing="100%"
       id="text4909"
       y="-116.90043"
       x="21.220997"
       style="font-size:9.60000038px;font-style:normal;font-variant:normal;font-weight:normal;font-stretch:normal;text-align:end;line-height:100%;letter-spacing:0px;word-spacing:0px;text-anchor:end;fill:#000000;fill-opacity:1;stroke:none;font-family:LMRoman12;-inkscape-font-specification:LMRoman12"
       xml:space="preserve"><tspan
         y="-116.90043"
         x="21.220997"
         id="tspan4911"
         sodipodi:role="line">4V</tspan></text>
<text
       transform="scale(1,-1)"
       sodipodi:linespacing="100%"
       id="text4932"
       y="-117.00568"
       x="109.73425"
       style="font-size:9.60000038px;font-style:normal;font-variant:normal;font-weight:normal;font-stretch:normal;text-align:end;line-height:100%;letter-spacing:0px;word-spacing:0px;text-anchor:end;fill:#000000;fill-opacity:1;stroke:none;font-family:LMRoman12;-inkscape-font-specification:LMRoman12"
       xml:space="preserve"><tspan
         y="-117.00568"
         x="109.73425"
         id="tspan4934"
         sodipodi:role="line">30 mA</tspan></text>
<g
       style="font-style:normal;font-variant:normal;font-weight:normal;font-stretch:normal;letter-spacing:normal;word-spacing:normal;text-anchor:start;fill:none;stroke:#000000;stroke-linecap:butt;stroke-linejoin:miter;stroke-miterlimit:10.43299961;stroke-opacity:1;stroke-dasharray:none;stroke-dashoffset:0"
       ns0:preamble="/home/sriranga/Desktop/UBM-2014/package.tex"
       ns0:text="$D$"
       word-spacing="normal"
       letter-spacing="normal"
       font-size-adjust="none"
       font-stretch="normal"
       font-weight="normal"
       font-variant="normal"
       font-style="normal"
       stroke-miterlimit="10.433"
       xml:space="preserve"
       transform="matrix(1.2,0,0,1.2,-124.26682,-731.5456)"
       id="g5026"><path
         id="path5028"
         d="m 224.97,713.45 0.03,0 0.03,0 0.03,-0.01 0.02,0 0.03,0 0.03,0 0.04,-0.01 0.05,-0.01 0.04,0 0.05,-0.01 0.03,-0.01 0.04,-0.01 0.04,0 0.03,-0.01 0.03,-0.01 0.03,-0.01 0.02,-0.01 0.03,-0.01 0.02,-0.01 0.02,-0.01 0.02,-0.02 0.01,-0.01 0.02,-0.01 0.01,-0.02 0.02,-0.01 0.01,-0.02 0.01,-0.02 0.01,-0.01 0,-0.02 0.01,-0.02 0,-0.02 0.01,-0.02 0,-0.03 0,-0.02 0,-0.02 c 0,-0.15 -0.04,-0.39 -0.11,-0.64 l -1.22,-4.39 c -0.18,-0.58 -0.25,-0.64 -0.81,-0.74 v -0.16 h 2.52 l -0.1,0.3 c -0.46,0 -0.65,0.11 -0.65,0.37 0,0.13 0.05,0.35 0.22,0.94 l 1.2,4.3 c 0.06,0.21 0.21,0.28 0.61,0.28 0.57,0 1.07,-0.13 1.39,-0.36 0.48,-0.36 0.75,-0.99 0.75,-1.77 0,-1.08 -0.42,-2.19 -1.09,-2.86 -0.59,-0.6 -1.4,-0.9 -2.43,-0.9 l 0.1,-0.3 c 1.16,0 2.23,0.31 2.99,0.87 0.97,0.7 1.54,1.8 1.54,2.95 0,1.63 -1.14,2.67 -2.91,2.67 h -2.77 z"
         inkscape:connector-curvature="0"
         style="fill:#000000;stroke-width:0" /></g><text
       transform="matrix(0.8,0,0,-0.8,0,226.77154)"
       sodipodi:linespacing="100%"
       id="text4406"
       y="117.81809"
       x="9.6408005"
       style="font-size:12px;font-style:normal;font-variant:normal;font-weight:normal;font-stretch:normal;text-align:start;line-height:100%;letter-spacing:0px;word-spacing:0px;text-anchor:start;fill:#000000;fill-opacity:1;stroke:none;font-family:LMRoman12;-inkscape-font-specification:LMRoman12"
       xml:space="preserve"><tspan
         id="tspan4408"
         sodipodi:role="line" /></text>
<g
       style="font-style:normal;font-variant:normal;font-weight:normal;font-stretch:normal;letter-spacing:normal;word-spacing:normal;text-anchor:start;fill:none;stroke:#000000;stroke-linecap:butt;stroke-linejoin:miter;stroke-miterlimit:10.43299961;stroke-opacity:1;stroke-dasharray:none;stroke-dashoffset:0"
       ns0:preamble="/home/sriranga/Desktop/UBM-2014/package.tex"
       ns0:text="$V_F$(V)"
       text-anchor="start"
       word-spacing="normal"
       letter-spacing="normal"
       font-size-adjust="none"
       font-stretch="normal"
       font-weight="normal"
       font-variant="normal"
       font-style="normal"
       fill-opacity="1"
       fill-rule="evenodd"
       fill="none"
       stroke-opacity="1"
       stroke-dashoffset="0"
       stroke-dasharray="none"
       stroke-miterlimit="10.433"
       stroke-linejoin="miter"
       stroke-linecap="butt"
       stroke="black"
       xml:space="preserve"
       transform="matrix(1.2,0,0,1.2,89.359067,-791.66179)"
       id="g4479"><path
         id="path4481"
         fill="black"
         stroke-width="0"
         d="M230.28,713.61 H228.43 V713.45 C228.87,713.4,229.05,713.3,229.05,713.11 C229.05,712.93,228.86,712.5,228.54,711.93 L226.49,708.4 L225.83,712.8 C225.82,712.85,225.82,712.89,225.82,712.95 C225.82,713.28,225.96,713.38,226.59,713.45 V713.61 H224.19 V713.45 C224.74,713.38,224.76,713.35,224.97,712.11 L225.82,706.95 H226.01 L229.72,713.05 C229.89,713.32,230.05,713.44,230.28,713.45 Z " /><path
         id="path4483"
         fill="black"
         stroke-width="0"
         d="M234.19,710.17 H230.72 V710.06 C231.17,710.02,231.25,709.98,231.25,709.78 C231.25,709.67,231.23,709.5,231.18,709.33 L230.32,706.26 C230.2,705.84,230.15,705.8,229.75,705.74 V705.63 H231.51 V705.74 C231.1,705.76,230.98,705.84,230.98,706.05 C230.98,706.1,231,706.21,231.04,706.36 L231.47,707.91 C231.73,707.9,231.88,707.89,232.03,707.89 C232.31,707.89,232.35,707.88,232.42,707.86 C232.52,707.8,232.57,707.71,232.57,707.57 C232.57,707.46,232.56,707.38,232.51,707.16 L232.63,707.13 L233.16,708.75 L233.04,708.79 C232.72,708.16,232.7,708.16,231.53,708.14 L231.99,709.76 C232.03,709.9,232.13,709.94,232.42,709.94 C233.59,709.94,233.84,709.85,233.84,709.42 C233.84,709.38,233.84,709.34,233.83,709.25 C233.82,709.21,233.82,709.21,233.82,709.12 L233.96,709.11 Z " /><path
         id="path4485"
         fill="black"
         stroke-width="0"
         d="M237.8,713.84 L237.73,713.8 L237.67,713.75 L237.6,713.71 L237.54,713.67 L237.48,713.63 L237.43,713.59 L237.37,713.55 L237.32,713.52 L237.27,713.48 L237.22,713.44 L237.17,713.41 L237.13,713.37 L237.08,713.34 L237.04,713.3 L236.96,713.24 L236.88,713.17 L236.81,713.1 L236.74,713.03 L236.67,712.96 L236.6,712.89 L236.53,712.81 L236.46,712.73 L236.4,712.65 C235.69,711.78,235.34,710.79,235.34,709.63 C235.34,708.37,235.71,707.39,236.59,706.38 C236.99,705.9,237.25,705.68,237.77,705.37 L237.89,705.53 C237.09,706.15,236.81,706.5,236.54,707.24 C236.31,707.91,236.2,708.66,236.2,709.66 C236.2,710.7,236.33,711.52,236.6,712.13 C236.87,712.75,237.17,713.1,237.89,713.68 Z " /><path
         id="path4487"
         fill="black"
         stroke-width="0"
         d="M245.12,713.7 H243.08 V713.51 C243.62,713.48,243.8,713.37,243.8,713.09 C243.8,712.94,243.73,712.67,243.61,712.37 L242.15,708.72 L240.65,712.08 C240.32,712.81,240.24,713.04,240.24,713.18 C240.24,713.37,240.38,713.47,240.7,713.49 C240.74,713.49,240.85,713.5,240.99,713.51 V713.7 H238.34 V713.51 C238.83,713.49,238.97,713.35,239.4,712.47 L241.84,707.02 H241.99 L244.2,712.59 C244.53,713.37,244.64,713.48,245.12,713.51 Z " /><path
         id="path4489"
         fill="black"
         stroke-width="0"
         d="M245.75,705.37 L245.82,705.41 L245.89,705.45 L245.95,705.5 L246.01,705.54 L246.07,705.58 L246.12,705.61 L246.18,705.65 L246.23,705.69 L246.28,705.73 L246.33,705.76 L246.38,705.8 L246.42,705.83 L246.47,705.87 L246.51,705.9 L246.59,705.97 L246.67,706.04 L246.74,706.11 L246.82,706.18 L246.88,706.25 L246.95,706.32 L247.02,706.4 L247.09,706.48 L247.15,706.56 C247.86,707.42,248.21,708.42,248.21,709.58 C248.21,710.85,247.84,711.81,246.97,712.83 C246.56,713.3,246.3,713.52,245.78,713.84 L245.66,713.68 C246.46,713.05,246.73,712.71,247.01,711.96 C247.24,711.3,247.35,710.54,247.35,709.55 C247.35,708.52,247.23,707.69,246.96,707.09 C246.68,706.46,246.38,706.1,245.66,705.53 Z " /></g></g></svg>