<?xml version="1.0" encoding="UTF-8" standalone="no"?>
<!-- Created with Inkscape (http://www.inkscape.org/) -->

<svg
   xmlns:ns0="http://www.iki.fi/pav/software/textext/"
   xmlns:dc="http://purl.org/dc/elements/1.1/"
   xmlns:cc="http://creativecommons.org/ns#"
   xmlns:rdf="http://www.w3.org/1999/02/22-rdf-syntax-ns#"
   xmlns:svg="http://www.w3.org/2000/svg"
   xmlns="http://www.w3.org/2000/svg"
   xmlns:sodipodi="http://sodipodi.sourceforge.net/DTD/sodipodi-0.dtd"
   xmlns:inkscape="http://www.inkscape.org/namespaces/inkscape"
   width="496.06299"
   height="354.33069"
   id="svg2"
   version="1.1"
   inkscape:version="0.48.4 r9939"
   sodipodi:docname="fig1.25.svg">
  <sodipodi:namedview
     id="base"
     pagecolor="#ffffff"
     bordercolor="#666666"
     borderopacity="1.0"
     inkscape:pageopacity="0.0"
     inkscape:pageshadow="2"
     inkscape:zoom="1.6848668"
     inkscape:cx="248.03149"
     inkscape:cy="177.16534"
     inkscape:document-units="cm"
     inkscape:current-layer="layer1"
     showgrid="false"
     units="cm"
     inkscape:object-nodes="true"
     inkscape:window-width="1366"
     inkscape:window-height="744"
     inkscape:window-x="0"
     inkscape:window-y="24"
     inkscape:window-maximized="1">
    <inkscape:grid
       type="xygrid"
       id="grid2985"
       empspacing="5"
       visible="true"
       enabled="true"
       snapvisiblegridlinesonly="true" />
  </sodipodi:namedview>
  <defs
     id="defs4">
    <marker
       style="overflow:visible;"
       id="Arrow1Mend"
       refX="0.0"
       refY="0.0"
       orient="auto"
       inkscape:stockid="Arrow1Mend">
      <path
         transform="scale(0.4) rotate(180) translate(10,0)"
         style="fill-rule:evenodd;stroke:#000000;stroke-width:1.0pt;"
         d="M 0.0,0.0 L 5.0,-5.0 L -12.5,0.0 L 5.0,5.0 L 0.0,0.0 z "
         id="path3823" />
    </marker>
  </defs>
  <metadata
     id="metadata7">
    <rdf:RDF>
      <cc:Work
         rdf:about="">
        <dc:format>image/svg+xml</dc:format>
        <dc:type
           rdf:resource="http://purl.org/dc/dcmitype/StillImage" />
        <dc:title></dc:title>
      </cc:Work>
    </rdf:RDF>
  </metadata>
  <g
     inkscape:label="Layer 1"
     inkscape:groupmode="layer"
     id="layer1"
     transform="translate(0,-698.03017)">
    <path
       style="fill:none;stroke:#000000;stroke-width:1;stroke-linecap:butt;stroke-linejoin:round;stroke-miterlimit:4;stroke-opacity:1;stroke-dasharray:none"
       d="m 75,802.36086 -0.252763,-50 35.505533,0 2.41998,5 5,-10 5,10 5,-10 5,10 5,-10 5.02528,10.14251 5,-9.79881 2.55474,4.6563 20,0"
       id="path5037"
       inkscape:connector-curvature="0"
       sodipodi:nodetypes="ccccccccccccc" />
    <path
       style="fill:none;stroke:#000000;stroke-width:1;stroke-linecap:butt;stroke-linejoin:miter;stroke-opacity:1;stroke-miterlimit:4;stroke-dasharray:none"
       d="m 165,752.36086 35,0 0,50"
       id="path3764"
       inkscape:connector-curvature="0" />
    <path
       style="fill:none;stroke:#000000;stroke-width:1;stroke-linecap:butt;stroke-linejoin:miter;stroke-opacity:1;stroke-miterlimit:4;stroke-dasharray:none"
       d="m 190,802.36086 20,0"
       id="path3766"
       inkscape:connector-curvature="0" />
    <path
       sodipodi:type="star"
       style="fill:none;stroke:#000000;stroke-width:1;stroke-linecap:square;stroke-linejoin:round;stroke-miterlimit:4;stroke-opacity:1;stroke-dasharray:none;stroke-dashoffset:0"
       id="path3768"
       sodipodi:sides="3"
       sodipodi:cx="205"
       sodipodi:cy="99.330688"
       sodipodi:r1="10"
       sodipodi:r2="5"
       sodipodi:arg1="1.5707963"
       sodipodi:arg2="2.6179939"
       inkscape:flatsided="false"
       inkscape:rounded="0"
       inkscape:randomized="0"
       d="m 205,109.33069 -4.33013,-7.5 -4.33012,-7.500001 8.66025,-1e-6 8.66025,0 -4.33012,7.500002 z"
       transform="matrix(1,0,0,-1,-5,911.69155)"
       inkscape:transform-center-y="-2.4999967" />
    <path
       inkscape:connector-curvature="0"
       id="path3770"
       d="m 65,802.36086 20,0"
       style="fill:none;stroke:#000000;stroke-width:1;stroke-linecap:butt;stroke-linejoin:miter;stroke-opacity:1;stroke-miterlimit:4;stroke-dasharray:none" />
    <path
       style="fill:none;stroke:#000000;stroke-width:1;stroke-linecap:butt;stroke-linejoin:miter;stroke-miterlimit:4;stroke-opacity:1;stroke-dasharray:none"
       d="m 70,807.78054 10,0"
       id="path3772"
       inkscape:connector-curvature="0" />
    <path
       style="fill:none;stroke:#000000;stroke-width:1;stroke-linecap:butt;stroke-linejoin:miter;stroke-opacity:1;stroke-miterlimit:4;stroke-dasharray:none"
       d="m 75,807.36082 0,55.00004 125,0 0,-45"
       id="path3774"
       inkscape:connector-curvature="0"
       sodipodi:nodetypes="cccc" />
    <g
       style="font-style:normal;font-variant:normal;font-weight:normal;font-stretch:normal;letter-spacing:normal;word-spacing:normal;text-anchor:start;fill:none;stroke:#000000;stroke-width:1;stroke-linecap:butt;stroke-linejoin:miter;stroke-miterlimit:10.43299961;stroke-opacity:1;stroke-dasharray:none;stroke-dashoffset:0"
       id="content"
       transform="matrix(1.2,0,0,-1.2,-142.92482,1592.2313)"
       xml:space="preserve"
       stroke-miterlimit="10.433"
       font-style="normal"
       font-variant="normal"
       font-weight="normal"
       font-stretch="normal"
       font-size-adjust="none"
       letter-spacing="normal"
       word-spacing="normal"
       ns0:text="$R_1$"
       ns0:preamble="/home/sriranga/Desktop/Basic-Electronics-Figures/package.tex"><path
         style="fill:#000000;stroke-width:0"
         inkscape:connector-curvature="0"
         d="m 229.07,707.28 -0.04,0.01 -0.04,0 -0.03,0.01 -0.04,0 -0.04,0.01 -0.03,0.01 -0.03,0.01 -0.03,0.01 -0.03,0.01 -0.03,0.01 -0.03,0.01 -0.03,0.02 -0.03,0.01 -0.02,0.02 -0.03,0.02 -0.02,0.02 -0.03,0.02 -0.02,0.02 -0.02,0.03 -0.02,0.02 -0.02,0.03 -0.03,0.03 -0.02,0.03 -0.02,0.03 -0.01,0.04 -0.02,0.03 -0.02,0.04 -0.02,0.04 -0.02,0.04 -0.02,0.05 -0.02,0.04 -0.01,0.05 -0.93,2.43 c 0.77,0.17 1.1,0.31 1.45,0.63 0.33,0.29 0.51,0.67 0.51,1.12 0,0.92 -0.73,1.43 -2.07,1.43 l -0.21,-0.3 c 0.83,0 1.24,-0.37 1.24,-1.11 0,-0.98 -0.64,-1.49 -1.88,-1.49 -0.16,0 -0.27,0.01 -0.51,0.05 l 0.65,2.28 c 0.06,0.2 0.18,0.27 0.5,0.27 l 0.21,0.3 h -2.47 v -0.16 c 0.42,-0.06 0.47,-0.07 0.57,-0.14 0.08,-0.05 0.14,-0.16 0.14,-0.27 0,-0.12 -0.05,-0.36 -0.12,-0.63 l -1.22,-4.39 c -0.18,-0.59 -0.25,-0.65 -0.81,-0.74 v -0.16 h 2.43 v 0.16 c -0.61,0.08 -0.68,0.13 -0.68,0.46 0,0.1 0.03,0.23 0.12,0.58 l 0.56,2.07 0.65,-0.05 1.22,-3.22 h 1.47 z"
         id="path3790" /><path
         style="fill:#000000;stroke-width:0"
         inkscape:connector-curvature="0"
         d="m 231.55,710.33 -1.26,-0.63 v -0.1 c 0.09,0.04 0.16,0.06 0.19,0.08 0.12,0.05 0.24,0.08 0.31,0.08 0.15,0 0.21,-0.11 0.21,-0.33 v -3.15 c 0,-0.23 -0.05,-0.39 -0.16,-0.45 -0.11,-0.07 -0.21,-0.09 -0.5,-0.1 v -0.1 h 1.92 v 0.1 c -0.55,0.01 -0.66,0.08 -0.66,0.42 v 4.17 z"
         id="path3792" /></g>    <path
       transform="translate(0,698.03017)"
       inkscape:connector-curvature="0"
       id="path3808"
       d="m 115,69.330688 25,0"
       style="fill:none;stroke:#000000;stroke-width:0.8;stroke-linecap:butt;stroke-linejoin:miter;stroke-opacity:1;marker-end:url(#Arrow1Mend);stroke-miterlimit:4;stroke-dasharray:none" />
    <g
       style="font-style:normal;font-variant:normal;font-weight:normal;font-stretch:normal;letter-spacing:normal;word-spacing:normal;text-anchor:start;fill:none;stroke:#000000;stroke-width:1;stroke-linecap:butt;stroke-linejoin:miter;stroke-miterlimit:10.43299961;stroke-opacity:1;stroke-dasharray:none;stroke-dashoffset:0"
       ns0:preamble="/home/sriranga/Desktop/Basic-Electronics-Figures/package.tex"
       ns0:text="$I_R$"
       text-anchor="start"
       word-spacing="normal"
       letter-spacing="normal"
       font-size-adjust="none"
       font-stretch="normal"
       font-weight="normal"
       font-variant="normal"
       font-style="normal"
       fill-opacity="1"
       fill-rule="evenodd"
       fill="none"
       stroke-opacity="1"
       stroke-dashoffset="0"
       stroke-dasharray="none"
       stroke-miterlimit="10.433"
       stroke-linejoin="miter"
       stroke-linecap="butt"
       stroke="black"
       xml:space="preserve"
       transform="matrix(1.2,0,0,-1.2,-125.32619,1619.0483)"
       id="g4279"><path
         id="path4281"
         fill="black"
         stroke-width="0"
         d="M223.6,707.12 H226.03 V707.28 C225.46,707.35,225.35,707.41,225.35,707.69 C225.35,707.88,225.37,708,225.46,708.32 L226.69,712.72 C226.87,713.29,226.93,713.35,227.5,713.45 V713.61 H225.04 V713.45 C225.62,713.38,225.74,713.3,225.74,713.03 C225.74,712.89,225.7,712.66,225.63,712.41 L224.41,708.02 C224.23,707.44,224.16,707.38,223.6,707.28 Z " /><path
         id="path4283"
         fill="black"
         stroke-width="0"
         d="M230.95,705.74 L230.92,705.74 L230.89,705.75 L230.87,705.75 L230.84,705.75 L230.82,705.76 L230.79,705.77 L230.77,705.77 L230.75,705.78 L230.73,705.79 L230.7,705.79 L230.68,705.8 L230.67,705.81 L230.65,705.83 L230.63,705.84 L230.61,705.85 L230.59,705.86 L230.58,705.88 L230.56,705.9 L230.55,705.91 L230.53,705.93 L230.52,705.95 L230.5,705.97 L230.49,705.99 L230.47,706.01 L230.46,706.04 L230.45,706.06 L230.43,706.09 L230.42,706.12 L230.41,706.15 L230.39,706.18 L230.38,706.21 L230.37,706.24 L229.72,707.95 C230.26,708.07,230.49,708.16,230.74,708.39 C230.97,708.59,231.09,708.86,231.09,709.17 C231.09,709.82,230.58,710.17,229.65,710.17 L229.5,709.96 C230.08,709.96,230.36,709.7,230.36,709.18 C230.36,708.5,229.92,708.14,229.05,708.14 C228.93,708.14,228.86,708.15,228.69,708.18 L229.14,709.77 C229.19,709.91,229.28,709.96,229.5,709.96 L229.65,710.17 H227.92 V710.06 C228.21,710.02,228.25,710.01,228.32,709.96 C228.37,709.93,228.41,709.84,228.41,709.77 C228.41,709.68,228.38,709.52,228.33,709.33 L227.47,706.26 C227.35,705.85,227.3,705.8,226.91,705.74 V705.63 H228.61 V705.74 C228.18,705.8,228.13,705.83,228.13,706.06 C228.13,706.13,228.15,706.22,228.22,706.47 L228.61,707.92 L229.06,707.88 L229.92,705.63 H230.95 Z " /></g>    <g
       id="g4333"
       transform="matrix(1.2,0,0,-1.2,-52.836605,1663.0449)"
       xml:space="preserve"
       stroke="black"
       stroke-linecap="butt"
       stroke-linejoin="miter"
       stroke-miterlimit="10.433"
       stroke-dasharray="none"
       stroke-dashoffset="0"
       stroke-opacity="1"
       fill="none"
       fill-rule="evenodd"
       fill-opacity="1"
       font-style="normal"
       font-variant="normal"
       font-weight="normal"
       font-stretch="normal"
       font-size-adjust="none"
       letter-spacing="normal"
       word-spacing="normal"
       text-anchor="start"
       ns0:text="$V_R$"
       ns0:preamble="/home/sriranga/Desktop/Basic-Electronics-Figures/package.tex"
       style="font-style:normal;font-variant:normal;font-weight:normal;font-stretch:normal;letter-spacing:normal;word-spacing:normal;text-anchor:start;fill:none;stroke:#000000;stroke-width:1;stroke-linecap:butt;stroke-linejoin:miter;stroke-miterlimit:10.43299961;stroke-opacity:1;stroke-dasharray:none;stroke-dashoffset:0"><path
         d="M230.28,713.61 H228.43 V713.45 C228.87,713.4,229.05,713.3,229.05,713.11 C229.05,712.93,228.86,712.5,228.54,711.93 L226.49,708.4 L225.83,712.8 C225.82,712.85,225.82,712.89,225.82,712.95 C225.82,713.28,225.96,713.38,226.59,713.45 V713.61 H224.19 V713.45 C224.74,713.38,224.76,713.35,224.97,712.11 L225.82,706.95 H226.01 L229.72,713.05 C229.89,713.32,230.05,713.44,230.28,713.45 Z "
         stroke-width="0"
         fill="black"
         id="path4335" /><path
         d="M233.47,705.74 L233.44,705.74 L233.41,705.75 L233.39,705.75 L233.36,705.75 L233.34,705.76 L233.31,705.77 L233.29,705.77 L233.27,705.78 L233.25,705.79 L233.22,705.79 L233.2,705.8 L233.19,705.81 L233.17,705.83 L233.15,705.84 L233.13,705.85 L233.11,705.86 L233.1,705.88 L233.08,705.9 L233.07,705.91 L233.05,705.93 L233.04,705.95 L233.02,705.97 L233.01,705.99 L232.99,706.01 L232.98,706.04 L232.97,706.06 L232.95,706.09 L232.94,706.12 L232.93,706.15 L232.91,706.18 L232.9,706.21 L232.89,706.24 L232.24,707.95 C232.78,708.07,233.01,708.16,233.26,708.39 C233.49,708.59,233.61,708.86,233.61,709.17 C233.61,709.82,233.1,710.17,232.16,710.17 L232.02,709.96 C232.6,709.96,232.88,709.7,232.88,709.18 C232.88,708.5,232.44,708.14,231.57,708.14 C231.46,708.14,231.38,708.15,231.21,708.18 L231.66,709.77 C231.71,709.91,231.8,709.96,232.02,709.96 L232.16,710.17 H230.44 V710.06 C230.73,710.02,230.77,710.01,230.84,709.96 C230.89,709.93,230.93,709.84,230.93,709.77 C230.93,709.68,230.9,709.52,230.85,709.33 L229.99,706.26 C229.87,705.85,229.82,705.8,229.43,705.74 V705.63 H231.13 V705.74 C230.7,705.8,230.65,705.83,230.65,706.06 C230.65,706.13,230.68,706.22,230.74,706.47 L231.13,707.92 L231.58,707.88 L232.44,705.63 H233.47 Z "
         stroke-width="0"
         fill="black"
         id="path4337" /></g>    <g
       style="font-style:normal;font-variant:normal;font-weight:normal;font-stretch:normal;letter-spacing:normal;word-spacing:normal;text-anchor:start;fill:none;stroke:#000000;stroke-width:1;stroke-linecap:butt;stroke-linejoin:miter;stroke-miterlimit:10.43299961;stroke-opacity:1;stroke-dasharray:none;stroke-dashoffset:0"
       ns0:preamble="/home/sriranga/Desktop/Basic-Electronics-Figures/package.tex"
       ns0:text="$+$"
       word-spacing="normal"
       letter-spacing="normal"
       font-size-adjust="none"
       font-stretch="normal"
       font-weight="normal"
       font-variant="normal"
       font-style="normal"
       stroke-miterlimit="10.433"
       xml:space="preserve"
       transform="matrix(1.2,0,0,-1.2,-63.722726,1646.4303)"
       id="g4411"><polygon
         id="polygon4413"
         points="224.05,709.96 224.05,709.4 226.32,709.4 226.32,707.12 226.87,707.12 226.87,709.4 229.14,709.4 229.14,709.96 226.87,709.96 226.87,712.2 226.32,712.2 226.32,709.96 "
         style="fill:#000000;stroke-width:0" /></g>    <g
       id="g4471"
       transform="matrix(1.2,0,0,-1.2,-63.722726,1677.5406)"
       xml:space="preserve"
       stroke="black"
       stroke-linecap="butt"
       stroke-linejoin="miter"
       stroke-miterlimit="10.433"
       stroke-dasharray="none"
       stroke-dashoffset="0"
       stroke-opacity="1"
       fill="none"
       fill-rule="evenodd"
       fill-opacity="1"
       font-style="normal"
       font-variant="normal"
       font-weight="normal"
       font-stretch="normal"
       font-size-adjust="none"
       letter-spacing="normal"
       word-spacing="normal"
       text-anchor="start"
       ns0:text="$-$"
       ns0:preamble="/home/sriranga/Desktop/Basic-Electronics-Figures/package.tex"
       style="font-style:normal;font-variant:normal;font-weight:normal;font-stretch:normal;letter-spacing:normal;word-spacing:normal;text-anchor:start;fill:none;stroke:#000000;stroke-width:1;stroke-linecap:butt;stroke-linejoin:miter;stroke-miterlimit:10.43299961;stroke-opacity:1;stroke-dasharray:none;stroke-dashoffset:0"><polygon
         points="229.14,709.4 229.14,709.96 224.05,709.96 224.05,709.4 "
         stroke-width="0"
         fill="black"
         id="polygon4473" /></g>    <g
       style="font-style:normal;font-variant:normal;font-weight:normal;font-stretch:normal;letter-spacing:normal;word-spacing:normal;text-anchor:start;fill:none;stroke:#000000;stroke-width:1;stroke-linecap:butt;stroke-linejoin:miter;stroke-miterlimit:10.43299961;stroke-opacity:1;stroke-dasharray:none;stroke-dashoffset:0"
       ns0:preamble="/home/sriranga/Desktop/Basic-Electronics-Figures/package.tex"
       ns0:text="$V_S$"
       word-spacing="normal"
       letter-spacing="normal"
       font-size-adjust="none"
       font-stretch="normal"
       font-weight="normal"
       font-variant="normal"
       font-style="normal"
       stroke-miterlimit="10.433"
       xml:space="preserve"
       transform="matrix(1.2,0,0,-1.2,-219.60455,1656.5308)"
       id="g4537"><path
         id="path4539"
         d="m 230.28,713.61 h -1.85 v -0.16 c 0.44,-0.05 0.62,-0.15 0.62,-0.34 0,-0.18 -0.19,-0.61 -0.51,-1.18 l -2.05,-3.53 -0.66,4.4 c -0.01,0.05 -0.01,0.09 -0.01,0.15 0,0.33 0.14,0.43 0.77,0.5 v 0.16 h -2.4 v -0.16 c 0.55,-0.07 0.57,-0.1 0.78,-1.34 l 0.85,-5.16 h 0.19 l 3.71,6.1 c 0.17,0.27 0.33,0.39 0.56,0.4 z"
         inkscape:connector-curvature="0"
         style="fill:#000000;stroke-width:0" /><path
         id="path4541"
         d="m 232.78,708.89 0.28,1.38 h -0.16 c -0.1,-0.15 -0.16,-0.18 -0.32,-0.18 -0.08,0 -0.16,0.02 -0.32,0.07 -0.15,0.07 -0.37,0.1 -0.59,0.1 -0.72,0 -1.24,-0.48 -1.24,-1.16 0,-0.38 0.11,-0.58 0.52,-1.02 0.07,-0.06 0.16,-0.16 0.28,-0.29 0.12,-0.14 0.22,-0.24 0.27,-0.3 0.32,-0.34 0.41,-0.52 0.41,-0.82 0,-0.52 -0.39,-0.92 -0.89,-0.92 -0.58,0 -1.02,0.49 -1.02,1.15 0,0.06 0.01,0.12 0.01,0.16 l -0.14,0.02 -0.23,-1.55 h 0.12 c 0.05,0.16 0.13,0.23 0.27,0.23 0.07,0 0.18,-0.03 0.36,-0.09 0.32,-0.12 0.51,-0.16 0.72,-0.16 0.8,0 1.41,0.6 1.41,1.39 0,0.45 -0.16,0.72 -0.79,1.35 -0.62,0.64 -0.69,0.73 -0.69,1.07 0,0.44 0.3,0.71 0.77,0.71 0.26,0 0.47,-0.09 0.62,-0.25 0.15,-0.18 0.21,-0.42 0.22,-0.87 z"
         inkscape:connector-curvature="0"
         style="fill:#000000;stroke-width:0" /></g>    <path
       style="fill:none;stroke:#000000;stroke-width:1;stroke-linecap:butt;stroke-linejoin:miter;stroke-opacity:1;marker-end:url(#Arrow1Mend);stroke-miterlimit:4;stroke-dasharray:none"
       d="m 470,802.36086 -180,0"
       id="path4573"
       inkscape:connector-curvature="0" />
    <path
       inkscape:connector-curvature="0"
       id="path4575"
       d="m 420,751.94698 0,145.41388"
       style="fill:none;stroke:#000000;stroke-width:1;stroke-linecap:butt;stroke-linejoin:miter;stroke-opacity:1;marker-end:url(#Arrow1Mend);stroke-miterlimit:4;stroke-dasharray:none"
       sodipodi:nodetypes="cc" />
    <path
       transform="translate(0,698.03017)"
       style="fill:none;stroke:#000000;stroke-width:1.5;stroke-linecap:square;stroke-linejoin:round;stroke-miterlimit:4;stroke-opacity:1;stroke-dasharray:none;stroke-dashoffset:0"
       d="m 320,189.33069 0,-70 c 0,-2.77 2.23,-5 5,-5 l 94.70324,0"
       id="rect4577"
       inkscape:connector-curvature="0"
       sodipodi:nodetypes="cssc" />
    <path
       inkscape:connector-curvature="0"
       id="path4580"
       d="m 320,802.36086 0,20"
       style="fill:none;stroke:#000000;stroke-width:1;stroke-linecap:butt;stroke-linejoin:miter;stroke-opacity:1;stroke-miterlimit:4;stroke-dasharray:3,3;stroke-dashoffset:0" />
    <g
       style="font-style:normal;font-variant:normal;font-weight:normal;font-stretch:normal;letter-spacing:normal;word-spacing:normal;text-anchor:start;fill:none;stroke:#000000;stroke-width:1;stroke-linecap:butt;stroke-linejoin:miter;stroke-miterlimit:10.43299961;stroke-opacity:1;stroke-dasharray:none;stroke-dashoffset:0"
       ns0:preamble="/home/sriranga/Desktop/Basic-Electronics-Figures/package.tex"
       ns0:text="$V_R$"
       word-spacing="normal"
       letter-spacing="normal"
       font-size-adjust="none"
       font-stretch="normal"
       font-weight="normal"
       font-variant="normal"
       font-style="normal"
       stroke-miterlimit="10.433"
       xml:space="preserve"
       transform="matrix(1.2,0,0,-1.2,7.0825316,1656.7597)"
       id="g4582"><path
         id="path4584"
         d="m 230.28,713.61 h -1.85 v -0.16 c 0.44,-0.05 0.62,-0.15 0.62,-0.34 0,-0.18 -0.19,-0.61 -0.51,-1.18 l -2.05,-3.53 -0.66,4.4 c -0.01,0.05 -0.01,0.09 -0.01,0.15 0,0.33 0.14,0.43 0.77,0.5 v 0.16 h -2.4 v -0.16 c 0.55,-0.07 0.57,-0.1 0.78,-1.34 l 0.85,-5.16 h 0.19 l 3.71,6.1 c 0.17,0.27 0.33,0.39 0.56,0.4 z"
         inkscape:connector-curvature="0"
         style="fill:#000000;stroke-width:0" /><path
         id="path4586"
         d="m 233.47,705.74 -0.03,0 -0.03,0.01 -0.02,0 -0.03,0 -0.02,0.01 -0.03,0.01 -0.02,0 -0.02,0.01 -0.02,0.01 -0.03,0 -0.02,0.01 -0.01,0.01 -0.02,0.02 -0.02,0.01 -0.02,0.01 -0.02,0.01 -0.01,0.02 -0.02,0.02 -0.01,0.01 -0.02,0.02 -0.01,0.02 -0.02,0.02 -0.01,0.02 -0.02,0.02 -0.01,0.03 -0.01,0.02 -0.02,0.03 -0.01,0.03 -0.01,0.03 -0.02,0.03 -0.01,0.03 -0.01,0.03 -0.65,1.71 c 0.54,0.12 0.77,0.21 1.02,0.44 0.23,0.2 0.35,0.47 0.35,0.78 0,0.65 -0.51,1 -1.45,1 l -0.14,-0.21 c 0.58,0 0.86,-0.26 0.86,-0.78 0,-0.68 -0.44,-1.04 -1.31,-1.04 -0.11,0 -0.19,0.01 -0.36,0.04 l 0.45,1.59 c 0.05,0.14 0.14,0.19 0.36,0.19 l 0.14,0.21 h -1.72 v -0.11 c 0.29,-0.04 0.33,-0.05 0.4,-0.1 0.05,-0.03 0.09,-0.12 0.09,-0.19 0,-0.09 -0.03,-0.25 -0.08,-0.44 l -0.86,-3.07 c -0.12,-0.41 -0.17,-0.46 -0.56,-0.52 v -0.11 h 1.7 v 0.11 c -0.43,0.06 -0.48,0.09 -0.48,0.32 0,0.07 0.03,0.16 0.09,0.41 l 0.39,1.45 0.45,-0.04 0.86,-2.25 h 1.03 z"
         inkscape:connector-curvature="0"
         style="fill:#000000;stroke-width:0" /></g>    <g
       id="g4633"
       transform="matrix(1.2,0,0,-1.2,155.55512,1665.2693)"
       xml:space="preserve"
       stroke="black"
       stroke-linecap="butt"
       stroke-linejoin="miter"
       stroke-miterlimit="10.433"
       stroke-dasharray="none"
       stroke-dashoffset="0"
       stroke-opacity="1"
       fill="none"
       fill-rule="evenodd"
       fill-opacity="1"
       font-style="normal"
       font-variant="normal"
       font-weight="normal"
       font-stretch="normal"
       font-size-adjust="none"
       letter-spacing="normal"
       word-spacing="normal"
       text-anchor="start"
       ns0:text="$I_S$"
       ns0:preamble="/home/sriranga/Desktop/Basic-Electronics-Figures/package.tex"
       style="font-style:normal;font-variant:normal;font-weight:normal;font-stretch:normal;letter-spacing:normal;word-spacing:normal;text-anchor:start;fill:none;stroke:#000000;stroke-width:1;stroke-linecap:butt;stroke-linejoin:miter;stroke-miterlimit:10.43299961;stroke-opacity:1;stroke-dasharray:none;stroke-dashoffset:0"><path
         d="M223.6,707.12 H226.03 V707.28 C225.46,707.35,225.35,707.41,225.35,707.69 C225.35,707.88,225.37,708,225.46,708.32 L226.69,712.72 C226.87,713.29,226.93,713.35,227.5,713.45 V713.61 H225.04 V713.45 C225.62,713.38,225.74,713.3,225.74,713.03 C225.74,712.89,225.7,712.66,225.63,712.41 L224.41,708.02 C224.23,707.44,224.16,707.38,223.6,707.28 Z "
         stroke-width="0"
         fill="black"
         id="path4635" /><path
         d="M230.26,708.89 L230.54,710.27 H230.38 C230.28,710.12,230.22,710.09,230.06,710.09 C229.98,710.09,229.9,710.11,229.74,710.16 C229.59,710.23,229.37,710.26,229.15,710.26 C228.43,710.26,227.91,709.78,227.91,709.1 C227.91,708.72,228.02,708.52,228.43,708.08 C228.5,708.02,228.59,707.92,228.71,707.79 C228.83,707.65,228.93,707.55,228.98,707.49 C229.3,707.15,229.4,706.97,229.4,706.67 C229.4,706.15,229.01,705.75,228.5,705.75 C227.92,705.75,227.48,706.24,227.48,706.9 C227.48,706.96,227.49,707.02,227.49,707.06 L227.35,707.08 L227.12,705.53 H227.24 C227.29,705.69,227.37,705.76,227.51,705.76 C227.58,705.76,227.69,705.73,227.87,705.67 C228.19,705.55,228.38,705.51,228.59,705.51 C229.4,705.51,230,706.11,230,706.9 C230,707.35,229.84,707.62,229.21,708.25 C228.59,708.89,228.52,708.98,228.52,709.32 C228.52,709.76,228.82,710.03,229.29,710.03 C229.55,710.03,229.76,709.94,229.91,709.78 C230.06,709.6,230.12,709.36,230.13,708.91 Z "
         stroke-width="0"
         fill="black"
         id="path4637" /></g>    <g
       id="g4679"
       transform="matrix(1.2,0,0,-1.2,156.1477,1750.8763)"
       xml:space="preserve"
       stroke-miterlimit="10.433"
       font-style="normal"
       font-variant="normal"
       font-weight="normal"
       font-stretch="normal"
       font-size-adjust="none"
       letter-spacing="normal"
       word-spacing="normal"
       ns0:text="$I_R$"
       ns0:preamble="/home/sriranga/Desktop/Basic-Electronics-Figures/package.tex"
       style="font-style:normal;font-variant:normal;font-weight:normal;font-stretch:normal;letter-spacing:normal;word-spacing:normal;text-anchor:start;fill:none;stroke:#000000;stroke-width:1;stroke-linecap:butt;stroke-linejoin:miter;stroke-miterlimit:10.43299961;stroke-opacity:1;stroke-dasharray:none;stroke-dashoffset:0"><path
         style="fill:#000000;stroke-width:0"
         inkscape:connector-curvature="0"
         d="m 223.6,707.12 h 2.43 v 0.16 c -0.57,0.07 -0.68,0.13 -0.68,0.41 0,0.19 0.02,0.31 0.11,0.63 l 1.23,4.4 c 0.18,0.57 0.24,0.63 0.81,0.73 v 0.16 h -2.46 v -0.16 c 0.58,-0.07 0.7,-0.15 0.7,-0.42 0,-0.14 -0.04,-0.37 -0.11,-0.62 l -1.22,-4.39 c -0.18,-0.58 -0.25,-0.64 -0.81,-0.74 z"
         id="path4681" /><path
         style="fill:#000000;stroke-width:0"
         inkscape:connector-curvature="0"
         d="m 230.95,705.74 -0.03,0 -0.03,0.01 -0.02,0 -0.03,0 -0.02,0.01 -0.03,0.01 -0.02,0 -0.02,0.01 -0.02,0.01 -0.03,0 -0.02,0.01 -0.01,0.01 -0.02,0.02 -0.02,0.01 -0.02,0.01 -0.02,0.01 -0.01,0.02 -0.02,0.02 -0.01,0.01 -0.02,0.02 -0.01,0.02 -0.02,0.02 -0.01,0.02 -0.02,0.02 -0.01,0.03 -0.01,0.02 -0.02,0.03 -0.01,0.03 -0.01,0.03 -0.02,0.03 -0.01,0.03 -0.01,0.03 -0.65,1.71 c 0.54,0.12 0.77,0.21 1.02,0.44 0.23,0.2 0.35,0.47 0.35,0.78 0,0.65 -0.51,1 -1.44,1 l -0.15,-0.21 c 0.58,0 0.86,-0.26 0.86,-0.78 0,-0.68 -0.44,-1.04 -1.31,-1.04 -0.12,0 -0.19,0.01 -0.36,0.04 l 0.45,1.59 c 0.05,0.14 0.14,0.19 0.36,0.19 l 0.15,0.21 h -1.73 v -0.11 c 0.29,-0.04 0.33,-0.05 0.4,-0.1 0.05,-0.03 0.09,-0.12 0.09,-0.19 0,-0.09 -0.03,-0.25 -0.08,-0.44 l -0.86,-3.07 c -0.12,-0.41 -0.17,-0.46 -0.56,-0.52 v -0.11 h 1.7 v 0.11 c -0.43,0.06 -0.48,0.09 -0.48,0.32 0,0.07 0.02,0.16 0.09,0.41 l 0.39,1.45 0.45,-0.04 0.86,-2.25 h 1.03 z"
         id="path4683" /></g>    <g
       style="font-style:normal;font-variant:normal;font-weight:normal;font-stretch:normal;letter-spacing:normal;word-spacing:normal;text-anchor:start;fill:none;stroke:#000000;stroke-width:1;stroke-linecap:butt;stroke-linejoin:miter;stroke-miterlimit:10.43299961;stroke-opacity:1;stroke-dasharray:none;stroke-dashoffset:0"
       ns0:preamble="/home/sriranga/Desktop/Basic-Electronics-Figures/package.tex"
       ns0:text="$V_{BR}$"
       word-spacing="normal"
       letter-spacing="normal"
       font-size-adjust="none"
       font-stretch="normal"
       font-weight="normal"
       font-variant="normal"
       font-style="normal"
       stroke-miterlimit="10.433"
       xml:space="preserve"
       transform="matrix(1.2,0,0,-1.2,44.711146,1645.2044)"
       id="g4736"><path
         id="path4738"
         d="m 230.28,713.61 h -1.85 v -0.16 c 0.44,-0.05 0.62,-0.15 0.62,-0.34 0,-0.18 -0.19,-0.61 -0.51,-1.18 l -2.05,-3.53 -0.66,4.4 c -0.01,0.05 -0.01,0.09 -0.01,0.15 0,0.33 0.14,0.43 0.77,0.5 v 0.16 h -2.4 v -0.16 c 0.55,-0.07 0.57,-0.1 0.78,-1.34 l 0.85,-5.16 h 0.19 l 3.71,6.1 c 0.17,0.27 0.33,0.39 0.56,0.4 z"
         inkscape:connector-curvature="0"
         style="fill:#000000;stroke-width:0" /><path
         id="path4740"
         d="m 229.71,705.63 h 1.96 c 1.09,0 1.85,0.57 1.85,1.39 0,0.26 -0.09,0.5 -0.24,0.65 -0.14,0.17 -0.28,0.25 -0.64,0.4 0.49,0.12 0.7,0.2 0.92,0.4 0.19,0.17 0.3,0.4 0.3,0.68 0,0.66 -0.5,1.02 -1.4,1.02 l -0.12,-0.21 c 0.56,0 0.81,-0.23 0.81,-0.75 0,-0.39 -0.16,-0.7 -0.46,-0.87 -0.24,-0.14 -0.57,-0.18 -1.2,-0.18 l -0.07,-0.23 c 0.45,0 0.75,-0.02 0.88,-0.08 0.29,-0.12 0.46,-0.43 0.46,-0.8 0,-0.75 -0.51,-1.21 -1.36,-1.21 -0.29,0 -0.45,0.1 -0.45,0.29 0,0.09 0.09,0.42 0.25,0.97 0.09,0.32 0.13,0.48 0.22,0.83 h 0 l 0.07,0.23 0.45,1.61 c 0.05,0.15 0.13,0.19 0.4,0.19 l 0.12,0.21 h -1.79 v -0.11 c 0.43,-0.03 0.54,-0.09 0.54,-0.28 0,-0.11 -0.03,-0.28 -0.08,-0.45 l -0.86,-3.07 c -0.12,-0.41 -0.17,-0.45 -0.56,-0.52 z"
         inkscape:connector-curvature="0"
         style="fill:#000000;stroke-width:0" /><path
         id="path4742"
         d="m 237.9,705.74 -0.03,0 -0.02,0.01 -0.03,0 -0.02,0 -0.03,0.01 -0.02,0.01 -0.03,0 -0.02,0.01 -0.02,0.01 -0.02,0 -0.02,0.01 -0.02,0.01 -0.02,0.02 -0.02,0.01 -0.01,0.01 -0.02,0.01 -0.02,0.02 -0.01,0.02 -0.02,0.01 -0.01,0.02 -0.02,0.02 -0.01,0.02 -0.02,0.02 -0.01,0.02 -0.02,0.03 -0.01,0.02 -0.01,0.03 -0.01,0.03 -0.02,0.03 -0.01,0.03 -0.01,0.03 -0.02,0.03 -0.64,1.71 c 0.53,0.12 0.76,0.21 1.01,0.44 0.23,0.2 0.36,0.47 0.36,0.78 0,0.65 -0.52,1 -1.45,1 l -0.15,-0.21 c 0.58,0 0.87,-0.26 0.87,-0.78 0,-0.68 -0.45,-1.04 -1.32,-1.04 -0.11,0 -0.19,0.01 -0.35,0.04 l 0.45,1.59 c 0.04,0.14 0.13,0.19 0.35,0.19 l 0.15,0.21 h -1.73 v -0.11 c 0.3,-0.04 0.33,-0.05 0.4,-0.1 0.06,-0.03 0.1,-0.12 0.1,-0.19 0,-0.09 -0.04,-0.25 -0.09,-0.44 l -0.85,-3.07 c -0.13,-0.41 -0.18,-0.46 -0.57,-0.52 v -0.11 h 1.7 v 0.11 c -0.42,0.06 -0.47,0.09 -0.47,0.32 0,0.07 0.02,0.16 0.08,0.41 l 0.39,1.45 0.46,-0.04 0.85,-2.25 h 1.03 z"
         inkscape:connector-curvature="0"
         style="fill:#000000;stroke-width:0" /></g>    <text
       xml:space="preserve"
       style="font-size:12px;font-style:normal;font-variant:normal;font-weight:normal;font-stretch:normal;text-align:center;line-height:125%;letter-spacing:0px;word-spacing:0px;text-anchor:middle;fill:#000000;fill-opacity:1;stroke:none;font-family:LMRoman12;-inkscape-font-specification:Sans"
       x="131.16763"
       y="224.35008"
       id="text4791"
       sodipodi:linespacing="125%"
       transform="translate(0,698.03017)"><tspan
         sodipodi:role="line"
         id="tspan4793"
         x="131.16763"
         y="224.35008">(a)</tspan></text>
    <text
       sodipodi:linespacing="125%"
       id="text4795"
       y="922.38025"
       x="363.16763"
       style="font-size:12px;font-style:normal;font-variant:normal;font-weight:normal;font-stretch:normal;text-align:center;line-height:125%;letter-spacing:0px;word-spacing:0px;text-anchor:middle;fill:#000000;fill-opacity:1;stroke:none;font-family:LMRoman12;-inkscape-font-specification:Sans"
       xml:space="preserve"><tspan
         y="922.38025"
         x="363.16763"
         id="tspan4797"
         sodipodi:role="line">(b)</tspan></text>
  </g>
</svg>
