<?xml version="1.0" encoding="UTF-8" standalone="no"?>
<!-- Created with Inkscape (http://www.inkscape.org/) -->

<svg
   xmlns:ns0="http://www.iki.fi/pav/software/textext/"
   xmlns:dc="http://purl.org/dc/elements/1.1/"
   xmlns:cc="http://creativecommons.org/ns#"
   xmlns:rdf="http://www.w3.org/1999/02/22-rdf-syntax-ns#"
   xmlns:svg="http://www.w3.org/2000/svg"
   xmlns="http://www.w3.org/2000/svg"
   xmlns:sodipodi="http://sodipodi.sourceforge.net/DTD/sodipodi-0.dtd"
   xmlns:inkscape="http://www.inkscape.org/namespaces/inkscape"
   width="496.06299"
   height="354.33069"
   id="svg2"
   version="1.1"
   inkscape:version="0.48.4 r9939"
   sodipodi:docname="fig1.21.eps">
  <sodipodi:namedview
     id="base"
     pagecolor="#ffffff"
     bordercolor="#666666"
     borderopacity="1.0"
     inkscape:pageopacity="0.0"
     inkscape:pageshadow="2"
     inkscape:zoom="1.6848668"
     inkscape:cx="248.03149"
     inkscape:cy="177.16534"
     inkscape:document-units="cm"
     inkscape:current-layer="layer1"
     showgrid="false"
     units="cm"
     inkscape:object-nodes="true"
     inkscape:window-width="1366"
     inkscape:window-height="744"
     inkscape:window-x="0"
     inkscape:window-y="24"
     inkscape:window-maximized="1">
    <inkscape:grid
       type="xygrid"
       id="grid2985"
       empspacing="5"
       visible="true"
       enabled="true"
       snapvisiblegridlinesonly="true" />
  </sodipodi:namedview>
  <defs
     id="defs4">
    <marker
       style="overflow:visible;"
       id="Arrow1Mend"
       refX="0.0"
       refY="0.0"
       orient="auto"
       inkscape:stockid="Arrow1Mend">
      <path
         transform="scale(0.4) rotate(180) translate(10,0)"
         style="fill-rule:evenodd;stroke:#000000;stroke-width:1.0pt;"
         d="M 0.0,0.0 L 5.0,-5.0 L -12.5,0.0 L 5.0,5.0 L 0.0,0.0 z "
         id="path3823" />
    </marker>
  </defs>
  <metadata
     id="metadata7">
    <rdf:RDF>
      <cc:Work
         rdf:about="">
        <dc:format>image/svg+xml</dc:format>
        <dc:type
           rdf:resource="http://purl.org/dc/dcmitype/StillImage" />
        <dc:title></dc:title>
      </cc:Work>
    </rdf:RDF>
  </metadata>
  <g
     inkscape:label="Layer 1"
     inkscape:groupmode="layer"
     id="layer1"
     transform="translate(0,-698.03017)">
    <path
       style="fill:none;stroke:#000000;stroke-width:1;stroke-linecap:butt;stroke-linejoin:miter;stroke-miterlimit:4;stroke-opacity:1;stroke-dasharray:none;marker-end:url(#Arrow1Mend)"
       d="m 65,802.36086 238.49519,0"
       id="path4573"
       inkscape:connector-curvature="0" />
    <path
       inkscape:connector-curvature="0"
       id="path4575"
       d="m 80,867.36086 0,-160"
       style="fill:none;stroke:#000000;stroke-width:1;stroke-linecap:butt;stroke-linejoin:miter;stroke-miterlimit:4;stroke-opacity:1;stroke-dasharray:none;marker-end:url(#Arrow1Mend)"
       sodipodi:nodetypes="cc" />
    <g
       id="g4679"
       transform="matrix(1.2,0,0,-1.2,-203.58169,1888.3354)"
       xml:space="preserve"
       stroke-miterlimit="10.433"
       font-style="normal"
       font-variant="normal"
       font-weight="normal"
       font-stretch="normal"
       font-size-adjust="none"
       letter-spacing="normal"
       word-spacing="normal"
       ns0:text="$I_R$"
       ns0:preamble="/home/sriranga/Desktop/Basic-Electronics-Figures/package.tex"
       style="font-style:normal;font-variant:normal;font-weight:normal;font-stretch:normal;letter-spacing:normal;word-spacing:normal;text-anchor:start;fill:none;stroke:#000000;stroke-width:1;stroke-linecap:butt;stroke-linejoin:miter;stroke-miterlimit:10.43299961;stroke-opacity:1;stroke-dasharray:none;stroke-dashoffset:0"><path
         style="fill:#000000;stroke-width:0"
         inkscape:connector-curvature="0"
         d="m 223.6,707.12 h 2.43 v 0.16 c -0.57,0.07 -0.68,0.13 -0.68,0.41 0,0.19 0.02,0.31 0.11,0.63 l 1.23,4.4 c 0.18,0.57 0.24,0.63 0.81,0.73 v 0.16 h -2.46 v -0.16 c 0.58,-0.07 0.7,-0.15 0.7,-0.42 0,-0.14 -0.04,-0.37 -0.11,-0.62 l -1.22,-4.39 c -0.18,-0.58 -0.25,-0.64 -0.81,-0.74 z"
         id="path4681" /><path
         style="fill:#000000;stroke-width:0"
         inkscape:connector-curvature="0"
         d="m 230.95,705.74 -0.03,0 -0.03,0.01 -0.02,0 -0.03,0 -0.02,0.01 -0.03,0.01 -0.02,0 -0.02,0.01 -0.02,0.01 -0.03,0 -0.02,0.01 -0.01,0.01 -0.02,0.02 -0.02,0.01 -0.02,0.01 -0.02,0.01 -0.01,0.02 -0.02,0.02 -0.01,0.01 -0.02,0.02 -0.01,0.02 -0.02,0.02 -0.01,0.02 -0.02,0.02 -0.01,0.03 -0.01,0.02 -0.02,0.03 -0.01,0.03 -0.01,0.03 -0.02,0.03 -0.01,0.03 -0.01,0.03 -0.65,1.71 c 0.54,0.12 0.77,0.21 1.02,0.44 0.23,0.2 0.35,0.47 0.35,0.78 0,0.65 -0.51,1 -1.44,1 l -0.15,-0.21 c 0.58,0 0.86,-0.26 0.86,-0.78 0,-0.68 -0.44,-1.04 -1.31,-1.04 -0.12,0 -0.19,0.01 -0.36,0.04 l 0.45,1.59 c 0.05,0.14 0.14,0.19 0.36,0.19 l 0.15,0.21 h -1.73 v -0.11 c 0.29,-0.04 0.33,-0.05 0.4,-0.1 0.05,-0.03 0.09,-0.12 0.09,-0.19 0,-0.09 -0.03,-0.25 -0.08,-0.44 l -0.86,-3.07 c -0.12,-0.41 -0.17,-0.46 -0.56,-0.52 v -0.11 h 1.7 v 0.11 c -0.43,0.06 -0.48,0.09 -0.48,0.32 0,0.07 0.02,0.16 0.09,0.41 l 0.39,1.45 0.45,-0.04 0.86,-2.25 h 1.03 z"
         id="path4683" /></g>    <path
       inkscape:connector-curvature="0"
       id="path3005"
       d="m 60,962.36086 245,0"
       style="fill:none;stroke:#000000;stroke-width:1;stroke-linecap:butt;stroke-linejoin:miter;stroke-miterlimit:4;stroke-opacity:1;stroke-dasharray:none;marker-end:url(#Arrow1Mend)" />
    <path
       sodipodi:nodetypes="cc"
       style="fill:none;stroke:#000000;stroke-width:1;stroke-linecap:butt;stroke-linejoin:miter;stroke-miterlimit:4;stroke-opacity:1;stroke-dasharray:none;marker-end:url(#Arrow1Mend)"
       d="M 80,1041.869 80,862.3609"
       id="path3007"
       inkscape:connector-curvature="0" />
    <path
       sodipodi:nodetypes="cccccc"
       transform="translate(0,698.03017)"
       inkscape:connector-curvature="0"
       id="path3009"
       d="m 80,39.330688 70,0 0,65.000002 0,40 70,0 0,-40"
       style="fill:none;stroke:#000000;stroke-width:1.50000000000000000;stroke-linecap:butt;stroke-linejoin:round;stroke-miterlimit:3.86369990999999979;stroke-opacity:1;stroke-dasharray:none;stroke-dashoffset:0" />
    <path
       style="fill:none;stroke:#000000;stroke-width:1.50000000000000000;stroke-linecap:butt;stroke-linejoin:round;stroke-miterlimit:3.86369990999999979;stroke-opacity:1;stroke-dasharray:none;stroke-dashoffset:0"
       d="m 80,897.36086 70,0 0,65 0,40.00004 c 10,-30.00004 40.01889,-35.95084 74,-35.95084"
       id="path3011"
       inkscape:connector-curvature="0"
       sodipodi:nodetypes="ccccc" />
    <path
       inkscape:connector-curvature="0"
       id="path3013"
       d="m 150,1041.869 0,-64.50814"
       style="fill:none;stroke:#000000;stroke-width:1;stroke-linecap:butt;stroke-linejoin:miter;stroke-miterlimit:4;stroke-opacity:1;stroke-dasharray:4,4;stroke-dashoffset:0;marker-end:none"
       sodipodi:nodetypes="cc" />
    <path
       sodipodi:nodetypes="cc"
       style="fill:none;stroke:#000000;stroke-width:1;stroke-linecap:butt;stroke-linejoin:miter;stroke-miterlimit:4;stroke-opacity:1;stroke-dasharray:4,4;stroke-dashoffset:0;marker-end:url(#Arrow1Mend)"
       d="m 220,1041.869 0,-73.67647"
       id="path3971"
       inkscape:connector-curvature="0" />
    <path
       inkscape:connector-curvature="0"
       id="path4155"
       d="m 220,933.56331 0,19.42264"
       style="fill:none;stroke:#000000;stroke-width:1;stroke-linecap:butt;stroke-linejoin:miter;stroke-miterlimit:4;stroke-opacity:1;stroke-dasharray:none;stroke-dashoffset:0;marker-end:url(#Arrow1Mend)"
       sodipodi:nodetypes="cc" />
    <text
       sodipodi:linespacing="100%"
       id="text4157"
       y="980.40405"
       x="378.67892"
       style="font-size:12px;font-style:normal;font-variant:normal;font-weight:normal;font-stretch:normal;text-align:end;line-height:100%;letter-spacing:0px;word-spacing:0px;text-anchor:end;fill:#000000;fill-opacity:1;stroke:none;font-family:LMRoman12;-inkscape-font-specification:LMRoman12"
       xml:space="preserve"><tspan
         y="980.40405"
         x="378.67892"
         id="tspan4159"
         sodipodi:role="line">Reverse saturation current</tspan></text>
    <g
       style="font-style:normal;font-variant:normal;font-weight:normal;font-stretch:normal;letter-spacing:normal;word-spacing:normal;text-anchor:start;fill:none;stroke:#000000;stroke-width:1;stroke-linecap:butt;stroke-linejoin:miter;stroke-miterlimit:10.43299961;stroke-opacity:1;stroke-dasharray:none;stroke-dashoffset:0"
       ns0:preamble="/home/sriranga/Desktop/Basic-Electronics-Figures/package.tex"
       ns0:text="$t$"
       text-anchor="start"
       word-spacing="normal"
       letter-spacing="normal"
       font-size-adjust="none"
       font-stretch="normal"
       font-weight="normal"
       font-variant="normal"
       font-style="normal"
       fill-opacity="1"
       fill-rule="evenodd"
       fill="none"
       stroke-opacity="1"
       stroke-dashoffset="0"
       stroke-dasharray="none"
       stroke-miterlimit="10.433"
       stroke-linejoin="miter"
       stroke-linecap="butt"
       stroke="black"
       xml:space="preserve"
       transform="matrix(1.2,0,0,-1.2,41.66685,1814.0968)"
       id="content"><path
         id="path4196"
         fill="black"
         stroke-width="0"
         d="M226.38,711.38 H225.58 L225.86,712.4 C225.87,712.42,225.87,712.44,225.87,712.45 C225.87,712.52,225.84,712.55,225.79,712.55 C225.73,712.55,225.7,712.54,225.64,712.46 C225.25,711.95,224.64,711.46,224.32,711.37 C224.07,711.29,224,711.23,224,711.12 C224,711.11,224,711.09,224.01,711.06 H224.74 L224.03,708.33 C224.01,708.24,224,708.21,223.97,708.12 C223.88,707.82,223.8,707.47,223.8,707.39 C223.8,707.17,224.01,707.02,224.28,707.02 C224.74,707.02,225.06,707.29,225.69,708.22 L225.56,708.29 C225.07,707.66,224.91,707.5,224.76,707.5 C224.67,707.5,224.61,707.58,224.61,707.7 C224.61,707.71,224.61,707.72,224.62,707.75 L225.49,711.06 H226.33 Z " /></g>    <text
       xml:space="preserve"
       style="font-size:12px;font-style:normal;font-variant:normal;font-weight:normal;font-stretch:normal;text-align:center;line-height:100%;letter-spacing:0px;word-spacing:0px;text-anchor:middle;fill:#000000;fill-opacity:1;stroke:none;font-family:LMRoman12;-inkscape-font-specification:LMRoman12"
       x="185.90576"
       y="820.29504"
       id="text4232"
       sodipodi:linespacing="100%"><tspan
         sodipodi:role="line"
         id="tspan4234"
         x="185.90576"
         y="820.29504">Reverse</tspan><tspan
         sodipodi:role="line"
         x="185.90576"
         y="832.29504"
         id="tspan4236">bias</tspan></text>
    <text
       sodipodi:linespacing="100%"
       id="text4238"
       y="765.09778"
       x="114.09"
       style="font-size:12px;font-style:normal;font-variant:normal;font-weight:normal;font-stretch:normal;text-align:center;line-height:100%;letter-spacing:0px;word-spacing:0px;text-anchor:middle;fill:#000000;fill-opacity:1;stroke:none;font-family:LMRoman12;-inkscape-font-specification:LMRoman12"
       xml:space="preserve"><tspan
         y="765.09778"
         x="114.09"
         id="tspan4240"
         sodipodi:role="line">Forward</tspan><tspan
         id="tspan4242"
         y="777.09778"
         x="114.09"
         sodipodi:role="line">bias</tspan></text>
    <text
       xml:space="preserve"
       style="font-size:12px;font-style:normal;font-variant:normal;font-weight:normal;font-stretch:normal;text-align:center;line-height:100%;letter-spacing:0px;word-spacing:0px;text-anchor:middle;fill:#000000;fill-opacity:1;stroke:none;font-family:LMRoman12;-inkscape-font-specification:LMRoman12"
       x="37.61301"
       y="762.13019"
       id="text4244"
       sodipodi:linespacing="100%"><tspan
         sodipodi:role="line"
         id="tspan4246"
         x="37.61301"
         y="762.13019">Input</tspan><tspan
         sodipodi:role="line"
         x="37.61301"
         y="774.13019"
         id="tspan4248">voltage</tspan></text>
    <text
       sodipodi:linespacing="100%"
       id="text4250"
       y="923.56732"
       x="37.61301"
       style="font-size:12px;font-style:normal;font-variant:normal;font-weight:normal;font-stretch:normal;text-align:center;line-height:100%;letter-spacing:0px;word-spacing:0px;text-anchor:middle;fill:#000000;fill-opacity:1;stroke:none;font-family:LMRoman12;-inkscape-font-specification:LMRoman12"
       xml:space="preserve"><tspan
         id="tspan4254"
         y="923.56732"
         x="37.61301"
         sodipodi:role="line">Diode</tspan><tspan
         y="935.56732"
         x="37.61301"
         sodipodi:role="line"
         id="tspan4258">current</tspan></text>
    <g
       id="g4305"
       transform="matrix(1.2,0,0,-1.2,-114.35816,1643.8982)"
       xml:space="preserve"
       stroke-miterlimit="10.433"
       font-style="normal"
       font-variant="normal"
       font-weight="normal"
       font-stretch="normal"
       font-size-adjust="none"
       letter-spacing="normal"
       word-spacing="normal"
       ns0:text="$T_1$"
       ns0:preamble="/home/sriranga/Desktop/Basic-Electronics-Figures/package.tex"
       style="font-style:normal;font-variant:normal;font-weight:normal;font-stretch:normal;letter-spacing:normal;word-spacing:normal;text-anchor:start;fill:none;stroke:#000000;stroke-width:1;stroke-linecap:butt;stroke-linejoin:miter;stroke-miterlimit:10.43299961;stroke-opacity:1;stroke-dasharray:none;stroke-dashoffset:0"><path
         style="fill:#000000;stroke-width:0"
         inkscape:connector-curvature="0"
         d="m 229.73,713.61 h -5.29 l -0.42,-1.53 0.18,-0.04 c 0.53,1.07 0.84,1.24 2.37,1.22 l -1.44,-5.24 c -0.16,-0.53 -0.39,-0.69 -1.05,-0.74 v -0.16 h 2.88 v 0.16 c -0.17,0.01 -0.31,0.03 -0.37,0.03 -0.4,0.03 -0.52,0.12 -0.52,0.42 0,0.13 0.03,0.25 0.12,0.59 l 1.38,4.94 h 0.55 c 0.71,0 1.03,-0.24 1.03,-0.8 0,-0.13 -0.01,-0.28 -0.03,-0.45 l 0.17,-0.02 z"
         id="path4307" /><path
         style="fill:#000000;stroke-width:0"
         inkscape:connector-curvature="0"
         d="m 231.41,710.33 -1.26,-0.63 v -0.1 c 0.09,0.04 0.16,0.06 0.19,0.08 0.13,0.05 0.25,0.08 0.31,0.08 0.15,0 0.21,-0.11 0.21,-0.33 v -3.15 c 0,-0.23 -0.05,-0.39 -0.16,-0.45 -0.11,-0.07 -0.21,-0.09 -0.5,-0.1 v -0.1 h 1.92 v 0.1 c -0.55,0.01 -0.66,0.08 -0.66,0.42 v 4.17 z"
         id="path4309" /></g>    <g
       style="font-style:normal;font-variant:normal;font-weight:normal;font-stretch:normal;letter-spacing:normal;word-spacing:normal;text-anchor:start;fill:none;stroke:#000000;stroke-width:1;stroke-linecap:butt;stroke-linejoin:miter;stroke-miterlimit:10.43299961;stroke-opacity:1;stroke-dasharray:none;stroke-dashoffset:0"
       ns0:preamble="/home/sriranga/Desktop/Basic-Electronics-Figures/package.tex"
       ns0:text="$T_2$"
       text-anchor="start"
       word-spacing="normal"
       letter-spacing="normal"
       font-size-adjust="none"
       font-stretch="normal"
       font-weight="normal"
       font-variant="normal"
       font-style="normal"
       fill-opacity="1"
       fill-rule="evenodd"
       fill="none"
       stroke-opacity="1"
       stroke-dashoffset="0"
       stroke-dasharray="none"
       stroke-miterlimit="10.433"
       stroke-linejoin="miter"
       stroke-linecap="butt"
       stroke="black"
       xml:space="preserve"
       transform="matrix(1.2,0,0,-1.2,-52.038692,1643.8982)"
       id="g4411"><path
         id="path4413"
         fill="black"
         stroke-width="0"
         d="M229.73,713.61 H224.44 L224.02,712.08 L224.2,712.04 C224.73,713.11,225.04,713.28,226.57,713.26 L225.13,708.02 C224.97,707.49,224.74,707.33,224.08,707.28 V707.12 H226.96 V707.28 C226.79,707.29,226.65,707.31,226.59,707.31 C226.19,707.34,226.07,707.43,226.07,707.73 C226.07,707.86,226.1,707.98,226.19,708.32 L227.57,713.26 H228.12 C228.83,713.26,229.15,713.02,229.15,712.46 C229.15,712.33,229.14,712.18,229.12,712.01 L229.29,711.99 Z " /><path
         id="path4415"
         fill="black"
         stroke-width="0"
         d="M232.69,706.58 L232.6,706.62 C232.34,706.22,232.25,706.16,231.94,706.16 H230.27 L231.44,707.38 C232.06,708.03,232.33,708.56,232.33,709.1 C232.33,709.8,231.77,710.33,231.04,710.33 C230.66,710.33,230.3,710.18,230.04,709.9 C229.82,709.66,229.71,709.44,229.6,708.95 L229.74,708.91 C230.02,709.59,230.27,709.82,230.75,709.82 C231.34,709.82,231.73,709.42,231.73,708.84 C231.73,708.29,231.41,707.65,230.83,707.03 L229.59,705.71 V705.63 H232.3 Z " /></g>    <g
       id="g4514"
       transform="matrix(1.2,0,0,-1.2,-212.55378,1585.2543)"
       xml:space="preserve"
       stroke-miterlimit="10.433"
       font-style="normal"
       font-variant="normal"
       font-weight="normal"
       font-stretch="normal"
       font-size-adjust="none"
       letter-spacing="normal"
       word-spacing="normal"
       ns0:text="$+$ V"
       ns0:preamble="/home/sriranga/Desktop/Basic-Electronics-Figures/package.tex"
       style="font-style:normal;font-variant:normal;font-weight:normal;font-stretch:normal;letter-spacing:normal;word-spacing:normal;text-anchor:start;fill:none;stroke:#000000;stroke-width:1;stroke-linecap:butt;stroke-linejoin:miter;stroke-miterlimit:10.43299961;stroke-opacity:1;stroke-dasharray:none;stroke-dashoffset:0"><polygon
         style="fill:#000000;stroke-width:0"
         points="226.87,712.2 226.32,712.2 226.32,709.96 224.05,709.96 224.05,709.4 226.32,709.4 226.32,707.12 226.87,707.12 226.87,709.4 229.14,709.4 229.14,709.96 226.87,709.96 "
         id="polygon4516" /><path
         style="fill:#000000;stroke-width:0"
         inkscape:connector-curvature="0"
         d="m 239.19,713.7 h -2.04 v -0.19 c 0.55,-0.03 0.73,-0.14 0.73,-0.42 0,-0.15 -0.07,-0.42 -0.19,-0.72 l -1.46,-3.65 -1.5,3.36 c -0.33,0.73 -0.41,0.96 -0.41,1.1 0,0.19 0.14,0.29 0.46,0.31 0.04,0 0.15,0.01 0.29,0.02 v 0.19 h -2.65 v -0.19 c 0.49,-0.02 0.62,-0.16 1.05,-1.04 l 2.45,-5.45 h 0.15 l 2.21,5.57 c 0.33,0.78 0.44,0.89 0.91,0.92 z"
         id="path4518" /></g>    <g
       style="font-style:normal;font-variant:normal;font-weight:normal;font-stretch:normal;letter-spacing:normal;word-spacing:normal;text-anchor:start;fill:none;stroke:#000000;stroke-width:1;stroke-linecap:butt;stroke-linejoin:miter;stroke-miterlimit:10.43299961;stroke-opacity:1;stroke-dasharray:none;stroke-dashoffset:0"
       ns0:preamble="/home/sriranga/Desktop/Basic-Electronics-Figures/package.tex"
       ns0:text="$I_F$"
       word-spacing="normal"
       letter-spacing="normal"
       font-size-adjust="none"
       font-stretch="normal"
       font-weight="normal"
       font-variant="normal"
       font-style="normal"
       stroke-miterlimit="10.433"
       xml:space="preserve"
       transform="matrix(1.2,0,0,-1.2,-204.64444,1746.9169)"
       id="g4654"><path
         id="path4656"
         d="m 223.6,707.12 h 2.43 v 0.16 c -0.57,0.07 -0.68,0.13 -0.68,0.41 0,0.19 0.02,0.31 0.11,0.63 l 1.23,4.4 c 0.18,0.57 0.24,0.63 0.81,0.73 v 0.16 h -2.46 v -0.16 c 0.58,-0.07 0.7,-0.15 0.7,-0.42 0,-0.14 -0.04,-0.37 -0.11,-0.62 l -1.22,-4.39 c -0.18,-0.58 -0.25,-0.64 -0.81,-0.74 z"
         inkscape:connector-curvature="0"
         style="fill:#000000;stroke-width:0" /><path
         id="path4658"
         d="m 231.66,710.17 h -3.46 v -0.11 c 0.45,-0.04 0.53,-0.08 0.53,-0.28 0,-0.11 -0.02,-0.28 -0.07,-0.45 l -0.86,-3.07 c -0.13,-0.42 -0.17,-0.46 -0.57,-0.52 v -0.11 h 1.75 v 0.11 c -0.4,0.02 -0.53,0.1 -0.53,0.31 0,0.05 0.03,0.16 0.07,0.31 l 0.43,1.55 c 0.26,-0.01 0.41,-0.02 0.56,-0.02 0.28,0 0.32,-0.01 0.39,-0.03 0.1,-0.06 0.15,-0.15 0.15,-0.29 0,-0.11 -0.01,-0.19 -0.06,-0.41 l 0.12,-0.03 0.53,1.62 -0.12,0.04 c -0.32,-0.63 -0.34,-0.63 -1.51,-0.65 l 0.46,1.62 c 0.04,0.14 0.14,0.18 0.43,0.18 1.17,0 1.42,-0.09 1.42,-0.52 0,-0.04 0,-0.08 -0.01,-0.17 -0.01,-0.04 -0.01,-0.04 -0.01,-0.13 l 0.14,-0.01 z"
         inkscape:connector-curvature="0"
         style="fill:#000000;stroke-width:0" /></g>    <path
       sodipodi:nodetypes="cc"
       style="fill:none;stroke:#000000;stroke-width:0.99999994;stroke-linecap:butt;stroke-linejoin:miter;stroke-miterlimit:4;stroke-opacity:1;stroke-dasharray:none;stroke-dashoffset:0;marker-end:url(#Arrow1Mend)"
       d="m 194.65012,1032.1714 23.40953,0"
       id="path4715"
       inkscape:connector-curvature="0" />
    <path
       inkscape:connector-curvature="0"
       id="path4717"
       d="m 175.23527,1032.1714 -23.2102,0"
       style="fill:none;stroke:#000000;stroke-width:1;stroke-linecap:butt;stroke-linejoin:miter;stroke-miterlimit:4;stroke-opacity:1;stroke-dasharray:none;stroke-dashoffset:0;marker-end:url(#Arrow1Mend)"
       sodipodi:nodetypes="cc" />
    <g
       id="g4783"
       transform="matrix(1.2,0,0,-1.2,-88.647179,1883.0853)"
       xml:space="preserve"
       stroke-miterlimit="10.433"
       font-style="normal"
       font-variant="normal"
       font-weight="normal"
       font-stretch="normal"
       font-size-adjust="none"
       letter-spacing="normal"
       word-spacing="normal"
       ns0:text="$t_{rr}$"
       ns0:preamble="/home/sriranga/Desktop/Basic-Electronics-Figures/package.tex"
       style="font-style:normal;font-variant:normal;font-weight:normal;font-stretch:normal;letter-spacing:normal;word-spacing:normal;text-anchor:start;fill:none;stroke:#000000;stroke-width:1;stroke-linecap:butt;stroke-linejoin:miter;stroke-miterlimit:10.43299961;stroke-opacity:1;stroke-dasharray:none;stroke-dashoffset:0"><path
         style="fill:#000000;stroke-width:0"
         inkscape:connector-curvature="0"
         d="m 226.38,711.38 h -0.8 l 0.28,1.02 c 0.01,0.02 0.01,0.04 0.01,0.05 0,0.07 -0.03,0.1 -0.08,0.1 -0.06,0 -0.09,-0.01 -0.15,-0.09 -0.39,-0.51 -1,-1 -1.32,-1.09 -0.25,-0.08 -0.32,-0.14 -0.32,-0.25 0,-0.01 0,-0.03 0.01,-0.06 h 0.73 l -0.71,-2.73 c -0.02,-0.09 -0.03,-0.12 -0.06,-0.21 -0.09,-0.3 -0.17,-0.65 -0.17,-0.73 0,-0.22 0.21,-0.37 0.48,-0.37 0.46,0 0.78,0.27 1.41,1.2 l -0.13,0.07 c -0.49,-0.63 -0.65,-0.79 -0.8,-0.79 -0.09,0 -0.15,0.08 -0.15,0.2 0,0.01 0,0.02 0.01,0.05 l 0.87,3.31 h 0.84 z"
         id="path4785" /><path
         style="fill:#000000;stroke-width:0"
         inkscape:connector-curvature="0"
         d="m 227.04,705.63 0.04,0.11 0.03,0.1 0.03,0.1 0.03,0.1 0.03,0.08 0.03,0.09 0.02,0.08 0.03,0.08 0.02,0.07 0.03,0.07 0.02,0.07 0.02,0.07 0.03,0.06 0.02,0.06 0.02,0.06 0.02,0.05 0.02,0.05 0.02,0.06 0.05,0.09 0.04,0.1 0.05,0.09 0.04,0.09 0.05,0.09 0.06,0.09 0.03,0.05 0.03,0.05 c 0.23,0.39 0.42,0.61 0.54,0.61 0.04,0 0.07,-0.03 0.11,-0.1 0.06,-0.12 0.11,-0.16 0.25,-0.16 0.2,0 0.32,0.13 0.32,0.35 0,0.21 -0.13,0.36 -0.33,0.36 -0.16,0 -0.34,-0.11 -0.53,-0.29 -0.28,-0.3 -0.56,-0.71 -0.67,-0.99 l -0.1,-0.25 0.37,1.51 -0.02,0.02 c -0.51,-0.09 -0.57,-0.11 -1.08,-0.19 v -0.12 c 0.17,0.04 0.19,0.04 0.24,0.04 0.15,0 0.24,-0.07 0.24,-0.2 0,-0.1 0,-0.1 -0.11,-0.57 l -0.57,-2.03 z"
         id="path4787" /><path
         style="fill:#000000;stroke-width:0"
         inkscape:connector-curvature="0"
         d="m 229.92,705.63 0.03,0.11 0.03,0.1 0.03,0.1 0.03,0.1 0.03,0.08 0.03,0.09 0.03,0.08 0.02,0.08 0.03,0.07 0.02,0.07 0.02,0.07 0.03,0.07 0.02,0.06 0.02,0.06 0.02,0.06 0.02,0.05 0.03,0.05 0.02,0.06 0.04,0.09 0.04,0.1 0.05,0.09 0.05,0.09 0.05,0.09 0.05,0.09 0.03,0.05 0.03,0.05 c 0.23,0.39 0.42,0.61 0.54,0.61 0.04,0 0.08,-0.03 0.11,-0.1 0.06,-0.12 0.12,-0.16 0.25,-0.16 0.21,0 0.33,0.13 0.33,0.35 0,0.21 -0.14,0.36 -0.33,0.36 -0.16,0 -0.35,-0.11 -0.53,-0.29 -0.29,-0.3 -0.57,-0.71 -0.68,-0.99 l -0.09,-0.25 0.36,1.51 -0.02,0.02 c -0.51,-0.09 -0.57,-0.11 -1.08,-0.19 v -0.12 c 0.17,0.04 0.19,0.04 0.24,0.04 0.15,0 0.24,-0.07 0.24,-0.2 0,-0.1 0,-0.1 -0.11,-0.57 l -0.56,-2.03 z"
         id="path4789" /></g>    <g
       id="g4846"
       transform="matrix(1.2,0,0,-1.2,41.66685,1654.4403)"
       xml:space="preserve"
       stroke-miterlimit="10.433"
       font-style="normal"
       font-variant="normal"
       font-weight="normal"
       font-stretch="normal"
       font-size-adjust="none"
       letter-spacing="normal"
       word-spacing="normal"
       ns0:text="$t$"
       ns0:preamble="/home/sriranga/Desktop/Basic-Electronics-Figures/package.tex"
       style="font-style:normal;font-variant:normal;font-weight:normal;font-stretch:normal;letter-spacing:normal;word-spacing:normal;text-anchor:start;fill:none;stroke:#000000;stroke-width:1;stroke-linecap:butt;stroke-linejoin:miter;stroke-miterlimit:10.43299961;stroke-opacity:1;stroke-dasharray:none;stroke-dashoffset:0"><path
         style="fill:#000000;stroke-width:0"
         inkscape:connector-curvature="0"
         d="m 226.38,711.38 h -0.8 l 0.28,1.02 c 0.01,0.02 0.01,0.04 0.01,0.05 0,0.07 -0.03,0.1 -0.08,0.1 -0.06,0 -0.09,-0.01 -0.15,-0.09 -0.39,-0.51 -1,-1 -1.32,-1.09 -0.25,-0.08 -0.32,-0.14 -0.32,-0.25 0,-0.01 0,-0.03 0.01,-0.06 h 0.73 l -0.71,-2.73 c -0.02,-0.09 -0.03,-0.12 -0.06,-0.21 -0.09,-0.3 -0.17,-0.65 -0.17,-0.73 0,-0.22 0.21,-0.37 0.48,-0.37 0.46,0 0.78,0.27 1.41,1.2 l -0.13,0.07 c -0.49,-0.63 -0.65,-0.79 -0.8,-0.79 -0.09,0 -0.15,0.08 -0.15,0.2 0,0.01 0,0.02 0.01,0.05 l 0.87,3.31 h 0.84 z"
         id="path4848" /></g>    <path
       sodipodi:nodetypes="cc"
       style="fill:none;stroke:#000000;stroke-width:1;stroke-linecap:butt;stroke-linejoin:miter;stroke-miterlimit:4;stroke-opacity:1;stroke-dasharray:4, 4;stroke-dashoffset:0;marker-end:none"
       d="m 150,842.36086 -69.50814,0"
       id="path3036"
       inkscape:connector-curvature="0" />
    <g
       style="font-style:normal;font-variant:normal;font-weight:normal;font-stretch:normal;letter-spacing:normal;word-spacing:normal;text-anchor:start;fill:none;stroke:#000000;stroke-width:1;stroke-linecap:butt;stroke-linejoin:miter;stroke-miterlimit:10.43299961;stroke-opacity:1;stroke-dasharray:none;stroke-dashoffset:0"
       ns0:preamble="/home/sriranga/Desktop/Basic-Electronics-Figures/package.tex"
       ns0:text="$-$ V"
       text-anchor="start"
       word-spacing="normal"
       letter-spacing="normal"
       font-size-adjust="none"
       font-stretch="normal"
       font-weight="normal"
       font-variant="normal"
       font-style="normal"
       fill-opacity="1"
       fill-rule="evenodd"
       fill="none"
       stroke-opacity="1"
       stroke-dashoffset="0"
       stroke-dasharray="none"
       stroke-miterlimit="10.433"
       stroke-linejoin="miter"
       stroke-linecap="butt"
       stroke="black"
       xml:space="preserve"
       transform="matrix(1.2,0,0,-1.2,-212.55378,1693.0798)"
       id="g3095"><polygon
         id="polygon3097"
         fill="black"
         stroke-width="0"
         points="229.14,709.4 229.14,709.96 224.05,709.96 224.05,709.4 " /><path
         id="path3099"
         fill="black"
         stroke-width="0"
         d="M239.19,713.7 H237.15 V713.51 C237.7,713.48,237.88,713.37,237.88,713.09 C237.88,712.94,237.81,712.67,237.69,712.37 L236.23,708.72 L234.73,712.08 C234.4,712.81,234.32,713.04,234.32,713.18 C234.32,713.37,234.46,713.47,234.78,713.49 C234.82,713.49,234.93,713.5,235.07,713.51 V713.7 H232.42 V713.51 C232.91,713.49,233.04,713.35,233.47,712.47 L235.92,707.02 H236.07 L238.28,712.59 C238.61,713.37,238.72,713.48,239.19,713.51 Z " /></g>    <text
       xml:space="preserve"
       style="font-size:12px;font-style:normal;font-variant:normal;font-weight:normal;font-stretch:normal;text-align:start;line-height:100%;letter-spacing:0px;word-spacing:0px;text-anchor:start;fill:#000000;fill-opacity:1;stroke:none;font-family:LMRoman12;-inkscape-font-specification:LMRoman12"
       x="70.03521"
       y="814.35986"
       id="text3933"
       sodipodi:linespacing="100%"><tspan
         sodipodi:role="line"
         id="tspan3935"
         x="70.03521"
         y="814.35986">0</tspan></text>
    <text
       sodipodi:linespacing="100%"
       id="text3937"
       y="974.31317"
       x="70.03521"
       style="font-size:12px;font-style:normal;font-variant:normal;font-weight:normal;font-stretch:normal;text-align:start;line-height:100%;letter-spacing:0px;word-spacing:0px;text-anchor:start;fill:#000000;fill-opacity:1;stroke:none;font-family:LMRoman12;-inkscape-font-specification:LMRoman12"
       xml:space="preserve"><tspan
         y="974.31317"
         x="70.03521"
         id="tspan3939"
         sodipodi:role="line">0</tspan></text>
  </g>
</svg>
