<?xml version="1.0" encoding="UTF-8" standalone="no"?>
<!-- Created with Inkscape (http://www.inkscape.org/) -->

<svg
   xmlns:ns0="http://www.iki.fi/pav/software/textext/"
   xmlns:dc="http://purl.org/dc/elements/1.1/"
   xmlns:cc="http://creativecommons.org/ns#"
   xmlns:rdf="http://www.w3.org/1999/02/22-rdf-syntax-ns#"
   xmlns:svg="http://www.w3.org/2000/svg"
   xmlns="http://www.w3.org/2000/svg"
   xmlns:sodipodi="http://sodipodi.sourceforge.net/DTD/sodipodi-0.dtd"
   xmlns:inkscape="http://www.inkscape.org/namespaces/inkscape"
   id="svg2"
   version="1.1"
   inkscape:version="0.48.4 r9939"
   width="425.19684"
   height="106.29921"
   xml:space="preserve"
   sodipodi:docname="S3-EE-01-029.svg"><sodipodi:namedview
     pagecolor="#ffffff"
     bordercolor="#666666"
     borderopacity="1"
     objecttolerance="10"
     gridtolerance="10"
     guidetolerance="10"
     inkscape:pageopacity="0"
     inkscape:pageshadow="2"
     inkscape:window-width="1366"
     inkscape:window-height="744"
     id="namedview4"
     showgrid="false"
     units="cm"
     inkscape:document-units="cm"
     inkscape:zoom="2.8245742"
     inkscape:cx="198.41372"
     inkscape:cy="33.734503"
     inkscape:window-x="0"
     inkscape:window-y="24"
     inkscape:window-maximized="1"
     inkscape:current-layer="g10"><inkscape:grid
       snapvisiblegridlinesonly="true"
       enabled="true"
       visible="true"
       empspacing="5"
       id="grid3813"
       type="xygrid" /></sodipodi:namedview><metadata
     id="metadata8"><rdf:RDF><cc:Work
         rdf:about=""><dc:format>image/svg+xml</dc:format><dc:type
           rdf:resource="http://purl.org/dc/dcmitype/StillImage" /><dc:title></dc:title></cc:Work></rdf:RDF></metadata><defs
     id="defs6" /><g
     transform="matrix(1.25,0,0,-1.25,0,106.29916)"
     inkscape:label="ink_ext_XXXXXX"
     inkscape:groupmode="layer"
     id="g10"><path
       d="m 139.85924,39.692129 0,-17.70588 13.3915,0 0,17.70698 -13.3915,-0.0011"
       style="fill:#ffffff;fill-opacity:1;fill-rule:nonzero;stroke:none"
       id="path28"
       inkscape:connector-curvature="0" /><path
       d="m 153.10853,30.786629 39.13767,0"
       style="fill:none;stroke:#231f20;stroke-width:0.80000001;stroke-linecap:round;stroke-linejoin:round;stroke-miterlimit:3.86369991;stroke-opacity:1;stroke-dasharray:none"
       id="path30"
       inkscape:connector-curvature="0" /><path
       d="m 101.70203,30.786629 38.01077,0"
       style="fill:none;stroke:#231f20;stroke-width:0.80000001;stroke-linecap:round;stroke-linejoin:round;stroke-miterlimit:3.93184996;stroke-opacity:1;stroke-dasharray:none"
       id="path32"
       inkscape:connector-curvature="0" /><path
       d="m 152.72254,21.933899 -13.3926,0 0,17.7063 13.3926,0 0,-17.7063 z"
       style="fill:#ffffff;fill-opacity:1;fill-rule:nonzero;stroke:none"
       id="path64"
       inkscape:connector-curvature="0" /><path
       d="m 139.85924,30.786629 12.8633,-7.4258 0,14.8516 -12.8633,-7.4258 z"
       style="fill:none;stroke:#231f20;stroke-width:0.80000001;stroke-linecap:round;stroke-linejoin:round;stroke-miterlimit:3.86369991;stroke-opacity:1;stroke-dasharray:none"
       id="path66"
       inkscape:connector-curvature="0" /><path
       d="m 139.32994,38.140929 0,-14.9305"
       style="fill:none;stroke:#231f20;stroke-width:0.80000001;stroke-linecap:round;stroke-linejoin:round;stroke-miterlimit:3.86369991;stroke-opacity:1;stroke-dasharray:none"
       id="path68"
       inkscape:connector-curvature="0" /><path
       transform="matrix(-0.98555528,0,0,-0.98555528,195.44216,91.217232)"
       d="m 97.15923,61.29921 a 2.1592305,2.1592305 0 1 1 -4.31846,0 2.1592305,2.1592305 0 1 1 4.31846,0 z"
       sodipodi:ry="2.1592305"
       sodipodi:rx="2.1592305"
       sodipodi:cy="61.29921"
       sodipodi:cx="95"
       id="path3815"
       style="fill:#ffffff;stroke:#000000;stroke-width:0.50732821;stroke-linecap:round;stroke-linejoin:round;stroke-miterlimit:4;stroke-opacity:1;stroke-dasharray:none;stroke-dashoffset:0"
       sodipodi:type="arc" /><path
       transform="matrix(-0.98555528,0,0,-0.98555528,286.15335,91.217232)"
       d="m 97.15923,61.29921 a 2.1592305,2.1592305 0 1 1 -4.31846,0 2.1592305,2.1592305 0 1 1 4.31846,0 z"
       sodipodi:ry="2.1592305"
       sodipodi:rx="2.1592305"
       sodipodi:cy="61.29921"
       sodipodi:cx="95"
       id="path3821"
       style="fill:#ffffff;stroke:#000000;stroke-width:0.50732821;stroke-linecap:round;stroke-linejoin:round;stroke-miterlimit:4;stroke-opacity:1;stroke-dasharray:none;stroke-dashoffset:0"
       sodipodi:type="arc" /><path
       inkscape:connector-curvature="0"
       id="path3865"
       style="fill:none;stroke:#231f20;stroke-width:0.80000007;stroke-linecap:butt;stroke-linejoin:miter;stroke-miterlimit:3.93184996;stroke-opacity:1;stroke-dasharray:none"
       d="m 182.31589,61.616066 -69.4338,-0.0012" /><path
       inkscape:connector-curvature="0"
       id="path3867"
       style="fill:#ffffff;fill-opacity:1;fill-rule:nonzero;stroke:none"
       d="m 151.48647,66.774266 3.3e-4,-10.3156 -3.78603,0 -3.2e-4,10.3156 3.78602,0" /><path
       inkscape:connector-curvature="0"
       id="path3869"
       style="fill:none;stroke:#231f20;stroke-width:0.69999999;stroke-linecap:round;stroke-linejoin:round;stroke-miterlimit:3.86369991;stroke-opacity:1;stroke-dasharray:none"
       d="m 147.57633,66.774266 10e-4,-10.3156" /><path
       inkscape:connector-curvature="0"
       id="path3871"
       style="fill:none;stroke:#231f20;stroke-width:0.69999999;stroke-linecap:round;stroke-linejoin:round;stroke-miterlimit:3.86369991;stroke-opacity:1;stroke-dasharray:none"
       d="m 152.81415,66.654449 c -2.06195,-3.328126 -2.03423,-6.717714 10e-4,-10.166345"
       sodipodi:nodetypes="cc" /><path
       inkscape:connector-curvature="0"
       id="path3039"
       style="font-size:8px;font-variant:normal;font-weight:normal;writing-mode:lr-tb;fill:#231f20;fill-opacity:1;fill-rule:nonzero;stroke:none;font-family:Symbol;-inkscape-font-specification:Symbol"
       d="m 105.74358,38.903965 -0.44,0 0,-1.912 -1.896,0 0,-0.44 1.896,0 0,-1.912 0.44,0 0,1.912 1.896,0 0,0.44 -1.896,0 0,1.912" /><path
       inkscape:connector-curvature="0"
       id="path3041"
       style="font-size:8px;font-variant:normal;font-weight:normal;writing-mode:lr-tb;fill:#231f20;fill-opacity:1;fill-rule:nonzero;stroke:none;font-family:Symbol;-inkscape-font-specification:Symbol"
       d="m 186.50991,35.81703 0,-0.44 4.192,0 0,0.44 -4.192,0" /><path
       sodipodi:type="arc"
       style="fill:#ffffff;stroke:#000000;stroke-width:0.50732821;stroke-linecap:round;stroke-linejoin:round;stroke-miterlimit:4;stroke-opacity:1;stroke-dasharray:none;stroke-dashoffset:0"
       id="path3889"
       sodipodi:cx="95"
       sodipodi:cy="61.29921"
       sodipodi:rx="2.1592305"
       sodipodi:ry="2.1592305"
       d="m 97.15923,61.29921 a 2.1592305,2.1592305 0 1 1 -4.31846,0 2.1592305,2.1592305 0 1 1 4.31846,0 z"
       transform="matrix(0.98555528,0,0,-0.98555528,87.424152,122.04666)" /><path
       sodipodi:type="arc"
       style="fill:#ffffff;stroke:#000000;stroke-width:0.50732821;stroke-linecap:round;stroke-linejoin:round;stroke-miterlimit:4;stroke-opacity:1;stroke-dasharray:none;stroke-dashoffset:0"
       id="path3891"
       sodipodi:cx="95"
       sodipodi:cy="61.29921"
       sodipodi:rx="2.1592305"
       sodipodi:ry="2.1592305"
       d="m 97.15923,61.29921 a 2.1592305,2.1592305 0 1 1 -4.31846,0 2.1592305,2.1592305 0 1 1 4.31846,0 z"
       transform="matrix(0.98555528,0,0,-0.98555528,19.755323,122.04666)" /><g
       id="content"
       transform="matrix(1.0354541,0,0,1.0206412,-87.575087,-649.68521)"
       xml:space="preserve"
       stroke-miterlimit="10.433"
       font-style="normal"
       font-variant="normal"
       font-weight="normal"
       font-stretch="normal"
       font-size-adjust="none"
       letter-spacing="normal"
       word-spacing="normal"
       ns0:text="$C_{pn}$"
       ns0:preamble="/home/sriranga/Desktop/UBM-2014/package.tex"
       style="font-style:normal;font-variant:normal;font-weight:normal;font-stretch:normal;letter-spacing:normal;word-spacing:normal;text-anchor:start;fill:none;stroke:#000000;stroke-width:1.1672914;stroke-linecap:butt;stroke-linejoin:miter;stroke-miterlimit:10.43299961;stroke-opacity:1;stroke-dasharray:none;stroke-dashoffset:0"><path
         style="fill:#000000;stroke-width:0"
         inkscape:connector-curvature="0"
         d="m 229.67,711.74 0.37,1.98 h -0.21 c -0.08,-0.16 -0.18,-0.22 -0.38,-0.22 -0.08,0 -0.2,0.02 -0.41,0.07 -0.44,0.11 -0.84,0.17 -1.16,0.17 -2.12,0 -4.04,-2 -4.04,-4.2 0,-1.52 1.07,-2.59 2.6,-2.59 1.02,0 1.82,0.43 2.71,1.48 l -0.17,0.14 c -0.89,-0.88 -1.47,-1.18 -2.28,-1.18 -1.11,0 -1.75,0.76 -1.75,2.04 0,1.18 0.48,2.38 1.26,3.19 0.47,0.48 1.1,0.76 1.76,0.76 0.91,0 1.42,-0.53 1.52,-1.61 z"
         id="path3077" /><path
         style="fill:#000000;stroke-width:0"
         inkscape:connector-curvature="0"
         d="m 230.99,708.44 h 0.16 c 0,0 0.01,0 0.02,0.01 0.09,0.04 0.27,-0.09 0.27,-0.2 0,-0.06 -0.25,-1.05 -0.49,-1.97 -0.19,-0.69 -0.36,-1.35 -0.41,-1.55 -0.07,-0.32 -0.16,-0.41 -0.46,-0.41 v -0.11 h 1.43 v 0.1 c -0.33,0 -0.45,0.06 -0.45,0.21 0,0.1 0.12,0.64 0.26,1.15 0.17,-0.09 0.3,-0.12 0.46,-0.12 l -0.03,0.14 c -0.2,0 -0.34,0.1 -0.34,0.25 0,0.24 0.26,1.15 0.46,1.67 0.19,0.47 0.59,0.81 0.94,0.79 h 0 c 0.3,-0.01 0.43,-0.2 0.43,-0.6 0,-0.46 -0.2,-1.06 -0.5,-1.49 -0.29,-0.41 -0.63,-0.62 -0.99,-0.62 l 0.03,-0.14 c 1.01,0 2.09,1.17 2.09,2.28 0,0.54 -0.31,0.87 -0.8,0.87 -0.46,0 -0.79,-0.23 -1.19,-0.79 l 0.2,0.7 0.02,0.06 c 0,0 -0.01,0.01 -0.02,0.02 l -0.01,0.01 c 0,0.01 -0.01,0.01 -0.01,0.01 l -0.01,-0.01 -1.07,-0.16 z"
         id="path3079" /><path
         style="fill:#000000;stroke-width:0"
         inkscape:connector-curvature="0"
         d="m 237.29,706.45 -0.15,-0.19 c -0.2,-0.25 -0.32,-0.36 -0.42,-0.36 -0.06,0 -0.11,0.05 -0.11,0.11 0,0.04 0,0.04 0.1,0.44 l 0.39,1.43 c 0.04,0.14 0.06,0.3 0.06,0.39 0,0.25 -0.18,0.43 -0.45,0.43 -0.45,0 -0.89,-0.42 -1.61,-1.53 l 0.47,1.51 -0.02,0.02 c -0.38,-0.08 -0.52,-0.11 -1.13,-0.22 v -0.11 c 0.36,-0.01 0.45,-0.05 0.45,-0.19 0,-0.04 -0.01,-0.08 -0.02,-0.11 l -0.67,-2.44 h 0.53 c 0.32,1.1 0.39,1.25 0.69,1.72 0.42,0.64 0.78,0.99 1.03,0.99 0.11,0 0.17,-0.07 0.17,-0.2 0,-0.08 -0.04,-0.31 -0.1,-0.53 l -0.3,-1.14 c -0.09,-0.36 -0.11,-0.46 -0.11,-0.53 0,-0.26 0.09,-0.37 0.32,-0.37 0.32,0 0.5,0.14 0.98,0.78 z"
         id="path3081" /></g><g
       style="font-style:normal;font-variant:normal;font-weight:normal;font-stretch:normal;letter-spacing:normal;word-spacing:normal;text-anchor:start;fill:none;stroke:#000000;stroke-width:1.1672914;stroke-linecap:butt;stroke-linejoin:miter;stroke-miterlimit:10.43299961;stroke-opacity:1;stroke-dasharray:none;stroke-dashoffset:0"
       ns0:preamble="/home/sriranga/Desktop/UBM-2014/package.tex"
       ns0:text="$p-n$"
       word-spacing="normal"
       letter-spacing="normal"
       font-size-adjust="none"
       font-stretch="normal"
       font-weight="normal"
       font-variant="normal"
       font-style="normal"
       stroke-miterlimit="10.433"
       xml:space="preserve"
       transform="matrix(1.0354541,0,0,1.0206412,-126.04441,-711.44293)"
       id="g3157"><path
         id="path3159"
         d="m 224.74,711.14 h 0.22 c 0,0 0.03,0 0.03,0.01 0.13,0.06 0.39,-0.13 0.39,-0.28 0,-0.09 -0.36,-1.5 -0.7,-2.81 -0.27,-0.99 -0.51,-1.94 -0.58,-2.23 -0.11,-0.45 -0.24,-0.57 -0.67,-0.58 v -0.16 h 2.04 v 0.15 c -0.46,0 -0.63,0.09 -0.63,0.3 0,0.13 0.17,0.91 0.36,1.64 0.25,-0.13 0.43,-0.16 0.66,-0.16 l -0.04,0.18 c -0.28,0 -0.48,0.15 -0.48,0.37 0,0.34 0.36,1.64 0.65,2.38 0.27,0.67 0.85,1.16 1.34,1.13 h 0 c 0.43,-0.02 0.62,-0.28 0.62,-0.86 0,-0.65 -0.29,-1.51 -0.72,-2.12 -0.41,-0.59 -0.89,-0.9 -1.41,-0.9 l 0.04,-0.18 c 1.45,0 2.99,1.66 2.99,3.24 0,0.78 -0.44,1.25 -1.15,1.25 -0.65,0 -1.12,-0.32 -1.7,-1.13 l 0.29,1 0.03,0.09 c 0,0 -0.01,0.01 -0.02,0.03 l -0.02,0.01 c 0,0.01 -0.01,0.01 -0.01,0.01 l -0.02,-0.01 -1.53,-0.22 z"
         inkscape:connector-curvature="0"
         style="fill:#000000;stroke-width:0" /><polygon
         id="polygon3161"
         points="237.09,709.4 237.09,709.96 231.99,709.96 231.99,709.4 "
         style="fill:#000000;stroke-width:0" /><path
         id="path3163"
         d="m 244.5,708.29 -0.21,-0.26 c -0.29,-0.37 -0.47,-0.53 -0.6,-0.53 -0.08,0 -0.16,0.08 -0.16,0.16 0,0.07 0,0.07 0.14,0.63 l 0.56,2.04 c 0.05,0.21 0.09,0.43 0.09,0.57 0,0.36 -0.27,0.61 -0.65,0.61 -0.64,0 -1.27,-0.6 -2.29,-2.19 l 0.66,2.17 -0.03,0.02 c -0.53,-0.11 -0.74,-0.15 -1.61,-0.31 v -0.16 c 0.51,-0.01 0.64,-0.07 0.64,-0.27 0,-0.06 -0.01,-0.12 -0.02,-0.17 l -0.96,-3.48 h 0.75 c 0.47,1.57 0.56,1.79 0.99,2.47 0.6,0.91 1.11,1.41 1.48,1.41 0.15,0 0.24,-0.11 0.24,-0.29 0,-0.12 -0.06,-0.45 -0.14,-0.75 l -0.44,-1.64 c -0.13,-0.51 -0.16,-0.65 -0.16,-0.75 0,-0.38 0.14,-0.53 0.47,-0.53 0.45,0 0.7,0.2 1.39,1.12 z"
         inkscape:connector-curvature="0"
         style="fill:#000000;stroke-width:0" /></g><text
       xml:space="preserve"
       style="font-size:9.60000038px;font-style:normal;font-variant:normal;font-weight:normal;font-stretch:normal;text-align:end;line-height:100%;letter-spacing:0px;word-spacing:0px;text-anchor:end;fill:#000000;fill-opacity:1;stroke:none;font-family:LMRoman12;-inkscape-font-specification:LMRoman12"
       x="190.49667"
       y="-10.462825"
       id="text3200"
       sodipodi:linespacing="100%"
       transform="scale(1,-1)"><tspan
         sodipodi:role="line"
         id="tspan3202"
         x="190.49667"
         y="-10.462825">junction diode</tspan></text>
</g></svg>