<?xml version="1.0" encoding="UTF-8" standalone="no"?>
<!-- Created with Inkscape (http://www.inkscape.org/) -->

<svg
   xmlns:ns0="http://www.iki.fi/pav/software/textext/"
   xmlns:dc="http://purl.org/dc/elements/1.1/"
   xmlns:cc="http://creativecommons.org/ns#"
   xmlns:rdf="http://www.w3.org/1999/02/22-rdf-syntax-ns#"
   xmlns:svg="http://www.w3.org/2000/svg"
   xmlns="http://www.w3.org/2000/svg"
   xmlns:sodipodi="http://sodipodi.sourceforge.net/DTD/sodipodi-0.dtd"
   xmlns:inkscape="http://www.inkscape.org/namespaces/inkscape"
   id="svg2"
   version="1.1"
   inkscape:version="0.48.4 r9939"
   width="425.19684"
   height="106.29921"
   xml:space="preserve"
   sodipodi:docname="fig1.17.svg"><sodipodi:namedview
     pagecolor="#ffffff"
     bordercolor="#666666"
     borderopacity="1"
     objecttolerance="10"
     gridtolerance="10"
     guidetolerance="10"
     inkscape:pageopacity="0"
     inkscape:pageshadow="2"
     inkscape:window-width="1366"
     inkscape:window-height="744"
     id="namedview4"
     showgrid="false"
     units="cm"
     inkscape:document-units="cm"
     inkscape:zoom="1.9967223"
     inkscape:cx="212.59842"
     inkscape:cy="53.149605"
     inkscape:window-x="0"
     inkscape:window-y="24"
     inkscape:window-maximized="1"
     inkscape:current-layer="g10"
     inkscape:object-nodes="true"><inkscape:grid
       type="xygrid"
       id="grid3813"
       empspacing="5"
       visible="true"
       enabled="true"
       snapvisiblegridlinesonly="true" /></sodipodi:namedview><metadata
     id="metadata8"><rdf:RDF><cc:Work
         rdf:about=""><dc:format>image/svg+xml</dc:format><dc:type
           rdf:resource="http://purl.org/dc/dcmitype/StillImage" /><dc:title></dc:title></cc:Work></rdf:RDF></metadata><defs
     id="defs6" /><g
     id="g10"
     inkscape:groupmode="layer"
     inkscape:label="ink_ext_XXXXXX"
     transform="matrix(1.25,0,0,-1.25,0,106.29916)"><path
       inkscape:connector-curvature="0"
       id="path28"
       style="fill:#ffffff;fill-opacity:1;fill-rule:nonzero;stroke:none"
       d="m 71.03485,48.888617 0,-17.70588 -13.3915,0 0,17.70698 13.3915,-0.0011" /><path
       inkscape:connector-curvature="0"
       id="path30"
       style="fill:none;stroke:#231f20;stroke-width:0.80000001;stroke-linecap:round;stroke-linejoin:round;stroke-miterlimit:3.86369991;stroke-opacity:1;stroke-dasharray:none"
       d="m 71.82194,39.983117 39.13767,0" /><path
       inkscape:connector-curvature="0"
       id="path32"
       style="fill:none;stroke:#231f20;stroke-width:0.80000001;stroke-linecap:round;stroke-linejoin:round;stroke-miterlimit:3.93184996;stroke-opacity:1;stroke-dasharray:none"
       d="m 20.41544,39.983117 38.01077,0" /><path
       inkscape:connector-curvature="0"
       id="path64"
       style="fill:#ffffff;fill-opacity:1;fill-rule:nonzero;stroke:none"
       d="m 58.17155,31.130387 13.3926,0 0,17.7063 -13.3926,0 0,-17.7063 z" /><path
       inkscape:connector-curvature="0"
       id="path66"
       style="fill:none;stroke:#231f20;stroke-width:0.80000001;stroke-linecap:round;stroke-linejoin:round;stroke-miterlimit:3.86369991;stroke-opacity:1;stroke-dasharray:none"
       d="m 71.03485,39.983117 -12.8633,-7.4258 0,14.8516 12.8633,-7.4258 z" /><path
       inkscape:connector-curvature="0"
       id="path68"
       style="fill:none;stroke:#231f20;stroke-width:0.80000001;stroke-linecap:round;stroke-linejoin:round;stroke-miterlimit:3.86369991;stroke-opacity:1;stroke-dasharray:none"
       d="m 71.56415,47.337417 0,-14.9305" /><path
       sodipodi:type="arc"
       style="fill:#ffffff;stroke:#000000;stroke-width:0.50732821;stroke-linecap:round;stroke-linejoin:round;stroke-miterlimit:4;stroke-opacity:1;stroke-dasharray:none;stroke-dashoffset:0"
       id="path3815"
       sodipodi:cx="95"
       sodipodi:cy="61.29921"
       sodipodi:rx="2.1592305"
       sodipodi:ry="2.1592305"
       d="m 97.15923,61.29921 c 0,1.19251 -0.96672,2.15923 -2.15923,2.15923 -1.19251,0 -2.15923,-0.96672 -2.15923,-2.15923 0,-1.19251 0.96672,-2.159231 2.15923,-2.159231 1.19251,0 2.15923,0.966721 2.15923,2.159231 z"
       transform="matrix(-0.98555528,0,0,-0.98555528,114.15557,100.41372)" /><path
       sodipodi:type="arc"
       style="fill:#ffffff;stroke:#000000;stroke-width:0.50732821;stroke-linecap:round;stroke-linejoin:round;stroke-miterlimit:4;stroke-opacity:1;stroke-dasharray:none;stroke-dashoffset:0"
       id="path3821"
       sodipodi:cx="95"
       sodipodi:cy="61.29921"
       sodipodi:rx="2.1592305"
       sodipodi:ry="2.1592305"
       d="m 97.15923,61.29921 c 0,1.19251 -0.96672,2.15923 -2.15923,2.15923 -1.19251,0 -2.15923,-0.96672 -2.15923,-2.15923 0,-1.19251 0.96672,-2.159231 2.15923,-2.159231 1.19251,0 2.15923,0.966721 2.15923,2.159231 z"
       transform="matrix(-0.98555528,0,0,-0.98555528,204.86676,100.41372)" /><path
       d="M 213.4338,40.00116 144,39.99996"
       style="fill:none;stroke:#231f20;stroke-width:0.80000007;stroke-linecap:butt;stroke-linejoin:miter;stroke-miterlimit:3.93184996;stroke-opacity:1;stroke-dasharray:none"
       id="path3865"
       inkscape:connector-curvature="0" /><path
       d="m 109.91047,35.197221 -0.44,0 0,-1.912 -1.896,0 0,-0.44 1.896,0 0,-1.912 0.44,0 0,1.912 1.896,0 0,0.44 -1.896,0 0,1.912"
       style="font-size:8px;font-variant:normal;font-weight:normal;writing-mode:lr-tb;fill:#231f20;fill-opacity:1;fill-rule:nonzero;stroke:none;font-family:Symbol;-inkscape-font-specification:Symbol"
       id="path3039"
       inkscape:connector-curvature="0" /><path
       d="m 20.743672,34.788316 0,-0.44 4.192,0 0,0.44 -4.192,0"
       style="font-size:8px;font-variant:normal;font-weight:normal;writing-mode:lr-tb;fill:#231f20;fill-opacity:1;fill-rule:nonzero;stroke:none;font-family:Symbol;-inkscape-font-specification:Symbol"
       id="path3041"
       inkscape:connector-curvature="0" /><rect
       style="fill:#ffffff;fill-opacity:1;stroke:#000000;stroke-width:0.79370075;stroke-linecap:round;stroke-linejoin:round;stroke-miterlimit:3.86369991;stroke-opacity:1;stroke-dasharray:none;stroke-dashoffset:0"
       id="rect3342"
       width="100"
       height="48"
       x="176"
       y="-63.999962"
       transform="scale(1,-1)" /><path
       inkscape:connector-curvature="0"
       id="path3344"
       style="fill:none;stroke:#231f20;stroke-width:0.80000013;stroke-linecap:butt;stroke-linejoin:miter;stroke-miterlimit:3.93184996;stroke-opacity:1;stroke-dasharray:none"
       d="m 308,40.00116 -32,-0.0012" /><path
       transform="matrix(-0.98555528,0,0,-0.98555528,237.43804,100.41372)"
       d="m 97.15923,61.29921 c 0,1.19251 -0.96672,2.15923 -2.15923,2.15923 -1.19251,0 -2.15923,-0.96672 -2.15923,-2.15923 0,-1.19251 0.96672,-2.159231 2.15923,-2.159231 1.19251,0 2.15923,0.966721 2.15923,2.159231 z"
       sodipodi:ry="2.1592305"
       sodipodi:rx="2.1592305"
       sodipodi:cy="61.29921"
       sodipodi:cx="95"
       id="path3346"
       style="fill:#ffffff;stroke:#000000;stroke-width:0.50732821;stroke-linecap:round;stroke-linejoin:round;stroke-miterlimit:4;stroke-opacity:1;stroke-dasharray:none;stroke-dashoffset:0"
       sodipodi:type="arc" /><path
       sodipodi:type="arc"
       style="fill:#ffffff;stroke:#000000;stroke-width:0.50732821;stroke-linecap:round;stroke-linejoin:round;stroke-miterlimit:4;stroke-opacity:1;stroke-dasharray:none;stroke-dashoffset:0"
       id="path3348"
       sodipodi:cx="95"
       sodipodi:cy="61.29921"
       sodipodi:rx="2.1592305"
       sodipodi:ry="2.1592305"
       d="m 97.15923,61.29921 c 0,1.19251 -0.96672,2.15923 -2.15923,2.15923 -1.19251,0 -2.15923,-0.96672 -2.15923,-2.15923 0,-1.19251 0.96672,-2.159231 2.15923,-2.159231 1.19251,0 2.15923,0.966721 2.15923,2.159231 z"
       transform="matrix(-0.98555528,0,0,-0.98555528,401.71059,100.41372)" /><rect
       style="fill:#ffffff;fill-opacity:1;stroke:#ffffff;stroke-width:1;stroke-linecap:round;stroke-linejoin:round;stroke-miterlimit:3.86369990999999979;stroke-opacity:1;stroke-dasharray:none;stroke-dashoffset:0"
       id="rect3357"
       width="40"
       height="10"
       x="265"
       y="21.29921"
       transform="matrix(0.8,0,0,-0.8,0,85.039328)" /><path
       style="fill:none;stroke:#000000;stroke-width:0.79370075;stroke-linecap:butt;stroke-linejoin:round;stroke-miterlimit:4;stroke-opacity:1;stroke-dasharray:none"
       d="m 208,63.99996 4,0 1.93598,-4 4,8 4,-8 4,8 4,-8 4,8 4.02023,-8.114008 4,7.839048 2.04379,-3.72504 4,0"
       id="path5037"
       inkscape:connector-curvature="0"
       sodipodi:nodetypes="cccccccccccc" /><path
       d="M 231.99958,21.21406 232,10.89846 l -4.78731,0 -4e-4,10.3156 4.78729,0"
       style="fill:#ffffff;fill-opacity:1;fill-rule:nonzero;stroke:none"
       id="path3867"
       inkscape:connector-curvature="0" /><path
       d="m 227.08817,21.21406 0.001,-10.3156"
       style="fill:none;stroke:#231f20;stroke-width:0.69999999;stroke-linecap:round;stroke-linejoin:round;stroke-miterlimit:3.86369991;stroke-opacity:1;stroke-dasharray:none"
       id="path3869"
       inkscape:connector-curvature="0" /><path
       sodipodi:nodetypes="cc"
       d="m 233.42749,21.094243 c -2.06195,-3.328126 -2.03423,-6.717714 0.001,-10.166345"
       style="fill:none;stroke:#231f20;stroke-width:0.69999999;stroke-linecap:round;stroke-linejoin:round;stroke-miterlimit:3.86369991;stroke-opacity:1;stroke-dasharray:none"
       id="path3871"
       inkscape:connector-curvature="0" /><g
       id="content"
       transform="matrix(1.0354541,0,0,1.0206412,-8.5543258,-648.26906)"
       xml:space="preserve"
       stroke-miterlimit="10.433"
       font-style="normal"
       font-variant="normal"
       font-weight="normal"
       font-stretch="normal"
       font-size-adjust="none"
       letter-spacing="normal"
       word-spacing="normal"
       ns0:text="$R_R$"
       ns0:preamble="/home/sriranga/Desktop/UBM-2014/package.tex"
       style="font-style:normal;font-variant:normal;font-weight:normal;font-stretch:normal;letter-spacing:normal;word-spacing:normal;text-anchor:start;fill:none;stroke:#000000;stroke-width:1.1672914;stroke-linecap:butt;stroke-linejoin:miter;stroke-miterlimit:10.43299961;stroke-opacity:1;stroke-dasharray:none;stroke-dashoffset:0"><path
         style="fill:#000000;stroke-width:0"
         inkscape:connector-curvature="0"
         d="m 229.07,707.28 -0.04,0.01 -0.04,0 -0.03,0.01 -0.04,0 -0.04,0.01 -0.03,0.01 -0.03,0.01 -0.03,0.01 -0.03,0.01 -0.03,0.01 -0.03,0.01 -0.03,0.02 -0.03,0.01 -0.02,0.02 -0.03,0.02 -0.02,0.02 -0.03,0.02 -0.02,0.02 -0.02,0.03 -0.02,0.02 -0.02,0.03 -0.03,0.03 -0.02,0.03 -0.02,0.03 -0.01,0.04 -0.02,0.03 -0.02,0.04 -0.02,0.04 -0.02,0.04 -0.02,0.05 -0.02,0.04 -0.01,0.05 -0.93,2.43 c 0.77,0.17 1.1,0.31 1.45,0.63 0.33,0.29 0.51,0.67 0.51,1.12 0,0.92 -0.73,1.43 -2.07,1.43 l -0.21,-0.3 c 0.83,0 1.24,-0.37 1.24,-1.11 0,-0.98 -0.64,-1.49 -1.88,-1.49 -0.16,0 -0.27,0.01 -0.51,0.05 l 0.65,2.28 c 0.06,0.2 0.18,0.27 0.5,0.27 l 0.21,0.3 h -2.47 v -0.16 c 0.42,-0.06 0.47,-0.07 0.57,-0.14 0.08,-0.05 0.14,-0.16 0.14,-0.27 0,-0.12 -0.05,-0.36 -0.12,-0.63 l -1.22,-4.39 c -0.18,-0.59 -0.25,-0.65 -0.81,-0.74 v -0.16 h 2.43 v 0.16 c -0.61,0.08 -0.68,0.13 -0.68,0.46 0,0.1 0.03,0.23 0.12,0.58 l 0.56,2.07 0.65,-0.05 1.22,-3.22 h 1.47 z"
         id="path4162" /><path
         style="fill:#000000;stroke-width:0"
         inkscape:connector-curvature="0"
         d="m 233.47,705.74 -0.03,0 -0.03,0.01 -0.02,0 -0.03,0 -0.02,0.01 -0.03,0.01 -0.02,0 -0.02,0.01 -0.02,0.01 -0.03,0 -0.02,0.01 -0.01,0.01 -0.02,0.02 -0.02,0.01 -0.02,0.01 -0.02,0.01 -0.01,0.02 -0.02,0.02 -0.01,0.01 -0.02,0.02 -0.01,0.02 -0.02,0.02 -0.01,0.02 -0.02,0.02 -0.01,0.03 -0.01,0.02 -0.02,0.03 -0.01,0.03 -0.01,0.03 -0.02,0.03 -0.01,0.03 -0.01,0.03 -0.65,1.71 c 0.54,0.12 0.77,0.21 1.02,0.44 0.23,0.2 0.35,0.47 0.35,0.78 0,0.65 -0.51,1 -1.45,1 l -0.14,-0.21 c 0.58,0 0.86,-0.26 0.86,-0.78 0,-0.68 -0.44,-1.04 -1.31,-1.04 -0.11,0 -0.19,0.01 -0.36,0.04 l 0.45,1.59 c 0.05,0.14 0.14,0.19 0.36,0.19 l 0.14,0.21 h -1.72 v -0.11 c 0.29,-0.04 0.33,-0.05 0.4,-0.1 0.05,-0.03 0.09,-0.12 0.09,-0.19 0,-0.09 -0.03,-0.25 -0.08,-0.44 l -0.86,-3.07 c -0.12,-0.41 -0.17,-0.46 -0.56,-0.52 v -0.11 h 1.7 v 0.11 c -0.43,0.06 -0.48,0.09 -0.48,0.32 0,0.07 0.03,0.16 0.09,0.41 l 0.39,1.45 0.45,-0.04 0.86,-2.25 h 1.03 z"
         id="path4164" /></g><g
       style="font-style:normal;font-variant:normal;font-weight:normal;font-stretch:normal;letter-spacing:normal;word-spacing:normal;text-anchor:start;fill:none;stroke:#000000;stroke-width:1.1672914;stroke-linecap:butt;stroke-linejoin:miter;stroke-miterlimit:10.43299961;stroke-opacity:1;stroke-dasharray:none;stroke-dashoffset:0"
       ns0:preamble="/home/sriranga/Desktop/UBM-2014/package.tex"
       ns0:text="$C_{pn}$"
       word-spacing="normal"
       letter-spacing="normal"
       font-size-adjust="none"
       font-stretch="normal"
       font-weight="normal"
       font-variant="normal"
       font-style="normal"
       stroke-miterlimit="10.433"
       xml:space="preserve"
       transform="matrix(1.0354541,0,0,1.0206412,-5.4388119,-718.30946)"
       id="g4242"><path
         id="path4244"
         d="m 229.67,711.74 0.37,1.98 h -0.21 c -0.08,-0.16 -0.18,-0.22 -0.38,-0.22 -0.08,0 -0.2,0.02 -0.41,0.07 -0.44,0.11 -0.84,0.17 -1.16,0.17 -2.12,0 -4.04,-2 -4.04,-4.2 0,-1.52 1.07,-2.59 2.6,-2.59 1.02,0 1.82,0.43 2.71,1.48 l -0.17,0.14 c -0.89,-0.88 -1.47,-1.18 -2.28,-1.18 -1.11,0 -1.75,0.76 -1.75,2.04 0,1.18 0.48,2.38 1.26,3.19 0.47,0.48 1.1,0.76 1.76,0.76 0.91,0 1.42,-0.53 1.52,-1.61 z"
         inkscape:connector-curvature="0"
         style="fill:#000000;stroke-width:0" /><path
         id="path4246"
         d="m 230.99,708.44 h 0.16 c 0,0 0.01,0 0.02,0.01 0.09,0.04 0.27,-0.09 0.27,-0.2 0,-0.06 -0.25,-1.05 -0.49,-1.97 -0.19,-0.69 -0.36,-1.35 -0.41,-1.55 -0.07,-0.32 -0.16,-0.41 -0.46,-0.41 v -0.11 h 1.43 v 0.1 c -0.33,0 -0.45,0.06 -0.45,0.21 0,0.1 0.12,0.64 0.26,1.15 0.17,-0.09 0.3,-0.12 0.46,-0.12 l -0.03,0.14 c -0.2,0 -0.34,0.1 -0.34,0.25 0,0.24 0.26,1.15 0.46,1.67 0.19,0.47 0.59,0.81 0.94,0.79 h 0 c 0.3,-0.01 0.43,-0.2 0.43,-0.6 0,-0.46 -0.2,-1.06 -0.5,-1.49 -0.29,-0.41 -0.63,-0.62 -0.99,-0.62 l 0.03,-0.14 c 1.01,0 2.09,1.17 2.09,2.28 0,0.54 -0.31,0.87 -0.8,0.87 -0.46,0 -0.79,-0.23 -1.19,-0.79 l 0.2,0.7 0.02,0.06 c 0,0 -0.01,0.01 -0.02,0.02 l -0.01,0.01 c 0,0.01 -0.01,0.01 -0.01,0.01 l -0.01,-0.01 -1.07,-0.16 z"
         inkscape:connector-curvature="0"
         style="fill:#000000;stroke-width:0" /><path
         id="path4248"
         d="m 237.29,706.45 -0.15,-0.19 c -0.2,-0.25 -0.32,-0.36 -0.42,-0.36 -0.06,0 -0.11,0.05 -0.11,0.11 0,0.04 0,0.04 0.1,0.44 l 0.39,1.43 c 0.04,0.14 0.06,0.3 0.06,0.39 0,0.25 -0.18,0.43 -0.45,0.43 -0.45,0 -0.89,-0.42 -1.61,-1.53 l 0.47,1.51 -0.02,0.02 c -0.38,-0.08 -0.52,-0.11 -1.13,-0.22 v -0.11 c 0.36,-0.01 0.45,-0.05 0.45,-0.19 0,-0.04 -0.01,-0.08 -0.02,-0.11 l -0.67,-2.44 h 0.53 c 0.32,1.1 0.39,1.25 0.69,1.72 0.42,0.64 0.78,0.99 1.03,0.99 0.11,0 0.17,-0.07 0.17,-0.2 0,-0.08 -0.04,-0.31 -0.1,-0.53 l -0.3,-1.14 c -0.09,-0.36 -0.11,-0.46 -0.11,-0.53 0,-0.26 0.09,-0.37 0.32,-0.37 0.32,0 0.5,0.14 0.98,0.78 z"
         inkscape:connector-curvature="0"
         style="fill:#000000;stroke-width:0" /></g></g></svg>