<?xml version="1.0" encoding="UTF-8" standalone="no"?>
<!-- Created with Inkscape (http://www.inkscape.org/) -->

<svg
   xmlns:ns0="http://www.iki.fi/pav/software/textext/"
   xmlns:dc="http://purl.org/dc/elements/1.1/"
   xmlns:cc="http://creativecommons.org/ns#"
   xmlns:rdf="http://www.w3.org/1999/02/22-rdf-syntax-ns#"
   xmlns:svg="http://www.w3.org/2000/svg"
   xmlns="http://www.w3.org/2000/svg"
   xmlns:sodipodi="http://sodipodi.sourceforge.net/DTD/sodipodi-0.dtd"
   xmlns:inkscape="http://www.inkscape.org/namespaces/inkscape"
   sodipodi:docname="fig1.15.eps"
   xml:space="preserve"
   height="283.46457"
   width="354.33069"
   inkscape:version="0.48.4 r9939"
   version="1.1"
   id="svg2"><sodipodi:namedview
     pagecolor="#ffffff"
     bordercolor="#666666"
     borderopacity="1"
     objecttolerance="10"
     gridtolerance="10"
     guidetolerance="10"
     inkscape:pageopacity="0"
     inkscape:pageshadow="2"
     inkscape:window-width="1366"
     inkscape:window-height="744"
     id="namedview4"
     showgrid="false"
     inkscape:zoom="2.1060833"
     inkscape:cx="190.10324"
     inkscape:cy="122.9853"
     inkscape:window-x="0"
     inkscape:window-y="24"
     inkscape:window-maximized="1"
     inkscape:current-layer="g10"
     units="cm"
     inkscape:document-units="cm"
     inkscape:object-nodes="false"><inkscape:grid
       snapvisiblegridlinesonly="true"
       enabled="true"
       visible="true"
       empspacing="5"
       id="grid3159"
       type="xygrid" /></sodipodi:namedview><metadata
     id="metadata8"><rdf:RDF><cc:Work
         rdf:about=""><dc:format>image/svg+xml</dc:format><dc:type
           rdf:resource="http://purl.org/dc/dcmitype/StillImage" /><dc:title></dc:title></cc:Work></rdf:RDF></metadata><defs
     id="defs6"><marker
       inkscape:stockid="Arrow1Mstart"
       orient="auto"
       refY="0.0"
       refX="0.0"
       id="Arrow1Mstart"
       style="overflow:visible"><path
         id="path3830"
         d="M 0.0,0.0 L 5.0,-5.0 L -12.5,0.0 L 5.0,5.0 L 0.0,0.0 z "
         style="fill-rule:evenodd;stroke:#000000;stroke-width:1.0pt"
         transform="scale(0.4) translate(10,0)" /></marker></defs><g
     transform="matrix(1.25,0,0,-1.25,0,283.46442)"
     inkscape:label="ink_ext_XXXXXX"
     inkscape:groupmode="layer"
     id="g10"><path
       d="m 63.888883,55.261347 c -0.439999,0 -0.776,-0.136 -1.072,-0.416 -0.463999,-0.447999 -0.768,-1.368001 -0.768,-2.304 0,-0.871999 0.264001,-1.808 0.64,-2.256 0.296,-0.351999 0.704001,-0.544 1.168,-0.544 0.408,0 0.752,0.136001 1.04,0.416 0.464,0.44 0.768,1.368001 0.768,2.336 0,1.639998 -0.728001,2.768 -1.776,2.768 m -0.024,-0.208 c 0.671999,0 1.032,-0.904002 1.032,-2.576 0,-1.671998 -0.352001,-2.528 -1.04,-2.528 -0.687999,0 -1.04,0.856002 -1.04,2.52 0,1.695998 0.360001,2.584 1.048,2.584"
       style="font-size:8px;font-variant:normal;font-weight:normal;writing-mode:lr-tb;fill:#231f20;fill-opacity:1;fill-rule:nonzero;stroke:none;font-family:Times;-inkscape-font-specification:Times-Roman"
       id="path3166"
       inkscape:connector-curvature="0" /><path
       d="m 67.771398,182.91251 0,-139.574003"
       style="fill:#ed1c24;fill-opacity:1;fill-rule:nonzero;stroke:none"
       id="path68"
       inkscape:connector-curvature="0" /><path
       d="M 68,183.1405 68,44.227873"
       style="fill:none;stroke:#231f20;stroke-width:0.8;stroke-linecap:butt;stroke-linejoin:miter;stroke-miterlimit:4;stroke-opacity:1;stroke-dasharray:none;marker-start:url(#Arrow1Mstart)"
       id="path70"
       inkscape:connector-curvature="0" /><path
       d="m 82.3164,59.999881 -34.3164,0"
       style="fill:#ed1c24;fill-opacity:1;fill-rule:nonzero;stroke:none"
       id="path74"
       inkscape:connector-curvature="0" /><path
       d="m 216.163,59.999881 -130.3942,0"
       style="fill:#ed1c24;fill-opacity:1;fill-rule:nonzero;stroke:none"
       id="path78"
       inkscape:connector-curvature="0" /><path
       d="m 216.163,59.999881 -164.163001,0"
       style="fill:none;stroke:#231f20;stroke-width:0.8;stroke-linecap:butt;stroke-linejoin:miter;stroke-miterlimit:4;stroke-opacity:1;stroke-dasharray:none;marker-start:url(#Arrow1Mstart)"
       id="path80"
       inkscape:connector-curvature="0" /><path
       d="m 92,59.999881 0,-4"
       style="fill:none;stroke:#231f20;stroke-width:0.5;stroke-linecap:butt;stroke-linejoin:miter;stroke-miterlimit:4;stroke-opacity:1;stroke-dasharray:none"
       id="path84"
       inkscape:connector-curvature="0" /><path
       d="m 188,59.999881 0,-4"
       style="fill:none;stroke:#231f20;stroke-width:0.5;stroke-linecap:butt;stroke-linejoin:miter;stroke-miterlimit:4;stroke-opacity:1;stroke-dasharray:none"
       id="path86"
       inkscape:connector-curvature="0" /><path
       d="m 164,59.999881 0,-4"
       style="fill:none;stroke:#231f20;stroke-width:0.5;stroke-linecap:butt;stroke-linejoin:miter;stroke-miterlimit:4;stroke-opacity:1;stroke-dasharray:none"
       id="path88"
       inkscape:connector-curvature="0" /><path
       d="m 140,59.999881 0,-4"
       style="fill:none;stroke:#231f20;stroke-width:0.5;stroke-linecap:butt;stroke-linejoin:miter;stroke-miterlimit:4;stroke-opacity:1;stroke-dasharray:none"
       id="path90"
       inkscape:connector-curvature="0" /><path
       d="m 116,59.999881 0,-4"
       style="fill:none;stroke:#231f20;stroke-width:0.5;stroke-linecap:butt;stroke-linejoin:miter;stroke-miterlimit:4;stroke-opacity:1;stroke-dasharray:none"
       id="path92"
       inkscape:connector-curvature="0" /><path
       d="m 68.025398,79.999881 -4,0"
       style="fill:none;stroke:#231f20;stroke-width:0.5;stroke-linecap:butt;stroke-linejoin:miter;stroke-miterlimit:4;stroke-opacity:1;stroke-dasharray:none"
       id="path94"
       inkscape:connector-curvature="0" /><path
       d="m 68.025398,103.5921 -4,0"
       style="fill:none;stroke:#231f20;stroke-width:0.5;stroke-linecap:butt;stroke-linejoin:miter;stroke-miterlimit:4;stroke-opacity:1;stroke-dasharray:none"
       id="path96"
       inkscape:connector-curvature="0" /><path
       d="m 68.025398,127.99988 -4,0"
       style="fill:none;stroke:#231f20;stroke-width:0.5;stroke-linecap:butt;stroke-linejoin:miter;stroke-miterlimit:4;stroke-opacity:1;stroke-dasharray:none"
       id="path98"
       inkscape:connector-curvature="0" /><path
       d="m 68.025398,152.00304 -4,0"
       style="fill:none;stroke:#231f20;stroke-width:0.5;stroke-linecap:butt;stroke-linejoin:miter;stroke-miterlimit:4;stroke-opacity:1;stroke-dasharray:none"
       id="path100"
       inkscape:connector-curvature="0" /><path
       sodipodi:nodetypes="ccc"
       d="M 92,151.99988 80,63.999881 c -2.386836,-3.442855 -8,-3.2 -12,-4"
       style="fill:none;stroke:#231f20;stroke-width:1.2;stroke-linecap:butt;stroke-linejoin:miter;stroke-miterlimit:4;stroke-opacity:1;stroke-dasharray:none"
       id="path108"
       inkscape:connector-curvature="0" /><path
       sodipodi:nodetypes="cc"
       inkscape:connector-curvature="0"
       id="path3157"
       style="fill:none;stroke:#231f20;stroke-width:0.8;stroke-linecap:butt;stroke-linejoin:miter;stroke-miterlimit:4;stroke-opacity:1;stroke-dasharray:none;stroke-dashoffset:0"
       d="M 58.152737,161.38653 164,59.999881" /><path
       inkscape:connector-curvature="0"
       id="path3161"
       style="fill:none;stroke:#231f20;stroke-width:0.5;stroke-linecap:butt;stroke-linejoin:miter;stroke-miterlimit:4;stroke-opacity:1;stroke-dasharray:none"
       d="m 66.696919,150.64137 2.73644,2.91752"
       sodipodi:nodetypes="cc" /><text
       transform="scale(1,-1)"
       sodipodi:linespacing="100%"
       id="text3043"
       y="-76.558105"
       x="60.356743"
       style="font-size:9.60000038px;font-style:normal;font-variant:normal;font-weight:normal;font-stretch:normal;text-align:end;line-height:100%;letter-spacing:0px;word-spacing:0px;text-anchor:end;fill:#000000;fill-opacity:1;stroke:none;font-family:LMRoman12;-inkscape-font-specification:LMRoman12"
       xml:space="preserve"><tspan
         y="-76.558105"
         x="60.356743"
         id="tspan3045"
         sodipodi:role="line">10</tspan></text>
<text
       xml:space="preserve"
       style="font-size:9.60000038px;font-style:normal;font-variant:normal;font-weight:normal;font-stretch:normal;text-align:end;line-height:100%;letter-spacing:0px;word-spacing:0px;text-anchor:end;fill:#000000;fill-opacity:1;stroke:none;font-family:LMRoman12;-inkscape-font-specification:LMRoman12"
       x="60.356743"
       y="-99.999878"
       id="text3063"
       sodipodi:linespacing="100%"
       transform="scale(1,-1)"><tspan
         sodipodi:role="line"
         id="tspan3065"
         x="60.356743"
         y="-99.999878">20</tspan></text>
<text
       transform="scale(1,-1)"
       sodipodi:linespacing="100%"
       id="text3067"
       y="-123.99988"
       x="60"
       style="font-size:9.60000038px;font-style:normal;font-variant:normal;font-weight:normal;font-stretch:normal;text-align:end;line-height:100%;letter-spacing:0px;word-spacing:0px;text-anchor:end;fill:#000000;fill-opacity:1;stroke:none;font-family:LMRoman12;-inkscape-font-specification:LMRoman12"
       xml:space="preserve"><tspan
         y="-123.99988"
         x="60"
         id="tspan3069"
         sodipodi:role="line">30</tspan></text>
<text
       xml:space="preserve"
       style="font-size:9.60000038px;font-style:normal;font-variant:normal;font-weight:normal;font-stretch:normal;text-align:end;line-height:100%;letter-spacing:0px;word-spacing:0px;text-anchor:end;fill:#000000;fill-opacity:1;stroke:none;font-family:LMRoman12;-inkscape-font-specification:LMRoman12"
       x="60"
       y="-147.99988"
       id="text3071"
       sodipodi:linespacing="100%"
       transform="scale(1,-1)"><tspan
         sodipodi:role="line"
         id="tspan3073"
         x="60"
         y="-147.99988">40</tspan></text>
<text
       transform="scale(1,-1)"
       sodipodi:linespacing="100%"
       id="text3075"
       y="-45.661198"
       x="94.008583"
       style="font-size:9.60000038px;font-style:normal;font-variant:normal;font-weight:normal;font-stretch:normal;text-align:end;line-height:100%;letter-spacing:0px;word-spacing:0px;text-anchor:end;fill:#000000;fill-opacity:1;stroke:none;font-family:LMRoman12;-inkscape-font-specification:LMRoman12"
       xml:space="preserve"><tspan
         y="-45.661198"
         x="94.008583"
         id="tspan3077"
         sodipodi:role="line">1</tspan></text>
<text
       xml:space="preserve"
       style="font-size:9.60000038px;font-style:normal;font-variant:normal;font-weight:normal;font-stretch:normal;text-align:end;line-height:100%;letter-spacing:0px;word-spacing:0px;text-anchor:end;fill:#000000;fill-opacity:1;stroke:none;font-family:LMRoman12;-inkscape-font-specification:LMRoman12"
       x="118.31651"
       y="-45.661198"
       id="text3079"
       sodipodi:linespacing="100%"
       transform="scale(1,-1)"><tspan
         sodipodi:role="line"
         id="tspan3081"
         x="118.31651"
         y="-45.661198">2</tspan></text>
<text
       transform="scale(1,-1)"
       sodipodi:linespacing="100%"
       id="text3083"
       y="-45.661198"
       x="142.62445"
       style="font-size:9.60000038px;font-style:normal;font-variant:normal;font-weight:normal;font-stretch:normal;text-align:end;line-height:100%;letter-spacing:0px;word-spacing:0px;text-anchor:end;fill:#000000;fill-opacity:1;stroke:none;font-family:LMRoman12;-inkscape-font-specification:LMRoman12"
       xml:space="preserve"><tspan
         y="-45.661198"
         x="142.62445"
         id="tspan3085"
         sodipodi:role="line">3</tspan></text>
<text
       xml:space="preserve"
       style="font-size:9.60000038px;font-style:normal;font-variant:normal;font-weight:normal;font-stretch:normal;text-align:end;line-height:100%;letter-spacing:0px;word-spacing:0px;text-anchor:end;fill:#000000;fill-opacity:1;stroke:none;font-family:LMRoman12;-inkscape-font-specification:LMRoman12"
       x="166.1266"
       y="-45.661198"
       id="text3087"
       sodipodi:linespacing="100%"
       transform="scale(1,-1)"><tspan
         sodipodi:role="line"
         id="tspan3089"
         x="166.1266"
         y="-45.661198">4</tspan></text>
<text
       transform="scale(1,-1)"
       sodipodi:linespacing="100%"
       id="text3091"
       y="-45.661198"
       x="190.16594"
       style="font-size:9.60000038px;font-style:normal;font-variant:normal;font-weight:normal;font-stretch:normal;text-align:end;line-height:100%;letter-spacing:0px;word-spacing:0px;text-anchor:end;fill:#000000;fill-opacity:1;stroke:none;font-family:LMRoman12;-inkscape-font-specification:LMRoman12"
       xml:space="preserve"><tspan
         y="-45.661198"
         x="190.16594"
         id="tspan3093"
         sodipodi:role="line">5</tspan></text>
<path
       d="m 67.926857,131.71239 21.382011,0"
       style="fill:none;stroke:#231f20;stroke-width:0.49999997;stroke-linecap:butt;stroke-linejoin:miter;stroke-miterlimit:4;stroke-opacity:1;stroke-dasharray:1.49999998, 1.49999998;stroke-dashoffset:0"
       id="path3095"
       inkscape:connector-curvature="0" /><path
       sodipodi:nodetypes="cc"
       d="m 162.71006,58.469785 2.74695,2.907614"
       style="fill:none;stroke:#231f20;stroke-width:0.5;stroke-linecap:butt;stroke-linejoin:miter;stroke-miterlimit:4;stroke-opacity:1;stroke-dasharray:none"
       id="path3865"
       inkscape:connector-curvature="0" /><g
       style="font-style:normal;font-variant:normal;font-weight:normal;font-stretch:normal;letter-spacing:normal;word-spacing:normal;text-anchor:start;fill:none;stroke:#000000;stroke-linecap:butt;stroke-linejoin:miter;stroke-miterlimit:10.43299961;stroke-opacity:1;stroke-dasharray:none;stroke-dashoffset:0"
       ns0:preamble="/home/sriranga/Desktop/UBM-2014/package.tex"
       ns0:text="$B$"
       word-spacing="normal"
       letter-spacing="normal"
       font-size-adjust="none"
       font-stretch="normal"
       font-weight="normal"
       font-variant="normal"
       font-style="normal"
       stroke-miterlimit="10.433"
       xml:space="preserve"
       transform="matrix(1.1,0,0,1.1,-175.53761,-624.61317)"
       id="g5138"><path
         id="path5140"
         d="m 223.7,707.12 h 2.81 c 1.56,0 2.63,0.82 2.63,1.99 0,0.37 -0.12,0.72 -0.34,0.94 -0.19,0.22 -0.39,0.34 -0.91,0.56 0.71,0.17 0.99,0.29 1.31,0.57 0.28,0.24 0.43,0.57 0.43,0.97 0,0.94 -0.7,1.46 -1.99,1.46 l -0.18,-0.3 c 0.8,0 1.17,-0.33 1.17,-1.07 0,-0.57 -0.24,-1 -0.67,-1.24 -0.34,-0.2 -0.82,-0.27 -1.71,-0.27 l -0.1,-0.32 c 0.65,0 1.06,-0.04 1.26,-0.12 0.41,-0.17 0.66,-0.6 0.66,-1.14 0,-1.07 -0.74,-1.73 -1.95,-1.73 -0.42,0 -0.64,0.15 -0.64,0.42 0,0.12 0.12,0.6 0.35,1.39 0.13,0.45 0.19,0.68 0.32,1.18 h 0 l 0.1,0.32 0.65,2.31 c 0.06,0.21 0.17,0.27 0.56,0.27 l 0.18,0.3 h -2.57 v -0.16 c 0.62,-0.05 0.77,-0.13 0.77,-0.4 0,-0.15 -0.04,-0.4 -0.11,-0.64 l -1.22,-4.39 c -0.18,-0.58 -0.25,-0.64 -0.81,-0.74 z"
         inkscape:connector-curvature="0"
         style="fill:#000000;stroke-width:0" /></g><g
       id="g5284"
       transform="matrix(1.1,0,0,1.1,-152.58968,-645.10694)"
       xml:space="preserve"
       stroke-miterlimit="10.433"
       font-style="normal"
       font-variant="normal"
       font-weight="normal"
       font-stretch="normal"
       font-size-adjust="none"
       letter-spacing="normal"
       word-spacing="normal"
       ns0:text="$Q$"
       ns0:preamble="/home/sriranga/Desktop/UBM-2014/package.tex"
       style="font-style:normal;font-variant:normal;font-weight:normal;font-stretch:normal;letter-spacing:normal;word-spacing:normal;text-anchor:start;fill:none;stroke:#000000;stroke-linecap:butt;stroke-linejoin:miter;stroke-miterlimit:10.43299961;stroke-opacity:1;stroke-dasharray:none;stroke-dashoffset:0"><path
         style="fill:#000000;stroke-width:0"
         inkscape:connector-curvature="0"
         d="m 226.46,706.97 0.07,0 0.07,0.01 0.06,0 0.07,0.01 0.06,0 0.06,0.01 0.06,0.01 0.06,0.01 0.05,0 0.06,0.01 0.05,0.01 0.05,0.01 0.11,0.02 0.1,0.03 0.09,0.03 0.1,0.03 0.09,0.03 0.09,0.04 0.1,0.04 0.1,0.05 0.05,0.02 0.05,0.03 0.05,0.02 0.05,0.03 c 1.47,0.83 2.47,2.44 2.47,4.01 0,1.34 -0.95,2.31 -2.27,2.31 l -0.05,-0.33 c 0.79,0 1.28,-0.57 1.28,-1.52 0,-1.05 -0.47,-2.51 -1.1,-3.42 -0.55,-0.79 -1.17,-1.18 -1.89,-1.18 -0.81,0 -1.28,0.61 -1.28,1.65 0,0.95 0.49,2.43 1.1,3.29 0.55,0.81 1.16,1.18 1.89,1.18 h 0 l 0.05,0.33 c -0.8,0 -1.69,-0.41 -2.49,-1.12 -1,-0.94 -1.59,-2.14 -1.59,-3.3 0,-0.81 0.3,-1.49 0.83,-1.91 0.26,-0.21 0.48,-0.31 0.92,-0.4 -0.91,-0.8 -1,-0.88 -1.76,-1.42 l 0.1,-0.14 c 0.38,0.21 0.75,0.3 1.14,0.3 0.2,0 0.49,-0.06 0.93,-0.17 0.6,-0.17 1.14,-0.27 1.51,-0.27 0.55,0 1.24,0.26 1.75,0.65 0.24,0.18 0.37,0.32 0.63,0.68 l -0.15,0.11 c -0.56,-0.58 -0.97,-0.77 -1.68,-0.77 -0.26,0 -0.47,0.04 -1.23,0.22 -0.51,0.13 -0.98,0.22 -1.04,0.21 -0.04,-0.01 -0.06,-0.01 -0.06,-0.01 h -0.25 z"
         id="path5286" /></g><g
       style="font-style:normal;font-variant:normal;font-weight:normal;font-stretch:normal;letter-spacing:normal;word-spacing:normal;text-anchor:start;fill:none;stroke:#000000;stroke-linecap:butt;stroke-linejoin:miter;stroke-miterlimit:10.43299961;stroke-opacity:1;stroke-dasharray:none;stroke-dashoffset:0"
       ns0:preamble="/home/sriranga/Desktop/UBM-2014/package.tex"
       ns0:text="$I_F$(mA)"
       word-spacing="normal"
       letter-spacing="normal"
       font-size-adjust="none"
       font-stretch="normal"
       font-weight="normal"
       font-variant="normal"
       font-style="normal"
       stroke-miterlimit="10.433"
       xml:space="preserve"
       transform="matrix(1.1,0,0,1.1,-193.88602,-590.20984)"
       id="g5447"><path
         id="path5449"
         d="m 223.6,707.12 h 2.43 v 0.16 c -0.57,0.07 -0.68,0.13 -0.68,0.41 0,0.19 0.02,0.31 0.11,0.63 l 1.23,4.4 c 0.18,0.57 0.24,0.63 0.81,0.73 v 0.16 h -2.46 v -0.16 c 0.58,-0.07 0.7,-0.15 0.7,-0.42 0,-0.14 -0.04,-0.37 -0.11,-0.62 l -1.22,-4.39 c -0.18,-0.58 -0.25,-0.64 -0.81,-0.74 z"
         inkscape:connector-curvature="0"
         style="fill:#000000;stroke-width:0" /><path
         id="path5451"
         d="m 231.66,710.17 h -3.46 v -0.11 c 0.45,-0.04 0.53,-0.08 0.53,-0.28 0,-0.11 -0.02,-0.28 -0.07,-0.45 l -0.86,-3.07 c -0.13,-0.42 -0.17,-0.46 -0.57,-0.52 v -0.11 h 1.75 v 0.11 c -0.4,0.02 -0.53,0.1 -0.53,0.31 0,0.05 0.03,0.16 0.07,0.31 l 0.43,1.55 c 0.26,-0.01 0.41,-0.02 0.56,-0.02 0.28,0 0.32,-0.01 0.39,-0.03 0.1,-0.06 0.15,-0.15 0.15,-0.29 0,-0.11 -0.01,-0.19 -0.06,-0.41 l 0.12,-0.03 0.53,1.62 -0.12,0.04 c -0.32,-0.63 -0.34,-0.63 -1.51,-0.65 l 0.46,1.62 c 0.04,0.14 0.14,0.18 0.43,0.18 1.17,0 1.42,-0.09 1.42,-0.52 0,-0.04 0,-0.08 -0.01,-0.17 -0.01,-0.04 -0.01,-0.04 -0.01,-0.13 l 0.14,-0.01 z"
         inkscape:connector-curvature="0"
         style="fill:#000000;stroke-width:0" /><path
         id="path5453"
         d="m 235.28,713.84 -0.07,-0.04 -0.06,-0.05 -0.07,-0.04 -0.06,-0.04 -0.06,-0.04 -0.05,-0.04 -0.06,-0.04 -0.05,-0.03 -0.05,-0.04 -0.05,-0.04 -0.05,-0.03 -0.04,-0.04 -0.05,-0.03 -0.04,-0.04 -0.08,-0.06 -0.08,-0.07 -0.07,-0.07 -0.07,-0.07 -0.07,-0.07 -0.07,-0.07 -0.07,-0.08 -0.07,-0.08 -0.06,-0.08 c -0.71,-0.87 -1.06,-1.86 -1.06,-3.02 0,-1.26 0.37,-2.24 1.25,-3.25 0.4,-0.48 0.66,-0.7 1.18,-1.01 l 0.12,0.16 c -0.8,0.62 -1.08,0.97 -1.35,1.71 -0.23,0.67 -0.34,1.42 -0.34,2.42 0,1.04 0.13,1.86 0.39,2.47 0.28,0.62 0.58,0.97 1.3,1.55 z"
         inkscape:connector-curvature="0"
         style="fill:#000000;stroke-width:0" /><path
         id="path5455"
         d="m 235.85,711.08 0.01,0 0.01,0 0.02,0.01 0.01,0 0.01,0 0.01,0 0.02,0.01 0.02,0 0.02,0 0.02,0.01 0.02,0 0.02,0 0.01,0 0.02,0 0.02,0.01 0.02,0 0.02,0 0.02,0 0.02,0 c 0.26,0 0.35,-0.16 0.35,-0.64 v -2.51 c 0,-0.54 -0.14,-0.69 -0.7,-0.7 v -0.15 h 2.21 v 0.15 c -0.53,0.02 -0.68,0.13 -0.68,0.52 v 2.8 c 0,0.02 0.08,0.12 0.15,0.19 0.25,0.23 0.68,0.4 1.03,0.4 0.43,0 0.65,-0.35 0.65,-1.04 v -2.16 c 0,-0.56 -0.11,-0.67 -0.67,-0.71 v -0.15 h 2.23 v 0.15 c -0.57,0.01 -0.72,0.18 -0.72,0.8 v 2.5 c 0.3,0.43 0.63,0.61 1.08,0.61 0.57,0 0.75,-0.27 0.75,-1.09 v -2.1 c 0,-0.57 -0.08,-0.65 -0.66,-0.72 v -0.15 h 2.18 v 0.15 l -0.26,0.02 c -0.29,0.02 -0.42,0.2 -0.42,0.59 v 2.05 c 0,1.17 -0.39,1.77 -1.16,1.77 -0.57,0 -1.08,-0.26 -1.62,-0.84 -0.18,0.57 -0.52,0.84 -1.06,0.84 -0.43,0 -0.71,-0.15 -1.54,-0.77 v 0.74 l -0.07,0.03 c -0.5,-0.19 -0.84,-0.3 -1.39,-0.45 z"
         inkscape:connector-curvature="0"
         style="fill:#000000;stroke-width:0" /><path
         id="path5457"
         d="m 250.44,707.31 -0.04,0.01 -0.04,0 -0.04,0 -0.04,0.01 -0.03,0.01 -0.03,0 -0.03,0.01 -0.03,0.01 -0.03,0.01 -0.03,0.01 -0.03,0.01 -0.02,0.02 -0.03,0.01 -0.02,0.02 -0.02,0.02 -0.03,0.02 -0.02,0.03 -0.02,0.02 -0.03,0.03 -0.02,0.03 -0.02,0.03 -0.03,0.04 -0.02,0.04 -0.03,0.04 -0.02,0.04 -0.03,0.05 -0.02,0.05 -0.03,0.05 -0.03,0.06 -0.03,0.06 -0.01,0.03 -0.02,0.03 -0.01,0.03 -0.02,0.04 -2.48,5.64 h -0.19 l -2.08,-4.88 c -0.63,-1.45 -0.75,-1.61 -1.23,-1.63 v -0.19 h 1.97 v 0.19 c -0.48,0 -0.68,0.13 -0.68,0.41 0,0.12 0.03,0.26 0.08,0.39 l 0.46,1.16 H 248 l -0.14,0.41 h -2.3 l 1.15,2.73 1.15,-2.73 0.14,-0.41 0.41,-0.95 c 0.12,-0.27 0.19,-0.53 0.19,-0.67 0,-0.25 -0.17,-0.33 -0.7,-0.34 v -0.19 h 2.54 z"
         inkscape:connector-curvature="0"
         style="fill:#000000;stroke-width:0" /><path
         id="path5459"
         d="m 250.98,705.37 0.07,0.04 0.07,0.04 0.06,0.05 0.06,0.04 0.06,0.04 0.05,0.03 0.06,0.04 0.05,0.04 0.05,0.04 0.05,0.03 0.05,0.04 0.04,0.03 0.05,0.04 0.04,0.03 0.08,0.07 0.08,0.07 0.07,0.07 0.08,0.07 0.07,0.07 0.06,0.07 0.07,0.08 0.07,0.08 0.07,0.08 c 0.7,0.86 1.05,1.86 1.05,3.02 0,1.27 -0.37,2.23 -1.24,3.25 -0.41,0.47 -0.67,0.69 -1.19,1.01 l -0.12,-0.16 c 0.8,-0.63 1.07,-0.97 1.35,-1.72 0.24,-0.66 0.35,-1.42 0.35,-2.41 0,-1.03 -0.13,-1.86 -0.4,-2.46 -0.28,-0.63 -0.58,-0.99 -1.3,-1.56 z"
         inkscape:connector-curvature="0"
         style="fill:#000000;stroke-width:0" /></g><g
       id="g5611"
       transform="matrix(1.1,0,0,1.1,-81.26807,-714.91237)"
       xml:space="preserve"
       stroke-miterlimit="10.433"
       font-style="normal"
       font-variant="normal"
       font-weight="normal"
       font-stretch="normal"
       font-size-adjust="none"
       letter-spacing="normal"
       word-spacing="normal"
       ns0:text="$A$"
       ns0:preamble="/home/sriranga/Desktop/UBM-2014/package.tex"
       style="font-style:normal;font-variant:normal;font-weight:normal;font-stretch:normal;letter-spacing:normal;word-spacing:normal;text-anchor:start;fill:none;stroke:#000000;stroke-linecap:butt;stroke-linejoin:miter;stroke-miterlimit:10.43299961;stroke-opacity:1;stroke-dasharray:none;stroke-dashoffset:0"><path
         style="fill:#000000;stroke-width:0"
         inkscape:connector-curvature="0"
         d="m 229.29,707.28 -0.05,0.01 -0.05,0 -0.04,0.01 -0.05,0.01 -0.04,0 -0.04,0.01 -0.03,0.01 -0.04,0.01 -0.03,0.01 -0.03,0.01 -0.03,0.01 -0.02,0.02 -0.03,0.01 -0.02,0.02 -0.02,0.02 -0.02,0.02 -0.02,0.02 -0.02,0.03 -0.01,0.02 -0.02,0.03 -0.01,0.03 -0.02,0.04 -0.01,0.04 -0.01,0.04 -0.01,0.04 -0.01,0.04 -0.02,0.05 -0.01,0.06 0,0.02 -0.01,0.03 0,0.03 -0.01,0.03 -0.01,0.03 0,0.03 -0.01,0.03 0,0.04 -0.94,5.62 h -0.26 l -2.88,-4.97 c -0.79,-1.32 -0.89,-1.43 -1.29,-1.51 v -0.16 h 1.86 v 0.16 c -0.5,0.05 -0.58,0.1 -0.58,0.35 0,0.19 0.03,0.28 0.2,0.62 l 0.56,1.12 h 2.19 l -0.05,0.36 h -1.93 l 1.49,2.58 0.44,-2.58 0.05,-0.36 0.2,-1.3 c 0.01,-0.09 0.02,-0.18 0.02,-0.26 0,-0.38 -0.14,-0.47 -0.77,-0.53 v -0.16 h 2.44 z"
         id="path5613" /></g><g
       style="font-style:normal;font-variant:normal;font-weight:normal;font-stretch:normal;letter-spacing:normal;word-spacing:normal;text-anchor:start;fill:none;stroke:#000000;stroke-linecap:butt;stroke-linejoin:miter;stroke-miterlimit:10.43299961;stroke-opacity:1;stroke-dasharray:none;stroke-dashoffset:0"
       ns0:preamble="/home/sriranga/Desktop/UBM-2014/package.tex"
       ns0:text="$V_F$(V)"
       word-spacing="normal"
       letter-spacing="normal"
       font-size-adjust="none"
       font-stretch="normal"
       font-weight="normal"
       font-variant="normal"
       font-style="normal"
       stroke-miterlimit="10.433"
       xml:space="preserve"
       transform="matrix(1.1,0,0,1.1,-27.070048,-721.19321)"
       id="content"><path
         id="path5757"
         d="m 230.28,713.61 h -1.85 v -0.16 c 0.44,-0.05 0.62,-0.15 0.62,-0.34 0,-0.18 -0.19,-0.61 -0.51,-1.18 l -2.05,-3.53 -0.66,4.4 c -0.01,0.05 -0.01,0.09 -0.01,0.15 0,0.33 0.14,0.43 0.77,0.5 v 0.16 h -2.4 v -0.16 c 0.55,-0.07 0.57,-0.1 0.78,-1.34 l 0.85,-5.16 h 0.19 l 3.71,6.1 c 0.17,0.27 0.33,0.39 0.56,0.4 z"
         inkscape:connector-curvature="0"
         style="fill:#000000;stroke-width:0" /><path
         id="path5759"
         d="m 234.19,710.17 h -3.47 v -0.11 c 0.45,-0.04 0.53,-0.08 0.53,-0.28 0,-0.11 -0.02,-0.28 -0.07,-0.45 l -0.86,-3.07 c -0.12,-0.42 -0.17,-0.46 -0.57,-0.52 v -0.11 h 1.76 v 0.11 c -0.41,0.02 -0.53,0.1 -0.53,0.31 0,0.05 0.02,0.16 0.06,0.31 l 0.43,1.55 c 0.26,-0.01 0.41,-0.02 0.56,-0.02 0.28,0 0.32,-0.01 0.39,-0.03 0.1,-0.06 0.15,-0.15 0.15,-0.29 0,-0.11 -0.01,-0.19 -0.06,-0.41 l 0.12,-0.03 0.53,1.62 -0.12,0.04 c -0.32,-0.63 -0.34,-0.63 -1.51,-0.65 l 0.46,1.62 c 0.04,0.14 0.14,0.18 0.43,0.18 1.17,0 1.42,-0.09 1.42,-0.52 0,-0.04 0,-0.08 -0.01,-0.17 -0.01,-0.04 -0.01,-0.04 -0.01,-0.13 l 0.14,-0.01 z"
         inkscape:connector-curvature="0"
         style="fill:#000000;stroke-width:0" /><path
         id="path5761"
         d="m 237.8,713.84 -0.07,-0.04 -0.06,-0.05 -0.07,-0.04 -0.06,-0.04 -0.06,-0.04 -0.05,-0.04 -0.06,-0.04 -0.05,-0.03 -0.05,-0.04 -0.05,-0.04 -0.05,-0.03 -0.04,-0.04 -0.05,-0.03 -0.04,-0.04 -0.08,-0.06 -0.08,-0.07 -0.07,-0.07 -0.07,-0.07 -0.07,-0.07 -0.07,-0.07 -0.07,-0.08 -0.07,-0.08 -0.06,-0.08 c -0.71,-0.87 -1.06,-1.86 -1.06,-3.02 0,-1.26 0.37,-2.24 1.25,-3.25 0.4,-0.48 0.66,-0.7 1.18,-1.01 l 0.12,0.16 c -0.8,0.62 -1.08,0.97 -1.35,1.71 -0.23,0.67 -0.34,1.42 -0.34,2.42 0,1.04 0.13,1.86 0.4,2.47 0.27,0.62 0.57,0.97 1.29,1.55 z"
         inkscape:connector-curvature="0"
         style="fill:#000000;stroke-width:0" /><path
         id="path5763"
         d="m 245.12,713.7 h -2.04 v -0.19 c 0.54,-0.03 0.72,-0.14 0.72,-0.42 0,-0.15 -0.07,-0.42 -0.19,-0.72 l -1.46,-3.65 -1.5,3.36 c -0.33,0.73 -0.41,0.96 -0.41,1.1 0,0.19 0.14,0.29 0.46,0.31 0.04,0 0.15,0.01 0.29,0.02 v 0.19 h -2.65 v -0.19 c 0.49,-0.02 0.63,-0.16 1.06,-1.04 l 2.44,-5.45 h 0.15 l 2.21,5.57 c 0.33,0.78 0.44,0.89 0.92,0.92 z"
         inkscape:connector-curvature="0"
         style="fill:#000000;stroke-width:0" /><path
         id="path5765"
         d="m 245.75,705.37 0.07,0.04 0.07,0.04 0.06,0.05 0.06,0.04 0.06,0.04 0.05,0.03 0.06,0.04 0.05,0.04 0.05,0.04 0.05,0.03 0.05,0.04 0.04,0.03 0.05,0.04 0.04,0.03 0.08,0.07 0.08,0.07 0.07,0.07 0.08,0.07 0.06,0.07 0.07,0.07 0.07,0.08 0.07,0.08 0.06,0.08 c 0.71,0.86 1.06,1.86 1.06,3.02 0,1.27 -0.37,2.23 -1.24,3.25 -0.41,0.47 -0.67,0.69 -1.19,1.01 l -0.12,-0.16 c 0.8,-0.63 1.07,-0.97 1.35,-1.72 0.23,-0.66 0.34,-1.42 0.34,-2.41 0,-1.03 -0.12,-1.86 -0.39,-2.46 -0.28,-0.63 -0.58,-0.99 -1.3,-1.56 z"
         inkscape:connector-curvature="0"
         style="fill:#000000;stroke-width:0" /></g><path
       sodipodi:type="arc"
       id="path5837"
       style="fill:#000000;stroke:none"
       sodipodi:cx="100.96314"
       sodipodi:cy="127.55118"
       sodipodi:rx="2.5"
       sodipodi:ry="2.5"
       d="m 103.46314,127.55118 c 0,1.38071 -1.11929,2.5 -2.5,2.5 -1.380709,0 -2.499998,-1.11929 -2.499998,-2.5 0,-1.38071 1.119289,-2.5 2.499998,-2.5 1.38071,0 2.5,1.11929 2.5,2.5 z"
       transform="translate(-11.856881,4.1319434)" /></g></svg>