<?xml version="1.0" encoding="UTF-8" standalone="no"?>
<!-- Created with Inkscape (http://www.inkscape.org/) -->

<svg
   xmlns:ns0="http://www.iki.fi/pav/software/textext/"
   xmlns:dc="http://purl.org/dc/elements/1.1/"
   xmlns:cc="http://creativecommons.org/ns#"
   xmlns:rdf="http://www.w3.org/1999/02/22-rdf-syntax-ns#"
   xmlns:svg="http://www.w3.org/2000/svg"
   xmlns="http://www.w3.org/2000/svg"
   xmlns:sodipodi="http://sodipodi.sourceforge.net/DTD/sodipodi-0.dtd"
   xmlns:inkscape="http://www.inkscape.org/namespaces/inkscape"
   id="svg2"
   version="1.1"
   inkscape:version="0.48.4 r9939"
   width="425.19684"
   height="106.29921"
   xml:space="preserve"
   sodipodi:docname="fig1.19.eps"><sodipodi:namedview
     pagecolor="#ffffff"
     bordercolor="#666666"
     borderopacity="1"
     objecttolerance="10"
     gridtolerance="10"
     guidetolerance="10"
     inkscape:pageopacity="0"
     inkscape:pageshadow="2"
     inkscape:window-width="1366"
     inkscape:window-height="744"
     id="namedview4"
     showgrid="false"
     units="cm"
     inkscape:document-units="cm"
     inkscape:zoom="1.9967223"
     inkscape:cx="212.59842"
     inkscape:cy="73.182436"
     inkscape:window-x="0"
     inkscape:window-y="24"
     inkscape:window-maximized="1"
     inkscape:current-layer="g10"
     inkscape:object-nodes="true"><inkscape:grid
       snapvisiblegridlinesonly="true"
       enabled="true"
       visible="true"
       empspacing="5"
       id="grid3813"
       type="xygrid" /></sodipodi:namedview><metadata
     id="metadata8"><rdf:RDF><cc:Work
         rdf:about=""><dc:format>image/svg+xml</dc:format><dc:type
           rdf:resource="http://purl.org/dc/dcmitype/StillImage" /><dc:title></dc:title></cc:Work></rdf:RDF></metadata><defs
     id="defs6" /><g
     transform="matrix(1.25,0,0,-1.25,0,106.29916)"
     inkscape:label="ink_ext_XXXXXX"
     inkscape:groupmode="layer"
     id="g10"><path
       d="m 71.03485,48.888617 0,-17.70588 -13.3915,0 0,17.70698 13.3915,-0.0011"
       style="fill:#ffffff;fill-opacity:1;fill-rule:nonzero;stroke:none"
       id="path28"
       inkscape:connector-curvature="0" /><path
       d="m 71.82194,39.983117 39.13767,0"
       style="fill:none;stroke:#231f20;stroke-width:0.80000001;stroke-linecap:round;stroke-linejoin:round;stroke-miterlimit:3.86369991;stroke-opacity:1;stroke-dasharray:none"
       id="path30"
       inkscape:connector-curvature="0" /><path
       d="m 20.41544,39.983117 38.01077,0"
       style="fill:none;stroke:#231f20;stroke-width:0.80000001;stroke-linecap:round;stroke-linejoin:round;stroke-miterlimit:3.93184996;stroke-opacity:1;stroke-dasharray:none"
       id="path32"
       inkscape:connector-curvature="0" /><path
       d="m 58.17155,31.130387 13.3926,0 0,17.7063 -13.3926,0 0,-17.7063 z"
       style="fill:#ffffff;fill-opacity:1;fill-rule:nonzero;stroke:none"
       id="path64"
       inkscape:connector-curvature="0" /><path
       d="m 71.03485,39.983117 -12.8633,-7.4258 0,14.8516 12.8633,-7.4258 z"
       style="fill:none;stroke:#231f20;stroke-width:0.80000001;stroke-linecap:round;stroke-linejoin:round;stroke-miterlimit:3.86369991;stroke-opacity:1;stroke-dasharray:none"
       id="path66"
       inkscape:connector-curvature="0" /><path
       d="m 71.56415,47.337417 0,-14.9305"
       style="fill:none;stroke:#231f20;stroke-width:0.80000001;stroke-linecap:round;stroke-linejoin:round;stroke-miterlimit:3.86369991;stroke-opacity:1;stroke-dasharray:none"
       id="path68"
       inkscape:connector-curvature="0" /><path
       transform="matrix(-0.98555528,0,0,-0.98555528,114.15557,100.41372)"
       d="m 97.15923,61.29921 c 0,1.19251 -0.96672,2.15923 -2.15923,2.15923 -1.19251,0 -2.15923,-0.96672 -2.15923,-2.15923 0,-1.19251 0.96672,-2.159231 2.15923,-2.159231 1.19251,0 2.15923,0.966721 2.15923,2.159231 z"
       sodipodi:ry="2.1592305"
       sodipodi:rx="2.1592305"
       sodipodi:cy="61.29921"
       sodipodi:cx="95"
       id="path3815"
       style="fill:#ffffff;stroke:#000000;stroke-width:0.50732821;stroke-linecap:round;stroke-linejoin:round;stroke-miterlimit:4;stroke-opacity:1;stroke-dasharray:none;stroke-dashoffset:0"
       sodipodi:type="arc" /><path
       transform="matrix(-0.98555528,0,0,-0.98555528,204.86676,100.41372)"
       d="m 97.15923,61.29921 c 0,1.19251 -0.96672,2.15923 -2.15923,2.15923 -1.19251,0 -2.15923,-0.96672 -2.15923,-2.15923 0,-1.19251 0.96672,-2.159231 2.15923,-2.159231 1.19251,0 2.15923,0.966721 2.15923,2.159231 z"
       sodipodi:ry="2.1592305"
       sodipodi:rx="2.1592305"
       sodipodi:cy="61.29921"
       sodipodi:cx="95"
       id="path3821"
       style="fill:#ffffff;stroke:#000000;stroke-width:0.50732821;stroke-linecap:round;stroke-linejoin:round;stroke-miterlimit:4;stroke-opacity:1;stroke-dasharray:none;stroke-dashoffset:0"
       sodipodi:type="arc" /><path
       inkscape:connector-curvature="0"
       id="path3865"
       style="fill:none;stroke:#231f20;stroke-width:0.80000007;stroke-linecap:butt;stroke-linejoin:miter;stroke-miterlimit:3.93184996;stroke-opacity:1;stroke-dasharray:none"
       d="M 213.4338,40.00116 144,39.99996" /><path
       inkscape:connector-curvature="0"
       id="path3039"
       style="font-size:8px;font-variant:normal;font-weight:normal;writing-mode:lr-tb;fill:#231f20;fill-opacity:1;fill-rule:nonzero;stroke:none;font-family:Symbol;-inkscape-font-specification:Symbol"
       d="m 22.639672,35.197221 0.44,0 0,-1.912 1.896,0 0,-0.44 -1.896,0 0,-1.912 -0.44,0 0,1.912 -1.896,0 0,0.44 1.896,0 0,1.912" /><path
       inkscape:connector-curvature="0"
       id="path3041"
       style="font-size:8px;font-variant:normal;font-weight:normal;writing-mode:lr-tb;fill:#231f20;fill-opacity:1;fill-rule:nonzero;stroke:none;font-family:Symbol;-inkscape-font-specification:Symbol"
       d="m 111.80647,34.788316 0,-0.44 -4.192,0 0,0.44 4.192,0" /><rect
       transform="scale(1,-1)"
       y="-63.999962"
       x="176"
       height="48"
       width="124"
       id="rect3342"
       style="fill:#ffffff;fill-opacity:1;stroke:#000000;stroke-width:0.79370075;stroke-linecap:round;stroke-linejoin:round;stroke-miterlimit:3.86369991;stroke-opacity:1;stroke-dasharray:none;stroke-dashoffset:0" /><path
       d="M 330.0452,40.00116 300,39.99996"
       style="fill:none;stroke:#231f20;stroke-width:0.80000013;stroke-linecap:butt;stroke-linejoin:miter;stroke-miterlimit:3.93184996;stroke-opacity:1;stroke-dasharray:none"
       id="path3344"
       inkscape:connector-curvature="0" /><path
       sodipodi:type="arc"
       style="fill:#ffffff;stroke:#000000;stroke-width:0.50732821;stroke-linecap:round;stroke-linejoin:round;stroke-miterlimit:4;stroke-opacity:1;stroke-dasharray:none;stroke-dashoffset:0"
       id="path3346"
       sodipodi:cx="95"
       sodipodi:cy="61.29921"
       sodipodi:rx="2.1592305"
       sodipodi:ry="2.1592305"
       d="m 97.15923,61.29921 c 0,1.19251 -0.96672,2.15923 -2.15923,2.15923 -1.19251,0 -2.15923,-0.96672 -2.15923,-2.15923 0,-1.19251 0.96672,-2.159231 2.15923,-2.159231 1.19251,0 2.15923,0.966721 2.15923,2.159231 z"
       transform="matrix(-0.98555528,0,0,-0.98555528,237.43804,100.41372)" /><path
       transform="matrix(-0.98555528,0,0,-0.98555528,423.75579,100.41372)"
       d="m 97.15923,61.29921 c 0,1.19251 -0.96672,2.15923 -2.15923,2.15923 -1.19251,0 -2.15923,-0.96672 -2.15923,-2.15923 0,-1.19251 0.96672,-2.159231 2.15923,-2.159231 1.19251,0 2.15923,0.966721 2.15923,2.159231 z"
       sodipodi:ry="2.1592305"
       sodipodi:rx="2.1592305"
       sodipodi:cy="61.29921"
       sodipodi:cx="95"
       id="path3348"
       style="fill:#ffffff;stroke:#000000;stroke-width:0.50732821;stroke-linecap:round;stroke-linejoin:round;stroke-miterlimit:4;stroke-opacity:1;stroke-dasharray:none;stroke-dashoffset:0"
       sodipodi:type="arc" /><rect
       transform="scale(1,-1)"
       y="-67.999962"
       x="250.06403"
       height="8"
       width="32"
       id="rect3357"
       style="fill:#ffffff;fill-opacity:1;stroke:#ffffff;stroke-width:0.80000001;stroke-linecap:round;stroke-linejoin:round;stroke-miterlimit:3.86369991;stroke-opacity:1;stroke-dasharray:none;stroke-dashoffset:0" /><path
       sodipodi:nodetypes="cccccccccccc"
       inkscape:connector-curvature="0"
       id="path5037"
       d="m 246.06402,63.99996 4,0 1.93598,-4 4,8 4,-8 4,8 4,-8 4,8 4.02023,-8.114008 4,7.839048 2.04379,-3.72504 4,0"
       style="fill:none;stroke:#000000;stroke-width:0.79370075;stroke-linecap:butt;stroke-linejoin:round;stroke-miterlimit:4;stroke-opacity:1;stroke-dasharray:none" /><path
       inkscape:connector-curvature="0"
       id="path3867"
       style="fill:#ffffff;fill-opacity:1;fill-rule:nonzero;stroke:none"
       d="M 231.99958,21.21406 232,10.89846 l -4.78731,0 -4e-4,10.3156 4.78729,0" /><path
       inkscape:connector-curvature="0"
       id="path3869"
       style="fill:none;stroke:#231f20;stroke-width:0.69999999;stroke-linecap:round;stroke-linejoin:round;stroke-miterlimit:3.86369991;stroke-opacity:1;stroke-dasharray:none"
       d="m 227.08817,21.21406 0.001,-10.3156" /><path
       inkscape:connector-curvature="0"
       id="path3871"
       style="fill:none;stroke:#231f20;stroke-width:0.69999999;stroke-linecap:round;stroke-linejoin:round;stroke-miterlimit:3.86369991;stroke-opacity:1;stroke-dasharray:none"
       d="m 233.42749,21.094243 c -2.06195,-3.328126 -2.03423,-6.717714 0.001,-10.166345"
       sodipodi:nodetypes="cc" /><path
       d="m 212,68.849881 3.8e-4,-10.3156 -4.36235,0 -3.6e-4,10.3156 4.36233,0"
       style="fill:#ffffff;fill-opacity:1;fill-rule:nonzero;stroke:none"
       id="path4325"
       inkscape:connector-curvature="0" /><path
       sodipodi:nodetypes="cc"
       d="m 208,71.99996 0,-16"
       style="fill:none;stroke:#231f20;stroke-width:0.69999999;stroke-linecap:round;stroke-linejoin:round;stroke-miterlimit:3.86369991;stroke-opacity:1;stroke-dasharray:none"
       id="path4327"
       inkscape:connector-curvature="0" /><path
       sodipodi:nodetypes="cc"
       inkscape:connector-curvature="0"
       id="path4331"
       style="fill:none;stroke:#231f20;stroke-width:0.69999999;stroke-linecap:round;stroke-linejoin:round;stroke-miterlimit:3.86369991;stroke-opacity:1;stroke-dasharray:none"
       d="m 212,67.99996 0,-8" /><path
       d="m 201.14473,73.263828 -0.44,0 0,-1.912 -1.896,0 0,-0.44 1.896,0 0,-1.912 0.44,0 0,1.912 1.896,0 0,0.44 -1.896,0 0,1.912"
       style="font-size:8px;font-variant:normal;font-weight:normal;writing-mode:lr-tb;fill:#231f20;fill-opacity:1;fill-rule:nonzero;stroke:none;font-family:Symbol;-inkscape-font-specification:Symbol"
       id="path4333"
       inkscape:connector-curvature="0" /><path
       d="m 217.50919,71.373857 0,-0.44 4.192,0 0,0.44 -4.192,0"
       style="font-size:8px;font-variant:normal;font-weight:normal;writing-mode:lr-tb;fill:#231f20;fill-opacity:1;fill-rule:nonzero;stroke:none;font-family:Symbol;-inkscape-font-specification:Symbol"
       id="path4335"
       inkscape:connector-curvature="0" /><g
       style="font-style:normal;font-variant:normal;font-weight:normal;font-stretch:normal;letter-spacing:normal;word-spacing:normal;text-anchor:start;fill:none;stroke:#000000;stroke-width:1.1672914;stroke-linecap:butt;stroke-linejoin:miter;stroke-miterlimit:10.43299961;stroke-opacity:1;stroke-dasharray:none;stroke-dashoffset:0"
       ns0:preamble="/home/sriranga/Desktop/UBM-2014/package.tex"
       ns0:text="$V_\\gamma$"
       text-anchor="start"
       word-spacing="normal"
       letter-spacing="normal"
       font-size-adjust="none"
       font-stretch="normal"
       font-weight="normal"
       font-variant="normal"
       font-style="normal"
       fill-opacity="1"
       fill-rule="evenodd"
       fill="none"
       stroke-opacity="1"
       stroke-dashoffset="0"
       stroke-dasharray="none"
       stroke-miterlimit="10.433"
       stroke-linejoin="miter"
       stroke-linecap="butt"
       stroke="black"
       xml:space="preserve"
       transform="matrix(1.0354541,0,0,1.0206412,-23.438423,-645.67719)"
       id="g4381"><path
         id="path4383"
         fill="black"
         stroke-width="0"
         d="M230.28,713.61 H228.43 V713.45 C228.87,713.4,229.05,713.3,229.05,713.11 C229.05,712.93,228.86,712.5,228.54,711.93 L226.49,708.4 L225.83,712.8 C225.82,712.85,225.82,712.89,225.82,712.95 C225.82,713.28,225.96,713.38,226.59,713.45 V713.61 H224.19 V713.45 C224.74,713.38,224.76,713.35,224.97,712.11 L225.82,706.95 H226.01 L229.72,713.05 C229.89,713.32,230.05,713.44,230.28,713.45 Z " /><path
         id="path4385"
         fill="black"
         stroke-width="0"
         d="M233.22,708.68 L232.71,708.59 C232.39,707.84,232.01,707.1,231.52,706.44 C231.55,707.12,231.6,708.7,230.6,708.7 C230.14,708.7,229.54,708.07,229.54,707.66 C229.54,707.64,229.55,707.61,229.57,707.61 C229.73,707.61,229.71,708.2,230.4,708.2 C231.12,708.2,231.16,706.78,231.16,706.28 C231.16,706.1,231.15,705.94,231.15,705.76 C230.91,705.46,230.35,704.76,230.35,704.37 C230.35,704.25,230.4,704.19,230.54,704.19 C231.11,704.19,231.22,705.37,231.41,705.77 C231.52,706.01,231.82,706.36,231.98,706.59 C232.44,707.24,232.94,707.93,233.22,708.68 Z " /></g><g
       id="content"
       transform="matrix(1.0354541,0,0,1.0206412,29.509694,-648.26906)"
       xml:space="preserve"
       stroke="black"
       stroke-linecap="butt"
       stroke-linejoin="miter"
       stroke-miterlimit="10.433"
       stroke-dasharray="none"
       stroke-dashoffset="0"
       stroke-opacity="1"
       fill="none"
       fill-rule="evenodd"
       fill-opacity="1"
       font-style="normal"
       font-variant="normal"
       font-weight="normal"
       font-stretch="normal"
       font-size-adjust="none"
       letter-spacing="normal"
       word-spacing="normal"
       text-anchor="start"
       ns0:text="$r_d$"
       ns0:preamble="/home/sriranga/Desktop/UBM-2014/package.tex"
       style="font-style:normal;font-variant:normal;font-weight:normal;font-stretch:normal;letter-spacing:normal;word-spacing:normal;text-anchor:start;fill:none;stroke:#000000;stroke-width:1.1672914;stroke-linecap:butt;stroke-linejoin:miter;stroke-miterlimit:10.43299961;stroke-opacity:1;stroke-dasharray:none;stroke-dashoffset:0"><path
         d="M224.64,707.12 L224.68,707.28 L224.73,707.43 L224.77,707.57 L224.81,707.7 L224.86,707.83 L224.89,707.95 L224.93,708.07 L224.97,708.18 L225,708.29 L225.04,708.39 L225.07,708.48 L225.1,708.58 L225.14,708.67 L225.17,708.75 L225.2,708.83 L225.23,708.91 L225.26,708.99 L225.29,709.06 L225.35,709.2 L225.42,709.34 L225.48,709.47 L225.55,709.6 L225.62,709.73 L225.7,709.86 L225.74,709.93 L225.78,710 C226.11,710.55,226.39,710.86,226.56,710.86 C226.62,710.86,226.66,710.82,226.71,710.72 C226.79,710.55,226.87,710.5,227.07,710.5 C227.36,710.5,227.53,710.68,227.53,710.99 C227.53,711.3,227.34,711.51,227.06,711.51 C226.84,711.51,226.57,711.36,226.31,711.09 C225.9,710.67,225.5,710.09,225.34,709.69 L225.2,709.33 L225.73,711.49 L225.7,711.51 C224.97,711.38,224.88,711.36,224.16,711.24 V711.07 C224.4,711.12,224.43,711.12,224.5,711.12 C224.71,711.12,224.85,711.02,224.85,710.84 C224.85,710.7,224.85,710.7,224.69,710.03 L223.88,707.12 Z "
         stroke-width="0"
         fill="black"
         id="path4465" /><path
         d="M230.53,706.4 L230.52,706.38 L230.5,706.36 L230.48,706.34 L230.47,706.33 L230.45,706.31 L230.43,706.29 L230.42,706.27 L230.41,706.26 L230.39,706.24 L230.38,706.23 L230.36,706.21 L230.35,706.2 L230.34,706.18 L230.33,706.17 L230.3,706.14 L230.28,706.12 L230.26,706.1 L230.24,706.08 L230.22,706.06 L230.2,706.04 L230.18,706.02 L230.17,706.01 L230.15,705.99 L230.14,705.98 L230.12,705.97 L230.11,705.96 L230.09,705.95 L230.08,705.94 L230.07,705.94 L230.06,705.93 L230.05,705.93 L230.04,705.92 L230.03,705.92 L230.01,705.91 L230,705.91 L229.99,705.91 L229.98,705.91 L229.96,705.91 C229.89,705.91,229.84,705.97,229.84,706.05 C229.84,706.15,230.06,706.99,230.29,707.76 C230.48,708.4,230.62,708.96,230.98,710.35 L230.94,710.38 C230.57,710.3,230.32,710.26,229.88,710.22 V710.1 C230.26,710.09,230.31,710.07,230.31,709.92 C230.31,709.83,230.3,709.79,230.21,709.43 L229.9,708.29 C229.84,708.59,229.72,708.7,229.45,708.7 L229.47,708.54 C229.68,708.52,229.79,708.39,229.79,708.14 C229.79,707.08,229.06,705.89,228.42,705.89 C228.19,705.89,228.02,706.08,228.02,706.35 C228.02,706.92,228.37,707.73,228.83,708.22 C229.02,708.42,229.28,708.55,229.47,708.54 H229.47 L229.45,708.7 C228.54,708.7,227.41,707.39,227.41,706.35 C227.41,705.85,227.69,705.55,228.14,705.55 C228.62,705.55,228.92,705.78,229.4,706.47 C229.32,706.12,229.31,706.01,229.31,705.85 C229.31,705.67,229.43,705.54,229.6,705.54 C229.89,705.54,230.25,705.83,230.62,706.33 Z "
         stroke-width="0"
         fill="black"
         id="path4467" /></g><g
       style="font-style:normal;font-variant:normal;font-weight:normal;font-stretch:normal;letter-spacing:normal;word-spacing:normal;text-anchor:start;fill:none;stroke:#000000;stroke-width:1.1672914;stroke-linecap:butt;stroke-linejoin:miter;stroke-miterlimit:10.43299961;stroke-opacity:1;stroke-dasharray:none;stroke-dashoffset:0"
       ns0:preamble="/home/sriranga/Desktop/UBM-2014/package.tex"
       ns0:text="$C_{d}$"
       word-spacing="normal"
       letter-spacing="normal"
       font-size-adjust="none"
       font-stretch="normal"
       font-weight="normal"
       font-variant="normal"
       font-style="normal"
       stroke-miterlimit="10.433"
       xml:space="preserve"
       transform="matrix(1.0354541,0,0,1.0206412,-5.4388119,-719.04999)"
       id="g4545"><path
         id="path4547"
         d="m 229.67,711.74 0.37,1.98 h -0.21 c -0.08,-0.16 -0.18,-0.22 -0.38,-0.22 -0.08,0 -0.2,0.02 -0.41,0.07 -0.44,0.11 -0.84,0.17 -1.16,0.17 -2.12,0 -4.04,-2 -4.04,-4.2 0,-1.52 1.07,-2.59 2.6,-2.59 1.02,0 1.82,0.43 2.71,1.48 l -0.17,0.14 c -0.89,-0.88 -1.47,-1.18 -2.28,-1.18 -1.11,0 -1.75,0.76 -1.75,2.04 0,1.18 0.48,2.38 1.26,3.19 0.47,0.48 1.1,0.76 1.76,0.76 0.91,0 1.42,-0.53 1.52,-1.61 z"
         inkscape:connector-curvature="0"
         style="fill:#000000;stroke-width:0" /><path
         id="path4549"
         d="m 233.3,706.4 -0.02,-0.02 -0.01,-0.02 -0.02,-0.02 -0.02,-0.01 -0.01,-0.02 -0.02,-0.02 -0.01,-0.02 -0.02,-0.01 -0.01,-0.02 -0.01,-0.01 -0.02,-0.02 -0.01,-0.01 -0.01,-0.02 -0.02,-0.01 -0.02,-0.03 -0.02,-0.02 -0.02,-0.02 -0.02,-0.02 -0.02,-0.02 -0.02,-0.02 -0.02,-0.02 -0.02,-0.01 -0.01,-0.02 -0.02,-0.01 -0.01,-0.01 -0.01,-0.01 -0.02,-0.01 -0.01,-0.01 -0.01,0 -0.01,-0.01 -0.01,0 -0.01,-0.01 -0.02,0 -0.01,-0.01 -0.01,0 -0.01,0 -0.01,0 -0.02,0 c -0.07,0 -0.13,0.06 -0.13,0.14 0,0.1 0.23,0.94 0.46,1.71 0.19,0.64 0.33,1.2 0.69,2.59 l -0.04,0.03 c -0.37,-0.08 -0.62,-0.12 -1.06,-0.16 v -0.12 c 0.38,-0.01 0.43,-0.03 0.43,-0.18 0,-0.09 -0.01,-0.13 -0.11,-0.49 l -0.3,-1.14 c -0.06,0.3 -0.18,0.41 -0.46,0.41 l 0.03,-0.16 c 0.21,-0.02 0.32,-0.15 0.32,-0.4 0,-1.06 -0.73,-2.25 -1.37,-2.25 -0.23,0 -0.4,0.19 -0.4,0.46 0,0.57 0.35,1.38 0.81,1.87 0.19,0.2 0.45,0.33 0.64,0.32 h 0 l -0.03,0.16 c -0.9,0 -2.03,-1.31 -2.03,-2.35 0,-0.5 0.28,-0.8 0.73,-0.8 0.48,0 0.78,0.23 1.26,0.92 -0.08,-0.35 -0.09,-0.46 -0.09,-0.62 0,-0.18 0.11,-0.31 0.29,-0.31 0.29,0 0.65,0.29 1.01,0.79 z"
         inkscape:connector-curvature="0"
         style="fill:#000000;stroke-width:0" /></g></g></svg>