<?xml version="1.0" encoding="UTF-8" standalone="no"?>
<!-- Created with Inkscape (http://www.inkscape.org/) -->

<svg
   xmlns:dc="http://purl.org/dc/elements/1.1/"
   xmlns:cc="http://creativecommons.org/ns#"
   xmlns:rdf="http://www.w3.org/1999/02/22-rdf-syntax-ns#"
   xmlns:svg="http://www.w3.org/2000/svg"
   xmlns="http://www.w3.org/2000/svg"
   xmlns:sodipodi="http://sodipodi.sourceforge.net/DTD/sodipodi-0.dtd"
   xmlns:inkscape="http://www.inkscape.org/namespaces/inkscape"
   id="svg2"
   version="1.1"
   inkscape:version="0.48.4 r9939"
   width="460.62991"
   height="283.46457"
   xml:space="preserve"
   sodipodi:docname="S3-EE-01-025.eps"><metadata
     id="metadata8"><rdf:RDF><cc:Work
         rdf:about=""><dc:format>image/svg+xml</dc:format><dc:type
           rdf:resource="http://purl.org/dc/dcmitype/StillImage" /><dc:title></dc:title></cc:Work></rdf:RDF></metadata><defs
     id="defs6" /><sodipodi:namedview
     pagecolor="#ffffff"
     bordercolor="#666666"
     borderopacity="1"
     objecttolerance="10"
     gridtolerance="10"
     guidetolerance="10"
     inkscape:pageopacity="0"
     inkscape:pageshadow="2"
     inkscape:window-width="1366"
     inkscape:window-height="744"
     id="namedview4"
     showgrid="false"
     units="cm"
     inkscape:zoom="1.8431282"
     inkscape:cx="230.31496"
     inkscape:cy="141.73228"
     inkscape:window-x="0"
     inkscape:window-y="24"
     inkscape:window-maximized="1"
     inkscape:current-layer="g10"><inkscape:grid
       type="xygrid"
       id="grid3067"
       empspacing="5"
       visible="true"
       enabled="true"
       snapvisiblegridlinesonly="true" /></sodipodi:namedview><g
     id="g10"
     inkscape:groupmode="layer"
     inkscape:label="ink_ext_XXXXXX"
     transform="matrix(1.25,0,0,-1.25,0,283.46448)"><text
       transform="scale(1,-1)"
       id="text16"
       x="22.813925"
       y="-193.42908"><tspan
         style="font-size:8px;font-style:italic;font-variant:normal;writing-mode:lr-tb;fill:#231f20;fill-opacity:1;fill-rule:nonzero;stroke:none;font-family:Times;-inkscape-font-specification:Times-Italic"
         x="22.813925"
         y="-193.42908"
         id="tspan18">I</tspan></text>
<text
       transform="scale(1,-1)"
       id="text20"
       x="25.477985"
       y="-191.42908"><tspan
         style="font-size:6px;font-style:italic;font-variant:normal;writing-mode:lr-tb;fill:#231f20;fill-opacity:1;fill-rule:nonzero;stroke:none;font-family:Times;-inkscape-font-specification:Times-Italic"
         x="25.477985 29.143986"
         y="-191.42908"
         sodipodi:role="line"
         id="tspan22">F </tspan></text>
<text
       transform="scale(1,-1)"
       id="text24"
       x="30.644005"
       y="-193.42908"><tspan
         style="font-size:8px;font-variant:normal;font-weight:normal;writing-mode:lr-tb;fill:#231f20;fill-opacity:1;fill-rule:nonzero;stroke:none;font-family:Times;-inkscape-font-specification:Times-Roman"
         x="30.644005 33.30764 39.531273 45.307705"
         y="-193.42908"
         sodipodi:role="line"
         id="tspan26">(mA)</tspan></text>
<text
       transform="scale(1,-1)"
       id="text28"
       x="206.24187"
       y="-193.42908"><tspan
         style="font-size:8px;font-style:italic;font-variant:normal;writing-mode:lr-tb;fill:#231f20;fill-opacity:1;fill-rule:nonzero;stroke:none;font-family:Times;-inkscape-font-specification:Times-Italic"
         x="206.24187"
         y="-193.42908"
         id="tspan30">I</tspan></text>
<text
       transform="scale(1,-1)"
       id="text32"
       x="208.90591"
       y="-191.42908"><tspan
         style="font-size:6px;font-style:italic;font-variant:normal;writing-mode:lr-tb;fill:#231f20;fill-opacity:1;fill-rule:nonzero;stroke:none;font-family:Times;-inkscape-font-specification:Times-Italic"
         x="208.90591"
         y="-191.42908"
         id="tspan34">F</tspan></text>
<text
       transform="scale(1,-1)"
       id="text36"
       x="214.57195"
       y="-193.42908"><tspan
         style="font-size:8px;font-variant:normal;font-weight:normal;writing-mode:lr-tb;fill:#231f20;fill-opacity:1;fill-rule:nonzero;stroke:none;font-family:Times;-inkscape-font-specification:Times-Roman"
         x="214.57195 217.23558 223.45921 229.23604"
         y="-193.42908"
         sodipodi:role="line"
         id="tspan38">(mA)</tspan></text>
<text
       transform="scale(1,-1)"
       id="text40"
       x="157.09068"
       y="-66.043068"><tspan
         style="font-size:8px;font-style:italic;font-variant:normal;writing-mode:lr-tb;fill:#231f20;fill-opacity:1;fill-rule:nonzero;stroke:none;font-family:Times;-inkscape-font-specification:Times-Italic"
         x="157.09068"
         y="-66.043068"
         id="tspan42">V</tspan></text>
<text
       transform="scale(1,-1)"
       id="text44"
       x="161.9778"
       y="-64.043068"><tspan
         style="font-size:6px;font-style:italic;font-variant:normal;writing-mode:lr-tb;fill:#231f20;fill-opacity:1;fill-rule:nonzero;stroke:none;font-family:Times;-inkscape-font-specification:Times-Italic"
         x="161.9778"
         y="-64.043068"
         id="tspan46">F</tspan></text>
<text
       transform="scale(1,-1)"
       id="text48"
       x="167.72469"
       y="-66.04306"><tspan
         style="font-size:8px;font-variant:normal;font-weight:normal;writing-mode:lr-tb;fill:#231f20;fill-opacity:1;fill-rule:nonzero;stroke:none;font-family:Times;-inkscape-font-specification:Times-Roman"
         x="167.72469 170.46883 176.32468"
         y="-66.04306"
         sodipodi:role="line"
         id="tspan50">(V)</tspan></text>
<text
       transform="scale(1,-1)"
       id="text52"
       x="338.28879"
       y="-66.04306"><tspan
         style="font-size:8px;font-style:italic;font-variant:normal;writing-mode:lr-tb;fill:#231f20;fill-opacity:1;fill-rule:nonzero;stroke:none;font-family:Times;-inkscape-font-specification:Times-Italic"
         x="338.28879"
         y="-66.04306"
         id="tspan54">V</tspan></text>
<text
       transform="scale(1,-1)"
       id="text56"
       x="343.17706"
       y="-64.04306"><tspan
         style="font-size:6px;font-style:italic;font-variant:normal;writing-mode:lr-tb;fill:#231f20;fill-opacity:1;fill-rule:nonzero;stroke:none;font-family:Times;-inkscape-font-specification:Times-Italic"
         x="343.17706"
         y="-64.04306"
         id="tspan58">F</tspan></text>
<path
       inkscape:connector-curvature="0"
       id="path3905"
       style="font-size:8px;font-variant:normal;font-weight:normal;writing-mode:lr-tb;fill:#231f20;fill-opacity:1;fill-rule:nonzero;stroke:none;font-family:Times;-inkscape-font-specification:Times-Roman"
       d="m 352.10466,71.45106 c -0.592,-0.383999 -0.832,-0.592 -1.128,-0.96 -0.568,-0.695999 -0.848,-1.496001 -0.848,-2.432 0,-1.015999 0.296,-1.800001 1,-2.616 0.328,-0.383999 0.536,-0.56 0.952,-0.816 l 0.096,0.128 c -0.64,0.504 -0.864,0.784001 -1.08,1.384 -0.192,0.536 -0.28,1.144001 -0.28,1.944 0,0.839999 0.104,1.496001 0.32,1.992 0.224,0.496 0.464,0.784001 1.04,1.248 l -0.072,0.128" /><path
       inkscape:connector-curvature="0"
       id="path3907"
       style="font-size:8px;font-variant:normal;font-weight:normal;writing-mode:lr-tb;fill:#231f20;fill-opacity:1;fill-rule:nonzero;stroke:none;font-family:Times;-inkscape-font-specification:Times-Roman"
       d="m 358.0648,71.33906 -1.64,0 0,-0.152 c 0.44,-0.024 0.584,-0.112 0.584,-0.336 0,-0.128 -0.056,-0.344 -0.152,-0.584 l -1.176,-2.936 -1.208,2.704 c -0.264,0.584 -0.328,0.768 -0.328,0.888 0,0.152 0.112,0.232 0.368,0.248 0.032,0 0.12,0.008 0.232,0.016 l 0,0.152 -2.128,0 0,-0.152 c 0.392,-0.016 0.504,-0.128 0.848,-0.84 l 1.968,-4.392 0.12,0 1.776,4.488 c 0.264,0.632 0.352,0.72 0.736,0.744 l 0,0.152" /><path
       inkscape:connector-curvature="0"
       id="path3909"
       style="font-size:8px;font-variant:normal;font-weight:normal;writing-mode:lr-tb;fill:#231f20;fill-opacity:1;fill-rule:nonzero;stroke:none;font-family:Times;-inkscape-font-specification:Times-Roman"
       d="m 358.64867,64.62706 c 0.59199,0.384 0.832,0.592001 1.128,0.96 0.56799,0.696 0.848,1.496001 0.848,2.432 0,1.023999 -0.29601,1.800001 -1,2.616 -0.328,0.384 -0.536,0.560001 -0.952,0.816 l -0.096,-0.128 c 0.63999,-0.503999 0.856,-0.784 1.08,-1.384 0.192,-0.535999 0.28,-1.144 0.28,-1.944 0,-0.831999 -0.104,-1.496 -0.32,-1.984 -0.224,-0.503999 -0.46401,-0.792 -1.04,-1.256 l 0.072,-0.128" /><path
       inkscape:connector-curvature="0"
       id="path3911"
       style="font-size:8px;font-variant:normal;font-weight:normal;writing-mode:lr-tb;fill:#231f20;fill-opacity:1;fill-rule:nonzero;stroke:none;font-family:Times;-inkscape-font-specification:Times-Roman"
       d="m 30.387652,64.212001 c -0.44,0 -0.776,-0.136 -1.072,-0.416 -0.464,-0.448 -0.768,-1.368001 -0.768,-2.304 0,-0.871999 0.264,-1.808001 0.64,-2.256 0.296,-0.352 0.704,-0.544 1.168,-0.544 0.407999,0 0.752,0.136 1.04,0.416 0.463999,0.439999 0.768,1.368001 0.768,2.336 0,1.639998 -0.728001,2.768 -1.776,2.768 m -0.024,-0.208 c 0.671999,0 1.032,-0.904002 1.032,-2.576 0,-1.671998 -0.352001,-2.528 -1.04,-2.528 -0.687999,0 -1.04,0.856002 -1.04,2.52 0,1.695998 0.360001,2.584 1.048,2.584" /><path
       inkscape:connector-curvature="0"
       id="path3913"
       style="font-size:8px;font-variant:normal;font-weight:normal;writing-mode:lr-tb;fill:#231f20;fill-opacity:1;fill-rule:nonzero;stroke:none;font-family:Times;-inkscape-font-specification:Times-Roman"
       d="m 215.44666,64.212001 c -0.44,0 -0.776,-0.136 -1.072,-0.416 -0.464,-0.448 -0.768,-1.368001 -0.768,-2.304 0,-0.871999 0.264,-1.808001 0.64,-2.256 0.296,-0.352 0.704,-0.544 1.168,-0.544 0.408,0 0.752,0.136 1.04,0.416 0.464,0.439999 0.768,1.368001 0.768,2.336 0,1.639998 -0.728,2.768 -1.776,2.768 m -0.024,-0.208 c 0.672,0 1.032,-0.904002 1.032,-2.576 0,-1.671998 -0.352,-2.528 -1.04,-2.528 -0.688,0 -1.04,0.856002 -1.04,2.52 0,1.695998 0.36,2.584 1.048,2.584" /><path
       inkscape:connector-curvature="0"
       id="path3915"
       style="font-size:8px;font-variant:normal;font-weight:normal;writing-mode:lr-tb;fill:#231f20;fill-opacity:1;fill-rule:nonzero;stroke:none;font-family:Times;-inkscape-font-specification:Times-Roman"
       d="m 83.723647,50.881103 c -0.591999,-0.384 -0.832,-0.592001 -1.128,-0.96 -0.567999,-0.696 -0.848,-1.496001 -0.848,-2.432 0,-1.015999 0.296001,-1.800001 1,-2.616 0.328,-0.384 0.536001,-0.560001 0.952,-0.816 l 0.096,0.128 c -0.639999,0.503999 -0.864,0.784 -1.08,1.384 -0.191999,0.535999 -0.28,1.144 -0.28,1.944 0,0.839999 0.104001,1.496 0.32,1.992 0.224,0.495999 0.464001,0.784 1.04,1.248 l -0.072,0.128" /><path
       inkscape:connector-curvature="0"
       id="path3917"
       style="font-size:8px;font-variant:normal;font-weight:normal;writing-mode:lr-tb;fill:#231f20;fill-opacity:1;fill-rule:nonzero;stroke:none;font-family:Times;-inkscape-font-specification:Times-Roman"
       d="m 87.563649,46.001103 c -0.136,-0.112 -0.232,-0.152 -0.352,-0.152 -0.184,0 -0.24,0.112 -0.24,0.464 l 0,1.56 c 0,0.415999 -0.04,0.648 -0.16,0.84 -0.176,0.287999 -0.520001,0.44 -0.992,0.44 -0.751999,0 -1.344,-0.392001 -1.344,-0.896 0,-0.184 0.16,-0.344 0.344,-0.344 0.192,0 0.36,0.16 0.36,0.336 0,0.032 -0.008,0.072 -0.016,0.128 -0.016,0.072 -0.024,0.136 -0.024,0.192 0,0.215999 0.256,0.392 0.576,0.392 0.392,0 0.608,-0.232001 0.608,-0.664 l 0,-0.488 c -1.231999,-0.496 -1.368,-0.560001 -1.712,-0.864 -0.176,-0.16 -0.288,-0.432001 -0.288,-0.696 0,-0.504 0.352,-0.856 0.84,-0.856 0.352,0 0.68,0.168 1.168,0.584 0.04,-0.416 0.184,-0.584 0.512,-0.584 0.272,0 0.44,0.096 0.72,0.4 l 0,0.208 m -1.24,0.456 c 0,-0.248 -0.04,-0.320001 -0.208,-0.416 -0.192,-0.112 -0.416,-0.184 -0.584,-0.184 -0.28,0 -0.504,0.272 -0.504,0.616 l 0,0.032 c 0,0.471999 0.328001,0.76 1.296,1.112 l 0,-1.16" /><path
       inkscape:connector-curvature="0"
       id="path3919"
       style="font-size:8px;font-variant:normal;font-weight:normal;writing-mode:lr-tb;fill:#231f20;fill-opacity:1;fill-rule:nonzero;stroke:none;font-family:Times;-inkscape-font-specification:Times-Roman"
       d="m 87.883651,44.057103 c 0.591999,0.383999 0.832,0.592 1.128,0.96 0.567999,0.695999 0.848,1.496001 0.848,2.432 0,1.023999 -0.296001,1.8 -1,2.616 -0.328,0.383999 -0.536001,0.56 -0.952,0.816 l -0.096,-0.128 c 0.639999,-0.504 0.856,-0.784001 1.08,-1.384 0.192,-0.536 0.28,-1.144001 0.28,-1.944 0,-0.832 -0.104,-1.496001 -0.32,-1.984 -0.224,-0.504 -0.464001,-0.792001 -1.04,-1.256 l 0.072,-0.128" /><path
       inkscape:connector-curvature="0"
       id="path3921"
       style="font-size:8px;font-variant:normal;font-weight:normal;writing-mode:lr-tb;fill:#231f20;fill-opacity:1;fill-rule:nonzero;stroke:none;font-family:Times;-inkscape-font-specification:Times-Roman"
       d="m 97.891652,45.625103 c -0.359999,0.024 -0.44,0.104 -0.72,0.696 l -1.992,4.544 -0.16,0 -1.664,-3.928 c -0.511999,-1.167999 -0.608,-1.296 -0.992,-1.312 l 0,-0.152 1.584,0 0,0.152 c -0.383999,0 -0.544,0.104 -0.544,0.328 0,0.096 0.024,0.208 0.064,0.312 l 0.368,0.936 2.096,0 0.328,-0.768 c 0.096,-0.216 0.152,-0.424001 0.152,-0.536 0,-0.2 -0.136,-0.264 -0.56,-0.272 l 0,-0.152 2.04,0 0,0.152 m -3.92,1.904 0.92,2.2 0.928,-2.2 -1.848,0" /><path
       inkscape:connector-curvature="0"
       id="path3923"
       style="font-size:8px;font-variant:normal;font-weight:normal;writing-mode:lr-tb;fill:#231f20;fill-opacity:1;fill-rule:nonzero;stroke:none;font-family:Times;-inkscape-font-specification:Times-Roman"
       d="m 101.20365,46.721103 c -0.384,-0.56 -0.672,-0.752 -1.128,-0.752 -0.727996,0 -1.239997,0.64 -1.239997,1.56 0,0.823999 0.440001,1.392 1.088,1.392 0.287997,0 0.391997,-0.088 0.471997,-0.384 l 0.048,-0.176 c 0.064,-0.224 0.208,-0.368 0.376,-0.368 0.208,0 0.384,0.152 0.384,0.336 0,0.447999 -0.56,0.824 -1.231997,0.824 -0.391999,0 -0.8,-0.160001 -1.128,-0.448 -0.399999,-0.352 -0.624,-0.896001 -0.624,-1.528 0,-1.039999 0.632001,-1.784 1.52,-1.784 0.359997,0 0.679997,0.128 0.967997,0.376 0.216,0.191999 0.368,0.408 0.608,0.88 l -0.112,0.072" /><path
       inkscape:connector-curvature="0"
       id="path3925"
       style="font-size:8px;font-variant:normal;font-weight:normal;writing-mode:lr-tb;fill:#231f20;fill-opacity:1;fill-rule:nonzero;stroke:none;font-family:Times;-inkscape-font-specification:Times-Roman"
       d="m 103.61166,49.073103 -0.808,0 0,0.928 c 0,0.08 -0.008,0.104 -0.056,0.104 -0.056,-0.072 -0.104,-0.144001 -0.16,-0.224 -0.304,-0.44 -0.648,-0.824 -0.776,-0.856 -0.088,-0.056 -0.136,-0.112 -0.136,-0.152 0,-0.024 0.008,-0.04 0.032,-0.056 l 0.424,0 0,-2.408 c 0,-0.672 0.24,-1.016 0.712,-1.016 0.392,0 0.696,0.192 0.96,0.608 l -0.104,0.088 c -0.168,-0.2 -0.304,-0.28 -0.48,-0.28 -0.296,0 -0.416,0.216 -0.416,0.72 l 0,2.288 0.808,0 0,0.256" /><path
       inkscape:connector-curvature="0"
       id="path3927"
       style="font-size:8px;font-variant:normal;font-weight:normal;writing-mode:lr-tb;fill:#231f20;fill-opacity:1;fill-rule:nonzero;stroke:none;font-family:Times;-inkscape-font-specification:Times-Roman"
       d="m 107.62765,45.873103 -0.04,0 c -0.368,0 -0.456,0.088 -0.456,0.456 l 0,2.744 -1.264,0 0,-0.136 c 0.496,-0.024 0.592,-0.104001 0.592,-0.504 l 0,-1.88 c 0,-0.224 -0.04,-0.336001 -0.152,-0.424 -0.216,-0.176 -0.464,-0.272 -0.704,-0.272 -0.312,0 -0.568,0.272 -0.568,0.608 l 0,2.608 -1.168,0 0,-0.112 c 0.384,-0.024 0.496,-0.144001 0.496,-0.512 l 0,-2.016 c 0,-0.632 0.384,-1.04 0.968,-1.04 0.296,0 0.608,0.128 0.824,0.344 l 0.344,0.344 0,-0.664 0.032,-0.016 c 0.4,0.159999 0.688,0.248 1.096,0.36 l 0,0.112" /><path
       inkscape:connector-curvature="0"
       id="path3929"
       style="font-size:8px;font-variant:normal;font-weight:normal;writing-mode:lr-tb;fill:#231f20;fill-opacity:1;fill-rule:nonzero;stroke:none;font-family:Times;-inkscape-font-specification:Times-Roman"
       d="m 111.33165,46.001103 c -0.136,-0.112 -0.232,-0.152 -0.352,-0.152 -0.184,0 -0.24,0.112 -0.24,0.464 l 0,1.56 c 0,0.415999 -0.04,0.648 -0.16,0.84 -0.176,0.287999 -0.52,0.44 -0.992,0.44 -0.752,0 -1.344,-0.392001 -1.344,-0.896 0,-0.184 0.16,-0.344 0.344,-0.344 0.192,0 0.36,0.16 0.36,0.336 0,0.032 -0.008,0.072 -0.016,0.128 -0.016,0.072 -0.024,0.136 -0.024,0.192 0,0.215999 0.256,0.392 0.576,0.392 0.392,0 0.608,-0.232001 0.608,-0.664 l 0,-0.488 c -1.232,-0.496 -1.368,-0.560001 -1.712,-0.864 -0.176,-0.16 -0.288,-0.432001 -0.288,-0.696 0,-0.504 0.352,-0.856 0.84,-0.856 0.352,0 0.68,0.168 1.168,0.584 0.04,-0.416 0.184,-0.584 0.512,-0.584 0.272,0 0.44,0.096 0.72,0.4 l 0,0.208 m -1.24,0.456 c 0,-0.248 -0.04,-0.320001 -0.208,-0.416 -0.192,-0.112 -0.416,-0.184 -0.584,-0.184 -0.28,0 -0.504,0.272 -0.504,0.616 l 0,0.032 c 0,0.471999 0.328,0.76 1.296,1.112 l 0,-1.16" /><path
       inkscape:connector-curvature="0"
       id="path3931"
       style="font-size:8px;font-variant:normal;font-weight:normal;writing-mode:lr-tb;fill:#231f20;fill-opacity:1;fill-rule:nonzero;stroke:none;font-family:Times;-inkscape-font-specification:Times-Roman"
       d="m 111.49966,50.457103 0.048,0 c 0.088,0.008 0.184,0.016 0.248,0.016 0.256,0 0.336,-0.112001 0.336,-0.488 l 0,-3.816 c 0,-0.432 -0.112,-0.536 -0.616,-0.576 l 0,-0.12 1.888,0 0,0.12 c -0.504,0.032 -0.6,0.112 -0.6,0.552 l 0,4.776 -0.032,0.016 c -0.416,-0.136 -0.72,-0.216001 -1.272,-0.352 l 0,-0.128" /><path
       inkscape:connector-curvature="0"
       id="path3933"
       style="font-size:8px;font-variant:normal;font-weight:normal;writing-mode:lr-tb;fill:#231f20;fill-opacity:1;fill-rule:nonzero;stroke:none;font-family:Times;-inkscape-font-specification:Times-Roman"
       d="m 235.70126,50.881103 c -0.592,-0.384 -0.832,-0.592001 -1.128,-0.96 -0.568,-0.696 -0.848,-1.496001 -0.848,-2.432 0,-1.015999 0.296,-1.800001 1,-2.616 0.328,-0.384 0.536,-0.560001 0.952,-0.816 l 0.096,0.128 c -0.64,0.503999 -0.864,0.784 -1.08,1.384 -0.192,0.535999 -0.28,1.144 -0.28,1.944 0,0.839999 0.104,1.496 0.32,1.992 0.224,0.495999 0.464,0.784 1.04,1.248 l -0.072,0.128" /><path
       inkscape:connector-curvature="0"
       id="path3935"
       style="font-size:8px;font-variant:normal;font-weight:normal;writing-mode:lr-tb;fill:#231f20;fill-opacity:1;fill-rule:nonzero;stroke:none;font-family:Times;-inkscape-font-specification:Times-Roman"
       d="m 237.22926,50.921103 -0.04,0.016 c -0.336,-0.12 -0.552,-0.184001 -0.928,-0.288 l -0.232,-0.064 0,-0.128 c 0.048,0.008 0.08,0.008 0.136,0.008 0.32,0 0.392,-0.072 0.392,-0.408 l 0,-4.152 c 0,-0.248 0.68,-0.512 1.32,-0.512 1.056,0 1.872,0.880001 1.872,2.024 0,0.983999 -0.608,1.736 -1.408,1.736 -0.488,0 -0.952,-0.288001 -1.112,-0.68 l 0,2.448 m 0,-2.872 c 0,0.311999 0.376,0.6 0.792,0.6 0.624,0 1.024,-0.624001 1.024,-1.6 0,-0.888 -0.384,-1.4 -1.04,-1.4 -0.416,0 -0.776,0.184 -0.776,0.384 l 0,2.016" /><path
       inkscape:connector-curvature="0"
       id="path3937"
       style="font-size:8px;font-variant:normal;font-weight:normal;writing-mode:lr-tb;fill:#231f20;fill-opacity:1;fill-rule:nonzero;stroke:none;font-family:Times;-inkscape-font-specification:Times-Roman"
       d="m 240.30926,44.057103 c 0.592,0.383999 0.832,0.592 1.128,0.96 0.568,0.695999 0.848,1.496001 0.848,2.432 0,1.023999 -0.296,1.8 -1,2.616 -0.328,0.383999 -0.536,0.56 -0.952,0.816 l -0.096,-0.128 c 0.64,-0.504 0.856,-0.784001 1.08,-1.384 0.192,-0.536 0.28,-1.144001 0.28,-1.944 0,-0.832 -0.104,-1.496001 -0.32,-1.984 -0.224,-0.504 -0.464,-0.792001 -1.04,-1.256 l 0.072,-0.128" /><path
       inkscape:connector-curvature="0"
       id="path3939"
       style="font-size:8px;font-variant:normal;font-weight:normal;writing-mode:lr-tb;fill:#231f20;fill-opacity:1;fill-rule:nonzero;stroke:none;font-family:Times;-inkscape-font-specification:Times-Roman"
       d="m 246.28566,47.801103 c 0.208,-0.016 0.344,-0.024 0.552,-0.024 0.624,0 1.056,0.08 1.4,0.272 0.48,0.255999 0.768,0.744 0.768,1.272 0,0.335999 -0.112,0.64 -0.328,0.872 -0.32,0.351999 -1.016,0.576 -1.768,0.576 l -2.112,0 0,-0.152 c 0.592,-0.064 0.672,-0.144001 0.672,-0.72 l 0,-3.464 c 0,-0.672 -0.064,-0.752 -0.672,-0.808 l 0,-0.152 2.24,0 0,0.152 c -0.632,0.024 -0.752,0.136 -0.752,0.72 l 0,1.456 m 0,2.4 c 0,0.215999 0.056,0.272 0.272,0.272 1.08,0 1.576,-0.376001 1.576,-1.2 0,-0.776 -0.472,-1.176 -1.392,-1.176 -0.16,0 -0.272,0.008 -0.456,0.024 l 0,2.08" /><path
       inkscape:connector-curvature="0"
       id="path3941"
       style="font-size:8px;font-variant:normal;font-weight:normal;writing-mode:lr-tb;fill:#231f20;fill-opacity:1;fill-rule:nonzero;stroke:none;font-family:Times;-inkscape-font-specification:Times-Roman"
       d="m 250.51693,49.153103 -1.24,-0.44 0,-0.12 0.064,0.008 c 0.096,0.016 0.2,0.024 0.272,0.024 0.192,0 0.264,-0.128001 0.264,-0.48 l 0,-1.856 c 0,-0.576 -0.08,-0.664 -0.632,-0.696 l 0,-0.12 1.896,0 0,0.12 c -0.528,0.04 -0.592,0.12 -0.592,0.696 l 0,2.84 -0.032,0.024 m -0.376,1.784 c -0.216,0 -0.4,-0.184001 -0.4,-0.408 0,-0.224 0.176,-0.408 0.4,-0.408 0.232,0 0.416,0.176 0.416,0.408 0,0.223999 -0.184,0.408 -0.416,0.408" /><path
       inkscape:connector-curvature="0"
       id="path3943"
       style="font-size:8px;font-variant:normal;font-weight:normal;writing-mode:lr-tb;fill:#231f20;fill-opacity:1;fill-rule:nonzero;stroke:none;font-family:Times;-inkscape-font-specification:Times-Roman"
       d="m 254.60554,46.785103 c -0.384,-0.608 -0.728,-0.84 -1.24,-0.84 -0.456,0 -0.8,0.232 -1.032,0.688 -0.144,0.303999 -0.2,0.568 -0.216,1.056 l 2.464,0 c -0.064,0.519999 -0.144,0.752 -0.344,1.008 -0.24,0.287999 -0.608,0.456 -1.024,0.456 -0.4,0 -0.776,-0.144001 -1.08,-0.416 -0.376,-0.328 -0.592,-0.896001 -0.592,-1.552 0,-1.103999 0.576,-1.792 1.496,-1.792 0.76,0 1.36,0.472 1.696,1.336 l -0.128,0.056 m -2.472,1.16 c 0.088,0.623999 0.36,0.92 0.848,0.92 0.488,0 0.68,-0.224001 0.784,-0.92 l -1.632,0" /><path
       inkscape:connector-curvature="0"
       id="path3945"
       style="font-size:8px;font-variant:normal;font-weight:normal;writing-mode:lr-tb;fill:#231f20;fill-opacity:1;fill-rule:nonzero;stroke:none;font-family:Times;-inkscape-font-specification:Times-Roman"
       d="m 258.07746,46.721103 c -0.384,-0.56 -0.672,-0.752 -1.128,-0.752 -0.728,0 -1.24,0.64 -1.24,1.56 0,0.823999 0.44,1.392 1.088,1.392 0.288,0 0.392,-0.088 0.472,-0.384 l 0.048,-0.176 c 0.064,-0.224 0.208,-0.368 0.376,-0.368 0.208,0 0.384,0.152 0.384,0.336 0,0.447999 -0.56,0.824 -1.232,0.824 -0.392,0 -0.8,-0.160001 -1.128,-0.448 -0.4,-0.352 -0.624,-0.896001 -0.624,-1.528 0,-1.039999 0.632,-1.784 1.52,-1.784 0.36,0 0.68,0.128 0.968,0.376 0.216,0.191999 0.368,0.408 0.608,0.88 l -0.112,0.072" /><path
       inkscape:connector-curvature="0"
       id="path3947"
       style="font-size:8px;font-variant:normal;font-weight:normal;writing-mode:lr-tb;fill:#231f20;fill-opacity:1;fill-rule:nonzero;stroke:none;font-family:Times;-inkscape-font-specification:Times-Roman"
       d="m 261.70947,46.785103 c -0.384,-0.608 -0.72801,-0.84 -1.24,-0.84 -0.456,0 -0.80001,0.232 -1.032,0.688 -0.144,0.303999 -0.2,0.568 -0.216,1.056 l 2.464,0 c -0.064,0.519999 -0.14401,0.752 -0.344,1.008 -0.24,0.287999 -0.60801,0.456 -1.024,0.456 -0.4,0 -0.77601,-0.144001 -1.08,-0.416 -0.376,-0.328 -0.592,-0.896001 -0.592,-1.552 0,-1.103999 0.576,-1.792 1.496,-1.792 0.75999,0 1.36,0.472 1.696,1.336 l -0.128,0.056 m -2.472,1.16 c 0.088,0.623999 0.36,0.92 0.848,0.92 0.48799,0 0.68,-0.224001 0.784,-0.92 l -1.632,0" /><path
       inkscape:connector-curvature="0"
       id="path3949"
       style="font-size:8px;font-variant:normal;font-weight:normal;writing-mode:lr-tb;fill:#231f20;fill-opacity:1;fill-rule:nonzero;stroke:none;font-family:Times;-inkscape-font-specification:Times-Roman"
       d="m 266.36503,49.073103 0,-0.12 c 0.272,-0.056 0.352,-0.112001 0.352,-0.248 0,-0.12 -0.048,-0.312001 -0.136,-0.528 l -0.72,-1.776 -0.672,1.792 c -0.136,0.367999 -0.136,0.368 -0.136,0.472 0,0.175999 0.088,0.232 0.464,0.288 l 0,0.12 -1.624,0 0,-0.12 c 0.296,-0.032 0.392,-0.120001 0.552,-0.552 0.056,-0.152 0.112,-0.304001 0.16,-0.448 l -0.728,-1.592 -0.792,2.088 c -0.032,0.08 -0.048,0.16 -0.048,0.24 0,0.167999 0.096,0.232 0.368,0.264 l 0,0.12 -1.44,0 0,-0.12 c 0.184,-0.016 0.248,-0.096 0.424,-0.504 l 1.08,-2.736 c 0.096,-0.24 0.16,-0.352 0.208,-0.352 0.04,0 0.104,0.104 0.2,0.312 l 0.896,1.92 0.728,-1.888 c 0.112,-0.296 0.144,-0.344 0.192,-0.344 0.056,0 0.096,0.072 0.224,0.392 l 1.104,2.768 c 0.144,0.335999 0.168,0.376 0.328,0.432 l 0,0.12 -0.984,0" /><path
       inkscape:connector-curvature="0"
       id="path3951"
       style="font-size:8px;font-variant:normal;font-weight:normal;writing-mode:lr-tb;fill:#231f20;fill-opacity:1;fill-rule:nonzero;stroke:none;font-family:Times;-inkscape-font-specification:Times-Roman"
       d="m 268.97236,49.153103 -1.24,-0.44 0,-0.12 0.064,0.008 c 0.096,0.016 0.2,0.024 0.272,0.024 0.192,0 0.264,-0.128001 0.264,-0.48 l 0,-1.856 c 0,-0.576 -0.08,-0.664 -0.632,-0.696 l 0,-0.12 1.896,0 0,0.12 c -0.528,0.04 -0.592,0.12 -0.592,0.696 l 0,2.84 -0.032,0.024 m -0.376,1.784 c -0.216,0 -0.4,-0.184001 -0.4,-0.408 0,-0.224 0.176,-0.408 0.4,-0.408 0.232,0 0.416,0.176 0.416,0.408 0,0.223999 -0.184,0.408 -0.416,0.408" /><path
       inkscape:connector-curvature="0"
       id="path3953"
       style="font-size:8px;font-variant:normal;font-weight:normal;writing-mode:lr-tb;fill:#231f20;fill-opacity:1;fill-rule:nonzero;stroke:none;font-family:Times;-inkscape-font-specification:Times-Roman"
       d="m 272.31599,47.985103 -0.032,1.088 -0.088,0 -0.016,-0.016 c -0.072,-0.056 -0.08,-0.064 -0.112,-0.064 -0.048,0 -0.128,0.016 -0.216,0.056 -0.176,0.064 -0.352,0.096 -0.56,0.096 -0.632,0 -1.088,-0.408001 -1.088,-0.984 0,-0.448 0.256,-0.768001 0.936,-1.152 l 0.464,-0.264 c 0.28,-0.16 0.416,-0.352001 0.416,-0.6 0,-0.352 -0.256,-0.576 -0.664,-0.576 -0.272,0 -0.52,0.104 -0.672,0.28 -0.168,0.199999 -0.24,0.384 -0.344,0.84 l -0.128,0 0,-1.248 0.104,0 c 0.056,0.08 0.088,0.096 0.184,0.096 0.072,0 0.184,-0.016 0.368,-0.064 0.224,-0.048 0.44,-0.08 0.584,-0.08 0.616,0 1.128,0.464 1.128,1.024 0,0.399999 -0.192,0.664 -0.672,0.952 l -0.864,0.512 c -0.224,0.127999 -0.344,0.328 -0.344,0.544 0,0.319999 0.248,0.544 0.616,0.544 0.456,0 0.696,-0.272001 0.88,-0.984 l 0.12,0" /><path
       inkscape:connector-curvature="0"
       id="path3955"
       style="font-size:8px;font-variant:normal;font-weight:normal;writing-mode:lr-tb;fill:#231f20;fill-opacity:1;fill-rule:nonzero;stroke:none;font-family:Times;-inkscape-font-specification:Times-Roman"
       d="m 276.17236,46.785103 c -0.384,-0.608 -0.728,-0.84 -1.24,-0.84 -0.456,0 -0.8,0.232 -1.032,0.688 -0.144,0.303999 -0.2,0.568 -0.216,1.056 l 2.464,0 c -0.064,0.519999 -0.144,0.752 -0.344,1.008 -0.24,0.287999 -0.608,0.456 -1.024,0.456 -0.4,0 -0.776,-0.144001 -1.08,-0.416 -0.376,-0.328 -0.592,-0.896001 -0.592,-1.552 0,-1.103999 0.576,-1.792 1.496,-1.792 0.75999,0 1.36,0.472 1.696,1.336 l -0.128,0.056 m -2.472,1.16 c 0.088,0.623999 0.36,0.92 0.848,0.92 0.488,0 0.68,-0.224001 0.784,-0.92 l -1.632,0" /><path
       inkscape:connector-curvature="0"
       id="path3957"
       style="font-size:8px;font-variant:normal;font-weight:normal;writing-mode:lr-tb;fill:#231f20;fill-opacity:1;fill-rule:nonzero;stroke:none;font-family:Times;-inkscape-font-specification:Times-Roman"
       d="m 276.77263,47.529103 0,-0.504 1.968,0 0,0.504 -1.968,0" /><path
       inkscape:connector-curvature="0"
       id="path3959"
       style="font-size:8px;font-variant:normal;font-weight:normal;writing-mode:lr-tb;fill:#231f20;fill-opacity:1;fill-rule:nonzero;stroke:none;font-family:Times;-inkscape-font-specification:Times-Roman"
       d="m 279.27663,50.457103 0.048,0 c 0.088,0.008 0.184,0.016 0.248,0.016 0.256,0 0.336,-0.112001 0.336,-0.488 l 0,-3.816 c 0,-0.432 -0.112,-0.536 -0.616,-0.576 l 0,-0.12 1.888,0 0,0.12 c -0.504,0.032 -0.6,0.112 -0.6,0.552 l 0,4.776 -0.032,0.016 c -0.416,-0.136 -0.72,-0.216001 -1.272,-0.352 l 0,-0.128" /><path
       inkscape:connector-curvature="0"
       id="path3961"
       style="font-size:8px;font-variant:normal;font-weight:normal;writing-mode:lr-tb;fill:#231f20;fill-opacity:1;fill-rule:nonzero;stroke:none;font-family:Times;-inkscape-font-specification:Times-Roman"
       d="m 282.74863,49.153103 -1.24,-0.44 0,-0.12 0.064,0.008 c 0.096,0.016 0.2,0.024 0.272,0.024 0.192,0 0.264,-0.128001 0.264,-0.48 l 0,-1.856 c 0,-0.576 -0.08,-0.664 -0.632,-0.696 l 0,-0.12 1.896,0 0,0.12 c -0.528,0.04 -0.592,0.12 -0.592,0.696 l 0,2.84 -0.032,0.024 m -0.376,1.784 c -0.216,0 -0.4,-0.184001 -0.4,-0.408 0,-0.224 0.176,-0.408 0.4,-0.408 0.232,0 0.416,0.176 0.416,0.408 0,0.223999 -0.184,0.408 -0.416,0.408" /><path
       inkscape:connector-curvature="0"
       id="path3963"
       style="font-size:8px;font-variant:normal;font-weight:normal;writing-mode:lr-tb;fill:#231f20;fill-opacity:1;fill-rule:nonzero;stroke:none;font-family:Times;-inkscape-font-specification:Times-Roman"
       d="m 283.70063,48.657103 c 0.048,0.024 0.128,0.032 0.216,0.032 0.224,0 0.296,-0.120001 0.296,-0.512 l 0,-1.984 c 0,-0.456 -0.088,-0.568 -0.496,-0.6 l 0,-0.12 1.696,0 0,0.12 c -0.408,0.032 -0.528,0.128 -0.528,0.416 l 0,2.248 c 0.384,0.359999 0.56,0.456 0.824,0.456 0.392,0 0.584,-0.248001 0.584,-0.776 l 0,-1.672 c 0,-0.504 -0.104,-0.64 -0.504,-0.672 l 0,-0.12 1.664,0 0,0.12 c -0.392,0.04 -0.488,0.136 -0.488,0.528 l 0,1.832 c 0,0.751999 -0.352,1.2 -0.944,1.2 -0.368,0 -0.616,-0.136001 -1.16,-0.648 l 0,0.632 -0.056,0.016 c -0.392,-0.144 -0.664,-0.232001 -1.104,-0.36 l 0,-0.136" /><path
       inkscape:connector-curvature="0"
       id="path3965"
       style="font-size:8px;font-variant:normal;font-weight:normal;writing-mode:lr-tb;fill:#231f20;fill-opacity:1;fill-rule:nonzero;stroke:none;font-family:Times;-inkscape-font-specification:Times-Roman"
       d="m 290.83663,46.785103 c -0.384,-0.608 -0.728,-0.84 -1.24,-0.84 -0.456,0 -0.8,0.232 -1.032,0.688 -0.144,0.303999 -0.2,0.568 -0.216,1.056 l 2.464,0 c -0.064,0.519999 -0.144,0.752 -0.344,1.008 -0.24,0.287999 -0.608,0.456 -1.024,0.456 -0.4,0 -0.776,-0.144001 -1.08,-0.416 -0.376,-0.328 -0.592,-0.896001 -0.592,-1.552 0,-1.103999 0.576,-1.792 1.496,-1.792 0.76,0 1.36,0.472 1.696,1.336 l -0.128,0.056 m -2.472,1.16 c 0.088,0.623999 0.36,0.92 0.848,0.92 0.488,0 0.68,-0.224001 0.784,-0.92 l -1.632,0" /><path
       inkscape:connector-curvature="0"
       id="path3967"
       style="font-size:8px;font-variant:normal;font-weight:normal;writing-mode:lr-tb;fill:#231f20;fill-opacity:1;fill-rule:nonzero;stroke:none;font-family:Times;-inkscape-font-specification:Times-Roman"
       d="m 294.66063,46.001103 c -0.136,-0.112 -0.232,-0.152 -0.352,-0.152 -0.184,0 -0.24,0.112 -0.24,0.464 l 0,1.56 c 0,0.415999 -0.04,0.648 -0.16,0.84 -0.176,0.287999 -0.52,0.44 -0.992,0.44 -0.752,0 -1.344,-0.392001 -1.344,-0.896 0,-0.184 0.16,-0.344 0.344,-0.344 0.192,0 0.36,0.16 0.36,0.336 0,0.032 -0.008,0.072 -0.016,0.128 -0.016,0.072 -0.024,0.136 -0.024,0.192 0,0.215999 0.256,0.392 0.576,0.392 0.392,0 0.608,-0.232001 0.608,-0.664 l 0,-0.488 c -1.23199,-0.496 -1.368,-0.560001 -1.712,-0.864 -0.176,-0.16 -0.288,-0.432001 -0.288,-0.696 0,-0.504 0.352,-0.856 0.84,-0.856 0.352,0 0.68,0.168 1.168,0.584 0.04,-0.416 0.184,-0.584 0.512,-0.584 0.272,0 0.44,0.096 0.72,0.4 l 0,0.208 m -1.24,0.456 c 0,-0.248 -0.04,-0.320001 -0.208,-0.416 -0.192,-0.112 -0.416,-0.184 -0.584,-0.184 -0.28,0 -0.504,0.272 -0.504,0.616 l 0,0.032 c 0,0.471999 0.328,0.76 1.296,1.112 l 0,-1.16" /><path
       inkscape:connector-curvature="0"
       id="path3969"
       style="font-size:8px;font-variant:normal;font-weight:normal;writing-mode:lr-tb;fill:#231f20;fill-opacity:1;fill-rule:nonzero;stroke:none;font-family:Times;-inkscape-font-specification:Times-Roman"
       d="m 294.73264,48.593103 c 0.112,0.024 0.184,0.032 0.28,0.032 0.2,0 0.272,-0.128001 0.272,-0.48 l 0,-2 c 0,-0.4 -0.056,-0.456001 -0.568,-0.552 l 0,-0.12 1.92,0 0,0.12 c -0.544,0.024 -0.68,0.144 -0.68,0.6 l 0,1.8 c 0,0.255999 0.344,0.656 0.56,0.656 0.048,0 0.12,-0.04 0.208,-0.12 0.128,-0.112 0.216,-0.16 0.32,-0.16 0.192,0 0.312,0.136 0.312,0.36 0,0.263999 -0.168,0.424 -0.44,0.424 -0.336,0 -0.568,-0.184001 -0.96,-0.752 l 0,0.736 -0.04,0.016 c -0.424,-0.176 -0.712,-0.280001 -1.184,-0.432 l 0,-0.128" /><path
       inkscape:connector-curvature="0"
       id="path3971"
       style="font-size:8px;font-variant:normal;font-weight:normal;writing-mode:lr-tb;fill:#231f20;fill-opacity:1;fill-rule:nonzero;stroke:none;font-family:Times;-inkscape-font-specification:Times-Roman"
       d="m 302.87725,46.001103 c -0.136,-0.112 -0.232,-0.152 -0.352,-0.152 -0.184,0 -0.24,0.112 -0.24,0.464 l 0,1.56 c 0,0.415999 -0.04,0.648 -0.16,0.84 -0.176,0.287999 -0.52,0.44 -0.992,0.44 -0.752,0 -1.344,-0.392001 -1.344,-0.896 0,-0.184 0.16,-0.344 0.344,-0.344 0.192,0 0.36,0.16 0.36,0.336 0,0.032 -0.008,0.072 -0.016,0.128 -0.016,0.072 -0.024,0.136 -0.024,0.192 0,0.215999 0.256,0.392 0.576,0.392 0.392,0 0.608,-0.232001 0.608,-0.664 l 0,-0.488 c -1.232,-0.496 -1.368,-0.560001 -1.712,-0.864 -0.176,-0.16 -0.288,-0.432001 -0.288,-0.696 0,-0.504 0.352,-0.856 0.84,-0.856 0.352,0 0.68,0.168 1.168,0.584 0.04,-0.416 0.184,-0.584 0.512,-0.584 0.272,0 0.44,0.096 0.72,0.4 l 0,0.208 m -1.24,0.456 c 0,-0.248 -0.04,-0.320001 -0.208,-0.416 -0.192,-0.112 -0.416,-0.184 -0.584,-0.184 -0.28,0 -0.504,0.272 -0.504,0.616 l 0,0.032 c 0,0.471999 0.328,0.76 1.296,1.112 l 0,-1.16" /><path
       inkscape:connector-curvature="0"
       id="path3973"
       style="font-size:8px;font-variant:normal;font-weight:normal;writing-mode:lr-tb;fill:#231f20;fill-opacity:1;fill-rule:nonzero;stroke:none;font-family:Times;-inkscape-font-specification:Times-Roman"
       d="m 302.96525,48.617103 c 0.072,0.008 0.128,0.008 0.2,0.008 0.272,0 0.328,-0.08 0.328,-0.456 l 0,-3.744 c 0,-0.416 -0.088,-0.504 -0.56,-0.552 l 0,-0.136 1.936,0 0,0.144 c -0.6,0.008 -0.704,0.096 -0.704,0.6 l 0,1.256 c 0.28,-0.264 0.472,-0.344 0.808,-0.344 0.944,0 1.68,0.896001 1.68,2.056 0,0.991999 -0.56,1.704 -1.336,1.704 -0.448,0 -0.8,-0.200001 -1.152,-0.632 l 0,0.616 -0.048,0.016 c -0.432,-0.168 -0.712,-0.272001 -1.152,-0.408 l 0,-0.128 m 1.2,-0.472 c 0,0.239999 0.448,0.528 0.816,0.528 0.592,0 0.984,-0.608001 0.984,-1.536 0,-0.888 -0.392,-1.488 -0.968,-1.488 -0.376,0 -0.832,0.288 -0.832,0.528 l 0,1.968" /><path
       inkscape:connector-curvature="0"
       id="path3975"
       style="font-size:8px;font-variant:normal;font-weight:normal;writing-mode:lr-tb;fill:#231f20;fill-opacity:1;fill-rule:nonzero;stroke:none;font-family:Times;-inkscape-font-specification:Times-Roman"
       d="m 306.96525,48.617103 c 0.072,0.008 0.128,0.008 0.2,0.008 0.272,0 0.328,-0.08 0.328,-0.456 l 0,-3.744 c 0,-0.416 -0.088,-0.504 -0.56,-0.552 l 0,-0.136 1.936,0 0,0.144 c -0.6,0.008 -0.704,0.096 -0.704,0.6 l 0,1.256 c 0.28,-0.264 0.472,-0.344 0.808,-0.344 0.944,0 1.68,0.896001 1.68,2.056 0,0.991999 -0.56,1.704 -1.336,1.704 -0.448,0 -0.8,-0.200001 -1.152,-0.632 l 0,0.616 -0.048,0.016 c -0.432,-0.168 -0.712,-0.272001 -1.152,-0.408 l 0,-0.128 m 1.2,-0.472 c 0,0.239999 0.448,0.528 0.816,0.528 0.592,0 0.984,-0.608001 0.984,-1.536 0,-0.888 -0.392,-1.488 -0.968,-1.488 -0.376,0 -0.832,0.288 -0.832,0.528 l 0,1.968" /><path
       inkscape:connector-curvature="0"
       id="path3977"
       style="font-size:8px;font-variant:normal;font-weight:normal;writing-mode:lr-tb;fill:#231f20;fill-opacity:1;fill-rule:nonzero;stroke:none;font-family:Times;-inkscape-font-specification:Times-Roman"
       d="m 310.94925,48.593103 c 0.112,0.024 0.184,0.032 0.28,0.032 0.2,0 0.272,-0.128001 0.272,-0.48 l 0,-2 c 0,-0.4 -0.056,-0.456001 -0.568,-0.552 l 0,-0.12 1.92,0 0,0.12 c -0.544,0.024 -0.68,0.144 -0.68,0.6 l 0,1.8 c 0,0.255999 0.344,0.656 0.56,0.656 0.048,0 0.12,-0.04 0.208,-0.12 0.128,-0.112 0.216,-0.16 0.32,-0.16 0.192,0 0.312,0.136 0.312,0.36 0,0.263999 -0.168,0.424 -0.44,0.424 -0.336,0 -0.568,-0.184001 -0.96,-0.752 l 0,0.736 -0.04,0.016 c -0.424,-0.176 -0.712,-0.280001 -1.184,-0.432 l 0,-0.128" /><path
       inkscape:connector-curvature="0"
       id="path3979"
       style="font-size:8px;font-variant:normal;font-weight:normal;writing-mode:lr-tb;fill:#231f20;fill-opacity:1;fill-rule:nonzero;stroke:none;font-family:Times;-inkscape-font-specification:Times-Roman"
       d="m 315.55725,49.153103 c -1.04,0 -1.768,-0.768002 -1.768,-1.872 0,-1.079999 0.744,-1.888 1.752,-1.888 1.008,0 1.776,0.848001 1.776,1.952 0,1.047999 -0.736,1.808 -1.76,1.808 m -0.104,-0.224 c 0.672,0 1.144,-0.768002 1.144,-1.864 0,-0.904 -0.36,-1.448 -0.96,-1.448 -0.312,0 -0.608,0.192 -0.776,0.512 -0.224,0.415999 -0.352,0.976 -0.352,1.544 0,0.759999 0.376,1.256 0.944,1.256" /><path
       inkscape:connector-curvature="0"
       id="path3981"
       style="font-size:8px;font-variant:normal;font-weight:normal;writing-mode:lr-tb;fill:#231f20;fill-opacity:1;fill-rule:nonzero;stroke:none;font-family:Times;-inkscape-font-specification:Times-Roman"
       d="m 319.78125,45.473103 1.608,0 0,0.12 c -0.248,0 -0.408,0.128 -0.656,0.48 l -1.024,1.568 0.664,0.96 c 0.152,0.215999 0.392,0.344 0.648,0.352 l 0,0.12 -1.264,0 0,-0.12 c 0.24,-0.016 0.32,-0.064 0.32,-0.176 0,-0.096 -0.096,-0.272001 -0.296,-0.52 -0.04,-0.048 -0.136,-0.192001 -0.24,-0.352 l -0.112,0.16 c -0.224,0.335999 -0.368,0.608 -0.368,0.712 0,0.111999 0.104,0.168 0.344,0.176 l 0,0.12 -1.656,0 0,-0.12 0.072,0 c 0.24,0 0.368,-0.104001 0.616,-0.48 l 0.752,-1.152 -0.912,-1.32 c -0.24,-0.328 -0.32,-0.384 -0.584,-0.408 l 0,-0.12 1.16,0 0,0.12 c -0.224,0 -0.32,0.04 -0.32,0.144 0,0.048 0.056,0.168 0.16,0.328 l 0.632,0.984 0.728,-1.12 c 0.032,-0.048 0.048,-0.096 0.048,-0.144 0,-0.144 -0.056,-0.176 -0.32,-0.192 l 0,-0.12" /><path
       inkscape:connector-curvature="0"
       id="path3983"
       style="font-size:8px;font-variant:normal;font-weight:normal;writing-mode:lr-tb;fill:#231f20;fill-opacity:1;fill-rule:nonzero;stroke:none;font-family:Times;-inkscape-font-specification:Times-Roman"
       d="m 322.95725,49.153103 -1.24,-0.44 0,-0.12 0.064,0.008 c 0.096,0.016 0.2,0.024 0.272,0.024 0.192,0 0.264,-0.128001 0.264,-0.48 l 0,-1.856 c 0,-0.576 -0.08,-0.664 -0.632,-0.696 l 0,-0.12 1.896,0 0,0.12 c -0.528,0.04 -0.592,0.12 -0.592,0.696 l 0,2.84 -0.032,0.024 m -0.376,1.784 c -0.216,0 -0.4,-0.184001 -0.4,-0.408 0,-0.224 0.176,-0.408 0.4,-0.408 0.232,0 0.416,0.176 0.416,0.408 0,0.223999 -0.184,0.408 -0.416,0.408" /><path
       inkscape:connector-curvature="0"
       id="path3985"
       style="font-size:8px;font-variant:normal;font-weight:normal;writing-mode:lr-tb;fill:#231f20;fill-opacity:1;fill-rule:nonzero;stroke:none;font-family:Times;-inkscape-font-specification:Times-Roman"
       d="m 323.93194,48.657103 c 0.104,0.024 0.168,0.032 0.256,0.032 0.208,0 0.28,-0.128001 0.28,-0.512 l 0,-2.024 c 0,-0.432 -0.112,-0.552 -0.56,-0.56 l 0,-0.12 1.776,0 0,0.12 c -0.424,0.016 -0.544,0.104 -0.544,0.416 l 0,2.256 c 0,0.016 0.064,0.096 0.12,0.152 0.2,0.183999 0.544,0.32 0.824,0.32 0.352,0 0.528,-0.280001 0.528,-0.84 l 0,-1.736 c 0,-0.448 -0.088,-0.536 -0.544,-0.568 l 0,-0.12 1.792,0 0,0.12 c -0.456,0.008 -0.576,0.144 -0.576,0.64 l 0,2.016 c 0.24,0.343999 0.504,0.488 0.872,0.488 0.456,0 0.6,-0.216001 0.6,-0.88 l 0,-1.688 c 0,-0.456 -0.064,-0.52 -0.528,-0.576 l 0,-0.12 1.752,0 0,0.12 -0.208,0.016 c -0.24,0.016 -0.344,0.16 -0.344,0.472 l 0,1.648 c 0,0.943999 -0.312,1.424 -0.928,1.424 -0.464,0 -0.872,-0.208001 -1.304,-0.672 -0.144,0.455999 -0.416,0.672 -0.848,0.672 -0.352,0 -0.576,-0.112001 -1.24,-0.616 l 0,0.6 -0.056,0.016 c -0.408,-0.152 -0.68,-0.240001 -1.12,-0.36 l 0,-0.136" /><path
       inkscape:connector-curvature="0"
       id="path3987"
       style="font-size:8px;font-variant:normal;font-weight:normal;writing-mode:lr-tb;fill:#231f20;fill-opacity:1;fill-rule:nonzero;stroke:none;font-family:Times;-inkscape-font-specification:Times-Roman"
       d="m 333.54094,46.001103 c -0.136,-0.112 -0.232,-0.152 -0.352,-0.152 -0.184,0 -0.24,0.112 -0.24,0.464 l 0,1.56 c 0,0.415999 -0.04,0.648 -0.16,0.84 -0.176,0.287999 -0.52,0.44 -0.992,0.44 -0.752,0 -1.344,-0.392001 -1.344,-0.896 0,-0.184 0.16,-0.344 0.344,-0.344 0.192,0 0.36,0.16 0.36,0.336 0,0.032 -0.008,0.072 -0.016,0.128 -0.016,0.072 -0.024,0.136 -0.024,0.192 0,0.215999 0.256,0.392 0.576,0.392 0.392,0 0.608,-0.232001 0.608,-0.664 l 0,-0.488 c -1.23199,-0.496 -1.368,-0.560001 -1.712,-0.864 -0.176,-0.16 -0.288,-0.432001 -0.288,-0.696 0,-0.504 0.352,-0.856 0.84,-0.856 0.352,0 0.68,0.168 1.168,0.584 0.04,-0.416 0.184,-0.584 0.512,-0.584 0.272,0 0.44,0.096 0.72,0.4 l 0,0.208 m -1.24,0.456 c 0,-0.248 -0.04,-0.320001 -0.208,-0.416 -0.192,-0.112 -0.416,-0.184 -0.584,-0.184 -0.28,0 -0.504,0.272 -0.504,0.616 l 0,0.032 c 0,0.471999 0.328,0.76 1.296,1.112 l 0,-1.16" /><path
       inkscape:connector-curvature="0"
       id="path3989"
       style="font-size:8px;font-variant:normal;font-weight:normal;writing-mode:lr-tb;fill:#231f20;fill-opacity:1;fill-rule:nonzero;stroke:none;font-family:Times;-inkscape-font-specification:Times-Roman"
       d="m 335.59695,49.073103 -0.808,0 0,0.928 c 0,0.08 -0.008,0.104 -0.056,0.104 -0.056,-0.072 -0.104,-0.144001 -0.16,-0.224 -0.304,-0.44 -0.648,-0.824 -0.776,-0.856 -0.088,-0.056 -0.136,-0.112 -0.136,-0.152 0,-0.024 0.008,-0.04 0.032,-0.056 l 0.424,0 0,-2.408 c 0,-0.672 0.24,-1.016 0.712,-1.016 0.392,0 0.696,0.192 0.96,0.608 l -0.104,0.088 c -0.168,-0.2 -0.304,-0.28 -0.48,-0.28 -0.296,0 -0.416,0.216 -0.416,0.72 l 0,2.288 0.808,0 0,0.256" /><path
       inkscape:connector-curvature="0"
       id="path3991"
       style="font-size:8px;font-variant:normal;font-weight:normal;writing-mode:lr-tb;fill:#231f20;fill-opacity:1;fill-rule:nonzero;stroke:none;font-family:Times;-inkscape-font-specification:Times-Roman"
       d="m 337.18094,49.153103 -1.24,-0.44 0,-0.12 0.064,0.008 c 0.096,0.016 0.2,0.024 0.272,0.024 0.192,0 0.264,-0.128001 0.264,-0.48 l 0,-1.856 c 0,-0.576 -0.08,-0.664 -0.632,-0.696 l 0,-0.12 1.896,0 0,0.12 c -0.52799,0.04 -0.592,0.12 -0.592,0.696 l 0,2.84 -0.032,0.024 m -0.376,1.784 c -0.21599,0 -0.4,-0.184001 -0.4,-0.408 0,-0.224 0.17601,-0.408 0.4,-0.408 0.232,0 0.416,0.176 0.416,0.408 0,0.223999 -0.184,0.408 -0.416,0.408" /><path
       inkscape:connector-curvature="0"
       id="path3993"
       style="font-size:8px;font-variant:normal;font-weight:normal;writing-mode:lr-tb;fill:#231f20;fill-opacity:1;fill-rule:nonzero;stroke:none;font-family:Times;-inkscape-font-specification:Times-Roman"
       d="m 340.00494,49.153103 c -1.04,0 -1.768,-0.768002 -1.768,-1.872 0,-1.079999 0.744,-1.888 1.752,-1.888 1.008,0 1.776,0.848001 1.776,1.952 0,1.047999 -0.736,1.808 -1.76,1.808 m -0.104,-0.224 c 0.672,0 1.144,-0.768002 1.144,-1.864 0,-0.904 -0.36,-1.448 -0.96,-1.448 -0.312,0 -0.608,0.192 -0.776,0.512 -0.224,0.415999 -0.352,0.976 -0.352,1.544 0,0.759999 0.376,1.256 0.944,1.256" /><path
       inkscape:connector-curvature="0"
       id="path3995"
       style="font-size:8px;font-variant:normal;font-weight:normal;writing-mode:lr-tb;fill:#231f20;fill-opacity:1;fill-rule:nonzero;stroke:none;font-family:Times;-inkscape-font-specification:Times-Roman"
       d="m 342.13294,48.657103 c 0.048,0.024 0.128,0.032 0.216,0.032 0.224,0 0.296,-0.120001 0.296,-0.512 l 0,-1.984 c 0,-0.456 -0.088,-0.568 -0.496,-0.6 l 0,-0.12 1.696,0 0,0.12 c -0.408,0.032 -0.528,0.128 -0.528,0.416 l 0,2.248 c 0.384,0.359999 0.56,0.456 0.824,0.456 0.392,0 0.584,-0.248001 0.584,-0.776 l 0,-1.672 c 0,-0.504 -0.104,-0.64 -0.504,-0.672 l 0,-0.12 1.664,0 0,0.12 c -0.392,0.04 -0.488,0.136 -0.488,0.528 l 0,1.832 c 0,0.751999 -0.352,1.2 -0.944,1.2 -0.368,0 -0.616,-0.136001 -1.16,-0.648 l 0,0.632 -0.056,0.016 c -0.392,-0.144 -0.664,-0.232001 -1.104,-0.36 l 0,-0.136" /><path
       inkscape:connector-curvature="0"
       id="path3997"
       style="font-size:8px;font-variant:normal;font-weight:normal;writing-mode:lr-tb;fill:#231f20;fill-opacity:1;fill-rule:nonzero;stroke:none;font-family:Times;-inkscape-font-specification:Times-Roman"
       d="m 291.65945,63.680355 -1.904,0 0,-0.152 c 0.432,-0.016 0.56,-0.072 0.56,-0.256 0,-0.12 -0.088,-0.264 -0.32,-0.552 l -0.904,-1.104 -0.336,0.472 c -0.488,0.679999 -0.68,1.024 -0.68,1.2 0,0.16 0.12,0.224 0.384,0.232 l 0.224,0.008 0,0.152 -2.416,0 0,-0.152 c 0.52,-0.024 0.664,-0.144001 1.448,-1.256 l 0.872,-1.28 -1.256,-1.544 c -0.712,-0.847999 -0.752,-0.88 -1.16,-0.912 l 0,-0.152 1.864,0 0,0.152 c -0.464,0.032 -0.608,0.096 -0.608,0.28 0,0.12 0.12,0.320001 0.416,0.688 l 0.952,1.184 0.76,-1.12 c 0.264,-0.391999 0.408,-0.664 0.408,-0.784 0,-0.144 -0.128,-0.224 -0.4,-0.232 -0.032,0 -0.12,-0.008 -0.216,-0.016 l 0,-0.152 2.376,0 0,0.152 c -0.424,0.048 -0.544,0.128001 -0.888,0.592 l -1.536,2.192 1.168,1.456 c 0.52,0.624 0.68,0.72 1.192,0.752 l 0,0.152" /><path
       inkscape:connector-curvature="0"
       id="path3999"
       style="font-size:8px;font-variant:normal;font-weight:normal;writing-mode:lr-tb;fill:#231f20;fill-opacity:1;fill-rule:nonzero;stroke:none;font-family:Times;-inkscape-font-specification:Times-Roman"
       d="m 308.03965,188.64421 -1.752,0 0,-0.152 c 0.416,-0.008 0.552,-0.072 0.552,-0.264 0,-0.08 -0.04,-0.176 -0.112,-0.296 l -1.144,-1.808 -1.184,1.776 c -0.088,0.128 -0.136,0.264 -0.136,0.352 0,0.144 0.112,0.216 0.368,0.232 0.032,0 0.112,0 0.2,0.008 l 0,0.152 -2.24,0 0,-0.152 c 0.384,-0.016 0.496,-0.128 1.296,-1.256 l 1.048,-1.536 0,-1.392 c 0,-0.696 -0.08,-0.776 -0.808,-0.808 l 0,-0.152 2.448,0 0,0.152 c -0.712,0.016 -0.824,0.112 -0.824,0.72 l 0,1.552 1.184,1.808 c 0.488,0.704 0.696,0.88 1.104,0.912 l 0,0.152" /><path
       inkscape:connector-curvature="0"
       id="path72"
       style="fill:none;stroke:#231f20;stroke-width:0.8;stroke-linecap:butt;stroke-linejoin:miter;stroke-miterlimit:4;stroke-opacity:1;stroke-dasharray:none"
       d="m 35.894825,50.809146 0,129.686924" /><path
       inkscape:connector-curvature="0"
       id="path74"
       style="fill:#231f20;fill-opacity:1;fill-rule:nonzero;stroke:none"
       d="m 35.126425,182.26707 c -0.375,-1.24 -0.7199,-2.045 -1.1191,-3.041 l 3.7836,0 c -0.1696,0.357 -0.7446,1.801 -1.1188,3.041 -0.4012,1.328 -0.6758,2.531 -0.7734,3.311 -0.0977,-0.78 -0.3719,-1.983 -0.7723,-3.311" /><path
       inkscape:connector-curvature="0"
       id="path76"
       style="fill:none;stroke:#231f20;stroke-width:0.8;stroke-linecap:butt;stroke-linejoin:miter;stroke-miterlimit:4;stroke-opacity:1;stroke-dasharray:none"
       d="m 11.997925,67.825966 139.484005,0" /><path
       inkscape:connector-curvature="0"
       id="path78"
       style="fill:#231f20;fill-opacity:1;fill-rule:nonzero;stroke:none"
       d="m 153.25292,68.593866 c -1.24,0.375 -2.046,0.7204 -3.041,1.1192 l 0,-3.7828 c 0.357,0.1687 1.801,0.7437 3.041,1.1187 1.328,0.4012 2.531,0.6742 3.311,0.7731 -0.78,0.0968 -1.983,0.3718 -3.311,0.7718" /><path
       inkscape:connector-curvature="0"
       id="path80"
       style="fill:none;stroke:#231f20;stroke-width:0.80000001;stroke-linecap:butt;stroke-linejoin:miter;stroke-miterlimit:4;stroke-opacity:1;stroke-dasharray:none"
       d="m 220.13408,52.052896 0,128.478174" /><path
       inkscape:connector-curvature="0"
       id="path82"
       style="fill:#231f20;fill-opacity:1;fill-rule:nonzero;stroke:none"
       d="m 219.36508,182.30207 c -0.375,-1.24 -0.71999,-2.046 -1.119,-3.04 l 3.783,0 c -0.169,0.355 -0.744,1.8 -1.11799,3.04 -0.40201,1.327 -0.67601,2.531 -0.774,3.311 -0.097,-0.78 -0.372,-1.984 -0.772,-3.311" /><path
       inkscape:connector-curvature="0"
       id="path84"
       style="fill:none;stroke:#231f20;stroke-width:0.80000001;stroke-linecap:butt;stroke-linejoin:miter;stroke-miterlimit:4;stroke-opacity:1;stroke-dasharray:none"
       d="m 194.23608,67.825966 138.98301,0" /><path
       inkscape:connector-curvature="0"
       id="path86"
       style="fill:#231f20;fill-opacity:1;fill-rule:nonzero;stroke:none"
       d="m 334.99109,68.593866 c -1.24,0.375 -2.046,0.7204 -3.041,1.1192 l 0,-3.7828 c 0.356,0.1687 1.801,0.7437 3.041,1.1187 1.327,0.4012 2.53,0.6742 3.30999,0.7731 -0.77999,0.0968 -1.98299,0.3718 -3.30999,0.7718" /><path
       inkscape:connector-curvature="0"
       id="path88"
       style="fill:none;stroke:#231f20;stroke-width:1.60000002;stroke-linecap:butt;stroke-linejoin:miter;stroke-miterlimit:4;stroke-opacity:1;stroke-dasharray:none"
       d="m 220,67.999929 68,0 11.13309,118.051141"
       sodipodi:nodetypes="ccc" /><path
       inkscape:connector-curvature="0"
       id="path90"
       style="fill:none;stroke:#231f20;stroke-width:1.6;stroke-linecap:butt;stroke-linejoin:miter;stroke-miterlimit:4;stroke-opacity:1;stroke-dasharray:none"
       d="m 35.754225,67.806066 c 0,0 50.6214,1.7 59.9386,7.423 9.316405,5.7262 12.303105,13.534 12.303105,13.534 l 1.92929,5.368 20.0237,83.686004" /></g></svg>