<?xml version="1.0" encoding="UTF-8" standalone="no"?>
<!-- Created with Inkscape (http://www.inkscape.org/) -->

<svg
   xmlns:ns0="http://www.iki.fi/pav/software/textext/"
   xmlns:dc="http://purl.org/dc/elements/1.1/"
   xmlns:cc="http://creativecommons.org/ns#"
   xmlns:rdf="http://www.w3.org/1999/02/22-rdf-syntax-ns#"
   xmlns:svg="http://www.w3.org/2000/svg"
   xmlns="http://www.w3.org/2000/svg"
   xmlns:xlink="http://www.w3.org/1999/xlink"
   xmlns:sodipodi="http://sodipodi.sourceforge.net/DTD/sodipodi-0.dtd"
   xmlns:inkscape="http://www.inkscape.org/namespaces/inkscape"
   sodipodi:docname="S3-EE-01-022.eps"
   width="744.09448819"
   height="1052.3622047"
   id="svg3040"
   version="1.1"
   inkscape:version="0.48.4 r9939">
  <sodipodi:namedview
     id="base"
     pagecolor="#ffffff"
     bordercolor="#666666"
     borderopacity="1.0"
     inkscape:pageopacity="0.0"
     inkscape:pageshadow="2"
     inkscape:zoom="2.6465"
     inkscape:cx="417.48427"
     inkscape:cy="223.07719"
     inkscape:document-units="px"
     inkscape:current-layer="svg3040"
     showgrid="false"
     inkscape:window-width="1366"
     inkscape:window-height="744"
     inkscape:window-x="0"
     inkscape:window-y="24"
     inkscape:window-maximized="1" />
  <defs
     id="defs3042">
    <inkscape:perspective
       id="perspective3048"
       inkscape:persp3d-origin="372.04724 : 350.78739 : 1"
       inkscape:vp_z="744.09448 : 526.18109 : 1"
       inkscape:vp_y="0 : 1000 : 0"
       inkscape:vp_x="0 : 526.18109 : 1"
       sodipodi:type="inkscape:persp3d" />
    <inkscape:perspective
       sodipodi:type="inkscape:persp3d"
       inkscape:vp_x="0 : 0.5 : 1"
       inkscape:vp_y="0 : 1000 : 0"
       inkscape:vp_z="1 : 0.5 : 1"
       inkscape:persp3d-origin="0.5 : 0.33333333 : 1"
       id="perspective2966" />
    <clipPath
       id="clipPath20"
       clipPathUnits="userSpaceOnUse">
      <path
         id="path22"
         d="M 0,961.656 0,0 l 2129.1,0 0,961.656" />
    </clipPath>
    <inkscape:perspective
       sodipodi:type="inkscape:persp3d"
       inkscape:vp_x="0 : 0.5 : 1"
       inkscape:vp_y="0 : 1000 : 0"
       inkscape:vp_z="1 : 0.5 : 1"
       inkscape:persp3d-origin="0.5 : 0.33333333 : 1"
       id="perspective2966-7" />
    <clipPath
       id="clipPath20-5"
       clipPathUnits="userSpaceOnUse">
      <path
         id="path22-1"
         d="M 0,961.656 0,0 l 2129.1,0 0,961.656" />
    </clipPath>
    <inkscape:perspective
       id="perspective2966-0"
       inkscape:persp3d-origin="0.5 : 0.33333333 : 1"
       inkscape:vp_z="1 : 0.5 : 1"
       inkscape:vp_y="0 : 1000 : 0"
       inkscape:vp_x="0 : 0.5 : 1"
       sodipodi:type="inkscape:persp3d" />
  </defs>
  <metadata
     id="metadata3045">
    <rdf:RDF>
      <cc:Work
         rdf:about="">
        <dc:format>image/svg+xml</dc:format>
        <dc:type
           rdf:resource="http://purl.org/dc/dcmitype/StillImage" />
        <dc:title></dc:title>
      </cc:Work>
    </rdf:RDF>
  </metadata>
  <g
     id="layer1"
     inkscape:groupmode="layer"
     inkscape:label="Layer 1" />
  <path
     d="m 311.60568,876.30453 209.68893,0 0,-120.40557 -209.68893,0 0,120.40557 z"
     style="fill:none;stroke:#231f20;stroke-width:1;stroke-linecap:butt;stroke-linejoin:miter;stroke-miterlimit:3.90264273;stroke-opacity:1;stroke-dasharray:none"
     id="path108" />
  <path
     d="m 303.7009,824.9652 15.80927,0 0,-17.72839 -15.80927,0 0,17.72839 z"
     style="fill:#ffffff;fill-opacity:1;fill-rule:nonzero;stroke:none"
     id="path110" />
  <path
     d="m 319.51032,814.39363 -15.80942,0"
     style="fill:none;stroke:#231f20;stroke-width:1;stroke-linecap:round;stroke-linejoin:round;stroke-miterlimit:3.90264273;stroke-opacity:1;stroke-dasharray:none"
     id="path112" />
  <path
     d="m 316.4862,819.24541 -9.76118,0"
     style="fill:none;stroke:#231f20;stroke-width:1;stroke-linecap:round;stroke-linejoin:round;stroke-miterlimit:3.90264273;stroke-opacity:1;stroke-dasharray:none"
     id="path114"
     inkscape:connector-curvature="0" />
  <path
     d="m 311.60568,819.45119 0,7.15662"
     style="fill:none;stroke:#231f20;stroke-width:1;stroke-linecap:round;stroke-linejoin:round;stroke-miterlimit:3.86369991;stroke-opacity:1;stroke-dasharray:none"
     id="path116"
     inkscape:connector-curvature="0" />
  <path
     d="m 311.60568,807.23685 0,7.15678"
     style="fill:none;stroke:#231f20;stroke-width:1;stroke-linecap:round;stroke-linejoin:round;stroke-miterlimit:3.90264273;stroke-opacity:1;stroke-dasharray:none"
     id="path118" />
  <path
     d="m 391.41153,761.57269 49.73729,0 0,-11.45546 -49.73729,0 0,11.45546 z"
     style="fill:#ffffff;fill-opacity:1;fill-rule:nonzero;stroke:none"
     id="path120" />
  <path
     d="m 441.48922,755.89896 -5.53603,0 -2.40631,5.67377 -4.82793,-11.45553 -4.89662,11.45553 -4.90104,-11.45553 -4.82856,11.45553 -4.78594,-11.45553 -4.82855,11.45553 -4.90106,-11.30875 -2.34392,5.63498 -5.82173,0"
     style="fill:none;stroke:#231f20;stroke-width:1;stroke-linecap:round;stroke-linejoin:round;stroke-miterlimit:3.86369991;stroke-opacity:1;stroke-dasharray:none"
     id="path122" />
  <path
     inkscape:connector-curvature="0"
     d="m 405.5346,830.32751 c -7.55871,-7.5611 -7.55871,-19.82232 0,-27.38633 7.55565,-7.55986 19.81033,-7.55986 27.36646,0 7.55916,7.56401 7.55916,19.82523 0,27.38633"
     style="fill:none;stroke:#231f20;stroke-width:1;stroke-linecap:butt;stroke-linejoin:miter;stroke-miterlimit:3.90264273;stroke-opacity:1;stroke-dasharray:none"
     id="path124" />
  <path
     inkscape:connector-curvature="0"
     d="m 433.33786,829.89141 2.47682,0.60507 -0.017,0.0875 -3.51136,1.514 c -1.06828,0.68299 -2.13504,1.36722 -3.20484,2.0502 0.68357,-1.06874 1.36716,-2.13763 2.04919,-3.20653 l 1.51582,-3.51206 0.0781,-0.0263 0.61308,2.48827"
     style="fill:#231f20;fill-opacity:1;fill-rule:nonzero;stroke:none"
     id="path126" />
  <path
     d="m 507.72549,826.47607 27.13747,0 0,-20.54136 -27.13747,0 0,20.54136 z"
     style="fill:#ffffff;fill-opacity:1;fill-rule:nonzero;stroke:none"
     id="path142"
     inkscape:connector-curvature="0" />
  <path
     d="m 521.29277,825.66428 -11.38168,-19.72953 22.76335,0 -11.38167,19.72953 z"
     style="fill:none;stroke:#231f20;stroke-width:1;stroke-linecap:round;stroke-linejoin:round;stroke-miterlimit:3.90264273;stroke-opacity:1;stroke-dasharray:none"
     id="path144"
     inkscape:connector-curvature="0" />
  <path
     d="m 532.56563,826.4761 -22.88444,0"
     style="fill:none;stroke:#231f20;stroke-width:1;stroke-linecap:round;stroke-linejoin:round;stroke-miterlimit:3.90264273;stroke-opacity:1;stroke-dasharray:none"
     id="path146"
     inkscape:connector-curvature="0" />
  <g
     ns0:text="$I$"
     ns0:preamble="/home/sriranga/Desktop/Umrani-2nd-puc-2013/package.tex"
     transform="matrix(1.2,0,0,1.2,148.84854,658.64174)"
     id="g3966">
    <defs
       id="defs3968">
      <g
         id="g3970">
        <symbol
           style="overflow:visible"
           overflow="visible"
           id="textext-eabae17c-0">
          <path
             inkscape:connector-curvature="0"
             style="stroke:none"
             d=""
             id="path3973" />
        </symbol>
        <symbol
           style="overflow:visible"
           overflow="visible"
           id="textext-eabae17c-1">
          <path
             inkscape:connector-curvature="0"
             style="stroke:none"
             d="M 3.734375,-6.046875 C 3.8125,-6.40625 3.84375,-6.5 4.640625,-6.5 c 0.234375,0 0.3125,0 0.3125,-0.1875 0,-0.125 -0.109375,-0.125 -0.140625,-0.125 -0.296875,0 -1.03125,0.03125 -1.328125,0.03125 -0.296875,0 -1.015625,-0.03125 -1.328125,-0.03125 -0.0625,0 -0.1875,0 -0.1875,0.203125 C 1.96875,-6.5 2.046875,-6.5 2.25,-6.5 c 0.40625,0 0.6875,0 0.6875,0.1875 0,0.046875 0,0.078125 -0.03125,0.15625 l -1.34375,5.375 c -0.09375,0.375 -0.109375,0.46875 -0.90625,0.46875 -0.234375,0 -0.3125,0 -0.3125,0.203125 C 0.34375,0 0.453125,0 0.484375,0 0.78125,0 1.5,-0.03125 1.796875,-0.03125 2.09375,-0.03125 2.828125,0 3.125,0 c 0.078125,0 0.203125,0 0.203125,-0.1875 0,-0.125 -0.078125,-0.125 -0.296875,-0.125 -0.1875,0 -0.234375,0 -0.421875,-0.015625 -0.21875,-0.015625 -0.25,-0.0625 -0.25,-0.171875 0,-0.078125 0.015625,-0.15625 0.03125,-0.234375 l 1.34375,-5.3125 z m 0,0"
             id="path3976" />
        </symbol>
      </g>
    </defs>
    <g
       id="textext-eabae17c-2">
      <g
         style="fill:#000000;fill-opacity:1"
         id="g3979">
        <use
           height="1052.3622"
           width="744.09448"
           xlink:href="#textext-eabae17c-1"
           x="223.43201"
           y="134.765"
           id="use3981" />
      </g>
    </g>
  </g>
  <g
     ns0:text="$9\\,\\text{V}$"
     ns0:preamble="/home/sriranga/Desktop/Umrani-2nd-puc-2013/package.tex"
     transform="matrix(1.2,0,0,1.2,7.9219527,659.18886)"
     id="g3834">
    <defs
       id="defs3836">
      <g
         id="g3838">
        <symbol
           overflow="visible"
           id="textext-4fd0fe67-0"
           style="overflow:visible">
          <path
             style="stroke:none"
             d=""
             id="path3841"
             inkscape:connector-curvature="0" />
        </symbol>
        <symbol
           overflow="visible"
           id="textext-4fd0fe67-1"
           style="overflow:visible">
          <path
             style="stroke:none"
             d="m 3.65625,-3.171875 0,0.328125 c 0,2.328125 -1.03125,2.78125 -1.609375,2.78125 -0.171875,0 -0.71875,-0.015625 -0.984375,-0.359375 0.4375,0 0.515625,-0.28125 0.515625,-0.453125 0,-0.3125 -0.234375,-0.453125 -0.453125,-0.453125 -0.15625,0 -0.453125,0.078125 -0.453125,0.46875 0,0.671875 0.53125,1.078125 1.375,1.078125 1.296875,0 2.515625,-1.359375 2.515625,-3.5 0,-2.6875 -1.15625,-3.359375 -2.046875,-3.359375 -0.546875,0 -1.03125,0.1875 -1.453125,0.625 -0.421875,0.453125 -0.640625,0.875 -0.640625,1.625 0,1.234375 0.875,2.21875 1.984375,2.21875 0.609375,0 1.015625,-0.421875 1.25,-1 z M 2.421875,-2.40625 c -0.15625,0 -0.625,0 -0.921875,-0.625 -0.1875,-0.375 -0.1875,-0.859375 -0.1875,-1.359375 0,-0.53125 0,-1 0.21875,-1.375 0.265625,-0.5 0.640625,-0.625 0.984375,-0.625 0.46875,0 0.796875,0.34375 0.96875,0.78125 0.109375,0.328125 0.15625,0.953125 0.15625,1.40625 0,0.828125 -0.34375,1.796875 -1.21875,1.796875 z m 0,0"
             id="path3844"
             inkscape:connector-curvature="0" />
        </symbol>
        <symbol
           overflow="visible"
           id="textext-4fd0fe67-2"
           style="overflow:visible">
          <path
             style="stroke:none"
             d="M 6.1875,-5.828125 C 6.328125,-6.203125 6.59375,-6.484375 7.28125,-6.5 l 0,-0.3125 c -0.3125,0.03125 -0.71875,0.03125 -0.96875,0.03125 -0.296875,0 -0.875,-0.015625 -1.140625,-0.03125 l 0,0.3125 C 5.6875,-6.484375 5.90625,-6.234375 5.90625,-6 c 0,0.078125 -0.03125,0.140625 -0.046875,0.203125 L 4.03125,-1 2.125,-6.03125 C 2.0625,-6.171875 2.0625,-6.1875 2.0625,-6.203125 2.0625,-6.5 2.625,-6.5 2.875,-6.5 l 0,-0.3125 c -0.359375,0.03125 -1.046875,0.03125 -1.421875,0.03125 -0.46875,0 -0.90625,-0.015625 -1.265625,-0.03125 l 0,0.3125 c 0.65625,0 0.84375,0 0.984375,0.375 L 3.484375,0 c 0.0625,0.1875 0.109375,0.21875 0.25,0.21875 0.15625,0 0.1875,-0.046875 0.234375,-0.1875 L 6.1875,-5.828125 z m 0,0"
             id="path3847"
             inkscape:connector-curvature="0" />
        </symbol>
      </g>
    </defs>
    <g
       id="textext-4fd0fe67-3">
      <g
         style="fill:#000000;fill-opacity:1"
         id="g3850">
        <use
           xlink:href="#textext-4fd0fe67-1"
           x="223.43201"
           y="134.765"
           id="use3852"
           width="744.09448"
           height="1052.3622" />
      </g>
      <g
         style="fill:#000000;fill-opacity:1"
         id="g3854">
        <use
           xlink:href="#textext-4fd0fe67-2"
           x="230.07706"
           y="134.765"
           id="use3856"
           width="744.09448"
           height="1052.3622" />
      </g>
    </g>
  </g>
  <g
     id="g4123"
     transform="matrix(1.2,0,0,1.2,272.35728,657.82443)"
     ns0:preamble="/home/sriranga/Desktop/Umrani-2nd-puc-2013/package.tex"
     ns0:text="$V_{F}=0.3\\,\\text{V}$">
    <defs
       id="defs4125">
      <g
         id="g4127">
        <symbol
           id="textext-b4e24f93-0"
           overflow="visible"
           style="overflow:visible">
          <path
             id="path4130"
             d=""
             style="stroke:none"
             inkscape:connector-curvature="0" />
        </symbol>
        <symbol
           id="textext-b4e24f93-1"
           overflow="visible"
           style="overflow:visible">
          <path
             id="path4133"
             d="M 6.265625,-5.671875 C 6.75,-6.453125 7.171875,-6.484375 7.53125,-6.5 c 0.125,-0.015625 0.140625,-0.171875 0.140625,-0.1875 0,-0.078125 -0.0625,-0.125 -0.140625,-0.125 -0.25,0 -0.546875,0.03125 -0.8125,0.03125 -0.328125,0 -0.671875,-0.03125 -0.984375,-0.03125 -0.0625,0 -0.1875,0 -0.1875,0.1875 0,0.109375 0.078125,0.125 0.15625,0.125 0.265625,0.015625 0.453125,0.125 0.453125,0.328125 0,0.15625 -0.140625,0.375 -0.140625,0.375 l -3.0625,4.875 -0.6875,-5.28125 C 2.265625,-6.375 2.5,-6.5 2.953125,-6.5 c 0.140625,0 0.25,0 0.25,-0.203125 0,-0.078125 -0.078125,-0.109375 -0.125,-0.109375 -0.40625,0 -0.828125,0.03125 -1.25,0.03125 -0.171875,0 -0.359375,0 -0.546875,0 -0.171875,0 -0.359375,-0.03125 -0.53125,-0.03125 -0.078125,0 -0.1875,0 -0.1875,0.1875 0,0.125 0.078125,0.125 0.25,0.125 0.546875,0 0.5625,0.09375 0.59375,0.34375 L 2.1875,-0.015625 C 2.21875,0.1875 2.265625,0.21875 2.390625,0.21875 c 0.15625,0 0.203125,-0.046875 0.28125,-0.171875 l 3.59375,-5.71875 z m 0,0"
             style="stroke:none"
             inkscape:connector-curvature="0" />
        </symbol>
        <symbol
           id="textext-b4e24f93-2"
           overflow="visible"
           style="overflow:visible">
          <path
             id="path4136"
             d="m 1.90625,-0.53125 c 0,-0.28125 -0.234375,-0.53125 -0.515625,-0.53125 -0.296875,0 -0.53125,0.25 -0.53125,0.53125 C 0.859375,-0.234375 1.09375,0 1.390625,0 1.671875,0 1.90625,-0.234375 1.90625,-0.53125 z m 0,0"
             style="stroke:none"
             inkscape:connector-curvature="0" />
        </symbol>
        <symbol
           id="textext-b4e24f93-3"
           overflow="visible"
           style="overflow:visible">
          <path
             id="path4139"
             d=""
             style="stroke:none"
             inkscape:connector-curvature="0" />
        </symbol>
        <symbol
           id="textext-b4e24f93-4"
           overflow="visible"
           style="overflow:visible">
          <path
             id="path4142"
             d="m 2.390625,-2.25 0.734375,0 c 0.53125,0 0.625,0.09375 0.625,0.3125 0,0.109375 0,0.125 -0.046875,0.328125 -0.015625,0.03125 -0.03125,0.0625 -0.03125,0.078125 0,0.0625 0.0625,0.109375 0.125,0.109375 0.09375,0 0.09375,-0.046875 0.140625,-0.171875 l 0.375,-1.46875 c 0,-0.03125 0.015625,-0.125 0.015625,-0.140625 0,-0.078125 -0.046875,-0.109375 -0.109375,-0.109375 -0.09375,0 -0.109375,0.046875 -0.140625,0.171875 C 3.9375,-2.59375 3.734375,-2.5 3.140625,-2.5 l -0.6875,0 0.4375,-1.75 c 0.046875,-0.203125 0.0625,-0.234375 0.34375,-0.234375 l 1.078125,0 c 0.921875,0 1.09375,0.21875 1.09375,0.8125 0,0.21875 -0.03125,0.375 -0.03125,0.421875 0,0.0625 0.03125,0.125 0.125,0.125 0.109375,0 0.109375,-0.0625 0.125,-0.1875 L 5.75,-4.515625 c 0.015625,-0.21875 -0.03125,-0.21875 -0.203125,-0.21875 l -3.71875,0 c -0.140625,0 -0.21875,0 -0.21875,0.15625 0,0.09375 0.078125,0.09375 0.21875,0.09375 0,0 0.140625,0 0.265625,0.015625 C 2.234375,-4.453125 2.25,-4.4375 2.25,-4.375 c 0,0.046875 -0.015625,0.125 -0.03125,0.15625 L 1.3125,-0.578125 C 1.234375,-0.296875 1.234375,-0.25 0.6875,-0.25 c -0.109375,0 -0.203125,0 -0.203125,0.140625 C 0.484375,-0.03125 0.53125,0 0.59375,0 0.796875,0 1.3125,-0.03125 1.515625,-0.03125 l 0.53125,0.015625 C 2.234375,-0.015625 2.421875,0 2.59375,0 2.640625,0 2.75,0 2.75,-0.15625 2.75,-0.25 2.671875,-0.25 2.515625,-0.25 c -0.015625,0 -0.1875,0 -0.375,-0.015625 C 2,-0.28125 1.9375,-0.28125 1.9375,-0.390625 c 0,-0.015625 0,-0.046875 0.015625,-0.125 L 2.390625,-2.25 z m 0,0"
             style="stroke:none"
             inkscape:connector-curvature="0" />
        </symbol>
        <symbol
           id="textext-b4e24f93-5"
           overflow="visible"
           style="overflow:visible">
          <path
             id="path4145"
             d=""
             style="stroke:none"
             inkscape:connector-curvature="0" />
        </symbol>
        <symbol
           id="textext-b4e24f93-6"
           overflow="visible"
           style="overflow:visible">
          <path
             id="path4148"
             d="m 6.84375,-3.265625 c 0.15625,0 0.34375,0 0.34375,-0.1875 C 7.1875,-3.65625 7,-3.65625 6.859375,-3.65625 l -5.96875,0 c -0.140625,0 -0.328125,0 -0.328125,0.203125 0,0.1875 0.1875,0.1875 0.328125,0.1875 l 5.953125,0 z m 0.015625,1.9375 c 0.140625,0 0.328125,0 0.328125,-0.203125 0,-0.1875 -0.1875,-0.1875 -0.34375,-0.1875 l -5.953125,0 c -0.140625,0 -0.328125,0 -0.328125,0.1875 0,0.203125 0.1875,0.203125 0.328125,0.203125 l 5.96875,0 z m 0,0"
             style="stroke:none"
             inkscape:connector-curvature="0" />
        </symbol>
        <symbol
           id="textext-b4e24f93-7"
           overflow="visible"
           style="overflow:visible">
          <path
             id="path4151"
             d="m 4.578125,-3.1875 c 0,-0.796875 -0.046875,-1.59375 -0.390625,-2.328125 -0.453125,-0.96875 -1.28125,-1.125 -1.6875,-1.125 -0.609375,0 -1.328125,0.265625 -1.75,1.1875 -0.3125,0.6875 -0.359375,1.46875 -0.359375,2.265625 0,0.75 0.03125,1.640625 0.453125,2.40625 0.421875,0.796875 1.15625,1 1.640625,1 0.53125,0 1.296875,-0.203125 1.734375,-1.15625 0.3125,-0.6875 0.359375,-1.46875 0.359375,-2.25 z M 2.484375,0 C 2.09375,0 1.5,-0.25 1.328125,-1.203125 1.21875,-1.796875 1.21875,-2.71875 1.21875,-3.3125 c 0,-0.640625 0,-1.296875 0.078125,-1.828125 0.1875,-1.1875 0.9375,-1.28125 1.1875,-1.28125 0.328125,0 0.984375,0.1875 1.171875,1.171875 0.109375,0.5625 0.109375,1.3125 0.109375,1.9375 0,0.75 0,1.421875 -0.109375,2.0625 C 3.5,-0.296875 2.9375,0 2.484375,0 z m 0,0"
             style="stroke:none"
             inkscape:connector-curvature="0" />
        </symbol>
        <symbol
           id="textext-b4e24f93-8"
           overflow="visible"
           style="overflow:visible">
          <path
             id="path4154"
             d="m 2.890625,-3.515625 c 0.8125,-0.265625 1.390625,-0.953125 1.390625,-1.75 0,-0.8125 -0.875,-1.375 -1.828125,-1.375 -1,0 -1.765625,0.59375 -1.765625,1.359375 0,0.328125 0.21875,0.515625 0.515625,0.515625 0.296875,0 0.5,-0.21875 0.5,-0.515625 0,-0.484375 -0.46875,-0.484375 -0.609375,-0.484375 0.296875,-0.5 0.953125,-0.625 1.3125,-0.625 0.421875,0 0.96875,0.21875 0.96875,1.109375 0,0.125 -0.03125,0.703125 -0.28125,1.140625 C 2.796875,-3.65625 2.453125,-3.625 2.203125,-3.625 2.125,-3.609375 1.890625,-3.59375 1.8125,-3.59375 c -0.078125,0.015625 -0.140625,0.03125 -0.140625,0.125 0,0.109375 0.0625,0.109375 0.234375,0.109375 l 0.4375,0 c 0.8125,0 1.1875,0.671875 1.1875,1.65625 0,1.359375 -0.6875,1.640625 -1.125,1.640625 -0.4375,0 -1.1875,-0.171875 -1.53125,-0.75 0.34375,0.046875 0.65625,-0.171875 0.65625,-0.546875 0,-0.359375 -0.265625,-0.5625 -0.546875,-0.5625 -0.25,0 -0.5625,0.140625 -0.5625,0.578125 0,0.90625 0.921875,1.5625 2.015625,1.5625 1.21875,0 2.125,-0.90625 2.125,-1.921875 0,-0.8125 -0.640625,-1.59375 -1.671875,-1.8125 z m 0,0"
             style="stroke:none"
             inkscape:connector-curvature="0" />
        </symbol>
        <symbol
           id="textext-b4e24f93-9"
           overflow="visible"
           style="overflow:visible">
          <path
             id="path4157"
             d="M 6.1875,-5.828125 C 6.328125,-6.203125 6.59375,-6.484375 7.28125,-6.5 l 0,-0.3125 c -0.3125,0.03125 -0.71875,0.03125 -0.96875,0.03125 -0.296875,0 -0.875,-0.015625 -1.140625,-0.03125 l 0,0.3125 C 5.6875,-6.484375 5.90625,-6.234375 5.90625,-6 c 0,0.078125 -0.03125,0.140625 -0.046875,0.203125 L 4.03125,-1 2.125,-6.03125 C 2.0625,-6.171875 2.0625,-6.1875 2.0625,-6.203125 2.0625,-6.5 2.625,-6.5 2.875,-6.5 l 0,-0.3125 c -0.359375,0.03125 -1.046875,0.03125 -1.421875,0.03125 -0.46875,0 -0.90625,-0.015625 -1.265625,-0.03125 l 0,0.3125 c 0.65625,0 0.84375,0 0.984375,0.375 L 3.484375,0 c 0.0625,0.1875 0.109375,0.21875 0.25,0.21875 0.15625,0 0.1875,-0.046875 0.234375,-0.1875 L 6.1875,-5.828125 z m 0,0"
             style="stroke:none"
             inkscape:connector-curvature="0" />
        </symbol>
      </g>
    </defs>
    <g
       id="textext-b4e24f93-10">
      <g
         id="g4160"
         style="fill:#000000;fill-opacity:1">
        <use
           id="use4162"
           y="134.765"
           x="223.43201"
           xlink:href="#textext-b4e24f93-1"
           width="744.09448"
           height="1052.3622" />
      </g>
      <g
         id="g4164"
         style="fill:#000000;fill-opacity:1">
        <use
           id="use4166"
           y="136.259"
           x="229.244"
           xlink:href="#textext-b4e24f93-4"
           width="744.09448"
           height="1052.3622" />
      </g>
      <g
         id="g4168"
         style="fill:#000000;fill-opacity:1">
        <use
           id="use4170"
           y="134.765"
           x="238.634"
           xlink:href="#textext-b4e24f93-6"
           width="744.09448"
           height="1052.3622" />
      </g>
      <g
         id="g4172"
         style="fill:#000000;fill-opacity:1">
        <use
           id="use4174"
           y="134.765"
           x="249.15251"
           xlink:href="#textext-b4e24f93-7"
           width="744.09448"
           height="1052.3622" />
      </g>
      <g
         id="g4176"
         style="fill:#000000;fill-opacity:1">
        <use
           id="use4178"
           y="134.765"
           x="254.132"
           xlink:href="#textext-b4e24f93-2"
           width="744.09448"
           height="1052.3622" />
      </g>
      <g
         id="g4180"
         style="fill:#000000;fill-opacity:1">
        <use
           id="use4182"
           y="134.765"
           x="256.89899"
           xlink:href="#textext-b4e24f93-8"
           width="744.09448"
           height="1052.3622" />
      </g>
      <g
         id="g4184"
         style="fill:#000000;fill-opacity:1">
        <use
           id="use4186"
           y="134.765"
           x="263.54407"
           xlink:href="#textext-b4e24f93-9"
           width="744.09448"
           height="1052.3622" />
      </g>
    </g>
  </g>
  <g
     style="font-style:normal;font-variant:normal;font-weight:normal;font-stretch:normal;letter-spacing:normal;word-spacing:normal;text-anchor:start;fill:none;stroke:#000000;stroke-width:1;stroke-linecap:butt;stroke-linejoin:miter;stroke-miterlimit:10.43299961;stroke-opacity:1;stroke-dasharray:none;stroke-dashoffset:0"
     ns0:preamble="/home/sriranga/Desktop/UBM-2014/package.tex"
     ns0:text="$R=3.3\\,k\\Omega$"
     text-anchor="start"
     word-spacing="normal"
     letter-spacing="normal"
     font-size-adjust="none"
     font-stretch="normal"
     font-weight="normal"
     font-variant="normal"
     font-style="normal"
     fill-opacity="1"
     fill-rule="evenodd"
     fill="none"
     stroke-opacity="1"
     stroke-dashoffset="0"
     stroke-dasharray="none"
     stroke-miterlimit="10.433"
     stroke-linejoin="miter"
     stroke-linecap="butt"
     stroke="black"
     xml:space="preserve"
     transform="matrix(1.2,0,0,-1.2,123.60966,1593.4909)"
     id="content"><path
       id="path3243"
       fill="black"
       stroke-width="0"
       d="M229.07,707.28 L229.03,707.29 L228.99,707.29 L228.96,707.3 L228.92,707.3 L228.88,707.31 L228.85,707.32 L228.82,707.33 L228.79,707.34 L228.76,707.35 L228.73,707.36 L228.7,707.37 L228.67,707.39 L228.64,707.4 L228.62,707.42 L228.59,707.44 L228.57,707.46 L228.54,707.48 L228.52,707.5 L228.5,707.53 L228.48,707.55 L228.46,707.58 L228.43,707.61 L228.41,707.64 L228.39,707.67 L228.38,707.71 L228.36,707.74 L228.34,707.78 L228.32,707.82 L228.3,707.86 L228.28,707.91 L228.26,707.95 L228.25,708 L227.32,710.43 C228.09,710.6,228.42,710.74,228.77,711.06 C229.1,711.35,229.28,711.73,229.28,712.18 C229.28,713.1,228.55,713.61,227.21,713.61 L227,713.31 C227.83,713.31,228.24,712.94,228.24,712.2 C228.24,711.22,227.6,710.71,226.36,710.71 C226.2,710.71,226.09,710.72,225.85,710.76 L226.5,713.04 C226.56,713.24,226.68,713.31,227,713.31 L227.21,713.61 H224.74 V713.45 C225.16,713.39,225.21,713.38,225.31,713.31 C225.39,713.26,225.45,713.15,225.45,713.04 C225.45,712.92,225.4,712.68,225.33,712.41 L224.11,708.02 C223.93,707.43,223.86,707.37,223.3,707.28 V707.12 H225.73 V707.28 C225.12,707.36,225.05,707.41,225.05,707.74 C225.05,707.84,225.08,707.97,225.17,708.32 L225.73,710.39 L226.38,710.34 L227.6,707.12 H229.07 Z " /><polygon
       id="polygon3245"
       fill="black"
       stroke-width="0"
       points="238,710.4 238,710.96 232.9,710.96 232.9,710.4 " /><polygon
       id="polygon3247"
       fill="black"
       stroke-width="0"
       points="238,708.39 238,708.94 232.9,708.94 232.9,708.39 " /><path
       id="path3249"
       fill="black"
       stroke-width="0"
       d="M242.91,710.4 L242.97,710.4 L243.02,710.4 L243.07,710.4 L243.12,710.4 L243.16,710.4 L243.21,710.4 L243.25,710.4 L243.29,710.4 L243.33,710.4 L243.37,710.4 L243.41,710.39 L243.44,710.39 L243.47,710.39 L243.51,710.39 L243.54,710.38 L243.57,710.38 L243.6,710.38 L243.63,710.38 L243.66,710.37 L243.68,710.37 L243.71,710.36 L243.73,710.36 L243.78,710.35 L243.83,710.34 L243.88,710.32 L243.92,710.31 L243.97,710.29 C244.58,710.08,244.97,709.51,244.97,708.82 C244.97,707.99,244.4,707.34,243.67,707.34 C243.4,707.34,243.2,707.41,242.83,707.65 C242.53,707.83,242.37,707.9,242.2,707.9 C241.97,707.9,241.82,707.76,241.82,707.55 C241.82,707.2,242.25,706.99,242.94,706.99 C243.71,706.99,244.49,707.24,244.96,707.65 C245.43,708.06,245.69,708.64,245.69,709.3 C245.69,709.81,245.53,710.27,245.24,710.58 C245.04,710.8,244.85,710.92,244.41,711.11 C245.1,711.58,245.35,711.94,245.35,712.48 C245.35,713.28,244.71,713.84,243.8,713.84 C243.3,713.84,242.86,713.67,242.5,713.35 C242.21,713.09,242.06,712.83,241.84,712.23 L241.99,712.19 C242.4,712.92,242.84,713.24,243.47,713.24 C244.12,713.24,244.56,712.81,244.56,712.18 C244.56,711.82,244.41,711.47,244.17,711.22 C243.87,710.92,243.59,710.77,242.91,710.53 Z " /><path
       id="path3251"
       fill="black"
       stroke-width="0"
       d="M248.17,707.55 L248.17,707.58 L248.17,707.61 L248.17,707.64 L248.16,707.66 L248.15,707.69 L248.15,707.72 L248.14,707.74 L248.13,707.77 L248.12,707.8 L248.1,707.82 L248.09,707.84 L248.07,707.87 L248.06,707.89 L248.04,707.91 L248.02,707.93 L248.01,707.95 L247.99,707.97 L247.97,707.99 L247.94,708 L247.92,708.02 L247.9,708.03 L247.88,708.05 L247.85,708.06 L247.83,708.07 L247.8,708.08 L247.78,708.09 L247.75,708.1 L247.72,708.11 L247.7,708.11 L247.67,708.12 L247.64,708.12 L247.62,708.12 C247.32,708.12,247.07,707.87,247.07,707.55 C247.07,707.17,247.41,707.02,247.62,707.02 C247.82,707.02,248.17,707.18,248.17,707.55 Z " /><path
       id="path3253"
       fill="black"
       stroke-width="0"
       d="M250.38,710.4 L250.44,710.4 L250.49,710.4 L250.54,710.4 L250.59,710.4 L250.63,710.4 L250.68,710.4 L250.72,710.4 L250.76,710.4 L250.8,710.4 L250.84,710.4 L250.88,710.39 L250.91,710.39 L250.95,710.39 L250.98,710.39 L251.01,710.38 L251.04,710.38 L251.07,710.38 L251.1,710.38 L251.13,710.37 L251.15,710.37 L251.18,710.36 L251.21,710.36 L251.26,710.35 L251.3,710.34 L251.35,710.32 L251.39,710.31 L251.44,710.29 C252.06,710.08,252.44,709.51,252.44,708.82 C252.44,707.99,251.88,707.34,251.14,707.34 C250.87,707.34,250.67,707.41,250.3,707.65 C250.01,707.83,249.84,707.9,249.67,707.9 C249.44,707.9,249.29,707.76,249.29,707.55 C249.29,707.2,249.72,706.99,250.41,706.99 C251.18,706.99,251.97,707.24,252.43,707.65 C252.9,708.06,253.16,708.64,253.16,709.3 C253.16,709.81,253,710.27,252.71,710.58 C252.51,710.8,252.32,710.92,251.89,711.11 C252.57,711.58,252.82,711.94,252.82,712.48 C252.82,713.28,252.18,713.84,251.27,713.84 C250.77,713.84,250.33,713.67,249.98,713.35 C249.68,713.09,249.53,712.83,249.31,712.23 L249.46,712.19 C249.87,712.92,250.32,713.24,250.94,713.24 C251.59,713.24,252.04,712.81,252.04,712.18 C252.04,711.82,251.89,711.47,251.64,711.22 C251.34,710.92,251.06,710.77,250.38,710.53 Z " /><path
       id="path3255"
       fill="black"
       stroke-width="0"
       d="M259.62,708.21 L259.47,707.95 C259.3,707.64,259.17,707.53,259.03,707.53 C258.82,707.53,258.61,707.86,258.22,708.81 C258.17,708.94,258.02,709.3,257.85,709.69 C259.32,710.99,259.62,711.19,260.09,711.22 V711.38 H258.27 V711.22 H258.43 C258.68,711.22,258.82,711.15,258.82,711.04 C258.82,710.84,258.32,710.35,257.39,709.65 C257.26,709.54,257.14,709.44,256.97,709.32 L258.16,713.86 L258.11,713.91 C257.52,713.78,257.15,713.71,256.56,713.64 V713.48 C257.04,713.49,257.23,713.42,257.23,713.23 C257.21,713.07,257.15,712.8,257.02,712.34 C256.98,712.2,256.95,712.09,256.93,712.01 L256.91,711.92 L255.64,707.12 H256.39 L256.87,708.91 L257.29,709.23 C257.44,708.79,257.7,708.19,257.88,707.83 C258.2,707.2,258.38,707.02,258.67,707.02 C259.07,707.02,259.33,707.26,259.77,708.1 Z " /><path
       id="path3257"
       fill="black"
       stroke-width="0"
       d="M267.2,707.12 V708.65 H267.02 C267,708.14,266.71,708.03,266.26,708.03 H264.9 L264.95,708.36 C266.22,708.72,266.97,709.71,266.97,711.03 C266.97,712.83,265.52,713.85,263.83,713.85 C262.15,713.85,260.63,712.78,260.63,710.99 C260.63,709.78,261.43,708.59,262.67,708.36 L262.68,708.03 H261.36 C260.88,708.03,260.6,708.13,260.57,708.65 H260.39 V707.12 H263.11 L263.01,708.59 C261.99,708.96,261.77,709.99,261.77,710.97 C261.77,712.19,262.42,713.5,263.81,713.5 C265.24,713.5,265.86,712.14,265.86,710.9 C265.86,709.95,265.63,708.91,264.6,708.59 L264.48,707.12 Z " /></g>  <g
     id="g3859"
     transform="matrix(1.5,0,0,-1.5,196.08188,1860.432)"
     xml:space="preserve"
     stroke-miterlimit="10.433"
     font-style="normal"
     font-variant="normal"
     font-weight="normal"
     font-stretch="normal"
     font-size-adjust="none"
     letter-spacing="normal"
     word-spacing="normal"
     ns0:text="$+$"
     ns0:preamble="/home/sriranga/Desktop/MCT/package.tex"
     style="font-style:normal;font-variant:normal;font-weight:normal;font-stretch:normal;letter-spacing:normal;word-spacing:normal;text-anchor:start;fill:none;stroke:#000000;stroke-linecap:butt;stroke-linejoin:miter;stroke-miterlimit:10.43299961;stroke-opacity:1;stroke-dasharray:none;stroke-dashoffset:0"><polygon
       style="fill:#000000;stroke-width:0"
       points="229.14,709.96 226.87,709.96 226.87,712.2 226.32,712.2 226.32,709.96 224.05,709.96 224.05,709.4 226.32,709.4 226.32,707.12 226.87,707.12 226.87,709.4 229.14,709.4 "
       id="polygon3861" /></g>  <g
     style="font-style:normal;font-variant:normal;font-weight:normal;font-stretch:normal;letter-spacing:normal;word-spacing:normal;text-anchor:start;fill:none;stroke:#000000;stroke-linecap:butt;stroke-linejoin:miter;stroke-miterlimit:10.43299961;stroke-opacity:1;stroke-dasharray:none;stroke-dashoffset:0"
     ns0:preamble="/home/sriranga/Desktop/MCT/package.tex"
     ns0:text="$-$"
     word-spacing="normal"
     letter-spacing="normal"
     font-size-adjust="none"
     font-stretch="normal"
     font-weight="normal"
     font-variant="normal"
     font-style="normal"
     stroke-miterlimit="10.433"
     xml:space="preserve"
     transform="matrix(1.5,0,0,-1.5,196.08188,1898.1629)"
     id="g3969"><polygon
       id="polygon3971"
       points="229.14,709.4 229.14,709.96 224.05,709.96 224.05,709.4 "
       style="fill:#000000;stroke-width:0" /></g>  <g
     style="font-style:normal;font-variant:normal;font-weight:normal;font-stretch:normal;letter-spacing:normal;word-spacing:normal;text-anchor:start;fill:none;stroke:#000000;stroke-linecap:butt;stroke-linejoin:miter;stroke-miterlimit:10.43299961;stroke-opacity:1;stroke-dasharray:none;stroke-dashoffset:0"
     ns0:preamble="/home/sriranga/Desktop/MCT/package.tex"
     ns0:text="$+$"
     word-spacing="normal"
     letter-spacing="normal"
     font-size-adjust="none"
     font-stretch="normal"
     font-weight="normal"
     font-variant="normal"
     font-style="normal"
     stroke-miterlimit="10.433"
     xml:space="preserve"
     transform="matrix(1.5,0,0,-1.5,-36.903993,1860.432)"
     id="g3135"><polygon
       id="polygon3137"
       points="226.87,709.96 226.87,712.2 226.32,712.2 226.32,709.96 224.05,709.96 224.05,709.4 226.32,709.4 226.32,707.12 226.87,707.12 226.87,709.4 229.14,709.4 229.14,709.96 "
       style="fill:#000000;stroke-width:0" /></g>  <g
     id="g3139"
     transform="matrix(1.5,0,0,-1.5,-36.903993,1898.1629)"
     xml:space="preserve"
     stroke-miterlimit="10.433"
     font-style="normal"
     font-variant="normal"
     font-weight="normal"
     font-stretch="normal"
     font-size-adjust="none"
     letter-spacing="normal"
     word-spacing="normal"
     ns0:text="$-$"
     ns0:preamble="/home/sriranga/Desktop/MCT/package.tex"
     style="font-style:normal;font-variant:normal;font-weight:normal;font-stretch:normal;letter-spacing:normal;word-spacing:normal;text-anchor:start;fill:none;stroke:#000000;stroke-linecap:butt;stroke-linejoin:miter;stroke-miterlimit:10.43299961;stroke-opacity:1;stroke-dasharray:none;stroke-dashoffset:0"><polygon
       style="fill:#000000;stroke-width:0"
       points="229.14,709.96 224.05,709.96 224.05,709.4 229.14,709.4 "
       id="polygon3141" /></g></svg>
