<?xml version="1.0" encoding="UTF-8" standalone="no"?>
<!-- Created with Inkscape (http://www.inkscape.org/) -->

<svg
   xmlns:dc="http://purl.org/dc/elements/1.1/"
   xmlns:cc="http://creativecommons.org/ns#"
   xmlns:rdf="http://www.w3.org/1999/02/22-rdf-syntax-ns#"
   xmlns:svg="http://www.w3.org/2000/svg"
   xmlns="http://www.w3.org/2000/svg"
   xmlns:sodipodi="http://sodipodi.sourceforge.net/DTD/sodipodi-0.dtd"
   xmlns:inkscape="http://www.inkscape.org/namespaces/inkscape"
   id="svg2"
   version="1.1"
   inkscape:version="0.48.4 r9939"
   width="247.15"
   height="196"
   xml:space="preserve"
   sodipodi:docname="S3-EE-01-026.svg"><metadata
     id="metadata8"><rdf:RDF><cc:Work
         rdf:about=""><dc:format>image/svg+xml</dc:format><dc:type
           rdf:resource="http://purl.org/dc/dcmitype/StillImage" /><dc:title></dc:title></cc:Work></rdf:RDF></metadata><defs
     id="defs6"><marker
       inkscape:stockid="Arrow1Mstart"
       orient="auto"
       refY="0.0"
       refX="0.0"
       id="Arrow1Mstart"
       style="overflow:visible"><path
         id="path3821"
         d="M 0.0,0.0 L 5.0,-5.0 L -12.5,0.0 L 5.0,5.0 L 0.0,0.0 z "
         style="fill-rule:evenodd;stroke:#000000;stroke-width:1.0pt"
         transform="scale(0.4) translate(10,0)" /></marker></defs><sodipodi:namedview
     pagecolor="#ffffff"
     bordercolor="#666666"
     borderopacity="1"
     objecttolerance="10"
     gridtolerance="10"
     guidetolerance="10"
     inkscape:pageopacity="0"
     inkscape:pageshadow="2"
     inkscape:window-width="1366"
     inkscape:window-height="744"
     id="namedview4"
     showgrid="false"
     inkscape:zoom="2.2232869"
     inkscape:cx="104.35939"
     inkscape:cy="92.894683"
     inkscape:window-x="0"
     inkscape:window-y="24"
     inkscape:window-maximized="1"
     inkscape:current-layer="g10"><inkscape:grid
       type="xygrid"
       id="grid3159" /></sodipodi:namedview><g
     id="g10"
     inkscape:groupmode="layer"
     inkscape:label="ink_ext_XXXXXX"
     transform="matrix(1.25,0,0,-1.25,0,196)"><path
       inkscape:connector-curvature="0"
       id="path3166"
       style="font-size:8px;font-variant:normal;font-weight:normal;writing-mode:lr-tb;fill:#231f20;fill-opacity:1;fill-rule:nonzero;stroke:none;font-family:Times;-inkscape-font-specification:Times-Roman"
       d="m 15.782285,11.92284 c -0.439999,0 -0.776,-0.136 -1.072,-0.416 -0.463999,-0.447999 -0.768,-1.368001 -0.768,-2.3039999 0,-0.8719991 0.264001,-1.8080004 0.64,-2.256 0.296,-0.3519996 0.704001,-0.544 1.168,-0.544 0.408,0 0.752,0.1360003 1.04,0.416 0.464,0.4399996 0.768,1.368001 0.768,2.336 0,1.6399979 -0.728001,2.7679999 -1.776,2.7679999 m -0.024,-0.208 c 0.671999,0 1.032,-0.904002 1.032,-2.5759999 0,-1.6719983 -0.352001,-2.528 -1.04,-2.528 -0.687999,0 -1.04,0.8560017 -1.04,2.52 0,1.6959979 0.360001,2.5839999 1.048,2.5839999" /><path
       inkscape:connector-curvature="0"
       id="path3168"
       style="font-size:8px;font-variant:normal;font-weight:normal;writing-mode:lr-tb;fill:#231f20;fill-opacity:1;fill-rule:nonzero;stroke:none;font-family:Times;-inkscape-font-specification:Times-Roman"
       d="m 44.889685,8.7591698 c -0.439999,0 -0.776,-0.1360003 -1.072,-0.416 -0.463999,-0.4479995 -0.768,-1.3680009 -0.768,-2.304 0,-0.8719991 0.264,-1.8080004 0.64,-2.256 0.296,-0.3519996 0.704001,-0.544 1.168,-0.544 0.408,0 0.752,0.1360003 1.04,0.416 0.464,0.4399996 0.768,1.368001 0.768,2.336 0,1.6399984 -0.728001,2.768 -1.776,2.768 m -0.024,-0.208 c 0.671999,0 1.032,-0.9040016 1.032,-2.576 0,-1.6719983 -0.352001,-2.528 -1.04,-2.528 -0.687999,0 -1.04,0.8560017 -1.04,2.52 0,1.6959983 0.360001,2.584 1.048,2.584" /><path
       inkscape:connector-curvature="0"
       id="path3170"
       style="font-size:8px;font-variant:normal;font-weight:normal;writing-mode:lr-tb;fill:#231f20;fill-opacity:1;fill-rule:nonzero;stroke:none;font-family:Times;-inkscape-font-specification:Times-Roman"
       d="m 47.857685,4.1511698 c -0.24,0 -0.44,-0.2080002 -0.44,-0.456 0,-0.2319997 0.2,-0.432 0.432,-0.432 0.248,0 0.456,0.2000003 0.456,0.432 0,0.2479998 -0.208,0.456 -0.448,0.456" /><path
       inkscape:connector-curvature="0"
       id="path3172"
       style="font-size:8px;font-variant:normal;font-weight:normal;writing-mode:lr-tb;fill:#231f20;fill-opacity:1;fill-rule:nonzero;stroke:none;font-family:Times;-inkscape-font-specification:Times-Roman"
       d="m 52.449685,8.6471698 -2.96,0 -0.472,-1.176 0.136,-0.064 c 0.344,0.5439995 0.488001,0.648 0.928,0.648 l 1.736,0 -1.584,-4.768 0.52,0 1.696,5.232 0,0.128" /><path
       inkscape:connector-curvature="0"
       id="path3174"
       style="font-size:8px;font-variant:normal;font-weight:normal;writing-mode:lr-tb;fill:#231f20;fill-opacity:1;fill-rule:nonzero;stroke:none;font-family:Times;-inkscape-font-specification:Times-Roman"
       d="m 6.0872856,32.16907 1.568,0 c 0.1279998,0 0.16,0.016 0.184,0.072 l 0.304,0.712 -0.072,0.056 c -0.1199999,-0.168 -0.2000002,-0.208 -0.368,-0.208 l -1.672,0 -0.872,-1.896 c -0.008,-0.016 -0.008,-0.024 -0.008,-0.04 0,-0.04 0.032,-0.064 0.096,-0.064 0.2559997,0 0.5760003,-0.056 0.904,-0.16 0.919999,-0.296 1.344,-0.792001 1.344,-1.584 0,-0.767999 -0.4880007,-1.368 -1.112,-1.368 -0.1599999,0 -0.2960003,0.056 -0.536,0.232 -0.2559998,0.184 -0.4400002,0.264 -0.608,0.264 -0.2319998,0 -0.344,-0.096 -0.344,-0.296 0,-0.304 0.3760006,-0.496 0.976,-0.496 0.6719993,0 1.2480004,0.216 1.648,0.624 0.3679996,0.359999 0.536,0.816 0.536,1.424 0,0.575999 -0.1520004,0.944 -0.552,1.344 -0.3519997,0.351999 -0.808001,0.536 -1.752,0.704 l 0.336,0.68" /><path
       inkscape:connector-curvature="0"
       id="path3176"
       style="font-size:8px;font-variant:normal;font-weight:normal;writing-mode:lr-tb;fill:#231f20;fill-opacity:1;fill-rule:nonzero;stroke:none;font-family:Times;-inkscape-font-specification:Times-Roman"
       d="m 10.671285,32.91307 c -0.439999,0 -0.7760002,-0.136001 -1.0719999,-0.416 -0.4639995,-0.448 -0.768,-1.368001 -0.768,-2.304 0,-0.871999 0.2640004,-1.808001 0.64,-2.256 0.2959997,-0.352 0.7040009,-0.544 1.1679999,-0.544 0.408,0 0.752,0.136 1.04,0.416 0.464,0.439999 0.768,1.368001 0.768,2.336 0,1.639998 -0.728001,2.768 -1.776,2.768 m -0.024,-0.208 c 0.671999,0 1.032,-0.904002 1.032,-2.576 0,-1.671999 -0.352001,-2.528 -1.04,-2.528 -0.6879992,0 -1.0399999,0.856001 -1.0399999,2.52 0,1.695998 0.3600007,2.584 1.0479999,2.584" /><path
       inkscape:connector-curvature="0"
       id="path3178"
       style="font-size:8px;font-variant:normal;font-weight:normal;writing-mode:lr-tb;fill:#231f20;fill-opacity:1;fill-rule:nonzero;stroke:none;font-family:Times;-inkscape-font-specification:Times-Roman"
       d="m 4.4392853,120.28737 -0.104,0.04 c -0.2959997,-0.456 -0.4000003,-0.528 -0.76,-0.528 l -1.912,0 1.344,1.408 c 0.7119993,0.744 1.024,1.352 1.024,1.976 0,0.8 -0.6480008,1.416 -1.48,1.416 -0.4399995,0 -0.8560003,-0.176 -1.152,-0.496 -0.2559997,-0.272 -0.3760001,-0.528 -0.51199997,-1.096 l 0.16799997,-0.04 c 0.3199997,0.784 0.6080006,1.04 1.16,1.04 0.6719994,0 1.128,-0.456 1.128,-1.128 0,-0.624 -0.3680006,-1.368 -1.04,-2.08 l -1.42399997,-1.512 0,-0.096 3.11999997,0 0.44,1.096" /><path
       inkscape:connector-curvature="0"
       id="path3180"
       style="font-size:8px;font-variant:normal;font-weight:normal;writing-mode:lr-tb;fill:#231f20;fill-opacity:1;fill-rule:nonzero;stroke:none;font-family:Times;-inkscape-font-specification:Times-Roman"
       d="m 6.0872856,123.85537 1.568,0 c 0.1279998,0 0.16,0.016 0.184,0.072 l 0.304,0.712 -0.072,0.056 c -0.1199999,-0.168 -0.2000002,-0.208 -0.368,-0.208 l -1.672,0 -0.872,-1.896 c -0.008,-0.016 -0.008,-0.024 -0.008,-0.04 0,-0.04 0.032,-0.064 0.096,-0.064 0.2559997,0 0.5760003,-0.056 0.904,-0.16 0.919999,-0.296 1.344,-0.792 1.344,-1.584 0,-0.768 -0.4880007,-1.368 -1.112,-1.368 -0.1599999,0 -0.2960003,0.056 -0.536,0.232 -0.2559998,0.184 -0.4400002,0.264 -0.608,0.264 -0.2319998,0 -0.344,-0.096 -0.344,-0.296 0,-0.304 0.3760006,-0.496 0.976,-0.496 0.6719993,0 1.2480004,0.216 1.648,0.624 0.3679996,0.36 0.536,0.816 0.536,1.424 0,0.576 -0.1520004,0.944 -0.552,1.344 -0.3519997,0.352 -0.808001,0.536 -1.752,0.704 l 0.336,0.68" /><path
       inkscape:connector-curvature="0"
       id="path3182"
       style="font-size:8px;font-variant:normal;font-weight:normal;writing-mode:lr-tb;fill:#231f20;fill-opacity:1;fill-rule:nonzero;stroke:none;font-family:Times;-inkscape-font-specification:Times-Roman"
       d="m 10.671285,124.59937 c -0.439999,0 -0.7760002,-0.136 -1.0719999,-0.416 -0.4639995,-0.448 -0.768,-1.368 -0.768,-2.304 0,-0.872 0.2640004,-1.808 0.64,-2.256 0.2959997,-0.352 0.7040009,-0.544 1.1679999,-0.544 0.408,0 0.752,0.136 1.04,0.416 0.464,0.44 0.768,1.368 0.768,2.336 0,1.64 -0.728001,2.768 -1.776,2.768 m -0.024,-0.208 c 0.671999,0 1.032,-0.904 1.032,-2.576 0,-1.672 -0.352001,-2.528 -1.04,-2.528 -0.6879992,0 -1.0399999,0.856 -1.0399999,2.52 0,1.696 0.3600007,2.584 1.0479999,2.584" /><path
       inkscape:connector-curvature="0"
       id="path3184"
       style="font-size:8px;font-variant:normal;font-weight:normal;writing-mode:lr-tb;fill:#231f20;fill-opacity:1;fill-rule:nonzero;stroke:none;font-family:Times;-inkscape-font-specification:Times-Roman"
       d="m 4.4392853,97.36547 -0.104,0.04 c -0.2959997,-0.455999 -0.4000003,-0.528 -0.76,-0.528 l -1.912,0 1.344,1.408 c 0.7119993,0.743999 1.024,1.352001 1.024,1.976 0,0.8 -0.6480008,1.416 -1.48,1.416 -0.4399995,0 -0.8560003,-0.176 -1.152,-0.496 -0.2559997,-0.272 -0.3760001,-0.528 -0.51199997,-1.096 l 0.16799997,-0.04 c 0.3199997,0.784 0.6080006,1.04 1.16,1.04 0.6719994,0 1.128,-0.456 1.128,-1.128 0,-0.623999 -0.3680006,-1.368 -1.04,-2.08 l -1.42399997,-1.512 0,-0.096 3.11999997,0 0.44,1.096" /><path
       inkscape:connector-curvature="0"
       id="path3186"
       style="font-size:8px;font-variant:normal;font-weight:normal;writing-mode:lr-tb;fill:#231f20;fill-opacity:1;fill-rule:nonzero;stroke:none;font-family:Times;-inkscape-font-specification:Times-Roman"
       d="m 6.6712856,101.67747 c -0.4399996,0 -0.7760003,-0.136 -1.072,-0.416 -0.4639996,-0.448 -0.768,-1.368001 -0.768,-2.304 0,-0.871999 0.2640003,-1.808 0.64,-2.256 0.2959997,-0.351999 0.7040004,-0.544 1.168,-0.544 0.4079996,0 0.7520003,0.136 1.04,0.416 0.4639995,0.44 0.768,1.368001 0.768,2.336 0,1.64 -0.7280011,2.768 -1.776,2.768 m -0.024,-0.208 c 0.6719993,0 1.032,-0.904 1.032,-2.576 0,-1.671998 -0.3520007,-2.528 -1.04,-2.528 -0.6879993,0 -1.04,0.856002 -1.04,2.52 0,1.696 0.3600007,2.584 1.048,2.584" /><path
       inkscape:connector-curvature="0"
       id="path3188"
       style="font-size:8px;font-variant:normal;font-weight:normal;writing-mode:lr-tb;fill:#231f20;fill-opacity:1;fill-rule:nonzero;stroke:none;font-family:Times;-inkscape-font-specification:Times-Roman"
       d="m 10.671285,101.67747 c -0.439999,0 -0.7760002,-0.136 -1.0719999,-0.416 -0.4639995,-0.448 -0.768,-1.368001 -0.768,-2.304 0,-0.871999 0.2640004,-1.808 0.64,-2.256 0.2959997,-0.351999 0.7040009,-0.544 1.1679999,-0.544 0.408,0 0.752,0.136 1.04,0.416 0.464,0.44 0.768,1.368001 0.768,2.336 0,1.64 -0.728001,2.768 -1.776,2.768 m -0.024,-0.208 c 0.671999,0 1.032,-0.904 1.032,-2.576 0,-1.671998 -0.352001,-2.528 -1.04,-2.528 -0.6879992,0 -1.0399999,0.856002 -1.0399999,2.52 0,1.696 0.3600007,2.584 1.0479999,2.584" /><path
       inkscape:connector-curvature="0"
       id="path3190"
       style="font-size:8px;font-variant:normal;font-weight:normal;writing-mode:lr-tb;fill:#231f20;fill-opacity:1;fill-rule:nonzero;stroke:none;font-family:Times;-inkscape-font-specification:Times-Roman"
       d="m 2.9672853,78.75677 -1.44,-0.728 0,-0.112 c 0.096,0.04 0.1840001,0.072 0.216,0.088 0.1439999,0.056 0.2800001,0.088 0.36,0.088 0.1679999,0 0.24,-0.12 0.24,-0.376 l 0,-3.624 c 0,-0.264 -0.064,-0.448 -0.192,-0.52 -0.1199999,-0.072 -0.2320003,-0.096 -0.568,-0.104 l 0,-0.12 2.208,0 0,0.12 c -0.6319993,0.008 -0.76,0.088 -0.76,0.472 l 0,4.8 -0.064,0.016" /><path
       inkscape:connector-curvature="0"
       id="path3192"
       style="font-size:8px;font-variant:normal;font-weight:normal;writing-mode:lr-tb;fill:#231f20;fill-opacity:1;fill-rule:nonzero;stroke:none;font-family:Times;-inkscape-font-specification:Times-Roman"
       d="m 6.0872856,78.01277 1.568,0 c 0.1279998,0 0.16,0.016 0.184,0.072 l 0.304,0.712 -0.072,0.056 c -0.1199999,-0.168 -0.2000002,-0.208 -0.368,-0.208 l -1.672,0 -0.872,-1.896 c -0.008,-0.016 -0.008,-0.024 -0.008,-0.04 0,-0.04 0.032,-0.064 0.096,-0.064 0.2559997,0 0.5760003,-0.056 0.904,-0.16 0.919999,-0.296 1.344,-0.792001 1.344,-1.584 0,-0.767999 -0.4880007,-1.368 -1.112,-1.368 -0.1599999,0 -0.2960003,0.056 -0.536,0.232 -0.2559998,0.184 -0.4400002,0.264 -0.608,0.264 -0.2319998,0 -0.344,-0.096 -0.344,-0.296 0,-0.304 0.3760006,-0.496 0.976,-0.496 0.6719993,0 1.2480004,0.216001 1.648,0.624 0.3679996,0.36 0.536,0.816001 0.536,1.424 0,0.576 -0.1520004,0.944001 -0.552,1.344 -0.3519997,0.352 -0.808001,0.536 -1.752,0.704 l 0.336,0.68" /><path
       inkscape:connector-curvature="0"
       id="path3194"
       style="font-size:8px;font-variant:normal;font-weight:normal;writing-mode:lr-tb;fill:#231f20;fill-opacity:1;fill-rule:nonzero;stroke:none;font-family:Times;-inkscape-font-specification:Times-Roman"
       d="m 10.671285,78.75677 c -0.439999,0 -0.7760002,-0.136 -1.0719999,-0.416 -0.4639995,-0.447999 -0.768,-1.368001 -0.768,-2.304 0,-0.871999 0.2640004,-1.808 0.64,-2.256 0.2959997,-0.352 0.7040009,-0.544 1.1679999,-0.544 0.408,0 0.752,0.136 1.04,0.416 0.464,0.44 0.768,1.368001 0.768,2.336 0,1.639999 -0.728001,2.768 -1.776,2.768 m -0.024,-0.208 c 0.671999,0 1.032,-0.904002 1.032,-2.576 0,-1.671998 -0.352001,-2.528 -1.04,-2.528 -0.6879992,0 -1.0399999,0.856002 -1.0399999,2.52 0,1.695998 0.3600007,2.584 1.0479999,2.584" /><path
       inkscape:connector-curvature="0"
       id="path3196"
       style="font-size:8px;font-variant:normal;font-weight:normal;writing-mode:lr-tb;fill:#231f20;fill-opacity:1;fill-rule:nonzero;stroke:none;font-family:Times;-inkscape-font-specification:Times-Roman"
       d="m 2.9672853,55.834868 -1.44,-0.728 0,-0.112 c 0.096,0.04 0.1840001,0.072 0.216,0.088 0.1439999,0.056 0.2800001,0.088 0.36,0.088 0.1679999,0 0.24,-0.12 0.24,-0.376 l 0,-3.624 c 0,-0.263999 -0.064,-0.448 -0.192,-0.52 -0.1199999,-0.072 -0.2320003,-0.096 -0.568,-0.104 l 0,-0.12 2.208,0 0,0.12 c -0.6319993,0.008 -0.76,0.088 -0.76,0.472 l 0,4.8 -0.064,0.016" /><path
       inkscape:connector-curvature="0"
       id="path3198"
       style="font-size:8px;font-variant:normal;font-weight:normal;writing-mode:lr-tb;fill:#231f20;fill-opacity:1;fill-rule:nonzero;stroke:none;font-family:Times;-inkscape-font-specification:Times-Roman"
       d="m 6.6712856,55.834868 c -0.4399996,0 -0.7760003,-0.136 -1.072,-0.416 -0.4639996,-0.447999 -0.768,-1.368 -0.768,-2.304 0,-0.871999 0.2640003,-1.808 0.64,-2.256 0.2959997,-0.351999 0.7040004,-0.544 1.168,-0.544 0.4079996,0 0.7520003,0.136001 1.04,0.416 0.4639995,0.44 0.768,1.368001 0.768,2.336 0,1.639999 -0.7280011,2.768 -1.776,2.768 m -0.024,-0.208 c 0.6719993,0 1.032,-0.904001 1.032,-2.576 0,-1.671998 -0.3520007,-2.528 -1.04,-2.528 -0.6879993,0 -1.04,0.856002 -1.04,2.52 0,1.695999 0.3600007,2.584 1.048,2.584" /><path
       inkscape:connector-curvature="0"
       id="path3200"
       style="font-size:8px;font-variant:normal;font-weight:normal;writing-mode:lr-tb;fill:#231f20;fill-opacity:1;fill-rule:nonzero;stroke:none;font-family:Times;-inkscape-font-specification:Times-Roman"
       d="m 10.671285,55.834868 c -0.439999,0 -0.7760002,-0.136 -1.0719999,-0.416 -0.4639995,-0.447999 -0.768,-1.368 -0.768,-2.304 0,-0.871999 0.2640004,-1.808 0.64,-2.256 0.2959997,-0.351999 0.7040009,-0.544 1.1679999,-0.544 0.408,0 0.752,0.136001 1.04,0.416 0.464,0.44 0.768,1.368001 0.768,2.336 0,1.639999 -0.728001,2.768 -1.776,2.768 m -0.024,-0.208 c 0.671999,0 1.032,-0.904001 1.032,-2.576 0,-1.671998 -0.352001,-2.528 -1.04,-2.528 -0.6879992,0 -1.0399999,0.856002 -1.0399999,2.52 0,1.695999 0.3600007,2.584 1.0479999,2.584" /><path
       inkscape:connector-curvature="0"
       id="path3202"
       style="font-size:8px;font-variant:normal;font-weight:normal;writing-mode:lr-tb;fill:#231f20;fill-opacity:1;fill-rule:nonzero;stroke:none;font-family:Times;-inkscape-font-specification:Times-Roman"
       d="m 144.06928,8.7590699 c -0.44,0 -0.776,-0.1360003 -1.072,-0.416 -0.464,-0.4479995 -0.768,-1.3680009 -0.768,-2.304 0,-0.8719991 0.264,-1.8080004 0.64,-2.256 0.296,-0.3519996 0.704,-0.544 1.168,-0.544 0.408,0 0.752,0.1360003 1.04,0.416 0.464,0.4399996 0.768,1.368001 0.768,2.336 0,1.6399984 -0.728,2.768 -1.776,2.768 m -0.024,-0.208 c 0.672,0 1.032,-0.9040016 1.032,-2.576 0,-1.6719983 -0.352,-2.528 -1.04,-2.528 -0.688,0 -1.04,0.8560017 -1.04,2.52 0,1.6959983 0.36,2.584 1.048,2.584" /><path
       inkscape:connector-curvature="0"
       id="path3204"
       style="font-size:8px;font-variant:normal;font-weight:normal;writing-mode:lr-tb;fill:#231f20;fill-opacity:1;fill-rule:nonzero;stroke:none;font-family:Times;-inkscape-font-specification:Times-Roman"
       d="m 147.03728,4.1510699 c -0.24,0 -0.44,-0.2080002 -0.44,-0.456 0,-0.2319997 0.2,-0.432 0.432,-0.432 0.248,0 0.456,0.2000003 0.456,0.432 0,0.2479998 -0.208,0.456 -0.448,0.456" /><path
       inkscape:connector-curvature="0"
       id="path3206"
       style="font-size:8px;font-variant:normal;font-weight:normal;writing-mode:lr-tb;fill:#231f20;fill-opacity:1;fill-rule:nonzero;stroke:none;font-family:Times;-inkscape-font-specification:Times-Roman"
       d="m 150.35728,6.3190699 c 0.792,0.4239996 1.072,0.7600006 1.072,1.304 0,0.6559994 -0.576,1.136 -1.376,1.136 -0.872,0 -1.52,-0.5360007 -1.52,-1.264 0,-0.5199995 0.152,-0.7520007 0.992,-1.488 -0.864,-0.6559993 -1.04,-0.9040005 -1.04,-1.448 0,-0.7759992 0.632,-1.32 1.536,-1.32 0.96,0 1.576,0.5280009 1.576,1.352 0,0.6159994 -0.272,1.0080007 -1.24,1.728 m -0.144,-0.824 c 0.584,-0.4159996 0.776,-0.7040004 0.776,-1.152 0,-0.5199995 -0.36,-0.88 -0.88,-0.88 -0.608,0 -1.016,0.4640007 -1.016,1.16 0,0.5119995 0.176,0.8480004 0.64,1.224 l 0.48,-0.352 m -0.088,0.968 c -0.712,0.4639996 -1,0.8320005 -1,1.28 0,0.4639996 0.36,0.792 0.864,0.792 0.544,0 0.888,-0.3520005 0.888,-0.904 0,-0.4559995 -0.224,-0.8160003 -0.68,-1.12 -0.04,-0.024 -0.04,-0.024 -0.072,-0.048" /><path
       inkscape:connector-curvature="0"
       id="path3208"
       style="font-size:8px;font-variant:normal;font-weight:normal;writing-mode:lr-tb;fill:#231f20;fill-opacity:1;fill-rule:nonzero;stroke:none;font-family:Times;-inkscape-font-specification:Times-Roman"
       d="m 97.027809,100.18873 -1.752,0 0,-0.152 c 0.416,-0.008 0.552,-0.07201 0.552,-0.264005 0,-0.08 -0.04,-0.176 -0.112,-0.296 l -1.144,-1.808 -1.184,1.776 c -0.088,0.128 -0.136,0.264 -0.136,0.352 0,0.144 0.112,0.216005 0.368,0.232005 0.032,0 0.112,0 0.2,0.008 l 0,0.152 -2.24,0 0,-0.152 c 0.384,-0.016 0.496001,-0.128005 1.296,-1.256005 l 1.048,-1.536 0,-1.391999 c 0,-0.695999 -0.08,-0.776 -0.808,-0.808 l 0,-0.152 2.448,0 0,0.152 c -0.711999,0.016 -0.824,0.112001 -0.824,0.72 l 0,1.551999 1.184,1.808 c 0.488,0.704 0.696001,0.880005 1.104,0.912005 l 0,0.152" /><path
       inkscape:connector-curvature="0"
       id="path3210"
       style="font-size:8px;font-variant:normal;font-weight:normal;writing-mode:lr-tb;fill:#231f20;fill-opacity:1;fill-rule:nonzero;stroke:none;font-family:Times;-inkscape-font-specification:Times-Roman"
       d="m 58.006385,22.613869 -1.904,0 0,-0.152 c 0.432,-0.016 0.56,-0.072 0.56,-0.256 0,-0.12 -0.088,-0.264001 -0.32,-0.552 l -0.904,-1.104 -0.336,0.472 c -0.488,0.679999 -0.68,1.024 -0.68,1.2 0,0.16 0.12,0.224 0.384,0.232 l 0.224,0.008 0,0.152 -2.416,0 0,-0.152 c 0.519999,-0.024 0.664001,-0.144001 1.448,-1.256 l 0.872,-1.28 -1.256,-1.544 c -0.711999,-0.847999 -0.752,-0.88 -1.16,-0.912 l 0,-0.152 1.864,0 0,0.152 c -0.464,0.032 -0.608,0.096 -0.608,0.28 0,0.12 0.12,0.32 0.416,0.688 l 0.952,1.184 0.76,-1.12 c 0.264,-0.392 0.408,-0.664 0.408,-0.784 0,-0.144 -0.128,-0.224 -0.4,-0.232 -0.032,0 -0.12,-0.008 -0.216,-0.016 l 0,-0.152 2.376,0 0,0.152 c -0.424,0.048 -0.544,0.128 -0.888,0.592 l -1.536,2.192 1.168,1.456 c 0.519999,0.623999 0.680001,0.72 1.192,0.752 l 0,0.152" /><text
       transform="scale(1,-1)"
       id="text38"
       x="6.9861002"
       y="-146.49062"><tspan
         style="font-size:8px;font-style:italic;font-variant:normal;writing-mode:lr-tb;fill:#231f20;fill-opacity:1;fill-rule:nonzero;stroke:none;font-family:Times;-inkscape-font-specification:Times-Italic"
         x="6.9861002"
         y="-146.49062"
         id="tspan40">I</tspan></text>
<text
       transform="scale(1,-1)"
       id="text42"
       x="9.6501598"
       y="-144.49062"><tspan
         style="font-size:6px;font-style:italic;font-variant:normal;writing-mode:lr-tb;fill:#231f20;fill-opacity:1;fill-rule:nonzero;stroke:none;font-family:Times;-inkscape-font-specification:Times-Italic"
         x="9.6501598"
         y="-144.49062"
         id="tspan44">F</tspan></text>
<text
       transform="scale(1,-1)"
       id="text46"
       x="15.31618"
       y="-146.49062"><tspan
         style="font-size:8px;font-variant:normal;font-weight:normal;writing-mode:lr-tb;fill:#231f20;fill-opacity:1;fill-rule:nonzero;stroke:none;font-family:Times;-inkscape-font-specification:Times-Roman"
         x="15.31618 17.980181 24.20418 29.980179"
         y="-146.49062"
         sodipodi:role="line"
         id="tspan48">(mA)</tspan></text>
<text
       transform="scale(1,-1)"
       id="text50"
       x="171.46725"
       y="-13.73887"><tspan
         style="font-size:8px;font-style:italic;font-variant:normal;writing-mode:lr-tb;fill:#231f20;fill-opacity:1;fill-rule:nonzero;stroke:none;font-family:Times;-inkscape-font-specification:Times-Italic"
         x="171.46725"
         y="-13.73887"
         id="tspan52">V</tspan></text>
<text
       transform="scale(1,-1)"
       id="text54"
       x="176.35399"
       y="-11.73887"><tspan
         style="font-size:6px;font-style:italic;font-variant:normal;writing-mode:lr-tb;fill:#231f20;fill-opacity:1;fill-rule:nonzero;stroke:none;font-family:Times;-inkscape-font-specification:Times-Italic"
         x="176.35399"
         y="-11.73887"
         id="tspan56">F</tspan></text>
<path
       inkscape:connector-curvature="0"
       id="path4256"
       style="font-size:8px;font-variant:normal;font-weight:normal;writing-mode:lr-tb;fill:#231f20;fill-opacity:1;fill-rule:nonzero;stroke:none;font-family:Times;-inkscape-font-specification:Times-Roman"
       d="m 184.38,19.146865 c -0.592,-0.384 -0.832,-0.592 -1.128,-0.96 -0.568,-0.695999 -0.848,-1.496001 -0.848,-2.432 0,-1.015999 0.296,-1.800001 1,-2.616 0.328,-0.384 0.536,-0.56 0.952,-0.816 l 0.096,0.128 c -0.64,0.503999 -0.864,0.784 -1.08,1.384 -0.192,0.535999 -0.28,1.144001 -0.28,1.944 0,0.839999 0.104,1.496 0.32,1.992 0.224,0.495999 0.464,0.784 1.04,1.248 l -0.072,0.128" /><path
       inkscape:connector-curvature="0"
       id="path4258"
       style="font-size:8px;font-variant:normal;font-weight:normal;writing-mode:lr-tb;fill:#231f20;fill-opacity:1;fill-rule:nonzero;stroke:none;font-family:Times;-inkscape-font-specification:Times-Roman"
       d="m 190.26,19.034865 -1.64,0 0,-0.152 c 0.44,-0.024 0.584,-0.112 0.584,-0.336 0,-0.128 -0.056,-0.344 -0.152,-0.584 l -1.176,-2.936 -1.208,2.704 c -0.264,0.583999 -0.328,0.768 -0.328,0.888 0,0.152 0.112,0.232 0.368,0.248 0.032,0 0.12,0.008 0.232,0.016 l 0,0.152 -2.128,0 0,-0.152 c 0.392,-0.016 0.50401,-0.128001 0.848,-0.84 l 1.968,-4.392 0.12,0 1.776,4.488 c 0.264,0.631999 0.35201,0.72 0.736,0.744 l 0,0.152" /><path
       inkscape:connector-curvature="0"
       id="path4260"
       style="font-size:8px;font-variant:normal;font-weight:normal;writing-mode:lr-tb;fill:#231f20;fill-opacity:1;fill-rule:nonzero;stroke:none;font-family:Times;-inkscape-font-specification:Times-Roman"
       d="m 190.76495,12.322865 c 0.592,0.384 0.832,0.592 1.128,0.96 0.568,0.695999 0.848,1.496001 0.848,2.432 0,1.023999 -0.296,1.800001 -1,2.616 -0.328,0.384 -0.536,0.56 -0.952,0.816 l -0.096,-0.128 c 0.64,-0.504 0.856,-0.784001 1.08,-1.384 0.192,-0.536 0.28,-1.144001 0.28,-1.944 0,-0.831999 -0.104,-1.496001 -0.32,-1.984 -0.224,-0.504 -0.464,-0.792001 -1.04,-1.256 l 0.072,-0.128" /><path
       inkscape:connector-curvature="0"
       id="path4262"
       style="font-size:8px;font-variant:normal;font-weight:normal;writing-mode:lr-tb;fill:#231f20;fill-opacity:1;fill-rule:nonzero;stroke:none;font-family:Times;-inkscape-font-specification:Times-Roman"
       d="m 32.765926,12.056849 c 0.591999,0.384 0.832,0.592 1.128,0.96 0.567999,0.695999 0.848,1.496001 0.848,2.432 0,1.023999 -0.296001,1.800001 -1,2.616 -0.328,0.384 -0.536001,0.56 -0.952,0.816 l -0.096,-0.128 c 0.639999,-0.504 0.856,-0.784001 1.08,-1.384 0.191999,-0.536 0.28,-1.144001 0.28,-1.944 0,-0.831999 -0.104001,-1.496001 -0.32,-1.984 -0.224,-0.504 -0.464001,-0.792001 -1.04,-1.256 l 0.072,-0.128" /><path
       inkscape:connector-curvature="0"
       id="path4264"
       style="font-size:8px;font-variant:normal;font-weight:normal;writing-mode:lr-tb;fill:#231f20;fill-opacity:1;fill-rule:nonzero;stroke:none;font-family:Times;-inkscape-font-specification:Times-Roman"
       d="m 39.485927,18.880849 c -0.591999,-0.384 -0.832,-0.592 -1.128,-0.96 -0.567999,-0.695999 -0.848,-1.496001 -0.848,-2.432 0,-1.015999 0.296001,-1.800001 1,-2.616 0.328,-0.384 0.536,-0.56 0.952,-0.816 l 0.096,0.128 c -0.639999,0.503999 -0.864,0.784 -1.08,1.384 -0.192,0.535999 -0.28,1.144001 -0.28,1.944 0,0.839999 0.104,1.496 0.32,1.992 0.224,0.495999 0.464001,0.784 1.04,1.248 l -0.072,0.128" /><path
       inkscape:connector-curvature="0"
       id="path68"
       style="fill:#ed1c24;fill-opacity:1;fill-rule:nonzero;stroke:none"
       d="M 19.6648,139.574 19.6648,0" /><path
       inkscape:connector-curvature="0"
       id="path70"
       style="fill:none;stroke:#231f20;stroke-width:0.80000001;stroke-linecap:butt;stroke-linejoin:miter;stroke-miterlimit:4;stroke-opacity:1;stroke-dasharray:none;marker-start:url(#Arrow1Mstart)"
       d="m 19.6648,142.43941 0,-141.44727832" /><path
       inkscape:connector-curvature="0"
       id="path74"
       style="fill:#ed1c24;fill-opacity:1;fill-rule:nonzero;stroke:none"
       d="M 34.3164,15.7359 0,15.7359" /><path
       inkscape:connector-curvature="0"
       id="path76"
       style="fill:none;stroke:#231f20;stroke-width:0.80000001;stroke-linecap:butt;stroke-linejoin:miter;stroke-miterlimit:4;stroke-opacity:1;stroke-dasharray:none"
       d="m 34.332838,15.7359 -32.9061753,0" /><path
       inkscape:connector-curvature="0"
       id="path78"
       style="fill:#ed1c24;fill-opacity:1;fill-rule:nonzero;stroke:none"
       d="m 168.163,15.7359 -130.3942,0" /><path
       inkscape:connector-curvature="0"
       id="path80"
       style="fill:none;stroke:#231f20;stroke-width:0.8;stroke-linecap:butt;stroke-linejoin:miter;stroke-miterlimit:4;stroke-opacity:1;stroke-dasharray:none;marker-start:url(#Arrow1Mstart)"
       d="m 168.163,15.7359 -130.3942,0" /><path
       inkscape:connector-curvature="0"
       id="path84"
       style="fill:none;stroke:#231f20;stroke-width:0.5;stroke-linecap:butt;stroke-linejoin:miter;stroke-miterlimit:4;stroke-opacity:1;stroke-dasharray:none"
       d="m 47.3242,15.915458 0,-4" /><path
       inkscape:connector-curvature="0"
       id="path86"
       style="fill:none;stroke:#231f20;stroke-width:0.5;stroke-linecap:butt;stroke-linejoin:miter;stroke-miterlimit:4;stroke-opacity:1;stroke-dasharray:none"
       d="m 126.587,15.915458 0,-4" /><path
       inkscape:connector-curvature="0"
       id="path88"
       style="fill:none;stroke:#231f20;stroke-width:0.5;stroke-linecap:butt;stroke-linejoin:miter;stroke-miterlimit:4;stroke-opacity:1;stroke-dasharray:none"
       d="m 106.771,15.915458 0,-4" /><path
       inkscape:connector-curvature="0"
       id="path90"
       style="fill:none;stroke:#231f20;stroke-width:0.5;stroke-linecap:butt;stroke-linejoin:miter;stroke-miterlimit:4;stroke-opacity:1;stroke-dasharray:none"
       d="m 86.9555,15.915458 0,-4" /><path
       inkscape:connector-curvature="0"
       id="path92"
       style="fill:none;stroke:#231f20;stroke-width:0.5;stroke-linecap:butt;stroke-linejoin:miter;stroke-miterlimit:4;stroke-opacity:1;stroke-dasharray:none"
       d="m 67.1395,15.915458 0,-4" /><path
       inkscape:connector-curvature="0"
       id="path94"
       style="fill:none;stroke:#231f20;stroke-width:0.5;stroke-linecap:butt;stroke-linejoin:miter;stroke-miterlimit:4;stroke-opacity:1;stroke-dasharray:none"
       d="m 19.9188,29.9359 -4,0" /><path
       inkscape:connector-curvature="0"
       id="path96"
       style="fill:none;stroke:#231f20;stroke-width:0.5;stroke-linecap:butt;stroke-linejoin:miter;stroke-miterlimit:4;stroke-opacity:1;stroke-dasharray:none"
       d="m 19.9188,52.8672 -4,0" /><path
       inkscape:connector-curvature="0"
       id="path98"
       style="fill:none;stroke:#231f20;stroke-width:0.5;stroke-linecap:butt;stroke-linejoin:miter;stroke-miterlimit:4;stroke-opacity:1;stroke-dasharray:none"
       d="m 19.9188,75.8 -4,0" /><path
       inkscape:connector-curvature="0"
       id="path100"
       style="fill:none;stroke:#231f20;stroke-width:0.5;stroke-linecap:butt;stroke-linejoin:miter;stroke-miterlimit:4;stroke-opacity:1;stroke-dasharray:none"
       d="m 19.9188,98.7305 -4,0" /><path
       inkscape:connector-curvature="0"
       id="path102"
       style="fill:none;stroke:#231f20;stroke-width:0.5;stroke-linecap:butt;stroke-linejoin:miter;stroke-miterlimit:4;stroke-opacity:1;stroke-dasharray:none"
       d="m 19.9188,121.663 -4,0" /><path
       inkscape:connector-curvature="0"
       id="path104"
       style="fill:none;stroke:#231f20;stroke-width:0.5;stroke-linecap:butt;stroke-linejoin:miter;stroke-miterlimit:4;stroke-opacity:1;stroke-dasharray:none"
       d="m 146.402,15.915458 0,-4" /><path
       inkscape:connector-curvature="0"
       id="path106"
       style="fill:none;stroke:#231f20;stroke-width:1.2;stroke-linecap:butt;stroke-linejoin:miter;stroke-miterlimit:4;stroke-opacity:1;stroke-dasharray:none"
       d="m 34.648,15.87452 -14.9832,0" /><path
       inkscape:connector-curvature="0"
       id="path108"
       style="fill:none;stroke:#231f20;stroke-width:1.2;stroke-linecap:butt;stroke-linejoin:miter;stroke-miterlimit:4;stroke-opacity:1;stroke-dasharray:none"
       d="m 88.5655,101.98685 -41.2413,-86.135561 -9.5554,0"
       sodipodi:nodetypes="ccc" /><path
       d="m 86.982158,98.62351 0,-83.232041"
       style="fill:none;stroke:#231f20;stroke-width:0.5;stroke-linecap:butt;stroke-linejoin:miter;stroke-miterlimit:4;stroke-opacity:1;stroke-dasharray:1.5,1.5;stroke-dashoffset:0"
       id="path3157"
       inkscape:connector-curvature="0" /><path
       sodipodi:nodetypes="cc"
       d="m 84.854746,96.877588 4.290911,3.283612"
       style="fill:none;stroke:#231f20;stroke-width:0.5;stroke-linecap:butt;stroke-linejoin:miter;stroke-miterlimit:4;stroke-opacity:1;stroke-dasharray:none"
       id="path3161"
       inkscape:connector-curvature="0" /><path
       inkscape:connector-curvature="0"
       id="path3163"
       style="fill:none;stroke:#231f20;stroke-width:0.5;stroke-linecap:butt;stroke-linejoin:miter;stroke-miterlimit:4;stroke-opacity:1;stroke-dasharray:none"
       d="m 88.64201,96.373943 -3.283617,4.290907"
       sodipodi:nodetypes="cc" /></g></svg>