<?xml version="1.0" encoding="UTF-8" standalone="no"?>
<!-- Created with Inkscape (http://www.inkscape.org/) -->

<svg
   xmlns:dc="http://purl.org/dc/elements/1.1/"
   xmlns:cc="http://creativecommons.org/ns#"
   xmlns:rdf="http://www.w3.org/1999/02/22-rdf-syntax-ns#"
   xmlns:svg="http://www.w3.org/2000/svg"
   xmlns="http://www.w3.org/2000/svg"
   xmlns:sodipodi="http://sodipodi.sourceforge.net/DTD/sodipodi-0.dtd"
   xmlns:inkscape="http://www.inkscape.org/namespaces/inkscape"
   id="svg2"
   version="1.1"
   inkscape:version="0.48.4 r9939"
   width="393.29999"
   height="356.72501"
   xml:space="preserve"
   sodipodi:docname="S3-EE-06-IN001.eps"><metadata
     id="metadata8"><rdf:RDF><cc:Work
         rdf:about=""><dc:format>image/svg+xml</dc:format><dc:type
           rdf:resource="http://purl.org/dc/dcmitype/StillImage" /><dc:title></dc:title></cc:Work></rdf:RDF></metadata><defs
     id="defs6" /><sodipodi:namedview
     pagecolor="#ffffff"
     bordercolor="#666666"
     borderopacity="1"
     objecttolerance="10"
     gridtolerance="10"
     guidetolerance="10"
     inkscape:pageopacity="0"
     inkscape:pageshadow="2"
     inkscape:window-width="1366"
     inkscape:window-height="744"
     id="namedview4"
     showgrid="false"
     units="cm"
     inkscape:zoom="1.6884242"
     inkscape:cx="187.19829"
     inkscape:cy="178.58532"
     inkscape:window-x="0"
     inkscape:window-y="24"
     inkscape:window-maximized="1"
     inkscape:current-layer="g10" /><g
     id="g10"
     inkscape:groupmode="layer"
     inkscape:label="ink_ext_XXXXXX"
     transform="matrix(1.25,0,0,-1.25,0,356.7247)"><path
       inkscape:connector-curvature="0"
       id="path3074"
       style="font-size:8px;font-variant:normal;font-weight:normal;writing-mode:lr-tb;fill:#231f20;fill-opacity:1;fill-rule:nonzero;stroke:none;font-family:Symbol;-inkscape-font-specification:Symbol"
       d="m 294.74844,223.44 c 0.296,-0.08 0.472,-0.176 0.648,-0.336 0.344,-0.32 0.552,-0.952 0.552,-1.656 0,-0.512 -0.096,-1.016 -0.248,-1.304 -0.096,-0.184 -0.296,-0.304 -0.504,-0.304 -0.4,0 -0.664,0.328 -0.776,0.976 0.192,0.536 0.24,0.792 0.24,1.184 0,0.552 -0.16,0.888 -0.432,0.888 -0.272,0 -0.432,-0.336 -0.432,-0.888 0,-0.392 0.048,-0.648 0.24,-1.184 -0.112,-0.64 -0.376,-0.976 -0.776,-0.976 -0.208,0 -0.408,0.12 -0.504,0.304 -0.152,0.288 -0.248,0.784 -0.248,1.304 0,0.648 0.184,1.256 0.48,1.584 0.184,0.2 0.384,0.312 0.72,0.408 l 0,0.208 c -0.432,-0.008 -0.712,-0.056 -0.96,-0.16 -0.664,-0.288 -1.088,-1.104 -1.088,-2.096 0,-1.104 0.624,-1.952 1.44,-1.952 0.48,0 0.856,0.264 1.128,0.808 0.272,-0.544 0.648,-0.808 1.128,-0.808 0.816,0 1.44,0.848 1.44,1.952 0,0.944 -0.392,1.736 -1.008,2.056 -0.256,0.136 -0.56,0.192 -1.04,0.2 l 0,-0.208" /><path
       inkscape:connector-curvature="0"
       id="path3077"
       style="font-size:8px;font-variant:normal;font-weight:normal;writing-mode:lr-tb;fill:#231f20;fill-opacity:1;fill-rule:nonzero;stroke:none;font-family:Times;-inkscape-font-specification:Times-Roman"
       d="m 298.85311,223.144 -0.808,0 0,0.928 c 0,0.08 -0.008,0.104 -0.056,0.104 -0.056,-0.072 -0.104,-0.144 -0.16,-0.224 -0.304,-0.44 -0.648,-0.824 -0.776,-0.856 -0.088,-0.056 -0.136,-0.112 -0.136,-0.152 0,-0.024 0.008,-0.04 0.032,-0.056 l 0.424,0 0,-2.408 c 0,-0.672 0.24,-1.016 0.712,-1.016 0.392,0 0.696,0.192 0.96,0.608 l -0.104,0.088 c -0.168,-0.2 -0.304,-0.28 -0.48,-0.28 -0.296,0 -0.416,0.216 -0.416,0.72 l 0,2.288 0.808,0 0,0.256" /><path
       inkscape:connector-curvature="0"
       id="path3080"
       style="font-size:8px;font-variant:normal;font-weight:normal;writing-mode:lr-tb;fill:#231f20;fill-opacity:1;fill-rule:nonzero;stroke:none;font-family:Symbol;-inkscape-font-specification:Symbol"
       d="m 294.74844,75.733 c 0.296,-0.08 0.472,-0.176 0.648,-0.336 0.344,-0.32 0.552,-0.952001 0.552,-1.656 0,-0.512 -0.096,-1.016 -0.248,-1.304 -0.096,-0.184 -0.296,-0.304 -0.504,-0.304 -0.4,0 -0.664,0.328001 -0.776,0.976 0.192,0.535999 0.24,0.792 0.24,1.184 0,0.551999 -0.16,0.888 -0.432,0.888 -0.272,0 -0.432,-0.336001 -0.432,-0.888 0,-0.392 0.048,-0.648001 0.24,-1.184 -0.112,-0.639999 -0.376,-0.976 -0.776,-0.976 -0.208,0 -0.408,0.12 -0.504,0.304 -0.152,0.288 -0.248,0.784001 -0.248,1.304 0,0.647999 0.184,1.256 0.48,1.584 0.184,0.2 0.384,0.312 0.72,0.408 l 0,0.208 c -0.432,-0.008 -0.712,-0.056 -0.96,-0.16 -0.664,-0.288 -1.088,-1.104001 -1.088,-2.096 0,-1.103999 0.624,-1.952 1.44,-1.952 0.48,0 0.856,0.264001 1.128,0.808 0.272,-0.543999 0.648,-0.808 1.128,-0.808 0.816,0 1.44,0.848001 1.44,1.952 0,0.943999 -0.392,1.736 -1.008,2.056 -0.256,0.136 -0.56,0.192 -1.04,0.2 l 0,-0.208" /><path
       inkscape:connector-curvature="0"
       id="path3083"
       style="font-size:8px;font-variant:normal;font-weight:normal;writing-mode:lr-tb;fill:#231f20;fill-opacity:1;fill-rule:nonzero;stroke:none;font-family:Times;-inkscape-font-specification:Times-Roman"
       d="m 298.85311,75.437 -0.808,0 0,0.928 c 0,0.08 -0.008,0.104 -0.056,0.104 -0.056,-0.072 -0.104,-0.144 -0.16,-0.224 -0.304,-0.44 -0.648,-0.824 -0.776,-0.856 -0.088,-0.056 -0.136,-0.112 -0.136,-0.152 0,-0.024 0.008,-0.04 0.032,-0.056 l 0.424,0 0,-2.408 c 0,-0.671999 0.24,-1.016 0.712,-1.016 0.392,0 0.696,0.192 0.96,0.608 l -0.104,0.088 c -0.168,-0.2 -0.304,-0.28 -0.48,-0.28 -0.296,0 -0.416,0.216001 -0.416,0.72 l 0,2.288 0.808,0 0,0.256" /><path
       inkscape:connector-curvature="0"
       id="path3085"
       style="font-size:8px;font-variant:normal;font-weight:normal;writing-mode:lr-tb;fill:#231f20;fill-opacity:1;fill-rule:nonzero;stroke:none;font-family:Times;-inkscape-font-specification:Times-Roman"
       d="m 34.321668,224.418 c -0.44,0 -0.776,-0.136 -1.072,-0.416 -0.464,-0.448 -0.768,-1.368 -0.768,-2.304 0,-0.87199 0.264,-1.808 0.64,-2.256 0.296,-0.352 0.704,-0.544 1.168,-0.544 0.408,0 0.752,0.136 1.04,0.416 0.464,0.44 0.768,1.36801 0.768,2.336 0,1.64 -0.728,2.768 -1.776,2.768 m -0.024,-0.208 c 0.672,0 1.032,-0.904 1.032,-2.576 0,-1.67199 -0.352,-2.528 -1.04,-2.528 -0.688,0 -1.04,0.85601 -1.04,2.52 0,1.696 0.36,2.584 1.048,2.584" /><path
       inkscape:connector-curvature="0"
       id="path3087"
       style="font-size:8px;font-variant:normal;font-weight:normal;writing-mode:lr-tb;fill:#231f20;fill-opacity:1;fill-rule:nonzero;stroke:none;font-family:Times;-inkscape-font-specification:Times-Roman"
       d="m 33.967291,75.301749 c -0.44,0 -0.776,-0.136 -1.072,-0.416 -0.464,-0.448 -0.768,-1.368001 -0.768,-2.304 0,-0.871999 0.264,-1.808 0.64,-2.256 0.296,-0.352 0.704,-0.544 1.168,-0.544 0.408,0 0.752,0.136 1.04,0.416 0.464,0.44 0.768,1.368001 0.768,2.336 0,1.639998 -0.728,2.768 -1.776,2.768 m -0.024,-0.208 c 0.672,0 1.032,-0.904002 1.032,-2.576 0,-1.671998 -0.352,-2.528 -1.04,-2.528 -0.688,0 -1.04,0.856002 -1.04,2.52 0,1.695998 0.36,2.584 1.048,2.584" /><path
       inkscape:connector-curvature="0"
       id="path3089"
       style="font-size:8px;font-variant:normal;font-weight:normal;writing-mode:lr-tb;fill:#231f20;fill-opacity:1;fill-rule:nonzero;stroke:none;font-family:Times;-inkscape-font-specification:Times-Roman"
       d="m 10.32766,263.351 -1.44,-0.728 0,-0.112 c 0.096,0.04 0.184,0.072 0.216,0.088 0.144,0.056 0.28,0.088 0.36,0.088 0.168,0 0.24,-0.12 0.24,-0.376 l 0,-3.624 c 0,-0.264 -0.064,-0.448 -0.192,-0.52 -0.12,-0.072 -0.232,-0.096 -0.568,-0.104 l 0,-0.12 2.208,0 0,0.12 c -0.632,0.008 -0.76,0.088 -0.76,0.472 l 0,4.8 -0.064,0.016" /><path
       inkscape:connector-curvature="0"
       id="path3091"
       style="font-size:8px;font-variant:normal;font-weight:normal;writing-mode:lr-tb;fill:#231f20;fill-opacity:1;fill-rule:nonzero;stroke:none;font-family:Times;-inkscape-font-specification:Times-Roman"
       d="m 14.03166,263.351 c -0.44,0 -0.776,-0.136 -1.072,-0.416 -0.464,-0.448 -0.768,-1.368 -0.768,-2.304 0,-0.872 0.264,-1.808 0.64,-2.256 0.296,-0.352 0.704,-0.544 1.168,-0.544 0.408,0 0.752,0.136 1.04,0.416 0.464,0.44 0.768,1.368 0.768,2.336 0,1.64 -0.728,2.768 -1.776,2.768 m -0.024,-0.208 c 0.672,0 1.032,-0.904 1.032,-2.576 0,-1.672 -0.352,-2.528 -1.04,-2.528 -0.688,0 -1.04,0.856 -1.04,2.52 0,1.696 0.36,2.584 1.048,2.584" /><path
       inkscape:connector-curvature="0"
       id="path3093"
       style="font-size:8px;font-variant:normal;font-weight:normal;writing-mode:lr-tb;fill:#231f20;fill-opacity:1;fill-rule:nonzero;stroke:none;font-family:Times;-inkscape-font-specification:Times-Roman"
       d="m 18.03166,263.351 c -0.44,0 -0.776,-0.136 -1.072,-0.416 -0.464,-0.448 -0.768,-1.368 -0.768,-2.304 0,-0.872 0.264,-1.808 0.64,-2.256 0.296,-0.352 0.704,-0.544 1.168,-0.544 0.408,0 0.752,0.136 1.04,0.416 0.464,0.44 0.768,1.368 0.768,2.336 0,1.64 -0.728,2.768 -1.776,2.768 m -0.024,-0.208 c 0.672,0 1.032,-0.904 1.032,-2.576 0,-1.672 -0.352,-2.528 -1.04,-2.528 -0.688,0 -1.04,0.856 -1.04,2.52 0,1.696 0.36,2.584 1.048,2.584" /><path
       inkscape:connector-curvature="0"
       id="path3095"
       style="font-size:8px;font-variant:normal;font-weight:normal;writing-mode:lr-tb;fill:#231f20;fill-opacity:1;fill-rule:nonzero;stroke:none;font-family:Times;-inkscape-font-specification:Times-Roman"
       d="m 22.15166,261.127 c 0.104,0.024 0.168,0.032 0.256,0.032 0.208,0 0.28,-0.128 0.28,-0.512 l 0,-2.024 c 0,-0.432 -0.112,-0.552 -0.56,-0.56 l 0,-0.12 1.776,0 0,0.12 c -0.424,0.016 -0.544,0.104 -0.544,0.416 l 0,2.256 c 0,0.016 0.064,0.096 0.12,0.152 0.2,0.184 0.544,0.32 0.824,0.32 0.352,0 0.528,-0.28 0.528,-0.84 l 0,-1.736 c 0,-0.448 -0.088,-0.536 -0.544,-0.568 l 0,-0.12 1.792,0 0,0.12 c -0.456,0.008 -0.576,0.144 -0.576,0.64 l 0,2.016 c 0.24,0.344 0.504,0.488 0.872,0.488 0.456,0 0.6,-0.216 0.6,-0.88 l 0,-1.688 c 0,-0.456 -0.064,-0.52 -0.528,-0.576 l 0,-0.12 1.752,0 0,0.12 -0.208,0.016 c -0.24,0.016 -0.344,0.16 -0.344,0.472 l 0,1.648 c 0,0.944 -0.312,1.424 -0.928,1.424 -0.464,0 -0.872,-0.208 -1.304,-0.672 -0.144,0.456 -0.416,0.672 -0.848,0.672 -0.352,0 -0.576,-0.112 -1.24,-0.616 l 0,0.6 -0.056,0.016 c -0.408,-0.152 -0.68,-0.24 -1.12,-0.36 l 0,-0.136" /><path
       inkscape:connector-curvature="0"
       id="path3097"
       style="font-size:8px;font-variant:normal;font-weight:normal;writing-mode:lr-tb;fill:#231f20;fill-opacity:1;fill-rule:nonzero;stroke:none;font-family:Times;-inkscape-font-specification:Times-Roman"
       d="m 33.79966,263.239 -1.64,0 0,-0.152 c 0.44,-0.024 0.584,-0.112 0.584,-0.336 0,-0.128 -0.056,-0.344 -0.152,-0.584 l -1.176,-2.936 -1.208,2.704 c -0.264,0.584 -0.328,0.768 -0.328,0.888 0,0.152 0.112,0.232 0.368,0.248 0.032,0 0.12,0.008 0.232,0.016 l 0,0.152 -2.128,0 0,-0.152 c 0.392,-0.016 0.504,-0.128 0.848,-0.84 l 1.968,-4.392 0.12,0 1.776,4.488 c 0.264,0.632 0.352,0.72 0.736,0.744 l 0,0.152" /><path
       inkscape:connector-curvature="0"
       id="path3099"
       style="font-size:8px;font-variant:normal;font-weight:normal;writing-mode:lr-tb;fill:#231f20;fill-opacity:1;fill-rule:nonzero;stroke:none;font-family:Times;-inkscape-font-specification:Times-Roman"
       d="m 3.99966,182.6098 0,-0.392 4,0 0,0.392 -4,0" /><path
       inkscape:connector-curvature="0"
       id="path3101"
       style="font-size:8px;font-variant:normal;font-weight:normal;writing-mode:lr-tb;fill:#231f20;fill-opacity:1;fill-rule:nonzero;stroke:none;font-family:Times;-inkscape-font-specification:Times-Roman"
       d="m 10.32766,186.0178 -1.44,-0.728 0,-0.112 c 0.096,0.04 0.184,0.072 0.216,0.088 0.144,0.056 0.28,0.088 0.36,0.088 0.168,0 0.24,-0.12 0.24,-0.376 l 0,-3.624 c 0,-0.264 -0.064,-0.448 -0.192,-0.52 -0.12,-0.072 -0.232,-0.096 -0.568,-0.104 l 0,-0.12 2.208,0 0,0.12 c -0.632,0.008 -0.76,0.088 -0.76,0.472 l 0,4.8 -0.064,0.016" /><path
       inkscape:connector-curvature="0"
       id="path3103"
       style="font-size:8px;font-variant:normal;font-weight:normal;writing-mode:lr-tb;fill:#231f20;fill-opacity:1;fill-rule:nonzero;stroke:none;font-family:Times;-inkscape-font-specification:Times-Roman"
       d="m 14.03166,186.0178 c -0.44,0 -0.776,-0.136 -1.072,-0.416 -0.464,-0.448 -0.768,-1.368 -0.768,-2.304 0,-0.872 0.264,-1.808 0.64,-2.256 0.296,-0.352 0.704,-0.544 1.168,-0.544 0.408,0 0.752,0.136 1.04,0.416 0.464,0.44 0.768,1.368 0.768,2.336 0,1.63999 -0.728,2.768 -1.776,2.768 m -0.024,-0.208 c 0.672,0 1.032,-0.90401 1.032,-2.576 0,-1.672 -0.352,-2.528 -1.04,-2.528 -0.688,0 -1.04,0.856 -1.04,2.52 0,1.69599 0.36,2.584 1.048,2.584" /><path
       inkscape:connector-curvature="0"
       id="path3105"
       style="font-size:8px;font-variant:normal;font-weight:normal;writing-mode:lr-tb;fill:#231f20;fill-opacity:1;fill-rule:nonzero;stroke:none;font-family:Times;-inkscape-font-specification:Times-Roman"
       d="m 18.03166,186.0178 c -0.44,0 -0.776,-0.136 -1.072,-0.416 -0.464,-0.448 -0.768,-1.368 -0.768,-2.304 0,-0.872 0.264,-1.808 0.64,-2.256 0.296,-0.352 0.704,-0.544 1.168,-0.544 0.408,0 0.752,0.136 1.04,0.416 0.464,0.44 0.768,1.368 0.768,2.336 0,1.63999 -0.728,2.768 -1.776,2.768 m -0.024,-0.208 c 0.672,0 1.032,-0.90401 1.032,-2.576 0,-1.672 -0.352,-2.528 -1.04,-2.528 -0.688,0 -1.04,0.856 -1.04,2.52 0,1.69599 0.36,2.584 1.048,2.584" /><path
       inkscape:connector-curvature="0"
       id="path3107"
       style="font-size:8px;font-variant:normal;font-weight:normal;writing-mode:lr-tb;fill:#231f20;fill-opacity:1;fill-rule:nonzero;stroke:none;font-family:Times;-inkscape-font-specification:Times-Roman"
       d="m 22.15166,183.7938 c 0.104,0.024 0.168,0.032 0.256,0.032 0.208,0 0.28,-0.128 0.28,-0.512 l 0,-2.024 c 0,-0.432 -0.112,-0.552 -0.56,-0.56 l 0,-0.12 1.776,0 0,0.12 c -0.424,0.016 -0.544,0.104 -0.544,0.416 l 0,2.256 c 0,0.016 0.064,0.096 0.12,0.152 0.2,0.184 0.544,0.32 0.824,0.32 0.352,0 0.528,-0.28 0.528,-0.84 l 0,-1.736 c 0,-0.448 -0.088,-0.536 -0.544,-0.568 l 0,-0.12 1.792,0 0,0.12 c -0.456,0.008 -0.576,0.144 -0.576,0.64 l 0,2.016 c 0.24,0.344 0.504,0.488 0.872,0.488 0.456,0 0.6,-0.216 0.6,-0.88 l 0,-1.688 c 0,-0.456 -0.064,-0.52 -0.528,-0.576 l 0,-0.12 1.752,0 0,0.12 -0.208,0.016 c -0.24,0.016 -0.344,0.16 -0.344,0.472 l 0,1.648 c 0,0.944 -0.312,1.424 -0.928,1.424 -0.464,0 -0.872,-0.208 -1.304,-0.672 -0.144,0.456 -0.416,0.672 -0.848,0.672 -0.352,0 -0.576,-0.112 -1.24,-0.616 l 0,0.6 -0.056,0.016 c -0.408,-0.152 -0.68,-0.24 -1.12,-0.36 l 0,-0.136" /><path
       inkscape:connector-curvature="0"
       id="path3109"
       style="font-size:8px;font-variant:normal;font-weight:normal;writing-mode:lr-tb;fill:#231f20;fill-opacity:1;fill-rule:nonzero;stroke:none;font-family:Times;-inkscape-font-specification:Times-Roman"
       d="m 33.79966,185.9058 -1.64,0 0,-0.152 c 0.44,-0.024 0.584,-0.112 0.584,-0.336 0,-0.128 -0.056,-0.344 -0.152,-0.584 l -1.176,-2.936 -1.208,2.704 c -0.264,0.584 -0.328,0.768 -0.328,0.888 0,0.152 0.112,0.232 0.368,0.248 0.032,0 0.12,0.008 0.232,0.016 l 0,0.152 -2.128,0 0,-0.152 c 0.392,-0.016 0.504,-0.128 0.848,-0.84 l 1.968,-4.392 0.12,0 1.776,4.488 c 0.264,0.632 0.352,0.72 0.736,0.744 l 0,0.152" /><path
       inkscape:connector-curvature="0"
       id="path3111"
       style="font-size:8px;font-variant:normal;font-weight:normal;writing-mode:lr-tb;fill:#231f20;fill-opacity:1;fill-rule:nonzero;stroke:none;font-family:Times;-inkscape-font-specification:Times-Roman"
       d="m 0.47216192,14.876799 0,-0.392 4.00000008,0 0,0.392 -4.00000008,0" /><path
       inkscape:connector-curvature="0"
       id="path3113"
       style="font-size:8px;font-variant:normal;font-weight:normal;writing-mode:lr-tb;fill:#231f20;fill-opacity:1;fill-rule:nonzero;stroke:none;font-family:Times;-inkscape-font-specification:Times-Roman"
       d="m 6.800162,18.284799 -1.44,-0.728 0,-0.112 c 0.096,0.04 0.184,0.072 0.216,0.088 0.144,0.056 0.28,0.088 0.36,0.088 0.168,0 0.24,-0.120001 0.24,-0.376 l 0,-3.624 c 0,-0.264 -0.064,-0.448 -0.192,-0.52 -0.12,-0.072 -0.232,-0.096 -0.568,-0.104 l 0,-0.12 2.208,0 0,0.12 c -0.632,0.008 -0.76,0.088 -0.76,0.472 l 0,4.8 -0.064,0.016" /><path
       inkscape:connector-curvature="0"
       id="path3115"
       style="font-size:8px;font-variant:normal;font-weight:normal;writing-mode:lr-tb;fill:#231f20;fill-opacity:1;fill-rule:nonzero;stroke:none;font-family:Times;-inkscape-font-specification:Times-Roman"
       d="m 10.50416,18.284799 c -0.439998,0 -0.775998,-0.136001 -1.071998,-0.416 -0.464,-0.448 -0.768,-1.368001 -0.768,-2.304 0,-0.871999 0.264,-1.808001 0.64,-2.256 0.296,-0.352 0.704,-0.544 1.167998,-0.544 0.408,0 0.752,0.136 1.04,0.416 0.464,0.439999 0.768,1.368001 0.768,2.336 0,1.639998 -0.728,2.768 -1.776,2.768 m -0.024,-0.208 c 0.672,0 1.032,-0.904002 1.032,-2.576 0,-1.671999 -0.352,-2.528 -1.04,-2.528 -0.687998,0 -1.039998,0.856001 -1.039998,2.52 0,1.695998 0.36,2.584 1.047998,2.584" /><path
       inkscape:connector-curvature="0"
       id="path3117"
       style="font-size:8px;font-variant:normal;font-weight:normal;writing-mode:lr-tb;fill:#231f20;fill-opacity:1;fill-rule:nonzero;stroke:none;font-family:Times;-inkscape-font-specification:Times-Roman"
       d="m 14.50416,18.284799 c -0.44,0 -0.776,-0.136001 -1.072,-0.416 -0.464,-0.448 -0.768,-1.368001 -0.768,-2.304 0,-0.871999 0.264,-1.808001 0.64,-2.256 0.296,-0.352 0.704,-0.544 1.168,-0.544 0.408,0 0.752,0.136 1.04,0.416 0.464,0.439999 0.768,1.368001 0.768,2.336 0,1.639998 -0.728,2.768 -1.776,2.768 m -0.024,-0.208 c 0.672,0 1.032,-0.904002 1.032,-2.576 0,-1.671999 -0.352,-2.528 -1.04,-2.528 -0.688,0 -1.04,0.856001 -1.04,2.52 0,1.695998 0.36,2.584 1.048,2.584" /><path
       inkscape:connector-curvature="0"
       id="path3119"
       style="font-size:8px;font-variant:normal;font-weight:normal;writing-mode:lr-tb;fill:#231f20;fill-opacity:1;fill-rule:nonzero;stroke:none;font-family:Times;-inkscape-font-specification:Times-Roman"
       d="m 18.50416,18.284799 c -0.44,0 -0.776,-0.136001 -1.072,-0.416 -0.464,-0.448 -0.768,-1.368001 -0.768,-2.304 0,-0.871999 0.264,-1.808001 0.64,-2.256 0.296,-0.352 0.704,-0.544 1.168,-0.544 0.408,0 0.752,0.136 1.04,0.416 0.464,0.439999 0.768,1.368001 0.768,2.336 0,1.639998 -0.728,2.768 -1.776,2.768 m -0.024,-0.208 c 0.672,0 1.032,-0.904002 1.032,-2.576 0,-1.671999 -0.352,-2.528 -1.04,-2.528 -0.688,0 -1.04,0.856001 -1.04,2.52 0,1.695998 0.36,2.584 1.048,2.584" /><path
       inkscape:connector-curvature="0"
       id="path3121"
       style="font-size:8px;font-variant:normal;font-weight:normal;writing-mode:lr-tb;fill:#231f20;fill-opacity:1;fill-rule:nonzero;stroke:none;font-family:Times;-inkscape-font-specification:Times-Roman"
       d="m 22.62416,16.060799 c 0.104,0.024 0.168,0.032 0.256,0.032 0.208,0 0.28,-0.128001 0.28,-0.512 l 0,-2.024 c 0,-0.432 -0.112,-0.552 -0.56,-0.56 l 0,-0.12 1.776,0 0,0.12 c -0.424,0.016 -0.544,0.104 -0.544,0.416 l 0,2.256 c 0,0.016 0.064,0.096 0.12,0.152 0.2,0.184 0.544,0.32 0.824,0.32 0.352,0 0.528,-0.280001 0.528,-0.84 l 0,-1.736 c 0,-0.448 -0.088,-0.536 -0.544,-0.568 l 0,-0.12 1.792,0 0,0.12 c -0.456,0.008 -0.576,0.144 -0.576,0.64 l 0,2.016 c 0.24,0.343999 0.504,0.488 0.872,0.488 0.456,0 0.6,-0.216001 0.6,-0.88 l 0,-1.688 c 0,-0.456 -0.064,-0.52 -0.528,-0.576 l 0,-0.12 1.752,0 0,0.12 -0.208,0.016 c -0.24,0.016 -0.344,0.16 -0.344,0.472 l 0,1.648 c 0,0.943999 -0.312,1.424 -0.928,1.424 -0.464,0 -0.872,-0.208001 -1.304,-0.672 -0.144,0.455999 -0.416,0.672 -0.848,0.672 -0.352,0 -0.576,-0.112001 -1.24,-0.616 l 0,0.6 -0.056,0.016 c -0.408,-0.152 -0.68,-0.24 -1.12,-0.36 l 0,-0.136" /><path
       inkscape:connector-curvature="0"
       id="path3123"
       style="font-size:8px;font-variant:normal;font-weight:normal;writing-mode:lr-tb;fill:#231f20;fill-opacity:1;fill-rule:nonzero;stroke:none;font-family:Times;-inkscape-font-specification:Times-Roman"
       d="m 34.27216,18.172799 -1.64,0 0,-0.152 c 0.44,-0.024 0.584,-0.112 0.584,-0.336 0,-0.128 -0.056,-0.344001 -0.152,-0.584 l -1.176,-2.936 -1.208,2.704 c -0.264,0.583999 -0.328,0.768 -0.328,0.888 0,0.152 0.112,0.232 0.368,0.248 0.032,0 0.12,0.008 0.232,0.016 l 0,0.152 -2.128,0 0,-0.152 c 0.392,-0.016 0.504,-0.128001 0.848,-0.84 l 1.968,-4.392 0.12,0 1.776,4.488 c 0.264,0.631999 0.352,0.72 0.736,0.744 l 0,0.152" /><path
       inkscape:connector-curvature="0"
       id="path3125"
       style="font-size:8px;font-variant:normal;font-weight:normal;writing-mode:lr-tb;fill:#231f20;fill-opacity:1;fill-rule:nonzero;stroke:none;font-family:Times;-inkscape-font-specification:Times-Roman"
       d="m 6.32766,133.4848 -1.44,-0.728 0,-0.112 c 0.096,0.04 0.184,0.072 0.216,0.088 0.144,0.056 0.28,0.088 0.36,0.088 0.168,0 0.24,-0.12 0.24,-0.376 l 0,-3.624 c 0,-0.264 -0.064,-0.448 -0.192,-0.52 -0.12,-0.072 -0.232,-0.096 -0.568,-0.104 l 0,-0.12 2.208,0 0,0.12 c -0.632,0.008 -0.76,0.088 -0.76,0.472 l 0,4.8 -0.064,0.016" /><path
       inkscape:connector-curvature="0"
       id="path3127"
       style="font-size:8px;font-variant:normal;font-weight:normal;writing-mode:lr-tb;fill:#231f20;fill-opacity:1;fill-rule:nonzero;stroke:none;font-family:Times;-inkscape-font-specification:Times-Roman"
       d="m 10.03166,133.4848 c -0.44,0 -0.776,-0.136 -1.072,-0.416 -0.464,-0.448 -0.768,-1.368 -0.768,-2.304 0,-0.872 0.264,-1.808 0.64,-2.256 0.296,-0.352 0.704,-0.544 1.168,-0.544 0.408,0 0.752,0.136 1.04,0.416 0.464,0.44 0.768,1.368 0.768,2.336 0,1.64 -0.728,2.768 -1.776,2.768 m -0.024,-0.208 c 0.672,0 1.032,-0.904 1.032,-2.576 0,-1.672 -0.352,-2.528 -1.04,-2.528 -0.688,0 -1.04,0.856 -1.04,2.52 0,1.696 0.36,2.584 1.048,2.584" /><path
       inkscape:connector-curvature="0"
       id="path3129"
       style="font-size:8px;font-variant:normal;font-weight:normal;writing-mode:lr-tb;fill:#231f20;fill-opacity:1;fill-rule:nonzero;stroke:none;font-family:Times;-inkscape-font-specification:Times-Roman"
       d="m 14.03166,133.4848 c -0.44,0 -0.776,-0.136 -1.072,-0.416 -0.464,-0.448 -0.768,-1.368 -0.768,-2.304 0,-0.872 0.264,-1.808 0.64,-2.256 0.296,-0.352 0.704,-0.544 1.168,-0.544 0.408,0 0.752,0.136 1.04,0.416 0.464,0.44 0.768,1.368 0.768,2.336 0,1.64 -0.728,2.768 -1.776,2.768 m -0.024,-0.208 c 0.672,0 1.032,-0.904 1.032,-2.576 0,-1.672 -0.352,-2.528 -1.04,-2.528 -0.688,0 -1.04,0.856 -1.04,2.52 0,1.696 0.36,2.584 1.048,2.584" /><path
       inkscape:connector-curvature="0"
       id="path3131"
       style="font-size:8px;font-variant:normal;font-weight:normal;writing-mode:lr-tb;fill:#231f20;fill-opacity:1;fill-rule:nonzero;stroke:none;font-family:Times;-inkscape-font-specification:Times-Roman"
       d="m 18.03166,133.4848 c -0.44,0 -0.776,-0.136 -1.072,-0.416 -0.464,-0.448 -0.768,-1.368 -0.768,-2.304 0,-0.872 0.264,-1.808 0.64,-2.256 0.296,-0.352 0.704,-0.544 1.168,-0.544 0.408,0 0.752,0.136 1.04,0.416 0.464,0.44 0.768,1.368 0.768,2.336 0,1.64 -0.728,2.768 -1.776,2.768 m -0.024,-0.208 c 0.672,0 1.032,-0.904 1.032,-2.576 0,-1.672 -0.352,-2.528 -1.04,-2.528 -0.688,0 -1.04,0.856 -1.04,2.52 0,1.696 0.36,2.584 1.048,2.584" /><path
       inkscape:connector-curvature="0"
       id="path3133"
       style="font-size:8px;font-variant:normal;font-weight:normal;writing-mode:lr-tb;fill:#231f20;fill-opacity:1;fill-rule:nonzero;stroke:none;font-family:Times;-inkscape-font-specification:Times-Roman"
       d="m 22.15166,131.2608 c 0.104,0.024 0.168,0.032 0.256,0.032 0.208,0 0.28,-0.128 0.28,-0.512 l 0,-2.024 c 0,-0.432 -0.112,-0.552 -0.56,-0.56 l 0,-0.12 1.776,0 0,0.12 c -0.424,0.016 -0.544,0.104 -0.544,0.416 l 0,2.256 c 0,0.016 0.064,0.096 0.12,0.152 0.2,0.184 0.544,0.32 0.824,0.32 0.352,0 0.528,-0.28 0.528,-0.84 l 0,-1.736 c 0,-0.448 -0.088,-0.536 -0.544,-0.568 l 0,-0.12 1.792,0 0,0.12 c -0.456,0.008 -0.576,0.144 -0.576,0.64 l 0,2.016 c 0.24,0.344 0.504,0.488 0.872,0.488 0.456,0 0.6,-0.216 0.6,-0.88 l 0,-1.688 c 0,-0.456 -0.064,-0.52 -0.528,-0.576 l 0,-0.12 1.752,0 0,0.12 -0.208,0.016 c -0.24,0.016 -0.344,0.16 -0.344,0.472 l 0,1.648 c 0,0.944 -0.312,1.424 -0.928,1.424 -0.464,0 -0.872,-0.208 -1.304,-0.672 -0.144,0.456 -0.416,0.672 -0.848,0.672 -0.352,0 -0.576,-0.112 -1.24,-0.616 l 0,0.6 -0.056,0.016 c -0.408,-0.152 -0.68,-0.24 -1.12,-0.36 l 0,-0.136" /><path
       inkscape:connector-curvature="0"
       id="path3135"
       style="font-size:8px;font-variant:normal;font-weight:normal;writing-mode:lr-tb;fill:#231f20;fill-opacity:1;fill-rule:nonzero;stroke:none;font-family:Times;-inkscape-font-specification:Times-Roman"
       d="m 33.79966,133.3728 -1.64,0 0,-0.152 c 0.44,-0.024 0.584,-0.112 0.584,-0.336 0,-0.128 -0.056,-0.344 -0.152,-0.584 l -1.176,-2.936 -1.208,2.704 c -0.264,0.584 -0.328,0.768 -0.328,0.888 0,0.152 0.112,0.232 0.368,0.248 0.032,0 0.12,0.008 0.232,0.016 l 0,0.152 -2.128,0 0,-0.152 c 0.392,-0.016 0.504,-0.128 0.848,-0.84 l 1.968,-4.392 0.12,0 1.776,4.488 c 0.264,0.632 0.352,0.72 0.736,0.744 l 0,0.152" /><path
       inkscape:connector-curvature="0"
       id="path3138"
       style="font-size:8px;font-variant:normal;font-weight:normal;writing-mode:lr-tb;fill:#231f20;fill-opacity:1;fill-rule:nonzero;stroke:none;font-family:Symbol;-inkscape-font-specification:Symbol"
       d="m 92.56737,226.8256 c 0.264,0.416 0.4,0.504 0.784,0.504 l 0.368,0 -0.208,-1.776 c -0.032,-0.224 -0.136,-0.4 -0.408,-0.648 -0.248,-0.224 -0.32,-0.352 -0.32,-0.528 0,-0.24 0.192,-0.44 0.44,-0.44 0.248,0 0.44,0.184 0.544,0.528 0.072,0.208 0.184,1.024 0.256,1.832 l 0.096,1.032 0.872,0 c -0.096,-0.632 -0.168,-1.496 -0.168,-1.952 0,-0.896 0.304,-1.44 0.792,-1.44 0.312,0 0.592,0.216 0.784,0.592 0.112,0.224 0.144,0.376 0.168,0.776 l -0.192,0 c -0.04,-0.384 -0.192,-0.584 -0.456,-0.584 -0.16,0 -0.328,0.112 -0.416,0.28 -0.072,0.144 -0.096,0.272 -0.096,0.536 0,0.608 0.04,1.352 0.096,1.792 l 1.008,0 0,0.712 -2.8,0 c -0.432,0 -0.584,-0.056 -0.816,-0.28 -0.224,-0.224 -0.352,-0.456 -0.488,-0.936 l 0.16,0" /><path
       inkscape:connector-curvature="0"
       id="path3140"
       style="font-size:8px;font-variant:normal;font-weight:normal;writing-mode:lr-tb;fill:#231f20;fill-opacity:1;fill-rule:nonzero;stroke:none;font-family:Symbol;-inkscape-font-specification:Symbol"
       d="m 144.99569,224.0416 3.168,0 0.432,1.072 -0.2,0 c -0.248,-0.424 -0.392,-0.488 -1.088,-0.488 l -1.536,0 c 1.632,1.592 2.216,2.496 2.216,3.44 0,0.848 -0.592,1.464 -1.408,1.464 -0.408,0 -0.752,-0.16 -1.024,-0.488 -0.224,-0.264 -0.32,-0.512 -0.4,-1 l 0.136,0 c 0.088,0.264 0.152,0.384 0.264,0.52 0.192,0.232 0.488,0.368 0.768,0.368 0.56,0 1.048,-0.552 1.048,-1.184 0,-0.76 -0.576,-1.768 -1.584,-2.784 l -0.6,-0.616 -0.192,-0.192 0,-0.112" /><path
       inkscape:connector-curvature="0"
       id="path3142"
       style="font-size:8px;font-variant:normal;font-weight:normal;writing-mode:lr-tb;fill:#231f20;fill-opacity:1;fill-rule:nonzero;stroke:none;font-family:Symbol;-inkscape-font-specification:Symbol"
       d="m 149.03569,226.8256 c 0.264,0.416 0.4,0.504 0.784,0.504 l 0.368,0 -0.208,-1.776 c -0.032,-0.224 -0.136,-0.4 -0.408,-0.648 -0.248,-0.224 -0.32,-0.352 -0.32,-0.528 0,-0.24 0.192,-0.44 0.44,-0.44 0.248,0 0.44,0.184 0.544,0.528 0.072,0.208 0.184,1.024 0.256,1.832 l 0.096,1.032 0.872,0 c -0.096,-0.632 -0.168,-1.496 -0.168,-1.952 0,-0.896 0.304,-1.44 0.792,-1.44 0.312,0 0.592,0.216 0.784,0.592 0.112,0.224 0.144,0.376 0.168,0.776 l -0.192,0 c -0.04,-0.384 -0.192,-0.584 -0.456,-0.584 -0.16,0 -0.328,0.112 -0.416,0.28 -0.072,0.144 -0.096,0.272 -0.096,0.536 0,0.608 0.04,1.352 0.096,1.792 l 1.008,0 0,0.712 -2.8,0 c -0.432,0 -0.584,-0.056 -0.816,-0.28 -0.224,-0.224 -0.352,-0.456 -0.488,-0.936 l 0.16,0" /><path
       inkscape:connector-curvature="0"
       id="path3144"
       style="font-size:8px;font-variant:normal;font-weight:normal;writing-mode:lr-tb;fill:#231f20;fill-opacity:1;fill-rule:nonzero;stroke:none;font-family:Symbol;-inkscape-font-specification:Symbol"
       d="m 191.36065,226.9296 0,-0.2 0.072,0 c 0.424,0 0.696,-0.112 0.936,-0.384 0.232,-0.264 0.352,-0.592 0.352,-0.96 0,-0.632 -0.392,-1.08 -0.96,-1.08 -0.32,0 -0.504,0.064 -0.832,0.304 -0.232,0.168 -0.352,0.224 -0.472,0.224 -0.16,0 -0.288,-0.136 -0.288,-0.296 0,-0.312 0.552,-0.6 1.176,-0.6 1.096,0 1.992,0.832 1.992,1.864 0,0.6 -0.272,1.008 -0.888,1.328 0.544,0.424 0.768,0.792 0.768,1.264 0,0.64 -0.528,1.136 -1.216,1.136 -0.68,0 -1.104,-0.344 -1.376,-1.128 l 0.12,-0.072 c 0.296,0.488 0.568,0.672 0.992,0.672 0.504,0 0.864,-0.376 0.864,-0.904 0,-0.288 -0.112,-0.568 -0.328,-0.784 -0.216,-0.216 -0.568,-0.384 -0.824,-0.384 l -0.088,0" /><path
       inkscape:connector-curvature="0"
       id="path3146"
       style="font-size:8px;font-variant:normal;font-weight:normal;writing-mode:lr-tb;fill:#231f20;fill-opacity:1;fill-rule:nonzero;stroke:none;font-family:Symbol;-inkscape-font-specification:Symbol"
       d="m 194.09665,226.8256 c 0.264,0.416 0.4,0.504 0.784,0.504 l 0.368,0 -0.208,-1.776 c -0.032,-0.224 -0.136,-0.4 -0.408,-0.648 -0.248,-0.224 -0.32,-0.352 -0.32,-0.528 0,-0.24 0.192,-0.44 0.44,-0.44 0.248,0 0.44,0.184 0.544,0.528 0.072,0.208 0.184,1.024 0.256,1.832 l 0.096,1.032 0.872,0 c -0.096,-0.632 -0.168,-1.496 -0.168,-1.952 0,-0.896 0.304,-1.44 0.792,-1.44 0.312,0 0.592,0.216 0.784,0.592 0.112,0.224 0.144,0.376 0.168,0.776 l -0.192,0 c -0.04,-0.384 -0.192,-0.584 -0.456,-0.584 -0.16,0 -0.328,0.112 -0.416,0.28 -0.072,0.144 -0.096,0.272 -0.096,0.536 0,0.608 0.04,1.352 0.096,1.792 l 1.008,0 0,0.712 -2.8,0 c -0.432,0 -0.584,-0.056 -0.816,-0.28 -0.224,-0.224 -0.352,-0.456 -0.488,-0.936 l 0.16,0" /><path
       inkscape:connector-curvature="0"
       id="path48"
       style="fill:none;stroke:#231f20;stroke-width:0.5;stroke-linecap:round;stroke-linejoin:round;stroke-miterlimit:3.86369991;stroke-opacity:1;stroke-dasharray:none"
       d="m 39.0355,221.062 240.20793,0" /><path
       inkscape:connector-curvature="0"
       id="path50"
       style="fill:#231f20;fill-opacity:1;fill-rule:nonzero;stroke:none"
       d="m 283.78944,222.216 c -1.858,0.561 -3.068,1.079 -4.56,1.677 l 0,-5.675 c 0.534,0.254 2.702,1.117 4.56,1.678 1.992,0.602 3.796,1.014 4.967,1.16 -1.171,0.147 -2.975,0.558 -4.967,1.16" /><path
       inkscape:connector-curvature="0"
       id="path52"
       style="fill:none;stroke:#231f20;stroke-width:0.5;stroke-linecap:round;stroke-linejoin:round;stroke-miterlimit:3.86369991;stroke-opacity:1;stroke-dasharray:none"
       d="m 39.0355,1.6843617 0,274.2109283" /><path
       inkscape:connector-curvature="0"
       id="path54"
       style="fill:#231f20;fill-opacity:1;fill-rule:nonzero;stroke:none"
       d="m 37.8824,278.551 c -0.5617,-1.859 -1.0793,-3.069 -1.6777,-4.561 l 5.6746,0 c -0.2539,0.534 -1.1172,2.702 -1.6777,4.561 -0.6016,1.991 -1.0137,3.795 -1.1602,4.967 -0.1465,-1.172 -0.5574,-2.976 -1.159,-4.967" /><path
       inkscape:connector-curvature="0"
       id="path56"
       style="fill:#231f20;fill-opacity:1;fill-rule:nonzero;stroke:none"
       d="m 37.8824,155.764 c -0.5617,-1.859 -1.0793,-3.068 -1.6777,-4.56 l 5.6746,0 c -0.2539,0.533 -1.1172,2.701 -1.6777,4.56 -0.6016,1.991 -1.0137,3.795 -1.1602,4.967 -0.1465,-1.172 -0.5574,-2.976 -1.159,-4.967" /><path
       inkscape:connector-curvature="0"
       id="path58"
       style="fill:none;stroke:#231f20;stroke-width:0.95999998;stroke-linecap:round;stroke-linejoin:round;stroke-miterlimit:3.86369991;stroke-opacity:1;stroke-dasharray:none"
       d="m 39.272952,221.24009 c 6.1868,19.206 12.132948,38.23891 24.504748,38.23891 24.6907,0 24.6907,-76.801 49.3803,-76.801 24.594,0 24.594,76.801 49.189,76.801 24.424,0 24.424,-76.801 48.851,-76.801"
       sodipodi:nodetypes="csssc" /><path
       inkscape:connector-curvature="0"
       id="path60"
       style="fill:none;stroke:#231f20;stroke-width:0.5;stroke-linecap:round;stroke-linejoin:round;stroke-miterlimit:3.86369991;stroke-opacity:1;stroke-dasharray:2.5, 2;stroke-dashoffset:0"
       d="m 39.0934,259.479 124.5906,0" /><path
       inkscape:connector-curvature="0"
       id="path62"
       style="fill:none;stroke:#231f20;stroke-width:0.5;stroke-linecap:round;stroke-linejoin:round;stroke-miterlimit:3.86369991;stroke-opacity:1;stroke-dasharray:2.5, 2;stroke-dashoffset:0"
       d="m 38.9789,182.689 76.1031,0" /><path
       inkscape:connector-curvature="0"
       id="path64"
       style="fill:none;stroke:#231f20;stroke-width:0.5;stroke-linecap:round;stroke-linejoin:round;stroke-miterlimit:3.86369991;stroke-opacity:1;stroke-dasharray:2.5, 2;stroke-dashoffset:0"
       d="m 88.5426,220.548 0,-217.6860251" /><path
       inkscape:connector-curvature="0"
       id="path66"
       style="fill:none;stroke:#231f20;stroke-width:0.5;stroke-linecap:round;stroke-linejoin:round;stroke-miterlimit:3.86369991;stroke-opacity:1;stroke-dasharray:2.5, 2;stroke-dashoffset:0"
       d="m 137.628,220.548 0,-217.6860251" /><path
       inkscape:connector-curvature="0"
       id="path68"
       style="fill:none;stroke:#231f20;stroke-width:0.5;stroke-linecap:round;stroke-linejoin:round;stroke-miterlimit:3.86369991;stroke-opacity:1;stroke-dasharray:2.5, 2;stroke-dashoffset:0"
       d="m 186.894,220.548 0,-217.6860251" /><path
       inkscape:connector-curvature="0"
       id="path70"
       style="fill:none;stroke:#231f20;stroke-width:0.5;stroke-linecap:round;stroke-linejoin:round;stroke-miterlimit:3.86369991;stroke-opacity:1;stroke-dasharray:none"
       d="m 39.0355,72.2621 240.20793,0" /><path
       inkscape:connector-curvature="0"
       id="path72"
       style="fill:#231f20;fill-opacity:1;fill-rule:nonzero;stroke:none"
       d="m 283.78944,73.416 c -1.858,0.561 -3.068,1.0789 -4.56,1.677 l 0,-5.6739 c 0.534,0.2539 2.702,1.1168 4.56,1.677 1.992,0.6019 3.796,1.0141 4.967,1.1598 -1.171,0.1472 -2.975,0.5582 -4.967,1.1601" /><path
       inkscape:connector-curvature="0"
       id="path74"
       style="fill:none;stroke:#231f20;stroke-width:0.5;stroke-linecap:round;stroke-linejoin:round;stroke-miterlimit:3.86369991;stroke-opacity:1;stroke-dasharray:2.5, 2;stroke-dashoffset:0"
       d="m 38.9742,129.752 74.7208,0" /><path
       inkscape:connector-curvature="0"
       id="path76"
       style="fill:none;stroke:#231f20;stroke-width:0.5;stroke-linecap:round;stroke-linejoin:round;stroke-miterlimit:3.86369991;stroke-opacity:1;stroke-dasharray:2.5, 2;stroke-dashoffset:0"
       d="m 39.0934,14.5691 124.5906,0" /><path
       inkscape:connector-curvature="0"
       id="path78"
       style="fill:none;stroke:#231f20;stroke-width:0.95999998;stroke-linecap:round;stroke-linejoin:round;stroke-miterlimit:3.86369991;stroke-opacity:1;stroke-dasharray:none"
       d="M 39.184389,72.091474 C 45.347589,43.274274 51.3285,14.557 63.6547,14.557 c 24.5957,0 24.5957,115.2 49.1923,115.2 24.607,0 24.607,-115.2 49.214,-115.2 17.615,0 22.595,59.2821 33.066,92.792"
       sodipodi:nodetypes="csssc" /><path
       inkscape:connector-curvature="0"
       id="path3149"
       style="font-size:8px;font-style:italic;font-variant:normal;writing-mode:lr-tb;fill:#231f20;fill-opacity:1;fill-rule:nonzero;stroke:none;font-family:Times;-inkscape-font-specification:Times-Italic"
       d="m 30.435783,283.99766 c 0.088,0.008 0.152,0.008 0.24,0.008 0.312,0 0.392,-0.136 0.504,-0.872 0.08,-0.552 0.176,-1.76 0.176,-2.224 0,-0.224 0.016,-0.28 0.072,-0.28 0.2,0 0.944001,0.848 1.76,1.984 0.28,0.4 0.488,0.92 0.488,1.216 0,0.256 -0.208,0.472 -0.448,0.472 -0.176,0 -0.296,-0.104 -0.296,-0.272 0,-0.128 0.048,-0.224 0.192,-0.352 0.104,-0.096 0.144,-0.16 0.144,-0.24 0,-0.368 -0.528001,-1.256 -1.096,-1.848 l -0.248,-0.256 c -0.056,1.128 -0.104,1.544 -0.208,2.136 -0.16,0.816 -0.16,0.832 -0.232,0.832 -0.04,0 -0.096,-0.008 -0.16,-0.032 -0.144,-0.04 -0.584,-0.12 -0.888,-0.168 l 0,-0.104" /><path
       inkscape:connector-curvature="0"
       id="path3152"
       style="font-size:6px;font-style:italic;font-variant:normal;writing-mode:lr-tb;fill:#231f20;fill-opacity:1;fill-rule:nonzero;stroke:none;font-family:Times;-inkscape-font-specification:Times-Italic"
       d="m 35.151733,279.45766 c -0.144,-0.192 -0.186,-0.24 -0.246,-0.306 -0.102,-0.102 -0.192,-0.162 -0.246,-0.162 -0.048,0 -0.096,0.048 -0.096,0.09 0,0.06 0.018,0.15 0.06,0.264 0,0.018 0.018,0.06 0.03,0.108 l 0,0.012 0.006,0.012 0.528,1.932 -0.018,0.012 c -0.605999,-0.114 -0.726,-0.132 -0.96,-0.15 l 0,-0.096 c 0.318,-0.006 0.378,-0.024 0.378,-0.144 0,-0.048 -0.018,-0.144 -0.054,-0.264 l -0.288,-1.062 c -0.096,-0.348 -0.132,-0.534 -0.132,-0.654 0,-0.222 0.096,-0.342 0.276,-0.342 0.276,0 0.498,0.18 0.84,0.684 l -0.078,0.066 m -0.048,3.24 c -0.162,0 -0.282,-0.138 -0.282,-0.318 0,-0.192 0.114,-0.318 0.288,-0.318 0.156,0 0.294,0.138 0.294,0.306 0,0.174 -0.138,0.33 -0.3,0.33" /><path
       inkscape:connector-curvature="0"
       id="path3155"
       style="font-size:8px;font-style:italic;font-variant:normal;writing-mode:lr-tb;fill:#231f20;fill-opacity:1;fill-rule:nonzero;stroke:none;font-family:Times;-inkscape-font-specification:Times-Italic"
       d="m 27.21679,155.178 c 0.088,0.008 0.152,0.008 0.24,0.008 0.312,0 0.392,-0.136 0.504,-0.872 0.08,-0.552 0.176,-1.76 0.176,-2.224 0,-0.224 0.016,-0.28 0.072,-0.28 0.2,0 0.944001,0.848 1.76,1.984 0.28,0.4 0.488,0.92 0.488,1.216 0,0.256 -0.208,0.472 -0.448,0.472 -0.176,0 -0.296,-0.104 -0.296,-0.272 0,-0.128 0.048,-0.224 0.192,-0.352 0.104,-0.096 0.144,-0.16 0.144,-0.24 0,-0.368 -0.528001,-1.256 -1.096,-1.848 l -0.248,-0.256 c -0.056,1.128 -0.104,1.544 -0.208,2.136 -0.16,0.816 -0.16,0.832 -0.232,0.832 -0.04,0 -0.096,-0.008 -0.16,-0.032 -0.144,-0.04 -0.584,-0.12 -0.888,-0.168 l 0,-0.104" /><path
       inkscape:connector-curvature="0"
       id="path3158"
       style="font-size:6px;font-style:italic;font-variant:normal;writing-mode:lr-tb;fill:#231f20;fill-opacity:1;fill-rule:nonzero;stroke:none;font-family:Times;-inkscape-font-specification:Times-Italic"
       d="m 32.55074,152.6 c -0.899999,0 -1.788,-0.93 -1.788,-1.872 0,-0.516 0.336001,-0.84 0.882,-0.84 0.396,0 0.78,0.18 1.128,0.522 0.396,0.39 0.636,0.9 0.636,1.35 0,0.498 -0.348001,0.84 -0.858,0.84 m -0.072,-0.126 c 0.258,0 0.426,-0.222 0.426,-0.564 0,-0.438 -0.198,-1.038 -0.462,-1.428 -0.222,-0.318 -0.45,-0.468 -0.708,-0.468 -0.282,0 -0.468,0.216 -0.468,0.546 0,0.444 0.174,0.972 0.468,1.398 0.234,0.336 0.486,0.516 0.744,0.516" /></g></svg>