<?xml version="1.0" encoding="UTF-8" standalone="no"?>
<!-- Created with Inkscape (http://www.inkscape.org/) -->

<svg
   xmlns:ns0="http://www.iki.fi/pav/software/textext/"
   xmlns:dc="http://purl.org/dc/elements/1.1/"
   xmlns:cc="http://creativecommons.org/ns#"
   xmlns:rdf="http://www.w3.org/1999/02/22-rdf-syntax-ns#"
   xmlns:svg="http://www.w3.org/2000/svg"
   xmlns="http://www.w3.org/2000/svg"
   xmlns:sodipodi="http://sodipodi.sourceforge.net/DTD/sodipodi-0.dtd"
   xmlns:inkscape="http://www.inkscape.org/namespaces/inkscape"
   id="svg2"
   version="1.1"
   inkscape:version="0.48.4 r9939"
   width="425.19684"
   height="212.59842"
   xml:space="preserve"
   sodipodi:docname="S3-EE-06-IN006.eps"><sodipodi:namedview
     pagecolor="#ffffff"
     bordercolor="#666666"
     borderopacity="1"
     objecttolerance="10"
     gridtolerance="10"
     guidetolerance="10"
     inkscape:pageopacity="0"
     inkscape:pageshadow="2"
     inkscape:window-width="1366"
     inkscape:window-height="744"
     id="namedview4"
     showgrid="false"
     inkscape:zoom="1.9967223"
     inkscape:cx="212.59842"
     inkscape:cy="106.29921"
     inkscape:window-x="0"
     inkscape:window-y="24"
     inkscape:window-maximized="1"
     inkscape:current-layer="g10"
     units="cm" /><metadata
     id="metadata8"><rdf:RDF><cc:Work
         rdf:about=""><dc:format>image/svg+xml</dc:format><dc:type
           rdf:resource="http://purl.org/dc/dcmitype/StillImage" /><dc:title></dc:title></cc:Work></rdf:RDF></metadata><defs
     id="defs6" /><g
     id="g10"
     inkscape:groupmode="layer"
     inkscape:label="ink_ext_XXXXXX"
     transform="matrix(1.25,0,0,-1.25,0,212.59842)"><path
       inkscape:connector-curvature="0"
       id="path14"
       style="fill:none;stroke:#231f20;stroke-width:0.80000001;stroke-linecap:round;stroke-linejoin:round;stroke-miterlimit:3.86369991;stroke-opacity:1;stroke-dasharray:none"
       d="m 120.29589,12.651935 0,59.993" /><path
       inkscape:connector-curvature="0"
       id="path16"
       style="fill:none;stroke:#231f20;stroke-width:0.80000001;stroke-linecap:round;stroke-linejoin:round;stroke-miterlimit:3.86369991;stroke-opacity:1;stroke-dasharray:none"
       d="m 120.27189,14.909835 0,-6.4289503" /><path
       inkscape:connector-curvature="0"
       id="path18"
       style="fill:none;stroke:#231f20;stroke-width:0.80000001;stroke-linecap:round;stroke-linejoin:round;stroke-miterlimit:3.86369991;stroke-opacity:1;stroke-dasharray:none"
       d="m 127.27189,8.4808847 -14,0" /><path
       inkscape:connector-curvature="0"
       id="path20"
       style="fill:none;stroke:#231f20;stroke-width:0.80000001;stroke-linecap:round;stroke-linejoin:round;stroke-miterlimit:3.86369991;stroke-opacity:1;stroke-dasharray:none"
       d="m 125.77189,5.8359647 -11,0" /><path
       inkscape:connector-curvature="0"
       id="path22"
       style="fill:none;stroke:#231f20;stroke-width:0.80000001;stroke-linecap:round;stroke-linejoin:round;stroke-miterlimit:3.86369991;stroke-opacity:1;stroke-dasharray:none"
       d="m 124.27189,3.1918247 -8,0" /><path
       inkscape:connector-curvature="0"
       id="path46"
       style="fill:none;stroke:#231f20;stroke-width:0.80000001;stroke-linecap:round;stroke-linejoin:round;stroke-miterlimit:3.86369991;stroke-opacity:1;stroke-dasharray:none"
       d="m 245.30689,85.878935 73.633,0" /><path
       inkscape:connector-curvature="0"
       id="path48"
       style="fill:none;stroke:#231f20;stroke-width:0.80000001;stroke-linecap:round;stroke-linejoin:round;stroke-miterlimit:3.86369991;stroke-opacity:1;stroke-dasharray:none"
       d="m 16.319082,99.155933 0,-84.546898" /><path
       inkscape:connector-curvature="0"
       id="path50"
       style="fill:none;stroke:#231f20;stroke-width:0.80000001;stroke-linecap:round;stroke-linejoin:round;stroke-miterlimit:3.86369991;stroke-opacity:1;stroke-dasharray:none"
       d="m 194.41289,99.276933 -178.082088,0" /><path
       inkscape:connector-curvature="0"
       id="path52"
       style="fill:none;stroke:#231f20;stroke-width:0.80000001;stroke-linecap:round;stroke-linejoin:round;stroke-miterlimit:3.86369991;stroke-opacity:1;stroke-dasharray:none"
       d="m 120.58889,72.476935 73.824,0" /><path
       inkscape:connector-curvature="0"
       id="path54"
       style="fill:none;stroke:#231f20;stroke-width:0.80000001;stroke-linecap:round;stroke-linejoin:round;stroke-miterlimit:3.86369991;stroke-opacity:1;stroke-dasharray:none"
       d="m 226.18189,150.68793 -105.773,0 0,-52.515997" /><path
       inkscape:connector-curvature="0"
       id="path56"
       style="fill:none;stroke:#231f20;stroke-width:0.80000001;stroke-linecap:round;stroke-linejoin:round;stroke-miterlimit:3.86369991;stroke-opacity:1;stroke-dasharray:none"
       d="m 289.77189,85.878935 0,64.808995 -63.379,0" /><path
       inkscape:connector-curvature="0"
       id="path68"
       style="fill:#ffffff;fill-opacity:1;fill-rule:nonzero;stroke:none"
       d="m 122.15089,99.276933 c 0,-0.921 -0.746,-1.6679 -1.668,-1.6679 -0.922,0 -1.668,0.7469 -1.668,1.6679 0,0.917997 0.746,1.664097 1.668,1.664097 0.922,0 1.668,-0.7461 1.668,-1.664097" /><path
       inkscape:connector-curvature="0"
       id="path70"
       style="fill:none;stroke:#231f20;stroke-width:0.5;stroke-linecap:butt;stroke-linejoin:miter;stroke-miterlimit:4;stroke-opacity:1;stroke-dasharray:none"
       d="m 122.15089,99.276933 c 0,-0.921 -0.746,-1.6679 -1.668,-1.6679 -0.922,0 -1.668,0.7469 -1.668,1.6679 0,0.917997 0.746,1.664897 1.668,1.664897 0.922,0 1.668,-0.7469 1.668,-1.664897 z" /><path
       inkscape:connector-curvature="0"
       id="path72"
       style="fill:#ffffff;fill-opacity:1;fill-rule:nonzero;stroke:none"
       d="m 321.82289,85.741835 c 0,-0.918 -0.746,-1.6641 -1.668,-1.6641 -0.922,0 -1.668,0.7461 -1.668,1.6641 0,0.9223 0.746,1.668 1.668,1.668 0.922,0 1.668,-0.7457 1.668,-1.668" /><path
       inkscape:connector-curvature="0"
       id="path74"
       style="fill:none;stroke:#231f20;stroke-width:0.5;stroke-linecap:butt;stroke-linejoin:miter;stroke-miterlimit:4;stroke-opacity:1;stroke-dasharray:none"
       d="m 321.82289,85.741835 c 0,-0.918 -0.746,-1.6641 -1.668,-1.6641 -0.922,0 -1.668,0.7461 -1.668,1.6641 0,0.9223 0.746,1.668 1.668,1.668 0.922,0 1.668,-0.7457 1.668,-1.668 z" /><path
       inkscape:connector-curvature="0"
       id="path76"
       style="fill:#231f20;fill-opacity:1;fill-rule:nonzero;stroke:none"
       d="m 291.43989,85.878935 c 0,-0.9219 -0.746,-1.668 -1.668,-1.668 -0.922,0 -1.668,0.7461 -1.668,1.668 0,0.9219 0.746,1.668 1.668,1.668 0.922,0 1.668,-0.7461 1.668,-1.668" /><path
       inkscape:connector-curvature="0"
       id="path78"
       style="fill:none;stroke:#231f20;stroke-width:0.5;stroke-linecap:butt;stroke-linejoin:miter;stroke-miterlimit:4;stroke-opacity:1;stroke-dasharray:none"
       d="m 291.43989,85.878935 c 0,-0.9219 -0.746,-1.668 -1.668,-1.668 -0.922,0 -1.668,0.7461 -1.668,1.668 0,0.9219 0.746,1.668 1.668,1.668 0.922,0 1.668,-0.7461 1.668,-1.668 z" /><path
       inkscape:connector-curvature="0"
       id="path80"
       style="fill:#ffffff;fill-opacity:1;fill-rule:nonzero;stroke:none"
       d="m 50.572992,95.577733 32.4488,0 0,7.469137 -32.4488,0 0,-7.469137 z" /><path
       inkscape:connector-curvature="0"
       id="path82"
       style="fill:none;stroke:#231f20;stroke-width:0.80000001;stroke-linecap:round;stroke-linejoin:round;stroke-miterlimit:3.86369991;stroke-opacity:1;stroke-dasharray:none"
       d="m 83.244892,99.276933 -3.609,0 -1.5711,-3.6992 -3.152,7.469197 -3.1949,-7.469197 -3.1961,7.469197 -3.1519,-7.469197 -3.1211,7.469197 -3.152,-7.469197 -3.1961,7.371197 -1.5308,-3.671997 -3.7969,0" /><path
       inkscape:connector-curvature="0"
       id="path84"
       style="fill:#ffffff;fill-opacity:1;fill-rule:nonzero;stroke:none"
       d="m 192.43189,146.96493 32.4539,0 0,7.46914 -32.4539,0 0,-7.46914 z" /><path
       inkscape:connector-curvature="0"
       id="path86"
       style="fill:none;stroke:#231f20;stroke-width:0.80000001;stroke-linecap:round;stroke-linejoin:round;stroke-miterlimit:3.86369991;stroke-opacity:1;stroke-dasharray:none"
       d="m 225.10389,150.66393 -3.613,0 -1.566,-3.699 -3.153,7.469 -3.195,-7.469 -3.195,7.469 -3.153,-7.469 -3.121,7.469 -3.152,-7.469 -3.195,7.375 -1.532,-3.676 -3.797,0" /><path
       inkscape:connector-curvature="0"
       id="path88"
       style="fill:none;stroke:#231f20;stroke-width:0.80000001;stroke-linecap:round;stroke-linejoin:round;stroke-miterlimit:3.86369991;stroke-opacity:1;stroke-dasharray:none"
       d="m 16.310872,14.909835 0,-6.4289503" /><path
       inkscape:connector-curvature="0"
       id="path90"
       style="fill:none;stroke:#231f20;stroke-width:0.80000001;stroke-linecap:round;stroke-linejoin:round;stroke-miterlimit:3.86369991;stroke-opacity:1;stroke-dasharray:none"
       d="m 23.310892,8.4808847 -14.0000195,0" /><path
       inkscape:connector-curvature="0"
       id="path92"
       style="fill:none;stroke:#231f20;stroke-width:0.80000001;stroke-linecap:round;stroke-linejoin:round;stroke-miterlimit:3.86369991;stroke-opacity:1;stroke-dasharray:none"
       d="m 21.810892,5.8359647 -11.00002,0" /><path
       inkscape:connector-curvature="0"
       id="path94"
       style="fill:none;stroke:#231f20;stroke-width:0.80000001;stroke-linecap:round;stroke-linejoin:round;stroke-miterlimit:3.86369991;stroke-opacity:1;stroke-dasharray:none"
       d="m 20.310892,3.1918247 -8.00002,0" /><path
       inkscape:connector-curvature="0"
       id="path96"
       style="fill:#ffffff;fill-opacity:1;fill-rule:nonzero;stroke:none"
       d="m 321.82289,16.766035 c 0,-0.918 -0.746,-1.668 -1.668,-1.668 -0.922,0 -1.668,0.75 -1.668,1.668 0,0.918 0.746,1.668 1.668,1.668 0.922,0 1.668,-0.75 1.668,-1.668" /><path
       inkscape:connector-curvature="0"
       id="path98"
       style="fill:none;stroke:#231f20;stroke-width:0.5;stroke-linecap:butt;stroke-linejoin:miter;stroke-miterlimit:4;stroke-opacity:1;stroke-dasharray:none"
       d="m 321.82289,16.766035 c 0,-0.918 -0.746,-1.668 -1.668,-1.668 -0.922,0 -1.668,0.75 -1.668,1.668 0,0.918 0.746,1.668 1.668,1.668 0.922,0 1.668,-0.75 1.668,-1.668 z" /><path
       inkscape:connector-curvature="0"
       id="path100"
       style="fill:none;stroke:#231f20;stroke-width:0.80000001;stroke-linecap:round;stroke-linejoin:round;stroke-miterlimit:3.86369991;stroke-opacity:1;stroke-dasharray:none"
       d="m 320.13889,14.909835 0,-6.4289503" /><path
       inkscape:connector-curvature="0"
       id="path102"
       style="fill:none;stroke:#231f20;stroke-width:0.80000001;stroke-linecap:round;stroke-linejoin:round;stroke-miterlimit:3.86369991;stroke-opacity:1;stroke-dasharray:none"
       d="m 327.13889,8.4808847 -14,0" /><path
       inkscape:connector-curvature="0"
       id="path104"
       style="fill:none;stroke:#231f20;stroke-width:0.80000001;stroke-linecap:round;stroke-linejoin:round;stroke-miterlimit:3.86369991;stroke-opacity:1;stroke-dasharray:none"
       d="m 325.63889,5.8359647 -11,0" /><path
       inkscape:connector-curvature="0"
       id="path106"
       style="fill:none;stroke:#231f20;stroke-width:0.80000001;stroke-linecap:round;stroke-linejoin:round;stroke-miterlimit:3.86369991;stroke-opacity:1;stroke-dasharray:none"
       d="m 324.13889,3.1918247 -8,0" /><path
       inkscape:connector-curvature="0"
       id="path108"
       style="fill:none;stroke:#231f20;stroke-width:0.5;stroke-linecap:round;stroke-linejoin:round;stroke-miterlimit:3.86369991;stroke-opacity:1;stroke-dasharray:none"
       d="m 245.57689,85.894935 47.402,0" /><path
       inkscape:connector-curvature="0"
       id="path110"
       style="fill:none;stroke:#231f20;stroke-width:0.80000001;stroke-linecap:round;stroke-linejoin:round;stroke-miterlimit:3.86369991;stroke-opacity:1;stroke-dasharray:none"
       d="m 194.47889,99.276933 -56.07,0" /><path
       inkscape:connector-curvature="0"
       id="path112"
       style="fill:none;stroke:#231f20;stroke-width:0.80000001;stroke-linecap:round;stroke-linejoin:round;stroke-miterlimit:3.86369991;stroke-opacity:1;stroke-dasharray:none"
       d="m 138.42089,72.476935 56.058,0" /><path
       inkscape:connector-curvature="0"
       id="path114"
       style="fill:none;stroke:#231f20;stroke-width:0.95999998;stroke-linecap:round;stroke-linejoin:round;stroke-miterlimit:3.86369991;stroke-opacity:1;stroke-dasharray:none"
       d="m 194.47889,115.74193 51.125,-29.862995 -51.125,-29.8629 0,59.725895 z" /><g
       id="g116"
       transform="translate(10.005093,2.4395748)"><text
         id="text118"
         transform="matrix(-1.00001,-2e-5,-1e-5,1,193.573,72.5715)"><tspan
           id="tspan120"
           y="0"
           x="0"
           style="font-size:8.00016022px;font-variant:normal;writing-mode:lr-tb;fill:#231f20;fill-opacity:1;fill-rule:nonzero;stroke:none;font-family:f-2;-inkscape-font-specification:f-2-0">+</tspan><tspan
           id="tspan122"
           y="26.715067"
           x="0"
           style="font-size:8.00016022px;font-variant:normal;writing-mode:lr-tb;fill:#231f20;fill-opacity:1;fill-rule:nonzero;stroke:none;font-family:f-2;-inkscape-font-specification:f-2-0">−</tspan></text>
</g><path
       inkscape:connector-curvature="0"
       id="path124"
       style="fill:#ffffff;fill-opacity:1;fill-rule:nonzero;stroke:none"
       d="m 122.25689,72.476935 c 0,-0.9179 -0.746,-1.664 -1.668,-1.664 -0.922,0 -1.664,0.7461 -1.664,1.664 0,0.9219 0.742,1.668 1.664,1.668 0.922,0 1.668,-0.7461 1.668,-1.668" /><path
       inkscape:connector-curvature="0"
       id="path126"
       style="fill:none;stroke:#231f20;stroke-width:0.5;stroke-linecap:butt;stroke-linejoin:miter;stroke-miterlimit:4;stroke-opacity:1;stroke-dasharray:none"
       d="m 122.25689,72.476935 c 0,-0.9179 -0.746,-1.664 -1.668,-1.664 -0.922,0 -1.664,0.7461 -1.664,1.664 0,0.9219 0.742,1.668 1.664,1.668 0.922,0 1.668,-0.7461 1.668,-1.668 z" /><path
       inkscape:connector-curvature="0"
       id="path128"
       style="fill:#231f20;fill-opacity:1;fill-rule:nonzero;stroke:none"
       d="m 320.52589,81.237935 -0.441,0 0,-1.9141 -1.895,0 0,-0.4371 1.895,0 0,-1.9137 0.441,0 0,1.9137 1.895,0 0,0.4371 -1.895,0 0,1.9141" /><path
       inkscape:connector-curvature="0"
       id="path130"
       style="fill:#231f20;fill-opacity:1;fill-rule:nonzero;stroke:none"
       d="m 318.19789,20.621135 4.19102,0 0,0.441797 -4.19102,0 0,-0.441797 z" /><path
       d="m 29.19215,67.912627 6.5e-5,-2.175868 2.175912,6.5e-5 2e-5,-0.664089 -2.175912,-6.5e-5 6.5e-5,-2.175869 -0.656289,-1.9e-5 -6.5e-5,2.175868 -2.175912,-6.5e-5 -2e-5,0.664089 2.175912,6.5e-5 -6.5e-5,2.175869 0.656289,1.9e-5"
       style="font-size:8.00032043px;font-variant:normal;writing-mode:lr-tb;fill:#231f20;fill-opacity:1;fill-rule:nonzero;stroke:none;font-family:f-2;-inkscape-font-specification:f-2-0"
       id="path3817"
       inkscape:connector-curvature="0" /><path
       d="m 26.361186,41.052452 5.008113,1.51e-4 2e-5,-0.664089 -5.008113,-1.51e-4 -2e-5,0.664089"
       style="font-size:8.00032043px;font-variant:normal;writing-mode:lr-tb;fill:#231f20;fill-opacity:1;fill-rule:nonzero;stroke:none;font-family:f-2;-inkscape-font-specification:f-2-0"
       id="path3819"
       inkscape:connector-curvature="0" /><path
       inkscape:connector-curvature="0"
       id="path146"
       style="fill:#ffffff;fill-opacity:1;fill-rule:nonzero;stroke:none"
       d="m 26.272315,53.704686 c 0,-5.604164 -4.547176,-10.149632 -10.1513,-10.149632 -5.602652,0 -10.1440819,4.545468 -10.1440819,10.149632 0,5.604163 4.5414299,10.14569 10.1440819,10.14569 5.604124,0 10.1513,-4.541527 10.1513,-10.14569" /><path
       inkscape:connector-curvature="0"
       id="path148"
       style="fill:none;stroke:#231f20;stroke-width:0.80000001;stroke-linecap:round;stroke-linejoin:round;stroke-miterlimit:3.86369991;stroke-opacity:1;stroke-dasharray:none"
       d="m 26.272314,53.704687 c 0,-5.604164 -4.547175,-10.149632 -10.151299,-10.149632 -5.602652,0 -10.1440821,4.545468 -10.1440821,10.149632 0,5.604163 4.5414301,10.14569 10.1440821,10.14569 5.604124,0 10.151299,-4.541527 10.151299,-10.14569 z" /><g
       style="font-style:normal;font-variant:normal;font-weight:normal;font-stretch:normal;letter-spacing:normal;word-spacing:normal;text-anchor:start;fill:none;stroke:#000000;stroke-linecap:butt;stroke-linejoin:miter;stroke-miterlimit:10.43299961;stroke-opacity:1;stroke-dasharray:none;stroke-dashoffset:0"
       id="content"
       transform="matrix(1.2,0,0,1.2,-255.79423,-796.86755)"
       xml:space="preserve"
       stroke-miterlimit="10.433"
       font-style="normal"
       font-variant="normal"
       font-weight="normal"
       font-stretch="normal"
       font-size-adjust="none"
       letter-spacing="normal"
       word-spacing="normal"
       ns0:text="$v_i$"
       ns0:preamble="/home/sriranga/Desktop/MCT/package.tex"><path
         style="fill:#000000;stroke-width:0"
         inkscape:connector-curvature="0"
         d="m 223.64,711.13 0.02,0 0.02,0 0.02,0 0.02,0 0.02,0 0.01,0.01 0.02,0 0.02,0 0.04,0 0.01,0 0.02,0 0.02,0 0.02,0 0.02,0 0.02,0 c 0.39,0 0.49,-0.17 0.63,-1.09 0.1,-0.68 0.22,-2.18 0.22,-2.76 0,-0.27 0.01,-0.34 0.09,-0.34 0.24,0 1.17,1.05 2.18,2.46 0.35,0.5 0.61,1.14 0.61,1.51 0,0.32 -0.26,0.59 -0.56,0.59 -0.22,0 -0.37,-0.13 -0.37,-0.34 0,-0.16 0.06,-0.28 0.24,-0.44 0.13,-0.12 0.18,-0.2 0.18,-0.3 0,-0.45 -0.65,-1.56 -1.36,-2.29 l -0.31,-0.32 c -0.07,1.4 -0.13,1.92 -0.26,2.65 -0.2,1.02 -0.2,1.04 -0.29,1.04 -0.04,0 -0.12,-0.01 -0.2,-0.04 -0.17,-0.05 -0.72,-0.15 -1.1,-0.21 z"
         id="path3287" /><path
         style="fill:#000000;stroke-width:0"
         inkscape:connector-curvature="0"
         d="m 229.4,706.42 -0.01,-0.02 -0.02,-0.02 -0.01,-0.01 -0.02,-0.02 -0.01,-0.02 -0.01,-0.01 -0.01,-0.02 -0.01,-0.01 -0.01,-0.02 -0.01,-0.01 -0.01,-0.01 -0.01,-0.02 -0.01,-0.01 -0.01,-0.01 -0.01,-0.01 -0.01,-0.01 0,-0.01 -0.01,-0.01 -0.01,-0.01 -0.01,0 0,-0.01 -0.01,-0.01 -0.01,-0.01 -0.02,-0.02 -0.01,-0.01 -0.01,-0.02 -0.01,-0.01 c -0.12,-0.12 -0.23,-0.19 -0.29,-0.19 -0.06,0 -0.11,0.06 -0.11,0.11 0,0.06 0.02,0.17 0.07,0.3 0,0.02 0.02,0.07 0.03,0.13 v 0.01 l 0.01,0.02 0.61,2.23 -0.02,0.02 c -0.7,-0.13 -0.84,-0.16 -1.11,-0.18 v -0.11 c 0.37,0 0.44,-0.02 0.44,-0.16 0,-0.06 -0.02,-0.17 -0.07,-0.31 l -0.33,-1.23 c -0.11,-0.41 -0.15,-0.62 -0.15,-0.76 0,-0.26 0.11,-0.4 0.32,-0.4 0.32,0 0.58,0.21 0.97,0.8 z"
         id="path3289" /><path
         style="fill:#000000;stroke-width:0"
         inkscape:connector-curvature="0"
         d="m 229.35,710.18 -0.02,0 -0.02,0 -0.02,-0.01 -0.01,0 -0.02,0 -0.01,-0.01 -0.02,0 -0.01,-0.01 -0.02,-0.01 -0.01,0 -0.02,-0.01 -0.01,-0.01 -0.01,-0.01 -0.02,-0.01 -0.01,-0.02 -0.01,-0.01 -0.01,-0.01 -0.01,-0.01 -0.01,-0.02 -0.01,-0.01 -0.01,-0.02 0,-0.01 -0.01,-0.02 -0.01,-0.01 0,-0.02 -0.01,-0.02 0,-0.02 0,-0.01 -0.01,-0.02 0,-0.02 0,-0.02 0,-0.02 c 0,-0.22 0.13,-0.37 0.33,-0.37 0.18,0 0.35,0.16 0.35,0.36 0,0.2 -0.17,0.38 -0.35,0.38 z"
         id="path3291" /></g><g
       style="font-style:normal;font-variant:normal;font-weight:normal;font-stretch:normal;letter-spacing:normal;word-spacing:normal;text-anchor:start;fill:none;stroke:#000000;stroke-linecap:butt;stroke-linejoin:miter;stroke-miterlimit:10.43299961;stroke-opacity:1;stroke-dasharray:none;stroke-dashoffset:0"
       ns0:preamble="/home/sriranga/Desktop/MCT/package.tex"
       ns0:text="$R_1$"
       word-spacing="normal"
       letter-spacing="normal"
       font-size-adjust="none"
       font-stretch="normal"
       font-weight="normal"
       font-variant="normal"
       font-style="normal"
       stroke-miterlimit="10.433"
       xml:space="preserve"
       transform="matrix(1.2,0,0,1.2,-205.99489,-740.97858)"
       id="g3477"><path
         id="path3479"
         d="m 229.07,707.28 -0.04,0.01 -0.04,0 -0.03,0.01 -0.04,0 -0.04,0.01 -0.03,0.01 -0.03,0.01 -0.03,0.01 -0.03,0.01 -0.03,0.01 -0.03,0.01 -0.03,0.02 -0.03,0.01 -0.02,0.02 -0.03,0.02 -0.02,0.02 -0.03,0.02 -0.02,0.02 -0.02,0.03 -0.02,0.02 -0.02,0.03 -0.03,0.03 -0.02,0.03 -0.02,0.03 -0.01,0.04 -0.02,0.03 -0.02,0.04 -0.02,0.04 -0.02,0.04 -0.02,0.05 -0.02,0.04 -0.01,0.05 -0.93,2.43 c 0.77,0.17 1.1,0.31 1.45,0.63 0.33,0.29 0.51,0.67 0.51,1.12 0,0.92 -0.73,1.43 -2.07,1.43 l -0.21,-0.3 c 0.83,0 1.24,-0.37 1.24,-1.11 0,-0.98 -0.64,-1.49 -1.88,-1.49 -0.16,0 -0.27,0.01 -0.51,0.05 l 0.65,2.28 c 0.06,0.2 0.18,0.27 0.5,0.27 l 0.21,0.3 h -2.47 v -0.16 c 0.42,-0.06 0.47,-0.07 0.57,-0.14 0.08,-0.05 0.14,-0.16 0.14,-0.27 0,-0.12 -0.05,-0.36 -0.12,-0.63 l -1.22,-4.39 c -0.18,-0.59 -0.25,-0.65 -0.81,-0.74 v -0.16 h 2.43 v 0.16 c -0.61,0.08 -0.68,0.13 -0.68,0.46 0,0.1 0.03,0.23 0.12,0.58 l 0.56,2.07 0.65,-0.05 1.22,-3.22 h 1.47 z"
         inkscape:connector-curvature="0"
         style="fill:#000000;stroke-width:0" /><path
         id="path3481"
         d="m 231.55,710.33 -1.26,-0.63 v -0.1 c 0.09,0.04 0.16,0.06 0.19,0.08 0.12,0.05 0.24,0.08 0.31,0.08 0.15,0 0.21,-0.11 0.21,-0.33 v -3.15 c 0,-0.23 -0.05,-0.39 -0.16,-0.45 -0.11,-0.07 -0.21,-0.09 -0.5,-0.1 v -0.1 h 1.92 v 0.1 c -0.55,0.01 -0.66,0.08 -0.66,0.42 v 4.17 z"
         inkscape:connector-curvature="0"
         style="fill:#000000;stroke-width:0" /></g><g
       id="g3649"
       transform="matrix(1.2,0,0,1.2,-64.211232,-687.69887)"
       xml:space="preserve"
       stroke-miterlimit="10.433"
       font-style="normal"
       font-variant="normal"
       font-weight="normal"
       font-stretch="normal"
       font-size-adjust="none"
       letter-spacing="normal"
       word-spacing="normal"
       ns0:text="$R_f$"
       ns0:preamble="/home/sriranga/Desktop/MCT/package.tex"
       style="font-style:normal;font-variant:normal;font-weight:normal;font-stretch:normal;letter-spacing:normal;word-spacing:normal;text-anchor:start;fill:none;stroke:#000000;stroke-linecap:butt;stroke-linejoin:miter;stroke-miterlimit:10.43299961;stroke-opacity:1;stroke-dasharray:none;stroke-dashoffset:0"><path
         style="fill:#000000;stroke-width:0"
         inkscape:connector-curvature="0"
         d="m 229.07,707.28 -0.04,0.01 -0.04,0 -0.03,0.01 -0.04,0 -0.04,0.01 -0.03,0.01 -0.03,0.01 -0.03,0.01 -0.03,0.01 -0.03,0.01 -0.03,0.01 -0.03,0.02 -0.03,0.01 -0.02,0.02 -0.03,0.02 -0.02,0.02 -0.03,0.02 -0.02,0.02 -0.02,0.03 -0.02,0.02 -0.02,0.03 -0.03,0.03 -0.02,0.03 -0.02,0.03 -0.01,0.04 -0.02,0.03 -0.02,0.04 -0.02,0.04 -0.02,0.04 -0.02,0.05 -0.02,0.04 -0.01,0.05 -0.93,2.43 c 0.77,0.17 1.1,0.31 1.45,0.63 0.33,0.29 0.51,0.67 0.51,1.12 0,0.92 -0.73,1.43 -2.07,1.43 l -0.21,-0.3 c 0.83,0 1.24,-0.37 1.24,-1.11 0,-0.98 -0.64,-1.49 -1.88,-1.49 -0.16,0 -0.27,0.01 -0.51,0.05 l 0.65,2.28 c 0.06,0.2 0.18,0.27 0.5,0.27 l 0.21,0.3 h -2.47 v -0.16 c 0.42,-0.06 0.47,-0.07 0.57,-0.14 0.08,-0.05 0.14,-0.16 0.14,-0.27 0,-0.12 -0.05,-0.36 -0.12,-0.63 l -1.22,-4.39 c -0.18,-0.59 -0.25,-0.65 -0.81,-0.74 v -0.16 h 2.43 v 0.16 c -0.61,0.08 -0.68,0.13 -0.68,0.46 0,0.1 0.03,0.23 0.12,0.58 l 0.56,2.07 0.65,-0.05 1.22,-3.22 h 1.47 z"
         id="path3651" /><path
         style="fill:#000000;stroke-width:0"
         inkscape:connector-curvature="0"
         d="m 230.81,708.39 h 0.63 l -0.62,-2.93 c -0.15,-0.74 -0.38,-1.12 -0.67,-1.12 -0.09,0 -0.14,0.05 -0.14,0.11 0,0.02 0,0.04 0.03,0.08 0.02,0.04 0.03,0.06 0.03,0.11 0,0.14 -0.12,0.26 -0.27,0.26 -0.15,0 -0.26,-0.12 -0.26,-0.28 0,-0.24 0.25,-0.43 0.55,-0.43 0.62,0 1.11,0.69 1.39,1.97 l 0.51,2.23 h 0.75 l 0.05,0.22 h -0.75 c 0.2,1.09 0.45,1.58 0.84,1.58 0.1,0 0.16,-0.03 0.16,-0.08 0,-0.02 -0.01,-0.04 -0.03,-0.07 -0.03,-0.06 -0.04,-0.1 -0.04,-0.15 0,-0.16 0.1,-0.28 0.26,-0.28 0.16,0 0.29,0.13 0.29,0.28 0,0.26 -0.26,0.46 -0.6,0.46 -0.34,0 -0.61,-0.16 -0.87,-0.48 -0.2,-0.28 -0.34,-0.59 -0.55,-1.26 h -0.64 z"
         id="path3653" /></g><g
       style="font-style:normal;font-variant:normal;font-weight:normal;font-stretch:normal;letter-spacing:normal;word-spacing:normal;text-anchor:start;fill:none;stroke:#000000;stroke-linecap:butt;stroke-linejoin:miter;stroke-miterlimit:10.43299961;stroke-opacity:1;stroke-dasharray:none;stroke-dashoffset:0"
       ns0:preamble="/home/sriranga/Desktop/MCT/package.tex"
       ns0:text="$v_o$"
       word-spacing="normal"
       letter-spacing="normal"
       font-size-adjust="none"
       font-stretch="normal"
       font-weight="normal"
       font-variant="normal"
       font-style="normal"
       stroke-miterlimit="10.433"
       xml:space="preserve"
       transform="matrix(1.2,0,0,1.2,56.463669,-765.71045)"
       id="g3812"><path
         id="path3814"
         d="m 223.64,711.13 0.02,0 0.02,0 0.02,0 0.02,0 0.02,0 0.01,0.01 0.02,0 0.02,0 0.04,0 0.01,0 0.02,0 0.02,0 0.02,0 0.02,0 0.02,0 c 0.39,0 0.49,-0.17 0.63,-1.09 0.1,-0.68 0.22,-2.18 0.22,-2.76 0,-0.27 0.01,-0.34 0.09,-0.34 0.24,0 1.17,1.05 2.18,2.46 0.35,0.5 0.61,1.14 0.61,1.51 0,0.32 -0.26,0.59 -0.56,0.59 -0.22,0 -0.37,-0.13 -0.37,-0.34 0,-0.16 0.06,-0.28 0.24,-0.44 0.13,-0.12 0.18,-0.2 0.18,-0.3 0,-0.45 -0.65,-1.56 -1.36,-2.29 l -0.31,-0.32 c -0.07,1.4 -0.13,1.92 -0.26,2.65 -0.2,1.02 -0.2,1.04 -0.29,1.04 -0.04,0 -0.12,-0.01 -0.2,-0.04 -0.17,-0.05 -0.72,-0.15 -1.1,-0.21 z"
         inkscape:connector-curvature="0"
         style="fill:#000000;stroke-width:0" /><path
         id="path3816"
         d="m 230.12,708.7 -0.08,-0.15 c 0.3,0 0.49,-0.26 0.49,-0.65 0,-0.51 -0.23,-1.2 -0.54,-1.66 -0.25,-0.37 -0.52,-0.54 -0.82,-0.54 -0.32,0 -0.54,0.25 -0.54,0.63 0,0.52 0.2,1.13 0.54,1.62 0.27,0.39 0.57,0.6 0.87,0.6 h 0 l 0.08,0.15 c -1.05,0 -2.08,-1.08 -2.08,-2.17 0,-0.6 0.39,-0.98 1.03,-0.98 0.46,0 0.9,0.21 1.31,0.61 0.46,0.45 0.74,1.04 0.74,1.56 0,0.58 -0.41,0.98 -1,0.98 z"
         inkscape:connector-curvature="0"
         style="fill:#000000;stroke-width:0" /></g><text
       xml:space="preserve"
       style="font-size:9.60000038px;font-style:normal;font-variant:normal;font-weight:normal;font-stretch:normal;text-align:end;line-height:100%;letter-spacing:0px;word-spacing:0px;text-anchor:end;fill:#000000;fill-opacity:1;stroke:none;font-family:LMRoman12;-inkscape-font-specification:LMRoman12"
       x="126.83285"
       y="-102.13071"
       id="text3887"
       sodipodi:linespacing="100%"
       transform="scale(1,-1)"><tspan
         sodipodi:role="line"
         id="tspan3889"
         x="126.83285"
         y="-102.13071">1</tspan></text>
<text
       xml:space="preserve"
       style="font-size:9.60000038px;font-style:normal;font-variant:normal;font-weight:normal;font-stretch:normal;text-align:end;line-height:100%;letter-spacing:0px;word-spacing:0px;text-anchor:end;fill:#000000;fill-opacity:1;stroke:none;font-family:LMRoman12;-inkscape-font-specification:LMRoman12"
       x="126.96919"
       y="-63.408905"
       id="text3891"
       sodipodi:linespacing="100%"
       transform="scale(1,-1)"><tspan
         sodipodi:role="line"
         id="tspan3893"
         x="126.96919"
         y="-63.408905">2</tspan></text>
</g></svg>