<?xml version="1.0" encoding="UTF-8" standalone="no"?>
<!-- Created with Inkscape (http://www.inkscape.org/) -->

<svg
   xmlns:ns0="http://www.iki.fi/pav/software/textext/"
   xmlns:dc="http://purl.org/dc/elements/1.1/"
   xmlns:cc="http://creativecommons.org/ns#"
   xmlns:rdf="http://www.w3.org/1999/02/22-rdf-syntax-ns#"
   xmlns:svg="http://www.w3.org/2000/svg"
   xmlns="http://www.w3.org/2000/svg"
   xmlns:sodipodi="http://sodipodi.sourceforge.net/DTD/sodipodi-0.dtd"
   xmlns:inkscape="http://www.inkscape.org/namespaces/inkscape"
   width="425.19684"
   height="283.46457"
   id="svg2"
   version="1.1"
   inkscape:version="0.48.4 r9939"
   sodipodi:docname="S3-EE-06-015.svg">
  <sodipodi:namedview
     id="base"
     pagecolor="#ffffff"
     bordercolor="#666666"
     borderopacity="1.0"
     inkscape:pageopacity="0.0"
     inkscape:pageshadow="2"
     inkscape:zoom="3.8310507"
     inkscape:cx="211.97387"
     inkscape:cy="140.57687"
     inkscape:document-units="cm"
     inkscape:current-layer="layer1"
     showgrid="false"
     units="cm"
     inkscape:object-nodes="true"
     inkscape:window-width="1366"
     inkscape:window-height="744"
     inkscape:window-x="0"
     inkscape:window-y="24"
     inkscape:window-maximized="1"
     showguides="true"
     inkscape:guide-bbox="true">
    <inkscape:grid
       type="xygrid"
       id="grid2985"
       empspacing="5"
       visible="true"
       enabled="true"
       snapvisiblegridlinesonly="true" />
  </sodipodi:namedview>
  <defs
     id="defs4">
    <marker
       style="overflow:visible"
       id="Arrow1Mstart"
       refX="0.0"
       refY="0.0"
       orient="auto"
       inkscape:stockid="Arrow1Mstart">
      <path
         transform="scale(0.4) translate(10,0)"
         style="fill-rule:evenodd;stroke:#000000;stroke-width:1.0pt"
         d="M 0.0,0.0 L 5.0,-5.0 L -12.5,0.0 L 5.0,5.0 L 0.0,0.0 z "
         id="path6343" />
    </marker>
    <marker
       inkscape:stockid="Arrow1Mend"
       orient="auto"
       refY="0"
       refX="0"
       id="Arrow1Mend"
       style="overflow:visible">
      <path
         id="path3949"
         d="M 0,0 5,-5 -12.5,0 5,5 0,0 z"
         style="fill-rule:evenodd;stroke:#000000;stroke-width:1pt"
         transform="matrix(-0.4,0,0,-0.4,-4,0)"
         inkscape:connector-curvature="0" />
    </marker>
    <marker
       inkscape:stockid="Arrow1Mend"
       orient="auto"
       refY="0"
       refX="0"
       id="Arrow1Mend-0"
       style="overflow:visible">
      <path
         id="path3949-9"
         d="M 0,0 5,-5 -12.5,0 5,5 0,0 z"
         style="fill-rule:evenodd;stroke:#000000;stroke-width:1pt"
         transform="matrix(-0.4,0,0,-0.4,-4,0)"
         inkscape:connector-curvature="0" />
    </marker>
  </defs>
  <metadata
     id="metadata7">
    <rdf:RDF>
      <cc:Work
         rdf:about="">
        <dc:format>image/svg+xml</dc:format>
        <dc:type
           rdf:resource="http://purl.org/dc/dcmitype/StillImage" />
        <dc:title></dc:title>
      </cc:Work>
    </rdf:RDF>
  </metadata>
  <g
     inkscape:label="Layer 1"
     inkscape:groupmode="layer"
     id="layer1"
     transform="translate(0,-768.89631)">
    <path
       d="m 166.40945,936.22765 c -0.24,0.32 -0.31,0.4 -0.41,0.51 -0.17,0.17 -0.32,0.27 -0.41,0.27 -0.08,0 -0.16,-0.08 -0.16,-0.15 0,-0.1 0.03,-0.25 0.1,-0.44 0,-0.03 0.03,-0.1 0.05,-0.18 l 0,-0.02 0.01,-0.02 0.88,-3.22 -0.03,-0.02 c -1.01,0.19 -1.21,0.22 -1.6,0.25 l 0,0.16 c 0.53,0.01 0.63,0.04 0.63,0.24 0,0.08 -0.03,0.24 -0.09,0.44 l -0.48,1.77 c -0.16,0.58 -0.22,0.89 -0.22,1.09 0,0.37 0.16,0.57 0.46,0.57 0.46,0 0.83,-0.3 1.4,-1.14 l -0.13,-0.11 m -0.08,-5.4 c -0.27,0 -0.47,0.23 -0.47,0.53 0,0.32 0.19,0.53 0.48,0.53 0.26,0 0.49,-0.23 0.49,-0.51 0,-0.29 -0.23,-0.55 -0.5,-0.55"
       style="font-size:8px;font-style:italic;font-variant:normal;writing-mode:lr-tb;fill:#231f20;fill-opacity:1;fill-rule:nonzero;stroke:none;font-family:Times;-inkscape-font-specification:Times-Italic"
       id="path3035"
       inkscape:connector-curvature="0" />
    <path
       d="m 170.53222,938.84015 -0.0975,-0.0375 c -0.2775,0.4275 -0.375,0.495 -0.7125,0.495 l -1.7925,0 1.26,-1.32 c 0.6675,-0.6975 0.96,-1.2675 0.96,-1.8525 0,-0.75 -0.6075,-1.3275 -1.3875,-1.3275 -0.4125,0 -0.8025,0.165 -1.08,0.465 -0.24,0.255 -0.3525,0.495 -0.48,1.0275 l 0.1575,0.0375 c 0.3,-0.735 0.57,-0.975 1.0875,-0.975 0.63,0 1.0575,0.4275 1.0575,1.0575 0,0.585 -0.345,1.2825 -0.975,1.95 l -1.335,1.4175 0,0.09 2.925,0 0.4125,-1.0275"
       style="font-size:6px;font-variant:normal;font-weight:normal;writing-mode:lr-tb;fill:#231f20;fill-opacity:1;fill-rule:nonzero;stroke:none;font-family:Times;-inkscape-font-specification:Times-Roman"
       id="path3038"
       inkscape:connector-curvature="0" />
    <path
       id="path10098"
       style="fill:none;stroke:#231f20;stroke-width:0.625;stroke-linecap:round;stroke-linejoin:round;stroke-miterlimit:3.86369991;stroke-opacity:1;stroke-dasharray:none"
       d="m 224.5302,891.11765 -26.24263,0 c 0,0 -40.625,-1.875 -40.625,36.25 l 0,5.625"
       inkscape:connector-curvature="0" />
    <path
       id="path10100"
       style="fill:#231f20;fill-opacity:1;fill-rule:nonzero;stroke:none"
       d="m 157.66257,932.2749 2.53313,-1.5405 0.0576,0.0864 -1.64113,4.13087 c -0.31638,1.4395 -0.63275,2.87837 -0.94963,4.31788 -0.31687,-1.43951 -0.63337,-2.87838 -0.95075,-4.31788 l -1.64062,-4.13087 0.0435,-0.0864 2.54787,1.5405"
       inkscape:connector-curvature="0" />
    <path
       id="path10102"
       style="fill:none;stroke:#231f20;stroke-width:1;stroke-linecap:round;stroke-linejoin:round;stroke-miterlimit:3.86369991;stroke-opacity:1;stroke-dasharray:none"
       d="m 275.13345,872.34665 -61.469,0 -0.35687,-0.002 -68.54397,0 0,79.9355"
       inkscape:connector-curvature="0" />
    <path
       d="m 137.95095,869.0169 -1.8,0.91 0,0.14 c 0.12,-0.05 0.23,-0.09 0.27,-0.11 0.18,-0.07 0.35,-0.11 0.45,-0.11 0.21,0 0.3,0.15 0.3,0.47 l 0,4.53 c 0,0.33 -0.08,0.56 -0.24,0.65 -0.15,0.09 -0.29,0.12 -0.71,0.13 l 0,0.15 2.76,0 0,-0.15 c -0.79,-0.01 -0.95,-0.11 -0.95,-0.59 l 0,-6 -0.08,-0.02"
       style="font-size:8px;font-variant:normal;font-weight:normal;writing-mode:lr-tb;fill:#231f20;fill-opacity:1;fill-rule:nonzero;stroke:none;font-family:Times;-inkscape-font-specification:Times-Roman"
       id="path3041"
       inkscape:connector-curvature="0" />
    <path
       d="m 139.79095,951.9654 -0.13,-0.05 c -0.37,0.57 -0.5,0.66 -0.95,0.66 l -2.39,0 1.68,-1.76 c 0.89,-0.93 1.28,-1.69001 1.28,-2.47 0,-1 -0.81,-1.77 -1.85,-1.77 -0.55,0 -1.07,0.22 -1.44,0.62 -0.32,0.34 -0.47,0.66 -0.64,1.37 l 0.21,0.05 c 0.4,-0.98 0.76,-1.3 1.45,-1.3 0.84,0 1.41,0.57 1.41,1.41 0,0.77999 -0.46,1.71 -1.3,2.6 l -1.78,1.89 0,0.12 3.9,0 0.55,-1.37"
       style="font-size:8px;font-variant:normal;font-weight:normal;writing-mode:lr-tb;fill:#231f20;fill-opacity:1;fill-rule:nonzero;stroke:none;font-family:Times;-inkscape-font-specification:Times-Roman"
       id="path3043"
       inkscape:connector-curvature="0" />
    <path
       id="path10120"
       style="fill:#ffffff;fill-opacity:1;fill-rule:nonzero;stroke:none"
       d="m 277.0497,872.34665 c 0,1.15138 -0.9325,2.084 -2.0825,2.084 -1.15125,0 -2.085,-0.93262 -2.085,-2.084 0,-1.15087 0.93375,-2.0835 2.085,-2.0835 1.15,0 2.0825,0.93263 2.0825,2.0835"
       inkscape:connector-curvature="0" />
    <path
       id="path10122"
       style="fill:none;stroke:#231f20;stroke-width:0.625;stroke-linecap:butt;stroke-linejoin:miter;stroke-miterlimit:4;stroke-opacity:1;stroke-dasharray:none"
       d="m 277.0497,872.34665 c 0,1.15138 -0.9325,2.084 -2.0825,2.084 -1.15125,0 -2.085,-0.93262 -2.085,-2.084 0,-1.15087 0.93375,-2.0835 2.085,-2.0835 1.15,0 2.0825,0.93263 2.0825,2.0835 z"
       inkscape:connector-curvature="0" />
    <path
       id="path10124"
       style="fill:#ffffff;fill-opacity:1;fill-rule:nonzero;stroke:none"
       d="m 146.84759,872.34665 c 0,1.15138 -0.93262,2.084 -2.08398,2.084 -1.15089,0 -2.0835,-0.93262 -2.0835,-2.084 0,-1.15087 0.93261,-2.0835 2.0835,-2.0835 1.15136,0 2.08398,0.93263 2.08398,2.0835"
       inkscape:connector-curvature="0" />
    <path
       id="path10126"
       style="fill:none;stroke:#231f20;stroke-width:0.625;stroke-linecap:butt;stroke-linejoin:miter;stroke-miterlimit:4;stroke-opacity:1;stroke-dasharray:none"
       d="m 146.84759,872.34665 c 0,1.15138 -0.93262,2.084 -2.08398,2.084 -1.15089,0 -2.0835,-0.93262 -2.0835,-2.084 0,-1.15087 0.93261,-2.0835 2.0835,-2.0835 1.15136,0 2.08398,0.93263 2.08398,2.0835 z"
       inkscape:connector-curvature="0" />
    <path
       id="path10128"
       style="fill:#ffffff;fill-opacity:1;fill-rule:nonzero;stroke:none"
       d="m 187.58008,876.99752 40.564,0 0,-9.33593 -40.564,0 0,9.33593 z"
       inkscape:connector-curvature="0" />
    <path
       id="path10130"
       style="fill:none;stroke:#231f20;stroke-width:1;stroke-linecap:round;stroke-linejoin:round;stroke-miterlimit:3.86369991;stroke-opacity:1;stroke-dasharray:none"
       d="m 228.42232,872.37352 -4.51512,0 -1.96287,4.624 -3.93713,-9.33587 -3.99412,9.33587 -3.9965,-9.33587 -3.938,9.33587 -3.90388,-9.33587 -3.938,9.33587 -3.9965,-9.21574 -1.91162,4.59174 -4.7485,0"
       inkscape:connector-curvature="0" />
    <path
       id="path10132"
       style="fill:none;stroke:#231f20;stroke-width:1;stroke-linecap:round;stroke-linejoin:round;stroke-miterlimit:3.86369991;stroke-opacity:1;stroke-dasharray:none"
       d="m 144.75237,951.7329 0,8.03713"
       inkscape:connector-curvature="0" />
    <path
       id="path10134"
       style="fill:none;stroke:#231f20;stroke-width:1;stroke-linecap:round;stroke-linejoin:round;stroke-miterlimit:3.86369991;stroke-opacity:1;stroke-dasharray:none"
       d="m 153.50233,959.77003 -17.49995,0"
       inkscape:connector-curvature="0" />
    <path
       id="path10136"
       style="fill:none;stroke:#231f20;stroke-width:1;stroke-linecap:round;stroke-linejoin:round;stroke-miterlimit:3.86369991;stroke-opacity:1;stroke-dasharray:none"
       d="m 151.62733,963.07569 -13.74996,0"
       inkscape:connector-curvature="0" />
    <path
       id="path10138"
       style="fill:none;stroke:#231f20;stroke-width:1;stroke-linecap:round;stroke-linejoin:round;stroke-miterlimit:3.86369991;stroke-opacity:1;stroke-dasharray:none"
       d="m 149.75233,966.37891 -9.99996,0"
       inkscape:connector-curvature="0" />
    <path
       id="path10140"
       style="fill:none;stroke:#231f20;stroke-width:1;stroke-linecap:round;stroke-linejoin:round;stroke-miterlimit:3.86369991;stroke-opacity:1;stroke-dasharray:none"
       d="m 275.64345,951.5484 0,8.03705"
       inkscape:connector-curvature="0" />
    <path
       id="path10142"
       style="fill:none;stroke:#231f20;stroke-width:1;stroke-linecap:round;stroke-linejoin:round;stroke-miterlimit:3.86369991;stroke-opacity:1;stroke-dasharray:none"
       d="m 284.39345,959.58545 -17.5,0"
       inkscape:connector-curvature="0" />
    <path
       id="path10144"
       style="fill:none;stroke:#231f20;stroke-width:1;stroke-linecap:round;stroke-linejoin:round;stroke-miterlimit:3.86369991;stroke-opacity:1;stroke-dasharray:none"
       d="m 282.51845,962.89111 -13.75,0"
       inkscape:connector-curvature="0" />
    <path
       id="path10146"
       style="fill:none;stroke:#231f20;stroke-width:1;stroke-linecap:round;stroke-linejoin:round;stroke-miterlimit:3.86369991;stroke-opacity:1;stroke-dasharray:none"
       d="m 280.64345,966.19434 -10,0"
       inkscape:connector-curvature="0" />
    <path
       id="path10148"
       style="fill:#ffffff;fill-opacity:1;fill-rule:nonzero;stroke:none"
       d="m 146.84759,950.43834 c 0,1.15088 -0.93262,2.08348 -2.08398,2.08348 -1.15089,0 -2.0835,-0.9326 -2.0835,-2.08348 0,-1.15137 0.93261,-2.08399 2.0835,-2.08399 1.15136,0 2.08398,0.93262 2.08398,2.08399"
       inkscape:connector-curvature="0" />
    <path
       id="path10150"
       style="fill:none;stroke:#231f20;stroke-width:0.625;stroke-linecap:butt;stroke-linejoin:miter;stroke-miterlimit:4;stroke-opacity:1;stroke-dasharray:none"
       d="m 146.84759,950.43834 c 0,1.15088 -0.93262,2.08348 -2.08398,2.08348 -1.15089,0 -2.0835,-0.9326 -2.0835,-2.08348 0,-1.15137 0.93261,-2.08399 2.0835,-2.08399 1.15136,0 2.08398,0.93262 2.08398,2.08399 z"
       inkscape:connector-curvature="0" />
    <path
       id="path10152"
       style="fill:#ffffff;fill-opacity:1;fill-rule:nonzero;stroke:none"
       d="m 277.7222,949.4414 c 0,1.15288 -0.93375,2.085 -2.085,2.085 -1.15,0 -2.0825,-0.93212 -2.0825,-2.085 0,-1.14937 0.9325,-2.082 2.0825,-2.082 1.15125,0 2.085,0.93263 2.085,2.082"
       inkscape:connector-curvature="0" />
    <path
       id="path10154"
       style="fill:none;stroke:#231f20;stroke-width:0.625;stroke-linecap:butt;stroke-linejoin:miter;stroke-miterlimit:4;stroke-opacity:1;stroke-dasharray:none"
       d="m 277.7222,949.4414 c 0,1.15288 -0.93375,2.085 -2.085,2.085 -1.15,0 -2.0825,-0.93212 -2.0825,-2.085 0,-1.14937 0.9325,-2.082 2.0825,-2.082 1.15125,0 2.085,0.93263 2.085,2.082 z"
       inkscape:connector-curvature="0" />
    <g
       style="font-style:normal;font-variant:normal;font-weight:normal;font-stretch:normal;letter-spacing:normal;word-spacing:normal;text-anchor:start;fill:none;stroke:#000000;stroke-linecap:butt;stroke-linejoin:miter;stroke-miterlimit:10.43299961;stroke-opacity:1;stroke-dasharray:none;stroke-dashoffset:0"
       id="content"
       transform="matrix(1,0,0,-1,48.396305,1589.9915)"
       xml:space="preserve"
       stroke-miterlimit="10.433"
       font-style="normal"
       font-variant="normal"
       font-weight="normal"
       font-stretch="normal"
       font-size-adjust="none"
       letter-spacing="normal"
       word-spacing="normal"
       ns0:text="$+$"
       ns0:preamble="/home/sriranga/Desktop/Basic-Electronics-Figures/package.tex"><polygon
         style="fill:#000000;stroke-width:0"
         points="226.87,709.96 226.87,712.2 226.32,712.2 226.32,709.96 224.05,709.96 224.05,709.4 226.32,709.4 226.32,707.12 226.87,707.12 226.87,709.4 229.14,709.4 229.14,709.96 "
         id="polygon10261" /></g>    <g
       style="font-style:normal;font-variant:normal;font-weight:normal;font-stretch:normal;letter-spacing:normal;word-spacing:normal;text-anchor:start;fill:none;stroke:#000000;stroke-linecap:butt;stroke-linejoin:miter;stroke-miterlimit:10.43299961;stroke-opacity:1;stroke-dasharray:none;stroke-dashoffset:0"
       ns0:preamble="/home/sriranga/Desktop/Basic-Electronics-Figures/package.tex"
       ns0:text="$-$"
       text-anchor="start"
       word-spacing="normal"
       letter-spacing="normal"
       font-size-adjust="none"
       font-stretch="normal"
       font-weight="normal"
       font-variant="normal"
       font-style="normal"
       fill-opacity="1"
       fill-rule="evenodd"
       fill="none"
       stroke-opacity="1"
       stroke-dashoffset="0"
       stroke-dasharray="none"
       stroke-miterlimit="10.433"
       stroke-linejoin="miter"
       stroke-linecap="butt"
       stroke="black"
       xml:space="preserve"
       transform="matrix(1,0,0,-1,48.396305,1651.7686)"
       id="g10375"><polygon
         id="polygon10377"
         fill="black"
         stroke-width="0"
         points="229.14,709.4 229.14,709.96 224.05,709.96 224.05,709.4 " /></g>    <g
       style="font-style:normal;font-variant:normal;font-weight:normal;font-stretch:normal;letter-spacing:normal;word-spacing:normal;text-anchor:start;fill:none;stroke:#000000;stroke-linecap:butt;stroke-linejoin:miter;stroke-miterlimit:10.43299961;stroke-opacity:1;stroke-dasharray:none;stroke-dashoffset:0"
       id="g3990"
       transform="matrix(1,0,0,-1,57.486799,1581.9826)"
       xml:space="preserve"
       stroke-miterlimit="10.433"
       font-style="normal"
       font-variant="normal"
       font-weight="normal"
       font-stretch="normal"
       font-size-adjust="none"
       letter-spacing="normal"
       word-spacing="normal"
       ns0:text="$v_o$"
       ns0:preamble="/home/sriranga/Desktop/MCT/package.tex"><path
         style="fill:#000000;stroke-width:0"
         inkscape:connector-curvature="0"
         d="m 223.64,711.13 0.02,0 0.02,0 0.02,0 0.02,0 0.02,0 0.01,0.01 0.02,0 0.02,0 0.04,0 0.01,0 0.02,0 0.02,0 0.02,0 0.02,0 0.02,0 c 0.39,0 0.49,-0.17 0.63,-1.09 0.1,-0.68 0.22,-2.18 0.22,-2.76 0,-0.27 0.01,-0.34 0.09,-0.34 0.24,0 1.17,1.05 2.18,2.46 0.35,0.5 0.61,1.14 0.61,1.51 0,0.32 -0.26,0.59 -0.56,0.59 -0.22,0 -0.37,-0.13 -0.37,-0.34 0,-0.16 0.06,-0.28 0.24,-0.44 0.13,-0.12 0.18,-0.2 0.18,-0.3 0,-0.45 -0.65,-1.56 -1.36,-2.29 l -0.31,-0.32 c -0.07,1.4 -0.13,1.92 -0.26,2.65 -0.2,1.02 -0.2,1.04 -0.29,1.04 -0.04,0 -0.12,-0.01 -0.2,-0.04 -0.17,-0.05 -0.72,-0.15 -1.1,-0.21 z"
         id="path3992" /><path
         style="fill:#000000;stroke-width:0"
         inkscape:connector-curvature="0"
         d="m 230.12,708.7 -0.08,-0.15 c 0.3,0 0.49,-0.26 0.49,-0.65 0,-0.51 -0.23,-1.2 -0.54,-1.66 -0.25,-0.37 -0.52,-0.54 -0.82,-0.54 -0.32,0 -0.54,0.25 -0.54,0.63 0,0.52 0.2,1.13 0.54,1.62 0.27,0.39 0.57,0.6 0.87,0.6 h 0 l 0.08,0.15 c -1.05,0 -2.08,-1.08 -2.08,-2.17 0,-0.6 0.39,-0.98 1.03,-0.98 0.46,0 0.9,0.21 1.31,0.61 0.46,0.45 0.74,1.04 0.74,1.56 0,0.58 -0.41,0.98 -1,0.98 z"
         id="path3994" /></g>    <g
       style="font-style:normal;font-variant:normal;font-weight:normal;font-stretch:normal;letter-spacing:normal;word-spacing:normal;text-anchor:start;fill:none;stroke:#000000;stroke-linecap:butt;stroke-linejoin:miter;stroke-miterlimit:10.43299961;stroke-opacity:1;stroke-dasharray:none;stroke-dashoffset:0"
       ns0:preamble="/home/sriranga/Desktop/MCT/package.tex"
       ns0:text="$R_f$"
       word-spacing="normal"
       letter-spacing="normal"
       font-size-adjust="none"
       font-stretch="normal"
       font-weight="normal"
       font-variant="normal"
       font-style="normal"
       stroke-miterlimit="10.433"
       xml:space="preserve"
       transform="matrix(1,0,0,-1,-17.890515,1570.2991)"
       id="g4094"><path
         id="path4096"
         d="m 229.07,707.28 -0.04,0.01 -0.04,0 -0.03,0.01 -0.04,0 -0.04,0.01 -0.03,0.01 -0.03,0.01 -0.03,0.01 -0.03,0.01 -0.03,0.01 -0.03,0.01 -0.03,0.02 -0.03,0.01 -0.02,0.02 -0.03,0.02 -0.02,0.02 -0.03,0.02 -0.02,0.02 -0.02,0.03 -0.02,0.02 -0.02,0.03 -0.03,0.03 -0.02,0.03 -0.02,0.03 -0.01,0.04 -0.02,0.03 -0.02,0.04 -0.02,0.04 -0.02,0.04 -0.02,0.05 -0.02,0.04 -0.01,0.05 -0.93,2.43 c 0.77,0.17 1.1,0.31 1.45,0.63 0.33,0.29 0.51,0.67 0.51,1.12 0,0.92 -0.73,1.43 -2.07,1.43 l -0.21,-0.3 c 0.83,0 1.24,-0.37 1.24,-1.11 0,-0.98 -0.64,-1.49 -1.88,-1.49 -0.16,0 -0.27,0.01 -0.51,0.05 l 0.65,2.28 c 0.06,0.2 0.18,0.27 0.5,0.27 l 0.21,0.3 h -2.47 v -0.16 c 0.42,-0.06 0.47,-0.07 0.57,-0.14 0.08,-0.05 0.14,-0.16 0.14,-0.27 0,-0.12 -0.05,-0.36 -0.12,-0.63 l -1.22,-4.39 c -0.18,-0.59 -0.25,-0.65 -0.81,-0.74 v -0.16 h 2.43 v 0.16 c -0.61,0.08 -0.68,0.13 -0.68,0.46 0,0.1 0.03,0.23 0.12,0.58 l 0.56,2.07 0.65,-0.05 1.22,-3.22 h 1.47 z"
         inkscape:connector-curvature="0"
         style="fill:#000000;stroke-width:0" /><path
         id="path4098"
         d="m 230.81,708.39 h 0.63 l -0.62,-2.93 c -0.15,-0.74 -0.38,-1.12 -0.67,-1.12 -0.09,0 -0.14,0.05 -0.14,0.11 0,0.02 0,0.04 0.03,0.08 0.02,0.04 0.03,0.06 0.03,0.11 0,0.14 -0.12,0.26 -0.27,0.26 -0.15,0 -0.26,-0.12 -0.26,-0.28 0,-0.24 0.25,-0.43 0.55,-0.43 0.62,0 1.11,0.69 1.39,1.97 l 0.51,2.23 h 0.75 l 0.05,0.22 h -0.75 c 0.2,1.09 0.45,1.58 0.84,1.58 0.1,0 0.16,-0.03 0.16,-0.08 0,-0.02 -0.01,-0.04 -0.03,-0.07 -0.03,-0.06 -0.04,-0.1 -0.04,-0.15 0,-0.16 0.1,-0.28 0.26,-0.28 0.16,0 0.29,0.13 0.29,0.28 0,0.26 -0.26,0.46 -0.6,0.46 -0.34,0 -0.61,-0.16 -0.87,-0.48 -0.2,-0.28 -0.34,-0.59 -0.55,-1.26 h -0.64 z"
         inkscape:connector-curvature="0"
         style="fill:#000000;stroke-width:0" /></g>  </g>
</svg>
