<?xml version="1.0" encoding="UTF-8" standalone="no"?>
<!-- Created with Inkscape (http://www.inkscape.org/) -->

<svg
   xmlns:dc="http://purl.org/dc/elements/1.1/"
   xmlns:cc="http://creativecommons.org/ns#"
   xmlns:rdf="http://www.w3.org/1999/02/22-rdf-syntax-ns#"
   xmlns:svg="http://www.w3.org/2000/svg"
   xmlns="http://www.w3.org/2000/svg"
   xmlns:sodipodi="http://sodipodi.sourceforge.net/DTD/sodipodi-0.dtd"
   xmlns:inkscape="http://www.inkscape.org/namespaces/inkscape"
   width="496.06299"
   height="283.46457"
   id="svg2"
   version="1.1"
   inkscape:version="0.48.4 r9939"
   sodipodi:docname="S3-EE-06-IN013.svg">
  <sodipodi:namedview
     id="base"
     pagecolor="#ffffff"
     bordercolor="#666666"
     borderopacity="1.0"
     inkscape:pageopacity="0.0"
     inkscape:pageshadow="2"
     inkscape:zoom="1.7114762"
     inkscape:cx="248.03149"
     inkscape:cy="141.73228"
     inkscape:document-units="cm"
     inkscape:current-layer="layer1"
     showgrid="false"
     units="cm"
     inkscape:object-nodes="true"
     inkscape:window-width="1366"
     inkscape:window-height="744"
     inkscape:window-x="0"
     inkscape:window-y="24"
     inkscape:window-maximized="1"
     showguides="true"
     inkscape:guide-bbox="true">
    <inkscape:grid
       type="xygrid"
       id="grid2985"
       empspacing="5"
       visible="true"
       enabled="true"
       snapvisiblegridlinesonly="true" />
  </sodipodi:namedview>
  <defs
     id="defs4">
    <marker
       style="overflow:visible"
       id="Arrow1Mstart"
       refX="0"
       refY="0"
       orient="auto"
       inkscape:stockid="Arrow1Mstart">
      <path
         transform="matrix(0.4,0,0,0.4,4,0)"
         style="fill-rule:evenodd;stroke:#000000;stroke-width:1pt"
         d="M 0,0 5,-5 -12.5,0 5,5 0,0 z"
         id="path6343"
         inkscape:connector-curvature="0" />
    </marker>
    <marker
       inkscape:stockid="Arrow1Mend"
       orient="auto"
       refY="0"
       refX="0"
       id="Arrow1Mend"
       style="overflow:visible">
      <path
         id="path3949"
         d="M 0,0 5,-5 -12.5,0 5,5 0,0 z"
         style="fill-rule:evenodd;stroke:#000000;stroke-width:1pt"
         transform="matrix(-0.4,0,0,-0.4,-4,0)"
         inkscape:connector-curvature="0" />
    </marker>
    <marker
       inkscape:stockid="Arrow1Mend"
       orient="auto"
       refY="0"
       refX="0"
       id="Arrow1Mend-0"
       style="overflow:visible">
      <path
         id="path3949-9"
         d="M 0,0 5,-5 -12.5,0 5,5 0,0 z"
         style="fill-rule:evenodd;stroke:#000000;stroke-width:1pt"
         transform="matrix(-0.4,0,0,-0.4,-4,0)"
         inkscape:connector-curvature="0" />
    </marker>
    <marker
       inkscape:stockid="Arrow1Mend"
       orient="auto"
       refY="0"
       refX="0"
       id="Arrow1Mend-0-1"
       style="overflow:visible">
      <path
         id="path3949-9-4"
         d="M 0,0 5,-5 -12.5,0 5,5 0,0 z"
         style="fill-rule:evenodd;stroke:#000000;stroke-width:1pt"
         transform="matrix(-0.4,0,0,-0.4,-4,0)"
         inkscape:connector-curvature="0" />
    </marker>
    <marker
       inkscape:stockid="Arrow1Mend"
       orient="auto"
       refY="0"
       refX="0"
       id="Arrow1Mend-8"
       style="overflow:visible">
      <path
         id="path3949-6"
         d="M 0,0 5,-5 -12.5,0 5,5 0,0 z"
         style="fill-rule:evenodd;stroke:#000000;stroke-width:1pt"
         transform="matrix(-0.4,0,0,-0.4,-4,0)"
         inkscape:connector-curvature="0" />
    </marker>
    <marker
       style="overflow:visible"
       id="Arrow1Mstart-6"
       refX="0"
       refY="0"
       orient="auto"
       inkscape:stockid="Arrow1Mstart">
      <path
         transform="matrix(0.4,0,0,0.4,4,0)"
         style="fill-rule:evenodd;stroke:#000000;stroke-width:1pt"
         d="M 0,0 5,-5 -12.5,0 5,5 0,0 z"
         id="path6343-6"
         inkscape:connector-curvature="0" />
    </marker>
  </defs>
  <metadata
     id="metadata7">
    <rdf:RDF>
      <cc:Work
         rdf:about="">
        <dc:format>image/svg+xml</dc:format>
        <dc:type
           rdf:resource="http://purl.org/dc/dcmitype/StillImage" />
        <dc:title></dc:title>
      </cc:Work>
    </rdf:RDF>
  </metadata>
  <g
     inkscape:label="Layer 1"
     inkscape:groupmode="layer"
     id="layer1"
     transform="translate(0,-768.89631)">
    <path
       d="m 80.319295,882.5355 c -0.439999,-0.03 -0.64,-0.2 -0.83,-0.72 l -0.93,-2.45 c 0.769999,-0.17 1.1,-0.31 1.46,-0.63 0.33,-0.29 0.51,-0.68 0.51,-1.13 0,-0.93 -0.740001,-1.44 -2.08,-1.44 l -2.48,0 0,0.16 c 0.42,0.06 0.47,0.07 0.57,0.14 0.08,0.05 0.14,0.17 0.14,0.28 0,0.12 -0.05,0.36 -0.12,0.63 l -1.23,4.42 c -0.18,0.59 -0.250001,0.65 -0.81,0.74 l 0,0.16 2.44,0 0,-0.16 c -0.609999,-0.08 -0.68,-0.13 -0.68,-0.46 0,-0.1 0.03,-0.23 0.12,-0.58 l 0.56,-2.09 0.65,0.05 1.23,3.24 1.48,0 0,-0.16 m -2.59,-5.79 c 0.06,-0.21 0.19,-0.28 0.51,-0.28 0.829999,0 1.24,0.38 1.24,1.12 0,0.99 -0.640001,1.5 -1.89,1.5 -0.16,0 -0.27,-0.01 -0.51,-0.05 l 0.65,-2.29"
       style="font-size:8px;font-style:italic;font-variant:normal;writing-mode:lr-tb;fill:#231f20;fill-opacity:1;fill-rule:nonzero;stroke:none;font-family:Times;-inkscape-font-specification:Times-Italic"
       id="path3101"
       inkscape:connector-curvature="0" />
    <path
       d="m 82.941658,880.1255 -1.35,0.6825 0,0.105 c 0.09,-0.0375 0.1725,-0.0675 0.2025,-0.0825 0.135,-0.0525 0.2625,-0.0825 0.3375,-0.0825 0.1575,0 0.225,0.1125 0.225,0.3525 l 0,3.3975 c 0,0.2475 -0.06,0.42 -0.18,0.4875 -0.1125,0.0675 -0.2175,0.09 -0.5325,0.0975 l 0,0.1125 2.07,0 0,-0.1125 c -0.592499,-0.007 -0.7125,-0.0825 -0.7125,-0.4425 l 0,-4.5 -0.06,-0.015"
       style="font-size:6px;font-variant:normal;font-weight:normal;writing-mode:lr-tb;fill:#231f20;fill-opacity:1;fill-rule:nonzero;stroke:none;font-family:Times;-inkscape-font-specification:Times-Roman"
       id="path3104"
       inkscape:connector-curvature="0" />
    <path
       d="m 91.724158,878.8355 -5.04,0 0,0.66 5.04,0 0,-0.66 m 0,2 -5.04,0 0,0.66 5.04,0 0,-0.66"
       style="font-size:8px;font-variant:normal;font-weight:normal;writing-mode:lr-tb;fill:#231f20;fill-opacity:1;fill-rule:nonzero;stroke:none;font-family:Times;-inkscape-font-specification:Times-Roman"
       id="path3107"
       inkscape:connector-curvature="0" />
    <path
       d="m 99.274463,881.3255 -0.13,-0.05 c -0.369999,0.57 -0.5,0.66 -0.95,0.66 l -2.39,0 1.68,-1.76 c 0.889999,-0.93 1.28,-1.69 1.28,-2.47 0,-1 -0.810001,-1.77 -1.85,-1.77 -0.549999,0 -1.07,0.22 -1.44,0.62 -0.319999,0.34 -0.47,0.66 -0.64,1.37 l 0.21,0.05 c 0.4,-0.98 0.760001,-1.3 1.45,-1.3 0.84,0 1.41,0.57 1.41,1.41 0,0.78 -0.46,1.71 -1.3,2.6 l -1.78,1.89 0,0.12 3.9,0 0.55,-1.37"
       style="font-size:8px;font-variant:normal;font-weight:normal;writing-mode:lr-tb;fill:#231f20;fill-opacity:1;fill-rule:nonzero;stroke:none;font-family:Times;-inkscape-font-specification:Times-Roman"
       id="path3109"
       inkscape:connector-curvature="0" />
    <path
       d="m 102.06427,875.9355 c -0.54999,0 -0.96999,0.17 -1.33999,0.52 -0.58,0.56 -0.959997,1.71 -0.959997,2.88 0,1.09 0.329997,2.26 0.799997,2.82 0.37,0.44 0.88,0.68 1.45999,0.68 0.51,0 0.93999,-0.17 1.29999,-0.52 0.58,-0.55 0.95999,-1.71 0.95999,-2.92 0,-2.05 -0.90999,-3.46 -2.21998,-3.46 m -0.03,0.26 c 0.83999,0 1.28999,1.13 1.28999,3.22 0,2.09 -0.44,3.16 -1.29999,3.16 -0.85999,0 -1.29999,-1.07 -1.29999,-3.15 0,-2.12 0.45,-3.23 1.30999,-3.23"
       style="font-size:8px;font-variant:normal;font-weight:normal;writing-mode:lr-tb;fill:#231f20;fill-opacity:1;fill-rule:nonzero;stroke:none;font-family:Times;-inkscape-font-specification:Times-Roman"
       id="path3111"
       inkscape:connector-curvature="0" />
    <path
       d="m 107.09424,876.4655 c 0.13,-0.01 0.22,-0.02 0.32,-0.02 0.33,0 0.43,0.13 0.43,0.61 l 0,4.82 c 0,0.52 -0.03,0.55 -0.75,0.67 l 0,0.15 2.34,0 0,-0.15 -0.2,-0.01 c -0.4,-0.02 -0.55,-0.16 -0.55,-0.51 l 0,-1.84 1.4,1.87 0.03,0.04 c 0.02,0.03 0.04,0.06 0.07,0.09 0.08,0.1 0.11,0.16 0.11,0.21 0,0.09 -0.09,0.15 -0.21,0.15 l -0.19,0 0,0.15 2.18,0 0,-0.15 c -0.44,-0.03 -0.75,-0.22 -1.17,-0.73 l -1.53,-1.94 0.29,-0.27 c 0.71,-0.66 1.33,-1.12 1.62,-1.2 0.15,-0.04 0.29,-0.06 0.46,-0.06 l 0.08,0 0,-0.15 -2.04,0 0,0.14 c 0.39,0.01 0.49999,0.05 0.49999,0.19 0,0.08 -0.09,0.22 -0.22999,0.34 l -1.37,1.22 0,-4.2 -0.04,-0.02 c -0.38,0.12 -0.67001,0.2 -1.25,0.36 l -0.30001,0.08 0,0.16"
       style="font-size:8px;font-variant:normal;font-weight:normal;writing-mode:lr-tb;fill:#231f20;fill-opacity:1;fill-rule:nonzero;stroke:none;font-family:Times;-inkscape-font-specification:Times-Roman"
       id="path3113"
       inkscape:connector-curvature="0" />
    <path
       d="m 115.28423,882.6955 -0.18,-1.55 c -0.78,-0.44 -1.28,-1.33 -1.28,-2.27 0,-0.52 0.15,-1.11 0.41,-1.58 0.36,-0.65 0.96,-1.02 1.64,-1.02 0.68,0 1.28,0.37 1.64,1.02 0.26,0.47 0.41,1.06 0.41,1.58 0,0.94 -0.5,1.83 -1.28,2.27 l -0.18,1.55 2.92,0 0,-1.53 -0.24,0 c -0.07,0.44 -0.29,0.63 -0.69,0.63 l -1.46,0 0.03,-0.38 c 0.35,-0.13 0.56,-0.23 0.8,-0.38 0.76,-0.49 1.22,-1.3 1.22,-2.16 0,-0.66 -0.29,-1.4 -0.77,-1.96 -0.61,-0.7 -1.45,-1.08 -2.4,-1.08 -0.95,0 -1.79,0.38 -2.4,1.08 -0.48,0.56 -0.77,1.3 -0.77,1.96 0,0.86 0.46,1.67 1.22,2.16 0.23,0.15 0.44,0.25 0.8,0.38 l 0.03,0.38 -1.46,0 c -0.4,0 -0.62,-0.19 -0.69,-0.63 l -0.24,0 0,1.53 2.92,0"
       style="font-size:8px;font-variant:normal;font-weight:normal;writing-mode:lr-tb;fill:#231f20;fill-opacity:1;fill-rule:nonzero;stroke:none;font-family:Symbol;-inkscape-font-specification:Symbol"
       id="path3116"
       inkscape:connector-curvature="0" />
    <path
       d="m 76.569283,918.03988 c -0.439999,-0.03 -0.64,-0.2 -0.83,-0.72 l -0.93,-2.45 c 0.769999,-0.17 1.1,-0.31 1.46,-0.63 0.33,-0.29 0.51,-0.68 0.51,-1.13 0,-0.93 -0.740001,-1.44 -2.08,-1.44 l -2.48,0 0,0.16 c 0.42,0.06 0.47,0.07 0.57,0.14 0.08,0.05 0.14,0.17 0.14,0.28 0,0.12 -0.05,0.36 -0.12,0.63 l -1.23,4.42 c -0.18,0.59 -0.250001,0.65 -0.81,0.74 l 0,0.16 2.44,0 0,-0.16 c -0.609999,-0.08 -0.68,-0.13 -0.68,-0.46 0,-0.1 0.03,-0.23 0.12,-0.58 l 0.56,-2.09 0.65,0.05 1.23,3.24 1.48,0 0,-0.16 m -2.59,-5.79 c 0.06,-0.21 0.19,-0.28 0.51,-0.28 0.829999,0 1.24,0.38 1.24,1.12 0,0.99 -0.640001,1.5 -1.89,1.5 -0.16,0 -0.27,-0.01 -0.51,-0.05 l 0.65,-2.29"
       style="font-size:8px;font-style:italic;font-variant:normal;writing-mode:lr-tb;fill:#231f20;fill-opacity:1;fill-rule:nonzero;stroke:none;font-family:Times;-inkscape-font-specification:Times-Italic"
       id="path3119"
       inkscape:connector-curvature="0" />
    <path
       d="m 80.571645,919.67238 -0.0975,-0.0375 c -0.2775,0.4275 -0.375,0.495 -0.7125,0.495 l -1.7925,0 1.26,-1.32 c 0.667499,-0.6975 0.96,-1.2675 0.96,-1.8525 0,-0.75 -0.607501,-1.3275 -1.3875,-1.3275 -0.4125,0 -0.8025,0.165 -1.08,0.465 -0.24,0.255 -0.3525,0.495 -0.48,1.0275 l 0.1575,0.0375 c 0.3,-0.735 0.570001,-0.975 1.0875,-0.975 0.629999,0 1.0575,0.4275 1.0575,1.0575 0,0.585 -0.345001,1.2825 -0.975,1.95 l -1.335,1.4175 0,0.09 2.925,0 0.4125,-1.0275"
       style="font-size:6px;font-variant:normal;font-weight:normal;writing-mode:lr-tb;fill:#231f20;fill-opacity:1;fill-rule:nonzero;stroke:none;font-family:Times;-inkscape-font-specification:Times-Roman"
       id="path3122"
       inkscape:connector-curvature="0" />
    <path
       d="m 87.974145,914.33988 -5.04,0 0,0.66 5.04,0 0,-0.66 m 0,2 -5.04,0 0,0.66 5.04,0 0,-0.66"
       style="font-size:8px;font-variant:normal;font-weight:normal;writing-mode:lr-tb;fill:#231f20;fill-opacity:1;fill-rule:nonzero;stroke:none;font-family:Times;-inkscape-font-specification:Times-Roman"
       id="path3125"
       inkscape:connector-curvature="0" />
    <path
       d="m 93.68445,911.43988 -1.8,0.91 0,0.14 c 0.12,-0.05 0.23,-0.09 0.27,-0.11 0.18,-0.07 0.35,-0.11 0.45,-0.11 0.21,0 0.3,0.15 0.3,0.47 l 0,4.53 c 0,0.33 -0.08,0.56 -0.24,0.65 -0.15,0.09 -0.29,0.12 -0.71,0.13 l 0,0.15 2.76,0 0,-0.15 c -0.789999,-0.01 -0.95,-0.11 -0.95,-0.59 l 0,-6 -0.08,-0.02"
       style="font-size:8px;font-variant:normal;font-weight:normal;writing-mode:lr-tb;fill:#231f20;fill-opacity:1;fill-rule:nonzero;stroke:none;font-family:Times;-inkscape-font-specification:Times-Roman"
       id="path3127"
       inkscape:connector-curvature="0" />
    <path
       d="m 100.52427,916.82988 -0.13,-0.05 c -0.37,0.57 -0.5,0.66 -0.95,0.66 l -2.39,0 1.68,-1.76 c 0.89,-0.93 1.28,-1.69 1.28,-2.47 0,-1 -0.810001,-1.77 -1.85,-1.77 -0.549999,0 -1.07,0.22 -1.44,0.62 -0.32,0.34 -0.47,0.66 -0.64,1.37 l 0.21,0.05 c 0.4,-0.98 0.760001,-1.3 1.45,-1.3 0.84,0 1.41,0.57 1.41,1.41 0,0.78 -0.46,1.71 -1.3,2.6 l -1.78,1.89 0,0.12 3.9,0 0.55,-1.37"
       style="font-size:8px;font-variant:normal;font-weight:normal;writing-mode:lr-tb;fill:#231f20;fill-opacity:1;fill-rule:nonzero;stroke:none;font-family:Times;-inkscape-font-specification:Times-Roman"
       id="path3129"
       inkscape:connector-curvature="0" />
    <path
       d="m 102.02426,917.19988 c -0.3,0 -0.55,0.26 -0.55,0.57 0,0.29 0.25,0.54 0.54,0.54 0.30999,0 0.56999,-0.25 0.56999,-0.54 0,-0.31 -0.26,-0.57 -0.55999,-0.57"
       style="font-size:8px;font-variant:normal;font-weight:normal;writing-mode:lr-tb;fill:#231f20;fill-opacity:1;fill-rule:nonzero;stroke:none;font-family:Times;-inkscape-font-specification:Times-Roman"
       id="path3131"
       inkscape:connector-curvature="0" />
    <path
       d="m 105.08423,912.36988 1.95999,0 c 0.16,0 0.2,-0.02 0.23,-0.09 l 0.38,-0.89 -0.09,-0.07 c -0.15,0.21 -0.25,0.26 -0.46,0.26 l -2.08999,0 -1.08999,2.37 c -0.01,0.02 -0.01,0.03 -0.01,0.05 0,0.05 0.04,0.08 0.12,0.08 0.32,0 0.72,0.07 1.12999,0.2 1.15,0.37 1.67999,0.99 1.67999,1.98 0,0.96 -0.60999,1.71 -1.38999,1.71 -0.2,0 -0.37,-0.07 -0.67,-0.29 -0.31999,-0.23 -0.54999,-0.33 -0.75999,-0.33 -0.29,0 -0.42999,0.12 -0.42999,0.37 0,0.38 0.46999,0.62 1.21998,0.62 0.84,0 1.55999,-0.27 2.05999,-0.78 0.46,-0.45 0.67,-1.02 0.67,-1.78 0,-0.72 -0.19,-1.18 -0.69,-1.68 -0.44,-0.44 -1.00999,-0.67 -2.18998,-0.88 l 0.41999,-0.85"
       style="font-size:8px;font-variant:normal;font-weight:normal;writing-mode:lr-tb;fill:#231f20;fill-opacity:1;fill-rule:nonzero;stroke:none;font-family:Times;-inkscape-font-specification:Times-Roman"
       id="path3133"
       inkscape:connector-curvature="0" />
    <path
       d="m 110.84422,911.96988 c 0.13,-0.01 0.22,-0.02 0.32,-0.02 0.33,0 0.43,0.13 0.43,0.61 l 0,4.82 c 0,0.52 -0.03,0.55 -0.75,0.67 l 0,0.15 2.34,0 0,-0.15 -0.2,-0.01 c -0.4,-0.02 -0.55,-0.16 -0.55,-0.51 l 0,-1.84 1.4,1.87 0.03,0.04 c 0.02,0.03 0.04,0.06 0.07,0.09 0.08,0.1 0.11,0.16 0.11,0.21 0,0.09 -0.09,0.15 -0.21,0.15 l -0.19,0 0,0.15 2.18,0 0,-0.15 c -0.44,-0.03 -0.75,-0.22 -1.17,-0.73 l -1.53,-1.94 0.29,-0.27 c 0.71,-0.66 1.33,-1.12 1.62,-1.2 0.15,-0.04 0.29,-0.06 0.46,-0.06 l 0.08,0 0,-0.15 -2.04,0 0,0.14 c 0.39,0.01 0.5,0.05 0.5,0.19 0,0.08 -0.09,0.22 -0.23,0.34 l -1.37,1.22 0,-4.2 -0.04,-0.02 c -0.38,0.12 -0.67,0.2 -1.25,0.36 l -0.3,0.08 0,0.16"
       style="font-size:8px;font-variant:normal;font-weight:normal;writing-mode:lr-tb;fill:#231f20;fill-opacity:1;fill-rule:nonzero;stroke:none;font-family:Times;-inkscape-font-specification:Times-Roman"
       id="path3135"
       inkscape:connector-curvature="0" />
    <path
       d="m 119.03422,918.19988 -0.18,-1.55 c -0.78,-0.44 -1.28,-1.33 -1.28,-2.27 0,-0.52 0.15,-1.11 0.41,-1.58 0.36,-0.65 0.96,-1.02 1.64,-1.02 0.68,0 1.28,0.37 1.64,1.02 0.26,0.47 0.41,1.06 0.41,1.58 0,0.94 -0.5,1.83 -1.28,2.27 l -0.18,1.55 2.92,0 0,-1.53 -0.24,0 c -0.07,0.44 -0.29,0.63 -0.69,0.63 l -1.46,0 0.03,-0.38 c 0.35,-0.13 0.56,-0.23 0.8,-0.38 0.76,-0.49 1.22,-1.3 1.22,-2.16 0,-0.66 -0.29,-1.4 -0.77,-1.96 -0.61,-0.7 -1.45,-1.08 -2.4,-1.08 -0.95,0 -1.79,0.38 -2.4,1.08 -0.48,0.56 -0.77,1.3 -0.77,1.96 0,0.86 0.46,1.67 1.22,2.16 0.23,0.15 0.44,0.25 0.8,0.38 l 0.03,0.38 -1.46,0 c -0.4,0 -0.62,-0.19 -0.69,-0.63 l -0.24,0 0,1.53 2.92,0"
       style="font-size:8px;font-variant:normal;font-weight:normal;writing-mode:lr-tb;fill:#231f20;fill-opacity:1;fill-rule:nonzero;stroke:none;font-family:Symbol;-inkscape-font-specification:Symbol"
       id="path3138"
       inkscape:connector-curvature="0" />
    <path
       d="m 82.81927,955.27675 c -0.439999,-0.03 -0.64,-0.2 -0.83,-0.72 l -0.93,-2.45 c 0.769999,-0.17 1.1,-0.31 1.46,-0.63 0.33,-0.29 0.51,-0.68 0.51,-1.13 0,-0.93 -0.740001,-1.44 -2.08,-1.44 l -2.48,0 0,0.16 c 0.42,0.06 0.47,0.07 0.57,0.14 0.08,0.05 0.14,0.17 0.14,0.28 0,0.12 -0.05,0.36 -0.12,0.63 l -1.23,4.42 c -0.18,0.59 -0.250001,0.65 -0.81,0.74 l 0,0.16 2.44,0 0,-0.16 c -0.609999,-0.08 -0.68,-0.13 -0.68,-0.46 0,-0.1 0.03,-0.23 0.12,-0.58 l 0.56,-2.09 0.65,0.05 1.23,3.24 1.48,0 0,-0.16 m -2.59,-5.79 c 0.06,-0.21 0.19,-0.28 0.51,-0.28 0.829999,0 1.24,0.38 1.24,1.12 0,0.99 -0.640001,1.5 -1.89,1.5 -0.16,0 -0.27,-0.01 -0.51,-0.05 l 0.65,-2.29"
       style="font-size:8px;font-style:italic;font-variant:normal;writing-mode:lr-tb;fill:#231f20;fill-opacity:1;fill-rule:nonzero;stroke:none;font-family:Times;-inkscape-font-specification:Times-Italic"
       id="path3141"
       inkscape:connector-curvature="0" />
    <path
       d="m 84.406632,955.46175 c 0.4425,0 0.615,0.015 0.795,0.0825 0.464999,0.165 0.7575,0.5925 0.7575,1.11 0,0.63 -0.427501,1.1175 -0.9825,1.1175 -0.2025,0 -0.3525,-0.0525 -0.63,-0.2325 -0.225,-0.135 -0.3525,-0.1875 -0.48,-0.1875 -0.1725,0 -0.285,0.105 -0.285,0.2625 0,0.2625 0.322501,0.4275 0.8475,0.4275 0.577499,0 1.17,-0.195 1.5225,-0.5025 0.3525,-0.3075 0.5475,-0.7425 0.5475,-1.245 0,-0.3825 -0.12,-0.735 -0.3375,-0.9675 -0.15,-0.165 -0.2925,-0.255 -0.6225,-0.3975 0.517499,-0.3525 0.705,-0.63 0.705,-1.035 0,-0.6075 -0.480001,-1.0275 -1.17,-1.0275 -0.375,0 -0.705,0.1275 -0.975,0.3675 -0.225,0.2025 -0.3375,0.3975 -0.5025,0.8475 l 0.1125,0.03 c 0.3075,-0.5475 0.645,-0.795 1.1175,-0.795 0.487499,0 0.825,0.33 0.825,0.8025 0,0.27 -0.1125,0.54 -0.3,0.7275 -0.225,0.225 -0.435001,0.3375 -0.945,0.5175 l 0,0.0975"
       style="font-size:6px;font-variant:normal;font-weight:normal;writing-mode:lr-tb;fill:#231f20;fill-opacity:1;fill-rule:nonzero;stroke:none;font-family:Times;-inkscape-font-specification:Times-Roman"
       id="path3144"
       inkscape:connector-curvature="0" />
    <path
       d="m 94.224132,951.57675 -5.04,0 0,0.66 5.04,0 0,-0.66 m 0,2 -5.04,0 0,0.66 5.04,0 0,-0.66"
       style="font-size:8px;font-variant:normal;font-weight:normal;writing-mode:lr-tb;fill:#231f20;fill-opacity:1;fill-rule:nonzero;stroke:none;font-family:Times;-inkscape-font-specification:Times-Roman"
       id="path3147"
       inkscape:connector-curvature="0" />
    <path
       d="m 98.83427,949.60675 1.96,0 c 0.16,0 0.2,-0.02 0.23,-0.09 l 0.37999,-0.89 -0.09,-0.07 c -0.15,0.21 -0.25,0.26 -0.45999,0.26 l -2.089999,0 -1.090001,2.37 c -0.01,0.02 -0.01,0.03 -0.01,0.05 0,0.05 0.04,0.08 0.12,0.08 0.32,0 0.720001,0.07 1.13,0.2 1.15,0.37 1.68,0.99 1.68,1.98 0,0.96 -0.61,1.71 -1.39,1.71 -0.199999,0 -0.37,-0.07 -0.67,-0.29 -0.319999,-0.23 -0.55,-0.33 -0.76,-0.33 -0.289999,0 -0.43,0.12 -0.43,0.37 0,0.38 0.470001,0.62 1.22,0.62 0.84,0 1.56,-0.27 2.06,-0.78 0.45999,-0.45 0.66999,-1.02 0.66999,-1.78 0,-0.72 -0.19,-1.18 -0.68999,-1.68 -0.44,-0.44 -1.010001,-0.67 -2.19,-0.88 l 0.42,-0.85"
       style="font-size:8px;font-variant:normal;font-weight:normal;writing-mode:lr-tb;fill:#231f20;fill-opacity:1;fill-rule:nonzero;stroke:none;font-family:Times;-inkscape-font-specification:Times-Roman"
       id="path3149"
       inkscape:connector-curvature="0" />
    <path
       d="m 104.59424,949.20675 c 0.13,-0.01 0.21999,-0.02 0.31999,-0.02 0.33,0 0.43,0.13 0.43,0.61 l 0,4.82 c 0,0.52 -0.03,0.55 -0.74999,0.67 l 0,0.15 2.33998,0 0,-0.15 -0.2,-0.01 c -0.39999,-0.02 -0.54999,-0.16 -0.54999,-0.51 l 0,-1.84 1.39999,1.87 0.03,0.04 c 0.02,0.03 0.04,0.06 0.07,0.09 0.08,0.1 0.11,0.16 0.11,0.21 0,0.09 -0.09,0.15 -0.21,0.15 l -0.19,0 0,0.15 2.18,0 0,-0.15 c -0.44,-0.03 -0.75,-0.22 -1.17,-0.73 l -1.53,-1.94 0.29,-0.27 c 0.71,-0.66 1.33,-1.12 1.62,-1.2 0.15,-0.04 0.29,-0.06 0.46,-0.06 l 0.08,0 0,-0.15 -2.04,0 0,0.14 c 0.39,0.01 0.5,0.05 0.5,0.19 0,0.08 -0.09,0.22 -0.23,0.34 l -1.36999,1.22 0,-4.2 -0.04,-0.02 c -0.38,0.12 -0.67,0.2 -1.25,0.36 l -0.29999,0.08 0,0.16"
       style="font-size:8px;font-variant:normal;font-weight:normal;writing-mode:lr-tb;fill:#231f20;fill-opacity:1;fill-rule:nonzero;stroke:none;font-family:Times;-inkscape-font-specification:Times-Roman"
       id="path3151"
       inkscape:connector-curvature="0" />
    <path
       d="m 112.78422,955.43675 -0.18,-1.55 c -0.78,-0.44 -1.28,-1.33 -1.28,-2.27 0,-0.52 0.15,-1.11 0.41,-1.58 0.36,-0.65 0.96,-1.02 1.64,-1.02 0.68,0 1.28,0.37 1.64,1.02 0.26,0.47 0.41,1.06 0.41,1.58 0,0.94 -0.5,1.83 -1.28,2.27 l -0.18,1.55 2.92,0 0,-1.53 -0.24,0 c -0.07,0.44 -0.29,0.63 -0.69,0.63 l -1.46,0 0.03,-0.38 c 0.35,-0.13 0.56,-0.23 0.8,-0.38 0.76,-0.49 1.22,-1.3 1.22,-2.16 0,-0.66 -0.29,-1.4 -0.77,-1.96 -0.61,-0.7 -1.45,-1.08 -2.4,-1.08 -0.95,0 -1.79,0.38 -2.4,1.08 -0.48,0.56 -0.77,1.3 -0.77,1.96 0,0.86 0.46,1.67 1.22,2.16 0.23,0.15 0.44,0.25 0.8,0.38 l 0.03,0.38 -1.46,0 c -0.4,0 -0.62,-0.19 -0.69,-0.63 l -0.24,0 0,1.53 2.92,0"
       style="font-size:8px;font-variant:normal;font-weight:normal;writing-mode:lr-tb;fill:#231f20;fill-opacity:1;fill-rule:nonzero;stroke:none;font-family:Symbol;-inkscape-font-specification:Symbol"
       id="path3154"
       inkscape:connector-curvature="0" />
    <path
       d="m 276.71506,815.26425 c -0.44,-0.03 -0.64,-0.2 -0.83,-0.72 l -0.93,-2.45 c 0.77,-0.17 1.1,-0.31 1.46,-0.63 0.33,-0.29 0.51,-0.68 0.51,-1.13 0,-0.93 -0.74,-1.44 -2.08,-1.44 l -2.48,0 0,0.16 c 0.42,0.06 0.47,0.07 0.57,0.14 0.08,0.05 0.14,0.17 0.14,0.28 0,0.12 -0.05,0.36 -0.12,0.63 l -1.23,4.42 c -0.18,0.59 -0.25,0.65 -0.81,0.74 l 0,0.16 2.44,0 0,-0.16 c -0.61,-0.08 -0.68,-0.13 -0.68,-0.46 0,-0.1 0.03,-0.23 0.12,-0.58 l 0.56,-2.09 0.65,0.05 1.23,3.24 1.48,0 0,-0.16 m -2.59,-5.79 c 0.06,-0.21 0.19,-0.28 0.51,-0.28 0.83,0 1.24,0.38 1.24,1.12 0,0.99 -0.64,1.5 -1.89,1.5 -0.16,0 -0.27,-0.01 -0.51,-0.05 l 0.65,-2.29"
       style="font-size:8px;font-style:italic;font-variant:normal;writing-mode:lr-tb;fill:#231f20;fill-opacity:1;fill-rule:nonzero;stroke:none;font-family:Times;-inkscape-font-specification:Times-Italic"
       id="path3157"
       inkscape:connector-curvature="0" />
    <path
       d="m 277.41645,814.95425 0.675,0 -0.66,3.15 c -0.165,0.8025 -0.4125,1.215 -0.7275,1.215 -0.09,0 -0.15,-0.0525 -0.15,-0.12 0,-0.0225 0.007,-0.045 0.03,-0.0825 0.03,-0.045 0.0375,-0.075 0.0375,-0.12 0,-0.1575 -0.135,-0.285 -0.2925,-0.285 -0.1575,0 -0.2775,0.135 -0.2775,0.3075 0,0.255 0.2625,0.4575 0.5925,0.4575 0.6675,0 1.1925,-0.7425 1.5,-2.1225 l 0.54,-2.4 0.8175,0 0.045,-0.24 -0.81,0 c 0.2175,-1.1775 0.495,-1.71 0.915,-1.71 0.0975,0 0.165,0.0375 0.165,0.09 0,0.0225 -0.007,0.0375 -0.03,0.075 -0.03,0.0675 -0.045,0.105 -0.045,0.1575 0,0.18 0.1125,0.3 0.2775,0.3 0.1725,0 0.315,-0.135 0.315,-0.3 0,-0.2775 -0.2775,-0.4875 -0.645,-0.4875 -0.3675,0 -0.66,0.165 -0.93,0.5175 -0.225,0.2925 -0.375,0.6375 -0.6,1.3575 l -0.69,0 -0.0525,0.24"
       style="font-size:6px;font-style:italic;font-variant:normal;writing-mode:lr-tb;fill:#231f20;fill-opacity:1;fill-rule:nonzero;stroke:none;font-family:Times;-inkscape-font-specification:Times-Italic"
       id="path3160"
       inkscape:connector-curvature="0" />
    <path
       d="m 288.33037,811.56425 -5.04,0 0,0.66 5.04,0 0,-0.66 m 0,2 -5.04,0 0,0.66 5.04,0 0,-0.66"
       style="font-size:8px;font-variant:normal;font-weight:normal;writing-mode:lr-tb;fill:#231f20;fill-opacity:1;fill-rule:nonzero;stroke:none;font-family:Times;-inkscape-font-specification:Times-Roman"
       id="path3163"
       inkscape:connector-curvature="0" />
    <path
       d="m 294.04006,808.66425 -1.8,0.91 0,0.14 c 0.12,-0.05 0.23,-0.09 0.27,-0.11 0.18,-0.07 0.35,-0.11 0.45,-0.11 0.21,0 0.3,0.15 0.3,0.47 l 0,4.53 c 0,0.33 -0.08,0.56 -0.24,0.65 -0.14999,0.09 -0.29,0.12 -0.71,0.13 l 0,0.15 2.76,0 0,-0.15 c -0.78999,-0.01 -0.95,-0.11 -0.95,-0.59 l 0,-6 -0.08,-0.02"
       style="font-size:8px;font-variant:normal;font-weight:normal;writing-mode:lr-tb;fill:#231f20;fill-opacity:1;fill-rule:nonzero;stroke:none;font-family:Times;-inkscape-font-specification:Times-Roman"
       id="path3165"
       inkscape:connector-curvature="0" />
    <path
       d="m 298.67049,808.66425 c -0.54999,0 -0.97,0.17 -1.34,0.52 -0.57999,0.56 -0.95999,1.71 -0.95999,2.88 0,1.09 0.33,2.26 0.79999,2.82 0.37,0.44 0.88001,0.68 1.46,0.68 0.51,0 0.94001,-0.17 1.30001,-0.52 0.57999,-0.55 0.95999,-1.71 0.95999,-2.92 0,-2.05 -0.91,-3.46 -2.22,-3.46 m -0.03,0.26 c 0.84,0 1.29001,1.13 1.29001,3.22 0,2.09 -0.44,3.16 -1.30001,3.16 -0.85999,0 -1.3,-1.07 -1.3,-3.15 0,-2.12 0.45001,-3.23 1.31,-3.23"
       style="font-size:8px;font-variant:normal;font-weight:normal;writing-mode:lr-tb;fill:#231f20;fill-opacity:1;fill-rule:nonzero;stroke:none;font-family:Times;-inkscape-font-specification:Times-Roman"
       id="path3167"
       inkscape:connector-curvature="0" />
    <path
       d="m 303.70049,809.19425 c 0.13,-0.01 0.22,-0.02 0.32,-0.02 0.33,0 0.43,0.13 0.43,0.61 l 0,4.82 c 0,0.52 -0.03,0.55 -0.75,0.67 l 0,0.15 2.34,0 0,-0.15 -0.2,-0.01 c -0.39999,-0.02 -0.55,-0.16 -0.55,-0.51 l 0,-1.84 1.4,1.87 0.03,0.04 c 0.02,0.03 0.04,0.06 0.07,0.09 0.08,0.1 0.11,0.16 0.11,0.21 0,0.09 -0.09,0.15 -0.21,0.15 l -0.19,0 0,0.15 2.18001,0 0,-0.15 c -0.44,-0.03 -0.75,-0.22 -1.17001,-0.73 l -1.53,-1.94 0.29,-0.27 c 0.71001,-0.66 1.33,-1.12 1.62,-1.2 0.15,-0.04 0.29001,-0.06 0.46,-0.06 l 0.08,0 0,-0.15 -2.04001,0 0,0.14 c 0.39,0.01 0.5,0.05 0.5,0.19 0,0.08 -0.09,0.22 -0.23,0.34 l -1.37,1.22 0,-4.2 -0.04,-0.02 c -0.37999,0.12 -0.67,0.2 -1.25,0.36 l -0.3,0.08 0,0.16"
       style="font-size:8px;font-variant:normal;font-weight:normal;writing-mode:lr-tb;fill:#231f20;fill-opacity:1;fill-rule:nonzero;stroke:none;font-family:Times;-inkscape-font-specification:Times-Roman"
       id="path3169"
       inkscape:connector-curvature="0" />
    <path
       d="m 311.8905,815.42425 -0.18,-1.55 c -0.78,-0.44 -1.28,-1.33 -1.28,-2.27 0,-0.52 0.15,-1.11 0.41,-1.58 0.36,-0.65 0.96,-1.02 1.64,-1.02 0.68,0 1.28,0.37 1.64,1.02 0.26,0.47 0.41,1.06 0.41,1.58 0,0.94 -0.5,1.83 -1.28,2.27 l -0.18,1.55 2.92,0 0,-1.53 -0.24,0 c -0.07,0.44 -0.29,0.63 -0.69,0.63 l -1.46,0 0.03,-0.38 c 0.35,-0.13 0.56,-0.23 0.8,-0.38 0.76,-0.49 1.22,-1.3 1.22,-2.16 0,-0.66 -0.29,-1.4 -0.77,-1.96 -0.61,-0.7 -1.45,-1.08 -2.4,-1.08 -0.95,0 -1.79,0.38 -2.4,1.08 -0.48,0.56 -0.77,1.3 -0.77,1.96 0,0.86 0.46,1.67 1.22,2.16 0.23,0.15 0.44,0.25 0.8,0.38 l 0.03,0.38 -1.46,0 c -0.4,0 -0.62,-0.19 -0.69,-0.63 l -0.24,0 0,1.53 2.92,0"
       style="font-size:8px;font-variant:normal;font-weight:normal;writing-mode:lr-tb;fill:#231f20;fill-opacity:1;fill-rule:nonzero;stroke:none;font-family:Symbol;-inkscape-font-specification:Symbol"
       id="path3172"
       inkscape:connector-curvature="0" />
    <path
       id="path17498"
       style="fill:none;stroke:#231f20;stroke-width:1;stroke-linecap:round;stroke-linejoin:round;stroke-miterlimit:3.86369991;stroke-opacity:1;stroke-dasharray:none"
       d="m 166.03281,963.757 0,-71.6675 -132.031853,0"
       inkscape:connector-curvature="0" />
    <path
       id="path17500"
       style="fill:none;stroke:#231f20;stroke-width:1;stroke-linecap:round;stroke-linejoin:round;stroke-miterlimit:3.86369991;stroke-opacity:1;stroke-dasharray:none"
       d="m 209.50781,1000.3693 0,-74.9903"
       inkscape:connector-curvature="0" />
    <path
       id="path17502"
       style="fill:none;stroke:#231f20;stroke-width:1;stroke-linecap:round;stroke-linejoin:round;stroke-miterlimit:3.86369991;stroke-opacity:1;stroke-dasharray:none"
       d="m 209.47531,997.547 0,8.0371"
       inkscape:connector-curvature="0" />
    <path
       id="path17504"
       style="fill:none;stroke:#231f20;stroke-width:1;stroke-linecap:round;stroke-linejoin:round;stroke-miterlimit:3.86369991;stroke-opacity:1;stroke-dasharray:none"
       d="m 218.22531,1005.5841 -17.5,0"
       inkscape:connector-curvature="0" />
    <path
       id="path17506"
       style="fill:none;stroke:#231f20;stroke-width:1;stroke-linecap:round;stroke-linejoin:round;stroke-miterlimit:3.86369991;stroke-opacity:1;stroke-dasharray:none"
       d="m 216.35031,1008.8903 -13.75,0"
       inkscape:connector-curvature="0" />
    <path
       id="path17508"
       style="fill:none;stroke:#231f20;stroke-width:1;stroke-linecap:round;stroke-linejoin:round;stroke-miterlimit:3.86369991;stroke-opacity:1;stroke-dasharray:none"
       d="m 214.47531,1012.193 -10,0"
       inkscape:connector-curvature="0" />
    <path
       id="path17510"
       style="fill:none;stroke:#231f20;stroke-width:1;stroke-linecap:round;stroke-linejoin:round;stroke-miterlimit:3.86369991;stroke-opacity:1;stroke-dasharray:none"
       d="m 339.22913,908.83613 111.67302,0"
       inkscape:connector-curvature="0" />
    <path
       id="path17512"
       style="fill:none;stroke:#231f20;stroke-width:0.625;stroke-linecap:round;stroke-linejoin:round;stroke-miterlimit:3.86369991;stroke-opacity:1;stroke-dasharray:none"
       d="m 166.03281,892.0895 -132.031853,0"
       inkscape:connector-curvature="0" />
    <path
       id="path17514"
       style="fill:none;stroke:#231f20;stroke-width:0.99999994;stroke-linecap:round;stroke-linejoin:round;stroke-miterlimit:3.86369991;stroke-opacity:1;stroke-dasharray:none"
       d="m 209.87406,925.5865 65.48504,0"
       inkscape:connector-curvature="0" />
    <path
       id="path17516"
       style="fill:none;stroke:#231f20;stroke-width:1;stroke-linecap:round;stroke-linejoin:round;stroke-miterlimit:3.86369991;stroke-opacity:1;stroke-dasharray:none"
       d="m 341.86281,827.82425 -132.21625,0 0,65.64463"
       inkscape:connector-curvature="0" />
    <path
       id="path17518"
       style="fill:none;stroke:#231f20;stroke-width:1;stroke-linecap:round;stroke-linejoin:round;stroke-miterlimit:3.86369991;stroke-opacity:1;stroke-dasharray:none"
       d="m 394.80784,908.83613 0,-81.01188 -79.22375,0"
       inkscape:connector-curvature="0" />
    <path
       d="m 22.675307,887.74312 c 0.11,-0.01 0.19,-0.01 0.3,-0.01 0.39,0 0.49,0.17 0.63,1.09 0.1,0.69 0.22,2.2 0.22,2.78 0,0.28 0.02,0.35 0.09,0.35 0.25,0 1.180001,-1.06 2.2,-2.48 0.35,-0.5 0.61,-1.15 0.61,-1.52 0,-0.32 -0.26,-0.59 -0.56,-0.59 -0.22,0 -0.37,0.13 -0.37,0.34 0,0.16 0.06,0.28 0.24,0.44 0.13,0.12 0.18,0.2 0.18,0.3 0,0.46 -0.660001,1.57 -1.37,2.31 l -0.31,0.32 c -0.07,-1.41 -0.13,-1.93 -0.26,-2.67 -0.2,-1.02 -0.2,-1.04 -0.29,-1.04 -0.05,0 -0.12,0.01 -0.2,0.04 -0.18,0.05 -0.73,0.15 -1.11,0.21 l 0,0.13"
       style="font-size:8px;font-style:italic;font-variant:normal;writing-mode:lr-tb;fill:#231f20;fill-opacity:1;fill-rule:nonzero;stroke:none;font-family:Times;-inkscape-font-specification:Times-Italic"
       id="path3175"
       inkscape:connector-curvature="0" />
    <path
       d="m 29.087744,889.20312 -1.35,0.6825 0,0.105 c 0.09,-0.0375 0.1725,-0.0675 0.2025,-0.0825 0.135,-0.0525 0.2625,-0.0825 0.3375,-0.0825 0.1575,0 0.225,0.1125 0.225,0.3525 l 0,3.3975 c 0,0.2475 -0.06,0.42 -0.18,0.4875 -0.1125,0.0675 -0.2175,0.09 -0.5325,0.0975 l 0,0.1125 2.07,0 0,-0.1125 c -0.592499,-0.008 -0.7125,-0.0825 -0.7125,-0.4425 l 0,-4.5 -0.06,-0.015"
       style="font-size:6px;font-variant:normal;font-weight:normal;writing-mode:lr-tb;fill:#231f20;fill-opacity:1;fill-rule:nonzero;stroke:none;font-family:Times;-inkscape-font-specification:Times-Roman"
       id="path3178"
       inkscape:connector-curvature="0" />
    <path
       d="m 22.675307,924.71387 c 0.11,-0.01 0.19,-0.01 0.3,-0.01 0.39,0 0.49,0.17 0.63,1.09 0.1,0.69 0.22,2.2 0.22,2.78 0,0.28 0.02,0.35 0.09,0.35 0.25,0 1.180001,-1.06 2.2,-2.48 0.35,-0.5 0.61,-1.15 0.61,-1.52 0,-0.32 -0.26,-0.59 -0.56,-0.59 -0.22,0 -0.37,0.13 -0.37,0.34 0,0.16 0.06,0.28 0.24,0.44 0.13,0.12 0.18,0.2 0.18,0.3 0,0.46 -0.660001,1.57 -1.37,2.31 l -0.31,0.32 c -0.07,-1.41 -0.13,-1.93 -0.26,-2.67 -0.2,-1.02 -0.2,-1.04 -0.29,-1.04 -0.05,0 -0.12,0.01 -0.2,0.04 -0.18,0.05 -0.73,0.15 -1.11,0.21 l 0,0.13"
       style="font-size:8px;font-style:italic;font-variant:normal;writing-mode:lr-tb;fill:#231f20;fill-opacity:1;fill-rule:nonzero;stroke:none;font-family:Times;-inkscape-font-specification:Times-Italic"
       id="path3181"
       inkscape:connector-curvature="0" />
    <path
       d="m 30.467744,930.21637 -0.0975,-0.0375 c -0.2775,0.4275 -0.375,0.495 -0.7125,0.495 l -1.7925,0 1.26,-1.32 c 0.667499,-0.6975 0.96,-1.2675 0.96,-1.8525 0,-0.75 -0.607501,-1.3275 -1.3875,-1.3275 -0.4125,0 -0.8025,0.165 -1.08,0.465 -0.24,0.255 -0.3525,0.495 -0.48,1.0275 l 0.1575,0.0375 c 0.3,-0.735 0.570001,-0.975 1.0875,-0.975 0.629999,0 1.0575,0.4275 1.0575,1.0575 0,0.585 -0.345001,1.2825 -0.975,1.95 l -1.335,1.4175 0,0.09 2.925,0 0.4125,-1.0275"
       style="font-size:6px;font-variant:normal;font-weight:normal;writing-mode:lr-tb;fill:#231f20;fill-opacity:1;fill-rule:nonzero;stroke:none;font-family:Times;-inkscape-font-specification:Times-Roman"
       id="path3184"
       inkscape:connector-curvature="0" />
    <path
       d="m 22.675307,964.33937 c 0.11,-0.01 0.19,-0.01 0.3,-0.01 0.39,0 0.49,0.17 0.63,1.09 0.1,0.69 0.22,2.2 0.22,2.78 0,0.28 0.02,0.35 0.09,0.35 0.25,0 1.180001,-1.06 2.2,-2.48 0.35,-0.5 0.61,-1.15 0.61,-1.52 0,-0.32 -0.26,-0.59 -0.56,-0.59 -0.22,0 -0.37,0.13 -0.37,0.34 0,0.16 0.06,0.28 0.24,0.44 0.13,0.12 0.18,0.2 0.18,0.3 0,0.46 -0.660001,1.57 -1.37,2.31 l -0.31,0.32 c -0.07,-1.41 -0.13,-1.93 -0.26,-2.67 -0.2,-1.02 -0.2,-1.04 -0.29,-1.04 -0.05,0 -0.12,0.01 -0.2,0.04 -0.18,0.05 -0.73,0.15 -1.11,0.21 l 0,0.13"
       style="font-size:8px;font-style:italic;font-variant:normal;writing-mode:lr-tb;fill:#231f20;fill-opacity:1;fill-rule:nonzero;stroke:none;font-family:Times;-inkscape-font-specification:Times-Italic"
       id="path3187"
       inkscape:connector-curvature="0" />
    <path
       d="m 28.052744,968.39437 c 0.442499,0 0.615,0.015 0.795,0.0825 0.464999,0.165 0.7575,0.5925 0.7575,1.11 0,0.63 -0.427501,1.1175 -0.9825,1.1175 -0.2025,0 -0.3525,-0.0525 -0.63,-0.2325 -0.225,-0.135 -0.3525,-0.1875 -0.48,-0.1875 -0.1725,0 -0.285,0.105 -0.285,0.2625 0,0.2625 0.322501,0.4275 0.8475,0.4275 0.577499,0 1.17,-0.195 1.5225,-0.5025 0.3525,-0.3075 0.5475,-0.7425 0.5475,-1.245 0,-0.3825 -0.12,-0.735 -0.3375,-0.9675 -0.15,-0.165 -0.2925,-0.255 -0.6225,-0.3975 0.517499,-0.3525 0.705,-0.63 0.705,-1.035 0,-0.6075 -0.480001,-1.0275 -1.17,-1.0275 -0.375,0 -0.705,0.1275 -0.975,0.3675 -0.225,0.2025 -0.3375,0.3975 -0.5025,0.8475 l 0.1125,0.03 c 0.3075,-0.5475 0.645,-0.795 1.1175,-0.795 0.487499,0 0.825,0.33 0.825,0.8025 0,0.27 -0.1125,0.54 -0.3,0.7275 -0.225,0.225 -0.435001,0.3375 -0.945,0.5175 l 0,0.0975"
       style="font-size:6px;font-variant:normal;font-weight:normal;writing-mode:lr-tb;fill:#231f20;fill-opacity:1;fill-rule:nonzero;stroke:none;font-family:Times;-inkscape-font-specification:Times-Roman"
       id="path3190"
       inkscape:connector-curvature="0" />
    <path
       d="m 458.8386,909.583 c 0.11,-0.01 0.19,-0.01 0.3,-0.01 0.39,0 0.49,0.17 0.63,1.09 0.1,0.69 0.22,2.2 0.22,2.78 0,0.28 0.02,0.35 0.09,0.35 0.25,0 1.18,-1.06 2.2,-2.48 0.35,-0.5 0.61,-1.15 0.61,-1.52 0,-0.32 -0.26,-0.59 -0.56,-0.59 -0.22,0 -0.37,0.13 -0.37,0.34 0,0.16 0.06,0.28 0.24,0.44 0.13,0.12 0.18,0.2 0.18,0.3 0,0.46 -0.66,1.57 -1.37,2.31 l -0.31,0.32 c -0.07,-1.41 -0.13,-1.93 -0.26,-2.67 -0.2,-1.02 -0.2,-1.04 -0.29,-1.04 -0.05,0 -0.12,0.01 -0.2,0.04 -0.18,0.05 -0.73,0.15 -1.11,0.21 l 0,0.13"
       style="font-size:8px;font-style:italic;font-variant:normal;writing-mode:lr-tb;fill:#231f20;fill-opacity:1;fill-rule:nonzero;stroke:none;font-family:Times;-inkscape-font-specification:Times-Italic"
       id="path3193"
       inkscape:connector-curvature="0" />
    <path
       d="m 465.50604,912.8055 c -1.125,0 -2.235,1.1625 -2.235,2.34 0,0.645 0.42,1.05 1.1025,1.05 0.495,0 0.975,-0.225 1.41,-0.6525 0.495,-0.4875 0.795,-1.125 0.795,-1.6875 0,-0.6225 -0.435,-1.05 -1.0725,-1.05 m -0.09,0.1575 c 0.3225,0 0.5325,0.2775 0.5325,0.705 0,0.5475 -0.2475,1.2975 -0.5775,1.785 -0.2775,0.3975 -0.5625,0.585 -0.885,0.585 -0.3525,0 -0.585,-0.27 -0.585,-0.6825 0,-0.555 0.2175,-1.215 0.585,-1.7475 0.2925,-0.42 0.6075,-0.645 0.93,-0.645"
       style="font-size:6px;font-style:italic;font-variant:normal;writing-mode:lr-tb;fill:#231f20;fill-opacity:1;fill-rule:nonzero;stroke:none;font-family:Times;-inkscape-font-specification:Times-Italic"
       id="path3196"
       inkscape:connector-curvature="0" />
    <path
       id="path17554"
       style="fill:#ffffff;fill-opacity:1;fill-rule:nonzero;stroke:none"
       d="m 454.60492,909.0045 c 0,1.15137 -0.9325,2.084 -2.08375,2.084 -1.15125,0 -2.08375,-0.93263 -2.08375,-2.084 0,-1.15088 0.9325,-2.0835 2.08375,-2.0835 1.15125,0 2.08375,0.93262 2.08375,2.0835"
       inkscape:connector-curvature="0" />
    <path
       id="path17556"
       style="fill:none;stroke:#231f20;stroke-width:0.625;stroke-linecap:butt;stroke-linejoin:miter;stroke-miterlimit:4;stroke-opacity:1;stroke-dasharray:none"
       d="m 454.60492,909.0045 c 0,1.15137 -0.9325,2.084 -2.08375,2.084 -1.15125,0 -2.08375,-0.93263 -2.08375,-2.084 0,-1.15088 0.9325,-2.0835 2.08375,-2.0835 1.15125,0 2.08375,0.93262 2.08375,2.0835 z"
       inkscape:connector-curvature="0" />
    <path
       id="path17558"
       style="fill:#231f20;fill-opacity:1;fill-rule:nonzero;stroke:none"
       d="m 396.89159,908.83613 c 0,1.15124 -0.9325,2.08387 -2.08375,2.08387 -1.15125,0 -2.08375,-0.93263 -2.08375,-2.08387 0,-1.15101 0.9325,-2.08351 2.08375,-2.08351 1.15125,0 2.08375,0.9325 2.08375,2.08351"
       inkscape:connector-curvature="0" />
    <path
       id="path17560"
       style="fill:none;stroke:#231f20;stroke-width:0.625;stroke-linecap:butt;stroke-linejoin:miter;stroke-miterlimit:4;stroke-opacity:1;stroke-dasharray:none"
       d="m 396.89159,908.83613 c 0,1.15124 -0.9325,2.08387 -2.08375,2.08387 -1.15125,0 -2.08375,-0.93263 -2.08375,-2.08387 0,-1.15101 0.9325,-2.08351 2.08375,-2.08351 1.15125,0 2.08375,0.9325 2.08375,2.08351 z"
       inkscape:connector-curvature="0" />
    <path
       id="path17562"
       style="fill:#ffffff;fill-opacity:1;fill-rule:nonzero;stroke:none"
       d="m 77.35092,896.7135 40.56395,0 0,-9.33594 -40.56395,0 0,9.33594 z"
       inkscape:connector-curvature="0" />
    <path
       id="path17564"
       style="fill:none;stroke:#231f20;stroke-width:1;stroke-linecap:round;stroke-linejoin:round;stroke-miterlimit:3.86369991;stroke-opacity:1;stroke-dasharray:none"
       d="m 118.19312,892.0895 -4.51562,0 -1.96288,4.624 -3.9365,-9.3355 -3.9941,9.3355 -3.9966,-9.3355 -3.938,9.3355 -3.90375,-9.3355 -3.938,9.3355 -3.996625,-9.21675 -1.911625,4.59275 -4.7485,0"
       inkscape:connector-curvature="0" />
    <path
       id="path17566"
       style="fill:none;stroke:#231f20;stroke-width:1;stroke-linecap:round;stroke-linejoin:round;stroke-miterlimit:3.86369991;stroke-opacity:1;stroke-dasharray:none"
       d="m 166.03281,927.923 -132.031853,0"
       inkscape:connector-curvature="0" />
    <path
       id="path17568"
       style="fill:#ffffff;fill-opacity:1;fill-rule:nonzero;stroke:none"
       d="m 77.35092,932.5465 40.56395,0 0,-9.33545 -40.56395,0 0,9.33545 z"
       inkscape:connector-curvature="0" />
    <path
       id="path17570"
       style="fill:none;stroke:#231f20;stroke-width:1;stroke-linecap:round;stroke-linejoin:round;stroke-miterlimit:3.86369991;stroke-opacity:1;stroke-dasharray:none"
       d="m 118.19312,927.923 -4.51562,0 -1.96288,4.6235 -3.9365,-9.33537 -3.9941,9.33537 -3.9966,-9.33537 -3.938,9.33537 -3.90375,-9.33537 -3.938,9.33537 -3.996625,-9.21575 -1.911625,4.59225 -4.7485,0"
       inkscape:connector-curvature="0" />
    <path
       id="path17572"
       style="fill:none;stroke:#231f20;stroke-width:1;stroke-linecap:round;stroke-linejoin:round;stroke-miterlimit:3.86369991;stroke-opacity:1;stroke-dasharray:none"
       d="m 166.03281,963.757 -132.031853,0"
       inkscape:connector-curvature="0" />
    <path
       id="path17574"
       style="fill:#ffffff;fill-opacity:1;fill-rule:nonzero;stroke:none"
       d="m 273.13284,832.46166 40.565,0 0,-9.33594 -40.565,0 0,9.33594 z"
       inkscape:connector-curvature="0" />
    <path
       id="path17576"
       style="fill:none;stroke:#231f20;stroke-width:1;stroke-linecap:round;stroke-linejoin:round;stroke-miterlimit:3.86369991;stroke-opacity:1;stroke-dasharray:none"
       d="m 313.97534,827.83791 -4.51625,0 -1.9625,4.62375 -3.93625,-9.33625 -3.99375,9.33625 -3.9975,-9.33625 -3.93875,9.33625 -3.90375,-9.33625 -3.9375,9.33625 -3.99625,-9.21625 -1.9125,4.5925 -4.7475,0"
       inkscape:connector-curvature="0" />
    <path
       id="path17578"
       style="fill:#ffffff;fill-opacity:1;fill-rule:nonzero;stroke:none"
       d="m 454.60492,995.22812 c 0,1.14988 -0.9325,2.08501 -2.08375,2.08501 -1.15125,0 -2.08375,-0.93513 -2.08375,-2.08501 0,-1.15037 0.9325,-2.08399 2.08375,-2.08399 1.15125,0 2.08375,0.93362 2.08375,2.08399"
       inkscape:connector-curvature="0" />
    <path
       id="path17580"
       style="fill:none;stroke:#231f20;stroke-width:0.625;stroke-linecap:butt;stroke-linejoin:miter;stroke-miterlimit:4;stroke-opacity:1;stroke-dasharray:none"
       d="m 454.60492,995.22812 c 0,1.14988 -0.9325,2.08501 -2.08375,2.08501 -1.15125,0 -2.08375,-0.93513 -2.08375,-2.08501 0,-1.15037 0.9325,-2.08399 2.08375,-2.08399 1.15125,0 2.08375,0.93362 2.08375,2.08399 z"
       inkscape:connector-curvature="0" />
    <path
       id="path17582"
       style="fill:none;stroke:#231f20;stroke-width:1;stroke-linecap:round;stroke-linejoin:round;stroke-miterlimit:3.86369991;stroke-opacity:1;stroke-dasharray:none"
       d="m 452.50492,997.547 0,8.0371"
       inkscape:connector-curvature="0" />
    <path
       id="path17584"
       style="fill:none;stroke:#231f20;stroke-width:1;stroke-linecap:round;stroke-linejoin:round;stroke-miterlimit:3.86369991;stroke-opacity:1;stroke-dasharray:none"
       d="m 461.25492,1005.5841 -17.5,0"
       inkscape:connector-curvature="0" />
    <path
       id="path17586"
       style="fill:none;stroke:#231f20;stroke-width:1;stroke-linecap:round;stroke-linejoin:round;stroke-miterlimit:3.86369991;stroke-opacity:1;stroke-dasharray:none"
       d="m 459.37992,1008.8903 -13.75,0"
       inkscape:connector-curvature="0" />
    <path
       id="path17588"
       style="fill:none;stroke:#231f20;stroke-width:1;stroke-linecap:round;stroke-linejoin:round;stroke-miterlimit:3.86369991;stroke-opacity:1;stroke-dasharray:none"
       d="m 457.50492,1012.193 -10,0"
       inkscape:connector-curvature="0" />
    <path
       id="path17592"
       style="fill:none;stroke:#231f20;stroke-width:1.2;stroke-linecap:round;stroke-linejoin:round;stroke-miterlimit:3.86369991;stroke-opacity:1;stroke-dasharray:none"
       d="m 275.69159,871.508 63.90625,37.32813 -63.90625,37.33199 0,-74.66012 z"
       inkscape:connector-curvature="0" />
    <path
       d="m 281.63658,928.23548 0.55001,-1e-5 -2e-5,-2.39002 2.37005,-5e-5 -1e-5,-0.55 -2.37005,4e-5 -2e-5,-2.39002 -0.55001,10e-6 2e-5,2.39002 -2.37004,5e-5 0,0.55001 2.37005,-5e-5 2e-5,2.39002"
       style="font-size:8.00008011px;font-variant:normal;font-weight:normal;writing-mode:lr-tb;fill:#231f20;fill-opacity:1;fill-rule:nonzero;stroke:none;font-family:Symbol;-inkscape-font-specification:Symbol"
       id="path3199"
       inkscape:connector-curvature="0" />
    <path
       d="m 284.54628,892.45157 0,-0.55001 -5.24011,1.1e-4 10e-6,0.55 5.2401,-1e-4"
       style="font-size:8.00008011px;font-variant:normal;font-weight:normal;writing-mode:lr-tb;fill:#231f20;fill-opacity:1;fill-rule:nonzero;stroke:none;font-family:Symbol;-inkscape-font-specification:Symbol"
       id="path3201"
       inkscape:connector-curvature="0" />
    <path
       id="path17602"
       style="fill:#ffffff;fill-opacity:1;fill-rule:nonzero;stroke:none"
       d="m 211.95781,925.5865 c 0,1.15 -0.9325,2.084 -2.08375,2.084 -1.15125,0 -2.08375,-0.934 -2.08375,-2.084 0,-1.14987 0.9325,-2.0835 2.08375,-2.0835 1.15125,0 2.08375,0.93363 2.08375,2.0835"
       inkscape:connector-curvature="0" />
    <path
       id="path17604"
       style="fill:none;stroke:#231f20;stroke-width:0.625;stroke-linecap:butt;stroke-linejoin:miter;stroke-miterlimit:4;stroke-opacity:1;stroke-dasharray:none"
       d="m 211.95781,925.5865 c 0,1.15 -0.9325,2.084 -2.08375,2.084 -1.15125,0 -2.08375,-0.934 -2.08375,-2.084 0,-1.14987 0.9325,-2.0835 2.08375,-2.0835 1.15125,0 2.08375,0.93363 2.08375,2.0835 z"
       inkscape:connector-curvature="0" />
    <path
       id="path17606"
       style="fill:none;stroke:#231f20;stroke-width:1;stroke-linecap:round;stroke-linejoin:round;stroke-miterlimit:3.86369991;stroke-opacity:1;stroke-dasharray:none"
       d="m 275.39162,892.0895 -109.35881,0"
       inkscape:connector-curvature="0" />
    <path
       id="path17610"
       style="fill:#ffffff;fill-opacity:1;fill-rule:nonzero;stroke:none"
       d="m 211.82406,892.0895 c 0,1.14987 -0.9325,2.0835 -2.085,2.0835 -1.15,0 -2.0825,-0.93363 -2.0825,-2.0835 0,-1.14988 0.9325,-2.084 2.0825,-2.084 1.1525,0 2.085,0.93412 2.085,2.084"
       inkscape:connector-curvature="0" />
    <path
       id="path17612"
       style="fill:none;stroke:#231f20;stroke-width:0.625;stroke-linecap:butt;stroke-linejoin:miter;stroke-miterlimit:4;stroke-opacity:1;stroke-dasharray:none"
       d="m 211.82406,892.0895 c 0,1.14987 -0.9325,2.0835 -2.085,2.0835 -1.15,0 -2.0825,-0.93363 -2.0825,-2.0835 0,-1.14988 0.9325,-2.084 2.0825,-2.084 1.1525,0 2.085,0.93412 2.085,2.084 z"
       inkscape:connector-curvature="0" />
    <path
       id="path17614"
       style="fill:#231f20;fill-opacity:1;fill-rule:nonzero;stroke:none"
       d="m 168.11656,892.0895 c 0,1.14987 -0.9325,2.0835 -2.08375,2.0835 -1.15,0 -2.0825,-0.93363 -2.0825,-2.0835 0,-1.14988 0.9325,-2.084 2.0825,-2.084 1.15125,0 2.08375,0.93412 2.08375,2.084"
       inkscape:connector-curvature="0" />
    <path
       id="path17616"
       style="fill:#231f20;fill-opacity:1;fill-rule:nonzero;stroke:none"
       d="m 168.11656,927.923 c 0,1.14987 -0.9325,2.084 -2.08375,2.084 -1.15,0 -2.0825,-0.93413 -2.0825,-2.084 0,-1.14988 0.9325,-2.0835 2.0825,-2.0835 1.15125,0 2.08375,0.93362 2.08375,2.0835"
       inkscape:connector-curvature="0" />
    <path
       id="path17618"
       style="fill:#ffffff;fill-opacity:1;fill-rule:nonzero;stroke:none"
       d="m 36.084432,892.0895 c 0,1.14987 -0.932625,2.0835 -2.084463,2.0835 -1.1499,0 -2.083,-0.93363 -2.083,-2.0835 0,-1.14988 0.9331,-2.084 2.083,-2.084 1.151838,0 2.084463,0.93412 2.084463,2.084"
       inkscape:connector-curvature="0" />
    <path
       id="path17620"
       style="fill:none;stroke:#231f20;stroke-width:0.625;stroke-linecap:butt;stroke-linejoin:miter;stroke-miterlimit:4;stroke-opacity:1;stroke-dasharray:none"
       d="m 36.084432,892.0895 c 0,1.14987 -0.932625,2.0835 -2.084463,2.0835 -1.1499,0 -2.083,-0.93363 -2.083,-2.0835 0,-1.14988 0.9331,-2.084 2.083,-2.084 1.151838,0 2.084463,0.93412 2.084463,2.084 z"
       inkscape:connector-curvature="0" />
    <path
       id="path17622"
       style="fill:#ffffff;fill-opacity:1;fill-rule:nonzero;stroke:none"
       d="m 36.084432,927.923 c 0,1.14987 -0.932625,2.084 -2.084463,2.084 -1.1499,0 -2.083,-0.93413 -2.083,-2.084 0,-1.14988 0.9331,-2.0835 2.083,-2.0835 1.151838,0 2.084463,0.93362 2.084463,2.0835"
       inkscape:connector-curvature="0" />
    <path
       id="path17624"
       style="fill:none;stroke:#231f20;stroke-width:0.625;stroke-linecap:butt;stroke-linejoin:miter;stroke-miterlimit:4;stroke-opacity:1;stroke-dasharray:none"
       d="m 36.084432,927.923 c 0,1.14987 -0.932625,2.084 -2.084463,2.084 -1.1499,0 -2.083,-0.93413 -2.083,-2.084 0,-1.14988 0.9331,-2.0835 2.083,-2.0835 1.151838,0 2.084463,0.93362 2.084463,2.0835 z"
       inkscape:connector-curvature="0" />
    <path
       id="path17626"
       style="fill:#ffffff;fill-opacity:1;fill-rule:nonzero;stroke:none"
       d="m 36.084432,963.757 c 0,1.14988 -0.932625,2.0835 -2.084463,2.0835 -1.1499,0 -2.083,-0.93362 -2.083,-2.0835 0,-1.15038 0.9331,-2.084 2.083,-2.084 1.151838,0 2.084463,0.93362 2.084463,2.084"
       inkscape:connector-curvature="0" />
    <path
       id="path17628"
       style="fill:none;stroke:#231f20;stroke-width:0.625;stroke-linecap:butt;stroke-linejoin:miter;stroke-miterlimit:4;stroke-opacity:1;stroke-dasharray:none"
       d="m 36.084432,963.757 c 0,1.14988 -0.932625,2.0835 -2.084463,2.0835 -1.1499,0 -2.083,-0.93362 -2.083,-2.0835 0,-1.15038 0.9331,-2.084 2.083,-2.084 1.151838,0 2.084463,0.93362 2.084463,2.084 z"
       inkscape:connector-curvature="0" />
    <path
       id="path17630"
       style="fill:#ffffff;fill-opacity:1;fill-rule:nonzero;stroke:none"
       d="m 77.35092,968.3805 40.56395,0 0,-9.33496 -40.56395,0 0,9.33496 z"
       inkscape:connector-curvature="0" />
    <path
       id="path17632"
       style="fill:none;stroke:#231f20;stroke-width:1;stroke-linecap:round;stroke-linejoin:round;stroke-miterlimit:3.86369991;stroke-opacity:1;stroke-dasharray:none"
       d="m 118.19312,963.757 -4.51562,0 -1.96288,4.6235 -3.9365,-9.335 -3.9941,9.335 -3.9966,-9.335 -3.938,9.335 -3.90375,-9.335 -3.938,9.335 -3.996625,-9.21625 -1.911625,4.59275 -4.7485,0"
       inkscape:connector-curvature="0" />
    <path
       inkscape:connector-curvature="0"
       id="path9987"
       style="font-size:10.00030041px;font-variant:normal;font-weight:normal;writing-mode:lr-tb;fill:#231f20;fill-opacity:1;fill-rule:nonzero;stroke:none;font-family:Symbol;-inkscape-font-specification:Symbol"
       d="m 452.09462,913.42111 -0.55002,10e-6 7e-5,2.39005 -2.37009,7e-5 1e-5,0.55001 2.3701,-7e-5 7e-5,2.39005 0.55002,-2e-5 -7e-5,-2.39004 2.3701,-7e-5 -2e-5,-0.55002 -2.37009,7e-5 -8e-5,-2.39004" />
    <path
       inkscape:connector-curvature="0"
       id="path9989"
       style="font-size:10.00030041px;font-variant:normal;font-weight:normal;writing-mode:lr-tb;fill:#231f20;fill-opacity:1;fill-rule:nonzero;stroke:none;font-family:Symbol;-inkscape-font-specification:Symbol"
       d="m 449.18605,988.64046 2e-5,0.55001 5.24021,-1.6e-4 -2e-5,-0.55001 -5.24021,1.6e-4" />
  </g>
</svg>
