<?xml version="1.0" encoding="UTF-8" standalone="no"?>
<!-- Created with Inkscape (http://www.inkscape.org/) -->

<svg
   xmlns:ns0="http://www.iki.fi/pav/software/textext/"
   xmlns:dc="http://purl.org/dc/elements/1.1/"
   xmlns:cc="http://creativecommons.org/ns#"
   xmlns:rdf="http://www.w3.org/1999/02/22-rdf-syntax-ns#"
   xmlns:svg="http://www.w3.org/2000/svg"
   xmlns="http://www.w3.org/2000/svg"
   xmlns:sodipodi="http://sodipodi.sourceforge.net/DTD/sodipodi-0.dtd"
   xmlns:inkscape="http://www.inkscape.org/namespaces/inkscape"
   sodipodi:docname="S3-EE-06-IN014.eps"
   inkscape:version="0.48.4 r9939"
   version="1.1"
   id="svg2"
   height="283.46457"
   width="496.06299">
  <sodipodi:namedview
     id="base"
     pagecolor="#ffffff"
     bordercolor="#666666"
     borderopacity="1.0"
     inkscape:pageopacity="0.0"
     inkscape:pageshadow="2"
     inkscape:zoom="1.7114762"
     inkscape:cx="248.03149"
     inkscape:cy="141.73228"
     inkscape:document-units="cm"
     inkscape:current-layer="layer1"
     showgrid="false"
     units="cm"
     inkscape:object-nodes="true"
     inkscape:window-width="1366"
     inkscape:window-height="744"
     inkscape:window-x="0"
     inkscape:window-y="24"
     inkscape:window-maximized="1"
     showguides="true"
     inkscape:guide-bbox="true">
    <inkscape:grid
       snapvisiblegridlinesonly="true"
       enabled="true"
       visible="true"
       empspacing="5"
       id="grid2985"
       type="xygrid" />
  </sodipodi:namedview>
  <defs
     id="defs4">
    <marker
       inkscape:stockid="Arrow1Mstart"
       orient="auto"
       refY="0"
       refX="0"
       id="Arrow1Mstart"
       style="overflow:visible">
      <path
         inkscape:connector-curvature="0"
         id="path6343"
         d="M 0,0 5,-5 -12.5,0 5,5 0,0 z"
         style="fill-rule:evenodd;stroke:#000000;stroke-width:1pt"
         transform="matrix(0.4,0,0,0.4,4,0)" />
    </marker>
    <marker
       style="overflow:visible"
       id="Arrow1Mend"
       refX="0"
       refY="0"
       orient="auto"
       inkscape:stockid="Arrow1Mend">
      <path
         inkscape:connector-curvature="0"
         transform="matrix(-0.4,0,0,-0.4,-4,0)"
         style="fill-rule:evenodd;stroke:#000000;stroke-width:1pt"
         d="M 0,0 5,-5 -12.5,0 5,5 0,0 z"
         id="path3949" />
    </marker>
    <marker
       style="overflow:visible"
       id="Arrow1Mend-0"
       refX="0"
       refY="0"
       orient="auto"
       inkscape:stockid="Arrow1Mend">
      <path
         inkscape:connector-curvature="0"
         transform="matrix(-0.4,0,0,-0.4,-4,0)"
         style="fill-rule:evenodd;stroke:#000000;stroke-width:1pt"
         d="M 0,0 5,-5 -12.5,0 5,5 0,0 z"
         id="path3949-9" />
    </marker>
    <marker
       style="overflow:visible"
       id="Arrow1Mend-0-1"
       refX="0"
       refY="0"
       orient="auto"
       inkscape:stockid="Arrow1Mend">
      <path
         inkscape:connector-curvature="0"
         transform="matrix(-0.4,0,0,-0.4,-4,0)"
         style="fill-rule:evenodd;stroke:#000000;stroke-width:1pt"
         d="M 0,0 5,-5 -12.5,0 5,5 0,0 z"
         id="path3949-9-4" />
    </marker>
    <marker
       style="overflow:visible"
       id="Arrow1Mend-8"
       refX="0"
       refY="0"
       orient="auto"
       inkscape:stockid="Arrow1Mend">
      <path
         inkscape:connector-curvature="0"
         transform="matrix(-0.4,0,0,-0.4,-4,0)"
         style="fill-rule:evenodd;stroke:#000000;stroke-width:1pt"
         d="M 0,0 5,-5 -12.5,0 5,5 0,0 z"
         id="path3949-6" />
    </marker>
    <marker
       inkscape:stockid="Arrow1Mstart"
       orient="auto"
       refY="0"
       refX="0"
       id="Arrow1Mstart-6"
       style="overflow:visible">
      <path
         inkscape:connector-curvature="0"
         id="path6343-6"
         d="M 0,0 5,-5 -12.5,0 5,5 0,0 z"
         style="fill-rule:evenodd;stroke:#000000;stroke-width:1pt"
         transform="matrix(0.4,0,0,0.4,4,0)" />
    </marker>
  </defs>
  <metadata
     id="metadata7">
    <rdf:RDF>
      <cc:Work
         rdf:about="">
        <dc:format>image/svg+xml</dc:format>
        <dc:type
           rdf:resource="http://purl.org/dc/dcmitype/StillImage" />
        <dc:title></dc:title>
      </cc:Work>
    </rdf:RDF>
  </metadata>
  <g
     transform="translate(0,-768.89631)"
     id="layer1"
     inkscape:groupmode="layer"
     inkscape:label="Layer 1">
    <path
       inkscape:connector-curvature="0"
       id="path4174"
       d="m 160.31917,922.36088 0,-35 15,0"
       style="fill:none;stroke:#000000;stroke-width:1;stroke-linecap:butt;stroke-linejoin:round;stroke-miterlimit:3.86369991;stroke-opacity:1;stroke-dasharray:none;stroke-dashoffset:0" />
    <path
       inkscape:connector-curvature="0"
       d="m 166.00711,992.36088 -11.94098,0"
       style="fill:none;stroke:#000000;stroke-width:1;stroke-linecap:round;stroke-linejoin:round;stroke-miterlimit:3.86369991;stroke-opacity:1;stroke-dasharray:none"
       id="path17923" />
    <path
       inkscape:connector-curvature="0"
       d="m 164.72772,995.10748 -9.3822,0"
       style="fill:none;stroke:#000000;stroke-width:1;stroke-linecap:round;stroke-linejoin:round;stroke-miterlimit:3.86369991;stroke-opacity:1;stroke-dasharray:none"
       id="path17925" />
    <path
       inkscape:connector-curvature="0"
       d="m 162.31917,998.10748 -5,0"
       style="fill:none;stroke:#000000;stroke-width:0.99999994;stroke-linecap:round;stroke-linejoin:round;stroke-miterlimit:3.86369991;stroke-opacity:1;stroke-dasharray:none"
       id="path17927" />
    <path
       sodipodi:nodetypes="cccccccccccc"
       inkscape:connector-curvature="0"
       d="m 83.880915,922.36088 -3.080859,0 -1.339693,3.15515 -2.686124,-6.37017 -2.725359,6.37017 -2.726979,-6.37017 -2.687063,6.37017 -2.663777,-6.37017 -2.687063,6.37017 -2.726979,-6.28829 -1.304382,3.13314 -5.240186,0"
       style="fill:none;stroke:#000000;stroke-width:1;stroke-linecap:round;stroke-linejoin:round;stroke-miterlimit:3.86369991;stroke-opacity:1;stroke-dasharray:none"
       id="path17959" />
    <path
       inkscape:connector-curvature="0"
       id="path4125"
       d="M 56.839513,922.36088 25,922.36088"
       style="fill:none;stroke:#000000;stroke-width:1;stroke-linecap:butt;stroke-linejoin:round;stroke-miterlimit:3.86369991;stroke-opacity:1;stroke-dasharray:none;stroke-dashoffset:0" />
    <path
       sodipodi:nodetypes="cc"
       style="fill:none;stroke:#000000;stroke-width:0.99999994;stroke-linecap:butt;stroke-linejoin:round;stroke-miterlimit:3.86369991;stroke-opacity:1;stroke-dasharray:none;stroke-dashoffset:0"
       d="m 180.46076,922.36084 -97.940619,0"
       id="path4127"
       inkscape:connector-curvature="0" />
    <path
       transform="translate(-10,801.39631)"
       d="m 35,120.96457 c 0,1.38071 -1.119288,2.5 -2.5,2.5 -1.380712,0 -2.5,-1.11929 -2.5,-2.5 0,-1.38071 1.119288,-2.5 2.5,-2.5 1.380712,0 2.5,1.11929 2.5,2.5 z"
       sodipodi:ry="2.5"
       sodipodi:rx="2.5"
       sodipodi:cy="120.96457"
       sodipodi:cx="32.5"
       id="path4129"
       style="fill:none;stroke:#000000;stroke-width:0.69999999;stroke-linecap:butt;stroke-linejoin:round;stroke-miterlimit:3.86369991;stroke-opacity:1;stroke-dasharray:none;stroke-dashoffset:0"
       sodipodi:type="arc" />
    <path
       d="m 97.5,922.3609 c 0,1.38071 -1.119288,2.5 -2.5,2.5 -1.380712,0 -2.5,-1.11929 -2.5,-2.5 0,-1.38071 1.119288,-2.5 2.5,-2.5 1.380712,0 2.5,1.11929 2.5,2.5 z"
       sodipodi:ry="2.5"
       sodipodi:rx="2.5"
       sodipodi:cy="922.3609"
       sodipodi:cx="95"
       style="fill:#000000;stroke:none"
       id="path4131"
       sodipodi:type="arc"
       transform="translate(20.31917,0)" />
    <path
       id="path4133"
       style="fill:none;stroke:#000000;stroke-width:1;stroke-linecap:round;stroke-linejoin:round;stroke-miterlimit:3.86369991;stroke-opacity:1;stroke-dasharray:none"
       d="m 80.839528,952.36088 -3.080859,0 -1.339693,3.15515 -2.686124,-6.37017 -2.725359,6.37017 -2.726979,-6.37017 -2.687063,6.37017 -2.663777,-6.37017 -2.687063,6.37017 -2.726979,-6.28829 -1.304382,3.13314 -5.240186,0"
       inkscape:connector-curvature="0"
       sodipodi:nodetypes="cccccccccccc" />
    <path
       style="fill:none;stroke:#000000;stroke-width:1;stroke-linecap:butt;stroke-linejoin:round;stroke-miterlimit:3.86369991;stroke-opacity:1;stroke-dasharray:none;stroke-dashoffset:0"
       d="M 52.664217,952.36088 25,952.36088"
       id="path4135"
       inkscape:connector-curvature="0" />
    <path
       inkscape:connector-curvature="0"
       id="path4137"
       d="m 115,952.36088 -34.671569,0"
       style="fill:none;stroke:#000000;stroke-width:0.99999994;stroke-linecap:butt;stroke-linejoin:round;stroke-miterlimit:3.86369991;stroke-opacity:1;stroke-dasharray:none;stroke-dashoffset:0" />
    <path
       sodipodi:type="arc"
       style="fill:none;stroke:#000000;stroke-width:0.69999999;stroke-linecap:butt;stroke-linejoin:round;stroke-miterlimit:3.86369991;stroke-opacity:1;stroke-dasharray:none;stroke-dashoffset:0"
       id="path4139"
       sodipodi:cx="32.5"
       sodipodi:cy="120.96457"
       sodipodi:rx="2.5"
       sodipodi:ry="2.5"
       d="m 35,120.96457 c 0,1.38071 -1.119288,2.5 -2.5,2.5 -1.380712,0 -2.5,-1.11929 -2.5,-2.5 0,-1.38071 1.119288,-2.5 2.5,-2.5 1.380712,0 2.5,1.11929 2.5,2.5 z"
       transform="translate(-10,831.39631)" />
    <path
       transform="translate(20.31917,29.999999)"
       sodipodi:type="arc"
       id="path4141"
       style="fill:#000000;stroke:none"
       sodipodi:cx="95"
       sodipodi:cy="922.3609"
       sodipodi:rx="2.5"
       sodipodi:ry="2.5"
       d="m 97.5,922.3609 c 0,1.38071 -1.119288,2.5 -2.5,2.5 -1.380712,0 -2.5,-1.11929 -2.5,-2.5 0,-1.38071 1.119288,-2.5 2.5,-2.5 1.380712,0 2.5,1.11929 2.5,2.5 z" />
    <path
       sodipodi:nodetypes="cccccccccccc"
       inkscape:connector-curvature="0"
       d="m 80.839528,982.36088 -3.080859,0 -1.339693,3.15515 -2.686124,-6.37017 -2.725359,6.37017 -2.726979,-6.37017 -2.687063,6.37017 -2.663777,-6.37017 -2.687063,6.37017 -2.726979,-6.28829 -1.304382,3.13314 -5.240186,0"
       style="fill:none;stroke:#000000;stroke-width:1;stroke-linecap:round;stroke-linejoin:round;stroke-miterlimit:3.86369991;stroke-opacity:1;stroke-dasharray:none"
       id="path4143" />
    <path
       inkscape:connector-curvature="0"
       id="path4145"
       d="m 55,982.36088 -30,0"
       style="fill:none;stroke:#000000;stroke-width:1;stroke-linecap:butt;stroke-linejoin:round;stroke-miterlimit:3.86369991;stroke-opacity:1;stroke-dasharray:none;stroke-dashoffset:0" />
    <path
       style="fill:none;stroke:#000000;stroke-width:0.99999994;stroke-linecap:butt;stroke-linejoin:round;stroke-miterlimit:3.86369991;stroke-opacity:1;stroke-dasharray:none;stroke-dashoffset:0"
       d="m 115.81618,982.36088 -35.1392,0"
       id="path4147"
       inkscape:connector-curvature="0" />
    <path
       transform="translate(-10,861.39631)"
       d="m 35,120.96457 c 0,1.38071 -1.119288,2.5 -2.5,2.5 -1.380712,0 -2.5,-1.11929 -2.5,-2.5 0,-1.38071 1.119288,-2.5 2.5,-2.5 1.380712,0 2.5,1.11929 2.5,2.5 z"
       sodipodi:ry="2.5"
       sodipodi:rx="2.5"
       sodipodi:cy="120.96457"
       sodipodi:cx="32.5"
       id="path4149"
       style="fill:none;stroke:#000000;stroke-width:0.69999999;stroke-linecap:butt;stroke-linejoin:round;stroke-miterlimit:3.86369991;stroke-opacity:1;stroke-dasharray:none;stroke-dashoffset:0"
       sodipodi:type="arc" />
    <path
       inkscape:connector-curvature="0"
       id="path4153"
       d="m 115.31917,982.36088 0,-60"
       style="fill:none;stroke:#000000;stroke-width:1;stroke-linecap:butt;stroke-linejoin:round;stroke-miterlimit:3.86369991;stroke-opacity:1;stroke-dasharray:none;stroke-dashoffset:0" />
    <path
       inkscape:transform-center-x="-5"
       transform="translate(20.31917,776.21682)"
       d="m 190,153.46457 -30,17.32051 0,-34.64102 z"
       inkscape:randomized="0"
       inkscape:rounded="0"
       inkscape:flatsided="true"
       sodipodi:arg2="1.0471976"
       sodipodi:arg1="0"
       sodipodi:r2="10"
       sodipodi:r1="20"
       sodipodi:cy="153.46457"
       sodipodi:cx="170"
       sodipodi:sides="3"
       id="path4155"
       style="fill:none;stroke:#000000;stroke-width:1.2;stroke-linecap:butt;stroke-linejoin:round;stroke-miterlimit:3.86369991;stroke-opacity:1;stroke-dasharray:none;stroke-dashoffset:0"
       sodipodi:type="star" />
    <path
       inkscape:connector-curvature="0"
       id="path4157"
       d="m 180.31917,937.36088 -20,0 0,55"
       style="fill:none;stroke:#000000;stroke-width:1;stroke-linecap:butt;stroke-linejoin:round;stroke-miterlimit:3.86369991;stroke-opacity:1;stroke-dasharray:none;stroke-dashoffset:0"
       sodipodi:nodetypes="ccc" />
    <path
       sodipodi:type="arc"
       style="fill:#ffffff;stroke:#000000;stroke-width:0.69999999;stroke-linecap:butt;stroke-linejoin:round;stroke-miterlimit:3.86369991;stroke-opacity:1;stroke-dasharray:none;stroke-dashoffset:0"
       id="path4159"
       sodipodi:cx="32.5"
       sodipodi:cy="120.96457"
       sodipodi:rx="2.5"
       sodipodi:ry="2.5"
       d="m 35,120.96457 c 0,1.38071 -1.119288,2.5 -2.5,2.5 -1.380712,0 -2.5,-1.11929 -2.5,-2.5 0,-1.38071 1.119288,-2.5 2.5,-2.5 1.380712,0 2.5,1.11929 2.5,2.5 z"
       transform="translate(127.81917,801.39631)" />
    <g
       transform="translate(138.54558,-65.000001)"
       id="g4167">
      <path
         id="path4161"
         style="fill:none;stroke:#000000;stroke-width:1;stroke-linecap:round;stroke-linejoin:round;stroke-miterlimit:3.86369991;stroke-opacity:1;stroke-dasharray:none"
         d="m 74.868464,952.36088 -3.080859,0 -1.339693,3.15515 -2.686124,-6.37017 -2.725359,6.37017 -2.726979,-6.37017 -2.687063,6.37017 -2.663777,-6.37017 -2.687063,6.37017 -2.726979,-6.28829 -1.304382,3.13314 -5.240186,0"
         inkscape:connector-curvature="0"
         sodipodi:nodetypes="cccccccccccc" />
      <path
         style="fill:none;stroke:#000000;stroke-width:1;stroke-linecap:butt;stroke-linejoin:round;stroke-miterlimit:3.86369991;stroke-opacity:1;stroke-dasharray:none;stroke-dashoffset:0"
         d="m 45,952.36088 -20,0"
         id="path4163"
         inkscape:connector-curvature="0" />
      <path
         inkscape:connector-curvature="0"
         id="path4165"
         d="m 94.999997,952.36088 -19.999999,0"
         style="fill:none;stroke:#000000;stroke-width:0.99999994;stroke-linecap:butt;stroke-linejoin:round;stroke-miterlimit:3.86369991;stroke-opacity:1;stroke-dasharray:none;stroke-dashoffset:0" />
    </g>
    <path
       inkscape:connector-curvature="0"
       id="path4172"
       d="m 260.31917,929.68139 -50,0"
       style="fill:none;stroke:#000000;stroke-width:0.99999994;stroke-linecap:butt;stroke-linejoin:round;stroke-miterlimit:3.86369991;stroke-opacity:1;stroke-dasharray:none;stroke-dashoffset:0"
       sodipodi:nodetypes="cc" />
    <path
       sodipodi:nodetypes="ccc"
       style="fill:none;stroke:#000000;stroke-width:1;stroke-linecap:butt;stroke-linejoin:round;stroke-miterlimit:3.86369991;stroke-opacity:1;stroke-dasharray:none;stroke-dashoffset:0"
       d="m 240.31917,927.36088 0,-40 -15,0"
       id="path4176"
       inkscape:connector-curvature="0" />
    <path
       d="m 222.5,929.3609 a 2.5,2.5 0 1 1 -5,0 2.5,2.5 0 1 1 5,0 z"
       sodipodi:ry="2.5"
       sodipodi:rx="2.5"
       sodipodi:cy="929.3609"
       sodipodi:cx="220"
       style="fill:#000000;stroke:none"
       id="path4178"
       sodipodi:type="arc"
       transform="translate(20.31917,0.3841266)" />
    <g
       id="g4180"
       transform="translate(217.3949,-22.67949)">
      <path
         sodipodi:nodetypes="cccccccccccc"
         inkscape:connector-curvature="0"
         d="m 74.868464,952.36088 -3.080859,0 -1.339693,3.15515 -2.686124,-6.37017 -2.725359,6.37017 -2.726979,-6.37017 -2.687063,6.37017 -2.663777,-6.37017 -2.687063,6.37017 -2.726979,-6.28829 -1.304382,3.13314 -5.240186,0"
         style="fill:none;stroke:#000000;stroke-width:1;stroke-linecap:round;stroke-linejoin:round;stroke-miterlimit:3.86369991;stroke-opacity:1;stroke-dasharray:none"
         id="path4182" />
      <path
         inkscape:connector-curvature="0"
         id="path4184"
         d="m 45,952.36088 -20,0"
         style="fill:none;stroke:#000000;stroke-width:1;stroke-linecap:butt;stroke-linejoin:round;stroke-miterlimit:3.86369991;stroke-opacity:1;stroke-dasharray:none;stroke-dashoffset:0" />
      <path
         sodipodi:nodetypes="cc"
         style="fill:none;stroke:#000000;stroke-width:0.99999994;stroke-linecap:butt;stroke-linejoin:round;stroke-miterlimit:3.86369991;stroke-opacity:1;stroke-dasharray:none;stroke-dashoffset:0"
         d="m 117.92427,952.36088 -42.924272,0"
         id="path4186"
         inkscape:connector-curvature="0" />
    </g>
    <path
       style="fill:none;stroke:#000000;stroke-width:1;stroke-linecap:butt;stroke-linejoin:round;stroke-miterlimit:3.86369991;stroke-opacity:1;stroke-dasharray:none;stroke-dashoffset:0"
       d="m 315.31917,929.41152 0,-35 15,0"
       id="path4188"
       inkscape:connector-curvature="0" />
    <path
       sodipodi:type="star"
       style="fill:none;stroke:#000000;stroke-width:1.2;stroke-linecap:butt;stroke-linejoin:round;stroke-miterlimit:3.86369991;stroke-opacity:1;stroke-dasharray:none;stroke-dashoffset:0"
       id="path4190"
       sodipodi:sides="3"
       sodipodi:cx="170"
       sodipodi:cy="153.46457"
       sodipodi:r1="20"
       sodipodi:r2="10"
       sodipodi:arg1="0"
       sodipodi:arg2="1.0471976"
       inkscape:flatsided="true"
       inkscape:rounded="0"
       inkscape:randomized="0"
       d="m 190,153.46457 -30,17.32051 0,-34.64102 z"
       transform="translate(175.31917,783.26746)"
       inkscape:transform-center-x="-5" />
    <path
       sodipodi:nodetypes="ccc"
       style="fill:none;stroke:#000000;stroke-width:1;stroke-linecap:butt;stroke-linejoin:round;stroke-miterlimit:3.86369991;stroke-opacity:1;stroke-dasharray:none;stroke-dashoffset:0"
       d="m 335.31917,944.41152 -20,0 0,47.94936"
       id="path4192"
       inkscape:connector-curvature="0" />
    <path
       transform="translate(282.81917,808.44695)"
       d="m 35,120.96457 c 0,1.38071 -1.119288,2.5 -2.5,2.5 -1.380712,0 -2.5,-1.11929 -2.5,-2.5 0,-1.38071 1.119288,-2.5 2.5,-2.5 1.380712,0 2.5,1.11929 2.5,2.5 z"
       sodipodi:ry="2.5"
       sodipodi:rx="2.5"
       sodipodi:cy="120.96457"
       sodipodi:cx="32.5"
       id="path4194"
       style="fill:#ffffff;stroke:#000000;stroke-width:0.69999999;stroke-linecap:butt;stroke-linejoin:round;stroke-miterlimit:3.86369991;stroke-opacity:1;stroke-dasharray:none;stroke-dashoffset:0"
       sodipodi:type="arc" />
    <g
       id="g4196"
       transform="translate(300.31917,-57.949358)">
      <path
         sodipodi:nodetypes="cccccccccccc"
         inkscape:connector-curvature="0"
         d="m 74.868464,952.36088 -3.080859,0 -1.339693,3.15515 -2.686124,-6.37017 -2.725359,6.37017 -2.726979,-6.37017 -2.687063,6.37017 -2.663777,-6.37017 -2.687063,6.37017 -2.726979,-6.28829 -1.304382,3.13314 -5.240186,0"
         style="fill:none;stroke:#000000;stroke-width:1;stroke-linecap:round;stroke-linejoin:round;stroke-miterlimit:3.86369991;stroke-opacity:1;stroke-dasharray:none"
         id="path4198" />
      <path
         inkscape:connector-curvature="0"
         id="path4200"
         d="m 45,952.36088 -20,0"
         style="fill:none;stroke:#000000;stroke-width:1;stroke-linecap:butt;stroke-linejoin:round;stroke-miterlimit:3.86369991;stroke-opacity:1;stroke-dasharray:none;stroke-dashoffset:0" />
      <path
         style="fill:none;stroke:#000000;stroke-width:0.99999994;stroke-linecap:butt;stroke-linejoin:round;stroke-miterlimit:3.86369991;stroke-opacity:1;stroke-dasharray:none;stroke-dashoffset:0"
         d="m 94.999997,952.36088 -19.999999,0"
         id="path4202"
         inkscape:connector-curvature="0" />
    </g>
    <path
       sodipodi:nodetypes="cc"
       style="fill:none;stroke:#000000;stroke-width:0.99999994;stroke-linecap:butt;stroke-linejoin:round;stroke-miterlimit:3.86369991;stroke-opacity:1;stroke-dasharray:none;stroke-dashoffset:0"
       d="m 425.31917,936.73203 -60,0"
       id="path4204"
       inkscape:connector-curvature="0" />
    <path
       inkscape:connector-curvature="0"
       id="path4206"
       d="m 395.31917,934.41152 0,-40 -15,0"
       style="fill:none;stroke:#000000;stroke-width:0.992;stroke-linecap:butt;stroke-linejoin:round;stroke-miterlimit:3.86369991;stroke-opacity:1;stroke-dasharray:none;stroke-dashoffset:0"
       sodipodi:nodetypes="ccc" />
    <path
       transform="translate(175.31917,7.3222622)"
       sodipodi:type="arc"
       id="path4208"
       style="fill:#000000;stroke:none"
       sodipodi:cx="220"
       sodipodi:cy="929.3609"
       sodipodi:rx="2.5"
       sodipodi:ry="2.5"
       d="m 222.5,929.3609 a 2.5,2.5 0 1 1 -5,0 2.5,2.5 0 1 1 5,0 z" />
    <path
       sodipodi:type="arc"
       style="fill:#ffffff;stroke:#000000;stroke-width:0.69999999;stroke-linecap:butt;stroke-linejoin:round;stroke-miterlimit:3.86369991;stroke-opacity:1;stroke-dasharray:none;stroke-dashoffset:0"
       id="path4210"
       sodipodi:cx="32.5"
       sodipodi:cy="120.96457"
       sodipodi:rx="2.5"
       sodipodi:ry="2.5"
       d="m 35,120.96457 c 0,1.38071 -1.119288,2.5 -2.5,2.5 -1.380712,0 -2.5,-1.11929 -2.5,-2.5 0,-1.38071 1.119288,-2.5 2.5,-2.5 1.380712,0 2.5,1.11929 2.5,2.5 z"
       transform="translate(395.58774,815.56918)" />
    <path
       id="path4216"
       style="fill:none;stroke:#000000;stroke-width:0.99999994;stroke-linecap:round;stroke-linejoin:round;stroke-miterlimit:3.86369991;stroke-opacity:1;stroke-dasharray:none"
       d="m 321.31916,992.36088 -12.32,0"
       inkscape:connector-curvature="0" />
    <path
       id="path4218"
       style="fill:none;stroke:#000000;stroke-width:0.99999994;stroke-linecap:round;stroke-linejoin:round;stroke-miterlimit:3.86369991;stroke-opacity:1;stroke-dasharray:none"
       d="m 319.99916,995.10748 -9.68,0"
       inkscape:connector-curvature="0" />
    <path
       id="path4220"
       style="fill:none;stroke:#000000;stroke-width:0.99999988;stroke-linecap:round;stroke-linejoin:round;stroke-miterlimit:3.86369991;stroke-opacity:1;stroke-dasharray:none"
       d="m 317.51416,998.10748 -5.15871,0"
       inkscape:connector-curvature="0" />
    <path
       inkscape:connector-curvature="0"
       d="m 434.23385,992.36088 -12.32,0"
       style="fill:none;stroke:#000000;stroke-width:0.99999994;stroke-linecap:round;stroke-linejoin:round;stroke-miterlimit:3.86369991;stroke-opacity:1;stroke-dasharray:none"
       id="path4222" />
    <path
       inkscape:connector-curvature="0"
       d="m 432.91385,995.10748 -9.68,0"
       style="fill:none;stroke:#000000;stroke-width:0.99999994;stroke-linecap:round;stroke-linejoin:round;stroke-miterlimit:3.86369991;stroke-opacity:1;stroke-dasharray:none"
       id="path4224" />
    <path
       inkscape:connector-curvature="0"
       d="m 430.42885,998.10748 -5.15871,0"
       style="fill:none;stroke:#000000;stroke-width:0.99999988;stroke-linecap:round;stroke-linejoin:round;stroke-miterlimit:3.86369991;stroke-opacity:1;stroke-dasharray:none"
       id="path4226" />
    <path
       id="path4228"
       style="fill:none;stroke:#000000;stroke-width:0.99999994;stroke-linecap:round;stroke-linejoin:round;stroke-miterlimit:3.86369991;stroke-opacity:1;stroke-dasharray:none"
       d="m 428.07385,991.77121 0,-21.41033"
       inkscape:connector-curvature="0"
       sodipodi:nodetypes="cc" />
    <path
       transform="translate(395.58774,847.89631)"
       d="m 35,120.96457 c 0,1.38071 -1.119288,2.5 -2.5,2.5 -1.380712,0 -2.5,-1.11929 -2.5,-2.5 0,-1.38071 1.119288,-2.5 2.5,-2.5 1.380712,0 2.5,1.11929 2.5,2.5 z"
       sodipodi:ry="2.5"
       sodipodi:rx="2.5"
       sodipodi:cy="120.96457"
       sodipodi:cx="32.5"
       id="path4230"
       style="fill:#ffffff;stroke:#000000;stroke-width:0.69999999;stroke-linecap:butt;stroke-linejoin:round;stroke-miterlimit:3.86369991;stroke-opacity:1;stroke-dasharray:none;stroke-dashoffset:0"
       sodipodi:type="arc" />
    <path
       transform="translate(127.81917,816.41549)"
       d="m 35,120.96457 c 0,1.38071 -1.119288,2.5 -2.5,2.5 -1.380712,0 -2.5,-1.11929 -2.5,-2.5 0,-1.38071 1.119288,-2.5 2.5,-2.5 1.380712,0 2.5,1.11929 2.5,2.5 z"
       sodipodi:ry="2.5"
       sodipodi:rx="2.5"
       sodipodi:cy="120.96457"
       sodipodi:cx="32.5"
       id="path4294"
       style="fill:#ffffff;stroke:#000000;stroke-width:0.69999999;stroke-linecap:butt;stroke-linejoin:round;stroke-miterlimit:3.86369991;stroke-opacity:1;stroke-dasharray:none;stroke-dashoffset:0"
       sodipodi:type="arc" />
    <path
       sodipodi:type="arc"
       style="fill:#ffffff;stroke:#000000;stroke-width:0.69999999;stroke-linecap:butt;stroke-linejoin:round;stroke-miterlimit:3.86369991;stroke-opacity:1;stroke-dasharray:none;stroke-dashoffset:0"
       id="path4296"
       sodipodi:cx="32.5"
       sodipodi:cy="120.96457"
       sodipodi:rx="2.5"
       sodipodi:ry="2.5"
       d="m 35,120.96457 c 0,1.38071 -1.119288,2.5 -2.5,2.5 -1.380712,0 -2.5,-1.11929 -2.5,-2.5 0,-1.38071 1.119288,-2.5 2.5,-2.5 1.380712,0 2.5,1.11929 2.5,2.5 z"
       transform="translate(282.81917,823.43816)" />
    <g
       ns0:preamble="/home/sriranga/Desktop/MCT/package.tex"
       ns0:text="$v_o$"
       word-spacing="normal"
       letter-spacing="normal"
       font-size-adjust="none"
       font-stretch="normal"
       font-weight="normal"
       font-variant="normal"
       font-style="normal"
       stroke-miterlimit="10.433"
       xml:space="preserve"
       transform="matrix(1.2,0,0,-1.2,165.4564,1786.5295)"
       id="content"
       style="font-style:normal;font-variant:normal;font-weight:normal;font-stretch:normal;letter-spacing:normal;word-spacing:normal;text-anchor:start;fill:none;stroke:#000000;stroke-width:1;stroke-linecap:butt;stroke-linejoin:miter;stroke-miterlimit:10.43299961;stroke-opacity:1;stroke-dasharray:none;stroke-dashoffset:0"><path
         id="path4474"
         d="m 223.64,711.13 0.02,0 0.02,0 0.02,0 0.02,0 0.02,0 0.01,0.01 0.02,0 0.02,0 0.04,0 0.01,0 0.02,0 0.02,0 0.02,0 0.02,0 0.02,0 c 0.39,0 0.49,-0.17 0.63,-1.09 0.1,-0.68 0.22,-2.18 0.22,-2.76 0,-0.27 0.01,-0.34 0.09,-0.34 0.24,0 1.17,1.05 2.18,2.46 0.35,0.5 0.61,1.14 0.61,1.51 0,0.32 -0.26,0.59 -0.56,0.59 -0.22,0 -0.37,-0.13 -0.37,-0.34 0,-0.16 0.06,-0.28 0.24,-0.44 0.13,-0.12 0.18,-0.2 0.18,-0.3 0,-0.45 -0.65,-1.56 -1.36,-2.29 l -0.31,-0.32 c -0.07,1.4 -0.13,1.92 -0.26,2.65 -0.2,1.02 -0.2,1.04 -0.29,1.04 -0.04,0 -0.12,-0.01 -0.2,-0.04 -0.17,-0.05 -0.72,-0.15 -1.1,-0.21 z"
         inkscape:connector-curvature="0"
         style="fill:#000000;stroke-width:0" /><path
         id="path4476"
         d="m 230.12,708.7 -0.08,-0.15 c 0.3,0 0.49,-0.26 0.49,-0.65 0,-0.51 -0.23,-1.2 -0.54,-1.66 -0.25,-0.37 -0.52,-0.54 -0.82,-0.54 -0.32,0 -0.54,0.25 -0.54,0.63 0,0.52 0.2,1.13 0.54,1.62 0.27,0.39 0.57,0.6 0.87,0.6 h 0 l 0.08,0.15 c -1.05,0 -2.08,-1.08 -2.08,-2.17 0,-0.6 0.39,-0.98 1.03,-0.98 0.46,0 0.9,0.21 1.31,0.61 0.46,0.45 0.74,1.04 0.74,1.56 0,0.58 -0.41,0.98 -1,0.98 z"
         inkscape:connector-curvature="0"
         style="fill:#000000;stroke-width:0" /></g>    <g
       style="font-style:normal;font-variant:normal;font-weight:normal;font-stretch:normal;letter-spacing:normal;word-spacing:normal;text-anchor:start;fill:none;stroke:#000000;stroke-width:1;stroke-linecap:butt;stroke-linejoin:miter;stroke-miterlimit:10.43299961;stroke-opacity:1;stroke-dasharray:none;stroke-dashoffset:0"
       ns0:preamble="/home/sriranga/Desktop/MCT/package.tex"
       ns0:text="$+$"
       word-spacing="normal"
       letter-spacing="normal"
       font-size-adjust="none"
       font-stretch="normal"
       font-weight="normal"
       font-variant="normal"
       font-style="normal"
       stroke-miterlimit="10.433"
       xml:space="preserve"
       transform="matrix(1.2,0,0,-1.2,-86.584,1789.0716)"
       id="g6813"><polygon
         style="fill:#000000;stroke-width:0"
         id="polygon6815"
         points="224.05,709.96 224.05,709.4 226.32,709.4 226.32,707.12 226.87,707.12 226.87,709.4 229.14,709.4 229.14,709.96 226.87,709.96 226.87,712.2 226.32,712.2 226.32,709.96 " /></g>    <g
       id="g7189"
       transform="matrix(1.2,0,0,-1.2,-85.36475,1774.3051)"
       xml:space="preserve"
       stroke-miterlimit="10.433"
       font-style="normal"
       font-variant="normal"
       font-weight="normal"
       font-stretch="normal"
       font-size-adjust="none"
       letter-spacing="normal"
       word-spacing="normal"
       ns0:text="$-$"
       ns0:preamble="/home/sriranga/Desktop/MCT/package.tex"
       style="font-style:normal;font-variant:normal;font-weight:normal;font-stretch:normal;letter-spacing:normal;word-spacing:normal;text-anchor:start;fill:none;stroke:#000000;stroke-width:1;stroke-linecap:butt;stroke-linejoin:miter;stroke-miterlimit:10.43299961;stroke-opacity:1;stroke-dasharray:none;stroke-dashoffset:0"><polygon
         style="fill:#000000;stroke-width:0"
         points="224.05,709.96 224.05,709.4 229.14,709.4 229.14,709.96 "
         id="polygon7191" /></g>    <g
       id="g7378"
       transform="matrix(1.2,0,0,-1.2,68.600593,1796.3518)"
       xml:space="preserve"
       stroke-miterlimit="10.433"
       font-style="normal"
       font-variant="normal"
       font-weight="normal"
       font-stretch="normal"
       font-size-adjust="none"
       letter-spacing="normal"
       word-spacing="normal"
       ns0:text="$+$"
       ns0:preamble="/home/sriranga/Desktop/MCT/package.tex"
       style="font-style:normal;font-variant:normal;font-weight:normal;font-stretch:normal;letter-spacing:normal;word-spacing:normal;text-anchor:start;fill:none;stroke:#000000;stroke-width:1;stroke-linecap:butt;stroke-linejoin:miter;stroke-miterlimit:10.43299961;stroke-opacity:1;stroke-dasharray:none;stroke-dashoffset:0"><polygon
         points="229.14,709.4 229.14,709.96 226.87,709.96 226.87,712.2 226.32,712.2 226.32,709.96 224.05,709.96 224.05,709.4 226.32,709.4 226.32,707.12 226.87,707.12 226.87,709.4 "
         id="polygon7380"
         style="fill:#000000;stroke-width:0" /></g>    <g
       style="font-style:normal;font-variant:normal;font-weight:normal;font-stretch:normal;letter-spacing:normal;word-spacing:normal;text-anchor:start;fill:none;stroke:#000000;stroke-width:1;stroke-linecap:butt;stroke-linejoin:miter;stroke-miterlimit:10.43299961;stroke-opacity:1;stroke-dasharray:none;stroke-dashoffset:0"
       ns0:preamble="/home/sriranga/Desktop/MCT/package.tex"
       ns0:text="$-$"
       word-spacing="normal"
       letter-spacing="normal"
       font-size-adjust="none"
       font-stretch="normal"
       font-weight="normal"
       font-variant="normal"
       font-style="normal"
       stroke-miterlimit="10.433"
       xml:space="preserve"
       transform="matrix(1.2,0,0,-1.2,68.861913,1781.5853)"
       id="g7382"><polygon
         id="polygon7384"
         points="224.05,709.4 229.14,709.4 229.14,709.96 224.05,709.96 "
         style="fill:#000000;stroke-width:0" /></g>    <g
       style="font-style:normal;font-variant:normal;font-weight:normal;font-stretch:normal;letter-spacing:normal;word-spacing:normal;text-anchor:start;fill:none;stroke:#000000;stroke-width:1;stroke-linecap:butt;stroke-linejoin:miter;stroke-miterlimit:10.43299961;stroke-opacity:1;stroke-dasharray:none;stroke-dashoffset:0"
       ns0:preamble="/home/sriranga/Desktop/MCT/package.tex"
       ns0:text="$+$"
       word-spacing="normal"
       letter-spacing="normal"
       font-size-adjust="none"
       font-stretch="normal"
       font-weight="normal"
       font-variant="normal"
       font-style="normal"
       stroke-miterlimit="10.433"
       xml:space="preserve"
       transform="matrix(1.2,0,0,1.2,156.53853,92.584486)"
       id="g7386"><polygon
         style="fill:#000000;stroke-width:0"
         id="polygon7388"
         points="226.32,707.12 226.87,707.12 226.87,709.4 229.14,709.4 229.14,709.96 226.87,709.96 226.87,712.2 226.32,712.2 226.32,709.96 224.05,709.96 224.05,709.4 226.32,709.4 " /></g>    <g
       id="g7390"
       transform="matrix(1.2,0,0,1.2,155.84192,111.18271)"
       xml:space="preserve"
       stroke-miterlimit="10.433"
       font-style="normal"
       font-variant="normal"
       font-weight="normal"
       font-stretch="normal"
       font-size-adjust="none"
       letter-spacing="normal"
       word-spacing="normal"
       ns0:text="$-$"
       ns0:preamble="/home/sriranga/Desktop/MCT/package.tex"
       style="font-style:normal;font-variant:normal;font-weight:normal;font-stretch:normal;letter-spacing:normal;word-spacing:normal;text-anchor:start;fill:none;stroke:#000000;stroke-width:1;stroke-linecap:butt;stroke-linejoin:miter;stroke-miterlimit:10.43299961;stroke-opacity:1;stroke-dasharray:none;stroke-dashoffset:0"><polygon
         style="fill:#000000;stroke-width:0"
         points="224.05,709.4 229.14,709.4 229.14,709.96 224.05,709.96 "
         id="polygon7392" /></g>    <g
       style="font-style:normal;font-variant:normal;font-weight:normal;font-stretch:normal;letter-spacing:normal;word-spacing:normal;text-anchor:start;fill:none;stroke:#000000;stroke-width:1;stroke-linecap:butt;stroke-linejoin:miter;stroke-miterlimit:10.43299961;stroke-opacity:1;stroke-dasharray:none;stroke-dashoffset:0"
       ns0:preamble="/home/sriranga/Desktop/MCT/package.tex"
       ns0:text="$v\'_o$"
       word-spacing="normal"
       letter-spacing="normal"
       font-size-adjust="none"
       font-stretch="normal"
       font-weight="normal"
       font-variant="normal"
       font-style="normal"
       stroke-miterlimit="10.433"
       xml:space="preserve"
       transform="matrix(1.2,0,0,-1.2,-25.287755,1771.8986)"
       id="g7589"><path
         id="path7591"
         d="m 223.64,711.13 0.02,0 0.02,0 0.02,0 0.02,0 0.02,0 0.01,0.01 0.02,0 0.02,0 0.04,0 0.01,0 0.02,0 0.02,0 0.02,0 0.02,0 0.02,0 c 0.39,0 0.49,-0.17 0.63,-1.09 0.1,-0.68 0.22,-2.18 0.22,-2.76 0,-0.27 0.01,-0.34 0.09,-0.34 0.24,0 1.17,1.05 2.18,2.46 0.35,0.5 0.61,1.14 0.61,1.51 0,0.32 -0.26,0.59 -0.56,0.59 -0.22,0 -0.37,-0.13 -0.37,-0.34 0,-0.16 0.06,-0.28 0.24,-0.44 0.13,-0.12 0.18,-0.2 0.18,-0.3 0,-0.45 -0.65,-1.56 -1.36,-2.29 l -0.31,-0.32 c -0.07,1.4 -0.13,1.92 -0.26,2.65 -0.2,1.02 -0.2,1.04 -0.29,1.04 -0.04,0 -0.12,-0.01 -0.2,-0.04 -0.17,-0.05 -0.72,-0.15 -1.1,-0.21 z"
         inkscape:connector-curvature="0"
         style="fill:#000000;stroke-width:0" /><path
         id="path7593"
         d="m 229.92,713.6 0,0.02 0,0.02 0,0.03 -0.01,0.02 0,0.02 -0.01,0.02 -0.01,0.02 -0.01,0.02 -0.01,0.01 -0.01,0.02 -0.01,0.02 -0.02,0.02 -0.01,0.01 -0.02,0.02 -0.01,0.01 -0.02,0.02 -0.02,0.01 -0.01,0.01 -0.02,0.01 -0.02,0.01 -0.02,0.01 -0.02,0.01 -0.02,0.01 -0.02,0.01 -0.02,0.01 -0.02,0 -0.02,0.01 -0.02,0 -0.03,0.01 -0.02,0 -0.02,0 -0.02,0 c -0.26,0 -0.38,-0.25 -0.45,-0.46 l -0.73,-2.11 c -0.02,-0.05 -0.07,-0.18 -0.07,-0.24 0,-0.06 0.05,-0.15 0.12,-0.15 0.1,0 0.22,0.15 0.27,0.23 l 1.14,1.8 c 0.1,0.14 0.19,0.34 0.19,0.52 z"
         inkscape:connector-curvature="0"
         style="fill:#000000;stroke-width:0" /><path
         id="path7595"
         d="m 230.12,707.73 -0.08,-0.14 c 0.3,0 0.49,-0.26 0.49,-0.66 0,-0.51 -0.23,-1.2 -0.54,-1.65 -0.25,-0.37 -0.52,-0.55 -0.82,-0.55 -0.32,0 -0.54,0.25 -0.54,0.64 0,0.51 0.2,1.12 0.54,1.62 0.27,0.39 0.57,0.6 0.87,0.6 h 0 l 0.08,0.14 c -1.05,0 -2.08,-1.08 -2.08,-2.17 0,-0.6 0.39,-0.97 1.03,-0.97 0.46,0 0.9,0.21 1.31,0.6 0.46,0.45 0.74,1.04 0.74,1.57 0,0.57 -0.41,0.97 -1,0.97 z"
         inkscape:connector-curvature="0"
         style="fill:#000000;stroke-width:0" /></g>    <g
       style="font-style:normal;font-variant:normal;font-weight:normal;font-stretch:normal;letter-spacing:normal;word-spacing:normal;text-anchor:start;fill:none;stroke:#000000;stroke-width:1;stroke-linecap:butt;stroke-linejoin:miter;stroke-miterlimit:10.43299961;stroke-opacity:1;stroke-dasharray:none;stroke-dashoffset:0"
       ns0:preamble="/home/sriranga/Desktop/MCT/package.tex"
       ns0:text="$v_2$"
       word-spacing="normal"
       letter-spacing="normal"
       font-size-adjust="none"
       font-stretch="normal"
       font-weight="normal"
       font-variant="normal"
       font-style="normal"
       stroke-miterlimit="10.433"
       xml:space="preserve"
       transform="matrix(1.2,0,0,-1.2,-260.39891,1802.1021)"
       id="g8421"><path
         id="path8423"
         d="m 223.64,711.13 0.02,0 0.02,0 0.02,0 0.02,0 0.02,0 0.01,0.01 0.02,0 0.02,0 0.04,0 0.01,0 0.02,0 0.02,0 0.02,0 0.02,0 0.02,0 c 0.39,0 0.49,-0.17 0.63,-1.09 0.1,-0.68 0.22,-2.18 0.22,-2.76 0,-0.27 0.01,-0.34 0.09,-0.34 0.24,0 1.17,1.05 2.18,2.46 0.35,0.5 0.61,1.14 0.61,1.51 0,0.32 -0.26,0.59 -0.56,0.59 -0.22,0 -0.37,-0.13 -0.37,-0.34 0,-0.16 0.06,-0.28 0.24,-0.44 0.13,-0.12 0.18,-0.2 0.18,-0.3 0,-0.45 -0.65,-1.56 -1.36,-2.29 l -0.31,-0.32 c -0.07,1.4 -0.13,1.92 -0.26,2.65 -0.2,1.02 -0.2,1.04 -0.29,1.04 -0.04,0 -0.12,-0.01 -0.2,-0.04 -0.17,-0.05 -0.72,-0.15 -1.1,-0.21 z"
         inkscape:connector-curvature="0"
         style="fill:#000000;stroke-width:0" /><path
         id="path8425"
         d="m 231.16,706.58 -0.09,0.04 c -0.25,-0.4 -0.34,-0.46 -0.66,-0.46 h -1.66 l 1.17,1.22 c 0.62,0.65 0.89,1.18 0.89,1.72 0,0.7 -0.57,1.23 -1.29,1.23 -0.38,0 -0.75,-0.15 -1,-0.43 -0.23,-0.24 -0.33,-0.46 -0.45,-0.95 l 0.15,-0.04 c 0.28,0.68 0.53,0.91 1.01,0.91 0.58,0 0.98,-0.4 0.98,-0.98 0,-0.55 -0.32,-1.19 -0.91,-1.81 l -1.23,-1.32 v -0.08 h 2.71 z"
         inkscape:connector-curvature="0"
         style="fill:#000000;stroke-width:0" /></g>    <g
       id="g8805"
       transform="matrix(1.2,0,0,-1.2,-259.31513,1771.621)"
       xml:space="preserve"
       stroke-miterlimit="10.433"
       font-style="normal"
       font-variant="normal"
       font-weight="normal"
       font-stretch="normal"
       font-size-adjust="none"
       letter-spacing="normal"
       word-spacing="normal"
       ns0:text="$v_1$"
       ns0:preamble="/home/sriranga/Desktop/MCT/package.tex"
       style="font-style:normal;font-variant:normal;font-weight:normal;font-stretch:normal;letter-spacing:normal;word-spacing:normal;text-anchor:start;fill:none;stroke:#000000;stroke-width:1;stroke-linecap:butt;stroke-linejoin:miter;stroke-miterlimit:10.43299961;stroke-opacity:1;stroke-dasharray:none;stroke-dashoffset:0"><path
         style="fill:#000000;stroke-width:0"
         inkscape:connector-curvature="0"
         d="m 223.64,711.13 0.02,0 0.02,0 0.02,0 0.02,0 0.02,0 0.01,0.01 0.02,0 0.02,0 0.04,0 0.01,0 0.02,0 0.02,0 0.02,0 0.02,0 0.02,0 c 0.39,0 0.49,-0.17 0.63,-1.09 0.1,-0.68 0.22,-2.18 0.22,-2.76 0,-0.27 0.01,-0.34 0.09,-0.34 0.24,0 1.17,1.05 2.18,2.46 0.35,0.5 0.61,1.14 0.61,1.51 0,0.32 -0.26,0.59 -0.56,0.59 -0.22,0 -0.37,-0.13 -0.37,-0.34 0,-0.16 0.06,-0.28 0.24,-0.44 0.13,-0.12 0.18,-0.2 0.18,-0.3 0,-0.45 -0.65,-1.56 -1.36,-2.29 l -0.31,-0.32 c -0.07,1.4 -0.13,1.92 -0.26,2.65 -0.2,1.02 -0.2,1.04 -0.29,1.04 -0.04,0 -0.12,-0.01 -0.2,-0.04 -0.17,-0.05 -0.72,-0.15 -1.1,-0.21 z"
         id="path8807" /><path
         style="fill:#000000;stroke-width:0"
         inkscape:connector-curvature="0"
         d="m 229.88,710.33 -1.25,-0.63 v -0.1 c 0.08,0.04 0.16,0.06 0.19,0.08 0.12,0.05 0.24,0.08 0.31,0.08 0.15,0 0.21,-0.11 0.21,-0.33 v -3.15 c 0,-0.23 -0.06,-0.39 -0.17,-0.45 -0.1,-0.07 -0.2,-0.09 -0.49,-0.1 v -0.1 h 1.92 v 0.1 c -0.55,0.01 -0.66,0.08 -0.66,0.42 v 4.17 z"
         id="path8809" /></g>    <g
       style="font-style:normal;font-variant:normal;font-weight:normal;font-stretch:normal;letter-spacing:normal;word-spacing:normal;text-anchor:start;fill:none;stroke:#000000;stroke-width:1;stroke-linecap:butt;stroke-linejoin:miter;stroke-miterlimit:10.43299961;stroke-opacity:1;stroke-dasharray:none;stroke-dashoffset:0"
       ns0:preamble="/home/sriranga/Desktop/MCT/package.tex"
       ns0:text="$v_3$"
       word-spacing="normal"
       letter-spacing="normal"
       font-size-adjust="none"
       font-stretch="normal"
       font-weight="normal"
       font-variant="normal"
       font-style="normal"
       stroke-miterlimit="10.433"
       xml:space="preserve"
       transform="matrix(1.2,0,0,-1.2,-259.9925,1831.9059)"
       id="g9194"><path
         id="path9196"
         d="m 223.64,711.13 0.02,0 0.02,0 0.02,0 0.02,0 0.02,0 0.01,0.01 0.02,0 0.02,0 0.04,0 0.01,0 0.02,0 0.02,0 0.02,0 0.02,0 0.02,0 c 0.39,0 0.49,-0.17 0.63,-1.09 0.1,-0.68 0.22,-2.18 0.22,-2.76 0,-0.27 0.01,-0.34 0.09,-0.34 0.24,0 1.17,1.05 2.18,2.46 0.35,0.5 0.61,1.14 0.61,1.51 0,0.32 -0.26,0.59 -0.56,0.59 -0.22,0 -0.37,-0.13 -0.37,-0.34 0,-0.16 0.06,-0.28 0.24,-0.44 0.13,-0.12 0.18,-0.2 0.18,-0.3 0,-0.45 -0.65,-1.56 -1.36,-2.29 l -0.31,-0.32 c -0.07,1.4 -0.13,1.92 -0.26,2.65 -0.2,1.02 -0.2,1.04 -0.29,1.04 -0.04,0 -0.12,-0.01 -0.2,-0.04 -0.17,-0.05 -0.72,-0.15 -1.1,-0.21 z"
         inkscape:connector-curvature="0"
         style="fill:#000000;stroke-width:0" /><path
         id="path9198"
         d="m 228.92,707.93 0.04,0 0.04,0 0.03,0 0.03,0 0.04,-0.01 0.03,0 0.03,0 0.03,0 0.02,0 0.03,0 0.03,0 0.02,0 0.03,0 0.02,0 0.02,-0.01 0.02,0 0.02,0 0.02,0 0.02,-0.01 0.02,0 0.02,0 0.02,-0.01 0.03,0 0.04,-0.01 0.03,-0.01 0.03,-0.01 0.03,-0.01 c 0.43,-0.15 0.7,-0.55 0.7,-1.03 0,-0.58 -0.39,-1.04 -0.91,-1.04 -0.19,0 -0.33,0.05 -0.58,0.22 -0.21,0.12 -0.33,0.17 -0.45,0.17 -0.16,0 -0.27,-0.09 -0.27,-0.24 0,-0.24 0.31,-0.4 0.79,-0.4 0.54,0 1.09,0.18 1.42,0.47 0.32,0.28 0.51,0.69 0.51,1.15 0,0.36 -0.12,0.69 -0.32,0.9 -0.14,0.15 -0.27,0.24 -0.58,0.37 0.48,0.33 0.66,0.58 0.66,0.96 0,0.56 -0.45,0.95 -1.09,0.95 -0.35,0 -0.65,-0.12 -0.9,-0.34 -0.21,-0.19 -0.32,-0.37 -0.47,-0.78 l 0.1,-0.03 c 0.29,0.5 0.6,0.73 1.04,0.73 0.45,0 0.77,-0.3 0.77,-0.74 0,-0.25 -0.11,-0.5 -0.28,-0.67 -0.21,-0.21 -0.4,-0.32 -0.88,-0.48 z"
         inkscape:connector-curvature="0"
         style="fill:#000000;stroke-width:0" /></g>    <g
       id="g3307"
       transform="matrix(1.2,0,0,-1.2,92.351345,1710.5822)"
       xml:space="preserve"
       stroke-miterlimit="10.433"
       font-style="normal"
       font-variant="normal"
       font-weight="normal"
       font-stretch="normal"
       font-size-adjust="none"
       letter-spacing="normal"
       word-spacing="normal"
       ns0:text="$=-1$"
       ns0:preamble="/home/sriranga/Desktop/MCT/package.tex"
       style="font-style:normal;font-variant:normal;font-weight:normal;font-stretch:normal;letter-spacing:normal;word-spacing:normal;text-anchor:start;fill:none;stroke:#000000;stroke-width:1;stroke-linecap:butt;stroke-linejoin:miter;stroke-miterlimit:10.43299961;stroke-opacity:1;stroke-dasharray:none;stroke-dashoffset:0"><polygon
         style="fill:#000000;stroke-width:0"
         points="224.05,710.96 224.05,710.4 229.14,710.4 229.14,710.96 "
         id="polygon3309" /><polygon
         style="fill:#000000;stroke-width:0"
         points="224.05,708.94 224.05,708.39 229.14,708.39 229.14,708.94 "
         id="polygon3311" /><polygon
         style="fill:#000000;stroke-width:0"
         points="233.15,709.96 233.15,709.4 238.25,709.4 238.25,709.96 "
         id="polygon3313" /><path
         style="fill:#000000;stroke-width:0"
         inkscape:connector-curvature="0"
         d="m 241.77,713.84 -1.79,-0.9 v -0.14 c 0.12,0.05 0.23,0.09 0.26,0.11 0.18,0.07 0.35,0.11 0.45,0.11 0.21,0 0.3,-0.15 0.3,-0.47 v -4.5 c 0,-0.33 -0.08,-0.56 -0.24,-0.65 -0.15,-0.09 -0.29,-0.12 -0.7,-0.13 v -0.15 h 2.74 v 0.15 c -0.78,0.01 -0.94,0.11 -0.94,0.59 v 5.96 z"
         id="path3315" /></g>    <g
       style="font-style:normal;font-variant:normal;font-weight:normal;font-stretch:normal;letter-spacing:normal;word-spacing:normal;text-anchor:start;fill:none;stroke:#000000;stroke-width:1;stroke-linecap:butt;stroke-linejoin:miter;stroke-miterlimit:10.43299961;stroke-opacity:1;stroke-dasharray:none;stroke-dashoffset:0"
       ns0:preamble="/home/sriranga/Desktop/MCT/package.tex"
       ns0:text="$R_1= 50$ k$\\Omega$"
       word-spacing="normal"
       letter-spacing="normal"
       font-size-adjust="none"
       font-stretch="normal"
       font-weight="normal"
       font-variant="normal"
       font-style="normal"
       stroke-miterlimit="10.433"
       xml:space="preserve"
       transform="matrix(1.2,0,0,-1.2,-229.31436,1764.7713)"
       id="g3279"><path
         id="path3281"
         d="m 229.07,707.28 -0.04,0.01 -0.04,0 -0.03,0.01 -0.04,0 -0.04,0.01 -0.03,0.01 -0.03,0.01 -0.03,0.01 -0.03,0.01 -0.03,0.01 -0.03,0.01 -0.03,0.02 -0.03,0.01 -0.02,0.02 -0.03,0.02 -0.02,0.02 -0.03,0.02 -0.02,0.02 -0.02,0.03 -0.02,0.02 -0.02,0.03 -0.03,0.03 -0.02,0.03 -0.02,0.03 -0.01,0.04 -0.02,0.03 -0.02,0.04 -0.02,0.04 -0.02,0.04 -0.02,0.05 -0.02,0.04 -0.01,0.05 -0.93,2.43 c 0.77,0.17 1.1,0.31 1.45,0.63 0.33,0.29 0.51,0.67 0.51,1.12 0,0.92 -0.73,1.43 -2.07,1.43 l -0.21,-0.3 c 0.83,0 1.24,-0.37 1.24,-1.11 0,-0.98 -0.64,-1.49 -1.88,-1.49 -0.16,0 -0.27,0.01 -0.51,0.05 l 0.65,2.28 c 0.06,0.2 0.18,0.27 0.5,0.27 l 0.21,0.3 h -2.47 v -0.16 c 0.42,-0.06 0.47,-0.07 0.57,-0.14 0.08,-0.05 0.14,-0.16 0.14,-0.27 0,-0.12 -0.05,-0.36 -0.12,-0.63 l -1.22,-4.39 c -0.18,-0.59 -0.25,-0.65 -0.81,-0.74 v -0.16 h 2.43 v 0.16 c -0.61,0.08 -0.68,0.13 -0.68,0.46 0,0.1 0.03,0.23 0.12,0.58 l 0.56,2.07 0.65,-0.05 1.22,-3.22 h 1.47 z"
         inkscape:connector-curvature="0"
         style="fill:#000000;stroke-width:0" /><path
         id="path3283"
         d="m 231.55,710.33 -1.26,-0.63 v -0.1 c 0.09,0.04 0.16,0.06 0.19,0.08 0.12,0.05 0.24,0.08 0.31,0.08 0.15,0 0.21,-0.11 0.21,-0.33 v -3.15 c 0,-0.23 -0.05,-0.39 -0.16,-0.45 -0.11,-0.07 -0.21,-0.09 -0.5,-0.1 v -0.1 h 1.92 v 0.1 c -0.55,0.01 -0.66,0.08 -0.66,0.42 v 4.17 z"
         inkscape:connector-curvature="0"
         style="fill:#000000;stroke-width:0" /><polygon
         id="polygon3285"
         points="236.89,710.4 241.98,710.4 241.98,710.96 236.89,710.96 "
         style="fill:#000000;stroke-width:0" /><polygon
         id="polygon3287"
         points="236.89,708.39 241.98,708.39 241.98,708.94 236.89,708.94 "
         style="fill:#000000;stroke-width:0" /><path
         id="path3289"
         d="m 247.18,712.92 h 1.95 c 0.16,0 0.19,0.02 0.22,0.09 l 0.38,0.88 -0.09,0.07 c -0.15,-0.21 -0.24,-0.26 -0.45,-0.26 h -2.08 l -1.09,-2.35 c -0.01,-0.02 -0.01,-0.03 -0.01,-0.05 0,-0.05 0.04,-0.08 0.12,-0.08 0.32,0 0.72,-0.07 1.13,-0.2 1.14,-0.37 1.67,-0.98 1.67,-1.97 0,-0.95 -0.61,-1.7 -1.39,-1.7 -0.19,0 -0.36,0.07 -0.66,0.29 -0.32,0.23 -0.55,0.33 -0.76,0.33 -0.29,0 -0.43,-0.12 -0.43,-0.37 0,-0.38 0.47,-0.61 1.22,-0.61 0.83,0 1.55,0.26 2.05,0.77 0.45,0.45 0.66,1.01 0.66,1.77 0,0.71 -0.19,1.17 -0.68,1.67 -0.44,0.44 -1.01,0.66 -2.18,0.87 z"
         inkscape:connector-curvature="0"
         style="fill:#000000;stroke-width:0" /><path
         id="path3291"
         d="m 252.88,713.84 -0.05,0 -0.05,0 -0.05,0 -0.05,-0.01 -0.04,0 -0.05,-0.01 -0.05,0 -0.04,-0.01 -0.05,-0.01 -0.04,-0.01 -0.05,-0.01 -0.04,-0.01 -0.05,-0.01 -0.04,-0.02 -0.04,-0.01 -0.04,-0.02 -0.04,-0.01 -0.04,-0.02 -0.04,-0.02 -0.04,-0.02 -0.04,-0.02 -0.04,-0.02 -0.04,-0.03 -0.03,-0.02 -0.04,-0.02 -0.04,-0.03 -0.03,-0.03 -0.04,-0.02 -0.04,-0.03 -0.03,-0.03 -0.04,-0.03 -0.03,-0.04 c -0.58,-0.55 -0.95,-1.7 -0.95,-2.86 0,-1.08 0.32,-2.24 0.79,-2.8 0.37,-0.44 0.88,-0.67 1.45,-0.67 v 0.25 c -0.85,0 -1.29,1.07 -1.29,3.13 0,2.11 0.45,3.21 1.3,3.21 h 0 c 0.84,0 1.29,-1.12 1.29,-3.2 0,-2.07 -0.44,-3.14 -1.3,-3.14 v -0.25 c 0.51,0 0.94,0.17 1.3,0.51 0.57,0.55 0.95,1.7 0.95,2.9 0,2.04 -0.9,3.44 -2.21,3.44 z"
         inkscape:connector-curvature="0"
         style="fill:#000000;stroke-width:0" /><path
         id="path3293"
         d="m 257.9,713.31 0.02,0.01 0.02,0 0.03,0 0.02,0 0.02,0 0.02,0 0.02,0.01 0.02,0 0.02,0 0.02,0 0.01,0 0.02,0 0.04,0 0.02,0 0.02,0 c 0.33,0 0.42,-0.12 0.42,-0.6 v -4.79 c 0,-0.52 -0.03,-0.55 -0.74,-0.67 v -0.15 h 2.33 v 0.15 l -0.2,0.01 c -0.4,0.02 -0.55,0.16 -0.55,0.51 v 1.83 l 1.39,-1.86 0.03,-0.04 c 0.02,-0.03 0.04,-0.06 0.07,-0.09 0.08,-0.1 0.11,-0.16 0.11,-0.21 0,-0.09 -0.09,-0.15 -0.21,-0.15 h -0.19 v -0.15 h 2.17 v 0.15 c -0.43,0.03 -0.74,0.22 -1.16,0.73 l -1.52,1.93 0.28,0.27 c 0.71,0.65 1.33,1.11 1.62,1.19 0.15,0.04 0.29,0.06 0.45,0.06 h 0.08 v 0.14 h -2.03 v -0.13 c 0.39,-0.01 0.5,-0.05 0.5,-0.19 0,-0.08 -0.09,-0.22 -0.23,-0.34 l -1.36,-1.21 v 4.17 l -0.04,0.02 c -0.38,-0.12 -0.67,-0.2 -1.24,-0.36 l -0.3,-0.08 z"
         inkscape:connector-curvature="0"
         style="fill:#000000;stroke-width:0" /><path
         id="path3295"
         d="m 269.91,707.12 v 1.53 h -0.18 c -0.02,-0.51 -0.3,-0.62 -0.76,-0.62 h -1.35 l 0.05,0.33 c 1.26,0.36 2.01,1.35 2.01,2.67 0,1.8 -1.45,2.82 -3.14,2.82 -1.68,0 -3.19,-1.07 -3.19,-2.86 0,-1.21 0.79,-2.4 2.04,-2.63 l 0.01,-0.33 h -1.33 c -0.47,0 -0.75,0.1 -0.79,0.62 h -0.18 v -1.53 h 2.73 l -0.1,1.47 c -1.03,0.37 -1.25,1.4 -1.25,2.38 0,1.22 0.66,2.53 2.04,2.53 1.43,0 2.05,-1.36 2.05,-2.6 0,-0.95 -0.23,-1.99 -1.25,-2.31 l -0.13,-1.47 z"
         inkscape:connector-curvature="0"
         style="fill:#000000;stroke-width:0" /></g>    <g
       id="g3602"
       transform="matrix(1.2,0,0,-1.2,-231.51695,1794.0725)"
       xml:space="preserve"
       stroke-miterlimit="10.433"
       font-style="normal"
       font-variant="normal"
       font-weight="normal"
       font-stretch="normal"
       font-size-adjust="none"
       letter-spacing="normal"
       word-spacing="normal"
       ns0:text="$R_2= 10$ k$\\Omega$"
       ns0:preamble="/home/sriranga/Desktop/MCT/package.tex"
       style="font-style:normal;font-variant:normal;font-weight:normal;font-stretch:normal;letter-spacing:normal;word-spacing:normal;text-anchor:start;fill:none;stroke:#000000;stroke-width:1;stroke-linecap:butt;stroke-linejoin:miter;stroke-miterlimit:10.43299961;stroke-opacity:1;stroke-dasharray:none;stroke-dashoffset:0"><path
         d="m 229.07,707.28 -0.04,0.01 -0.04,0 -0.03,0.01 -0.04,0 -0.04,0.01 -0.03,0.01 -0.03,0.01 -0.03,0.01 -0.03,0.01 -0.03,0.01 -0.03,0.01 -0.03,0.02 -0.03,0.01 -0.02,0.02 -0.03,0.02 -0.02,0.02 -0.03,0.02 -0.02,0.02 -0.02,0.03 -0.02,0.02 -0.02,0.03 -0.03,0.03 -0.02,0.03 -0.02,0.03 -0.01,0.04 -0.02,0.03 -0.02,0.04 -0.02,0.04 -0.02,0.04 -0.02,0.05 -0.02,0.04 -0.01,0.05 -0.93,2.43 c 0.77,0.17 1.1,0.31 1.45,0.63 0.33,0.29 0.51,0.67 0.51,1.12 0,0.92 -0.73,1.43 -2.07,1.43 l -0.21,-0.3 c 0.83,0 1.24,-0.37 1.24,-1.11 0,-0.98 -0.64,-1.49 -1.88,-1.49 -0.16,0 -0.27,0.01 -0.51,0.05 l 0.65,2.28 c 0.06,0.2 0.18,0.27 0.5,0.27 l 0.21,0.3 h -2.47 v -0.16 c 0.42,-0.06 0.47,-0.07 0.57,-0.14 0.08,-0.05 0.14,-0.16 0.14,-0.27 0,-0.12 -0.05,-0.36 -0.12,-0.63 l -1.22,-4.39 c -0.18,-0.59 -0.25,-0.65 -0.81,-0.74 v -0.16 h 2.43 v 0.16 c -0.61,0.08 -0.68,0.13 -0.68,0.46 0,0.1 0.03,0.23 0.12,0.58 l 0.56,2.07 0.65,-0.05 1.22,-3.22 h 1.47 z"
         id="path3604"
         inkscape:connector-curvature="0"
         style="fill:#000000;stroke-width:0" /><path
         d="m 232.83,706.58 -0.09,0.04 c -0.26,-0.4 -0.35,-0.46 -0.67,-0.46 h -1.66 l 1.17,1.22 c 0.62,0.65 0.89,1.18 0.89,1.72 0,0.7 -0.56,1.23 -1.29,1.23 -0.38,0 -0.74,-0.15 -1,-0.43 -0.22,-0.24 -0.33,-0.46 -0.44,-0.95 l 0.14,-0.04 c 0.28,0.68 0.53,0.91 1.01,0.91 0.59,0 0.98,-0.4 0.98,-0.98 0,-0.55 -0.32,-1.19 -0.9,-1.81 l -1.24,-1.32 v -0.08 h 2.71 z"
         id="path3606"
         inkscape:connector-curvature="0"
         style="fill:#000000;stroke-width:0" /><polygon
         points="236.89,710.4 241.98,710.4 241.98,710.96 236.89,710.96 "
         id="polygon3608"
         style="fill:#000000;stroke-width:0" /><polygon
         points="236.89,708.39 241.98,708.39 241.98,708.94 236.89,708.94 "
         id="polygon3610"
         style="fill:#000000;stroke-width:0" /><path
         d="m 248.27,713.84 -1.79,-0.9 v -0.14 c 0.12,0.05 0.23,0.09 0.27,0.11 0.18,0.07 0.35,0.11 0.45,0.11 0.2,0 0.29,-0.15 0.29,-0.47 v -4.5 c 0,-0.33 -0.08,-0.56 -0.23,-0.65 -0.15,-0.09 -0.29,-0.12 -0.71,-0.13 v -0.15 h 2.74 v 0.15 c -0.78,0.01 -0.94,0.11 -0.94,0.59 v 5.96 z"
         id="path3612"
         inkscape:connector-curvature="0"
         style="fill:#000000;stroke-width:0" /><path
         d="m 252.88,713.84 -0.05,0 -0.05,0 -0.05,0 -0.05,-0.01 -0.04,0 -0.05,-0.01 -0.05,0 -0.04,-0.01 -0.05,-0.01 -0.04,-0.01 -0.05,-0.01 -0.04,-0.01 -0.05,-0.01 -0.04,-0.02 -0.04,-0.01 -0.04,-0.02 -0.04,-0.01 -0.04,-0.02 -0.04,-0.02 -0.04,-0.02 -0.04,-0.02 -0.04,-0.02 -0.04,-0.03 -0.03,-0.02 -0.04,-0.02 -0.04,-0.03 -0.03,-0.03 -0.04,-0.02 -0.04,-0.03 -0.03,-0.03 -0.04,-0.03 -0.03,-0.04 c -0.58,-0.55 -0.95,-1.7 -0.95,-2.86 0,-1.08 0.32,-2.24 0.79,-2.8 0.37,-0.44 0.88,-0.67 1.45,-0.67 v 0.25 c -0.85,0 -1.29,1.07 -1.29,3.13 0,2.11 0.45,3.21 1.3,3.21 h 0 c 0.84,0 1.29,-1.12 1.29,-3.2 0,-2.07 -0.44,-3.14 -1.3,-3.14 v -0.25 c 0.51,0 0.94,0.17 1.3,0.51 0.57,0.55 0.95,1.7 0.95,2.9 0,2.04 -0.9,3.44 -2.21,3.44 z"
         id="path3614"
         inkscape:connector-curvature="0"
         style="fill:#000000;stroke-width:0" /><path
         d="m 257.9,713.31 0.02,0.01 0.02,0 0.03,0 0.02,0 0.02,0 0.02,0 0.02,0.01 0.02,0 0.02,0 0.02,0 0.01,0 0.02,0 0.04,0 0.02,0 0.02,0 c 0.33,0 0.42,-0.12 0.42,-0.6 v -4.79 c 0,-0.52 -0.03,-0.55 -0.74,-0.67 v -0.15 h 2.33 v 0.15 l -0.2,0.01 c -0.4,0.02 -0.55,0.16 -0.55,0.51 v 1.83 l 1.39,-1.86 0.03,-0.04 c 0.02,-0.03 0.04,-0.06 0.07,-0.09 0.08,-0.1 0.11,-0.16 0.11,-0.21 0,-0.09 -0.09,-0.15 -0.21,-0.15 h -0.19 v -0.15 h 2.17 v 0.15 c -0.43,0.03 -0.74,0.22 -1.16,0.73 l -1.52,1.93 0.28,0.27 c 0.71,0.65 1.33,1.11 1.62,1.19 0.15,0.04 0.29,0.06 0.45,0.06 h 0.08 v 0.14 h -2.03 v -0.13 c 0.39,-0.01 0.5,-0.05 0.5,-0.19 0,-0.08 -0.09,-0.22 -0.23,-0.34 l -1.36,-1.21 v 4.17 l -0.04,0.02 c -0.38,-0.12 -0.67,-0.2 -1.24,-0.36 l -0.3,-0.08 z"
         id="path3616"
         inkscape:connector-curvature="0"
         style="fill:#000000;stroke-width:0" /><path
         d="m 269.91,707.12 v 1.53 h -0.18 c -0.02,-0.51 -0.3,-0.62 -0.76,-0.62 h -1.35 l 0.05,0.33 c 1.26,0.36 2.01,1.35 2.01,2.67 0,1.8 -1.45,2.82 -3.14,2.82 -1.68,0 -3.19,-1.07 -3.19,-2.86 0,-1.21 0.79,-2.4 2.04,-2.63 l 0.01,-0.33 h -1.33 c -0.47,0 -0.75,0.1 -0.79,0.62 h -0.18 v -1.53 h 2.73 l -0.1,1.47 c -1.03,0.37 -1.25,1.4 -1.25,2.38 0,1.22 0.66,2.53 2.04,2.53 1.43,0 2.05,-1.36 2.05,-2.6 0,-0.95 -0.23,-1.99 -1.25,-2.31 l -0.13,-1.47 z"
         id="path3618"
         inkscape:connector-curvature="0"
         style="fill:#000000;stroke-width:0" /></g>    <g
       style="font-style:normal;font-variant:normal;font-weight:normal;font-stretch:normal;letter-spacing:normal;word-spacing:normal;text-anchor:start;fill:none;stroke:#000000;stroke-width:1;stroke-linecap:butt;stroke-linejoin:miter;stroke-miterlimit:10.43299961;stroke-opacity:1;stroke-dasharray:none;stroke-dashoffset:0"
       ns0:preamble="/home/sriranga/Desktop/MCT/package.tex"
       ns0:text="$R_3= 2.5$ k$\\Omega$"
       word-spacing="normal"
       letter-spacing="normal"
       font-size-adjust="none"
       font-stretch="normal"
       font-weight="normal"
       font-variant="normal"
       font-style="normal"
       stroke-miterlimit="10.433"
       xml:space="preserve"
       transform="matrix(1.2,0,0,-1.2,-233.16959,1822.9735)"
       id="g3924"><path
         id="path3926"
         d="m 229.07,707.28 -0.04,0.01 -0.04,0 -0.03,0.01 -0.04,0 -0.04,0.01 -0.03,0.01 -0.03,0.01 -0.03,0.01 -0.03,0.01 -0.03,0.01 -0.03,0.01 -0.03,0.02 -0.03,0.01 -0.02,0.02 -0.03,0.02 -0.02,0.02 -0.03,0.02 -0.02,0.02 -0.02,0.03 -0.02,0.02 -0.02,0.03 -0.03,0.03 -0.02,0.03 -0.02,0.03 -0.01,0.04 -0.02,0.03 -0.02,0.04 -0.02,0.04 -0.02,0.04 -0.02,0.05 -0.02,0.04 -0.01,0.05 -0.93,2.43 c 0.77,0.17 1.1,0.31 1.45,0.63 0.33,0.29 0.51,0.67 0.51,1.12 0,0.92 -0.73,1.43 -2.07,1.43 l -0.21,-0.3 c 0.83,0 1.24,-0.37 1.24,-1.11 0,-0.98 -0.64,-1.49 -1.88,-1.49 -0.16,0 -0.27,0.01 -0.51,0.05 l 0.65,2.28 c 0.06,0.2 0.18,0.27 0.5,0.27 l 0.21,0.3 h -2.47 v -0.16 c 0.42,-0.06 0.47,-0.07 0.57,-0.14 0.08,-0.05 0.14,-0.16 0.14,-0.27 0,-0.12 -0.05,-0.36 -0.12,-0.63 l -1.22,-4.39 c -0.18,-0.59 -0.25,-0.65 -0.81,-0.74 v -0.16 h 2.43 v 0.16 c -0.61,0.08 -0.68,0.13 -0.68,0.46 0,0.1 0.03,0.23 0.12,0.58 l 0.56,2.07 0.65,-0.05 1.22,-3.22 h 1.47 z"
         inkscape:connector-curvature="0"
         style="fill:#000000;stroke-width:0" /><path
         id="path3928"
         d="m 230.59,707.93 0.03,0 0.04,0 0.03,0 0.04,0 0.03,-0.01 0.03,0 0.03,0 0.03,0 0.03,0 0.02,0 0.03,0 0.02,0 0.03,0 0.02,0 0.02,-0.01 0.03,0 0.02,0 0.02,0 0.02,-0.01 0.01,0 0.02,0 0.02,-0.01 0.03,0 0.04,-0.01 0.03,-0.01 0.03,-0.01 0.03,-0.01 c 0.44,-0.15 0.71,-0.55 0.71,-1.03 0,-0.58 -0.4,-1.04 -0.92,-1.04 -0.18,0 -0.32,0.05 -0.58,0.22 -0.21,0.12 -0.33,0.17 -0.45,0.17 -0.16,0 -0.26,-0.09 -0.26,-0.24 0,-0.24 0.3,-0.4 0.78,-0.4 0.54,0 1.09,0.18 1.42,0.47 0.33,0.28 0.51,0.69 0.51,1.15 0,0.36 -0.11,0.69 -0.32,0.9 -0.14,0.15 -0.27,0.24 -0.57,0.37 0.48,0.33 0.65,0.58 0.65,0.96 0,0.56 -0.44,0.95 -1.09,0.95 -0.34,0 -0.65,-0.12 -0.9,-0.34 -0.21,-0.19 -0.31,-0.37 -0.47,-0.78 l 0.11,-0.03 c 0.28,0.5 0.6,0.73 1.04,0.73 0.45,0 0.76,-0.3 0.76,-0.74 0,-0.25 -0.1,-0.5 -0.28,-0.67 -0.21,-0.21 -0.4,-0.32 -0.87,-0.48 z"
         inkscape:connector-curvature="0"
         style="fill:#000000;stroke-width:0" /><polygon
         id="polygon3930"
         points="236.89,710.4 241.98,710.4 241.98,710.96 236.89,710.96 "
         style="fill:#000000;stroke-width:0" /><polygon
         id="polygon3932"
         points="236.89,708.39 241.98,708.39 241.98,708.94 236.89,708.94 "
         style="fill:#000000;stroke-width:0" /><path
         id="path3934"
         d="m 250.1,708.49 -0.13,0.05 c -0.37,-0.57 -0.5,-0.66 -0.94,-0.66 h -2.38 l 1.67,1.75 c 0.89,0.92 1.27,1.68 1.27,2.45 0,1 -0.8,1.76 -1.84,1.76 -0.54,0 -1.06,-0.22 -1.43,-0.62 -0.32,-0.33 -0.47,-0.65 -0.64,-1.36 l 0.21,-0.05 c 0.4,0.98 0.76,1.29 1.45,1.29 0.83,0 1.4,-0.56 1.4,-1.39 0,-0.78 -0.46,-1.7 -1.3,-2.59 l -1.77,-1.88 v -0.12 h 3.88 z"
         inkscape:connector-curvature="0"
         style="fill:#000000;stroke-width:0" /><path
         id="path3936"
         d="m 252.16,707.55 0,0.03 0,0.03 -0.01,0.03 0,0.02 -0.01,0.03 -0.01,0.03 -0.01,0.02 -0.01,0.03 -0.01,0.03 -0.01,0.02 -0.01,0.02 -0.02,0.03 -0.02,0.02 -0.01,0.02 -0.02,0.02 -0.02,0.02 -0.02,0.02 -0.02,0.02 -0.02,0.01 -0.02,0.02 -0.02,0.01 -0.03,0.02 -0.02,0.01 -0.03,0.01 -0.02,0.01 -0.03,0.01 -0.02,0.01 -0.03,0.01 -0.03,0 -0.02,0.01 -0.03,0 -0.03,0 c -0.3,0 -0.55,-0.25 -0.55,-0.57 0,-0.38 0.34,-0.53 0.55,-0.53 0.21,0 0.56,0.16 0.56,0.53 z"
         inkscape:connector-curvature="0"
         style="fill:#000000;stroke-width:0" /><path
         id="path3938"
         d="m 254.65,712.92 h 1.95 c 0.16,0 0.2,0.02 0.23,0.09 l 0.37,0.88 -0.09,0.07 c -0.14,-0.21 -0.24,-0.26 -0.45,-0.26 h -2.08 l -1.09,-2.35 c -0.01,-0.02 -0.01,-0.03 -0.01,-0.05 0,-0.05 0.04,-0.08 0.12,-0.08 0.32,0 0.72,-0.07 1.13,-0.2 1.14,-0.37 1.67,-0.98 1.67,-1.97 0,-0.95 -0.61,-1.7 -1.38,-1.7 -0.2,0 -0.37,0.07 -0.67,0.29 -0.32,0.23 -0.55,0.33 -0.76,0.33 -0.29,0 -0.43,-0.12 -0.43,-0.37 0,-0.38 0.47,-0.61 1.22,-0.61 0.83,0 1.55,0.26 2.05,0.77 0.46,0.45 0.67,1.01 0.67,1.77 0,0.71 -0.19,1.17 -0.69,1.67 -0.44,0.44 -1.01,0.66 -2.18,0.87 z"
         inkscape:connector-curvature="0"
         style="fill:#000000;stroke-width:0" /><path
         id="path3940"
         d="m 260.39,713.31 0.02,0.01 0.03,0 0.02,0 0.02,0 0.02,0 0.02,0 0.02,0.01 0.02,0 0.02,0 0.02,0 0.01,0 0.02,0 0.04,0 0.02,0 0.02,0 c 0.33,0 0.43,-0.12 0.43,-0.6 v -4.79 c 0,-0.52 -0.03,-0.55 -0.75,-0.67 v -0.15 h 2.33 v 0.15 l -0.2,0.01 c -0.4,0.02 -0.55,0.16 -0.55,0.51 v 1.83 l 1.39,-1.86 0.03,-0.04 c 0.02,-0.03 0.04,-0.06 0.07,-0.09 0.08,-0.1 0.11,-0.16 0.11,-0.21 0,-0.09 -0.09,-0.15 -0.21,-0.15 h -0.19 v -0.15 h 2.17 v 0.15 c -0.43,0.03 -0.74,0.22 -1.16,0.73 l -1.52,1.93 0.29,0.27 c 0.7,0.65 1.32,1.11 1.61,1.19 0.15,0.04 0.29,0.06 0.46,0.06 h 0.08 v 0.14 h -2.03 v -0.13 c 0.38,-0.01 0.49,-0.05 0.49,-0.19 0,-0.08 -0.09,-0.22 -0.23,-0.34 l -1.36,-1.21 v 4.17 l -0.04,0.02 c -0.38,-0.12 -0.67,-0.2 -1.24,-0.36 l -0.3,-0.08 z"
         inkscape:connector-curvature="0"
         style="fill:#000000;stroke-width:0" /><path
         id="path3942"
         d="m 272.4,707.12 v 1.53 h -0.17 c -0.03,-0.51 -0.31,-0.62 -0.77,-0.62 h -1.35 l 0.04,0.33 c 1.27,0.36 2.02,1.35 2.02,2.67 0,1.8 -1.45,2.82 -3.14,2.82 -1.68,0 -3.19,-1.07 -3.19,-2.86 0,-1.21 0.79,-2.4 2.04,-2.63 l 0.01,-0.33 h -1.33 c -0.47,0 -0.75,0.1 -0.79,0.62 h -0.18 v -1.53 h 2.73 l -0.11,1.47 c -1.02,0.37 -1.24,1.4 -1.24,2.38 0,1.22 0.66,2.53 2.04,2.53 1.43,0 2.05,-1.36 2.05,-2.6 0,-0.95 -0.23,-1.99 -1.25,-2.31 l -0.13,-1.47 z"
         inkscape:connector-curvature="0"
         style="fill:#000000;stroke-width:0" /></g>    <g
       id="g4249"
       transform="matrix(1.2,0,0,-1.2,-93.764,1725.9418)"
       xml:space="preserve"
       stroke="black"
       stroke-linecap="butt"
       stroke-linejoin="miter"
       stroke-miterlimit="10.433"
       stroke-dasharray="none"
       stroke-dashoffset="0"
       stroke-opacity="1"
       fill="none"
       fill-rule="evenodd"
       fill-opacity="1"
       font-style="normal"
       font-variant="normal"
       font-weight="normal"
       font-stretch="normal"
       font-size-adjust="none"
       letter-spacing="normal"
       word-spacing="normal"
       text-anchor="start"
       ns0:text="$R_F= 10$ k$\\Omega$"
       ns0:preamble="/home/sriranga/Desktop/MCT/package.tex"
       style="font-style:normal;font-variant:normal;font-weight:normal;font-stretch:normal;letter-spacing:normal;word-spacing:normal;text-anchor:start;fill:none;stroke:#000000;stroke-width:1;stroke-linecap:butt;stroke-linejoin:miter;stroke-miterlimit:10.43299961;stroke-opacity:1;stroke-dasharray:none;stroke-dashoffset:0"><path
         d="M229.07,707.28 L229.03,707.29 L228.99,707.29 L228.96,707.3 L228.92,707.3 L228.88,707.31 L228.85,707.32 L228.82,707.33 L228.79,707.34 L228.76,707.35 L228.73,707.36 L228.7,707.37 L228.67,707.39 L228.64,707.4 L228.62,707.42 L228.59,707.44 L228.57,707.46 L228.54,707.48 L228.52,707.5 L228.5,707.53 L228.48,707.55 L228.46,707.58 L228.43,707.61 L228.41,707.64 L228.39,707.67 L228.38,707.71 L228.36,707.74 L228.34,707.78 L228.32,707.82 L228.3,707.86 L228.28,707.91 L228.26,707.95 L228.25,708 L227.32,710.43 C228.09,710.6,228.42,710.74,228.77,711.06 C229.1,711.35,229.28,711.73,229.28,712.18 C229.28,713.1,228.55,713.61,227.21,713.61 L227,713.31 C227.83,713.31,228.24,712.94,228.24,712.2 C228.24,711.22,227.6,710.71,226.36,710.71 C226.2,710.71,226.09,710.72,225.85,710.76 L226.5,713.04 C226.56,713.24,226.68,713.31,227,713.31 L227.21,713.61 H224.74 V713.45 C225.16,713.39,225.21,713.38,225.31,713.31 C225.39,713.26,225.45,713.15,225.45,713.04 C225.45,712.92,225.4,712.68,225.33,712.41 L224.11,708.02 C223.93,707.43,223.86,707.37,223.3,707.28 V707.12 H225.73 V707.28 C225.12,707.36,225.05,707.41,225.05,707.74 C225.05,707.84,225.08,707.97,225.17,708.32 L225.73,710.39 L226.38,710.34 L227.6,707.12 H229.07 Z "
         stroke-width="0"
         fill="black"
         id="path4251" /><path
         d="M234.19,710.17 H230.72 V710.06 C231.17,710.02,231.25,709.98,231.25,709.78 C231.25,709.67,231.23,709.5,231.18,709.33 L230.32,706.26 C230.2,705.84,230.15,705.8,229.75,705.74 V705.63 H231.51 V705.74 C231.1,705.76,230.98,705.84,230.98,706.05 C230.98,706.1,231,706.21,231.04,706.36 L231.47,707.91 C231.73,707.9,231.88,707.89,232.03,707.89 C232.31,707.89,232.35,707.88,232.42,707.86 C232.52,707.8,232.57,707.71,232.57,707.57 C232.57,707.46,232.56,707.38,232.51,707.16 L232.63,707.13 L233.16,708.75 L233.04,708.79 C232.72,708.16,232.7,708.16,231.53,708.14 L231.99,709.76 C232.03,709.9,232.13,709.94,232.42,709.94 C233.59,709.94,233.84,709.85,233.84,709.42 C233.84,709.38,233.84,709.34,233.83,709.25 C233.82,709.21,233.82,709.21,233.82,709.12 L233.96,709.11 Z "
         stroke-width="0"
         fill="black"
         id="path4253" /><polygon
         points="243.34,710.4 243.34,710.96 238.25,710.96 238.25,710.4 "
         stroke-width="0"
         fill="black"
         id="polygon4255" /><polygon
         points="243.34,708.39 243.34,708.94 238.25,708.94 238.25,708.39 "
         stroke-width="0"
         fill="black"
         id="polygon4257" /><path
         d="M249.63,713.84 L247.84,712.94 V712.8 C247.96,712.85,248.07,712.89,248.11,712.91 C248.29,712.98,248.46,713.02,248.56,713.02 C248.76,713.02,248.85,712.87,248.85,712.55 V708.05 C248.85,707.72,248.77,707.49,248.62,707.4 C248.47,707.31,248.33,707.28,247.91,707.27 V707.12 H250.65 V707.27 C249.87,707.28,249.71,707.38,249.71,707.86 V713.82 Z "
         stroke-width="0"
         fill="black"
         id="path4259" /><path
         d="M254.24,713.84 L254.19,713.84 L254.14,713.84 L254.09,713.84 L254.04,713.83 L254,713.83 L253.95,713.82 L253.9,713.82 L253.86,713.81 L253.81,713.8 L253.77,713.79 L253.72,713.78 L253.68,713.77 L253.63,713.76 L253.59,713.74 L253.55,713.73 L253.51,713.71 L253.47,713.7 L253.43,713.68 L253.39,713.66 L253.35,713.64 L253.31,713.62 L253.27,713.6 L253.23,713.57 L253.2,713.55 L253.16,713.53 L253.12,713.5 L253.09,713.47 L253.05,713.45 L253.01,713.42 L252.98,713.39 L252.94,713.36 L252.91,713.32 C252.33,712.77,251.96,711.62,251.96,710.46 C251.96,709.38,252.28,708.22,252.75,707.66 C253.12,707.22,253.63,706.99,254.2,706.99 V707.24 C253.35,707.24,252.91,708.31,252.91,710.37 C252.91,712.48,253.36,713.58,254.21,713.58 H254.21 C255.05,713.58,255.5,712.46,255.5,710.38 C255.5,708.31,255.06,707.24,254.2,707.24 V706.99 C254.71,706.99,255.14,707.16,255.5,707.5 C256.07,708.05,256.45,709.2,256.45,710.4 C256.45,712.44,255.55,713.84,254.24,713.84 Z "
         stroke-width="0"
         fill="black"
         id="path4261" /><path
         d="M259.26,713.31 L259.28,713.32 L259.3,713.32 L259.33,713.32 L259.35,713.32 L259.37,713.32 L259.39,713.32 L259.41,713.33 L259.43,713.33 L259.45,713.33 L259.47,713.33 L259.48,713.33 L259.5,713.33 L259.54,713.33 L259.56,713.33 L259.58,713.33 C259.9,713.33,260,713.21,260,712.73 V707.94 C260,707.42,259.97,707.39,259.26,707.27 V707.12 H261.59 V707.27 L261.39,707.28 C260.99,707.3,260.84,707.44,260.84,707.79 V709.62 L262.23,707.76 L262.26,707.72 C262.28,707.69,262.3,707.66,262.33,707.63 C262.41,707.53,262.44,707.47,262.44,707.42 C262.44,707.33,262.35,707.27,262.23,707.27 H262.04 V707.12 H264.21 V707.27 C263.77,707.3,263.47,707.49,263.05,708 L261.53,709.93 L261.82,710.2 C262.52,710.85,263.14,711.31,263.43,711.39 C263.58,711.43,263.71,711.45,263.88,711.45 H263.96 V711.59 H261.93 V711.46 C262.32,711.45,262.43,711.41,262.43,711.27 C262.43,711.19,262.34,711.05,262.2,710.93 L260.84,709.72 V713.89 L260.8,713.91 C260.42,713.79,260.13,713.71,259.56,713.55 L259.26,713.47 Z "
         stroke-width="0"
         fill="black"
         id="path4263" /><path
         d="M271.27,707.12 V708.65 H271.1 C271.08,708.14,270.79,708.03,270.33,708.03 H268.98 L269.02,708.36 C270.29,708.72,271.05,709.71,271.05,711.03 C271.05,712.83,269.59,713.85,267.9,713.85 C266.22,713.85,264.71,712.78,264.71,710.99 C264.71,709.78,265.5,708.59,266.75,708.36 L266.76,708.03 H265.43 C264.96,708.03,264.68,708.13,264.64,708.65 H264.46 V707.12 H267.18 L267.08,708.59 C266.06,708.96,265.84,709.99,265.84,710.97 C265.84,712.19,266.5,713.5,267.88,713.5 C269.31,713.5,269.93,712.14,269.93,710.9 C269.93,709.95,269.7,708.91,268.68,708.59 L268.55,707.12 Z "
         stroke-width="0"
         fill="black"
         id="path4265" /></g>    <g
       style="font-style:normal;font-variant:normal;font-weight:normal;font-stretch:normal;letter-spacing:normal;word-spacing:normal;text-anchor:start;fill:none;stroke:#000000;stroke-width:1;stroke-linecap:butt;stroke-linejoin:miter;stroke-miterlimit:10.43299961;stroke-opacity:1;stroke-dasharray:none;stroke-dashoffset:0"
       ns0:preamble="/home/sriranga/Desktop/MCT/package.tex"
       ns0:text="$10$ k$\\Omega$"
       text-anchor="start"
       word-spacing="normal"
       letter-spacing="normal"
       font-size-adjust="none"
       font-stretch="normal"
       font-weight="normal"
       font-variant="normal"
       font-style="normal"
       fill-opacity="1"
       fill-rule="evenodd"
       fill="none"
       stroke-opacity="1"
       stroke-dashoffset="0"
       stroke-dasharray="none"
       stroke-miterlimit="10.433"
       stroke-linejoin="miter"
       stroke-linecap="butt"
       stroke="black"
       xml:space="preserve"
       transform="matrix(1.2,0,0,-1.2,-2.727014,1769.8346)"
       id="g4576"><path
         id="path4578"
         fill="black"
         stroke-width="0"
         d="M226.33,713.84 L224.54,712.94 V712.8 C224.66,712.85,224.76,712.89,224.8,712.91 C224.98,712.98,225.15,713.02,225.25,713.02 C225.46,713.02,225.55,712.87,225.55,712.55 V708.05 C225.55,707.72,225.47,707.49,225.31,707.4 C225.16,707.31,225.02,707.28,224.61,707.27 V707.12 H227.35 V707.27 C226.57,707.28,226.41,707.38,226.41,707.86 V713.82 Z " /><path
         id="path4580"
         fill="black"
         stroke-width="0"
         d="M230.94,713.84 L230.89,713.84 L230.84,713.84 L230.79,713.84 L230.74,713.83 L230.69,713.83 L230.65,713.82 L230.6,713.82 L230.55,713.81 L230.51,713.8 L230.46,713.79 L230.42,713.78 L230.37,713.77 L230.33,713.76 L230.29,713.74 L230.25,713.73 L230.21,713.71 L230.17,713.7 L230.13,713.68 L230.09,713.66 L230.05,713.64 L230.01,713.62 L229.97,713.6 L229.93,713.57 L229.89,713.55 L229.86,713.53 L229.82,713.5 L229.78,713.47 L229.75,713.45 L229.71,713.42 L229.68,713.39 L229.64,713.36 L229.61,713.32 C229.03,712.77,228.65,711.62,228.65,710.46 C228.65,709.38,228.98,708.22,229.45,707.66 C229.82,707.22,230.32,706.99,230.9,706.99 V707.24 C230.04,707.24,229.61,708.31,229.61,710.37 C229.61,712.48,230.05,713.58,230.91,713.58 H230.91 C231.75,713.58,232.19,712.46,232.19,710.38 C232.19,708.31,231.76,707.24,230.9,707.24 V706.99 C231.41,706.99,231.84,707.16,232.19,707.5 C232.77,708.05,233.15,709.2,233.15,710.4 C233.15,712.44,232.24,713.84,230.94,713.84 Z " /><path
         id="path4582"
         fill="black"
         stroke-width="0"
         d="M235.96,713.31 L235.98,713.32 L236,713.32 L236.02,713.32 L236.05,713.32 L236.07,713.32 L236.09,713.32 L236.11,713.33 L236.13,713.33 L236.14,713.33 L236.16,713.33 L236.18,713.33 L236.2,713.33 L236.24,713.33 L236.25,713.33 L236.27,713.33 C236.6,713.33,236.7,713.21,236.7,712.73 V707.94 C236.7,707.42,236.67,707.39,235.96,707.27 V707.12 H238.28 V707.27 L238.08,707.28 C237.69,707.3,237.54,707.44,237.54,707.79 V709.62 L238.93,707.76 L238.96,707.72 C238.98,707.69,239,707.66,239.03,707.63 C239.11,707.53,239.14,707.47,239.14,707.42 C239.14,707.33,239.05,707.27,238.93,707.27 H238.74 V707.12 H240.91 V707.27 C240.47,707.3,240.16,707.49,239.75,708 L238.22,709.93 L238.51,710.2 C239.22,710.85,239.84,711.31,240.12,711.39 C240.27,711.43,240.41,711.45,240.58,711.45 H240.66 V711.59 H238.63 V711.46 C239.02,711.45,239.13,711.41,239.13,711.27 C239.13,711.19,239.04,711.05,238.9,710.93 L237.54,709.72 V713.89 L237.5,713.91 C237.12,713.79,236.83,713.71,236.25,713.55 L235.96,713.47 Z " /><path
         id="path4584"
         fill="black"
         stroke-width="0"
         d="M247.97,707.12 V708.65 H247.79 C247.77,708.14,247.48,708.03,247.03,708.03 H245.67 L245.72,708.36 C246.99,708.72,247.74,709.71,247.74,711.03 C247.74,712.83,246.29,713.85,244.6,713.85 C242.92,713.85,241.4,712.78,241.4,710.99 C241.4,709.78,242.2,708.59,243.44,708.36 L243.45,708.03 H242.13 C241.65,708.03,241.37,708.13,241.34,708.65 H241.16 V707.12 H243.88 L243.78,708.59 C242.76,708.96,242.54,709.99,242.54,710.97 C242.54,712.19,243.2,713.5,244.58,713.5 C246.01,713.5,246.63,712.14,246.63,710.9 C246.63,709.95,246.4,708.91,245.37,708.59 L245.24,707.12 Z " /></g>    <g
       id="g4747"
       transform="matrix(1.2,0,0,-1.2,76.567096,1734.2235)"
       xml:space="preserve"
       stroke-miterlimit="10.433"
       font-style="normal"
       font-variant="normal"
       font-weight="normal"
       font-stretch="normal"
       font-size-adjust="none"
       letter-spacing="normal"
       word-spacing="normal"
       ns0:text="$10$ k$\\Omega$"
       ns0:preamble="/home/sriranga/Desktop/MCT/package.tex"
       style="font-style:normal;font-variant:normal;font-weight:normal;font-stretch:normal;letter-spacing:normal;word-spacing:normal;text-anchor:start;fill:none;stroke:#000000;stroke-width:1;stroke-linecap:butt;stroke-linejoin:miter;stroke-miterlimit:10.43299961;stroke-opacity:1;stroke-dasharray:none;stroke-dashoffset:0"><path
         d="m 226.33,713.84 -1.79,-0.9 v -0.14 c 0.12,0.05 0.22,0.09 0.26,0.11 0.18,0.07 0.35,0.11 0.45,0.11 0.21,0 0.3,-0.15 0.3,-0.47 v -4.5 c 0,-0.33 -0.08,-0.56 -0.24,-0.65 -0.15,-0.09 -0.29,-0.12 -0.7,-0.13 v -0.15 h 2.74 v 0.15 c -0.78,0.01 -0.94,0.11 -0.94,0.59 v 5.96 z"
         id="path4749"
         inkscape:connector-curvature="0"
         style="fill:#000000;stroke-width:0" /><path
         d="m 230.94,713.84 -0.05,0 -0.05,0 -0.05,0 -0.05,-0.01 -0.05,0 -0.04,-0.01 -0.05,0 -0.05,-0.01 -0.04,-0.01 -0.05,-0.01 -0.04,-0.01 -0.05,-0.01 -0.04,-0.01 -0.04,-0.02 -0.04,-0.01 -0.04,-0.02 -0.04,-0.01 -0.04,-0.02 -0.04,-0.02 -0.04,-0.02 -0.04,-0.02 -0.04,-0.02 -0.04,-0.03 -0.04,-0.02 -0.03,-0.02 -0.04,-0.03 -0.04,-0.03 -0.03,-0.02 -0.04,-0.03 -0.03,-0.03 -0.04,-0.03 -0.03,-0.04 c -0.58,-0.55 -0.96,-1.7 -0.96,-2.86 0,-1.08 0.33,-2.24 0.8,-2.8 0.37,-0.44 0.87,-0.67 1.45,-0.67 v 0.25 c -0.86,0 -1.29,1.07 -1.29,3.13 0,2.11 0.44,3.21 1.3,3.21 h 0 c 0.84,0 1.28,-1.12 1.28,-3.2 0,-2.07 -0.43,-3.14 -1.29,-3.14 v -0.25 c 0.51,0 0.94,0.17 1.29,0.51 0.58,0.55 0.96,1.7 0.96,2.9 0,2.04 -0.91,3.44 -2.21,3.44 z"
         id="path4751"
         inkscape:connector-curvature="0"
         style="fill:#000000;stroke-width:0" /><path
         d="m 235.96,713.31 0.02,0.01 0.02,0 0.02,0 0.03,0 0.02,0 0.02,0 0.02,0.01 0.02,0 0.01,0 0.02,0 0.02,0 0.02,0 0.04,0 0.01,0 0.02,0 c 0.33,0 0.43,-0.12 0.43,-0.6 v -4.79 c 0,-0.52 -0.03,-0.55 -0.74,-0.67 v -0.15 h 2.32 v 0.15 l -0.2,0.01 c -0.39,0.02 -0.54,0.16 -0.54,0.51 v 1.83 l 1.39,-1.86 0.03,-0.04 c 0.02,-0.03 0.04,-0.06 0.07,-0.09 0.08,-0.1 0.11,-0.16 0.11,-0.21 0,-0.09 -0.09,-0.15 -0.21,-0.15 h -0.19 v -0.15 h 2.17 v 0.15 c -0.44,0.03 -0.75,0.22 -1.16,0.73 l -1.53,1.93 0.29,0.27 c 0.71,0.65 1.33,1.11 1.61,1.19 0.15,0.04 0.29,0.06 0.46,0.06 h 0.08 v 0.14 h -2.03 v -0.13 c 0.39,-0.01 0.5,-0.05 0.5,-0.19 0,-0.08 -0.09,-0.22 -0.23,-0.34 l -1.36,-1.21 v 4.17 l -0.04,0.02 c -0.38,-0.12 -0.67,-0.2 -1.25,-0.36 l -0.29,-0.08 z"
         id="path4753"
         inkscape:connector-curvature="0"
         style="fill:#000000;stroke-width:0" /><path
         d="m 247.97,707.12 v 1.53 h -0.18 c -0.02,-0.51 -0.31,-0.62 -0.76,-0.62 h -1.36 l 0.05,0.33 c 1.27,0.36 2.02,1.35 2.02,2.67 0,1.8 -1.45,2.82 -3.14,2.82 -1.68,0 -3.2,-1.07 -3.2,-2.86 0,-1.21 0.8,-2.4 2.04,-2.63 l 0.01,-0.33 h -1.32 c -0.48,0 -0.76,0.1 -0.79,0.62 h -0.18 v -1.53 h 2.72 l -0.1,1.47 c -1.02,0.37 -1.24,1.4 -1.24,2.38 0,1.22 0.66,2.53 2.04,2.53 1.43,0 2.05,-1.36 2.05,-2.6 0,-0.95 -0.23,-1.99 -1.26,-2.31 l -0.13,-1.47 z"
         id="path4755"
         inkscape:connector-curvature="0"
         style="fill:#000000;stroke-width:0" /></g>  </g>
  <text
     xml:space="preserve"
     style="font-size:12px;font-style:normal;font-variant:normal;font-weight:normal;font-stretch:normal;text-align:end;line-height:100%;letter-spacing:0px;word-spacing:0px;text-anchor:end;fill:#000000;fill-opacity:1;stroke:none;font-family:LMRoman12;-inkscape-font-specification:LMRoman12"
     x="246.66641"
     y="80.955956"
     id="text3125"
     sodipodi:linespacing="100%"><tspan
       sodipodi:role="line"
       id="tspan3127"
       x="246.66641"
       y="80.955956">Inverting summer</tspan></text>
  <text
     sodipodi:linespacing="100%"
     id="text3129"
     y="80.718544"
     x="390.7728"
     style="font-size:12px;font-style:normal;font-variant:normal;font-weight:normal;font-stretch:normal;text-align:end;line-height:100%;letter-spacing:0px;word-spacing:0px;text-anchor:end;fill:#000000;fill-opacity:1;stroke:none;font-family:LMRoman12;-inkscape-font-specification:LMRoman12"
     xml:space="preserve"><tspan
       y="80.718544"
       x="394.68686"
       id="tspan3131"
       sodipodi:role="line">Inverting amplifier </tspan><tspan
       y="92.718544"
       x="394.68686"
       sodipodi:role="line"
       id="tspan3133">with gain          </tspan></text>
</svg>
