<?xml version="1.0" encoding="UTF-8" standalone="no"?>
<!-- Created with Inkscape (http://www.inkscape.org/) -->

<svg
   xmlns:dc="http://purl.org/dc/elements/1.1/"
   xmlns:cc="http://creativecommons.org/ns#"
   xmlns:rdf="http://www.w3.org/1999/02/22-rdf-syntax-ns#"
   xmlns:svg="http://www.w3.org/2000/svg"
   xmlns="http://www.w3.org/2000/svg"
   xmlns:sodipodi="http://sodipodi.sourceforge.net/DTD/sodipodi-0.dtd"
   xmlns:inkscape="http://www.inkscape.org/namespaces/inkscape"
   width="425.19684"
   height="283.46457"
   id="svg2"
   version="1.1"
   inkscape:version="0.48.4 r9939"
   sodipodi:docname="S3-EE-06-013.svg">
  <sodipodi:namedview
     id="base"
     pagecolor="#ffffff"
     bordercolor="#666666"
     borderopacity="1.0"
     inkscape:pageopacity="0.0"
     inkscape:pageshadow="2"
     inkscape:zoom="1.9967223"
     inkscape:cx="212.59842"
     inkscape:cy="141.73228"
     inkscape:document-units="cm"
     inkscape:current-layer="layer1"
     showgrid="false"
     units="cm"
     inkscape:object-nodes="true"
     inkscape:window-width="1366"
     inkscape:window-height="744"
     inkscape:window-x="0"
     inkscape:window-y="24"
     inkscape:window-maximized="1"
     showguides="true"
     inkscape:guide-bbox="true">
    <inkscape:grid
       type="xygrid"
       id="grid2985"
       empspacing="5"
       visible="true"
       enabled="true"
       snapvisiblegridlinesonly="true" />
  </sodipodi:namedview>
  <defs
     id="defs4">
    <marker
       style="overflow:visible"
       id="Arrow1Mstart"
       refX="0.0"
       refY="0.0"
       orient="auto"
       inkscape:stockid="Arrow1Mstart">
      <path
         transform="scale(0.4) translate(10,0)"
         style="fill-rule:evenodd;stroke:#000000;stroke-width:1.0pt"
         d="M 0.0,0.0 L 5.0,-5.0 L -12.5,0.0 L 5.0,5.0 L 0.0,0.0 z "
         id="path6343" />
    </marker>
    <marker
       inkscape:stockid="Arrow1Mend"
       orient="auto"
       refY="0"
       refX="0"
       id="Arrow1Mend"
       style="overflow:visible">
      <path
         id="path3949"
         d="M 0,0 5,-5 -12.5,0 5,5 0,0 z"
         style="fill-rule:evenodd;stroke:#000000;stroke-width:1pt"
         transform="matrix(-0.4,0,0,-0.4,-4,0)"
         inkscape:connector-curvature="0" />
    </marker>
    <marker
       inkscape:stockid="Arrow1Mend"
       orient="auto"
       refY="0"
       refX="0"
       id="Arrow1Mend-0"
       style="overflow:visible">
      <path
         id="path3949-9"
         d="M 0,0 5,-5 -12.5,0 5,5 0,0 z"
         style="fill-rule:evenodd;stroke:#000000;stroke-width:1pt"
         transform="matrix(-0.4,0,0,-0.4,-4,0)"
         inkscape:connector-curvature="0" />
    </marker>
  </defs>
  <metadata
     id="metadata7">
    <rdf:RDF>
      <cc:Work
         rdf:about="">
        <dc:format>image/svg+xml</dc:format>
        <dc:type
           rdf:resource="http://purl.org/dc/dcmitype/StillImage" />
        <dc:title></dc:title>
      </cc:Work>
    </rdf:RDF>
  </metadata>
  <g
     inkscape:label="Layer 1"
     inkscape:groupmode="layer"
     id="layer1"
     transform="translate(0,-768.89631)">
    <path
       id="path4171"
       style="fill:none;stroke:#231f20;stroke-width:1;stroke-linecap:round;stroke-linejoin:round;stroke-miterlimit:3.86369991;stroke-opacity:1;stroke-dasharray:none"
       d="m 306.78527,921.93433 92.03875,0"
       inkscape:connector-curvature="0" />
    <path
       id="path4173"
       style="fill:none;stroke:#231f20;stroke-width:1;stroke-linecap:round;stroke-linejoin:round;stroke-miterlimit:3.86369991;stroke-opacity:1;stroke-dasharray:none"
       d="m 20.548256,905.33858 0,78.812"
       inkscape:connector-curvature="0" />
    <path
       id="path4175"
       style="fill:none;stroke:#231f20;stroke-width:1;stroke-linecap:round;stroke-linejoin:round;stroke-miterlimit:3.86369991;stroke-opacity:1;stroke-dasharray:none"
       d="m 243.16777,905.18721 -222.607301,0"
       inkscape:connector-curvature="0" />
    <path
       id="path4177"
       style="fill:none;stroke:#231f20;stroke-width:1;stroke-linecap:round;stroke-linejoin:round;stroke-miterlimit:3.86369991;stroke-opacity:1;stroke-dasharray:none"
       d="m 150.88527,981.86545 0,-43.18062 92.2825,0"
       inkscape:connector-curvature="0" />
    <path
       id="path4179"
       style="fill:none;stroke:#231f20;stroke-width:1;stroke-linecap:round;stroke-linejoin:round;stroke-miterlimit:3.86369991;stroke-opacity:1;stroke-dasharray:none"
       d="m 282.87402,840.92183 -132.21625,0 0,65.64525"
       inkscape:connector-curvature="0" />
    <path
       id="path4181"
       style="fill:none;stroke:#231f20;stroke-width:1;stroke-linecap:round;stroke-linejoin:round;stroke-miterlimit:3.86369991;stroke-opacity:1;stroke-dasharray:none"
       d="m 362.36277,921.93433 0,-81.0125 -79.2225,0"
       inkscape:connector-curvature="0" />
    <path
       id="path4183"
       style="fill:none;stroke:#231f20;stroke-width:0.625;stroke-linecap:round;stroke-linejoin:round;stroke-miterlimit:3.86369991;stroke-opacity:1;stroke-dasharray:none"
       d="m 68.608269,917.07683 26.15,0"
       inkscape:connector-curvature="0" />
    <path
       id="path4185"
       style="fill:#231f20;fill-opacity:1;fill-rule:nonzero;stroke:none"
       d="m 94.040394,917.07683 -1.54,-2.53362 0.08688,-0.0571 4.130875,1.64112 c 1.4395,0.31638 2.8785,0.63275 4.317376,0.94963 -1.438876,0.317 -2.877876,0.63287 -4.317376,0.94975 l -4.130875,1.64113 -0.08688,-0.043 1.54,-2.54788"
       inkscape:connector-curvature="0" />
    <path
       id="path4187"
       style="fill:none;stroke:#231f20;stroke-width:0.625;stroke-linecap:round;stroke-linejoin:round;stroke-miterlimit:3.86369991;stroke-opacity:1;stroke-dasharray:none"
       d="m 245.91527,857.30058 26.15,0"
       inkscape:connector-curvature="0" />
    <path
       id="path4189"
       style="fill:#231f20;fill-opacity:1;fill-rule:nonzero;stroke:none"
       d="m 271.34777,857.30058 -1.54,-2.53375 0.0863,-0.0575 4.13125,1.64 c 1.43875,0.3175 2.8775,0.63375 4.3175,0.95125 -1.44,0.31625 -2.87875,0.6325 -4.3175,0.94875 l -4.13125,1.64125 -0.0863,-0.0438 1.54,-2.54625"
       inkscape:connector-curvature="0" />
    <text
       id="text4193"
       x="79.460396"
       y="896.03345"
       style="font-size:15px">
      <tspan
         style="font-size:10px;font-style:italic;font-variant:normal;writing-mode:lr-tb;fill:#231f20;fill-opacity:1;fill-rule:nonzero;stroke:none;font-family:Times;-inkscape-font-specification:Times-Italic"
         x="79.460396"
         y="896.03345"
         id="tspan4195">R</tspan>
    </text>
    <text
       id="text4197"
       x="85.570259"
       y="898.53345"
       style="font-size:15px">
      <tspan
         style="font-size:7.5px;font-variant:normal;font-weight:normal;writing-mode:lr-tb;fill:#231f20;fill-opacity:1;fill-rule:nonzero;stroke:none;font-family:Times;-inkscape-font-specification:Times-Roman"
         x="85.570259"
         y="898.53345"
         id="tspan4199">1</tspan>
    </text>
    <text
       id="text4201"
       x="103.64638"
       y="919.01733"
       style="font-size:15px">
      <tspan
         style="font-size:10px;font-style:italic;font-variant:normal;writing-mode:lr-tb;fill:#231f20;fill-opacity:1;fill-rule:nonzero;stroke:none;font-family:Times;-inkscape-font-specification:Times-Italic"
         x="103.64638"
         y="919.01733"
         id="tspan4203">i</tspan>
    </text>
    <text
       id="text4205"
       x="106.42617"
       y="921.51733"
       style="font-size:15px">
      <tspan
         style="font-size:7.5px;font-variant:normal;font-weight:normal;writing-mode:lr-tb;fill:#231f20;fill-opacity:1;fill-rule:nonzero;stroke:none;font-family:Times;-inkscape-font-specification:Times-Roman"
         x="106.42617"
         y="921.51733"
         id="tspan4207">1</tspan>
    </text>
    <text
       id="text4209"
       x="137.58292"
       y="900.29272"
       style="font-size:15px">
      <tspan
         style="font-size:10px;font-style:italic;font-variant:normal;writing-mode:lr-tb;fill:#231f20;fill-opacity:1;fill-rule:nonzero;stroke:none;font-family:Times;-inkscape-font-specification:Times-Italic"
         x="137.58292"
         y="900.29272"
         id="tspan4211">v</tspan>
    </text>
    <text
       id="text4213"
       x="142.02286"
       y="902.79272"
       style="font-size:15px">
      <tspan
         style="font-size:7.5px;font-variant:normal;font-weight:normal;writing-mode:lr-tb;fill:#231f20;fill-opacity:1;fill-rule:nonzero;stroke:none;font-family:Times;-inkscape-font-specification:Times-Roman"
         x="142.02286"
         y="902.79272"
         id="tspan4215">1</tspan>
    </text>
    <text
       id="text4217"
       x="137.58292"
       y="941.59106"
       style="font-size:15px">
      <tspan
         style="font-size:10px;font-style:italic;font-variant:normal;writing-mode:lr-tb;fill:#231f20;fill-opacity:1;fill-rule:nonzero;stroke:none;font-family:Times;-inkscape-font-specification:Times-Italic"
         x="137.58292"
         y="941.59106"
         id="tspan4219">v</tspan>
    </text>
    <text
       id="text4221"
       x="142.02286"
       y="944.09106"
       style="font-size:15px">
      <tspan
         style="font-size:7.5px;font-variant:normal;font-weight:normal;writing-mode:lr-tb;fill:#231f20;fill-opacity:1;fill-rule:nonzero;stroke:none;font-family:Times;-inkscape-font-specification:Times-Roman"
         x="142.02286"
         y="944.09106"
         id="tspan4223">2</tspan>
    </text>
    <text
       id="text4225"
       x="280.99411"
       y="859.48419"
       style="font-size:15px">
      <tspan
         style="font-size:10px;font-style:italic;font-variant:normal;writing-mode:lr-tb;fill:#231f20;fill-opacity:1;fill-rule:nonzero;stroke:none;font-family:Times;-inkscape-font-specification:Times-Italic"
         x="280.99411"
         y="859.48419"
         id="tspan4227">i</tspan>
    </text>
    <text
       id="text4229"
       x="283.7739"
       y="861.98419"
       style="font-size:15px">
      <tspan
         style="font-size:7.5px;font-style:italic;font-variant:normal;writing-mode:lr-tb;fill:#231f20;fill-opacity:1;fill-rule:nonzero;stroke:none;font-family:Times;-inkscape-font-specification:Times-Italic"
         x="283.7739"
         y="861.98419"
         id="tspan4231">f</tspan>
    </text>
    <text
       id="text4233"
       x="258.32178"
       y="828.8656"
       style="font-size:15px">
      <tspan
         style="font-size:10px;font-style:italic;font-variant:normal;writing-mode:lr-tb;fill:#231f20;fill-opacity:1;fill-rule:nonzero;stroke:none;font-family:Times;-inkscape-font-specification:Times-Italic"
         x="258.32178"
         y="828.8656"
         id="tspan4235">R</tspan>
    </text>
    <text
       id="text4237"
       x="264.43164"
       y="831.3656"
       style="font-size:15px">
      <tspan
         style="font-size:7.5px;font-style:italic;font-variant:normal;writing-mode:lr-tb;fill:#231f20;fill-opacity:1;fill-rule:nonzero;stroke:none;font-family:Times;-inkscape-font-specification:Times-Italic"
         x="264.43164"
         y="831.3656"
         id="tspan4239">f</tspan>
    </text>
    <text
       id="text4241"
       x="406.44913"
       y="926.71082"
       style="font-size:15px">
      <tspan
         style="font-size:10px;font-style:italic;font-variant:normal;writing-mode:lr-tb;fill:#231f20;fill-opacity:1;fill-rule:nonzero;stroke:none;font-family:Times;-inkscape-font-specification:Times-Italic"
         x="406.44913"
         y="926.71082"
         id="tspan4243">v</tspan>
    </text>
    <text
       id="text4245"
       x="410.88907"
       y="929.21082"
       style="font-size:15px">
      <tspan
         style="font-size:7.5px;font-style:italic;font-variant:normal;writing-mode:lr-tb;fill:#231f20;fill-opacity:1;fill-rule:nonzero;stroke:none;font-family:Times;-inkscape-font-specification:Times-Italic"
         x="410.88907"
         y="929.21082"
         id="tspan4247">o</tspan>
    </text>
    <path
       id="path4249"
       style="fill:#ffffff;fill-opacity:1;fill-rule:nonzero;stroke:none"
       d="m 153.33527,938.89283 c 0,1.15038 -0.9325,2.084 -2.08375,2.084 -1.15125,0 -2.08375,-0.93362 -2.08375,-2.084 0,-1.15037 0.9325,-2.084 2.08375,-2.084 1.15125,0 2.08375,0.93363 2.08375,2.084"
       inkscape:connector-curvature="0" />
    <path
       id="path4251"
       style="fill:none;stroke:#231f20;stroke-width:0.625;stroke-linecap:butt;stroke-linejoin:miter;stroke-miterlimit:4;stroke-opacity:1;stroke-dasharray:none"
       d="m 153.33527,938.89283 c 0,1.15038 -0.9325,2.084 -2.08375,2.084 -1.15125,0 -2.08375,-0.93362 -2.08375,-2.084 0,-1.15037 0.9325,-2.084 2.08375,-2.084 1.15125,0 2.08375,0.93363 2.08375,2.084 z"
       inkscape:connector-curvature="0" />
    <path
       id="path4253"
       style="fill:#ffffff;fill-opacity:1;fill-rule:nonzero;stroke:none"
       d="m 152.83527,905.18721 c 0,1.15037 -0.9325,2.08399 -2.08375,2.08399 -1.15125,0 -2.08375,-0.93362 -2.08375,-2.08399 0,-1.15038 0.9325,-2.08351 2.08375,-2.08351 1.15125,0 2.08375,0.93313 2.08375,2.08351"
       inkscape:connector-curvature="0" />
    <path
       id="path4255"
       style="fill:none;stroke:#231f20;stroke-width:0.625;stroke-linecap:butt;stroke-linejoin:miter;stroke-miterlimit:4;stroke-opacity:1;stroke-dasharray:none"
       d="m 152.83527,905.18721 c 0,1.15037 -0.9325,2.08399 -2.08375,2.08399 -1.15125,0 -2.08375,-0.93362 -2.08375,-2.08399 0,-1.15038 0.9325,-2.08351 2.08375,-2.08351 1.15125,0 2.08375,0.93313 2.08375,2.08351 z"
       inkscape:connector-curvature="0" />
    <path
       id="path4257"
       style="fill:#ffffff;fill-opacity:1;fill-rule:nonzero;stroke:none"
       d="m 402.42527,922.10271 c 0,1.15049 -0.9325,2.08349 -2.08375,2.08349 -1.15125,0 -2.08375,-0.933 -2.08375,-2.08349 0,-1.15038 0.9325,-2.08388 2.08375,-2.08388 1.15125,0 2.08375,0.9335 2.08375,2.08388"
       inkscape:connector-curvature="0" />
    <path
       id="path4259"
       style="fill:none;stroke:#231f20;stroke-width:0.625;stroke-linecap:butt;stroke-linejoin:miter;stroke-miterlimit:4;stroke-opacity:1;stroke-dasharray:none"
       d="m 402.42527,922.10271 c 0,1.15049 -0.9325,2.08349 -2.08375,2.08349 -1.15125,0 -2.08375,-0.933 -2.08375,-2.08349 0,-1.15038 0.9325,-2.08388 2.08375,-2.08388 1.15125,0 2.08375,0.9335 2.08375,2.08388 z"
       inkscape:connector-curvature="0" />
    <path
       id="path4261"
       style="fill:#231f20;fill-opacity:1;fill-rule:nonzero;stroke:none"
       d="m 364.44652,921.93433 c 0,1.15037 -0.9325,2.0835 -2.08375,2.0835 -1.15,0 -2.08375,-0.93313 -2.08375,-2.0835 0,-1.15038 0.93375,-2.084 2.08375,-2.084 1.15125,0 2.08375,0.93362 2.08375,2.084"
       inkscape:connector-curvature="0" />
    <path
       id="path4263"
       style="fill:none;stroke:#231f20;stroke-width:0.625;stroke-linecap:butt;stroke-linejoin:miter;stroke-miterlimit:4;stroke-opacity:1;stroke-dasharray:none"
       d="m 364.44652,921.93433 c 0,1.15037 -0.9325,2.0835 -2.08375,2.0835 -1.15,0 -2.08375,-0.93313 -2.08375,-2.0835 0,-1.15038 0.93375,-2.084 2.08375,-2.084 1.15125,0 2.08375,0.93362 2.08375,2.084 z"
       inkscape:connector-curvature="0" />
    <path
       id="path4265"
       style="fill:#ffffff;fill-opacity:1;fill-rule:nonzero;stroke:none"
       d="m 63.364144,909.8112 40.563996,0 0,-9.33593 -40.563996,0 0,9.33593 z"
       inkscape:connector-curvature="0" />
    <path
       id="path4267"
       style="fill:none;stroke:#231f20;stroke-width:1;stroke-linecap:round;stroke-linejoin:round;stroke-miterlimit:3.86369991;stroke-opacity:1;stroke-dasharray:none"
       d="m 104.20652,905.18721 -4.515251,0 -1.962875,4.62399 -3.937,-9.33587 -3.994125,9.33587 -3.996625,-9.33587 -3.937875,9.33587 -3.903875,-9.33587 -3.938,9.33587 -3.9965,-9.21624 -1.911625,4.59225 -4.748625,0"
       inkscape:connector-curvature="0" />
    <path
       id="path4269"
       style="fill:#ffffff;fill-opacity:1;fill-rule:nonzero;stroke:none"
       d="m 240.68777,845.57433 40.565,0 0,-9.33594 -40.565,0 0,9.33594 z"
       inkscape:connector-curvature="0" />
    <path
       id="path4271"
       style="fill:none;stroke:#231f20;stroke-width:1;stroke-linecap:round;stroke-linejoin:round;stroke-miterlimit:3.86369991;stroke-opacity:1;stroke-dasharray:none"
       d="m 281.53027,840.95058 -4.51625,0 -1.9625,4.62375 -3.93625,-9.335 -3.99375,9.335 -3.9975,-9.335 -3.9375,9.335 -3.90375,-9.335 -3.9375,9.335 -3.9975,-9.21625 -1.91125,4.5925 -4.74875,0"
       inkscape:connector-curvature="0" />
    <path
       id="path4273"
       style="fill:none;stroke:#231f20;stroke-width:1;stroke-linecap:round;stroke-linejoin:round;stroke-miterlimit:3.86369991;stroke-opacity:1;stroke-dasharray:none"
       d="m 20.536544,983.77658 0,8.03664"
       inkscape:connector-curvature="0" />
    <path
       id="path4275"
       style="fill:none;stroke:#231f20;stroke-width:1;stroke-linecap:round;stroke-linejoin:round;stroke-miterlimit:3.86369991;stroke-opacity:1;stroke-dasharray:none"
       d="m 29.286519,991.81322 -17.49998,0"
       inkscape:connector-curvature="0" />
    <path
       id="path4277"
       style="fill:none;stroke:#231f20;stroke-width:1;stroke-linecap:round;stroke-linejoin:round;stroke-miterlimit:3.86369991;stroke-opacity:1;stroke-dasharray:none"
       d="m 27.411519,995.11937 -13.749975,0"
       inkscape:connector-curvature="0" />
    <path
       id="path4279"
       style="fill:none;stroke:#231f20;stroke-width:1;stroke-linecap:round;stroke-linejoin:round;stroke-miterlimit:3.86369991;stroke-opacity:1;stroke-dasharray:none"
       d="m 25.536519,998.42161 -9.999975,0"
       inkscape:connector-curvature="0" />
    <path
       id="path4281"
       style="fill:none;stroke:#231f20;stroke-width:1;stroke-linecap:round;stroke-linejoin:round;stroke-miterlimit:3.86369991;stroke-opacity:1;stroke-dasharray:none"
       d="m 150.85277,982.08908 0,8.03761"
       inkscape:connector-curvature="0" />
    <path
       id="path4283"
       style="fill:none;stroke:#231f20;stroke-width:1;stroke-linecap:round;stroke-linejoin:round;stroke-miterlimit:3.86369991;stroke-opacity:1;stroke-dasharray:none"
       d="m 159.60277,990.12669 -17.5,0"
       inkscape:connector-curvature="0" />
    <path
       id="path4285"
       style="fill:none;stroke:#231f20;stroke-width:1;stroke-linecap:round;stroke-linejoin:round;stroke-miterlimit:3.86369991;stroke-opacity:1;stroke-dasharray:none"
       d="m 157.72777,993.43187 -13.75,0"
       inkscape:connector-curvature="0" />
    <path
       id="path4287"
       style="fill:none;stroke:#231f20;stroke-width:1;stroke-linecap:round;stroke-linejoin:round;stroke-miterlimit:3.86369991;stroke-opacity:1;stroke-dasharray:none"
       d="m 155.85277,996.73558 -10,0"
       inkscape:connector-curvature="0" />
    <path
       id="path4289"
       style="fill:#ffffff;fill-opacity:1;fill-rule:nonzero;stroke:none"
       d="m 402.42527,979.77421 c 0,1.15137 -0.9325,2.08487 -2.08375,2.08487 -1.15125,0 -2.08375,-0.9335 -2.08375,-2.08487 0,-1.15 0.9325,-2.08351 2.08375,-2.08351 1.15125,0 2.08375,0.93351 2.08375,2.08351"
       inkscape:connector-curvature="0" />
    <path
       id="path4291"
       style="fill:none;stroke:#231f20;stroke-width:0.625;stroke-linecap:butt;stroke-linejoin:miter;stroke-miterlimit:4;stroke-opacity:1;stroke-dasharray:none"
       d="m 402.42527,979.77421 c 0,1.15137 -0.9325,2.08487 -2.08375,2.08487 -1.15125,0 -2.08375,-0.9335 -2.08375,-2.08487 0,-1.15 0.9325,-2.08351 2.08375,-2.08351 1.15125,0 2.08375,0.93351 2.08375,2.08351 z"
       inkscape:connector-curvature="0" />
    <path
       id="path4293"
       style="fill:none;stroke:#231f20;stroke-width:1;stroke-linecap:round;stroke-linejoin:round;stroke-miterlimit:3.86369991;stroke-opacity:1;stroke-dasharray:none"
       d="m 400.32527,982.09296 0,8.03765"
       inkscape:connector-curvature="0" />
    <path
       id="path4295"
       style="fill:none;stroke:#231f20;stroke-width:1;stroke-linecap:round;stroke-linejoin:round;stroke-miterlimit:3.86369991;stroke-opacity:1;stroke-dasharray:none"
       d="m 409.07527,990.13061 -17.5,0"
       inkscape:connector-curvature="0" />
    <path
       id="path4297"
       style="fill:none;stroke:#231f20;stroke-width:1;stroke-linecap:round;stroke-linejoin:round;stroke-miterlimit:3.86369991;stroke-opacity:1;stroke-dasharray:none"
       d="m 407.20027,993.43676 -13.75,0"
       inkscape:connector-curvature="0" />
    <path
       id="path4299"
       style="fill:none;stroke:#231f20;stroke-width:1;stroke-linecap:round;stroke-linejoin:round;stroke-miterlimit:3.86369991;stroke-opacity:1;stroke-dasharray:none"
       d="m 405.32527,996.74047 -10,0"
       inkscape:connector-curvature="0" />
    <path
       inkscape:connector-curvature="0"
       id="path4628"
       style="font-size:10.00030041px;font-variant:normal;font-weight:normal;writing-mode:lr-tb;fill:#231f20;fill-opacity:1;fill-rule:nonzero;stroke:none;font-family:Symbol;-inkscape-font-specification:Symbol"
       d="m 35.186054,928.65752 -0.550023,2e-5 7.2e-5,2.39005 -2.370095,7e-5 1.7e-5,0.55001 2.370095,-7e-5 7.1e-5,2.39005 0.550023,-2e-5 -7.2e-5,-2.39005 2.370095,-7e-5 -1.7e-5,-0.55001 -2.370094,7e-5 -7.2e-5,-2.39005" />
    <path
       inkscape:connector-curvature="0"
       id="path4630"
       style="font-size:10.00030041px;font-variant:normal;font-weight:normal;writing-mode:lr-tb;fill:#231f20;fill-opacity:1;fill-rule:nonzero;stroke:none;font-family:Symbol;-inkscape-font-specification:Symbol"
       d="m 32.108518,960.04136 1.6e-5,0.55002 5.24021,-1.6e-4 -1.7e-5,-0.55001 -5.240209,1.5e-4" />
    <path
       id="path4309"
       style="fill:#ffffff;fill-opacity:1;fill-rule:nonzero;stroke:none"
       d="m 32.774801,945.14469 c 0,6.81715 -5.527938,12.34509 -12.344915,12.34509 -6.818285,0 -12.3449443,-5.52794 -12.3449443,-12.34509 0,-6.81699 5.5266593,-12.34493 12.3449443,-12.34493 6.816977,0 12.344915,5.52794 12.344915,12.34493"
       inkscape:connector-curvature="0" />
    <path
       id="path4311"
       style="fill:none;stroke:#231f20;stroke-width:0.62499994;stroke-linecap:round;stroke-linejoin:round;stroke-miterlimit:3.86369991;stroke-opacity:1;stroke-dasharray:none"
       d="m 32.7748,945.14465 c 0,6.81714 -5.527939,12.34508 -12.344915,12.34508 -6.818285,0 -12.3449438,-5.52794 -12.3449438,-12.34508 0,-6.81699 5.5266588,-12.34493 12.3449438,-12.34493 6.816976,0 12.344915,5.52794 12.344915,12.34493 z"
       inkscape:connector-curvature="0" />
    <path
       id="path4313"
       style="fill:none;stroke:#231f20;stroke-width:0.625;stroke-linecap:round;stroke-linejoin:round;stroke-miterlimit:3.86369991;stroke-opacity:1;stroke-dasharray:none"
       d="m 307.11777,921.91483 59.25375,0"
       inkscape:connector-curvature="0" />
    <path
       id="path4315"
       style="fill:none;stroke:#231f20;stroke-width:1;stroke-linecap:round;stroke-linejoin:round;stroke-miterlimit:3.86369991;stroke-opacity:1;stroke-dasharray:none"
       d="m 243.24652,905.18721 -70.0875,0"
       inkscape:connector-curvature="0" />
    <path
       id="path4317"
       style="fill:none;stroke:#231f20;stroke-width:1;stroke-linecap:round;stroke-linejoin:round;stroke-miterlimit:3.86369991;stroke-opacity:1;stroke-dasharray:none"
       d="m 173.17402,938.68483 70.0725,0"
       inkscape:connector-curvature="0" />
    <path
       id="path4319"
       style="fill:none;stroke:#231f20;stroke-width:1.2;stroke-linecap:round;stroke-linejoin:round;stroke-miterlimit:3.86369991;stroke-opacity:1;stroke-dasharray:none"
       d="m 243.24652,884.60621 63.90625,37.32812 -63.90625,37.331 0,-74.65912 z"
       inkscape:connector-curvature="0" />
    <text
       id="text4323"
       x="17.503819"
       y="946.65009"
       style="font-size:15px">
      <tspan
         style="font-size:10px;font-style:italic;font-variant:normal;writing-mode:lr-tb;fill:#231f20;fill-opacity:1;fill-rule:nonzero;stroke:none;font-family:Times;-inkscape-font-specification:Times-Italic"
         x="17.503819"
         y="946.65009"
         id="tspan4325">v</tspan>
    </text>
    <text
       id="text4327"
       x="21.94327"
       y="949.15009"
       style="font-size:15px">
      <tspan
         style="font-size:7.5px;font-style:italic;font-variant:normal;writing-mode:lr-tb;fill:#231f20;fill-opacity:1;fill-rule:nonzero;stroke:none;font-family:Times;-inkscape-font-specification:Times-Italic"
         x="21.94327"
         y="949.15009"
         id="tspan4329">i</tspan>
    </text>
    <text
       transform="matrix(-1.000005,1.99999e-5,-9.99995e-6,-0.999995,0,0)"
       id="text4331"
       x="-252.19965"
       y="-936.01245"
       style="font-size:15.00007534px">
      <tspan
         style="font-size:10.00014973px;font-variant:normal;font-weight:normal;writing-mode:lr-tb;fill:#231f20;fill-opacity:1;fill-rule:nonzero;stroke:none;font-family:Symbol;-inkscape-font-specification:Symbol"
         x="-252.19965"
         y="-936.01245"
         id="tspan4333">+</tspan>
      <tspan
         style="font-size:10.00014973px;font-variant:normal;font-weight:normal;writing-mode:lr-tb;fill:#231f20;fill-opacity:1;fill-rule:nonzero;stroke:none;font-family:Symbol;-inkscape-font-specification:Symbol"
         x="-252.19965"
         y="-902.61841"
         id="tspan4335">−</tspan>
    </text>
    <path
       d="m 400.30846,927.32058 -0.55002,2e-5 7e-5,2.39005 -2.3701,7e-5 2e-5,0.55001 2.37009,-7e-5 8e-5,2.39005 0.55002,-2e-5 -7e-5,-2.39005 2.37009,-7e-5 -2e-5,-0.55001 -2.37009,7e-5 -7e-5,-2.39005"
       style="font-size:10.00030041px;font-variant:normal;font-weight:normal;writing-mode:lr-tb;fill:#231f20;fill-opacity:1;fill-rule:nonzero;stroke:none;font-family:Symbol;-inkscape-font-specification:Symbol"
       id="path4634"
       inkscape:connector-curvature="0" />
    <path
       d="m 397.399,973.29785 10e-6,0.55002 5.24021,-1.6e-4 -1e-5,-0.55001 -5.24021,1.5e-4"
       style="font-size:10.00030041px;font-variant:normal;font-weight:normal;writing-mode:lr-tb;fill:#231f20;fill-opacity:1;fill-rule:nonzero;stroke:none;font-family:Symbol;-inkscape-font-specification:Symbol"
       id="path4636"
       inkscape:connector-curvature="0" />
  </g>
</svg>
