<?xml version="1.0" encoding="UTF-8" standalone="no"?>
<!-- Created with Inkscape (http://www.inkscape.org/) -->

<svg
   xmlns:dc="http://purl.org/dc/elements/1.1/"
   xmlns:cc="http://creativecommons.org/ns#"
   xmlns:rdf="http://www.w3.org/1999/02/22-rdf-syntax-ns#"
   xmlns:svg="http://www.w3.org/2000/svg"
   xmlns="http://www.w3.org/2000/svg"
   xmlns:sodipodi="http://sodipodi.sourceforge.net/DTD/sodipodi-0.dtd"
   xmlns:inkscape="http://www.inkscape.org/namespaces/inkscape"
   id="svg2"
   version="1.1"
   inkscape:version="0.47 r22583"
   width="195.5"
   height="191.775"
   xml:space="preserve"
   sodipodi:docname="S3-EE-02-IN005.svg"><metadata
     id="metadata8"><rdf:RDF><cc:Work
         rdf:about=""><dc:format>image/svg+xml</dc:format><dc:type
           rdf:resource="http://purl.org/dc/dcmitype/StillImage" /><dc:title /></cc:Work></rdf:RDF></metadata><defs
     id="defs6"><inkscape:perspective
       sodipodi:type="inkscape:persp3d"
       inkscape:vp_x="0 : 95.887497 : 1"
       inkscape:vp_y="0 : 1000 : 0"
       inkscape:vp_z="195.5 : 95.887497 : 1"
       inkscape:persp3d-origin="97.75 : 63.924998 : 1"
       id="perspective55" /></defs><sodipodi:namedview
     pagecolor="#ffffff"
     bordercolor="#666666"
     borderopacity="1"
     objecttolerance="10"
     gridtolerance="10"
     guidetolerance="10"
     inkscape:pageopacity="0"
     inkscape:pageshadow="2"
     inkscape:window-width="1024"
     inkscape:window-height="689"
     id="namedview4"
     showgrid="false"
     inkscape:zoom="3.1130232"
     inkscape:cx="97.75"
     inkscape:cy="95.887497"
     inkscape:window-x="0"
     inkscape:window-y="27"
     inkscape:window-maximized="1"
     inkscape:current-layer="g10" /><g
     id="g10"
     inkscape:groupmode="layer"
     inkscape:label="ink_ext_XXXXXX"
     transform="matrix(1.25,0,0,-1.25,0,191.775)"><path
   inkscape:connector-curvature="0"
   id="path3082"
   style="font-size:8px;font-style:italic;font-variant:normal;writing-mode:lr-tb;fill:#231f20;fill-opacity:1;fill-rule:nonzero;stroke:none;font-family:Times;-inkscape-font-specification:Times-Italic"
   d="m 19.4356,122.165 -1.488,0 0,-0.128 c 0.36,-0.04 0.504,-0.12 0.504,-0.272 0,-0.152 -0.152,-0.496 -0.416,-0.952 l -1.648,-2.848 -0.528,3.544 c -0.008,0.04 -0.008,0.072 -0.008,0.12 0,0.272 0.112001,0.352 0.616,0.408 l 0,0.128 -1.928,0 0,-0.128 c 0.448,-0.056 0.464,-0.08 0.632,-1.08 l 0.68,-4.16 0.152,0 2.984,4.92 c 0.136,0.216 0.264,0.312 0.448,0.32 l 0,0.128" /><path
   inkscape:connector-curvature="0"
   id="path3085"
   style="font-size:6px;font-variant:normal;font-weight:normal;writing-mode:lr-tb;fill:#231f20;fill-opacity:1;fill-rule:nonzero;stroke:none;font-family:Times;-inkscape-font-specification:Times-Roman"
   d="m 21.66988,115.763 -0.078,0.03 c -0.222,-0.342 -0.3,-0.396 -0.57,-0.396 l -1.434,0 1.008,1.056 c 0.533999,0.558 0.768,1.014 0.768,1.482 0,0.6 -0.486001,1.062 -1.11,1.062 -0.33,0 -0.642,-0.132 -0.864,-0.372 -0.192,-0.204 -0.282,-0.396 -0.384,-0.822 l 0.126,-0.03 c 0.24,0.588 0.456,0.78 0.87,0.78 0.504,0 0.846,-0.342 0.846,-0.846 0,-0.468 -0.276,-1.026 -0.78,-1.56 l -1.068,-1.134 0,-0.072 2.34,0 0.33,0.822" /><path
   inkscape:connector-curvature="0"
   id="path3088"
   style="font-size:8px;font-variant:normal;font-weight:normal;writing-mode:lr-tb;fill:#231f20;fill-opacity:1;fill-rule:nonzero;stroke:none;font-family:Times;-inkscape-font-specification:Times-Roman"
   d="m 27.59188,120.029 -4.032,0 0,-0.528 4.032,0 0,0.528 m 0,-1.6 -4.032,0 0,-0.528 4.032,0 0,0.528" /><path
   inkscape:connector-curvature="0"
   id="path3090"
   style="font-size:8px;font-variant:normal;font-weight:normal;writing-mode:lr-tb;fill:#231f20;fill-opacity:1;fill-rule:nonzero;stroke:none;font-family:Times;-inkscape-font-specification:Times-Roman"
   d="m 31.055636,119.581 c 0.472,0 0.656,-0.016 0.848,-0.088 0.495999,-0.176 0.808,-0.632 0.808,-1.184 0,-0.672 -0.456001,-1.192 -1.048,-1.192 -0.216,0 -0.376,0.056 -0.672,0.248 -0.24,0.144 -0.376,0.2 -0.512,0.2 -0.184,0 -0.304,-0.112 -0.304,-0.28 0,-0.28 0.344,-0.456 0.904,-0.456 0.615999,0 1.248,0.208 1.624,0.536 0.376,0.328 0.584,0.792 0.584,1.328 0,0.408 -0.128,0.784 -0.36,1.032 -0.16,0.176 -0.312,0.272 -0.664,0.424 0.551999,0.376 0.752,0.672 0.752,1.104 0,0.648 -0.512001,1.096 -1.248,1.096 -0.4,0 -0.752,-0.136 -1.04,-0.392 -0.24,-0.216 -0.36,-0.424 -0.536,-0.904 l 0.12,-0.032 c 0.328,0.584 0.688,0.848 1.192,0.848 0.519999,0 0.88,-0.352 0.88,-0.856 0,-0.288 -0.12,-0.576 -0.32,-0.776 -0.24,-0.24 -0.464001,-0.36 -1.008,-0.552 l 0,-0.104" /><path
   inkscape:connector-curvature="0"
   id="path3092"
   style="font-size:8px;font-variant:normal;font-weight:normal;writing-mode:lr-tb;fill:#231f20;fill-opacity:1;fill-rule:nonzero;stroke:none;font-family:Times;-inkscape-font-specification:Times-Roman"
   d="m 35.86358,122.349 c -0.44,0 -0.776001,-0.136 -1.072,-0.416 -0.464,-0.448 -0.768,-1.368 -0.768,-2.304 0,-0.872 0.264,-1.808 0.64,-2.256 0.295999,-0.352 0.704,-0.544 1.168,-0.544 0.407999,0 0.752,0.136 1.04,0.416 0.463999,0.44 0.768,1.368 0.768,2.336 0,1.64 -0.728001,2.768 -1.776,2.768 m -0.024,-0.208 c 0.671999,0 1.032,-0.904 1.032,-2.576 0,-1.672 -0.352001,-2.528 -1.04,-2.528 -0.688,0 -1.04,0.856 -1.04,2.52 0,1.696 0.36,2.584 1.048,2.584" /><path
   inkscape:connector-curvature="0"
   id="path3094"
   style="font-size:8px;font-variant:normal;font-weight:normal;writing-mode:lr-tb;fill:#231f20;fill-opacity:1;fill-rule:nonzero;stroke:none;font-family:Times;-inkscape-font-specification:Times-Roman"
   d="m 45.40758,122.237 -1.64,0 0,-0.152 c 0.439999,-0.024 0.584,-0.112 0.584,-0.336 0,-0.128 -0.056,-0.344 -0.152,-0.584 l -1.176,-2.936 -1.208,2.704 c -0.264,0.584 -0.328,0.768 -0.328,0.888 0,0.152 0.112,0.232 0.368,0.248 0.032,0 0.12,0.008 0.232,0.016 l 0,0.152 -2.128,0 0,-0.152 c 0.391999,-0.016 0.504,-0.128 0.848,-0.84 l 1.968,-4.392 0.12,0 1.776,4.488 c 0.263999,0.632 0.352,0.72 0.736,0.744 l 0,0.152" /><path
   inkscape:connector-curvature="0"
   id="path3097"
   style="font-size:8px;font-style:italic;font-variant:normal;writing-mode:lr-tb;fill:#231f20;fill-opacity:1;fill-rule:nonzero;stroke:none;font-family:Times;-inkscape-font-specification:Times-Italic"
   d="m 19.43558,56.5584 -1.488,0 0,-0.128 c 0.36,-0.04 0.504,-0.12 0.504,-0.272 0,-0.152 -0.152,-0.496001 -0.416,-0.952 l -1.648,-2.848 -0.528,3.544 c -0.008,0.04 -0.008,0.072 -0.008,0.12 0,0.272 0.112001,0.352 0.616,0.408 l 0,0.128 -1.928,0 0,-0.128 c 0.448,-0.056 0.464,-0.08 0.632,-1.08 l 0.68,-4.16 0.152,0 2.984,4.92 c 0.136,0.216 0.264,0.312 0.448,0.32 l 0,0.128" /><path
   inkscape:connector-curvature="0"
   id="path3100"
   style="font-size:6px;font-variant:normal;font-weight:normal;writing-mode:lr-tb;fill:#231f20;fill-opacity:1;fill-rule:nonzero;stroke:none;font-family:Times;-inkscape-font-specification:Times-Roman"
   d="m 21.66986,50.1564 -0.078,0.03 c -0.222,-0.342 -0.3,-0.396 -0.57,-0.396 l -1.434,0 1.008,1.056 c 0.533999,0.557999 0.768,1.014001 0.768,1.482 0,0.599999 -0.486001,1.062 -1.11,1.062 -0.33,0 -0.642,-0.132 -0.864,-0.372 -0.192,-0.204 -0.282,-0.396 -0.384,-0.822 l 0.126,-0.03 c 0.24,0.587999 0.456,0.78 0.87,0.78 0.503999,0 0.846,-0.342001 0.846,-0.846 0,-0.467999 -0.276001,-1.026 -0.78,-1.56 l -1.068,-1.134 0,-0.072 2.34,0 0.33,0.822" /><path
   inkscape:connector-curvature="0"
   id="path3103"
   style="font-size:8px;font-variant:normal;font-weight:normal;writing-mode:lr-tb;fill:#231f20;fill-opacity:1;fill-rule:nonzero;stroke:none;font-family:Times;-inkscape-font-specification:Times-Roman"
   d="m 27.59186,54.4224 -4.032,0 0,-0.528 4.032,0 0,0.528 m 0,-1.6 -4.032,0 0,-0.528 4.032,0 0,0.528" /><path
   inkscape:connector-curvature="0"
   id="path3105"
   style="font-size:8px;font-variant:normal;font-weight:normal;writing-mode:lr-tb;fill:#231f20;fill-opacity:1;fill-rule:nonzero;stroke:none;font-family:Times;-inkscape-font-specification:Times-Roman"
   d="m 31.055616,53.9744 c 0.471999,0 0.656,-0.016 0.848,-0.088 0.495999,-0.176 0.808,-0.632001 0.808,-1.184 0,-0.671999 -0.456001,-1.192 -1.048,-1.192 -0.216,0 -0.376,0.056 -0.672,0.248 -0.24,0.144 -0.376,0.2 -0.512,0.2 -0.184,0 -0.304,-0.112 -0.304,-0.28 0,-0.28 0.344,-0.456 0.904,-0.456 0.615999,0 1.248,0.208 1.624,0.536 0.376,0.328 0.584,0.792001 0.584,1.328 0,0.408 -0.128,0.784 -0.36,1.032 -0.16,0.176 -0.312,0.272 -0.664,0.424 0.551999,0.376 0.752,0.672 0.752,1.104 0,0.647999 -0.512001,1.096 -1.248,1.096 -0.4,0 -0.752,-0.136 -1.04,-0.392 -0.24,-0.216 -0.36,-0.424 -0.536,-0.904 l 0.12,-0.032 c 0.328,0.583999 0.688,0.848 1.192,0.848 0.519999,0 0.88,-0.352 0.88,-0.856 0,-0.288 -0.12,-0.576 -0.32,-0.776 -0.24,-0.24 -0.464001,-0.36 -1.008,-0.552 l 0,-0.104" /><path
   inkscape:connector-curvature="0"
   id="path3107"
   style="font-size:8px;font-variant:normal;font-weight:normal;writing-mode:lr-tb;fill:#231f20;fill-opacity:1;fill-rule:nonzero;stroke:none;font-family:Times;-inkscape-font-specification:Times-Roman"
   d="m 35.86356,56.7424 c -0.44,0 -0.776001,-0.136 -1.072,-0.416 -0.464,-0.448 -0.768,-1.368001 -0.768,-2.304 0,-0.871999 0.264,-1.808 0.64,-2.256 0.295999,-0.352 0.704,-0.544 1.168,-0.544 0.407999,0 0.752,0.136 1.04,0.416 0.463999,0.44 0.768,1.368001 0.768,2.336 0,1.639998 -0.728001,2.768 -1.776,2.768 m -0.024,-0.208 c 0.671999,0 1.032,-0.904002 1.032,-2.576 0,-1.671998 -0.352001,-2.528 -1.04,-2.528 -0.688,0 -1.04,0.856002 -1.04,2.52 0,1.695998 0.36,2.584 1.048,2.584" /><path
   inkscape:connector-curvature="0"
   id="path3109"
   style="font-size:8px;font-variant:normal;font-weight:normal;writing-mode:lr-tb;fill:#231f20;fill-opacity:1;fill-rule:nonzero;stroke:none;font-family:Times;-inkscape-font-specification:Times-Roman"
   d="m 45.40756,56.6304 -1.64,0 0,-0.152 c 0.439999,-0.024 0.584,-0.112 0.584,-0.336 0,-0.128 -0.056,-0.344 -0.152,-0.584 l -1.176,-2.936 -1.208,2.704 c -0.264,0.583999 -0.328,0.768 -0.328,0.888 0,0.152 0.112,0.232 0.368,0.248 0.032,0 0.12,0.008 0.232,0.016 l 0,0.152 -2.128,0 0,-0.152 c 0.391999,-0.016 0.504,-0.128001 0.848,-0.84 l 1.968,-4.392 0.12,0 1.776,4.488 c 0.263999,0.631999 0.352,0.72 0.736,0.744 l 0,0.152" /><path
   inkscape:connector-curvature="0"
   id="path44"
   style="fill:none;stroke:#231f20;stroke-width:0.8;stroke-linecap:butt;stroke-linejoin:miter;stroke-miterlimit:4;stroke-opacity:1;stroke-dasharray:none"
   d="m 49.893,18.5262 -45.15511,0 0,15.5566" /><path
   inkscape:connector-curvature="0"
   id="path46"
   style="fill:none;stroke:#000000;stroke-width:0.80000000000000004;stroke-linecap:butt;stroke-linejoin:miter;stroke-miterlimit:4;stroke-opacity:1;stroke-dasharray:none"
   d="m 117.551,18.5262 -69.1248,0" /><path
   inkscape:connector-curvature="0"
   id="path48"
   style="fill:#000000;stroke:#231f20;stroke-width:0.80000000999999998;stroke-linecap:butt;stroke-linejoin:miter;stroke-miterlimit:4;stroke-opacity:1;stroke-dasharray:none"
   d="m 8.1929361,84.8535 107.9549039,0" /><path
   inkscape:connector-curvature="0"
   id="path50"
   style="fill:none;stroke:#231f20;stroke-width:0.8;stroke-linecap:butt;stroke-linejoin:miter;stroke-miterlimit:4;stroke-opacity:1;stroke-dasharray:none"
   d="m 117.551,151.355 -112.81311,0 0,-19.377" /><path
   inkscape:connector-curvature="0"
   id="path52"
   style="fill:#ffffff;fill-opacity:1;fill-rule:nonzero;stroke:none"
   d="m 119.217,151.5 c 0,-0.92 -0.746,-1.666 -1.666,-1.666 -0.922,0 -1.668,0.746 -1.668,1.666 0,0.921 0.746,1.668 1.668,1.668 0.92,0 1.666,-0.747 1.666,-1.668" /><path
   inkscape:connector-curvature="0"
   id="path54"
   style="fill:none;stroke:#231f20;stroke-width:0.5;stroke-linecap:butt;stroke-linejoin:miter;stroke-miterlimit:4;stroke-opacity:1;stroke-dasharray:none"
   d="m 119.217,151.35232 c 0,-0.92 -0.746,-1.666 -1.666,-1.666 -0.922,0 -1.668,0.746 -1.668,1.666 0,0.921 0.746,1.668 1.668,1.668 0.92,0 1.666,-0.747 1.666,-1.668 z" /><path
   inkscape:connector-curvature="0"
   id="path58"
   style="fill:none;stroke:#231f20;stroke-width:0.5;stroke-linecap:butt;stroke-linejoin:miter;stroke-miterlimit:4;stroke-opacity:1;stroke-dasharray:none"
   d="m 119.217,84.865437 c 0,-0.9199 -0.746,-1.666 -1.666,-1.666 -0.922,0 -1.668,0.7461 -1.668,1.666 0,0.9219 0.746,1.6679 1.668,1.6679 0.92,0 1.666,-0.746 1.666,-1.6679 z" /><path
   inkscape:connector-curvature="0"
   id="path60"
   style="fill:#ffffff;fill-opacity:1;fill-rule:nonzero;stroke:none"
   d="m 119.217,18.5262 c 0,-0.9203 -0.746,-1.666 -1.666,-1.666 -0.922,0 -1.668,0.7457 -1.668,1.666 0,0.9199 0.746,1.6679 1.668,1.6679 0.92,0 1.666,-0.748 1.666,-1.6679" /><path
   inkscape:connector-curvature="0"
   id="path62"
   style="fill:none;stroke:#000000;stroke-width:0.50000000000000000;stroke-linecap:butt;stroke-linejoin:miter;stroke-miterlimit:4;stroke-opacity:1;stroke-dasharray:none"
   d="m 119.217,18.5262 c 0,-0.9203 -0.746,-1.666 -1.666,-1.666 -0.922,0 -1.668,0.7457 -1.668,1.666 0,0.9199 0.746,1.6679 1.668,1.6679 0.92,0 1.666,-0.748 1.666,-1.6679 z" /><path
   inkscape:connector-curvature="0"
   id="path64"
   style="fill:none;stroke:#231f20;stroke-width:0.5;stroke-linecap:butt;stroke-linejoin:miter;stroke-miterlimit:4;stroke-opacity:1;stroke-dasharray:none"
   d="m 17.1168,113.814 0,-25.6597" /><path
   inkscape:connector-curvature="0"
   id="path66"
   style="fill:#000000;fill-opacity:1;fill-rule:nonzero;stroke:none"
   d="m 17.1168,88.5371 1.3516,0.8203 0.0312,-0.0449 -0.875,-2.2031 c -0.1699,-0.7676 -0.3379,-1.5352 -0.5078,-2.3028 -0.168,0.7676 -0.3379,1.5352 -0.5059,2.3028 l -0.875,2.2031 0.0235,0.0449 1.3574,-0.8203" /><path
   inkscape:connector-curvature="0"
   id="path68"
   style="fill:none;stroke:#231f20;stroke-width:0.5;stroke-linecap:butt;stroke-linejoin:miter;stroke-miterlimit:4;stroke-opacity:1;stroke-dasharray:none"
   d="m 17.1168,147.936 0,-22.194" /><path
   inkscape:connector-curvature="0"
   id="path70"
   style="fill:#231f20;fill-opacity:1;fill-rule:nonzero;stroke:none"
   d="m 17.1168,147.553 -1.3516,-0.821 -0.0293,0.047 0.875,2.203 c 0.168,0.767 0.3379,1.535 0.5059,2.302 0.1699,-0.767 0.3379,-1.535 0.5078,-2.302 l 0.875,-2.203 -0.0234,-0.047 -1.3594,0.821" /><path
   inkscape:connector-curvature="0"
   id="path72"
   style="fill:none;stroke:#000000;stroke-width:0.50000000000000000;stroke-linecap:butt;stroke-linejoin:miter;stroke-miterlimit:4;stroke-opacity:1;stroke-dasharray:none"
   d="m 17.1168,47.3148 0,-25.6597" /><path
   inkscape:connector-curvature="0"
   id="path74"
   style="fill:#000000;fill-opacity:1;fill-rule:nonzero;stroke:none"
   d="m 17.1168,22.0379 1.3516,0.8199 0.0312,-0.0449 -0.875,-2.2027 c -0.1699,-0.768 -0.3379,-1.5352 -0.5078,-2.3032 -0.168,0.768 -0.3379,1.5352 -0.5059,2.3032 l -0.875,2.2027 0.0235,0.0449 1.3574,-0.8199" /><path
   inkscape:connector-curvature="0"
   id="path76"
   style="fill:#000000;stroke:#231f20;stroke-width:0.50000000000000000;stroke-linecap:butt;stroke-linejoin:miter;stroke-miterlimit:4;stroke-opacity:1;stroke-dasharray:none"
   d="m 17.1168,81.4355 0,-22.1929" /><path
   inkscape:connector-curvature="0"
   id="path78"
   style="fill:#000000;fill-opacity:1;fill-rule:nonzero;stroke:none"
   d="m 17.1168,81.0531 -1.3516,-0.8203 -0.0293,0.0449 0.875,2.2028 c 0.168,0.7675 0.3379,1.5351 0.5059,2.3027 0.1699,-0.7676 0.3379,-1.5352 0.5078,-2.3027 l 0.875,-2.2028 -0.0234,-0.0449 -1.3594,0.8203" /><path
   inkscape:connector-curvature="0"
   id="path80"
   style="fill:none;stroke:#231f20;stroke-width:0.80000001;stroke-linecap:round;stroke-linejoin:round;stroke-miterlimit:3.86369991;stroke-opacity:1;stroke-dasharray:none"
   d="m 0.400391,113.634 c 0.027343,2.338 1.928519,4.212 4.244529,4.184 1.41016,-0.016 2.65781,-0.734 3.40469,-1.821 -0.75781,-1.167 -1.95547,-1.371 -3.4418,-1.353 -2.3164,0.027 -4.172654,1.944 -4.144919,4.282 0.027343,2.338 1.928519,4.211 4.244529,4.183 1.34375,-0.015 2.54883,-0.668 3.30469,-1.671 -0.7793,-0.984 -1.99609,-1.307 -3.33945,-1.292 -2.31602,0.028 -4.17266,1.945 -4.145316,4.282 0.027734,2.338 1.903126,4.213 4.219536,4.185 l -0.00899,3.85" /><path
   inkscape:connector-curvature="0"
   id="path82"
   style="fill:none;stroke:#231f20;stroke-width:0.80000001;stroke-linecap:round;stroke-linejoin:round;stroke-miterlimit:3.86369991;stroke-opacity:1;stroke-dasharray:none"
   d="m 0.487891,108.448 c 0.027343,2.337 1.928519,4.209 4.244529,4.182 1.34961,-0.016 2.57578,-0.416 3.33125,-1.424 -0.76328,-1.134 -2.05937,-1.871 -3.51836,-1.853 -2.3164,0.027 -4.172654,1.943 -4.144919,4.281" /><path
   inkscape:connector-curvature="0"
   id="path84"
   style="fill:none;stroke:#231f20;stroke-width:0.80000001;stroke-linecap:round;stroke-linejoin:round;stroke-miterlimit:3.86369991;stroke-opacity:1;stroke-dasharray:none"
   d="m 0.575,103.262 c 0.027344,2.337 1.92852,4.209 4.24492,4.181 1.34961,-0.015 2.575,-0.416 3.33086,-1.423 -0.76289,-1.134 -2.05898,-1.871 -3.51797,-1.853 -2.3164,0.026 -4.172654,1.944 -4.144919,4.281" /><path
   inkscape:connector-curvature="0"
   id="path86"
   style="fill:none;stroke:#231f20;stroke-width:0.80000001;stroke-linecap:round;stroke-linejoin:round;stroke-miterlimit:3.86369991;stroke-opacity:1;stroke-dasharray:none"
   d="M 0.717188,39.7641 C 0.689453,37.4262 2.5207,35.5078 4.83672,35.4809 l -0.1,-3.85" /><path
   inkscape:connector-curvature="0"
   id="path88"
   style="fill:none;stroke:#231f20;stroke-width:0.80000001;stroke-linecap:round;stroke-linejoin:round;stroke-miterlimit:3.86369991;stroke-opacity:1;stroke-dasharray:none"
   d="M 0.447656,92.468 C 0.475,94.8059 2.37656,96.6797 4.69297,96.6523 6.10273,96.6359 7.35,95.918 8.09727,94.8313 7.33945,93.6641 6.14141,93.4602 4.65508,93.4766 2.33906,93.5039 0.482422,95.4219 0.510156,97.7598 0.5375,100.098 2.43906,101.971 4.75469,101.943 6.09844,101.928 7.30352,101.274 8.05977,100.271 7.28086,99.2883 6.06406,98.9648 4.72031,98.9805 2.40391,99.0078 0.547266,100.925 0.575,103.262" /><path
   inkscape:connector-curvature="0"
   id="path90"
   style="fill:none;stroke:#231f20;stroke-width:0.80000001;stroke-linecap:round;stroke-linejoin:round;stroke-miterlimit:3.86369991;stroke-opacity:1;stroke-dasharray:none"
   d="M 0.535156,87.2824 C 0.5625,89.6191 2.46406,91.491 4.77969,91.4641 6.1293,91.4484 7.35547,91.048 8.11094,90.0402 7.34766,88.9063 6.05195,88.1691 4.59258,88.1867 2.27656,88.2141 0.419922,90.1301 0.447656,92.468" /><path
   inkscape:connector-curvature="0"
   id="path92"
   style="fill:none;stroke:#231f20;stroke-width:0.80000001;stroke-linecap:round;stroke-linejoin:round;stroke-miterlimit:3.86369991;stroke-opacity:1;stroke-dasharray:none"
   d="M 0.622656,82.0957 C 0.65,84.4324 2.55078,86.3047 4.86719,86.2773 6.2168,86.2617 7.44219,85.8613 8.19805,84.8535 7.43516,83.7199 6.13906,82.9832 4.68008,83 2.36367,83.0273 0.507422,84.9445 0.535156,87.2824" /><path
   inkscape:connector-curvature="0"
   id="path94"
   style="fill:none;stroke:#231f20;stroke-width:0.80000001;stroke-linecap:round;stroke-linejoin:round;stroke-miterlimit:3.86369991;stroke-opacity:1;stroke-dasharray:none"
   d="M 0.494922,71.302 C 0.522656,73.6398 2.42383,75.5137 4.74023,75.4863 6.15,75.4699 7.39727,74.752 8.14453,73.6652 7.38672,72.498 6.18906,72.293 4.70273,72.3105 2.38633,72.3379 0.529688,74.2559 0.557422,76.5938 0.585156,78.9316 2.48633,80.8047 4.80234,80.7773 6.14609,80.7617 7.35156,80.1082 8.10703,79.1055 7.32813,78.1223 6.11133,77.7988 4.76758,77.8145 2.45117,77.8418 0.594922,79.759 0.622656,82.0957" /><path
   inkscape:connector-curvature="0"
   id="path96"
   style="fill:none;stroke:#231f20;stroke-width:0.80000001;stroke-linecap:round;stroke-linejoin:round;stroke-miterlimit:3.86369991;stroke-opacity:1;stroke-dasharray:none"
   d="m 0.582422,66.1156 c 0.027344,2.336 1.928908,4.209 4.244918,4.1817 C 6.17695,70.2816 7.40273,69.8813 8.1582,68.8734 7.39492,67.7387 6.09922,67.0023 4.64023,67.0199 2.32422,67.0473 0.467578,68.9633 0.494922,71.302" /><path
   inkscape:connector-curvature="0"
   id="path98"
   style="fill:none;stroke:#231f20;stroke-width:0.80000001;stroke-linecap:round;stroke-linejoin:round;stroke-miterlimit:3.86369991;stroke-opacity:1;stroke-dasharray:none"
   d="M 0.669922,60.9301 C 0.697266,63.266 2.59844,65.1391 4.91445,65.1117 6.26406,65.0961 7.49023,64.6957 8.2457,63.6879 7.48242,62.5531 6.18633,61.8168 4.72773,61.8344 2.41094,61.8617 0.554688,63.7777 0.582422,66.1156" /><path
   inkscape:connector-curvature="0"
   id="path100"
   style="fill:none;stroke:#231f20;stroke-width:0.80000001;stroke-linecap:round;stroke-linejoin:round;stroke-miterlimit:3.86369991;stroke-opacity:1;stroke-dasharray:none"
   d="M 0.542578,50.1352 C 0.570313,52.473 2.47109,54.348 4.7875,54.3207 6.19727,54.3031 7.44492,53.5863 8.1918,52.4988 7.43398,51.3328 6.23633,51.127 4.75,51.1449 c -2.31641,0.027 -4.173047,1.9449 -4.144922,4.2813 0.027344,2.3379 1.928512,4.2109 4.244532,4.1836 1.34375,-0.0157 2.54922,-0.668 3.30508,-1.6719 -0.7793,-0.9824 -1.9961,-1.3066 -3.33985,-1.2891 -2.3164,0.0274 -4.172652,1.9434 -4.144918,4.2813" /><path
   inkscape:connector-curvature="0"
   id="path102"
   style="fill:none;stroke:#231f20;stroke-width:0.80000001;stroke-linecap:round;stroke-linejoin:round;stroke-miterlimit:3.86369991;stroke-opacity:1;stroke-dasharray:none"
   d="M 0.630078,44.95 C 0.657422,47.2859 2.55859,49.159 4.87461,49.1309 6.22422,49.116 7.45039,48.7148 8.20586,47.7078 7.44219,46.573 6.14648,45.8359 4.6875,45.8539 c -2.31602,0.027 -4.172266,1.943 -4.144922,4.2813" /><path
   inkscape:connector-curvature="0"
   id="path104"
   style="fill:none;stroke:#231f20;stroke-width:0.80000001;stroke-linecap:round;stroke-linejoin:round;stroke-miterlimit:3.86369991;stroke-opacity:1;stroke-dasharray:none"
   d="M 0.717188,39.7641 C 0.744531,42.1 2.64609,43.973 4.96172,43.9461 6.31133,43.9301 7.5375,43.5301 8.29297,42.5219 7.52969,41.3871 6.23398,40.6512 4.775,40.668 2.45859,40.6961 0.601953,42.6121 0.630078,44.95" /><path
   d="m 119.217,84.865437 c 0,-0.9199 -0.746,-1.666 -1.666,-1.666 -0.922,0 -1.668,0.7461 -1.668,1.666 0,0.9219 0.746,1.6679 1.668,1.6679 0.92,0 1.666,-0.746 1.666,-1.6679 z"
   style="fill:none;stroke:#000000;stroke-width:0.50000000000000000;stroke-linecap:butt;stroke-linejoin:miter;stroke-miterlimit:4;stroke-opacity:1;stroke-dasharray:none"
   id="path4104"
   inkscape:connector-curvature="0" /><path
   inkscape:connector-curvature="0"
   id="path4106"
   style="fill:#000000;stroke:#000000;stroke-width:0.50000000000000000;stroke-linecap:butt;stroke-linejoin:miter;stroke-miterlimit:4;stroke-opacity:1;stroke-dasharray:none"
   d="m 11.642078,84.865437 c 0,-0.9199 -0.746,-1.666 -1.6659994,-1.666 -0.922,0 -1.668,0.7461 -1.668,1.666 0,0.9219 0.746,1.6679 1.668,1.6679 0.9199994,0 1.6659994,-0.746 1.6659994,-1.6679 z" /><text
   xml:space="preserve"
   style="font-size:9.60000038px;font-style:normal;font-variant:normal;font-weight:normal;font-stretch:normal;text-align:start;line-height:100%;letter-spacing:0px;word-spacing:0px;text-anchor:start;fill:#000000;fill-opacity:1;stroke:none;font-family:LMRoman12;-inkscape-font-specification:LMRoman12"
   x="122.58023"
   y="-80.949036"
   id="text4108"
   sodipodi:linespacing="100%"
   transform="scale(1,-1)"><tspan
     sodipodi:role="line"
     id="tspan4110"
     x="122.58023"
     y="-80.949036">Centre tap</tspan></text>

<text
   xml:space="preserve"
   style="font-size:9.60000038px;font-style:normal;font-variant:normal;font-weight:normal;font-stretch:normal;text-align:start;line-height:100%;letter-spacing:0px;word-spacing:0px;text-anchor:start;fill:#000000;fill-opacity:1;stroke:none;font-family:LMRoman12;-inkscape-font-specification:LMRoman12"
   x="23.642225"
   y="-5.6535845"
   id="text4112"
   sodipodi:linespacing="100%"
   transform="scale(1,-1)"><tspan
     sodipodi:role="line"
     id="tspan4114"
     x="23.642225"
     y="-5.6535845">Transformer secondary</tspan></text>

</g></svg>