<?xml version="1.0" encoding="UTF-8" standalone="no"?>
<!-- Created with Inkscape (http://www.inkscape.org/) -->

<svg
   xmlns:dc="http://purl.org/dc/elements/1.1/"
   xmlns:cc="http://creativecommons.org/ns#"
   xmlns:rdf="http://www.w3.org/1999/02/22-rdf-syntax-ns#"
   xmlns:svg="http://www.w3.org/2000/svg"
   xmlns="http://www.w3.org/2000/svg"
   xmlns:sodipodi="http://sodipodi.sourceforge.net/DTD/sodipodi-0.dtd"
   xmlns:inkscape="http://www.inkscape.org/namespaces/inkscape"
   id="svg2"
   version="1.1"
   inkscape:version="0.47 r22583"
   width="195.5"
   height="178.4375"
   xml:space="preserve"
   sodipodi:docname="S3-EE-02-IN004.svg"><metadata
     id="metadata8"><rdf:RDF><cc:Work
         rdf:about=""><dc:format>image/svg+xml</dc:format><dc:type
           rdf:resource="http://purl.org/dc/dcmitype/StillImage" /><dc:title /></cc:Work></rdf:RDF></metadata><defs
     id="defs6"><inkscape:perspective
       sodipodi:type="inkscape:persp3d"
       inkscape:vp_x="0 : 89.21875 : 1"
       inkscape:vp_y="0 : 1000 : 0"
       inkscape:vp_z="195.5 : 89.21875 : 1"
       inkscape:persp3d-origin="97.75 : 59.479167 : 1"
       id="perspective62" /></defs><sodipodi:namedview
     pagecolor="#ffffff"
     bordercolor="#666666"
     borderopacity="1"
     objecttolerance="10"
     gridtolerance="10"
     guidetolerance="10"
     inkscape:pageopacity="0"
     inkscape:pageshadow="2"
     inkscape:window-width="1024"
     inkscape:window-height="689"
     id="namedview4"
     showgrid="false"
     inkscape:zoom="2.3657737"
     inkscape:cx="97.75"
     inkscape:cy="89.21875"
     inkscape:window-x="0"
     inkscape:window-y="27"
     inkscape:window-maximized="1"
     inkscape:current-layer="g10" /><g
     id="g10"
     inkscape:groupmode="layer"
     inkscape:label="ink_ext_XXXXXX"
     transform="matrix(1.25,0,0,-1.25,0,178.4375)"><g
   transform="matrix(1,0,0,-1,13.9313,107.275)"
   id="text16"><path
     d="m 5.504,-5.224 -1.488,0 0,0.128 c 0.3599996,0.04 0.504,0.1200002 0.504,0.272 0,0.1519998 -0.1520003,0.4960005 -0.416,0.952 L 2.456,-1.024 1.928,-4.568 C 1.92,-4.608 1.92,-4.64 1.92,-4.688 c 0,-0.2719997 0.1120005,-0.3520001 0.616,-0.408 l 0,-0.128 -1.928,0 0,0.128 c 0.4479996,0.056 0.4640002,0.080001 0.632,1.08 l 0.68,4.16 0.152,0 2.984,-4.92 c 0.1359999,-0.2159998 0.2640002,-0.312 0.448,-0.32 l 0,-0.128"
     style="font-size:8px;font-style:italic;font-variant:normal;writing-mode:lr-tb;fill:#231f20;fill-opacity:1;fill-rule:nonzero;stroke:none;font-family:Times;-inkscape-font-specification:Times-Italic"
     id="path3082"
     inkscape:connector-curvature="0" /></g><g
   transform="matrix(1,0,0,-1,18.81919,105.275)"
   id="text20"><path
     d="m 2.85,-0.822 -0.078,-0.03 c -0.2219998,0.34199966 -0.3000003,0.396 -0.57,0.396 l -1.434,0 1.008,-1.056 c 0.5339995,-0.5579994 0.768,-1.0140005 0.768,-1.482 0,-0.5999994 -0.4860006,-1.062 -1.11,-1.062 -0.3299997,0 -0.64200022,0.1320002 -0.864,0.372 -0.19199981,0.2039998 -0.2820001,0.3960004 -0.384,0.822 l 0.126,0.03 c 0.23999976,-0.5879994 0.45600041,-0.78 0.87,-0.78 0.5039995,0 0.846,0.3420005 0.846,0.846 0,0.4679995 -0.2760005,1.0260005 -0.78,1.56 L 0.18,-0.072 0.18,0 2.52,0 2.85,-0.822"
     style="font-size:6px;font-variant:normal;font-weight:normal;writing-mode:lr-tb;fill:#231f20;fill-opacity:1;fill-rule:nonzero;stroke:none;font-family:Times;-inkscape-font-specification:Times-Roman"
     id="path3085"
     inkscape:connector-curvature="0" /></g><g
   transform="matrix(1,0,0,-1,23.31919,107.275)"
   id="text24"><path
     d="m 4.272,-3.088 -4.032,0 0,0.528 4.032,0 0,-0.528 m 0,1.6 -4.032,0 0,0.528 4.032,0 0,-0.528"
     style="font-size:8px;font-variant:normal;font-weight:normal;writing-mode:lr-tb;fill:#231f20;fill-opacity:1;fill-rule:nonzero;stroke:none;font-family:Times;-inkscape-font-specification:Times-Roman"
     id="path3088"
     inkscape:connector-curvature="0" /><path
     d="m 10.311756,-1.096 -0.104,-0.04 c -0.2959998,0.45599954 -0.4000004,0.528 -0.7600001,0.528 l -1.912,0 1.344,-1.408 c 0.7119993,-0.7439993 1.024,-1.3520006 1.024,-1.976 0,-0.7999992 -0.6480008,-1.416 -1.48,-1.416 -0.4399995,0 -0.8560003,0.1760003 -1.152,0.496 -0.2559997,0.2719997 -0.3760001,0.5280006 -0.512,1.096 l 0.168,0.04 c 0.3199997,-0.7839992 0.6080006,-1.04 1.16,-1.04 0.6719994,0 1.128,0.4560007 1.128,1.128 0,0.6239994 -0.3680006,1.3680007 -1.04,2.08 l -1.424,1.512 0,0.096 3.12,0 0.4400001,-1.096"
     style="font-size:8px;font-variant:normal;font-weight:normal;writing-mode:lr-tb;fill:#231f20;fill-opacity:1;fill-rule:nonzero;stroke:none;font-family:Times;-inkscape-font-specification:Times-Roman"
     id="path3090"
     inkscape:connector-curvature="0" /><path
     d="m 12.5441,-5.408 c -0.439999,0 -0.776,0.1360003 -1.072,0.416 -0.463999,0.4479996 -0.768,1.3680009 -0.768,2.304 0,0.8719991 0.264001,1.80800045 0.64,2.256 0.296,0.35199965 0.704001,0.544 1.168,0.544 0.408,0 0.752001,-0.13600028 1.04,-0.416 0.464,-0.43999956 0.768,-1.368001 0.768,-2.336 0,-1.6399984 -0.728001,-2.768 -1.776,-2.768 m -0.024,0.208 c 0.672,0 1.032,0.9040017 1.032,2.576 0,1.67199833 -0.352,2.528 -1.04,2.528 -0.687999,0 -1.04,-0.85600166 -1.04,-2.52 0,-1.6959983 0.360001,-2.584 1.048,-2.584"
     style="font-size:8px;font-variant:normal;font-weight:normal;writing-mode:lr-tb;fill:#231f20;fill-opacity:1;fill-rule:nonzero;stroke:none;font-family:Times;-inkscape-font-specification:Times-Roman"
     id="path3092"
     inkscape:connector-curvature="0" /><path
     d="m 16.5441,-5.408 c -0.439999,0 -0.776,0.1360003 -1.072,0.416 -0.463999,0.4479996 -0.768,1.3680009 -0.768,2.304 0,0.8719991 0.264001,1.80800045 0.64,2.256 0.296,0.35199965 0.704001,0.544 1.168,0.544 0.408,0 0.752001,-0.13600028 1.04,-0.416 0.464,-0.43999956 0.768,-1.368001 0.768,-2.336 0,-1.6399984 -0.728001,-2.768 -1.776,-2.768 m -0.024,0.208 c 0.672,0 1.032,0.9040017 1.032,2.576 0,1.67199833 -0.352,2.528 -1.04,2.528 -0.687999,0 -1.04,-0.85600166 -1.04,-2.52 0,-1.6959983 0.360001,-2.584 1.048,-2.584"
     style="font-size:8px;font-variant:normal;font-weight:normal;writing-mode:lr-tb;fill:#231f20;fill-opacity:1;fill-rule:nonzero;stroke:none;font-family:Times;-inkscape-font-specification:Times-Roman"
     id="path3094"
     inkscape:connector-curvature="0" /><path
     d="m 26.0881,-5.296 -1.64,0 0,0.152 c 0.44,0.024 0.584,0.1120002 0.584,0.336 0,0.1279999 -0.056,0.3440002 -0.152,0.584 l -1.176,2.936 -1.208,-2.704 c -0.264,-0.5839994 -0.328,-0.7680001 -0.328,-0.888 0,-0.1519998 0.112,-0.232 0.368,-0.248 0.032,0 0.12,-0.008 0.232,-0.016 l 0,-0.152 -2.128,0 0,0.152 c 0.392,0.016 0.504001,0.1280007 0.848,0.84 l 1.968,4.392 0.12,0 1.776,-4.488 c 0.264,-0.6319994 0.352001,-0.72 0.736,-0.744 l 0,-0.152"
     style="font-size:8px;font-variant:normal;font-weight:normal;writing-mode:lr-tb;fill:#231f20;fill-opacity:1;fill-rule:nonzero;stroke:none;font-family:Times;-inkscape-font-specification:Times-Roman"
     id="path3096"
     inkscape:connector-curvature="0" /></g><g
   transform="matrix(1,0,0,-1,13.93129,42.9801)"
   id="text28"><path
     d="m 5.504,-5.224 -1.488,0 0,0.128 c 0.3599996,0.04 0.504,0.1200002 0.504,0.272 0,0.1519998 -0.1520003,0.4960005 -0.416,0.952 L 2.456,-1.024 1.928,-4.568 C 1.92,-4.608 1.92,-4.64 1.92,-4.688 c 0,-0.2719997 0.1120005,-0.3520001 0.616,-0.408 l 0,-0.128 -1.928,0 0,0.128 c 0.4479996,0.056 0.4640002,0.080001 0.632,1.08 l 0.68,4.16 0.152,0 2.984,-4.92 c 0.1359999,-0.2159998 0.2640002,-0.312 0.448,-0.32 l 0,-0.128"
     style="font-size:8px;font-style:italic;font-variant:normal;writing-mode:lr-tb;fill:#231f20;fill-opacity:1;fill-rule:nonzero;stroke:none;font-family:Times;-inkscape-font-specification:Times-Italic"
     id="path3099"
     inkscape:connector-curvature="0" /></g><g
   transform="matrix(1,0,0,-1,18.81918,40.9801)"
   id="text32"><path
     d="m 2.85,-0.822 -0.078,-0.03 c -0.2219998,0.34199966 -0.3000003,0.396 -0.57,0.396 l -1.434,0 1.008,-1.056 c 0.5339995,-0.5579994 0.768,-1.0140005 0.768,-1.482 0,-0.5999994 -0.4860006,-1.062 -1.11,-1.062 -0.3299997,0 -0.64200022,0.1320002 -0.864,0.372 -0.19199981,0.2039998 -0.2820001,0.3960004 -0.384,0.822 l 0.126,0.03 c 0.23999976,-0.5879994 0.45600041,-0.78 0.87,-0.78 0.5039995,0 0.846,0.3420005 0.846,0.846 0,0.4679995 -0.2760005,1.0260005 -0.78,1.56 L 0.18,-0.072 0.18,0 2.52,0 2.85,-0.822"
     style="font-size:6px;font-variant:normal;font-weight:normal;writing-mode:lr-tb;fill:#231f20;fill-opacity:1;fill-rule:nonzero;stroke:none;font-family:Times;-inkscape-font-specification:Times-Roman"
     id="path3102"
     inkscape:connector-curvature="0" /></g><path
   inkscape:connector-curvature="0"
   id="path3105"
   style="font-size:8px;font-variant:normal;font-weight:normal;writing-mode:lr-tb;fill:#231f20;fill-opacity:1;fill-rule:nonzero;stroke:none;font-family:Times;-inkscape-font-specification:Times-Roman"
   d="m 25.752065,46.307215 -4.032,0 0,-0.528 4.032,0 0,0.528 m 0,-1.6 -4.032,0 0,-0.528 4.032,0 0,0.528" /><path
   inkscape:connector-curvature="0"
   id="path3107"
   style="font-size:8px;font-variant:normal;font-weight:normal;writing-mode:lr-tb;fill:#231f20;fill-opacity:1;fill-rule:nonzero;stroke:none;font-family:Times;-inkscape-font-specification:Times-Roman"
   d="m 31.791821,44.315215 -0.104,0.04 c -0.296,-0.456 -0.4,-0.528 -0.76,-0.528 l -1.912,0 1.344,1.408 c 0.711999,0.743999 1.024,1.352001 1.024,1.976 0,0.799999 -0.648001,1.416 -1.48,1.416 -0.44,0 -0.856,-0.176 -1.152,-0.496 -0.256,-0.272 -0.376,-0.528001 -0.512,-1.096 l 0.168,-0.04 c 0.32,0.783999 0.608001,1.04 1.16,1.04 0.671999,0 1.128,-0.456001 1.128,-1.128 0,-0.623999 -0.368001,-1.368001 -1.04,-2.08 l -1.424,-1.512 0,-0.096 3.12,0 0.44,1.096" /><path
   inkscape:connector-curvature="0"
   id="path3109"
   style="font-size:8px;font-variant:normal;font-weight:normal;writing-mode:lr-tb;fill:#231f20;fill-opacity:1;fill-rule:nonzero;stroke:none;font-family:Times;-inkscape-font-specification:Times-Roman"
   d="m 34.024165,48.627215 c -0.439999,0 -0.776,-0.136 -1.072,-0.416 -0.463999,-0.448 -0.768,-1.368001 -0.768,-2.304 0,-0.871999 0.264001,-1.808 0.64,-2.256 0.296,-0.352 0.704001,-0.544 1.168,-0.544 0.408,0 0.752001,0.136 1.04,0.416 0.464,0.44 0.768,1.368001 0.768,2.336 0,1.639998 -0.728001,2.768 -1.776,2.768 m -0.024,-0.208 c 0.672,0 1.032,-0.904002 1.032,-2.576 0,-1.671998 -0.352,-2.528 -1.04,-2.528 -0.687999,0 -1.04,0.856002 -1.04,2.52 0,1.695998 0.360001,2.584 1.048,2.584" /><path
   inkscape:connector-curvature="0"
   id="path3111"
   style="font-size:8px;font-variant:normal;font-weight:normal;writing-mode:lr-tb;fill:#231f20;fill-opacity:1;fill-rule:nonzero;stroke:none;font-family:Times;-inkscape-font-specification:Times-Roman"
   d="m 38.024165,48.627215 c -0.439999,0 -0.776,-0.136 -1.072,-0.416 -0.463999,-0.448 -0.768,-1.368001 -0.768,-2.304 0,-0.871999 0.264001,-1.808 0.64,-2.256 0.296,-0.352 0.704001,-0.544 1.168,-0.544 0.408,0 0.752001,0.136 1.04,0.416 0.464,0.44 0.768,1.368001 0.768,2.336 0,1.639998 -0.728001,2.768 -1.776,2.768 m -0.024,-0.208 c 0.672,0 1.032,-0.904002 1.032,-2.576 0,-1.671998 -0.352,-2.528 -1.04,-2.528 -0.687999,0 -1.04,0.856002 -1.04,2.52 0,1.695998 0.360001,2.584 1.048,2.584" /><path
   inkscape:connector-curvature="0"
   id="path3113"
   style="font-size:8px;font-variant:normal;font-weight:normal;writing-mode:lr-tb;fill:#231f20;fill-opacity:1;fill-rule:nonzero;stroke:none;font-family:Times;-inkscape-font-specification:Times-Roman"
   d="m 47.568165,48.515215 -1.64,0 0,-0.152 c 0.44,-0.024 0.584,-0.112 0.584,-0.336 0,-0.128 -0.056,-0.344 -0.152,-0.584 l -1.176,-2.936 -1.208,2.704 c -0.264,0.583999 -0.328,0.768 -0.328,0.888 0,0.152 0.112,0.232 0.368,0.248 0.032,0 0.12,0.008 0.232,0.016 l 0,0.152 -2.128,0 0,-0.152 c 0.392,-0.016 0.504001,-0.128001 0.848,-0.84 l 1.968,-4.392 0.12,0 1.776,4.488 c 0.264,0.631999 0.352001,0.72 0.736,0.744 l 0,0.152" /><path
   inkscape:connector-curvature="0"
   id="path44"
   style="fill:none;stroke:#231f20;stroke-width:0.8;stroke-linecap:butt;stroke-linejoin:miter;stroke-miterlimit:4;stroke-opacity:1;stroke-dasharray:none"
   d="m 49.8922,11.859 -45.15509,0 0,13.818" /><path
   inkscape:connector-curvature="0"
   id="path46"
   style="fill:none;stroke:#231f20;stroke-width:0.8;stroke-linecap:butt;stroke-linejoin:miter;stroke-miterlimit:4;stroke-opacity:1;stroke-dasharray:none"
   d="m 117.55,11.859 -69.1246,0" /><path
   inkscape:connector-curvature="0"
   id="path48"
   style="fill:none;stroke:#231f20;stroke-width:0.8;stroke-linecap:butt;stroke-linejoin:miter;stroke-miterlimit:4;stroke-opacity:1;stroke-dasharray:none"
   d="m 8.19727,76.1871 109.35273,0" /><path
   inkscape:connector-curvature="0"
   id="path50"
   style="fill:none;stroke:#231f20;stroke-width:0.8;stroke-linecap:butt;stroke-linejoin:miter;stroke-miterlimit:4;stroke-opacity:1;stroke-dasharray:none"
   d="m 117.55,140.689 -112.81289,0 0,-18.47" /><path
   inkscape:connector-curvature="0"
   id="path52"
   style="fill:#ffffff;fill-opacity:1;fill-rule:nonzero;stroke:none"
   d="m 119.216,140.834 c 0,-0.92 -0.746,-1.666 -1.666,-1.666 -0.922,0 -1.668,0.746 -1.668,1.666 0,0.921 0.746,1.668 1.668,1.668 0.92,0 1.666,-0.747 1.666,-1.668" /><path
   inkscape:connector-curvature="0"
   id="path54"
   style="fill:none;stroke:#231f20;stroke-width:0.5;stroke-linecap:butt;stroke-linejoin:miter;stroke-miterlimit:4;stroke-opacity:1;stroke-dasharray:none"
   d="m 119.216,140.66492 c 0,-0.92 -0.746,-1.666 -1.666,-1.666 -0.922,0 -1.668,0.746 -1.668,1.666 0,0.921 0.746,1.668 1.668,1.668 0.92,0 1.666,-0.747 1.666,-1.668 z" /><path
   inkscape:connector-curvature="0"
   id="path56"
   style="fill:#ffffff;fill-opacity:1;fill-rule:nonzero;stroke:none"
   d="m 119.216,75.852 c 0,-0.92 -0.746,-1.6661 -1.666,-1.6661 -0.922,0 -1.668,0.7461 -1.668,1.6661 0,0.921 0.746,1.6679 1.668,1.6679 0.92,0 1.666,-0.7469 1.666,-1.6679" /><path
   inkscape:connector-curvature="0"
   id="path58"
   style="fill:none;stroke:#231f20;stroke-width:0.5;stroke-linecap:butt;stroke-linejoin:miter;stroke-miterlimit:4;stroke-opacity:1;stroke-dasharray:none"
   d="m 119.216,76.150895 c 0,-0.92 -0.746,-1.6661 -1.666,-1.6661 -0.922,0 -1.668,0.7461 -1.668,1.6661 0,0.921 0.746,1.6679 1.668,1.6679 0.92,0 1.666,-0.7469 1.666,-1.6679 z" /><path
   inkscape:connector-curvature="0"
   id="path60"
   style="fill:#ffffff;fill-opacity:1;fill-rule:nonzero;stroke:none"
   d="m 119.216,11.859 c 0,-0.9199 -0.746,-1.666 -1.666,-1.666 -0.922,0 -1.668,0.7461 -1.668,1.666 0,0.9199 0.746,1.668 1.668,1.668 0.92,0 1.666,-0.7481 1.666,-1.668" /><path
   inkscape:connector-curvature="0"
   id="path62"
   style="fill:none;stroke:#231f20;stroke-width:0.5;stroke-linecap:butt;stroke-linejoin:miter;stroke-miterlimit:4;stroke-opacity:1;stroke-dasharray:none"
   d="m 119.216,11.859 c 0,-0.9199 -0.746,-1.666 -1.666,-1.666 -0.922,0 -1.668,0.7461 -1.668,1.666 0,0.9199 0.746,1.668 1.668,1.668 0.92,0 1.666,-0.7481 1.666,-1.668 z" /><path
   inkscape:connector-curvature="0"
   id="path64"
   style="fill:none;stroke:#231f20;stroke-width:0.5;stroke-linecap:butt;stroke-linejoin:miter;stroke-miterlimit:4;stroke-opacity:1;stroke-dasharray:none"
   d="m 17.116,104.148 0,-24.6593" /><path
   inkscape:connector-curvature="0"
   id="path66"
   style="fill:#231f20;fill-opacity:1;fill-rule:nonzero;stroke:none"
   d="m 17.116,79.8715 1.352,0.8203 0.0308,-0.0449 -0.875,-2.2031 c -0.1699,-0.7676 -0.3379,-1.5352 -0.5078,-2.3028 -0.168,0.7676 -0.3379,1.5352 -0.5055,2.3028 l -0.875,2.2031 0.0235,0.0449 1.357,-0.8203" /><path
   inkscape:connector-curvature="0"
   id="path68"
   style="fill:none;stroke:#231f20;stroke-width:0.5;stroke-linecap:butt;stroke-linejoin:miter;stroke-miterlimit:4;stroke-opacity:1;stroke-dasharray:none"
   d="m 17.116,137.27 0,-21.194" /><path
   inkscape:connector-curvature="0"
   id="path70"
   style="fill:#231f20;fill-opacity:1;fill-rule:nonzero;stroke:none"
   d="m 17.116,136.887 -1.3515,-0.821 -0.029,0.047 0.875,2.203 c 0.1676,0.767 0.3375,1.535 0.5055,2.302 0.1699,-0.767 0.3379,-1.535 0.5078,-2.302 l 0.875,-2.203 -0.023,-0.047 -1.3598,0.821" /><path
   inkscape:connector-curvature="0"
   id="path72"
   style="fill:none;stroke:#231f20;stroke-width:0.5;stroke-linecap:butt;stroke-linejoin:miter;stroke-miterlimit:4;stroke-opacity:1;stroke-dasharray:none"
   d="m 17.116,39.648 0,-24.6601" /><path
   inkscape:connector-curvature="0"
   id="path74"
   style="fill:#231f20;fill-opacity:1;fill-rule:nonzero;stroke:none"
   d="m 17.116,15.3711 1.352,0.8199 0.0308,-0.0441 -0.875,-2.2039 c -0.1699,-0.7668 -0.3379,-1.5348 -0.5078,-2.302 -0.168,0.7672 -0.3379,1.5352 -0.5055,2.302 l -0.875,2.2039 0.0235,0.0441 1.357,-0.8199" /><path
   inkscape:connector-curvature="0"
   id="path76"
   style="fill:none;stroke:#231f20;stroke-width:0.5;stroke-linecap:butt;stroke-linejoin:miter;stroke-miterlimit:4;stroke-opacity:1;stroke-dasharray:none"
   d="m 17.116,72.7699 0,-21.1937" /><path
   inkscape:connector-curvature="0"
   id="path78"
   style="fill:#231f20;fill-opacity:1;fill-rule:nonzero;stroke:none"
   d="m 17.116,72.3875 -1.3515,-0.8215 -0.029,0.0457 0.875,2.2031 c 0.1676,0.7676 0.3375,1.5352 0.5055,2.3028 0.1699,-0.7676 0.3379,-1.5352 0.5078,-2.3028 l 0.875,-2.2031 -0.023,-0.0457 -1.3598,0.8215" /><path
   inkscape:connector-curvature="0"
   id="path80"
   style="fill:none;stroke:#231f20;stroke-width:0.80000001;stroke-linecap:round;stroke-linejoin:round;stroke-miterlimit:3.86369991;stroke-opacity:1;stroke-dasharray:none"
   d="m 0.400391,104.967 c 0.027343,2.338 1.927739,4.212 4.244139,4.185 1.41016,-0.017 2.6582,-0.734 3.4043,-1.822 -0.75781,-1.166 -1.95508,-1.371 -3.44141,-1.353 -2.3164,0.027 -4.173045,1.944 -4.144529,4.282 0.027343,2.338 1.927739,4.211 4.244139,4.184 1.34375,-0.016 2.54883,-0.669 3.30469,-1.672 -0.7793,-0.983 -1.99609,-1.307 -3.33984,-1.291 -2.31641,0.027 -4.17188,1.944 -4.144536,4.281 0.027344,2.338 1.902346,4.213 4.218746,4.186 l -0.00898,3.849" /><path
   inkscape:connector-curvature="0"
   id="path82"
   style="fill:none;stroke:#231f20;stroke-width:0.80000001;stroke-linecap:round;stroke-linejoin:round;stroke-miterlimit:3.86369991;stroke-opacity:1;stroke-dasharray:none"
   d="m 0.4875,99.7816 c 0.026953,2.3374 1.92852,4.2094 4.24492,4.1814 1.34961,-0.015 2.57539,-0.416 3.33008,-1.424 -0.76289,-1.133 -2.05859,-1.871 -3.51758,-1.853 -2.3164,0.027 -4.173045,1.943 -4.144529,4.281" /><path
   inkscape:connector-curvature="0"
   id="path84"
   style="fill:none;stroke:#231f20;stroke-width:0.80000001;stroke-linecap:round;stroke-linejoin:round;stroke-miterlimit:3.86369991;stroke-opacity:1;stroke-dasharray:none"
   d="M 0.574219,94.5953 C 0.601563,96.932 2.50313,98.8043 4.81953,98.777 6.16914,98.7613 7.39453,98.3609 8.15039,97.3531 7.38672,96.2191 6.0918,95.4828 4.63281,95.5004 2.31641,95.527 0.458984,97.4438 0.4875,99.7816" /><path
   inkscape:connector-curvature="0"
   id="path86"
   style="fill:none;stroke:#231f20;stroke-width:0.80000001;stroke-linecap:round;stroke-linejoin:round;stroke-miterlimit:3.86369991;stroke-opacity:1;stroke-dasharray:none"
   d="M 0.716797,31.098 C 0.689453,28.7602 2.51953,26.8422 4.83594,26.8141 L 4.73633,22.9648" /><path
   inkscape:connector-curvature="0"
   id="path88"
   style="fill:none;stroke:#231f20;stroke-width:0.80000001;stroke-linecap:round;stroke-linejoin:round;stroke-miterlimit:3.86369991;stroke-opacity:1;stroke-dasharray:none"
   d="M 0.447266,83.8012 C 0.474609,86.1391 2.37617,88.0133 4.69219,87.9859 6.10156,87.9691 7.34961,87.2516 8.09688,86.1645 7.33906,84.9977 6.14063,84.7934 4.6543,84.8102 2.33789,84.8375 0.482422,86.7555 0.509766,89.0934 0.537109,91.4313 2.43867,93.3043 4.75391,93.277 6.09766,93.2613 7.30273,92.6078 8.05859,91.6051 7.28008,90.6215 6.06367,90.2984 4.71992,90.3141 2.40313,90.3414 0.546875,92.2582 0.574219,94.5953" /><path
   inkscape:connector-curvature="0"
   id="path90"
   style="fill:none;stroke:#231f20;stroke-width:0.80000001;stroke-linecap:round;stroke-linejoin:round;stroke-miterlimit:3.86369991;stroke-opacity:1;stroke-dasharray:none"
   d="M 0.535156,78.6156 C 0.5625,80.9527 2.46289,82.825 4.7793,82.7973 6.12891,82.7816 7.35547,82.3813 8.11016,81.3734 7.34766,80.2398 6.05078,79.5023 4.5918,79.5199 2.27539,79.5473 0.419922,81.4633 0.447266,83.8012" /><path
   inkscape:connector-curvature="0"
   id="path92"
   style="fill:none;stroke:#231f20;stroke-width:0.80000001;stroke-linecap:round;stroke-linejoin:round;stroke-miterlimit:3.86369991;stroke-opacity:1;stroke-dasharray:none"
   d="m 0.621875,73.4293 c 0.027344,2.3367 1.928905,4.209 4.245315,4.1816 1.34961,-0.0156 2.57422,-0.416 3.33008,-1.4238 -0.76289,-1.134 -2.0586,-1.8703 -3.51758,-1.8535 -2.31641,0.0273 -4.172659,1.9441 -4.144534,4.282" /><path
   inkscape:connector-curvature="0"
   id="path94"
   style="fill:none;stroke:#231f20;stroke-width:0.80000001;stroke-linecap:round;stroke-linejoin:round;stroke-miterlimit:3.86369991;stroke-opacity:1;stroke-dasharray:none"
   d="M 0.494141,62.6352 C 0.521484,64.973 2.42383,66.8473 4.74023,66.8199 6.14922,66.8031 7.39648,66.0855 8.14453,64.9984 7.38672,63.8316 6.18867,63.6266 4.70234,63.6441 2.38555,63.6715 0.529297,65.5895 0.556641,67.9273 0.583984,70.2652 2.48633,72.1383 4.80195,72.1109 6.1457,72.0953 7.35156,71.4418 8.10664,70.4391 7.32813,69.4555 6.11133,69.1324 4.76758,69.148 2.45117,69.1754 0.59375,71.0922 0.621875,73.4293" /><path
   inkscape:connector-curvature="0"
   id="path96"
   style="fill:none;stroke:#231f20;stroke-width:0.80000001;stroke-linecap:round;stroke-linejoin:round;stroke-miterlimit:3.86369991;stroke-opacity:1;stroke-dasharray:none"
   d="M 0.582031,57.4488 C 0.609375,59.7855 2.51055,61.6578 4.82617,61.6305 6.17578,61.6148 7.40234,61.2145 8.1582,60.2066 7.39453,59.0727 6.09844,58.3363 4.63984,58.3543 2.32422,58.3805 0.466797,60.2973 0.494141,62.6352" /><path
   inkscape:connector-curvature="0"
   id="path98"
   style="fill:none;stroke:#231f20;stroke-width:0.80000001;stroke-linecap:round;stroke-linejoin:round;stroke-miterlimit:3.86369991;stroke-opacity:1;stroke-dasharray:none"
   d="M 0.669922,52.2633 C 0.697266,54.6 2.59766,56.4723 4.91406,56.4449 6.26367,56.4293 7.49023,56.0289 8.24531,55.0211 7.48242,53.8875 6.18555,53.15 4.72656,53.1676 2.41016,53.1949 0.554688,55.1117 0.582031,57.4488" /><path
   inkscape:connector-curvature="0"
   id="path100"
   style="fill:none;stroke:#231f20;stroke-width:0.80000001;stroke-linecap:round;stroke-linejoin:round;stroke-miterlimit:3.86369991;stroke-opacity:1;stroke-dasharray:none"
   d="M 0.541797,41.4691 C 0.570313,43.8066 2.4707,45.6816 4.78711,45.6543 6.19727,45.6367 7.44453,44.9199 8.19141,43.832 7.43359,42.666 6.23633,42.4609 4.75,42.4789 2.43359,42.5059 0.576172,44.4238 0.604297,46.7598 0.632031,49.0977 2.5332,50.9707 4.84961,50.9434 6.19336,50.9277 7.39844,50.2754 8.1543,49.2715 7.375,48.2891 6.1582,47.9648 4.81445,47.9824 2.49805,48.0098 0.641797,49.9258 0.669922,52.2633" /><path
   inkscape:connector-curvature="0"
   id="path102"
   style="fill:none;stroke:#231f20;stroke-width:0.80000001;stroke-linecap:round;stroke-linejoin:round;stroke-miterlimit:3.86369991;stroke-opacity:1;stroke-dasharray:none"
   d="M 0.628906,36.2828 C 0.65625,38.6191 2.55859,40.4922 4.87383,40.4648 6.22344,40.4488 7.44922,40.0488 8.20508,39.041 7.44141,37.9059 6.14648,37.1699 4.6875,37.1879 2.37109,37.2148 0.514453,39.1309 0.541797,41.4691" /><path
   inkscape:connector-curvature="0"
   id="path104"
   style="fill:none;stroke:#231f20;stroke-width:0.80000001;stroke-linecap:round;stroke-linejoin:round;stroke-miterlimit:3.86369991;stroke-opacity:1;stroke-dasharray:none"
   d="M 0.716797,31.098 C 0.744141,33.434 2.6457,35.307 4.96094,35.2789 6.31055,35.2641 7.53711,34.8629 8.29297,33.8559 7.5293,32.7211 6.23359,31.984 4.77422,32.002 2.4582,32.0289 0.601563,33.9449 0.628906,36.2828" /><path
   d="m 11.457991,76.150895 c 0,-0.92 -0.746,-1.6661 -1.6659988,-1.6661 -0.9219955,0 -1.6679916,0.7461 -1.6679916,1.6661 0,0.921 0.7459961,1.6679 1.6679916,1.6679 0.9199988,0 1.6659988,-0.7469 1.6659988,-1.6679 z"
   style="fill:#000000;stroke:#231f20;stroke-width:0.50000000000000000;stroke-linecap:butt;stroke-linejoin:miter;stroke-miterlimit:4;stroke-opacity:1;stroke-dasharray:none"
   id="path4114"
   inkscape:connector-curvature="0" /><text
   xml:space="preserve"
   style="font-size:9.60000038px;font-style:normal;font-variant:normal;font-weight:normal;font-stretch:normal;text-align:start;line-height:100%;letter-spacing:0px;word-spacing:0px;text-anchor:start;fill:#000000;fill-opacity:1;stroke:none;font-family:LMRoman12;-inkscape-font-specification:LMRoman12"
   x="122.79349"
   y="-73.236313"
   id="text4154"
   sodipodi:linespacing="100%"
   transform="scale(1,-1)"><tspan
     sodipodi:role="line"
     id="tspan4156"
     x="122.79349"
     y="-73.236313">Centre tap</tspan></text>

<text
   xml:space="preserve"
   style="font-size:9.60000038px;font-style:normal;font-variant:normal;font-weight:normal;font-stretch:normal;text-align:start;line-height:100%;letter-spacing:0px;word-spacing:0px;text-anchor:start;fill:#000000;fill-opacity:1;stroke:none;font-family:LMRoman12;-inkscape-font-specification:LMRoman12"
   x="18.411644"
   y="-2.6302285"
   id="text4158"
   sodipodi:linespacing="100%"
   transform="scale(1,-1)"><tspan
     sodipodi:role="line"
     id="tspan4160"
     x="18.411644"
     y="-2.6302285">Transformer secondary</tspan></text>

</g></svg>