<?xml version="1.0" encoding="UTF-8" standalone="no"?>
<!-- Created with Inkscape (http://www.inkscape.org/) -->

<svg
   xmlns:dc="http://purl.org/dc/elements/1.1/"
   xmlns:cc="http://creativecommons.org/ns#"
   xmlns:rdf="http://www.w3.org/1999/02/22-rdf-syntax-ns#"
   xmlns:svg="http://www.w3.org/2000/svg"
   xmlns="http://www.w3.org/2000/svg"
   xmlns:sodipodi="http://sodipodi.sourceforge.net/DTD/sodipodi-0.dtd"
   xmlns:inkscape="http://www.inkscape.org/namespaces/inkscape"
   id="svg2"
   version="1.1"
   inkscape:version="0.48.4 r9939"
   width="282.5125"
   height="147.0375"
   xml:space="preserve"
   sodipodi:docname="S3-EE-02-010.eps"><metadata
     id="metadata8"><rdf:RDF><cc:Work
         rdf:about=""><dc:format>image/svg+xml</dc:format><dc:type
           rdf:resource="http://purl.org/dc/dcmitype/StillImage" /><dc:title></dc:title></cc:Work></rdf:RDF></metadata><defs
     id="defs6" /><sodipodi:namedview
     pagecolor="#ffffff"
     bordercolor="#666666"
     borderopacity="1"
     objecttolerance="10"
     gridtolerance="10"
     guidetolerance="10"
     inkscape:pageopacity="0"
     inkscape:pageshadow="2"
     inkscape:window-width="1366"
     inkscape:window-height="744"
     id="namedview4"
     showgrid="false"
     inkscape:zoom="3.0240515"
     inkscape:cx="140.37459"
     inkscape:cy="74.325687"
     inkscape:window-x="0"
     inkscape:window-y="24"
     inkscape:window-maximized="1"
     inkscape:current-layer="g10" /><g
     id="g10"
     inkscape:groupmode="layer"
     inkscape:label="ink_ext_XXXXXX"
     transform="matrix(1.25,0,0,-1.25,0,147.0375)"><path
       inkscape:connector-curvature="0"
       id="path14"
       style="fill:none;stroke:#231f20;stroke-width:0.8;stroke-linecap:round;stroke-linejoin:round;stroke-miterlimit:3.86369991;stroke-opacity:1;stroke-dasharray:none"
       d="M 179.592,64.4051 179.619,4.52188" /><path
       inkscape:connector-curvature="0"
       id="path16"
       style="fill:none;stroke:#231f20;stroke-width:0.5;stroke-linecap:round;stroke-linejoin:round;stroke-miterlimit:3.86369991;stroke-opacity:1;stroke-dasharray:none"
       d="M 77.673,30.2887 60.6238,44.0836" /><path
       inkscape:connector-curvature="0"
       id="path18"
       style="fill:#231f20;fill-opacity:1;fill-rule:nonzero;stroke:none"
       d="m 77.375,30.5301 0.2117,1.5664 0.0551,-0.0051 1.1617,-2.0664 c 0.4914,-0.6141 0.9817,-1.2273 1.4719,-1.8418 -0.7031,0.3516 -1.4055,0.7031 -2.1082,1.0539 l -2.2641,0.7059 -0.0215,0.0468 1.4934,0.5403" /><path
       inkscape:connector-curvature="0"
       id="path20"
       style="fill:none;stroke:#231f20;stroke-width:0.5;stroke-linecap:round;stroke-linejoin:round;stroke-miterlimit:3.86369991;stroke-opacity:1;stroke-dasharray:none"
       d="m 66.7188,12.134 21.9296,0" /><path
       inkscape:connector-curvature="0"
       id="path22"
       style="fill:#231f20;fill-opacity:1;fill-rule:nonzero;stroke:none"
       d="m 67.1016,12.134 0.8214,-1.352 -0.046,-0.03 -2.2032,0.875 c -0.7675,0.1691 -1.5351,0.3378 -2.3027,0.507 0.7676,0.168 1.5352,0.3371 2.3027,0.5058 l 2.2032,0.875 0.046,-0.0226 -0.8214,-1.3582" /><path
       inkscape:connector-curvature="0"
       id="path24"
       style="fill:none;stroke:#231f20;stroke-width:0.5;stroke-linecap:round;stroke-linejoin:round;stroke-miterlimit:3.86369991;stroke-opacity:1;stroke-dasharray:none"
       d="m 165.089,28.8816 0,21.9297" /><path
       inkscape:connector-curvature="0"
       id="path26"
       style="fill:#231f20;fill-opacity:1;fill-rule:nonzero;stroke:none"
       d="m 165.089,29.2645 1.351,0.821 0.031,-0.0457 -0.875,-2.2031 c -0.169,-0.7676 -0.338,-1.5351 -0.507,-2.3027 -0.169,0.7676 -0.338,1.5351 -0.507,2.3027 l -0.875,2.2031 0.023,0.0457 1.359,-0.821" /><path
       inkscape:connector-curvature="0"
       id="path28"
       style="fill:none;stroke:#231f20;stroke-width:0.5;stroke-linecap:round;stroke-linejoin:round;stroke-miterlimit:3.86369991;stroke-opacity:1;stroke-dasharray:none"
       d="m 215.774,7.93086 0,21.93004" /><path
       inkscape:connector-curvature="0"
       id="path30"
       style="fill:#231f20;fill-opacity:1;fill-rule:nonzero;stroke:none"
       d="m 215.774,10.4441 1.352,0.8207 0.03,-0.0457 -0.875,-2.20308 c -0.169,-0.76719 -0.338,-1.53516 -0.507,-2.30196 -0.169,0.7668 -0.337,1.53477 -0.506,2.30196 l -0.875,2.20308 0.023,0.0457 1.358,-0.8207" /><path
       inkscape:connector-curvature="0"
       id="path32"
       style="fill:none;stroke:#231f20;stroke-width:0.5;stroke-linecap:round;stroke-linejoin:round;stroke-miterlimit:3.86369991;stroke-opacity:1;stroke-dasharray:none"
       d="m 215.774,60.1988 0,-19.0906" /><path
       inkscape:connector-curvature="0"
       id="path34"
       style="fill:#231f20;fill-opacity:1;fill-rule:nonzero;stroke:none"
       d="m 215.774,59.816 -1.351,-0.8211 -0.03,0.0457 0.875,2.2032 c 0.169,0.7675 0.337,1.5351 0.506,2.3027 0.169,-0.7676 0.338,-1.5352 0.507,-2.3027 l 0.875,-2.2032 -0.023,-0.0457 -1.359,0.8211" /><path
       inkscape:connector-curvature="0"
       id="path36"
       style="fill:none;stroke:#231f20;stroke-width:0.80000001;stroke-linecap:round;stroke-linejoin:round;stroke-miterlimit:3.86369991;stroke-opacity:1;stroke-dasharray:none"
       d="m 4.5360952,22.4246 0,12.7793 3.9e-4,0.3211 0,71.059" /><path
       inkscape:connector-curvature="0"
       id="path38"
       style="fill:none;stroke:#231f20;stroke-width:0.8;stroke-linecap:round;stroke-linejoin:round;stroke-miterlimit:3.86369991;stroke-opacity:1;stroke-dasharray:none"
       d="m 4.46641,22.4559 93.86169,0" /><path
       inkscape:connector-curvature="0"
       id="path40"
       style="fill:none;stroke:#231f20;stroke-width:0.8;stroke-linecap:round;stroke-linejoin:round;stroke-miterlimit:3.86369991;stroke-opacity:1;stroke-dasharray:none"
       d="m 4.46641,106.619 94.12809,0" /><path
       inkscape:connector-curvature="0"
       id="path42"
       style="fill:none;stroke:#231f20;stroke-width:0.8;stroke-linecap:round;stroke-linejoin:round;stroke-miterlimit:3.86369991;stroke-opacity:1;stroke-dasharray:none"
       d="M 88.9211,31.8648 56.3813,64.4051" /><path
       inkscape:connector-curvature="0"
       id="path44"
       style="fill:none;stroke:#231f20;stroke-width:0.8;stroke-linecap:round;stroke-linejoin:round;stroke-miterlimit:3.86369991;stroke-opacity:1;stroke-dasharray:none"
       d="M 98.3293,22.4578 88.6785,32.107" /><path
       inkscape:connector-curvature="0"
       id="path46"
       style="fill:none;stroke:#231f20;stroke-width:0.80000001;stroke-linecap:round;stroke-linejoin:round;stroke-miterlimit:3.86369991;stroke-opacity:1;stroke-dasharray:none"
       d="M 130.0054,75.388828 140.4496,64.578671" /><path
       inkscape:connector-curvature="0"
       id="path48"
       style="fill:none;stroke:#231f20;stroke-width:0.8;stroke-linecap:round;stroke-linejoin:round;stroke-miterlimit:3.86369991;stroke-opacity:1;stroke-dasharray:none"
       d="m 98.5938,106.617 8.4712,-8.4713" /><path
       inkscape:connector-curvature="0"
       id="path50"
       style="fill:none;stroke:#231f20;stroke-width:0.8;stroke-linecap:round;stroke-linejoin:round;stroke-miterlimit:3.86369991;stroke-opacity:1;stroke-dasharray:none"
       d="m 214.328,4.52188 -157.9471,0 0,59.88322" /><path
       inkscape:connector-curvature="0"
       id="path52"
       style="fill:none;stroke:#231f20;stroke-width:0.80000001;stroke-linecap:round;stroke-linejoin:round;stroke-miterlimit:3.86369991;stroke-opacity:1;stroke-dasharray:none"
       d="m 140.59048,64.4051 73.73752,0"
       sodipodi:nodetypes="cc" /><path
       inkscape:connector-curvature="0"
       id="path54"
       style="fill:none;stroke:#231f20;stroke-width:0.5;stroke-linecap:round;stroke-linejoin:round;stroke-miterlimit:3.86369991;stroke-opacity:1;stroke-dasharray:none"
       d="m 116.833,74.1195 -13.401,13.241" /><path
       inkscape:connector-curvature="0"
       id="path56"
       style="fill:#231f20;fill-opacity:1;fill-rule:nonzero;stroke:none"
       d="m 116.561,74.3883 0.365,1.5387 0.054,-0.0106 0.953,-2.1711 c 0.427,-0.6598 0.854,-1.3191 1.282,-1.9789 -0.665,0.4195 -1.33,0.8387 -1.994,1.2578 l -2.183,0.9262 -0.017,0.0488 1.54,0.3891" /><path
       inkscape:connector-curvature="0"
       id="path3176"
       style="font-size:8px;font-style:italic;font-variant:normal;writing-mode:lr-tb;fill:#231f20;fill-opacity:1;fill-rule:nonzero;stroke:none;font-family:Times;-inkscape-font-specification:Times-Italic"
       d="m 10.04413,114.742 0.296,1.592 -0.168,0 c -0.064,-0.128 -0.144,-0.176 -0.304,-0.176 -0.064,0 -0.1600002,0.016 -0.328,0.056 -0.3599996,0.088 -0.6800003,0.136 -0.936,0.136 -1.7039983,0 -3.248,-1.608 -3.248,-3.384 0,-1.224 0.8640012,-2.088 2.088,-2.088 0.8239992,0 1.4640007,0.352 2.184,1.192 l -0.136,0.112 c -0.7199993,-0.704 -1.1840007,-0.944 -1.84,-0.944 -0.8879991,0 -1.4,0.608 -1.4,1.64 0,0.952 0.3840006,1.92 1.008,2.568 0.3839996,0.392 0.8880005,0.616 1.416,0.616 0.7359993,0 1.1440001,-0.432 1.224,-1.296 l 0.144,-0.024" /><path
       inkscape:connector-curvature="0"
       id="path3178"
       style="font-size:8px;font-style:italic;font-variant:normal;writing-mode:lr-tb;fill:#231f20;fill-opacity:1;fill-rule:nonzero;stroke:none;font-family:Times;-inkscape-font-specification:Times-Italic"
       d="m 5.86813,19.118 c 0.4959995,-0.048 0.616,-0.112 0.616,-0.328 0,-0.12 -0.032,-0.312 -0.088,-0.512 l -0.984,-3.536 C 5.2681301,14.278 5.2121295,14.23 4.76413,14.15 l 0,-0.128 2.024,0 c 0.9359991,0 1.7920006,0.248 2.408,0.696 0.7759992,0.567999 1.232,1.448001 1.232,2.376 0,1.311999 -0.9120014,2.152 -2.336,2.152 l -2.224,0 0,-0.128 m 1.464,-0.344 c 0.048,0.176 0.1680003,0.232 0.488,0.232 0.4559995,0 0.8560003,-0.104 1.112,-0.296 0.3919996,-0.288 0.608,-0.792001 0.608,-1.424 0,-0.863999 -0.3360005,-1.760001 -0.88,-2.304 -0.4719995,-0.48 -1.1200008,-0.72 -1.952,-0.72 -0.3679996,0 -0.52,0.088 -0.52,0.296 0,0.104 0.04,0.28 0.176,0.76 l 0.968,3.456" /><path
       inkscape:connector-curvature="0"
       id="path3180"
       style="font-size:8px;font-style:italic;font-variant:normal;writing-mode:lr-tb;fill:#231f20;fill-opacity:1;fill-rule:nonzero;stroke:none;font-family:Times;-inkscape-font-specification:Times-Italic"
       d="m 95.44933,34.911701 c 0.495999,-0.048 0.616,-0.112 0.616,-0.328 0,-0.12 -0.032,-0.312 -0.088,-0.512 l -0.984,-3.536 c -0.144,-0.463999 -0.200001,-0.512 -0.648,-0.592 l 0,-0.128 2.024,0 c 0.935999,0 1.792,0.248001 2.408,0.696 0.775999,0.568 1.232,1.448001 1.232,2.376 0,1.311999 -0.912002,2.152 -2.336,2.152 l -2.224,0 0,-0.128 m 1.464,-0.344 c 0.048,0.176 0.168,0.232 0.488,0.232 0.455999,0 0.856,-0.104 1.112,-0.296 0.391999,-0.288 0.608,-0.792 0.608,-1.424 0,-0.863999 -0.336001,-1.76 -0.88,-2.304 -0.472,-0.479999 -1.120001,-0.72 -1.952,-0.72 -0.368,0 -0.52,0.088 -0.52,0.296 0,0.104 0.04,0.280001 0.176,0.76 l 0.968,3.456" /><path
       inkscape:connector-curvature="0"
       id="path3183"
       style="font-size:6px;font-variant:normal;font-weight:normal;writing-mode:lr-tb;fill:#231f20;fill-opacity:1;fill-rule:nonzero;stroke:none;font-family:Times;-inkscape-font-specification:Times-Roman"
       d="m 103.03511,28.6377 -0.078,0.03 c -0.222,-0.342 -0.3,-0.396 -0.57,-0.396 l -1.434,0 1.008,1.056 c 0.534,0.557999 0.768,1.014001 0.768,1.482 0,0.599999 -0.486,1.062 -1.11,1.062 -0.33,0 -0.642,-0.132 -0.864,-0.372 -0.192,-0.204 -0.282,-0.396 -0.384,-0.822 l 0.126,-0.03 c 0.24,0.587999 0.456,0.78 0.87,0.78 0.504,0 0.846,-0.342001 0.846,-0.846 0,-0.468 -0.276,-1.026001 -0.78,-1.56 l -1.068,-1.134 0,-0.072 2.34,0 0.33,0.822" /><path
       inkscape:connector-curvature="0"
       id="path3186"
       style="font-size:8px;font-style:italic;font-variant:normal;writing-mode:lr-tb;fill:#231f20;fill-opacity:1;fill-rule:nonzero;stroke:none;font-family:Times;-inkscape-font-specification:Times-Italic"
       d="m 12.75971,67.4889 c 0.088,0.008 0.152,0.008 0.24,0.008 0.312,0 0.392,-0.136001 0.504,-0.872 0.08,-0.551999 0.176,-1.76 0.176,-2.224 0,-0.224 0.016,-0.28 0.072,-0.28 0.2,0 0.944001,0.848001 1.76,1.984 0.28,0.4 0.488,0.92 0.488,1.216 0,0.256 -0.208,0.472 -0.448,0.472 -0.176,0 -0.296,-0.104 -0.296,-0.272 0,-0.128 0.048,-0.224 0.192,-0.352 0.104,-0.096 0.144,-0.16 0.144,-0.24 0,-0.368 -0.528001,-1.256001 -1.096,-1.848 l -0.248,-0.256 c -0.056,1.127999 -0.104,1.544001 -0.208,2.136 -0.16,0.815999 -0.16,0.832 -0.232,0.832 -0.04,0 -0.096,-0.008 -0.16,-0.032 -0.144,-0.04 -0.584,-0.12 -0.888,-0.168 l 0,-0.104" /><path
       inkscape:connector-curvature="0"
       id="path3189"
       style="font-size:6px;font-variant:normal;font-weight:normal;writing-mode:lr-tb;fill:#231f20;fill-opacity:1;fill-rule:nonzero;stroke:none;font-family:Times;-inkscape-font-specification:Times-Roman"
       d="m 18.99366,63.0869 -0.078,0.03 c -0.222,-0.342 -0.3,-0.396 -0.57,-0.396 l -1.434,0 1.008,1.056 c 0.533999,0.557999 0.768,1.014 0.768,1.482 0,0.599999 -0.486001,1.062 -1.11,1.062 -0.33,0 -0.642,-0.132 -0.864,-0.372 -0.192,-0.204 -0.282,-0.396 -0.384,-0.822 l 0.126,-0.03 c 0.24,0.587999 0.456,0.78 0.87,0.78 0.504,0 0.846,-0.342001 0.846,-0.846 0,-0.468 -0.276001,-1.026001 -0.78,-1.56 l -1.068,-1.134 0,-0.072 2.34,0 0.33,0.822" /><path
       inkscape:connector-curvature="0"
       id="path3192"
       style="font-size:8px;font-style:italic;font-variant:normal;writing-mode:lr-tb;fill:#231f20;fill-opacity:1;fill-rule:nonzero;stroke:none;font-family:Times;-inkscape-font-specification:Times-Italic"
       d="m 214.00366,36.8659 c 0.088,0.008 0.152,0.008 0.24,0.008 0.312,0 0.392,-0.136001 0.504,-0.872 0.08,-0.551999 0.176,-1.76 0.176,-2.224 0,-0.224 0.016,-0.28 0.072,-0.28 0.2,0 0.944,0.848001 1.76,1.984 0.28,0.4 0.488,0.92 0.488,1.216 0,0.256 -0.208,0.472 -0.448,0.472 -0.176,0 -0.296,-0.104 -0.296,-0.272 0,-0.128 0.048,-0.224 0.192,-0.352 0.104,-0.096 0.144,-0.16 0.144,-0.24 0,-0.368 -0.528,-1.256001 -1.096,-1.848 l -0.248,-0.256 c -0.056,1.127999 -0.104,1.544001 -0.208,2.136 -0.16,0.815999 -0.16,0.832 -0.232,0.832 -0.04,0 -0.096,-0.008 -0.16,-0.032 -0.144,-0.04 -0.584,-0.12 -0.888,-0.168 l 0,-0.104" /><path
       inkscape:connector-curvature="0"
       id="path3195"
       style="font-size:6px;font-variant:normal;font-weight:normal;writing-mode:lr-tb;fill:#231f20;fill-opacity:1;fill-rule:nonzero;stroke:none;font-family:Times;-inkscape-font-specification:Times-Roman"
       d="m 218.91161,35.6979 c -0.33,0 -0.582,-0.102 -0.804,-0.312 -0.348,-0.336 -0.576,-1.026001 -0.576,-1.728 0,-0.653999 0.198,-1.356 0.48,-1.692 0.222,-0.264 0.528,-0.408 0.876,-0.408 0.306,0 0.564,0.102 0.78,0.312 0.348,0.33 0.576,1.026001 0.576,1.752 0,1.229999 -0.546,2.076 -1.332,2.076 m -0.018,-0.156 c 0.504,0 0.774,-0.678001 0.774,-1.932 0,-1.253999 -0.264,-1.896 -0.78,-1.896 -0.516,0 -0.78,0.642001 -0.78,1.89 0,1.271999 0.27,1.938 0.786,1.938" /><path
       inkscape:connector-curvature="0"
       id="path3198"
       style="font-size:8px;font-style:italic;font-variant:normal;writing-mode:lr-tb;fill:#231f20;fill-opacity:1;fill-rule:nonzero;stroke:none;font-family:Times;-inkscape-font-specification:Times-Italic"
       d="m 137.94871,77.4117 c 0.496,-0.048 0.616,-0.112 0.616,-0.328 0,-0.12 -0.032,-0.312 -0.088,-0.512 l -0.984,-3.536 c -0.144,-0.464 -0.2,-0.512 -0.648,-0.592 l 0,-0.128 2.024,0 c 0.936,0 1.792,0.248 2.408,0.696 0.776,0.567999 1.232,1.448001 1.232,2.376 0,1.311999 -0.912,2.152 -2.336,2.152 l -2.224,0 0,-0.128 m 1.464,-0.344 c 0.048,0.176 0.168,0.232 0.488,0.232 0.456,0 0.856,-0.104 1.112,-0.296 0.392,-0.288 0.608,-0.792001 0.608,-1.424 0,-0.863999 -0.336,-1.76 -0.88,-2.304 -0.472,-0.48 -1.12,-0.72 -1.952,-0.72 -0.368,0 -0.52,0.088 -0.52,0.296 0,0.104 0.04,0.28 0.176,0.76 l 0.968,3.456" /><path
       inkscape:connector-curvature="0"
       id="path3201"
       style="font-size:6px;font-variant:normal;font-weight:normal;writing-mode:lr-tb;fill:#231f20;fill-opacity:1;fill-rule:nonzero;stroke:none;font-family:Times;-inkscape-font-specification:Times-Roman"
       d="m 144.43088,74.3717 -1.08,-0.546 0,-0.084 c 0.072,0.03 0.138,0.054 0.162,0.066 0.108,0.042 0.21,0.066 0.27,0.066 0.126,0 0.18,-0.09 0.18,-0.282 l 0,-2.718 c 0,-0.198 -0.048,-0.336 -0.144,-0.39 -0.09,-0.054 -0.174,-0.072 -0.426,-0.078 l 0,-0.09 1.656,0 0,0.09 c -0.474,0.006 -0.57,0.066 -0.57,0.354 l 0,3.6 -0.048,0.012" /><path
       inkscape:connector-curvature="0"
       id="path3204"
       style="font-size:8px;font-style:italic;font-variant:normal;writing-mode:lr-tb;fill:#231f20;fill-opacity:1;fill-rule:nonzero;stroke:none;font-family:Times;-inkscape-font-specification:Times-Italic"
       d="m 192.53068,32.139 c -0.352,0.024 -0.512,0.16 -0.664,0.576 l -0.744,1.96 c 0.616,0.136 0.88,0.248 1.168,0.504 0.264,0.232 0.408,0.544 0.408,0.904 0,0.743999 -0.592,1.152 -1.664,1.152 l -1.984,0 0,-0.128 c 0.336,-0.048 0.376,-0.056 0.456,-0.112 0.064,-0.04 0.112,-0.136 0.112,-0.224 0,-0.096 -0.04,-0.288 -0.096,-0.504 l -0.984,-3.536 c -0.144,-0.472 -0.2,-0.52 -0.648,-0.592 l 0,-0.128 1.952,0 0,0.128 c -0.488,0.064 -0.544,0.104 -0.544,0.368 0,0.08 0.024,0.184 0.096,0.464 l 0.448,1.672 0.52,-0.04 0.984,-2.592 1.184,0 0,0.128 m -2.072,4.632 c 0.048,0.168 0.152,0.224 0.408,0.224 0.664,0 0.992,-0.304001 0.992,-0.896 0,-0.791999 -0.512,-1.2 -1.512,-1.2 -0.128,0 -0.216,0.008 -0.408,0.04 l 0.52,1.832" /><path
       inkscape:connector-curvature="0"
       id="path3207"
       style="font-size:6px;font-style:italic;font-variant:normal;writing-mode:lr-tb;fill:#231f20;fill-opacity:1;fill-rule:nonzero;stroke:none;font-family:Times;-inkscape-font-specification:Times-Italic"
       d="m 195.30057,33.929 -1.638,0 0,-0.096 c 0.372,-0.036 0.462,-0.084 0.462,-0.258 0,-0.084 -0.024,-0.222 -0.066,-0.372 l -0.738,-2.652 c -0.108,-0.348 -0.15,-0.384 -0.486,-0.444 l 0,-0.096 3.054,0 0.348,1.074 -0.12,0.036 c -0.21,-0.432 -0.372,-0.624 -0.636,-0.756 -0.21,-0.102 -0.456,-0.138 -0.978,-0.138 -0.456,0 -0.606,0.048 -0.606,0.204 0,0.042 0.03,0.186 0.06,0.3 l 0.738,2.658 c 0.09,0.306 0.246,0.42 0.606,0.444 l 0,0.096" /><path
       inkscape:connector-curvature="0"
       id="path3210"
       style="font-size:8px;font-style:italic;font-variant:normal;writing-mode:lr-tb;fill:#231f20;fill-opacity:1;fill-rule:nonzero;stroke:none;font-family:Times;-inkscape-font-specification:Times-Italic"
       d="m 85.40057,50.2347 c -0.352,0.024 -0.512,0.16 -0.664,0.576 l -0.744,1.96 c 0.615999,0.136 0.88,0.248 1.168,0.504 0.264,0.232 0.408,0.544 0.408,0.904 0,0.743999 -0.592001,1.152 -1.664,1.152 l -1.984,0 0,-0.128 c 0.336,-0.048 0.376,-0.056 0.456,-0.112 0.064,-0.04 0.112,-0.136 0.112,-0.224 0,-0.096 -0.04,-0.288 -0.096,-0.504 l -0.984,-3.536 c -0.144,-0.472 -0.2,-0.52 -0.648,-0.592 l 0,-0.128 1.952,0 0,0.128 c -0.488,0.064 -0.544,0.104 -0.544,0.368 0,0.08 0.024,0.184 0.096,0.464 l 0.448,1.672 0.52,-0.04 0.984,-2.592 1.184,0 0,0.128 m -2.072,4.632 c 0.048,0.168 0.152,0.224 0.408,0.224 0.663999,0 0.992,-0.304001 0.992,-0.896 0,-0.791999 -0.512001,-1.2 -1.512,-1.2 -0.128,0 -0.216,0.008 -0.408,0.04 l 0.52,1.832" /><path
       inkscape:connector-curvature="0"
       id="path3213"
       style="font-size:6px;font-style:italic;font-variant:normal;writing-mode:lr-tb;fill:#231f20;fill-opacity:1;fill-rule:nonzero;stroke:none;font-family:Times;-inkscape-font-specification:Times-Italic"
       d="m 85.96207,50.4827 0.54,0 -0.528,-2.52 c -0.132,-0.641999 -0.33,-0.972 -0.582,-0.972 -0.072,0 -0.12,0.042 -0.12,0.096 0,0.018 0.006,0.036 0.024,0.066 0.024,0.036 0.03,0.06 0.03,0.096 0,0.126 -0.108,0.228 -0.234,0.228 -0.126,0 -0.222,-0.108 -0.222,-0.246 0,-0.204 0.21,-0.366 0.474,-0.366 0.533999,0 0.954,0.594001 1.2,1.698 l 0.432,1.92 0.654,0 0.036,0.192 -0.648,0 c 0.174,0.941999 0.396,1.368 0.732,1.368 0.078,0 0.132,-0.03 0.132,-0.072 0,-0.018 -0.006,-0.03 -0.024,-0.06 -0.024,-0.054 -0.036,-0.084 -0.036,-0.126 0,-0.144 0.09,-0.24 0.222,-0.24 0.138,0 0.252,0.108 0.252,0.24 0,0.222 -0.222,0.39 -0.516,0.39 -0.294,0 -0.528,-0.132 -0.744,-0.414 -0.18,-0.234 -0.3,-0.510001 -0.48,-1.086 l -0.552,0 -0.042,-0.192" /><path
       inkscape:connector-curvature="0"
       id="path3216"
       style="font-size:8px;font-style:italic;font-variant:normal;writing-mode:lr-tb;fill:#231f20;fill-opacity:1;fill-rule:nonzero;stroke:none;font-family:Times;-inkscape-font-specification:Times-Italic"
       d="m 127.06617,91.9007 c -0.352,0.024 -0.512,0.16 -0.664,0.576 l -0.744,1.96 c 0.616,0.136 0.88,0.248 1.168,0.504 0.264,0.232 0.408,0.544 0.408,0.904 0,0.743999 -0.592,1.152 -1.664,1.152 l -1.984,0 0,-0.128 c 0.336,-0.048 0.376,-0.056 0.456,-0.112 0.064,-0.04 0.112,-0.136 0.112,-0.224 0,-0.096 -0.04,-0.288 -0.096,-0.504 l -0.984,-3.536 c -0.144,-0.472 -0.2,-0.52 -0.648,-0.592 l 0,-0.128 1.952,0 0,0.128 c -0.488,0.064 -0.544,0.104 -0.544,0.368 0,0.08 0.024,0.184 0.096,0.464 l 0.448,1.672 0.52,-0.04 0.984,-2.592 1.184,0 0,0.128 m -2.072,4.632 c 0.048,0.168 0.152,0.224 0.408,0.224 0.664,0 0.992,-0.304001 0.992,-0.896 0,-0.791999 -0.512,-1.2 -1.512,-1.2 -0.128,0 -0.216,0.008 -0.408,0.04 l 0.52,1.832" /><path
       inkscape:connector-curvature="0"
       id="path3219"
       style="font-size:6px;font-style:italic;font-variant:normal;writing-mode:lr-tb;fill:#231f20;fill-opacity:1;fill-rule:nonzero;stroke:none;font-family:Times;-inkscape-font-specification:Times-Italic"
       d="m 127.62845,92.1487 0.54,0 -0.528,-2.52 c -0.132,-0.641999 -0.33,-0.972 -0.582,-0.972 -0.072,0 -0.12,0.042 -0.12,0.096 0,0.018 0.006,0.036 0.024,0.066 0.024,0.036 0.03,0.06 0.03,0.096 0,0.126 -0.108,0.228 -0.234,0.228 -0.126,0 -0.222,-0.108 -0.222,-0.246 0,-0.204 0.21,-0.366 0.474,-0.366 0.534,0 0.954,0.594001 1.2,1.698 l 0.432,1.92 0.654,0 0.036,0.192 -0.648,0 c 0.174,0.941999 0.396,1.368 0.732,1.368 0.078,0 0.132,-0.03 0.132,-0.072 0,-0.018 -0.006,-0.03 -0.024,-0.06 -0.024,-0.054 -0.036,-0.084 -0.036,-0.126 0,-0.144 0.09,-0.24 0.222,-0.24 0.138,0 0.252,0.108 0.252,0.24 0,0.222 -0.222,0.39 -0.516,0.39 -0.294,0 -0.528,-0.132 -0.744,-0.414 -0.18,-0.234 -0.3,-0.510001 -0.48,-1.086 l -0.552,0 -0.042,-0.192" /><path
       inkscape:connector-curvature="0"
       id="path3222"
       style="font-size:8px;font-style:italic;font-variant:normal;writing-mode:lr-tb;fill:#231f20;fill-opacity:1;fill-rule:nonzero;stroke:none;font-family:Times;-inkscape-font-specification:Times-Italic"
       d="m 66.18155,31.1867 c -0.192,-0.256 -0.248,-0.32 -0.328,-0.408 -0.136,-0.136 -0.256,-0.216 -0.328,-0.216 -0.064,0 -0.128,0.064 -0.128,0.12 0,0.08 0.024,0.2 0.08,0.352 0,0.024 0.024,0.08 0.04,0.144 l 0,0.016 0.008,0.016 0.704,2.576 -0.024,0.016 c -0.807999,-0.152 -0.968,-0.176 -1.28,-0.2 l 0,-0.128 c 0.424,-0.008 0.504,-0.032 0.504,-0.192 0,-0.064 -0.024,-0.192 -0.072,-0.352 l -0.384,-1.416 c -0.128,-0.464 -0.176,-0.712 -0.176,-0.872 0,-0.296 0.128,-0.456 0.368,-0.456 0.368,0 0.664001,0.240001 1.12,0.912 l -0.104,0.088 m -0.064,4.32 c -0.216,0 -0.376,-0.184 -0.376,-0.424 0,-0.256 0.152,-0.424 0.384,-0.424 0.208,0 0.392,0.184 0.392,0.408 0,0.232 -0.184,0.44 -0.4,0.44" /><path
       inkscape:connector-curvature="0"
       id="path3225"
       style="font-size:6px;font-variant:normal;font-weight:normal;writing-mode:lr-tb;fill:#231f20;fill-opacity:1;fill-rule:nonzero;stroke:none;font-family:Times;-inkscape-font-specification:Times-Roman"
       d="m 68.12938,31.0347 c -0.779999,0 -1.326,-0.576001 -1.326,-1.404 0,-0.809999 0.558001,-1.416 1.314,-1.416 0.755999,0 1.332,0.636001 1.332,1.464 0,0.785999 -0.552001,1.356 -1.32,1.356 m -0.078,-0.168 c 0.503999,0 0.858,-0.576001 0.858,-1.398 0,-0.677999 -0.27,-1.086 -0.72,-1.086 -0.234,0 -0.456,0.144 -0.582,0.384 -0.168,0.312 -0.264,0.732 -0.264,1.158 0,0.569999 0.282,0.942 0.708,0.942" /><path
       inkscape:connector-curvature="0"
       id="path3228"
       style="font-size:8px;font-style:italic;font-variant:normal;writing-mode:lr-tb;fill:#231f20;fill-opacity:1;fill-rule:nonzero;stroke:none;font-family:Times;-inkscape-font-specification:Times-Italic"
       d="m 105.84718,74.5207 c -0.192,-0.256 -0.248,-0.32 -0.328,-0.408 -0.136,-0.136 -0.256,-0.216 -0.328,-0.216 -0.064,0 -0.128,0.064 -0.128,0.12 0,0.08 0.024,0.2 0.08,0.352 0,0.024 0.024,0.08 0.04,0.144 l 0,0.016 0.008,0.016 0.704,2.576 -0.024,0.016 c -0.808,-0.152 -0.968,-0.176 -1.28,-0.2 l 0,-0.128 c 0.424,-0.008 0.504,-0.032 0.504,-0.192 0,-0.064 -0.024,-0.192 -0.072,-0.352 l -0.384,-1.416 c -0.128,-0.464 -0.176,-0.712 -0.176,-0.872 0,-0.296 0.128,-0.456 0.368,-0.456 0.368,0 0.664,0.240001 1.12,0.912 l -0.104,0.088 m -0.064,4.32 c -0.216,0 -0.376,-0.184 -0.376,-0.424 0,-0.256 0.152,-0.424 0.384,-0.424 0.208,0 0.392,0.184 0.392,0.408 0,0.232 -0.184,0.44 -0.4,0.44" /><path
       inkscape:connector-curvature="0"
       id="path3231"
       style="font-size:6px;font-variant:normal;font-weight:normal;writing-mode:lr-tb;fill:#231f20;fill-opacity:1;fill-rule:nonzero;stroke:none;font-family:Times;-inkscape-font-specification:Times-Roman"
       d="m 107.7954,74.3687 c -0.78,0 -1.326,-0.576001 -1.326,-1.404 0,-0.809999 0.558,-1.416 1.314,-1.416 0.756,0 1.332,0.636001 1.332,1.464 0,0.785999 -0.552,1.356 -1.32,1.356 m -0.078,-0.168 c 0.504,0 0.858,-0.576001 0.858,-1.398 0,-0.677999 -0.27,-1.086 -0.72,-1.086 -0.234,0 -0.456,0.144 -0.582,0.384 -0.168,0.312 -0.264,0.732 -0.264,1.158 0,0.569999 0.282,0.942 0.708,0.942" /><path
       inkscape:connector-curvature="0"
       id="path3234"
       style="font-size:8px;font-style:italic;font-variant:normal;writing-mode:lr-tb;fill:#231f20;fill-opacity:1;fill-rule:nonzero;stroke:none;font-family:Times;-inkscape-font-specification:Times-Italic"
       d="m 94.6046,11.5609 c -0.192,-0.256 -0.248,-0.32 -0.328,-0.408 -0.136,-0.136 -0.256,-0.216 -0.328,-0.216 -0.064,0 -0.128,0.064 -0.128,0.12 0,0.08 0.024,0.2 0.08,0.352 0,0.024 0.024,0.08 0.04,0.144 l 0,0.016 0.008,0.016 0.704,2.576 -0.024,0.016 c -0.807999,-0.152 -0.968,-0.176 -1.28,-0.2 l 0,-0.128 c 0.424,-0.008 0.504,-0.032 0.504,-0.192 0,-0.064 -0.024,-0.192 -0.072,-0.352 l -0.384,-1.416 c -0.128,-0.464 -0.176,-0.712 -0.176,-0.872 0,-0.296 0.128,-0.456 0.368,-0.456 0.368,0 0.664,0.240001 1.12,0.912 l -0.104,0.088 m -0.064,4.32 c -0.216,0 -0.376,-0.184 -0.376,-0.424 0,-0.256 0.152,-0.424 0.384,-0.424 0.208,0 0.392,0.184 0.392,0.408 0,0.232 -0.184,0.44 -0.4,0.44" /><path
       inkscape:connector-curvature="0"
       id="path3237"
       style="font-size:6px;font-variant:normal;font-weight:normal;writing-mode:lr-tb;fill:#231f20;fill-opacity:1;fill-rule:nonzero;stroke:none;font-family:Times;-inkscape-font-specification:Times-Roman"
       d="m 96.55204,11.4089 c -0.779999,0 -1.326,-0.576001 -1.326,-1.404 0,-0.8099992 0.558001,-1.416 1.314,-1.416 0.755999,0 1.332,0.6360008 1.332,1.464 0,0.785999 -0.552001,1.356 -1.32,1.356 m -0.078,-0.168 c 0.504,0 0.858,-0.576001 0.858,-1.398 0,-0.6779993 -0.27,-1.086 -0.72,-1.086 -0.234,0 -0.456,0.1440002 -0.582,0.384 -0.168,0.3119997 -0.264,0.7320004 -0.264,1.158 0,0.569999 0.282,0.942 0.708,0.942" /><path
       inkscape:connector-curvature="0"
       id="path3240"
       style="font-size:8px;font-style:italic;font-variant:normal;writing-mode:lr-tb;fill:#231f20;fill-opacity:1;fill-rule:nonzero;stroke:none;font-family:Times;-inkscape-font-specification:Times-Italic"
       d="m 164.60424,16.5609 c -0.192,-0.256 -0.248,-0.32 -0.328,-0.408 -0.136,-0.136 -0.256,-0.216 -0.328,-0.216 -0.064,0 -0.128,0.064 -0.128,0.12 0,0.08 0.024,0.2 0.08,0.352 0,0.024 0.024,0.08 0.04,0.144 l 0,0.016 0.008,0.016 0.704,2.576 -0.024,0.016 c -0.808,-0.152 -0.968,-0.176 -1.28,-0.2 l 0,-0.128 c 0.424,-0.008 0.504,-0.032 0.504,-0.192 0,-0.064 -0.024,-0.192 -0.072,-0.352 l -0.384,-1.416 c -0.128,-0.464 -0.176,-0.712 -0.176,-0.872 0,-0.296 0.128,-0.456 0.368,-0.456 0.368,0 0.664,0.240001 1.12,0.912 l -0.104,0.088 m -0.064,4.32 c -0.216,0 -0.376,-0.184 -0.376,-0.424 0,-0.256 0.152,-0.424 0.384,-0.424 0.208,0 0.392,0.184 0.392,0.408 0,0.232 -0.184,0.44 -0.4,0.44" /><path
       inkscape:connector-curvature="0"
       id="path3243"
       style="font-size:6px;font-variant:normal;font-weight:normal;writing-mode:lr-tb;fill:#231f20;fill-opacity:1;fill-rule:nonzero;stroke:none;font-family:Times;-inkscape-font-specification:Times-Roman"
       d="m 166.55246,16.4089 c -0.78,0 -1.326,-0.576001 -1.326,-1.404 0,-0.809999 0.558,-1.416 1.314,-1.416 0.756,0 1.332,0.636001 1.332,1.464 0,0.785999 -0.552,1.356 -1.32,1.356 m -0.078,-0.168 c 0.504,0 0.858,-0.576001 0.858,-1.398 0,-0.677999 -0.27,-1.086 -0.72,-1.086 -0.234,0 -0.456,0.144 -0.582,0.384 -0.168,0.312 -0.264,0.732 -0.264,1.158 0,0.569999 0.282,0.942 0.708,0.942" /><path
       inkscape:connector-curvature="0"
       id="path152"
       style="fill:#ffffff;fill-opacity:1;fill-rule:nonzero;stroke:none"
       d="M 0.587891,41.8621 0.5875,86.957 l 7.62109,0 3.9e-4,-45.0949 -7.621089,0" /><path
       inkscape:connector-curvature="0"
       id="path154"
       style="fill:none;stroke:#231f20;stroke-width:0.80000001;stroke-linecap:round;stroke-linejoin:round;stroke-miterlimit:3.86369991;stroke-opacity:1;stroke-dasharray:none"
       d="m 0.5875,55.277 c 0,2.3378 1.87773,4.2343 4.19414,4.2343 1.41016,0 2.66602,-0.7031 3.42695,-1.7812 -0.74531,-1.1758 -1.94062,-1.3946 -3.42695,-1.3946 -2.31641,0 -4.19414,1.8958 -4.19414,4.2336 0,2.3379 1.87773,4.2332 4.19414,4.2332 1.34492,0 2.55781,-0.6386 3.32539,-1.6328 -0.76758,-0.9922 -1.98047,-1.33 -3.32539,-1.33 -2.31641,0 -4.19414,1.8945 -4.19414,4.2324" /><path
       inkscape:connector-curvature="0"
       id="path156"
       style="fill:none;stroke:#231f20;stroke-width:0.80000001;stroke-linecap:round;stroke-linejoin:round;stroke-miterlimit:3.86369991;stroke-opacity:1;stroke-dasharray:none"
       d="m 0.734766,50.0926 c 0,2.3367 1.878904,4.2312 4.195314,4.2312 1.34961,0 2.58125,-0.3855 3.34883,-1.3847 -0.75118,-1.1426 -2.03711,-1.8946 -3.49727,-1.8946 -2.31641,0 -4.19414,1.8946 -4.19414,4.2325" /><path
       inkscape:connector-curvature="0"
       id="path158"
       style="fill:none;stroke:#231f20;stroke-width:0.80000001;stroke-linecap:round;stroke-linejoin:round;stroke-miterlimit:3.86369991;stroke-opacity:1;stroke-dasharray:none"
       d="m 4.5333264,41.8621 0,3.8692 c -1.84063,0.1738 -3.7985604,2.1386 -3.7985604,4.3613"
       sodipodi:nodetypes="ccc" /><path
       inkscape:connector-curvature="0"
       id="path160"
       style="fill:none;stroke:#231f20;stroke-width:0.80000001;stroke-linecap:round;stroke-linejoin:round;stroke-miterlimit:3.86369991;stroke-opacity:1;stroke-dasharray:none"
       d="m 0.4,70.9754 c 0,2.3379 1.87773,4.2344 4.19414,4.2344 1.41016,0 2.66602,-0.7032 3.42695,-1.7813 C 7.27578,72.2527 6.08047,72.034 4.59414,72.034 2.27773,72.034 0.4,73.9305 0.4,76.2684 c 0,2.3379 1.87773,4.2324 4.19414,4.2324 1.34492,0 2.55781,-0.6387 3.32539,-1.6328 C 7.15195,77.8758 5.93906,77.5379 4.59414,77.5379 2.27773,77.5379 0.4,79.4324 0.4,81.7703 c -7.81e-4,2.3379 1.8198659,4.2344 4.1362659,4.2344 l 0.011838,3.8496"
       sodipodi:nodetypes="cscssscsccc" /><path
       inkscape:connector-curvature="0"
       id="path162"
       style="fill:none;stroke:#231f20;stroke-width:0.80000001;stroke-linecap:round;stroke-linejoin:round;stroke-miterlimit:3.86369991;stroke-opacity:1;stroke-dasharray:none"
       d="m 0.547266,65.7918 c 0,2.3359 1.878904,4.2305 4.195314,4.2305 1.34961,0 2.58125,-0.3848 3.34883,-1.3848 C 7.34023,67.4949 6.0543,66.743 4.59414,66.743 2.27773,66.743 0.4,68.6375 0.4,70.9754" /><path
       inkscape:connector-curvature="0"
       id="path164"
       style="fill:#ffffff;fill-opacity:1;fill-rule:nonzero;stroke:none"
       d="m 217.507,64.3199 c 0,-0.9199 -0.746,-1.666 -1.667,-1.666 -0.921,0 -1.667,0.7461 -1.667,1.666 0,0.9211 0.746,1.668 1.667,1.668 0.921,0 1.667,-0.7469 1.667,-1.668" /><path
       inkscape:connector-curvature="0"
       id="path166"
       style="fill:none;stroke:#231f20;stroke-width:0.5;stroke-linecap:butt;stroke-linejoin:miter;stroke-miterlimit:4;stroke-opacity:1;stroke-dasharray:none"
       d="m 217.507,64.3199 c 0,-0.9199 -0.746,-1.666 -1.667,-1.666 -0.921,0 -1.667,0.7461 -1.667,1.666 0,0.9211 0.746,1.668 1.667,1.668 0.921,0 1.667,-0.7469 1.667,-1.668 z" /><path
       inkscape:connector-curvature="0"
       id="path168"
       style="fill:#ffffff;fill-opacity:1;fill-rule:nonzero;stroke:none"
       d="m 217.507,4.48711 c 0,-0.91992 -0.746,-1.66602 -1.667,-1.66602 -0.921,0 -1.667,0.7461 -1.667,1.66602 0,0.92109 0.746,1.66797 1.667,1.66797 0.921,0 1.667,-0.74688 1.667,-1.66797" /><path
       inkscape:connector-curvature="0"
       id="path170"
       style="fill:none;stroke:#231f20;stroke-width:0.5;stroke-linecap:butt;stroke-linejoin:miter;stroke-miterlimit:4;stroke-opacity:1;stroke-dasharray:none"
       d="m 217.507,4.48711 c 0,-0.91992 -0.746,-1.66602 -1.667,-1.66602 -0.921,0 -1.667,0.7461 -1.667,1.66602 0,0.92109 0.746,1.66797 1.667,1.66797 0.921,0 1.667,-0.74688 1.667,-1.66797 z" /><path
       inkscape:connector-curvature="0"
       id="path172"
       style="fill:#231f20;fill-opacity:1;fill-rule:nonzero;stroke:none"
       d="m 181.259,64.3199 c 0,-0.9199 -0.746,-1.666 -1.667,-1.666 -0.921,0 -1.667,0.7461 -1.667,1.666 0,0.9211 0.746,1.668 1.667,1.668 0.921,0 1.667,-0.7469 1.667,-1.668" /><path
       inkscape:connector-curvature="0"
       id="path174"
       style="fill:#231f20;fill-opacity:1;fill-rule:nonzero;stroke:none"
       d="m 181.259,4.48711 c 0,-0.91992 -0.746,-1.66602 -1.667,-1.66602 -0.921,0 -1.667,0.7461 -1.667,1.66602 0,0.92109 0.746,1.66797 1.667,1.66797 0.921,0 1.667,-0.74688 1.667,-1.66797" /><path
       inkscape:connector-curvature="0"
       id="path3246"
       style="font-size:8px;font-variant:normal;font-weight:normal;writing-mode:lr-tb;fill:#231f20;fill-opacity:1;fill-rule:nonzero;stroke:none;font-family:Symbol;-inkscape-font-specification:Symbol"
       d="m 13.5269,93.1992 -0.44,0 0,-1.912 -1.896,0 0,-0.44 1.896,0 0,-1.912 0.44,0 0,1.912 1.896,0 0,0.44 -1.896,0 0,1.912" /><path
       inkscape:connector-curvature="0"
       id="path3248"
       style="font-size:8px;font-variant:normal;font-weight:normal;writing-mode:lr-tb;fill:#231f20;fill-opacity:1;fill-rule:nonzero;stroke:none;font-family:Symbol;-inkscape-font-specification:Symbol"
       d="m 11.1989,40.3614 0,-0.44 4.192,0 0,0.44 -4.192,0" /><path
       inkscape:connector-curvature="0"
       id="path3250"
       style="font-size:8px;font-variant:normal;font-weight:normal;writing-mode:lr-tb;fill:#231f20;fill-opacity:1;fill-rule:nonzero;stroke:none;font-family:Symbol;-inkscape-font-specification:Symbol"
       d="m 222.70335,66.343701 -0.44,0 0,-1.912 -1.896,0 0,-0.44 1.896,0 0,-1.912 0.44,0 0,1.912 1.896,0 0,0.44 -1.896,0 0,1.912" /><path
       inkscape:connector-curvature="0"
       id="path3252"
       style="font-size:8px;font-variant:normal;font-weight:normal;writing-mode:lr-tb;fill:#231f20;fill-opacity:1;fill-rule:nonzero;stroke:none;font-family:Symbol;-inkscape-font-specification:Symbol"
       d="m 220.37458,4.694999 0,-0.44 4.192,0 0,0.44 -4.192,0" /><path
       inkscape:connector-curvature="0"
       id="path188"
       style="fill:#ffffff;fill-opacity:1;fill-rule:nonzero;stroke:none"
       d="m 127.613,72.4289 -23.032,22.8594 5.261,5.3007 23.032,-22.8593 -5.261,-5.3008" /><path
       inkscape:connector-curvature="0"
       id="path190"
       style="fill:none;stroke:#231f20;stroke-width:0.80000001;stroke-linecap:round;stroke-linejoin:round;stroke-miterlimit:3.86369991;stroke-opacity:1;stroke-dasharray:none"
       d="m 107.077,98.1203 2.566,-2.5449 3.719,1.5199 -3.026,-7.5187 7.528,3.0496 -2.991,-7.5535 7.497,3.0824 -3.044,-7.502 7.497,3.0824 -2.924,-7.4859 3.673,1.5309 2.696,-2.6766" /><path
       inkscape:connector-curvature="0"
       id="path192"
       style="fill:#ffffff;fill-opacity:1;fill-rule:nonzero;stroke:none"
       d="m 175.934,17.8719 -0.123,32.4051 7.468,0.0285 L 183.4,17.9 175.934,17.8719" /><path
       inkscape:connector-curvature="0"
       id="path194"
       style="fill:none;stroke:#231f20;stroke-width:0.80000001;stroke-linecap:round;stroke-linejoin:round;stroke-miterlimit:3.86369991;stroke-opacity:1;stroke-dasharray:none"
       d="m 179.578,50.5133 0.016,-3.5957 3.705,-1.5477 -7.457,-3.1613 7.478,-3.1609 -7.455,-3.2266 7.481,-3.1211 -7.457,-3.1523 7.48,-3.1223 -7.361,-3.2254 3.68,-1.5156 0.013,-3.7981" /><path
       inkscape:connector-curvature="0"
       id="path196"
       style="fill:#ffffff;fill-opacity:1;fill-rule:nonzero;stroke:none"
       d="m 87.2063,28.2027 -23.0325,22.8594 5.261,5.302 23.032,-22.8606 -5.2605,-5.3008" /><path
       inkscape:connector-curvature="0"
       id="path198"
       style="fill:none;stroke:#231f20;stroke-width:0.80000001;stroke-linecap:round;stroke-linejoin:round;stroke-miterlimit:3.86369991;stroke-opacity:1;stroke-dasharray:none"
       d="m 66.6699,53.8953 2.5656,-2.5461 3.7196,1.5207 -3.0266,-7.5187 7.5285,3.0488 -2.9914,-7.5527 7.4973,3.082 -3.0441,-7.502 7.4972,3.0821 -2.9238,-7.4852 3.6726,1.5301 2.6957,-2.6758" /></g></svg>