<?xml version="1.0" encoding="UTF-8" standalone="no"?>
<!-- Created with Inkscape (http://www.inkscape.org/) -->

<svg
   xmlns:dc="http://purl.org/dc/elements/1.1/"
   xmlns:cc="http://creativecommons.org/ns#"
   xmlns:rdf="http://www.w3.org/1999/02/22-rdf-syntax-ns#"
   xmlns:svg="http://www.w3.org/2000/svg"
   xmlns="http://www.w3.org/2000/svg"
   xmlns:sodipodi="http://sodipodi.sourceforge.net/DTD/sodipodi-0.dtd"
   xmlns:inkscape="http://www.inkscape.org/namespaces/inkscape"
   id="svg2"
   version="1.1"
   inkscape:version="0.47 r22583"
   width="188"
   height="191.775"
   xml:space="preserve"
   sodipodi:docname="S3-EE-02-IN003.svg"><metadata
     id="metadata8"><rdf:RDF><cc:Work
         rdf:about=""><dc:format>image/svg+xml</dc:format><dc:type
           rdf:resource="http://purl.org/dc/dcmitype/StillImage" /><dc:title /></cc:Work></rdf:RDF></metadata><defs
     id="defs6"><inkscape:perspective
       sodipodi:type="inkscape:persp3d"
       inkscape:vp_x="0 : 95.887497 : 1"
       inkscape:vp_y="0 : 1000 : 0"
       inkscape:vp_z="188 : 95.887497 : 1"
       inkscape:persp3d-origin="94 : 63.924998 : 1"
       id="perspective43" /></defs><sodipodi:namedview
     pagecolor="#ffffff"
     bordercolor="#666666"
     borderopacity="1"
     objecttolerance="10"
     gridtolerance="10"
     guidetolerance="10"
     inkscape:pageopacity="0"
     inkscape:pageshadow="2"
     inkscape:window-width="1024"
     inkscape:window-height="689"
     id="namedview4"
     showgrid="false"
     inkscape:zoom="2.2012398"
     inkscape:cx="94"
     inkscape:cy="95.887497"
     inkscape:window-x="0"
     inkscape:window-y="27"
     inkscape:window-maximized="1"
     inkscape:current-layer="g10" /><g
     id="g10"
     inkscape:groupmode="layer"
     inkscape:label="ink_ext_XXXXXX"
     transform="matrix(1.25,0,0,-1.25,0,191.775)"><path
   inkscape:connector-curvature="0"
   id="path3074"
   style="font-size:8px;font-variant:normal;font-weight:normal;writing-mode:lr-tb;fill:#231f20;fill-opacity:1;fill-rule:nonzero;stroke:none;font-family:Symbol;-inkscape-font-specification:Symbol"
   d="m 15.116312,133.68278 -0.44,0 0,-1.912 -1.896,0 0,-0.44 1.896,0 0,-1.912 0.44,0 0,1.912 1.896,0 0,0.44 -1.896,0 0,1.912" /><path
   inkscape:connector-curvature="0"
   id="path3076"
   style="font-size:8px;font-variant:normal;font-weight:normal;writing-mode:lr-tb;fill:#231f20;fill-opacity:1;fill-rule:nonzero;stroke:none;font-family:Symbol;-inkscape-font-specification:Symbol"
   d="m 12.788312,93.202868 0,-0.44 4.192,0 0,0.44 -4.192,0" /><path
   inkscape:connector-curvature="0"
   id="path3079"
   style="font-size:8px;font-style:italic;font-variant:normal;writing-mode:lr-tb;fill:#231f20;fill-opacity:1;fill-rule:nonzero;stroke:none;font-family:Times;-inkscape-font-specification:Times-Italic"
   d="m 18.142593,115.04229 -1.488,0 0,-0.128 c 0.36,-0.04 0.504,-0.12 0.504,-0.272 0,-0.152 -0.152,-0.496 -0.416,-0.952 l -1.648,-2.848 -0.528,3.544 c -0.008,0.04 -0.008,0.072 -0.008,0.12 0,0.272 0.112001,0.352 0.616,0.408 l 0,0.128 -1.928,0 0,-0.128 c 0.448,-0.056 0.464,-0.08 0.632,-1.08 l 0.68,-4.16 0.152,0 2.984,4.92 c 0.136,0.216 0.264,0.312 0.448,0.32 l 0,0.128" /><path
   inkscape:connector-curvature="0"
   id="path3082"
   style="font-size:6px;font-variant:normal;font-weight:normal;writing-mode:lr-tb;fill:#231f20;fill-opacity:1;fill-rule:nonzero;stroke:none;font-family:Times;-inkscape-font-specification:Times-Roman"
   d="m 20.376873,108.64029 -0.078,0.03 c -0.222,-0.342 -0.3,-0.396 -0.57,-0.396 l -1.434,0 1.008,1.056 c 0.533999,0.558 0.768,1.014 0.768,1.482 0,0.6 -0.486001,1.062 -1.11,1.062 -0.33,0 -0.642,-0.132 -0.864,-0.372 -0.192,-0.204 -0.282,-0.396 -0.384,-0.822 l 0.126,-0.03 c 0.24,0.588 0.456,0.78 0.87,0.78 0.503999,0 0.846,-0.342 0.846,-0.846 0,-0.468 -0.276001,-1.026 -0.78,-1.56 l -1.068,-1.134 0,-0.072 2.34,0 0.33,0.822" /><path
   inkscape:connector-curvature="0"
   id="path36"
   style="fill:none;stroke:#231f20;stroke-width:0.80000001;stroke-linecap:butt;stroke-linejoin:miter;stroke-miterlimit:4;stroke-opacity:1;stroke-dasharray:none"
   d="m 44.919112,18.5262 -39.1546884,0 0,18.4648" /><path
   inkscape:connector-curvature="0"
   id="path38"
   style="fill:none;stroke:#231f20;stroke-width:0.80000001;stroke-linecap:butt;stroke-linejoin:miter;stroke-miterlimit:4;stroke-opacity:1;stroke-dasharray:none"
   d="m 112.57732,18.5262 -69.125408,0" /><path
   inkscape:connector-curvature="0"
   id="path40"
   style="fill:none;stroke:#231f20;stroke-width:0.80000001;stroke-linecap:butt;stroke-linejoin:miter;stroke-miterlimit:4;stroke-opacity:1;stroke-dasharray:none"
   d="m 9.2245836,86.8531 103.3527364,0" /><path
   inkscape:connector-curvature="0"
   id="path42"
   style="fill:none;stroke:#231f20;stroke-width:0.80000001;stroke-linecap:butt;stroke-linejoin:miter;stroke-miterlimit:4;stroke-opacity:1;stroke-dasharray:none"
   d="m 112.57732,151.355 -106.8128964,0 0,-16.819" /><path
   inkscape:connector-curvature="0"
   id="path44"
   style="fill:#ffffff;fill-opacity:1;fill-rule:nonzero;stroke:none"
   d="m 114.24332,151.5 c 0,-0.92 -0.746,-1.666 -1.666,-1.666 -0.922,0 -1.668,0.746 -1.668,1.666 0,0.921 0.746,1.668 1.668,1.668 0.92,0 1.666,-0.747 1.666,-1.668" /><path
   inkscape:connector-curvature="0"
   id="path46"
   style="fill:none;stroke:#231f20;stroke-width:0.5;stroke-linecap:butt;stroke-linejoin:miter;stroke-miterlimit:4;stroke-opacity:1;stroke-dasharray:none"
   d="m 114.24332,151.40914 c 0,-0.92 -0.746,-1.666 -1.666,-1.666 -0.922,0 -1.668,0.746 -1.668,1.666 0,0.921 0.746,1.668 1.668,1.668 0.92,0 1.666,-0.747 1.666,-1.668 z" /><path
   inkscape:connector-curvature="0"
   id="path48"
   style="fill:#ffffff;fill-opacity:1;fill-rule:nonzero;stroke:none"
   d="m 114.24332,86.518 c 0,-0.92 -0.746,-1.666 -1.666,-1.666 -0.922,0 -1.668,0.746 -1.668,1.666 0,0.9211 0.746,1.6679 1.668,1.6679 0.92,0 1.666,-0.7468 1.666,-1.6679" /><path
   inkscape:connector-curvature="0"
   id="path50"
   style="fill:none;stroke:#231f20;stroke-width:0.5;stroke-linecap:butt;stroke-linejoin:miter;stroke-miterlimit:4;stroke-opacity:1;stroke-dasharray:none"
   d="m 114.24332,86.97228 c 0,-0.92 -0.746,-1.666 -1.666,-1.666 -0.922,0 -1.668,0.746 -1.668,1.666 0,0.9211 0.746,1.6679 1.668,1.6679 0.92,0 1.666,-0.7468 1.666,-1.6679 z" /><path
   inkscape:connector-curvature="0"
   id="path52"
   style="fill:#ffffff;fill-opacity:1;fill-rule:nonzero;stroke:none"
   d="m 114.24332,18.525 c 0,-0.9199 -0.746,-1.666 -1.666,-1.666 -0.922,0 -1.668,0.7461 -1.668,1.666 0,0.9211 0.746,1.668 1.668,1.668 0.92,0 1.666,-0.7469 1.666,-1.668" /><path
   inkscape:connector-curvature="0"
   id="path54"
   style="fill:none;stroke:#231f20;stroke-width:0.5;stroke-linecap:butt;stroke-linejoin:miter;stroke-miterlimit:4;stroke-opacity:1;stroke-dasharray:none"
   d="m 114.24332,18.525 c 0,-0.9199 -0.746,-1.666 -1.666,-1.666 -0.922,0 -1.668,0.7461 -1.668,1.666 0,0.9211 0.746,1.668 1.668,1.668 0.92,0 1.666,-0.7469 1.666,-1.668 z" /><path
   inkscape:connector-curvature="0"
   id="path56"
   style="fill:none;stroke:#231f20;stroke-width:0.80000001;stroke-linecap:round;stroke-linejoin:round;stroke-miterlimit:3.86369991;stroke-opacity:1;stroke-dasharray:none"
   d="m 1.4277045,115.633 c 0.027343,2.338 1.9277391,4.212 4.2441391,4.185 1.41016,-0.017 2.6582,-0.734 3.4043,-1.822 -0.75781,-1.166 -1.95508,-1.371 -3.44141,-1.353 -2.3164,0.027 -4.1730451,1.945 -4.1445291,4.282 0.027343,2.338 1.9277391,4.211 4.2441391,4.184 1.34375,-0.016 2.54883,-0.669 3.30469,-1.672 -0.7793,-0.983 -1.99609,-1.307 -3.33984,-1.291 -2.31641,0.027 -4.17188,1.944 -4.144536,4.281 0.027344,2.338 1.902346,4.213 4.218746,4.186 l -0.00898,3.85" /><path
   inkscape:connector-curvature="0"
   id="path58"
   style="fill:none;stroke:#231f20;stroke-width:0.80000001;stroke-linecap:round;stroke-linejoin:round;stroke-miterlimit:3.86369991;stroke-opacity:1;stroke-dasharray:none"
   d="m 1.5148136,110.448 c 0.026953,2.337 1.92852,4.209 4.24492,4.181 1.34961,-0.015 2.57539,-0.416 3.33008,-1.424 -0.76289,-1.133 -2.05859,-1.871 -3.51758,-1.853 -2.3164,0.027 -4.1730451,1.943 -4.1445291,4.281" /><path
   inkscape:connector-curvature="0"
   id="path60"
   style="fill:none;stroke:#231f20;stroke-width:0.80000001;stroke-linecap:round;stroke-linejoin:round;stroke-miterlimit:3.86369991;stroke-opacity:1;stroke-dasharray:none"
   d="m 1.6015326,105.261 c 0.027344,2.337 1.928911,4.209 4.245311,4.182 1.34961,-0.016 2.575,-0.416 3.33086,-1.424 -0.76367,-1.134 -2.05859,-1.87 -3.51758,-1.853 -2.3164,0.027 -4.1738261,1.944 -4.14531,4.282" /><path
   inkscape:connector-curvature="0"
   id="path62"
   style="fill:none;stroke:#231f20;stroke-width:0.80000001;stroke-linecap:round;stroke-linejoin:round;stroke-miterlimit:3.86369991;stroke-opacity:1;stroke-dasharray:none"
   d="m 1.7441106,41.7629 c -0.027344,-2.3379 1.802733,-4.2559 4.119143,-4.2828 l -0.09961,-3.8492" /><path
   inkscape:connector-curvature="0"
   id="path64"
   style="fill:none;stroke:#231f20;stroke-width:0.80000001;stroke-linecap:round;stroke-linejoin:round;stroke-miterlimit:3.86369991;stroke-opacity:1;stroke-dasharray:none"
   d="m 1.4745795,94.4672 c 0.027343,2.3379 1.9289041,4.2121 4.2449241,4.1848 1.40937,-0.0168 2.65742,-0.7344 3.40469,-1.8215 -0.75782,-1.1668 -1.95625,-1.3711 -3.44258,-1.3543 -2.31641,0.0273 -4.1718781,1.9453 -4.144534,4.2832 0.027343,2.3376 1.928904,4.2106 4.244144,4.1836 1.34375,-0.016 2.54882,-0.669 3.30468,-1.672 -0.77851,-0.983 -1.99492,-1.307 -3.33867,-1.291 -2.31679,0.027 -4.173045,1.944 -4.145701,4.281" /><path
   inkscape:connector-curvature="0"
   id="path66"
   style="fill:none;stroke:#231f20;stroke-width:0.80000001;stroke-linecap:round;stroke-linejoin:round;stroke-miterlimit:3.86369991;stroke-opacity:1;stroke-dasharray:none"
   d="m 1.5624696,89.2816 c 0.027344,2.3372 1.927734,4.209 4.244144,4.1817 1.34961,-0.0156 2.57617,-0.416 3.33086,-1.4238 -0.7625,-1.1336 -2.05938,-1.8711 -3.51836,-1.8536 -2.31641,0.0274 -4.1718781,1.9434 -4.1445341,4.2813" /><path
   inkscape:connector-curvature="0"
   id="path68"
   style="fill:none;stroke:#231f20;stroke-width:0.80000001;stroke-linecap:round;stroke-linejoin:round;stroke-miterlimit:3.86369991;stroke-opacity:1;stroke-dasharray:none"
   d="m 1.6491886,84.0953 c 0.027344,2.3367 1.928905,4.209 4.245315,4.1817 1.34961,-0.0157 2.57422,-0.4161 3.33008,-1.4239 -0.76289,-1.134 -2.0586,-1.8703 -3.51758,-1.8535 -2.31641,0.0274 -4.172659,1.9442 -4.144534,4.282" /><path
   inkscape:connector-curvature="0"
   id="path70"
   style="fill:none;stroke:#231f20;stroke-width:0.80000001;stroke-linecap:round;stroke-linejoin:round;stroke-miterlimit:3.86369991;stroke-opacity:1;stroke-dasharray:none"
   d="m 1.5214546,73.3012 c 0.027343,2.3379 1.929689,4.2121 4.246089,4.1847 1.40899,-0.0168 2.65625,-0.7343 3.4043,-1.8214 -0.75781,-1.1668 -1.95586,-1.3719 -3.44219,-1.3543 -2.31679,0.0273 -4.173043,1.9453 -4.145699,4.2832 0.027343,2.3379 1.929689,4.2109 4.245309,4.1836 1.34375,-0.0157 2.54961,-0.6692 3.30469,-1.6719 -0.77851,-0.9836 -1.99531,-1.3067 -3.33906,-1.291 -2.31641,0.0273 -4.17383,1.9441 -4.145705,4.2812" /><path
   inkscape:connector-curvature="0"
   id="path72"
   style="fill:none;stroke:#231f20;stroke-width:0.80000001;stroke-linecap:round;stroke-linejoin:round;stroke-miterlimit:3.86369991;stroke-opacity:1;stroke-dasharray:none"
   d="m 1.6093446,68.1148 c 0.027344,2.3368 1.928519,4.209 4.244139,4.1817 1.34961,-0.0156 2.57617,-0.416 3.33203,-1.4238 -0.76367,-1.134 -2.05976,-1.8704 -3.51836,-1.8528 -2.31562,0.0266 -4.1730431,1.9434 -4.145699,4.2813" /><path
   inkscape:connector-curvature="0"
   id="path74"
   style="fill:none;stroke:#231f20;stroke-width:0.80000001;stroke-linecap:round;stroke-linejoin:round;stroke-miterlimit:3.86369991;stroke-opacity:1;stroke-dasharray:none"
   d="m 1.6972356,62.9293 c 0.027344,2.3367 1.927738,4.209 4.244138,4.1816 1.34961,-0.0156 2.57617,-0.416 3.33125,-1.4238 -0.76289,-1.134 -2.05976,-1.8711 -3.51875,-1.8535 -2.3164,0.0273 -4.171872,1.9441 -4.144529,4.2812" /><path
   inkscape:connector-curvature="0"
   id="path76"
   style="fill:none;stroke:#231f20;stroke-width:0.80000001;stroke-linecap:round;stroke-linejoin:round;stroke-miterlimit:3.86369991;stroke-opacity:1;stroke-dasharray:none"
   d="m 1.5691106,52.1352 c 0.028516,2.3378 1.928903,4.2121 4.245313,4.1847 1.41016,-0.0168 2.65742,-0.7344 3.4043,-1.8215 -0.75782,-1.1664 -1.95508,-1.3722 -3.44141,-1.3543 -2.31641,0.027 -4.173828,1.9454 -4.145703,4.2821 0.027734,2.3379 1.928903,4.2109 4.245313,4.1836 1.34375,-0.0157 2.54883,-0.668 3.30469,-1.6719 -0.7793,-0.9824 -1.9961,-1.3066 -3.33985,-1.2899 -2.3164,0.0274 -4.172653,1.9434 -4.144528,4.2813" /><path
   inkscape:connector-curvature="0"
   id="path78"
   style="fill:none;stroke:#231f20;stroke-width:0.80000001;stroke-linecap:round;stroke-linejoin:round;stroke-miterlimit:3.86369991;stroke-opacity:1;stroke-dasharray:none"
   d="m 1.6562196,46.9488 c 0.027344,2.3371 1.929684,4.209 4.244924,4.1813 1.34961,-0.0153 2.57539,-0.416 3.33125,-1.4231 -0.76367,-1.134 -2.0586,-1.8711 -3.51758,-1.8539 -2.31641,0.027 -4.173047,1.9438 -4.145703,4.2821" /><path
   inkscape:connector-curvature="0"
   id="path80"
   style="fill:none;stroke:#231f20;stroke-width:0.80000001;stroke-linecap:round;stroke-linejoin:round;stroke-miterlimit:3.86369991;stroke-opacity:1;stroke-dasharray:none"
   d="m 1.7441106,41.7629 c 0.027344,2.3371 1.928903,4.209 4.244143,4.182 1.34961,-0.016 2.57617,-0.416 3.33203,-1.4238 -0.76367,-1.134 -2.05938,-1.8711 -3.51875,-1.8531 -2.31602,0.0269 -4.172657,1.9441 -4.145314,4.2808" /><path
   inkscape:connector-curvature="0"
   id="path3144"
   style="font-size:8px;font-variant:normal;font-weight:normal;writing-mode:lr-tb;fill:#231f20;fill-opacity:1;fill-rule:nonzero;stroke:none;font-family:Symbol;-inkscape-font-specification:Symbol"
   d="m 15.116312,82.692309 -0.44,0 0,-1.912 -1.896,0 0,-0.44 1.896,0 0,-1.912 0.44,0 0,1.912 1.896,0 0,0.44 -1.896,0 0,1.912" /><path
   inkscape:connector-curvature="0"
   id="path3146"
   style="font-size:8px;font-variant:normal;font-weight:normal;writing-mode:lr-tb;fill:#231f20;fill-opacity:1;fill-rule:nonzero;stroke:none;font-family:Symbol;-inkscape-font-specification:Symbol"
   d="m 12.788312,35.5317 0,-0.44 4.192,0 0,0.44 -4.192,0" /><path
   inkscape:connector-curvature="0"
   id="path3149"
   style="font-size:8px;font-style:italic;font-variant:normal;writing-mode:lr-tb;fill:#231f20;fill-opacity:1;fill-rule:nonzero;stroke:none;font-family:Times;-inkscape-font-specification:Times-Italic"
   d="m 18.142593,61.623559 -1.488,0 0,-0.128 c 0.36,-0.04 0.504,-0.12 0.504,-0.272 0,-0.152 -0.152,-0.496001 -0.416,-0.952 l -1.648,-2.848 -0.528,3.544 c -0.008,0.04 -0.008,0.072 -0.008,0.12 0,0.272 0.112001,0.352 0.616,0.408 l 0,0.128 -1.928,0 0,-0.128 c 0.448,-0.056 0.464,-0.08 0.632,-1.08 l 0.68,-4.16 0.152,0 2.984,4.92 c 0.136,0.216 0.264,0.312 0.448,0.32 l 0,0.128" /><path
   inkscape:connector-curvature="0"
   id="path3152"
   style="font-size:6px;font-variant:normal;font-weight:normal;writing-mode:lr-tb;fill:#231f20;fill-opacity:1;fill-rule:nonzero;stroke:none;font-family:Times;-inkscape-font-specification:Times-Roman"
   d="m 20.376873,55.221559 -0.078,0.03 c -0.222,-0.342 -0.3,-0.396 -0.57,-0.396 l -1.434,0 1.008,1.056 c 0.533999,0.557999 0.768,1.014001 0.768,1.482 0,0.599999 -0.486001,1.062 -1.11,1.062 -0.33,0 -0.642,-0.132 -0.864,-0.372 -0.192,-0.204 -0.282,-0.396 -0.384,-0.822 l 0.126,-0.03 c 0.24,0.587999 0.456,0.78 0.87,0.78 0.503999,0 0.846,-0.342001 0.846,-0.846 0,-0.468 -0.276001,-1.026 -0.78,-1.56 l -1.068,-1.134 0,-0.072 2.34,0 0.33,0.822" /><path
   d="m 12.484196,86.97228 c 0,-0.92 -0.746,-1.666 -1.665999,-1.666 -0.9219991,0 -1.6679991,0.746 -1.6679991,1.666 0,0.9211 0.746,1.6679 1.6679991,1.6679 0.919999,0 1.665999,-0.7468 1.665999,-1.6679 z"
   style="fill:#000000;stroke:#231f20;stroke-width:0.5;stroke-linecap:butt;stroke-linejoin:miter;stroke-miterlimit:4;stroke-opacity:1;stroke-dasharray:none"
   id="path4072"
   inkscape:connector-curvature="0" /><text
   xml:space="preserve"
   style="font-size:9.60000038px;font-style:normal;font-variant:normal;font-weight:normal;font-stretch:normal;text-align:start;line-height:100%;letter-spacing:0px;word-spacing:0px;text-anchor:start;fill:#000000;fill-opacity:1;stroke:none;font-family:LMRoman12;-inkscape-font-specification:LMRoman12"
   x="119.87309"
   y="-83.543434"
   id="text4074"
   sodipodi:linespacing="100%"
   transform="scale(1,-1)"><tspan
     sodipodi:role="line"
     id="tspan4076"
     x="119.87309"
     y="-83.543434">Centre tap</tspan></text>

<text
   xml:space="preserve"
   style="font-size:9.60000038px;font-style:normal;font-variant:normal;font-weight:normal;font-stretch:normal;text-align:start;line-height:100%;letter-spacing:0px;word-spacing:0px;text-anchor:start;fill:#000000;fill-opacity:1;stroke:none;font-family:LMRoman12;-inkscape-font-specification:LMRoman12"
   x="16.707666"
   y="-6.1745777"
   id="text4078"
   sodipodi:linespacing="100%"
   transform="scale(1,-1)"><tspan
     sodipodi:role="line"
     id="tspan4080"
     x="16.707666"
     y="-6.1745777">Transformer secondary</tspan></text>

</g></svg>