<?xml version="1.0" encoding="UTF-8" standalone="no"?>
<!-- Created with Inkscape (http://www.inkscape.org/) -->

<svg
   xmlns:dc="http://purl.org/dc/elements/1.1/"
   xmlns:cc="http://creativecommons.org/ns#"
   xmlns:rdf="http://www.w3.org/1999/02/22-rdf-syntax-ns#"
   xmlns:svg="http://www.w3.org/2000/svg"
   xmlns="http://www.w3.org/2000/svg"
   xmlns:xlink="http://www.w3.org/1999/xlink"
   xmlns:sodipodi="http://sodipodi.sourceforge.net/DTD/sodipodi-0.dtd"
   xmlns:inkscape="http://www.inkscape.org/namespaces/inkscape"
   id="svg2"
   version="1.1"
   inkscape:version="0.48.4 r9939"
   width="402.1125"
   height="145.35"
   xml:space="preserve"
   sodipodi:docname="S3-EE-02-017.svg"><metadata
     id="metadata8"><rdf:RDF><cc:Work
         rdf:about=""><dc:format>image/svg+xml</dc:format><dc:type
           rdf:resource="http://purl.org/dc/dcmitype/StillImage" /><dc:title></dc:title></cc:Work></rdf:RDF></metadata><defs
     id="defs6"><clipPath
       clipPathUnits="userSpaceOnUse"
       id="clipPath108"><path
         d="m 619.898,913.762 0,-512.555"
         id="path110" /></clipPath><linearGradient
       x1="0"
       y1="0"
       x2="1"
       y2="0"
       gradientUnits="userSpaceOnUse"
       gradientTransform="matrix(0.001,0,0,-0.001,61.9897,65.7487)"
       spreadMethod="pad"
       id="linearGradient112"><stop
         style="stop-opacity:1;stop-color:#ffffff"
         offset="0"
         id="stop114" /><stop
         style="stop-opacity:1;stop-color:#231f20"
         offset="1"
         id="stop116" /></linearGradient><clipPath
       clipPathUnits="userSpaceOnUse"
       id="clipPath126"><path
         d="m 648.727,913.762 0,-512.555"
         id="path128" /></clipPath><linearGradient
       x1="0"
       y1="0"
       x2="1"
       y2="0"
       gradientUnits="userSpaceOnUse"
       gradientTransform="matrix(0.001,0,0,-0.001,64.8726,65.7487)"
       spreadMethod="pad"
       id="linearGradient130"><stop
         style="stop-opacity:1;stop-color:#ffffff"
         offset="0"
         id="stop132" /><stop
         style="stop-opacity:1;stop-color:#231f20"
         offset="1"
         id="stop134" /></linearGradient><clipPath
       clipPathUnits="userSpaceOnUse"
       id="clipPath144"><path
         d="m 591.07,913.762 0,-512.555"
         id="path146" /></clipPath><linearGradient
       x1="0"
       y1="0"
       x2="1"
       y2="0"
       gradientUnits="userSpaceOnUse"
       gradientTransform="matrix(0.001,0,0,-0.001,59.1069,65.7487)"
       spreadMethod="pad"
       id="linearGradient148"><stop
         style="stop-opacity:1;stop-color:#ffffff"
         offset="0"
         id="stop150" /><stop
         style="stop-opacity:1;stop-color:#231f20"
         offset="1"
         id="stop152" /></linearGradient><linearGradient
       inkscape:collect="always"
       xlink:href="#linearGradient112"
       id="linearGradient3676"
       gradientUnits="userSpaceOnUse"
       gradientTransform="matrix(1e-4,0,0,-1e-4,6.19897,6.57487)"
       spreadMethod="pad"
       x1="0"
       y1="0"
       x2="1"
       y2="0" /><linearGradient
       inkscape:collect="always"
       xlink:href="#linearGradient130"
       id="linearGradient3681"
       gradientUnits="userSpaceOnUse"
       gradientTransform="matrix(1e-4,0,0,-1e-4,6.48726,6.57487)"
       spreadMethod="pad"
       x1="0"
       y1="0"
       x2="1"
       y2="0" /><linearGradient
       inkscape:collect="always"
       xlink:href="#linearGradient148"
       id="linearGradient3686"
       gradientUnits="userSpaceOnUse"
       gradientTransform="matrix(1e-4,0,0,-1e-4,5.91069,6.57487)"
       spreadMethod="pad"
       x1="0"
       y1="0"
       x2="1"
       y2="0" /></defs><sodipodi:namedview
     pagecolor="#ffffff"
     bordercolor="#666666"
     borderopacity="1"
     objecttolerance="10"
     gridtolerance="10"
     guidetolerance="10"
     inkscape:pageopacity="0"
     inkscape:pageshadow="2"
     inkscape:window-width="1366"
     inkscape:window-height="744"
     id="namedview4"
     showgrid="false"
     inkscape:zoom="2.1076244"
     inkscape:cx="201.03713"
     inkscape:cy="73.483687"
     inkscape:window-x="0"
     inkscape:window-y="24"
     inkscape:window-maximized="1"
     inkscape:current-layer="g10" /><g
     id="g10"
     inkscape:groupmode="layer"
     inkscape:label="ink_ext_XXXXXX"
     transform="matrix(1.25,0,0,-1.25,0,145.35)"><path
       inkscape:connector-curvature="0"
       id="path3316"
       style="font-size:8px;font-variant:normal;font-weight:normal;writing-mode:lr-tb;fill:#231f20;fill-opacity:1;fill-rule:nonzero;stroke:none;font-family:Times;-inkscape-font-specification:Times-Roman"
       d="m 3.49167,73.806 -1.44,-0.728 0,-0.112 c 0.096,0.04 0.184,0.072 0.216,0.088 0.1439999,0.056 0.2800001,0.088 0.36,0.088 0.1679998,0 0.24,-0.12 0.24,-0.376 l 0,-3.624 c 0,-0.264 -0.064,-0.448 -0.192,-0.52 -0.1199999,-0.072 -0.2320003,-0.096 -0.568,-0.104 l 0,-0.12 2.208,0 0,0.12 c -0.6319994,0.008 -0.76,0.088 -0.76,0.472 l 0,4.8 -0.064,0.016" /><path
       inkscape:connector-curvature="0"
       id="path3319"
       style="font-size:8px;font-variant:normal;font-weight:normal;writing-mode:lr-tb;fill:#231f20;fill-opacity:1;fill-rule:nonzero;stroke:none;font-family:Symbol;-inkscape-font-specification:Symbol"
       d="m 5.25167,70.75 0,-0.44 4.192,0 0,0.44 -4.192,0" /><path
       inkscape:connector-curvature="0"
       id="path3321"
       style="font-size:8px;font-variant:normal;font-weight:normal;writing-mode:lr-tb;fill:#231f20;fill-opacity:1;fill-rule:nonzero;stroke:none;font-family:Symbol;-inkscape-font-specification:Symbol"
       d="m 11.78767,68.342 c 0.983999,0.136 1.688,1.032001 1.688,2.16 0,1.095999 -0.672001,1.888 -1.688,1.96 l 0,0.64 c 0,0.296 0.008,0.448 0.024,0.632 l -0.376,0.152 c 0.016,-0.192 0.024,-0.392 0.024,-0.712 l 0,-0.712 C 10.499671,72.35 9.7716702,71.437999 9.7716702,70.334 c 0,-1.111999 0.6880008,-1.928 1.6879998,-2.008 l 0,-0.808 c 0,-0.36 -0.008,-0.584 -0.024,-0.808 l 0.376,-0.088 c -0.016,0.264 -0.016,0.288 -0.024,0.64 l 0,0.216 0,0.864 m -0.328,0.32 c -0.224,0.088 -0.384,0.216 -0.504,0.4 -0.255999,0.392 -0.408,1.000001 -0.408,1.632 0,0.903999 0.344001,1.464 0.912,1.488 l 0,-3.52 m 0.328,3.464 c 0.568,-0.208 0.912,-0.968001 0.912,-1.984 0,-0.943999 -0.328,-1.488 -0.912,-1.52 l 0,3.504" /><path
       inkscape:connector-curvature="0"
       id="path3324"
       style="font-size:8px;font-style:italic;font-variant:normal;writing-mode:lr-tb;fill:#231f20;fill-opacity:1;fill-rule:nonzero;stroke:none;font-family:Times;-inkscape-font-specification:Times-Italic"
       d="m 19.43547,69.278 c -0.12,-0.12 -0.168,-0.16 -0.224,-0.224 -0.24,-0.248 -0.344,-0.328 -0.416,-0.328 -0.064,0 -0.112,0.048 -0.112,0.104 0,0.16 0.336,1.528001 0.712,2.904 0.024,0.08 0.032,0.096 0.048,0.168 l -0.056,0.024 -0.488,-0.056 -0.024,-0.024 -0.088,-0.384 c -0.064,0.296 -0.296,0.464 -0.64,0.464 -1.055999,0 -2.288,-1.464001 -2.288,-2.728 0,-0.559999 0.304001,-0.888 0.816,-0.888 0.559999,0 0.904001,0.264001 1.608,1.256 -0.16,-0.623999 -0.184,-0.728 -0.184,-0.92 0,-0.232 0.096,-0.328 0.32,-0.328 0.32,0 0.520001,0.152001 1.112,0.88 l -0.096,0.08 m -1.24,2.472 c 0.272,-0.016 0.448,-0.208 0.448,-0.488 0,-0.671999 -0.400001,-1.616001 -0.952,-2.208 -0.192,-0.216 -0.464,-0.352 -0.696,-0.352 -0.28,0 -0.464,0.232 -0.464,0.6 0,0.432 0.304,1.256 0.648,1.752 0.32,0.464 0.696,0.72 1.016,0.696" /><path
       inkscape:connector-curvature="0"
       id="path3326"
       style="font-size:8px;font-style:italic;font-variant:normal;writing-mode:lr-tb;fill:#231f20;fill-opacity:1;fill-rule:nonzero;stroke:none;font-family:Times;-inkscape-font-specification:Times-Italic"
       d="m 22.52347,69.246 c -0.44,-0.472 -0.752,-0.648 -1.144,-0.648 -0.456,0 -0.728,0.344001 -0.728,0.912 0,0.679999 0.28,1.392 0.728,1.864 0.232,0.24 0.552,0.384 0.864,0.384 0.184,0 0.304,-0.064 0.304,-0.16 0,-0.04 -0.016,-0.08 -0.048,-0.152 -0.056,-0.104 -0.072,-0.16 -0.072,-0.232 0,-0.192 0.12,-0.304 0.312,-0.304 0.216,0 0.384,0.16 0.384,0.368 0,0.368 -0.360001,0.648 -0.84,0.648 -1.199999,0 -2.32,-1.168001 -2.32,-2.416 0,-0.759999 0.432001,-1.2 1.176,-1.2 0.591999,0 1.032001,0.248001 1.512,0.856 l -0.128,0.08" /><path
       inkscape:connector-curvature="0"
       id="path3329"
       style="font-size:8px;font-variant:normal;font-weight:normal;writing-mode:lr-tb;fill:#231f20;fill-opacity:1;fill-rule:nonzero;stroke:none;font-family:Times;-inkscape-font-specification:Times-Roman"
       d="m 3.68367,61.31039 -0.032,1.088 -0.088,0 -0.016,-0.016 c -0.072,-0.056 -0.08,-0.064 -0.112,-0.064 -0.048,0 -0.1280001,0.016 -0.216,0.056 -0.1759998,0.064 -0.3520002,0.096 -0.56,0.096 -0.6319994,0 -1.088,-0.408001 -1.088,-0.984 0,-0.448 0.2560007,-0.768 0.936,-1.152 l 0.464,-0.264 c 0.2799997,-0.16 0.416,-0.352 0.416,-0.6 0,-0.352 -0.2560004,-0.576 -0.664,-0.576 -0.2719997,0 -0.5200002,0.104 -0.672,0.28 -0.1679998,0.2 -0.2400001,0.384 -0.344,0.84 l -0.128,0 0,-1.248 0.104,0 c 0.056,0.08 0.088,0.096 0.184,0.096 0.072,0 0.1840002,-0.016 0.368,-0.064 0.2239998,-0.048 0.4400001,-0.08 0.584,-0.08 0.6159994,0 1.128,0.464001 1.128,1.024 0,0.4 -0.1920005,0.664 -0.672,0.952 l -0.864,0.512 c -0.2239998,0.128 -0.344,0.328 -0.344,0.544 0,0.32 0.2480004,0.544 0.616,0.544 0.4559995,0 0.6960002,-0.272001 0.88,-0.984 l 0.12,0" /><path
       inkscape:connector-curvature="0"
       id="path3331"
       style="font-size:8px;font-variant:normal;font-weight:normal;writing-mode:lr-tb;fill:#231f20;fill-opacity:1;fill-rule:nonzero;stroke:none;font-family:Times;-inkscape-font-specification:Times-Roman"
       d="m 8.10767,59.19839 -0.04,0 c -0.3679996,0 -0.456,0.088 -0.456,0.456 l 0,2.744 -1.264,0 0,-0.136 c 0.4959995,-0.024 0.592,-0.104 0.592,-0.504 l 0,-1.88 c 0,-0.224 -0.04,-0.336 -0.152,-0.424 -0.2159998,-0.176 -0.4640003,-0.272 -0.704,-0.272 -0.3119997,0 -0.568,0.272 -0.568,0.608 l 0,2.608 -1.168,0 0,-0.112 c 0.3839996,-0.024 0.496,-0.144 0.496,-0.512 l 0,-2.016 c 0,-0.631999 0.3840006,-1.04 0.968,-1.04 0.2959997,0 0.6080002,0.128 0.824,0.344 l 0.344,0.344 0,-0.664 0.032,-0.016 c 0.3999996,0.16 0.6880004,0.248 1.096,0.36 l 0,0.112" /><path
       inkscape:connector-curvature="0"
       id="path3333"
       style="font-size:8px;font-variant:normal;font-weight:normal;writing-mode:lr-tb;fill:#231f20;fill-opacity:1;fill-rule:nonzero;stroke:none;font-family:Times;-inkscape-font-specification:Times-Roman"
       d="m 8.34767,61.94239 c 0.072,0.008 0.1280001,0.008 0.2,0.008 0.2719997,0 0.328,-0.08 0.328,-0.456 l 0,-3.744 c 0,-0.416 -0.088,-0.504 -0.56,-0.552 l 0,-0.136 1.936,0 0,0.144 c -0.5999994,0.008 -0.704,0.096 -0.704,0.6 l 0,1.256 c 0.2799997,-0.264 0.472,-0.344 0.808,-0.344 0.943999,0 1.68,0.896001 1.68,2.056 0,0.991999 -0.560001,1.704 -1.336,1.704 -0.448,0 -0.8000004,-0.2 -1.152,-0.632 l 0,0.616 -0.048,0.016 c -0.4319996,-0.168 -0.7120005,-0.272 -1.152,-0.408 l 0,-0.128 m 1.2,-0.472 c 0,0.24 0.4480004,0.528 0.816,0.528 0.591999,0 0.984,-0.608001 0.984,-1.536 0,-0.887999 -0.392001,-1.488 -0.968,-1.488 -0.376,0 -0.832,0.288 -0.832,0.528 l 0,1.968" /><path
       inkscape:connector-curvature="0"
       id="path3335"
       style="font-size:8px;font-variant:normal;font-weight:normal;writing-mode:lr-tb;fill:#231f20;fill-opacity:1;fill-rule:nonzero;stroke:none;font-family:Times;-inkscape-font-specification:Times-Roman"
       d="m 12.34767,61.94239 c 0.072,0.008 0.128001,0.008 0.2,0.008 0.272,0 0.328,-0.08 0.328,-0.456 l 0,-3.744 c 0,-0.416 -0.088,-0.504 -0.56,-0.552 l 0,-0.136 1.936,0 0,0.144 c -0.599999,0.008 -0.704,0.096 -0.704,0.6 l 0,1.256 c 0.28,-0.264 0.472001,-0.344 0.808,-0.344 0.944,0 1.68,0.896001 1.68,2.056 0,0.991999 -0.56,1.704 -1.336,1.704 -0.447999,0 -0.8,-0.2 -1.152,-0.632 l 0,0.616 -0.048,0.016 c -0.431999,-0.168 -0.712,-0.272 -1.152,-0.408 l 0,-0.128 m 1.2,-0.472 c 0,0.24 0.448001,0.528 0.816,0.528 0.592,0 0.984,-0.608001 0.984,-1.536 0,-0.887999 -0.392,-1.488 -0.968,-1.488 -0.375999,0 -0.832,0.288 -0.832,0.528 l 0,1.968" /><path
       inkscape:connector-curvature="0"
       id="path3337"
       style="font-size:8px;font-variant:normal;font-weight:normal;writing-mode:lr-tb;fill:#231f20;fill-opacity:1;fill-rule:nonzero;stroke:none;font-family:Times;-inkscape-font-specification:Times-Roman"
       d="m 16.42767,63.78239 0.048,0 c 0.088,0.008 0.184001,0.016 0.248,0.016 0.256,0 0.336,-0.112 0.336,-0.488 l 0,-3.816 c 0,-0.432 -0.112,-0.536 -0.616,-0.576 l 0,-0.12 1.888,0 0,0.12 c -0.503999,0.032 -0.6,0.112 -0.6,0.552 l 0,4.776 -0.032,0.016 c -0.415999,-0.136 -0.72,-0.216 -1.272,-0.352 l 0,-0.128" /><path
       inkscape:connector-curvature="0"
       id="path3339"
       style="font-size:8px;font-variant:normal;font-weight:normal;writing-mode:lr-tb;fill:#231f20;fill-opacity:1;fill-rule:nonzero;stroke:none;font-family:Times;-inkscape-font-specification:Times-Roman"
       d="m 22.29967,62.39839 -1.08,0 0,-0.12 c 0.256,0 0.384,-0.072 0.384,-0.2 0,-0.032 -0.008,-0.08 -0.032,-0.136 l -0.776,-2.208 -0.92,2.024 c -0.048,0.112 -0.08,0.216 -0.08,0.304 0,0.144 0.120001,0.2 0.464,0.216 l 0,0.12 -1.648,0 0,-0.112 c 0.208,-0.032 0.344001,-0.12 0.408,-0.256 l 0.912,-1.968 0.024,-0.064 0.12,-0.24 c 0.224,-0.4 0.352,-0.688 0.352,-0.808 0,-0.12 -0.184,-0.624 -0.32,-0.864 -0.111999,-0.208 -0.288,-0.36 -0.4,-0.36 -0.048,0 -0.12,0.016 -0.2,0.056 -0.151999,0.056 -0.288,0.088 -0.424,0.088 -0.183999,0 -0.344,-0.16 -0.344,-0.352 0,-0.264 0.256001,-0.464 0.592,-0.464 0.536,0 0.920001,0.448001 1.352,1.6 l 1.232,3.264 c 0.104,0.256 0.192001,0.336 0.384,0.36 l 0,0.12" /><path
       inkscape:connector-curvature="0"
       id="path32"
       style="fill:none;stroke:#231f20;stroke-width:0.8;stroke-linecap:round;stroke-linejoin:round;stroke-miterlimit:3.87418461;stroke-opacity:1;stroke-dasharray:none"
       d="m 248.638,64.3629 0,-59.88282" /><path
       inkscape:connector-curvature="0"
       id="path36"
       style="fill:#ffffff;fill-opacity:1;fill-rule:nonzero;stroke:none"
       d="m 73.5688,70.8551 7.20664,0 0,15.5 -7.20664,0 0,-15.5 z" /><path
       inkscape:connector-curvature="0"
       id="path38"
       style="fill:none;stroke:#231f20;stroke-width:0.80000001;stroke-linecap:round;stroke-linejoin:round;stroke-miterlimit:3.87418461;stroke-opacity:1;stroke-dasharray:none"
       d="m 76.941648,22.53641 0,19.360537" /><path
       inkscape:connector-curvature="0"
       id="path40"
       style="fill:none;stroke:#231f20;stroke-width:0.80000001;stroke-linecap:round;stroke-linejoin:round;stroke-miterlimit:3.87418461;stroke-opacity:1;stroke-dasharray:none"
       d="m 76.937586,22.4137 93.789764,0" /><path
       inkscape:connector-curvature="0"
       id="path42"
       style="fill:none;stroke:#231f20;stroke-width:0.80000001;stroke-linecap:round;stroke-linejoin:round;stroke-miterlimit:3.87418461;stroke-opacity:1;stroke-dasharray:none"
       d="m 76.949371,106.915 94.045029,0" /><path
       inkscape:connector-curvature="0"
       id="path44"
       style="fill:none;stroke:#231f20;stroke-width:0.8;stroke-linecap:round;stroke-linejoin:round;stroke-miterlimit:3.87418461;stroke-opacity:1;stroke-dasharray:none"
       d="M 212.941,64.6277 170.728,22.4156 128.77,64.3629 170.993,106.575 212.941,64.6277 z" /><path
       inkscape:connector-curvature="0"
       id="path46"
       style="fill:none;stroke:#231f20;stroke-width:0.8;stroke-linecap:round;stroke-linejoin:round;stroke-miterlimit:3.87418461;stroke-opacity:1;stroke-dasharray:none"
       d="m 311.8,4.48008 -183.03,0 0,59.88282" /><path
       inkscape:connector-curvature="0"
       id="path48"
       style="fill:none;stroke:#231f20;stroke-width:0.8;stroke-linecap:round;stroke-linejoin:round;stroke-miterlimit:3.87418461;stroke-opacity:1;stroke-dasharray:none"
       d="m 212.676,64.3629 99.124,0" /><path
       inkscape:connector-curvature="0"
       id="path3342"
       style="font-size:8px;font-style:italic;font-variant:normal;writing-mode:lr-tb;fill:#231f20;fill-opacity:1;fill-rule:nonzero;stroke:none;font-family:Times;-inkscape-font-specification:Times-Italic"
       d="m 259.655,34.1796 c -0.352,0.024 -0.512,0.16 -0.664,0.576 l -0.744,1.96 c 0.616,0.136 0.88,0.248 1.168,0.504 0.264,0.232 0.408,0.544 0.408,0.904 0,0.743999 -0.592,1.152 -1.664,1.152 l -1.984,0 0,-0.128 c 0.336,-0.048 0.376,-0.056 0.456,-0.112 0.064,-0.04 0.112,-0.136 0.112,-0.224 0,-0.096 -0.04,-0.288 -0.096,-0.504 l -0.984,-3.536 c -0.144,-0.472 -0.2,-0.52 -0.648,-0.592 l 0,-0.128 1.952,0 0,0.128 c -0.488,0.064 -0.544,0.104 -0.544,0.368 0,0.08 0.024,0.184 0.096,0.464 l 0.448,1.672 0.52,-0.04 0.984,-2.592 1.184,0 0,0.128 m -2.072,4.632 c 0.048,0.168 0.152,0.224 0.408,0.224 0.664,0 0.992,-0.304001 0.992,-0.896 0,-0.791999 -0.512,-1.2 -1.512,-1.2 -0.128,0 -0.216,0.008 -0.408,0.04 l 0.52,1.832" /><path
       inkscape:connector-curvature="0"
       id="path3345"
       style="font-size:6px;font-style:italic;font-variant:normal;writing-mode:lr-tb;fill:#231f20;fill-opacity:1;fill-rule:nonzero;stroke:none;font-family:Times;-inkscape-font-specification:Times-Italic"
       d="m 262.42489,35.9696 -1.638,0 0,-0.096 c 0.372,-0.036 0.462,-0.084 0.462,-0.258 0,-0.084 -0.024,-0.222 -0.066,-0.372 l -0.738,-2.652 c -0.108,-0.348 -0.15,-0.384 -0.486,-0.444 l 0,-0.096 3.054,0 0.348,1.074 -0.12,0.036 c -0.21,-0.432 -0.372,-0.624 -0.636,-0.756 -0.21,-0.102 -0.456,-0.138 -0.978,-0.138 -0.456,0 -0.606,0.048 -0.606,0.204 0,0.042 0.03,0.186 0.06,0.3 l 0.738,2.658 c 0.09,0.306 0.246,0.42 0.606,0.444 l 0,0.096" /><path
       inkscape:connector-curvature="0"
       id="path3348"
       style="font-size:9px;font-style:italic;font-variant:normal;writing-mode:lr-tb;fill:#231f20;fill-opacity:1;fill-rule:nonzero;stroke:none;font-family:Times;-inkscape-font-specification:Times-Italic"
       d="m 254.22872,54.019 c -0.216,-0.288 -0.279,-0.36 -0.369,-0.459 -0.153,-0.153 -0.288,-0.243 -0.369,-0.243 -0.072,0 -0.144,0.072 -0.144,0.135 0,0.09 0.027,0.225 0.09,0.396 0,0.027 0.027,0.09 0.045,0.162 l 0,0.018 0.009,0.018 0.792,2.898 -0.027,0.018 c -0.909,-0.171 -1.089,-0.198 -1.44,-0.225 l 0,-0.144 c 0.477,-0.009 0.567,-0.036 0.567,-0.216 0,-0.072 -0.027,-0.216 -0.081,-0.396 l -0.432,-1.593 c -0.144,-0.521999 -0.198,-0.801 -0.198,-0.981 0,-0.333 0.144,-0.513 0.414,-0.513 0.414,0 0.747,0.270001 1.26,1.026 l -0.117,0.099 m -0.072,4.86 c -0.243,0 -0.423,-0.207 -0.423,-0.477 0,-0.288 0.171,-0.477 0.432,-0.477 0.234,0 0.441,0.207 0.441,0.459 0,0.261 -0.207,0.495 -0.45,0.495" /><path
       inkscape:connector-curvature="0"
       id="path3351"
       style="font-size:6px;font-style:italic;font-variant:normal;writing-mode:lr-tb;fill:#231f20;fill-opacity:1;fill-rule:nonzero;stroke:none;font-family:Times;-inkscape-font-specification:Times-Italic"
       d="m 257.15106,54.911 -1.638,0 0,-0.096 c 0.372,-0.036 0.462,-0.084 0.462,-0.258 0,-0.084 -0.024,-0.222 -0.066,-0.372 l -0.738,-2.652 c -0.108,-0.348 -0.15,-0.384 -0.486,-0.444 l 0,-0.096 3.054,0 0.348,1.074 -0.12,0.036 c -0.21,-0.432 -0.372,-0.624 -0.636,-0.756 -0.21,-0.102 -0.456,-0.138 -0.978,-0.138 -0.456,0 -0.606,0.048 -0.606,0.204 0,0.042 0.03,0.186 0.06,0.3 l 0.738,2.658 c 0.09,0.306 0.246,0.42 0.606,0.444 l 0,0.096" /><path
       inkscape:connector-curvature="0"
       id="path68"
       style="fill:#ffffff;fill-opacity:1;fill-rule:nonzero;stroke:none"
       d="m 148.842,96.9855 12.52,-12.5199 -9.47,-9.4703 -12.52,12.5199 9.47,9.4703" /><path
       inkscape:connector-curvature="0"
       id="path70"
       style="fill:none;stroke:#231f20;stroke-width:0.80000001;stroke-linecap:round;stroke-linejoin:round;stroke-miterlimit:3.86369991;stroke-opacity:1;stroke-dasharray:none"
       d="m 154.728,90.3508 -3.845,-14.3465 -10.501,10.502 14.346,3.8445 z" /><path
       inkscape:connector-curvature="0"
       id="path72"
       style="fill:none;stroke:#231f20;stroke-width:0.80000001;stroke-linecap:round;stroke-linejoin:round;stroke-miterlimit:3.86369991;stroke-opacity:1;stroke-dasharray:none"
       d="M 149.902,95.9254 160.459,85.368" /><path
       inkscape:connector-curvature="0"
       id="path74"
       style="fill:#ffffff;fill-opacity:1;fill-rule:nonzero;stroke:none"
       d="m 190.767,55.0613 12.52,-12.5207 -9.47,-9.4695 -12.52,12.5203 9.47,9.4699" /><path
       inkscape:connector-curvature="0"
       id="path76"
       style="fill:none;stroke:#231f20;stroke-width:0.80000001;stroke-linecap:round;stroke-linejoin:round;stroke-miterlimit:3.86369991;stroke-opacity:1;stroke-dasharray:none"
       d="m 196.653,48.4266 -3.845,-14.3469 -10.501,10.5019 14.346,3.845 z" /><path
       inkscape:connector-curvature="0"
       id="path78"
       style="fill:none;stroke:#231f20;stroke-width:0.80000001;stroke-linecap:round;stroke-linejoin:round;stroke-miterlimit:3.86369991;stroke-opacity:1;stroke-dasharray:none"
       d="M 191.827,54.0016 202.384,43.443" /><path
       inkscape:connector-curvature="0"
       id="path80"
       style="fill:#ffffff;fill-opacity:1;fill-rule:nonzero;stroke:none"
       d="m 161.023,44.7203 -12.52,-12.5195 -9.47,9.4699 12.52,12.5195 9.47,-9.4699" /><path
       inkscape:connector-curvature="0"
       id="path82"
       style="fill:none;stroke:#231f20;stroke-width:0.80000001;stroke-linecap:round;stroke-linejoin:round;stroke-miterlimit:3.86369991;stroke-opacity:1;stroke-dasharray:none"
       d="m 154.389,38.8348 -14.347,3.8445 10.501,10.5012 3.846,-14.3457 z" /><path
       inkscape:connector-curvature="0"
       id="path84"
       style="fill:none;stroke:#231f20;stroke-width:0.80000001;stroke-linecap:round;stroke-linejoin:round;stroke-miterlimit:3.86369991;stroke-opacity:1;stroke-dasharray:none"
       d="M 159.964,43.6609 149.406,33.1043" /><path
       inkscape:connector-curvature="0"
       id="path86"
       style="fill:#ffffff;fill-opacity:1;fill-rule:nonzero;stroke:none"
       d="m 203.161,86.857 -12.52,-12.5195 -9.471,9.4699 12.52,12.5196 9.471,-9.47" /><path
       inkscape:connector-curvature="0"
       id="path88"
       style="fill:none;stroke:#231f20;stroke-width:0.80000001;stroke-linecap:round;stroke-linejoin:round;stroke-miterlimit:3.86369991;stroke-opacity:1;stroke-dasharray:none"
       d="m 196.526,80.9715 -14.347,3.8445 10.501,10.5012 3.846,-14.3457 z" /><path
       inkscape:connector-curvature="0"
       id="path90"
       style="fill:none;stroke:#231f20;stroke-width:0.80000001;stroke-linecap:round;stroke-linejoin:round;stroke-miterlimit:3.86369991;stroke-opacity:1;stroke-dasharray:none"
       d="M 202.102,85.7977 191.543,75.241" /><path
       inkscape:connector-curvature="0"
       id="path92"
       style="fill:#ffffff;fill-opacity:1;fill-rule:nonzero;stroke:none"
       d="m 244.855,18.3074 7.46875,0 0,32.4512 -7.46875,0 0,-32.4512 z" /><path
       inkscape:connector-curvature="0"
       id="path94"
       style="fill:none;stroke:#231f20;stroke-width:0.80000001;stroke-linecap:round;stroke-linejoin:round;stroke-miterlimit:3.86369991;stroke-opacity:1;stroke-dasharray:none"
       d="m 248.64868,18.0848 0,3.6121 -3.699,1.5703 7.469,3.1496 -7.469,3.1953 7.469,3.1973 -7.469,3.1504 7.469,3.123 -7.469,3.1504 7.373,3.1973 -3.674,1.5293 0,3.7988" /><path
       inkscape:connector-curvature="0"
       id="path96"
       style="fill:none;stroke:#231f20;stroke-width:0.80000001;stroke-linecap:round;stroke-linejoin:round;stroke-miterlimit:3.87418461;stroke-opacity:1;stroke-dasharray:none"
       d="m 47.58056,41.1969 0,-18.4063" /><path
       inkscape:connector-curvature="0"
       id="path98"
       style="fill:none;stroke:#231f20;stroke-width:0.8;stroke-linecap:round;stroke-linejoin:round;stroke-miterlimit:3.87418461;stroke-opacity:1;stroke-dasharray:none"
       d="m 47.7699,106.946 0,-50.3741" /><path
       inkscape:connector-curvature="0"
       id="path100"
       style="fill:none;stroke:#231f20;stroke-width:0.8;stroke-linecap:round;stroke-linejoin:round;stroke-miterlimit:3.87418461;stroke-opacity:1;stroke-dasharray:none"
       d="m 47.7984,106.915 -35.5488,0" /><path
       inkscape:connector-curvature="0"
       id="path102"
       style="fill:none;stroke:#231f20;stroke-width:0.80000001;stroke-linecap:round;stroke-linejoin:round;stroke-miterlimit:3.87418461;stroke-opacity:1;stroke-dasharray:none"
       d="m 47.566663,22.7516 -35.586422,0" /><path
       inkscape:connector-curvature="0"
       id="path118"
       style="fill:url(#linearGradient3676);fill-opacity:1;fill-rule:nonzero;stroke:none"
       d="m 61.9898,91.3762 0,-51.2555" /><path
       inkscape:connector-curvature="0"
       id="path120"
       style="fill:none;stroke:#231f20;stroke-width:1;stroke-linecap:round;stroke-linejoin:round;stroke-miterlimit:3.86369991;stroke-opacity:1;stroke-dasharray:none"
       d="m 61.9898,91.3762 0,-51.2555" /><path
       inkscape:connector-curvature="0"
       id="path136"
       style="fill:url(#linearGradient3681);fill-opacity:1;fill-rule:nonzero;stroke:none"
       d="m 64.8727,91.3762 0,-51.2555" /><path
       inkscape:connector-curvature="0"
       id="path138"
       style="fill:none;stroke:#231f20;stroke-width:1;stroke-linecap:round;stroke-linejoin:round;stroke-miterlimit:3.86369991;stroke-opacity:1;stroke-dasharray:none"
       d="m 64.8727,91.3762 0,-51.2555" /><path
       inkscape:connector-curvature="0"
       id="path154"
       style="fill:url(#linearGradient3686);fill-opacity:1;fill-rule:nonzero;stroke:none"
       d="m 59.107,91.3762 0,-51.2555" /><path
       inkscape:connector-curvature="0"
       id="path156"
       style="fill:none;stroke:#231f20;stroke-width:1;stroke-linecap:round;stroke-linejoin:round;stroke-miterlimit:3.86369991;stroke-opacity:1;stroke-dasharray:none"
       d="m 59.107,91.3762 0,-51.2555" /><path
       inkscape:connector-curvature="0"
       id="path3354"
       style="font-size:8px;font-style:italic;font-variant:normal;writing-mode:lr-tb;fill:#231f20;fill-opacity:1;fill-rule:nonzero;stroke:none;font-family:Times;-inkscape-font-specification:Times-Italic"
       d="m 47.4534,109.795 c -0.456,0.04 -0.504,0.104 -0.608,0.688 l -0.752,4.528 -0.208,0 -2.32,-4 c -0.631999,-1.064 -0.712,-1.152 -1.032,-1.216 l 0,-0.128 1.496,0 0,0.128 c -0.408,0.04 -0.472,0.08 -0.472,0.28 0,0.152 0.024,0.224 0.16,0.496 l 0.456,0.904 1.76,0 0.16,-1.048 c 0.008,-0.072 0.016,-0.144 0.016,-0.208 0,-0.304 -0.112001,-0.376 -0.624,-0.424 l 0,-0.128 1.968,0 0,0.128 m -3.112,1.968 1.2,2.08 0.352,-2.08 -1.552,0" /><path
       inkscape:connector-curvature="0"
       id="path3356"
       style="font-size:8px;font-style:italic;font-variant:normal;writing-mode:lr-tb;fill:#231f20;fill-opacity:1;fill-rule:nonzero;stroke:none;font-family:Times;-inkscape-font-specification:Times-Italic"
       d="m 42.8774,13.100998 2.256,0 c 1.255999,0 2.12,0.656001 2.12,1.6 0,0.296 -0.096,0.576 -0.272,0.752 -0.16,0.184 -0.32,0.28 -0.736,0.456 0.567999,0.136 0.8,0.232 1.056,0.456 0.224,0.192 0.344,0.464 0.344,0.784 0,0.759999 -0.568001,1.176 -1.6,1.176 l -2.064,0 0,-0.128 c 0.496,-0.04 0.616,-0.104 0.616,-0.328 0,-0.12 -0.032,-0.32 -0.088,-0.512 l -0.984,-3.536 c -0.144,-0.463999 -0.2,-0.512 -0.648,-0.592 l 0,-0.128 m 1.968,2.648 c 0.52,0 0.856,-0.032 1.016,-0.096 0.328,-0.136 0.528,-0.488 0.528,-0.92 0,-0.863999 -0.592001,-1.392 -1.568,-1.392 -0.336,0 -0.512,0.12 -0.512,0.336 0,0.096 0.096,0.480001 0.28,1.12 0.104,0.36 0.152,0.544001 0.256,0.952 m 0.6,2.112 c 0.048,0.176 0.144,0.224 0.456,0.224 0.639999,0 0.936,-0.272 0.936,-0.864 0,-0.455999 -0.192,-0.808 -0.536,-1 -0.272,-0.16 -0.656001,-0.216 -1.376,-0.216 l 0.52,1.856" /><path
       inkscape:connector-curvature="0"
       id="path3358"
       style="font-size:8px;font-style:italic;font-variant:normal;writing-mode:lr-tb;fill:#231f20;fill-opacity:1;fill-rule:nonzero;stroke:none;font-family:Times;-inkscape-font-specification:Times-Italic"
       d="m 34.46487,67.1527 c 0.088,0.008 0.152,0.008 0.24,0.008 0.311999,0 0.392,-0.136001 0.504,-0.872 0.08,-0.552 0.176,-1.760001 0.176,-2.224 0,-0.224 0.016,-0.28 0.072,-0.28 0.199999,0 0.944001,0.848001 1.76,1.984 0.279999,0.399999 0.488,0.92 0.488,1.216 0,0.255999 -0.208,0.472 -0.448,0.472 -0.176,0 -0.296,-0.104 -0.296,-0.272 0,-0.128 0.048,-0.224 0.192,-0.352 0.104,-0.096 0.144,-0.16 0.144,-0.24 0,-0.368 -0.528001,-1.256001 -1.096,-1.848 l -0.248,-0.256 c -0.056,1.127999 -0.104,1.544 -0.208,2.136 -0.16,0.815999 -0.16,0.832 -0.232,0.832 -0.04,0 -0.096,-0.008 -0.16,-0.032 -0.144,-0.04 -0.584001,-0.12 -0.888,-0.168 l 0,-0.104" /><path
       inkscape:connector-curvature="0"
       id="path3361"
       style="font-size:6px;font-variant:normal;font-weight:normal;writing-mode:lr-tb;fill:#231f20;fill-opacity:1;fill-rule:nonzero;stroke:none;font-family:Times;-inkscape-font-specification:Times-Roman"
       d="m 39.59443,65.9847 -1.08,-0.546 0,-0.084 c 0.072,0.03 0.138,0.054 0.162,0.066 0.108,0.042 0.21,0.066 0.27,0.066 0.126,0 0.18,-0.09 0.18,-0.282 l 0,-2.718 c 0,-0.198 -0.048,-0.336 -0.144,-0.39 -0.09,-0.054 -0.174,-0.072 -0.426,-0.078 l 0,-0.09 1.656,0 0,0.09 c -0.474,0.006 -0.57,0.066 -0.57,0.354 l 0,3.6 -0.048,0.012" /><path
       inkscape:connector-curvature="0"
       id="path3364"
       style="font-size:8px;font-style:italic;font-variant:normal;writing-mode:lr-tb;fill:#231f20;fill-opacity:1;fill-rule:nonzero;stroke:none;font-family:Times;-inkscape-font-specification:Times-Italic"
       d="m 83.68203,68.42301 c 0.088,0.008 0.152,0.008 0.24,0.008 0.312,0 0.392,-0.136001 0.504,-0.872 0.08,-0.551999 0.176,-1.76 0.176,-2.224 0,-0.224 0.016,-0.28 0.072,-0.28 0.2,0 0.944001,0.848001 1.76,1.984 0.28,0.4 0.488,0.92 0.488,1.216 0,0.256 -0.208,0.472 -0.448,0.472 -0.176,0 -0.296,-0.104 -0.296,-0.272 0,-0.128 0.048,-0.224 0.192,-0.352 0.104,-0.096 0.144,-0.16 0.144,-0.24 0,-0.368 -0.528001,-1.256001 -1.096,-1.848 l -0.248,-0.256 c -0.056,1.127999 -0.104,1.544001 -0.208,2.136 -0.16,0.815999 -0.16,0.832 -0.232,0.832 -0.04,0 -0.096,-0.008 -0.16,-0.032 -0.144,-0.04 -0.584,-0.12 -0.888,-0.168 l 0,-0.104" /><path
       inkscape:connector-curvature="0"
       id="path3367"
       style="font-size:6px;font-variant:normal;font-weight:normal;writing-mode:lr-tb;fill:#231f20;fill-opacity:1;fill-rule:nonzero;stroke:none;font-family:Times;-inkscape-font-specification:Times-Roman"
       d="m 89.91598,64.02101 -0.078,0.03 c -0.222,-0.342 -0.3,-0.396 -0.57,-0.396 l -1.434,0 1.008,1.056 c 0.533999,0.557999 0.768,1.014 0.768,1.482 0,0.599999 -0.486001,1.062 -1.11,1.062 -0.33,0 -0.642,-0.132 -0.864,-0.372 -0.192,-0.204 -0.282,-0.396 -0.384,-0.822 l 0.126,-0.03 c 0.24,0.587999 0.456,0.78 0.87,0.78 0.503999,0 0.846,-0.342001 0.846,-0.846 0,-0.467999 -0.276001,-1.026001 -0.78,-1.56 l -1.068,-1.134 0,-0.072 2.34,0 0.33,0.822" /><path
       inkscape:connector-curvature="0"
       id="path3370"
       style="font-size:8px;font-style:italic;font-variant:normal;writing-mode:lr-tb;fill:#231f20;fill-opacity:1;fill-rule:nonzero;stroke:none;font-family:Times;-inkscape-font-specification:Times-Italic"
       d="m 311.52798,34.36751 c 0.088,0.008 0.152,0.008 0.24,0.008 0.312,0 0.392,-0.136001 0.504,-0.872 0.08,-0.551999 0.176,-1.76 0.176,-2.224 0,-0.224 0.016,-0.28 0.072,-0.28 0.2,0 0.944,0.848001 1.76,1.984 0.28,0.4 0.488,0.92 0.488,1.216 0,0.256 -0.208,0.472 -0.448,0.472 -0.176,0 -0.296,-0.104 -0.296,-0.272 0,-0.128 0.048,-0.224 0.192,-0.352 0.104,-0.096 0.144,-0.16 0.144,-0.24 0,-0.368 -0.528,-1.256001 -1.096,-1.848 l -0.248,-0.256 c -0.056,1.127999 -0.104,1.544001 -0.208,2.136 -0.16,0.815999 -0.16,0.832 -0.232,0.832 -0.04,0 -0.096,-0.008 -0.16,-0.032 -0.144,-0.04 -0.584,-0.12 -0.888,-0.168 l 0,-0.104" /><path
       inkscape:connector-curvature="0"
       id="path3373"
       style="font-size:6px;font-style:italic;font-variant:normal;writing-mode:lr-tb;fill:#231f20;fill-opacity:1;fill-rule:nonzero;stroke:none;font-family:Times;-inkscape-font-specification:Times-Italic"
       d="m 316.86193,31.78951 c -0.9,0 -1.788,-0.930001 -1.788,-1.872 0,-0.515999 0.336,-0.84 0.882,-0.84 0.396,0 0.78,0.18 1.128,0.522 0.396,0.39 0.636,0.9 0.636,1.35 0,0.497999 -0.348,0.84 -0.858,0.84 m -0.072,-0.126 c 0.258,0 0.426,-0.222 0.426,-0.564 0,-0.438 -0.198,-1.038 -0.462,-1.428 -0.222,-0.318 -0.45,-0.468 -0.708,-0.468 -0.282,0 -0.468,0.216 -0.468,0.546 0,0.444 0.174,0.972 0.468,1.398 0.234,0.336 0.486,0.516 0.744,0.516" /><path
       inkscape:connector-curvature="0"
       id="path3376"
       style="font-size:8px;font-style:italic;font-variant:normal;writing-mode:lr-tb;fill:#231f20;fill-opacity:1;fill-rule:nonzero;stroke:none;font-family:Times;-inkscape-font-specification:Times-Italic"
       d="m 80.63193,113.38691 0.296,1.592 -0.168,0 c -0.064,-0.128 -0.144,-0.176 -0.304,-0.176 -0.064,0 -0.16,0.016 -0.328,0.056 -0.36,0.088 -0.68,0.136 -0.936,0.136 -1.703998,0 -3.248,-1.608 -3.248,-3.384 0,-1.224 0.864001,-2.088 2.088,-2.088 0.823999,0 1.464001,0.352 2.184,1.192 l -0.136,0.112 c -0.719999,-0.704 -1.184001,-0.944 -1.84,-0.944 -0.887999,0 -1.4,0.608 -1.4,1.64 0,0.952 0.384001,1.92 1.008,2.568 0.384,0.392 0.888001,0.616 1.416,0.616 0.735999,0 1.144,-0.432 1.224,-1.296 l 0.144,-0.024" /><path
       inkscape:connector-curvature="0"
       id="path3378"
       style="font-size:8px;font-style:italic;font-variant:normal;writing-mode:lr-tb;fill:#231f20;fill-opacity:1;fill-rule:nonzero;stroke:none;font-family:Times;-inkscape-font-specification:Times-Italic"
       d="m 76.236008,18.196908 c 0.496,-0.048 0.616,-0.112 0.616,-0.328 0,-0.12 -0.032,-0.312 -0.088,-0.512 l -0.984,-3.536 c -0.144,-0.463999 -0.2,-0.512 -0.648,-0.592 l 0,-0.128 2.024,0 c 0.935999,0 1.792001,0.248001 2.408,0.696 0.775999,0.568 1.232,1.448001 1.232,2.376 0,1.311999 -0.912001,2.152 -2.336,2.152 l -2.224,0 0,-0.128 m 1.464,-0.344 c 0.048,0.176 0.168,0.232 0.488,0.232 0.455999,0 0.856,-0.104 1.112,-0.296 0.392,-0.288 0.608,-0.792001 0.608,-1.424 0,-0.863999 -0.336001,-1.76 -0.88,-2.304 -0.471999,-0.479999 -1.120001,-0.72 -1.952,-0.72 -0.368,0 -0.52,0.088 -0.52,0.296 0,0.104 0.04,0.280001 0.176,0.76 l 0.968,3.456" /><path
       inkscape:connector-curvature="0"
       id="path3380"
       style="font-size:8px;font-style:italic;font-variant:normal;writing-mode:lr-tb;fill:#231f20;fill-opacity:1;fill-rule:nonzero;stroke:none;font-family:Times;-inkscape-font-specification:Times-Italic"
       d="m 198.90201,96.78441 c 0.496,-0.048 0.616,-0.112001 0.616,-0.328 0,-0.12 -0.032,-0.312001 -0.088,-0.512 l -0.984,-3.536 c -0.144,-0.464 -0.2,-0.512 -0.648,-0.592 l 0,-0.128 2.024,0 c 0.936,0 1.792,0.248 2.408,0.696 0.776,0.567999 1.232,1.448001 1.232,2.376 0,1.311998 -0.912,2.152 -2.336,2.152 l -2.224,0 0,-0.128 m 1.464,-0.344 c 0.048,0.175999 0.168,0.232 0.488,0.232 0.456,0 0.856,-0.104001 1.112,-0.296 0.392,-0.288 0.608,-0.792001 0.608,-1.424 0,-0.864 -0.336,-1.760001 -0.88,-2.304 -0.472,-0.48 -1.12,-0.72 -1.952,-0.72 -0.368,0 -0.52,0.088 -0.52,0.296 0,0.104 0.04,0.28 0.176,0.76 l 0.968,3.456" /><path
       inkscape:connector-curvature="0"
       id="path3383"
       style="font-size:6px;font-variant:normal;font-weight:normal;writing-mode:lr-tb;fill:#231f20;fill-opacity:1;fill-rule:nonzero;stroke:none;font-family:Times;-inkscape-font-specification:Times-Roman"
       d="m 205.38418,93.74441 -1.08,-0.546 0,-0.084 c 0.072,0.03 0.138,0.054 0.162,0.066 0.108,0.042 0.21,0.066 0.27,0.066 0.126,0 0.18,-0.09 0.18,-0.282 l 0,-2.718 c 0,-0.198 -0.048,-0.336 -0.144,-0.39 -0.09,-0.054 -0.174,-0.072 -0.426,-0.078 l 0,-0.09 1.656,0 0,0.09 c -0.474,0.006 -0.57,0.066 -0.57,0.354 l 0,3.6 -0.048,0.012" /><path
       inkscape:connector-curvature="0"
       id="path3386"
       style="font-size:8px;font-style:italic;font-variant:normal;writing-mode:lr-tb;fill:#231f20;fill-opacity:1;fill-rule:nonzero;stroke:none;font-family:Times;-inkscape-font-specification:Times-Italic"
       d="m 138.35008,36.23171 c 0.496,-0.048 0.616,-0.112 0.616,-0.328 0,-0.12 -0.032,-0.312 -0.088,-0.512 l -0.984,-3.536 c -0.144,-0.464 -0.2,-0.512 -0.648,-0.592 l 0,-0.128 2.024,0 c 0.936,0 1.792,0.248 2.408,0.696 0.776,0.567999 1.232,1.448001 1.232,2.376 0,1.311999 -0.912,2.152 -2.336,2.152 l -2.224,0 0,-0.128 m 1.464,-0.344 c 0.048,0.176 0.168,0.232 0.488,0.232 0.456,0 0.856,-0.104 1.112,-0.296 0.392,-0.288 0.608,-0.792001 0.608,-1.424 0,-0.863999 -0.336,-1.76 -0.88,-2.304 -0.472,-0.48 -1.12,-0.72 -1.952,-0.72 -0.368,0 -0.52,0.088 -0.52,0.296 0,0.104 0.04,0.28 0.176,0.76 l 0.968,3.456" /><path
       inkscape:connector-curvature="0"
       id="path3389"
       style="font-size:6px;font-variant:normal;font-weight:normal;writing-mode:lr-tb;fill:#231f20;fill-opacity:1;fill-rule:nonzero;stroke:none;font-family:Times;-inkscape-font-specification:Times-Roman"
       d="m 145.93625,29.95771 -0.078,0.03 c -0.222,-0.342 -0.3,-0.396 -0.57,-0.396 l -1.434,0 1.008,1.056 c 0.534,0.557999 0.768,1.014 0.768,1.482 0,0.599999 -0.486,1.062 -1.11,1.062 -0.33,0 -0.642,-0.132 -0.864,-0.372 -0.192,-0.204 -0.282,-0.396 -0.384,-0.822 l 0.126,-0.03 c 0.24,0.587999 0.456,0.78 0.87,0.78 0.504,0 0.846,-0.342001 0.846,-0.846 0,-0.468 -0.276,-1.026001 -0.78,-1.56 l -1.068,-1.134 0,-0.072 2.34,0 0.33,0.822" /><path
       inkscape:connector-curvature="0"
       id="path3392"
       style="font-size:8px;font-style:italic;font-variant:normal;writing-mode:lr-tb;fill:#231f20;fill-opacity:1;fill-rule:nonzero;stroke:none;font-family:Times;-inkscape-font-specification:Times-Italic"
       d="m 136.15906,97.87311 c 0.496,-0.048 0.616,-0.112 0.616,-0.328 0,-0.12 -0.032,-0.312 -0.088,-0.512 l -0.984,-3.536 c -0.144,-0.464 -0.2,-0.512 -0.648,-0.592 l 0,-0.128 2.024,0 c 0.936,0 1.792,0.248 2.408,0.696 0.776,0.567999 1.232,1.448001 1.232,2.376 0,1.311999 -0.912,2.152 -2.336,2.152 l -2.224,0 0,-0.128 m 1.464,-0.344 c 0.048,0.176 0.168,0.232 0.488,0.232 0.456,0 0.856,-0.104 1.112,-0.296 0.392,-0.288 0.608,-0.792001 0.608,-1.424 0,-0.863999 -0.336,-1.760001 -0.88,-2.304 -0.472,-0.48 -1.12,-0.72 -1.952,-0.72 -0.368,0 -0.52,0.088 -0.52,0.296 0,0.104 0.04,0.28 0.176,0.76 l 0.968,3.456" /><path
       inkscape:connector-curvature="0"
       id="path3395"
       style="font-size:6px;font-variant:normal;font-weight:normal;writing-mode:lr-tb;fill:#231f20;fill-opacity:1;fill-rule:nonzero;stroke:none;font-family:Times;-inkscape-font-specification:Times-Roman"
       d="m 141.81323,92.75711 c 0.354,0 0.492,-0.012 0.636,-0.066 0.372,-0.132 0.606,-0.474 0.606,-0.888 0,-0.504 -0.342,-0.894 -0.786,-0.894 -0.162,0 -0.282,0.042 -0.504,0.186 -0.18,0.108 -0.282,0.15 -0.384,0.15 -0.138,0 -0.228,-0.084 -0.228,-0.21 0,-0.21 0.258,-0.342 0.678,-0.342 0.462,0 0.936,0.156 1.218,0.402 0.282,0.246 0.438,0.594 0.438,0.996 0,0.306 -0.096,0.588 -0.27,0.774 -0.12,0.132 -0.234,0.204 -0.498,0.318 0.414,0.282 0.564,0.504 0.564,0.828 0,0.485999 -0.384,0.822 -0.936,0.822 -0.3,0 -0.564,-0.102 -0.78,-0.294 -0.18,-0.162 -0.27,-0.318 -0.402,-0.678 l 0.09,-0.024 c 0.246,0.438 0.516,0.636 0.894,0.636 0.39,0 0.66,-0.264 0.66,-0.642 0,-0.216 -0.09,-0.432 -0.24,-0.582 -0.18,-0.18 -0.348,-0.27 -0.756,-0.414 l 0,-0.078" /><path
       inkscape:connector-curvature="0"
       id="path3398"
       style="font-size:8px;font-style:italic;font-variant:normal;writing-mode:lr-tb;fill:#231f20;fill-opacity:1;fill-rule:nonzero;stroke:none;font-family:Times;-inkscape-font-specification:Times-Italic"
       d="m 198.75513,38.97701 c 0.496,-0.048 0.616,-0.112 0.616,-0.328 0,-0.12 -0.032,-0.312 -0.088,-0.512 l -0.984,-3.536 c -0.144,-0.464 -0.2,-0.512 -0.648,-0.592 l 0,-0.128 2.024,0 c 0.936,0 1.792,0.248 2.408,0.696 0.776,0.567999 1.232,1.448001 1.232,2.376 0,1.311999 -0.912,2.152 -2.336,2.152 l -2.224,0 0,-0.128 m 1.464,-0.344 c 0.048,0.176 0.168,0.232 0.488,0.232 0.456,0 0.856,-0.104 1.112,-0.296 0.392,-0.288 0.608,-0.792001 0.608,-1.424 0,-0.863999 -0.336,-1.76 -0.88,-2.304 -0.472,-0.48 -1.12,-0.72 -1.952,-0.72 -0.368,0 -0.52,0.088 -0.52,0.296 0,0.104 0.04,0.28 0.176,0.76 l 0.968,3.456" /><path
       inkscape:connector-curvature="0"
       id="path3401"
       style="font-size:6px;font-variant:normal;font-weight:normal;writing-mode:lr-tb;fill:#231f20;fill-opacity:1;fill-rule:nonzero;stroke:none;font-family:Times;-inkscape-font-specification:Times-Roman"
       d="m 206.3233,33.26701 -0.612,0 0,2.67 -0.264,0 -1.884,-2.67 0,-0.384 1.686,0 0,-1.002 0.462,0 0,1.002 0.612,0 0,0.384 m -1.08,0 -1.44,0 1.44,2.058 0,-2.058" /><path
       inkscape:connector-curvature="0"
       id="path224"
       style="fill:#ffffff;fill-opacity:1;fill-rule:nonzero;stroke:none"
       d="m 43.9008,56.5719 7.62109,0 0,32.2934 -7.62109,0 0,-32.2934 z" /><path
       inkscape:connector-curvature="0"
       id="path226"
       style="fill:none;stroke:#231f20;stroke-width:0.80000001;stroke-linecap:round;stroke-linejoin:round;stroke-miterlimit:3.86369991;stroke-opacity:1;stroke-dasharray:none"
       d="m 51.5219,75.4504 c 0,-2.3379 -1.8778,-4.2344 -4.1942,-4.2344 -1.4101,0 -2.666,0.7031 -3.4269,1.7813 0.7453,1.1757 1.9406,1.3945 3.4269,1.3945 2.3164,0 4.1942,-1.8953 4.1942,-4.2332 0,-2.3379 -1.8778,-4.2332 -4.1942,-4.2332 -1.3449,0 -2.5578,0.6387 -3.3254,1.6324 0.7676,0.9922 1.9805,1.3301 3.3254,1.3301 2.3164,0 4.1942,-1.8945 4.1942,-4.232" /><path
       inkscape:connector-curvature="0"
       id="path228"
       style="fill:none;stroke:#231f20;stroke-width:0.80000001;stroke-linecap:round;stroke-linejoin:round;stroke-miterlimit:3.86369991;stroke-opacity:1;stroke-dasharray:none"
       d="m 51.3746,80.6352 c 0,-2.3372 -1.8789,-4.2317 -4.1953,-4.2317 -1.3496,0 -2.5813,0.386 -3.3488,1.3848 0.7511,1.1426 2.0371,1.8945 3.4972,1.8945 2.3164,0 4.1942,-1.8945 4.1942,-4.2324" /><path
       inkscape:connector-curvature="0"
       id="path230"
       style="fill:none;stroke:#231f20;stroke-width:0.80000001;stroke-linecap:round;stroke-linejoin:round;stroke-miterlimit:3.86369991;stroke-opacity:1;stroke-dasharray:none"
       d="m 47.7242,88.8652 0,-3.8687 c 1.8406,-0.1738 3.6504,-2.1391 3.6504,-4.3613" /><path
       inkscape:connector-curvature="0"
       id="path232"
       style="fill:none;stroke:#231f20;stroke-width:0.80000001;stroke-linecap:round;stroke-linejoin:round;stroke-miterlimit:3.86369991;stroke-opacity:1;stroke-dasharray:none"
       d="m 51.7094,59.7516 c 0,-2.3379 -1.8778,-4.2344 -4.1942,-4.2344 -1.4101,0 -2.666,0.7031 -3.4269,1.7812 0.7453,1.1758 1.9406,1.3946 3.4269,1.3946 2.3164,0 4.1942,-1.8965 4.1942,-4.2344 0,-2.3379 -1.8778,-4.2324 -4.1942,-4.2324 -1.3449,0 -2.5578,0.6386 -3.3254,1.6328 0.7676,0.9922 1.9805,1.3301 3.3254,1.3301 2.3164,0 4.1942,-1.8946 4.1942,-4.2325 0,-2.3378 -1.8535,-4.2343 -4.1699,-4.2343 l 0.0546,-3.8496" /><path
       inkscape:connector-curvature="0"
       id="path234"
       style="fill:none;stroke:#231f20;stroke-width:0.80000001;stroke-linecap:round;stroke-linejoin:round;stroke-miterlimit:3.86369991;stroke-opacity:1;stroke-dasharray:none"
       d="m 51.5621,64.9352 c 0,-2.336 -1.8789,-4.2305 -4.1953,-4.2305 -1.3496,0 -2.5813,0.3848 -3.3488,1.3848 0.7511,1.1425 2.0371,1.8945 3.4972,1.8945 2.3164,0 4.1942,-1.8945 4.1942,-4.2324" /><path
       inkscape:connector-curvature="0"
       id="path236"
       style="fill:#ffffff;fill-opacity:1;fill-rule:nonzero;stroke:none"
       d="m 12.2227,106.896 c 0,-0.92 -0.7461,-1.667 -1.6668,-1.667 -0.92113,0 -1.66723,0.747 -1.66723,1.667 0,0.92 0.7461,1.667 1.66723,1.667 0.9207,0 1.6668,-0.747 1.6668,-1.667" /><path
       inkscape:connector-curvature="0"
       id="path238"
       style="fill:none;stroke:#231f20;stroke-width:0.5;stroke-linecap:butt;stroke-linejoin:miter;stroke-miterlimit:4;stroke-opacity:1;stroke-dasharray:none"
       d="m 12.2227,106.896 c 0,-0.92 -0.7461,-1.667 -1.6668,-1.667 -0.92113,0 -1.66723,0.747 -1.66723,1.667 0,0.92 0.7461,1.667 1.66723,1.667 0.9207,0 1.6668,-0.747 1.6668,-1.667 z" /><path
       inkscape:connector-curvature="0"
       id="path240"
       style="fill:#ffffff;fill-opacity:1;fill-rule:nonzero;stroke:none"
       d="m 12.2227,22.8219 c 0,-0.9199 -0.7461,-1.666 -1.6668,-1.666 -0.92113,0 -1.66723,0.7461 -1.66723,1.666 0,0.9199 0.7461,1.6679 1.66723,1.6679 0.9207,0 1.6668,-0.748 1.6668,-1.6679" /><path
       inkscape:connector-curvature="0"
       id="path242"
       style="fill:none;stroke:#231f20;stroke-width:0.5;stroke-linecap:butt;stroke-linejoin:miter;stroke-miterlimit:4;stroke-opacity:1;stroke-dasharray:none"
       d="m 12.2227,22.8219 c 0,-0.9199 -0.7461,-1.666 -1.6668,-1.666 -0.92113,0 -1.66723,0.7461 -1.66723,1.666 0,0.9199 0.7461,1.6679 1.66723,1.6679 0.9207,0 1.6668,-0.748 1.6668,-1.6679 z" /><path
       inkscape:connector-curvature="0"
       id="path244"
       style="fill:#ffffff;fill-opacity:1;fill-rule:nonzero;stroke:none"
       d="m 314.801,4.47891 c 0,-0.91993 -0.746,-1.66602 -1.667,-1.66602 -0.921,0 -1.667,0.74609 -1.667,1.66602 0,0.91992 0.746,1.66797 1.667,1.66797 0.921,0 1.667,-0.74805 1.667,-1.66797" /><path
       inkscape:connector-curvature="0"
       id="path246"
       style="fill:none;stroke:#231f20;stroke-width:0.5;stroke-linecap:butt;stroke-linejoin:miter;stroke-miterlimit:4;stroke-opacity:1;stroke-dasharray:none"
       d="m 314.801,4.47891 c 0,-0.91993 -0.746,-1.66602 -1.667,-1.66602 -0.921,0 -1.667,0.74609 -1.667,1.66602 0,0.91992 0.746,1.66797 1.667,1.66797 0.921,0 1.667,-0.74805 1.667,-1.66797 z" /><path
       inkscape:connector-curvature="0"
       id="path248"
       style="fill:#ffffff;fill-opacity:1;fill-rule:nonzero;stroke:none"
       d="m 314.801,64.3133 c 0,-0.9199 -0.746,-1.666 -1.667,-1.666 -0.921,0 -1.667,0.7461 -1.667,1.666 0,0.9199 0.746,1.668 1.667,1.668 0.921,0 1.667,-0.7481 1.667,-1.668" /><path
       inkscape:connector-curvature="0"
       id="path250"
       style="fill:none;stroke:#231f20;stroke-width:0.5;stroke-linecap:butt;stroke-linejoin:miter;stroke-miterlimit:4;stroke-opacity:1;stroke-dasharray:none"
       d="m 314.801,64.3133 c 0,-0.9199 -0.746,-1.666 -1.667,-1.666 -0.921,0 -1.667,0.7461 -1.667,1.666 0,0.9199 0.746,1.668 1.667,1.668 0.921,0 1.667,-0.7481 1.667,-1.668 z" /><path
       inkscape:connector-curvature="0"
       id="path252"
       style="fill:#231f20;fill-opacity:1;fill-rule:nonzero;stroke:none"
       d="m 250.31165,4.47891 c 0,-0.91993 -0.746,-1.66602 -1.667,-1.66602 -0.921,0 -1.667,0.74609 -1.667,1.66602 0,0.91992 0.746,1.66797 1.667,1.66797 0.921,0 1.667,-0.74805 1.667,-1.66797" /><path
       inkscape:connector-curvature="0"
       id="path254"
       style="fill:#231f20;fill-opacity:1;fill-rule:nonzero;stroke:none"
       d="m 284.21435,4.5025775 c 0,-0.91993 -0.746,-1.66602 -1.667,-1.66602 -0.921,0 -1.667,0.74609 -1.667,1.66602 0,0.91992 0.746,1.66797 1.667,1.66797 0.921,0 1.667,-0.74805 1.667,-1.66797" /><path
       inkscape:connector-curvature="0"
       id="path256"
       style="fill:#231f20;fill-opacity:1;fill-rule:nonzero;stroke:none"
       d="m 250.43,64.3133 c 0,-0.9199 -0.746,-1.666 -1.667,-1.666 -0.921,0 -1.667,0.7461 -1.667,1.666 0,0.9199 0.746,1.668 1.667,1.668 0.921,0 1.667,-0.7481 1.667,-1.668" /><path
       inkscape:connector-curvature="0"
       id="path258"
       style="fill:#231f20;fill-opacity:1;fill-rule:nonzero;stroke:none"
       d="m 214.343,64.3621 c 0,-0.9199 -0.746,-1.666 -1.667,-1.666 -0.921,0 -1.667,0.7461 -1.667,1.666 0,0.9199 0.746,1.668 1.667,1.668 0.921,0 1.667,-0.7481 1.667,-1.668" /><path
       inkscape:connector-curvature="0"
       id="path260"
       style="fill:#231f20;fill-opacity:1;fill-rule:nonzero;stroke:none"
       d="m 172.66,106.574 c 0,-0.92 -0.746,-1.666 -1.667,-1.666 -0.921,0 -1.667,0.746 -1.667,1.666 0,0.92 0.746,1.668 1.667,1.668 0.921,0 1.667,-0.748 1.667,-1.668" /><path
       inkscape:connector-curvature="0"
       id="path262"
       style="fill:#231f20;fill-opacity:1;fill-rule:nonzero;stroke:none"
       d="m 130.437,64.3621 c 0,-0.9199 -0.747,-1.666 -1.667,-1.666 -0.921,0 -1.667,0.7461 -1.667,1.666 0,0.9199 0.746,1.668 1.667,1.668 0.92,0 1.667,-0.7481 1.667,-1.668" /><path
       inkscape:connector-curvature="0"
       id="path264"
       style="fill:#231f20;fill-opacity:1;fill-rule:nonzero;stroke:none"
       d="m 172.395,22.4148 c 0,-0.9199 -0.746,-1.666 -1.667,-1.666 -0.921,0 -1.667,0.7461 -1.667,1.666 0,0.92 0.746,1.668 1.667,1.668 0.921,0 1.667,-0.748 1.667,-1.668" /><path
       inkscape:connector-curvature="0"
       id="path266"
       style="fill:#231f20;fill-opacity:1;fill-rule:nonzero;stroke:none"
       d="m 284.18,64.3133 c 0,-0.9199 -0.746,-1.666 -1.667,-1.666 -0.921,0 -1.667,0.7461 -1.667,1.666 0,0.9199 0.746,1.668 1.667,1.668 0.921,0 1.667,-0.7481 1.667,-1.668" /><path
       inkscape:connector-curvature="0"
       id="path3404"
       style="font-size:8px;font-variant:normal;font-weight:normal;writing-mode:lr-tb;fill:#231f20;fill-opacity:1;fill-rule:nonzero;stroke:none;font-family:Symbol;-inkscape-font-specification:Symbol"
       d="m 2.416,109.357 -0.44,0 0,-1.912 -1.896,0 0,-0.44 1.896,0 0,-1.912 0.44,0 0,1.912 1.896,0 0,0.44 -1.896,0 0,1.912" /><path
       inkscape:connector-curvature="0"
       id="path3406"
       style="font-size:8px;font-variant:normal;font-weight:normal;writing-mode:lr-tb;fill:#231f20;fill-opacity:1;fill-rule:nonzero;stroke:none;font-family:Symbol;-inkscape-font-specification:Symbol"
       d="m 0.88839102,23.856301 0,-0.44 4.19199998,0 0,0.44 -4.19199998,0" /><path
       inkscape:connector-curvature="0"
       id="path3408"
       style="font-size:8px;font-variant:normal;font-weight:normal;writing-mode:lr-tb;fill:#231f20;fill-opacity:1;fill-rule:nonzero;stroke:none;font-family:Symbol;-inkscape-font-specification:Symbol"
       d="m 86.915992,103.146 -0.44,0 0,-1.912 -1.896,0 0,-0.44 1.896,0 0,-1.912 0.44,0 0,1.912 1.896,0 0,0.44 -1.896,0 0,1.912" /><path
       inkscape:connector-curvature="0"
       id="path3410"
       style="font-size:8px;font-variant:normal;font-weight:normal;writing-mode:lr-tb;fill:#231f20;fill-opacity:1;fill-rule:nonzero;stroke:none;font-family:Symbol;-inkscape-font-specification:Symbol"
       d="m 85.388385,29.290596 0,-0.44 4.192,0 0,0.44 -4.192,0" /><path
       inkscape:connector-curvature="0"
       id="path3412"
       style="font-size:8px;font-variant:normal;font-weight:normal;writing-mode:lr-tb;fill:#231f20;fill-opacity:1;fill-rule:nonzero;stroke:none;font-family:Symbol;-inkscape-font-specification:Symbol"
       d="m 319.3084,66.913499 -0.44,0 0,-1.912 -1.896,0 0,-0.44 1.896,0 0,-1.912 0.44,0 0,1.912 1.896,0 0,0.44 -1.896,0 0,1.912" /><path
       inkscape:connector-curvature="0"
       id="path3414"
       style="font-size:8px;font-variant:normal;font-weight:normal;writing-mode:lr-tb;fill:#231f20;fill-opacity:1;fill-rule:nonzero;stroke:none;font-family:Symbol;-inkscape-font-specification:Symbol"
       d="m 317.38741,4.6945 0,-0.44 4.192,0 0,0.44 -4.192,0" /><path
       inkscape:connector-curvature="0"
       id="path284"
       style="fill:#ffffff;fill-opacity:1;fill-rule:nonzero;stroke:none"
       d="m 73.1543,40.8727 7.62109,0 0,32.2934 -7.62109,0 0,-32.2934 z" /><path
       inkscape:connector-curvature="0"
       id="path286"
       style="fill:none;stroke:#231f20;stroke-width:0.80000001;stroke-linecap:round;stroke-linejoin:round;stroke-miterlimit:3.86369991;stroke-opacity:1;stroke-dasharray:none"
       d="m 73.1543,54.2879 c 0,2.3379 1.8777,4.2344 4.1941,4.2344 1.4106,0 2.6661,-0.7032 3.427,-1.7813 -0.7449,-1.1758 -1.9402,-1.3945 -3.427,-1.3945 -2.3164,0 -4.1941,1.8953 -4.1941,4.2332 0,2.3379 1.8777,4.2336 4.1941,4.2336 1.345,0 2.5579,-0.6387 3.3254,-1.6328 -0.7675,-0.9922 -1.9804,-1.3301 -3.3254,-1.3301 -2.3164,0 -4.1941,1.8945 -4.1941,4.2324" /><path
       inkscape:connector-curvature="0"
       id="path288"
       style="fill:none;stroke:#231f20;stroke-width:0.80000001;stroke-linecap:round;stroke-linejoin:round;stroke-miterlimit:3.86369991;stroke-opacity:1;stroke-dasharray:none"
       d="m 73.302,49.1031 c 0,2.3371 1.8789,4.2317 4.1953,4.2317 1.3496,0 2.5808,-0.386 3.3484,-1.3848 -0.7512,-1.1426 -2.0371,-1.8945 -3.4973,-1.8945 -2.3164,0 -4.1941,1.8945 -4.1941,4.2324" /><path
       inkscape:connector-curvature="0"
       id="path290"
       style="fill:none;stroke:#231f20;stroke-width:0.80000001;stroke-linecap:round;stroke-linejoin:round;stroke-miterlimit:3.86369991;stroke-opacity:1;stroke-dasharray:none"
       d="m 76.952,40.8727 0,3.8691 c -1.8407,0.1738 -3.65,2.1387 -3.65,4.3613" /><path
       inkscape:connector-curvature="0"
       id="path292"
       style="fill:none;stroke:#231f20;stroke-width:0.80000001;stroke-linecap:round;stroke-linejoin:round;stroke-miterlimit:3.86369991;stroke-opacity:1;stroke-dasharray:none"
       d="m 72.9668,69.9859 c 0,2.3383 1.8777,4.2352 4.1941,4.2352 1.4106,0 2.6661,-0.7031 3.427,-1.7816 -0.7449,-1.1762 -1.9402,-1.395 -3.427,-1.395 -2.3164,0 -4.1941,1.8973 -4.1941,4.2352 0,2.3379 1.8777,4.232 4.1941,4.232 1.345,0 2.5579,-0.6387 3.3254,-1.6324 -0.7675,-0.9926 -1.9804,-1.3305 -3.3254,-1.3305 -2.3164,0 -4.1941,1.895 -4.1941,4.2325 0,2.3378 1.664464,4.264475 3.98069,4.236136 l -0.0076,3.849981"
       sodipodi:nodetypes="cscssscsscc" /><path
       inkscape:connector-curvature="0"
       id="path294"
       style="fill:none;stroke:#231f20;stroke-width:0.80000001;stroke-linecap:round;stroke-linejoin:round;stroke-miterlimit:3.86369991;stroke-opacity:1;stroke-dasharray:none"
       d="m 73.1145,64.8023 c 0,2.336 1.8789,4.2305 4.1953,4.2305 1.3496,0 2.5808,-0.3848 3.3484,-1.3848 -0.7512,-1.1425 -2.0371,-1.8945 -3.4973,-1.8945 -2.3164,0 -4.1941,1.8945 -4.1941,4.2324" /><path
       inkscape:connector-curvature="0"
       id="path296"
       style="fill:#231f20;fill-opacity:1;fill-rule:nonzero;stroke:none"
       d="m 282.488,56.9703 1.351,0.8215 0.031,-0.0461 -0.875,-2.2031 c -0.169,-0.7676 -0.338,-1.5352 -0.507,-2.3028 -0.169,0.7676 -0.338,1.5352 -0.507,2.3028 l -0.875,2.2031 0.022,0.0461 1.36,-0.8215" /><path
       inkscape:connector-curvature="0"
       id="path298"
       style="fill:#231f20;fill-opacity:1;fill-rule:nonzero;stroke:none"
       d="m 248.65,56.9703 1.351,0.8215 0.031,-0.0461 -0.875,-2.2031 c -0.169,-0.7676 -0.338,-1.5352 -0.507,-2.3028 -0.169,0.7676 -0.338,1.5352 -0.507,2.3028 l -0.875,2.2031 0.023,0.0461 1.359,-0.8215" /><path
       inkscape:connector-curvature="0"
       id="path300"
       style="fill:none;stroke:#231f20;stroke-width:0.8;stroke-linecap:butt;stroke-linejoin:miter;stroke-miterlimit:3.87418461;stroke-opacity:1;stroke-dasharray:none"
       d="m 282.511,64.3629 0,-59.88282" /><path
       inkscape:connector-curvature="0"
       id="path3417"
       style="font-size:8px;font-style:italic;font-variant:normal;writing-mode:lr-tb;fill:#231f20;fill-opacity:1;fill-rule:nonzero;stroke:none;font-family:Times;-inkscape-font-specification:Times-Italic"
       d="m 294.913,35.2915 0.296,1.592 -0.168,0 c -0.064,-0.128 -0.144,-0.176 -0.304,-0.176 -0.064,0 -0.16,0.016 -0.328,0.056 -0.36,0.088 -0.68,0.136 -0.936,0.136 -1.704,0 -3.248,-1.608002 -3.248,-3.384 0,-1.223999 0.864,-2.088 2.088,-2.088 0.824,0 1.464,0.352001 2.184,1.192 l -0.136,0.112 c -0.72,-0.703999 -1.184,-0.944 -1.84,-0.944 -0.888,0 -1.4,0.608001 -1.4,1.64 0,0.951999 0.384,1.920001 1.008,2.568 0.384,0.392 0.888,0.616 1.416,0.616 0.736,0 1.144,-0.432001 1.224,-1.296 l 0.144,-0.024" /><path
       inkscape:connector-curvature="0"
       id="path3419"
       style="font-size:8px;font-style:italic;font-variant:normal;writing-mode:lr-tb;fill:#231f20;fill-opacity:1;fill-rule:nonzero;stroke:none;font-family:Times;-inkscape-font-specification:Times-Italic"
       d="m 287.93902,54.6866 c -0.192,-0.256 -0.248,-0.32 -0.328,-0.408 -0.136,-0.136 -0.256,-0.216 -0.328,-0.216 -0.064,0 -0.128,0.064 -0.128,0.12 0,0.08 0.024,0.2 0.08,0.352 0,0.024 0.024,0.08 0.04,0.144 l 0,0.016 0.008,0.016 0.704,2.576 -0.024,0.016 c -0.808,-0.152 -0.968,-0.176 -1.28,-0.2 l 0,-0.128 c 0.424,-0.008 0.504,-0.032 0.504,-0.192 0,-0.064 -0.024,-0.192 -0.072,-0.352 l -0.384,-1.416 c -0.128,-0.463999 -0.176,-0.712 -0.176,-0.872 0,-0.295999 0.128,-0.456 0.368,-0.456 0.368,0 0.664,0.240001 1.12,0.912 l -0.104,0.088 m -0.064,4.32 c -0.216,0 -0.376,-0.184 -0.376,-0.424 0,-0.256 0.152,-0.424 0.384,-0.424 0.208,0 0.392,0.184 0.392,0.408 0,0.232 -0.184,0.44 -0.4,0.44" /><path
       inkscape:connector-curvature="0"
       id="path3422"
       style="font-size:6px;font-style:italic;font-variant:normal;writing-mode:lr-tb;fill:#231f20;fill-opacity:1;fill-rule:nonzero;stroke:none;font-family:Times;-inkscape-font-specification:Times-Italic"
       d="m 292.29924,54.5646 0.222,1.194 -0.126,0 c -0.048,-0.096 -0.108,-0.132 -0.228,-0.132 -0.048,0 -0.12,0.012 -0.246,0.042 -0.27,0.066 -0.51,0.102 -0.702,0.102 -1.278,0 -2.436,-1.206001 -2.436,-2.538 0,-0.917999 0.648,-1.566 1.566,-1.566 0.618,0 1.098,0.264001 1.638,0.894 l -0.102,0.084 c -0.54,-0.527999 -0.888,-0.708 -1.38,-0.708 -0.666,0 -1.05,0.456001 -1.05,1.23 0,0.713999 0.288,1.44 0.756,1.926 0.288,0.294 0.666,0.462 1.062,0.462 0.552,0 0.858,-0.324001 0.918,-0.972 l 0.108,-0.018" /><path
       inkscape:connector-curvature="0"
       id="path314"
       style="fill:#ffffff;fill-opacity:1;fill-rule:nonzero;stroke:none"
       d="m 277.452,28.2652 10.0762,0 0,12.3125 -10.0762,0 0,-12.3125 z" /><path
       inkscape:connector-curvature="0"
       id="path316"
       style="fill:none;stroke:#231f20;stroke-width:0.80000001;stroke-linecap:round;stroke-linejoin:round;stroke-miterlimit:3.86369991;stroke-opacity:1;stroke-dasharray:none"
       d="m 282.49,32.462706 0,-4.6661" /><path
       inkscape:connector-curvature="0"
       id="path318"
       style="fill:none;stroke:#231f20;stroke-width:0.80000001;stroke-linecap:round;stroke-linejoin:round;stroke-miterlimit:3.86369991;stroke-opacity:1;stroke-dasharray:none"
       d="m 282.49,40.5777 0,-4.666" /><path
       inkscape:connector-curvature="0"
       id="path320"
       style="fill:none;stroke:#231f20;stroke-width:0.80000001;stroke-linecap:round;stroke-linejoin:round;stroke-miterlimit:3.86369991;stroke-opacity:1;stroke-dasharray:none"
       d="m 287.528,35.7117 -10.076,0" /><path
       inkscape:connector-curvature="0"
       id="path322"
       style="fill:none;stroke:#231f20;stroke-width:0.80000001;stroke-linecap:round;stroke-linejoin:round;stroke-miterlimit:3.86369991;stroke-opacity:1;stroke-dasharray:none"
       d="m 287.528,32.663006 -10.076,0" /><path
       inkscape:connector-curvature="0"
       id="path324"
       style="fill:none;stroke:#231f20;stroke-width:0.5;stroke-linecap:round;stroke-linejoin:round;stroke-miterlimit:3.86369991;stroke-opacity:1;stroke-dasharray:none"
       d="m 313.469,9.68906 0,19.18364" /><path
       inkscape:connector-curvature="0"
       id="path326"
       style="fill:#231f20;fill-opacity:1;fill-rule:nonzero;stroke:none"
       d="m 313.469,10.0711 1.352,0.8219 0.03,-0.0461 -0.875,-2.20276 c -0.169,-0.76797 -0.338,-1.53516 -0.507,-2.30312 -0.169,0.76796 -0.338,1.53515 -0.507,2.30312 l -0.875,2.20276 0.024,0.0461 1.358,-0.8219" /><path
       inkscape:connector-curvature="0"
       id="path328"
       style="fill:none;stroke:#231f20;stroke-width:0.5;stroke-linecap:round;stroke-linejoin:round;stroke-miterlimit:3.86369991;stroke-opacity:1;stroke-dasharray:none"
       d="m 313.469,59.5008 0,-21.5715" /><path
       inkscape:connector-curvature="0"
       id="path330"
       style="fill:#231f20;fill-opacity:1;fill-rule:nonzero;stroke:none"
       d="m 313.469,59.118 -1.351,-0.8215 -0.031,0.0461 0.875,2.2031 c 0.169,0.7676 0.338,1.5352 0.507,2.3027 0.169,-0.7675 0.338,-1.5351 0.507,-2.3027 l 0.875,-2.2031 -0.023,-0.0461 -1.359,0.8215" /><path
       inkscape:connector-curvature="0"
       id="path332"
       style="fill:none;stroke:#231f20;stroke-width:0.5;stroke-linecap:round;stroke-linejoin:round;stroke-miterlimit:3.86369991;stroke-opacity:1;stroke-dasharray:none"
       d="m 10.4664,27.8863 0,23.3164" /><path
       inkscape:connector-curvature="0"
       id="path334"
       style="fill:#231f20;fill-opacity:1;fill-rule:nonzero;stroke:none"
       d="m 10.4664,28.2691 1.3512,0.8215 0.0304,-0.0461 -0.875,-2.2031 c -0.1687,-0.7676 -0.3378,-1.5351 -0.5066,-2.3027 -0.1691,0.7676 -0.3375,1.5351 -0.50702,2.3027 l -0.875,2.2031 0.02304,0.0461 1.35898,-0.8215" /><path
       inkscape:connector-curvature="0"
       id="path336"
       style="fill:none;stroke:#231f20;stroke-width:0.5;stroke-linecap:round;stroke-linejoin:round;stroke-miterlimit:3.86369991;stroke-opacity:1;stroke-dasharray:none"
       d="m 10.4664,101.792 0,-23.8303" /><path
       inkscape:connector-curvature="0"
       id="path338"
       style="fill:#231f20;fill-opacity:1;fill-rule:nonzero;stroke:none"
       d="m 10.4664,101.409 -1.35117,-0.821 -0.03085,0.046 0.875,2.203 c 0.16912,0.767 0.33792,1.535 0.50702,2.302 0.1688,-0.767 0.3371,-1.535 0.5066,-2.302 l 0.875,-2.203 -0.0226,-0.046 -1.359,0.821" /><path
       d="m 76.941648,87.569978 0,19.360532"
       style="fill:none;stroke:#231f20;stroke-width:0.80000001;stroke-linecap:round;stroke-linejoin:round;stroke-miterlimit:3.87418461;stroke-opacity:1;stroke-dasharray:none"
       id="path4483"
       inkscape:connector-curvature="0" /></g></svg>