<?xml version="1.0" encoding="UTF-8" standalone="no"?>
<!-- Created with Inkscape (http://www.inkscape.org/) -->

<svg
   xmlns:dc="http://purl.org/dc/elements/1.1/"
   xmlns:cc="http://creativecommons.org/ns#"
   xmlns:rdf="http://www.w3.org/1999/02/22-rdf-syntax-ns#"
   xmlns:svg="http://www.w3.org/2000/svg"
   xmlns="http://www.w3.org/2000/svg"
   xmlns:sodipodi="http://sodipodi.sourceforge.net/DTD/sodipodi-0.dtd"
   xmlns:inkscape="http://www.inkscape.org/namespaces/inkscape"
   id="svg2"
   version="1.1"
   inkscape:version="0.48.4 r9939"
   width="173"
   height="191.775"
   xml:space="preserve"
   sodipodi:docname="S3-EE-02-IN002.eps"><metadata
     id="metadata8"><rdf:RDF><cc:Work
         rdf:about=""><dc:format>image/svg+xml</dc:format><dc:type
           rdf:resource="http://purl.org/dc/dcmitype/StillImage" /><dc:title></dc:title></cc:Work></rdf:RDF></metadata><defs
     id="defs6" /><sodipodi:namedview
     pagecolor="#ffffff"
     bordercolor="#666666"
     borderopacity="1"
     objecttolerance="10"
     gridtolerance="10"
     guidetolerance="10"
     inkscape:pageopacity="0"
     inkscape:pageshadow="2"
     inkscape:window-width="1366"
     inkscape:window-height="744"
     id="namedview4"
     showgrid="false"
     inkscape:zoom="3.1130232"
     inkscape:cx="86.5"
     inkscape:cy="95.887497"
     inkscape:window-x="0"
     inkscape:window-y="24"
     inkscape:window-maximized="1"
     inkscape:current-layer="g10" /><g
     id="g10"
     inkscape:groupmode="layer"
     inkscape:label="ink_ext_XXXXXX"
     transform="matrix(1.25,0,0,-1.25,0,191.775)"><path
       inkscape:connector-curvature="0"
       id="path3078"
       style="font-size:8px;font-style:italic;font-variant:normal;writing-mode:lr-tb;fill:#231f20;fill-opacity:1;fill-rule:nonzero;stroke:none;font-family:Times;-inkscape-font-specification:Times-Italic"
       d="m 22.00389,122.165 -1.488,0 0,-0.128 c 0.36,-0.04 0.504,-0.12 0.504,-0.272 0,-0.152 -0.152,-0.496 -0.416,-0.952 l -1.648,-2.848 -0.528,3.544 c -0.008,0.04 -0.008,0.072 -0.008,0.12 0,0.272 0.112001,0.352 0.616,0.408 l 0,0.128 -1.928,0 0,-0.128 c 0.448,-0.056 0.464,-0.08 0.632,-1.08 l 0.68,-4.16 0.152,0 2.984,4.92 c 0.136,0.216 0.264,0.312 0.448,0.32 l 0,0.128" /><path
       inkscape:connector-curvature="0"
       id="path3081"
       style="font-size:6px;font-variant:normal;font-weight:normal;writing-mode:lr-tb;fill:#231f20;fill-opacity:1;fill-rule:nonzero;stroke:none;font-family:Times;-inkscape-font-specification:Times-Roman"
       d="m 24.23817,115.763 -0.078,0.03 c -0.222,-0.342 -0.3,-0.396 -0.57,-0.396 l -1.434,0 1.008,1.056 c 0.533999,0.558 0.768,1.014 0.768,1.482 0,0.6 -0.486001,1.062 -1.11,1.062 -0.33,0 -0.642,-0.132 -0.864,-0.372 -0.192,-0.204 -0.282,-0.396 -0.384,-0.822 l 0.126,-0.03 c 0.24,0.588 0.456,0.78 0.87,0.78 0.504,0 0.846,-0.342 0.846,-0.846 0,-0.468 -0.276,-1.026 -0.78,-1.56 l -1.068,-1.134 0,-0.072 2.34,0 0.33,0.822" /><path
       inkscape:connector-curvature="0"
       id="path3084"
       style="font-size:8px;font-variant:normal;font-weight:normal;writing-mode:lr-tb;fill:#231f20;fill-opacity:1;fill-rule:nonzero;stroke:none;font-family:Times;-inkscape-font-specification:Times-Roman"
       d="m 108.7159,86.720087 -0.072,1.808 -0.168,0 c -0.048,-0.168 -0.176,-0.264 -0.336,-0.264 -0.072,0 -0.192,0.024 -0.312,0.072 -0.392,0.128 -0.792,0.192 -1.168,0.192 -0.656,0 -1.32,-0.248 -1.816,-0.688 -0.56,-0.496 -0.864,-1.240001 -0.864,-2.12 0,-0.743999 0.24,-1.432001 0.648,-1.888 0.48,-0.519999 1.216,-0.824 2.008,-0.824 0.904,0 1.696,0.368001 2.184,1.016 l -0.144,0.144 c -0.592,-0.567999 -1.12,-0.808 -1.784,-0.808 -0.504,0 -0.952,0.16 -1.296,0.464 -0.44,0.392 -0.688,1.112001 -0.688,2 0,1.447999 0.744,2.384 1.904,2.384 0.456,0 0.872,-0.168 1.192,-0.488 0.256,-0.256 0.376,-0.480001 0.528,-1 l 0.184,0" /><path
       inkscape:connector-curvature="0"
       id="path3086"
       style="font-size:8px;font-variant:normal;font-weight:normal;writing-mode:lr-tb;fill:#231f20;fill-opacity:1;fill-rule:nonzero;stroke:none;font-family:Times;-inkscape-font-specification:Times-Roman"
       d="m 112.3559,84.432087 c -0.384,-0.607999 -0.728,-0.84 -1.24,-0.84 -0.456,0 -0.8,0.232 -1.032,0.688 -0.144,0.304 -0.2,0.568 -0.216,1.056 l 2.464,0 c -0.064,0.519999 -0.144,0.752 -0.344,1.008 -0.24,0.288 -0.608,0.456 -1.024,0.456 -0.4,0 -0.776,-0.144 -1.08,-0.416 -0.376,-0.328 -0.592,-0.896001 -0.592,-1.552 0,-1.103999 0.576,-1.792 1.496,-1.792 0.76,0 1.36,0.472001 1.696,1.336 l -0.128,0.056 m -2.472,1.16 c 0.088,0.623999 0.36,0.92 0.848,0.92 0.488,0 0.68,-0.224001 0.784,-0.92 l -1.632,0" /><path
       inkscape:connector-curvature="0"
       id="path3088"
       style="font-size:8px;font-variant:normal;font-weight:normal;writing-mode:lr-tb;fill:#231f20;fill-opacity:1;fill-rule:nonzero;stroke:none;font-family:Times;-inkscape-font-specification:Times-Roman"
       d="m 112.7719,86.304087 c 0.048,0.024 0.128,0.032 0.216,0.032 0.224,0 0.296,-0.12 0.296,-0.512 l 0,-1.984 c 0,-0.456 -0.088,-0.568 -0.496,-0.6 l 0,-0.12 1.696,0 0,0.12 c -0.408,0.032 -0.528,0.128 -0.528,0.416 l 0,2.248 c 0.384,0.36 0.56,0.456 0.824,0.456 0.392,0 0.584,-0.248001 0.584,-0.776 l 0,-1.672 c 0,-0.504 -0.104,-0.64 -0.504,-0.672 l 0,-0.12 1.664,0 0,0.12 c -0.392,0.04 -0.488,0.136 -0.488,0.528 l 0,1.832 c 0,0.751999 -0.352,1.2 -0.944,1.2 -0.368,0 -0.616,-0.136001 -1.16,-0.648 l 0,0.632 -0.056,0.016 c -0.392,-0.144 -0.664,-0.232 -1.104,-0.36 l 0,-0.136" /><path
       inkscape:connector-curvature="0"
       id="path3090"
       style="font-size:8px;font-variant:normal;font-weight:normal;writing-mode:lr-tb;fill:#231f20;fill-opacity:1;fill-rule:nonzero;stroke:none;font-family:Times;-inkscape-font-specification:Times-Roman"
       d="m 118.6839,86.720087 -0.808,0 0,0.928 c 0,0.08 -0.008,0.104 -0.056,0.104 -0.056,-0.072 -0.104,-0.144 -0.16,-0.224 -0.304,-0.44 -0.648,-0.824 -0.776,-0.856 -0.088,-0.056 -0.136,-0.112 -0.136,-0.152 0,-0.024 0.008,-0.04 0.032,-0.056 l 0.424,0 0,-2.408 c 0,-0.671999 0.24,-1.016 0.712,-1.016 0.392,0 0.696,0.192 0.96,0.608 l -0.104,0.088 c -0.168,-0.2 -0.304,-0.28 -0.48,-0.28 -0.296,0 -0.416,0.216 -0.416,0.72 l 0,2.288 0.808,0 0,0.256" /><path
       inkscape:connector-curvature="0"
       id="path3092"
       style="font-size:8px;font-variant:normal;font-weight:normal;writing-mode:lr-tb;fill:#231f20;fill-opacity:1;fill-rule:nonzero;stroke:none;font-family:Times;-inkscape-font-specification:Times-Roman"
       d="m 118.9239,86.240087 c 0.112,0.024 0.184,0.032 0.28,0.032 0.2,0 0.272,-0.128 0.272,-0.48 l 0,-2 c 0,-0.4 -0.056,-0.456 -0.568,-0.552 l 0,-0.12 1.92,0 0,0.12 c -0.544,0.024 -0.68,0.144 -0.68,0.6 l 0,1.8 c 0,0.256 0.344,0.656 0.56,0.656 0.048,0 0.12,-0.04 0.208,-0.12 0.128,-0.112 0.216,-0.16 0.32,-0.16 0.192,0 0.312,0.136 0.312,0.36 0,0.264 -0.168,0.424 -0.44,0.424 -0.336,0 -0.568,-0.184001 -0.96,-0.752 l 0,0.736 -0.04,0.016 c -0.424,-0.176 -0.712,-0.28 -1.184,-0.432 l 0,-0.128" /><path
       inkscape:connector-curvature="0"
       id="path3094"
       style="font-size:8px;font-variant:normal;font-weight:normal;writing-mode:lr-tb;fill:#231f20;fill-opacity:1;fill-rule:nonzero;stroke:none;font-family:Times;-inkscape-font-specification:Times-Roman"
       d="m 124.79441,84.432087 c -0.384,-0.607999 -0.728,-0.84 -1.24,-0.84 -0.456,0 -0.8,0.232 -1.032,0.688 -0.144,0.304 -0.2,0.568 -0.216,1.056 l 2.464,0 c -0.064,0.519999 -0.144,0.752 -0.344,1.008 -0.24,0.288 -0.608,0.456 -1.024,0.456 -0.4,0 -0.776,-0.144 -1.08,-0.416 -0.376,-0.328 -0.592,-0.896001 -0.592,-1.552 0,-1.103999 0.576,-1.792 1.496,-1.792 0.76,0 1.36,0.472001 1.696,1.336 l -0.128,0.056 m -2.472,1.16 c 0.088,0.623999 0.36,0.92 0.848,0.92 0.488,0 0.68,-0.224001 0.784,-0.92 l -1.632,0" /><path
       inkscape:connector-curvature="0"
       id="path3096"
       style="font-size:8px;font-variant:normal;font-weight:normal;writing-mode:lr-tb;fill:#231f20;fill-opacity:1;fill-rule:nonzero;stroke:none;font-family:Times;-inkscape-font-specification:Times-Roman"
       d="m 129.12241,86.720087 -0.808,0 0,0.928 c 0,0.08 -0.008,0.104 -0.056,0.104 -0.056,-0.072 -0.104,-0.144 -0.16,-0.224 -0.304,-0.44 -0.648,-0.824 -0.776,-0.856 -0.088,-0.056 -0.136,-0.112 -0.136,-0.152 0,-0.024 0.008,-0.04 0.032,-0.056 l 0.424,0 0,-2.408 c 0,-0.671999 0.24,-1.016 0.712,-1.016 0.392,0 0.696,0.192 0.96,0.608 l -0.104,0.088 c -0.168,-0.2 -0.304,-0.28 -0.48,-0.28 -0.296,0 -0.416,0.216 -0.416,0.72 l 0,2.288 0.808,0 0,0.256" /><path
       inkscape:connector-curvature="0"
       id="path3098"
       style="font-size:8px;font-variant:normal;font-weight:normal;writing-mode:lr-tb;fill:#231f20;fill-opacity:1;fill-rule:nonzero;stroke:none;font-family:Times;-inkscape-font-specification:Times-Roman"
       d="m 132.84241,83.648087 c -0.136,-0.112 -0.232,-0.152 -0.352,-0.152 -0.184,0 -0.24,0.112 -0.24,0.464 l 0,1.56 c 0,0.416 -0.04,0.648 -0.16,0.84 -0.176,0.288 -0.52,0.44 -0.992,0.44 -0.752,0 -1.344,-0.392001 -1.344,-0.896 0,-0.184 0.16,-0.344 0.344,-0.344 0.192,0 0.36,0.16 0.36,0.336 0,0.032 -0.008,0.072 -0.016,0.128 -0.016,0.072 -0.024,0.136 -0.024,0.192 0,0.216 0.256,0.392 0.576,0.392 0.392,0 0.608,-0.232 0.608,-0.664 l 0,-0.488 c -1.232,-0.496 -1.368,-0.56 -1.712,-0.864 -0.176,-0.16 -0.288,-0.432 -0.288,-0.696 0,-0.504 0.352,-0.856 0.84,-0.856 0.352,0 0.68,0.168 1.168,0.584 0.04,-0.416 0.184,-0.584 0.512,-0.584 0.272,0 0.44,0.096 0.72,0.4 l 0,0.208 m -1.24,0.456 c 0,-0.248 -0.04,-0.32 -0.208,-0.416 -0.192,-0.112 -0.416,-0.184 -0.584,-0.184 -0.28,0 -0.504,0.272 -0.504,0.616 l 0,0.032 c 0,0.472 0.328,0.76 1.296,1.112 l 0,-1.16" /><path
       inkscape:connector-curvature="0"
       id="path3100"
       style="font-size:8px;font-variant:normal;font-weight:normal;writing-mode:lr-tb;fill:#231f20;fill-opacity:1;fill-rule:nonzero;stroke:none;font-family:Times;-inkscape-font-specification:Times-Roman"
       d="m 132.93041,86.264087 c 0.072,0.008 0.128,0.008 0.2,0.008 0.272,0 0.328,-0.08 0.328,-0.456 l 0,-3.744 c 0,-0.416 -0.088,-0.504 -0.56,-0.552 l 0,-0.136 1.936,0 0,0.144 c -0.6,0.008 -0.704,0.096 -0.704,0.6 l 0,1.256 c 0.28,-0.264 0.472,-0.344 0.808,-0.344 0.944,0 1.68,0.896001 1.68,2.056 0,0.991999 -0.56,1.704 -1.336,1.704 -0.448,0 -0.8,-0.2 -1.152,-0.632 l 0,0.616 -0.048,0.016 c -0.432,-0.168 -0.712,-0.272 -1.152,-0.408 l 0,-0.128 m 1.2,-0.472 c 0,0.24 0.448,0.528 0.816,0.528 0.592,0 0.984,-0.608001 0.984,-1.536 0,-0.887999 -0.392,-1.488 -0.968,-1.488 -0.376,0 -0.832,0.288 -0.832,0.528 l 0,1.968" /><path
       inkscape:connector-curvature="0"
       id="path3102"
       style="font-size:8px;font-variant:normal;font-weight:normal;writing-mode:lr-tb;fill:#231f20;fill-opacity:1;fill-rule:nonzero;stroke:none;font-family:Times;-inkscape-font-specification:Times-Roman"
       d="m 30.644081,6.704497 0,-4 c 0,-0.679999 -0.088,-0.768 -0.752,-0.808 l 0,-0.152 2.336,0 0,0.152 c -0.656,0.032 -0.768,0.136001 -0.768,0.72 l 0,4.088 0.432,0 c 0.911999,0 1.088,-0.144 1.272,-1.024 l 0.192,0 -0.048,1.36 -4.512,0 -0.048,-1.36 0.192,0 c 0.192,0.872 0.376001,1.024 1.272,1.024 l 0.432,0" /><path
       inkscape:connector-curvature="0"
       id="path3104"
       style="font-size:8px;font-variant:normal;font-weight:normal;writing-mode:lr-tb;fill:#231f20;fill-opacity:1;fill-rule:nonzero;stroke:none;font-family:Times;-inkscape-font-specification:Times-Roman"
       d="m 33.555837,4.864497 c 0.112,0.024 0.184,0.032 0.28,0.032 0.2,0 0.272,-0.128 0.272,-0.48 l 0,-2 c 0,-0.399999 -0.056,-0.456 -0.568,-0.552 l 0,-0.12 1.92,0 0,0.12 c -0.543999,0.024 -0.68,0.144001 -0.68,0.6 l 0,1.8 c 0,0.256 0.344,0.656 0.56,0.656 0.048,0 0.12,-0.04 0.208,-0.12 0.128,-0.111999 0.216,-0.16 0.32,-0.16 0.192,0 0.312,0.136001 0.312,0.36 0,0.264 -0.168,0.424 -0.44,0.424 -0.336,0 -0.568,-0.184 -0.96,-0.752 l 0,0.736 -0.04,0.016 c -0.423999,-0.175999 -0.712,-0.28 -1.184,-0.432 l 0,-0.128" /><path
       inkscape:connector-curvature="0"
       id="path3106"
       style="font-size:8px;font-variant:normal;font-weight:normal;writing-mode:lr-tb;fill:#231f20;fill-opacity:1;fill-rule:nonzero;stroke:none;font-family:Times;-inkscape-font-specification:Times-Roman"
       d="m 39.699594,2.272497 c -0.135999,-0.111999 -0.232,-0.152 -0.352,-0.152 -0.183999,0 -0.24,0.112001 -0.24,0.464 l 0,1.56 c 0,0.416 -0.04,0.648001 -0.16,0.84 -0.175999,0.288 -0.52,0.44 -0.992,0.44 -0.751999,0 -1.344,-0.392 -1.344,-0.896 0,-0.183999 0.160001,-0.344 0.344,-0.344 0.192,0 0.36,0.160001 0.36,0.336 0,0.032 -0.008,0.072 -0.016,0.128 -0.016,0.072 -0.024,0.136001 -0.024,0.192 0,0.216 0.256001,0.392 0.576,0.392 0.392,0 0.608,-0.232 0.608,-0.664 l 0,-0.488 c -1.231998,-0.495999 -1.368,-0.56 -1.712,-0.864 -0.175999,-0.159999 -0.288,-0.432 -0.288,-0.696 0,-0.503999 0.352001,-0.856 0.84,-0.856 0.352,0 0.680001,0.168001 1.168,0.584 0.04,-0.415999 0.184001,-0.584 0.512,-0.584 0.272,0 0.440001,0.096 0.72,0.4 l 0,0.208 m -1.24,0.456 c 0,-0.247999 -0.04,-0.32 -0.208,-0.416 -0.191999,-0.111999 -0.416,-0.184 -0.584,-0.184 -0.279999,0 -0.504,0.272001 -0.504,0.616 l 0,0.032 c 0,0.472 0.328001,0.760001 1.296,1.112 l 0,-1.16" /><path
       inkscape:connector-curvature="0"
       id="path3108"
       style="font-size:8px;font-variant:normal;font-weight:normal;writing-mode:lr-tb;fill:#231f20;fill-opacity:1;fill-rule:nonzero;stroke:none;font-family:Times;-inkscape-font-specification:Times-Roman"
       d="m 39.843345,4.928497 c 0.048,0.024 0.128,0.032 0.216,0.032 0.223999,0 0.296,-0.12 0.296,-0.512 l 0,-1.984 c 0,-0.455999 -0.088,-0.568 -0.496,-0.6 l 0,-0.12 1.696,0 0,0.12 c -0.408,0.032 -0.528,0.128001 -0.528,0.416 l 0,2.248 c 0.383999,0.36 0.56,0.456 0.824,0.456 0.391999,0 0.584,-0.248 0.584,-0.776 l 0,-1.672 c 0,-0.503999 -0.104001,-0.64 -0.504,-0.672 l 0,-0.12 1.664,0 0,0.12 c -0.392,0.04 -0.488,0.136001 -0.488,0.528 l 0,1.832 c 0,0.752 -0.352001,1.2 -0.944,1.2 -0.368,0 -0.616001,-0.136 -1.16,-0.648 l 0,0.632 -0.056,0.016 c -0.392,-0.143999 -0.664001,-0.232 -1.104,-0.36 l 0,-0.136" /><path
       inkscape:connector-curvature="0"
       id="path3110"
       style="font-size:8px;font-variant:normal;font-weight:normal;writing-mode:lr-tb;fill:#231f20;fill-opacity:1;fill-rule:nonzero;stroke:none;font-family:Times;-inkscape-font-specification:Times-Roman"
       d="m 46.235581,4.256497 -0.032,1.088 -0.088,0 -0.016,-0.016 c -0.072,-0.056 -0.08,-0.064 -0.112,-0.064 -0.048,0 -0.128,0.016 -0.216,0.056 -0.176,0.064 -0.352,0.096 -0.56,0.096 -0.631999,0 -1.088,-0.408 -1.088,-0.984 0,-0.447999 0.256001,-0.768 0.936,-1.152 l 0.464,-0.264 c 0.28,-0.159999 0.416,-0.352 0.416,-0.6 0,-0.351999 -0.256,-0.576 -0.664,-0.576 -0.272,0 -0.52,0.104001 -0.672,0.28 -0.168,0.2 -0.24,0.384001 -0.344,0.84 l -0.128,0 0,-1.248 0.104,0 c 0.056,0.08 0.088,0.096 0.184,0.096 0.072,0 0.184,-0.016 0.368,-0.064 0.224,-0.048 0.44,-0.08 0.584,-0.08 0.616,0 1.128,0.464001 1.128,1.024 0,0.4 -0.192,0.664001 -0.672,0.952 l -0.864,0.512 c -0.224,0.128 -0.344,0.328001 -0.344,0.544 0,0.32 0.248001,0.544 0.616,0.544 0.456,0 0.696,-0.272 0.88,-0.984 l 0.12,0" /><path
       inkscape:connector-curvature="0"
       id="path3112"
       style="font-size:8px;font-variant:normal;font-weight:normal;writing-mode:lr-tb;fill:#231f20;fill-opacity:1;fill-rule:nonzero;stroke:none;font-family:Times;-inkscape-font-specification:Times-Roman"
       d="m 49.299947,5.344497 -0.984,0 0,0.928 c 0,0.464 0.152,0.712 0.456,0.712 0.168,0 0.28,-0.08 0.424,-0.312 0.128,-0.207999 0.224,-0.288 0.36,-0.288 0.184,0 0.336,0.144001 0.336,0.328 0,0.288 -0.352001,0.496 -0.832,0.496 -0.496,0 -0.92,-0.216 -1.128,-0.584 -0.208,-0.351999 -0.272,-0.64 -0.28,-1.28 l -0.656,0 0,-0.256 0.656,0 0,-2.512 c 0,-0.583999 -0.088,-0.68 -0.664,-0.712 l 0,-0.12 2.08,0 0,0.12 c -0.655999,0.024 -0.744,0.112001 -0.744,0.712 l 0,2.512 0.976,0 0,0.256" /><path
       inkscape:connector-curvature="0"
       id="path3114"
       style="font-size:8px;font-variant:normal;font-weight:normal;writing-mode:lr-tb;fill:#231f20;fill-opacity:1;fill-rule:nonzero;stroke:none;font-family:Times;-inkscape-font-specification:Times-Roman"
       d="m 51.492311,5.424497 c -1.039999,0 -1.768,-0.768001 -1.768,-1.872 0,-1.079998 0.744001,-1.888 1.752,-1.888 1.007999,0 1.776,0.848002 1.776,1.952 0,1.047999 -0.736001,1.808 -1.76,1.808 m -0.104,-0.224 c 0.671999,0 1.144,-0.768001 1.144,-1.864 0,-0.903999 -0.360001,-1.448 -0.96,-1.448 -0.312,0 -0.608,0.192001 -0.776,0.512 -0.224,0.416 -0.352,0.976001 -0.352,1.544 0,0.76 0.376,1.256 0.944,1.256" /><path
       inkscape:connector-curvature="0"
       id="path3116"
       style="font-size:8px;font-variant:normal;font-weight:normal;writing-mode:lr-tb;fill:#231f20;fill-opacity:1;fill-rule:nonzero;stroke:none;font-family:Times;-inkscape-font-specification:Times-Roman"
       d="m 53.548139,4.864497 c 0.112,0.024 0.184,0.032 0.28,0.032 0.2,0 0.272,-0.128 0.272,-0.48 l 0,-2 c 0,-0.399999 -0.056,-0.456 -0.568,-0.552 l 0,-0.12 1.92,0 0,0.12 c -0.543999,0.024 -0.68,0.144001 -0.68,0.6 l 0,1.8 c 0,0.256 0.344,0.656 0.56,0.656 0.048,0 0.12,-0.04 0.208,-0.12 0.128,-0.111999 0.216,-0.16 0.32,-0.16 0.192,0 0.312,0.136001 0.312,0.36 0,0.264 -0.168,0.424 -0.44,0.424 -0.336,0 -0.568,-0.184 -0.96,-0.752 l 0,0.736 -0.04,0.016 c -0.423999,-0.175999 -0.712,-0.28 -1.184,-0.432 l 0,-0.128" /><path
       inkscape:connector-curvature="0"
       id="path3118"
       style="font-size:8px;font-variant:normal;font-weight:normal;writing-mode:lr-tb;fill:#231f20;fill-opacity:1;fill-rule:nonzero;stroke:none;font-family:Times;-inkscape-font-specification:Times-Roman"
       d="m 56.308141,4.928497 c 0.103999,0.024 0.168,0.032 0.256,0.032 0.207999,0 0.28,-0.128 0.28,-0.512 l 0,-2.024 c 0,-0.431999 -0.112001,-0.552 -0.56,-0.56 l 0,-0.12 1.776,0 0,0.12 c -0.424,0.016 -0.544,0.104001 -0.544,0.416 l 0,2.256 c 0,0.016 0.064,0.096 0.12,0.152 0.199999,0.184 0.544,0.32 0.824,0.32 0.351999,0 0.528,-0.28 0.528,-0.84 l 0,-1.736 c 0,-0.447999 -0.088,-0.536 -0.544,-0.568 l 0,-0.12 1.792,0 0,0.12 c -0.456,0.008 -0.576,0.144001 -0.576,0.64 l 0,2.016 c 0.239999,0.344 0.504,0.488 0.872,0.488 0.455999,0 0.6,-0.216 0.6,-0.88 l 0,-1.688 c 0,-0.455999 -0.064,-0.52 -0.528,-0.576 l 0,-0.12 1.752,0 0,0.12 -0.208,0.016 c -0.24,0.016 -0.344,0.160001 -0.344,0.472 l 0,1.648 c 0,0.944 -0.312001,1.424 -0.928,1.424 -0.464,0 -0.872001,-0.208 -1.304,-0.672 -0.144,0.456 -0.416001,0.672 -0.848,0.672 -0.352,0 -0.576001,-0.112 -1.24,-0.616 l 0,0.6 -0.056,0.016 c -0.408,-0.151999 -0.680001,-0.24 -1.12,-0.36 l 0,-0.136" /><path
       inkscape:connector-curvature="0"
       id="path3120"
       style="font-size:8px;font-variant:normal;font-weight:normal;writing-mode:lr-tb;fill:#231f20;fill-opacity:1;fill-rule:nonzero;stroke:none;font-family:Times;-inkscape-font-specification:Times-Roman"
       d="m 65.64414,3.056497 c -0.384,-0.607999 -0.728001,-0.84 -1.24,-0.84 -0.456,0 -0.800001,0.232001 -1.032,0.688 -0.144,0.304 -0.2,0.568001 -0.216,1.056 l 2.464,0 c -0.064,0.52 -0.144001,0.752001 -0.344,1.008 -0.24,0.288 -0.608001,0.456 -1.024,0.456 -0.4,0 -0.776001,-0.144 -1.08,-0.416 -0.376,-0.327999 -0.592,-0.896 -0.592,-1.552 0,-1.103998 0.576001,-1.792 1.496,-1.792 0.759999,0 1.36,0.472001 1.696,1.336 l -0.128,0.056 m -2.472,1.16 c 0.088,0.624 0.36,0.92 0.848,0.92 0.487999,0 0.68,-0.224 0.784,-0.92 l -1.632,0" /><path
       inkscape:connector-curvature="0"
       id="path3122"
       style="font-size:8px;font-variant:normal;font-weight:normal;writing-mode:lr-tb;fill:#231f20;fill-opacity:1;fill-rule:nonzero;stroke:none;font-family:Times;-inkscape-font-specification:Times-Roman"
       d="m 65.988142,4.864497 c 0.111999,0.024 0.184,0.032 0.28,0.032 0.199999,0 0.272,-0.128 0.272,-0.48 l 0,-2 c 0,-0.399999 -0.056,-0.456 -0.568,-0.552 l 0,-0.12 1.92,0 0,0.12 c -0.544,0.024 -0.68,0.144001 -0.68,0.6 l 0,1.8 c 0,0.256 0.344,0.656 0.56,0.656 0.048,0 0.12,-0.04 0.208,-0.12 0.127999,-0.111999 0.216,-0.16 0.32,-0.16 0.191999,0 0.312,0.136001 0.312,0.36 0,0.264 -0.168001,0.424 -0.44,0.424 -0.336,0 -0.568001,-0.184 -0.96,-0.752 l 0,0.736 -0.04,0.016 c -0.424,-0.175999 -0.712001,-0.28 -1.184,-0.432 l 0,-0.128" /><path
       inkscape:connector-curvature="0"
       id="path3124"
       style="font-size:8px;font-variant:normal;font-weight:normal;writing-mode:lr-tb;fill:#231f20;fill-opacity:1;fill-rule:nonzero;stroke:none;font-family:Times;-inkscape-font-specification:Times-Roman"
       d="m 73.116139,4.256497 -0.032,1.088 -0.088,0 -0.016,-0.016 c -0.072,-0.056 -0.08,-0.064 -0.112,-0.064 -0.048,0 -0.128,0.016 -0.216,0.056 -0.176,0.064 -0.352,0.096 -0.56,0.096 -0.631999,0 -1.088,-0.408 -1.088,-0.984 0,-0.447999 0.256001,-0.768 0.936,-1.152 l 0.464,-0.264 c 0.28,-0.159999 0.416,-0.352 0.416,-0.6 0,-0.351999 -0.256,-0.576 -0.664,-0.576 -0.272,0 -0.52,0.104001 -0.672,0.28 -0.168,0.2 -0.24,0.384001 -0.344,0.84 l -0.128,0 0,-1.248 0.104,0 c 0.056,0.08 0.088,0.096 0.184,0.096 0.072,0 0.184,-0.016 0.368,-0.064 0.224,-0.048 0.44,-0.08 0.584,-0.08 0.616,0 1.128,0.464001 1.128,1.024 0,0.4 -0.192,0.664001 -0.672,0.952 l -0.864,0.512 c -0.224,0.128 -0.344,0.328001 -0.344,0.544 0,0.32 0.248001,0.544 0.616,0.544 0.456,0 0.696,-0.272 0.88,-0.984 l 0.12,0" /><path
       inkscape:connector-curvature="0"
       id="path3126"
       style="font-size:8px;font-variant:normal;font-weight:normal;writing-mode:lr-tb;fill:#231f20;fill-opacity:1;fill-rule:nonzero;stroke:none;font-family:Times;-inkscape-font-specification:Times-Roman"
       d="m 76.972141,3.056497 c -0.384,-0.607999 -0.728001,-0.84 -1.24,-0.84 -0.456,0 -0.800001,0.232001 -1.032,0.688 -0.144,0.304 -0.2,0.568001 -0.216,1.056 l 2.464,0 c -0.064,0.52 -0.144001,0.752001 -0.344,1.008 -0.24,0.288 -0.608001,0.456 -1.024,0.456 -0.4,0 -0.776001,-0.144 -1.08,-0.416 -0.376,-0.327999 -0.592,-0.896 -0.592,-1.552 0,-1.103998 0.576001,-1.792 1.496,-1.792 0.759999,0 1.36,0.472001 1.696,1.336 l -0.128,0.056 m -2.472,1.16 c 0.088,0.624 0.36,0.92 0.848,0.92 0.487999,0 0.68,-0.224 0.784,-0.92 l -1.632,0" /><path
       inkscape:connector-curvature="0"
       id="path3128"
       style="font-size:8px;font-variant:normal;font-weight:normal;writing-mode:lr-tb;fill:#231f20;fill-opacity:1;fill-rule:nonzero;stroke:none;font-family:Times;-inkscape-font-specification:Times-Roman"
       d="m 80.444141,2.992497 c -0.384,-0.559999 -0.672001,-0.752 -1.128,-0.752 -0.728,0 -1.24,0.640001 -1.24,1.56 0,0.824 0.44,1.392 1.088,1.392 0.287999,0 0.392,-0.088 0.472,-0.384 l 0.048,-0.176 c 0.064,-0.223999 0.208,-0.368 0.376,-0.368 0.207999,0 0.384,0.152001 0.384,0.336 0,0.448 -0.560001,0.824 -1.232,0.824 -0.392,0 -0.800001,-0.16 -1.128,-0.448 -0.4,-0.351999 -0.624,-0.896 -0.624,-1.528 0,-1.039998 0.632001,-1.784 1.52,-1.784 0.359999,0 0.68,0.128001 0.968,0.376 0.215999,0.192 0.368,0.408001 0.608,0.88 l -0.112,0.072" /><path
       inkscape:connector-curvature="0"
       id="path3130"
       style="font-size:8px;font-variant:normal;font-weight:normal;writing-mode:lr-tb;fill:#231f20;fill-opacity:1;fill-rule:nonzero;stroke:none;font-family:Times;-inkscape-font-specification:Times-Roman"
       d="m 82.812141,5.424497 c -1.039999,0 -1.768,-0.768001 -1.768,-1.872 0,-1.079998 0.744001,-1.888 1.752,-1.888 1.007999,0 1.776,0.848002 1.776,1.952 0,1.047999 -0.736001,1.808 -1.76,1.808 m -0.104,-0.224 c 0.671999,0 1.144,-0.768001 1.144,-1.864 0,-0.903999 -0.360001,-1.448 -0.96,-1.448 -0.312,0 -0.608,0.192001 -0.776,0.512 -0.224,0.416 -0.352,0.976001 -0.352,1.544 0,0.76 0.376,1.256 0.944,1.256" /><path
       inkscape:connector-curvature="0"
       id="path3132"
       style="font-size:8px;font-variant:normal;font-weight:normal;writing-mode:lr-tb;fill:#231f20;fill-opacity:1;fill-rule:nonzero;stroke:none;font-family:Times;-inkscape-font-specification:Times-Roman"
       d="m 84.940141,4.928497 c 0.048,0.024 0.128,0.032 0.216,0.032 0.223999,0 0.296,-0.12 0.296,-0.512 l 0,-1.984 c 0,-0.455999 -0.088,-0.568 -0.496,-0.6 l 0,-0.12 1.696,0 0,0.12 c -0.408,0.032 -0.528,0.128001 -0.528,0.416 l 0,2.248 c 0.383999,0.36 0.56,0.456 0.824,0.456 0.391999,0 0.584,-0.248 0.584,-0.776 l 0,-1.672 c 0,-0.503999 -0.104001,-0.64 -0.504,-0.672 l 0,-0.12 1.664,0 0,0.12 c -0.392,0.04 -0.488,0.136001 -0.488,0.528 l 0,1.832 c 0,0.752 -0.352001,1.2 -0.944,1.2 -0.368,0 -0.616001,-0.136 -1.16,-0.648 l 0,0.632 -0.056,0.016 c -0.392,-0.143999 -0.664001,-0.232 -1.104,-0.36 l 0,-0.136" /><path
       inkscape:connector-curvature="0"
       id="path3134"
       style="font-size:8px;font-variant:normal;font-weight:normal;writing-mode:lr-tb;fill:#231f20;fill-opacity:1;fill-rule:nonzero;stroke:none;font-family:Times;-inkscape-font-specification:Times-Roman"
       d="m 91.564141,1.664497 1.176,0.416 0,0.128 c -0.144,-0.008 -0.16,-0.008 -0.184,-0.008 -0.288,0 -0.352,0.088 -0.352,0.456 l 0,4.536 -0.04,0.016 c -0.384,-0.135999 -0.664001,-0.216 -1.176,-0.352 l 0,-0.128 c 0.064,0.008 0.112,0.008 0.176,0.008 0.295999,0 0.368,-0.08 0.368,-0.408 l 0,-1.248 c -0.304,0.256 -0.520001,0.344 -0.84,0.344 -0.919999,0 -1.664,-0.904001 -1.664,-2.04 0,-1.023999 0.600001,-1.72 1.48,-1.72 0.447999,0 0.752,0.160001 1.024,0.536 l 0,-0.512 0.032,-0.024 m -0.032,0.896 c 0,-0.056 -0.056,-0.152 -0.136,-0.24 -0.144,-0.159999 -0.344001,-0.24 -0.576,-0.24 -0.664,0 -1.104,0.640001 -1.104,1.624 0,0.904 0.392,1.496 1,1.496 0.423999,0 0.816,-0.376 0.816,-0.8 l 0,-1.84" /><path
       inkscape:connector-curvature="0"
       id="path3136"
       style="font-size:8px;font-variant:normal;font-weight:normal;writing-mode:lr-tb;fill:#231f20;fill-opacity:1;fill-rule:nonzero;stroke:none;font-family:Times;-inkscape-font-specification:Times-Roman"
       d="m 96.34814,2.272497 c -0.136,-0.111999 -0.232,-0.152 -0.352,-0.152 -0.184,0 -0.24,0.112001 -0.24,0.464 l 0,1.56 c 0,0.416 -0.04,0.648001 -0.16,0.84 -0.176,0.288 -0.520001,0.44 -0.992,0.44 -0.752,0 -1.344,-0.392 -1.344,-0.896 0,-0.183999 0.16,-0.344 0.344,-0.344 0.192,0 0.36,0.160001 0.36,0.336 0,0.032 -0.008,0.072 -0.016,0.128 -0.016,0.072 -0.024,0.136001 -0.024,0.192 0,0.216 0.256,0.392 0.576,0.392 0.391999,0 0.608,-0.232 0.608,-0.664 l 0,-0.488 c -1.231999,-0.495999 -1.368001,-0.56 -1.712,-0.864 -0.176,-0.159999 -0.288,-0.432 -0.288,-0.696 0,-0.503999 0.352,-0.856 0.84,-0.856 0.351999,0 0.68,0.168001 1.168,0.584 0.04,-0.415999 0.184,-0.584 0.512,-0.584 0.271999,0 0.44,0.096 0.72,0.4 l 0,0.208 m -1.24,0.456 c 0,-0.247999 -0.04,-0.32 -0.208,-0.416 -0.192,-0.111999 -0.416,-0.184 -0.584,-0.184 -0.28,0 -0.504,0.272001 -0.504,0.616 l 0,0.032 c 0,0.472 0.328001,0.760001 1.296,1.112 l 0,-1.16" /><path
       inkscape:connector-curvature="0"
       id="path3138"
       style="font-size:8px;font-variant:normal;font-weight:normal;writing-mode:lr-tb;fill:#231f20;fill-opacity:1;fill-rule:nonzero;stroke:none;font-family:Times;-inkscape-font-specification:Times-Roman"
       d="m 96.42014,4.864497 c 0.112,0.024 0.184,0.032 0.28,0.032 0.2,0 0.272,-0.128 0.272,-0.48 l 0,-2 c 0,-0.399999 -0.056,-0.456 -0.568,-0.552 l 0,-0.12 1.92,0 0,0.12 c -0.544,0.024 -0.68,0.144001 -0.68,0.6 l 0,1.8 c 0,0.256 0.344,0.656 0.56,0.656 0.048,0 0.12,-0.04 0.208,-0.12 0.128,-0.111999 0.216,-0.16 0.32,-0.16 0.192,0 0.312,0.136001 0.312,0.36 0,0.264 -0.168,0.424 -0.44,0.424 -0.336,0 -0.568001,-0.184 -0.96,-0.752 l 0,0.736 -0.04,0.016 c -0.424,-0.175999 -0.712001,-0.28 -1.184,-0.432 l 0,-0.128" /><path
       inkscape:connector-curvature="0"
       id="path3140"
       style="font-size:8px;font-variant:normal;font-weight:normal;writing-mode:lr-tb;fill:#231f20;fill-opacity:1;fill-rule:nonzero;stroke:none;font-family:Times;-inkscape-font-specification:Times-Roman"
       d="m 102.82814,5.344497 -1.08,0 0,-0.12 c 0.256,0 0.384,-0.072 0.384,-0.2 0,-0.032 -0.008,-0.08 -0.032,-0.136 l -0.776,-2.208 -0.92,2.024 c -0.048,0.112 -0.08,0.216001 -0.08,0.304 0,0.144 0.12,0.2 0.464,0.216 l 0,0.12 -1.648,0 0,-0.112 c 0.208,-0.032 0.344,-0.12 0.408,-0.256 l 0.912,-1.968 0.024,-0.064 0.12,-0.24 c 0.224,-0.399999 0.352,-0.688 0.352,-0.808 0,-0.119999 -0.184,-0.624 -0.32,-0.864 -0.112,-0.207999 -0.288,-0.36 -0.4,-0.36 -0.048,0 -0.12,0.016 -0.2,0.056 -0.152,0.056 -0.288,0.088 -0.424,0.088 -0.184,0 -0.344,-0.16 -0.344,-0.352 0,-0.263999 0.256,-0.464 0.592,-0.464 0.536,0 0.92,0.448002 1.352,1.6 l 1.232,3.264 c 0.104,0.256 0.192,0.336 0.384,0.36 l 0,0.12" /><path
       inkscape:connector-curvature="0"
       id="path30"
       style="fill:none;stroke:#231f20;stroke-width:0.8;stroke-linecap:butt;stroke-linejoin:miter;stroke-miterlimit:4;stroke-opacity:1;stroke-dasharray:none"
       d="m 55.8918,18.5262 -51.15391,0 0,20.9769" /><path
       inkscape:connector-curvature="0"
       id="path32"
       style="fill:none;stroke:#231f20;stroke-width:0.8;stroke-linecap:butt;stroke-linejoin:miter;stroke-miterlimit:4;stroke-opacity:1;stroke-dasharray:none"
       d="m 99.5504,18.5262 -45.1258,0" /><path
       inkscape:connector-curvature="0"
       id="path34"
       style="fill:none;stroke:#231f20;stroke-width:0.8;stroke-linecap:butt;stroke-linejoin:miter;stroke-miterlimit:4;stroke-opacity:1;stroke-dasharray:none"
       d="m 8.10703,84.8531 91.44337,0" /><path
       inkscape:connector-curvature="0"
       id="path36"
       style="fill:none;stroke:#231f20;stroke-width:0.8;stroke-linecap:butt;stroke-linejoin:miter;stroke-miterlimit:4;stroke-opacity:1;stroke-dasharray:none"
       d="m 99.5504,151.355 -94.81251,0 0,-14.416" /><path
       inkscape:connector-curvature="0"
       id="path38"
       style="fill:#ffffff;fill-opacity:1;fill-rule:nonzero;stroke:none"
       d="m 101.216,151.5 c 0,-0.92 -0.746,-1.666 -1.6656,-1.666 -0.9219,0 -1.668,0.746 -1.668,1.666 0,0.921 0.7461,1.668 1.668,1.668 0.9196,0 1.6656,-0.747 1.6656,-1.668" /><path
       inkscape:connector-curvature="0"
       id="path40"
       style="fill:none;stroke:#231f20;stroke-width:0.5;stroke-linecap:butt;stroke-linejoin:miter;stroke-miterlimit:4;stroke-opacity:1;stroke-dasharray:none"
       d="m 101.216,151.40914 c 0,-0.92 -0.746,-1.666 -1.6656,-1.666 -0.9219,0 -1.668,0.746 -1.668,1.666 0,0.921 0.7461,1.668 1.668,1.668 0.9196,0 1.6656,-0.747 1.6656,-1.668 z" /><path
       inkscape:connector-curvature="0"
       id="path42"
       style="fill:#ffffff;fill-opacity:1;fill-rule:nonzero;stroke:none"
       d="m 101.216,84.518 c 0,-0.92 -0.746,-1.666 -1.6656,-1.666 -0.9219,0 -1.668,0.746 -1.668,1.666 0,0.9211 0.7461,1.6679 1.668,1.6679 0.9196,0 1.6656,-0.7468 1.6656,-1.6679" /><path
       inkscape:connector-curvature="0"
       id="path44"
       style="fill:none;stroke:#231f20;stroke-width:0.5;stroke-linecap:butt;stroke-linejoin:miter;stroke-miterlimit:4;stroke-opacity:1;stroke-dasharray:none"
       d="m 101.216,84.97228 c 0,-0.92 -0.746,-1.666 -1.6656,-1.666 -0.9219,0 -1.668,0.746 -1.668,1.666 0,0.9211 0.7461,1.6679 1.668,1.6679 0.9196,0 1.6656,-0.7468 1.6656,-1.6679 z" /><path
       inkscape:connector-curvature="0"
       id="path46"
       style="fill:#ffffff;fill-opacity:1;fill-rule:nonzero;stroke:none"
       d="m 101.216,18.525 c 0,-0.9199 -0.746,-1.666 -1.6656,-1.666 -0.9219,0 -1.668,0.7461 -1.668,1.666 0,0.9211 0.7461,1.668 1.668,1.668 0.9196,0 1.6656,-0.7469 1.6656,-1.668" /><path
       inkscape:connector-curvature="0"
       id="path48"
       style="fill:none;stroke:#231f20;stroke-width:0.5;stroke-linecap:butt;stroke-linejoin:miter;stroke-miterlimit:4;stroke-opacity:1;stroke-dasharray:none"
       d="m 101.216,18.525 c 0,-0.9199 -0.746,-1.666 -1.6656,-1.666 -0.9219,0 -1.668,0.7461 -1.668,1.666 0,0.9211 0.7461,1.668 1.668,1.668 0.9196,0 1.6656,-0.7469 1.6656,-1.668 z" /><path
       inkscape:connector-curvature="0"
       id="path50"
       style="fill:none;stroke:#231f20;stroke-width:0.5;stroke-linecap:butt;stroke-linejoin:miter;stroke-miterlimit:4;stroke-opacity:1;stroke-dasharray:none"
       d="m 19.68549,113.814 0,-25.6597" /><path
       inkscape:connector-curvature="0"
       id="path52"
       style="fill:#231f20;fill-opacity:1;fill-rule:nonzero;stroke:none"
       d="m 19.68549,88.5371 1.3516,0.8211 0.03,-0.0457 -0.875,-2.2027 c -0.1687,-0.7676 -0.3379,-1.5352 -0.5066,-2.3028 -0.1692,0.7676 -0.3379,1.5352 -0.5067,2.3028 l -0.875,2.2027 0.0235,0.0457 1.3582,-0.8211" /><path
       inkscape:connector-curvature="0"
       id="path54"
       style="fill:none;stroke:#231f20;stroke-width:0.5;stroke-linecap:butt;stroke-linejoin:miter;stroke-miterlimit:4;stroke-opacity:1;stroke-dasharray:none"
       d="m 19.68549,147.936 0,-22.194" /><path
       inkscape:connector-curvature="0"
       id="path56"
       style="fill:#231f20;fill-opacity:1;fill-rule:nonzero;stroke:none"
       d="m 19.68549,147.553 -1.3516,-0.821 -0.0301,0.047 0.875,2.203 c 0.1688,0.767 0.3375,1.535 0.5067,2.302 0.1687,-0.767 0.3379,-1.535 0.5066,-2.302 l 0.875,-2.203 -0.023,-0.047 -1.3586,0.821" /><path
       inkscape:connector-curvature="0"
       id="path58"
       style="fill:none;stroke:#231f20;stroke-width:0.5;stroke-linecap:butt;stroke-linejoin:miter;stroke-miterlimit:4;stroke-opacity:1;stroke-dasharray:none"
       d="m 19.68549,47.3148 0,-25.6597" /><path
       inkscape:connector-curvature="0"
       id="path60"
       style="fill:#231f20;fill-opacity:1;fill-rule:nonzero;stroke:none"
       d="m 19.68549,22.0379 1.3516,0.8199 0.03,-0.0449 -0.875,-2.2027 c -0.1687,-0.768 -0.3379,-1.5352 -0.5066,-2.3032 -0.1692,0.768 -0.3379,1.5352 -0.5067,2.3032 l -0.875,2.2027 0.0235,0.0449 1.3582,-0.8199" /><path
       inkscape:connector-curvature="0"
       id="path62"
       style="fill:none;stroke:#231f20;stroke-width:0.5;stroke-linecap:butt;stroke-linejoin:miter;stroke-miterlimit:4;stroke-opacity:1;stroke-dasharray:none"
       d="m 19.68549,81.4359 0,-22.1933" /><path
       inkscape:connector-curvature="0"
       id="path64"
       style="fill:#231f20;fill-opacity:1;fill-rule:nonzero;stroke:none"
       d="m 19.68549,81.0531 -1.3516,-0.8211 -0.0301,0.0457 0.875,2.2032 c 0.1688,0.7675 0.3375,1.5351 0.5067,2.3027 0.1687,-0.7676 0.3379,-1.5352 0.5066,-2.3027 l 0.875,-2.2032 -0.023,-0.0457 -1.3586,0.8211" /><path
       inkscape:connector-curvature="0"
       id="path66"
       style="fill:none;stroke:#231f20;stroke-width:0.80000001;stroke-linecap:round;stroke-linejoin:round;stroke-miterlimit:3.86369991;stroke-opacity:1;stroke-dasharray:none"
       d="m 0.400391,119.381 c 0.027343,2.338 1.928519,4.212 4.244529,4.185 1.41016,-0.017 2.65781,-0.734 3.40469,-1.821 -0.75781,-1.167 -1.95547,-1.372 -3.4418,-1.354 -2.3164,0.027 -4.172654,1.945 -4.144919,4.282 0.027343,2.338 1.928519,4.211 4.244529,4.184 1.34375,-0.016 2.54883,-0.669 3.30469,-1.672 -0.7793,-0.983 -1.99609,-1.306 -3.33945,-1.291 -2.31602,0.027 -4.17266,1.944 -4.145316,4.281 0.027734,2.338 1.903126,4.213 4.219536,4.186 l -0.00899,3.85" /><path
       inkscape:connector-curvature="0"
       id="path68"
       style="fill:none;stroke:#231f20;stroke-width:0.80000001;stroke-linecap:round;stroke-linejoin:round;stroke-miterlimit:3.86369991;stroke-opacity:1;stroke-dasharray:none"
       d="m 0.487891,114.196 c 0.027343,2.337 1.928519,4.209 4.244529,4.181 1.34961,-0.015 2.57578,-0.416 3.33125,-1.423 -0.76328,-1.134 -2.05937,-1.872 -3.51836,-1.854 -2.3164,0.027 -4.172654,1.943 -4.144919,4.281" /><path
       inkscape:connector-curvature="0"
       id="path70"
       style="fill:none;stroke:#231f20;stroke-width:0.80000001;stroke-linecap:round;stroke-linejoin:round;stroke-miterlimit:3.86369991;stroke-opacity:1;stroke-dasharray:none"
       d="m 0.575,109.009 c 0.027344,2.337 1.92852,4.209 4.24492,4.182 1.34961,-0.016 2.575,-0.416 3.33086,-1.424 -0.76289,-1.134 -2.05898,-1.87 -3.51797,-1.853 -2.3164,0.027 -4.172654,1.944 -4.144919,4.282" /><path
       inkscape:connector-curvature="0"
       id="path72"
       style="fill:none;stroke:#231f20;stroke-width:0.80000001;stroke-linecap:round;stroke-linejoin:round;stroke-miterlimit:3.86369991;stroke-opacity:1;stroke-dasharray:none"
       d="M 0.717188,45.5109 C 0.689453,43.173 2.5207,41.2551 4.83672,41.2281 l -0.1,-3.8492" /><path
       inkscape:connector-curvature="0"
       id="path74"
       style="fill:none;stroke:#231f20;stroke-width:0.80000001;stroke-linecap:round;stroke-linejoin:round;stroke-miterlimit:3.86369991;stroke-opacity:1;stroke-dasharray:none"
       d="M 0.447656,98.2152 C 0.475,100.553 2.37656,102.427 4.69297,102.4 6.10273,102.383 7.35,101.666 8.09727,100.579 7.33945,99.4117 6.14141,99.2074 4.65508,99.2242 2.33906,99.2516 0.482422,101.17 0.510156,103.507 c 0.027344,2.338 1.928904,4.211 4.244534,4.184 1.34375,-0.016 2.54883,-0.669 3.30508,-1.672 -0.77891,-0.983 -1.99571,-1.306 -3.33946,-1.291 -2.3164,0.027 -4.173044,1.944 -4.14531,4.281" /><path
       inkscape:connector-curvature="0"
       id="path76"
       style="fill:none;stroke:#231f20;stroke-width:0.80000001;stroke-linecap:round;stroke-linejoin:round;stroke-miterlimit:3.86369991;stroke-opacity:1;stroke-dasharray:none"
       d="M 0.535156,93.0297 C 0.5625,95.3668 2.46406,97.2387 4.77969,97.2113 6.1293,97.1957 7.35547,96.7953 8.11094,95.7875 7.34766,94.6539 6.05195,93.9164 4.59258,93.934 2.27656,93.9613 0.419922,95.8773 0.447656,98.2152" /><path
       inkscape:connector-curvature="0"
       id="path78"
       style="fill:none;stroke:#231f20;stroke-width:0.80000001;stroke-linecap:round;stroke-linejoin:round;stroke-miterlimit:3.86369991;stroke-opacity:1;stroke-dasharray:none"
       d="M 0.622656,87.8434 C 0.65,90.1801 2.55078,92.0523 4.86719,92.025 6.2168,92.0094 7.44219,91.609 8.19805,90.6012 7.43516,89.4672 6.13906,88.7309 4.68008,88.7477 2.36367,88.775 0.507422,90.6918 0.535156,93.0297" /><path
       inkscape:connector-curvature="0"
       id="path80"
       style="fill:none;stroke:#231f20;stroke-width:0.80000001;stroke-linecap:round;stroke-linejoin:round;stroke-miterlimit:3.86369991;stroke-opacity:1;stroke-dasharray:none"
       d="M 0.494922,77.0492 C 0.522656,79.3871 2.42383,81.2613 4.74023,81.234 6.15,81.2172 7.39727,80.4996 8.14453,79.4125 7.38672,78.2457 6.18906,78.0406 4.70273,78.0582 2.38633,78.0855 0.529688,80.0035 0.557422,82.3414 0.585156,84.6793 2.48633,86.5523 4.80234,86.525 6.14609,86.5094 7.35156,85.8559 8.10703,84.8531 7.32813,83.8695 6.11133,83.5465 4.76758,83.5621 2.45117,83.5895 0.594922,85.5063 0.622656,87.8434" /><path
       inkscape:connector-curvature="0"
       id="path82"
       style="fill:none;stroke:#231f20;stroke-width:0.80000001;stroke-linecap:round;stroke-linejoin:round;stroke-miterlimit:3.86369991;stroke-opacity:1;stroke-dasharray:none"
       d="M 0.582422,71.8629 C 0.609766,74.1996 2.51133,76.0719 4.82734,76.0445 6.17695,76.0289 7.40273,75.6285 8.1582,74.6207 7.39492,73.4867 6.09922,72.7504 4.64023,72.768 2.32422,72.7945 0.467578,74.7113 0.494922,77.0492" /><path
       inkscape:connector-curvature="0"
       id="path84"
       style="fill:none;stroke:#231f20;stroke-width:0.80000001;stroke-linecap:round;stroke-linejoin:round;stroke-miterlimit:3.86369991;stroke-opacity:1;stroke-dasharray:none"
       d="M 0.669922,66.6773 C 0.697266,69.0141 2.59844,70.8863 4.91445,70.859 6.26406,70.8434 7.49023,70.443 8.2457,69.4352 7.48242,68.3012 6.18633,67.5641 4.72773,67.5816 2.41094,67.609 0.554688,69.5258 0.582422,71.8629" /><path
       inkscape:connector-curvature="0"
       id="path86"
       style="fill:none;stroke:#231f20;stroke-width:0.80000001;stroke-linecap:round;stroke-linejoin:round;stroke-miterlimit:3.86369991;stroke-opacity:1;stroke-dasharray:none"
       d="M 0.542578,55.8832 C 0.570313,58.2211 2.47109,60.0953 4.7875,60.068 6.19727,60.0512 7.44492,59.3336 8.1918,58.2465 7.43398,57.0797 6.23633,56.8746 4.75,56.8922 c -2.31641,0.0273 -4.173047,1.9453 -4.144922,4.282 0.027344,2.3379 1.928512,4.211 4.244532,4.1836 1.34375,-0.0156 2.54922,-0.668 3.30508,-1.6719 -0.7793,-0.9824 -1.9961,-1.3066 -3.33985,-1.2898 -2.3164,0.0273 -4.172652,1.9434 -4.144918,4.2812" /><path
       inkscape:connector-curvature="0"
       id="path88"
       style="fill:none;stroke:#231f20;stroke-width:0.80000001;stroke-linecap:round;stroke-linejoin:round;stroke-miterlimit:3.86369991;stroke-opacity:1;stroke-dasharray:none"
       d="M 0.630078,50.6969 C 0.657422,53.034 2.55859,54.9059 4.87461,54.8785 6.22422,54.8629 7.45039,54.4625 8.20586,53.4547 7.44219,52.3211 6.14648,51.5852 4.6875,51.6012 2.37148,51.6281 0.515234,53.5453 0.542578,55.8832" /><path
       inkscape:connector-curvature="0"
       id="path90"
       style="fill:none;stroke:#231f20;stroke-width:0.80000001;stroke-linecap:round;stroke-linejoin:round;stroke-miterlimit:3.86369991;stroke-opacity:1;stroke-dasharray:none"
       d="M 0.717188,45.5109 C 0.744531,47.848 2.64609,49.7199 4.96172,49.693 6.31133,49.677 7.5375,49.277 8.29297,48.2691 7.52969,47.1352 6.23398,46.398 4.775,46.416 2.45859,46.443 0.601953,48.3602 0.630078,50.6969" /><path
       inkscape:connector-curvature="0"
       id="path3143"
       style="font-size:8px;font-style:italic;font-variant:normal;writing-mode:lr-tb;fill:#231f20;fill-opacity:1;fill-rule:nonzero;stroke:none;font-family:Times;-inkscape-font-specification:Times-Italic"
       d="m 22.00389,55.665 -1.488,0 0,-0.128 c 0.36,-0.04 0.504,-0.12 0.504,-0.272 0,-0.152 -0.152,-0.496001 -0.416,-0.952 l -1.648,-2.848 -0.528,3.544 c -0.008,0.04 -0.008,0.072 -0.008,0.12 0,0.272 0.112001,0.352 0.616,0.408 l 0,0.128 -1.928,0 0,-0.128 c 0.448,-0.056 0.464,-0.08 0.632,-1.08 l 0.68,-4.16 0.152,0 2.984,4.92 c 0.136,0.216 0.264,0.312 0.448,0.32 l 0,0.128" /><path
       inkscape:connector-curvature="0"
       id="path3146"
       style="font-size:6px;font-variant:normal;font-weight:normal;writing-mode:lr-tb;fill:#231f20;fill-opacity:1;fill-rule:nonzero;stroke:none;font-family:Times;-inkscape-font-specification:Times-Roman"
       d="m 24.23817,49.263 -0.078,0.03 c -0.222,-0.342 -0.3,-0.396 -0.57,-0.396 l -1.434,0 1.008,1.056 c 0.533999,0.557999 0.768,1.014001 0.768,1.482 0,0.599999 -0.486001,1.062 -1.11,1.062 -0.33,0 -0.642,-0.132 -0.864,-0.372 -0.192,-0.204 -0.282,-0.396 -0.384,-0.822 l 0.126,-0.03 c 0.24,0.587999 0.456,0.78 0.87,0.78 0.504,0 0.846,-0.342001 0.846,-0.846 0,-0.467999 -0.276,-1.026 -0.78,-1.56 l -1.068,-1.134 0,-0.072 2.34,0 0.33,0.822" /><path
       d="m 11.448406,84.97228 c 0,-0.92 -0.746,-1.666 -1.6655999,-1.666 -0.9219,0 -1.668,0.746 -1.668,1.666 0,0.9211 0.7461,1.6679 1.668,1.6679 0.9195999,0 1.6655999,-0.7468 1.6655999,-1.6679 z"
       style="fill:#000000;stroke:#000000;stroke-width:0.50000000000000000;stroke-linecap:butt;stroke-linejoin:miter;stroke-miterlimit:4;stroke-opacity:1;stroke-dasharray:none"
       id="path4058"
       inkscape:connector-curvature="0" /></g></svg>