<?xml version="1.0" encoding="UTF-8" standalone="no"?>
<!-- Created with Inkscape (http://www.inkscape.org/) -->

<svg
   xmlns:dc="http://purl.org/dc/elements/1.1/"
   xmlns:cc="http://creativecommons.org/ns#"
   xmlns:rdf="http://www.w3.org/1999/02/22-rdf-syntax-ns#"
   xmlns:svg="http://www.w3.org/2000/svg"
   xmlns="http://www.w3.org/2000/svg"
   xmlns:xlink="http://www.w3.org/1999/xlink"
   xmlns:sodipodi="http://sodipodi.sourceforge.net/DTD/sodipodi-0.dtd"
   xmlns:inkscape="http://www.inkscape.org/namespaces/inkscape"
   id="svg2"
   version="1.1"
   inkscape:version="0.47 r22583"
   width="496.06299"
   height="283.46457"
   xml:space="preserve"
   sodipodi:docname="S3-EE-02-004.svg"><metadata
     id="metadata8"><rdf:RDF><cc:Work
         rdf:about=""><dc:format>image/svg+xml</dc:format><dc:type
           rdf:resource="http://purl.org/dc/dcmitype/StillImage" /><dc:title /></cc:Work></rdf:RDF></metadata><defs
     id="defs6"><inkscape:perspective
       sodipodi:type="inkscape:persp3d"
       inkscape:vp_x="0 : 141.73228 : 1"
       inkscape:vp_y="0 : 1000 : 0"
       inkscape:vp_z="496.06299 : 141.73228 : 1"
       inkscape:persp3d-origin="248.03149 : 94.48819 : 1"
       id="perspective162" /><clipPath
       clipPathUnits="userSpaceOnUse"
       id="clipPath82"><path
         d="m 976.105,1307.16 0,-598.129"
         id="path84"
         inkscape:connector-curvature="0" /></clipPath><linearGradient
       x1="0"
       y1="0"
       x2="1"
       y2="0"
       gradientUnits="userSpaceOnUse"
       gradientTransform="matrix(0.001,0,0,-0.001,97.6104,100.809)"
       spreadMethod="pad"
       id="linearGradient86"><stop
         style="stop-opacity:1;stop-color:#ffffff"
         offset="0"
         id="stop88" /><stop
         style="stop-opacity:1;stop-color:#231f20"
         offset="1"
         id="stop90" /></linearGradient><clipPath
       clipPathUnits="userSpaceOnUse"
       id="clipPath100"><path
         d="m 1004.93,1307.16 0,-598.129"
         id="path102"
         inkscape:connector-curvature="0" /></clipPath><linearGradient
       x1="0"
       y1="0"
       x2="1"
       y2="0"
       gradientUnits="userSpaceOnUse"
       gradientTransform="matrix(0.001,0,0,-0.001,100.493,100.809)"
       spreadMethod="pad"
       id="linearGradient104"><stop
         style="stop-opacity:1;stop-color:#ffffff"
         offset="0"
         id="stop106" /><stop
         style="stop-opacity:1;stop-color:#231f20"
         offset="1"
         id="stop108" /></linearGradient><clipPath
       clipPathUnits="userSpaceOnUse"
       id="clipPath118"><path
         d="m 947.273,1307.16 0,-598.129"
         id="path120"
         inkscape:connector-curvature="0" /></clipPath><linearGradient
       x1="0"
       y1="0"
       x2="1"
       y2="0"
       gradientUnits="userSpaceOnUse"
       gradientTransform="matrix(0.001,0,0,-0.001,94.7275,100.809)"
       spreadMethod="pad"
       id="linearGradient122"><stop
         style="stop-opacity:1;stop-color:#ffffff"
         offset="0"
         id="stop124" /><stop
         style="stop-opacity:1;stop-color:#231f20"
         offset="1"
         id="stop126" /></linearGradient><linearGradient
       inkscape:collect="always"
       xlink:href="#linearGradient122"
       id="linearGradient4508"
       gradientUnits="userSpaceOnUse"
       gradientTransform="matrix(0.001,0,0,-0.001,94.7275,100.809)"
       spreadMethod="pad"
       x1="0"
       y1="0"
       x2="1"
       y2="0" /><linearGradient
       inkscape:collect="always"
       xlink:href="#linearGradient104"
       id="linearGradient4512"
       gradientUnits="userSpaceOnUse"
       gradientTransform="matrix(0.001,0,0,-0.001,100.493,100.809)"
       spreadMethod="pad"
       x1="0"
       y1="0"
       x2="1"
       y2="0" /><linearGradient
       inkscape:collect="always"
       xlink:href="#linearGradient86"
       id="linearGradient4516"
       gradientUnits="userSpaceOnUse"
       gradientTransform="matrix(0.001,0,0,-0.001,97.6104,100.809)"
       spreadMethod="pad"
       x1="0"
       y1="0"
       x2="1"
       y2="0" /><linearGradient
       inkscape:collect="always"
       xlink:href="#linearGradient86"
       id="linearGradient4549"
       gradientUnits="userSpaceOnUse"
       gradientTransform="matrix(0.001,0,0,-0.001,97.6104,100.809)"
       spreadMethod="pad"
       x1="0"
       y1="0"
       x2="1"
       y2="0" /><linearGradient
       inkscape:collect="always"
       xlink:href="#linearGradient86"
       id="linearGradient4552"
       gradientUnits="userSpaceOnUse"
       gradientTransform="matrix(1e-4,0,0,-1e-4,31.730378,24.103882)"
       spreadMethod="pad"
       x1="0"
       y1="0"
       x2="1"
       y2="0" /><linearGradient
       inkscape:collect="always"
       xlink:href="#linearGradient104"
       id="linearGradient4554"
       gradientUnits="userSpaceOnUse"
       gradientTransform="matrix(0.001,0,0,-0.001,100.493,100.809)"
       spreadMethod="pad"
       x1="0"
       y1="0"
       x2="1"
       y2="0" /><linearGradient
       inkscape:collect="always"
       xlink:href="#linearGradient104"
       id="linearGradient4557"
       gradientUnits="userSpaceOnUse"
       gradientTransform="matrix(1e-4,0,0,-1e-4,32.018638,24.103882)"
       spreadMethod="pad"
       x1="0"
       y1="0"
       x2="1"
       y2="0" /><linearGradient
       inkscape:collect="always"
       xlink:href="#linearGradient122"
       id="linearGradient4559"
       gradientUnits="userSpaceOnUse"
       gradientTransform="matrix(0.001,0,0,-0.001,94.7275,100.809)"
       spreadMethod="pad"
       x1="0"
       y1="0"
       x2="1"
       y2="0" /><linearGradient
       inkscape:collect="always"
       xlink:href="#linearGradient122"
       id="linearGradient4562"
       gradientUnits="userSpaceOnUse"
       gradientTransform="matrix(1e-4,0,0,-1e-4,31.442088,24.103882)"
       spreadMethod="pad"
       x1="0"
       y1="0"
       x2="1"
       y2="0" /></defs><sodipodi:namedview
     pagecolor="#ffffff"
     bordercolor="#666666"
     borderopacity="1"
     objecttolerance="10"
     gridtolerance="10"
     guidetolerance="10"
     inkscape:pageopacity="0"
     inkscape:pageshadow="2"
     inkscape:window-width="1024"
     inkscape:window-height="689"
     id="namedview4"
     showgrid="false"
     units="cm"
     inkscape:document-units="cm"
     inkscape:zoom="0.98235465"
     inkscape:cx="348.62635"
     inkscape:cy="107.70673"
     inkscape:window-x="0"
     inkscape:window-y="27"
     inkscape:window-maximized="1"
     inkscape:current-layer="g10" /><g
     id="g10"
     inkscape:groupmode="layer"
     inkscape:label="ink_ext_XXXXXX"
     transform="matrix(1.25,0,0,-1.25,0,283.46484)"><path
   inkscape:connector-curvature="0"
   id="path4122"
   style="font-size:8px;font-style:italic;font-variant:normal;writing-mode:lr-tb;fill:#231f20;fill-opacity:1;fill-rule:nonzero;stroke:none;font-family:Times;-inkscape-font-specification:Times-Italic"
   d="m 22.361338,120.67198 2.232,0 0,0.12 -0.128,0 c -0.392,0 -0.56,0.08 -0.56,0.256 0,0.072 0.032,0.216 0.096,0.416 0.016,0.064 0.032,0.112 0.04,0.136 l 0.008,0.04 1.144,4.152 c 0.032,0.12 0.048,0.192 0.048,0.232 0,0.032 -0.016,0.056 -0.04,0.056 0,0 -0.016,0 -0.024,-0.008 l -0.632,-0.12 -0.72,-0.144 c -0.016,0 -0.08,-0.016 -0.168,-0.032 l 0,-0.12 0.456,0.016 c 0.184,0.008 0.304,-0.088 0.304,-0.248 0,-0.048 -0.016,-0.128 -0.056,-0.272 l -1.104,-3.936 c -0.096,-0.296 -0.264001,-0.376 -0.896,-0.432 l 0,-0.112" /><path
   inkscape:connector-curvature="0"
   id="path4124"
   style="font-size:8px;font-style:italic;font-variant:normal;writing-mode:lr-tb;fill:#231f20;fill-opacity:1;fill-rule:nonzero;stroke:none;font-family:Times;-inkscape-font-specification:Times-Italic"
   d="m 28.225338,122.71198 -1.752,0 -0.112,-0.504 1.76,0 0.104,0.504" /><path
   inkscape:connector-curvature="0"
   id="path4127"
   style="font-size:8px;font-variant:normal;font-weight:normal;writing-mode:lr-tb;fill:#231f20;fill-opacity:1;fill-rule:nonzero;stroke:none;font-family:Symbol;-inkscape-font-specification:Symbol"
   d="m 30.865398,120.61598 c 0.983999,0.136 1.688,1.032 1.688,2.16 0,1.096 -0.672001,1.888 -1.688,1.96 l 0,0.64 c 0,0.296 0.008,0.448 0.024,0.632 l -0.376,0.152 c 0.016,-0.192 0.024,-0.392 0.024,-0.712 l 0,-0.712 c -0.959999,-0.112 -1.688,-1.024 -1.688,-2.128 0,-1.112 0.688001,-1.928 1.688,-2.008 l 0,-0.808 c 0,-0.36 -0.008,-0.584 -0.024,-0.808 l 0.376,-0.088 c -0.016,0.264 -0.016,0.288 -0.024,0.64 l 0,0.216 0,0.864 m -0.328,0.32 c -0.224,0.088 -0.384,0.216 -0.504,0.4 -0.256,0.392 -0.408,1 -0.408,1.632 0,0.904 0.344001,1.464 0.912,1.488 l 0,-3.52 m 0.328,3.464 c 0.567999,-0.208 0.912,-0.968 0.912,-1.984 0,-0.944 -0.328001,-1.488 -0.912,-1.52 l 0,3.504" /><path
   inkscape:connector-curvature="0"
   id="path4130"
   style="font-size:8px;font-style:italic;font-variant:normal;writing-mode:lr-tb;fill:#231f20;fill-opacity:1;fill-rule:nonzero;stroke:none;font-family:Times;-inkscape-font-specification:Times-Italic"
   d="m 25.681338,111.95237 c -0.12,-0.12 -0.168,-0.16 -0.224,-0.224 -0.24,-0.248 -0.344,-0.328 -0.416,-0.328 -0.064,0 -0.112,0.048 -0.112,0.104 0,0.16 0.336,1.528 0.712,2.904 0.024,0.08 0.032,0.096 0.048,0.168 l -0.056,0.024 -0.488,-0.056 -0.024,-0.024 -0.088,-0.384 c -0.064,0.296 -0.296,0.464 -0.64,0.464 -1.055999,0 -2.288,-1.464 -2.288,-2.728 0,-0.56 0.304001,-0.888 0.816,-0.888 0.559999,0 0.904001,0.264 1.608,1.256 -0.16,-0.624 -0.184,-0.728 -0.184,-0.92 0,-0.232 0.096,-0.328 0.32,-0.328 0.32,0 0.520001,0.152 1.112,0.88 l -0.096,0.08 m -1.24,2.472 c 0.272,-0.016 0.448,-0.208 0.448,-0.488 0,-0.672 -0.400001,-1.616 -0.952,-2.208 -0.192,-0.216 -0.464,-0.352 -0.696,-0.352 -0.28,0 -0.464,0.232 -0.464,0.6 0,0.432 0.304,1.256 0.648,1.752 0.32,0.464 0.696,0.72 1.016,0.696" /><path
   inkscape:connector-curvature="0"
   id="path4132"
   style="font-size:8px;font-style:italic;font-variant:normal;writing-mode:lr-tb;fill:#231f20;fill-opacity:1;fill-rule:nonzero;stroke:none;font-family:Times;-inkscape-font-specification:Times-Italic"
   d="m 28.769338,111.92037 c -0.44,-0.472 -0.752,-0.648 -1.144,-0.648 -0.455999,0 -0.728,0.344 -0.728,0.912 0,0.68 0.28,1.392 0.728,1.864 0.232,0.24 0.552,0.384 0.864,0.384 0.184,0 0.304,-0.064 0.304,-0.16 0,-0.04 -0.016,-0.08 -0.048,-0.152 -0.056,-0.104 -0.072,-0.16 -0.072,-0.232 0,-0.192 0.12,-0.304 0.312,-0.304 0.216,0 0.384,0.16 0.384,0.368 0,0.368 -0.360001,0.648 -0.84,0.648 -1.199999,0 -2.32,-1.168 -2.32,-2.416 0,-0.76 0.432001,-1.2 1.176,-1.2 0.591999,0 1.032,0.248 1.512,0.856 l -0.128,0.08" /><path
   inkscape:connector-curvature="0"
   id="path4135"
   style="font-size:8px;font-variant:normal;font-weight:normal;writing-mode:lr-tb;fill:#231f20;fill-opacity:1;fill-rule:nonzero;stroke:none;font-family:Times;-inkscape-font-specification:Times-Roman"
   d="m 24.489338,103.98359 -0.032,1.088 -0.088,0 -0.016,-0.016 c -0.072,-0.056 -0.08,-0.064 -0.112,-0.064 -0.048,0 -0.128,0.016 -0.216,0.056 -0.176,0.064 -0.352,0.096 -0.56,0.096 -0.631999,0 -1.088,-0.408 -1.088,-0.984 0,-0.448 0.256001,-0.768 0.936,-1.152 l 0.464,-0.264 c 0.28,-0.16 0.416,-0.352 0.416,-0.6 0,-0.352 -0.256,-0.576 -0.664,-0.576 -0.272,0 -0.52,0.104 -0.672,0.28 -0.168,0.2 -0.24,0.384 -0.344,0.84 l -0.128,0 0,-1.248 0.104,0 c 0.056,0.08 0.088,0.096 0.184,0.096 0.072,0 0.184,-0.016 0.368,-0.064 0.224,-0.048 0.44,-0.08 0.584,-0.08 0.615999,0 1.128,0.464 1.128,1.024 0,0.4 -0.192001,0.664 -0.672,0.952 l -0.864,0.512 c -0.224,0.128 -0.344,0.328 -0.344,0.544 0,0.32 0.248,0.544 0.616,0.544 0.455999,0 0.696,-0.272 0.88,-0.984 l 0.12,0" /><path
   inkscape:connector-curvature="0"
   id="path4137"
   style="font-size:8px;font-variant:normal;font-weight:normal;writing-mode:lr-tb;fill:#231f20;fill-opacity:1;fill-rule:nonzero;stroke:none;font-family:Times;-inkscape-font-specification:Times-Roman"
   d="m 28.913338,101.87159 -0.04,0 c -0.368,0 -0.456,0.088 -0.456,0.456 l 0,2.744 -1.264,0 0,-0.136 c 0.496,-0.024 0.592,-0.104 0.592,-0.504 l 0,-1.88 c 0,-0.224 -0.04,-0.336 -0.152,-0.424 -0.216,-0.176 -0.464,-0.272 -0.704,-0.272 -0.312,0 -0.568,0.272 -0.568,0.608 l 0,2.608 -1.168,0 0,-0.112 c 0.384,-0.024 0.496,-0.144 0.496,-0.512 l 0,-2.016 c 0,-0.632 0.384001,-1.04 0.968,-1.04 0.296,0 0.608,0.128 0.824,0.344 l 0.344,0.344 0,-0.664 0.032,-0.016 c 0.4,0.16 0.688,0.248 1.096,0.36 l 0,0.112" /><path
   inkscape:connector-curvature="0"
   id="path4139"
   style="font-size:8px;font-variant:normal;font-weight:normal;writing-mode:lr-tb;fill:#231f20;fill-opacity:1;fill-rule:nonzero;stroke:none;font-family:Times;-inkscape-font-specification:Times-Roman"
   d="m 29.153338,104.61559 c 0.072,0.008 0.128,0.008 0.2,0.008 0.272,0 0.328,-0.08 0.328,-0.456 l 0,-3.744 c 0,-0.416 -0.088,-0.504 -0.56,-0.552 l 0,-0.136 1.936,0 0,0.144 c -0.599999,0.008 -0.704,0.096 -0.704,0.6 l 0,1.256 c 0.28,-0.264 0.472,-0.344 0.808,-0.344 0.943999,0 1.68,0.896 1.68,2.056 0,0.992 -0.560001,1.704 -1.336,1.704 -0.448,0 -0.8,-0.2 -1.152,-0.632 l 0,0.616 -0.048,0.016 c -0.432,-0.168 -0.712001,-0.272 -1.152,-0.408 l 0,-0.128 m 1.2,-0.472 c 0,0.24 0.448,0.528 0.816,0.528 0.591999,0 0.984,-0.608 0.984,-1.536 0,-0.888 -0.392001,-1.488 -0.968,-1.488 -0.376,0 -0.832,0.288 -0.832,0.528 l 0,1.968" /><path
   inkscape:connector-curvature="0"
   id="path4141"
   style="font-size:8px;font-variant:normal;font-weight:normal;writing-mode:lr-tb;fill:#231f20;fill-opacity:1;fill-rule:nonzero;stroke:none;font-family:Times;-inkscape-font-specification:Times-Roman"
   d="m 33.153338,104.61559 c 0.072,0.008 0.128001,0.008 0.2,0.008 0.272,0 0.328,-0.08 0.328,-0.456 l 0,-3.744 c 0,-0.416 -0.088,-0.504 -0.56,-0.552 l 0,-0.136 1.936,0 0,0.144 c -0.599999,0.008 -0.704,0.096 -0.704,0.6 l 0,1.256 c 0.28,-0.264 0.472001,-0.344 0.808,-0.344 0.944,0 1.68,0.896 1.68,2.056 0,0.992 -0.56,1.704 -1.336,1.704 -0.447999,0 -0.8,-0.2 -1.152,-0.632 l 0,0.616 -0.048,0.016 c -0.431999,-0.168 -0.712,-0.272 -1.152,-0.408 l 0,-0.128 m 1.2,-0.472 c 0,0.24 0.448001,0.528 0.816,0.528 0.592,0 0.984,-0.608 0.984,-1.536 0,-0.888 -0.392,-1.488 -0.968,-1.488 -0.375999,0 -0.832,0.288 -0.832,0.528 l 0,1.968" /><path
   inkscape:connector-curvature="0"
   id="path4143"
   style="font-size:8px;font-variant:normal;font-weight:normal;writing-mode:lr-tb;fill:#231f20;fill-opacity:1;fill-rule:nonzero;stroke:none;font-family:Times;-inkscape-font-specification:Times-Roman"
   d="m 37.233338,106.45559 0.048,0 c 0.088,0.008 0.184001,0.016 0.248,0.016 0.256,0 0.336,-0.112 0.336,-0.488 l 0,-3.816 c 0,-0.432 -0.112,-0.536 -0.616,-0.576 l 0,-0.12 1.888,0 0,0.12 c -0.503999,0.032 -0.6,0.112 -0.6,0.552 l 0,4.776 -0.032,0.016 c -0.415999,-0.136 -0.72,-0.216 -1.272,-0.352 l 0,-0.128" /><path
   inkscape:connector-curvature="0"
   id="path4145"
   style="font-size:8px;font-variant:normal;font-weight:normal;writing-mode:lr-tb;fill:#231f20;fill-opacity:1;fill-rule:nonzero;stroke:none;font-family:Times;-inkscape-font-specification:Times-Roman"
   d="m 43.105338,105.07159 -1.08,0 0,-0.12 c 0.256,0 0.384,-0.072 0.384,-0.2 0,-0.032 -0.008,-0.08 -0.032,-0.136 l -0.776,-2.208 -0.92,2.024 c -0.048,0.112 -0.08,0.216 -0.08,0.304 0,0.144 0.120001,0.2 0.464,0.216 l 0,0.12 -1.648,0 0,-0.112 c 0.208,-0.032 0.344001,-0.12 0.408,-0.256 l 0.912,-1.968 0.024,-0.064 0.12,-0.24 c 0.224,-0.4 0.352,-0.688 0.352,-0.808 0,-0.12 -0.184,-0.624 -0.32,-0.864 -0.111999,-0.208 -0.288,-0.36 -0.4,-0.36 -0.048,0 -0.12,0.016 -0.2,0.056 -0.151999,0.056 -0.288,0.088 -0.424,0.088 -0.183999,0 -0.344,-0.16 -0.344,-0.352 0,-0.264 0.256001,-0.464 0.592,-0.464 0.536,0 0.920001,0.448 1.352,1.6 l 1.232,3.264 c 0.104,0.256 0.192001,0.336 0.384,0.36 l 0,0.12" /><path
   inkscape:connector-curvature="0"
   id="path4148"
   style="font-size:8px;font-style:italic;font-variant:normal;writing-mode:lr-tb;fill:#231f20;fill-opacity:1;fill-rule:nonzero;stroke:none;font-family:Times;-inkscape-font-specification:Times-Italic"
   d="m 135.23086,29.381186 c 0.496,-0.048 0.616,-0.112 0.616,-0.328 0,-0.12 -0.032,-0.312 -0.088,-0.512 l -0.984,-3.536 c -0.144,-0.464 -0.2,-0.512 -0.648,-0.592 l 0,-0.128 2.024,0 c 0.936,0 1.792,0.248 2.408,0.696 0.776,0.567999 1.232,1.448001 1.232,2.376 0,1.311999 -0.912,2.152 -2.336,2.152 l -2.224,0 0,-0.128 m 1.464,-0.344 c 0.048,0.176 0.168,0.232 0.488,0.232 0.456,0 0.856,-0.104 1.112,-0.296 0.392,-0.288 0.608,-0.792001 0.608,-1.424 0,-0.863999 -0.336,-1.760001 -0.88,-2.304 -0.472,-0.48 -1.12,-0.72 -1.952,-0.72 -0.368,0 -0.52,0.088 -0.52,0.296 0,0.104 0.04,0.28 0.176,0.76 l 0.968,3.456" /><path
   inkscape:connector-curvature="0"
   id="path36"
   style="fill:none;stroke:#231f20;stroke-width:0.8;stroke-linecap:round;stroke-linejoin:round;stroke-miterlimit:3.93942213;stroke-opacity:1;stroke-dasharray:none"
   d="m 102.98384,90.281982 0,-2.3531 0,0.0011 0,-16.055" /><path
   inkscape:connector-curvature="0"
   id="path38"
   style="fill:none;stroke:#231f20;stroke-width:0.8;stroke-linecap:round;stroke-linejoin:round;stroke-miterlimit:3.93942213;stroke-opacity:1;stroke-dasharray:none"
   d="m 103.01234,155.99898 -35.548902,0" /><path
   inkscape:connector-curvature="0"
   id="path40"
   style="fill:none;stroke:#231f20;stroke-width:0.8;stroke-linecap:round;stroke-linejoin:round;stroke-miterlimit:3.93942213;stroke-opacity:1;stroke-dasharray:none"
   d="m 103.01234,71.835882 -35.815702,0" /><path
   inkscape:connector-curvature="0"
   id="path42"
   style="fill:none;stroke:#231f20;stroke-width:0.5;stroke-linecap:round;stroke-linejoin:round;stroke-miterlimit:3.86369991;stroke-opacity:1;stroke-dasharray:none"
   d="m 65.942038,150.87298 0,-30.966" /><path
   inkscape:connector-curvature="0"
   id="path44"
   style="fill:#231f20;fill-opacity:1;fill-rule:nonzero;stroke:none"
   d="m 65.942038,150.49098 -1.3512,-0.822 -0.0309,0.046 0.875,2.203 c 0.1692,0.768 0.3379,1.535 0.5071,2.303 0.1691,-0.768 0.3378,-1.535 0.507,-2.303 l 0.875,-2.203 -0.0234,-0.046 -1.3586,0.822" /><path
   inkscape:connector-curvature="0"
   id="path46"
   style="fill:none;stroke:#231f20;stroke-width:0.5;stroke-linecap:round;stroke-linejoin:round;stroke-miterlimit:3.86369991;stroke-opacity:1;stroke-dasharray:none"
   d="m 65.742338,76.974982 0,32.736298" /><path
   inkscape:connector-curvature="0"
   id="path48"
   style="fill:#231f20;fill-opacity:1;fill-rule:nonzero;stroke:none"
   d="m 65.742338,77.358182 1.3508,0.8207 0.0309,-0.0457 -0.875,-2.2032 c -0.1688,-0.7679 -0.3379,-1.5351 -0.5067,-2.3031 -0.1691,0.768 -0.3375,1.5352 -0.507,2.3031 l -0.875,2.2032 0.0231,0.0457 1.3589,-0.8207" /><path
   inkscape:connector-curvature="0"
   id="path50"
   style="fill:none;stroke:#231f20;stroke-width:0.5;stroke-linecap:round;stroke-linejoin:round;stroke-miterlimit:3.86369991;stroke-opacity:1;stroke-dasharray:none"
   d="m 366.16734,118.09998 0,25.862" /><path
   inkscape:connector-curvature="0"
   id="path52"
   style="fill:#231f20;fill-opacity:1;fill-rule:nonzero;stroke:none"
   d="m 366.16734,118.48198 1.351,0.821 0.03,-0.045 -0.875,-2.203 c -0.168,-0.768 -0.338,-1.536 -0.506,-2.303 -0.17,0.767 -0.338,1.535 -0.508,2.303 l -0.875,2.203 0.024,0.045 1.359,-0.821" /><path
   inkscape:connector-curvature="0"
   id="path54"
   style="fill:none;stroke:#231f20;stroke-width:0.5;stroke-linecap:round;stroke-linejoin:round;stroke-miterlimit:3.86369991;stroke-opacity:1;stroke-dasharray:none"
   d="m 366.16534,186.11598 0,-25.862" /><path
   inkscape:connector-curvature="0"
   id="path56"
   style="fill:#231f20;fill-opacity:1;fill-rule:nonzero;stroke:none"
   d="m 366.16534,185.73398 -1.35,-0.822 -0.031,0.046 0.875,2.203 c 0.168,0.768 0.338,1.535 0.506,2.303 0.17,-0.768 0.338,-1.535 0.508,-2.303 l 0.875,-2.203 -0.023,-0.046 -1.36,0.822" /><path
   inkscape:connector-curvature="0"
   id="path58"
   style="fill:none;stroke:#231f20;stroke-width:0.5;stroke-linecap:round;stroke-linejoin:round;stroke-miterlimit:3.86369991;stroke-opacity:1;stroke-dasharray:none"
   d="m 158.07234,119.51098 0,23.316" /><path
   inkscape:connector-curvature="0"
   id="path60"
   style="fill:#231f20;fill-opacity:1;fill-rule:nonzero;stroke:none"
   d="m 158.07234,119.89398 1.351,0.821 0.03,-0.046 -0.875,-2.203 c -0.169,-0.768 -0.338,-1.535 -0.506,-2.303 -0.169,0.768 -0.338,1.535 -0.507,2.303 l -0.875,2.203 0.023,0.046 1.359,-0.821" /><path
   inkscape:connector-curvature="0"
   id="path62"
   style="fill:none;stroke:#231f20;stroke-width:0.5;stroke-linecap:round;stroke-linejoin:round;stroke-miterlimit:3.86369991;stroke-opacity:1;stroke-dasharray:none"
   d="m 158.07234,41.435882 0,23.7242" /><path
   inkscape:connector-curvature="0"
   id="path64"
   style="fill:#231f20;fill-opacity:1;fill-rule:nonzero;stroke:none"
   d="m 158.07234,41.819082 1.351,0.8211 0.03,-0.0461 -0.875,-2.2031 c -0.169,-0.768 -0.338,-1.5348 -0.506,-2.3032 -0.169,0.7684 -0.338,1.5352 -0.507,2.3032 l -0.875,2.2031 0.023,0.0461 1.359,-0.8211" /><path
   inkscape:connector-curvature="0"
   id="path66"
   style="fill:none;stroke:#231f20;stroke-width:0.5;stroke-linecap:round;stroke-linejoin:round;stroke-miterlimit:3.86369991;stroke-opacity:1;stroke-dasharray:none"
   d="m 158.07234,183.65698 0,-23.83" /><path
   inkscape:connector-curvature="0"
   id="path68"
   style="fill:#231f20;fill-opacity:1;fill-rule:nonzero;stroke:none"
   d="m 158.07234,183.27498 -1.352,-0.822 -0.03,0.046 0.875,2.203 c 0.169,0.768 0.338,1.535 0.507,2.303 0.168,-0.768 0.337,-1.535 0.506,-2.303 l 0.875,-2.203 -0.023,-0.046 -1.358,0.822" /><path
   inkscape:connector-curvature="0"
   id="path70"
   style="fill:#231f20;fill-opacity:1;fill-rule:nonzero;stroke:none"
   d="m 254.06438,191.34078 -1.231,2.028 0.069,0.045 3.305,-1.313 c 1.15,-0.253 2.303,-0.506 3.453,-0.76 -1.15,-0.253 -2.303,-0.506 -3.453,-0.76 l -3.305,-1.313 -0.069,0.034 1.231,2.039" /><path
   inkscape:connector-curvature="0"
   id="path72"
   style="fill:#231f20;fill-opacity:1;fill-rule:nonzero;stroke:none"
   d="m 254.32534,34.490982 -1.231,2.0281 0.069,0.0461 3.305,-1.3133 c 1.15,-0.2539 2.303,-0.507 3.453,-0.7609 -1.15,-0.252 -2.303,-0.5059 -3.453,-0.759 l -3.305,-1.3129 -0.069,0.0328 1.231,2.0391" /><path
   inkscape:connector-curvature="0"
   id="path74"
   style="fill:none;stroke:#231f20;stroke-width:0.5;stroke-linecap:round;stroke-linejoin:round;stroke-miterlimit:3.86369991;stroke-opacity:1;stroke-dasharray:none"
   d="m 158.07234,105.01708 0,-23.524198" /><path
   inkscape:connector-curvature="0"
   id="path76"
   style="fill:#231f20;fill-opacity:1;fill-rule:nonzero;stroke:none"
   d="m 158.07234,104.63388 -1.352,-0.8211 -0.03,0.0461 0.875,2.2032 c 0.169,0.7668 0.338,1.5347 0.507,2.3031 0.168,-0.7684 0.337,-1.5363 0.506,-2.3031 l 0.875,-2.2032 -0.023,-0.0461 -1.358,0.8211" /><path
   inkscape:connector-curvature="0"
   id="path92"
   style="fill:url(#linearGradient4552);fill-opacity:1;fill-rule:nonzero;stroke:none"
   d="m 119.57984,144.73898 0,-59.812898" /><path
   inkscape:connector-curvature="0"
   id="path94"
   style="fill:none;stroke:#231f20;stroke-width:1;stroke-linecap:round;stroke-linejoin:round;stroke-miterlimit:3.86369991;stroke-opacity:1;stroke-dasharray:none"
   d="m 119.57984,144.73898 0,-59.812898" /><path
   inkscape:connector-curvature="0"
   id="path110"
   style="fill:url(#linearGradient4557);fill-opacity:1;fill-rule:nonzero;stroke:none"
   d="m 122.46234,144.73898 0,-59.812898" /><path
   inkscape:connector-curvature="0"
   id="path112"
   style="fill:none;stroke:#231f20;stroke-width:1;stroke-linecap:round;stroke-linejoin:round;stroke-miterlimit:3.86369991;stroke-opacity:1;stroke-dasharray:none"
   d="m 122.46234,144.73898 0,-59.812898" /><path
   inkscape:connector-curvature="0"
   id="path128"
   style="fill:url(#linearGradient4562);fill-opacity:1;fill-rule:nonzero;stroke:none"
   d="m 116.69664,144.73898 0,-59.812898" /><path
   inkscape:connector-curvature="0"
   id="path130"
   style="fill:none;stroke:#231f20;stroke-width:1;stroke-linecap:round;stroke-linejoin:round;stroke-miterlimit:3.86369991;stroke-opacity:1;stroke-dasharray:none"
   d="m 116.69664,144.73898 0,-59.812898" /><path
   inkscape:connector-curvature="0"
   id="path4151"
   style="font-size:8px;font-style:italic;font-variant:normal;writing-mode:lr-tb;fill:#231f20;fill-opacity:1;fill-rule:nonzero;stroke:none;font-family:Times;-inkscape-font-specification:Times-Italic"
   d="m 102.57027,62.998252 2.256,0 c 1.256,0 2.12,0.656001 2.12,1.6 0,0.296 -0.096,0.576 -0.272,0.752 -0.16,0.184 -0.32,0.28 -0.736,0.456 0.568,0.136 0.8,0.232 1.056,0.456 0.224,0.192 0.344,0.464 0.344,0.784 0,0.759999 -0.568,1.176 -1.6,1.176 l -2.064,0 0,-0.128 c 0.496,-0.04 0.616,-0.104 0.616,-0.328 0,-0.12 -0.032,-0.32 -0.088,-0.512 l -0.984,-3.536 c -0.144,-0.464 -0.2,-0.512 -0.648,-0.592 l 0,-0.128 m 1.968,2.648 c 0.52,0 0.856,-0.032 1.016,-0.096 0.328,-0.136 0.528,-0.488 0.528,-0.92 0,-0.863999 -0.592,-1.392 -1.568,-1.392 -0.336,0 -0.512,0.12 -0.512,0.336 0,0.096 0.096,0.480001 0.28,1.12 0.104,0.36 0.152,0.544 0.256,0.952 m 0.6,2.112 c 0.048,0.176 0.144,0.224 0.456,0.224 0.64,0 0.936,-0.272001 0.936,-0.864 0,-0.456 -0.192,-0.808 -0.536,-1 -0.272,-0.16 -0.656,-0.216 -1.376,-0.216 l 0.52,1.856" /><path
   inkscape:connector-curvature="0"
   id="path4153"
   style="font-size:8px;font-style:italic;font-variant:normal;writing-mode:lr-tb;fill:#231f20;fill-opacity:1;fill-rule:nonzero;stroke:none;font-family:Times;-inkscape-font-specification:Times-Italic"
   d="m 107.14627,159.14559 c -0.456,0.04 -0.504,0.104 -0.608,0.688 l -0.752,4.528 -0.208,0 -2.32,-4 c -0.632,-1.064 -0.712,-1.152 -1.032,-1.216 l 0,-0.128 1.496,0 0,0.128 c -0.408,0.04 -0.472,0.08 -0.472,0.28 0,0.152 0.024,0.224 0.16,0.496 l 0.456,0.904 1.76,0 0.16,-1.048 c 0.008,-0.072 0.016,-0.144 0.016,-0.208 0,-0.304 -0.112,-0.376 -0.624,-0.424 l 0,-0.128 1.968,0 0,0.128 m -3.112,1.968 1.2,2.08 0.352,-2.08 -1.552,0" /><path
   inkscape:connector-curvature="0"
   id="path4155"
   style="font-size:8px;font-style:italic;font-variant:normal;writing-mode:lr-tb;fill:#231f20;fill-opacity:1;fill-rule:nonzero;stroke:none;font-family:Times;-inkscape-font-specification:Times-Italic"
   d="m 138.86168,198.94256 0.296,1.592 -0.168,0 c -0.064,-0.128 -0.144,-0.176 -0.304,-0.176 -0.064,0 -0.16,0.016 -0.328,0.056 -0.36,0.088 -0.68,0.136 -0.936,0.136 -1.704,0 -3.248,-1.608 -3.248,-3.384 0,-1.224 0.864,-2.088 2.088,-2.088 0.824,0 1.464,0.352 2.184,1.192 l -0.136,0.112 c -0.72,-0.704 -1.184,-0.944 -1.84,-0.944 -0.888,0 -1.4,0.608 -1.4,1.64 0,0.952 0.384,1.92 1.008,2.568 0.384,0.392 0.888,0.616 1.416,0.616 0.736,0 1.144,-0.432 1.224,-1.296 l 0.144,-0.024" /><path
   inkscape:connector-curvature="0"
   id="path4157"
   style="font-size:8px;font-style:italic;font-variant:normal;writing-mode:lr-tb;fill:#231f20;fill-opacity:1;fill-rule:nonzero;stroke:none;font-family:Times;-inkscape-font-specification:Times-Italic"
   d="m 365.26533,202.48248 -3.976,0 0,-0.128 c 0.496,-0.048 0.616,-0.112 0.616,-0.328 0,-0.088 -0.048,-0.368 -0.088,-0.512 l -0.984,-3.536 c -0.136,-0.456 -0.2,-0.512 -0.648,-0.592 l 0,-0.128 4.056,0 0.496,1.296 -0.128,0.064 c -0.376,-0.512 -0.584,-0.72 -0.928,-0.88 -0.296,-0.136 -0.84,-0.216 -1.44,-0.216 -0.448,0 -0.64,0.08 -0.64,0.272 0,0.088 0.088,0.464 0.288,1.168 0.104,0.352 0.176,0.616 0.256,0.92 0.28,-0.016 0.528,-0.024 0.624,-0.024 0.312,0.008 0.536,-0.04 0.624,-0.12 0.04,-0.04 0.056,-0.112 0.056,-0.248 0,-0.136 -0.016,-0.24 -0.056,-0.416 l 0.16,-0.04 0.544,1.856 -0.144,0.032 c -0.304,-0.68 -0.376,-0.728 -1.104,-0.76 -0.096,0 -0.352,-0.008 -0.632,-0.016 l 0.528,1.864 c 0.048,0.176 0.136,0.208 0.584,0.208 1.25599,0 1.536,-0.104 1.536,-0.584 0,-0.104 -0.008,-0.224 -0.016,-0.36 l 0.168,-0.016 0.248,1.224" /><path
   inkscape:connector-curvature="0"
   id="path4159"
   style="font-size:8px;font-style:italic;font-variant:normal;writing-mode:lr-tb;fill:#231f20;fill-opacity:1;fill-rule:nonzero;stroke:none;font-family:Times;-inkscape-font-specification:Times-Italic"
   d="m 339.22934,150.38648 c -0.352,0.024 -0.512,0.16 -0.664,0.576 l -0.744,1.96 c 0.616,0.136 0.88,0.248 1.168,0.504 0.264,0.232 0.408,0.544 0.408,0.904 0,0.744 -0.592,1.152 -1.664,1.152 l -1.984,0 0,-0.128 c 0.336,-0.048 0.376,-0.056 0.456,-0.112 0.064,-0.04 0.112,-0.136 0.112,-0.224 0,-0.096 -0.04,-0.288 -0.096,-0.504 l -0.984,-3.536 c -0.144,-0.472 -0.2,-0.52 -0.648,-0.592 l 0,-0.128 1.952,0 0,0.128 c -0.488,0.064 -0.544,0.104 -0.544,0.368 0,0.08 0.024,0.184 0.096,0.464 l 0.448,1.672 0.52,-0.04 0.984,-2.592 1.184,0 0,0.128 m -2.072,4.632 c 0.048,0.168 0.152,0.224 0.408,0.224 0.664,0 0.992,-0.304 0.992,-0.896 0,-0.792 -0.512,-1.2 -1.512,-1.2 -0.128,0 -0.216,0.008 -0.408,0.04 l 0.52,1.832" /><path
   inkscape:connector-curvature="0"
   id="path4162"
   style="font-size:6px;font-style:italic;font-variant:normal;writing-mode:lr-tb;fill:#231f20;fill-opacity:1;fill-rule:nonzero;stroke:none;font-family:Times;-inkscape-font-specification:Times-Italic"
   d="m 341.99962,152.17648 -1.638,0 0,-0.096 c 0.372,-0.036 0.462,-0.084 0.462,-0.258 0,-0.084 -0.024,-0.222 -0.066,-0.372 l -0.738,-2.652 c -0.108,-0.348 -0.15,-0.384 -0.486,-0.444 l 0,-0.096 3.054,0 0.348,1.074 -0.12,0.036 c -0.21,-0.432 -0.372,-0.624 -0.636,-0.756 -0.21,-0.102 -0.456,-0.138 -0.978,-0.138 -0.456,0 -0.606,0.048 -0.606,0.204 0,0.042 0.03,0.186 0.06,0.3 l 0.738,2.658 c 0.09,0.306 0.246,0.42 0.606,0.444 l 0,0.096" /><path
   inkscape:connector-curvature="0"
   id="path4165"
   style="font-size:8px;font-style:italic;font-variant:normal;writing-mode:lr-tb;fill:#231f20;fill-opacity:1;fill-rule:nonzero;stroke:none;font-family:Times;-inkscape-font-specification:Times-Italic"
   d="m 308.96932,151.17048 c -0.192,-0.256 -0.248,-0.32 -0.328,-0.408 -0.136,-0.136 -0.256,-0.216 -0.328,-0.216 -0.064,0 -0.128,0.064 -0.128,0.12 0,0.08 0.024,0.2 0.08,0.352 0,0.024 0.024,0.08 0.04,0.144 l 0,0.016 0.008,0.016 0.704,2.576 -0.024,0.016 c -0.808,-0.152 -0.968,-0.176 -1.28,-0.2 l 0,-0.128 c 0.424,-0.008 0.504,-0.032 0.504,-0.192 0,-0.064 -0.024,-0.192 -0.072,-0.352 l -0.384,-1.416 c -0.128,-0.464 -0.176,-0.712 -0.176,-0.872 0,-0.296 0.128,-0.456 0.368,-0.456 0.368,0 0.664,0.24 1.12,0.912 l -0.104,0.088 m -0.064,4.32 c -0.216,0 -0.376,-0.184 -0.376,-0.424 0,-0.256 0.152,-0.424 0.384,-0.424 0.208,0 0.392,0.184 0.392,0.408 0,0.232 -0.184,0.44 -0.4,0.44" /><path
   inkscape:connector-curvature="0"
   id="path4168"
   style="font-size:6px;font-variant:normal;font-weight:normal;writing-mode:lr-tb;fill:#231f20;fill-opacity:1;fill-rule:nonzero;stroke:none;font-family:Times;-inkscape-font-specification:Times-Roman"
   d="m 311.58354,152.31448 c -1.146,0 -1.962,-0.864 -1.962,-2.07 0,-0.564 0.192,-1.11 0.516,-1.458 0.348,-0.378 0.882,-0.612 1.41,-0.612 1.182,0 1.998,0.84 1.998,2.046 0,0.594 -0.174,1.104 -0.504,1.464 -0.378,0.414 -0.882,0.63 -1.458,0.63 m 0,-0.216 c 0.276,0 0.552,-0.108 0.768,-0.3 0.324,-0.294 0.51,-0.858 0.51,-1.572 0,-0.354 -0.078,-0.768 -0.198,-1.08 -0.054,-0.15 -0.156,-0.3 -0.294,-0.438 -0.21,-0.21 -0.48,-0.318 -0.798,-0.318 -0.276,0 -0.546,0.108 -0.756,0.294 -0.312,0.276 -0.51,0.882 -0.51,1.548 0,0.612 0.168,1.194 0.42,1.476 0.234,0.258 0.528,0.39 0.858,0.39" /><path
   inkscape:connector-curvature="0"
   id="path4171"
   style="font-size:8px;font-style:italic;font-variant:normal;writing-mode:lr-tb;fill:#231f20;fill-opacity:1;fill-rule:nonzero;stroke:none;font-family:Times;-inkscape-font-specification:Times-Italic"
   d="m 254.90738,198.26618 c -0.192,-0.256 -0.248,-0.32 -0.328,-0.408 -0.136,-0.136 -0.256,-0.216 -0.328,-0.216 -0.064,0 -0.128,0.064 -0.128,0.12 0,0.08 0.024,0.2 0.08,0.352 0,0.024 0.024,0.08 0.04,0.144 l 0,0.016 0.008,0.016 0.704,2.576 -0.024,0.016 c -0.808,-0.152 -0.968,-0.176 -1.28,-0.2 l 0,-0.128 c 0.424,-0.008 0.504,-0.032 0.504,-0.192 0,-0.064 -0.024,-0.192 -0.072,-0.352 l -0.384,-1.416 c -0.128,-0.464 -0.176,-0.712 -0.176,-0.872 0,-0.296 0.128,-0.456 0.368,-0.456 0.368,0 0.664,0.24 1.12,0.912 l -0.104,0.088 m -0.064,4.32 c -0.216,0 -0.376,-0.184 -0.376,-0.424 0,-0.256 0.152,-0.424 0.384,-0.424 0.208,0 0.392,0.184 0.392,0.408 0,0.232 -0.184,0.44 -0.4,0.44" /><path
   inkscape:connector-curvature="0"
   id="path4174"
   style="font-size:6px;font-style:italic;font-variant:normal;writing-mode:lr-tb;fill:#231f20;fill-opacity:1;fill-rule:nonzero;stroke:none;font-family:Times;-inkscape-font-specification:Times-Italic"
   d="m 258.1336,196.02018 c -0.324,-0.372 -0.39,-0.426 -0.492,-0.426 -0.06,0 -0.108,0.054 -0.108,0.12 0,0.084 0.192,0.816 0.39,1.476 0.162,0.552 0.288,1.032 0.594,2.232 l -0.03,0.03 c -0.318,-0.066 -0.534,-0.102 -0.918,-0.138 l 0,-0.102 c 0.33,-0.012 0.372,-0.03 0.372,-0.156 0,-0.078 -0.006,-0.114 -0.09,-0.42 l -0.264,-0.984 c -0.048,0.252 -0.156,0.348 -0.39,0.348 -0.78,0 -1.752,-1.128 -1.752,-2.028 0,-0.426 0.24,-0.684 0.63,-0.684 0.408,0 0.672,0.192 1.08,0.792 -0.066,-0.306 -0.078,-0.396 -0.078,-0.534 0,-0.162 0.102,-0.27 0.252,-0.27 0.252,0 0.564,0.246 0.876,0.684 l -0.072,0.06 m -0.912,1.842 c 0.18,-0.012 0.27,-0.126 0.27,-0.342 0,-0.912 -0.624,-1.944 -1.176,-1.944 -0.204,0 -0.348,0.162 -0.348,0.396 0,0.498 0.3,1.194 0.696,1.614 0.168,0.174 0.39,0.288 0.558,0.276" /><path
   inkscape:connector-curvature="0"
   id="path4177"
   style="font-size:6px;font-variant:normal;font-weight:normal;writing-mode:lr-tb;fill:#231f20;fill-opacity:1;fill-rule:nonzero;stroke:none;font-family:Times;-inkscape-font-specification:Times-Roman"
   d="m 260.1016,197.41018 -1.08,-0.546 0,-0.084 c 0.072,0.03 0.138,0.054 0.162,0.066 0.108,0.042 0.21,0.066 0.27,0.066 0.126,0 0.18,-0.09 0.18,-0.282 l 0,-2.718 c 0,-0.198 -0.048,-0.336 -0.144,-0.39 -0.09,-0.054 -0.174,-0.072 -0.426,-0.078 l 0,-0.09 1.656,0 0,0.09 c -0.474,0.006 -0.57,0.066 -0.57,0.354 l 0,3.6 -0.048,0.012" /><path
   inkscape:connector-curvature="0"
   id="path4180"
   style="font-size:8px;font-style:italic;font-variant:normal;writing-mode:lr-tb;fill:#231f20;fill-opacity:1;fill-rule:nonzero;stroke:none;font-family:Times;-inkscape-font-specification:Times-Italic"
   d="m 255.05134,24.932182 c -0.192,-0.256 -0.248,-0.32 -0.328,-0.408 -0.136,-0.136 -0.256,-0.216 -0.328,-0.216 -0.064,0 -0.128,0.064 -0.128,0.12 0,0.08 0.024,0.2 0.08,0.352 0,0.024 0.024,0.08 0.04,0.144 l 0,0.016 0.008,0.016 0.704,2.576 -0.024,0.016 c -0.808,-0.152 -0.968,-0.176 -1.28,-0.2 l 0,-0.128 c 0.424,-0.008 0.504,-0.032 0.504,-0.192 0,-0.064 -0.024,-0.192 -0.072,-0.352 l -0.384,-1.416 c -0.128,-0.464 -0.176,-0.712 -0.176,-0.872 0,-0.296 0.128,-0.456 0.368,-0.456 0.368,0 0.664,0.240001 1.12,0.912 l -0.104,0.088 m -0.064,4.32 c -0.216,0 -0.376,-0.184 -0.376,-0.424 0,-0.256 0.152,-0.424 0.384,-0.424 0.208,0 0.392,0.184 0.392,0.408 0,0.232 -0.184,0.44 -0.4,0.44" /><path
   inkscape:connector-curvature="0"
   id="path4183"
   style="font-size:6px;font-style:italic;font-variant:normal;writing-mode:lr-tb;fill:#231f20;fill-opacity:1;fill-rule:nonzero;stroke:none;font-family:Times;-inkscape-font-specification:Times-Italic"
   d="m 258.27756,22.686182 c -0.324,-0.372 -0.39,-0.426 -0.492,-0.426 -0.06,0 -0.108,0.054 -0.108,0.12 0,0.084 0.192,0.816001 0.39,1.476 0.162,0.551999 0.288,1.032001 0.594,2.232 l -0.03,0.03 c -0.318,-0.066 -0.534,-0.102 -0.918,-0.138 l 0,-0.102 c 0.33,-0.012 0.372,-0.03 0.372,-0.156 0,-0.078 -0.006,-0.114 -0.09,-0.42 l -0.264,-0.984 c -0.048,0.252 -0.156,0.348 -0.39,0.348 -0.78,0 -1.752,-1.128001 -1.752,-2.028 0,-0.426 0.24,-0.684 0.63,-0.684 0.408,0 0.672,0.192001 1.08,0.792 -0.066,-0.306 -0.078,-0.396 -0.078,-0.534 0,-0.162 0.102,-0.27 0.252,-0.27 0.252,0 0.564,0.246 0.876,0.684 l -0.072,0.06 m -0.912,1.842 c 0.18,-0.012 0.27,-0.126 0.27,-0.342 0,-0.911999 -0.624,-1.944 -1.176,-1.944 -0.204,0 -0.348,0.162 -0.348,0.396 0,0.497999 0.3,1.194 0.696,1.614 0.168,0.174 0.39,0.288 0.558,0.276" /><path
   inkscape:connector-curvature="0"
   id="path4186"
   style="font-size:6px;font-variant:normal;font-weight:normal;writing-mode:lr-tb;fill:#231f20;fill-opacity:1;fill-rule:nonzero;stroke:none;font-family:Times;-inkscape-font-specification:Times-Roman"
   d="m 261.34956,20.842182 -0.078,0.03 c -0.222,-0.342 -0.3,-0.396 -0.57,-0.396 l -1.434,0 1.008,1.056 c 0.534,0.557999 0.768,1.014 0.768,1.482 0,0.599999 -0.486,1.062 -1.11,1.062 -0.33,0 -0.642,-0.132 -0.864,-0.372 -0.192,-0.204 -0.282,-0.396 -0.384,-0.822 l 0.126,-0.03 c 0.24,0.587999 0.456,0.78 0.87,0.78 0.504,0 0.846,-0.342001 0.846,-0.846 0,-0.468 -0.276,-1.026001 -0.78,-1.56 l -1.068,-1.134 0,-0.072 2.34,0 0.33,0.822" /><path
   inkscape:connector-curvature="0"
   id="path4189"
   style="font-size:8px;font-style:italic;font-variant:normal;writing-mode:lr-tb;fill:#231f20;fill-opacity:1;fill-rule:nonzero;stroke:none;font-family:Times;-inkscape-font-specification:Times-Italic"
   d="m 365.35356,109.11138 -3.984,0 0,-0.128 c 0.52,-0.048 0.616,-0.096 0.616,-0.328 0,-0.12 -0.032,-0.32 -0.088,-0.512 l -0.984,-3.536 c -0.144,-0.48 -0.2,-0.528 -0.656,-0.592 l 0,-0.128 2.016,0 0,0.128 c -0.464,0.024 -0.608,0.112 -0.608,0.352 0,0.064 0.024,0.184 0.072,0.36 l 0.496,1.784 c 0.296,-0.016 0.472,-0.024 0.648,-0.024 0.312,0 0.368,-0.008 0.44,-0.04 0.12,-0.064 0.176,-0.168 0.176,-0.328 0,-0.128 -0.016,-0.224 -0.064,-0.472 l 0.136,-0.04 0.608,1.872 -0.144,0.04 c -0.36,-0.72 -0.384,-0.728 -1.728,-0.744 l 0.528,1.864 c 0.048,0.16 0.16,0.208 0.488,0.208 1.344,0 1.632,-0.104 1.632,-0.6 0,-0.048 0,-0.088 -0.008,-0.192 -0.008,-0.048 -0.008,-0.056 -0.016,-0.152 l 0.168,-0.016 0.256,1.224" /><path
   inkscape:connector-curvature="0"
   id="path184"
   style="fill:#ffffff;fill-opacity:1;fill-rule:nonzero;stroke:none"
   d="m 67.436538,155.97998 c 0,-0.921 -0.7461,-1.667 -1.6668,-1.667 -0.9211,0 -1.6672,0.746 -1.6672,1.667 0,0.92 0.7461,1.667 1.6672,1.667 0.9207,0 1.6668,-0.747 1.6668,-1.667" /><path
   inkscape:connector-curvature="0"
   id="path186"
   style="fill:none;stroke:#231f20;stroke-width:0.5;stroke-linecap:butt;stroke-linejoin:miter;stroke-miterlimit:4;stroke-opacity:1;stroke-dasharray:none"
   d="m 67.436538,155.97998 c 0,-0.921 -0.7461,-1.667 -1.6668,-1.667 -0.9211,0 -1.6672,0.746 -1.6672,1.667 0,0.92 0.7461,1.667 1.6672,1.667 0.9207,0 1.6668,-0.747 1.6668,-1.667 z" /><path
   inkscape:connector-curvature="0"
   id="path188"
   style="fill:#ffffff;fill-opacity:1;fill-rule:nonzero;stroke:none"
   d="m 67.436538,71.906982 c 0,-0.9199 -0.7461,-1.6668 -1.6668,-1.6668 -0.9211,0 -1.6672,0.7469 -1.6672,1.6668 0,0.9191 0.7461,1.666 1.6672,1.666 0.9207,0 1.6668,-0.7469 1.6668,-1.666" /><path
   inkscape:connector-curvature="0"
   id="path190"
   style="fill:none;stroke:#231f20;stroke-width:0.5;stroke-linecap:butt;stroke-linejoin:miter;stroke-miterlimit:4;stroke-opacity:1;stroke-dasharray:none"
   d="m 67.436538,71.906982 c 0,-0.9199 -0.7461,-1.6668 -1.6668,-1.6668 -0.9211,0 -1.6672,0.7469 -1.6672,1.6668 0,0.9191 0.7461,1.666 1.6672,1.666 0.9207,0 1.6668,-0.7469 1.6668,-1.666 z" /><path
   inkscape:connector-curvature="0"
   id="path192"
   style="fill:none;stroke:#231f20;stroke-width:0.8;stroke-linecap:butt;stroke-linejoin:miter;stroke-miterlimit:3.93942213;stroke-opacity:1;stroke-dasharray:none"
   d="m 274.47434,113.00268 0,-78.502698 -136.813,0 0,27.7441" /><path
   inkscape:connector-curvature="0"
   id="path194"
   style="fill:none;stroke:#231f20;stroke-width:0.80000001;stroke-linecap:round;stroke-linejoin:round;stroke-miterlimit:3.86369991;stroke-opacity:1;stroke-dasharray:none"
   d="m 107.68774,110.44568 c 0,-2.3356 -1.8789,-4.2305 -4.1954,-4.2305 -1.3496,0 -2.58,0.3848 -3.3476,1.3848 0.75,1.1421 2.0359,1.8945 3.4961,1.8945 2.3164,0 4.1953,-1.8945 4.1953,-4.2324" /><path
   inkscape:connector-curvature="0"
   id="path196"
   style="fill:none;stroke:#231f20;stroke-width:0.80000001;stroke-linecap:round;stroke-linejoin:round;stroke-miterlimit:3.86369991;stroke-opacity:1;stroke-dasharray:none"
   d="m 107.53924,115.62498 c 0,-2.3364 -1.8789,-4.2293 -4.1953,-4.2293 -1.3496,0 -2.5801,0.3847 -3.347602,1.3824 0.750002,1.1433 2.035902,1.8959 3.496002,1.8959 2.3165,0 4.1954,-1.8959 4.1954,-4.2283" /><path
   inkscape:connector-curvature="0"
   id="path198"
   style="fill:none;stroke:#231f20;stroke-width:0.80000001;stroke-linecap:round;stroke-linejoin:round;stroke-miterlimit:3.86369991;stroke-opacity:1;stroke-dasharray:none"
   d="m 107.39084,120.81098 c 0,-2.338 -1.8789,-4.233 -4.1953,-4.233 -1.3496,0 -2.5801,0.387 -3.347702,1.385 0.750002,1.142 2.036002,1.894 3.496102,1.894 2.3164,0 4.1953,-1.894 4.1953,-4.232" /><path
   inkscape:connector-curvature="0"
   id="path200"
   style="fill:none;stroke:#231f20;stroke-width:0.80000001;stroke-linecap:round;stroke-linejoin:round;stroke-miterlimit:3.86369991;stroke-opacity:1;stroke-dasharray:none"
   d="m 107.24234,125.99398 c 0,-2.336 -1.8789,-4.231 -4.1953,-4.231 -1.3496,0 -2.58,0.385 -3.347602,1.385 0.750002,1.143 2.035902,1.895 3.496102,1.895 2.3164,0 4.1953,-1.895 4.1953,-4.232" /><path
   inkscape:connector-curvature="0"
   id="path202"
   style="fill:none;stroke:#231f20;stroke-width:0.80000001;stroke-linecap:round;stroke-linejoin:round;stroke-miterlimit:3.86369991;stroke-opacity:1;stroke-dasharray:none"
   d="m 107.09394,131.17998 c 0,-2.338 -1.8789,-4.233 -4.1953,-4.233 -1.3496,0 -2.5801,0.387 -3.347702,1.385 0.750002,1.143 2.036002,1.895 3.496102,1.895 2.3164,0 4.1953,-1.895 4.1953,-4.233" /><path
   inkscape:connector-curvature="0"
   id="path204"
   style="fill:none;stroke:#231f20;stroke-width:0.80000001;stroke-linecap:round;stroke-linejoin:round;stroke-miterlimit:3.86369991;stroke-opacity:1;stroke-dasharray:none"
   d="m 106.94554,136.36298 c 0,-2.336 -1.8789,-4.23 -4.1953,-4.23 -1.3496,0 -2.5801,0.384 -3.347702,1.384 0.750002,1.143 2.035902,1.895 3.496102,1.895 2.3164,0 4.1953,-1.895 4.1953,-4.232" /><path
   inkscape:connector-curvature="0"
   id="path206"
   style="fill:none;stroke:#231f20;stroke-width:0.80000001;stroke-linecap:round;stroke-linejoin:round;stroke-miterlimit:3.86369991;stroke-opacity:1;stroke-dasharray:none"
   d="m 102.98384,144.59998 0,-3.873 c 2.1519,-0.174 3.9617,-2.139 3.9617,-4.364" /><path
   inkscape:connector-curvature="0"
   id="path208"
   style="fill:none;stroke:#231f20;stroke-width:0.80000001;stroke-linecap:round;stroke-linejoin:round;stroke-miterlimit:3.86369991;stroke-opacity:1;stroke-dasharray:none"
   d="m 107.68774,100.07608 c 0,2.3379 -1.8789,4.2328 -4.1954,4.2328 -1.3496,0 -2.58,-0.3871 -3.3476,-1.3847 0.75,-1.1422 2.0359,-1.8942 3.4961,-1.8942 2.3164,0 4.1953,1.8942 4.1953,4.2321" /><path
   inkscape:connector-curvature="0"
   id="path210"
   style="fill:none;stroke:#231f20;stroke-width:0.80000001;stroke-linecap:round;stroke-linejoin:round;stroke-miterlimit:3.86369991;stroke-opacity:1;stroke-dasharray:none"
   d="m 107.53924,94.892882 c 0,2.336 -1.8789,4.2301 -4.1953,4.2301 -1.3496,0 -2.5801,-0.384 -3.347602,-1.384 0.750002,-1.143 2.035902,-1.8949 3.496002,-1.8949 2.3165,0 4.1954,1.8949 4.1954,4.231998" /><path
   inkscape:connector-curvature="0"
   id="path212"
   style="fill:none;stroke:#231f20;stroke-width:0.80000001;stroke-linecap:round;stroke-linejoin:round;stroke-miterlimit:3.86369991;stroke-opacity:1;stroke-dasharray:none"
   d="m 102.98384,86.656982 0,3.873 c 2.1519,0.1731 4.5554,2.1379 4.5554,4.3629" /><path
   inkscape:connector-curvature="0"
   id="path214"
   style="fill:none;stroke:#231f20;stroke-width:0.8;stroke-linecap:butt;stroke-linejoin:miter;stroke-miterlimit:3.93942213;stroke-opacity:1;stroke-dasharray:none"
   d="m 137.66134,164.17798 0,27.152 136.813,0 0,-78.5027 -131.25336,0"
   sodipodi:nodetypes="ccccc" /><path
   inkscape:connector-curvature="0"
   id="path216"
   style="fill:none;stroke:#231f20;stroke-width:0.8;stroke-linecap:butt;stroke-linejoin:miter;stroke-miterlimit:3.93942213;stroke-opacity:1;stroke-dasharray:none"
   d="m 274.47434,112.85458 51.2258,0 0,78.475 -51.2258,0 0,-78.475 z" /><path
   inkscape:connector-curvature="0"
   id="path218"
   style="fill:none;stroke:#231f20;stroke-width:0.8;stroke-linecap:butt;stroke-linejoin:miter;stroke-miterlimit:3.93942213;stroke-opacity:1;stroke-dasharray:none"
   d="m 325.70034,191.32998 38.556,0" /><path
   inkscape:connector-curvature="0"
   id="path220"
   style="fill:none;stroke:#231f20;stroke-width:0.8;stroke-linecap:butt;stroke-linejoin:miter;stroke-miterlimit:3.93942213;stroke-opacity:1;stroke-dasharray:none"
   d="m 325.70034,112.86318 38.556,0" /><path
   inkscape:connector-curvature="0"
   id="path4192"
   style="font-size:8px;font-variant:normal;font-weight:normal;writing-mode:lr-tb;fill:#231f20;fill-opacity:1;fill-rule:nonzero;stroke:none;font-family:Symbol;-inkscape-font-specification:Symbol"
   d="m 57.629838,152.23098 -0.44,0 0,-1.912 -1.896,0 0,-0.44 1.896,0 0,-1.912 0.44,0 0,1.912 1.896,0 0,0.44 -1.896,0 0,1.912" /><path
   inkscape:connector-curvature="0"
   id="path4194"
   style="font-size:8px;font-variant:normal;font-weight:normal;writing-mode:lr-tb;fill:#231f20;fill-opacity:1;fill-rule:nonzero;stroke:none;font-family:Symbol;-inkscape-font-specification:Symbol"
   d="m 56.102229,78.375979 0,-0.44 4.192,0 0,0.44 -4.192,0" /><path
   inkscape:connector-curvature="0"
   id="path4196"
   style="font-size:8px;font-variant:normal;font-weight:normal;writing-mode:lr-tb;fill:#231f20;fill-opacity:1;fill-rule:nonzero;stroke:none;font-family:Symbol;-inkscape-font-specification:Symbol"
   d="m 165.64723,186.31698 -0.44,0 0,-1.912 -1.896,0 0,-0.44 1.896,0 0,-1.912 0.44,0 0,1.912 1.896,0 0,0.44 -1.896,0 0,1.912" /><path
   inkscape:connector-curvature="0"
   id="path4198"
   style="font-size:8px;font-variant:normal;font-weight:normal;writing-mode:lr-tb;fill:#231f20;fill-opacity:1;fill-rule:nonzero;stroke:none;font-family:Symbol;-inkscape-font-specification:Symbol"
   d="m 163.31923,118.79948 0,-0.44 4.192,0 0,0.44 -4.192,0" /><path
   inkscape:connector-curvature="0"
   id="path4200"
   style="font-size:8px;font-variant:normal;font-weight:normal;writing-mode:lr-tb;fill:#231f20;fill-opacity:1;fill-rule:nonzero;stroke:none;font-family:Symbol;-inkscape-font-specification:Symbol"
   d="m 360.14724,186.31698 -0.44,0 0,-1.912 -1.896,0 0,-0.44 1.896,0 0,-1.912 0.44,0 0,1.912 1.896,0 0,0.44 -1.896,0 0,1.912" /><path
   inkscape:connector-curvature="0"
   id="path4202"
   style="font-size:8px;font-variant:normal;font-weight:normal;writing-mode:lr-tb;fill:#231f20;fill-opacity:1;fill-rule:nonzero;stroke:none;font-family:Symbol;-inkscape-font-specification:Symbol"
   d="m 357.81924,118.79948 0,-0.44 4.192,0 0,0.44 -4.192,0" /><path
   inkscape:connector-curvature="0"
   id="path4204"
   style="font-size:8px;font-variant:normal;font-weight:normal;writing-mode:lr-tb;fill:#231f20;fill-opacity:1;fill-rule:nonzero;stroke:none;font-family:Symbol;-inkscape-font-specification:Symbol"
   d="m 165.64723,106.95678 -0.44,0 0,-1.912 -1.896,0 0,-0.44 1.896,0 0,-1.912 0.44,0 0,1.912 1.896,0 0,0.44 -1.896,0 0,1.912" /><path
   inkscape:connector-curvature="0"
   id="path4206"
   style="font-size:8px;font-variant:normal;font-weight:normal;writing-mode:lr-tb;fill:#231f20;fill-opacity:1;fill-rule:nonzero;stroke:none;font-family:Symbol;-inkscape-font-specification:Symbol"
   d="m 163.31923,39.43928 0,-0.44 4.192,0 0,0.44 -4.192,0" /><path
   inkscape:connector-curvature="0"
   id="path242"
   style="fill:#ffffff;fill-opacity:1;fill-rule:nonzero;stroke:none"
   d="m 367.55534,191.32998 c 0,-0.921 -0.746,-1.667 -1.667,-1.667 -0.921,0 -1.667,0.746 -1.667,1.667 0,0.92 0.746,1.667 1.667,1.667 0.921,0 1.667,-0.747 1.667,-1.667" /><path
   inkscape:connector-curvature="0"
   id="path244"
   style="fill:none;stroke:#231f20;stroke-width:0.5;stroke-linecap:butt;stroke-linejoin:miter;stroke-miterlimit:4;stroke-opacity:1;stroke-dasharray:none"
   d="m 367.55534,191.32998 c 0,-0.921 -0.746,-1.667 -1.667,-1.667 -0.921,0 -1.667,0.746 -1.667,1.667 0,0.92 0.746,1.667 1.667,1.667 0.921,0 1.667,-0.747 1.667,-1.667 z" /><path
   inkscape:connector-curvature="0"
   id="path246"
   style="fill:#231f20;fill-opacity:1;fill-rule:nonzero;stroke:none"
   d="m 327.36734,191.32998 c 0,-0.921 -0.746,-1.667 -1.667,-1.667 -0.92,0 -1.667,0.746 -1.667,1.667 0,0.92 0.747,1.667 1.667,1.667 0.921,0 1.667,-0.747 1.667,-1.667" /><path
   inkscape:connector-curvature="0"
   id="path248"
   style="fill:#231f20;fill-opacity:1;fill-rule:nonzero;stroke:none"
   d="m 327.36734,112.85458 c 0,-0.9203 -0.746,-1.6668 -1.667,-1.6668 -0.92,0 -1.667,0.7465 -1.667,1.6668 0,0.9207 0.747,1.6674 1.667,1.6674 0.921,0 1.667,-0.7467 1.667,-1.6674" /><path
   inkscape:connector-curvature="0"
   id="path252"
   style="fill:#231f20;fill-opacity:1;fill-rule:nonzero;stroke:none"
   d="m 276.24734,191.32998 c 0,-0.921 -0.746,-1.667 -1.667,-1.667 -0.921,0 -1.667,0.746 -1.667,1.667 0,0.92 0.746,1.667 1.667,1.667 0.921,0 1.667,-0.747 1.667,-1.667" /><path
   inkscape:connector-curvature="0"
   id="path254"
   style="fill:#ffffff;fill-opacity:1;fill-rule:nonzero;stroke:none"
   d="m 367.55534,113.11168 c 0,-0.9203 -0.746,-1.6672 -1.667,-1.6672 -0.921,0 -1.667,0.7469 -1.667,1.6672 0,0.9203 0.746,1.6663 1.667,1.6663 0.921,0 1.667,-0.746 1.667,-1.6663" /><path
   inkscape:connector-curvature="0"
   id="path256"
   style="fill:none;stroke:#231f20;stroke-width:0.5;stroke-linecap:butt;stroke-linejoin:miter;stroke-miterlimit:4;stroke-opacity:1;stroke-dasharray:none"
   d="m 367.55534,113.11168 c 0,-0.9203 -0.746,-1.6672 -1.667,-1.6672 -0.921,0 -1.667,0.7469 -1.667,1.6672 0,0.9203 0.746,1.6663 1.667,1.6663 0.921,0 1.667,-0.746 1.667,-1.6663 z" /><path
   inkscape:connector-curvature="0"
   id="path258"
   style="fill:#ffffff;fill-opacity:1;fill-rule:nonzero;stroke:none"
   d="m 213.49034,200.18298 0,-17.706 -13.394,-0.001 0,17.706 13.394,10e-4" /><path
   inkscape:connector-curvature="0"
   id="path260"
   style="fill:none;stroke:#231f20;stroke-width:0.80000001;stroke-linecap:round;stroke-linejoin:round;stroke-miterlimit:3.86369991;stroke-opacity:1;stroke-dasharray:none"
   d="m 212.96034,191.32898 -12.864,-7.426 0,14.852 12.864,-7.426 z" /><path
   inkscape:connector-curvature="0"
   id="path262"
   style="fill:none;stroke:#231f20;stroke-width:0.80000001;stroke-linecap:round;stroke-linejoin:round;stroke-miterlimit:3.86369991;stroke-opacity:1;stroke-dasharray:none"
   d="m 213.49034,198.68398 0,-14.931" /><path
   inkscape:connector-curvature="0"
   id="path264"
   style="fill:#ffffff;fill-opacity:1;fill-rule:nonzero;stroke:none"
   d="m 213.49034,43.362082 0,-17.7059 -13.394,0 0,17.7047 13.394,0.0012" /><path
   inkscape:connector-curvature="0"
   id="path266"
   style="fill:none;stroke:#231f20;stroke-width:0.80000001;stroke-linecap:round;stroke-linejoin:round;stroke-miterlimit:3.86369991;stroke-opacity:1;stroke-dasharray:none"
   d="m 212.96034,34.508182 -12.864,-7.427 0,14.852 12.864,-7.425 z" /><path
   inkscape:connector-curvature="0"
   id="path268"
   style="fill:none;stroke:#231f20;stroke-width:0.80000001;stroke-linecap:round;stroke-linejoin:round;stroke-miterlimit:3.86369991;stroke-opacity:1;stroke-dasharray:none"
   d="m 213.49034,41.862782 0,-14.9316" /><path
   inkscape:connector-curvature="0"
   id="path4209"
   style="font-size:8px;font-style:italic;font-variant:normal;writing-mode:lr-tb;fill:#231f20;fill-opacity:1;fill-rule:nonzero;stroke:none;font-family:Times;-inkscape-font-specification:Times-Italic"
   d="m 203.56134,22.854922 c 0.496,-0.048 0.616,-0.112 0.616,-0.328 0,-0.12 -0.032,-0.312 -0.088,-0.512 l -0.984,-3.536 c -0.144,-0.464 -0.2,-0.512 -0.648,-0.592 l 0,-0.128 2.024,0 c 0.936,0 1.792,0.248 2.408,0.696 0.776,0.567999 1.232,1.448001 1.232,2.376 0,1.311999 -0.912,2.152 -2.336,2.152 l -2.224,0 0,-0.128 m 1.464,-0.344 c 0.048,0.176 0.168,0.232 0.488,0.232 0.456,0 0.856,-0.104 1.112,-0.296 0.392,-0.288 0.608,-0.792001 0.608,-1.424 0,-0.863999 -0.336,-1.760001 -0.88,-2.304 -0.472,-0.48 -1.12,-0.72 -1.952,-0.72 -0.368,0 -0.52,0.088 -0.52,0.296 0,0.104 0.04,0.28 0.176,0.76 l 0.968,3.456" /><path
   inkscape:connector-curvature="0"
   id="path4212"
   style="font-size:6px;font-style:italic;font-variant:normal;writing-mode:lr-tb;fill:#231f20;fill-opacity:1;fill-rule:nonzero;stroke:none;font-family:Times;-inkscape-font-specification:Times-Italic"
   d="m 210.69751,16.592922 c -0.144,-0.3 -0.27,-0.378 -0.594,-0.378 l -1.14,0 0,0.03 1.152,1.152 c 0.702,0.701999 0.894,1.002 0.894,1.398 0,0.575999 -0.426,1.02 -0.972,1.02 -0.21,0 -0.438,-0.06 -0.618,-0.156 -0.306,-0.168 -0.468,-0.372 -0.642,-0.804 l 0.126,-0.042 c 0.222,0.39 0.48,0.564 0.84,0.564 0.426,0 0.75,-0.312 0.75,-0.732 0,-0.126 -0.018,-0.24 -0.054,-0.318 -0.144,-0.324 -0.414,-0.702 -0.81,-1.122 l -1.26,-1.344 0,-0.102 2.13,0 0.3,0.792 -0.102,0.042" /><path
   inkscape:connector-curvature="0"
   id="path4215"
   style="font-size:8px;font-style:italic;font-variant:normal;writing-mode:lr-tb;fill:#231f20;fill-opacity:1;fill-rule:nonzero;stroke:none;font-family:Times;-inkscape-font-specification:Times-Italic"
   d="m 203.56134,207.24492 c 0.496,-0.048 0.616,-0.112 0.616,-0.328 0,-0.12 -0.032,-0.312 -0.088,-0.512 l -0.984,-3.536 c -0.144,-0.464 -0.2,-0.512 -0.648,-0.592 l 0,-0.128 2.024,0 c 0.936,0 1.792,0.248 2.408,0.696 0.776,0.568 1.232,1.448 1.232,2.376 0,1.312 -0.912,2.152 -2.336,2.152 l -2.224,0 0,-0.128 m 1.464,-0.344 c 0.048,0.176 0.168,0.232 0.488,0.232 0.456,0 0.856,-0.104 1.112,-0.296 0.392,-0.288 0.608,-0.792 0.608,-1.424 0,-0.864 -0.336,-1.76 -0.88,-2.304 -0.472,-0.48 -1.12,-0.72 -1.952,-0.72 -0.368,0 -0.52,0.088 -0.52,0.296 0,0.104 0.04,0.28 0.176,0.76 l 0.968,3.456" /><path
   inkscape:connector-curvature="0"
   id="path4218"
   style="font-size:6px;font-style:italic;font-variant:normal;writing-mode:lr-tb;fill:#231f20;fill-opacity:1;fill-rule:nonzero;stroke:none;font-family:Times;-inkscape-font-specification:Times-Italic"
   d="m 208.59151,200.14892 1.674,0 0,0.09 -0.096,0 c -0.294,0 -0.42,0.06 -0.42,0.192 0,0.054 0.024,0.162 0.072,0.312 0.012,0.048 0.024,0.084 0.03,0.102 l 0.006,0.03 0.858,3.114 c 0.024,0.09 0.036,0.144 0.036,0.174 0,0.024 -0.012,0.042 -0.03,0.042 0,0 -0.012,0 -0.018,-0.006 l -0.474,-0.09 -0.54,-0.108 c -0.012,0 -0.06,-0.012 -0.126,-0.024 l 0,-0.09 0.342,0.012 c 0.138,0.006 0.228,-0.066 0.228,-0.186 0,-0.036 -0.012,-0.096 -0.042,-0.204 l -0.828,-2.952 c -0.072,-0.222 -0.198,-0.282 -0.672,-0.324 l 0,-0.084" /><path
   inkscape:connector-curvature="0"
   id="path288"
   style="fill:#ffffff;fill-opacity:1;fill-rule:nonzero;stroke:none"
   d="m 322.10234,135.97798 7.46875,0 0,32.4512 -7.46875,0 0,-32.4512 z" /><path
   inkscape:connector-curvature="0"
   id="path290"
   style="fill:none;stroke:#231f20;stroke-width:0.80000001;stroke-linecap:round;stroke-linejoin:round;stroke-miterlimit:3.86369991;stroke-opacity:1;stroke-dasharray:none"
   d="m 325.80134,135.75498 0,3.613 -3.699,1.57 7.469,3.149 -7.469,3.195 7.469,3.198 -7.469,3.15 7.469,3.123 -7.469,3.15 7.373,3.198 -3.674,1.529 0,3.799" /><path
   inkscape:connector-curvature="0"
   id="path292"
   style="fill:none;stroke:#231f20;stroke-width:0.8;stroke-linecap:round;stroke-linejoin:round;stroke-miterlimit:3.93942213;stroke-opacity:1;stroke-dasharray:none"
   d="m 102.98384,155.74998 0,-13.878" /><path
   inkscape:connector-curvature="0"
   id="path294"
   style="fill:none;stroke:#231f20;stroke-width:0.80000001;stroke-linecap:round;stroke-linejoin:round;stroke-miterlimit:3.86369991;stroke-opacity:1;stroke-dasharray:none"
   d="m 133.32534,144.50098 c 0.027,2.338 1.929,4.212 4.245,4.185 1.41,-0.017 2.657,-0.734 3.404,-1.822 -0.757,-1.166 -1.955,-1.371 -3.442,-1.353 -2.316,0.027 -4.172,1.944 -4.145,4.282 0.028,2.338 1.929,4.211 4.245,4.184 1.344,-0.016 2.549,-0.669 3.305,-1.672 -0.78,-0.984 -1.996,-1.307 -3.34,-1.291 -2.316,0.027 -4.172,1.944 -4.145,4.281 0.028,2.338 1.903,4.213 4.22,4.186 l -0.01,7.93904"
   sodipodi:nodetypes="ccccccccccc" /><path
   inkscape:connector-curvature="0"
   id="path296"
   style="fill:none;stroke:#231f20;stroke-width:0.80000001;stroke-linecap:round;stroke-linejoin:round;stroke-miterlimit:3.86369991;stroke-opacity:1;stroke-dasharray:none"
   d="m 133.41234,139.31598 c 0.028,2.337 1.929,4.209 4.245,4.181 1.35,-0.015 2.576,-0.416 3.331,-1.424 -0.763,-1.133 -2.059,-1.871 -3.518,-1.853 -2.316,0.027 -4.173,1.943 -4.145,4.281" /><path
   inkscape:connector-curvature="0"
   id="path298"
   style="fill:none;stroke:#231f20;stroke-width:0.80000001;stroke-linecap:round;stroke-linejoin:round;stroke-miterlimit:3.86369991;stroke-opacity:1;stroke-dasharray:none"
   d="m 133.50034,134.12898 c 0.027,2.337 1.928,4.209 4.244,4.182 1.35,-0.016 2.576,-0.416 3.331,-1.424 -0.763,-1.134 -2.059,-1.87 -3.518,-1.853 -2.316,0.027 -4.172,1.944 -4.145,4.282" /><path
   inkscape:connector-curvature="0"
   id="path300"
   style="fill:none;stroke:#231f20;stroke-width:0.80000001;stroke-linecap:round;stroke-linejoin:round;stroke-miterlimit:3.86369991;stroke-opacity:1;stroke-dasharray:none"
   d="m 133.64234,70.631182 c -0.028,-2.3383 1.803,-4.2562 4.119,-4.2832 l -0.1,-3.8488" /><path
   inkscape:connector-curvature="0"
   id="path302"
   style="fill:none;stroke:#231f20;stroke-width:0.80000001;stroke-linecap:round;stroke-linejoin:round;stroke-miterlimit:3.86369991;stroke-opacity:1;stroke-dasharray:none"
   d="m 133.37234,123.33498 c 0.028,2.338 1.929,4.212 4.245,4.185 1.41,-0.017 2.658,-0.734 3.405,-1.822 -0.758,-1.166 -1.956,-1.371 -3.442,-1.354 -2.317,0.027 -4.173,1.945 -4.145,4.283 0.027,2.338 1.929,4.211 4.244,4.184 1.344,-0.016 2.549,-0.669 3.305,-1.672 -0.779,-0.984 -1.995,-1.307 -3.339,-1.291 -2.317,0.027 -4.173,1.944 -4.145,4.281" /><path
   inkscape:connector-curvature="0"
   id="path304"
   style="fill:none;stroke:#231f20;stroke-width:0.80000001;stroke-linecap:round;stroke-linejoin:round;stroke-miterlimit:3.86369991;stroke-opacity:1;stroke-dasharray:none"
   d="m 133.46034,118.14998 c 0.027,2.337 1.928,4.209 4.244,4.181 1.35,-0.015 2.576,-0.416 3.331,-1.424 -0.763,-1.133 -2.059,-1.871 -3.518,-1.853 -2.316,0.027 -4.173,1.943 -4.145,4.281" /><path
   inkscape:connector-curvature="0"
   id="path306"
   style="fill:none;stroke:#231f20;stroke-width:0.80000001;stroke-linecap:round;stroke-linejoin:round;stroke-miterlimit:3.86369991;stroke-opacity:1;stroke-dasharray:none"
   d="m 133.54734,112.96318 c 0.027,2.3368 1.928,4.2088 4.245,4.1818 1.349,-0.016 2.575,-0.416 3.331,-1.424 -0.763,-1.134 -2.059,-1.8703 -3.518,-1.8535 -2.317,0.0274 -4.173,1.9445 -4.145,4.2825" /><path
   inkscape:connector-curvature="0"
   id="path308"
   style="fill:none;stroke:#231f20;stroke-width:0.80000001;stroke-linecap:round;stroke-linejoin:round;stroke-miterlimit:3.86369991;stroke-opacity:1;stroke-dasharray:none"
   d="m 133.42034,102.16908 c 0.027,2.3379 1.928,4.2121 4.245,4.1848 1.409,-0.0168 2.657,-0.7348 3.404,-1.8219 -0.758,-1.1668 -1.955,-1.3719 -3.442,-1.3539 -2.316,0.0269 -4.173,1.9449 -4.145,4.2828 0.028,2.3383 1.929,4.2113 4.245,4.184 1.344,-0.0156 2.549,-0.6692 3.305,-1.6719 -0.779,-0.9836 -1.996,-1.307 -3.34,-1.291 -2.316,0.0269 -4.173,1.9441 -4.145,4.2812" /><path
   inkscape:connector-curvature="0"
   id="path310"
   style="fill:none;stroke:#231f20;stroke-width:0.80000001;stroke-linecap:round;stroke-linejoin:round;stroke-miterlimit:3.86369991;stroke-opacity:1;stroke-dasharray:none"
   d="m 133.50734,96.983182 c 0.027,2.3367 1.929,4.208898 4.245,4.180798 1.349,-0.0148 2.575,-0.416 3.331,-1.423798 -0.763,-1.1332 -2.059,-1.8703 -3.518,-1.8524 -2.316,0.0262 -4.173,1.9434 -4.145,4.281298" /><path
   inkscape:connector-curvature="0"
   id="path312"
   style="fill:none;stroke:#231f20;stroke-width:0.80000001;stroke-linecap:round;stroke-linejoin:round;stroke-miterlimit:3.86369991;stroke-opacity:1;stroke-dasharray:none"
   d="m 133.59434,91.796782 c 0.028,2.3371 1.929,4.2094 4.245,4.1821 1.35,-0.0161 2.576,-0.4161 3.331,-1.4239 -0.763,-1.134 -2.059,-1.8711 -3.518,-1.8539 -2.316,0.0278 -4.173,1.9449 -4.145,4.2821" /><path
   inkscape:connector-curvature="0"
   id="path314"
   style="fill:none;stroke:#231f20;stroke-width:0.80000001;stroke-linecap:round;stroke-linejoin:round;stroke-miterlimit:3.86369991;stroke-opacity:1;stroke-dasharray:none"
   d="m 133.46734,81.003082 c 0.028,2.3379 1.929,4.2121 4.245,4.1847 1.41,-0.0168 2.657,-0.7347 3.404,-1.8218 -0.757,-1.1668 -1.955,-1.3719 -3.441,-1.3539 -2.317,0.0269 -4.173,1.9449 -4.145,4.282 0.027,2.3379 1.928,4.2109 4.244,4.184 1.344,-0.016 2.549,-0.668 3.305,-1.6719 -0.779,-0.9832 -1.996,-1.307 -3.339,-1.2902 -2.317,0.0269 -4.173,1.9429 -4.146,4.2808" /><path
   inkscape:connector-curvature="0"
   id="path316"
   style="fill:none;stroke:#231f20;stroke-width:0.80000001;stroke-linecap:round;stroke-linejoin:round;stroke-miterlimit:3.86369991;stroke-opacity:1;stroke-dasharray:none"
   d="m 133.55434,75.817082 c 0.028,2.3368 1.929,4.209 4.245,4.1809 1.35,-0.0148 2.576,-0.416 3.332,-1.4238 -0.764,-1.1332 -2.06,-1.8703 -3.519,-1.8532 -2.316,0.027 -4.172,1.9442 -4.145,4.2821" /><path
   inkscape:connector-curvature="0"
   id="path318"
   style="fill:none;stroke:#231f20;stroke-width:0.80000001;stroke-linecap:round;stroke-linejoin:round;stroke-miterlimit:3.86369991;stroke-opacity:1;stroke-dasharray:none"
   d="m 133.64234,70.631182 c 0.027,2.3367 1.929,4.209 4.244,4.1816 1.35,-0.016 2.576,-0.416 3.332,-1.4238 -0.764,-1.134 -2.06,-1.8711 -3.519,-1.8539 -2.316,0.0277 -4.172,1.9449 -4.145,4.282" /><path
   inkscape:connector-curvature="0"
   id="path4221"
   style="font-size:8px;font-style:italic;font-variant:normal;writing-mode:lr-tb;fill:#231f20;fill-opacity:1;fill-rule:nonzero;stroke:none;font-family:Times;-inkscape-font-specification:Times-Italic"
   d="m 148.9251,139.78783 -1.592,0 0,-0.128 c 0.456,-0.04 0.56,-0.12 0.56,-0.408 0,-0.096 -0.016,-0.192 -0.072,-0.352 -0.008,-0.024 -0.016,-0.056 -0.016,-0.064 l -0.816,-3.04 -1.664,3.992 -1.288,0 0,-0.128 c 0.376,-0.032 0.544,-0.136 0.688,-0.448 l -0.952,-3.336 c -0.304,-1.024 -0.368,-1.12 -0.824,-1.184 l 0,-0.128 1.584,0 0,0.128 c -0.408,0.032 -0.56,0.12 -0.56,0.344 0,0.104 0.024,0.264 0.072,0.432 l 0.912,3.376 1.84,-4.4 0.144,0 1.152,4.024 c 0.296,1.032 0.328,1.08 0.832,1.192 l 0,0.128" /><path
   inkscape:connector-curvature="0"
   id="path4224"
   style="font-size:6px;font-variant:normal;font-weight:normal;writing-mode:lr-tb;fill:#231f20;fill-opacity:1;fill-rule:nonzero;stroke:none;font-family:Times;-inkscape-font-specification:Times-Roman"
   d="m 151.29504,133.38583 -0.078,0.03 c -0.222,-0.342 -0.3,-0.396 -0.57,-0.396 l -1.434,0 1.008,1.056 c 0.534,0.558 0.768,1.014 0.768,1.482 0,0.6 -0.486,1.062 -1.11,1.062 -0.33,0 -0.642,-0.132 -0.864,-0.372 -0.192,-0.204 -0.282,-0.396 -0.384,-0.822 l 0.126,-0.03 c 0.24,0.588 0.456,0.78 0.87,0.78 0.504,0 0.846,-0.342 0.846,-0.846 0,-0.468 -0.276,-1.026 -0.78,-1.56 l -1.068,-1.134 0,-0.072 2.34,0 0.33,0.822" /><path
   inkscape:connector-curvature="0"
   id="path4227"
   style="font-size:8px;font-style:italic;font-variant:normal;writing-mode:lr-tb;fill:#231f20;fill-opacity:1;fill-rule:nonzero;stroke:none;font-family:Times;-inkscape-font-specification:Times-Italic"
   d="m 148.22395,95.113924 -1.592,0 0,-0.128 c 0.456,-0.04 0.56,-0.12 0.56,-0.408 0,-0.096 -0.016,-0.192 -0.072,-0.352 -0.008,-0.024 -0.016,-0.056 -0.016,-0.064 l -0.816,-3.04 -1.664,3.992 -1.288,0 0,-0.128 c 0.376,-0.032 0.544,-0.136 0.688,-0.448 l -0.952,-3.336 c -0.304,-1.023999 -0.368,-1.12 -0.824,-1.184 l 0,-0.128 1.584,0 0,0.128 c -0.408,0.032 -0.56,0.12 -0.56,0.344 0,0.104 0.024,0.264 0.072,0.432 l 0.912,3.376 1.84,-4.4 0.144,0 1.152,4.024 c 0.296,1.031999 0.328,1.08 0.832,1.192 l 0,0.128" /><path
   inkscape:connector-curvature="0"
   id="path4230"
   style="font-size:6px;font-variant:normal;font-weight:normal;writing-mode:lr-tb;fill:#231f20;fill-opacity:1;fill-rule:nonzero;stroke:none;font-family:Times;-inkscape-font-specification:Times-Roman"
   d="m 150.59389,88.711924 -0.078,0.03 c -0.222,-0.342 -0.3,-0.396 -0.57,-0.396 l -1.434,0 1.008,1.056 c 0.534,0.557999 0.768,1.014 0.768,1.482 0,0.599999 -0.486,1.062 -1.11,1.062 -0.33,0 -0.642,-0.132 -0.864,-0.372 -0.192,-0.204 -0.282,-0.396 -0.384,-0.822 l 0.126,-0.03 c 0.24,0.587999 0.456,0.78 0.87,0.78 0.504,0 0.846,-0.342001 0.846,-0.846 0,-0.467999 -0.276,-1.026001 -0.78,-1.56 l -1.068,-1.134 0,-0.072 2.34,0 0.33,0.822" /><path
   inkscape:connector-curvature="0"
   id="path4233"
   style="font-size:8px;font-style:italic;font-variant:normal;writing-mode:lr-tb;fill:#231f20;fill-opacity:1;fill-rule:nonzero;stroke:none;font-family:Times;-inkscape-font-specification:Times-Italic"
   d="m 94.747378,119.42618 -1.592,0 0,-0.128 c 0.455999,-0.04 0.56,-0.12 0.56,-0.408 0,-0.096 -0.016,-0.192 -0.072,-0.352 -0.008,-0.024 -0.016,-0.056 -0.016,-0.064 l -0.816,-3.04 -1.664,3.992 -1.288,0 0,-0.128 c 0.376,-0.032 0.544,-0.136 0.688,-0.448 l -0.952,-3.336 c -0.304,-1.024 -0.368,-1.12 -0.824,-1.184 l 0,-0.128 1.584,0 0,0.128 c -0.408,0.032 -0.56,0.12 -0.56,0.344 0,0.104 0.024,0.264 0.072,0.432 l 0.912,3.376 1.84,-4.4 0.144,0 1.152,4.024 c 0.296,1.032 0.328,1.08 0.832,1.192 l 0,0.128" /><path
   inkscape:connector-curvature="0"
   id="path4236"
   style="font-size:6px;font-variant:normal;font-weight:normal;writing-mode:lr-tb;fill:#231f20;fill-opacity:1;fill-rule:nonzero;stroke:none;font-family:Times;-inkscape-font-specification:Times-Roman"
   d="m 96.013318,116.25818 -1.08,-0.546 0,-0.084 c 0.072,0.03 0.138,0.054 0.162,0.066 0.108,0.042 0.21,0.066 0.27,0.066 0.126,0 0.18,-0.09 0.18,-0.282 l 0,-2.718 c 0,-0.198 -0.048,-0.336 -0.144,-0.39 -0.09,-0.054 -0.174,-0.072 -0.426,-0.078 l 0,-0.09 1.656,0 0,0.09 c -0.474,0.006 -0.57,0.066 -0.57,0.354 l 0,3.6 -0.048,0.012" /><path
   inkscape:connector-curvature="0"
   id="path4239"
   style="font-size:8px;font-style:italic;font-variant:normal;writing-mode:lr-tb;fill:#231f20;fill-opacity:1;fill-rule:nonzero;stroke:none;font-family:Times;-inkscape-font-specification:Times-Italic"
   d="m 63.768118,116.59923 c 0.088,0.008 0.152,0.008 0.24,0.008 0.312,0 0.392,-0.136 0.504,-0.872 0.08,-0.552 0.176,-1.76 0.176,-2.224 0,-0.224 0.016,-0.28 0.072,-0.28 0.2,0 0.944001,0.848 1.76,1.984 0.28,0.4 0.488,0.92 0.488,1.216 0,0.256 -0.208,0.472 -0.448,0.472 -0.176,0 -0.296,-0.104 -0.296,-0.272 0,-0.128 0.048,-0.224 0.192,-0.352 0.104,-0.096 0.144,-0.16 0.144,-0.24 0,-0.368 -0.528001,-1.256 -1.096,-1.848 l -0.248,-0.256 c -0.056,1.128 -0.104,1.544 -0.208,2.136 -0.16,0.816 -0.16,0.832 -0.232,0.832 -0.04,0 -0.096,-0.008 -0.16,-0.032 -0.144,-0.04 -0.584,-0.12 -0.888,-0.168 l 0,-0.104" /><path
   inkscape:connector-curvature="0"
   id="path4242"
   style="font-size:6px;font-variant:normal;font-weight:normal;writing-mode:lr-tb;fill:#231f20;fill-opacity:1;fill-rule:nonzero;stroke:none;font-family:Times;-inkscape-font-specification:Times-Roman"
   d="m 68.897678,115.43123 -1.08,-0.546 0,-0.084 c 0.072,0.03 0.138,0.054 0.162,0.066 0.108,0.042 0.21,0.066 0.27,0.066 0.126,0 0.18,-0.09 0.18,-0.282 l 0,-2.718 c 0,-0.198 -0.048,-0.336 -0.144,-0.39 -0.09,-0.054 -0.174,-0.072 -0.426,-0.078 l 0,-0.09 1.656,0 0,0.09 c -0.473999,0.006 -0.57,0.066 -0.57,0.354 l 0,3.6 -0.048,0.012" /><path
   inkscape:connector-curvature="0"
   id="path4245"
   style="font-size:8px;font-style:italic;font-variant:normal;writing-mode:lr-tb;fill:#231f20;fill-opacity:1;fill-rule:nonzero;stroke:none;font-family:Times;-inkscape-font-specification:Times-Italic"
   d="m 361.26768,154.59923 c 0.088,0.008 0.152,0.008 0.24,0.008 0.312,0 0.392,-0.136 0.504,-0.872 0.08,-0.552 0.176,-1.76 0.176,-2.224 0,-0.224 0.016,-0.28 0.072,-0.28 0.2,0 0.944,0.848 1.76,1.984 0.28,0.4 0.488,0.92 0.488,1.216 0,0.256 -0.208,0.472 -0.448,0.472 -0.176,0 -0.296,-0.104 -0.296,-0.272 0,-0.128 0.048,-0.224 0.192,-0.352 0.104,-0.096 0.144,-0.16 0.144,-0.24 0,-0.368 -0.528,-1.256 -1.096,-1.848 l -0.248,-0.256 c -0.056,1.128 -0.104,1.544 -0.208,2.136 -0.16,0.816 -0.16,0.832 -0.232,0.832 -0.04,0 -0.096,-0.008 -0.16,-0.032 -0.144,-0.04 -0.584,-0.12 -0.888,-0.168 l 0,-0.104" /><path
   inkscape:connector-curvature="0"
   id="path4248"
   style="font-size:6px;font-variant:normal;font-weight:normal;writing-mode:lr-tb;fill:#231f20;fill-opacity:1;fill-rule:nonzero;stroke:none;font-family:Times;-inkscape-font-specification:Times-Roman"
   d="m 366.17602,153.43123 c -0.33,0 -0.582,-0.102 -0.804,-0.312 -0.348,-0.336 -0.576,-1.026 -0.576,-1.728 0,-0.654 0.198,-1.356 0.48,-1.692 0.222,-0.264 0.528,-0.408 0.876,-0.408 0.306,0 0.564,0.102 0.78,0.312 0.348,0.33 0.576,1.026 0.576,1.752 0,1.23 -0.546,2.076 -1.332,2.076 m -0.018,-0.156 c 0.504,0 0.774,-0.678 0.774,-1.932 0,-1.254 -0.264,-1.896 -0.78,-1.896 -0.516,0 -0.78,0.642 -0.78,1.89 0,1.272 0.27,1.938 0.786,1.938" /><path
   inkscape:connector-curvature="0"
   id="path4251"
   style="font-size:8px;font-style:italic;font-variant:normal;writing-mode:lr-tb;fill:#231f20;fill-opacity:1;fill-rule:nonzero;stroke:none;font-family:Times;-inkscape-font-specification:Times-Italic"
   d="m 155.60502,153.42892 c 0.088,0.008 0.152,0.008 0.24,0.008 0.312,0 0.392,-0.136 0.504,-0.872 0.08,-0.552 0.176,-1.76 0.176,-2.224 0,-0.224 0.016,-0.28 0.072,-0.28 0.2,0 0.944,0.848 1.76,1.984 0.28,0.4 0.488,0.92 0.488,1.216 0,0.256 -0.208,0.472 -0.448,0.472 -0.176,0 -0.296,-0.104 -0.296,-0.272 0,-0.128 0.048,-0.224 0.192,-0.352 0.104,-0.096 0.144,-0.16 0.144,-0.24 0,-0.368 -0.528,-1.256 -1.096,-1.848 l -0.248,-0.256 c -0.056,1.128 -0.104,1.544 -0.208,2.136 -0.16,0.816 -0.16,0.832 -0.232,0.832 -0.04,0 -0.096,-0.008 -0.16,-0.032 -0.144,-0.04 -0.584,-0.12 -0.888,-0.168 l 0,-0.104" /><path
   inkscape:connector-curvature="0"
   id="path4254"
   style="font-size:6px;font-variant:normal;font-weight:normal;writing-mode:lr-tb;fill:#231f20;fill-opacity:1;fill-rule:nonzero;stroke:none;font-family:Times;-inkscape-font-specification:Times-Roman"
   d="m 161.83897,149.02692 -0.078,0.03 c -0.222,-0.342 -0.3,-0.396 -0.57,-0.396 l -1.434,0 1.008,1.056 c 0.534,0.558 0.768,1.014 0.768,1.482 0,0.6 -0.486,1.062 -1.11,1.062 -0.33,0 -0.642,-0.132 -0.864,-0.372 -0.192,-0.204 -0.282,-0.396 -0.384,-0.822 l 0.126,-0.03 c 0.24,0.588 0.456,0.78 0.87,0.78 0.504,0 0.846,-0.342 0.846,-0.846 0,-0.468 -0.276,-1.026 -0.78,-1.56 l -1.068,-1.134 0,-0.072 2.34,0 0.33,0.822" /><path
   inkscape:connector-curvature="0"
   id="path4257"
   style="font-size:8px;font-style:italic;font-variant:normal;writing-mode:lr-tb;fill:#231f20;fill-opacity:1;fill-rule:nonzero;stroke:none;font-family:Times;-inkscape-font-specification:Times-Italic"
   d="m 155.60502,75.22032 c 0.088,0.008 0.152,0.008 0.24,0.008 0.312,0 0.392,-0.136001 0.504,-0.872 0.08,-0.551999 0.176,-1.76 0.176,-2.224 0,-0.224 0.016,-0.28 0.072,-0.28 0.2,0 0.944,0.848001 1.76,1.984 0.28,0.4 0.488,0.92 0.488,1.216 0,0.256 -0.208,0.472 -0.448,0.472 -0.176,0 -0.296,-0.104 -0.296,-0.272 0,-0.128 0.048,-0.224 0.192,-0.352 0.104,-0.096 0.144,-0.16 0.144,-0.24 0,-0.368 -0.528,-1.256001 -1.096,-1.848 l -0.248,-0.256 c -0.056,1.127999 -0.104,1.544001 -0.208,2.136 -0.16,0.815999 -0.16,0.832 -0.232,0.832 -0.04,0 -0.096,-0.008 -0.16,-0.032 -0.144,-0.04 -0.584,-0.12 -0.888,-0.168 l 0,-0.104" /><path
   inkscape:connector-curvature="0"
   id="path4260"
   style="font-size:6px;font-variant:normal;font-weight:normal;writing-mode:lr-tb;fill:#231f20;fill-opacity:1;fill-rule:nonzero;stroke:none;font-family:Times;-inkscape-font-specification:Times-Roman"
   d="m 161.83897,70.81832 -0.078,0.03 c -0.222,-0.342 -0.3,-0.396 -0.57,-0.396 l -1.434,0 1.008,1.056 c 0.534,0.557999 0.768,1.014 0.768,1.482 0,0.599999 -0.486,1.062 -1.11,1.062 -0.33,0 -0.642,-0.132 -0.864,-0.372 -0.192,-0.204 -0.282,-0.396 -0.384,-0.822 l 0.126,-0.03 c 0.24,0.587999 0.456,0.78 0.87,0.78 0.504,0 0.846,-0.342001 0.846,-0.846 0,-0.468 -0.276,-1.026001 -0.78,-1.56 l -1.068,-1.134 0,-0.072 2.34,0 0.33,0.822" /><text
   xml:space="preserve"
   style="font-size:9.60000038px;font-style:normal;font-variant:normal;font-weight:normal;font-stretch:normal;text-align:start;line-height:100%;letter-spacing:0px;word-spacing:0px;text-anchor:start;fill:#000000;fill-opacity:1;stroke:none;font-family:LMRoman12;-inkscape-font-specification:LMRoman12"
   x="142.43422"
   y="-116.09204"
   id="text4605"
   sodipodi:linespacing="100%"
   transform="scale(1,-1)"><tspan
     sodipodi:role="line"
     id="tspan4607"
     x="142.43422"
     y="-116.09204">0</tspan></text>

<path
   d="m 144.92014,112.85458 c 0,-0.9203 -0.747,-1.6668 -1.667,-1.6668 -0.921,0 -1.667,0.7465 -1.667,1.6668 0,0.9207 0.746,1.6674 1.667,1.6674 0.92,0 1.667,-0.7467 1.667,-1.6674"
   style="fill:#231f20;fill-opacity:1;fill-rule:nonzero;stroke:none"
   id="path2968"
   inkscape:connector-curvature="0" /></g></svg>