<?xml version="1.0" encoding="UTF-8" standalone="no"?>
<!-- Created with Inkscape (http://www.inkscape.org/) -->

<svg
   xmlns:ns0="http://www.iki.fi/pav/software/textext/"
   xmlns:dc="http://purl.org/dc/elements/1.1/"
   xmlns:cc="http://creativecommons.org/ns#"
   xmlns:rdf="http://www.w3.org/1999/02/22-rdf-syntax-ns#"
   xmlns:svg="http://www.w3.org/2000/svg"
   xmlns="http://www.w3.org/2000/svg"
   xmlns:sodipodi="http://sodipodi.sourceforge.net/DTD/sodipodi-0.dtd"
   xmlns:inkscape="http://www.inkscape.org/namespaces/inkscape"
   width="354.33069"
   height="283.46457"
   id="svg2"
   version="1.1"
   inkscape:version="0.48.4 r9939"
   sodipodi:docname="exp3.10.svg">
  <sodipodi:namedview
     id="base"
     pagecolor="#ffffff"
     bordercolor="#666666"
     borderopacity="1.0"
     inkscape:pageopacity="0.0"
     inkscape:pageshadow="2"
     inkscape:zoom="2.1060833"
     inkscape:cx="177.16534"
     inkscape:cy="141.73228"
     inkscape:document-units="cm"
     inkscape:current-layer="layer1"
     showgrid="false"
     units="cm"
     inkscape:object-nodes="true"
     inkscape:window-width="1366"
     inkscape:window-height="744"
     inkscape:window-x="0"
     inkscape:window-y="24"
     inkscape:window-maximized="1">
    <inkscape:grid
       snapvisiblegridlinesonly="true"
       enabled="true"
       visible="true"
       empspacing="5"
       id="grid2985"
       type="xygrid" />
  </sodipodi:namedview>
  <defs
     id="defs4">
    <marker
       style="overflow:visible;"
       id="Arrow1Mend"
       refX="0.0"
       refY="0.0"
       orient="auto"
       inkscape:stockid="Arrow1Mend">
      <path
         transform="scale(0.4) rotate(180) translate(10,0)"
         style="fill-rule:evenodd;stroke:#000000;stroke-width:1.0pt;"
         d="M 0.0,0.0 L 5.0,-5.0 L -12.5,0.0 L 5.0,5.0 L 0.0,0.0 z "
         id="path3949" />
    </marker>
  </defs>
  <metadata
     id="metadata7">
    <rdf:RDF>
      <cc:Work
         rdf:about="">
        <dc:format>image/svg+xml</dc:format>
        <dc:type
           rdf:resource="http://purl.org/dc/dcmitype/StillImage" />
        <dc:title></dc:title>
      </cc:Work>
    </rdf:RDF>
  </metadata>
  <g
     transform="translate(0,-768.89631)"
     id="layer1"
     inkscape:groupmode="layer"
     inkscape:label="Layer 1">
    <path
       sodipodi:nodetypes="cc"
       inkscape:connector-curvature="0"
       id="path3767"
       d="m 155,917.36088 -55,0"
       style="fill:none;stroke:#000000;stroke-width:1px;stroke-linecap:butt;stroke-linejoin:miter;stroke-opacity:1" />
    <path
       style="fill:none;stroke:#000000;stroke-width:2.51574803;stroke-linecap:round;stroke-linejoin:miter;stroke-opacity:1;stroke-miterlimit:4;stroke-dasharray:none"
       d="m 155,897.36088 0,40"
       id="path3777"
       inkscape:connector-curvature="0" />
    <text
       transform="translate(0,768.89631)"
       sodipodi:linespacing="125%"
       id="text3819"
       y="115.38005"
       x="140.30785"
       style="font-size:12px;font-style:normal;font-variant:normal;font-weight:normal;font-stretch:normal;text-align:center;line-height:125%;letter-spacing:0px;word-spacing:0px;text-anchor:middle;fill:#000000;fill-opacity:1;stroke:none;font-family:LMRoman12;-inkscape-font-specification:LMRoman12"
       xml:space="preserve"><tspan
         y="115.38005"
         x="140.30785"
         id="tspan3821"
         sodipodi:role="line" /></text>
    <path
       sodipodi:nodetypes="cc"
       inkscape:connector-curvature="0"
       id="path3934"
       d="m 169.41111,934.62799 3.57658,1.70562"
       style="fill:none;stroke:#000000;stroke-width:1px;stroke-linecap:butt;stroke-linejoin:miter;stroke-opacity:1;marker-end:url(#Arrow1Mend)" />
    <path
       sodipodi:nodetypes="ccc"
       inkscape:connector-curvature="0"
       id="path5060"
       d="m 155,907.36088 20,-10 0,-15"
       style="fill:none;stroke:#000000;stroke-width:1px;stroke-linecap:butt;stroke-linejoin:miter;stroke-opacity:1" />
    <path
       style="fill:none;stroke:#000000;stroke-width:1px;stroke-linecap:butt;stroke-linejoin:miter;stroke-opacity:1"
       d="m 155,927.36088 20,10 0,5.09574"
       id="path5064"
       inkscape:connector-curvature="0"
       sodipodi:nodetypes="ccc" />
    <path
       style="fill:none;stroke:#000000;stroke-width:1px;stroke-linecap:round;stroke-linejoin:miter;stroke-opacity:1"
       d="m 165,992.36088 20,0"
       id="path3907"
       inkscape:connector-curvature="0" />
    <path
       style="fill:none;stroke:#000000;stroke-width:1px;stroke-linecap:round;stroke-linejoin:miter;stroke-opacity:1"
       d="m 170,996.36088 10,0"
       id="path3909"
       inkscape:connector-curvature="0" />
    <path
       sodipodi:nodetypes="cccccccccccccc"
       inkscape:connector-curvature="0"
       id="path3040"
       d="m 245,822.36088 -145,0 0,25 5,2.41998 -10,5 10,5 -10,5 10,5 -10,5 10.14251,5.02528 -9.79881,5 4.6563,2.55474 0,30 10,0"
       style="fill:none;stroke:#000000;stroke-width:1;stroke-linecap:butt;stroke-linejoin:round;stroke-miterlimit:4;stroke-opacity:1;stroke-dasharray:none" />
    <path
       inkscape:connector-curvature="0"
       id="path3046"
       d="m 173,1000.3609 4,0"
       style="fill:none;stroke:#000000;stroke-width:1px;stroke-linecap:round;stroke-linejoin:miter;stroke-opacity:1" />
    <path
       transform="matrix(0.66666667,0,0,0.66666667,121.66667,713.32978)"
       d="m 188,163.46457 c 0,1.65685 -1.34315,3 -3,3 -1.65685,0 -3,-1.34315 -3,-3 0,-1.65686 1.34315,-3 3,-3 1.65685,0 3,1.34314 3,3 z"
       sodipodi:ry="3"
       sodipodi:rx="3"
       sodipodi:cy="163.46457"
       sodipodi:cx="185"
       id="path5068-5"
       style="fill:#ffffff;stroke:#000000;stroke-width:1.5"
       sodipodi:type="arc" />
    <path
       sodipodi:nodetypes="cccccccccccc"
       inkscape:connector-curvature="0"
       id="path3412"
       d="m 175,937.36088 0,13.04092 -5,2.41998 10,3.58002 -10,3 10,3 -10,4 10,3 -10,4 9.6563,3 -4.6563,2.55474 0,13.40434"
       style="fill:none;stroke:#000000;stroke-width:1;stroke-linecap:butt;stroke-linejoin:round;stroke-miterlimit:4;stroke-opacity:1;stroke-dasharray:none" />
    <path
       style="fill:none;stroke:#000000;stroke-width:1;stroke-linecap:butt;stroke-linejoin:round;stroke-miterlimit:4;stroke-opacity:1;stroke-dasharray:none"
       d="m 175,822.36088 0,22.23136 -5,2.41998 10,3.58002 -10,3 10,3 -10,4 10,3 -10,4 9.6563,3 -4.6563,2.55474 0,11.44526"
       id="path3414"
       inkscape:connector-curvature="0"
       sodipodi:nodetypes="cccccccccccc" />
    <g
       id="g3468"
       transform="matrix(1.2,0,0,-1.2,-18.908266,1673.4122)"
       xml:space="preserve"
       stroke-miterlimit="10.433"
       font-style="normal"
       font-variant="normal"
       font-weight="normal"
       font-stretch="normal"
       font-size-adjust="none"
       letter-spacing="normal"
       word-spacing="normal"
       ns0:text="$V_{CC}$"
       ns0:preamble="/home/sriranga/Desktop/MCT/package.tex"
       style="font-style:normal;font-variant:normal;font-weight:normal;font-stretch:normal;letter-spacing:normal;word-spacing:normal;text-anchor:start;fill:none;stroke:#000000;stroke-width:1;stroke-linecap:butt;stroke-linejoin:miter;stroke-miterlimit:10.43299961;stroke-opacity:1;stroke-dasharray:none;stroke-dashoffset:0"><path
         style="fill:#000000;stroke-width:0"
         inkscape:connector-curvature="0"
         d="m 230.28,713.61 h -1.85 v -0.16 c 0.44,-0.05 0.62,-0.15 0.62,-0.34 0,-0.18 -0.19,-0.61 -0.51,-1.18 l -2.05,-3.53 -0.66,4.4 c -0.01,0.05 -0.01,0.09 -0.01,0.15 0,0.33 0.14,0.43 0.77,0.5 v 0.16 h -2.4 v -0.16 c 0.55,-0.07 0.57,-0.1 0.78,-1.34 l 0.85,-5.16 h 0.19 l 3.71,6.1 c 0.17,0.27 0.33,0.39 0.56,0.4 z"
         id="path3470" /><path
         style="fill:#000000;stroke-width:0"
         inkscape:connector-curvature="0"
         d="m 233.89,708.86 0.25,1.39 H 234 c -0.06,-0.11 -0.13,-0.16 -0.27,-0.16 -0.05,0 -0.14,0.02 -0.28,0.05 -0.32,0.08 -0.6,0.12 -0.82,0.12 -1.48,0 -2.83,-1.4 -2.83,-2.94 0,-1.06 0.76,-1.81 1.82,-1.81 0.72,0 1.28,0.3 1.9,1.03 l -0.12,0.1 c -0.62,-0.61 -1.02,-0.82 -1.6,-0.82 -0.77,0 -1.21,0.53 -1.21,1.42 0,0.83 0.33,1.67 0.87,2.24 0.34,0.34 0.78,0.53 1.24,0.53 0.64,0 0.99,-0.37 1.06,-1.12 z"
         id="path3472" /><path
         style="fill:#000000;stroke-width:0"
         inkscape:connector-curvature="0"
         d="m 238.69,708.86 0.26,1.39 h -0.15 c -0.05,-0.11 -0.12,-0.16 -0.26,-0.16 -0.06,0 -0.14,0.02 -0.29,0.05 -0.31,0.08 -0.59,0.12 -0.81,0.12 -1.49,0 -2.83,-1.4 -2.83,-2.94 0,-1.06 0.75,-1.81 1.82,-1.81 0.72,0 1.27,0.3 1.9,1.03 l -0.12,0.1 c -0.63,-0.61 -1.03,-0.82 -1.6,-0.82 -0.77,0 -1.22,0.53 -1.22,1.42 0,0.83 0.33,1.67 0.88,2.24 0.33,0.34 0.77,0.53 1.23,0.53 0.64,0 1,-0.37 1.07,-1.12 z"
         id="path3474" /></g>    <g
       style="font-style:normal;font-variant:normal;font-weight:normal;font-stretch:normal;letter-spacing:normal;word-spacing:normal;text-anchor:start;fill:none;stroke:#000000;stroke-width:1;stroke-linecap:butt;stroke-linejoin:miter;stroke-miterlimit:10.43299961;stroke-opacity:1;stroke-dasharray:none;stroke-dashoffset:0"
       ns0:preamble="/home/sriranga/Desktop/MCT/package.tex"
       ns0:text="$R_C$"
       word-spacing="normal"
       letter-spacing="normal"
       font-size-adjust="none"
       font-stretch="normal"
       font-weight="normal"
       font-variant="normal"
       font-style="normal"
       stroke-miterlimit="10.433"
       xml:space="preserve"
       transform="matrix(1.2,0,0,-1.2,-83.249225,1706.4471)"
       id="g3575"><path
         style="fill:#000000;stroke-width:0"
         inkscape:connector-curvature="0"
         id="path3577"
         d="m 229.07,707.28 -0.04,0.01 -0.04,0 -0.03,0.01 -0.04,0 -0.04,0.01 -0.03,0.01 -0.03,0.01 -0.03,0.01 -0.03,0.01 -0.03,0.01 -0.03,0.01 -0.03,0.02 -0.03,0.01 -0.02,0.02 -0.03,0.02 -0.02,0.02 -0.03,0.02 -0.02,0.02 -0.02,0.03 -0.02,0.02 -0.02,0.03 -0.03,0.03 -0.02,0.03 -0.02,0.03 -0.01,0.04 -0.02,0.03 -0.02,0.04 -0.02,0.04 -0.02,0.04 -0.02,0.05 -0.02,0.04 -0.01,0.05 -0.93,2.43 c 0.77,0.17 1.1,0.31 1.45,0.63 0.33,0.29 0.51,0.67 0.51,1.12 0,0.92 -0.73,1.43 -2.07,1.43 l -0.21,-0.3 c 0.83,0 1.24,-0.37 1.24,-1.11 0,-0.98 -0.64,-1.49 -1.88,-1.49 -0.16,0 -0.27,0.01 -0.51,0.05 l 0.65,2.28 c 0.06,0.2 0.18,0.27 0.5,0.27 l 0.21,0.3 h -2.47 v -0.16 c 0.42,-0.06 0.47,-0.07 0.57,-0.14 0.08,-0.05 0.14,-0.16 0.14,-0.27 0,-0.12 -0.05,-0.36 -0.12,-0.63 l -1.22,-4.39 c -0.18,-0.59 -0.25,-0.65 -0.81,-0.74 v -0.16 h 2.43 v 0.16 c -0.61,0.08 -0.68,0.13 -0.68,0.46 0,0.1 0.03,0.23 0.12,0.58 l 0.56,2.07 0.65,-0.05 1.22,-3.22 h 1.47 z" /><path
         style="fill:#000000;stroke-width:0"
         inkscape:connector-curvature="0"
         id="path3579"
         d="m 233.89,708.86 0.25,1.39 H 234 c -0.06,-0.11 -0.13,-0.16 -0.27,-0.16 -0.05,0 -0.14,0.02 -0.28,0.05 -0.32,0.08 -0.6,0.12 -0.82,0.12 -1.48,0 -2.83,-1.4 -2.83,-2.94 0,-1.06 0.76,-1.81 1.82,-1.81 0.72,0 1.28,0.3 1.9,1.03 l -0.12,0.1 c -0.62,-0.61 -1.02,-0.82 -1.6,-0.82 -0.77,0 -1.21,0.53 -1.21,1.42 0,0.83 0.33,1.67 0.87,2.24 0.34,0.34 0.78,0.53 1.24,0.53 0.64,0 0.99,-0.37 1.06,-1.12 z" /></g>    <g
       style="font-style:normal;font-variant:normal;font-weight:normal;font-stretch:normal;letter-spacing:normal;word-spacing:normal;text-anchor:start;fill:none;stroke:#000000;stroke-width:1;stroke-linecap:butt;stroke-linejoin:miter;stroke-miterlimit:10.43299961;stroke-opacity:1;stroke-dasharray:none;stroke-dashoffset:0"
       ns0:preamble="/home/sriranga/Desktop/MCT/package.tex"
       ns0:text="$R_B$"
       word-spacing="normal"
       letter-spacing="normal"
       font-size-adjust="none"
       font-stretch="normal"
       font-weight="normal"
       font-variant="normal"
       font-style="normal"
       stroke-miterlimit="10.433"
       xml:space="preserve"
       transform="matrix(1.2,0,0,-1.2,-188.03205,1717.7313)"
       id="g3788"><path
         id="path3790"
         d="m 229.07,707.28 -0.04,0.01 -0.04,0 -0.03,0.01 -0.04,0 -0.04,0.01 -0.03,0.01 -0.03,0.01 -0.03,0.01 -0.03,0.01 -0.03,0.01 -0.03,0.01 -0.03,0.02 -0.03,0.01 -0.02,0.02 -0.03,0.02 -0.02,0.02 -0.03,0.02 -0.02,0.02 -0.02,0.03 -0.02,0.02 -0.02,0.03 -0.03,0.03 -0.02,0.03 -0.02,0.03 -0.01,0.04 -0.02,0.03 -0.02,0.04 -0.02,0.04 -0.02,0.04 -0.02,0.05 -0.02,0.04 -0.01,0.05 -0.93,2.43 c 0.77,0.17 1.1,0.31 1.45,0.63 0.33,0.29 0.51,0.67 0.51,1.12 0,0.92 -0.73,1.43 -2.07,1.43 l -0.21,-0.3 c 0.83,0 1.24,-0.37 1.24,-1.11 0,-0.98 -0.64,-1.49 -1.88,-1.49 -0.16,0 -0.27,0.01 -0.51,0.05 l 0.65,2.28 c 0.06,0.2 0.18,0.27 0.5,0.27 l 0.21,0.3 h -2.47 v -0.16 c 0.42,-0.06 0.47,-0.07 0.57,-0.14 0.08,-0.05 0.14,-0.16 0.14,-0.27 0,-0.12 -0.05,-0.36 -0.12,-0.63 l -1.22,-4.39 c -0.18,-0.59 -0.25,-0.65 -0.81,-0.74 v -0.16 h 2.43 v 0.16 c -0.61,0.08 -0.68,0.13 -0.68,0.46 0,0.1 0.03,0.23 0.12,0.58 l 0.56,2.07 0.65,-0.05 1.22,-3.22 h 1.47 z"
         inkscape:connector-curvature="0"
         style="fill:#000000;stroke-width:0" /><path
         id="path3792"
         d="m 229.71,705.63 h 1.96 c 1.09,0 1.85,0.57 1.85,1.39 0,0.26 -0.09,0.5 -0.24,0.65 -0.14,0.17 -0.28,0.25 -0.64,0.4 0.49,0.12 0.7,0.2 0.92,0.4 0.19,0.17 0.3,0.4 0.3,0.68 0,0.66 -0.5,1.02 -1.4,1.02 l -0.12,-0.21 c 0.56,0 0.81,-0.23 0.81,-0.75 0,-0.39 -0.16,-0.7 -0.46,-0.87 -0.24,-0.14 -0.57,-0.18 -1.2,-0.18 l -0.07,-0.23 c 0.45,0 0.75,-0.02 0.88,-0.08 0.29,-0.12 0.46,-0.43 0.46,-0.8 0,-0.75 -0.51,-1.21 -1.36,-1.21 -0.29,0 -0.45,0.1 -0.45,0.29 0,0.09 0.09,0.42 0.25,0.97 0.09,0.32 0.13,0.48 0.22,0.83 h 0 l 0.07,0.23 0.45,1.61 c 0.05,0.15 0.13,0.19 0.4,0.19 l 0.12,0.21 h -1.79 v -0.11 c 0.43,-0.03 0.54,-0.09 0.54,-0.28 0,-0.11 -0.03,-0.28 -0.08,-0.45 l -0.86,-3.07 c -0.12,-0.41 -0.17,-0.45 -0.56,-0.52 z"
         inkscape:connector-curvature="0"
         style="fill:#000000;stroke-width:0" /></g>    <g
       id="g3887"
       transform="matrix(1.2,0,0,-1.2,-134.88668,1761.544)"
       xml:space="preserve"
       stroke-miterlimit="10.433"
       font-style="normal"
       font-variant="normal"
       font-weight="normal"
       font-stretch="normal"
       font-size-adjust="none"
       letter-spacing="normal"
       word-spacing="normal"
       ns0:text="$I_B$"
       ns0:preamble="/home/sriranga/Desktop/MCT/package.tex"
       style="font-style:normal;font-variant:normal;font-weight:normal;font-stretch:normal;letter-spacing:normal;word-spacing:normal;text-anchor:start;fill:none;stroke:#000000;stroke-width:1;stroke-linecap:butt;stroke-linejoin:miter;stroke-miterlimit:10.43299961;stroke-opacity:1;stroke-dasharray:none;stroke-dashoffset:0"><path
         style="fill:#000000;stroke-width:0"
         inkscape:connector-curvature="0"
         d="m 223.6,707.12 h 2.43 v 0.16 c -0.57,0.07 -0.68,0.13 -0.68,0.41 0,0.19 0.02,0.31 0.11,0.63 l 1.23,4.4 c 0.18,0.57 0.24,0.63 0.81,0.73 v 0.16 h -2.46 v -0.16 c 0.58,-0.07 0.7,-0.15 0.7,-0.42 0,-0.14 -0.04,-0.37 -0.11,-0.62 l -1.22,-4.39 c -0.18,-0.58 -0.25,-0.64 -0.81,-0.74 z"
         id="path3889" /><path
         style="fill:#000000;stroke-width:0"
         inkscape:connector-curvature="0"
         d="m 227.19,705.63 h 1.96 c 1.09,0 1.85,0.57 1.85,1.39 0,0.26 -0.09,0.5 -0.24,0.65 -0.14,0.17 -0.28,0.25 -0.64,0.4 0.49,0.12 0.7,0.2 0.92,0.4 0.19,0.17 0.3,0.4 0.3,0.68 0,0.66 -0.5,1.02 -1.39,1.02 l -0.13,-0.21 c 0.56,0 0.81,-0.23 0.81,-0.75 0,-0.39 -0.16,-0.7 -0.46,-0.87 -0.24,-0.14 -0.57,-0.18 -1.2,-0.18 l -0.07,-0.23 c 0.45,0 0.75,-0.02 0.89,-0.08 0.28,-0.12 0.45,-0.43 0.45,-0.8 0,-0.75 -0.51,-1.21 -1.36,-1.21 -0.29,0 -0.45,0.1 -0.45,0.29 0,0.09 0.09,0.42 0.25,0.97 0.09,0.32 0.13,0.48 0.22,0.83 h 0 l 0.07,0.23 0.45,1.61 c 0.04,0.15 0.13,0.19 0.4,0.19 l 0.13,0.21 h -1.8 v -0.11 c 0.43,-0.03 0.53,-0.09 0.53,-0.28 0,-0.11 -0.02,-0.28 -0.07,-0.45 l -0.86,-3.07 c -0.12,-0.41 -0.17,-0.45 -0.56,-0.52 z"
         id="path3891" /></g>    <path
       inkscape:connector-curvature="0"
       id="path3936"
       d="m 109.84434,909.04096 20,0"
       style="fill:none;stroke:#000000;stroke-width:0.80000001;stroke-linecap:butt;stroke-linejoin:miter;stroke-miterlimit:4;stroke-opacity:1;stroke-dasharray:none;marker-end:url(#Arrow1Mend)" />
    <path
       style="fill:none;stroke:#000000;stroke-width:0.80000001;stroke-linecap:butt;stroke-linejoin:miter;stroke-miterlimit:4;stroke-opacity:1;stroke-dasharray:none;marker-end:url(#Arrow1Mend)"
       d="m 162.75438,844.1516 0,20"
       id="path4894"
       inkscape:connector-curvature="0" />
    <g
       style="font-style:normal;font-variant:normal;font-weight:normal;font-stretch:normal;letter-spacing:normal;word-spacing:normal;text-anchor:start;fill:none;stroke:#000000;stroke-width:1;stroke-linecap:butt;stroke-linejoin:miter;stroke-miterlimit:10.43299961;stroke-opacity:1;stroke-dasharray:none;stroke-dashoffset:0"
       ns0:preamble="/home/sriranga/Desktop/MCT/package.tex"
       ns0:text="$I_C$"
       word-spacing="normal"
       letter-spacing="normal"
       font-size-adjust="none"
       font-stretch="normal"
       font-weight="normal"
       font-variant="normal"
       font-style="normal"
       stroke-miterlimit="10.433"
       xml:space="preserve"
       transform="matrix(1.2,0,0,-1.2,-111.30244,1723.688)"
       id="g4954"><path
         id="path4956"
         d="m 223.6,707.12 h 2.43 v 0.16 c -0.57,0.07 -0.68,0.13 -0.68,0.41 0,0.19 0.02,0.31 0.11,0.63 l 1.23,4.4 c 0.18,0.57 0.24,0.63 0.81,0.73 v 0.16 h -2.46 v -0.16 c 0.58,-0.07 0.7,-0.15 0.7,-0.42 0,-0.14 -0.04,-0.37 -0.11,-0.62 l -1.22,-4.39 c -0.18,-0.58 -0.25,-0.64 -0.81,-0.74 z"
         inkscape:connector-curvature="0"
         style="fill:#000000;stroke-width:0" /><path
         id="path4958"
         d="m 231.37,708.86 0.25,1.39 h -0.14 c -0.06,-0.11 -0.13,-0.16 -0.27,-0.16 -0.05,0 -0.14,0.02 -0.28,0.05 -0.32,0.08 -0.6,0.12 -0.82,0.12 -1.48,0 -2.83,-1.4 -2.83,-2.94 0,-1.06 0.76,-1.81 1.82,-1.81 0.72,0 1.28,0.3 1.9,1.03 l -0.12,0.1 c -0.62,-0.61 -1.03,-0.82 -1.6,-0.82 -0.77,0 -1.22,0.53 -1.22,1.42 0,0.83 0.34,1.67 0.88,2.24 0.33,0.34 0.77,0.53 1.23,0.53 0.65,0 1,-0.37 1.07,-1.12 z"
         inkscape:connector-curvature="0"
         style="fill:#000000;stroke-width:0" /></g>    <path
       inkscape:connector-curvature="0"
       id="path5008"
       d="m 162.75438,950.52412 0,20"
       style="fill:none;stroke:#000000;stroke-width:0.80000001;stroke-linecap:butt;stroke-linejoin:miter;stroke-miterlimit:4;stroke-opacity:1;stroke-dasharray:none;marker-end:url(#Arrow1Mend)" />
    <g
       id="g5094"
       transform="matrix(1.2,0,0,-1.2,-83.249225,1811.9026)"
       xml:space="preserve"
       stroke="black"
       stroke-linecap="butt"
       stroke-linejoin="miter"
       stroke-miterlimit="10.433"
       stroke-dasharray="none"
       stroke-dashoffset="0"
       stroke-opacity="1"
       fill="none"
       fill-rule="evenodd"
       fill-opacity="1"
       font-style="normal"
       font-variant="normal"
       font-weight="normal"
       font-stretch="normal"
       font-size-adjust="none"
       letter-spacing="normal"
       word-spacing="normal"
       text-anchor="start"
       ns0:text="$R_E$"
       ns0:preamble="/home/sriranga/Desktop/MCT/package.tex"
       style="font-style:normal;font-variant:normal;font-weight:normal;font-stretch:normal;letter-spacing:normal;word-spacing:normal;text-anchor:start;fill:none;stroke:#000000;stroke-width:1;stroke-linecap:butt;stroke-linejoin:miter;stroke-miterlimit:10.43299961;stroke-opacity:1;stroke-dasharray:none;stroke-dashoffset:0"><path
         d="M229.07,707.28 L229.03,707.29 L228.99,707.29 L228.96,707.3 L228.92,707.3 L228.88,707.31 L228.85,707.32 L228.82,707.33 L228.79,707.34 L228.76,707.35 L228.73,707.36 L228.7,707.37 L228.67,707.39 L228.64,707.4 L228.62,707.42 L228.59,707.44 L228.57,707.46 L228.54,707.48 L228.52,707.5 L228.5,707.53 L228.48,707.55 L228.46,707.58 L228.43,707.61 L228.41,707.64 L228.39,707.67 L228.38,707.71 L228.36,707.74 L228.34,707.78 L228.32,707.82 L228.3,707.86 L228.28,707.91 L228.26,707.95 L228.25,708 L227.32,710.43 C228.09,710.6,228.42,710.74,228.77,711.06 C229.1,711.35,229.28,711.73,229.28,712.18 C229.28,713.1,228.55,713.61,227.21,713.61 L227,713.31 C227.83,713.31,228.24,712.94,228.24,712.2 C228.24,711.22,227.6,710.71,226.36,710.71 C226.2,710.71,226.09,710.72,225.85,710.76 L226.5,713.04 C226.56,713.24,226.68,713.31,227,713.31 L227.21,713.61 H224.74 V713.45 C225.16,713.39,225.21,713.38,225.31,713.31 C225.39,713.26,225.45,713.15,225.45,713.04 C225.45,712.92,225.4,712.68,225.33,712.41 L224.11,708.02 C223.93,707.43,223.86,707.37,223.3,707.28 V707.12 H225.73 V707.28 C225.12,707.36,225.05,707.41,225.05,707.74 C225.05,707.84,225.08,707.97,225.17,708.32 L225.73,710.39 L226.38,710.34 L227.6,707.12 H229.07 Z "
         stroke-width="0"
         fill="black"
         id="path5096" /><path
         d="M234.11,710.17 H230.65 V710.06 C231.08,710.02,231.18,709.96,231.18,709.78 C231.18,709.7,231.14,709.46,231.11,709.33 L230.25,706.26 C230.13,705.86,230.08,705.81,229.69,705.74 V705.63 H233.22 L233.65,706.76 L233.54,706.81 C233.21,706.37,233.03,706.19,232.73,706.05 C232.47,705.93,232,705.86,231.48,705.86 C231.09,705.86,230.92,705.93,230.92,706.1 C230.92,706.17,231,706.5,231.17,707.11 C231.26,707.42,231.32,707.65,231.39,707.91 C231.64,707.9,231.85,707.89,231.94,707.89 C232.21,707.9,232.4,707.86,232.48,707.79 C232.51,707.75,232.53,707.69,232.53,707.57 C232.53,707.45,232.51,707.36,232.48,707.21 L232.62,707.17 L233.09,708.79 L232.97,708.82 C232.7,708.22,232.64,708.18,232.01,708.16 C231.92,708.16,231.7,708.15,231.46,708.14 L231.92,709.76 C231.96,709.91,232.03,709.94,232.42,709.94 C233.52,709.94,233.76,709.85,233.76,709.43 C233.76,709.34,233.75,709.24,233.75,709.12 L233.89,709.11 Z "
         stroke-width="0"
         fill="black"
         id="path5098" /></g>    <g
       id="g5351"
       transform="matrix(1.2,0,0,-1.2,-111.30244,1830.0605)"
       xml:space="preserve"
       stroke="black"
       stroke-linecap="butt"
       stroke-linejoin="miter"
       stroke-miterlimit="10.433"
       stroke-dasharray="none"
       stroke-dashoffset="0"
       stroke-opacity="1"
       fill="none"
       fill-rule="evenodd"
       fill-opacity="1"
       font-style="normal"
       font-variant="normal"
       font-weight="normal"
       font-stretch="normal"
       font-size-adjust="none"
       letter-spacing="normal"
       word-spacing="normal"
       text-anchor="start"
       ns0:text="$I_E$"
       ns0:preamble="/home/sriranga/Desktop/MCT/package.tex"
       style="font-style:normal;font-variant:normal;font-weight:normal;font-stretch:normal;letter-spacing:normal;word-spacing:normal;text-anchor:start;fill:none;stroke:#000000;stroke-width:1;stroke-linecap:butt;stroke-linejoin:miter;stroke-miterlimit:10.43299961;stroke-opacity:1;stroke-dasharray:none;stroke-dashoffset:0"><path
         d="M223.6,707.12 H226.03 V707.28 C225.46,707.35,225.35,707.41,225.35,707.69 C225.35,707.88,225.37,708,225.46,708.32 L226.69,712.72 C226.87,713.29,226.93,713.35,227.5,713.45 V713.61 H225.04 V713.45 C225.62,713.38,225.74,713.3,225.74,713.03 C225.74,712.89,225.7,712.66,225.63,712.41 L224.41,708.02 C224.23,707.44,224.16,707.38,223.6,707.28 Z "
         stroke-width="0"
         fill="black"
         id="path5353" /><path
         d="M231.59,710.17 H228.13 V710.06 C228.56,710.02,228.66,709.96,228.66,709.78 C228.66,709.7,228.62,709.46,228.59,709.33 L227.73,706.26 C227.61,705.86,227.56,705.81,227.17,705.74 V705.63 H230.7 L231.13,706.76 L231.02,706.81 C230.69,706.37,230.51,706.19,230.21,706.05 C229.95,705.93,229.48,705.86,228.96,705.86 C228.57,705.86,228.4,705.93,228.4,706.1 C228.4,706.17,228.48,706.5,228.65,707.11 C228.74,707.42,228.8,707.65,228.87,707.91 C229.12,707.9,229.33,707.89,229.42,707.89 C229.69,707.9,229.88,707.86,229.96,707.79 C229.99,707.75,230.01,707.69,230.01,707.57 C230.01,707.45,229.99,707.36,229.96,707.21 L230.1,707.17 L230.57,708.79 L230.45,708.82 C230.18,708.22,230.12,708.18,229.49,708.16 C229.4,708.16,229.18,708.15,228.93,708.14 L229.4,709.76 C229.44,709.91,229.51,709.94,229.9,709.94 C231,709.94,231.24,709.85,231.24,709.43 C231.24,709.34,231.23,709.24,231.23,709.12 L231.37,709.11 Z "
         stroke-width="0"
         fill="black"
         id="path5355" /></g>    <g
       id="content"
       transform="matrix(1.2,0,0,-1.2,-18.830301,1688.7323)"
       xml:space="preserve"
       stroke-miterlimit="10.433"
       font-style="normal"
       font-variant="normal"
       font-weight="normal"
       font-stretch="normal"
       font-size-adjust="none"
       letter-spacing="normal"
       word-spacing="normal"
       ns0:text="$12V$"
       ns0:preamble="/home/sriranga/Desktop/MCT/package.tex"
       style="font-style:normal;font-variant:normal;font-weight:normal;font-stretch:normal;letter-spacing:normal;word-spacing:normal;text-anchor:start;fill:none;stroke:#000000;stroke-width:1;stroke-linecap:butt;stroke-linejoin:miter;stroke-miterlimit:10.43299961;stroke-opacity:1;stroke-dasharray:none;stroke-dashoffset:0"><path
         style="fill:#000000;stroke-width:0"
         inkscape:connector-curvature="0"
         d="m 226.33,713.84 -1.79,-0.9 v -0.14 c 0.12,0.05 0.22,0.09 0.26,0.11 0.18,0.07 0.35,0.11 0.45,0.11 0.21,0 0.3,-0.15 0.3,-0.47 v -4.5 c 0,-0.33 -0.08,-0.56 -0.24,-0.65 -0.15,-0.09 -0.29,-0.12 -0.7,-0.13 v -0.15 h 2.74 v 0.15 c -0.78,0.01 -0.94,0.11 -0.94,0.59 v 5.96 z"
         id="path5646" /><path
         style="fill:#000000;stroke-width:0"
         inkscape:connector-curvature="0"
         d="m 233.14,708.49 -0.13,0.05 c -0.37,-0.57 -0.5,-0.66 -0.94,-0.66 h -2.38 l 1.67,1.75 c 0.88,0.92 1.27,1.68 1.27,2.45 0,1 -0.8,1.76 -1.84,1.76 -0.55,0 -1.06,-0.22 -1.43,-0.62 -0.32,-0.33 -0.47,-0.65 -0.64,-1.36 l 0.21,-0.05 c 0.4,0.98 0.76,1.29 1.44,1.29 0.84,0 1.41,-0.56 1.41,-1.39 0,-0.78 -0.46,-1.7 -1.3,-2.59 l -1.77,-1.88 v -0.12 h 3.88 z"
         id="path5648" /><path
         style="fill:#000000;stroke-width:0"
         inkscape:connector-curvature="0"
         d="m 240.24,713.61 h -1.85 v -0.16 c 0.45,-0.05 0.63,-0.15 0.63,-0.34 0,-0.18 -0.19,-0.61 -0.52,-1.18 l -2.05,-3.53 -0.66,4.4 c -0.01,0.05 -0.01,0.09 -0.01,0.15 0,0.33 0.14,0.43 0.77,0.5 v 0.16 h -2.4 v -0.16 c 0.56,-0.07 0.58,-0.1 0.79,-1.34 l 0.84,-5.16 h 0.19 l 3.71,6.1 c 0.17,0.27 0.33,0.39 0.56,0.4 z"
         id="path5650" /></g>    <g
       style="font-style:normal;font-variant:normal;font-weight:normal;font-stretch:normal;letter-spacing:normal;word-spacing:normal;text-anchor:start;fill:none;stroke:#000000;stroke-width:1;stroke-linecap:butt;stroke-linejoin:miter;stroke-miterlimit:10.43299961;stroke-opacity:1;stroke-dasharray:none;stroke-dashoffset:0"
       ns0:preamble="/home/sriranga/Desktop/MCT/package.tex"
       ns0:text="$820\\,   \\Omega$"
       text-anchor="start"
       word-spacing="normal"
       letter-spacing="normal"
       font-size-adjust="none"
       font-stretch="normal"
       font-weight="normal"
       font-variant="normal"
       font-style="normal"
       fill-opacity="1"
       fill-rule="evenodd"
       fill="none"
       stroke-opacity="1"
       stroke-dashoffset="0"
       stroke-dasharray="none"
       stroke-miterlimit="10.433"
       stroke-linejoin="miter"
       stroke-linecap="butt"
       stroke="black"
       xml:space="preserve"
       transform="matrix(1.2,0,0,-1.2,-84.445109,1720.0142)"
       id="g5780"><path
         id="path5782"
         fill="black"
         stroke-width="0"
         d="M226.32,710.81 L226.41,710.86 L226.49,710.91 L226.58,710.96 L226.66,711 L226.73,711.05 L226.81,711.1 L226.88,711.14 L226.94,711.19 L227,711.24 L227.06,711.28 L227.12,711.33 L227.17,711.38 L227.22,711.42 L227.27,711.47 L227.31,711.52 L227.35,711.56 L227.39,711.61 L227.43,711.66 L227.46,711.71 L227.49,711.76 L227.52,711.81 L227.54,711.86 L227.56,711.91 L227.58,711.97 L227.6,712.02 L227.61,712.07 L227.62,712.13 L227.63,712.19 L227.64,712.25 L227.65,712.31 L227.65,712.37 L227.65,712.43 C227.65,713.24,226.93,713.84,225.94,713.84 L225.86,713.56 C226.54,713.56,226.96,713.12,226.96,712.44 C226.96,711.87,226.68,711.43,226.12,711.05 C226.07,711.02,226.07,711.02,226.03,710.99 H226.03 C225.14,711.57,224.79,712.02,224.79,712.58 C224.79,713.16,225.23,713.56,225.86,713.56 L225.94,713.84 C224.85,713.84,224.05,713.17,224.05,712.27 C224.05,711.62,224.24,711.34,225.28,710.42 C224.21,709.61,223.99,709.3,223.99,708.62 C223.99,707.66,224.77,706.99,225.9,706.99 L226.01,707.26 C225.25,707.26,224.74,707.84,224.74,708.7 C224.74,709.34,224.96,709.76,225.54,710.22 L226.14,709.79 C226.86,709.27,227.1,708.91,227.1,708.36 C227.1,707.71,226.66,707.26,226.01,707.26 L225.9,706.99 C227.09,706.99,227.86,707.64,227.86,708.66 C227.86,709.43,227.52,709.92,226.32,710.81 Z " /><path
         id="path5784"
         fill="black"
         stroke-width="0"
         d="M233.14,708.49 L233.01,708.54 C232.64,707.97,232.51,707.88,232.07,707.88 H229.69 L231.36,709.63 C232.24,710.55,232.63,711.31,232.63,712.08 C232.63,713.08,231.83,713.84,230.79,713.84 C230.24,713.84,229.73,713.62,229.36,713.22 C229.04,712.89,228.89,712.57,228.72,711.86 L228.93,711.81 C229.33,712.79,229.69,713.1,230.37,713.1 C231.21,713.1,231.78,712.54,231.78,711.71 C231.78,710.93,231.32,710.01,230.48,709.12 L228.71,707.24 V707.12 H232.59 Z " /><path
         id="path5786"
         fill="black"
         stroke-width="0"
         d="M235.92,713.84 L235.87,713.84 L235.82,713.84 L235.77,713.84 L235.72,713.83 L235.67,713.83 L235.63,713.82 L235.58,713.82 L235.53,713.81 L235.49,713.8 L235.44,713.79 L235.4,713.78 L235.36,713.77 L235.31,713.76 L235.27,713.74 L235.23,713.73 L235.19,713.71 L235.15,713.7 L235.11,713.68 L235.07,713.66 L235.03,713.64 L234.99,713.62 L234.95,713.6 L234.91,713.57 L234.88,713.55 L234.84,713.53 L234.8,713.5 L234.77,713.47 L234.73,713.45 L234.69,713.42 L234.66,713.39 L234.62,713.36 L234.59,713.32 C234.01,712.77,233.63,711.62,233.63,710.46 C233.63,709.38,233.96,708.22,234.43,707.66 C234.8,707.22,235.3,706.99,235.88,706.99 V707.24 C235.03,707.24,234.59,708.31,234.59,710.37 C234.59,712.48,235.04,713.58,235.89,713.58 H235.89 C236.73,713.58,237.18,712.46,237.18,710.38 C237.18,708.31,236.74,707.24,235.88,707.24 V706.99 C236.39,706.99,236.82,707.16,237.18,707.5 C237.75,708.05,238.13,709.2,238.13,710.4 C238.13,712.44,237.23,713.84,235.92,713.84 Z " /><path
         id="path5788"
         fill="black"
         stroke-width="0"
         d="M247.14,707.12 V708.65 H246.96 C246.94,708.14,246.65,708.03,246.2,708.03 H244.84 L244.89,708.36 C246.15,708.72,246.91,709.71,246.91,711.03 C246.91,712.83,245.46,713.85,243.77,713.85 C242.09,713.85,240.57,712.78,240.57,710.99 C240.57,709.78,241.37,708.59,242.61,708.36 L242.62,708.03 H241.3 C240.82,708.03,240.54,708.13,240.5,708.65 H240.32 V707.12 H243.05 L242.95,708.59 C241.93,708.96,241.71,709.99,241.71,710.97 C241.71,712.19,242.36,713.5,243.75,713.5 C245.18,713.5,245.8,712.14,245.8,710.9 C245.8,709.95,245.57,708.91,244.54,708.59 L244.41,707.12 Z " /></g>    <g
       id="g5916"
       transform="matrix(1.2,0,0,-1.2,-84.445109,1825.4697)"
       xml:space="preserve"
       stroke="black"
       stroke-linecap="butt"
       stroke-linejoin="miter"
       stroke-miterlimit="10.433"
       stroke-dasharray="none"
       stroke-dashoffset="0"
       stroke-opacity="1"
       fill="none"
       fill-rule="evenodd"
       fill-opacity="1"
       font-style="normal"
       font-variant="normal"
       font-weight="normal"
       font-stretch="normal"
       font-size-adjust="none"
       letter-spacing="normal"
       word-spacing="normal"
       text-anchor="start"
       ns0:text="$380\\,  \\Omega$"
       ns0:preamble="/home/sriranga/Desktop/MCT/package.tex"
       style="font-style:normal;font-variant:normal;font-weight:normal;font-stretch:normal;letter-spacing:normal;word-spacing:normal;text-anchor:start;fill:none;stroke:#000000;stroke-width:1;stroke-linecap:butt;stroke-linejoin:miter;stroke-miterlimit:10.43299961;stroke-opacity:1;stroke-dasharray:none;stroke-dashoffset:0"><path
         d="M224.95,710.4 L225.01,710.4 L225.06,710.4 L225.11,710.4 L225.16,710.4 L225.2,710.4 L225.25,710.4 L225.29,710.4 L225.33,710.4 L225.37,710.4 L225.41,710.4 L225.45,710.39 L225.48,710.39 L225.52,710.39 L225.55,710.39 L225.58,710.38 L225.61,710.38 L225.64,710.38 L225.67,710.38 L225.7,710.37 L225.72,710.37 L225.75,710.36 L225.78,710.36 L225.83,710.35 L225.87,710.34 L225.92,710.32 L225.96,710.31 L226.01,710.29 C226.63,710.08,227.01,709.51,227.01,708.82 C227.01,707.99,226.45,707.34,225.71,707.34 C225.44,707.34,225.24,707.41,224.88,707.65 C224.58,707.83,224.41,707.9,224.24,707.9 C224.01,707.9,223.86,707.76,223.86,707.55 C223.86,707.2,224.29,706.99,224.98,706.99 C225.75,706.99,226.54,707.24,227,707.65 C227.47,708.06,227.73,708.64,227.73,709.3 C227.73,709.81,227.57,710.27,227.28,710.58 C227.08,710.8,226.89,710.92,226.46,711.11 C227.14,711.58,227.39,711.94,227.39,712.48 C227.39,713.28,226.76,713.84,225.84,713.84 C225.34,713.84,224.9,713.67,224.55,713.35 C224.25,713.09,224.1,712.83,223.88,712.23 L224.03,712.19 C224.44,712.92,224.88,713.24,225.51,713.24 C226.16,713.24,226.61,712.81,226.61,712.18 C226.61,711.82,226.46,711.47,226.21,711.22 C225.91,710.92,225.63,710.77,224.95,710.53 Z "
         stroke-width="0"
         fill="black"
         id="path5918" /><path
         d="M231.3,710.81 L231.39,710.86 L231.48,710.91 L231.56,710.96 L231.64,711 L231.72,711.05 L231.79,711.1 L231.86,711.14 L231.92,711.19 L231.99,711.24 L232.04,711.28 L232.1,711.33 L232.15,711.38 L232.2,711.42 L232.25,711.47 L232.29,711.52 L232.33,711.56 L232.37,711.61 L232.41,711.66 L232.44,711.71 L232.47,711.76 L232.5,711.81 L232.52,711.86 L232.54,711.91 L232.56,711.97 L232.58,712.02 L232.59,712.07 L232.61,712.13 L232.62,712.19 L232.62,712.25 L232.63,712.31 L232.63,712.37 L232.63,712.43 C232.63,713.24,231.91,713.84,230.92,713.84 L230.84,713.56 C231.52,713.56,231.95,713.12,231.95,712.44 C231.95,711.87,231.67,711.43,231.1,711.05 C231.05,711.02,231.05,711.02,231.01,710.99 H231.01 C230.12,711.57,229.77,712.02,229.77,712.58 C229.77,713.16,230.21,713.56,230.84,713.56 L230.92,713.84 C229.84,713.84,229.03,713.17,229.03,712.27 C229.03,711.62,229.22,711.34,230.26,710.42 C229.19,709.61,228.97,709.3,228.97,708.62 C228.97,707.66,229.76,706.99,230.88,706.99 L230.99,707.26 C230.23,707.26,229.73,707.84,229.73,708.7 C229.73,709.34,229.95,709.76,230.52,710.22 L231.12,709.79 C231.85,709.27,232.09,708.91,232.09,708.36 C232.09,707.71,231.64,707.26,230.99,707.26 L230.88,706.99 C232.07,706.99,232.84,707.64,232.84,708.66 C232.84,709.43,232.5,709.92,231.3,710.81 Z "
         stroke-width="0"
         fill="black"
         id="path5920" /><path
         d="M235.92,713.84 L235.87,713.84 L235.82,713.84 L235.77,713.84 L235.72,713.83 L235.67,713.83 L235.63,713.82 L235.58,713.82 L235.53,713.81 L235.49,713.8 L235.44,713.79 L235.4,713.78 L235.36,713.77 L235.31,713.76 L235.27,713.74 L235.23,713.73 L235.19,713.71 L235.15,713.7 L235.11,713.68 L235.07,713.66 L235.03,713.64 L234.99,713.62 L234.95,713.6 L234.91,713.57 L234.88,713.55 L234.84,713.53 L234.8,713.5 L234.77,713.47 L234.73,713.45 L234.69,713.42 L234.66,713.39 L234.62,713.36 L234.59,713.32 C234.01,712.77,233.63,711.62,233.63,710.46 C233.63,709.38,233.96,708.22,234.43,707.66 C234.8,707.22,235.3,706.99,235.88,706.99 V707.24 C235.03,707.24,234.59,708.31,234.59,710.37 C234.59,712.48,235.04,713.58,235.89,713.58 H235.89 C236.73,713.58,237.18,712.46,237.18,710.38 C237.18,708.31,236.74,707.24,235.88,707.24 V706.99 C236.39,706.99,236.82,707.16,237.18,707.5 C237.75,708.05,238.13,709.2,238.13,710.4 C238.13,712.44,237.23,713.84,235.92,713.84 Z "
         stroke-width="0"
         fill="black"
         id="path5922" /><path
         d="M247.14,707.12 V708.65 H246.96 C246.94,708.14,246.65,708.03,246.2,708.03 H244.84 L244.89,708.36 C246.15,708.72,246.91,709.71,246.91,711.03 C246.91,712.83,245.46,713.85,243.77,713.85 C242.09,713.85,240.57,712.78,240.57,710.99 C240.57,709.78,241.37,708.59,242.61,708.36 L242.62,708.03 H241.3 C240.82,708.03,240.54,708.13,240.5,708.65 H240.32 V707.12 H243.05 L242.95,708.59 C241.93,708.96,241.71,709.99,241.71,710.97 C241.71,712.19,242.36,713.5,243.75,713.5 C245.18,713.5,245.8,712.14,245.8,710.9 C245.8,709.95,245.57,708.91,244.54,708.59 L244.41,707.12 Z "
         stroke-width="0"
         fill="black"
         id="path5924" /></g>    <path
       d="m 177.5,822.3609 c 0,1.38071 -1.11929,2.5 -2.5,2.5 -1.38071,0 -2.5,-1.11929 -2.5,-2.5 0,-1.38071 1.11929,-2.5 2.5,-2.5 1.38071,0 2.5,1.11929 2.5,2.5 z"
       sodipodi:ry="2.5"
       sodipodi:rx="2.5"
       sodipodi:cy="822.3609"
       sodipodi:cx="175"
       style="fill:#000000;stroke:none"
       id="path3043"
       sodipodi:type="arc" />
    <g
       style="font-style:normal;font-variant:normal;font-weight:normal;font-stretch:normal;letter-spacing:normal;word-spacing:normal;text-anchor:start;fill:none;stroke:#000000;stroke-width:1;stroke-linecap:butt;stroke-linejoin:miter;stroke-miterlimit:10.43299961;stroke-opacity:1;stroke-dasharray:none;stroke-dashoffset:0"
       ns0:preamble="/home/sriranga/Desktop/MCT/package.tex"
       ns0:text="$50\\, \\mu A$"
       text-anchor="start"
       word-spacing="normal"
       letter-spacing="normal"
       font-size-adjust="none"
       font-stretch="normal"
       font-weight="normal"
       font-variant="normal"
       font-style="normal"
       fill-opacity="1"
       fill-rule="evenodd"
       fill="none"
       stroke-opacity="1"
       stroke-dashoffset="0"
       stroke-dasharray="none"
       stroke-miterlimit="10.433"
       stroke-linejoin="miter"
       stroke-linecap="butt"
       stroke="black"
       xml:space="preserve"
       transform="matrix(1.2,0,0,-1.2,-158.79411,1778.2753)"
       id="g3107"><path
         id="path3109"
         fill="black"
         stroke-width="0"
         d="M225.23,712.92 H227.18 C227.34,712.92,227.38,712.94,227.41,713.01 L227.79,713.89 L227.7,713.96 C227.55,713.75,227.45,713.7,227.24,713.7 H225.16 L224.08,711.35 C224.07,711.33,224.07,711.32,224.07,711.3 C224.07,711.25,224.11,711.22,224.19,711.22 C224.51,711.22,224.9,711.15,225.31,711.02 C226.46,710.65,226.98,710.04,226.98,709.05 C226.98,708.1,226.38,707.35,225.6,707.35 C225.4,707.35,225.23,707.42,224.93,707.64 C224.62,707.87,224.39,707.97,224.18,707.97 C223.89,707.97,223.75,707.85,223.75,707.6 C223.75,707.22,224.22,706.99,224.96,706.99 C225.8,706.99,226.52,707.25,227.01,707.76 C227.47,708.21,227.68,708.77,227.68,709.53 C227.68,710.24,227.49,710.7,226.99,711.2 C226.56,711.64,225.99,711.86,224.82,712.07 Z " /><path
         id="path3111"
         fill="black"
         stroke-width="0"
         d="M230.94,713.84 L230.89,713.84 L230.84,713.84 L230.79,713.84 L230.74,713.83 L230.69,713.83 L230.65,713.82 L230.6,713.82 L230.55,713.81 L230.51,713.8 L230.46,713.79 L230.42,713.78 L230.37,713.77 L230.33,713.76 L230.29,713.74 L230.25,713.73 L230.21,713.71 L230.17,713.7 L230.13,713.68 L230.09,713.66 L230.05,713.64 L230.01,713.62 L229.97,713.6 L229.93,713.57 L229.89,713.55 L229.86,713.53 L229.82,713.5 L229.78,713.47 L229.75,713.45 L229.71,713.42 L229.68,713.39 L229.64,713.36 L229.61,713.32 C229.03,712.77,228.65,711.62,228.65,710.46 C228.65,709.38,228.98,708.22,229.45,707.66 C229.82,707.22,230.32,706.99,230.9,706.99 V707.24 C230.04,707.24,229.61,708.31,229.61,710.37 C229.61,712.48,230.05,713.58,230.91,713.58 H230.91 C231.75,713.58,232.19,712.46,232.19,710.38 C232.19,708.31,231.76,707.24,230.9,707.24 V706.99 C231.41,706.99,231.84,707.16,232.19,707.5 C232.77,708.05,233.15,709.2,233.15,710.4 C233.15,712.44,232.24,713.84,230.94,713.84 Z " /><path
         id="path3113"
         fill="black"
         stroke-width="0"
         d="M239.98,707.89 L239.98,707.9 L239.98,707.9 L239.98,707.91 L239.98,707.91 L239.98,707.92 L239.98,707.92 L239.98,707.92 L239.98,707.93 L239.98,707.93 L239.98,707.94 L239.98,707.94 L239.98,707.94 L239.97,707.95 L239.97,707.95 L239.97,707.95 L239.97,707.96 L239.97,707.96 L239.97,707.96 L239.97,707.96 L239.97,707.97 L239.96,707.97 L239.96,707.97 L239.96,707.97 L239.96,707.97 L239.96,707.97 L239.95,707.98 L239.95,707.98 L239.95,707.98 L239.95,707.98 L239.95,707.98 L239.94,707.98 L239.94,707.98 C239.79,707.98,239.8,707.39,239.26,707.39 C239.11,707.39,239.05,707.52,239.05,707.71 C239.05,707.97,239.15,708.35,239.25,708.74 L239.95,711.51 L239.08,711.36 L238.29,708.37 C238.27,708.32,237.68,707.49,237.07,707.49 C236.51,707.49,236.33,708.01,236.33,708.4 C236.33,708.52,236.35,708.62,236.37,708.71 L237.07,711.51 L236.34,711.38 L235.25,707.12 C235.04,706.32,234.65,705.25,234.57,705.07 H235.44 L236.08,707.55 H236.09 C236.09,707.54,236.13,707.02,236.85,707.02 C237.64,707.02,238.13,707.8,238.23,707.92 C238.22,707.84,238.21,707.77,238.21,707.7 C238.21,707.05,238.82,707.02,238.99,707.02 H239.01 C239.7,707.02,239.98,707.66,239.98,707.89 Z " /><path
         id="path3115"
         fill="black"
         stroke-width="0"
         d="M246.24,707.28 L246.19,707.29 L246.14,707.29 L246.1,707.3 L246.06,707.31 L246.01,707.31 L245.98,707.32 L245.94,707.33 L245.91,707.34 L245.87,707.35 L245.84,707.36 L245.82,707.37 L245.79,707.39 L245.77,707.4 L245.74,707.42 L245.72,707.44 L245.7,707.46 L245.68,707.48 L245.67,707.51 L245.65,707.53 L245.64,707.56 L245.62,707.59 L245.61,707.63 L245.59,707.67 L245.58,707.71 L245.57,707.75 L245.56,707.79 L245.55,707.84 L245.54,707.9 L245.53,707.92 L245.52,707.95 L245.52,707.98 L245.51,708.01 L245.51,708.04 L245.5,708.07 L245.5,708.1 L245.49,708.14 L244.55,713.76 H244.29 L241.41,708.79 C240.62,707.47,240.52,707.36,240.13,707.28 V707.12 H241.99 V707.28 C241.48,707.33,241.4,707.38,241.4,707.63 C241.4,707.82,241.43,707.91,241.6,708.25 L242.17,709.37 H244.35 L244.3,709.73 H242.38 L243.87,712.31 L244.3,709.73 L244.35,709.37 L244.55,708.07 C244.56,707.98,244.57,707.89,244.57,707.81 C244.57,707.43,244.43,707.34,243.8,707.28 V707.12 H246.24 Z " /></g>  </g>
</svg>
