<?xml version="1.0" encoding="UTF-8" standalone="no"?>
<!-- Created with Inkscape (http://www.inkscape.org/) -->

<svg
   xmlns:dc="http://purl.org/dc/elements/1.1/"
   xmlns:cc="http://creativecommons.org/ns#"
   xmlns:rdf="http://www.w3.org/1999/02/22-rdf-syntax-ns#"
   xmlns:svg="http://www.w3.org/2000/svg"
   xmlns="http://www.w3.org/2000/svg"
   xmlns:sodipodi="http://sodipodi.sourceforge.net/DTD/sodipodi-0.dtd"
   xmlns:inkscape="http://www.inkscape.org/namespaces/inkscape"
   id="svg2"
   version="1.1"
   inkscape:version="0.48.4 r9939"
   width="400.7125"
   height="263.8625"
   xml:space="preserve"
   sodipodi:docname="S3-EE-03-IN028.eps"><metadata
     id="metadata8"><rdf:RDF><cc:Work
         rdf:about=""><dc:format>image/svg+xml</dc:format><dc:type
           rdf:resource="http://purl.org/dc/dcmitype/StillImage" /><dc:title></dc:title></cc:Work></rdf:RDF></metadata><defs
     id="defs6" /><sodipodi:namedview
     pagecolor="#ffffff"
     bordercolor="#666666"
     borderopacity="1"
     objecttolerance="10"
     gridtolerance="10"
     guidetolerance="10"
     inkscape:pageopacity="0"
     inkscape:pageshadow="2"
     inkscape:window-width="1366"
     inkscape:window-height="744"
     id="namedview4"
     showgrid="false"
     inkscape:zoom="2.1346998"
     inkscape:cx="198.5445"
     inkscape:cy="130.37599"
     inkscape:window-x="0"
     inkscape:window-y="24"
     inkscape:window-maximized="1"
     inkscape:current-layer="g10" /><g
     id="g10"
     inkscape:groupmode="layer"
     inkscape:label="ink_ext_XXXXXX"
     transform="matrix(1.25,0,0,-1.25,0,263.8625)"><path
       inkscape:connector-curvature="0"
       id="path3854"
       style="font-size:8px;font-style:italic;font-variant:normal;writing-mode:lr-tb;fill:#231f20;fill-opacity:1;fill-rule:nonzero;stroke:none;font-family:Times;-inkscape-font-specification:Times-Italic"
       d="m 175.949,84.8591 c 0.616,0.04 0.92,0.12 1.368,0.368 1.184,0.663999 1.992,1.960001 1.992,3.224 0,1.079999 -0.768,1.864 -1.832,1.864 -0.64,0 -1.36,-0.328001 -2,-0.904 -0.808,-0.751999 -1.28,-1.720001 -1.28,-2.656 0,-0.655999 0.24,-1.2 0.672,-1.536 0.208,-0.168 0.384,-0.248 0.736,-0.328 -0.728,-0.639999 -0.8,-0.704 -1.416,-1.136 l 0.08,-0.12 c 0.304,0.168 0.608,0.248 0.92,0.248 0.16,0 0.392,-0.048 0.744,-0.144 0.488,-0.136 0.92,-0.216 1.216,-0.216 0.44,0 1,0.208 1.408,0.528 0.192,0.144 0.296,0.256 0.504,0.544 l -0.12,0.088 c -0.448,-0.464 -0.776,-0.616 -1.352,-0.616 -0.208,0 -0.376,0.032 -0.984,0.176 -0.416,0.104 -0.792,0.176 -0.84,0.168 -0.032,-0.008 -0.048,-0.008 -0.048,-0.008 l -0.2,0 0.432,0.456 m 1.488,5.192 c 0.64,0 1.032,-0.464001 1.032,-1.224 0,-0.847999 -0.376,-2.024001 -0.888,-2.76 -0.44,-0.631999 -0.936,-0.944 -1.52,-0.944 -0.648,0 -1.024,0.488001 -1.024,1.328 0,0.759999 0.392,1.952001 0.88,2.648 0.448,0.647999 0.936,0.952 1.52,0.952" /><path
       inkscape:connector-curvature="0"
       id="path3857"
       style="font-size:8px;font-variant:normal;font-weight:normal;writing-mode:lr-tb;fill:#231f20;fill-opacity:1;fill-rule:nonzero;stroke:none;font-family:Times;-inkscape-font-specification:Times-Roman"
       d="m 183.85278,90.3951 c -0.592,-0.384 -0.832,-0.592 -1.128,-0.96 -0.568,-0.695999 -0.848,-1.496001 -0.848,-2.432 0,-1.015999 0.296,-1.800001 1,-2.616 0.328,-0.384 0.536,-0.56 0.952,-0.816 l 0.096,0.128 c -0.64,0.503999 -0.864,0.784001 -1.08,1.384 -0.192,0.535999 -0.28,1.144001 -0.28,1.944 0,0.839999 0.104,1.496 0.32,1.992 0.224,0.495999 0.464,0.784 1.04,1.248 l -0.072,0.128" /><path
       inkscape:connector-curvature="0"
       id="path3859"
       style="font-size:8px;font-variant:normal;font-weight:normal;writing-mode:lr-tb;fill:#231f20;fill-opacity:1;fill-rule:nonzero;stroke:none;font-family:Times;-inkscape-font-specification:Times-Roman"
       d="m 187.74878,90.2831 -2.96,0 -0.472,-1.176 0.136,-0.064 c 0.344,0.543999 0.488,0.648 0.928,0.648 l 1.736,0 -1.584,-4.768 0.52,0 1.696,5.232 0,0.128" /><path
       inkscape:connector-curvature="0"
       id="path3861"
       style="font-size:8px;font-variant:normal;font-weight:normal;writing-mode:lr-tb;fill:#231f20;fill-opacity:1;fill-rule:nonzero;stroke:none;font-family:Times;-inkscape-font-specification:Times-Roman"
       d="m 189.15678,85.7871 c -0.24,0 -0.44,-0.208 -0.44,-0.456 0,-0.232 0.2,-0.432 0.432,-0.432 0.248,0 0.456,0.2 0.456,0.432 0,0.248 -0.208,0.456 -0.448,0.456" /><path
       inkscape:connector-curvature="0"
       id="path3863"
       style="font-size:8px;font-variant:normal;font-weight:normal;writing-mode:lr-tb;fill:#231f20;fill-opacity:1;fill-rule:nonzero;stroke:none;font-family:Times;-inkscape-font-specification:Times-Roman"
       d="m 192.18878,90.3951 c -0.44,0 -0.776,-0.136 -1.072,-0.416 -0.464,-0.448 -0.768,-1.368001 -0.768,-2.304 0,-0.871999 0.264,-1.808 0.64,-2.256 0.296,-0.352 0.704,-0.544 1.168,-0.544 0.408,0 0.752,0.136 1.04,0.416 0.464,0.44 0.768,1.368001 0.768,2.336 0,1.639998 -0.728,2.768 -1.776,2.768 m -0.024,-0.208 c 0.672,0 1.032,-0.904002 1.032,-2.576 0,-1.671998 -0.352,-2.528 -1.04,-2.528 -0.688,0 -1.04,0.856002 -1.04,2.52 0,1.695998 0.36,2.584 1.048,2.584" /><path
       inkscape:connector-curvature="0"
       id="path3865"
       style="font-size:8px;font-variant:normal;font-weight:normal;writing-mode:lr-tb;fill:#231f20;fill-opacity:1;fill-rule:nonzero;stroke:none;font-family:Times;-inkscape-font-specification:Times-Roman"
       d="m 197.74878,90.2831 -2.96,0 -0.472,-1.176 0.136,-0.064 c 0.344,0.543999 0.488,0.648 0.928,0.648 l 1.736,0 -1.584,-4.768 0.52,0 1.696,5.232 0,0.128" /><path
       inkscape:connector-curvature="0"
       id="path3867"
       style="font-size:8px;font-variant:normal;font-weight:normal;writing-mode:lr-tb;fill:#231f20;fill-opacity:1;fill-rule:nonzero;stroke:none;font-family:Times;-inkscape-font-specification:Times-Roman"
       d="m 203.73278,90.2831 -1.64,0 0,-0.152 c 0.44,-0.024 0.584,-0.112 0.584,-0.336 0,-0.128 -0.056,-0.344 -0.152,-0.584 l -1.176,-2.936 -1.208,2.704 c -0.264,0.583999 -0.328,0.768 -0.328,0.888 0,0.152 0.112,0.232 0.368,0.248 0.032,0 0.12,0.008 0.232,0.016 l 0,0.152 -2.128,0 0,-0.152 c 0.392,-0.016 0.504,-0.128001 0.848,-0.84 l 1.968,-4.392 0.12,0 1.776,4.488 c 0.264,0.631999 0.352,0.72 0.736,0.744 l 0,0.152" /><path
       inkscape:connector-curvature="0"
       id="path3869"
       style="font-size:8px;font-variant:normal;font-weight:normal;writing-mode:lr-tb;fill:#231f20;fill-opacity:1;fill-rule:nonzero;stroke:none;font-family:Times;-inkscape-font-specification:Times-Roman"
       d="m 203.56515,83.8591 c 0.536,0.264 0.896,0.752 0.896,1.232 0,0.4 -0.28,0.712 -0.64,0.712 -0.28,0 -0.472,-0.184 -0.472,-0.456 0,-0.256 0.184,-0.408 0.472,-0.408 0.048,0 0.104,0.008 0.152,0.016 0.056,0.016 0.056,0.016 0.064,0.016 0.064,0 0.112,-0.048 0.112,-0.112 0,-0.256 -0.224,-0.552 -0.656,-0.848 l 0.072,-0.152" /><path
       inkscape:connector-curvature="0"
       id="path3871"
       style="font-size:8px;font-variant:normal;font-weight:normal;writing-mode:lr-tb;fill:#231f20;fill-opacity:1;fill-rule:nonzero;stroke:none;font-family:Times;-inkscape-font-specification:Times-Roman"
       d="m 210.67715,86.8351 -0.816,0 0,3.56 -0.352,0 -2.512,-3.56 0,-0.512 2.248,0 0,-1.336 0.616,0 0,1.336 0.816,0 0,0.512 m -1.44,0 -1.92,0 1.92,2.744 0,-2.744" /><path
       inkscape:connector-curvature="0"
       id="path3873"
       style="font-size:8px;font-variant:normal;font-weight:normal;writing-mode:lr-tb;fill:#231f20;fill-opacity:1;fill-rule:nonzero;stroke:none;font-family:Times;-inkscape-font-specification:Times-Roman"
       d="m 211.90115,85.7871 c -0.24,0 -0.44,-0.208 -0.44,-0.456 0,-0.232 0.2,-0.432 0.432,-0.432 0.248,0 0.456,0.2 0.456,0.432 0,0.248 -0.208,0.456 -0.448,0.456" /><path
       inkscape:connector-curvature="0"
       id="path3875"
       style="font-size:8px;font-variant:normal;font-weight:normal;writing-mode:lr-tb;fill:#231f20;fill-opacity:1;fill-rule:nonzero;stroke:none;font-family:Times;-inkscape-font-specification:Times-Roman"
       d="m 214.12515,87.6271 c 0.472,0 0.656,-0.016 0.848,-0.088 0.496,-0.176 0.808,-0.632001 0.808,-1.184 0,-0.671999 -0.456,-1.192 -1.048,-1.192 -0.216,0 -0.376,0.056 -0.672,0.248 -0.24,0.144 -0.376,0.2 -0.512,0.2 -0.184,0 -0.304,-0.112 -0.304,-0.28 0,-0.28 0.344,-0.456 0.904,-0.456 0.616,0 1.248,0.208 1.624,0.536 0.376,0.328 0.584,0.792001 0.584,1.328 0,0.408 -0.128,0.784 -0.36,1.032 -0.16,0.176 -0.312,0.272 -0.664,0.424 0.552,0.376 0.752,0.672 0.752,1.104 0,0.647999 -0.512,1.096 -1.248,1.096 -0.4,0 -0.752,-0.136 -1.04,-0.392 -0.24,-0.216 -0.36,-0.424001 -0.536,-0.904 l 0.12,-0.032 c 0.328,0.583999 0.688,0.848 1.192,0.848 0.52,0 0.88,-0.352001 0.88,-0.856 0,-0.288 -0.12,-0.576 -0.32,-0.776 -0.24,-0.24 -0.464,-0.36 -1.008,-0.552 l 0,-0.104" /><path
       inkscape:connector-curvature="0"
       id="path3877"
       style="font-size:8px;font-variant:normal;font-weight:normal;writing-mode:lr-tb;fill:#231f20;fill-opacity:1;fill-rule:nonzero;stroke:none;font-family:Times;-inkscape-font-specification:Times-Roman"
       d="m 220.46915,90.4591 c -0.912,-0.08 -1.376,-0.232 -1.96,-0.64 -0.864,-0.615999 -1.336,-1.528001 -1.336,-2.6 0,-0.695999 0.216,-1.4 0.56,-1.8 0.304,-0.352 0.736,-0.544 1.232,-0.544 0.992,0 1.68,0.760001 1.68,1.864 0,1.023999 -0.584,1.672 -1.504,1.672 -0.352,0 -0.52,-0.056 -1.024,-0.36 0.216,1.207999 1.112,2.072 2.368,2.28 l -0.016,0.128 m -1.632,-2.416 c 0.688,0 1.088,-0.576001 1.088,-1.576 0,-0.879999 -0.312,-1.368 -0.872,-1.368 -0.704,0 -1.136,0.752001 -1.136,1.992 0,0.408 0.064,0.632 0.224,0.752 0.168,0.128 0.416,0.2 0.696,0.2" /><path
       inkscape:connector-curvature="0"
       id="path3879"
       style="font-size:8px;font-variant:normal;font-weight:normal;writing-mode:lr-tb;fill:#231f20;fill-opacity:1;fill-rule:nonzero;stroke:none;font-family:Times;-inkscape-font-specification:Times-Roman"
       d="m 222.34915,89.6511 1.568,0 c 0.128,0 0.16,0.016 0.184,0.072 l 0.304,0.712 -0.072,0.056 c -0.12,-0.168 -0.2,-0.208 -0.368,-0.208 l -1.672,0 -0.872,-1.896 c -0.008,-0.016 -0.008,-0.024 -0.008,-0.04 0,-0.04 0.032,-0.064 0.096,-0.064 0.256,0 0.576,-0.056 0.904,-0.16 0.92,-0.296 1.344,-0.792001 1.344,-1.584 0,-0.767999 -0.488,-1.368 -1.112,-1.368 -0.16,0 -0.296,0.056 -0.536,0.232 -0.256,0.184 -0.44,0.264 -0.608,0.264 -0.232,0 -0.344,-0.096 -0.344,-0.296 0,-0.304 0.376,-0.496 0.976,-0.496 0.672,0 1.248,0.216 1.648,0.624 0.368,0.36 0.536,0.816001 0.536,1.424 0,0.575999 -0.152,0.944 -0.552,1.344 -0.352,0.352 -0.808,0.536 -1.752,0.704 l 0.336,0.68" /><path
       inkscape:connector-curvature="0"
       id="path3881"
       style="font-size:8px;font-variant:normal;font-weight:normal;writing-mode:lr-tb;fill:#231f20;fill-opacity:1;fill-rule:nonzero;stroke:none;font-family:Times;-inkscape-font-specification:Times-Roman"
       d="m 226.65315,88.1711 c 0.104,0.024 0.168,0.032 0.256,0.032 0.208,0 0.28,-0.128 0.28,-0.512 l 0,-2.024 c 0,-0.432 -0.112,-0.552 -0.56,-0.56 l 0,-0.12 1.776,0 0,0.12 c -0.424,0.016 -0.544,0.104 -0.544,0.416 l 0,2.256 c 0,0.016 0.064,0.096 0.12,0.152 0.2,0.184 0.544,0.32 0.824,0.32 0.352,0 0.528,-0.280001 0.528,-0.84 l 0,-1.736 c 0,-0.448 -0.088,-0.536 -0.544,-0.568 l 0,-0.12 1.792,0 0,0.12 c -0.456,0.008 -0.576,0.144 -0.576,0.64 l 0,2.016 c 0.24,0.344 0.504,0.488 0.872,0.488 0.456,0 0.6,-0.216001 0.6,-0.88 l 0,-1.688 c 0,-0.456 -0.064,-0.52 -0.528,-0.576 l 0,-0.12 1.752,0 0,0.12 -0.208,0.016 c -0.24,0.016 -0.344,0.16 -0.344,0.472 l 0,1.648 c 0,0.943999 -0.312,1.424 -0.928,1.424 -0.464,0 -0.872,-0.208001 -1.304,-0.672 -0.144,0.455999 -0.416,0.672 -0.848,0.672 -0.352,0 -0.576,-0.112001 -1.24,-0.616 l 0,0.6 -0.056,0.016 c -0.408,-0.152 -0.68,-0.24 -1.12,-0.36 l 0,-0.136" /><path
       inkscape:connector-curvature="0"
       id="path3883"
       style="font-size:8px;font-variant:normal;font-weight:normal;writing-mode:lr-tb;fill:#231f20;fill-opacity:1;fill-rule:nonzero;stroke:none;font-family:Times;-inkscape-font-specification:Times-Roman"
       d="m 238.37278,85.1391 c -0.36,0.024 -0.44,0.104001 -0.72,0.696 l -1.992,4.544 -0.16,0 -1.664,-3.928 c -0.512,-1.167999 -0.608,-1.296 -0.992,-1.312 l 0,-0.152 1.584,0 0,0.152 c -0.384,0 -0.544,0.104 -0.544,0.328 0,0.096 0.024,0.208 0.064,0.312 l 0.368,0.936 2.096,0 0.328,-0.768 c 0.096,-0.216 0.152,-0.424 0.152,-0.536 0,-0.2 -0.136,-0.264 -0.56,-0.272 l 0,-0.152 2.04,0 0,0.152 m -3.92,1.904 0.92,2.2 0.928,-2.2 -1.848,0" /><path
       inkscape:connector-curvature="0"
       id="path3885"
       style="font-size:8px;font-variant:normal;font-weight:normal;writing-mode:lr-tb;fill:#231f20;fill-opacity:1;fill-rule:nonzero;stroke:none;font-family:Times;-inkscape-font-specification:Times-Roman"
       d="m 238.80429,83.5711 c 0.592,0.384 0.832,0.592 1.128,0.96 0.568,0.695999 0.848,1.496001 0.848,2.432 0,1.023999 -0.296,1.800001 -1,2.616 -0.328,0.384 -0.536,0.56 -0.952,0.816 l -0.096,-0.128 c 0.64,-0.504 0.856,-0.784001 1.08,-1.384 0.192,-0.536 0.28,-1.144001 0.28,-1.944 0,-0.831999 -0.104,-1.496 -0.32,-1.984 -0.224,-0.504 -0.464,-0.792 -1.04,-1.256 l 0.072,-0.128" /><path
       inkscape:connector-curvature="0"
       id="path3887"
       style="font-size:8px;font-variant:normal;font-weight:normal;writing-mode:lr-tb;fill:#231f20;fill-opacity:1;fill-rule:nonzero;stroke:none;font-family:Times;-inkscape-font-specification:Times-Roman"
       d="m 40.33177,85.6351 -0.816,0 0,3.56 -0.352,0 -2.512,-3.56 0,-0.512 2.248,0 0,-1.336 0.616,0 0,1.336 0.816,0 0,0.512 m -1.44,0 -1.92,0 1.92,2.744 0,-2.744" /><path
       inkscape:connector-curvature="0"
       id="path3889"
       style="font-size:8px;font-variant:normal;font-weight:normal;writing-mode:lr-tb;fill:#231f20;fill-opacity:1;fill-rule:nonzero;stroke:none;font-family:Times;-inkscape-font-specification:Times-Roman"
       d="m 41.55577,84.5871 c -0.24,0 -0.44,-0.208 -0.44,-0.456 0,-0.232 0.2,-0.432 0.432,-0.432 0.248,0 0.456,0.2 0.456,0.432 0,0.248 -0.208,0.456 -0.448,0.456" /><path
       inkscape:connector-curvature="0"
       id="path3891"
       style="font-size:8px;font-variant:normal;font-weight:normal;writing-mode:lr-tb;fill:#231f20;fill-opacity:1;fill-rule:nonzero;stroke:none;font-family:Times;-inkscape-font-specification:Times-Roman"
       d="m 43.77977,86.4271 c 0.472,0 0.656,-0.016 0.848,-0.088 0.496,-0.176 0.808,-0.632001 0.808,-1.184 0,-0.671999 -0.456,-1.192 -1.048,-1.192 -0.216,0 -0.376,0.056 -0.672,0.248 -0.24,0.144 -0.376,0.2 -0.512,0.2 -0.184,0 -0.304,-0.112 -0.304,-0.28 0,-0.28 0.344,-0.456 0.904,-0.456 0.616,0 1.248,0.208 1.624,0.536 0.376,0.328 0.584,0.792 0.584,1.328 0,0.408 -0.128,0.784 -0.36,1.032 -0.16,0.176 -0.312,0.272 -0.664,0.424 0.552,0.376 0.752,0.672 0.752,1.104 0,0.647999 -0.512,1.096 -1.248,1.096 -0.4,0 -0.752,-0.136 -1.04,-0.392 -0.24,-0.216 -0.36,-0.424001 -0.536,-0.904 l 0.12,-0.032 c 0.328,0.583999 0.688,0.848 1.192,0.848 0.52,0 0.88,-0.352001 0.88,-0.856 0,-0.288 -0.12,-0.576 -0.32,-0.776 -0.24,-0.24 -0.464,-0.36 -1.008,-0.552 l 0,-0.104" /><path
       inkscape:connector-curvature="0"
       id="path3893"
       style="font-size:8px;font-variant:normal;font-weight:normal;writing-mode:lr-tb;fill:#231f20;fill-opacity:1;fill-rule:nonzero;stroke:none;font-family:Times;-inkscape-font-specification:Times-Roman"
       d="m 50.12377,89.2591 c -0.91199,-0.08 -1.376,-0.232001 -1.96,-0.64 -0.86399,-0.615999 -1.336,-1.528001 -1.336,-2.6 0,-0.695999 0.216,-1.4 0.56,-1.8 0.304,-0.352 0.736,-0.544 1.232,-0.544 0.992,0 1.68,0.760001 1.68,1.864 0,1.023999 -0.584,1.672 -1.504,1.672 -0.352,0 -0.52,-0.056 -1.024,-0.36 0.216,1.207999 1.11201,2.072 2.368,2.28 l -0.016,0.128 m -1.632,-2.416 c 0.688,0 1.088,-0.576001 1.088,-1.576 0,-0.879999 -0.312,-1.368 -0.872,-1.368 -0.70399,0 -1.136,0.752001 -1.136,1.992 0,0.407999 0.064,0.632 0.224,0.752 0.168,0.128 0.416,0.2 0.696,0.2" /><path
       inkscape:connector-curvature="0"
       id="path3895"
       style="font-size:8px;font-variant:normal;font-weight:normal;writing-mode:lr-tb;fill:#231f20;fill-opacity:1;fill-rule:nonzero;stroke:none;font-family:Times;-inkscape-font-specification:Times-Roman"
       d="m 52.00377,88.4511 1.568,0 c 0.128,0 0.16,0.016 0.184,0.072 l 0.304,0.712 -0.072,0.056 c -0.12,-0.168 -0.2,-0.208 -0.368,-0.208 l -1.672,0 -0.872,-1.896 c -0.008,-0.016 -0.008,-0.024 -0.008,-0.04 0,-0.04 0.032,-0.064 0.096,-0.064 0.256,0 0.576,-0.056 0.904,-0.16 0.92,-0.296 1.344,-0.792001 1.344,-1.584 0,-0.767999 -0.488,-1.368 -1.112,-1.368 -0.16,0 -0.296,0.056 -0.536,0.232 -0.256,0.184 -0.44,0.264 -0.608,0.264 -0.232,0 -0.344,-0.096 -0.344,-0.296 0,-0.304 0.376,-0.496 0.976,-0.496 0.672,0 1.248,0.216 1.648,0.624 0.368,0.36 0.536,0.816001 0.536,1.424 0,0.575999 -0.152,0.944 -0.552,1.344 -0.352,0.352 -0.808,0.536 -1.752,0.704 l 0.336,0.68" /><path
       inkscape:connector-curvature="0"
       id="path3897"
       style="font-size:8px;font-variant:normal;font-weight:normal;writing-mode:lr-tb;fill:#231f20;fill-opacity:1;fill-rule:nonzero;stroke:none;font-family:Times;-inkscape-font-specification:Times-Roman"
       d="m 56.30778,86.9711 c 0.104,0.024 0.168,0.032 0.256,0.032 0.208,0 0.28,-0.128 0.28,-0.512 l 0,-2.024 c 0,-0.432 -0.112,-0.552 -0.56,-0.56 l 0,-0.12 1.776,0 0,0.12 c -0.424,0.016 -0.544,0.104 -0.544,0.416 l 0,2.256 c 0,0.016 0.064,0.096 0.12,0.152 0.2,0.184 0.544,0.32 0.824,0.32 0.352,0 0.528,-0.280001 0.528,-0.84 l 0,-1.736 c 0,-0.448 -0.088,-0.536 -0.544,-0.568 l 0,-0.12 1.792,0 0,0.12 c -0.456,0.008 -0.576,0.144 -0.576,0.64 l 0,2.016 c 0.24,0.344 0.504,0.488 0.872,0.488 0.456,0 0.6,-0.216001 0.6,-0.88 l 0,-1.688 c 0,-0.456 -0.064,-0.52 -0.528,-0.576 l 0,-0.12 1.752,0 0,0.12 -0.208,0.016 c -0.24,0.016 -0.344,0.16 -0.344,0.472 l 0,1.648 c 0,0.943999 -0.312,1.424 -0.928,1.424 -0.464,0 -0.872,-0.208 -1.304,-0.672 -0.144,0.455999 -0.416,0.672 -0.848,0.672 -0.352,0 -0.576,-0.112001 -1.24,-0.616 l 0,0.6 -0.056,0.016 c -0.408,-0.152 -0.68,-0.24 -1.12,-0.36 l 0,-0.136" /><path
       inkscape:connector-curvature="0"
       id="path3899"
       style="font-size:8px;font-variant:normal;font-weight:normal;writing-mode:lr-tb;fill:#231f20;fill-opacity:1;fill-rule:nonzero;stroke:none;font-family:Times;-inkscape-font-specification:Times-Roman"
       d="m 68.02778,83.9391 c -0.36,0.024 -0.44,0.104001 -0.72,0.696 l -1.992,4.544 -0.16,0 -1.664,-3.928 c -0.512,-1.167999 -0.608,-1.296 -0.992,-1.312 l 0,-0.152 1.584,0 0,0.152 c -0.384,0 -0.544,0.104 -0.544,0.328 0,0.096 0.024,0.208 0.064,0.312 l 0.368,0.936 2.096,0 0.328,-0.768 c 0.096,-0.216 0.152,-0.424 0.152,-0.536 0,-0.2 -0.136,-0.264 -0.56,-0.272 l 0,-0.152 2.04,0 0,0.152 m -3.92,1.904 0.92,2.2 0.928,-2.2 -1.848,0" /><path
       inkscape:connector-curvature="0"
       id="path3902"
       style="font-size:8px;font-style:italic;font-variant:normal;writing-mode:lr-tb;fill:#231f20;fill-opacity:1;fill-rule:nonzero;stroke:none;font-family:Times;-inkscape-font-specification:Times-Italic"
       d="m 63.822807,201.7415 1.952,0 0,0.128 c -0.455999,0.056 -0.544,0.104 -0.544,0.328 0,0.152 0.016,0.248 0.088,0.504 l 0.984,3.544 c 0.144,0.464 0.2,0.512 0.656,0.592 l 0,0.128 -1.976,0 0,-0.128 c 0.464,-0.056 0.56,-0.12 0.56,-0.344 0,-0.112 -0.032,-0.296 -0.088,-0.496 l -0.984,-3.536 c -0.144,-0.464 -0.2,-0.512 -0.648,-0.592 l 0,-0.128" /><path
       inkscape:connector-curvature="0"
       id="path3905"
       style="font-size:6px;font-style:italic;font-variant:normal;writing-mode:lr-tb;fill:#231f20;fill-opacity:1;fill-rule:nonzero;stroke:none;font-family:Times;-inkscape-font-specification:Times-Italic"
       d="m 70.462867,202.5315 0.222,1.194 -0.126,0 c -0.048,-0.096 -0.108,-0.132 -0.228,-0.132 -0.048,0 -0.12,0.012 -0.246,0.042 -0.27,0.066 -0.51,0.102 -0.702,0.102 -1.277999,0 -2.436,-1.206 -2.436,-2.538 0,-0.918 0.648001,-1.566 1.566,-1.566 0.617999,0 1.098,0.264 1.638,0.894 l -0.102,0.084 c -0.54,-0.528 -0.888001,-0.708 -1.38,-0.708 -0.665999,0 -1.05,0.456 -1.05,1.23 0,0.714 0.288001,1.44 0.756,1.926 0.288,0.294 0.666,0.462 1.062,0.462 0.551999,0 0.858,-0.324 0.918,-0.972 l 0.108,-0.018" /><path
       inkscape:connector-curvature="0"
       id="path3908"
       style="font-size:8px;font-style:italic;font-variant:normal;writing-mode:lr-tb;fill:#231f20;fill-opacity:1;fill-rule:nonzero;stroke:none;font-family:Times;-inkscape-font-specification:Times-Italic"
       d="m 310.73131,15.194349 -1.488,0 0,-0.128 c 0.36,-0.04 0.504,-0.12 0.504,-0.272 0,-0.152 -0.152,-0.496 -0.416,-0.952 l -1.648,-2.848 -0.528,3.544 c -0.008,0.04 -0.008,0.072 -0.008,0.12 0,0.272 0.112,0.352 0.616,0.408 l 0,0.128 -1.928,0 0,-0.128 c 0.448,-0.056 0.464,-0.08 0.632,-1.08 l 0.68,-4.1600001 0.152,0 2.984,4.9200001 c 0.136,0.216 0.264,0.312 0.448,0.32 l 0,0.128" /><path
       inkscape:connector-curvature="0"
       id="path3911"
       style="font-size:6px;font-style:italic;font-variant:normal;writing-mode:lr-tb;fill:#231f20;fill-opacity:1;fill-rule:nonzero;stroke:none;font-family:Times;-inkscape-font-specification:Times-Italic"
       d="m 314.0272,10.760349 0.222,1.194 -0.126,0 c -0.048,-0.096 -0.108,-0.132 -0.228,-0.132 -0.048,0 -0.12,0.012 -0.246,0.042 -0.27,0.066 -0.51,0.102 -0.702,0.102 -1.278,0 -2.436,-1.206001 -2.436,-2.5380001 0,-0.9179991 0.648,-1.566 1.566,-1.566 0.618,0 1.098,0.2640006 1.638,0.894 l -0.102,0.084 c -0.54,-0.5279995 -0.888,-0.708 -1.38,-0.708 -0.666,0 -1.05,0.4560008 -1.05,1.23 0,0.7139991 0.288,1.4400011 0.756,1.9260001 0.288,0.294 0.666,0.462 1.062,0.462 0.552,0 0.858,-0.324001 0.918,-0.972 l 0.108,-0.018" /><path
       inkscape:connector-curvature="0"
       id="path3913"
       style="font-size:6px;font-style:italic;font-variant:normal;writing-mode:lr-tb;fill:#231f20;fill-opacity:1;fill-rule:nonzero;stroke:none;font-family:Times;-inkscape-font-specification:Times-Italic"
       d="m 317.9212,11.888349 -2.982,0 0,-0.096 c 0.372,-0.036 0.462,-0.084 0.462,-0.246 0,-0.066 -0.036,-0.276 -0.066,-0.384 l -0.738,-2.6520001 c -0.102,-0.3419997 -0.15,-0.3840001 -0.486,-0.444 l 0,-0.096 3.042,0 0.372,0.972 -0.096,0.048 c -0.282,-0.3839996 -0.438,-0.5400001 -0.696,-0.66 -0.222,-0.1019999 -0.63,-0.162 -1.08,-0.162 -0.336,0 -0.48,0.06 -0.48,0.204 0,0.066 0.066,0.3480005 0.216,0.876 0.078,0.264 0.132,0.462 0.192,0.69 0.21,-0.012 0.396,-0.018 0.468,-0.018 0.234,0.006 0.402,-0.03 0.468,-0.09 0.03,-0.03 0.042,-0.084 0.042,-0.186 0,-0.102 -0.012,-0.18 -0.042,-0.312 l 0.12,-0.03 0.408,1.3920001 -0.108,0.024 c -0.228,-0.509999 -0.282,-0.546 -0.828,-0.57 -0.072,0 -0.264,-0.006 -0.474,-0.012 l 0.396,1.398 c 0.036,0.132 0.102,0.156 0.438,0.156 0.942,0 1.152,-0.078 1.152,-0.438 0,-0.078 -0.006,-0.168 -0.012,-0.27 l 0.126,-0.012 0.186,0.918" /><path
       inkscape:connector-curvature="0"
       id="path3916"
       style="font-size:8px;font-variant:normal;font-weight:normal;writing-mode:lr-tb;fill:#231f20;fill-opacity:1;fill-rule:nonzero;stroke:none;font-family:Times;-inkscape-font-specification:Times-Roman"
       d="m 33.91633,182.3031 -4.032,0 0,-0.528 4.032,0 0,0.528 m 0,-1.6 -4.032,0 0,-0.528 4.032,0 0,0.528" /><path
       inkscape:connector-curvature="0"
       id="path3918"
       style="font-size:8px;font-variant:normal;font-weight:normal;writing-mode:lr-tb;fill:#231f20;fill-opacity:1;fill-rule:nonzero;stroke:none;font-family:Times;-inkscape-font-specification:Times-Roman"
       d="m 38.47633,182.1831 c 0.791999,0.424 1.072,0.76 1.072,1.304 0,0.656 -0.576001,1.136 -1.376,1.136 -0.871999,0 -1.52,-0.536 -1.52,-1.264 0,-0.52 0.152001,-0.752 0.992,-1.488 -0.863999,-0.656 -1.04,-0.904 -1.04,-1.448 0,-0.776 0.632001,-1.32 1.536,-1.32 0.959999,0 1.576,0.528 1.576,1.352 0,0.616 -0.272001,1.008 -1.24,1.728 m -0.144,-0.824 c 0.584,-0.416 0.776,-0.704 0.776,-1.152 0,-0.52 -0.36,-0.88 -0.88,-0.88 -0.607999,0 -1.016,0.464 -1.016,1.16 0,0.512 0.176001,0.848 0.64,1.224 l 0.48,-0.352 m -0.088,0.968 c -0.711999,0.464 -1,0.832 -1,1.28 0,0.464 0.360001,0.792 0.864,0.792 0.544,0 0.888,-0.352 0.888,-0.904 0,-0.456 -0.224,-0.816 -0.68,-1.12 -0.04,-0.024 -0.04,-0.024 -0.072,-0.048" /><path
       inkscape:connector-curvature="0"
       id="path3920"
       style="font-size:8px;font-variant:normal;font-weight:normal;writing-mode:lr-tb;fill:#231f20;fill-opacity:1;fill-rule:nonzero;stroke:none;font-family:Times;-inkscape-font-specification:Times-Roman"
       d="m 41.15633,180.0151 c -0.24,0 -0.44,-0.208 -0.44,-0.456 0,-0.232 0.2,-0.432 0.432,-0.432 0.248,0 0.456,0.2 0.456,0.432 0,0.248 -0.208,0.456 -0.448,0.456" /><path
       inkscape:connector-curvature="0"
       id="path3922"
       style="font-size:8px;font-variant:normal;font-weight:normal;writing-mode:lr-tb;fill:#231f20;fill-opacity:1;fill-rule:nonzero;stroke:none;font-family:Times;-inkscape-font-specification:Times-Roman"
       d="m 43.38033,181.8551 c 0.472,0 0.656,-0.016 0.848,-0.088 0.496,-0.176 0.808,-0.632 0.808,-1.184 0,-0.672 -0.456001,-1.192 -1.048,-1.192 -0.216,0 -0.376,0.056 -0.672,0.248 -0.24,0.144 -0.376,0.2 -0.512,0.2 -0.184,0 -0.304,-0.112 -0.304,-0.28 0,-0.28 0.344001,-0.456 0.904,-0.456 0.615999,0 1.248,0.208 1.624,0.536 0.376,0.328 0.584,0.792 0.584,1.328 0,0.408 -0.128,0.784 -0.36,1.032 -0.16,0.176 -0.312,0.272 -0.664,0.424 0.552,0.376 0.752,0.672 0.752,1.104 0,0.648 -0.512001,1.096 -1.248,1.096 -0.4,0 -0.752,-0.136 -1.04,-0.392 -0.24,-0.216 -0.36,-0.424 -0.536,-0.904 l 0.12,-0.032 c 0.328,0.584 0.688001,0.848 1.192,0.848 0.52,0 0.88,-0.352 0.88,-0.856 0,-0.288 -0.12,-0.576 -0.32,-0.776 -0.24,-0.24 -0.464,-0.36 -1.008,-0.552 l 0,-0.104" /><path
       inkscape:connector-curvature="0"
       id="path3924"
       style="font-size:8px;font-variant:normal;font-weight:normal;writing-mode:lr-tb;fill:#231f20;fill-opacity:1;fill-rule:nonzero;stroke:none;font-family:Times;-inkscape-font-specification:Times-Roman"
       d="m 47.380329,181.8551 c 0.472,0 0.656,-0.016 0.848,-0.088 0.496,-0.176 0.808,-0.632 0.808,-1.184 0,-0.672 -0.456,-1.192 -1.048,-1.192 -0.216,0 -0.376,0.056 -0.672,0.248 -0.24,0.144 -0.376,0.2 -0.512,0.2 -0.184,0 -0.304,-0.112 -0.304,-0.28 0,-0.28 0.344001,-0.456 0.904,-0.456 0.616,0 1.248001,0.208 1.624,0.536 0.376,0.328 0.584,0.792 0.584,1.328 0,0.408 -0.128,0.784 -0.36,1.032 -0.16,0.176 -0.312,0.272 -0.664,0.424 0.552,0.376 0.752,0.672 0.752,1.104 0,0.648 -0.512001,1.096 -1.248,1.096 -0.399999,0 -0.752,-0.136 -1.04,-0.392 -0.24,-0.216 -0.36,-0.424 -0.536,-0.904 l 0.12,-0.032 c 0.328,0.584 0.688001,0.848 1.192,0.848 0.52,0 0.88,-0.352 0.88,-0.856 0,-0.288 -0.12,-0.576 -0.32,-0.776 -0.24,-0.24 -0.464,-0.36 -1.008,-0.552 l 0,-0.104" /><path
       inkscape:connector-curvature="0"
       id="path3926"
       style="font-size:8px;font-variant:normal;font-weight:normal;writing-mode:lr-tb;fill:#231f20;fill-opacity:1;fill-rule:nonzero;stroke:none;font-family:Times;-inkscape-font-specification:Times-Roman"
       d="m 51.908329,182.3991 c 0.104,0.024 0.168,0.032 0.256,0.032 0.208,0 0.28,-0.128 0.28,-0.512 l 0,-2.024 c 0,-0.432 -0.112,-0.552 -0.56,-0.56 l 0,-0.12 1.776,0 0,0.12 c -0.423999,0.016 -0.544,0.104 -0.544,0.416 l 0,2.256 c 0,0.016 0.064,0.096 0.12,0.152 0.2,0.184 0.544,0.32 0.824,0.32 0.352,0 0.528,-0.28 0.528,-0.84 l 0,-1.736 c 0,-0.448 -0.088,-0.536 -0.544,-0.568 l 0,-0.12 1.792,0 0,0.12 c -0.455999,0.008 -0.576,0.144 -0.576,0.64 l 0,2.016 c 0.24,0.344 0.504,0.488 0.872,0.488 0.456,0 0.6,-0.216 0.6,-0.88 l 0,-1.688 c 0,-0.456 -0.064,-0.52 -0.528,-0.576 l 0,-0.12 1.752,0 0,0.12 -0.208,0.016 c -0.24,0.016 -0.344,0.16 -0.344,0.472 l 0,1.648 c 0,0.944 -0.312,1.424 -0.928,1.424 -0.463999,0 -0.872,-0.208 -1.304,-0.672 -0.144,0.456 -0.416,0.672 -0.848,0.672 -0.352,0 -0.576001,-0.112 -1.24,-0.616 l 0,0.6 -0.056,0.016 c -0.407999,-0.152 -0.68,-0.24 -1.12,-0.36 l 0,-0.136" /><path
       inkscape:connector-curvature="0"
       id="path3928"
       style="font-size:8px;font-variant:normal;font-weight:normal;writing-mode:lr-tb;fill:#231f20;fill-opacity:1;fill-rule:nonzero;stroke:none;font-family:Times;-inkscape-font-specification:Times-Roman"
       d="m 63.62894,179.3671 c -0.359999,0.024 -0.44,0.104 -0.72,0.696 l -1.992,4.544 -0.16,0 -1.664,-3.928 c -0.511999,-1.168 -0.608,-1.296 -0.992,-1.312 l 0,-0.152 1.584,0 0,0.152 c -0.383999,0 -0.544,0.104 -0.544,0.328 0,0.096 0.024,0.208 0.064,0.312 l 0.368,0.936 2.096,0 0.328,-0.768 c 0.096,-0.216 0.152,-0.424 0.152,-0.536 0,-0.2 -0.136,-0.264 -0.56,-0.272 l 0,-0.152 2.04,0 0,0.152 m -3.92,1.904 0.92,2.2 0.928,-2.2 -1.848,0" /><path
       inkscape:connector-curvature="0"
       id="path3931"
       style="font-size:8px;font-style:italic;font-variant:normal;writing-mode:lr-tb;fill:#231f20;fill-opacity:1;fill-rule:nonzero;stroke:none;font-family:Times;-inkscape-font-specification:Times-Italic"
       d="m 233.25533,8.9681 -1.488,0 0,-0.128 c 0.36,-0.04 0.504,-0.1200002 0.504,-0.272 0,-0.1519998 -0.152,-0.4960005 -0.416,-0.952 l -1.648,-2.848 -0.528,3.544 c -0.008,0.04 -0.008,0.072 -0.008,0.12 0,0.2719997 0.112,0.3520001 0.616,0.408 l 0,0.128 -1.928,0 0,-0.128 c 0.448,-0.056 0.464,-0.080001 0.632,-1.08 l 0.68,-4.16 0.152,0 2.984,4.92 c 0.136,0.2159998 0.264,0.312 0.448,0.32 l 0,0.128" /><path
       inkscape:connector-curvature="0"
       id="path3934"
       style="font-size:6px;font-style:italic;font-variant:normal;writing-mode:lr-tb;fill:#231f20;fill-opacity:1;fill-rule:nonzero;stroke:none;font-family:Times;-inkscape-font-specification:Times-Italic"
       d="m 236.55122,4.5341 0.222,1.194 -0.126,0 c -0.048,-0.096 -0.108,-0.132 -0.228,-0.132 -0.048,0 -0.12,0.012 -0.246,0.042 -0.27,0.066 -0.51,0.102 -0.702,0.102 -1.278,0 -2.436,-1.2060013 -2.436,-2.538 0,-0.9179991 0.648,-1.566 1.566,-1.566 0.618,0 1.098,0.2640006 1.638,0.894 l -0.102,0.084 c -0.54,-0.5279995 -0.888,-0.708 -1.38,-0.708 -0.666,0 -1.05,0.4560008 -1.05,1.23 0,0.7139993 0.288,1.4400005 0.756,1.926 0.288,0.2939997 0.666,0.462 1.062,0.462 0.552,0 0.858,-0.3240006 0.918,-0.972 l 0.108,-0.018" /><path
       inkscape:connector-curvature="0"
       id="path3936"
       style="font-size:6px;font-style:italic;font-variant:normal;writing-mode:lr-tb;fill:#231f20;fill-opacity:1;fill-rule:nonzero;stroke:none;font-family:Times;-inkscape-font-specification:Times-Italic"
       d="m 240.55322,4.5341 0.222,1.194 -0.126,0 c -0.048,-0.096 -0.108,-0.132 -0.228,-0.132 -0.048,0 -0.12,0.012 -0.246,0.042 -0.27,0.066 -0.51,0.102 -0.702,0.102 -1.278,0 -2.436,-1.2060013 -2.436,-2.538 0,-0.9179991 0.648,-1.566 1.566,-1.566 0.618,0 1.098,0.2640006 1.638,0.894 l -0.102,0.084 c -0.54,-0.5279995 -0.888,-0.708 -1.38,-0.708 -0.666,0 -1.05,0.4560008 -1.05,1.23 0,0.7139993 0.288,1.4400005 0.756,1.926 0.288,0.2939997 0.666,0.462 1.062,0.462 0.552,0 0.858,-0.3240006 0.918,-0.972 l 0.108,-0.018" /><path
       inkscape:connector-curvature="0"
       id="path3939"
       style="font-size:8px;font-variant:normal;font-weight:normal;writing-mode:lr-tb;fill:#231f20;fill-opacity:1;fill-rule:nonzero;stroke:none;font-family:Times;-inkscape-font-specification:Times-Roman"
       d="m 246.91513,6.8321 -4.032,0 0,-0.528 4.032,0 0,0.528 m 0,-1.6 -4.032,0 0,-0.528 4.032,0 0,0.528" /><path
       inkscape:connector-curvature="0"
       id="path3941"
       style="font-size:8px;font-variant:normal;font-weight:normal;writing-mode:lr-tb;fill:#231f20;fill-opacity:1;fill-rule:nonzero;stroke:none;font-family:Times;-inkscape-font-specification:Times-Roman"
       d="m 251.48401,9.1521 -1.44,-0.728 0,-0.112 c 0.096,0.04 0.184,0.072 0.216,0.088 0.144,0.056 0.28,0.088 0.36,0.088 0.168,0 0.24,-0.1200003 0.24,-0.376 l 0,-3.624 c 0,-0.2639997 -0.064,-0.4480001 -0.192,-0.52 -0.12,-0.072 -0.232,-0.096 -0.568,-0.104 l 0,-0.12 2.208,0 0,0.12 c -0.632,0.008 -0.76,0.088 -0.76,0.472 l 0,4.8 -0.064,0.016" /><path
       inkscape:connector-curvature="0"
       id="path3943"
       style="font-size:8px;font-variant:normal;font-weight:normal;writing-mode:lr-tb;fill:#231f20;fill-opacity:1;fill-rule:nonzero;stroke:none;font-family:Times;-inkscape-font-specification:Times-Roman"
       d="m 254.60401,8.4081 1.568,0 c 0.128,0 0.16,0.016 0.184,0.072 l 0.304,0.712 -0.072,0.056 c -0.12,-0.1679998 -0.2,-0.208 -0.368,-0.208 l -1.672,0 -0.872,-1.896 c -0.008,-0.016 -0.008,-0.024 -0.008,-0.04 0,-0.04 0.032,-0.064 0.096,-0.064 0.256,0 0.576,-0.056 0.904,-0.16 0.92,-0.2959997 1.344,-0.7920008 1.344,-1.584 0,-0.7679992 -0.488,-1.368 -1.112,-1.368 -0.16,0 -0.296,0.056 -0.536,0.232 -0.256,0.1839998 -0.44,0.264 -0.608,0.264 -0.232,0 -0.344,-0.096 -0.344,-0.296 0,-0.3039997 0.376,-0.496 0.976,-0.496 0.672,0 1.248,0.2160004 1.648,0.624 0.368,0.3599996 0.536,0.8160006 0.536,1.424 0,0.5759994 -0.152,0.9440004 -0.552,1.344 -0.352,0.3519996 -0.808,0.5360002 -1.752,0.704 l 0.336,0.68" /><path
       inkscape:connector-curvature="0"
       id="path3945"
       style="font-size:8px;font-variant:normal;font-weight:normal;writing-mode:lr-tb;fill:#231f20;fill-opacity:1;fill-rule:nonzero;stroke:none;font-family:Times;-inkscape-font-specification:Times-Roman"
       d="m 262.73201,9.0401 -1.64,0 0,-0.152 c 0.44,-0.024 0.584,-0.1120002 0.584,-0.336 0,-0.1279999 -0.056,-0.3440002 -0.152,-0.584 l -1.176,-2.936 -1.208,2.704 c -0.264,0.5839994 -0.328,0.7680001 -0.328,0.888 0,0.1519998 0.112,0.232 0.368,0.248 0.032,0 0.12,0.008 0.232,0.016 l 0,0.152 -2.128,0 0,-0.152 c 0.392,-0.016 0.504,-0.1280007 0.848,-0.84 l 1.968,-4.392 0.12,0 1.776,4.488 c 0.264,0.6319994 0.352,0.72 0.736,0.744 l 0,0.152" /><path
       inkscape:connector-curvature="0"
       id="path3947"
       style="font-size:8px;font-variant:normal;font-weight:normal;writing-mode:lr-tb;fill:#231f20;fill-opacity:1;fill-rule:nonzero;stroke:none;font-family:Times;-inkscape-font-specification:Times-Roman"
       d="m 162.11833,9.7151 -2.96,0 -0.472,-1.176 0.136,-0.064 c 0.344,0.5439995 0.488,0.648 0.928,0.648 l 1.736,0 -1.584,-4.768 0.52,0 1.696,5.232 0,0.128" /><path
       inkscape:connector-curvature="0"
       id="path3949"
       style="font-size:8px;font-variant:normal;font-weight:normal;writing-mode:lr-tb;fill:#231f20;fill-opacity:1;fill-rule:nonzero;stroke:none;font-family:Times;-inkscape-font-specification:Times-Roman"
       d="m 163.52633,5.2191 c -0.24,0 -0.44,-0.2080002 -0.44,-0.456 0,-0.2319998 0.2,-0.432 0.432,-0.432 0.248,0 0.456,0.2000002 0.456,0.432 0,0.2479998 -0.208,0.456 -0.448,0.456" /><path
       inkscape:connector-curvature="0"
       id="path3951"
       style="font-size:8px;font-variant:normal;font-weight:normal;writing-mode:lr-tb;fill:#231f20;fill-opacity:1;fill-rule:nonzero;stroke:none;font-family:Times;-inkscape-font-specification:Times-Roman"
       d="m 166.55833,9.8271 c -0.44,0 -0.776,-0.1360003 -1.072,-0.416 -0.464,-0.4479995 -0.768,-1.3680009 -0.768,-2.304 0,-0.8719991 0.264,-1.8080004 0.64,-2.256 0.296,-0.3519996 0.704,-0.544 1.168,-0.544 0.408,0 0.752,0.1360003 1.04,0.416 0.464,0.4399996 0.768,1.368001 0.768,2.336 0,1.6399984 -0.728,2.768 -1.776,2.768 m -0.024,-0.208 c 0.672,0 1.032,-0.9040017 1.032,-2.576 0,-1.6719983 -0.352,-2.528 -1.04,-2.528 -0.688,0 -1.04,0.8560017 -1.04,2.52 0,1.6959983 0.36,2.584 1.048,2.584" /><path
       inkscape:connector-curvature="0"
       id="path3953"
       style="font-size:8px;font-variant:normal;font-weight:normal;writing-mode:lr-tb;fill:#231f20;fill-opacity:1;fill-rule:nonzero;stroke:none;font-family:Times;-inkscape-font-specification:Times-Roman"
       d="m 172.11833,9.7151 -2.96,0 -0.472,-1.176 0.136,-0.064 c 0.344,0.5439995 0.488,0.648 0.928,0.648 l 1.736,0 -1.584,-4.768 0.52,0 1.696,5.232 0,0.128" /><path
       inkscape:connector-curvature="0"
       id="path3955"
       style="font-size:8px;font-variant:normal;font-weight:normal;writing-mode:lr-tb;fill:#231f20;fill-opacity:1;fill-rule:nonzero;stroke:none;font-family:Times;-inkscape-font-specification:Times-Roman"
       d="m 178.10233,9.7151 -1.64,0 0,-0.152 c 0.44,-0.024 0.584,-0.1120002 0.584,-0.336 0,-0.1279999 -0.056,-0.3440002 -0.152,-0.584 l -1.176,-2.936 -1.208,2.704 c -0.264,0.5839994 -0.328,0.7680001 -0.328,0.888 0,0.1519999 0.112,0.232 0.368,0.248 0.032,0 0.12,0.008 0.232,0.016 l 0,0.152 -2.128,0 0,-0.152 c 0.392,-0.016 0.504,-0.1280007 0.848,-0.84 l 1.968,-4.392 0.12,0 1.776,4.488 c 0.264,0.6319994 0.352,0.72 0.736,0.744 l 0,0.152" /><path
       inkscape:connector-curvature="0"
       id="path3957"
       style="font-size:8px;font-variant:normal;font-weight:normal;writing-mode:lr-tb;fill:#231f20;fill-opacity:1;fill-rule:nonzero;stroke:none;font-family:Times;-inkscape-font-specification:Times-Roman"
       d="m 71.43844,9.8271 c -0.44,0 -0.776,-0.1360003 -1.072,-0.416 -0.464,-0.4479995 -0.768,-1.3680009 -0.768,-2.304 0,-0.8719991 0.264,-1.8080004 0.64,-2.256 0.296,-0.3519996 0.704,-0.544 1.168,-0.544 0.408,0 0.752,0.1360003 1.04,0.416 0.464,0.4399996 0.768,1.368001 0.768,2.336 0,1.6399984 -0.72801,2.768 -1.776,2.768 m -0.024,-0.208 c 0.67199,0 1.032,-0.9040017 1.032,-2.576 0,-1.6719983 -0.35201,-2.528 -1.04,-2.528 -0.688,0 -1.04,0.8560017 -1.04,2.52 0,1.6959983 0.36,2.584 1.048,2.584" /><path
       inkscape:connector-curvature="0"
       id="path60"
       style="fill:none;stroke:#231f20;stroke-width:0.5;stroke-linecap:butt;stroke-linejoin:miter;stroke-miterlimit:4;stroke-opacity:1;stroke-dasharray:none"
       d="m 299.079,12.9922 -227.2739,0 0,182.6218" /><path
       inkscape:connector-curvature="0"
       id="path62"
       style="fill:#231f20;fill-opacity:1;fill-rule:nonzero;stroke:none"
       d="m 71.0367,197.384 c -0.375,-1.239 -0.7199,-2.045 -1.1191,-3.04 l 3.7836,0 c -0.1696,0.356 -0.7446,1.801 -1.1192,3.04 -0.4007,1.328 -0.6754,2.531 -0.773,3.311 -0.0977,-0.78 -0.3719,-1.983 -0.7723,-3.311" /><path
       inkscape:connector-curvature="0"
       id="path64"
       style="fill:#231f20;fill-opacity:1;fill-rule:nonzero;stroke:none"
       d="m 301.572,13.7609 c -1.24,0.375 -2.046,0.72 -3.041,1.1192 l 0,-3.7832 c 0.356,0.1691 1.801,0.7441 3.041,1.1179 1.326,0.4012 2.53,0.6762 3.31,0.7743 -0.78,0.0968 -1.984,0.3718 -3.31,0.7718" /><path
       inkscape:connector-curvature="0"
       id="path66"
       style="fill:none;stroke:#231f20;stroke-width:0.5;stroke-linecap:butt;stroke-linejoin:miter;stroke-miterlimit:4;stroke-opacity:1;stroke-dasharray:2.5, 2;stroke-dashoffset:0"
       d="m 167.805,12.9922 0,72 -95.9999,0" /><path
       inkscape:connector-curvature="0"
       id="path68"
       style="fill:none;stroke:#231f20;stroke-width:0.96;stroke-linecap:butt;stroke-linejoin:miter;stroke-miterlimit:4;stroke-opacity:1;stroke-dasharray:none"
       d="M 71.8051,180.616 239.769,12.652" /><path
       inkscape:connector-curvature="0"
       id="path70"
       style="fill:none;stroke:#231f20;stroke-width:0.75;stroke-linecap:butt;stroke-linejoin:miter;stroke-miterlimit:4;stroke-opacity:1;stroke-dasharray:none"
       d="m 67.2188,180.563 8.9992,0" /><path
       inkscape:connector-curvature="0"
       id="path72"
       style="fill:none;stroke:#231f20;stroke-width:0.75;stroke-linecap:butt;stroke-linejoin:miter;stroke-miterlimit:4;stroke-opacity:1;stroke-dasharray:none"
       d="m 239.769,8.22813 0,8.99807" /><path
       inkscape:connector-curvature="0"
       id="path74"
       style="fill:#231f20;fill-opacity:1;fill-rule:nonzero;stroke:none"
       d="m 169.26804,84.979644 c 0,-0.8277 -0.672,-1.5 -1.5,-1.5 -0.828,0 -1.5,0.6723 -1.5,1.5 0,0.8301 0.672,1.5 1.5,1.5 0.828,0 1.5,-0.6699 1.5,-1.5" /><path
       inkscape:connector-curvature="0"
       id="path76"
       style="fill:none;stroke:#231f20;stroke-width:0.75;stroke-linecap:butt;stroke-linejoin:miter;stroke-miterlimit:4;stroke-opacity:1;stroke-dasharray:none"
       d="m 169.26804,84.979644 c 0,-0.8277 -0.672,-1.5 -1.5,-1.5 -0.828,0 -1.5,0.6723 -1.5,1.5 0,0.8301 0.672,1.5 1.5,1.5 0.828,0 1.5,-0.6699 1.5,-1.5 z" /><path
       inkscape:connector-curvature="0"
       id="path78"
       style="fill:none;stroke:#231f20;stroke-width:0.5;stroke-linecap:butt;stroke-linejoin:miter;stroke-miterlimit:4;stroke-opacity:1;stroke-dasharray:none"
       d="m 0,181.215 26.748,0" /><path
       inkscape:connector-curvature="0"
       id="path3960"
       style="font-size:8px;font-style:italic;font-variant:normal;writing-mode:lr-tb;fill:#231f20;fill-opacity:1;fill-rule:nonzero;stroke:none;font-family:Times;-inkscape-font-specification:Times-Italic"
       d="m 12.43447,190.768 -1.488,0 0,-0.128 c 0.36,-0.04 0.504,-0.12 0.504,-0.272 0,-0.152 -0.152,-0.496 -0.416,-0.952 l -1.648,-2.848 -0.528,3.544 c -0.008,0.04 -0.008,0.072 -0.008,0.12 0,0.272 0.1120005,0.352 0.616,0.408 l 0,0.128 -1.928,0 0,-0.128 c 0.4479996,-0.056 0.4640002,-0.08 0.632,-1.08 l 0.68,-4.16 0.152,0 2.984,4.92 c 0.136,0.216 0.264,0.312 0.448,0.32 l 0,0.128" /><path
       inkscape:connector-curvature="0"
       id="path3963"
       style="font-size:6px;font-style:italic;font-variant:normal;writing-mode:lr-tb;fill:#231f20;fill-opacity:1;fill-rule:nonzero;stroke:none;font-family:Times;-inkscape-font-specification:Times-Italic"
       d="m 15.73036,186.334 0.222,1.194 -0.126,0 c -0.048,-0.096 -0.108,-0.132 -0.228,-0.132 -0.048,0 -0.12,0.012 -0.246,0.042 -0.27,0.066 -0.51,0.102 -0.702,0.102 -1.277999,0 -2.436,-1.206 -2.436,-2.538 0,-0.918 0.648001,-1.566 1.566,-1.566 0.617999,0 1.098,0.264 1.638,0.894 l -0.102,0.084 c -0.539999,-0.528 -0.888,-0.708 -1.38,-0.708 -0.665999,0 -1.05,0.456 -1.05,1.23 0,0.714 0.288001,1.44 0.756,1.926 0.288,0.294 0.666,0.462 1.062,0.462 0.551999,0 0.858,-0.324 0.918,-0.972 l 0.108,-0.018" /><path
       inkscape:connector-curvature="0"
       id="path3965"
       style="font-size:6px;font-style:italic;font-variant:normal;writing-mode:lr-tb;fill:#231f20;fill-opacity:1;fill-rule:nonzero;stroke:none;font-family:Times;-inkscape-font-specification:Times-Italic"
       d="m 19.73236,186.334 0.222,1.194 -0.126,0 c -0.048,-0.096 -0.108,-0.132 -0.228,-0.132 -0.048,0 -0.12,0.012 -0.246,0.042 -0.27,0.066 -0.51,0.102 -0.702,0.102 -1.277999,0 -2.436,-1.206 -2.436,-2.538 0,-0.918 0.648001,-1.566 1.566,-1.566 0.617999,0 1.098,0.264 1.638,0.894 l -0.102,0.084 c -0.54,-0.528 -0.888001,-0.708 -1.38,-0.708 -0.666,0 -1.05,0.456 -1.05,1.23 0,0.714 0.288,1.44 0.756,1.926 0.288,0.294 0.666,0.462 1.062,0.462 0.551999,0 0.858,-0.324 0.918,-0.972 l 0.108,-0.018" /><path
       inkscape:connector-curvature="0"
       id="path3968"
       style="font-size:8px;font-style:italic;font-variant:normal;writing-mode:lr-tb;fill:#231f20;fill-opacity:1;fill-rule:nonzero;stroke:none;font-family:Times;-inkscape-font-specification:Times-Italic"
       d="m 4.93526,173.672 c -0.3519996,0.024 -0.5120002,0.16 -0.664,0.576 l -0.744,1.96 c 0.6159994,0.136 0.8800003,0.248 1.168,0.504 0.2639997,0.232 0.408,0.544 0.408,0.904 0,0.744 -0.5920011,1.152 -1.664,1.152 l -1.984,0 0,-0.128 c 0.3359997,-0.048 0.3760001,-0.056 0.456,-0.112 0.064,-0.04 0.112,-0.136 0.112,-0.224 0,-0.096 -0.04,-0.288 -0.096,-0.504 l -0.984,-3.536 c -0.14399986,-0.472 -0.20000045,-0.52 -0.648,-0.592 l 0,-0.128 1.952,0 0,0.128 c -0.4879995,0.064 -0.544,0.104 -0.544,0.368 0,0.08 0.024,0.184 0.096,0.464 l 0.448,1.672 0.52,-0.04 0.984,-2.592 1.184,0 0,0.128 m -2.072,4.632 c 0.048,0.168 0.1520003,0.224 0.408,0.224 0.6639993,0 0.992,-0.304 0.992,-0.896 0,-0.792 -0.512001,-1.2 -1.512,-1.2 -0.1279999,0 -0.2160002,0.008 -0.408,0.04 l 0.52,1.832" /><path
       inkscape:connector-curvature="0"
       id="path3971"
       style="font-size:6px;font-style:italic;font-variant:normal;writing-mode:lr-tb;fill:#231f20;fill-opacity:1;fill-rule:nonzero;stroke:none;font-family:Times;-inkscape-font-specification:Times-Italic"
       d="m 9.19915,174.334 0.222,1.194 -0.126,0 c -0.048,-0.096 -0.1080001,-0.132 -0.228,-0.132 -0.048,0 -0.1200001,0.012 -0.246,0.042 -0.2699997,0.066 -0.5100002,0.102 -0.702,0.102 -1.2779987,0 -2.436,-1.206 -2.436,-2.538 0,-0.918 0.6480009,-1.566 1.566,-1.566 0.6179994,0 1.0980005,0.264 1.638,0.894 l -0.102,0.084 c -0.5399995,-0.528 -0.8880005,-0.708 -1.38,-0.708 -0.6659993,0 -1.05,0.456 -1.05,1.23 0,0.714 0.2880005,1.44 0.756,1.926 0.2879997,0.294 0.6660004,0.462 1.062,0.462 0.5519994,0 0.8580001,-0.324 0.918,-0.972 l 0.108,-0.018" /><path
       inkscape:connector-curvature="0"
       id="path3974"
       style="font-size:8px;font-variant:normal;font-weight:normal;writing-mode:lr-tb;fill:#231f20;fill-opacity:1;fill-rule:nonzero;stroke:none;font-family:Times;-inkscape-font-specification:Times-Roman"
       d="m 13.2811,175.832 -1.752,0 0,-0.528 1.752,0 0,-1.76 0.528,0 0,1.76 1.752,0 0,0.528 -1.752,0 0,1.76 -0.528,0 0,-1.76" /><path
       inkscape:connector-curvature="0"
       id="path3977"
       style="font-size:8px;font-style:italic;font-variant:normal;writing-mode:lr-tb;fill:#231f20;fill-opacity:1;fill-rule:nonzero;stroke:none;font-family:Times;-inkscape-font-specification:Times-Italic"
       d="m 22.33682,173.672 c -0.352,0.024 -0.512,0.16 -0.664,0.576 l -0.744,1.96 c 0.615999,0.136 0.88,0.248 1.168,0.504 0.264,0.232 0.408,0.544 0.408,0.904 0,0.744 -0.592001,1.152 -1.664,1.152 l -1.984,0 0,-0.128 c 0.336,-0.048 0.376,-0.056 0.456,-0.112 0.064,-0.04 0.112,-0.136 0.112,-0.224 0,-0.096 -0.04,-0.288 -0.096,-0.504 l -0.984,-3.536 c -0.144,-0.472 -0.2,-0.52 -0.648,-0.592 l 0,-0.128 1.952,0 0,0.128 c -0.488,0.064 -0.544,0.104 -0.544,0.368 0,0.08 0.024,0.184 0.096,0.464 l 0.448,1.672 0.52,-0.04 0.984,-2.592 1.184,0 0,0.128 m -2.072,4.632 c 0.048,0.168 0.152,0.224 0.408,0.224 0.663999,0 0.992,-0.304 0.992,-0.896 0,-0.792 -0.512001,-1.2 -1.512,-1.2 -0.128,0 -0.216,0.008 -0.408,0.04 l 0.52,1.832" /><path
       inkscape:connector-curvature="0"
       id="path3980"
       style="font-size:6px;font-style:italic;font-variant:normal;writing-mode:lr-tb;fill:#231f20;fill-opacity:1;fill-rule:nonzero;stroke:none;font-family:Times;-inkscape-font-specification:Times-Italic"
       d="m 26.49349,175.462 -2.982,0 0,-0.096 c 0.372,-0.036 0.462,-0.084 0.462,-0.246 0,-0.066 -0.036,-0.276 -0.066,-0.384 l -0.738,-2.652 c -0.102,-0.342 -0.15,-0.384 -0.486,-0.444 l 0,-0.096 3.042,0 0.372,0.972 -0.096,0.048 c -0.282,-0.384 -0.438,-0.54 -0.696,-0.66 -0.222,-0.102 -0.63,-0.162 -1.08,-0.162 -0.336,0 -0.48,0.06 -0.48,0.204 0,0.066 0.066,0.348 0.216,0.876 0.078,0.264 0.132,0.462 0.192,0.69 0.21,-0.012 0.396,-0.018 0.468,-0.018 0.234,0.006 0.402,-0.03 0.468,-0.09 0.03,-0.03 0.042,-0.084 0.042,-0.186 0,-0.102 -0.012,-0.18 -0.042,-0.312 l 0.12,-0.03 0.408,1.392 -0.108,0.024 c -0.228,-0.51 -0.282001,-0.546 -0.828,-0.57 -0.072,0 -0.264,-0.006 -0.474,-0.012 l 0.396,1.398 c 0.036,0.132 0.102,0.156 0.438,0.156 0.941999,0 1.152,-0.078 1.152,-0.438 0,-0.078 -0.006,-0.168 -0.012,-0.27 l 0.126,-0.012 0.186,0.918" /></g></svg>