<?xml version="1.0" encoding="UTF-8" standalone="no"?>
<!-- Created with Inkscape (http://www.inkscape.org/) -->

<svg
   xmlns:dc="http://purl.org/dc/elements/1.1/"
   xmlns:cc="http://creativecommons.org/ns#"
   xmlns:rdf="http://www.w3.org/1999/02/22-rdf-syntax-ns#"
   xmlns:svg="http://www.w3.org/2000/svg"
   xmlns="http://www.w3.org/2000/svg"
   xmlns:sodipodi="http://sodipodi.sourceforge.net/DTD/sodipodi-0.dtd"
   xmlns:inkscape="http://www.inkscape.org/namespaces/inkscape"
   id="svg2"
   version="1.1"
   inkscape:version="0.48.4 r9939"
   width="144.625"
   height="147.525"
   xml:space="preserve"
   sodipodi:docname="S3-EE-03-IN001.eps"><metadata
     id="metadata8"><rdf:RDF><cc:Work
         rdf:about=""><dc:format>image/svg+xml</dc:format><dc:type
           rdf:resource="http://purl.org/dc/dcmitype/StillImage" /><dc:title></dc:title></cc:Work></rdf:RDF></metadata><defs
     id="defs6" /><sodipodi:namedview
     pagecolor="#ffffff"
     bordercolor="#666666"
     borderopacity="1"
     objecttolerance="10"
     gridtolerance="10"
     guidetolerance="10"
     inkscape:pageopacity="0"
     inkscape:pageshadow="2"
     inkscape:window-width="1366"
     inkscape:window-height="744"
     id="namedview4"
     showgrid="false"
     inkscape:zoom="4.0950715"
     inkscape:cx="71.9936"
     inkscape:cy="72.892494"
     inkscape:window-x="0"
     inkscape:window-y="24"
     inkscape:window-maximized="1"
     inkscape:current-layer="g10" /><g
     id="g10"
     inkscape:groupmode="layer"
     inkscape:label="ink_ext_XXXXXX"
     transform="matrix(1.25,0,0,-1.25,0,147.525)"><path
       inkscape:connector-curvature="0"
       id="path3122"
       style="font-size:8px;font-style:italic;font-variant:normal;writing-mode:lr-tb;fill:#231f20;fill-opacity:1;fill-rule:nonzero;stroke:none;font-family:Times;-inkscape-font-specification:Times-Italic"
       d="m 106.81,116.628 -1.488,0 0,-0.128 c 0.36,-0.04 0.504,-0.12 0.504,-0.272 0,-0.152 -0.152,-0.496 -0.416,-0.952 l -1.648,-2.848 -0.528,3.544 c -0.008,0.04 -0.008,0.072 -0.008,0.12 0,0.272 0.112,0.352 0.616,0.408 l 0,0.128 -1.928,0 0,-0.128 c 0.448,-0.056 0.464,-0.08 0.632,-1.08 l 0.68,-4.16 0.152,0 2.984,4.92 c 0.136,0.216 0.264,0.312 0.448,0.32 l 0,0.128" /><path
       inkscape:connector-curvature="0"
       id="path3125"
       style="font-size:6px;font-style:italic;font-variant:normal;writing-mode:lr-tb;fill:#231f20;fill-opacity:1;fill-rule:nonzero;stroke:none;font-family:Times;-inkscape-font-specification:Times-Italic"
       d="m 110.10511,112.194 0.222,1.194 -0.126,0 c -0.048,-0.096 -0.108,-0.132 -0.228,-0.132 -0.048,0 -0.12,0.012 -0.246,0.042 -0.27,0.066 -0.51,0.102 -0.702,0.102 -1.278,0 -2.436,-1.206 -2.436,-2.538 0,-0.918 0.648,-1.566 1.566,-1.566 0.618,0 1.098,0.264 1.638,0.894 l -0.102,0.084 c -0.54,-0.528 -0.888,-0.708 -1.38,-0.708 -0.666,0 -1.05,0.456 -1.05,1.23 0,0.714 0.288,1.44 0.756,1.926 0.288,0.294 0.666,0.462 1.062,0.462 0.552,0 0.858,-0.324 0.918,-0.972 l 0.108,-0.018" /><path
       inkscape:connector-curvature="0"
       id="path3127"
       style="font-size:6px;font-style:italic;font-variant:normal;writing-mode:lr-tb;fill:#231f20;fill-opacity:1;fill-rule:nonzero;stroke:none;font-family:Times;-inkscape-font-specification:Times-Italic"
       d="m 114.10711,112.194 0.222,1.194 -0.126,0 c -0.048,-0.096 -0.108,-0.132 -0.228,-0.132 -0.048,0 -0.12,0.012 -0.246,0.042 -0.27,0.066 -0.51,0.102 -0.702,0.102 -1.278,0 -2.436,-1.206 -2.436,-2.538 0,-0.918 0.648,-1.566 1.566,-1.566 0.618,0 1.098,0.264 1.638,0.894 l -0.102,0.084 c -0.54,-0.528 -0.888,-0.708 -1.38,-0.708 -0.666,0 -1.05,0.456 -1.05,1.23 0,0.714 0.288,1.44 0.756,1.926 0.288,0.294 0.666,0.462 1.062,0.462 0.552,0 0.858,-0.324 0.918,-0.972 l 0.108,-0.018" /><path
       inkscape:connector-curvature="0"
       id="path3130"
       style="font-size:8px;font-variant:normal;font-weight:normal;writing-mode:lr-tb;fill:#231f20;fill-opacity:1;fill-rule:nonzero;stroke:none;font-family:Times;-inkscape-font-specification:Times-Roman"
       d="m 105.4142,102.9 -0.104,0.04 c -0.296,-0.456 -0.4,-0.528 -0.76,-0.528 l -1.912,0 1.344,1.408 c 0.712,0.744 1.024,1.352 1.024,1.976 0,0.8 -0.648,1.416 -1.48,1.416 -0.44,0 -0.856,-0.176 -1.152,-0.496 -0.256,-0.272 -0.376,-0.528 -0.512,-1.096 l 0.168,-0.04 c 0.32,0.784 0.608,1.04 1.16,1.04 0.672,0 1.128,-0.456 1.128,-1.128 0,-0.624 -0.368,-1.368 -1.04,-2.08 l -1.424,-1.512 0,-0.096 3.12,0 0.44,1.096" /><path
       inkscape:connector-curvature="0"
       id="path3132"
       style="font-size:8px;font-variant:normal;font-weight:normal;writing-mode:lr-tb;fill:#231f20;fill-opacity:1;fill-rule:nonzero;stroke:none;font-family:Times;-inkscape-font-specification:Times-Roman"
       d="m 107.6462,107.212 c -0.44,0 -0.776,-0.136 -1.072,-0.416 -0.464,-0.448 -0.768,-1.368 -0.768,-2.304 0,-0.872 0.264,-1.808 0.64,-2.256 0.296,-0.352 0.704,-0.544 1.168,-0.544 0.408,0 0.752,0.136 1.04,0.416 0.464,0.44 0.768,1.368 0.768,2.336 0,1.64 -0.728,2.768 -1.776,2.768 m -0.024,-0.208 c 0.672,0 1.032,-0.904 1.032,-2.576 0,-1.672 -0.352,-2.528 -1.04,-2.528 -0.688,0 -1.04,0.856 -1.04,2.52 0,1.696 0.36,2.584 1.048,2.584" /><path
       inkscape:connector-curvature="0"
       id="path3134"
       style="font-size:8px;font-variant:normal;font-weight:normal;writing-mode:lr-tb;fill:#231f20;fill-opacity:1;fill-rule:nonzero;stroke:none;font-family:Times;-inkscape-font-specification:Times-Roman"
       d="m 115.1902,107.1 -1.64,0 0,-0.152 c 0.44,-0.024 0.584,-0.112 0.584,-0.336 0,-0.128 -0.056,-0.344 -0.152,-0.584 l -1.176,-2.936 -1.208,2.704 c -0.264,0.584 -0.328,0.768 -0.328,0.888 0,0.152 0.112,0.232 0.368,0.248 0.032,0 0.12,0.008 0.232,0.016 l 0,0.152 -2.128,0 0,-0.152 c 0.392,-0.016 0.504,-0.128 0.848,-0.84 l 1.968,-4.392 0.12,0 1.776,4.488 c 0.264,0.632 0.352,0.72 0.736,0.744 l 0,0.152" /><path
       inkscape:connector-curvature="0"
       id="path28"
       style="fill:none;stroke:#231f20;stroke-width:0.8;stroke-linecap:butt;stroke-linejoin:miter;stroke-miterlimit:4;stroke-opacity:1;stroke-dasharray:none"
       d="m 15.2012,114.231 0,-63.613" /><path
       inkscape:connector-curvature="0"
       id="path30"
       style="fill:none;stroke:#231f20;stroke-width:0.56;stroke-linecap:butt;stroke-linejoin:miter;stroke-miterlimit:4;stroke-opacity:1;stroke-dasharray:none"
       d="m 24.4707,81.616 0,17.052" /><path
       inkscape:connector-curvature="0"
       id="path32"
       style="fill:#231f20;fill-opacity:1;fill-rule:nonzero;stroke:none"
       d="m 24.502794,82.109354 1.452544,0.882808 0.03276,-0.04903 -0.940721,-2.368608 c -0.18198,-0.825326 -0.363458,-1.650436 -0.544578,-2.475833 -0.181981,0.825397 -0.363101,1.650507 -0.544579,2.475833 l -0.941222,2.368608 0.0243,0.04903 1.461504,-0.882808" /><path
       inkscape:connector-curvature="0"
       id="path34"
       style="fill:none;stroke:#231f20;stroke-width:0.56;stroke-linecap:butt;stroke-linejoin:miter;stroke-miterlimit:4;stroke-opacity:1;stroke-dasharray:none"
       d="m 52.6301,81.616 0,17.052" /><path
       inkscape:connector-curvature="0"
       id="path36"
       style="fill:#231f20;fill-opacity:1;fill-rule:nonzero;stroke:none"
       d="m 52.647725,81.86516 1.452257,0.882808 0.03275,-0.04903 -0.94072,-2.368608 c -0.182047,-0.825321 -0.363167,-1.650431 -0.544287,-2.475828 -0.18198,0.825397 -0.363459,1.650507 -0.544865,2.475833 l -0.941294,2.368608 0.02437,0.04903 1.46179,-0.882808" /><path
       inkscape:connector-curvature="0"
       id="path38"
       style="fill:none;stroke:#231f20;stroke-width:0.8;stroke-linecap:butt;stroke-linejoin:miter;stroke-miterlimit:4;stroke-opacity:1;stroke-dasharray:none"
       d="m 62.4707,62.0195 0,52.2115 35.0879,0" /><path
       inkscape:connector-curvature="0"
       id="path3137"
       style="font-size:8px;font-style:italic;font-variant:normal;writing-mode:lr-tb;fill:#231f20;fill-opacity:1;fill-rule:nonzero;stroke:none;font-family:Times;-inkscape-font-specification:Times-Italic"
       d="m 78.0587,85.4952 c -0.352,0.024 -0.512,0.16 -0.664,0.576 l -0.744,1.96 c 0.615999,0.136 0.88,0.248 1.168,0.504 0.264,0.232 0.408,0.544 0.408,0.904 0,0.743999 -0.592001,1.152 -1.664,1.152 l -1.984,0 0,-0.128 c 0.336,-0.048 0.376,-0.056 0.456,-0.112 0.064,-0.04 0.112,-0.136 0.112,-0.224 0,-0.096 -0.04,-0.288 -0.096,-0.504 l -0.984,-3.536 c -0.144,-0.472 -0.2,-0.52 -0.648,-0.592 l 0,-0.128 1.952,0 0,0.128 c -0.488,0.064 -0.544,0.104 -0.544,0.368 0,0.08 0.024,0.184 0.096,0.464 l 0.448,1.672 0.52,-0.04 0.984,-2.592 1.184,0 0,0.128 m -2.072,4.632 c 0.048,0.168 0.152,0.224 0.408,0.224 0.663999,0 0.992,-0.304001 0.992,-0.896 0,-0.791999 -0.512001,-1.2 -1.512,-1.2 -0.128,0 -0.216,0.008 -0.408,0.04 l 0.52,1.832" /><path
       inkscape:connector-curvature="0"
       id="path3140"
       style="font-size:6px;font-style:italic;font-variant:normal;writing-mode:lr-tb;fill:#231f20;fill-opacity:1;fill-rule:nonzero;stroke:none;font-family:Times;-inkscape-font-specification:Times-Italic"
       d="m 82.3222,86.1572 0.222,1.194 -0.126,0 c -0.048,-0.096 -0.108,-0.132 -0.228,-0.132 -0.048,0 -0.12,0.012 -0.246,0.042 -0.27,0.066 -0.51,0.102 -0.702,0.102 -1.277999,0 -2.436,-1.206001 -2.436,-2.538 0,-0.917999 0.648001,-1.566 1.566,-1.566 0.617999,0 1.098001,0.264001 1.638,0.894 l -0.102,0.084 c -0.54,-0.527999 -0.888,-0.708 -1.38,-0.708 -0.665999,0 -1.05,0.456001 -1.05,1.23 0,0.713999 0.288,1.440001 0.756,1.926 0.288,0.294 0.666,0.462 1.062,0.462 0.551999,0 0.858,-0.324001 0.918,-0.972 l 0.108,-0.018" /><path
       inkscape:connector-curvature="0"
       id="path3143"
       style="font-size:8px;font-variant:normal;font-weight:normal;writing-mode:lr-tb;fill:#231f20;fill-opacity:1;fill-rule:nonzero;stroke:none;font-family:Times;-inkscape-font-specification:Times-Roman"
       d="m 71.22336,79.1752 -1.44,-0.728 0,-0.112 c 0.096,0.04 0.184,0.072 0.216,0.088 0.144,0.056 0.28,0.088 0.36,0.088 0.168,0 0.24,-0.12 0.24,-0.376 l 0,-3.624 c 0,-0.264 -0.064,-0.448 -0.192,-0.52 -0.12,-0.072 -0.232,-0.096 -0.568,-0.104 l 0,-0.12 2.208,0 0,0.12 c -0.631999,0.008 -0.76,0.088 -0.76,0.472 l 0,4.8 -0.064,0.016" /><path
       inkscape:connector-curvature="0"
       id="path3145"
       style="font-size:8px;font-variant:normal;font-weight:normal;writing-mode:lr-tb;fill:#231f20;fill-opacity:1;fill-rule:nonzero;stroke:none;font-family:Times;-inkscape-font-specification:Times-Roman"
       d="m 76.69536,74.8632 -0.104,0.04 c -0.296,-0.456 -0.4,-0.528 -0.76,-0.528 l -1.912,0 1.344,1.408 c 0.711999,0.743999 1.024,1.352001 1.024,1.976 0,0.799999 -0.648001,1.416 -1.48,1.416 -0.44,0 -0.856,-0.176 -1.152,-0.496 -0.256,-0.272 -0.376,-0.528001 -0.512,-1.096 l 0.168,-0.04 c 0.32,0.783999 0.608001,1.04 1.16,1.04 0.671999,0 1.128,-0.456001 1.128,-1.128 0,-0.623999 -0.368001,-1.368001 -1.04,-2.08 l -1.424,-1.512 0,-0.096 3.12,0 0.44,1.096" /><path
       inkscape:connector-curvature="0"
       id="path3147"
       style="font-size:8px;font-variant:normal;font-weight:normal;writing-mode:lr-tb;fill:#231f20;fill-opacity:1;fill-rule:nonzero;stroke:none;font-family:Times;-inkscape-font-specification:Times-Roman"
       d="m 76.95136,78.7512 c 0.104,0.008 0.176,0.016 0.256,0.016 0.264,0 0.344,-0.104 0.344,-0.488 l 0,-3.856 c 0,-0.416 -0.024,-0.44 -0.6,-0.536 l 0,-0.12 1.872,0 0,0.12 -0.16,0.008 c -0.32,0.016 -0.44,0.128 -0.44,0.408 l 0,1.472 1.12,-1.496 0.024,-0.032 c 0.016,-0.024 0.032,-0.048 0.056,-0.072 0.064,-0.08 0.088,-0.128 0.088,-0.168 0,-0.072 -0.072,-0.12 -0.168,-0.12 l -0.152,0 0,-0.12 1.744,0 0,0.12 c -0.352,0.024 -0.6,0.176 -0.936,0.584 l -1.224,1.552 0.232,0.216 c 0.567999,0.528 1.064,0.896 1.296,0.96 0.12,0.032 0.232,0.048 0.368,0.048 l 0.064,0 0,0.12 -1.632,0 0,-0.112 c 0.312,-0.008 0.4,-0.04 0.4,-0.152 0,-0.064 -0.072,-0.176 -0.184,-0.272 l -1.096,-0.976 0,3.36 -0.032,0.016 c -0.304,-0.096 -0.536,-0.16 -1,-0.288 l -0.24,-0.064 0,-0.128" /><path
       inkscape:connector-curvature="0"
       id="path3150"
       style="font-size:8px;font-variant:normal;font-weight:normal;writing-mode:lr-tb;fill:#231f20;fill-opacity:1;fill-rule:nonzero;stroke:none;font-family:Symbol;-inkscape-font-specification:Symbol"
       d="m 83.50336,73.7672 -0.144,1.24 c -0.623999,0.352 -1.024,1.064001 -1.024,1.816 0,0.416 0.12,0.888 0.328,1.264 0.288,0.52 0.768,0.816 1.312,0.816 0.543999,0 1.024,-0.296 1.312,-0.816 0.208,-0.376 0.328,-0.848 0.328,-1.264 0,-0.751999 -0.400001,-1.464 -1.024,-1.816 l -0.144,-1.24 2.336,0 0,1.224 -0.192,0 c -0.056,-0.352 -0.232,-0.504 -0.552,-0.504 l -1.168,0 0.024,0.304 c 0.28,0.104 0.448,0.184 0.64,0.304 0.607999,0.392 0.976,1.040001 0.976,1.728 0,0.528 -0.232,1.12 -0.616,1.568 -0.488,0.559999 -1.160001,0.864 -1.92,0.864 -0.759999,0 -1.432001,-0.304001 -1.92,-0.864 -0.384,-0.448 -0.616,-1.04 -0.616,-1.568 0,-0.687999 0.368001,-1.336 0.976,-1.728 0.184,-0.12 0.352,-0.2 0.64,-0.304 l 0.024,-0.304 -1.168,0 c -0.32,0 -0.496,0.152 -0.552,0.504 l -0.192,0 0,-1.224 2.336,0" /><path
       inkscape:connector-curvature="0"
       id="path3153"
       style="font-size:8px;font-style:italic;font-variant:normal;writing-mode:lr-tb;fill:#231f20;fill-opacity:1;fill-rule:nonzero;stroke:none;font-family:Times;-inkscape-font-specification:Times-Italic"
       d="m 4.63956,85.2452 c -0.3519996,0.024 -0.5120002,0.16 -0.664,0.576 l -0.744,1.96 c 0.6159994,0.136 0.8800003,0.248 1.168,0.504 0.2639997,0.232 0.408,0.544 0.408,0.904 0,0.743999 -0.5920011,1.152 -1.664,1.152 l -1.984,0 0,-0.128 c 0.3359997,-0.048 0.3760001,-0.056 0.456,-0.112 0.064,-0.04 0.112,-0.136 0.112,-0.224 0,-0.096 -0.04,-0.288 -0.096,-0.504 l -0.984,-3.536 c -0.14399986,-0.472 -0.20000045,-0.52 -0.648,-0.592 l 0,-0.128 1.952,0 0,0.128 c -0.4879995,0.064 -0.544,0.104 -0.544,0.368 0,0.08 0.024,0.184 0.096,0.464 l 0.448,1.672 0.52,-0.04 0.984,-2.592 1.184,0 0,0.128 m -2.072,4.632 c 0.048,0.168 0.1520003,0.224 0.408,0.224 0.6639993,0 0.992,-0.304001 0.992,-0.896 0,-0.791999 -0.512001,-1.2 -1.512,-1.2 -0.1279999,0 -0.2160002,0.008 -0.408,0.04 l 0.52,1.832" /><path
       inkscape:connector-curvature="0"
       id="path3156"
       style="font-size:6px;font-style:italic;font-variant:normal;writing-mode:lr-tb;fill:#231f20;fill-opacity:1;fill-rule:nonzero;stroke:none;font-family:Times;-inkscape-font-specification:Times-Italic"
       d="m 4.94306,83.1172 1.692,0 c 0.9419991,0 1.59,0.492001 1.59,1.2 0,0.222 -0.072,0.432 -0.204,0.564 -0.1199999,0.138 -0.2400003,0.21 -0.552,0.342 0.4259996,0.102 0.6000002,0.174 0.792,0.342 0.1679998,0.144 0.258,0.348 0.258,0.588 0,0.569999 -0.4260008,0.882 -1.2,0.882 l -1.548,0 0,-0.096 c 0.3719996,-0.03 0.462,-0.078 0.462,-0.246 0,-0.09 -0.024,-0.24 -0.066,-0.384 l -0.738,-2.652 c -0.1079999,-0.348 -0.1500003,-0.384 -0.486,-0.444 l 0,-0.096 m 1.476,1.986 c 0.3899996,0 0.6420001,-0.024 0.762,-0.072 0.2459998,-0.102 0.396,-0.366 0.396,-0.69 0,-0.647999 -0.4440007,-1.044 -1.176,-1.044 -0.2519997,0 -0.384,0.09 -0.384,0.252 0,0.072 0.072,0.36 0.21,0.84 0.078,0.27 0.1140001,0.408 0.192,0.714 m 0.45,1.584 c 0.036,0.132 0.1080002,0.168 0.342,0.168 0.4799995,0 0.702,-0.204 0.702,-0.648 0,-0.342 -0.1440003,-0.606 -0.402,-0.75 -0.2039998,-0.12 -0.4920005,-0.162 -1.032,-0.162 l 0.39,1.392" /><path
       inkscape:connector-curvature="0"
       id="path3159"
       style="font-size:8px;font-style:italic;font-variant:normal;writing-mode:lr-tb;fill:#231f20;fill-opacity:1;fill-rule:nonzero;stroke:none;font-family:Times;-inkscape-font-specification:Times-Italic"
       d="m 21.06886,69.7988 1.952,0 0,0.128 c -0.455999,0.056 -0.544,0.104 -0.544,0.328 0,0.152 0.016,0.248 0.088,0.504 l 0.984,3.544 c 0.144,0.464 0.2,0.512 0.656,0.592 l 0,0.128 -1.976,0 0,-0.128 c 0.463999,-0.056 0.56,-0.12 0.56,-0.344 0,-0.112 -0.032,-0.296 -0.088,-0.496 l -0.984,-3.536 c -0.144,-0.464 -0.2,-0.512 -0.648,-0.592 l 0,-0.128" /><path
       inkscape:connector-curvature="0"
       id="path3162"
       style="font-size:6px;font-style:italic;font-variant:normal;writing-mode:lr-tb;fill:#231f20;fill-opacity:1;fill-rule:nonzero;stroke:none;font-family:Times;-inkscape-font-specification:Times-Italic"
       d="m 23.74892,67.7988 1.692,0 c 0.941999,0 1.59,0.492001 1.59,1.2 0,0.222 -0.072,0.432 -0.204,0.564 -0.12,0.138 -0.24,0.21 -0.552,0.342 0.426,0.102 0.6,0.174 0.792,0.342 0.168,0.144 0.258,0.348 0.258,0.588 0,0.569999 -0.426001,0.882 -1.2,0.882 l -1.548,0 0,-0.096 c 0.372,-0.03 0.462,-0.078 0.462,-0.246 0,-0.09 -0.024,-0.24 -0.066,-0.384 l -0.738,-2.652 c -0.108,-0.348 -0.15,-0.384 -0.486,-0.444 l 0,-0.096 m 1.476,1.986 c 0.39,0 0.642,-0.024 0.762,-0.072 0.246,-0.102 0.396,-0.366 0.396,-0.69 0,-0.647999 -0.444001,-1.044 -1.176,-1.044 -0.252,0 -0.384,0.09 -0.384,0.252 0,0.072 0.072,0.36 0.21,0.84 0.078,0.27 0.114,0.408 0.192,0.714 m 0.45,1.584 c 0.036,0.132 0.108,0.168 0.342,0.168 0.479999,0 0.702,-0.204 0.702,-0.648 0,-0.342 -0.144,-0.606 -0.402,-0.75 -0.204,-0.12 -0.492001,-0.162 -1.032,-0.162 l 0.39,1.392" /><path
       inkscape:connector-curvature="0"
       id="path3165"
       style="font-size:8px;font-style:italic;font-variant:normal;writing-mode:lr-tb;fill:#231f20;fill-opacity:1;fill-rule:nonzero;stroke:none;font-family:Times;-inkscape-font-specification:Times-Italic"
       d="m 48.89112,69.7988 1.952,0 0,0.128 c -0.455999,0.056 -0.544,0.104 -0.544,0.328 0,0.152 0.016,0.248 0.088,0.504 l 0.984,3.544 c 0.144,0.464 0.2,0.512 0.656,0.592 l 0,0.128 -1.976,0 0,-0.128 c 0.464,-0.056 0.56,-0.12 0.56,-0.344 0,-0.112 -0.032,-0.296 -0.088,-0.496 l -0.984,-3.536 c -0.144,-0.464 -0.2,-0.512 -0.648,-0.592 l 0,-0.128" /><path
       inkscape:connector-curvature="0"
       id="path3168"
       style="font-size:6px;font-style:italic;font-variant:normal;writing-mode:lr-tb;fill:#231f20;fill-opacity:1;fill-rule:nonzero;stroke:none;font-family:Times;-inkscape-font-specification:Times-Italic"
       d="m 55.53118,70.5888 0.222,1.194 -0.126,0 c -0.048,-0.096 -0.108,-0.132 -0.228,-0.132 -0.048,0 -0.12,0.012 -0.246,0.042 -0.27,0.066 -0.51,0.102 -0.702,0.102 -1.277999,0 -2.436,-1.206001 -2.436,-2.538 0,-0.917999 0.648001,-1.566 1.566,-1.566 0.617999,0 1.098,0.264001 1.638,0.894 l -0.102,0.084 c -0.54,-0.527999 -0.888001,-0.708 -1.38,-0.708 -0.665999,0 -1.05,0.456001 -1.05,1.23 0,0.713999 0.288,1.440001 0.756,1.926 0.288,0.294 0.666,0.462 1.062,0.462 0.551999,0 0.858,-0.324001 0.918,-0.972 l 0.108,-0.018" /><path
       inkscape:connector-curvature="0"
       id="path82"
       style="fill:#ffffff;fill-opacity:1;fill-rule:nonzero;stroke:none"
       d="m 58.8965,71.3359 7.46875,0 0,32.4512 -7.46875,0 0,-32.4512 z" /><path
       inkscape:connector-curvature="0"
       id="path84"
       style="fill:none;stroke:#231f20;stroke-width:0.80000001;stroke-linecap:round;stroke-linejoin:round;stroke-miterlimit:3.86369991;stroke-opacity:1;stroke-dasharray:none"
       d="m 62.472144,71.1133 0,3.6133 -3.6992,1.5703 7.4687,3.1484 -7.4687,3.1953 7.4687,3.1973 -7.4687,3.1504 7.4687,3.123 -7.4687,3.1504 7.373,3.1973 -3.6738,1.5293 0,3.7987" /><path
       inkscape:connector-curvature="0"
       id="path86"
       style="fill:#ffffff;fill-opacity:1;fill-rule:nonzero;stroke:none"
       d="m 11.502,71.3359 7.46875,0 0,32.4512 -7.46875,0 0,-32.4512 z" /><path
       inkscape:connector-curvature="0"
       id="path88"
       style="fill:none;stroke:#231f20;stroke-width:0.80000001;stroke-linecap:round;stroke-linejoin:round;stroke-miterlimit:3.86369991;stroke-opacity:1;stroke-dasharray:none"
       d="m 15.2012,71.1133 0,3.6133 -3.6992,1.5703 7.4687,3.1484 -7.4687,3.1953 7.4687,3.1973 -7.4687,3.1504 7.4687,3.123 -7.4687,3.1504 7.373,3.1973 -3.6738,1.5293 0,3.7987" /><path
       inkscape:connector-curvature="0"
       id="path90"
       style="fill:none;stroke:#231f20;stroke-width:0.80000001;stroke-linecap:round;stroke-linejoin:round;stroke-miterlimit:3.86369991;stroke-opacity:1;stroke-dasharray:none"
       d="m 45.7336,55.991 16.8418,6.0285" /><path
       inkscape:connector-curvature="0"
       id="path92"
       style="fill:none;stroke:#231f20;stroke-width:2;stroke-linecap:round;stroke-linejoin:round;stroke-miterlimit:3.86369991;stroke-opacity:1;stroke-dasharray:none"
       d="m 45.3762,41.7625 0,18.8047" /><path
       inkscape:connector-curvature="0"
       id="path94"
       style="fill:none;stroke:#231f20;stroke-width:0.80000001;stroke-linecap:round;stroke-linejoin:round;stroke-miterlimit:3.86369991;stroke-opacity:1;stroke-dasharray:none"
       d="M 46.1277,45.0184 60.2605,37.0867" /><path
       inkscape:connector-curvature="0"
       id="path96"
       style="fill:#231f20;fill-opacity:1;fill-rule:nonzero;stroke:none"
       d="m 57.5383,38.366 -0.0903,2.5274 0.0903,0.007 2.3887,-2.9465 c 0.9375,-0.8359 1.8765,-1.6738 2.814,-2.5098 -1.2027,0.3653 -2.4058,0.7305 -3.6094,1.0957 l -3.7578,0.5051 -0.0468,0.0684 2.2113,1.2527" /><path
       inkscape:connector-curvature="0"
       id="path98"
       style="fill:none;stroke:#231f20;stroke-width:0.8;stroke-linecap:butt;stroke-linejoin:miter;stroke-miterlimit:4;stroke-opacity:1;stroke-dasharray:none"
       d="m 15.2012,50.618 0,-0.0137 30.3105,0" /><path
       inkscape:connector-curvature="0"
       id="path100"
       style="fill:none;stroke:#231f20;stroke-width:0.8;stroke-linecap:butt;stroke-linejoin:miter;stroke-miterlimit:4;stroke-opacity:1;stroke-dasharray:none"
       d="m 62.4707,114.231 -47.2695,0" /><path
       inkscape:connector-curvature="0"
       id="path102"
       style="fill:#ffffff;fill-opacity:1;fill-rule:nonzero;stroke:none"
       d="m 99.2258,114.231 c 0,-0.92 -0.7461,-1.667 -1.6672,-1.667 -0.9207,0 -1.6668,0.747 -1.6668,1.667 0,0.921 0.7461,1.667 1.6668,1.667 0.9211,0 1.6672,-0.746 1.6672,-1.667" /><path
       inkscape:connector-curvature="0"
       id="path104"
       style="fill:none;stroke:#231f20;stroke-width:0.5;stroke-linecap:butt;stroke-linejoin:miter;stroke-miterlimit:4;stroke-opacity:1;stroke-dasharray:none"
       d="m 99.2258,114.231 c 0,-0.92 -0.7461,-1.667 -1.6672,-1.667 -0.9207,0 -1.6668,0.747 -1.6668,1.667 0,0.921 0.7461,1.667 1.6668,1.667 0.9211,0 1.6672,-0.746 1.6672,-1.667 z" /><path
       inkscape:connector-curvature="0"
       id="path106"
       style="fill:none;stroke:#231f20;stroke-width:0.80000001;stroke-linecap:round;stroke-linejoin:round;stroke-miterlimit:3.86369991;stroke-opacity:1;stroke-dasharray:none"
       d="m 62.5891,12.116 0,-6.43006" /><path
       inkscape:connector-curvature="0"
       id="path108"
       style="fill:none;stroke:#231f20;stroke-width:0.80000001;stroke-linecap:round;stroke-linejoin:round;stroke-miterlimit:3.86369991;stroke-opacity:1;stroke-dasharray:none"
       d="m 69.5891,5.68594 -14,0" /><path
       inkscape:connector-curvature="0"
       id="path110"
       style="fill:none;stroke:#231f20;stroke-width:0.80000001;stroke-linecap:round;stroke-linejoin:round;stroke-miterlimit:3.86369991;stroke-opacity:1;stroke-dasharray:none"
       d="m 68.0891,3.04219 -11,0" /><path
       inkscape:connector-curvature="0"
       id="path112"
       style="fill:none;stroke:#231f20;stroke-width:0.80000001;stroke-linecap:round;stroke-linejoin:round;stroke-miterlimit:3.86369991;stroke-opacity:1;stroke-dasharray:none"
       d="m 66.5891,0.4 -8,0" /><path
       inkscape:connector-curvature="0"
       id="path114"
       style="fill:none;stroke:#231f20;stroke-width:0.8;stroke-linecap:butt;stroke-linejoin:miter;stroke-miterlimit:4;stroke-opacity:1;stroke-dasharray:none"
       d="m 62.5938,35.584 0,-26.98009" /><path
       inkscape:connector-curvature="0"
       id="path116"
       style="fill:#231f20;fill-opacity:1;fill-rule:nonzero;stroke:none"
       d="m 64.1379,114.231 c 0,-0.92 -0.7461,-1.667 -1.6672,-1.667 -0.9211,0 -1.6672,0.747 -1.6672,1.667 0,0.921 0.7461,1.667 1.6672,1.667 0.9211,0 1.6672,-0.746 1.6672,-1.667" /><path
       inkscape:connector-curvature="0"
       id="path3171"
       style="font-size:8px;font-style:italic;font-variant:normal;writing-mode:lr-tb;fill:#231f20;fill-opacity:1;fill-rule:nonzero;stroke:none;font-family:Times;-inkscape-font-specification:Times-Italic"
       d="m 69.4642,52.9095 -1.488,0 0,-0.128 c 0.36,-0.04 0.504,-0.12 0.504,-0.272 0,-0.152 -0.152,-0.496001 -0.416,-0.952 l -1.648,-2.848 -0.528,3.544 c -0.008,0.04 -0.008,0.072 -0.008,0.12 0,0.272 0.112,0.352 0.616,0.408 l 0,0.128 -1.928,0 0,-0.128 c 0.448,-0.056 0.464,-0.08 0.632,-1.08 l 0.68,-4.16 0.152,0 2.984,4.92 c 0.136,0.216 0.264,0.312 0.448,0.32 l 0,0.128" /><path
       inkscape:connector-curvature="0"
       id="path3174"
       style="font-size:6px;font-style:italic;font-variant:normal;writing-mode:lr-tb;fill:#231f20;fill-opacity:1;fill-rule:nonzero;stroke:none;font-family:Times;-inkscape-font-specification:Times-Italic"
       d="m 72.7597,48.4755 0.222,1.194 -0.126,0 c -0.048,-0.096 -0.108,-0.132 -0.228,-0.132 -0.048,0 -0.12,0.012 -0.246,0.042 -0.27,0.066 -0.51,0.102 -0.702,0.102 -1.277999,0 -2.436,-1.206001 -2.436,-2.538 0,-0.917999 0.648001,-1.566 1.566,-1.566 0.617999,0 1.098001,0.264001 1.638,0.894 l -0.102,0.084 c -0.54,-0.527999 -0.888,-0.708 -1.38,-0.708 -0.665999,0 -1.05,0.456001 -1.05,1.23 0,0.713999 0.288,1.44 0.756,1.926 0.288,0.294 0.666,0.462 1.062,0.462 0.551999,0 0.858,-0.324001 0.918,-0.972 l 0.108,-0.018" /><path
       inkscape:connector-curvature="0"
       id="path3176"
       style="font-size:6px;font-style:italic;font-variant:normal;writing-mode:lr-tb;fill:#231f20;fill-opacity:1;fill-rule:nonzero;stroke:none;font-family:Times;-inkscape-font-specification:Times-Italic"
       d="m 76.6537,49.6035 -2.982,0 0,-0.096 c 0.372,-0.036 0.462,-0.084 0.462,-0.246 0,-0.066 -0.036,-0.276 -0.066,-0.384 l -0.738,-2.652 c -0.102,-0.342 -0.150001,-0.384 -0.486,-0.444 l 0,-0.096 3.042,0 0.372,0.972 -0.096,0.048 c -0.282,-0.384 -0.438,-0.54 -0.696,-0.66 -0.222,-0.102 -0.630001,-0.162 -1.08,-0.162 -0.336,0 -0.48,0.06 -0.48,0.204 0,0.066 0.066,0.348001 0.216,0.876 0.078,0.264 0.132,0.462 0.192,0.69 0.21,-0.012 0.396,-0.018 0.468,-0.018 0.234,0.006 0.402,-0.03 0.468,-0.09 0.03,-0.03 0.042,-0.084 0.042,-0.186 0,-0.102 -0.012,-0.18 -0.042,-0.312 l 0.12,-0.03 0.408,1.392 -0.108,0.024 c -0.228,-0.51 -0.282001,-0.546 -0.828,-0.57 -0.072,0 -0.264,-0.006 -0.474,-0.012 l 0.396,1.398 c 0.036,0.132 0.102,0.156 0.438,0.156 0.941999,0 1.152,-0.078 1.152,-0.438 0,-0.078 -0.006,-0.168 -0.012,-0.27 l 0.126,-0.012 0.186,0.918" /><path
       inkscape:connector-curvature="0"
       id="path3179"
       style="font-size:8px;font-style:italic;font-variant:normal;writing-mode:lr-tb;fill:#231f20;fill-opacity:1;fill-rule:nonzero;stroke:none;font-family:Times;-inkscape-font-specification:Times-Italic"
       d="m 36.6009,37.8997 -1.488,0 0,-0.128 c 0.36,-0.04 0.504,-0.12 0.504,-0.272 0,-0.152 -0.152,-0.496001 -0.416,-0.952 l -1.648,-2.848 -0.528,3.544 c -0.008,0.04 -0.008,0.072 -0.008,0.12 0,0.272 0.112,0.352 0.616,0.408 l 0,0.128 -1.928,0 0,-0.128 c 0.448,-0.056 0.464,-0.08 0.632,-1.08 l 0.68,-4.16 0.152,0 2.984,4.92 c 0.136,0.216 0.264,0.312 0.448,0.32 l 0,0.128" /><path
       inkscape:connector-curvature="0"
       id="path3182"
       style="font-size:6px;font-style:italic;font-variant:normal;writing-mode:lr-tb;fill:#231f20;fill-opacity:1;fill-rule:nonzero;stroke:none;font-family:Times;-inkscape-font-specification:Times-Italic"
       d="m 35.9364,30.6757 1.692,0 c 0.941999,0 1.59,0.492001 1.59,1.2 0,0.222 -0.072,0.432 -0.204,0.564 -0.12,0.138 -0.24,0.21 -0.552,0.342 0.426,0.102 0.6,0.174 0.792,0.342 0.168,0.144 0.258,0.348 0.258,0.588 0,0.569999 -0.426001,0.882 -1.2,0.882 l -1.548,0 0,-0.096 c 0.372,-0.03 0.462,-0.078 0.462,-0.246 0,-0.09 -0.024,-0.24 -0.066,-0.384 l -0.738,-2.652 c -0.108,-0.348 -0.15,-0.384 -0.486,-0.444 l 0,-0.096 m 1.476,1.986 c 0.39,0 0.642,-0.024 0.762,-0.072 0.246,-0.102 0.396,-0.366 0.396,-0.69 0,-0.647999 -0.444001,-1.044 -1.176,-1.044 -0.252,0 -0.384,0.09 -0.384,0.252 0,0.072 0.072,0.36 0.21,0.84 0.078,0.27 0.114,0.408 0.192,0.714 m 0.45,1.584 c 0.036,0.132 0.108,0.168 0.342,0.168 0.479999,0 0.702,-0.204 0.702,-0.648 0,-0.342 -0.144,-0.606 -0.402,-0.75 -0.204,-0.12 -0.492001,-0.162 -1.032,-0.162 l 0.39,1.392" /><path
       inkscape:connector-curvature="0"
       id="path3184"
       style="font-size:6px;font-style:italic;font-variant:normal;writing-mode:lr-tb;fill:#231f20;fill-opacity:1;fill-rule:nonzero;stroke:none;font-family:Times;-inkscape-font-specification:Times-Italic"
       d="m 43.4544,34.5937 -2.982,0 0,-0.096 c 0.372,-0.036 0.462,-0.084 0.462,-0.246 0,-0.066 -0.036,-0.276 -0.066,-0.384 l -0.738,-2.652 c -0.102,-0.342 -0.15,-0.384 -0.486,-0.444 l 0,-0.096 3.042,0 0.372,0.972 -0.096,0.048 c -0.282,-0.384 -0.438,-0.54 -0.696,-0.66 -0.222,-0.102 -0.630001,-0.162 -1.08,-0.162 -0.336,0 -0.48,0.06 -0.48,0.204 0,0.066 0.066,0.348001 0.216,0.876 0.078,0.264 0.132,0.462 0.192,0.69 0.21,-0.012 0.396,-0.018 0.468,-0.018 0.234,0.006 0.402,-0.03 0.468,-0.09 0.03,-0.03 0.042,-0.084 0.042,-0.186 0,-0.102 -0.012,-0.18 -0.042,-0.312 l 0.12,-0.03 0.408,1.392 -0.108,0.024 c -0.228,-0.51 -0.282001,-0.546 -0.828,-0.57 -0.072,0 -0.264,-0.006 -0.474,-0.012 l 0.396,1.398 c 0.036,0.132 0.102,0.156 0.438,0.156 0.941999,0 1.152,-0.078 1.152,-0.438 0,-0.078 -0.006,-0.168 -0.012,-0.27 l 0.126,-0.012 0.186,0.918" /><path
       inkscape:connector-curvature="0"
       id="path3187"
       style="font-size:8px;font-variant:normal;font-weight:normal;writing-mode:lr-tb;fill:#231f20;fill-opacity:1;fill-rule:nonzero;stroke:none;font-family:Symbol;-inkscape-font-specification:Symbol"
       d="m 37.723056,47.2377 -0.44,0 0,-1.912 -1.896,0 0,-0.44 1.896,0 0,-1.912 0.44,0 0,1.912 1.896,0 0,0.44 -1.896,0 0,1.912" /><path
       inkscape:connector-curvature="0"
       id="path3189"
       style="font-size:8px;font-variant:normal;font-weight:normal;writing-mode:lr-tb;fill:#231f20;fill-opacity:1;fill-rule:nonzero;stroke:none;font-family:Symbol;-inkscape-font-specification:Symbol"
       d="m 69.020757,63.2057 -0.44,0 0,-1.912 -1.896,0 0,-0.44 1.896,0 0,-1.912 0.44,0 0,1.912 1.896,0 0,0.44 -1.896,0 0,1.912" /><path
       inkscape:connector-curvature="0"
       id="path3191"
       style="font-size:8px;font-variant:normal;font-weight:normal;writing-mode:lr-tb;fill:#231f20;fill-opacity:1;fill-rule:nonzero;stroke:none;font-family:Symbol;-inkscape-font-specification:Symbol"
       d="m 48.395056,34.4355 0,-0.44 4.192,0 0,0.44 -4.192,0" /><path
       inkscape:connector-curvature="0"
       id="path3193"
       style="font-size:8px;font-variant:normal;font-weight:normal;writing-mode:lr-tb;fill:#231f20;fill-opacity:1;fill-rule:nonzero;stroke:none;font-family:Symbol;-inkscape-font-specification:Symbol"
       d="m 68.101355,37.69683 0,-0.44 4.192,0 0,0.44 -4.192,0" /></g></svg>