<?xml version="1.0" encoding="UTF-8" standalone="no"?>
<!-- Created with Inkscape (http://www.inkscape.org/) -->

<svg
   xmlns:dc="http://purl.org/dc/elements/1.1/"
   xmlns:cc="http://creativecommons.org/ns#"
   xmlns:rdf="http://www.w3.org/1999/02/22-rdf-syntax-ns#"
   xmlns:svg="http://www.w3.org/2000/svg"
   xmlns="http://www.w3.org/2000/svg"
   xmlns:sodipodi="http://sodipodi.sourceforge.net/DTD/sodipodi-0.dtd"
   xmlns:inkscape="http://www.inkscape.org/namespaces/inkscape"
   id="svg2"
   version="1.1"
   inkscape:version="0.48.4 r9939"
   width="199.9"
   height="143.5"
   xml:space="preserve"
   sodipodi:docname="S3-EE-03-IN006.svg"><metadata
     id="metadata8"><rdf:RDF><cc:Work
         rdf:about=""><dc:format>image/svg+xml</dc:format><dc:type
           rdf:resource="http://purl.org/dc/dcmitype/StillImage" /><dc:title></dc:title></cc:Work></rdf:RDF></metadata><defs
     id="defs6" /><sodipodi:namedview
     pagecolor="#ffffff"
     bordercolor="#666666"
     borderopacity="1"
     objecttolerance="10"
     gridtolerance="10"
     guidetolerance="10"
     inkscape:pageopacity="0"
     inkscape:pageshadow="2"
     inkscape:window-width="1366"
     inkscape:window-height="744"
     id="namedview4"
     showgrid="false"
     inkscape:zoom="4.1582196"
     inkscape:cx="99.983751"
     inkscape:cy="71.905719"
     inkscape:window-x="0"
     inkscape:window-y="24"
     inkscape:window-maximized="1"
     inkscape:current-layer="g10" /><g
     id="g10"
     inkscape:groupmode="layer"
     inkscape:label="ink_ext_XXXXXX"
     transform="matrix(1.25,0,0,-1.25,0,143.5)"><text
       transform="scale(1,-1)"
       id="text16"
       x="60.1824"
       y="-47.767601"><tspan
         style="font-size:8px;font-style:italic;font-variant:normal;writing-mode:lr-tb;fill:#231f20;fill-opacity:1;fill-rule:nonzero;stroke:none;font-family:Times;-inkscape-font-specification:Times-Italic"
         x="60.1824"
         y="-47.767601"
         id="tspan18">V</tspan></text>
<text
       transform="scale(1,-1)"
       id="text20"
       x="65.07029"
       y="-45.767601"><tspan
         style="font-size:6px;font-style:italic;font-variant:normal;writing-mode:lr-tb;fill:#231f20;fill-opacity:1;fill-rule:nonzero;stroke:none;font-family:Times;-inkscape-font-specification:Times-Italic"
         x="65.07029 68.73629"
         y="-45.767601"
         sodipodi:role="line"
         id="tspan22">BE</tspan></text>
<text
       transform="scale(1,-1)"
       id="text24"
       x="89.87339"
       y="-60.659801"><tspan
         style="font-size:8px;font-style:italic;font-variant:normal;writing-mode:lr-tb;fill:#231f20;fill-opacity:1;fill-rule:nonzero;stroke:none;font-family:Times;-inkscape-font-specification:Times-Italic"
         x="89.87339"
         y="-60.659801"
         id="tspan26">V</tspan></text>
<text
       transform="scale(1,-1)"
       id="text28"
       x="94.761276"
       y="-58.659801"><tspan
         style="font-size:6px;font-style:italic;font-variant:normal;writing-mode:lr-tb;fill:#231f20;fill-opacity:1;fill-rule:nonzero;stroke:none;font-family:Times;-inkscape-font-specification:Times-Italic"
         x="94.761276 98.763283"
         y="-58.659801"
         sodipodi:role="line"
         id="tspan30">CE</tspan></text>
<text
       transform="scale(1,-1)"
       id="text32"
       x="77.450378"
       y="-44.566799"><tspan
         style="font-size:8px;font-variant:normal;font-weight:normal;writing-mode:lr-tb;fill:#231f20;fill-opacity:1;fill-rule:nonzero;stroke:none;font-family:Symbol;-inkscape-font-specification:Symbol"
         x="77.450378"
         y="-44.566799"
         id="tspan34">−</tspan><tspan
         style="font-size:8px;font-variant:normal;font-weight:normal;writing-mode:lr-tb;fill:#231f20;fill-opacity:1;fill-rule:nonzero;stroke:none;font-family:Symbol;-inkscape-font-specification:Symbol"
         x="60.450378"
         y="-57.236698"
         id="tspan36">+</tspan><tspan
         style="font-size:8px;font-variant:normal;font-weight:normal;writing-mode:lr-tb;fill:#231f20;fill-opacity:1;fill-rule:nonzero;stroke:none;font-family:Symbol;-inkscape-font-specification:Symbol"
         x="90.899178"
         y="-74.583199"
         id="tspan38">+</tspan><tspan
         style="font-size:8px;font-variant:normal;font-weight:normal;writing-mode:lr-tb;fill:#231f20;fill-opacity:1;fill-rule:nonzero;stroke:none;font-family:Symbol;-inkscape-font-specification:Symbol"
         x="90.899178"
         y="-47.379299"
         id="tspan40">−</tspan></text>
<text
       transform="scale(1,-1)"
       id="text42"
       x="125.49688"
       y="-62.974815"><tspan
         style="font-size:8px;font-style:italic;font-variant:normal;writing-mode:lr-tb;fill:#231f20;fill-opacity:1;fill-rule:nonzero;stroke:none;font-family:Times;-inkscape-font-specification:Times-Italic"
         x="125.49688"
         y="-62.974815"
         id="tspan44">I</tspan></text>
<text
       transform="scale(1,-1)"
       id="text46"
       x="128.16093"
       y="-60.974785"><tspan
         style="font-size:6px;font-style:italic;font-variant:normal;writing-mode:lr-tb;fill:#231f20;fill-opacity:1;fill-rule:nonzero;stroke:none;font-family:Times;-inkscape-font-specification:Times-Italic"
         x="128.16093"
         y="-60.974785"
         id="tspan48">C</tspan></text>
<text
       transform="scale(1,-1)"
       id="text50"
       x="47.209339"
       y="-53.761299"><tspan
         style="font-size:8px;font-style:italic;font-variant:normal;writing-mode:lr-tb;fill:#231f20;fill-opacity:1;fill-rule:nonzero;stroke:none;font-family:Times;-inkscape-font-specification:Times-Italic"
         x="47.209339"
         y="-53.761299"
         id="tspan52">I</tspan></text>
<text
       transform="scale(1,-1)"
       id="text54"
       x="49.873402"
       y="-51.761299"><tspan
         style="font-size:6px;font-style:italic;font-variant:normal;writing-mode:lr-tb;fill:#231f20;fill-opacity:1;fill-rule:nonzero;stroke:none;font-family:Times;-inkscape-font-specification:Times-Italic"
         x="49.873402"
         y="-51.761299"
         id="tspan56">B</tspan></text>
<path
       inkscape:connector-curvature="0"
       id="path58"
       style="fill:none;stroke:#231f20;stroke-width:0.5;stroke-linecap:butt;stroke-linejoin:miter;stroke-miterlimit:4;stroke-opacity:1;stroke-dasharray:none"
       d="m 129.411,71.929408 0,10.75" /><path
       inkscape:connector-curvature="0"
       id="path60"
       style="fill:#231f20;fill-opacity:1;fill-rule:nonzero;stroke:none"
       d="m 129.411,82.296608 -1.352,-0.8211 -0.03,0.0465 0.875,2.2031 c 0.169,0.7676 0.338,1.5351 0.507,2.3027 0.169,-0.7676 0.338,-1.5351 0.506,-2.3027 l 0.875,-2.2031 -0.023,-0.0465 -1.358,0.8211" /><path
       inkscape:connector-curvature="0"
       id="path62"
       style="fill:none;stroke:#231f20;stroke-width:0.5;stroke-linecap:butt;stroke-linejoin:miter;stroke-miterlimit:4;stroke-opacity:1;stroke-dasharray:none"
       d="m 31.7777,56.8563 10.75,3e-4" /><path
       inkscape:connector-curvature="0"
       id="path64"
       style="fill:#231f20;fill-opacity:1;fill-rule:nonzero;stroke:none"
       d="m 42.1449,56.8566 -0.8211,1.3516 0.0457,0.0305 2.2032,-0.875 c 0.7675,-0.1692 1.5351,-0.3379 2.3027,-0.5071 -0.7676,-0.1687 -1.5352,-0.3378 -2.3027,-0.5066 l -2.2032,-0.875 -0.0457,0.0234 0.8211,1.3582" /><path
       inkscape:connector-curvature="0"
       id="path66"
       style="fill:none;stroke:#231f20;stroke-width:0.8;stroke-linecap:round;stroke-linejoin:round;stroke-miterlimit:3.86369991;stroke-opacity:1;stroke-dasharray:none"
       d="m 86.3043,11.552 -69.0832,0 0,53.4671" /><path
       inkscape:connector-curvature="0"
       id="path68"
       style="fill:none;stroke:#231f20;stroke-width:0.8;stroke-linecap:round;stroke-linejoin:round;stroke-miterlimit:3.86369991;stroke-opacity:1;stroke-dasharray:none"
       d="m 86.3043,76.2184 0,38.3346 53.9997,0" /><path
       inkscape:connector-curvature="0"
       id="path70"
       style="fill:none;stroke:#231f20;stroke-width:0.8;stroke-linecap:round;stroke-linejoin:round;stroke-miterlimit:3.86369991;stroke-opacity:1;stroke-dasharray:none"
       d="m 140.304,11.552 -53.9997,0 0,38.3675" /><path
       inkscape:connector-curvature="0"
       id="path72"
       style="fill:none;stroke:#231f20;stroke-width:0.8;stroke-linecap:round;stroke-linejoin:round;stroke-miterlimit:3.86369991;stroke-opacity:1;stroke-dasharray:none"
       d="m 140.304,63.4059 0,-51.8539" /><path
       inkscape:connector-curvature="0"
       id="path74"
       style="fill:none;stroke:#231f20;stroke-width:0.8;stroke-linecap:round;stroke-linejoin:round;stroke-miterlimit:3.86369991;stroke-opacity:1;stroke-dasharray:none"
       d="m 140.304,114.553 0,-51.1471" /><path
       inkscape:connector-curvature="0"
       id="path3219"
       style="font-size:8px;font-variant:normal;font-weight:normal;writing-mode:lr-tb;fill:#231f20;fill-opacity:1;fill-rule:nonzero;stroke:none;font-family:Times;-inkscape-font-specification:Times-Roman"
       d="m 148.47,39.79587 -1.44,-0.728 0,-0.112 c 0.096,0.04 0.184,0.072 0.216,0.088 0.144,0.056 0.28,0.088 0.36,0.088 0.168,0 0.24,-0.12 0.24,-0.376 l 0,-3.624 c 0,-0.264 -0.064,-0.448 -0.192,-0.52 -0.12,-0.072 -0.232,-0.096 -0.568,-0.104 l 0,-0.12 2.208,0 0,0.12 c -0.632,0.008 -0.76,0.088 -0.76,0.472 l 0,4.8 -0.064,0.016" /><path
       inkscape:connector-curvature="0"
       id="path3221"
       style="font-size:8px;font-variant:normal;font-weight:normal;writing-mode:lr-tb;fill:#231f20;fill-opacity:1;fill-rule:nonzero;stroke:none;font-family:Times;-inkscape-font-specification:Times-Roman"
       d="m 152.174,39.79587 c -0.44,0 -0.776,-0.136 -1.072,-0.416 -0.464,-0.448 -0.768,-1.368001 -0.768,-2.304 0,-0.871999 0.264,-1.808001 0.64,-2.256 0.296,-0.352 0.704,-0.544 1.168,-0.544 0.408,0 0.752,0.136 1.04,0.416 0.464,0.439999 0.768,1.368001 0.768,2.336 0,1.639998 -0.728,2.768 -1.776,2.768 m -0.024,-0.208 c 0.672,0 1.032,-0.904002 1.032,-2.576 0,-1.671998 -0.352,-2.528 -1.04,-2.528 -0.688,0 -1.04,0.856002 -1.04,2.52 0,1.695998 0.36,2.584 1.048,2.584" /><path
       inkscape:connector-curvature="0"
       id="path3223"
       style="font-size:8px;font-variant:normal;font-weight:normal;writing-mode:lr-tb;fill:#231f20;fill-opacity:1;fill-rule:nonzero;stroke:none;font-family:Times;-inkscape-font-specification:Times-Roman"
       d="m 159.718,39.68387 -1.64,0 0,-0.152 c 0.44,-0.024 0.584,-0.112 0.584,-0.336 0,-0.128 -0.056,-0.344 -0.152,-0.584 l -1.176,-2.936 -1.208,2.704 c -0.264,0.583999 -0.328,0.768 -0.328,0.888 0,0.152 0.112,0.232 0.368,0.248 0.032,0 0.12,0.008 0.232,0.016 l 0,0.152 -2.128,0 0,-0.152 c 0.392,-0.016 0.504,-0.128001 0.848,-0.84 l 1.968,-4.392 0.12,0 1.776,4.488 c 0.264,0.631999 0.352,0.72 0.736,0.744 l 0,0.152" /><path
       inkscape:connector-curvature="0"
       id="path3225"
       style="font-size:8px;font-variant:normal;font-weight:normal;writing-mode:lr-tb;fill:#231f20;fill-opacity:1;fill-rule:nonzero;stroke:none;font-family:Times;-inkscape-font-specification:Times-Roman"
       d="m 1.4480017,39.085894 1.568,0 c 0.1279999,0 0.16,0.016 0.184,0.072 l 0.304,0.712 -0.072,0.056 c -0.1199999,-0.168 -0.2000002,-0.208 -0.368,-0.208 l -1.672,0 -0.87199999,-1.896 c -0.008,-0.016 -0.008,-0.024 -0.008,-0.04 0,-0.04 0.0320001,-0.064 0.096,-0.064 0.25599974,0 0.57600029,-0.056 0.90399999,-0.16 0.9199991,-0.296 1.344,-0.792001 1.344,-1.584 0,-0.767999 -0.4880006,-1.368 -1.112,-1.368 -0.1599998,0 -0.2960002,0.056 -0.536,0.232 -0.25599974,0.184 -0.44000016,0.264 -0.60799999,0.264 -0.23199977,0 -0.344,-0.096 -0.344,-0.296 0,-0.304 0.3760006,-0.496 0.97599999,-0.496 0.6719993,0 1.2480004,0.216 1.648,0.624 0.3679996,0.36 0.536,0.816001 0.536,1.424 0,0.575999 -0.1520004,0.944 -0.552,1.344 -0.3519996,0.352 -0.8080009,0.536 -1.752,0.704 l 0.336,0.68" /><path
       inkscape:connector-curvature="0"
       id="path3227"
       style="font-size:8px;font-variant:normal;font-weight:normal;writing-mode:lr-tb;fill:#231f20;fill-opacity:1;fill-rule:nonzero;stroke:none;font-family:Times;-inkscape-font-specification:Times-Roman"
       d="m 9.5760019,39.717894 -1.64,0 0,-0.152 c 0.4399996,-0.024 0.584,-0.112 0.584,-0.336 0,-0.128 -0.056,-0.344 -0.152,-0.584 l -1.176,-2.936 -1.208,2.704 c -0.2639997,0.583999 -0.328,0.768 -0.328,0.888 0,0.152 0.1120003,0.232 0.368,0.248 0.032,0 0.1200001,0.008 0.232,0.016 l 0,0.152 -2.128,0 0,-0.152 c 0.3919996,-0.016 0.5040004,-0.128001 0.848,-0.84 l 1.968,-4.392 0.12,0 1.776,4.488 c 0.2639997,0.631999 0.3520004,0.72 0.736,0.744 l 0,0.152" /><path
       inkscape:connector-curvature="0"
       id="path3229"
       style="font-size:8px;font-variant:normal;font-weight:normal;writing-mode:lr-tb;fill:#231f20;fill-opacity:1;fill-rule:nonzero;stroke:none;font-family:Times;-inkscape-font-specification:Times-Roman"
       d="m 147.3328,81.556604 -1.44,-0.728 0,-0.112 c 0.096,0.04 0.184,0.072 0.216,0.088 0.144,0.056 0.28,0.088 0.36,0.088 0.168,0 0.24,-0.12 0.24,-0.376 l 0,-3.624 c 0,-0.264 -0.064,-0.448 -0.192,-0.52 -0.12,-0.072 -0.232,-0.096 -0.568,-0.104 l 0,-0.12 2.208,0 0,0.12 c -0.632,0.008 -0.76,0.088 -0.76,0.472 l 0,4.8 -0.064,0.016" /><path
       inkscape:connector-curvature="0"
       id="path3231"
       style="font-size:8px;font-variant:normal;font-weight:normal;writing-mode:lr-tb;fill:#231f20;fill-opacity:1;fill-rule:nonzero;stroke:none;font-family:Times;-inkscape-font-specification:Times-Roman"
       d="m 149.0608,81.132604 c 0.104,0.008 0.176,0.016 0.256,0.016 0.264,0 0.344,-0.104001 0.344,-0.488 l 0,-3.856 c 0,-0.416 -0.024,-0.44 -0.6,-0.536 l 0,-0.12 1.872,0 0,0.12 -0.16,0.008 c -0.32,0.016 -0.44,0.128 -0.44,0.408 l 0,1.472 1.12,-1.496 0.024,-0.032 c 0.016,-0.024 0.032,-0.048 0.056,-0.072 0.064,-0.08 0.088,-0.128 0.088,-0.168 0,-0.072 -0.072,-0.12 -0.168,-0.12 l -0.152,0 0,-0.12 1.744,0 0,0.12 c -0.352,0.024 -0.6,0.176 -0.936,0.584 l -1.224,1.552 0.232,0.216 c 0.568,0.527999 1.064,0.896 1.296,0.96 0.12,0.032 0.232,0.048 0.368,0.048 l 0.064,0 0,0.12 -1.632,0 0,-0.112 c 0.312,-0.008 0.4,-0.04 0.4,-0.152 0,-0.064 -0.072,-0.176 -0.184,-0.272 l -1.096,-0.976 0,3.36 -0.032,0.016 c -0.304,-0.096 -0.536,-0.16 -1,-0.288 l -0.24,-0.064 0,-0.128" /><text
       transform="scale(1,-1)"
       id="text86"
       x="153.00481"
       y="-76.14872"><tspan
         style="font-size:8px;font-variant:normal;font-weight:normal;writing-mode:lr-tb;fill:#231f20;fill-opacity:1;fill-rule:nonzero;stroke:none;font-family:Symbol;-inkscape-font-specification:Symbol"
         x="153.00481"
         y="-76.14872"
         id="tspan88">Ω</tspan></text>
<text
       transform="scale(1,-1)"
       id="text90"
       x="32.120998"
       y="-71.922409"><tspan
         style="font-size:8px;font-variant:normal;font-weight:normal;writing-mode:lr-tb;fill:#231f20;fill-opacity:1;fill-rule:nonzero;stroke:none;font-family:Times;-inkscape-font-specification:Times-Roman"
         x="32.120998 36.120998 40.120998 44.120998 46.120998"
         y="-71.922409"
         sodipodi:role="line"
         id="tspan92">100 k</tspan></text>
<text
       transform="scale(1,-1)"
       id="text94"
       x="50.120998"
       y="-71.922409"><tspan
         style="font-size:8px;font-variant:normal;font-weight:normal;writing-mode:lr-tb;fill:#231f20;fill-opacity:1;fill-rule:nonzero;stroke:none;font-family:Symbol;-inkscape-font-specification:Symbol"
         x="50.120998"
         y="-71.922409"
         id="tspan96">Ω</tspan></text>
<path
       inkscape:connector-curvature="0"
       id="path98"
       style="fill:#ffffff;fill-opacity:1;fill-rule:nonzero;stroke:none;stroke-width:0.8;stroke-miterlimit:3.86369991;stroke-dasharray:none"
       d="m 135.104,30.835068 10.3141,0 0,11.5586 -10.3141,0 0,-11.5586 z" /><path
       inkscape:connector-curvature="0"
       id="path100"
       style="fill:none;stroke:#231f20;stroke-width:0.80000001;stroke-linecap:round;stroke-linejoin:round;stroke-miterlimit:3.86369991;stroke-opacity:1;stroke-dasharray:none"
       d="m 145.45199,39.327668 -10.314,0" /><path
       inkscape:connector-curvature="0"
       id="path102"
       style="fill:none;stroke:#231f20;stroke-width:0.80000001;stroke-linecap:round;stroke-linejoin:round;stroke-miterlimit:3.86369991;stroke-opacity:1;stroke-dasharray:none"
       d="m 143.47999,35.868368 -6.369,0" /><path
       inkscape:connector-curvature="0"
       id="path104"
       style="fill:none;stroke:#231f20;stroke-width:0.8;stroke-linecap:round;stroke-linejoin:round;stroke-miterlimit:3.86369991;stroke-opacity:1;stroke-dasharray:none"
       d="m 140.261,35.501168 0,-4.6661" /><path
       inkscape:connector-curvature="0"
       id="path106"
       style="fill:none;stroke:#231f20;stroke-width:0.80000001;stroke-linecap:round;stroke-linejoin:round;stroke-miterlimit:3.86369991;stroke-opacity:1;stroke-dasharray:none"
       d="m 140.29499,43.993668 0,-4.666" /><path
       inkscape:connector-curvature="0"
       id="path108"
       style="fill:#ffffff;fill-opacity:1;fill-rule:nonzero;stroke:none"
       d="m 12.0587,31.523 10.3145,0 0,11.5586 -10.3145,0 0,-11.5586 z" /><path
       inkscape:connector-curvature="0"
       id="path110"
       style="fill:none;stroke:#231f20;stroke-width:0.80000001;stroke-linecap:round;stroke-linejoin:round;stroke-miterlimit:3.86369991;stroke-opacity:1;stroke-dasharray:none"
       d="m 22.3732,40.0156 -10.3145,0" /><path
       inkscape:connector-curvature="0"
       id="path112"
       style="fill:none;stroke:#231f20;stroke-width:0.80000001;stroke-linecap:round;stroke-linejoin:round;stroke-miterlimit:3.86369991;stroke-opacity:1;stroke-dasharray:none"
       d="m 20.4005,36.5563 -6.3691,0" /><path
       inkscape:connector-curvature="0"
       id="path114"
       style="fill:none;stroke:#231f20;stroke-width:0.80000001;stroke-linecap:round;stroke-linejoin:round;stroke-miterlimit:3.86369991;stroke-opacity:1;stroke-dasharray:none"
       d="m 17.2162,36.1891 0,-4.6661" /><path
       inkscape:connector-curvature="0"
       id="path116"
       style="fill:none;stroke:#231f20;stroke-width:0.80000001;stroke-linecap:round;stroke-linejoin:round;stroke-miterlimit:3.86369991;stroke-opacity:1;stroke-dasharray:none"
       d="m 17.2162,44.6816 0,-4.666" /><path
       inkscape:connector-curvature="0"
       id="path118"
       style="fill:#ffffff;fill-opacity:1;fill-rule:nonzero;stroke:none"
       d="m 136.723,61.542708 7.46914,0 0,32.4508 -7.46914,0 0,-32.4508 z" /><path
       inkscape:connector-curvature="0"
       id="path120"
       style="fill:none;stroke:#231f20;stroke-width:0.80000001;stroke-linecap:round;stroke-linejoin:round;stroke-miterlimit:3.86369991;stroke-opacity:1;stroke-dasharray:none"
       d="m 140.32002,61.320408 0,3.6109 -3.59702,1.5703 7.469,3.15 -7.469,3.1954 7.469,3.1972 -7.469,3.1504 7.469,3.1231 -7.469,3.1504 7.373,3.1972 -3.77598,1.5293 0,3.799"
       sodipodi:nodetypes="cccccccccccc" /><path
       inkscape:connector-curvature="0"
       id="path122"
       style="fill:none;stroke:#231f20;stroke-width:0.8;stroke-linecap:round;stroke-linejoin:round;stroke-miterlimit:3.86369991;stroke-opacity:1;stroke-dasharray:none"
       d="m 17.2211,65.0191 50.916,0.0024" /><path
       inkscape:connector-curvature="0"
       id="path124"
       style="fill:#ffffff;fill-opacity:1;fill-rule:nonzero;stroke:none"
       d="m 26.4039,61.3219 32.4512,0 0,7.46875 -32.4512,0 0,-7.46875 z" /><path
       inkscape:connector-curvature="0"
       id="path126"
       style="fill:none;stroke:#231f20;stroke-width:0.80000001;stroke-linecap:round;stroke-linejoin:round;stroke-miterlimit:3.86369991;stroke-opacity:1;stroke-dasharray:none"
       d="m 59.0777,65.0215 -3.6125,0 -1.5703,-3.6996 -3.1492,7.4687 -3.1953,-7.4687 -3.1973,7.4687 -3.1504,-7.4687 -3.123,7.4687 -3.1504,-7.4687 -3.1973,7.373 -1.5293,-3.6734 -3.7988,0" /><path
       inkscape:connector-curvature="0"
       id="path128"
       style="fill:none;stroke:#231f20;stroke-width:0.80000001;stroke-linecap:round;stroke-linejoin:round;stroke-miterlimit:3.86369991;stroke-opacity:1;stroke-dasharray:none"
       d="m 86.3473,12.116 0,-6.42889" /><path
       inkscape:connector-curvature="0"
       id="path130"
       style="fill:none;stroke:#231f20;stroke-width:0.80000001;stroke-linecap:round;stroke-linejoin:round;stroke-miterlimit:3.86369991;stroke-opacity:1;stroke-dasharray:none"
       d="m 93.3473,5.68711 -14,0" /><path
       inkscape:connector-curvature="0"
       id="path132"
       style="fill:none;stroke:#231f20;stroke-width:0.80000001;stroke-linecap:round;stroke-linejoin:round;stroke-miterlimit:3.86369991;stroke-opacity:1;stroke-dasharray:none"
       d="m 91.8473,3.04219 -11,0" /><path
       inkscape:connector-curvature="0"
       id="path134"
       style="fill:none;stroke:#231f20;stroke-width:0.80000001;stroke-linecap:round;stroke-linejoin:round;stroke-miterlimit:3.86369991;stroke-opacity:1;stroke-dasharray:none"
       d="m 90.3473,0.49614992 -8,0" /><path
       inkscape:connector-curvature="0"
       id="path136"
       style="fill:none;stroke:#231f20;stroke-width:0.80000001;stroke-linecap:round;stroke-linejoin:round;stroke-miterlimit:3.86369991;stroke-opacity:1;stroke-dasharray:none"
       d="m 69.3988,70.3125 16.8418,6.0293" /><path
       inkscape:connector-curvature="0"
       id="path138"
       style="fill:none;stroke:#231f20;stroke-width:2;stroke-linecap:round;stroke-linejoin:round;stroke-miterlimit:3.86369991;stroke-opacity:1;stroke-dasharray:none"
       d="m 69.0414,56.084 0,18.8043" /><path
       inkscape:connector-curvature="0"
       id="path140"
       style="fill:none;stroke:#231f20;stroke-width:0.80000001;stroke-linecap:round;stroke-linejoin:round;stroke-miterlimit:3.86369991;stroke-opacity:1;stroke-dasharray:none"
       d="M 69.7934,59.3395 83.9262,51.4078" /><path
       inkscape:connector-curvature="0"
       id="path142"
       style="fill:#231f20;fill-opacity:1;fill-rule:nonzero;stroke:none"
       d="m 81.2035,52.6875 -0.0898,2.527 0.0898,0.0078 2.3887,-2.9469 c 0.9375,-0.8363 1.8769,-1.6742 2.8144,-2.5102 -1.2031,0.3653 -2.4062,0.7309 -3.6093,1.0957 l -3.7578,0.5063 -0.0469,0.068 2.2109,1.2523" /><path
       inkscape:connector-curvature="0"
       id="path144"
       style="fill:#231f20;fill-opacity:1;fill-rule:nonzero;stroke:none"
       d="m 88.0141,11.552 c 0,-0.9211 -0.7461,-1.66684 -1.6668,-1.66684 -0.9211,0 -1.6672,0.74574 -1.6672,1.66684 0,0.921 0.7461,1.6671 1.6672,1.6671 0.9207,0 1.6668,-0.7461 1.6668,-1.6671" /></g></svg>