<?xml version="1.0" encoding="UTF-8" standalone="no"?>
<!-- Created with Inkscape (http://www.inkscape.org/) -->

<svg
   xmlns:dc="http://purl.org/dc/elements/1.1/"
   xmlns:cc="http://creativecommons.org/ns#"
   xmlns:rdf="http://www.w3.org/1999/02/22-rdf-syntax-ns#"
   xmlns:svg="http://www.w3.org/2000/svg"
   xmlns="http://www.w3.org/2000/svg"
   xmlns:sodipodi="http://sodipodi.sourceforge.net/DTD/sodipodi-0.dtd"
   xmlns:inkscape="http://www.inkscape.org/namespaces/inkscape"
   id="svg2"
   version="1.1"
   inkscape:version="0.48.4 r9939"
   width="270.975"
   height="235.075"
   xml:space="preserve"
   sodipodi:docname="S3-EE-03-049.eps"><metadata
     id="metadata8"><rdf:RDF><cc:Work
         rdf:about=""><dc:format>image/svg+xml</dc:format><dc:type
           rdf:resource="http://purl.org/dc/dcmitype/StillImage" /><dc:title></dc:title></cc:Work></rdf:RDF></metadata><defs
     id="defs6" /><sodipodi:namedview
     pagecolor="#ffffff"
     bordercolor="#666666"
     borderopacity="1"
     objecttolerance="10"
     gridtolerance="10"
     guidetolerance="10"
     inkscape:pageopacity="0"
     inkscape:pageshadow="2"
     inkscape:window-width="1366"
     inkscape:window-height="744"
     id="namedview4"
     showgrid="false"
     inkscape:zoom="2.539615"
     inkscape:cx="135.4875"
     inkscape:cy="117.5375"
     inkscape:window-x="0"
     inkscape:window-y="24"
     inkscape:window-maximized="1"
     inkscape:current-layer="g10" /><g
     id="g10"
     inkscape:groupmode="layer"
     inkscape:label="ink_ext_XXXXXX"
     transform="matrix(1.25,0,0,-1.25,0,235.075)"><path
       inkscape:connector-curvature="0"
       id="path14"
       style="fill:none;stroke:#231f20;stroke-width:0.80000000000000004;stroke-linecap:round;stroke-linejoin:miter;stroke-miterlimit:4;stroke-opacity:1;stroke-dasharray:none"
       d="m 206.132,101.106 -69.891,0" /><path
       inkscape:connector-curvature="0"
       id="path16"
       style="fill:#231f20;fill-opacity:1;fill-rule:nonzero;stroke:none"
       d="m 100.89,60.1941 4.85508,0 0,0.617969 -4.85508,0 0,-0.617969 z" /><path
       inkscape:connector-curvature="0"
       id="path18"
       style="fill:#231f20;fill-opacity:1;fill-rule:nonzero;stroke:none"
       d="m 100.89,58.2621 4.85508,0 0,0.617969 -4.85508,0 0,-0.617969 z" /><path
       inkscape:connector-curvature="0"
       id="path20"
       style="fill:#231f20;fill-opacity:1;fill-rule:nonzero;stroke:none"
       d="m 100.89,62.1238 4.85508,0 0,0.619141 -4.85508,0 0,-0.619141 z" /><path
       inkscape:connector-curvature="0"
       id="path22"
       style="fill:none;stroke:#231f20;stroke-width:0.8;stroke-linecap:butt;stroke-linejoin:miter;stroke-miterlimit:4;stroke-opacity:1;stroke-dasharray:none"
       d="m 7.27148,98.7797 0,86.3303" /><path
       inkscape:connector-curvature="0"
       id="path24"
       style="fill:none;stroke:#231f20;stroke-width:0.8;stroke-linecap:butt;stroke-linejoin:miter;stroke-miterlimit:4;stroke-opacity:1;stroke-dasharray:none"
       d="m 7.27148,12.2949 0,86.4848" /><path
       inkscape:connector-curvature="0"
       id="path26"
       style="fill:none;stroke:#231f20;stroke-width:0.8;stroke-linecap:butt;stroke-linejoin:miter;stroke-miterlimit:4;stroke-opacity:1;stroke-dasharray:none"
       d="m 77.1348,12.2949 -69.86332,0" /><path
       inkscape:connector-curvature="0"
       id="path3120"
       style="font-size:8px;font-style:italic;font-variant:normal;writing-mode:lr-tb;fill:#231f20;fill-opacity:1;fill-rule:nonzero;stroke:none;font-family:Times;-inkscape-font-specification:Times-Italic"
       d="m 82.059,95.5289 2.256,0 c 1.255999,0 2.12,0.656001 2.12,1.6 0,0.296 -0.096,0.576 -0.272,0.752 -0.16,0.184 -0.32,0.28 -0.736,0.456 0.567999,0.136 0.8,0.232 1.056,0.456 0.224,0.192 0.344,0.464 0.344,0.784 0,0.76 -0.568001,1.176 -1.6,1.176 l -2.064,0 0,-0.128 c 0.496,-0.04 0.616,-0.104 0.616,-0.328 0,-0.12 -0.032,-0.32 -0.088,-0.512 l -0.984,-3.536 c -0.144,-0.464 -0.2,-0.512 -0.648,-0.592 l 0,-0.128 m 1.968,2.648 c 0.519999,0 0.856,-0.032 1.016,-0.096 0.328,-0.136 0.528,-0.488 0.528,-0.92 0,-0.863999 -0.592001,-1.392 -1.568,-1.392 -0.336,0 -0.512,0.12 -0.512,0.336 0,0.096 0.096,0.480001 0.28,1.12 0.104,0.36 0.152,0.544 0.256,0.952 m 0.6,2.112 c 0.048,0.176 0.144,0.224 0.456,0.224 0.639999,0 0.936,-0.272 0.936,-0.864 0,-0.456 -0.192,-0.808 -0.536,-1 -0.272,-0.16 -0.656001,-0.216 -1.376,-0.216 l 0.52,1.856" /><path
       inkscape:connector-curvature="0"
       id="path3122"
       style="font-size:8px;font-style:italic;font-variant:normal;writing-mode:lr-tb;fill:#231f20;fill-opacity:1;fill-rule:nonzero;stroke:none;font-family:Times;-inkscape-font-specification:Times-Italic"
       d="m 125.0758,62.245099 -1.488,0 0,-0.128 c 0.36,-0.04 0.504,-0.12 0.504,-0.272 0,-0.152 -0.152,-0.496001 -0.416,-0.952 l -1.648,-2.848 -0.528,3.544 c -0.008,0.04 -0.008,0.072 -0.008,0.12 0,0.272 0.112,0.352 0.616,0.408 l 0,0.128 -1.928,0 0,-0.128 c 0.448,-0.056 0.464,-0.08 0.632,-1.08 l 0.68,-4.16 0.152,0 2.984,4.92 c 0.136,0.216 0.264,0.312 0.448,0.32 l 0,0.128" /><path
       inkscape:connector-curvature="0"
       id="path3125"
       style="font-size:6px;font-style:italic;font-variant:normal;writing-mode:lr-tb;fill:#231f20;fill-opacity:1;fill-rule:nonzero;stroke:none;font-family:Times;-inkscape-font-specification:Times-Italic"
       d="m 128.25808,58.9391 -3.192,0 -0.252,-0.924 0.108,-0.024 c 0.318,0.647999 0.51,0.75 1.428,0.738 l -0.864,-3.168 c -0.096,-0.318 -0.24,-0.414 -0.636,-0.444 l 0,-0.096 1.74,0 0,0.096 c -0.102,0.006 -0.192,0.018 -0.228,0.018 -0.24,0.018 -0.312,0.072 -0.312,0.252 0,0.078 0.018,0.15 0.072,0.354 l 0.834,2.988 0.33,0 c 0.432,0 0.624,-0.15 0.624,-0.486 0,-0.078 -0.006,-0.168 -0.018,-0.27 l 0.102,-0.012 0.264,0.978" /><path
       inkscape:connector-curvature="0"
       id="path3128"
       style="font-size:8px;font-style:italic;font-variant:normal;writing-mode:lr-tb;fill:#231f20;fill-opacity:1;fill-rule:nonzero;stroke:none;font-family:Times;-inkscape-font-specification:Times-Italic"
       d="m 172.36288,108.8503 c -0.352,0.024 -0.512,0.16 -0.664,0.576 l -0.744,1.96 c 0.616,0.136 0.88,0.248 1.168,0.504 0.264,0.232 0.408,0.544 0.408,0.904 0,0.744 -0.592,1.152 -1.664,1.152 l -1.984,0 0,-0.128 c 0.336,-0.048 0.376,-0.056 0.456,-0.112 0.064,-0.04 0.112,-0.136 0.112,-0.224 0,-0.096 -0.04,-0.288 -0.096,-0.504 l -0.984,-3.536 c -0.144,-0.472 -0.2,-0.52 -0.648,-0.592 l 0,-0.128 1.952,0 0,0.128 c -0.488,0.064 -0.544,0.104 -0.544,0.368 0,0.08 0.024,0.184 0.096,0.464 l 0.448,1.672 0.52,-0.04 0.984,-2.592 1.184,0 0,0.128 m -2.072,4.632 c 0.048,0.168 0.152,0.224 0.408,0.224 0.664,0 0.992,-0.304 0.992,-0.896 0,-0.792 -0.512,-1.2 -1.512,-1.2 -0.128,0 -0.216,0.008 -0.408,0.04 l 0.52,1.832" /><path
       inkscape:connector-curvature="0"
       id="path3131"
       style="font-size:6px;font-style:italic;font-variant:normal;writing-mode:lr-tb;fill:#231f20;fill-opacity:1;fill-rule:nonzero;stroke:none;font-family:Times;-inkscape-font-specification:Times-Italic"
       d="m 176.51277,110.6403 -3.192,0 -0.252,-0.924 0.108,-0.024 c 0.318,0.648 0.51,0.75 1.428,0.738 l -0.864,-3.168 c -0.096,-0.318 -0.24,-0.414 -0.636,-0.444 l 0,-0.096 1.74,0 0,0.096 c -0.102,0.006 -0.192,0.018 -0.228,0.018 -0.24,0.018 -0.312,0.072 -0.312,0.252 0,0.078 0.018,0.15 0.072,0.354 l 0.834,2.988 0.33,0 c 0.432,0 0.624,-0.15 0.624,-0.486 0,-0.078 -0.006,-0.168 -0.018,-0.27 l 0.102,-0.012 0.264,0.978" /><path
       inkscape:connector-curvature="0"
       id="path3134"
       style="font-size:8px;font-style:italic;font-variant:normal;writing-mode:lr-tb;fill:#231f20;fill-opacity:1;fill-rule:nonzero;stroke:none;font-family:Times;-inkscape-font-specification:Times-Italic"
       d="m 87.77687,14.2561 -1.592,0 0,-0.128 c 0.455999,-0.04 0.56,-0.12 0.56,-0.408 0,-0.096 -0.016,-0.192 -0.072,-0.352 -0.008,-0.024 -0.016,-0.056 -0.016,-0.064 l -0.816,-3.04 -1.664,3.992 -1.288,0 0,-0.128 c 0.376,-0.032 0.544,-0.136 0.688,-0.448 l -0.952,-3.336 c -0.304,-1.023999 -0.368,-1.1200001 -0.824,-1.184 l 0,-0.128 1.584,0 0,0.128 c -0.408,0.032 -0.56,0.1200002 -0.56,0.344 0,0.1039999 0.024,0.2640002 0.072,0.432 l 0.912,3.376 1.84,-4.4 0.144,0 1.152,4.024 c 0.296,1.031999 0.328,1.08 0.832,1.192 l 0,0.128" /><path
       inkscape:connector-curvature="0"
       id="path3136"
       style="font-size:8px;font-style:italic;font-variant:normal;writing-mode:lr-tb;fill:#231f20;fill-opacity:1;fill-rule:nonzero;stroke:none;font-family:Times;-inkscape-font-specification:Times-Italic"
       d="m 19.913671,142.4421 c -0.351999,0.024 -0.512,0.16 -0.664,0.576 l -0.744,1.96 c 0.616,0.136 0.880001,0.248 1.168,0.504 0.264,0.232 0.408,0.544 0.408,0.904 0,0.744 -0.592001,1.152 -1.664,1.152 l -1.984,0 0,-0.128 c 0.336,-0.048 0.376001,-0.056 0.456,-0.112 0.064,-0.04 0.112,-0.136 0.112,-0.224 0,-0.096 -0.04,-0.288 -0.096,-0.504 l -0.984,-3.536 c -0.143999,-0.472 -0.2,-0.52 -0.648,-0.592 l 0,-0.128 1.952,0 0,0.128 c -0.487999,0.064 -0.544,0.104 -0.544,0.368 0,0.08 0.024,0.184 0.096,0.464 l 0.448,1.672 0.52,-0.04 0.984,-2.592 1.184,0 0,0.128 m -2.072,4.632 c 0.048,0.168 0.152001,0.224 0.408,0.224 0.664,0 0.992,-0.304 0.992,-0.896 0,-0.792 -0.512001,-1.2 -1.512,-1.2 -0.127999,0 -0.216,0.008 -0.408,0.04 l 0.52,1.832" /><path
       inkscape:connector-curvature="0"
       id="path3139"
       style="font-size:6px;font-variant:normal;font-weight:normal;writing-mode:lr-tb;fill:#231f20;fill-opacity:1;fill-rule:nonzero;stroke:none;font-family:Times;-inkscape-font-specification:Times-Roman"
       d="m 22.01156,144.3701 -1.08,-0.546 0,-0.084 c 0.072,0.03 0.138,0.054 0.162,0.066 0.108,0.042 0.21,0.066 0.27,0.066 0.126,0 0.18,-0.09 0.18,-0.282 l 0,-2.718 c 0,-0.198 -0.048,-0.336 -0.144,-0.39 -0.09,-0.054 -0.174,-0.072 -0.426,-0.078 l 0,-0.09 1.656,0 0,0.09 c -0.474,0.006 -0.57,0.066 -0.57,0.354 l 0,3.6 -0.048,0.012" /><path
       inkscape:connector-curvature="0"
       id="path3142"
       style="font-size:8px;font-style:italic;font-variant:normal;writing-mode:lr-tb;fill:#231f20;fill-opacity:1;fill-rule:nonzero;stroke:none;font-family:Times;-inkscape-font-specification:Times-Italic"
       d="m 19.91367,50.2499 c -0.352,0.024 -0.512,0.16 -0.664,0.576 l -0.744,1.96 c 0.615999,0.136 0.88,0.248 1.168,0.504 0.264,0.232 0.408,0.544 0.408,0.904 0,0.743999 -0.592001,1.152 -1.664,1.152 l -1.984,0 0,-0.128 c 0.336,-0.048 0.376,-0.056 0.456,-0.112 0.064,-0.04 0.112,-0.136 0.112,-0.224 0,-0.096 -0.04,-0.288 -0.096,-0.504 l -0.984,-3.536 c -0.144,-0.472 -0.2,-0.52 -0.648,-0.592 l 0,-0.128 1.952,0 0,0.128 c -0.488,0.064 -0.544,0.104 -0.544,0.368 0,0.08 0.024,0.184 0.096,0.464 l 0.448,1.672 0.52,-0.04 0.984,-2.592 1.184,0 0,0.128 m -2.072,4.632 c 0.048,0.168 0.152,0.224 0.408,0.224 0.663999,0 0.992,-0.304001 0.992,-0.896 0,-0.791999 -0.512001,-1.2 -1.512,-1.2 -0.128,0 -0.216,0.008 -0.408,0.04 l 0.52,1.832" /><path
       inkscape:connector-curvature="0"
       id="path3145"
       style="font-size:6px;font-variant:normal;font-weight:normal;writing-mode:lr-tb;fill:#231f20;fill-opacity:1;fill-rule:nonzero;stroke:none;font-family:Times;-inkscape-font-specification:Times-Roman"
       d="m 23.11556,48.9439 -0.078,0.03 c -0.222,-0.342 -0.3,-0.396 -0.57,-0.396 l -1.434,0 1.008,1.056 c 0.533999,0.557999 0.768,1.014 0.768,1.482 0,0.599999 -0.486001,1.062 -1.11,1.062 -0.33,0 -0.642,-0.132 -0.864,-0.372 -0.192,-0.204 -0.282,-0.396 -0.384,-0.822 l 0.126,-0.03 c 0.24,0.587999 0.456,0.78 0.87,0.78 0.504,0 0.846,-0.342001 0.846,-0.846 0,-0.468 -0.276001,-1.026001 -0.78,-1.56 l -1.068,-1.134 0,-0.072 2.34,0 0.33,0.822" /><path
       inkscape:connector-curvature="0"
       id="path66"
       style="fill:#ffffff;fill-opacity:1;fill-rule:nonzero;stroke:none"
       d="m 3.57422,39.423 7.46875,0 0,32.4508 -7.46875,0 0,-32.4508 z" /><path
       inkscape:connector-curvature="0"
       id="path68"
       style="fill:none;stroke:#231f20;stroke-width:0.80000001;stroke-linecap:round;stroke-linejoin:round;stroke-miterlimit:3.86369991;stroke-opacity:1;stroke-dasharray:none"
       d="m 7.27344,39.2012 0,3.6129 -3.69922,1.5699 7.46878,3.1488 -7.46878,3.1953 7.46878,3.1969 -7.46878,3.1512 7.46878,3.1226 -7.46878,3.15 7.37308,3.1973 -3.67386,1.5301 0,3.7976" /><path
       inkscape:connector-curvature="0"
       id="path70"
       style="fill:#ffffff;fill-opacity:1;fill-rule:nonzero;stroke:none"
       d="m 3.57227,125.83 7.46875,0 0,32.4512 -7.46875,0 0,-32.4512 z" /><path
       inkscape:connector-curvature="0"
       id="path72"
       style="fill:none;stroke:#231f20;stroke-width:0.80000001;stroke-linecap:round;stroke-linejoin:round;stroke-miterlimit:3.86369991;stroke-opacity:1;stroke-dasharray:none"
       d="m 7.27148,125.608 0,3.612 -3.69921,1.571 7.46873,3.149 -7.46873,3.195 7.46873,3.197 -7.46873,3.151 7.46873,3.123 -7.46873,3.15 7.37303,3.198 -3.67382,1.529 0,3.799" /><path
       inkscape:connector-curvature="0"
       id="path74"
       style="fill:none;stroke:#231f20;stroke-width:0.8;stroke-linecap:butt;stroke-linejoin:miter;stroke-miterlimit:4;stroke-opacity:1;stroke-dasharray:none"
       d="m 77.1621,98.7797 -69.89062,0" /><path
       inkscape:connector-curvature="0"
       id="path3148"
       style="font-size:8px;font-style:italic;font-variant:normal;writing-mode:lr-tb;fill:#231f20;fill-opacity:1;fill-rule:nonzero;stroke:none;font-family:Times;-inkscape-font-specification:Times-Italic"
       d="m 16.9618,186.674 -1.488,0 0,-0.128 c 0.36,-0.04 0.504,-0.12 0.504,-0.272 0,-0.152 -0.152,-0.496 -0.416,-0.952 l -1.648,-2.848 -0.528,3.544 c -0.008,0.04 -0.008,0.072 -0.008,0.12 0,0.272 0.112001,0.352 0.616,0.408 l 0,0.128 -1.928,0 0,-0.128 c 0.448,-0.056 0.464,-0.08 0.632,-1.08 l 0.68,-4.16 0.152,0 2.984,4.92 c 0.136,0.216 0.264,0.312 0.448,0.32 l 0,0.128" /><path
       inkscape:connector-curvature="0"
       id="path3151"
       style="font-size:6px;font-style:italic;font-variant:normal;writing-mode:lr-tb;fill:#231f20;fill-opacity:1;fill-rule:nonzero;stroke:none;font-family:Times;-inkscape-font-specification:Times-Italic"
       d="m 20.25769,182.24 0.222,1.194 -0.126,0 c -0.048,-0.096 -0.108,-0.132 -0.228,-0.132 -0.048,0 -0.12,0.012 -0.246,0.042 -0.27,0.066 -0.51,0.102 -0.702,0.102 -1.277999,0 -2.436,-1.206 -2.436,-2.538 0,-0.918 0.648001,-1.566 1.566,-1.566 0.617999,0 1.098001,0.264 1.638,0.894 l -0.102,0.084 c -0.539999,-0.528 -0.888,-0.708 -1.38,-0.708 -0.665999,0 -1.05,0.456 -1.05,1.23 0,0.714 0.288001,1.44 0.756,1.926 0.288,0.294 0.666,0.462 1.062,0.462 0.551999,0 0.858,-0.324 0.918,-0.972 l 0.108,-0.018" /><path
       inkscape:connector-curvature="0"
       id="path3153"
       style="font-size:6px;font-style:italic;font-variant:normal;writing-mode:lr-tb;fill:#231f20;fill-opacity:1;fill-rule:nonzero;stroke:none;font-family:Times;-inkscape-font-specification:Times-Italic"
       d="m 24.25969,182.24 0.222,1.194 -0.126,0 c -0.048,-0.096 -0.108,-0.132 -0.228,-0.132 -0.048,0 -0.12,0.012 -0.246,0.042 -0.27,0.066 -0.51,0.102 -0.702,0.102 -1.277999,0 -2.436,-1.206 -2.436,-2.538 0,-0.918 0.648001,-1.566 1.566,-1.566 0.617999,0 1.098,0.264 1.638,0.894 l -0.102,0.084 c -0.54,-0.528 -0.888001,-0.708 -1.38,-0.708 -0.666,0 -1.05,0.456 -1.05,1.23 0,0.714 0.288,1.44 0.756,1.926 0.288,0.294 0.666,0.462 1.062,0.462 0.551999,0 0.858,-0.324 0.918,-0.972 l 0.108,-0.018" /><path
       inkscape:connector-curvature="0"
       id="path86"
       style="fill:#ffffff;fill-opacity:1;fill-rule:nonzero;stroke:none"
       d="m 78.6992,98.2789 c 0,-0.9199 -0.7461,-1.6672 -1.6672,-1.6672 -0.9207,0 -1.6668,0.7473 -1.6668,1.6672 0,0.9207 0.7461,1.6668 1.6668,1.6668 0.9211,0 1.6672,-0.7461 1.6672,-1.6668" /><path
       inkscape:connector-curvature="0"
       id="path88"
       style="fill:none;stroke:#231f20;stroke-width:0.5;stroke-linecap:butt;stroke-linejoin:miter;stroke-miterlimit:4;stroke-opacity:1;stroke-dasharray:none"
       d="m 78.6992,98.826394 c 0,-0.9199 -0.7461,-1.6672 -1.6672,-1.6672 -0.9207,0 -1.6668,0.7473 -1.6668,1.6672 0,0.9207 0.7461,1.666816 1.6668,1.666816 0.9211,0 1.6672,-0.746116 1.6672,-1.666816 z" /><path
       inkscape:connector-curvature="0"
       id="path90"
       style="fill:#ffffff;fill-opacity:1;fill-rule:nonzero;stroke:none"
       d="m 8.93867,184.856 c 0,-0.92 -0.74648,-1.667 -1.66719,-1.667 -0.9207,0 -1.66718,0.747 -1.66718,1.667 0,0.921 0.74648,1.667 1.66718,1.667 0.92071,0 1.66719,-0.746 1.66719,-1.667" /><path
       inkscape:connector-curvature="0"
       id="path92"
       style="fill:none;stroke:#231f20;stroke-width:0.5;stroke-linecap:butt;stroke-linejoin:miter;stroke-miterlimit:4;stroke-opacity:1;stroke-dasharray:none"
       d="m 8.93867,184.856 c 0,-0.92 -0.74648,-1.667 -1.66719,-1.667 -0.9207,0 -1.66718,0.747 -1.66718,1.667 0,0.921 0.74648,1.667 1.66718,1.667 0.92071,0 1.66719,-0.746 1.66719,-1.667 z" /><path
       inkscape:connector-curvature="0"
       id="path94"
       style="fill:#ffffff;fill-opacity:1;fill-rule:nonzero;stroke:none"
       d="m 78.6992,12.2219 c 0,-0.9199 -0.7461,-1.6668 -1.6672,-1.6668 -0.9207,0 -1.6668,0.7469 -1.6668,1.6668 0,0.9211 0.7461,1.6672 1.6668,1.6672 0.9211,0 1.6672,-0.7461 1.6672,-1.6672" /><path
       inkscape:connector-curvature="0"
       id="path96"
       style="fill:none;stroke:#231f20;stroke-width:0.5;stroke-linecap:butt;stroke-linejoin:miter;stroke-miterlimit:4;stroke-opacity:1;stroke-dasharray:none"
       d="m 78.6992,12.2219 c 0,-0.9199 -0.7461,-1.6668 -1.6672,-1.6668 -0.9207,0 -1.6668,0.7469 -1.6668,1.6668 0,0.9211 0.7461,1.6672 1.6668,1.6672 0.9211,0 1.6672,-0.7461 1.6672,-1.6672 z" /><path
       inkscape:connector-curvature="0"
       id="path98"
       style="fill:#231f20;fill-opacity:1;fill-rule:nonzero;stroke:none"
       d="m 8.8829839,98.835386 c 0,-0.9199 -0.74648,-1.6668 -1.66719,-1.6668 -0.9207,0 -1.66718,0.7469 -1.66718,1.6668 0,0.9199 0.74648,1.667304 1.66718,1.667304 0.92071,0 1.66719,-0.747404 1.66719,-1.667304" /><path
       inkscape:connector-curvature="0"
       id="path100"
       style="fill:#231f20;fill-opacity:1;fill-rule:nonzero;stroke:none"
       d="m 8.93867,12.1172 c 0,-0.9203 -0.74648,-1.6672 -1.66719,-1.6672 -0.9207,0 -1.66718,0.7469 -1.66718,1.6672 0,0.9199 0.74648,1.6668 1.66718,1.6668 0.92071,0 1.66719,-0.7469 1.66719,-1.6668" /><path
       inkscape:connector-curvature="0"
       id="path102"
       style="fill:none;stroke:#231f20;stroke-width:0.8;stroke-linecap:butt;stroke-linejoin:miter;stroke-miterlimit:4;stroke-opacity:1;stroke-dasharray:none"
       d="m 206.135,12.2949 -69.864,0" /><path
       inkscape:connector-curvature="0"
       id="path104"
       style="fill:none;stroke:#231f20;stroke-width:0.8;stroke-linecap:butt;stroke-linejoin:miter;stroke-miterlimit:4;stroke-opacity:1;stroke-dasharray:none"
       d="m 136.271,12.2949 0,88.8111" /><path
       inkscape:connector-curvature="0"
       id="path3156"
       style="font-size:8px;font-style:italic;font-variant:normal;writing-mode:lr-tb;fill:#231f20;fill-opacity:1;fill-rule:nonzero;stroke:none;font-family:Times;-inkscape-font-specification:Times-Italic"
       d="m 211.059,97.8551 2.256,0 c 1.256,0 2.12,0.656001 2.12,1.6 0,0.296 -0.096,0.576 -0.272,0.752 -0.16,0.184 -0.32,0.28 -0.736,0.456 0.568,0.136 0.8,0.232 1.056,0.456 0.224,0.192 0.344,0.464 0.344,0.784 0,0.76 -0.568,1.176 -1.6,1.176 l -2.064,0 0,-0.128 c 0.496,-0.04 0.616,-0.104 0.616,-0.328 0,-0.12 -0.032,-0.32 -0.088,-0.512 l -0.984,-3.536 c -0.144,-0.464 -0.2,-0.512 -0.648,-0.592 l 0,-0.128 m 1.968,2.648 c 0.52,0 0.856,-0.032 1.016,-0.096 0.328,-0.136 0.528,-0.488 0.528,-0.92 0,-0.863999 -0.592,-1.392 -1.568,-1.392 -0.336,0 -0.512,0.12 -0.512,0.336 0,0.096 0.096,0.480001 0.28,1.12 0.104,0.36 0.152,0.544 0.256,0.952 m 0.6,2.112 c 0.048,0.176 0.144,0.224 0.456,0.224 0.64,0 0.936,-0.272 0.936,-0.864 0,-0.456 -0.192,-0.808 -0.536,-1 -0.272,-0.16 -0.656,-0.216 -1.376,-0.216 l 0.52,1.856" /><path
       inkscape:connector-curvature="0"
       id="path3158"
       style="font-size:8px;font-style:italic;font-variant:normal;writing-mode:lr-tb;fill:#231f20;fill-opacity:1;fill-rule:nonzero;stroke:none;font-family:Times;-inkscape-font-specification:Times-Italic"
       d="m 216.77611,14.256102 -1.592,0 0,-0.128 c 0.456,-0.04 0.56,-0.12 0.56,-0.408 0,-0.096 -0.016,-0.192 -0.072,-0.352 -0.008,-0.024 -0.016,-0.056 -0.016,-0.064 l -0.816,-3.04 -1.664,3.992 -1.288,0 0,-0.128 c 0.376,-0.032 0.544,-0.136 0.688,-0.448 l -0.952,-3.336 c -0.304,-1.023999 -0.368,-1.12 -0.824,-1.184 l 0,-0.128 1.584,0 0,0.128 c -0.408,0.032 -0.56,0.12 -0.56,0.344 0,0.104 0.024,0.264 0.072,0.432 l 0.912,3.376 1.84,-4.4 0.144,0 1.152,4.024 c 0.296,1.031999 0.328,1.08 0.832,1.192 l 0,0.128" /><path
       inkscape:connector-curvature="0"
       id="path114"
       style="fill:#ffffff;fill-opacity:1;fill-rule:nonzero;stroke:none"
       d="m 154.85,97.409559 32.4512,0 0,7.468741 -32.4512,0 0,-7.468741 z" /><path
       inkscape:connector-curvature="0"
       id="path116"
       style="fill:none;stroke:#231f20;stroke-width:0.80000001;stroke-linecap:round;stroke-linejoin:round;stroke-miterlimit:3.86369991;stroke-opacity:1;stroke-dasharray:none"
       d="m 187.523,101.10895 -3.613,0 -1.57,-3.699391 -3.149,7.468391 -3.195,-7.468391 -3.197,7.468391 -3.151,-7.468391 -3.123,7.468391 -3.15,-7.468391 -3.197,7.373391 -1.53,-3.674 -3.798,0" /><path
       inkscape:connector-curvature="0"
       id="path118"
       style="fill:#ffffff;fill-opacity:1;fill-rule:nonzero;stroke:none"
       d="m 207.699,100.605 c 0,-0.9198 -0.746,-1.6671 -1.667,-1.6671 -0.921,0 -1.667,0.7473 -1.667,1.6671 0,0.921 0.746,1.667 1.667,1.667 0.921,0 1.667,-0.746 1.667,-1.667" /><path
       inkscape:connector-curvature="0"
       id="path120"
       style="fill:none;stroke:#231f20;stroke-width:0.5;stroke-linecap:butt;stroke-linejoin:miter;stroke-miterlimit:4;stroke-opacity:1;stroke-dasharray:none"
       d="m 207.699,101.15805 c 0,-0.9198 -0.746,-1.6671 -1.667,-1.6671 -0.921,0 -1.667,0.7473 -1.667,1.6671 0,0.921 0.746,1.667 1.667,1.667 0.921,0 1.667,-0.746 1.667,-1.667 z" /><path
       inkscape:connector-curvature="0"
       id="path122"
       style="fill:#ffffff;fill-opacity:1;fill-rule:nonzero;stroke:none"
       d="m 207.699,12.2219 c 0,-0.9199 -0.746,-1.6668 -1.667,-1.6668 -0.921,0 -1.667,0.7469 -1.667,1.6668 0,0.9211 0.746,1.6672 1.667,1.6672 0.921,0 1.667,-0.7461 1.667,-1.6672" /><path
       inkscape:connector-curvature="0"
       id="path124"
       style="fill:none;stroke:#231f20;stroke-width:0.5;stroke-linecap:butt;stroke-linejoin:miter;stroke-miterlimit:4;stroke-opacity:1;stroke-dasharray:none"
       d="m 207.699,12.280559 c 0,-0.9199 -0.746,-1.6668 -1.667,-1.6668 -0.921,0 -1.667,0.7469 -1.667,1.6668 0,0.9211 0.746,1.6672 1.667,1.6672 0.921,0 1.667,-0.7461 1.667,-1.6672 z" /><path
       inkscape:connector-curvature="0"
       id="path126"
       style="fill:none;stroke:#231f20;stroke-width:0.80000001;stroke-linecap:round;stroke-linejoin:round;stroke-miterlimit:3.86369991;stroke-opacity:1;stroke-dasharray:none"
       d="m 7.4,12.1172 0,-6.43009" /><path
       inkscape:connector-curvature="0"
       id="path128"
       style="fill:none;stroke:#231f20;stroke-width:0.80000001;stroke-linecap:round;stroke-linejoin:round;stroke-miterlimit:3.86369991;stroke-opacity:1;stroke-dasharray:none"
       d="m 14.4,5.68711 -14,0" /><path
       inkscape:connector-curvature="0"
       id="path130"
       style="fill:none;stroke:#231f20;stroke-width:0.80000001;stroke-linecap:round;stroke-linejoin:round;stroke-miterlimit:3.86369991;stroke-opacity:1;stroke-dasharray:none"
       d="m 12.9,3.04219 -11,0" /><path
       inkscape:connector-curvature="0"
       id="path132"
       style="fill:none;stroke:#231f20;stroke-width:0.80000001;stroke-linecap:round;stroke-linejoin:round;stroke-miterlimit:3.86369991;stroke-opacity:1;stroke-dasharray:none"
       d="m 11.4,0.4 -8,0" /><path
       inkscape:connector-curvature="0"
       id="path134"
       style="fill:#ffffff;fill-opacity:1;fill-rule:nonzero;stroke:none"
       d="m 131.11212,50.9211 10.3152,0 0,11.559 -10.3152,0 0,-11.559 z" /><path
       inkscape:connector-curvature="0"
       id="path136"
       style="fill:none;stroke:#231f20;stroke-width:0.80000001;stroke-linecap:round;stroke-linejoin:round;stroke-miterlimit:3.86369991;stroke-opacity:1;stroke-dasharray:none"
       d="m 141.42712,57.8141 -10.315,0" /><path
       inkscape:connector-curvature="0"
       id="path138"
       style="fill:none;stroke:#231f20;stroke-width:0.80000001;stroke-linecap:round;stroke-linejoin:round;stroke-miterlimit:3.86369991;stroke-opacity:1;stroke-dasharray:none"
       d="m 139.45412,54.3551 -6.369,0" /><path
       inkscape:connector-curvature="0"
       id="path140"
       style="fill:none;stroke:#231f20;stroke-width:0.80000001;stroke-linecap:round;stroke-linejoin:round;stroke-miterlimit:3.86369991;stroke-opacity:1;stroke-dasharray:none"
       d="m 136.26912,54.355243 0,-4.666" /><path
       inkscape:connector-curvature="0"
       id="path142"
       style="fill:none;stroke:#231f20;stroke-width:0.80000001;stroke-linecap:round;stroke-linejoin:round;stroke-miterlimit:3.86369991;stroke-opacity:1;stroke-dasharray:none"
       d="m 136.26912,62.4801 0,-4.666" /></g></svg>