<?xml version="1.0" encoding="UTF-8" standalone="no"?>
<!-- Created with Inkscape (http://www.inkscape.org/) -->

<svg
   xmlns:dc="http://purl.org/dc/elements/1.1/"
   xmlns:cc="http://creativecommons.org/ns#"
   xmlns:rdf="http://www.w3.org/1999/02/22-rdf-syntax-ns#"
   xmlns:svg="http://www.w3.org/2000/svg"
   xmlns="http://www.w3.org/2000/svg"
   xmlns:sodipodi="http://sodipodi.sourceforge.net/DTD/sodipodi-0.dtd"
   xmlns:inkscape="http://www.inkscape.org/namespaces/inkscape"
   id="svg2"
   version="1.1"
   inkscape:version="0.48.4 r9939"
   width="283.46457"
   height="248.03149"
   xml:space="preserve"
   sodipodi:docname="S3-EE-03-IN031.eps"><metadata
     id="metadata8"><rdf:RDF><cc:Work
         rdf:about=""><dc:format>image/svg+xml</dc:format><dc:type
           rdf:resource="http://purl.org/dc/dcmitype/StillImage" /><dc:title></dc:title></cc:Work></rdf:RDF></metadata><defs
     id="defs6" /><sodipodi:namedview
     pagecolor="#ffffff"
     bordercolor="#666666"
     borderopacity="1"
     objecttolerance="10"
     gridtolerance="10"
     guidetolerance="10"
     inkscape:pageopacity="0"
     inkscape:pageshadow="2"
     inkscape:window-width="1366"
     inkscape:window-height="744"
     id="namedview4"
     showgrid="false"
     units="cm"
     inkscape:zoom="2.4069524"
     inkscape:cx="141.73228"
     inkscape:cy="124.01575"
     inkscape:window-x="0"
     inkscape:window-y="24"
     inkscape:window-maximized="1"
     inkscape:current-layer="g10" /><g
     id="g10"
     inkscape:groupmode="layer"
     inkscape:label="ink_ext_XXXXXX"
     transform="matrix(1.25,0,0,-1.25,0,248.03173)"><path
       inkscape:connector-curvature="0"
       id="path3522"
       style="font-size:8px;font-variant:normal;font-weight:normal;writing-mode:lr-tb;fill:#231f20;fill-opacity:1;fill-rule:nonzero;stroke:none;font-family:Times;-inkscape-font-specification:Times-Roman"
       d="m 138.77894,149.88582 -1.44,-0.728 0,-0.112 c 0.096,0.04 0.184,0.072 0.216,0.088 0.144,0.056 0.28,0.088 0.36,0.088 0.168,0 0.24,-0.12 0.24,-0.376 l 0,-3.624 c 0,-0.264 -0.064,-0.448 -0.192,-0.52 -0.12,-0.072 -0.232,-0.096 -0.568,-0.104 l 0,-0.12 2.208,0 0,0.12 c -0.632,0.008 -0.76,0.088 -0.76,0.472 l 0,4.8 -0.064,0.016" /><path
       inkscape:connector-curvature="0"
       id="path3524"
       style="font-size:8px;font-variant:normal;font-weight:normal;writing-mode:lr-tb;fill:#231f20;fill-opacity:1;fill-rule:nonzero;stroke:none;font-family:Times;-inkscape-font-specification:Times-Roman"
       d="m 141.89894,149.14182 1.568,0 c 0.128,0 0.16,0.016 0.184,0.072 l 0.304,0.712 -0.072,0.056 c -0.12,-0.168 -0.2,-0.208 -0.368,-0.208 l -1.672,0 -0.872,-1.896 c -0.008,-0.016 -0.008,-0.024 -0.008,-0.04 0,-0.04 0.032,-0.064 0.096,-0.064 0.256,0 0.576,-0.056 0.904,-0.16 0.92,-0.296 1.344,-0.792 1.344,-1.584 0,-0.768 -0.488,-1.368 -1.112,-1.368 -0.16,0 -0.296,0.056 -0.536,0.232 -0.256,0.184 -0.44,0.264 -0.608,0.264 -0.232,0 -0.344,-0.096 -0.344,-0.296 0,-0.304 0.376,-0.496 0.976,-0.496 0.672,0 1.248,0.216 1.648,0.624 0.368,0.36 0.536,0.816 0.536,1.424 0,0.576 -0.152,0.944 -0.552,1.344 -0.352,0.352 -0.808,0.536 -1.752,0.704 l 0.336,0.68" /><path
       inkscape:connector-curvature="0"
       id="path3526"
       style="font-size:8px;font-variant:normal;font-weight:normal;writing-mode:lr-tb;fill:#231f20;fill-opacity:1;fill-rule:nonzero;stroke:none;font-family:Times;-inkscape-font-specification:Times-Roman"
       d="m 146.50694,149.46182 c 0.104,0.008 0.176,0.016 0.256,0.016 0.264,0 0.344,-0.104 0.344,-0.488 l 0,-3.856 c 0,-0.416 -0.024,-0.44 -0.6,-0.536 l 0,-0.12 1.872,0 0,0.12 -0.16,0.008 c -0.32,0.016 -0.44,0.128 -0.44,0.408 l 0,1.472 1.12,-1.496 0.024,-0.032 c 0.016,-0.024 0.032,-0.048 0.056,-0.072 0.064,-0.08 0.088,-0.128 0.088,-0.168 0,-0.072 -0.072,-0.12 -0.168,-0.12 l -0.152,0 0,-0.12 1.744,0 0,0.12 c -0.352,0.024 -0.6,0.176 -0.936,0.584 l -1.224,1.552 0.232,0.216 c 0.568,0.528 1.064,0.896 1.296,0.96 0.12,0.032 0.232,0.048 0.368,0.048 l 0.064,0 0,0.12 -1.632,0 0,-0.112 c 0.312,-0.008 0.4,-0.04 0.4,-0.152 0,-0.064 -0.072,-0.176 -0.184,-0.272 l -1.096,-0.976 0,3.36 -0.032,0.016 c -0.304,-0.096 -0.536,-0.16 -1,-0.288 l -0.24,-0.064 0,-0.128" /><path
       inkscape:connector-curvature="0"
       id="path3529"
       style="font-size:8px;font-variant:normal;font-weight:normal;writing-mode:lr-tb;fill:#231f20;fill-opacity:1;fill-rule:nonzero;stroke:none;font-family:Symbol;-inkscape-font-specification:Symbol"
       d="m 153.05894,144.47782 -0.144,1.24 c -0.624,0.352 -1.024,1.064 -1.024,1.816 0,0.416 0.12,0.888 0.328,1.264 0.288,0.52 0.768,0.816 1.312,0.816 0.544,0 1.024,-0.296 1.312,-0.816 0.208,-0.376 0.328,-0.848 0.328,-1.264 0,-0.752 -0.4,-1.464 -1.024,-1.816 l -0.144,-1.24 2.336,0 0,1.224 -0.192,0 c -0.056,-0.352 -0.232,-0.504 -0.552,-0.504 l -1.168,0 0.024,0.304 c 0.28,0.104 0.448,0.184 0.64,0.304 0.608,0.392 0.976,1.04 0.976,1.728 0,0.528 -0.232,1.12 -0.616,1.568 -0.488,0.56 -1.16,0.864 -1.92,0.864 -0.76,0 -1.432,-0.304 -1.92,-0.864 -0.384,-0.448 -0.616,-1.04 -0.616,-1.568 0,-0.688 0.368,-1.336 0.976,-1.728 0.184,-0.12 0.352,-0.2 0.64,-0.304 l 0.024,-0.304 -1.168,0 c -0.32,0 -0.496,0.152 -0.552,0.504 l -0.192,0 0,-1.224 2.336,0" /><path
       inkscape:connector-curvature="0"
       id="path3532"
       style="font-size:8px;font-variant:normal;font-weight:normal;writing-mode:lr-tb;fill:#231f20;fill-opacity:1;fill-rule:nonzero;stroke:none;font-family:Times;-inkscape-font-specification:Times-Roman"
       d="m 33.442936,141.61629 -0.104,0.04 c -0.296,-0.456 -0.400001,-0.528 -0.76,-0.528 l -1.912,0 1.344,1.408 c 0.711999,0.744 1.024,1.352 1.024,1.976 0,0.8 -0.648001,1.416 -1.48,1.416 -0.44,0 -0.856001,-0.176 -1.152,-0.496 -0.256,-0.272 -0.376001,-0.528 -0.512,-1.096 l 0.168,-0.04 c 0.319999,0.784 0.608,1.04 1.16,1.04 0.671999,0 1.128,-0.456 1.128,-1.128 0,-0.624 -0.368001,-1.368 -1.04,-2.08 l -1.424,-1.512 0,-0.096 3.12,0 0.44,1.096" /><path
       inkscape:connector-curvature="0"
       id="path3534"
       style="font-size:8px;font-variant:normal;font-weight:normal;writing-mode:lr-tb;fill:#231f20;fill-opacity:1;fill-rule:nonzero;stroke:none;font-family:Times;-inkscape-font-specification:Times-Roman"
       d="m 37.418936,142.36829 -0.816,0 0,3.56 -0.352,0 -2.512,-3.56 0,-0.512 2.248,0 0,-1.336 0.616,0 0,1.336 0.816,0 0,0.512 m -1.44,0 -1.92,0 1.92,2.744 0,-2.744" /><path
       inkscape:connector-curvature="0"
       id="path3536"
       style="font-size:8px;font-variant:normal;font-weight:normal;writing-mode:lr-tb;fill:#231f20;fill-opacity:1;fill-rule:nonzero;stroke:none;font-family:Times;-inkscape-font-specification:Times-Roman"
       d="m 38.866936,143.16029 c 0.471999,0 0.656,-0.016 0.848,-0.088 0.495999,-0.176 0.808,-0.632 0.808,-1.184 0,-0.672 -0.456001,-1.192 -1.048,-1.192 -0.216,0 -0.376,0.056 -0.672,0.248 -0.24,0.144 -0.376,0.2 -0.512,0.2 -0.184,0 -0.304,-0.112 -0.304,-0.28 0,-0.28 0.344,-0.456 0.904,-0.456 0.615999,0 1.248,0.208 1.624,0.536 0.375999,0.328 0.584,0.792 0.584,1.328 0,0.408 -0.128,0.784 -0.36,1.032 -0.16,0.176 -0.312,0.272 -0.664,0.424 0.551999,0.376 0.752,0.672 0.752,1.104 0,0.648 -0.512001,1.096 -1.248,1.096 -0.4,0 -0.752,-0.136 -1.04,-0.392 -0.24,-0.216 -0.36,-0.424 -0.536,-0.904 l 0.12,-0.032 c 0.328,0.584 0.688,0.848 1.192,0.848 0.519999,0 0.88,-0.352 0.88,-0.856 0,-0.288 -0.12,-0.576 -0.32,-0.776 -0.24,-0.24 -0.464001,-0.36 -1.008,-0.552 l 0,-0.104" /><path
       inkscape:connector-curvature="0"
       id="path3538"
       style="font-size:8px;font-variant:normal;font-weight:normal;writing-mode:lr-tb;fill:#231f20;fill-opacity:1;fill-rule:nonzero;stroke:none;font-family:Times;-inkscape-font-specification:Times-Roman"
       d="m 43.698937,145.50429 c 0.104,0.008 0.176,0.016 0.256,0.016 0.264,0 0.344,-0.104 0.344,-0.488 l 0,-3.856 c 0,-0.416 -0.024,-0.44 -0.6,-0.536 l 0,-0.12 1.872,0 0,0.12 -0.16,0.008 c -0.32,0.016 -0.44,0.128 -0.44,0.408 l 0,1.472 1.12,-1.496 0.024,-0.032 c 0.016,-0.024 0.032,-0.048 0.056,-0.072 0.064,-0.08 0.088,-0.128 0.088,-0.168 0,-0.072 -0.072,-0.12 -0.168,-0.12 l -0.152,0 0,-0.12 1.744,0 0,0.12 c -0.352,0.024 -0.600001,0.176 -0.936,0.584 l -1.224,1.552 0.232,0.216 c 0.567999,0.528 1.064,0.896 1.296,0.96 0.12,0.032 0.232,0.048 0.368,0.048 l 0.064,0 0,0.12 -1.632,0 0,-0.112 c 0.311999,-0.008 0.4,-0.04 0.4,-0.152 0,-0.064 -0.072,-0.176 -0.184,-0.272 l -1.096,-0.976 0,3.36 -0.032,0.016 c -0.304,-0.096 -0.536001,-0.16 -1,-0.288 l -0.24,-0.064 0,-0.128" /><path
       inkscape:connector-curvature="0"
       id="path3541"
       style="font-size:8px;font-variant:normal;font-weight:normal;writing-mode:lr-tb;fill:#231f20;fill-opacity:1;fill-rule:nonzero;stroke:none;font-family:Symbol;-inkscape-font-specification:Symbol"
       d="m 50.250937,140.52029 -0.144,1.24 c -0.624,0.352 -1.024,1.064 -1.024,1.816 0,0.416 0.12,0.888 0.328,1.264 0.288,0.52 0.768,0.816 1.312,0.816 0.543999,0 1.024,-0.296 1.312,-0.816 0.208,-0.376 0.328,-0.848 0.328,-1.264 0,-0.752 -0.400001,-1.464 -1.024,-1.816 l -0.144,-1.24 2.336,0 0,1.224 -0.192,0 c -0.056,-0.352 -0.232001,-0.504 -0.552,-0.504 l -1.168,0 0.024,0.304 c 0.28,0.104 0.448,0.184 0.64,0.304 0.607999,0.392 0.976,1.04 0.976,1.728 0,0.528 -0.232001,1.12 -0.616,1.568 -0.488,0.56 -1.160001,0.864 -1.92,0.864 -0.759999,0 -1.432001,-0.304 -1.92,-0.864 -0.384,-0.448 -0.616,-1.04 -0.616,-1.568 0,-0.688 0.368,-1.336 0.976,-1.728 0.184,-0.12 0.352,-0.2 0.64,-0.304 l 0.024,-0.304 -1.168,0 c -0.32,0 -0.496,0.152 -0.552,0.504 l -0.192,0 0,-1.224 2.336,0" /><path
       inkscape:connector-curvature="0"
       id="path3544"
       style="font-size:8px;font-style:italic;font-variant:normal;writing-mode:lr-tb;fill:#231f20;fill-opacity:1;fill-rule:nonzero;stroke:none;font-family:Times;-inkscape-font-specification:Times-Italic"
       d="m 161.06432,54.649087 -1.488,0 0,-0.128 c 0.36,-0.04 0.504,-0.12 0.504,-0.272 0,-0.152 -0.152,-0.496 -0.416,-0.952 l -1.648,-2.848 -0.528,3.544 c -0.008,0.04 -0.008,0.072 -0.008,0.12 0,0.272 0.112,0.352 0.616,0.408 l 0,0.128 -1.928,0 0,-0.128 c 0.448,-0.056 0.464,-0.08 0.632,-1.08 l 0.68,-4.16 0.152,0 2.984,4.92 c 0.136,0.216 0.264,0.312 0.448,0.32 l 0,0.128" /><path
       inkscape:connector-curvature="0"
       id="path3547"
       style="font-size:6px;font-style:italic;font-variant:normal;writing-mode:lr-tb;fill:#231f20;fill-opacity:1;fill-rule:nonzero;stroke:none;font-family:Times;-inkscape-font-specification:Times-Italic"
       d="m 164.25261,51.343087 -2.982,0 0,-0.096 c 0.372,-0.036 0.462,-0.084 0.462,-0.246 0,-0.066 -0.036,-0.276 -0.066,-0.384 l -0.738,-2.652 c -0.102,-0.342 -0.15,-0.384 -0.486,-0.444 l 0,-0.096 3.042,0 0.372,0.972 -0.096,0.048 c -0.282,-0.384 -0.438,-0.54 -0.696,-0.66 -0.222,-0.102 -0.63,-0.162 -1.08,-0.162 -0.336,0 -0.48,0.06 -0.48,0.204 0,0.066 0.066,0.348001 0.216,0.876 0.078,0.264 0.132,0.462 0.192,0.69 0.21,-0.012 0.396,-0.018 0.468,-0.018 0.234,0.006 0.402,-0.03 0.468,-0.09 0.03,-0.03 0.042,-0.084 0.042,-0.186 0,-0.102 -0.012,-0.18 -0.042,-0.312 l 0.12,-0.03 0.408,1.392 -0.108,0.024 c -0.228,-0.509999 -0.282,-0.546 -0.828,-0.57 -0.072,0 -0.264,-0.006 -0.474,-0.012 l 0.396,1.398 c 0.036,0.132 0.102,0.156 0.438,0.156 0.942,0 1.152,-0.078 1.152,-0.438 0,-0.078 -0.006,-0.168 -0.012,-0.27 l 0.126,-0.012 0.186,0.918" /><path
       inkscape:connector-curvature="0"
       id="path3550"
       style="font-size:8px;font-variant:normal;font-weight:normal;writing-mode:lr-tb;fill:#231f20;fill-opacity:1;fill-rule:nonzero;stroke:none;font-family:Times;-inkscape-font-specification:Times-Roman"
       d="m 170.38662,52.513087 -4.032,0 0,-0.528 4.032,0 0,0.528 m 0,-1.6 -4.032,0 0,-0.528 4.032,0 0,0.528" /><path
       inkscape:connector-curvature="0"
       id="path3552"
       style="font-size:8px;font-variant:normal;font-weight:normal;writing-mode:lr-tb;fill:#231f20;fill-opacity:1;fill-rule:nonzero;stroke:none;font-family:Times;-inkscape-font-specification:Times-Roman"
       d="m 174.07462,54.089087 1.568,0 c 0.128,0 0.16,0.016 0.184,0.072 l 0.304,0.712 -0.072,0.056 c -0.12,-0.168 -0.2,-0.208 -0.368,-0.208 l -1.672,0 -0.872,-1.896 c -0.008,-0.016 -0.008,-0.024 -0.008,-0.04 0,-0.04 0.032,-0.064 0.096,-0.064 0.256,0 0.576,-0.056 0.904,-0.16 0.91999,-0.296 1.344,-0.792001 1.344,-1.584 0,-0.767999 -0.48801,-1.368 -1.112,-1.368 -0.16,0 -0.296,0.056 -0.536,0.232 -0.256,0.184 -0.44,0.264 -0.608,0.264 -0.232,0 -0.344,-0.096 -0.344,-0.296 0,-0.304 0.376,-0.496 0.976,-0.496 0.67199,0 1.248,0.216001 1.648,0.624 0.368,0.36 0.536,0.816001 0.536,1.424 0,0.576 -0.152,0.944001 -0.552,1.344 -0.352,0.352 -0.80801,0.536 -1.752,0.704 l 0.336,0.68" /><path
       inkscape:connector-curvature="0"
       id="path3554"
       style="font-size:8px;font-variant:normal;font-weight:normal;writing-mode:lr-tb;fill:#231f20;fill-opacity:1;fill-rule:nonzero;stroke:none;font-family:Times;-inkscape-font-specification:Times-Roman"
       d="m 184.20262,54.721087 -1.64,0 0,-0.152 c 0.43999,-0.024 0.584,-0.112 0.584,-0.336 0,-0.128 -0.056,-0.344 -0.152,-0.584 l -1.176,-2.936 -1.208,2.704 c -0.264,0.584 -0.328,0.768 -0.328,0.888 0,0.152 0.112,0.232 0.368,0.248 0.032,0 0.12,0.008 0.232,0.016 l 0,0.152 -2.128,0 0,-0.152 c 0.392,-0.016 0.504,-0.128001 0.848,-0.84 l 1.968,-4.392 0.12,0 1.776,4.488 c 0.264,0.631999 0.352,0.72 0.736,0.744 l 0,0.152" /><path
       inkscape:connector-curvature="0"
       id="path3556"
       style="font-size:8px;font-variant:normal;font-weight:normal;writing-mode:lr-tb;fill:#231f20;fill-opacity:1;fill-rule:nonzero;stroke:none;font-family:Times;-inkscape-font-specification:Times-Roman"
       d="m 137.50188,51.414773 1.568,0 c 0.128,0 0.16,0.016 0.184,0.072 l 0.304,0.712 -0.072,0.056 c -0.12,-0.168 -0.2,-0.208 -0.368,-0.208 l -1.672,0 -0.872,-1.896 c -0.008,-0.016 -0.008,-0.024 -0.008,-0.04 0,-0.04 0.032,-0.064 0.096,-0.064 0.256,0 0.576,-0.056 0.904,-0.16 0.92,-0.296 1.344,-0.792001 1.344,-1.584 0,-0.767999 -0.488,-1.368 -1.112,-1.368 -0.16,0 -0.296,0.056 -0.536,0.232 -0.256,0.184 -0.44,0.264 -0.608,0.264 -0.232,0 -0.344,-0.096 -0.344,-0.296 0,-0.304 0.376,-0.496 0.976,-0.496 0.672,0 1.248,0.216 1.648,0.624 0.368,0.359999 0.536,0.816 0.536,1.424 0,0.575999 -0.152,0.944 -0.552,1.344 -0.352,0.351999 -0.808,0.536 -1.752,0.704 l 0.336,0.68" /><path
       inkscape:connector-curvature="0"
       id="path3558"
       style="font-size:8px;font-variant:normal;font-weight:normal;writing-mode:lr-tb;fill:#231f20;fill-opacity:1;fill-rule:nonzero;stroke:none;font-family:Times;-inkscape-font-specification:Times-Roman"
       d="m 142.10988,51.734773 c 0.104,0.008 0.176,0.016 0.256,0.016 0.264,0 0.344,-0.104001 0.344,-0.488 l 0,-3.856 c 0,-0.416 -0.024,-0.44 -0.6,-0.536 l 0,-0.12 1.872,0 0,0.12 -0.16,0.008 c -0.32,0.016 -0.44,0.128 -0.44,0.408 l 0,1.472 1.12,-1.496 0.024,-0.032 c 0.016,-0.024 0.032,-0.048 0.056,-0.072 0.064,-0.08 0.088,-0.128 0.088,-0.168 0,-0.072 -0.072,-0.12 -0.168,-0.12 l -0.152,0 0,-0.12 1.744,0 0,0.12 c -0.352,0.024 -0.6,0.176 -0.936,0.584 l -1.224,1.552 0.232,0.216 c 0.568,0.527999 1.064,0.896 1.296,0.96 0.12,0.032 0.232,0.048 0.368,0.048 l 0.064,0 0,0.12 -1.632,0 0,-0.112 c 0.312,-0.008 0.4,-0.04 0.4,-0.152 0,-0.064 -0.072,-0.176 -0.184,-0.272 l -1.096,-0.976 0,3.36 -0.032,0.016 c -0.304,-0.096 -0.536,-0.16 -1,-0.288 l -0.24,-0.064 0,-0.128" /><path
       inkscape:connector-curvature="0"
       id="path3561"
       style="font-size:8px;font-variant:normal;font-weight:normal;writing-mode:lr-tb;fill:#231f20;fill-opacity:1;fill-rule:nonzero;stroke:none;font-family:Symbol;-inkscape-font-specification:Symbol"
       d="m 148.66188,46.750773 -0.144,1.24 c -0.624,0.351999 -1.024,1.064001 -1.024,1.816 0,0.415999 0.12,0.888 0.328,1.264 0.288,0.519999 0.768,0.816 1.312,0.816 0.544,0 1.024,-0.296001 1.312,-0.816 0.208,-0.376 0.328,-0.848001 0.328,-1.264 0,-0.751999 -0.4,-1.464001 -1.024,-1.816 l -0.144,-1.24 2.336,0 0,1.224 -0.192,0 c -0.056,-0.352 -0.232,-0.504 -0.552,-0.504 l -1.168,0 0.024,0.304 c 0.28,0.104 0.448,0.184 0.64,0.304 0.608,0.391999 0.976,1.04 0.976,1.728 0,0.527999 -0.232,1.12 -0.616,1.568 -0.488,0.559999 -1.16,0.864 -1.92,0.864 -0.76,0 -1.432,-0.304001 -1.92,-0.864 -0.384,-0.448 -0.616,-1.040001 -0.616,-1.568 0,-0.688 0.368,-1.336001 0.976,-1.728 0.184,-0.12 0.352,-0.2 0.64,-0.304 l 0.024,-0.304 -1.168,0 c -0.32,0 -0.496,0.152 -0.552,0.504 l -0.192,0 0,-1.224 2.336,0" /><path
       inkscape:connector-curvature="0"
       id="path3564"
       style="font-size:8px;font-variant:normal;font-weight:normal;writing-mode:lr-tb;fill:#231f20;fill-opacity:1;fill-rule:nonzero;stroke:none;font-family:Times;-inkscape-font-specification:Times-Roman"
       d="m 34.819056,58.612689 1.568,0 c 0.128,0 0.16,0.016 0.184,0.072 l 0.304,0.712 -0.072,0.056 c -0.12,-0.168 -0.2,-0.208 -0.368,-0.208 l -1.672,0 -0.872,-1.896 c -0.008,-0.016 -0.008,-0.024 -0.008,-0.04 0,-0.04 0.032,-0.064 0.096,-0.064 0.256,0 0.576,-0.056 0.904,-0.16 0.919999,-0.296 1.344,-0.792001 1.344,-1.584 0,-0.768 -0.488001,-1.368 -1.112,-1.368 -0.16,0 -0.296,0.056 -0.536,0.232 -0.256,0.183999 -0.44,0.264 -0.608,0.264 -0.232,0 -0.344,-0.096 -0.344,-0.296 0,-0.304 0.376,-0.496 0.976,-0.496 0.671999,0 1.248,0.216 1.648,0.624 0.367999,0.359999 0.536,0.816 0.536,1.424 0,0.575999 -0.152001,0.944 -0.552,1.344 -0.352,0.351999 -0.808001,0.536 -1.752,0.704 l 0.336,0.68" /><path
       inkscape:connector-curvature="0"
       id="path3566"
       style="font-size:8px;font-variant:normal;font-weight:normal;writing-mode:lr-tb;fill:#231f20;fill-opacity:1;fill-rule:nonzero;stroke:none;font-family:Times;-inkscape-font-specification:Times-Roman"
       d="m 40.963057,59.244689 -2.96,0 -0.472,-1.176 0.136,-0.064 c 0.343999,0.543999 0.488,0.648 0.928,0.648 l 1.736,0 -1.584,-4.768 0.52,0 1.696,5.232 0,0.128" /><path
       inkscape:connector-curvature="0"
       id="path3568"
       style="font-size:8px;font-variant:normal;font-weight:normal;writing-mode:lr-tb;fill:#231f20;fill-opacity:1;fill-rule:nonzero;stroke:none;font-family:Times;-inkscape-font-specification:Times-Roman"
       d="m 43.427057,58.932689 c 0.104,0.008 0.176,0.016 0.256,0.016 0.263999,0 0.344,-0.104001 0.344,-0.488 l 0,-3.856 c 0,-0.416 -0.024,-0.44 -0.6,-0.536 l 0,-0.12 1.872,0 0,0.12 -0.16,0.008 c -0.32,0.016 -0.44,0.128 -0.44,0.408 l 0,1.472 1.12,-1.496 0.024,-0.032 c 0.016,-0.024 0.032,-0.048 0.056,-0.072 0.064,-0.08 0.088,-0.128 0.088,-0.168 0,-0.072 -0.072,-0.12 -0.168,-0.12 l -0.152,0 0,-0.12 1.744,0 0,0.12 c -0.352,0.024 -0.600001,0.176 -0.936,0.584 l -1.224,1.552 0.232,0.216 c 0.567999,0.527999 1.064,0.896 1.296,0.96 0.12,0.032 0.232,0.048 0.368,0.048 l 0.064,0 0,0.12 -1.632,0 0,-0.112 c 0.311999,-0.008 0.4,-0.04 0.4,-0.152 0,-0.064 -0.072,-0.176 -0.184,-0.272 l -1.096,-0.976 0,3.36 -0.032,0.016 c -0.304,-0.096 -0.536001,-0.16 -1,-0.288 l -0.24,-0.064 0,-0.128" /><path
       inkscape:connector-curvature="0"
       id="path3571"
       style="font-size:8px;font-variant:normal;font-weight:normal;writing-mode:lr-tb;fill:#231f20;fill-opacity:1;fill-rule:nonzero;stroke:none;font-family:Symbol;-inkscape-font-specification:Symbol"
       d="m 49.979057,53.948689 -0.144,1.24 c -0.624,0.351999 -1.024,1.064 -1.024,1.816 0,0.415999 0.12,0.888 0.328,1.264 0.287999,0.519999 0.768,0.816 1.312,0.816 0.543999,0 1.024,-0.296001 1.312,-0.816 0.208,-0.376 0.328,-0.848001 0.328,-1.264 0,-0.752 -0.400001,-1.464001 -1.024,-1.816 l -0.144,-1.24 2.336,0 0,1.224 -0.192,0 c -0.056,-0.352 -0.232001,-0.504 -0.552,-0.504 l -1.168,0 0.024,0.304 c 0.279999,0.104 0.448,0.184 0.64,0.304 0.607999,0.391999 0.976,1.04 0.976,1.728 0,0.527999 -0.232001,1.12 -0.616,1.568 -0.488,0.559999 -1.160001,0.864 -1.92,0.864 -0.759999,0 -1.432001,-0.304001 -1.92,-0.864 -0.384,-0.448 -0.616,-1.040001 -0.616,-1.568 0,-0.688 0.368,-1.336001 0.976,-1.728 0.184,-0.12 0.352,-0.2 0.64,-0.304 l 0.024,-0.304 -1.168,0 c -0.32,0 -0.496,0.152 -0.552,0.504 l -0.192,0 0,-1.224 2.336,0" /><path
       inkscape:connector-curvature="0"
       id="path3574"
       style="font-size:8px;font-variant:normal;font-weight:normal;writing-mode:lr-tb;fill:#231f20;fill-opacity:1;fill-rule:nonzero;stroke:none;font-family:Times;-inkscape-font-specification:Times-Roman"
       d="m 6.5081003,58.862148 1.5680002,0 c 0.128,0 0.16,0.016 0.184,0.072 l 0.304,0.712 -0.072,0.056 c -0.12,-0.168 -0.2,-0.208 -0.368,-0.208 l -1.6720002,0 -0.872,-1.896 c -0.008,-0.016 -0.008,-0.024 -0.008,-0.04 0,-0.04 0.032,-0.064 0.096,-0.064 0.255999,0 0.576,-0.056 0.904,-0.16 0.9199992,-0.296 1.3440002,-0.792001 1.3440002,-1.584 0,-0.767999 -0.488001,-1.368 -1.1120002,-1.368 -0.16,0 -0.296,0.056 -0.536,0.232 -0.256,0.184 -0.44,0.264 -0.608,0.264 -0.232,0 -0.344,-0.096 -0.344,-0.296 0,-0.304 0.376,-0.496 0.976,-0.496 0.671999,0 1.2480002,0.216 1.6480002,0.624 0.367999,0.359999 0.536,0.816 0.536,1.424 0,0.575999 -0.152001,0.944 -0.552,1.344 -0.352,0.351999 -0.8080012,0.536 -1.7520002,0.704 l 0.336,0.68" /><path
       inkscape:connector-curvature="0"
       id="path3576"
       style="font-size:8px;font-variant:normal;font-weight:normal;writing-mode:lr-tb;fill:#231f20;fill-opacity:1;fill-rule:nonzero;stroke:none;font-family:Times;-inkscape-font-specification:Times-Roman"
       d="m 10.060103,54.998148 c -0.2400005,0 -0.440001,-0.208 -0.440001,-0.456 0,-0.232 0.2000005,-0.432 0.432001,-0.432 0.248,0 0.456,0.2 0.456,0.432 0,0.248 -0.208,0.456 -0.448,0.456" /><path
       inkscape:connector-curvature="0"
       id="path3578"
       style="font-size:8px;font-variant:normal;font-weight:normal;writing-mode:lr-tb;fill:#231f20;fill-opacity:1;fill-rule:nonzero;stroke:none;font-family:Times;-inkscape-font-specification:Times-Roman"
       d="m 14.652103,59.494148 -2.960001,0 -0.472,-1.176 0.136,-0.064 c 0.344,0.543999 0.488001,0.648 0.928,0.648 l 1.736001,0 -1.584001,-4.768 0.520001,0 1.696,5.232 0,0.128" /><path
       inkscape:connector-curvature="0"
       id="path3580"
       style="font-size:8px;font-variant:normal;font-weight:normal;writing-mode:lr-tb;fill:#231f20;fill-opacity:1;fill-rule:nonzero;stroke:none;font-family:Times;-inkscape-font-specification:Times-Roman"
       d="m 22.636103,59.494148 -1.64,0 0,-0.152 c 0.439999,-0.024 0.584,-0.112 0.584,-0.336 0,-0.128 -0.056,-0.344 -0.152,-0.584 l -1.176,-2.936 -1.208,2.704 c -0.264,0.583999 -0.328,0.768 -0.328,0.888 0,0.152 0.112,0.232 0.368,0.248 0.032,0 0.12,0.008 0.232,0.016 l 0,0.152 -2.128,0 0,-0.152 c 0.391999,-0.016 0.504,-0.128001 0.848,-0.84 l 1.968,-4.392 0.12,0 1.776,4.488 c 0.263999,0.631999 0.352,0.72 0.736,0.744 l 0,0.152" /><path
       inkscape:connector-curvature="0"
       id="path3582"
       style="font-size:8px;font-variant:normal;font-weight:normal;writing-mode:lr-tb;fill:#231f20;fill-opacity:1;fill-rule:nonzero;stroke:none;font-family:Times;-inkscape-font-specification:Times-Roman"
       d="m 110.1448,135.33583 -1.44,-0.728 0,-0.112 c 0.096,0.04 0.184,0.072 0.216,0.088 0.144,0.056 0.28,0.088 0.36,0.088 0.168,0 0.24,-0.12 0.24,-0.376 l 0,-3.624 c 0,-0.264 -0.064,-0.448 -0.192,-0.52 -0.12,-0.072 -0.232,-0.096 -0.568,-0.104 l 0,-0.12 2.208,0 0,0.12 c -0.632,0.008 -0.76,0.088 -0.76,0.472 l 0,4.8 -0.064,0.016" /><path
       inkscape:connector-curvature="0"
       id="path3584"
       style="font-size:8px;font-variant:normal;font-weight:normal;writing-mode:lr-tb;fill:#231f20;fill-opacity:1;fill-rule:nonzero;stroke:none;font-family:Times;-inkscape-font-specification:Times-Roman"
       d="m 113.9688,133.11183 c 0.104,0.024 0.168,0.032 0.256,0.032 0.208,0 0.28,-0.128 0.28,-0.512 l 0,-2.024 c 0,-0.432 -0.112,-0.552 -0.56,-0.56 l 0,-0.12 1.776,0 0,0.12 c -0.424,0.016 -0.544,0.104 -0.544,0.416 l 0,2.256 c 0,0.016 0.064,0.096 0.12,0.152 0.2,0.184 0.544,0.32 0.824,0.32 0.352,0 0.528,-0.28 0.528,-0.84 l 0,-1.736 c 0,-0.448 -0.088,-0.536 -0.544,-0.568 l 0,-0.12 1.792,0 0,0.12 c -0.456,0.008 -0.576,0.144 -0.576,0.64 l 0,2.016 c 0.24,0.344 0.504,0.488 0.872,0.488 0.456,0 0.6,-0.216 0.6,-0.88 l 0,-1.688 c 0,-0.456 -0.064,-0.52 -0.528,-0.576 l 0,-0.12 1.752,0 0,0.12 -0.208,0.016 c -0.24,0.016 -0.344,0.16 -0.344,0.472 l 0,1.648 c 0,0.944 -0.312,1.424 -0.928,1.424 -0.464,0 -0.872,-0.208 -1.304,-0.672 -0.144,0.456 -0.416,0.672 -0.848,0.672 -0.352,0 -0.576,-0.112 -1.24,-0.616 l 0,0.6 -0.056,0.016 c -0.408,-0.152 -0.68,-0.24 -1.12,-0.36 l 0,-0.136" /><path
       inkscape:connector-curvature="0"
       id="path3586"
       style="font-size:8px;font-variant:normal;font-weight:normal;writing-mode:lr-tb;fill:#231f20;fill-opacity:1;fill-rule:nonzero;stroke:none;font-family:Times;-inkscape-font-specification:Times-Roman"
       d="m 125.68844,130.07983 c -0.36,0.024 -0.44001,0.104 -0.72,0.696 l -1.992,4.544 -0.16,0 -1.664,-3.928 c -0.512,-1.168 -0.60801,-1.296 -0.99201,-1.312 l 0,-0.152 1.58401,0 0,0.152 c -0.384,0 -0.544,0.104 -0.544,0.328 0,0.096 0.024,0.208 0.064,0.312 l 0.368,0.936 2.096,0 0.328,-0.768 c 0.096,-0.216 0.152,-0.424 0.152,-0.536 0,-0.2 -0.13601,-0.264 -0.56,-0.272 l 0,-0.152 2.04,0 0,0.152 m -3.92,1.904 0.92,2.2 0.928,-2.2 -1.848,0" /><path
       inkscape:connector-curvature="0"
       id="path3588"
       style="font-size:8px;font-variant:normal;font-weight:normal;writing-mode:lr-tb;fill:#231f20;fill-opacity:1;fill-rule:nonzero;stroke:none;font-family:Times;-inkscape-font-specification:Times-Roman"
       d="m 110.13714,41.518461 -1.44,-0.728 0,-0.112 c 0.096,0.04 0.184,0.072 0.216,0.088 0.144,0.056 0.28,0.088 0.36,0.088 0.168,0 0.24,-0.12 0.24,-0.376 l 0,-3.624 c 0,-0.264 -0.064,-0.448 -0.192,-0.52 -0.12,-0.072 -0.232,-0.096 -0.568,-0.104 l 0,-0.12 2.208,0 0,0.12 c -0.632,0.008 -0.76,0.088 -0.76,0.472 l 0,4.8 -0.064,0.016" /><path
       inkscape:connector-curvature="0"
       id="path3590"
       style="font-size:8px;font-variant:normal;font-weight:normal;writing-mode:lr-tb;fill:#231f20;fill-opacity:1;fill-rule:nonzero;stroke:none;font-family:Times;-inkscape-font-specification:Times-Roman"
       d="m 113.96114,39.294461 c 0.104,0.024 0.168,0.032 0.256,0.032 0.208,0 0.28,-0.128 0.28,-0.512 l 0,-2.024 c 0,-0.432 -0.112,-0.552 -0.56,-0.56 l 0,-0.12 1.776,0 0,0.12 c -0.424,0.016 -0.544,0.104 -0.544,0.416 l 0,2.256 c 0,0.016 0.064,0.096 0.12,0.152 0.2,0.184 0.544,0.32 0.824,0.32 0.352,0 0.528,-0.280001 0.528,-0.84 l 0,-1.736 c 0,-0.448 -0.088,-0.536 -0.544,-0.568 l 0,-0.12 1.792,0 0,0.12 c -0.456,0.008 -0.576,0.144 -0.576,0.64 l 0,2.016 c 0.24,0.344 0.504,0.488 0.872,0.488 0.456,0 0.6,-0.216001 0.6,-0.88 l 0,-1.688 c 0,-0.456 -0.064,-0.52 -0.528,-0.576 l 0,-0.12 1.752,0 0,0.12 -0.208,0.016 c -0.24,0.016 -0.344,0.16 -0.344,0.472 l 0,1.648 c 0,0.943999 -0.312,1.424 -0.928,1.424 -0.464,0 -0.872,-0.208001 -1.304,-0.672 -0.144,0.455999 -0.416,0.672 -0.848,0.672 -0.352,0 -0.576,-0.112001 -1.24,-0.616 l 0,0.6 -0.056,0.016 c -0.408,-0.152 -0.68,-0.24 -1.12,-0.36 l 0,-0.136" /><path
       inkscape:connector-curvature="0"
       id="path3592"
       style="font-size:8px;font-variant:normal;font-weight:normal;writing-mode:lr-tb;fill:#231f20;fill-opacity:1;fill-rule:nonzero;stroke:none;font-family:Times;-inkscape-font-specification:Times-Roman"
       d="m 125.68077,36.262461 c -0.36,0.024 -0.44,0.104001 -0.72,0.696 l -1.992,4.544 -0.16,0 -1.664,-3.928 c -0.512,-1.167999 -0.608,-1.296 -0.992,-1.312 l 0,-0.152 1.584,0 0,0.152 c -0.384,0 -0.544,0.104 -0.544,0.328 0,0.096 0.024,0.208 0.064,0.312 l 0.368,0.936 2.096,0 0.328,-0.768 c 0.096,-0.216 0.152,-0.424 0.152,-0.536 0,-0.2 -0.136,-0.264 -0.56,-0.272 l 0,-0.152 2.04,0 0,0.152 m -3.92,1.904 0.92,2.2 0.928,-2.2 -1.848,0" /><path
       inkscape:connector-curvature="0"
       id="path3595"
       style="font-size:8px;font-style:italic;font-variant:normal;writing-mode:lr-tb;fill:#231f20;fill-opacity:1;fill-rule:nonzero;stroke:none;font-family:Times;-inkscape-font-specification:Times-Italic"
       d="m 191.90423,193.14435 -1.488,0 0,-0.128 c 0.36,-0.04 0.504,-0.12 0.504,-0.272 0,-0.152 -0.152,-0.496 -0.416,-0.952 l -1.648,-2.848 -0.528,3.544 c -0.008,0.04 -0.008,0.072 -0.008,0.12 0,0.272 0.112,0.352 0.616,0.408 l 0,0.128 -1.928,0 0,-0.128 c 0.448,-0.056 0.464,-0.08 0.632,-1.08 l 0.68,-4.16 0.152,0 2.984,4.92 c 0.136,0.216 0.264,0.312 0.448,0.32 l 0,0.128" /><path
       inkscape:connector-curvature="0"
       id="path3598"
       style="font-size:6px;font-style:italic;font-variant:normal;writing-mode:lr-tb;fill:#231f20;fill-opacity:1;fill-rule:nonzero;stroke:none;font-family:Times;-inkscape-font-specification:Times-Italic"
       d="m 195.19935,188.71035 0.222,1.194 -0.126,0 c -0.048,-0.096 -0.108,-0.132 -0.228,-0.132 -0.048,0 -0.12,0.012 -0.246,0.042 -0.27,0.066 -0.51,0.102 -0.702,0.102 -1.278,0 -2.436,-1.206 -2.436,-2.538 0,-0.918 0.648,-1.566 1.566,-1.566 0.618,0 1.098,0.264 1.638,0.894 l -0.102,0.084 c -0.54,-0.528 -0.888,-0.708 -1.38,-0.708 -0.666,0 -1.05,0.456 -1.05,1.23 0,0.714 0.288,1.44 0.756,1.926 0.288,0.294 0.666,0.462 1.062,0.462 0.552,0 0.858,-0.324 0.918,-0.972 l 0.108,-0.018" /><path
       inkscape:connector-curvature="0"
       id="path3600"
       style="font-size:6px;font-style:italic;font-variant:normal;writing-mode:lr-tb;fill:#231f20;fill-opacity:1;fill-rule:nonzero;stroke:none;font-family:Times;-inkscape-font-specification:Times-Italic"
       d="m 199.20135,188.71035 0.222,1.194 -0.126,0 c -0.048,-0.096 -0.108,-0.132 -0.228,-0.132 -0.048,0 -0.12,0.012 -0.246,0.042 -0.27,0.066 -0.51,0.102 -0.702,0.102 -1.278,0 -2.436,-1.206 -2.436,-2.538 0,-0.918 0.648,-1.566 1.566,-1.566 0.618,0 1.098,0.264 1.638,0.894 l -0.102,0.084 c -0.54,-0.528 -0.888,-0.708 -1.38,-0.708 -0.666,0 -1.05,0.456 -1.05,1.23 0,0.714 0.288,1.44 0.756,1.926 0.288,0.294 0.666,0.462 1.062,0.462 0.552,0 0.858,-0.324 0.918,-0.972 l 0.108,-0.018" /><path
       inkscape:connector-curvature="0"
       id="path3603"
       style="font-size:8px;font-variant:normal;font-weight:normal;writing-mode:lr-tb;fill:#231f20;fill-opacity:1;fill-rule:nonzero;stroke:none;font-family:Times;-inkscape-font-specification:Times-Roman"
       d="m 205.56325,191.00835 -4.032,0 0,-0.528 4.032,0 0,0.528 m 0,-1.6 -4.032,0 0,-0.528 4.032,0 0,0.528" /><path
       inkscape:connector-curvature="0"
       id="path3605"
       style="font-size:8px;font-variant:normal;font-weight:normal;writing-mode:lr-tb;fill:#231f20;fill-opacity:1;fill-rule:nonzero;stroke:none;font-family:Times;-inkscape-font-specification:Times-Roman"
       d="m 209.02726,190.56035 c 0.472,0 0.656,-0.016 0.848,-0.088 0.496,-0.176 0.808,-0.632 0.808,-1.184 0,-0.672 -0.456,-1.192 -1.048,-1.192 -0.216,0 -0.376,0.056 -0.672,0.248 -0.24,0.144 -0.376,0.2 -0.512,0.2 -0.184,0 -0.304,-0.112 -0.304,-0.28 0,-0.28 0.344,-0.456 0.904,-0.456 0.616,0 1.248,0.208 1.624,0.536 0.376,0.328 0.584,0.792 0.584,1.328 0,0.408 -0.128,0.784 -0.36,1.032 -0.16,0.176 -0.312,0.272 -0.664,0.424 0.552,0.376 0.752,0.672 0.752,1.104 0,0.648 -0.512,1.096 -1.248,1.096 -0.4,0 -0.752,-0.136 -1.04,-0.392 -0.24,-0.216 -0.36,-0.424 -0.536,-0.904 l 0.12,-0.032 c 0.328,0.584 0.688,0.848 1.192,0.848 0.52,0 0.88,-0.352 0.88,-0.856 0,-0.288 -0.12,-0.576 -0.32,-0.776 -0.24,-0.24 -0.464,-0.36 -1.008,-0.552 l 0,-0.104" /><path
       inkscape:connector-curvature="0"
       id="path3607"
       style="font-size:8px;font-variant:normal;font-weight:normal;writing-mode:lr-tb;fill:#231f20;fill-opacity:1;fill-rule:nonzero;stroke:none;font-family:Times;-inkscape-font-specification:Times-Roman"
       d="m 213.83526,193.32835 c -0.44,0 -0.776,-0.136 -1.072,-0.416 -0.464,-0.448 -0.768,-1.368 -0.768,-2.304 0,-0.872 0.264,-1.808 0.64,-2.256 0.296,-0.352 0.704,-0.544 1.168,-0.544 0.408,0 0.752,0.136 1.04,0.416 0.464,0.44 0.768,1.368 0.768,2.336 0,1.64 -0.728,2.768 -1.776,2.768 m -0.024,-0.208 c 0.672,0 1.032,-0.904 1.032,-2.576 0,-1.672 -0.352,-2.528 -1.04,-2.528 -0.688,0 -1.04,0.856 -1.04,2.52 0,1.696 0.36,2.584 1.048,2.584" /><path
       inkscape:connector-curvature="0"
       id="path3609"
       style="font-size:8px;font-variant:normal;font-weight:normal;writing-mode:lr-tb;fill:#231f20;fill-opacity:1;fill-rule:nonzero;stroke:none;font-family:Times;-inkscape-font-specification:Times-Roman"
       d="m 223.37926,193.21635 -1.64,0 0,-0.152 c 0.44,-0.024 0.584,-0.112 0.584,-0.336 0,-0.128 -0.056,-0.344 -0.152,-0.584 l -1.176,-2.936 -1.208,2.704 c -0.264,0.584 -0.328,0.768 -0.328,0.888 0,0.152 0.112,0.232 0.368,0.248 0.032,0 0.12,0.008 0.232,0.016 l 0,0.152 -2.128,0 0,-0.152 c 0.392,-0.016 0.504,-0.128 0.848,-0.84 l 1.968,-4.392 0.12,0 1.776,4.488 c 0.264,0.632 0.352,0.72 0.736,0.744 l 0,0.152" /><path
       inkscape:connector-curvature="0"
       id="path3612"
       style="font-size:8px;font-style:italic;font-variant:normal;writing-mode:lr-tb;fill:#231f20;fill-opacity:1;fill-rule:nonzero;stroke:none;font-family:Times;-inkscape-font-specification:Times-Italic"
       d="m 44.123256,149.83304 c -0.352,0.024 -0.512001,0.16 -0.664,0.576 l -0.744,1.96 c 0.615999,0.136 0.88,0.248 1.168,0.504 0.263999,0.232 0.408,0.544 0.408,0.904 0,0.744 -0.592001,1.152 -1.664,1.152 l -1.984,0 0,-0.128 c 0.335999,-0.048 0.376,-0.056 0.456,-0.112 0.064,-0.04 0.112,-0.136 0.112,-0.224 0,-0.096 -0.04,-0.288 -0.096,-0.504 l -0.984,-3.536 c -0.144,-0.472 -0.200001,-0.52 -0.648,-0.592 l 0,-0.128 1.952,0 0,0.128 c -0.488,0.064 -0.544,0.104 -0.544,0.368 0,0.08 0.024,0.184 0.096,0.464 l 0.448,1.672 0.52,-0.04 0.984,-2.592 1.184,0 0,0.128 m -2.072,4.632 c 0.048,0.168 0.152,0.224 0.408,0.224 0.663999,0 0.992,-0.304 0.992,-0.896 0,-0.792 -0.512001,-1.2 -1.512,-1.2 -0.128,0 -0.216001,0.008 -0.408,0.04 l 0.52,1.832" /><path
       inkscape:connector-curvature="0"
       id="path3615"
       style="font-size:6px;font-variant:normal;font-weight:normal;writing-mode:lr-tb;fill:#231f20;fill-opacity:1;fill-rule:nonzero;stroke:none;font-family:Times;-inkscape-font-specification:Times-Roman"
       d="m 46.220756,151.76104 -1.08,-0.546 0,-0.084 c 0.072,0.03 0.138,0.054 0.162,0.066 0.108,0.042 0.21,0.066 0.27,0.066 0.126,0 0.18,-0.09 0.18,-0.282 l 0,-2.718 c 0,-0.198 -0.048,-0.336 -0.144,-0.39 -0.09,-0.054 -0.174,-0.072 -0.426,-0.078 l 0,-0.09 1.656,0 0,0.09 c -0.473999,0.006 -0.57,0.066 -0.57,0.354 l 0,3.6 -0.048,0.012" /><path
       inkscape:connector-curvature="0"
       id="path3618"
       style="font-size:8px;font-style:italic;font-variant:normal;writing-mode:lr-tb;fill:#231f20;fill-opacity:1;fill-rule:nonzero;stroke:none;font-family:Times;-inkscape-font-specification:Times-Italic"
       d="m 68.000782,50.468721 1.952,0 0,0.128 c -0.455999,0.056 -0.544,0.104 -0.544,0.328 0,0.151999 0.016,0.248 0.088,0.504 l 0.984,3.544 c 0.144,0.463999 0.200001,0.512 0.656,0.592 l 0,0.128 -1.976,0 0,-0.128 c 0.464,-0.056 0.56,-0.120001 0.56,-0.344 0,-0.112 -0.032,-0.296001 -0.088,-0.496 l -0.984,-3.536 c -0.143999,-0.464 -0.2,-0.512001 -0.648,-0.592 l 0,-0.128" /><path
       inkscape:connector-curvature="0"
       id="path3621"
       style="font-size:6px;font-variant:normal;font-weight:normal;writing-mode:lr-tb;fill:#231f20;fill-opacity:1;fill-rule:nonzero;stroke:none;font-family:Times;-inkscape-font-specification:Times-Roman"
       d="m 73.579234,49.290721 -0.078,0.03 c -0.222,-0.342 -0.3,-0.396 -0.57,-0.396 l -1.434,0 1.008,1.056 c 0.533999,0.557999 0.768,1.014 0.768,1.482 0,0.599999 -0.486001,1.062 -1.11,1.062 -0.33,0 -0.642,-0.132001 -0.864,-0.372 -0.192,-0.204 -0.282,-0.396001 -0.384,-0.822 l 0.126,-0.03 c 0.24,0.587999 0.456,0.78 0.87,0.78 0.503999,0 0.846,-0.342001 0.846,-0.846 0,-0.468 -0.276001,-1.026001 -0.78,-1.56 l -1.068,-1.134 0,-0.072 2.34,0 0.33,0.822" /><path
       inkscape:connector-curvature="0"
       id="path3624"
       style="font-size:8px;font-style:italic;font-variant:normal;writing-mode:lr-tb;fill:#231f20;fill-opacity:1;fill-rule:nonzero;stroke:none;font-family:Times;-inkscape-font-specification:Times-Italic"
       d="m 45.645225,63.313389 c -0.351999,0.024 -0.512,0.16 -0.664,0.576 l -0.744,1.96 c 0.616,0.136 0.880001,0.248 1.168,0.504 0.264,0.231999 0.408,0.544 0.408,0.904 0,0.743999 -0.592001,1.152 -1.664,1.152 l -1.984,0 0,-0.128 c 0.336,-0.048 0.376001,-0.056 0.456,-0.112 0.064,-0.04 0.112,-0.136 0.112,-0.224 0,-0.096 -0.04,-0.288001 -0.096,-0.504 l -0.984,-3.536 c -0.143999,-0.472 -0.2,-0.52 -0.648,-0.592 l 0,-0.128 1.952,0 0,0.128 c -0.487999,0.064 -0.544,0.104 -0.544,0.368 0,0.08 0.024,0.184 0.096,0.464 l 0.448,1.672 0.52,-0.04 0.984,-2.592 1.184,0 0,0.128 m -2.072,4.632 c 0.048,0.168 0.152001,0.224 0.408,0.224 0.664,0 0.992,-0.304001 0.992,-0.896 0,-0.792 -0.512001,-1.2 -1.512,-1.2 -0.127999,0 -0.216,0.008 -0.408,0.04 l 0.52,1.832" /><path
       inkscape:connector-curvature="0"
       id="path3627"
       style="font-size:6px;font-variant:normal;font-weight:normal;writing-mode:lr-tb;fill:#231f20;fill-opacity:1;fill-rule:nonzero;stroke:none;font-family:Times;-inkscape-font-specification:Times-Roman"
       d="m 48.846726,62.007389 -0.078,0.03 c -0.222,-0.342 -0.3,-0.396 -0.57,-0.396 l -1.434,0 1.008,1.056 c 0.534,0.557999 0.768,1.014 0.768,1.482 0,0.599999 -0.486,1.062 -1.11,1.062 -0.329999,0 -0.642,-0.132001 -0.864,-0.372 -0.192,-0.204 -0.282,-0.396001 -0.384,-0.822 l 0.126,-0.03 c 0.24,0.587999 0.456001,0.78 0.87,0.78 0.504,0 0.846,-0.342001 0.846,-0.846 0,-0.468 -0.276,-1.026001 -0.78,-1.56 l -1.068,-1.134 0,-0.072 2.34,0 0.33,0.822" /><path
       inkscape:connector-curvature="0"
       id="path102"
       style="fill:none;stroke:#231f20;stroke-width:0.5;stroke-linecap:butt;stroke-linejoin:miter;stroke-miterlimit:4;stroke-opacity:1;stroke-dasharray:none"
       d="m 14.710028,49.834917 0,-30.0313" /><path
       inkscape:connector-curvature="0"
       id="path104"
       style="fill:#231f20;fill-opacity:1;fill-rule:nonzero;stroke:none"
       d="m 14.710028,20.186817 1.3516,0.8199 0.0304,-0.0449 -0.87497,-2.2031 c -0.16914,-0.768 -0.33789,-1.5348 -0.50703,-2.3027 -0.16875,0.7679 -0.33789,1.5347 -0.50664,2.3027 l -0.875,2.2031 0.02344,0.0449 1.3582,-0.8199" /><path
       inkscape:connector-curvature="0"
       id="path106"
       style="fill:none;stroke:#231f20;stroke-width:0.5;stroke-linecap:butt;stroke-linejoin:miter;stroke-miterlimit:4;stroke-opacity:1;stroke-dasharray:none"
       d="m 14.710028,71.788017 0,34.030803" /><path
       inkscape:connector-curvature="0"
       id="path108"
       style="fill:#231f20;fill-opacity:1;fill-rule:nonzero;stroke:none"
       d="m 14.710028,101.43562 -1.35156,-0.8214 -0.03008,0.0461 0.875,2.2031 c 0.16875,0.7676 0.33789,1.5354 0.50664,2.3024 0.16914,-0.767 0.33789,-1.5348 0.50703,-2.3024 l 0.87497,-2.2031 -0.0234,-0.0461 -1.3586,0.8214" /><path
       inkscape:connector-curvature="0"
       id="path110"
       style="fill:none;stroke:#231f20;stroke-width:0.5;stroke-linecap:butt;stroke-linejoin:miter;stroke-miterlimit:4;stroke-opacity:1;stroke-dasharray:none"
       d="m 166.38506,56.901663 0,21.685953" /><path
       inkscape:connector-curvature="0"
       id="path112"
       style="fill:#231f20;fill-opacity:1;fill-rule:nonzero;stroke:none"
       d="m 166.38506,76.597758 -1.352,-0.8222 -0.03,0.0461 0.875,2.2031 c 0.169,0.7679 0.338,1.5359 0.507,2.3027 0.169,-0.7668 0.338,-1.5348 0.507,-2.3027 l 0.875,-2.2031 -0.024,-0.0461 -1.358,0.8222" /><path
       inkscape:connector-curvature="0"
       id="path114"
       style="fill:none;stroke:#231f20;stroke-width:0.5;stroke-linecap:butt;stroke-linejoin:miter;stroke-miterlimit:4;stroke-opacity:1;stroke-dasharray:none"
       d="m 166.30492,42.813048 0,-25.124823" /><path
       inkscape:connector-curvature="0"
       id="path116"
       style="fill:#231f20;fill-opacity:1;fill-rule:nonzero;stroke:none"
       d="m 166.30492,20.130841 1.352,0.8211 0.03,-0.0461 -0.875,-2.2027 c -0.169,-0.7672 -0.338,-1.5352 -0.507,-2.3031 -0.169,0.7679 -0.338,1.5359 -0.507,2.3031 l -0.875,2.2027 0.024,0.0461 1.358,-0.8211" /><path
       inkscape:connector-curvature="0"
       id="path118"
       style="fill:none;stroke:#231f20;stroke-width:0.8;stroke-linecap:butt;stroke-linejoin:miter;stroke-miterlimit:4;stroke-opacity:1;stroke-dasharray:none"
       d="m 129.49194,16.631717 -69.863104,0 0,172.812103 69.863104,0" /><path
       inkscape:connector-curvature="0"
       id="path120"
       style="fill:none;stroke:#231f20;stroke-width:0.8;stroke-linecap:butt;stroke-linejoin:miter;stroke-miterlimit:4;stroke-opacity:1;stroke-dasharray:none"
       d="m 129.49194,189.44382 0,-73.119" /><path
       inkscape:connector-curvature="0"
       id="path122"
       style="fill:none;stroke:#231f20;stroke-width:0.80000001;stroke-linecap:round;stroke-linejoin:round;stroke-miterlimit:3.86369991;stroke-opacity:1;stroke-dasharray:none"
       d="m 112.66084,110.29782 16.8421,6.027" /><path
       inkscape:connector-curvature="0"
       id="path124"
       style="fill:none;stroke:#231f20;stroke-width:2;stroke-linecap:round;stroke-linejoin:round;stroke-miterlimit:3.86369991;stroke-opacity:1;stroke-dasharray:none"
       d="m 112.30344,96.068517 0,18.804303" /><path
       inkscape:connector-curvature="0"
       id="path126"
       style="fill:none;stroke:#231f20;stroke-width:0.80000001;stroke-linecap:round;stroke-linejoin:round;stroke-miterlimit:3.86369991;stroke-opacity:1;stroke-dasharray:none"
       d="m 113.05544,99.325117 14.1325,-7.9332" /><path
       inkscape:connector-curvature="0"
       id="path128"
       style="fill:#231f20;fill-opacity:1;fill-rule:nonzero;stroke:none"
       d="m 124.46594,92.670817 -0.09,2.5293 0.09,0.0059 2.388,-2.9473 c 0.938,-0.8359 1.877,-1.6719 2.815,-2.5098 -1.203,0.3649 -2.406,0.7328 -3.61,1.0981 l -3.7575,0.5039 -0.0468,0.0679 2.2113,1.252" /><path
       inkscape:connector-curvature="0"
       id="path3517"
       style="font-size:8px;font-variant:normal;font-weight:normal;writing-mode:lr-tb;fill:#231f20;fill-opacity:1;fill-rule:nonzero;stroke:none;font-family:Symbol;-inkscape-font-specification:Symbol"
       d="m 8.0553278,100.40362 -0.44,0 0,-1.912001 -1.896,0 0,-0.44 1.896,0 0,-1.912 0.44,0 0,1.912 1.896,0 0,0.44 -1.896,0 0,1.912001" /><path
       inkscape:connector-curvature="0"
       id="path3519"
       style="font-size:8px;font-variant:normal;font-weight:normal;writing-mode:lr-tb;fill:#231f20;fill-opacity:1;fill-rule:nonzero;stroke:none;font-family:Symbol;-inkscape-font-specification:Symbol"
       d="m 5.7273278,22.433018 0,-0.44 4.192,0 0,0.44 -4.192,0" /><path
       inkscape:connector-curvature="0"
       id="path138"
       style="fill:#ffffff;fill-opacity:1;fill-rule:nonzero;stroke:none"
       d="m 125.82994,136.77082 7.46875,0 0,32.4512 -7.46875,0 0,-32.4512 z" /><path
       inkscape:connector-curvature="0"
       id="path140"
       style="fill:none;stroke:#231f20;stroke-width:0.80000001;stroke-linecap:round;stroke-linejoin:round;stroke-miterlimit:3.86369991;stroke-opacity:1;stroke-dasharray:none"
       d="m 129.52894,136.54782 0,3.612 -3.699,1.571 7.469,3.149 -7.469,3.195 7.469,3.198 -7.469,3.15 7.469,3.123 -7.469,3.15 7.373,3.198 -3.674,1.529 0,3.799" /><path
       inkscape:connector-curvature="0"
       id="path142"
       style="fill:none;stroke:#231f20;stroke-width:0.8;stroke-linecap:butt;stroke-linejoin:miter;stroke-miterlimit:4;stroke-opacity:1;stroke-dasharray:none"
       d="m 129.49194,90.014917 0,-73.5711" /><path
       inkscape:connector-curvature="0"
       id="path144"
       style="fill:#ffffff;fill-opacity:1;fill-rule:nonzero;stroke:none"
       d="m 125.82994,37.340717 7.46875,0 0,32.4492 -7.46875,0 0,-32.4492 z" /><path
       inkscape:connector-curvature="0"
       id="path146"
       style="fill:none;stroke:#231f20;stroke-width:0.80000001;stroke-linecap:round;stroke-linejoin:round;stroke-miterlimit:3.86369991;stroke-opacity:1;stroke-dasharray:none"
       d="m 129.52894,37.117717 0,3.614 -3.699,1.57 7.469,3.148 -7.469,3.1961 7.469,3.1969 -7.469,3.15 7.469,3.1211 -7.469,3.15 7.373,3.198 -3.674,1.5289 0,3.7992" /><path
       inkscape:connector-curvature="0"
       id="path148"
       style="fill:#ffffff;fill-opacity:1;fill-rule:nonzero;stroke:none"
       d="m 55.931536,45.419141 7.46875,0 0,32.4492 -7.46875,0 0,-32.4492 z" /><path
       inkscape:connector-curvature="0"
       id="path150"
       style="fill:none;stroke:#231f20;stroke-width:0.80000001;stroke-linecap:round;stroke-linejoin:round;stroke-miterlimit:3.86369991;stroke-opacity:1;stroke-dasharray:none"
       d="m 59.630736,45.196141 0,3.614 -3.6992,1.57 7.4688,3.148 -7.4688,3.1961 7.4688,3.1969 -7.4688,3.15 7.4688,3.1211 -7.4688,3.15 7.3731,3.198 -3.6739,1.5289 0,3.7992" /><path
       inkscape:connector-curvature="0"
       id="path152"
       style="fill:#ffffff;fill-opacity:1;fill-rule:nonzero;stroke:none"
       d="m 55.929636,132.45001 7.46875,0 0,32.4512 -7.46875,0 0,-32.4512 z" /><path
       inkscape:connector-curvature="0"
       id="path154"
       style="fill:none;stroke:#231f20;stroke-width:0.80000001;stroke-linecap:round;stroke-linejoin:round;stroke-miterlimit:3.86369991;stroke-opacity:1;stroke-dasharray:none"
       d="m 59.628836,132.22701 0,3.612 -3.6992,1.571 7.4687,3.149 -7.4687,3.195 7.4687,3.198 -7.4687,3.15 7.4687,3.123 -7.4687,3.15 7.373,3.198 -3.6738,1.529 0,3.799" /><path
       inkscape:connector-curvature="0"
       id="path156"
       style="fill:none;stroke:#231f20;stroke-width:0.80000001;stroke-linecap:round;stroke-linejoin:round;stroke-miterlimit:3.86369991;stroke-opacity:1;stroke-dasharray:none"
       d="m 94.683536,16.438817 0,-6.43011" /><path
       inkscape:connector-curvature="0"
       id="path158"
       style="fill:none;stroke:#231f20;stroke-width:0.80000001;stroke-linecap:round;stroke-linejoin:round;stroke-miterlimit:3.86369991;stroke-opacity:1;stroke-dasharray:none"
       d="m 101.68354,10.008707 -14.000004,0" /><path
       inkscape:connector-curvature="0"
       id="path160"
       style="fill:none;stroke:#231f20;stroke-width:0.80000001;stroke-linecap:round;stroke-linejoin:round;stroke-miterlimit:3.86369991;stroke-opacity:1;stroke-dasharray:none"
       d="m 99.668652,7.3637866 -9.802329,0" /><path
       inkscape:connector-curvature="0"
       id="path162"
       style="fill:none;stroke:#231f20;stroke-width:0.80000001;stroke-linecap:round;stroke-linejoin:round;stroke-miterlimit:3.86369991;stroke-opacity:1;stroke-dasharray:none"
       d="m 97.566535,4.7219886 -5.877931,0" /><path
       inkscape:connector-curvature="0"
       id="path164"
       style="fill:none;stroke:#231f20;stroke-width:0.8;stroke-linecap:butt;stroke-linejoin:miter;stroke-miterlimit:4;stroke-opacity:1;stroke-dasharray:none"
       d="m 112.30344,105.44082 -52.674604,0" /><path
       inkscape:connector-curvature="0"
       id="path166"
       style="fill:none;stroke:#231f20;stroke-width:0.8;stroke-linecap:butt;stroke-linejoin:miter;stroke-miterlimit:4;stroke-opacity:1;stroke-dasharray:none"
       d="m 182.08694,189.27582 -52.675,0" /><path
       inkscape:connector-curvature="0"
       id="path168"
       style="fill:none;stroke:#231f20;stroke-width:0.5;stroke-linecap:butt;stroke-linejoin:miter;stroke-miterlimit:4;stroke-opacity:1;stroke-dasharray:2.00000001, 2.00000001;stroke-dashoffset:0"
       d="m 59.836637,105.44082 -51.8832329,0" /><path
       inkscape:connector-curvature="0"
       id="path170"
       style="fill:none;stroke:#231f20;stroke-width:0.5;stroke-linecap:butt;stroke-linejoin:miter;stroke-miterlimit:4;stroke-opacity:1;stroke-dasharray:2.00000001, 2.00000001;stroke-dashoffset:0"
       d="m 59.836637,16.676717 -51.8832329,0" /><path
       inkscape:connector-curvature="0"
       id="path172"
       style="fill:none;stroke:#231f20;stroke-width:0.5;stroke-linecap:butt;stroke-linejoin:miter;stroke-miterlimit:4;stroke-opacity:1;stroke-dasharray:2.00000004, 2.00000004;stroke-dashoffset:0"
       d="m 175.43974,16.53353 -46.78893,0" /><path
       inkscape:connector-curvature="0"
       id="path174"
       style="fill:none;stroke:#231f20;stroke-width:0.5;stroke-linecap:butt;stroke-linejoin:miter;stroke-miterlimit:4;stroke-opacity:1;stroke-dasharray:2.00000004, 2.00000004;stroke-dashoffset:0"
       d="m 175.51888,80.106017 -45.69181,0" /><path
       inkscape:connector-curvature="0"
       id="path176"
       style="fill:none;stroke:#231f20;stroke-width:0.5;stroke-linecap:butt;stroke-linejoin:miter;stroke-miterlimit:4;stroke-opacity:1;stroke-dasharray:none"
       d="m 117.44763,70.479695 0,-15.5" /><path
       inkscape:connector-curvature="0"
       id="path178"
       style="fill:#231f20;fill-opacity:1;fill-rule:nonzero;stroke:none"
       d="m 117.44763,55.362495 1.3515,0.8223 0.0313,-0.0473 -0.875,-2.2027 c -0.17,-0.7672 -0.3379,-1.5352 -0.5078,-2.3032 -0.168,0.768 -0.3379,1.536 -0.5059,2.3032 l -0.875,2.2027 0.0234,0.0473 1.3575,-0.8223" /><path
       inkscape:connector-curvature="0"
       id="path180"
       style="fill:none;stroke:#231f20;stroke-width:0.5;stroke-linecap:butt;stroke-linejoin:miter;stroke-miterlimit:4;stroke-opacity:1;stroke-dasharray:none"
       d="m 72.019507,75.737861 0,-15.5" /><path
       inkscape:connector-curvature="0"
       id="path182"
       style="fill:#231f20;fill-opacity:1;fill-rule:nonzero;stroke:none"
       d="m 72.019507,60.620661 1.3516,0.8223 0.0305,-0.0473 -0.875,-2.2027 c -0.1692,-0.7672 -0.3379,-1.5352 -0.5071,-2.3032 -0.1687,0.768 -0.3379,1.536 -0.5066,2.3032 l -0.875,2.2027 0.0234,0.0473 1.3582,-0.8223" /><path
       inkscape:connector-curvature="0"
       id="path184"
       style="fill:none;stroke:#231f20;stroke-width:0.5;stroke-linecap:butt;stroke-linejoin:miter;stroke-miterlimit:4;stroke-opacity:1;stroke-dasharray:none"
       d="m 118.80264,166.77782 0,-15.5" /><path
       inkscape:connector-curvature="0"
       id="path186"
       style="fill:#231f20;fill-opacity:1;fill-rule:nonzero;stroke:none"
       d="m 118.80264,151.66082 1.3516,0.822 0.0301,-0.047 -0.875,-2.203 c -0.1688,-0.767 -0.3379,-1.535 -0.5067,-2.303 -0.1691,0.768 -0.3379,1.536 -0.507,2.303 l -0.875,2.203 0.0234,0.047 1.3586,-0.822" /><path
       inkscape:connector-curvature="0"
       id="path3467"
       style="font-size:8px;font-style:italic;font-variant:normal;writing-mode:lr-tb;fill:#231f20;fill-opacity:1;fill-rule:nonzero;stroke:none;font-family:Times;-inkscape-font-specification:Times-Italic"
       d="m 135.24494,107.27612 -1.488,0 0,-0.128 c 0.36,-0.04 0.504,-0.12 0.504,-0.272 0,-0.152 -0.152,-0.496 -0.416,-0.952 l -1.648,-2.848 -0.528,3.544 c -0.008,0.04 -0.008,0.072 -0.008,0.12 0,0.272 0.112,0.352 0.616,0.408 l 0,0.128 -1.928,0 0,-0.128 c 0.448,-0.056 0.464,-0.08 0.632,-1.08 l 0.68,-4.16 0.152,0 2.984,4.92 c 0.136,0.216 0.264,0.312 0.448,0.32 l 0,0.128" /><path
       inkscape:connector-curvature="0"
       id="path3470"
       style="font-size:6px;font-style:italic;font-variant:normal;writing-mode:lr-tb;fill:#231f20;fill-opacity:1;fill-rule:nonzero;stroke:none;font-family:Times;-inkscape-font-specification:Times-Italic"
       d="m 138.54005,102.84212 0.222,1.194 -0.126,0 c -0.048,-0.096 -0.108,-0.132 -0.228,-0.132 -0.048,0 -0.12,0.012 -0.246,0.042 -0.27,0.066 -0.51,0.102 -0.702,0.102 -1.278,0 -2.436,-1.206 -2.436,-2.538 0,-0.918 0.648,-1.566003 1.566,-1.566003 0.618,0 1.098,0.264003 1.638,0.894003 l -0.102,0.084 c -0.54,-0.528 -0.888,-0.708 -1.38,-0.708 -0.666,0 -1.05,0.456 -1.05,1.23 0,0.714 0.288,1.44 0.756,1.926 0.288,0.294 0.666,0.462 1.062,0.462 0.552,0 0.858,-0.324 0.918,-0.972 l 0.108,-0.018" /><path
       inkscape:connector-curvature="0"
       id="path3472"
       style="font-size:6px;font-style:italic;font-variant:normal;writing-mode:lr-tb;fill:#231f20;fill-opacity:1;fill-rule:nonzero;stroke:none;font-family:Times;-inkscape-font-specification:Times-Italic"
       d="m 142.43405,103.97012 -2.982,0 0,-0.096 c 0.372,-0.036 0.462,-0.084 0.462,-0.246 0,-0.066 -0.036,-0.276 -0.066,-0.384 l -0.738,-2.652 c -0.102,-0.342 -0.15,-0.384 -0.486,-0.444 l 0,-0.096 3.042,0 0.372,0.972 -0.096,0.048 c -0.282,-0.384 -0.438,-0.54 -0.696,-0.66 -0.222,-0.102 -0.63,-0.162 -1.08,-0.162 -0.336,0 -0.48,0.06 -0.48,0.204 0,0.066 0.066,0.348 0.216,0.876 0.078,0.264 0.132,0.462 0.192,0.69 0.21,-0.012 0.396,-0.018 0.468,-0.018 0.234,0.006 0.402,-0.03 0.468,-0.09 0.03,-0.03 0.042,-0.084 0.042,-0.186 0,-0.102 -0.012,-0.18 -0.042,-0.312 l 0.12,-0.03 0.408,1.392 -0.108,0.024 c -0.228,-0.51 -0.282,-0.546 -0.828,-0.57 -0.072,0 -0.264,-0.006 -0.474,-0.012 l 0.396,1.398 c 0.036,0.132 0.102,0.156 0.438,0.156 0.942,0 1.152,-0.078 1.152,-0.438 0,-0.078 -0.006,-0.168 -0.012,-0.27 l 0.126,-0.012 0.186,0.918" /><path
       inkscape:connector-curvature="0"
       id="path3475"
       style="font-size:8px;font-variant:normal;font-weight:normal;writing-mode:lr-tb;fill:#231f20;fill-opacity:1;fill-rule:nonzero;stroke:none;font-family:Times;-inkscape-font-specification:Times-Roman"
       d="m 149.56805,105.14012 -4.032,0 0,-0.528 4.032,0 0,0.528 m 0,-1.6 -4.032,0 0,-0.528 4.032,0 0,0.528" /><path
       inkscape:connector-curvature="0"
       id="path3477"
       style="font-size:8px;font-variant:normal;font-weight:normal;writing-mode:lr-tb;fill:#231f20;fill-opacity:1;fill-rule:nonzero;stroke:none;font-family:Times;-inkscape-font-specification:Times-Roman"
       d="m 154.13605,107.46012 -1.44,-0.728 0,-0.112 c 0.096,0.04 0.184,0.072 0.216,0.088 0.144,0.056 0.28,0.088 0.36,0.088 0.168,0 0.24,-0.12 0.24,-0.376 l 0,-3.624 c 0,-0.264 -0.064,-0.448 -0.192,-0.52 -0.12,-0.072 -0.232,-0.096 -0.568,-0.104 l 0,-0.12 2.208,0 0,0.12 c -0.632,0.008 -0.76,0.088 -0.76,0.472 l 0,4.8 -0.064,0.016" /><path
       inkscape:connector-curvature="0"
       id="path3479"
       style="font-size:8px;font-variant:normal;font-weight:normal;writing-mode:lr-tb;fill:#231f20;fill-opacity:1;fill-rule:nonzero;stroke:none;font-family:Times;-inkscape-font-specification:Times-Roman"
       d="m 157.84005,107.46012 c -0.44,0 -0.776,-0.136 -1.072,-0.416 -0.464,-0.448 -0.768,-1.368 -0.768,-2.304 0,-0.872 0.264,-1.808 0.64,-2.256 0.296,-0.352 0.704,-0.544 1.168,-0.544 0.408,0 0.752,0.136 1.04,0.416 0.464,0.44 0.768,1.368 0.768,2.336 0,1.64 -0.728,2.768 -1.776,2.768 m -0.024,-0.208 c 0.672,0 1.032,-0.904 1.032,-2.576 0,-1.672 -0.352,-2.528 -1.04,-2.528 -0.688,0 -1.04,0.856 -1.04,2.52 0,1.696 0.36,2.584 1.048,2.584" /><path
       inkscape:connector-curvature="0"
       id="path3481"
       style="font-size:8px;font-variant:normal;font-weight:normal;writing-mode:lr-tb;fill:#231f20;fill-opacity:1;fill-rule:nonzero;stroke:none;font-family:Times;-inkscape-font-specification:Times-Roman"
       d="m 167.38405,107.34812 -1.64,0 0,-0.152 c 0.44,-0.024 0.584,-0.112 0.584,-0.336 0,-0.128 -0.056,-0.344 -0.152,-0.584 l -1.176,-2.936 -1.208,2.704 c -0.264,0.584 -0.328,0.768 -0.328,0.888 0,0.152 0.112,0.232 0.368,0.248 0.032,0 0.12,0.008 0.232,0.016 l 0,0.152 -2.128,0 0,-0.152 c 0.392,-0.016 0.504,-0.128 0.848,-0.84 l 1.968,-4.392 0.12,0 1.776,4.488 c 0.264,0.632 0.352,0.72 0.736,0.744 l 0,0.152" /><path
       inkscape:connector-curvature="0"
       id="path3484"
       style="font-size:8px;font-style:italic;font-variant:normal;writing-mode:lr-tb;fill:#231f20;fill-opacity:1;fill-rule:nonzero;stroke:none;font-family:Times;-inkscape-font-specification:Times-Italic"
       d="m 143.33713,156.24061 c -0.352,0.024 -0.512,0.16 -0.664,0.576 l -0.744,1.96 c 0.616,0.136 0.88,0.248 1.168,0.504 0.264,0.232 0.408,0.544 0.408,0.904 0,0.744 -0.592,1.152 -1.664,1.152 l -1.984,0 0,-0.128 c 0.336,-0.048 0.376,-0.056 0.456,-0.112 0.064,-0.04 0.112,-0.136 0.112,-0.224 0,-0.096 -0.04,-0.288 -0.096,-0.504 l -0.984,-3.536 c -0.144,-0.472 -0.2,-0.52 -0.648,-0.592 l 0,-0.128 1.952,0 0,0.128 c -0.488,0.064 -0.544,0.104 -0.544,0.368 0,0.08 0.024,0.184 0.096,0.464 l 0.448,1.672 0.52,-0.04 0.984,-2.592 1.184,0 0,0.128 m -2.072,4.632 c 0.048,0.168 0.152,0.224 0.408,0.224 0.664,0 0.992,-0.304 0.992,-0.896 0,-0.792 -0.512,-1.2 -1.512,-1.2 -0.128,0 -0.216,0.008 -0.408,0.04 l 0.52,1.832" /><path
       inkscape:connector-curvature="0"
       id="path3487"
       style="font-size:6px;font-style:italic;font-variant:normal;writing-mode:lr-tb;fill:#231f20;fill-opacity:1;fill-rule:nonzero;stroke:none;font-family:Times;-inkscape-font-specification:Times-Italic"
       d="m 147.59985,156.90261 0.222,1.194 -0.126,0 c -0.048,-0.096 -0.108,-0.132 -0.228,-0.132 -0.048,0 -0.12,0.012 -0.246,0.042 -0.27,0.066 -0.51,0.102 -0.702,0.102 -1.278,0 -2.436,-1.206 -2.436,-2.538 0,-0.918 0.648,-1.566 1.566,-1.566 0.618,0 1.098,0.264 1.638,0.894 l -0.102,0.084 c -0.54,-0.528 -0.888,-0.708 -1.38,-0.708 -0.666,0 -1.05,0.456 -1.05,1.23 0,0.714 0.288,1.44 0.756,1.926 0.288,0.294 0.666,0.462 1.062,0.462 0.552,0 0.858,-0.324 0.918,-0.972 l 0.108,-0.018" /><path
       inkscape:connector-curvature="0"
       id="path3490"
       style="font-size:8px;font-style:italic;font-variant:normal;writing-mode:lr-tb;fill:#231f20;fill-opacity:1;fill-rule:nonzero;stroke:none;font-family:Times;-inkscape-font-specification:Times-Italic"
       d="m 113.3046,45.327736 1.952,0 0,0.128 c -0.456,0.056 -0.544,0.104001 -0.544,0.328 0,0.152 0.016,0.248001 0.088,0.504 l 0.984,3.544 c 0.144,0.464 0.2,0.512001 0.656,0.592 l 0,0.128 -1.976,0 0,-0.128 c 0.464,-0.056 0.56,-0.12 0.56,-0.344 0,-0.111999 -0.032,-0.296 -0.088,-0.496 l -0.984,-3.536 c -0.144,-0.463999 -0.2,-0.512 -0.648,-0.592 l 0,-0.128" /><path
       inkscape:connector-curvature="0"
       id="path3493"
       style="font-size:6px;font-style:italic;font-variant:normal;writing-mode:lr-tb;fill:#231f20;fill-opacity:1;fill-rule:nonzero;stroke:none;font-family:Times;-inkscape-font-specification:Times-Italic"
       d="m 119.83665,47.245736 -2.982,0 0,-0.096 c 0.372,-0.036 0.462,-0.084 0.462,-0.246 0,-0.066 -0.036,-0.276 -0.066,-0.384 l -0.738,-2.652 c -0.102,-0.341999 -0.15,-0.384 -0.486,-0.444 l 0,-0.096 3.042,0 0.372,0.972 -0.096,0.048 c -0.282,-0.383999 -0.438,-0.54 -0.696,-0.66 -0.222,-0.101999 -0.63,-0.162 -1.08,-0.162 -0.336,0 -0.48,0.06 -0.48,0.204 0,0.066 0.066,0.348001 0.216,0.876 0.078,0.264 0.132,0.462001 0.192,0.69 0.21,-0.012 0.396,-0.018 0.468,-0.018 0.234,0.006 0.402,-0.03 0.468,-0.09 0.03,-0.03 0.042,-0.084 0.042,-0.186 0,-0.101999 -0.012,-0.18 -0.042,-0.312 l 0.12,-0.03 0.408,1.392 -0.108,0.024 c -0.228,-0.509999 -0.282,-0.546 -0.828,-0.57 -0.072,0 -0.264,-0.006 -0.474,-0.012 l 0.396,1.398 c 0.036,0.132 0.102,0.156 0.438,0.156 0.942,0 1.152,-0.078 1.152,-0.438 0,-0.078 -0.006,-0.168 -0.012,-0.27 l 0.126,-0.012 0.186,0.918" /><path
       inkscape:connector-curvature="0"
       id="path3496"
       style="font-size:8px;font-style:italic;font-variant:normal;writing-mode:lr-tb;fill:#231f20;fill-opacity:1;fill-rule:nonzero;stroke:none;font-family:Times;-inkscape-font-specification:Times-Italic"
       d="m 114.70235,140.16072 1.952,0 0,0.128 c -0.456,0.056 -0.544,0.10401 -0.544,0.328 0,0.152 0.016,0.24801 0.088,0.504 l 0.984,3.544 c 0.144,0.464 0.2,0.512 0.656,0.592 l 0,0.128 -1.976,0 0,-0.128 c 0.464,-0.056 0.56,-0.12 0.56,-0.344 0,-0.112 -0.032,-0.296 -0.088,-0.496 l -0.984,-3.536 c -0.144,-0.46399 -0.2,-0.512 -0.648,-0.592 l 0,-0.128" /><path
       inkscape:connector-curvature="0"
       id="path3499"
       style="font-size:6px;font-style:italic;font-variant:normal;writing-mode:lr-tb;fill:#231f20;fill-opacity:1;fill-rule:nonzero;stroke:none;font-family:Times;-inkscape-font-specification:Times-Italic"
       d="m 121.3424,140.95072 0.222,1.194 -0.126,0 c -0.048,-0.096 -0.108,-0.132 -0.228,-0.132 -0.048,0 -0.12,0.012 -0.246,0.042 -0.27,0.066 -0.51,0.102 -0.702,0.102 -1.278,0 -2.436,-1.206 -2.436,-2.538 0,-0.91799 0.648,-1.566 1.566,-1.566 0.618,0 1.098,0.26401 1.638,0.894 l -0.102,0.084 c -0.54,-0.52799 -0.888,-0.708 -1.38,-0.708 -0.666,0 -1.05,0.45601 -1.05,1.23 0,0.714 0.288,1.44001 0.756,1.926 0.288,0.294 0.666,0.462 1.062,0.462 0.552,0 0.858,-0.324 0.918,-0.972 l 0.108,-0.018" /><path
       inkscape:connector-curvature="0"
       id="path3502"
       style="font-size:8px;font-style:italic;font-variant:normal;writing-mode:lr-tb;fill:#231f20;fill-opacity:1;fill-rule:nonzero;stroke:none;font-family:Times;-inkscape-font-specification:Times-Italic"
       d="m 13.593173,70.062819 -1.488,0 0,-0.128 c 0.359999,-0.04 0.504,-0.120001 0.504,-0.272 0,-0.152 -0.152001,-0.496001 -0.416,-0.952 l -1.648,-2.848 -0.528,3.544 c -0.008,0.04 -0.008,0.072 -0.008,0.12 0,0.271999 0.112,0.352 0.616,0.408 l 0,0.128 -1.9280025,0 0,-0.128 c 0.4479995,-0.056 0.4640005,-0.08 0.632001,-1.08 l 0.6800015,-4.16 0.152,0 2.984,4.92 c 0.136,0.215999 0.264,0.312 0.448,0.32 l 0,0.128" /><path
       inkscape:connector-curvature="0"
       id="path3505"
       style="font-size:6px;font-style:italic;font-variant:normal;writing-mode:lr-tb;fill:#231f20;fill-opacity:1;fill-rule:nonzero;stroke:none;font-family:Times;-inkscape-font-specification:Times-Italic"
       d="m 12.928673,62.838819 1.692,0 c 0.941999,0 1.59,0.492 1.59,1.2 0,0.221999 -0.072,0.432 -0.204,0.564 -0.12,0.137999 -0.24,0.21 -0.552,0.342 0.426,0.101999 0.6,0.174 0.792,0.342 0.168,0.143999 0.258,0.348 0.258,0.588 0,0.569999 -0.426001,0.882 -1.2,0.882 l -1.548,0 0,-0.096 c 0.372,-0.03 0.462,-0.078 0.462,-0.246 0,-0.09 -0.024,-0.240001 -0.066,-0.384 l -0.738,-2.652 c -0.108,-0.348 -0.15,-0.384001 -0.486,-0.444 l 0,-0.096 m 1.476,1.986 c 0.39,0 0.642,-0.024 0.762,-0.072 0.246,-0.102 0.396,-0.366001 0.396,-0.69 0,-0.648 -0.444001,-1.044 -1.176,-1.044 -0.252,0 -0.384,0.09 -0.384,0.252 0,0.072 0.072,0.36 0.21,0.84 0.078,0.269999 0.114,0.408 0.192,0.714 m 0.45,1.584 c 0.036,0.131999 0.108,0.168 0.342,0.168 0.48,0 0.702,-0.204001 0.702,-0.648 0,-0.342 -0.144,-0.606001 -0.402,-0.75 -0.204,-0.12 -0.492,-0.162 -1.032,-0.162 l 0.39,1.392" /><path
       inkscape:connector-curvature="0"
       id="path3508"
       style="font-size:8px;font-variant:normal;font-weight:normal;writing-mode:lr-tb;fill:#231f20;fill-opacity:1;fill-rule:nonzero;stroke:none;font-family:Symbol;-inkscape-font-specification:Symbol"
       d="m 135.82861,117.37232 -0.44,0 0,-1.912 -1.896,0 0,-0.44 1.896,0 0,-1.912 0.44,0 0,1.912 1.896,0 0,0.44 -1.896,0 0,1.912" /><path
       inkscape:connector-curvature="0"
       id="path3510"
       style="font-size:8px;font-variant:normal;font-weight:normal;writing-mode:lr-tb;fill:#231f20;fill-opacity:1;fill-rule:nonzero;stroke:none;font-family:Symbol;-inkscape-font-specification:Symbol"
       d="m 172.56159,78.347822 -0.44,0 0,-1.912 -1.896,0 0,-0.44 1.896,0 0,-1.912 0.44,0 0,1.912 1.896,0 0,0.44 -1.896,0 0,1.912" /><path
       inkscape:connector-curvature="0"
       id="path3512"
       style="font-size:8px;font-variant:normal;font-weight:normal;writing-mode:lr-tb;fill:#231f20;fill-opacity:1;fill-rule:nonzero;stroke:none;font-family:Symbol;-inkscape-font-specification:Symbol"
       d="m 133.50061,91.747814 0,-0.44 4.192,0 0,0.44 -4.192,0" /><path
       inkscape:connector-curvature="0"
       id="path3514"
       style="font-size:8px;font-variant:normal;font-weight:normal;writing-mode:lr-tb;fill:#231f20;fill-opacity:1;fill-rule:nonzero;stroke:none;font-family:Symbol;-inkscape-font-specification:Symbol"
       d="m 170.15445,20.261515 0,-0.44 4.192,0 0,0.44 -4.192,0" /><path
       inkscape:connector-curvature="0"
       id="path244"
       style="fill:#ffffff;fill-opacity:1;fill-rule:nonzero;stroke:none"
       d="m 183.50294,189.16282 c 0,-0.92 -0.746,-1.667 -1.667,-1.667 -0.921,0 -1.667,0.747 -1.667,1.667 0,0.921 0.746,1.667 1.667,1.667 0.921,0 1.667,-0.746 1.667,-1.667" /><path
       inkscape:connector-curvature="0"
       id="path246"
       style="fill:none;stroke:#231f20;stroke-width:0.5;stroke-linecap:butt;stroke-linejoin:miter;stroke-miterlimit:4;stroke-opacity:1;stroke-dasharray:none"
       d="m 183.50294,189.16282 c 0,-0.92 -0.746,-1.667 -1.667,-1.667 -0.921,0 -1.667,0.747 -1.667,1.667 0,0.921 0.746,1.667 1.667,1.667 0.921,0 1.667,-0.746 1.667,-1.667 z" /><path
       inkscape:connector-curvature="0"
       id="path248"
       style="fill:#231f20;fill-opacity:1;fill-rule:nonzero;stroke:none"
       d="m 131.15809,189.35497 c 0,-0.919 -0.746,-1.666 -1.667,-1.666 -0.921,0 -1.667,0.747 -1.667,1.666 0,0.92 0.746,1.668 1.667,1.668 0.921,0 1.667,-0.748 1.667,-1.668" /><path
       inkscape:connector-curvature="0"
       id="path250"
       style="fill:#231f20;fill-opacity:1;fill-rule:nonzero;stroke:none"
       d="m 61.224004,105.44082 c 0,-0.919 -0.7461,-1.6665 -1.6672,-1.6665 -0.9207,0 -1.6668,0.7475 -1.6668,1.6665 0,0.921 0.7461,1.668 1.6668,1.668 0.9211,0 1.6672,-0.747 1.6672,-1.668" /><path
       inkscape:connector-curvature="0"
       id="path252"
       style="fill:#231f20;fill-opacity:1;fill-rule:nonzero;stroke:none"
       d="m 96.336236,16.438817 c 0,-0.92 -0.7461,-1.6668 -1.6672,-1.6668 -0.9207,0 -1.6668,0.7468 -1.6668,1.6668 0,0.9199 0.7461,1.6672 1.6668,1.6672 0.9211,0 1.6672,-0.7473 1.6672,-1.6672" /><path
       inkscape:connector-curvature="0"
       id="path3450"
       style="font-size:8px;font-style:italic;font-variant:normal;writing-mode:lr-tb;fill:#231f20;fill-opacity:1;fill-rule:nonzero;stroke:none;font-family:Times;-inkscape-font-specification:Times-Italic"
       d="m 142.22068,56.248722 c -0.352,0.024 -0.512,0.160001 -0.664,0.576 l -0.744,1.96 c 0.616,0.136 0.88,0.248 1.168,0.504 0.264,0.232 0.408,0.544 0.408,0.904 0,0.743999 -0.592,1.152 -1.664,1.152 l -1.984,0 0,-0.128 c 0.336,-0.048 0.376,-0.056 0.456,-0.112 0.064,-0.04 0.112,-0.136 0.112,-0.224 0,-0.096 -0.04,-0.288 -0.096,-0.504 l -0.984,-3.536 c -0.144,-0.471999 -0.2,-0.52 -0.648,-0.592 l 0,-0.128 1.952,0 0,0.128 c -0.488,0.064 -0.544,0.104 -0.544,0.368 0,0.08 0.024,0.184 0.096,0.464 l 0.448,1.672 0.52,-0.04 0.984,-2.592 1.184,0 0,0.128 m -2.072,4.632 c 0.048,0.168 0.152,0.224 0.408,0.224 0.664,0 0.992,-0.304 0.992,-0.896 0,-0.791999 -0.512,-1.2 -1.512,-1.2 -0.128,0 -0.216,0.008 -0.408,0.04 l 0.52,1.832" /><path
       inkscape:connector-curvature="0"
       id="path3453"
       style="font-size:6px;font-style:italic;font-variant:normal;writing-mode:lr-tb;fill:#231f20;fill-opacity:1;fill-rule:nonzero;stroke:none;font-family:Times;-inkscape-font-specification:Times-Italic"
       d="m 146.37696,58.038722 -2.982,0 0,-0.096 c 0.372,-0.036 0.462,-0.084 0.462,-0.246 0,-0.066 -0.036,-0.276 -0.066,-0.384 l -0.738,-2.652 c -0.102,-0.342 -0.15,-0.384 -0.486,-0.444 l 0,-0.096 3.042,0 0.372,0.972 -0.096,0.048 c -0.282,-0.384 -0.438,-0.54 -0.696,-0.66 -0.222,-0.102 -0.63,-0.162 -1.08,-0.162 -0.336,0 -0.48,0.06 -0.48,0.204 0,0.066 0.066,0.348001 0.216,0.876 0.078,0.264 0.132,0.462 0.192,0.69 0.21,-0.012 0.396,-0.018 0.468,-0.018 0.234,0.006 0.402,-0.03 0.468,-0.09 0.03,-0.03 0.042,-0.084 0.042,-0.186 0,-0.102 -0.012,-0.18 -0.042,-0.312 l 0.12,-0.03 0.408,1.392 -0.108,0.024 c -0.228,-0.509999 -0.282,-0.546 -0.828,-0.57 -0.072,0 -0.264,-0.006 -0.474,-0.012 l 0.396,1.398 c 0.036,0.132 0.102,0.156 0.438,0.156 0.942,0 1.152,-0.078 1.152,-0.438 0,-0.078 -0.006,-0.168 -0.012,-0.27 l 0.126,-0.012 0.186,0.918" /><path
       inkscape:connector-curvature="0"
       id="path3456"
       style="font-size:8px;font-variant:normal;font-weight:normal;writing-mode:lr-tb;fill:#231f20;fill-opacity:1;fill-rule:nonzero;stroke:none;font-family:Times;-inkscape-font-specification:Times-Roman"
       d="m 64.685987,45.601108 c -0.44,0 -0.776001,-0.136 -1.072,-0.416 -0.464,-0.448 -0.768,-1.368001 -0.768,-2.304 0,-0.871999 0.264,-1.808001 0.64,-2.256 0.295999,-0.352 0.704,-0.544 1.168,-0.544 0.407999,0 0.752,0.136 1.04,0.416 0.463999,0.439999 0.768,1.368001 0.768,2.336 0,1.639998 -0.728001,2.768 -1.776,2.768 m -0.024,-0.208 c 0.671999,0 1.032,-0.904002 1.032,-2.576 0,-1.671998 -0.352001,-2.528 -1.04,-2.528 -0.688,0 -1.04,0.856002 -1.04,2.52 0,1.695998 0.36,2.584 1.048,2.584" /><path
       inkscape:connector-curvature="0"
       id="path3458"
       style="font-size:8px;font-variant:normal;font-weight:normal;writing-mode:lr-tb;fill:#231f20;fill-opacity:1;fill-rule:nonzero;stroke:none;font-family:Times;-inkscape-font-specification:Times-Roman"
       d="m 67.653987,40.993108 c -0.24,0 -0.44,-0.208 -0.44,-0.456 0,-0.232 0.2,-0.432 0.432,-0.432 0.247999,0 0.456,0.2 0.456,0.432 0,0.248 -0.208001,0.456 -0.448,0.456" /><path
       inkscape:connector-curvature="0"
       id="path3460"
       style="font-size:8px;font-variant:normal;font-weight:normal;writing-mode:lr-tb;fill:#231f20;fill-opacity:1;fill-rule:nonzero;stroke:none;font-family:Times;-inkscape-font-specification:Times-Roman"
       d="m 70.981987,45.601108 -1.44,-0.728 0,-0.112 c 0.096,0.04 0.184,0.072 0.216,0.088 0.143999,0.056 0.28,0.088 0.36,0.088 0.167999,0 0.24,-0.12 0.24,-0.376 l 0,-3.624 c 0,-0.264 -0.064,-0.448 -0.192,-0.52 -0.12,-0.072 -0.232001,-0.096 -0.568,-0.104 l 0,-0.12 2.208,0 0,0.12 c -0.632,0.008 -0.76,0.088 -0.76,0.472 l 0,4.8 -0.064,0.016" /><path
       inkscape:connector-curvature="0"
       id="path3462"
       style="font-size:8px;font-variant:normal;font-weight:normal;writing-mode:lr-tb;fill:#231f20;fill-opacity:1;fill-rule:nonzero;stroke:none;font-family:Times;-inkscape-font-specification:Times-Roman"
       d="m 74.805987,43.377108 c 0.104,0.024 0.168,0.032 0.256,0.032 0.207999,0 0.28,-0.128 0.28,-0.512 l 0,-2.024 c 0,-0.432 -0.112001,-0.552 -0.56,-0.56 l 0,-0.12 1.776,0 0,0.12 c -0.424,0.016 -0.544,0.104 -0.544,0.416 l 0,2.256 c 0,0.016 0.064,0.096 0.12,0.152 0.199999,0.184 0.544,0.32 0.824,0.32 0.351999,0 0.528,-0.280001 0.528,-0.84 l 0,-1.736 c 0,-0.448 -0.088,-0.536 -0.544,-0.568 l 0,-0.12 1.792,0 0,0.12 c -0.456,0.008 -0.576,0.144 -0.576,0.64 l 0,2.016 c 0.239999,0.344 0.504,0.488 0.872,0.488 0.455999,0 0.6,-0.216001 0.6,-0.88 l 0,-1.688 c 0,-0.456 -0.064,-0.52 -0.528,-0.576 l 0,-0.12 1.752,0 0,0.12 -0.208,0.016 c -0.24,0.016 -0.344,0.16 -0.344,0.472 l 0,1.648 c 0,0.943999 -0.312001,1.424 -0.928,1.424 -0.464,0 -0.872001,-0.208001 -1.304,-0.672 -0.144,0.455999 -0.416001,0.672 -0.848,0.672 -0.352,0 -0.576001,-0.112001 -1.24,-0.616 l 0,0.6 -0.056,0.016 c -0.408,-0.152 -0.680001,-0.24 -1.12,-0.36 l 0,-0.136" /><path
       inkscape:connector-curvature="0"
       id="path3464"
       style="font-size:8px;font-variant:normal;font-weight:normal;writing-mode:lr-tb;fill:#231f20;fill-opacity:1;fill-rule:nonzero;stroke:none;font-family:Times;-inkscape-font-specification:Times-Roman"
       d="m 86.525623,40.345108 c -0.359999,0.024 -0.44,0.104001 -0.72,0.696 l -1.992,4.544 -0.16,0 -1.664,-3.928 c -0.511999,-1.167999 -0.608,-1.296 -0.992,-1.312 l 0,-0.152 1.584,0 0,0.152 c -0.383999,0 -0.544,0.104 -0.544,0.328 0,0.096 0.024,0.208 0.064,0.312 l 0.368,0.936 2.096,0 0.328,-0.768 c 0.096,-0.216 0.152,-0.424 0.152,-0.536 0,-0.2 -0.136,-0.264 -0.56,-0.272 l 0,-0.152 2.04,0 0,0.152 m -3.92,1.904 0.92,2.2 0.928,-2.2 -1.848,0" /></g></svg>