<?xml version="1.0" encoding="UTF-8" standalone="no"?>
<!-- Created with Inkscape (http://www.inkscape.org/) -->

<svg
   xmlns:dc="http://purl.org/dc/elements/1.1/"
   xmlns:cc="http://creativecommons.org/ns#"
   xmlns:rdf="http://www.w3.org/1999/02/22-rdf-syntax-ns#"
   xmlns:svg="http://www.w3.org/2000/svg"
   xmlns="http://www.w3.org/2000/svg"
   xmlns:sodipodi="http://sodipodi.sourceforge.net/DTD/sodipodi-0.dtd"
   xmlns:inkscape="http://www.inkscape.org/namespaces/inkscape"
   id="svg2"
   version="1.1"
   inkscape:version="0.48.4 r9939"
   width="433.3125"
   height="280.1125"
   xml:space="preserve"
   sodipodi:docname="S3-EE-03-IN026.eps"><metadata
     id="metadata8"><rdf:RDF><cc:Work
         rdf:about=""><dc:format>image/svg+xml</dc:format><dc:type
           rdf:resource="http://purl.org/dc/dcmitype/StillImage" /><dc:title></dc:title></cc:Work></rdf:RDF></metadata><defs
     id="defs6" /><sodipodi:namedview
     pagecolor="#ffffff"
     bordercolor="#666666"
     borderopacity="1"
     objecttolerance="10"
     gridtolerance="10"
     guidetolerance="10"
     inkscape:pageopacity="0"
     inkscape:pageshadow="2"
     inkscape:window-width="1366"
     inkscape:window-height="744"
     id="namedview4"
     showgrid="false"
     inkscape:zoom="1.9652891"
     inkscape:cx="215.68626"
     inkscape:cy="138.70866"
     inkscape:window-x="0"
     inkscape:window-y="24"
     inkscape:window-maximized="1"
     inkscape:current-layer="g10" /><g
     id="g10"
     inkscape:groupmode="layer"
     inkscape:label="ink_ext_XXXXXX"
     transform="matrix(1.25,0,0,-1.25,0,280.1125)"><path
       inkscape:connector-curvature="0"
       id="path3854"
       style="font-size:8px;font-style:italic;font-variant:normal;writing-mode:lr-tb;fill:#231f20;fill-opacity:1;fill-rule:nonzero;stroke:none;font-family:Times;-inkscape-font-specification:Times-Italic"
       d="m 154.398,125.437 c 0.616,0.04 0.92,0.12 1.368,0.368 1.184,0.664 1.992,1.96 1.992,3.224 0,1.08 -0.768,1.864 -1.832,1.864 -0.64,0 -1.36,-0.328 -2,-0.904 -0.808,-0.752 -1.28,-1.72 -1.28,-2.656 0,-0.656 0.24,-1.2 0.672,-1.536 0.208,-0.168 0.384,-0.248 0.736,-0.328 -0.728,-0.64 -0.8,-0.704 -1.416,-1.136 l 0.08,-0.12 c 0.304,0.168 0.608,0.248 0.92,0.248 0.16,0 0.392,-0.048 0.744,-0.144 0.488,-0.136 0.92,-0.216 1.216,-0.216 0.44,0 1,0.208 1.408,0.528 0.192,0.144 0.296,0.256 0.504,0.544 l -0.12,0.088 c -0.448,-0.464 -0.776,-0.616 -1.352,-0.616 -0.208,0 -0.376,0.032 -0.984,0.176 -0.416,0.104 -0.792,0.176 -0.84,0.168 -0.032,-0.008 -0.048,-0.008 -0.048,-0.008 l -0.2,0 0.432,0.456 m 1.488,5.192 c 0.64,0 1.032,-0.464 1.032,-1.224 0,-0.848 -0.376,-2.024 -0.888,-2.76 -0.44,-0.632 -0.936,-0.944 -1.52,-0.944 -0.648,0 -1.024,0.488 -1.024,1.328 0,0.76 0.392,1.952 0.88,2.648 0.448,0.648 0.936,0.952 1.52,0.952" /><path
       inkscape:connector-curvature="0"
       id="path3857"
       style="font-size:8px;font-variant:normal;font-weight:normal;writing-mode:lr-tb;fill:#231f20;fill-opacity:1;fill-rule:nonzero;stroke:none;font-family:Times;-inkscape-font-specification:Times-Roman"
       d="m 162.301,130.973 c -0.592,-0.384 -0.832,-0.592 -1.128,-0.96 -0.568,-0.696 -0.848,-1.496 -0.848,-2.432 0,-1.016 0.296,-1.8 1,-2.616 0.328,-0.384 0.536,-0.56 0.952,-0.816 l 0.096,0.128 c -0.64,0.504 -0.864,0.784 -1.08,1.384 -0.192,0.536 -0.28,1.144 -0.28,1.944 0,0.84 0.104,1.496 0.32,1.992 0.224,0.496 0.464,0.784 1.04,1.248 l -0.072,0.128" /><path
       inkscape:connector-curvature="0"
       id="path3859"
       style="font-size:8px;font-variant:normal;font-weight:normal;writing-mode:lr-tb;fill:#231f20;fill-opacity:1;fill-rule:nonzero;stroke:none;font-family:Times;-inkscape-font-specification:Times-Roman"
       d="m 166.381,127.413 -0.816,0 0,3.56 -0.352,0 -2.512,-3.56 0,-0.512 2.248,0 0,-1.336 0.616,0 0,1.336 0.816,0 0,0.512 m -1.44,0 -1.92,0 1.92,2.744 0,-2.744" /><path
       inkscape:connector-curvature="0"
       id="path3861"
       style="font-size:8px;font-variant:normal;font-weight:normal;writing-mode:lr-tb;fill:#231f20;fill-opacity:1;fill-rule:nonzero;stroke:none;font-family:Times;-inkscape-font-specification:Times-Roman"
       d="m 167.605,126.365 c -0.24,0 -0.44,-0.208 -0.44,-0.456 0,-0.232 0.2,-0.432 0.432,-0.432 0.248,0 0.456,0.2 0.456,0.432 0,0.248 -0.208,0.456 -0.448,0.456" /><path
       inkscape:connector-curvature="0"
       id="path3863"
       style="font-size:8px;font-variant:normal;font-weight:normal;writing-mode:lr-tb;fill:#231f20;fill-opacity:1;fill-rule:nonzero;stroke:none;font-family:Times;-inkscape-font-specification:Times-Roman"
       d="m 172.197,130.861 -2.96,0 -0.472,-1.176 0.136,-0.064 c 0.344,0.544 0.488,0.648 0.928,0.648 l 1.736,0 -1.584,-4.768 0.52,0 1.696,5.232 0,0.128" /><path
       inkscape:connector-curvature="0"
       id="path3865"
       style="font-size:8px;font-variant:normal;font-weight:normal;writing-mode:lr-tb;fill:#231f20;fill-opacity:1;fill-rule:nonzero;stroke:none;font-family:Times;-inkscape-font-specification:Times-Roman"
       d="m 176.173,131.037 c -0.912,-0.08 -1.376,-0.232 -1.96,-0.64 -0.864,-0.616 -1.336,-1.528 -1.336,-2.6 0,-0.696 0.216,-1.4 0.56,-1.8 0.304,-0.352 0.736,-0.544 1.232,-0.544 0.992,0 1.68,0.76 1.68,1.864 0,1.024 -0.584,1.672 -1.504,1.672 -0.352,0 -0.52,-0.056 -1.024,-0.36 0.216,1.208 1.112,2.072 2.368,2.28 l -0.016,0.128 m -1.632,-2.416 c 0.688,0 1.088,-0.576 1.088,-1.576 0,-0.88 -0.312,-1.368 -0.872,-1.368 -0.704,0 -1.136,0.752 -1.136,1.992 0,0.408 0.064,0.632 0.224,0.752 0.168,0.128 0.416,0.2 0.696,0.2" /><path
       inkscape:connector-curvature="0"
       id="path3867"
       style="font-size:8px;font-variant:normal;font-weight:normal;writing-mode:lr-tb;fill:#231f20;fill-opacity:1;fill-rule:nonzero;stroke:none;font-family:Times;-inkscape-font-specification:Times-Roman"
       d="m 182.181,130.861 -1.64,0 0,-0.152 c 0.44,-0.024 0.584,-0.112 0.584,-0.336 0,-0.128 -0.056,-0.344 -0.152,-0.584 l -1.176,-2.936 -1.208,2.704 c -0.264,0.584 -0.328,0.768 -0.328,0.888 0,0.152 0.112,0.232 0.368,0.248 0.032,0 0.12,0.008 0.232,0.016 l 0,0.152 -2.128,0 0,-0.152 c 0.392,-0.016 0.504,-0.128 0.848,-0.84 l 1.968,-4.392 0.12,0 1.776,4.488 c 0.264,0.632 0.352,0.72 0.736,0.744 l 0,0.152" /><path
       inkscape:connector-curvature="0"
       id="path3869"
       style="font-size:8px;font-variant:normal;font-weight:normal;writing-mode:lr-tb;fill:#231f20;fill-opacity:1;fill-rule:nonzero;stroke:none;font-family:Times;-inkscape-font-specification:Times-Roman"
       d="m 182.01337,124.437 c 0.536,0.264 0.896,0.752 0.896,1.232 0,0.4 -0.28,0.712 -0.64,0.712 -0.28,0 -0.472,-0.184 -0.472,-0.456 0,-0.256 0.184,-0.408 0.472,-0.408 0.048,0 0.104,0.008 0.152,0.016 0.056,0.016 0.056,0.016 0.064,0.016 0.064,0 0.112,-0.048 0.112,-0.112 0,-0.256 -0.224,-0.552 -0.656,-0.848 l 0.072,-0.152" /><path
       inkscape:connector-curvature="0"
       id="path3871"
       style="font-size:8px;font-variant:normal;font-weight:normal;writing-mode:lr-tb;fill:#231f20;fill-opacity:1;fill-rule:nonzero;stroke:none;font-family:Times;-inkscape-font-specification:Times-Roman"
       d="m 189.14937,126.661 -0.104,0.04 c -0.296,-0.456 -0.4,-0.528 -0.76,-0.528 l -1.912,0 1.344,1.408 c 0.712,0.744 1.024,1.352 1.024,1.976 0,0.8 -0.648,1.416 -1.48,1.416 -0.44,0 -0.856,-0.176 -1.152,-0.496 -0.256,-0.272 -0.376,-0.528 -0.512,-1.096 l 0.168,-0.04 c 0.32,0.784 0.608,1.04 1.16,1.04 0.672,0 1.128,-0.456 1.128,-1.128 0,-0.624 -0.368,-1.368 -1.04,-2.08 l -1.424,-1.512 0,-0.096 3.12,0 0.44,1.096" /><path
       inkscape:connector-curvature="0"
       id="path3873"
       style="font-size:8px;font-variant:normal;font-weight:normal;writing-mode:lr-tb;fill:#231f20;fill-opacity:1;fill-rule:nonzero;stroke:none;font-family:Times;-inkscape-font-specification:Times-Roman"
       d="m 190.34937,126.365 c -0.24,0 -0.44,-0.208 -0.44,-0.456 0,-0.232 0.2,-0.432 0.432,-0.432 0.248,0 0.456,0.2 0.456,0.432 0,0.248 -0.208,0.456 -0.448,0.456" /><path
       inkscape:connector-curvature="0"
       id="path3875"
       style="font-size:8px;font-variant:normal;font-weight:normal;writing-mode:lr-tb;fill:#231f20;fill-opacity:1;fill-rule:nonzero;stroke:none;font-family:Times;-inkscape-font-specification:Times-Roman"
       d="m 193.38137,130.973 c -0.44,0 -0.776,-0.136 -1.072,-0.416 -0.464,-0.448 -0.768,-1.368 -0.768,-2.304 0,-0.872 0.264,-1.808 0.64,-2.256 0.296,-0.352 0.704,-0.544 1.168,-0.544 0.408,0 0.752,0.136 1.04,0.416 0.464,0.44 0.768,1.368 0.768,2.336 0,1.64 -0.728,2.768 -1.776,2.768 m -0.024,-0.208 c 0.672,0 1.032,-0.904 1.032,-2.576 0,-1.672 -0.352,-2.528 -1.04,-2.528 -0.688,0 -1.04,0.856 -1.04,2.52 0,1.696 0.36,2.584 1.048,2.584" /><path
       inkscape:connector-curvature="0"
       id="path3877"
       style="font-size:8px;font-variant:normal;font-weight:normal;writing-mode:lr-tb;fill:#231f20;fill-opacity:1;fill-rule:nonzero;stroke:none;font-family:Times;-inkscape-font-specification:Times-Roman"
       d="m 195.82137,125.389 c 0.896,0.104 1.336,0.256 1.88,0.648 0.832,0.608 1.32,1.6 1.32,2.68 0,1.32 -0.736,2.256 -1.768,2.256 -0.952,0 -1.664,-0.808 -1.664,-1.888 0,-0.976 0.576,-1.624 1.44,-1.624 0.44,0 0.776,0.128 1.2,0.456 -0.328,-1.304 -1.216,-2.16 -2.432,-2.368 l 0.024,-0.16 m 2.424,3.016 c 0,-0.16 -0.032,-0.232 -0.12,-0.304 -0.224,-0.192 -0.52,-0.296 -0.808,-0.296 -0.608,0 -0.992,0.6 -0.992,1.552 0,0.456 0.128,0.936 0.296,1.144 0.136,0.16 0.336,0.248 0.568,0.248 0.696,0 1.056,-0.688 1.056,-2.032 l 0,-0.312" /><path
       inkscape:connector-curvature="0"
       id="path3879"
       style="font-size:8px;font-variant:normal;font-weight:normal;writing-mode:lr-tb;fill:#231f20;fill-opacity:1;fill-rule:nonzero;stroke:none;font-family:Times;-inkscape-font-specification:Times-Roman"
       d="m 200.80152,128.749 c 0.104,0.024 0.168,0.032 0.256,0.032 0.208,0 0.28,-0.128 0.28,-0.512 l 0,-2.024 c 0,-0.432 -0.112,-0.552 -0.56,-0.56 l 0,-0.12 1.776,0 0,0.12 c -0.424,0.016 -0.544,0.104 -0.544,0.416 l 0,2.256 c 0,0.016 0.064,0.096 0.12,0.152 0.2,0.184 0.544,0.32 0.824,0.32 0.352,0 0.528,-0.28 0.528,-0.84 l 0,-1.736 c 0,-0.448 -0.088,-0.536 -0.544,-0.568 l 0,-0.12 1.792,0 0,0.12 c -0.456,0.008 -0.576,0.144 -0.576,0.64 l 0,2.016 c 0.24,0.344 0.504,0.488 0.872,0.488 0.456,0 0.6,-0.216 0.6,-0.88 l 0,-1.688 c 0,-0.456 -0.064,-0.52 -0.528,-0.576 l 0,-0.12 1.752,0 0,0.12 -0.208,0.016 c -0.24,0.016 -0.344,0.16 -0.344,0.472 l 0,1.648 c 0,0.944 -0.312,1.424 -0.928,1.424 -0.464,0 -0.872,-0.208 -1.304,-0.672 -0.144,0.456 -0.416,0.672 -0.848,0.672 -0.352,0 -0.576,-0.112 -1.24,-0.616 l 0,0.6 -0.056,0.016 c -0.408,-0.152 -0.68,-0.24 -1.12,-0.36 l 0,-0.136" /><path
       inkscape:connector-curvature="0"
       id="path3881"
       style="font-size:8px;font-variant:normal;font-weight:normal;writing-mode:lr-tb;fill:#231f20;fill-opacity:1;fill-rule:nonzero;stroke:none;font-family:Times;-inkscape-font-specification:Times-Roman"
       d="m 212.52195,125.717 c -0.36,0.024 -0.44,0.104 -0.72,0.696 l -1.992,4.544 -0.16,0 -1.664,-3.928 c -0.512,-1.168 -0.608,-1.296 -0.992,-1.312 l 0,-0.152 1.584,0 0,0.152 c -0.384,0 -0.544,0.104 -0.544,0.328 0,0.096 0.024,0.208 0.064,0.312 l 0.368,0.936 2.096,0 0.328,-0.768 c 0.096,-0.216 0.152,-0.424 0.152,-0.536 0,-0.2 -0.136,-0.264 -0.56,-0.272 l 0,-0.152 2.04,0 0,0.152 m -3.92,1.904 0.92,2.2 0.928,-2.2 -1.848,0" /><path
       inkscape:connector-curvature="0"
       id="path3883"
       style="font-size:8px;font-variant:normal;font-weight:normal;writing-mode:lr-tb;fill:#231f20;fill-opacity:1;fill-rule:nonzero;stroke:none;font-family:Times;-inkscape-font-specification:Times-Roman"
       d="m 212.95346,124.149 c 0.592,0.384 0.832,0.592 1.128,0.96 0.568,0.696 0.848,1.496 0.848,2.432 0,1.024 -0.296,1.8 -1,2.616 -0.328,0.384 -0.536,0.56 -0.952,0.816 l -0.096,-0.128 c 0.64,-0.504 0.856,-0.784 1.08,-1.384 0.192,-0.536 0.28,-1.144 0.28,-1.944 0,-0.832 -0.104,-1.496 -0.32,-1.984 -0.224,-0.504 -0.464,-0.792 -1.04,-1.256 l 0.072,-0.128" /><path
       inkscape:connector-curvature="0"
       id="path3885"
       style="font-size:8px;font-variant:normal;font-weight:normal;writing-mode:lr-tb;fill:#231f20;fill-opacity:1;fill-rule:nonzero;stroke:none;font-family:Times;-inkscape-font-specification:Times-Roman"
       d="m 44.366734,120.58991 -0.104,0.04 c -0.296,-0.456 -0.4,-0.528 -0.76,-0.528 l -1.912,0 1.344,1.408 c 0.712,0.744 1.024,1.352 1.024,1.976 0,0.8 -0.648,1.416 -1.48,1.416 -0.44,0 -0.856,-0.176 -1.152,-0.496 -0.256,-0.272 -0.376,-0.528 -0.512,-1.096 l 0.168,-0.04 c 0.32,0.784 0.608,1.04 1.16,1.04 0.672,0 1.128,-0.456 1.128,-1.128 0,-0.624 -0.368,-1.368 -1.04,-2.08 l -1.424,-1.512 0,-0.096 3.12,0 0.44,1.096" /><path
       inkscape:connector-curvature="0"
       id="path3887"
       style="font-size:8px;font-variant:normal;font-weight:normal;writing-mode:lr-tb;fill:#231f20;fill-opacity:1;fill-rule:nonzero;stroke:none;font-family:Times;-inkscape-font-specification:Times-Roman"
       d="m 45.566734,120.29391 c -0.24,0 -0.44,-0.208 -0.44,-0.456 0,-0.232 0.2,-0.432 0.432,-0.432 0.248,0 0.456,0.2 0.456,0.432 0,0.248 -0.208,0.456 -0.448,0.456" /><path
       inkscape:connector-curvature="0"
       id="path3889"
       style="font-size:8px;font-variant:normal;font-weight:normal;writing-mode:lr-tb;fill:#231f20;fill-opacity:1;fill-rule:nonzero;stroke:none;font-family:Times;-inkscape-font-specification:Times-Roman"
       d="m 48.598734,124.90191 c -0.44,0 -0.776,-0.136 -1.072,-0.416 -0.464,-0.448 -0.768,-1.368 -0.768,-2.304 0,-0.872 0.264,-1.808 0.64,-2.256 0.296,-0.352 0.704,-0.544 1.168,-0.544 0.408,0 0.752,0.136 1.04,0.416 0.464,0.44 0.768,1.368 0.768,2.336 0,1.64 -0.728,2.768 -1.776,2.768 m -0.024,-0.208 c 0.672,0 1.032,-0.904 1.032,-2.576 0,-1.672 -0.352,-2.528 -1.04,-2.528 -0.688,0 -1.04,0.856 -1.04,2.52 0,1.696 0.36,2.584 1.048,2.584" /><path
       inkscape:connector-curvature="0"
       id="path3891"
       style="font-size:8px;font-variant:normal;font-weight:normal;writing-mode:lr-tb;fill:#231f20;fill-opacity:1;fill-rule:nonzero;stroke:none;font-family:Times;-inkscape-font-specification:Times-Roman"
       d="m 51.038734,119.31791 c 0.896,0.104 1.336,0.256 1.88,0.648 0.832,0.608 1.32,1.6 1.32,2.68 0,1.32 -0.736,2.256 -1.768,2.256 -0.952,0 -1.664,-0.808 -1.664,-1.888 0,-0.976 0.576,-1.624 1.44,-1.624 0.44,0 0.776,0.128 1.2,0.456 -0.328,-1.304 -1.216,-2.16 -2.432,-2.368 l 0.024,-0.16 m 2.424,3.016 c 0,-0.16 -0.032,-0.232 -0.12,-0.304 -0.224,-0.192 -0.52,-0.296 -0.808,-0.296 -0.608,0 -0.992,0.6 -0.992,1.552 0,0.456 0.128,0.936 0.296,1.144 0.136,0.16 0.336,0.248 0.568,0.248 0.696,0 1.056,-0.688 1.056,-2.032 l 0,-0.312" /><path
       inkscape:connector-curvature="0"
       id="path3893"
       style="font-size:8px;font-variant:normal;font-weight:normal;writing-mode:lr-tb;fill:#231f20;fill-opacity:1;fill-rule:nonzero;stroke:none;font-family:Times;-inkscape-font-specification:Times-Roman"
       d="m 56.3078,122.67791 c 0.104,0.024 0.168,0.032 0.256,0.032 0.208,0 0.28,-0.128 0.28,-0.512 l 0,-2.024 c 0,-0.432 -0.112,-0.552 -0.56,-0.56 l 0,-0.12 1.776,0 0,0.12 c -0.424,0.016 -0.544,0.104 -0.544,0.416 l 0,2.256 c 0,0.016 0.064,0.096 0.12,0.152 0.2,0.184 0.544,0.32 0.824,0.32 0.352,0 0.528,-0.28 0.528,-0.84 l 0,-1.736 c 0,-0.448 -0.088,-0.536 -0.544,-0.568 l 0,-0.12 1.791998,0 0,0.12 c -0.455998,0.008 -0.575998,0.144 -0.575998,0.64 l 0,2.016 c 0.24,0.344 0.503998,0.488 0.871998,0.488 0.456,0 0.6,-0.216 0.6,-0.88 l 0,-1.688 c 0,-0.456 -0.064,-0.52 -0.528,-0.576 l 0,-0.12 1.752,0 0,0.12 -0.208,0.016 c -0.24,0.016 -0.344,0.16 -0.344,0.472 l 0,1.648 c 0,0.944 -0.312001,1.424 -0.928,1.424 -0.464,0 -0.872,-0.208 -1.303998,-0.672 -0.144,0.456 -0.416,0.672 -0.848,0.672 -0.352,0 -0.576,-0.112 -1.24,-0.616 l 0,0.6 -0.056,0.016 c -0.408,-0.152 -0.68,-0.24 -1.12,-0.36 l 0,-0.136" /><path
       inkscape:connector-curvature="0"
       id="path3895"
       style="font-size:8px;font-variant:normal;font-weight:normal;writing-mode:lr-tb;fill:#231f20;fill-opacity:1;fill-rule:nonzero;stroke:none;font-family:Times;-inkscape-font-specification:Times-Roman"
       d="m 68.027797,119.64591 c -0.36,0.024 -0.44,0.104 -0.72,0.696 l -1.992,4.544 -0.16,0 -1.664,-3.928 c -0.511999,-1.168 -0.608,-1.296 -0.992,-1.312 l 0,-0.152 1.584,0 0,0.152 c -0.384,0 -0.544,0.104 -0.544,0.328 0,0.096 0.024,0.208 0.064,0.312 l 0.368,0.936 2.096,0 0.328,-0.768 c 0.096,-0.216 0.152,-0.424 0.152,-0.536 0,-0.2 -0.136,-0.264 -0.56,-0.272 l 0,-0.152 2.04,0 0,0.152 m -3.92,1.904 0.92,2.2 0.928,-2.2 -1.848,0" /><path
       inkscape:connector-curvature="0"
       id="path3897"
       style="font-size:8px;font-variant:normal;font-weight:normal;writing-mode:lr-tb;fill:#231f20;fill-opacity:1;fill-rule:nonzero;stroke:none;font-family:Times;-inkscape-font-specification:Times-Roman"
       d="m 66.187798,14.88491 c -0.44,0 -0.776,-0.136 -1.072,-0.416 -0.464,-0.448 -0.768,-1.368 -0.768,-2.304 0,-0.872 0.264,-1.808 0.64,-2.256 0.296,-0.352 0.704,-0.544 1.168,-0.544 0.408,0 0.752,0.136 1.04,0.416 0.464,0.44 0.768,1.368 0.768,2.336 0,1.64 -0.728001,2.768 -1.776,2.768 m -0.024,-0.208 c 0.671999,0 1.032,-0.904 1.032,-2.576 0,-1.672 -0.352001,-2.528 -1.04,-2.528 -0.687999,0 -1.04,0.856 -1.04,2.52 0,1.696 0.360001,2.584 1.048,2.584" /><path
       inkscape:connector-curvature="0"
       id="path3900"
       style="font-size:8px;font-style:italic;font-variant:normal;writing-mode:lr-tb;fill:#231f20;fill-opacity:1;fill-rule:nonzero;stroke:none;font-family:Times;-inkscape-font-specification:Times-Italic"
       d="m 63.411973,215.07396 1.952,0 0,0.128 c -0.455999,0.056 -0.544,0.104 -0.544,0.328 0,0.152 0.016,0.248 0.088,0.504 l 0.984,3.544 c 0.144,0.464 0.2,0.512 0.656,0.592 l 0,0.128 -1.976,0 0,-0.128 c 0.464,-0.056 0.56,-0.12 0.56,-0.344 0,-0.112 -0.032,-0.296 -0.088,-0.496 l -0.984,-3.536 c -0.144,-0.464 -0.2,-0.512 -0.648,-0.592 l 0,-0.128" /><path
       inkscape:connector-curvature="0"
       id="path3903"
       style="font-size:6px;font-style:italic;font-variant:normal;writing-mode:lr-tb;fill:#231f20;fill-opacity:1;fill-rule:nonzero;stroke:none;font-family:Times;-inkscape-font-specification:Times-Italic"
       d="m 70.052033,215.86396 0.222,1.194 -0.126,0 c -0.048,-0.096 -0.108,-0.132 -0.228,-0.132 -0.048,0 -0.12,0.012 -0.246,0.042 -0.27,0.066 -0.51,0.102 -0.702,0.102 -1.277999,0 -2.436,-1.206 -2.436,-2.538 0,-0.918 0.648001,-1.566 1.566,-1.566 0.617999,0 1.098,0.264 1.638,0.894 l -0.102,0.084 c -0.54,-0.528 -0.888001,-0.708 -1.38,-0.708 -0.665999,0 -1.05,0.456 -1.05,1.23 0,0.714 0.288001,1.44 0.756,1.926 0.288,0.294 0.666,0.462 1.062,0.462 0.551999,0 0.858,-0.324 0.918,-0.972 l 0.108,-0.018" /><path
       inkscape:connector-curvature="0"
       id="path3906"
       style="font-size:8px;font-style:italic;font-variant:normal;writing-mode:lr-tb;fill:#231f20;fill-opacity:1;fill-rule:nonzero;stroke:none;font-family:Times;-inkscape-font-specification:Times-Italic"
       d="m 338.15773,16.275995 -1.488,0 0,-0.128 c 0.36,-0.04 0.504,-0.12 0.504,-0.272 0,-0.152 -0.152,-0.496001 -0.416,-0.952 l -1.648,-2.848 -0.528,3.544 c -0.008,0.04 -0.008,0.072 -0.008,0.12 0,0.272 0.112,0.352 0.616,0.408 l 0,0.128 -1.928,0 0,-0.128 c 0.448,-0.056 0.464,-0.08 0.632,-1.08 l 0.68,-4.16 0.152,0 2.984,4.92 c 0.136,0.216 0.264,0.312 0.448,0.32 l 0,0.128" /><path
       inkscape:connector-curvature="0"
       id="path3909"
       style="font-size:6px;font-style:italic;font-variant:normal;writing-mode:lr-tb;fill:#231f20;fill-opacity:1;fill-rule:nonzero;stroke:none;font-family:Times;-inkscape-font-specification:Times-Italic"
       d="m 341.45401,11.841995 0.222,1.194 -0.126,0 c -0.048,-0.096 -0.108,-0.132 -0.228,-0.132 -0.048,0 -0.12,0.012 -0.246,0.042 -0.27,0.066 -0.51,0.102 -0.702,0.102 -1.278,0 -2.436,-1.206001 -2.436,-2.538 0,-0.9179988 0.648,-1.5659998 1.566,-1.5659998 0.618,0 1.098,0.264001 1.638,0.894 l -0.102,0.084 c -0.54,-0.527999 -0.888,-0.708 -1.38,-0.708 -0.666,0 -1.05,0.456001 -1.05,1.2299998 0,0.713999 0.288,1.44 0.756,1.926 0.288,0.294 0.666,0.462 1.062,0.462 0.552,0 0.858,-0.324001 0.918,-0.972 l 0.108,-0.018" /><path
       inkscape:connector-curvature="0"
       id="path3911"
       style="font-size:6px;font-style:italic;font-variant:normal;writing-mode:lr-tb;fill:#231f20;fill-opacity:1;fill-rule:nonzero;stroke:none;font-family:Times;-inkscape-font-specification:Times-Italic"
       d="m 345.34801,12.969995 -2.982,0 0,-0.096 c 0.372,-0.036 0.462,-0.084 0.462,-0.246 0,-0.066 -0.036,-0.276 -0.066,-0.384 l -0.738,-2.6519998 c -0.102,-0.342 -0.15,-0.384 -0.486,-0.444 l 0,-0.096 3.042,0 0.372,0.9719998 -0.096,0.048 c -0.282,-0.3839998 -0.438,-0.5399998 -0.696,-0.6599998 -0.222,-0.102 -0.63,-0.162 -1.08,-0.162 -0.336,0 -0.48,0.06 -0.48,0.204 0,0.066 0.066,0.348001 0.216,0.8759998 0.078,0.264 0.132,0.462 0.192,0.69 0.21,-0.012 0.396,-0.018 0.468,-0.018 0.234,0.006 0.402,-0.03 0.468,-0.09 0.03,-0.03 0.042,-0.084 0.042,-0.186 0,-0.102 -0.012,-0.18 -0.042,-0.312 l 0.12,-0.03 0.408,1.392 -0.108,0.024 c -0.228,-0.51 -0.282,-0.546 -0.828,-0.57 -0.072,0 -0.264,-0.006 -0.474,-0.012 l 0.396,1.398 c 0.036,0.132 0.102,0.156 0.438,0.156 0.942,0 1.152,-0.078 1.152,-0.438 0,-0.078 -0.006,-0.168 -0.012,-0.27 l 0.126,-0.012 0.186,0.918" /><path
       inkscape:connector-curvature="0"
       id="path3914"
       style="font-size:8px;font-variant:normal;font-weight:normal;writing-mode:lr-tb;fill:#231f20;fill-opacity:1;fill-rule:nonzero;stroke:none;font-family:Times;-inkscape-font-specification:Times-Roman"
       d="m 33.91616,194.12991 -4.032,0 0,-0.528 4.032,0 0,0.528 m 0,-1.6 -4.032,0 0,-0.528 4.032,0 0,0.528" /><path
       inkscape:connector-curvature="0"
       id="path3916"
       style="font-size:8px;font-variant:normal;font-weight:normal;writing-mode:lr-tb;fill:#231f20;fill-opacity:1;fill-rule:nonzero;stroke:none;font-family:Times;-inkscape-font-specification:Times-Roman"
       d="m 37.38016,193.68191 c 0.472,0 0.656,-0.016 0.848,-0.088 0.496,-0.176 0.808,-0.632 0.808,-1.184 0,-0.672 -0.456001,-1.192 -1.048,-1.192 -0.216,0 -0.376,0.056 -0.672,0.248 -0.24,0.144 -0.376,0.2 -0.512,0.2 -0.184,0 -0.304,-0.112 -0.304,-0.28 0,-0.28 0.344001,-0.456 0.904,-0.456 0.615999,0 1.248,0.208 1.624,0.536 0.376,0.328 0.584,0.792 0.584,1.328 0,0.408 -0.128,0.784 -0.36,1.032 -0.16,0.176 -0.312,0.272 -0.664,0.424 0.552,0.376 0.752,0.672 0.752,1.104 0,0.648 -0.512001,1.096 -1.248,1.096 -0.4,0 -0.752,-0.136 -1.04,-0.392 -0.24,-0.216 -0.36,-0.424 -0.536,-0.904 l 0.12,-0.032 c 0.328,0.584 0.688001,0.848 1.192,0.848 0.52,0 0.88,-0.352 0.88,-0.856 0,-0.288 -0.12,-0.576 -0.32,-0.776 -0.24,-0.24 -0.464,-0.36 -1.008,-0.552 l 0,-0.104" /><path
       inkscape:connector-curvature="0"
       id="path3918"
       style="font-size:8px;font-variant:normal;font-weight:normal;writing-mode:lr-tb;fill:#231f20;fill-opacity:1;fill-rule:nonzero;stroke:none;font-family:Times;-inkscape-font-specification:Times-Roman"
       d="m 41.15616,191.84191 c -0.24,0 -0.44,-0.208 -0.44,-0.456 0,-0.232 0.2,-0.432 0.432,-0.432 0.248,0 0.456,0.2 0.456,0.432 0,0.248 -0.208,0.456 -0.448,0.456" /><path
       inkscape:connector-curvature="0"
       id="path3920"
       style="font-size:8px;font-variant:normal;font-weight:normal;writing-mode:lr-tb;fill:#231f20;fill-opacity:1;fill-rule:nonzero;stroke:none;font-family:Times;-inkscape-font-specification:Times-Roman"
       d="m 44.18816,196.44991 c -0.439999,0 -0.776,-0.136 -1.072,-0.416 -0.463999,-0.448 -0.768,-1.368 -0.768,-2.304 0,-0.872 0.264,-1.808 0.64,-2.256 0.296,-0.352 0.704001,-0.544 1.168,-0.544 0.408,0 0.752,0.136 1.04,0.416 0.464,0.44 0.768,1.368 0.768,2.336 0,1.64 -0.728001,2.768 -1.776,2.768 m -0.024,-0.208 c 0.671999,0 1.032,-0.904 1.032,-2.576 0,-1.672 -0.352001,-2.528 -1.04,-2.528 -0.687999,0 -1.04,0.856 -1.04,2.52 0,1.696 0.360001,2.584 1.048,2.584" /><path
       inkscape:connector-curvature="0"
       id="path3922"
       style="font-size:8px;font-variant:normal;font-weight:normal;writing-mode:lr-tb;fill:#231f20;fill-opacity:1;fill-rule:nonzero;stroke:none;font-family:Times;-inkscape-font-specification:Times-Roman"
       d="m 49.724159,196.51391 c -0.911999,-0.08 -1.376,-0.232 -1.96,-0.64 -0.863999,-0.616 -1.336,-1.528 -1.336,-2.6 0,-0.696 0.216,-1.4 0.56,-1.8 0.304,-0.352 0.736001,-0.544 1.232,-0.544 0.991999,0 1.68,0.76 1.68,1.864 0,1.024 -0.584001,1.672 -1.504,1.672 -0.352,0 -0.52,-0.056 -1.024,-0.36 0.216,1.208 1.112001,2.072 2.368,2.28 l -0.016,0.128 m -1.632,-2.416 c 0.687999,0 1.088,-0.576 1.088,-1.576 0,-0.88 -0.312,-1.368 -0.872,-1.368 -0.703999,0 -1.136,0.752 -1.136,1.992 0,0.408 0.064,0.632 0.224,0.752 0.168,0.128 0.416,0.2 0.696,0.2" /><path
       inkscape:connector-curvature="0"
       id="path3924"
       style="font-size:8px;font-variant:normal;font-weight:normal;writing-mode:lr-tb;fill:#231f20;fill-opacity:1;fill-rule:nonzero;stroke:none;font-family:Times;-inkscape-font-specification:Times-Roman"
       d="m 51.897225,194.22591 c 0.104,0.024 0.168,0.032 0.256,0.032 0.208,0 0.28,-0.128 0.28,-0.512 l 0,-2.024 c 0,-0.432 -0.112,-0.552 -0.56,-0.56 l 0,-0.12 1.776,0 0,0.12 c -0.423999,0.016 -0.544,0.104 -0.544,0.416 l 0,2.256 c 0,0.016 0.064,0.096 0.12,0.152 0.2,0.184 0.544,0.32 0.824,0.32 0.352,0 0.528,-0.28 0.528,-0.84 l 0,-1.736 c 0,-0.448 -0.088,-0.536 -0.544,-0.568 l 0,-0.12 1.792,0 0,0.12 c -0.455999,0.008 -0.576,0.144 -0.576,0.64 l 0,2.016 c 0.24,0.344 0.504,0.488 0.872,0.488 0.456,0 0.6,-0.216 0.6,-0.88 l 0,-1.688 c 0,-0.456 -0.064,-0.52 -0.528,-0.576 l 0,-0.12 1.752,0 0,0.12 -0.208,0.016 c -0.24,0.016 -0.344,0.16 -0.344,0.472 l 0,1.648 c 0,0.944 -0.312,1.424 -0.928,1.424 -0.463999,0 -0.872,-0.208 -1.304,-0.672 -0.144,0.456 -0.416,0.672 -0.848,0.672 -0.352,0 -0.576001,-0.112 -1.24,-0.616 l 0,0.6 -0.056,0.016 c -0.407999,-0.152 -0.68,-0.24 -1.12,-0.36 l 0,-0.136" /><path
       inkscape:connector-curvature="0"
       id="path3926"
       style="font-size:8px;font-variant:normal;font-weight:normal;writing-mode:lr-tb;fill:#231f20;fill-opacity:1;fill-rule:nonzero;stroke:none;font-family:Times;-inkscape-font-specification:Times-Roman"
       d="m 63.617836,191.19391 c -0.359999,0.024 -0.44,0.104 -0.72,0.696 l -1.992,4.544 -0.16,0 -1.664,-3.928 c -0.511999,-1.168 -0.608,-1.296 -0.992,-1.312 l 0,-0.152 1.584,0 0,0.152 c -0.383999,0 -0.544,0.104 -0.544,0.328 0,0.096 0.024,0.208 0.064,0.312 l 0.368,0.936 2.096,0 0.328,-0.768 c 0.096,-0.216 0.152,-0.424 0.152,-0.536 0,-0.2 -0.136,-0.264 -0.56,-0.272 l 0,-0.152 2.04,0 0,0.152 m -3.92,1.904 0.92,2.2 0.928,-2.2 -1.848,0" /><path
       inkscape:connector-curvature="0"
       id="path3929"
       style="font-size:8px;font-style:italic;font-variant:normal;writing-mode:lr-tb;fill:#231f20;fill-opacity:1;fill-rule:nonzero;stroke:none;font-family:Times;-inkscape-font-specification:Times-Italic"
       d="m 240.73716,8.96791 -1.488,0 0,-0.128 c 0.36,-0.04 0.504,-0.1200002 0.504,-0.272 0,-0.1519998 -0.152,-0.4960005 -0.416,-0.952 l -1.648,-2.848 -0.528,3.544 c -0.008,0.04 -0.008,0.072 -0.008,0.12 0,0.2719997 0.112,0.3520001 0.616,0.408 l 0,0.128 -1.928,0 0,-0.128 c 0.448,-0.056 0.464,-0.080001 0.632,-1.08 l 0.68,-4.16 0.152,0 2.984,4.92 c 0.136,0.2159998 0.264,0.312 0.448,0.32 l 0,0.128" /><path
       inkscape:connector-curvature="0"
       id="path3932"
       style="font-size:6px;font-style:italic;font-variant:normal;writing-mode:lr-tb;fill:#231f20;fill-opacity:1;fill-rule:nonzero;stroke:none;font-family:Times;-inkscape-font-specification:Times-Italic"
       d="m 244.03305,4.53391 0.222,1.194 -0.126,0 c -0.048,-0.096 -0.108,-0.132 -0.228,-0.132 -0.048,0 -0.12,0.012 -0.246,0.042 -0.27,0.066 -0.51,0.102 -0.702,0.102 -1.278,0 -2.436,-1.2060013 -2.436,-2.538 0,-0.9179991 0.648,-1.566 1.566,-1.566 0.618,0 1.098,0.2640006 1.638,0.894 l -0.102,0.084 c -0.54,-0.5279995 -0.888,-0.708 -1.38,-0.708 -0.666,0 -1.05,0.4560008 -1.05,1.23 0,0.7139993 0.288,1.4400005 0.756,1.926 0.288,0.2939997 0.666,0.462 1.062,0.462 0.552,0 0.858,-0.3240006 0.918,-0.972 l 0.108,-0.018" /><path
       inkscape:connector-curvature="0"
       id="path3934"
       style="font-size:6px;font-style:italic;font-variant:normal;writing-mode:lr-tb;fill:#231f20;fill-opacity:1;fill-rule:nonzero;stroke:none;font-family:Times;-inkscape-font-specification:Times-Italic"
       d="m 248.03505,4.53391 0.222,1.194 -0.126,0 c -0.048,-0.096 -0.108,-0.132 -0.228,-0.132 -0.048,0 -0.12,0.012 -0.246,0.042 -0.27,0.066 -0.51,0.102 -0.702,0.102 -1.278,0 -2.436,-1.2060013 -2.436,-2.538 0,-0.9179991 0.648,-1.566 1.566,-1.566 0.618,0 1.098,0.2640006 1.638,0.894 l -0.102,0.084 c -0.54,-0.5279995 -0.888,-0.708 -1.38,-0.708 -0.666,0 -1.05,0.4560008 -1.05,1.23 0,0.7139993 0.288,1.4400005 0.756,1.926 0.288,0.2939997 0.666,0.462 1.062,0.462 0.552,0 0.858,-0.3240006 0.918,-0.972 l 0.108,-0.018" /><path
       inkscape:connector-curvature="0"
       id="path3937"
       style="font-size:8px;font-variant:normal;font-weight:normal;writing-mode:lr-tb;fill:#231f20;fill-opacity:1;fill-rule:nonzero;stroke:none;font-family:Times;-inkscape-font-specification:Times-Roman"
       d="m 254.39696,6.83191 -4.032,0 0,-0.528 4.032,0 0,0.528 m 0,-1.6 -4.032,0 0,-0.528 4.032,0 0,0.528" /><path
       inkscape:connector-curvature="0"
       id="path3939"
       style="font-size:8px;font-variant:normal;font-weight:normal;writing-mode:lr-tb;fill:#231f20;fill-opacity:1;fill-rule:nonzero;stroke:none;font-family:Times;-inkscape-font-specification:Times-Roman"
       d="m 258.96496,9.15191 -1.44,-0.728 0,-0.112 c 0.096,0.04 0.184,0.072 0.216,0.088 0.144,0.056 0.28,0.088 0.36,0.088 0.168,0 0.24,-0.1200003 0.24,-0.376 l 0,-3.624 c 0,-0.2639997 -0.064,-0.4480001 -0.192,-0.52 -0.12,-0.072 -0.232,-0.096 -0.568,-0.104 l 0,-0.12 2.208,0 0,0.12 c -0.632,0.008 -0.76,0.088 -0.76,0.472 l 0,4.8 -0.064,0.016" /><path
       inkscape:connector-curvature="0"
       id="path3941"
       style="font-size:8px;font-variant:normal;font-weight:normal;writing-mode:lr-tb;fill:#231f20;fill-opacity:1;fill-rule:nonzero;stroke:none;font-family:Times;-inkscape-font-specification:Times-Roman"
       d="m 262.08496,8.40791 1.568,0 c 0.128,0 0.16,0.016 0.184,0.072 l 0.304,0.712 -0.072,0.056 c -0.12,-0.1679998 -0.2,-0.208 -0.368,-0.208 l -1.672,0 -0.872,-1.896 c -0.008,-0.016 -0.008,-0.024 -0.008,-0.04 0,-0.04 0.032,-0.064 0.096,-0.064 0.256,0 0.576,-0.056 0.904,-0.16 0.92,-0.2959997 1.344,-0.7920008 1.344,-1.584 0,-0.7679992 -0.488,-1.368 -1.112,-1.368 -0.16,0 -0.296,0.056 -0.536,0.232 -0.256,0.1839998 -0.44,0.264 -0.608,0.264 -0.232,0 -0.344,-0.096 -0.344,-0.296 0,-0.3039997 0.376,-0.496 0.976,-0.496 0.672,0 1.248,0.2160004 1.648,0.624 0.368,0.3599996 0.536,0.8160006 0.536,1.424 0,0.5759994 -0.152,0.9440004 -0.552,1.344 -0.352,0.3519996 -0.808,0.5360002 -1.752,0.704 l 0.336,0.68" /><path
       inkscape:connector-curvature="0"
       id="path3943"
       style="font-size:8px;font-variant:normal;font-weight:normal;writing-mode:lr-tb;fill:#231f20;fill-opacity:1;fill-rule:nonzero;stroke:none;font-family:Times;-inkscape-font-specification:Times-Roman"
       d="m 270.21296,9.03991 -1.64,0 0,-0.152 c 0.44,-0.024 0.584,-0.1120002 0.584,-0.336 0,-0.1279999 -0.056,-0.3440002 -0.152,-0.584 l -1.176,-2.936 -1.208,2.704 c -0.264,0.5839994 -0.328,0.7680001 -0.328,0.888 0,0.1519998 0.112,0.232 0.368,0.248 0.032,0 0.12,0.008 0.232,0.016 l 0,0.152 -2.128,0 0,-0.152 c 0.392,-0.016 0.504,-0.1280007 0.848,-0.84 l 1.968,-4.392 0.12,0 1.776,4.488 c 0.264,0.6319994 0.352,0.72 0.736,0.744 l 0,0.152" /><path
       inkscape:connector-curvature="0"
       id="path3945"
       style="font-size:8px;font-variant:normal;font-weight:normal;writing-mode:lr-tb;fill:#231f20;fill-opacity:1;fill-rule:nonzero;stroke:none;font-family:Times;-inkscape-font-specification:Times-Roman"
       d="m 137.79396,5.59191 -0.816,0 0,3.56 -0.352,0 -2.512,-3.56 0,-0.512 2.248,0 0,-1.336 0.616,0 0,1.336 0.816,0 0,0.512 m -1.44,0 -1.92,0 1.92,2.744 0,-2.744" /><path
       inkscape:connector-curvature="0"
       id="path3947"
       style="font-size:8px;font-variant:normal;font-weight:normal;writing-mode:lr-tb;fill:#231f20;fill-opacity:1;fill-rule:nonzero;stroke:none;font-family:Times;-inkscape-font-specification:Times-Roman"
       d="m 139.01796,4.54391 c -0.24,0 -0.44,-0.2080003 -0.44,-0.456 0,-0.2319998 0.2,-0.432 0.432,-0.432 0.248,0 0.456,0.2000002 0.456,0.432 0,0.2479997 -0.208,0.456 -0.448,0.456" /><path
       inkscape:connector-curvature="0"
       id="path3949"
       style="font-size:8px;font-variant:normal;font-weight:normal;writing-mode:lr-tb;fill:#231f20;fill-opacity:1;fill-rule:nonzero;stroke:none;font-family:Times;-inkscape-font-specification:Times-Roman"
       d="m 143.60996,9.03991 -2.96,0 -0.472,-1.176 0.136,-0.064 c 0.344,0.5439995 0.488,0.648 0.928,0.648 l 1.736,0 -1.584,-4.768 0.52,0 1.696,5.232 0,0.128" /><path
       inkscape:connector-curvature="0"
       id="path3951"
       style="font-size:8px;font-variant:normal;font-weight:normal;writing-mode:lr-tb;fill:#231f20;fill-opacity:1;fill-rule:nonzero;stroke:none;font-family:Times;-inkscape-font-specification:Times-Roman"
       d="m 147.58596,9.21591 c -0.912,-0.08 -1.376,-0.2320004 -1.96,-0.64 -0.864,-0.6159994 -1.336,-1.5280011 -1.336,-2.6 0,-0.6959993 0.216,-1.4000004 0.56,-1.8 0.304,-0.3519996 0.736,-0.544 1.232,-0.544 0.992,0 1.68,0.7600011 1.68,1.864 0,1.023999 -0.584,1.672 -1.504,1.672 -0.352,0 -0.52,-0.056 -1.024,-0.36 0.216,1.2079988 1.112,2.0720002 2.368,2.28 l -0.016,0.128 m -1.632,-2.416 c 0.688,0 1.088,-0.576001 1.088,-1.576 0,-0.8799991 -0.312,-1.368 -0.872,-1.368 -0.704,0 -1.136,0.7520012 -1.136,1.992 0,0.4079996 0.064,0.6320001 0.224,0.752 0.168,0.1279999 0.416,0.2 0.696,0.2" /><path
       inkscape:connector-curvature="0"
       id="path3953"
       style="font-size:8px;font-variant:normal;font-weight:normal;writing-mode:lr-tb;fill:#231f20;fill-opacity:1;fill-rule:nonzero;stroke:none;font-family:Times;-inkscape-font-specification:Times-Roman"
       d="m 153.59396,9.03991 -1.64,0 0,-0.152 c 0.44,-0.024 0.584,-0.1120002 0.584,-0.336 0,-0.1279999 -0.056,-0.3440002 -0.152,-0.584 l -1.176,-2.936 -1.208,2.704 c -0.264,0.5839994 -0.328,0.7680001 -0.328,0.888 0,0.1519998 0.112,0.232 0.368,0.248 0.032,0 0.12,0.008 0.232,0.016 l 0,0.152 -2.128,0 0,-0.152 c 0.392,-0.016 0.504,-0.1280007 0.848,-0.84 l 1.968,-4.392 0.12,0 1.776,4.488 c 0.264,0.6319994 0.352,0.72 0.736,0.744 l 0,0.152" /><path
       inkscape:connector-curvature="0"
       id="path60"
       style="fill:none;stroke:#231f20;stroke-width:0.5;stroke-linecap:butt;stroke-linejoin:miter;stroke-miterlimit:4;stroke-opacity:1;stroke-dasharray:none"
       d="m 327.805,14.318 -255.9999,0 0,194.361" /><path
       inkscape:connector-curvature="0"
       id="path62"
       style="fill:#231f20;fill-opacity:1;fill-rule:nonzero;stroke:none"
       d="m 71.0367,210.45 c -0.375,-1.239 -0.7199,-2.045 -1.1191,-3.041 l 3.7836,0 c -0.1696,0.357 -0.7446,1.802 -1.1192,3.041 -0.4007,1.327 -0.6754,2.531 -0.773,3.311 -0.0977,-0.78 -0.3719,-1.984 -0.7723,-3.311" /><path
       inkscape:connector-curvature="0"
       id="path64"
       style="fill:#231f20;fill-opacity:1;fill-rule:nonzero;stroke:none"
       d="m 329.577,15.0859 c -1.241,0.375 -2.046,0.72 -3.041,1.1192 l 0,-3.7832 c 0.356,0.1691 1.8,0.7441 3.041,1.1179 1.326,0.4024 2.53,0.6762 3.31,0.7743 -0.78,0.0968 -1.984,0.3718 -3.31,0.7718" /><path
       inkscape:connector-curvature="0"
       id="path66"
       style="fill:none;stroke:#231f20;stroke-width:0.5;stroke-linecap:butt;stroke-linejoin:miter;stroke-miterlimit:4;stroke-opacity:1;stroke-dasharray:2.5, 2;stroke-dashoffset:0"
       d="m 143.805,14.318 0,108 -71.9999,0" /><path
       inkscape:connector-curvature="0"
       id="path68"
       style="fill:none;stroke:#231f20;stroke-width:0.96;stroke-linecap:butt;stroke-linejoin:miter;stroke-miterlimit:4;stroke-opacity:1;stroke-dasharray:none"
       d="M 71.8051,194.124 251.953,13.977" /><path
       inkscape:connector-curvature="0"
       id="path70"
       style="fill:none;stroke:#231f20;stroke-width:0.75;stroke-linecap:butt;stroke-linejoin:miter;stroke-miterlimit:4;stroke-opacity:1;stroke-dasharray:none"
       d="m 67.2188,194.068 8.9992,0" /><path
       inkscape:connector-curvature="0"
       id="path72"
       style="fill:#231f20;fill-opacity:1;fill-rule:nonzero;stroke:none"
       d="m 145.11,122.32 c 0,-0.83 -0.672,-1.5 -1.5,-1.5 -0.828,0 -1.5,0.67 -1.5,1.5 0,0.829 0.672,1.5 1.5,1.5 0.828,0 1.5,-0.671 1.5,-1.5" /><path
       inkscape:connector-curvature="0"
       id="path74"
       style="fill:none;stroke:#231f20;stroke-width:0.75;stroke-linecap:butt;stroke-linejoin:miter;stroke-miterlimit:4;stroke-opacity:1;stroke-dasharray:none"
       d="m 145.28875,122.32 c 0,-0.83 -0.672,-1.5 -1.5,-1.5 -0.828,0 -1.5,0.67 -1.5,1.5 0,0.829 0.672,1.5 1.5,1.5 0.828,0 1.5,-0.671 1.5,-1.5 z" /><path
       inkscape:connector-curvature="0"
       id="path76"
       style="fill:none;stroke:#231f20;stroke-width:0.5;stroke-linecap:butt;stroke-linejoin:miter;stroke-miterlimit:4;stroke-opacity:1;stroke-dasharray:none"
       d="m 0,193.042 26.748,0" /><path
       inkscape:connector-curvature="0"
       id="path78"
       style="fill:none;stroke:#231f20;stroke-width:0.75;stroke-linecap:butt;stroke-linejoin:miter;stroke-miterlimit:4;stroke-opacity:1;stroke-dasharray:none"
       d="m 251.953,9.68711 0,8.99999" /><path
       inkscape:connector-curvature="0"
       id="path3956"
       style="font-size:8px;font-style:italic;font-variant:normal;writing-mode:lr-tb;fill:#231f20;fill-opacity:1;fill-rule:nonzero;stroke:none;font-family:Times;-inkscape-font-specification:Times-Italic"
       d="m 12.43447,202.595 -1.488,0 0,-0.128 c 0.36,-0.04 0.504,-0.12 0.504,-0.272 0,-0.152 -0.152,-0.496 -0.416,-0.952 l -1.648,-2.848 -0.528,3.544 c -0.008,0.04 -0.008,0.072 -0.008,0.12 0,0.272 0.1120005,0.352 0.616,0.408 l 0,0.128 -1.928,0 0,-0.128 c 0.4479996,-0.056 0.4640002,-0.08 0.632,-1.08 l 0.68,-4.16 0.152,0 2.984,4.92 c 0.136,0.216 0.264,0.312 0.448,0.32 l 0,0.128" /><path
       inkscape:connector-curvature="0"
       id="path3959"
       style="font-size:6px;font-style:italic;font-variant:normal;writing-mode:lr-tb;fill:#231f20;fill-opacity:1;fill-rule:nonzero;stroke:none;font-family:Times;-inkscape-font-specification:Times-Italic"
       d="m 15.73036,198.161 0.222,1.194 -0.126,0 c -0.048,-0.096 -0.108,-0.132 -0.228,-0.132 -0.048,0 -0.12,0.012 -0.246,0.042 -0.27,0.066 -0.51,0.102 -0.702,0.102 -1.277999,0 -2.436,-1.206 -2.436,-2.538 0,-0.918 0.648001,-1.566 1.566,-1.566 0.617999,0 1.098,0.264 1.638,0.894 l -0.102,0.084 c -0.539999,-0.528 -0.888,-0.708 -1.38,-0.708 -0.665999,0 -1.05,0.456 -1.05,1.23 0,0.714 0.288001,1.44 0.756,1.926 0.288,0.294 0.666,0.462 1.062,0.462 0.551999,0 0.858,-0.324 0.918,-0.972 l 0.108,-0.018" /><path
       inkscape:connector-curvature="0"
       id="path3961"
       style="font-size:6px;font-style:italic;font-variant:normal;writing-mode:lr-tb;fill:#231f20;fill-opacity:1;fill-rule:nonzero;stroke:none;font-family:Times;-inkscape-font-specification:Times-Italic"
       d="m 19.73236,198.161 0.222,1.194 -0.126,0 c -0.048,-0.096 -0.108,-0.132 -0.228,-0.132 -0.048,0 -0.12,0.012 -0.246,0.042 -0.27,0.066 -0.51,0.102 -0.702,0.102 -1.277999,0 -2.436,-1.206 -2.436,-2.538 0,-0.918 0.648001,-1.566 1.566,-1.566 0.617999,0 1.098,0.264 1.638,0.894 l -0.102,0.084 c -0.54,-0.528 -0.888001,-0.708 -1.38,-0.708 -0.666,0 -1.05,0.456 -1.05,1.23 0,0.714 0.288,1.44 0.756,1.926 0.288,0.294 0.666,0.462 1.062,0.462 0.551999,0 0.858,-0.324 0.918,-0.972 l 0.108,-0.018" /><path
       inkscape:connector-curvature="0"
       id="path3964"
       style="font-size:8px;font-style:italic;font-variant:normal;writing-mode:lr-tb;fill:#231f20;fill-opacity:1;fill-rule:nonzero;stroke:none;font-family:Times;-inkscape-font-specification:Times-Italic"
       d="m 4.93526,185.499 c -0.3519996,0.024 -0.5120002,0.16 -0.664,0.576 l -0.744,1.96 c 0.6159994,0.136 0.8800003,0.248 1.168,0.504 0.2639997,0.232 0.408,0.544 0.408,0.904 0,0.744 -0.5920011,1.152 -1.664,1.152 l -1.984,0 0,-0.128 c 0.3359997,-0.048 0.3760001,-0.056 0.456,-0.112 0.064,-0.04 0.112,-0.136 0.112,-0.224 0,-0.096 -0.04,-0.288 -0.096,-0.504 l -0.984,-3.536 c -0.14399986,-0.472 -0.20000045,-0.52 -0.648,-0.592 l 0,-0.128 1.952,0 0,0.128 c -0.4879995,0.064 -0.544,0.104 -0.544,0.368 0,0.08 0.024,0.184 0.096,0.464 l 0.448,1.672 0.52,-0.04 0.984,-2.592 1.184,0 0,0.128 m -2.072,4.632 c 0.048,0.168 0.1520003,0.224 0.408,0.224 0.6639993,0 0.992,-0.304 0.992,-0.896 0,-0.792 -0.512001,-1.2 -1.512,-1.2 -0.1279999,0 -0.2160002,0.008 -0.408,0.04 l 0.52,1.832" /><path
       inkscape:connector-curvature="0"
       id="path3967"
       style="font-size:6px;font-style:italic;font-variant:normal;writing-mode:lr-tb;fill:#231f20;fill-opacity:1;fill-rule:nonzero;stroke:none;font-family:Times;-inkscape-font-specification:Times-Italic"
       d="m 9.19915,186.161 0.222,1.194 -0.126,0 c -0.048,-0.096 -0.1080001,-0.132 -0.228,-0.132 -0.048,0 -0.1200001,0.012 -0.246,0.042 -0.2699997,0.066 -0.5100002,0.102 -0.702,0.102 -1.2779987,0 -2.436,-1.206 -2.436,-2.538 0,-0.918 0.6480009,-1.566 1.566,-1.566 0.6179994,0 1.0980005,0.264 1.638,0.894 l -0.102,0.084 c -0.5399995,-0.528 -0.8880005,-0.708 -1.38,-0.708 -0.6659993,0 -1.05,0.456 -1.05,1.23 0,0.714 0.2880005,1.44 0.756,1.926 0.2879997,0.294 0.6660004,0.462 1.062,0.462 0.5519994,0 0.8580001,-0.324 0.918,-0.972 l 0.108,-0.018" /><path
       inkscape:connector-curvature="0"
       id="path3970"
       style="font-size:8px;font-variant:normal;font-weight:normal;writing-mode:lr-tb;fill:#231f20;fill-opacity:1;fill-rule:nonzero;stroke:none;font-family:Times;-inkscape-font-specification:Times-Roman"
       d="m 13.2811,187.659 -1.752,0 0,-0.528 1.752,0 0,-1.76 0.528,0 0,1.76 1.752,0 0,0.528 -1.752,0 0,1.76 -0.528,0 0,-1.76" /><path
       inkscape:connector-curvature="0"
       id="path3973"
       style="font-size:8px;font-style:italic;font-variant:normal;writing-mode:lr-tb;fill:#231f20;fill-opacity:1;fill-rule:nonzero;stroke:none;font-family:Times;-inkscape-font-specification:Times-Italic"
       d="m 22.33682,185.499 c -0.352,0.024 -0.512,0.16 -0.664,0.576 l -0.744,1.96 c 0.615999,0.136 0.88,0.248 1.168,0.504 0.264,0.232 0.408,0.544 0.408,0.904 0,0.744 -0.592001,1.152 -1.664,1.152 l -1.984,0 0,-0.128 c 0.336,-0.048 0.376,-0.056 0.456,-0.112 0.064,-0.04 0.112,-0.136 0.112,-0.224 0,-0.096 -0.04,-0.288 -0.096,-0.504 l -0.984,-3.536 c -0.144,-0.472 -0.2,-0.52 -0.648,-0.592 l 0,-0.128 1.952,0 0,0.128 c -0.488,0.064 -0.544,0.104 -0.544,0.368 0,0.08 0.024,0.184 0.096,0.464 l 0.448,1.672 0.52,-0.04 0.984,-2.592 1.184,0 0,0.128 m -2.072,4.632 c 0.048,0.168 0.152,0.224 0.408,0.224 0.663999,0 0.992,-0.304 0.992,-0.896 0,-0.792 -0.512001,-1.2 -1.512,-1.2 -0.128,0 -0.216,0.008 -0.408,0.04 l 0.52,1.832" /><path
       inkscape:connector-curvature="0"
       id="path3976"
       style="font-size:6px;font-style:italic;font-variant:normal;writing-mode:lr-tb;fill:#231f20;fill-opacity:1;fill-rule:nonzero;stroke:none;font-family:Times;-inkscape-font-specification:Times-Italic"
       d="m 26.49349,187.289 -2.982,0 0,-0.096 c 0.372,-0.036 0.462,-0.084 0.462,-0.246 0,-0.066 -0.036,-0.276 -0.066,-0.384 l -0.738,-2.652 c -0.102,-0.342 -0.15,-0.384 -0.486,-0.444 l 0,-0.096 3.042,0 0.372,0.972 -0.096,0.048 c -0.282,-0.384 -0.438,-0.54 -0.696,-0.66 -0.222,-0.102 -0.63,-0.162 -1.08,-0.162 -0.336,0 -0.48,0.06 -0.48,0.204 0,0.066 0.066,0.348 0.216,0.876 0.078,0.264 0.132,0.462 0.192,0.69 0.21,-0.012 0.396,-0.018 0.468,-0.018 0.234,0.006 0.402,-0.03 0.468,-0.09 0.03,-0.03 0.042,-0.084 0.042,-0.186 0,-0.102 -0.012,-0.18 -0.042,-0.312 l 0.12,-0.03 0.408,1.392 -0.108,0.024 c -0.228,-0.51 -0.282001,-0.546 -0.828,-0.57 -0.072,0 -0.264,-0.006 -0.474,-0.012 l 0.396,1.398 c 0.036,0.132 0.102,0.156 0.438,0.156 0.941999,0 1.152,-0.078 1.152,-0.438 0,-0.078 -0.006,-0.168 -0.012,-0.27 l 0.126,-0.012 0.186,0.918" /></g></svg>