<?xml version="1.0" encoding="UTF-8" standalone="no"?>
<!-- Created with Inkscape (http://www.inkscape.org/) -->

<svg
   xmlns:dc="http://purl.org/dc/elements/1.1/"
   xmlns:cc="http://creativecommons.org/ns#"
   xmlns:rdf="http://www.w3.org/1999/02/22-rdf-syntax-ns#"
   xmlns:svg="http://www.w3.org/2000/svg"
   xmlns="http://www.w3.org/2000/svg"
   xmlns:sodipodi="http://sodipodi.sourceforge.net/DTD/sodipodi-0.dtd"
   xmlns:inkscape="http://www.inkscape.org/namespaces/inkscape"
   id="svg2"
   version="1.1"
   inkscape:version="0.48.4 r9939"
   width="367.3625"
   height="241.9875"
   xml:space="preserve"
   sodipodi:docname="S3-EE-03-IN004.eps"><metadata
     id="metadata8"><rdf:RDF><cc:Work
         rdf:about=""><dc:format>image/svg+xml</dc:format><dc:type
           rdf:resource="http://purl.org/dc/dcmitype/StillImage" /><dc:title></dc:title></cc:Work></rdf:RDF></metadata><defs
     id="defs6" /><sodipodi:namedview
     pagecolor="#ffffff"
     bordercolor="#666666"
     borderopacity="1"
     objecttolerance="10"
     gridtolerance="10"
     guidetolerance="10"
     inkscape:pageopacity="0"
     inkscape:pageshadow="2"
     inkscape:window-width="1366"
     inkscape:window-height="744"
     id="namedview4"
     showgrid="false"
     inkscape:zoom="2.310607"
     inkscape:cx="183.40546"
     inkscape:cy="121.14616"
     inkscape:window-x="0"
     inkscape:window-y="24"
     inkscape:window-maximized="1"
     inkscape:current-layer="g10" /><g
     id="g10"
     inkscape:groupmode="layer"
     inkscape:label="ink_ext_XXXXXX"
     transform="matrix(1.25,0,0,-1.25,0,241.9875)"><path
       inkscape:connector-curvature="0"
       id="path3118"
       style="font-size:8px;font-style:italic;font-variant:normal;writing-mode:lr-tb;fill:#231f20;fill-opacity:1;fill-rule:nonzero;stroke:none;font-family:Times;-inkscape-font-specification:Times-Italic"
       d="m 182.603,55.0431 c 0.616,0.04 0.92,0.12 1.368,0.368 1.184,0.663999 1.992,1.960001 1.992,3.224 0,1.079999 -0.768,1.864 -1.832,1.864 -0.64,0 -1.36,-0.328001 -2,-0.904 -0.808,-0.751999 -1.28,-1.720001 -1.28,-2.656 0,-0.655999 0.24,-1.2 0.672,-1.536 0.208,-0.168 0.384,-0.248 0.736,-0.328 -0.728,-0.639999 -0.8,-0.704 -1.416,-1.136 l 0.08,-0.12 c 0.304,0.168 0.608,0.248 0.92,0.248 0.16,0 0.392,-0.048 0.744,-0.144 0.488,-0.136 0.92,-0.216 1.216,-0.216 0.44,0 1,0.208 1.408,0.528 0.192,0.144 0.296,0.256 0.504,0.544 l -0.12,0.088 c -0.448,-0.464 -0.776,-0.616 -1.352,-0.616 -0.208,0 -0.376,0.032 -0.984,0.176 -0.416,0.104 -0.792,0.176 -0.84,0.168 -0.032,-0.008 -0.048,-0.008 -0.048,-0.008 l -0.2,0 0.432,0.456 m 1.488,5.192 c 0.64,0 1.032,-0.464001 1.032,-1.224 0,-0.847999 -0.376,-2.024001 -0.888,-2.76 -0.44,-0.631999 -0.936,-0.944 -1.52,-0.944 -0.648,0 -1.024,0.488001 -1.024,1.328 0,0.759999 0.392,1.952001 0.88,2.648 0.448,0.647999 0.936,0.952 1.52,0.952" /><path
       inkscape:connector-curvature="0"
       id="path3121"
       style="font-size:6px;font-variant:normal;font-weight:normal;writing-mode:lr-tb;fill:#231f20;fill-opacity:1;fill-rule:nonzero;stroke:none;font-family:Times;-inkscape-font-specification:Times-Roman"
       d="m 187.892,57.2271 -1.08,-0.546 0,-0.084 c 0.072,0.03 0.138,0.054 0.162,0.066 0.108,0.042 0.21,0.066 0.27,0.066 0.126,0 0.18,-0.09 0.18,-0.282 l 0,-2.718 c 0,-0.198 -0.048,-0.336 -0.144,-0.39 -0.09,-0.054 -0.174,-0.072 -0.426,-0.078 l 0,-0.09 1.656,0 0,0.09 c -0.474,0.006 -0.57,0.066 -0.57,0.354 l 0,3.6 -0.048,0.012" /><path
       inkscape:connector-curvature="0"
       id="path3124"
       style="font-size:8px;font-variant:normal;font-weight:normal;writing-mode:lr-tb;fill:#231f20;fill-opacity:1;fill-rule:nonzero;stroke:none;font-family:Times;-inkscape-font-specification:Times-Roman"
       d="m 193.006,60.5791 c -0.592,-0.384 -0.832,-0.592 -1.128,-0.96 -0.568,-0.695999 -0.848,-1.496001 -0.848,-2.432 0,-1.015999 0.296,-1.800001 1,-2.616 0.328,-0.384 0.536,-0.56 0.952,-0.816 l 0.096,0.128 c -0.64,0.504 -0.864,0.784001 -1.08,1.384 -0.192,0.535999 -0.28,1.144001 -0.28,1.944 0,0.839999 0.104,1.496001 0.32,1.992 0.224,0.496 0.464,0.784001 1.04,1.248 l -0.072,0.128" /><path
       inkscape:connector-curvature="0"
       id="path3126"
       style="font-size:8px;font-variant:normal;font-weight:normal;writing-mode:lr-tb;fill:#231f20;fill-opacity:1;fill-rule:nonzero;stroke:none;font-family:Times;-inkscape-font-specification:Times-Roman"
       d="m 195.638,60.5791 -1.44,-0.728 0,-0.112 c 0.096,0.04 0.184,0.072 0.216,0.088 0.144,0.056 0.28,0.088 0.36,0.088 0.168,0 0.24,-0.12 0.24,-0.376 l 0,-3.624 c 0,-0.264 -0.064,-0.448 -0.192,-0.52 -0.12,-0.072 -0.232,-0.096 -0.568,-0.104 l 0,-0.12 2.208,0 0,0.12 c -0.632,0.008 -0.76,0.088 -0.76,0.472 l 0,4.8 -0.064,0.016" /><path
       inkscape:connector-curvature="0"
       id="path3128"
       style="font-size:8px;font-variant:normal;font-weight:normal;writing-mode:lr-tb;fill:#231f20;fill-opacity:1;fill-rule:nonzero;stroke:none;font-family:Times;-inkscape-font-specification:Times-Roman"
       d="m 198.534,57.8111 c 0.472,0 0.656,-0.016 0.848,-0.088 0.496,-0.176 0.808,-0.632001 0.808,-1.184 0,-0.671999 -0.456,-1.192 -1.048,-1.192 -0.216,0 -0.376,0.056 -0.672,0.248 -0.24,0.144 -0.376,0.2 -0.512,0.2 -0.184,0 -0.304,-0.112 -0.304,-0.28 0,-0.28 0.344,-0.456 0.904,-0.456 0.616,0 1.248,0.208 1.624,0.536 0.376,0.328 0.584,0.792001 0.584,1.328 0,0.408 -0.128,0.784 -0.36,1.032 -0.16,0.176 -0.312,0.272 -0.664,0.424 0.552,0.376 0.752,0.672 0.752,1.104 0,0.647999 -0.512,1.096 -1.248,1.096 -0.4,0 -0.752,-0.136 -1.04,-0.392 -0.24,-0.216 -0.36,-0.424 -0.536,-0.904 l 0.12,-0.032 c 0.328,0.583999 0.688,0.848 1.192,0.848 0.52,0 0.88,-0.352 0.88,-0.856 0,-0.288 -0.12,-0.576 -0.32,-0.776 -0.24,-0.24 -0.464,-0.36 -1.008,-0.552 l 0,-0.104" /><path
       inkscape:connector-curvature="0"
       id="path3130"
       style="font-size:8px;font-variant:normal;font-weight:normal;writing-mode:lr-tb;fill:#231f20;fill-opacity:1;fill-rule:nonzero;stroke:none;font-family:Times;-inkscape-font-specification:Times-Roman"
       d="m 202.31,55.9711 c -0.24,0 -0.44,-0.208 -0.44,-0.456 0,-0.232 0.2,-0.432 0.432,-0.432 0.248,0 0.456,0.2 0.456,0.432 0,0.248 -0.208,0.456 -0.448,0.456" /><path
       inkscape:connector-curvature="0"
       id="path3132"
       style="font-size:8px;font-variant:normal;font-weight:normal;writing-mode:lr-tb;fill:#231f20;fill-opacity:1;fill-rule:nonzero;stroke:none;font-family:Times;-inkscape-font-specification:Times-Roman"
       d="m 203.782,54.9951 c 0.896,0.104 1.336,0.256 1.88,0.648 0.832,0.607999 1.32,1.600001 1.32,2.68 0,1.319999 -0.736,2.256 -1.768,2.256 -0.952,0 -1.664,-0.808001 -1.664,-1.888 0,-0.975999 0.576,-1.624 1.44,-1.624 0.44,0 0.776,0.128 1.2,0.456 -0.328,-1.303999 -1.216,-2.16 -2.432,-2.368 l 0.024,-0.16 m 2.424,3.016 c 0,-0.16 -0.032,-0.232 -0.12,-0.304 -0.224,-0.192 -0.52,-0.296 -0.808,-0.296 -0.608,0 -0.992,0.600001 -0.992,1.552 0,0.456 0.128,0.936 0.296,1.144 0.136,0.16 0.336,0.248 0.568,0.248 0.696,0 1.056,-0.688001 1.056,-2.032 l 0,-0.312" /><path
       inkscape:connector-curvature="0"
       id="path3134"
       style="font-size:8px;font-variant:normal;font-weight:normal;writing-mode:lr-tb;fill:#231f20;fill-opacity:1;fill-rule:nonzero;stroke:none;font-family:Times;-inkscape-font-specification:Times-Roman"
       d="m 208.758,59.8351 1.568,0 c 0.128,0 0.16,0.016 0.184,0.072 l 0.304,0.712 -0.072,0.056 c -0.12,-0.168 -0.2,-0.208 -0.368,-0.208 l -1.672,0 -0.872,-1.896 c -0.008,-0.016 -0.008,-0.024 -0.008,-0.04 0,-0.04 0.032,-0.064 0.096,-0.064 0.256,0 0.576,-0.056 0.904,-0.16 0.92,-0.296 1.344,-0.792001 1.344,-1.584 0,-0.767999 -0.488,-1.368 -1.112,-1.368 -0.16,0 -0.296,0.056 -0.536,0.232 -0.256,0.184 -0.44,0.264 -0.608,0.264 -0.232,0 -0.344,-0.096 -0.344,-0.296 0,-0.304 0.376,-0.496 0.976,-0.496 0.672,0 1.248,0.216 1.648,0.624 0.368,0.36 0.536,0.816001 0.536,1.424 0,0.575999 -0.152,0.944 -0.552,1.344 -0.352,0.352 -0.808,0.536 -1.752,0.704 l 0.336,0.68" /><path
       inkscape:connector-curvature="0"
       id="path3136"
       style="font-size:8px;font-variant:normal;font-weight:normal;writing-mode:lr-tb;fill:#231f20;fill-opacity:1;fill-rule:nonzero;stroke:none;font-family:Times;-inkscape-font-specification:Times-Roman"
       d="m 218.886,60.4671 -1.64,0 0,-0.152 c 0.44,-0.024 0.584,-0.112 0.584,-0.336 0,-0.128 -0.056,-0.344 -0.152,-0.584 l -1.176,-2.936 -1.208,2.704 c -0.264,0.583999 -0.328,0.768 -0.328,0.888 0,0.152 0.112,0.232 0.368,0.248 0.032,0 0.12,0.008 0.232,0.016 l 0,0.152 -2.128,0 0,-0.152 c 0.392,-0.016 0.504,-0.128001 0.848,-0.84 l 1.968,-4.392 0.12,0 1.776,4.488 c 0.264,0.631999 0.352,0.72 0.736,0.744 l 0,0.152" /><path
       inkscape:connector-curvature="0"
       id="path3138"
       style="font-size:8px;font-variant:normal;font-weight:normal;writing-mode:lr-tb;fill:#231f20;fill-opacity:1;fill-rule:nonzero;stroke:none;font-family:Times;-inkscape-font-specification:Times-Roman"
       d="m 218.71836,54.0431 c 0.536,0.264 0.896,0.752 0.896,1.232 0,0.4 -0.28,0.712 -0.64,0.712 -0.28,0 -0.472,-0.184 -0.472,-0.456 0,-0.256 0.184,-0.408 0.472,-0.408 0.048,0 0.104,0.008 0.152,0.016 0.056,0.016 0.056,0.016 0.064,0.016 0.064,0 0.112,-0.048 0.112,-0.112 0,-0.256 -0.224,-0.552 -0.656,-0.848 l 0.072,-0.152" /><path
       inkscape:connector-curvature="0"
       id="path3140"
       style="font-size:8px;font-variant:normal;font-weight:normal;writing-mode:lr-tb;fill:#231f20;fill-opacity:1;fill-rule:nonzero;stroke:none;font-family:Times;-inkscape-font-specification:Times-Roman"
       d="m 224.38236,60.5791 -1.44,-0.728 0,-0.112 c 0.096,0.04 0.184,0.072 0.216,0.088 0.144,0.056 0.28,0.088 0.36,0.088 0.168,0 0.24,-0.12 0.24,-0.376 l 0,-3.624 c 0,-0.264 -0.064,-0.448 -0.192,-0.52 -0.12,-0.072 -0.232,-0.096 -0.568,-0.104 l 0,-0.12 2.208,0 0,0.12 c -0.632,0.008 -0.76,0.088 -0.76,0.472 l 0,4.8 -0.064,0.016" /><path
       inkscape:connector-curvature="0"
       id="path3142"
       style="font-size:8px;font-variant:normal;font-weight:normal;writing-mode:lr-tb;fill:#231f20;fill-opacity:1;fill-rule:nonzero;stroke:none;font-family:Times;-inkscape-font-specification:Times-Roman"
       d="m 227.05436,55.9711 c -0.24,0 -0.44,-0.208 -0.44,-0.456 0,-0.232 0.2,-0.432 0.432,-0.432 0.248,0 0.456,0.2 0.456,0.432 0,0.248 -0.208,0.456 -0.448,0.456" /><path
       inkscape:connector-curvature="0"
       id="path3144"
       style="font-size:8px;font-variant:normal;font-weight:normal;writing-mode:lr-tb;fill:#231f20;fill-opacity:1;fill-rule:nonzero;stroke:none;font-family:Times;-inkscape-font-specification:Times-Roman"
       d="m 230.37436,58.1391 c 0.792,0.424 1.072,0.760001 1.072,1.304 0,0.655999 -0.576,1.136 -1.376,1.136 -0.872,0 -1.52,-0.536001 -1.52,-1.264 0,-0.519999 0.152,-0.752001 0.992,-1.488 -0.864,-0.655999 -1.04,-0.904 -1.04,-1.448 0,-0.775999 0.632,-1.32 1.536,-1.32 0.96,0 1.576,0.528001 1.576,1.352 0,0.615999 -0.272,1.008001 -1.24,1.728 m -0.144,-0.824 c 0.584,-0.416 0.776,-0.704 0.776,-1.152 0,-0.519999 -0.36,-0.88 -0.88,-0.88 -0.608,0 -1.016,0.464001 -1.016,1.16 0,0.512 0.176,0.848 0.64,1.224 l 0.48,-0.352 m -0.088,0.968 c -0.712,0.464 -1,0.832 -1,1.28 0,0.464 0.36,0.792 0.864,0.792 0.544,0 0.888,-0.352001 0.888,-0.904 0,-0.455999 -0.224,-0.816 -0.68,-1.12 -0.04,-0.024 -0.04,-0.024 -0.072,-0.048" /><path
       inkscape:connector-curvature="0"
       id="path3146"
       style="font-size:8px;font-variant:normal;font-weight:normal;writing-mode:lr-tb;fill:#231f20;fill-opacity:1;fill-rule:nonzero;stroke:none;font-family:Times;-inkscape-font-specification:Times-Roman"
       d="m 235.83036,57.0191 -0.816,0 0,3.56 -0.352,0 -2.512,-3.56 0,-0.512 2.248,0 0,-1.336 0.616,0 0,1.336 0.816,0 0,0.512 m -1.44,0 -1.92,0 1.92,2.744 0,-2.744" /><path
       inkscape:connector-curvature="0"
       id="path3148"
       style="font-size:8px;font-variant:normal;font-weight:normal;writing-mode:lr-tb;fill:#231f20;fill-opacity:1;fill-rule:nonzero;stroke:none;font-family:Times;-inkscape-font-specification:Times-Roman"
       d="m 238.20636,58.3551 c 0.104,0.024 0.168,0.032 0.256,0.032 0.208,0 0.28,-0.128 0.28,-0.512 l 0,-2.024 c 0,-0.432 -0.112,-0.552 -0.56,-0.56 l 0,-0.12 1.776,0 0,0.12 c -0.424,0.016 -0.544,0.104 -0.544,0.416 l 0,2.256 c 0,0.016 0.064,0.096 0.12,0.152 0.2,0.184 0.544,0.32 0.824,0.32 0.352,0 0.528,-0.280001 0.528,-0.84 l 0,-1.736 c 0,-0.448 -0.088,-0.536 -0.544,-0.568 l 0,-0.12 1.792,0 0,0.12 c -0.456,0.008 -0.576,0.144001 -0.576,0.64 l 0,2.016 c 0.24,0.344 0.504,0.488 0.872,0.488 0.456,0 0.6,-0.216001 0.6,-0.88 l 0,-1.688 c 0,-0.456 -0.064,-0.52 -0.528,-0.576 l 0,-0.12 1.752,0 0,0.12 -0.208,0.016 c -0.24,0.016 -0.344,0.16 -0.344,0.472 l 0,1.648 c 0,0.943999 -0.312,1.424 -0.928,1.424 -0.464,0 -0.872,-0.208 -1.304,-0.672 -0.144,0.456 -0.416,0.672 -0.848,0.672 -0.352,0 -0.576,-0.112 -1.24,-0.616 l 0,0.6 -0.056,0.016 c -0.408,-0.152 -0.68,-0.24 -1.12,-0.36 l 0,-0.136" /><path
       inkscape:connector-curvature="0"
       id="path3150"
       style="font-size:8px;font-variant:normal;font-weight:normal;writing-mode:lr-tb;fill:#231f20;fill-opacity:1;fill-rule:nonzero;stroke:none;font-family:Times;-inkscape-font-specification:Times-Roman"
       d="m 249.9268,55.3231 c -0.36,0.024 -0.44,0.104001 -0.72,0.696 l -1.992,4.544 -0.16,0 -1.664,-3.928 c -0.512,-1.167999 -0.608,-1.296 -0.992,-1.312 l 0,-0.152 1.584,0 0,0.152 c -0.384,0 -0.544,0.104 -0.544,0.328 0,0.096 0.024,0.208 0.064,0.312 l 0.368,0.936 2.096,0 0.328,-0.768 c 0.096,-0.216 0.152,-0.424 0.152,-0.536 0,-0.2 -0.136,-0.264 -0.56,-0.272 l 0,-0.152 2.04,0 0,0.152 m -3.92,1.904 0.92,2.2 0.928,-2.2 -1.848,0" /><path
       inkscape:connector-curvature="0"
       id="path3152"
       style="font-size:8px;font-variant:normal;font-weight:normal;writing-mode:lr-tb;fill:#231f20;fill-opacity:1;fill-rule:nonzero;stroke:none;font-family:Times;-inkscape-font-specification:Times-Roman"
       d="m 250.35831,53.7551 c 0.592,0.384 0.832,0.592 1.128,0.96 0.568,0.695999 0.848,1.496001 0.848,2.432 0,1.023999 -0.296,1.800001 -1,2.616 -0.328,0.384 -0.536,0.56 -0.952,0.816 l -0.096,-0.128 c 0.64,-0.503999 0.856,-0.784001 1.08,-1.384 0.192,-0.536 0.28,-1.144001 0.28,-1.944 0,-0.831999 -0.104,-1.496 -0.32,-1.984 -0.224,-0.504 -0.464,-0.792 -1.04,-1.256 l 0.072,-0.128" /><path
       inkscape:connector-curvature="0"
       id="path3154"
       style="font-size:8px;font-variant:normal;font-weight:normal;writing-mode:lr-tb;fill:#231f20;fill-opacity:1;fill-rule:nonzero;stroke:none;font-family:Times;-inkscape-font-specification:Times-Roman"
       d="m 257.191,58.7711 -0.984,0 0,0.928 c 0,0.464 0.152,0.712 0.456,0.712 0.168,0 0.28,-0.08 0.424,-0.312 0.128,-0.208 0.224,-0.288 0.36,-0.288 0.184,0 0.336,0.144 0.336,0.328 0,0.288 -0.352,0.496 -0.832,0.496 -0.496,0 -0.92,-0.216 -1.128,-0.584 -0.208,-0.352 -0.272,-0.640001 -0.28,-1.28 l -0.656,0 0,-0.256 0.656,0 0,-2.512 c 0,-0.583999 -0.088,-0.68 -0.664,-0.712 l 0,-0.12 2.08,0 0,0.12 c -0.656,0.024 -0.744,0.112001 -0.744,0.712 l 0,2.512 0.976,0 0,0.256" /><path
       inkscape:connector-curvature="0"
       id="path3156"
       style="font-size:8px;font-variant:normal;font-weight:normal;writing-mode:lr-tb;fill:#231f20;fill-opacity:1;fill-rule:nonzero;stroke:none;font-family:Times;-inkscape-font-specification:Times-Roman"
       d="m 259.383,58.8511 c -1.04,0 -1.768,-0.768001 -1.768,-1.872 0,-1.079999 0.744,-1.888 1.752,-1.888 1.008,0 1.776,0.848001 1.776,1.952 0,1.047999 -0.736,1.808 -1.76,1.808 m -0.104,-0.224 c 0.672,0 1.144,-0.768001 1.144,-1.864 0,-0.903999 -0.36,-1.448 -0.96,-1.448 -0.312,0 -0.608,0.192 -0.776,0.512 -0.224,0.416 -0.352,0.976001 -0.352,1.544 0,0.759999 0.376,1.256 0.944,1.256" /><path
       inkscape:connector-curvature="0"
       id="path3158"
       style="font-size:8px;font-variant:normal;font-weight:normal;writing-mode:lr-tb;fill:#231f20;fill-opacity:1;fill-rule:nonzero;stroke:none;font-family:Times;-inkscape-font-specification:Times-Roman"
       d="m 261.439,58.2911 c 0.112,0.024 0.184,0.032 0.28,0.032 0.2,0 0.272,-0.128 0.272,-0.48 l 0,-2 c 0,-0.4 -0.056,-0.456 -0.568,-0.552 l 0,-0.12 1.92,0 0,0.12 c -0.544,0.024 -0.68,0.144 -0.68,0.6 l 0,1.8 c 0,0.256 0.344,0.656 0.56,0.656 0.048,0 0.12,-0.04 0.208,-0.12 0.128,-0.112 0.216,-0.16 0.32,-0.16 0.192,0 0.312,0.136 0.312,0.36 0,0.264 -0.168,0.424 -0.44,0.424 -0.336,0 -0.568,-0.184001 -0.96,-0.752 l 0,0.736 -0.04,0.016 c -0.424,-0.176 -0.712,-0.28 -1.184,-0.432 l 0,-0.128" /><path
       inkscape:connector-curvature="0"
       id="path3161"
       style="font-size:8px;font-style:italic;font-variant:normal;writing-mode:lr-tb;fill:#231f20;fill-opacity:1;fill-rule:nonzero;stroke:none;font-family:Times;-inkscape-font-specification:Times-Italic"
       d="m 269.7667,56.1071 c -0.432,-0.543999 -0.528,-0.632 -0.656,-0.632 -0.072,0 -0.128,0.072 -0.128,0.144 0,0.08 0.128,0.584 0.264,1 0.232,0.759999 0.384,1.352 0.384,1.544 0,0.32 -0.216,0.536 -0.528,0.536 -0.52,0 -1.088,-0.528001 -1.832,-1.688 l 0.96,3.584 -0.04,0.04 c -0.464,-0.104 -0.776,-0.16 -1.256,-0.216 l 0,-0.12 0.208,0 c 0.008,0 0.016,0 0.024,0.008 0.112,0.048 0.304,-0.088 0.304,-0.2 0,-0.112 -0.04,-0.312 -0.112,-0.544 -0.008,-0.008 -0.032,-0.12 -0.08,-0.296 l -1.08,-4.096 0.6,0 c 0.32,1.231999 0.424,1.504 0.744,1.992 0.416,0.631999 0.96,1.128 1.24,1.128 0.12,0 0.224,-0.096 0.224,-0.2 0,-0.032 -0.024,-0.136 -0.056,-0.264 l -0.44,-1.656 c -0.104,-0.392 -0.16,-0.64 -0.16,-0.736 0,-0.208 0.136,-0.336 0.352,-0.336 0.408,0 0.688,0.216001 1.168,0.912 l -0.104,0.096" /><path
       inkscape:connector-curvature="0"
       id="path3164"
       style="font-size:6px;font-style:italic;font-variant:normal;writing-mode:lr-tb;fill:#231f20;fill-opacity:1;fill-rule:nonzero;stroke:none;font-family:Times;-inkscape-font-specification:Times-Italic"
       d="m 273.9167,57.0891 -2.988,0 0,-0.096 c 0.39,-0.036 0.462,-0.072 0.462,-0.246 0,-0.09 -0.024,-0.24 -0.066,-0.384 l -0.738,-2.652 c -0.108,-0.36 -0.15,-0.396 -0.492,-0.444 l 0,-0.096 1.512,0 0,0.096 c -0.348,0.018 -0.456,0.084 -0.456,0.264 0,0.048 0.018,0.138 0.054,0.27 l 0.372,1.338 c 0.222,-0.012 0.354,-0.018 0.486,-0.018 0.234,0 0.276,-0.006 0.33,-0.03 0.09,-0.048 0.132,-0.126 0.132,-0.246 0,-0.096 -0.012,-0.168 -0.048,-0.354 l 0.102,-0.03 0.456,1.404 -0.108,0.03 c -0.27,-0.539999 -0.288,-0.546 -1.296,-0.558 l 0.396,1.398 c 0.036,0.12 0.12,0.156 0.366,0.156 1.008,0 1.224,-0.078 1.224,-0.45 0,-0.036 0,-0.066 -0.006,-0.144 -0.006,-0.036 -0.006,-0.042 -0.012,-0.114 l 0.126,-0.012 0.192,0.918" /><path
       inkscape:connector-curvature="0"
       id="path3166"
       style="font-size:6px;font-style:italic;font-variant:normal;writing-mode:lr-tb;fill:#231f20;fill-opacity:1;fill-rule:nonzero;stroke:none;font-family:Times;-inkscape-font-specification:Times-Italic"
       d="m 277.5167,57.0891 -2.982,0 0,-0.096 c 0.372,-0.036 0.462,-0.084 0.462,-0.246 0,-0.066 -0.036,-0.276 -0.066,-0.384 l -0.738,-2.652 c -0.102,-0.342 -0.15,-0.384 -0.486,-0.444 l 0,-0.096 3.042,0 0.372,0.972 -0.096,0.048 c -0.282,-0.384 -0.438,-0.54 -0.696,-0.66 -0.222,-0.102 -0.63,-0.162 -1.08,-0.162 -0.336,0 -0.48,0.06 -0.48,0.204 0,0.066 0.066,0.348001 0.216,0.876 0.078,0.264 0.132,0.462 0.192,0.69 0.21,-0.012 0.396,-0.018 0.468,-0.018 0.234,0.006 0.402,-0.03 0.468,-0.09 0.03,-0.03 0.042,-0.084 0.042,-0.186 0,-0.102 -0.012,-0.18 -0.042,-0.312 l 0.12,-0.03 0.408,1.392 -0.108,0.024 c -0.228,-0.51 -0.282,-0.546 -0.828,-0.57 -0.072,0 -0.264,-0.006 -0.474,-0.012 l 0.396,1.398 c 0.036,0.132 0.102,0.156 0.438,0.156 0.942,0 1.152,-0.078 1.152,-0.438 0,-0.078 -0.006,-0.168 -0.012,-0.27 l 0.126,-0.012 0.186,0.918" /><path
       inkscape:connector-curvature="0"
       id="path3169"
       style="font-size:8px;font-variant:normal;font-weight:normal;writing-mode:lr-tb;fill:#231f20;fill-opacity:1;fill-rule:nonzero;stroke:none;font-family:Times;-inkscape-font-specification:Times-Roman"
       d="m 283.65073,58.2591 -4.032,0 0,-0.528 4.032,0 0,0.528 m 0,-1.6 -4.032,0 0,-0.528 4.032,0 0,0.528" /><path
       inkscape:connector-curvature="0"
       id="path3171"
       style="font-size:8px;font-variant:normal;font-weight:normal;writing-mode:lr-tb;fill:#231f20;fill-opacity:1;fill-rule:nonzero;stroke:none;font-family:Times;-inkscape-font-specification:Times-Roman"
       d="m 287.33873,59.8351 1.568,0 c 0.128,0 0.16,0.016 0.184,0.072 l 0.304,0.712 -0.072,0.056 c -0.12,-0.168 -0.2,-0.208 -0.368,-0.208 l -1.672,0 -0.872,-1.896 c -0.008,-0.016 -0.008,-0.024 -0.008,-0.04 0,-0.04 0.032,-0.064 0.096,-0.064 0.256,0 0.576,-0.056 0.904,-0.16 0.92,-0.296 1.344,-0.792001 1.344,-1.584 0,-0.767999 -0.488,-1.368 -1.112,-1.368 -0.16,0 -0.296,0.056 -0.536,0.232 -0.256,0.184 -0.44,0.264 -0.608,0.264 -0.232,0 -0.344,-0.096 -0.344,-0.296 0,-0.304 0.376,-0.496 0.976,-0.496 0.672,0 1.248,0.216 1.648,0.624 0.368,0.36 0.536,0.816001 0.536,1.424 0,0.575999 -0.152,0.944 -0.552,1.344 -0.352,0.352 -0.808,0.536 -1.752,0.704 l 0.336,0.68" /><path
       inkscape:connector-curvature="0"
       id="path3173"
       style="font-size:8px;font-variant:normal;font-weight:normal;writing-mode:lr-tb;fill:#231f20;fill-opacity:1;fill-rule:nonzero;stroke:none;font-family:Times;-inkscape-font-specification:Times-Roman"
       d="m 291.92273,60.5791 c -0.44,0 -0.776,-0.136 -1.072,-0.416 -0.464,-0.448 -0.768,-1.368001 -0.768,-2.304 0,-0.871999 0.264,-1.808 0.64,-2.256 0.296,-0.352 0.704,-0.544 1.168,-0.544 0.408,0 0.752,0.136 1.04,0.416 0.464,0.44 0.768,1.368001 0.768,2.336 0,1.639998 -0.728,2.768 -1.776,2.768 m -0.024,-0.208 c 0.672,0 1.032,-0.904002 1.032,-2.576 0,-1.671998 -0.352,-2.528 -1.04,-2.528 -0.688,0 -1.04,0.856002 -1.04,2.52 0,1.695998 0.36,2.584 1.048,2.584" /><path
       inkscape:connector-curvature="0"
       id="path3175"
       style="font-size:8px;font-variant:normal;font-weight:normal;writing-mode:lr-tb;fill:#231f20;fill-opacity:1;fill-rule:nonzero;stroke:none;font-family:Times;-inkscape-font-specification:Times-Roman"
       d="m 108.64473,129.9038 c -0.91199,0.024 -1.552,0.376 -2.2,1.216 0.544,0.104 0.83201,0.24 1.2,0.56 0.592,0.528 0.896,1.256 0.896,2.144 0,1.608 -1.088,2.76 -2.616,2.76 -1.52799,0 -2.616,-1.152 -2.616,-2.776 0,-0.784 0.24001,-1.44 0.712,-1.952 0.312,-0.336 0.56801,-0.496 1.136,-0.688 l 0.376,-0.44 c 0.544,-0.632 1.51201,-0.976 2.784,-0.976 0.12,0 0.192,0 0.28,0.008 l 0.048,0 0,0.144 m -2.696,6.392 c 0.344,0 0.71201,-0.152 0.992,-0.4 0.432,-0.384 0.688,-1.152 0.688,-2.056 0,-0.792 -0.232,-1.608 -0.552,-1.976 -0.29599,-0.328 -0.712,-0.512 -1.152,-0.512 -0.38399,0 -0.736,0.136 -1.024,0.392 -0.42399,0.376 -0.68,1.176 -0.68,2.112 0,0.768 0.23201,1.552 0.56,1.92 0.328,0.352 0.70401,0.52 1.168,0.52" /><path
       inkscape:connector-curvature="0"
       id="path3178"
       style="font-size:6px;font-variant:normal;font-weight:normal;writing-mode:lr-tb;fill:#231f20;fill-opacity:1;fill-rule:nonzero;stroke:none;font-family:Times;-inkscape-font-specification:Times-Roman"
       d="m 111.66251,130.37788 -0.078,0.03 c -0.222,-0.342 -0.3,-0.396 -0.57,-0.396 l -1.434,0 1.008,1.056 c 0.534,0.558 0.768,1.014 0.768,1.482 0,0.6 -0.486,1.062 -1.11,1.062 -0.33,0 -0.642,-0.132 -0.864,-0.372 -0.192,-0.204 -0.282,-0.396 -0.384,-0.822 l 0.126,-0.03 c 0.24,0.588 0.456,0.78 0.87,0.78 0.504,0 0.846,-0.342 0.846,-0.846 0,-0.468 -0.276,-1.026 -0.78,-1.56 l -1.068,-1.134 0,-0.072 2.34,0 0.33,0.822" /><path
       inkscape:connector-curvature="0"
       id="path3181"
       style="font-size:8px;font-variant:normal;font-weight:normal;writing-mode:lr-tb;fill:#231f20;fill-opacity:1;fill-rule:nonzero;stroke:none;font-family:Times;-inkscape-font-specification:Times-Roman"
       d="m 116.17251,136.5838 c -0.592,-0.384 -0.832,-0.592 -1.128,-0.96 -0.568,-0.696 -0.848,-1.496 -0.848,-2.432 0,-1.016 0.296,-1.8 1,-2.616 0.328,-0.384 0.536,-0.56 0.952,-0.816 l 0.096,0.128 c -0.64,0.504 -0.864,0.784 -1.08,1.384 -0.192,0.536 -0.28,1.144 -0.28,1.944 0,0.84 0.104,1.496 0.32,1.992 0.224,0.496 0.464,0.784 1.04,1.248 l -0.072,0.128" /><path
       inkscape:connector-curvature="0"
       id="path3183"
       style="font-size:8px;font-variant:normal;font-weight:normal;writing-mode:lr-tb;fill:#231f20;fill-opacity:1;fill-rule:nonzero;stroke:none;font-family:Times;-inkscape-font-specification:Times-Roman"
       d="m 118.80451,136.5838 -1.44,-0.728 0,-0.112 c 0.096,0.04 0.184,0.072 0.216,0.088 0.144,0.056 0.28,0.088 0.36,0.088 0.168,0 0.24,-0.12 0.24,-0.376 l 0,-3.624 c 0,-0.264 -0.064,-0.448 -0.192,-0.52 -0.12,-0.072 -0.232,-0.096 -0.568,-0.104 l 0,-0.12 2.208,0 0,0.12 c -0.632,0.008 -0.76,0.088 -0.76,0.472 l 0,4.8 -0.064,0.016" /><path
       inkscape:connector-curvature="0"
       id="path3185"
       style="font-size:8px;font-variant:normal;font-weight:normal;writing-mode:lr-tb;fill:#231f20;fill-opacity:1;fill-rule:nonzero;stroke:none;font-family:Times;-inkscape-font-specification:Times-Roman"
       d="m 121.47651,131.9758 c -0.24,0 -0.44,-0.208 -0.44,-0.456 0,-0.232 0.2,-0.432 0.432,-0.432 0.248,0 0.456,0.2 0.456,0.432 0,0.248 -0.208,0.456 -0.448,0.456" /><path
       inkscape:connector-curvature="0"
       id="path3187"
       style="font-size:8px;font-variant:normal;font-weight:normal;writing-mode:lr-tb;fill:#231f20;fill-opacity:1;fill-rule:nonzero;stroke:none;font-family:Times;-inkscape-font-specification:Times-Roman"
       d="m 124.79651,134.1438 c 0.792,0.424 1.072,0.76 1.072,1.304 0,0.656 -0.576,1.136 -1.376,1.136 -0.872,0 -1.52,-0.536 -1.52,-1.264 0,-0.52 0.152,-0.752 0.992,-1.488 -0.864,-0.656 -1.04,-0.904 -1.04,-1.448 0,-0.776 0.632,-1.32 1.536,-1.32 0.96,0 1.576,0.528 1.576,1.352 0,0.616 -0.272,1.008 -1.24,1.728 m -0.144,-0.824 c 0.584,-0.416 0.776,-0.704 0.776,-1.152 0,-0.52 -0.36,-0.88 -0.88,-0.88 -0.608,0 -1.016,0.464 -1.016,1.16 0,0.512 0.176,0.848 0.64,1.224 l 0.48,-0.352 m -0.088,0.968 c -0.712,0.464 -1,0.832 -1,1.28 0,0.464 0.36,0.792 0.864,0.792 0.544,0 0.888,-0.352 0.888,-0.904 0,-0.456 -0.224,-0.816 -0.68,-1.12 -0.04,-0.024 -0.04,-0.024 -0.072,-0.048" /><path
       inkscape:connector-curvature="0"
       id="path3189"
       style="font-size:8px;font-variant:normal;font-weight:normal;writing-mode:lr-tb;fill:#231f20;fill-opacity:1;fill-rule:nonzero;stroke:none;font-family:Times;-inkscape-font-specification:Times-Roman"
       d="m 128.80451,136.5838 -1.44,-0.728 0,-0.112 c 0.096,0.04 0.184,0.072 0.216,0.088 0.144,0.056 0.28,0.088 0.36,0.088 0.168,0 0.24,-0.12 0.24,-0.376 l 0,-3.624 c 0,-0.264 -0.064,-0.448 -0.192,-0.52 -0.12,-0.072 -0.232,-0.096 -0.568,-0.104 l 0,-0.12 2.208,0 0,0.12 c -0.632,0.008 -0.76,0.088 -0.76,0.472 l 0,4.8 -0.064,0.016" /><path
       inkscape:connector-curvature="0"
       id="path3191"
       style="font-size:8px;font-variant:normal;font-weight:normal;writing-mode:lr-tb;fill:#231f20;fill-opacity:1;fill-rule:nonzero;stroke:none;font-family:Times;-inkscape-font-specification:Times-Roman"
       d="m 138.05251,136.4718 -1.64,0 0,-0.152 c 0.44,-0.024 0.584,-0.112 0.584,-0.336 0,-0.128 -0.056,-0.344 -0.152,-0.584 l -1.176,-2.936 -1.208,2.704 c -0.264,0.584 -0.328,0.768 -0.328,0.888 0,0.152 0.112,0.232 0.368,0.248 0.032,0 0.12,0.008 0.232,0.016 l 0,0.152 -2.128,0 0,-0.152 c 0.392,-0.016 0.504,-0.128 0.848,-0.84 l 1.968,-4.392 0.12,0 1.776,4.488 c 0.264,0.632 0.352,0.72 0.736,0.744 l 0,0.152" /><path
       inkscape:connector-curvature="0"
       id="path3193"
       style="font-size:8px;font-variant:normal;font-weight:normal;writing-mode:lr-tb;fill:#231f20;fill-opacity:1;fill-rule:nonzero;stroke:none;font-family:Times;-inkscape-font-specification:Times-Roman"
       d="m 137.88441,130.0478 c 0.536,0.264 0.896,0.752 0.896,1.232 0,0.4 -0.28,0.712 -0.64,0.712 -0.28,0 -0.472,-0.184 -0.472,-0.456 0,-0.256 0.184,-0.408 0.472,-0.408 0.048,0 0.104,0.008 0.152,0.016 0.056,0.016 0.056,0.016 0.064,0.016 0.064,0 0.112,-0.048 0.112,-0.112 0,-0.256 -0.224,-0.552 -0.656,-0.848 l 0.072,-0.152" /><path
       inkscape:connector-curvature="0"
       id="path3195"
       style="font-size:8px;font-variant:normal;font-weight:normal;writing-mode:lr-tb;fill:#231f20;fill-opacity:1;fill-rule:nonzero;stroke:none;font-family:Times;-inkscape-font-specification:Times-Roman"
       d="m 144.81241,136.4718 -2.96,0 -0.472,-1.176 0.136,-0.064 c 0.344,0.544 0.488,0.648 0.928,0.648 l 1.736,0 -1.584,-4.768 0.52,0 1.696,5.232 0,0.128" /><path
       inkscape:connector-curvature="0"
       id="path3197"
       style="font-size:8px;font-variant:normal;font-weight:normal;writing-mode:lr-tb;fill:#231f20;fill-opacity:1;fill-rule:nonzero;stroke:none;font-family:Times;-inkscape-font-specification:Times-Roman"
       d="m 146.22041,131.9758 c -0.24,0 -0.44,-0.208 -0.44,-0.456 0,-0.232 0.2,-0.432 0.432,-0.432 0.248,0 0.456,0.2 0.456,0.432 0,0.248 -0.208,0.456 -0.448,0.456" /><path
       inkscape:connector-curvature="0"
       id="path3199"
       style="font-size:8px;font-variant:normal;font-weight:normal;writing-mode:lr-tb;fill:#231f20;fill-opacity:1;fill-rule:nonzero;stroke:none;font-family:Times;-inkscape-font-specification:Times-Roman"
       d="m 148.4444,133.8158 c 0.472,0 0.656,-0.016 0.848,-0.088 0.496,-0.176 0.808,-0.632 0.808,-1.184 0,-0.672 -0.456,-1.192 -1.048,-1.192 -0.216,0 -0.376,0.056 -0.672,0.248 -0.24,0.144 -0.376,0.2 -0.512,0.2 -0.184,0 -0.304,-0.112 -0.304,-0.28 0,-0.28 0.34401,-0.456 0.904,-0.456 0.616,0 1.248,0.208 1.624,0.536 0.376,0.328 0.584,0.792 0.584,1.328 0,0.408 -0.128,0.784 -0.36,1.032 -0.16,0.176 -0.312,0.272 -0.664,0.424 0.552,0.376 0.752,0.672 0.752,1.104 0,0.648 -0.512,1.096 -1.248,1.096 -0.39999,0 -0.752,-0.136 -1.04,-0.392 -0.24,-0.216 -0.36,-0.424 -0.536,-0.904 l 0.12,-0.032 c 0.328,0.584 0.688,0.848 1.192,0.848 0.52,0 0.88,-0.352 0.88,-0.856 0,-0.288 -0.12,-0.576 -0.32,-0.776 -0.24,-0.24 -0.464,-0.36 -1.008,-0.552 l 0,-0.104" /><path
       inkscape:connector-curvature="0"
       id="path3201"
       style="font-size:8px;font-variant:normal;font-weight:normal;writing-mode:lr-tb;fill:#231f20;fill-opacity:1;fill-rule:nonzero;stroke:none;font-family:Times;-inkscape-font-specification:Times-Roman"
       d="m 154.7884,136.6478 c -0.912,-0.08 -1.376,-0.232 -1.96,-0.64 -0.864,-0.616 -1.336,-1.528 -1.336,-2.6 0,-0.696 0.216,-1.4 0.56,-1.8 0.304,-0.352 0.736,-0.544 1.232,-0.544 0.992,0 1.68,0.76 1.68,1.864 0,1.024 -0.584,1.672 -1.504,1.672 -0.352,0 -0.52,-0.056 -1.024,-0.36 0.216,1.208 1.112,2.072 2.368,2.28 l -0.016,0.128 m -1.632,-2.416 c 0.688,0 1.088,-0.576 1.088,-1.576 0,-0.88 -0.312,-1.368 -0.872,-1.368 -0.704,0 -1.136,0.752 -1.136,1.992 0,0.408 0.064,0.632 0.224,0.752 0.168,0.128 0.416,0.2 0.696,0.2" /><path
       inkscape:connector-curvature="0"
       id="path3203"
       style="font-size:8px;font-variant:normal;font-weight:normal;writing-mode:lr-tb;fill:#231f20;fill-opacity:1;fill-rule:nonzero;stroke:none;font-family:Times;-inkscape-font-specification:Times-Roman"
       d="m 157.3724,134.3598 c 0.104,0.024 0.168,0.032 0.256,0.032 0.208,0 0.28,-0.128 0.28,-0.512 l 0,-2.024 c 0,-0.432 -0.112,-0.552 -0.56,-0.56 l 0,-0.12 1.776,0 0,0.12 c -0.424,0.016 -0.544,0.104 -0.544,0.416 l 0,2.256 c 0,0.016 0.064,0.096 0.12,0.152 0.2,0.184 0.544,0.32 0.824,0.32 0.352,0 0.528,-0.28 0.528,-0.84 l 0,-1.736 c 0,-0.448 -0.088,-0.536 -0.544,-0.568 l 0,-0.12 1.792,0 0,0.12 c -0.456,0.008 -0.576,0.144 -0.576,0.64 l 0,2.016 c 0.24,0.344 0.504,0.488 0.872,0.488 0.456,0 0.6,-0.216 0.6,-0.88 l 0,-1.688 c 0,-0.456 -0.064,-0.52 -0.528,-0.576 l 0,-0.12 1.752,0 0,0.12 -0.208,0.016 c -0.24,0.016 -0.344,0.16 -0.344,0.472 l 0,1.648 c 0,0.944 -0.312,1.424 -0.928,1.424 -0.464,0 -0.872,-0.208 -1.304,-0.672 -0.144,0.456 -0.416,0.672 -0.848,0.672 -0.352,0 -0.576,-0.112 -1.24,-0.616 l 0,0.6 -0.056,0.016 c -0.408,-0.152 -0.68,-0.24 -1.12,-0.36 l 0,-0.136" /><path
       inkscape:connector-curvature="0"
       id="path3205"
       style="font-size:8px;font-variant:normal;font-weight:normal;writing-mode:lr-tb;fill:#231f20;fill-opacity:1;fill-rule:nonzero;stroke:none;font-family:Times;-inkscape-font-specification:Times-Roman"
       d="m 169.09302,131.3278 c -0.36,0.024 -0.44,0.104 -0.72,0.696 l -1.992,4.544 -0.16,0 -1.664,-3.928 c -0.512,-1.168 -0.608,-1.296 -0.992,-1.312 l 0,-0.152 1.584,0 0,0.152 c -0.384,0 -0.544,0.104 -0.544,0.328 0,0.096 0.024,0.208 0.064,0.312 l 0.368,0.936 2.096,0 0.328,-0.768 c 0.096,-0.216 0.152,-0.424 0.152,-0.536 0,-0.2 -0.136,-0.264 -0.56,-0.272 l 0,-0.152 2.04,0 0,0.152 m -3.92,1.904 0.92,2.2 0.928,-2.2 -1.848,0" /><path
       inkscape:connector-curvature="0"
       id="path3207"
       style="font-size:8px;font-variant:normal;font-weight:normal;writing-mode:lr-tb;fill:#231f20;fill-opacity:1;fill-rule:nonzero;stroke:none;font-family:Times;-inkscape-font-specification:Times-Roman"
       d="m 169.5244,129.7598 c 0.592,0.384 0.832,0.592 1.128,0.96 0.568,0.696 0.848,1.496 0.848,2.432 0,1.024 -0.296,1.8 -1,2.616 -0.328,0.384 -0.536,0.56 -0.952,0.816 l -0.096,-0.128 c 0.64,-0.504 0.856,-0.784 1.08,-1.384 0.192,-0.536 0.28,-1.144 0.28,-1.944 0,-0.832 -0.104,-1.496 -0.32,-1.984 -0.224,-0.504 -0.464,-0.792 -1.04,-1.256 l 0.072,-0.128" /><path
       inkscape:connector-curvature="0"
       id="path3209"
       style="font-size:8px;font-variant:normal;font-weight:normal;writing-mode:lr-tb;fill:#231f20;fill-opacity:1;fill-rule:nonzero;stroke:none;font-family:Times;-inkscape-font-specification:Times-Roman"
       d="m 176.35641,134.7758 -0.984,0 0,0.928 c 0,0.464 0.152,0.712 0.456,0.712 0.16799,0 0.28,-0.08 0.424,-0.312 0.12799,-0.208 0.224,-0.288 0.36,-0.288 0.18399,0 0.336,0.144 0.336,0.328 0,0.288 -0.35201,0.496 -0.832,0.496 -0.496,0 -0.92001,-0.216 -1.128,-0.584 -0.208,-0.352 -0.272,-0.64 -0.28,-1.28 l -0.656,0 0,-0.256 0.656,0 0,-2.512 c 0,-0.584 -0.088,-0.68 -0.664,-0.712 l 0,-0.12 2.08,0 0,0.12 c -0.656,0.024 -0.744,0.112 -0.744,0.712 l 0,2.512 0.976,0 0,0.256" /><path
       inkscape:connector-curvature="0"
       id="path3211"
       style="font-size:8px;font-variant:normal;font-weight:normal;writing-mode:lr-tb;fill:#231f20;fill-opacity:1;fill-rule:nonzero;stroke:none;font-family:Times;-inkscape-font-specification:Times-Roman"
       d="m 178.54841,134.8558 c -1.04,0 -1.768,-0.768 -1.768,-1.872 0,-1.08 0.744,-1.888 1.752,-1.888 1.008,0 1.776,0.848 1.776,1.952 0,1.048 -0.736,1.808 -1.76,1.808 m -0.104,-0.224 c 0.672,0 1.144,-0.768 1.144,-1.864 0,-0.904 -0.36,-1.448 -0.96,-1.448 -0.312,0 -0.608,0.192 -0.776,0.512 -0.224,0.416 -0.352,0.976 -0.352,1.544 0,0.76 0.376,1.256 0.944,1.256" /><path
       inkscape:connector-curvature="0"
       id="path3213"
       style="font-size:8px;font-variant:normal;font-weight:normal;writing-mode:lr-tb;fill:#231f20;fill-opacity:1;fill-rule:nonzero;stroke:none;font-family:Times;-inkscape-font-specification:Times-Roman"
       d="m 180.6044,134.2958 c 0.112,0.024 0.184,0.032 0.28,0.032 0.2,0 0.272,-0.128 0.272,-0.48 l 0,-2 c 0,-0.4 -0.056,-0.456 -0.568,-0.552 l 0,-0.12 1.92,0 0,0.12 c -0.544,0.024 -0.68,0.144 -0.68,0.6 l 0,1.8 c 0,0.256 0.344,0.656 0.56,0.656 0.048,0 0.12,-0.04 0.208,-0.12 0.128,-0.112 0.216,-0.16 0.32,-0.16 0.192,0 0.312,0.136 0.312,0.36 0,0.264 -0.168,0.424 -0.44,0.424 -0.336,0 -0.568,-0.184 -0.96,-0.752 l 0,0.736 -0.04,0.016 c -0.424,-0.176 -0.712,-0.28 -1.184,-0.432 l 0,-0.128" /><path
       inkscape:connector-curvature="0"
       id="path3216"
       style="font-size:8px;font-style:italic;font-variant:normal;writing-mode:lr-tb;fill:#231f20;fill-opacity:1;fill-rule:nonzero;stroke:none;font-family:Times;-inkscape-font-specification:Times-Italic"
       d="m 188.93251,132.1118 c -0.432,-0.544 -0.528,-0.632 -0.656,-0.632 -0.072,0 -0.128,0.072 -0.128,0.144 0,0.08 0.128,0.584 0.264,1 0.232,0.76 0.384,1.352 0.384,1.544 0,0.32 -0.216,0.536 -0.528,0.536 -0.52,0 -1.088,-0.528 -1.832,-1.688 l 0.96,3.584 -0.04,0.04 c -0.464,-0.104 -0.776,-0.16 -1.256,-0.216 l 0,-0.12 0.208,0 c 0.008,0 0.016,0 0.024,0.008 0.112,0.048 0.304,-0.088 0.304,-0.2 0,-0.112 -0.04,-0.312 -0.112,-0.544 -0.008,-0.008 -0.032,-0.12 -0.08,-0.296 l -1.08,-4.096 0.6,0 c 0.32,1.232 0.424,1.504 0.744,1.992 0.416,0.632 0.96,1.128 1.24,1.128 0.12,0 0.224,-0.096 0.224,-0.2 0,-0.032 -0.024,-0.136 -0.056,-0.264 l -0.44,-1.656 c -0.104,-0.392 -0.16,-0.64 -0.16,-0.736 0,-0.208 0.136,-0.336 0.352,-0.336 0.408,0 0.688,0.216 1.168,0.912 l -0.104,0.096" /><path
       inkscape:connector-curvature="0"
       id="path3219"
       style="font-size:6px;font-style:italic;font-variant:normal;writing-mode:lr-tb;fill:#231f20;fill-opacity:1;fill-rule:nonzero;stroke:none;font-family:Times;-inkscape-font-specification:Times-Italic"
       d="m 193.08251,133.0938 -2.988,0 0,-0.096 c 0.39,-0.036 0.462,-0.072 0.462,-0.246 0,-0.09 -0.024,-0.24 -0.066,-0.384 l -0.738,-2.652 c -0.108,-0.36 -0.15,-0.396 -0.492,-0.444 l 0,-0.096 1.512,0 0,0.096 c -0.348,0.018 -0.456,0.084 -0.456,0.264 0,0.048 0.018,0.138 0.054,0.27 l 0.372,1.338 c 0.222,-0.012 0.354,-0.018 0.486,-0.018 0.234,0 0.276,-0.006 0.33,-0.03 0.09,-0.048 0.132,-0.126 0.132,-0.246 0,-0.096 -0.012,-0.168 -0.048,-0.354 l 0.102,-0.03 0.456,1.404 -0.108,0.03 c -0.27,-0.54 -0.288,-0.546 -1.296,-0.558 l 0.396,1.398 c 0.036,0.12 0.12,0.156 0.366,0.156 1.008,0 1.224,-0.078 1.224,-0.45 0,-0.036 0,-0.066 -0.006,-0.144 -0.006,-0.036 -0.006,-0.042 -0.012,-0.114 l 0.126,-0.012 0.192,0.918" /><path
       inkscape:connector-curvature="0"
       id="path3221"
       style="font-size:6px;font-style:italic;font-variant:normal;writing-mode:lr-tb;fill:#231f20;fill-opacity:1;fill-rule:nonzero;stroke:none;font-family:Times;-inkscape-font-specification:Times-Italic"
       d="m 196.68251,133.0938 -2.982,0 0,-0.096 c 0.372,-0.036 0.462,-0.084 0.462,-0.246 0,-0.066 -0.036,-0.276 -0.066,-0.384 l -0.738,-2.652 c -0.102,-0.342 -0.15,-0.384 -0.486,-0.444 l 0,-0.096 3.042,0 0.372,0.972 -0.096,0.048 c -0.282,-0.384 -0.438,-0.54 -0.696,-0.66 -0.222,-0.102 -0.63,-0.162 -1.08,-0.162 -0.336,0 -0.48,0.06 -0.48,0.204 0,0.066 0.066,0.348 0.216,0.876 0.078,0.264 0.132,0.462 0.192,0.69 0.21,-0.012 0.396,-0.018 0.468,-0.018 0.234,0.006 0.402,-0.03 0.468,-0.09 0.03,-0.03 0.042,-0.084 0.042,-0.186 0,-0.102 -0.012,-0.18 -0.042,-0.312 l 0.12,-0.03 0.408,1.392 -0.108,0.024 c -0.228,-0.51 -0.282,-0.546 -0.828,-0.57 -0.072,0 -0.264,-0.006 -0.474,-0.012 l 0.396,1.398 c 0.036,0.132 0.102,0.156 0.438,0.156 0.942,0 1.152,-0.078 1.152,-0.438 0,-0.078 -0.006,-0.168 -0.012,-0.27 l 0.126,-0.012 0.186,0.918" /><path
       inkscape:connector-curvature="0"
       id="path3224"
       style="font-size:8px;font-variant:normal;font-weight:normal;writing-mode:lr-tb;fill:#231f20;fill-opacity:1;fill-rule:nonzero;stroke:none;font-family:Times;-inkscape-font-specification:Times-Roman"
       d="m 202.81654,134.2638 -4.032,0 0,-0.528 4.032,0 0,0.528 m 0,-1.6 -4.032,0 0,-0.528 4.032,0 0,0.528" /><path
       inkscape:connector-curvature="0"
       id="path3226"
       style="font-size:8px;font-variant:normal;font-weight:normal;writing-mode:lr-tb;fill:#231f20;fill-opacity:1;fill-rule:nonzero;stroke:none;font-family:Times;-inkscape-font-specification:Times-Roman"
       d="m 208.85654,132.2718 -0.104,0.04 c -0.296,-0.456 -0.4,-0.528 -0.76,-0.528 l -1.912,0 1.344,1.408 c 0.712,0.744 1.024,1.352 1.024,1.976 0,0.8 -0.648,1.416 -1.48,1.416 -0.44,0 -0.856,-0.176 -1.152,-0.496 -0.256,-0.272 -0.376,-0.528 -0.512,-1.096 l 0.168,-0.04 c 0.32,0.784 0.608,1.04 1.16,1.04 0.672,0 1.128,-0.456 1.128,-1.128 0,-0.624 -0.368,-1.368 -1.04,-2.08 l -1.424,-1.512 0,-0.096 3.12,0 0.44,1.096" /><path
       inkscape:connector-curvature="0"
       id="path3228"
       style="font-size:8px;font-variant:normal;font-weight:normal;writing-mode:lr-tb;fill:#231f20;fill-opacity:1;fill-rule:nonzero;stroke:none;font-family:Times;-inkscape-font-specification:Times-Roman"
       d="m 211.08854,136.5838 c -0.44,0 -0.776,-0.136 -1.072,-0.416 -0.464,-0.448 -0.768,-1.368 -0.768,-2.304 0,-0.872 0.264,-1.808 0.64,-2.256 0.296,-0.352 0.704,-0.544 1.168,-0.544 0.408,0 0.752,0.136 1.04,0.416 0.464,0.44 0.768,1.368 0.768,2.336 0,1.64 -0.728,2.768 -1.776,2.768 m -0.024,-0.208 c 0.672,0 1.032,-0.904 1.032,-2.576 0,-1.672 -0.352,-2.528 -1.04,-2.528 -0.688,0 -1.04,0.856 -1.04,2.52 0,1.696 0.36,2.584 1.048,2.584" /><path
       inkscape:connector-curvature="0"
       id="path3230"
       style="font-size:8px;font-variant:normal;font-weight:normal;writing-mode:lr-tb;fill:#231f20;fill-opacity:1;fill-rule:nonzero;stroke:none;font-family:Times;-inkscape-font-specification:Times-Roman"
       d="m 215.08854,136.5838 c -0.44,0 -0.776,-0.136 -1.072,-0.416 -0.464,-0.448 -0.768,-1.368 -0.768,-2.304 0,-0.872 0.264,-1.808 0.64,-2.256 0.296,-0.352 0.704,-0.544 1.168,-0.544 0.408,0 0.752,0.136 1.04,0.416 0.464,0.44 0.768,1.368 0.768,2.336 0,1.64 -0.728,2.768 -1.776,2.768 m -0.024,-0.208 c 0.672,0 1.032,-0.904 1.032,-2.576 0,-1.672 -0.352,-2.528 -1.04,-2.528 -0.688,0 -1.04,0.856 -1.04,2.52 0,1.696 0.36,2.584 1.048,2.584" /><path
       inkscape:connector-curvature="0"
       id="path3232"
       style="font-size:8px;font-variant:normal;font-weight:normal;writing-mode:lr-tb;fill:#231f20;fill-opacity:1;fill-rule:nonzero;stroke:none;font-family:Times;-inkscape-font-specification:Times-Roman"
       d="m 30.19254,131.7468 -2.96,0 -0.472,-1.176 0.136,-0.064 c 0.344,0.544 0.488,0.648 0.928,0.648 l 1.736,0 -1.584,-4.768 0.52,0 1.696,5.232 0,0.128" /><path
       inkscape:connector-curvature="0"
       id="path3234"
       style="font-size:8px;font-variant:normal;font-weight:normal;writing-mode:lr-tb;fill:#231f20;fill-opacity:1;fill-rule:nonzero;stroke:none;font-family:Times;-inkscape-font-specification:Times-Roman"
       d="m 31.60054,127.2508 c -0.24,0 -0.44,-0.208 -0.44,-0.456 0,-0.232 0.2,-0.432 0.432,-0.432 0.248,0 0.456,0.2 0.456,0.432 0,0.248 -0.208,0.456 -0.448,0.456" /><path
       inkscape:connector-curvature="0"
       id="path3236"
       style="font-size:8px;font-variant:normal;font-weight:normal;writing-mode:lr-tb;fill:#231f20;fill-opacity:1;fill-rule:nonzero;stroke:none;font-family:Times;-inkscape-font-specification:Times-Roman"
       d="m 33.82454,129.0908 c 0.472,0 0.656,-0.016 0.848,-0.088 0.496,-0.176 0.808,-0.632 0.808,-1.184 0,-0.672 -0.456,-1.192 -1.048,-1.192 -0.216,0 -0.376,0.056 -0.672,0.248 -0.24,0.144 -0.376,0.2 -0.512,0.2 -0.184,0 -0.304,-0.112 -0.304,-0.28 0,-0.28 0.344,-0.456 0.904,-0.456 0.616,0 1.248,0.208 1.624,0.536 0.376,0.328 0.584,0.792 0.584,1.328 0,0.408 -0.128,0.784 -0.36,1.032 -0.16,0.176 -0.312,0.272 -0.664,0.424 0.552,0.376 0.752,0.672 0.752,1.104 0,0.648 -0.512,1.096 -1.248,1.096 -0.4,0 -0.752,-0.136 -1.04,-0.392 -0.24,-0.216 -0.36,-0.424 -0.536,-0.904 l 0.12,-0.032 c 0.328,0.584 0.688,0.848 1.192,0.848 0.52,0 0.88,-0.352 0.88,-0.856 0,-0.288 -0.12,-0.576 -0.32,-0.776 -0.24,-0.24 -0.464,-0.36 -1.008,-0.552 l 0,-0.104" /><path
       inkscape:connector-curvature="0"
       id="path3238"
       style="font-size:8px;font-variant:normal;font-weight:normal;writing-mode:lr-tb;fill:#231f20;fill-opacity:1;fill-rule:nonzero;stroke:none;font-family:Times;-inkscape-font-specification:Times-Roman"
       d="m 40.16854,131.9228 c -0.912,-0.08 -1.376,-0.232 -1.96,-0.64 -0.864,-0.616 -1.336,-1.528 -1.336,-2.6 0,-0.696 0.216,-1.4 0.56,-1.8 0.304,-0.352 0.736,-0.544 1.232,-0.544 0.992,0 1.68,0.76 1.68,1.864 0,1.024 -0.584,1.672 -1.504,1.672 -0.352,0 -0.52,-0.056 -1.024,-0.36 0.216,1.208 1.112,2.072 2.368,2.28 l -0.016,0.128 m -1.632,-2.416 c 0.688,0 1.088,-0.576 1.088,-1.576 0,-0.88 -0.312,-1.368 -0.872,-1.368 -0.704,0 -1.136,0.752 -1.136,1.992 0,0.408 0.064,0.632 0.224,0.752 0.168,0.128 0.416,0.2 0.696,0.2" /><path
       inkscape:connector-curvature="0"
       id="path3240"
       style="font-size:8px;font-variant:normal;font-weight:normal;writing-mode:lr-tb;fill:#231f20;fill-opacity:1;fill-rule:nonzero;stroke:none;font-family:Times;-inkscape-font-specification:Times-Roman"
       d="m 42.75254,129.6348 c 0.104,0.024 0.168,0.032 0.256,0.032 0.208,0 0.28,-0.128 0.28,-0.512 l 0,-2.024 c 0,-0.432 -0.112,-0.552 -0.56,-0.56 l 0,-0.12 1.776,0 0,0.12 c -0.424,0.016 -0.544,0.104 -0.544,0.416 l 0,2.256 c 0,0.016 0.064,0.096 0.12,0.152 0.2,0.184 0.544,0.32 0.824,0.32 0.352,0 0.528,-0.28 0.528,-0.84 l 0,-1.736 c 0,-0.448 -0.088,-0.536 -0.544,-0.568 l 0,-0.12 1.792,0 0,0.12 c -0.456,0.008 -0.576,0.144 -0.576,0.64 l 0,2.016 c 0.24,0.344 0.504,0.488 0.872,0.488 0.456,0 0.6,-0.216 0.6,-0.88 l 0,-1.688 c 0,-0.456 -0.064,-0.52 -0.528,-0.576 l 0,-0.12 1.752,0 0,0.12 -0.208,0.016 c -0.24,0.016 -0.344,0.16 -0.344,0.472 l 0,1.648 c 0,0.944 -0.312,1.424 -0.928,1.424 -0.464,0 -0.872,-0.208 -1.304,-0.672 -0.144,0.456 -0.416,0.672 -0.848,0.672 -0.352,0 -0.576,-0.112 -1.24,-0.616 l 0,0.6 -0.056,0.016 c -0.408,-0.152 -0.68,-0.24 -1.12,-0.36 l 0,-0.136" /><path
       inkscape:connector-curvature="0"
       id="path3242"
       style="font-size:8px;font-variant:normal;font-weight:normal;writing-mode:lr-tb;fill:#231f20;fill-opacity:1;fill-rule:nonzero;stroke:none;font-family:Times;-inkscape-font-specification:Times-Roman"
       d="m 54.47254,126.6028 c -0.36,0.024 -0.44,0.104 -0.72,0.696 l -1.992,4.544 -0.16,0 -1.664,-3.928 c -0.512,-1.168 -0.608,-1.296 -0.992,-1.312 l 0,-0.152 1.584,0 0,0.152 c -0.384,0 -0.544,0.104 -0.544,0.328 0,0.096 0.024,0.208 0.064,0.312 l 0.368,0.936 2.096,0 0.328,-0.768 c 0.096,-0.216 0.152,-0.424 0.152,-0.536 0,-0.2 -0.136,-0.264 -0.56,-0.272 l 0,-0.152 2.04,0 0,0.152 m -3.92,1.904 0.92,2.2 0.928,-2.2 -1.848,0" /><path
       inkscape:connector-curvature="0"
       id="path3244"
       style="font-size:8px;font-variant:normal;font-weight:normal;writing-mode:lr-tb;fill:#231f20;fill-opacity:1;fill-rule:nonzero;stroke:none;font-family:Times;-inkscape-font-specification:Times-Roman"
       d="m 28.92854,53.791999 -1.44,-0.728 0,-0.112 c 0.096,0.04 0.184,0.072 0.216,0.088 0.144,0.056 0.28,0.088 0.36,0.088 0.168,0 0.24,-0.120001 0.24,-0.376 l 0,-3.624 c 0,-0.264 -0.064,-0.448001 -0.192,-0.52 -0.12,-0.072 -0.232,-0.096 -0.568,-0.104 l 0,-0.12 2.208,0 0,0.12 c -0.632,0.008 -0.76,0.088 -0.76,0.472 l 0,4.8 -0.064,0.016" /><path
       inkscape:connector-curvature="0"
       id="path3246"
       style="font-size:8px;font-variant:normal;font-weight:normal;writing-mode:lr-tb;fill:#231f20;fill-opacity:1;fill-rule:nonzero;stroke:none;font-family:Times;-inkscape-font-specification:Times-Roman"
       d="m 31.60054,49.183999 c -0.24,0 -0.44,-0.208001 -0.44,-0.456 0,-0.232 0.2,-0.432 0.432,-0.432 0.248,0 0.456,0.2 0.456,0.432 0,0.247999 -0.208,0.456 -0.448,0.456" /><path
       inkscape:connector-curvature="0"
       id="path3248"
       style="font-size:8px;font-variant:normal;font-weight:normal;writing-mode:lr-tb;fill:#231f20;fill-opacity:1;fill-rule:nonzero;stroke:none;font-family:Times;-inkscape-font-specification:Times-Roman"
       d="m 34.92054,51.351999 c 0.792,0.423999 1.072,0.76 1.072,1.304 0,0.655999 -0.576,1.136 -1.376,1.136 -0.872,0 -1.52,-0.536001 -1.52,-1.264 0,-0.52 0.152,-0.752001 0.992,-1.488 -0.864,-0.656 -1.04,-0.904001 -1.04,-1.448 0,-0.776 0.632,-1.32 1.536,-1.32 0.96,0 1.576,0.528 1.576,1.352 0,0.615999 -0.272,1.008 -1.24,1.728 m -0.144,-0.824 c 0.584,-0.416 0.776,-0.704001 0.776,-1.152 0,-0.52 -0.36,-0.88 -0.88,-0.88 -0.608,0 -1.016,0.464 -1.016,1.16 0,0.511999 0.176,0.848 0.64,1.224 l 0.48,-0.352 m -0.088,0.968 c -0.712,0.463999 -1,0.832 -1,1.28 0,0.463999 0.36,0.792 0.864,0.792 0.544,0 0.888,-0.352001 0.888,-0.904 0,-0.456 -0.224,-0.816001 -0.68,-1.12 -0.04,-0.024 -0.04,-0.024 -0.072,-0.048" /><path
       inkscape:connector-curvature="0"
       id="path3250"
       style="font-size:8px;font-variant:normal;font-weight:normal;writing-mode:lr-tb;fill:#231f20;fill-opacity:1;fill-rule:nonzero;stroke:none;font-family:Times;-inkscape-font-specification:Times-Roman"
       d="m 40.37654,50.231999 -0.816,0 0,3.56 -0.352,0 -2.512,-3.56 0,-0.512 2.248,0 0,-1.336 0.616,0 0,1.336 0.816,0 0,0.512 m -1.44,0 -1.92,0 1.92,2.744 0,-2.744" /><path
       inkscape:connector-curvature="0"
       id="path3252"
       style="font-size:8px;font-variant:normal;font-weight:normal;writing-mode:lr-tb;fill:#231f20;fill-opacity:1;fill-rule:nonzero;stroke:none;font-family:Times;-inkscape-font-specification:Times-Roman"
       d="m 42.75254,51.567999 c 0.104,0.024 0.168,0.032 0.256,0.032 0.208,0 0.28,-0.128001 0.28,-0.512 l 0,-2.024 c 0,-0.432 -0.112,-0.552 -0.56,-0.56 l 0,-0.12 1.776,0 0,0.12 c -0.424,0.016 -0.544,0.104 -0.544,0.416 l 0,2.256 c 0,0.016 0.064,0.096 0.12,0.152 0.2,0.183999 0.544,0.32 0.824,0.32 0.352,0 0.528,-0.280001 0.528,-0.84 l 0,-1.736 c 0,-0.448 -0.088,-0.536 -0.544,-0.568 l 0,-0.12 1.792,0 0,0.12 c -0.456,0.008 -0.576,0.144 -0.576,0.64 l 0,2.016 c 0.24,0.343999 0.504,0.488 0.872,0.488 0.456,0 0.6,-0.216001 0.6,-0.88 l 0,-1.688 c 0,-0.456 -0.064,-0.520001 -0.528,-0.576 l 0,-0.12 1.752,0 0,0.12 -0.208,0.016 c -0.24,0.016 -0.344,0.16 -0.344,0.472 l 0,1.648 c 0,0.943999 -0.312,1.424 -0.928,1.424 -0.464,0 -0.872,-0.208001 -1.304,-0.672 -0.144,0.455999 -0.416,0.672 -0.848,0.672 -0.352,0 -0.576,-0.112001 -1.24,-0.616 l 0,0.6 -0.056,0.016 c -0.408,-0.152 -0.68,-0.240001 -1.12,-0.36 l 0,-0.136" /><path
       inkscape:connector-curvature="0"
       id="path3254"
       style="font-size:8px;font-variant:normal;font-weight:normal;writing-mode:lr-tb;fill:#231f20;fill-opacity:1;fill-rule:nonzero;stroke:none;font-family:Times;-inkscape-font-specification:Times-Roman"
       d="m 54.47254,48.535999 c -0.36,0.024 -0.44,0.104 -0.72,0.696 l -1.992,4.544 -0.16,0 -1.664,-3.928 c -0.512,-1.167999 -0.608,-1.296 -0.992,-1.312 l 0,-0.152 1.584,0 0,0.152 c -0.384,0 -0.544,0.104 -0.544,0.328 0,0.096 0.024,0.208 0.064,0.312 l 0.368,0.936 2.096,0 0.328,-0.768 c 0.096,-0.216 0.152,-0.424001 0.152,-0.536 0,-0.2 -0.136,-0.264 -0.56,-0.272 l 0,-0.152 2.04,0 0,0.152 m -3.92,1.904 0.92,2.2 0.928,-2.2 -1.848,0" /><path
       inkscape:connector-curvature="0"
       id="path3257"
       style="font-size:8px;font-style:italic;font-variant:normal;writing-mode:lr-tb;fill:#231f20;fill-opacity:1;fill-rule:nonzero;stroke:none;font-family:Times;-inkscape-font-specification:Times-Italic"
       d="m 60.37054,186.974 1.952,0 0,0.128 c -0.456,0.056 -0.544,0.104 -0.544,0.328 0,0.152 0.016,0.248 0.088,0.504 l 0.984,3.544 c 0.144,0.464 0.2,0.512 0.656,0.592 l 0,0.128 -1.976,0 0,-0.128 c 0.464,-0.056 0.56,-0.12 0.56,-0.344 0,-0.112 -0.032,-0.296 -0.088,-0.496 l -0.984,-3.536 c -0.144,-0.464 -0.2,-0.512 -0.648,-0.592 l 0,-0.128" /><path
       inkscape:connector-curvature="0"
       id="path3260"
       style="font-size:6px;font-style:italic;font-variant:normal;writing-mode:lr-tb;fill:#231f20;fill-opacity:1;fill-rule:nonzero;stroke:none;font-family:Times;-inkscape-font-specification:Times-Italic"
       d="m 67.0106,187.764 0.222,1.194 -0.126,0 c -0.048,-0.096 -0.108,-0.132 -0.228,-0.132 -0.048,0 -0.12,0.012 -0.246,0.042 -0.27,0.066 -0.51,0.102 -0.702,0.102 -1.277999,0 -2.436,-1.206 -2.436,-2.538 0,-0.918 0.648001,-1.566 1.566,-1.566 0.617999,0 1.098,0.264 1.638,0.894 l -0.102,0.084 c -0.539999,-0.528 -0.888001,-0.708 -1.38,-0.708 -0.665999,0 -1.05,0.456 -1.05,1.23 0,0.714 0.288,1.44 0.756,1.926 0.288,0.294 0.666,0.462 1.062,0.462 0.551999,0 0.858,-0.324 0.918,-0.972 l 0.108,-0.018" /><path
       inkscape:connector-curvature="0"
       id="path3263"
       style="font-size:8px;font-style:italic;font-variant:normal;writing-mode:lr-tb;fill:#231f20;fill-opacity:1;fill-rule:nonzero;stroke:none;font-family:Times;-inkscape-font-specification:Times-Italic"
       d="m 265.99055,15.382688 -1.488,0 0,-0.128 c 0.36,-0.04 0.504,-0.12 0.504,-0.272 0,-0.152 -0.152,-0.496001 -0.416,-0.952 l -1.648,-2.848 -0.528,3.544 c -0.008,0.04 -0.008,0.072 -0.008,0.12 0,0.272 0.112,0.352 0.616,0.408 l 0,0.128 -1.928,0 0,-0.128 c 0.448,-0.056 0.464,-0.08 0.632,-1.08 l 0.68,-4.16 0.152,0 2.984,4.92 c 0.136,0.216 0.264,0.312 0.448,0.32 l 0,0.128" /><path
       inkscape:connector-curvature="0"
       id="path3266"
       style="font-size:6px;font-style:italic;font-variant:normal;writing-mode:lr-tb;fill:#231f20;fill-opacity:1;fill-rule:nonzero;stroke:none;font-family:Times;-inkscape-font-specification:Times-Italic"
       d="m 269.28644,10.948688 0.222,1.194 -0.126,0 c -0.048,-0.096 -0.108,-0.132 -0.228,-0.132 -0.048,0 -0.12,0.012 -0.246,0.042 -0.27,0.066 -0.51,0.102 -0.702,0.102 -1.278,0 -2.436,-1.206001 -2.436,-2.538 0,-0.9179991 0.648,-1.566 1.566,-1.566 0.618,0 1.098,0.2640006 1.638,0.894 l -0.102,0.084 c -0.54,-0.5279995 -0.888,-0.708 -1.38,-0.708 -0.666,0 -1.05,0.4560008 -1.05,1.23 0,0.713999 0.288,1.44 0.756,1.926 0.288,0.294 0.666,0.462 1.062,0.462 0.552,0 0.858,-0.324001 0.918,-0.972 l 0.108,-0.018" /><path
       inkscape:connector-curvature="0"
       id="path3268"
       style="font-size:6px;font-style:italic;font-variant:normal;writing-mode:lr-tb;fill:#231f20;fill-opacity:1;fill-rule:nonzero;stroke:none;font-family:Times;-inkscape-font-specification:Times-Italic"
       d="m 273.18044,12.076688 -2.982,0 0,-0.096 c 0.372,-0.036 0.462,-0.084 0.462,-0.246 0,-0.066 -0.036,-0.276 -0.066,-0.384 l -0.738,-2.652 c -0.102,-0.3419997 -0.15,-0.3840001 -0.486,-0.444 l 0,-0.096 3.042,0 0.372,0.972 -0.096,0.048 c -0.282,-0.3839996 -0.438,-0.5400001 -0.696,-0.66 -0.222,-0.1019999 -0.63,-0.162 -1.08,-0.162 -0.336,0 -0.48,0.06 -0.48,0.204 0,0.066 0.066,0.3480005 0.216,0.876 0.078,0.2639997 0.132,0.4620002 0.192,0.69 0.21,-0.012 0.396,-0.018 0.468,-0.018 0.234,0.006 0.402,-0.03 0.468,-0.09 0.03,-0.03 0.042,-0.084 0.042,-0.186 0,-0.1019999 -0.012,-0.1800001 -0.042,-0.312 l 0.12,-0.03 0.408,1.392 -0.108,0.024 c -0.228,-0.509999 -0.282,-0.546 -0.828,-0.57 -0.072,0 -0.264,-0.006 -0.474,-0.012 l 0.396,1.398 c 0.036,0.132 0.102,0.156 0.438,0.156 0.942,0 1.152,-0.078 1.152,-0.438 0,-0.078 -0.006,-0.168 -0.012,-0.27 l 0.126,-0.012 0.186,0.918" /><path
       inkscape:connector-curvature="0"
       id="path3271"
       style="font-size:8px;font-style:italic;font-variant:normal;writing-mode:lr-tb;fill:#231f20;fill-opacity:1;fill-rule:nonzero;stroke:none;font-family:Times;-inkscape-font-specification:Times-Italic"
       d="m 203.53744,8.967848 -1.488,0 0,-0.128 c 0.36,-0.04 0.504,-0.1200002 0.504,-0.272 0,-0.1519998 -0.152,-0.4960005 -0.416,-0.952 l -1.648,-2.848 -0.528,3.544 c -0.008,0.04 -0.008,0.072 -0.008,0.12 0,0.2719997 0.112,0.3520001 0.616,0.408 l 0,0.128 -1.928,0 0,-0.128 c 0.448,-0.056 0.464,-0.080001 0.632,-1.08 l 0.68,-4.16 0.152,0 2.984,4.92 c 0.136,0.2159998 0.264,0.312 0.448,0.32 l 0,0.128" /><path
       inkscape:connector-curvature="0"
       id="path3274"
       style="font-size:6px;font-style:italic;font-variant:normal;writing-mode:lr-tb;fill:#231f20;fill-opacity:1;fill-rule:nonzero;stroke:none;font-family:Times;-inkscape-font-specification:Times-Italic"
       d="m 206.83333,4.533848 0.222,1.194 -0.126,0 c -0.048,-0.096 -0.108,-0.132 -0.228,-0.132 -0.048,0 -0.12,0.012 -0.246,0.042 -0.27,0.066 -0.51,0.102 -0.702,0.102 -1.278,0 -2.436,-1.2060013 -2.436,-2.538 0,-0.9179991 0.648,-1.566 1.566,-1.566 0.618,0 1.098,0.2640006 1.638,0.894 l -0.102,0.084 c -0.54,-0.5279995 -0.888,-0.708 -1.38,-0.708 -0.666,0 -1.05,0.4560008 -1.05,1.23 0,0.7139993 0.288,1.4400005 0.756,1.926 0.288,0.2939997 0.666,0.462 1.062,0.462 0.552,0 0.858,-0.3240006 0.918,-0.972 l 0.108,-0.018" /><path
       inkscape:connector-curvature="0"
       id="path3276"
       style="font-size:6px;font-style:italic;font-variant:normal;writing-mode:lr-tb;fill:#231f20;fill-opacity:1;fill-rule:nonzero;stroke:none;font-family:Times;-inkscape-font-specification:Times-Italic"
       d="m 210.83533,4.533848 0.222,1.194 -0.126,0 c -0.048,-0.096 -0.108,-0.132 -0.228,-0.132 -0.048,0 -0.12,0.012 -0.246,0.042 -0.27,0.066 -0.51,0.102 -0.702,0.102 -1.278,0 -2.436,-1.2060013 -2.436,-2.538 0,-0.9179991 0.648,-1.566 1.566,-1.566 0.618,0 1.098,0.2640006 1.638,0.894 l -0.102,0.084 c -0.54,-0.5279995 -0.888,-0.708 -1.38,-0.708 -0.666,0 -1.05,0.4560008 -1.05,1.23 0,0.7139993 0.288,1.4400005 0.756,1.926 0.288,0.2939997 0.666,0.462 1.062,0.462 0.552,0 0.858,-0.3240006 0.918,-0.972 l 0.108,-0.018" /><path
       inkscape:connector-curvature="0"
       id="path3279"
       style="font-size:8px;font-variant:normal;font-weight:normal;writing-mode:lr-tb;fill:#231f20;fill-opacity:1;fill-rule:nonzero;stroke:none;font-family:Times;-inkscape-font-specification:Times-Roman"
       d="m 217.19763,6.831848 -4.032,0 0,-0.528 4.032,0 0,0.528 m 0,-1.6 -4.032,0 0,-0.528 4.032,0 0,0.528" /><path
       inkscape:connector-curvature="0"
       id="path3281"
       style="font-size:8px;font-variant:normal;font-weight:normal;writing-mode:lr-tb;fill:#231f20;fill-opacity:1;fill-rule:nonzero;stroke:none;font-family:Times;-inkscape-font-specification:Times-Roman"
       d="m 221.76563,9.151848 -1.44,-0.728 0,-0.112 c 0.096,0.04 0.184,0.072 0.216,0.088 0.144,0.056 0.28,0.088 0.36,0.088 0.168,0 0.24,-0.1200003 0.24,-0.376 l 0,-3.624 c 0,-0.2639997 -0.064,-0.4480001 -0.192,-0.52 -0.12,-0.072 -0.232,-0.096 -0.568,-0.104 l 0,-0.12 2.208,0 0,0.12 c -0.632,0.008 -0.76,0.088 -0.76,0.472 l 0,4.8 -0.064,0.016" /><path
       inkscape:connector-curvature="0"
       id="path3283"
       style="font-size:8px;font-variant:normal;font-weight:normal;writing-mode:lr-tb;fill:#231f20;fill-opacity:1;fill-rule:nonzero;stroke:none;font-family:Times;-inkscape-font-specification:Times-Roman"
       d="m 225.75763,6.711848 c 0.792,0.4239996 1.072,0.7600005 1.072,1.304 0,0.6559993 -0.576,1.136 -1.376,1.136 -0.872,0 -1.52,-0.5360007 -1.52,-1.264 0,-0.5199995 0.152,-0.7520007 0.992,-1.488 -0.864,-0.6559993 -1.04,-0.9040005 -1.04,-1.448 0,-0.7759992 0.632,-1.32 1.536,-1.32 0.96,0 1.576,0.5280008 1.576,1.352 0,0.6159994 -0.272,1.0080007 -1.24,1.728 m -0.144,-0.824 c 0.584,-0.4159996 0.776,-0.7040004 0.776,-1.152 0,-0.5199995 -0.36,-0.88 -0.88,-0.88 -0.608,0 -1.016,0.4640007 -1.016,1.16 0,0.5119995 0.176,0.8480004 0.64,1.224 l 0.48,-0.352 m -0.088,0.968 c -0.712,0.4639995 -1,0.8320004 -1,1.28 0,0.4639995 0.36,0.792 0.864,0.792 0.544,0 0.888,-0.3520006 0.888,-0.904 0,-0.4559995 -0.224,-0.8160003 -0.68,-1.12 -0.04,-0.024 -0.04,-0.024 -0.072,-0.048" /><path
       inkscape:connector-curvature="0"
       id="path3285"
       style="font-size:8px;font-variant:normal;font-weight:normal;writing-mode:lr-tb;fill:#231f20;fill-opacity:1;fill-rule:nonzero;stroke:none;font-family:Times;-inkscape-font-specification:Times-Roman"
       d="m 233.01363,9.039848 -1.64,0 0,-0.152 c 0.44,-0.024 0.584,-0.1120002 0.584,-0.336 0,-0.1279999 -0.056,-0.3440002 -0.152,-0.584 l -1.176,-2.936 -1.208,2.704 c -0.264,0.5839994 -0.328,0.7680001 -0.328,0.888 0,0.1519998 0.112,0.232 0.368,0.248 0.032,0 0.12,0.008 0.232,0.016 l 0,0.152 -2.128,0 0,-0.152 c 0.392,-0.016 0.504,-0.1280007 0.848,-0.84 l 1.968,-4.392 0.12,0 1.776,4.488 c 0.264,0.6319994 0.352,0.72 0.736,0.744 l 0,0.152" /><path
       inkscape:connector-curvature="0"
       id="path3287"
       style="font-size:8px;font-variant:normal;font-weight:normal;writing-mode:lr-tb;fill:#231f20;fill-opacity:1;fill-rule:nonzero;stroke:none;font-family:Times;-inkscape-font-specification:Times-Roman"
       d="m 29.58663,169.17585 c 0.792,0.424 1.072,0.76001 1.072,1.304 0,0.656 -0.576,1.136 -1.376,1.136 -0.872,0 -1.52,-0.536 -1.52,-1.264 0,-0.51999 0.152,-0.752 0.992,-1.488 -0.864,-0.65599 -1.04,-0.904 -1.04,-1.448 0,-0.77599 0.632,-1.32 1.536,-1.32 0.96,0 1.576,0.52801 1.576,1.352 0,0.616 -0.272,1.00801 -1.24,1.728 m -0.144,-0.824 c 0.584,-0.416 0.776,-0.704 0.776,-1.152 0,-0.51999 -0.36,-0.88 -0.88,-0.88 -0.608,0 -1.016,0.46401 -1.016,1.16 0,0.512 0.176,0.848 0.64,1.224 l 0.48,-0.352 m -0.088,0.968 c -0.712,0.464 -1,0.832 -1,1.28 0,0.464 0.36,0.792 0.864,0.792 0.544,0 0.888,-0.352 0.888,-0.904 0,-0.456 -0.224,-0.816 -0.68,-1.12 -0.04,-0.024 -0.04,-0.024 -0.072,-0.048" /><path
       inkscape:connector-curvature="0"
       id="path3289"
       style="font-size:8px;font-variant:normal;font-weight:normal;writing-mode:lr-tb;fill:#231f20;fill-opacity:1;fill-rule:nonzero;stroke:none;font-family:Times;-inkscape-font-specification:Times-Roman"
       d="m 32.26663,167.00785 c -0.24,0 -0.44,-0.208 -0.44,-0.456 0,-0.232 0.2,-0.432 0.432,-0.432 0.248,0 0.456,0.2 0.456,0.432 0,0.248 -0.208,0.456 -0.448,0.456" /><path
       inkscape:connector-curvature="0"
       id="path3291"
       style="font-size:8px;font-variant:normal;font-weight:normal;writing-mode:lr-tb;fill:#231f20;fill-opacity:1;fill-rule:nonzero;stroke:none;font-family:Times;-inkscape-font-specification:Times-Roman"
       d="m 35.59463,171.61585 -1.44,-0.728 0,-0.112 c 0.096,0.04 0.184,0.072 0.216,0.088 0.144,0.056 0.28,0.088 0.36,0.088 0.168,0 0.24,-0.12 0.24,-0.376 l 0,-3.624 c 0,-0.264 -0.064,-0.448 -0.192,-0.52 -0.12,-0.072 -0.232,-0.096 -0.568,-0.104 l 0,-0.12 2.208,0 0,0.12 c -0.632,0.008 -0.76,0.088 -0.76,0.472 l 0,4.8 -0.064,0.016" /><path
       inkscape:connector-curvature="0"
       id="path3293"
       style="font-size:8px;font-variant:normal;font-weight:normal;writing-mode:lr-tb;fill:#231f20;fill-opacity:1;fill-rule:nonzero;stroke:none;font-family:Times;-inkscape-font-specification:Times-Roman"
       d="m 39.58663,169.17585 c 0.792,0.424 1.072,0.76001 1.072,1.304 0,0.656 -0.576,1.136 -1.376,1.136 -0.872,0 -1.52,-0.536 -1.52,-1.264 0,-0.51999 0.152,-0.752 0.992,-1.488 -0.864,-0.65599 -1.04,-0.904 -1.04,-1.448 0,-0.77599 0.632,-1.32 1.536,-1.32 0.96,0 1.576,0.52801 1.576,1.352 0,0.616 -0.272,1.00801 -1.24,1.728 m -0.144,-0.824 c 0.584,-0.416 0.776,-0.704 0.776,-1.152 0,-0.51999 -0.36,-0.88 -0.88,-0.88 -0.608,0 -1.016,0.46401 -1.016,1.16 0,0.512 0.176,0.848 0.64,1.224 l 0.48,-0.352 m -0.088,0.968 c -0.712,0.464 -1,0.832 -1,1.28 0,0.464 0.36,0.792 0.864,0.792 0.544,0 0.888,-0.352 0.888,-0.904 0,-0.456 -0.224,-0.816 -0.68,-1.12 -0.04,-0.024 -0.04,-0.024 -0.072,-0.048" /><path
       inkscape:connector-curvature="0"
       id="path3295"
       style="font-size:8px;font-variant:normal;font-weight:normal;writing-mode:lr-tb;fill:#231f20;fill-opacity:1;fill-rule:nonzero;stroke:none;font-family:Times;-inkscape-font-specification:Times-Roman"
       d="m 43.41863,169.39185 c 0.104,0.024 0.168,0.032 0.256,0.032 0.208,0 0.28,-0.128 0.28,-0.512 l 0,-2.024 c 0,-0.432 -0.112,-0.552 -0.56,-0.56 l 0,-0.12 1.776,0 0,0.12 c -0.424,0.016 -0.544,0.104 -0.544,0.416 l 0,2.256 c 0,0.016 0.064,0.096 0.12,0.152 0.2,0.184 0.544,0.32 0.824,0.32 0.352,0 0.528,-0.28 0.528,-0.84 l 0,-1.736 c 0,-0.448 -0.088,-0.536 -0.544,-0.568 l 0,-0.12 1.792,0 0,0.12 c -0.456,0.008 -0.576,0.14401 -0.576,0.64 l 0,2.016 c 0.24,0.344 0.504,0.488 0.872,0.488 0.456,0 0.6,-0.216 0.6,-0.88 l 0,-1.688 c 0,-0.456 -0.064,-0.52 -0.528,-0.576 l 0,-0.12 1.752,0 0,0.12 -0.208,0.016 c -0.24,0.016 -0.344,0.16 -0.344,0.472 l 0,1.648 c 0,0.944 -0.312,1.424 -0.928,1.424 -0.464,0 -0.872,-0.208 -1.304,-0.672 -0.144,0.456 -0.416,0.672 -0.848,0.672 -0.352,0 -0.576,-0.112 -1.24,-0.616 l 0,0.6 -0.056,0.016 c -0.408,-0.152 -0.68,-0.24 -1.12,-0.36 l 0,-0.136" /><path
       inkscape:connector-curvature="0"
       id="path3297"
       style="font-size:8px;font-variant:normal;font-weight:normal;writing-mode:lr-tb;fill:#231f20;fill-opacity:1;fill-rule:nonzero;stroke:none;font-family:Times;-inkscape-font-specification:Times-Roman"
       d="m 55.13863,166.35985 c -0.36,0.024 -0.44,0.10401 -0.72,0.696 l -1.992,4.544 -0.16,0 -1.664,-3.928 c -0.512,-1.16799 -0.608,-1.296 -0.992,-1.312 l 0,-0.152 1.584,0 0,0.152 c -0.384,0 -0.544,0.104 -0.544,0.328 0,0.096 0.024,0.208 0.064,0.312 l 0.368,0.936 2.096,0 0.328,-0.768 c 0.096,-0.216 0.152,-0.424 0.152,-0.536 0,-0.2 -0.136,-0.264 -0.56,-0.272 l 0,-0.152 2.04,0 0,0.152 m -3.92,1.904 0.92,2.2 0.928,-2.2 -1.848,0" /><path
       inkscape:connector-curvature="0"
       id="path3299"
       style="font-size:8px;font-variant:normal;font-weight:normal;writing-mode:lr-tb;fill:#231f20;fill-opacity:1;fill-rule:nonzero;stroke:none;font-family:Times;-inkscape-font-specification:Times-Roman"
       d="m 24.70035,169.29585 -4.032,0 0,-0.528 4.032,0 0,0.528 m 0,-1.6 -4.032,0 0,-0.528 4.032,0 0,0.528" /><path
       inkscape:connector-curvature="0"
       id="path3301"
       style="font-size:8px;font-variant:normal;font-weight:normal;writing-mode:lr-tb;fill:#231f20;fill-opacity:1;fill-rule:nonzero;stroke:none;font-family:Times;-inkscape-font-specification:Times-Roman"
       d="m 93.02045,8.602848 -1.44,-0.728 0,-0.112 c 0.096,0.04 0.184,0.072 0.216,0.088 0.144,0.056 0.28,0.088 0.36,0.088 0.168,0 0.24,-0.1200003 0.24,-0.376 l 0,-3.624 c 0,-0.2639998 -0.064,-0.4480001 -0.192,-0.52 -0.12,-0.072 -0.23201,-0.096 -0.568,-0.104 l 0,-0.12 2.208,0 0,0.12 c -0.632,0.008 -0.76,0.088 -0.76,0.472 l 0,4.8 -0.064,0.016" /><path
       inkscape:connector-curvature="0"
       id="path3303"
       style="font-size:8px;font-variant:normal;font-weight:normal;writing-mode:lr-tb;fill:#231f20;fill-opacity:1;fill-rule:nonzero;stroke:none;font-family:Times;-inkscape-font-specification:Times-Roman"
       d="m 95.69245,3.994848 c -0.24,0 -0.44,-0.2080003 -0.44,-0.456 0,-0.2319998 0.2,-0.432 0.432,-0.432 0.24799,0 0.456,0.2000002 0.456,0.432 0,0.2479997 -0.20801,0.456 -0.448,0.456" /><path
       inkscape:connector-curvature="0"
       id="path3305"
       style="font-size:8px;font-variant:normal;font-weight:normal;writing-mode:lr-tb;fill:#231f20;fill-opacity:1;fill-rule:nonzero;stroke:none;font-family:Times;-inkscape-font-specification:Times-Roman"
       d="m 99.01245,6.162848 c 0.79199,0.4239996 1.072,0.7600005 1.072,1.304 0,0.6559993 -0.57601,1.136 -1.376,1.136 -0.872,0 -1.52,-0.5360008 -1.52,-1.264 0,-0.5199995 0.152,-0.7520008 0.992,-1.488 -0.864,-0.6559994 -1.04,-0.9040006 -1.04,-1.448 0,-0.7759993 0.632,-1.32 1.536,-1.32 0.95999,0 1.576,0.5280008 1.576,1.352 0,0.6159994 -0.27201,1.0080007 -1.24,1.728 m -0.144,-0.824 c 0.58399,-0.4159996 0.776,-0.7040005 0.776,-1.152 0,-0.5199995 -0.36001,-0.88 -0.88,-0.88 -0.608,0 -1.016,0.4640007 -1.016,1.16 0,0.5119995 0.176,0.8480004 0.64,1.224 l 0.48,-0.352 m -0.088,0.968 c -0.712,0.4639995 -1,0.8320004 -1,1.28 0,0.4639995 0.36,0.792 0.864,0.792 0.54399,0 0.888,-0.3520006 0.888,-0.904 0,-0.4559996 -0.22401,-0.8160003 -0.68,-1.12 -0.04,-0.024 -0.04,-0.024 -0.072,-0.048" /><path
       inkscape:connector-curvature="0"
       id="path3307"
       style="font-size:8px;font-variant:normal;font-weight:normal;writing-mode:lr-tb;fill:#231f20;fill-opacity:1;fill-rule:nonzero;stroke:none;font-family:Times;-inkscape-font-specification:Times-Roman"
       d="m 103.02045,8.602848 -1.44,-0.728 0,-0.112 c 0.096,0.04 0.184,0.072 0.216,0.088 0.144,0.056 0.28,0.088 0.36,0.088 0.168,0 0.24,-0.1200003 0.24,-0.376 l 0,-3.624 c 0,-0.2639998 -0.064,-0.4480001 -0.192,-0.52 -0.12,-0.072 -0.23201,-0.096 -0.568,-0.104 l 0,-0.12 2.208,0 0,0.12 c -0.632,0.008 -0.76,0.088 -0.76,0.472 l 0,4.8 -0.064,0.016" /><path
       inkscape:connector-curvature="0"
       id="path3309"
       style="font-size:8px;font-variant:normal;font-weight:normal;writing-mode:lr-tb;fill:#231f20;fill-opacity:1;fill-rule:nonzero;stroke:none;font-family:Times;-inkscape-font-specification:Times-Roman"
       d="m 112.26845,8.490848 -1.64,0 0,-0.152 c 0.43999,-0.024 0.584,-0.1120002 0.584,-0.336 0,-0.1279999 -0.056,-0.3440003 -0.152,-0.584 l -1.176,-2.936 -1.208,2.704 c -0.264,0.5839994 -0.328,0.7680001 -0.328,0.888 0,0.1519998 0.112,0.232 0.368,0.248 0.032,0 0.12,0.008 0.232,0.016 l 0,0.152 -2.128,0 0,-0.152 c 0.39199,-0.016 0.504,-0.1280007 0.848,-0.84 l 1.968,-4.392 0.12,0 1.776,4.488 c 0.26399,0.6319993 0.352,0.72 0.736,0.744 l 0,0.152" /><path
       inkscape:connector-curvature="0"
       id="path3311"
       style="font-size:8px;font-variant:normal;font-weight:normal;writing-mode:lr-tb;fill:#231f20;fill-opacity:1;fill-rule:nonzero;stroke:none;font-family:Times;-inkscape-font-specification:Times-Roman"
       d="m 168.51109,8.602848 -1.44,-0.728 0,-0.112 c 0.096,0.04 0.184,0.072 0.216,0.088 0.144,0.056 0.28,0.088 0.36,0.088 0.168,0 0.24,-0.1200003 0.24,-0.376 l 0,-3.624 c 0,-0.2639998 -0.064,-0.4480001 -0.192,-0.52 -0.12,-0.072 -0.232,-0.096 -0.568,-0.104 l 0,-0.12 2.208,0 0,0.12 c -0.632,0.008 -0.76,0.088 -0.76,0.472 l 0,4.8 -0.064,0.016" /><path
       inkscape:connector-curvature="0"
       id="path3313"
       style="font-size:8px;font-variant:normal;font-weight:normal;writing-mode:lr-tb;fill:#231f20;fill-opacity:1;fill-rule:nonzero;stroke:none;font-family:Times;-inkscape-font-specification:Times-Roman"
       d="m 171.40709,5.834848 c 0.472,0 0.656,-0.016 0.848,-0.088 0.496,-0.1759998 0.808,-0.6320006 0.808,-1.184 0,-0.6719994 -0.456,-1.192 -1.048,-1.192 -0.216,0 -0.376,0.056 -0.672,0.248 -0.24,0.1439998 -0.376,0.2 -0.512,0.2 -0.184,0 -0.304,-0.1120002 -0.304,-0.28 0,-0.2799997 0.344,-0.456 0.904,-0.456 0.616,0 1.248,0.2080003 1.624,0.536 0.376,0.3279997 0.584,0.7920005 0.584,1.328 0,0.4079996 -0.128,0.7840002 -0.36,1.032 -0.16,0.1759998 -0.312,0.2720001 -0.664,0.424 0.552,0.3759996 0.752,0.6720004 0.752,1.104 0,0.6479993 -0.512,1.096 -1.248,1.096 -0.4,0 -0.752,-0.1360003 -1.04,-0.392 -0.24,-0.2159998 -0.36,-0.4240005 -0.536,-0.904 l 0.12,-0.032 c 0.328,0.5839994 0.688,0.848 1.192,0.848 0.52,0 0.88,-0.3520005 0.88,-0.856 0,-0.2879997 -0.12,-0.5760002 -0.32,-0.776 -0.24,-0.2399998 -0.464,-0.3600002 -1.008,-0.552 l 0,-0.104" /><path
       inkscape:connector-curvature="0"
       id="path3315"
       style="font-size:8px;font-variant:normal;font-weight:normal;writing-mode:lr-tb;fill:#231f20;fill-opacity:1;fill-rule:nonzero;stroke:none;font-family:Times;-inkscape-font-specification:Times-Roman"
       d="m 175.18309,3.994848 c -0.24,0 -0.44,-0.2080003 -0.44,-0.456 0,-0.2319998 0.2,-0.432 0.432,-0.432 0.248,0 0.456,0.2000002 0.456,0.432 0,0.2479997 -0.208,0.456 -0.448,0.456" /><path
       inkscape:connector-curvature="0"
       id="path3317"
       style="font-size:8px;font-variant:normal;font-weight:normal;writing-mode:lr-tb;fill:#231f20;fill-opacity:1;fill-rule:nonzero;stroke:none;font-family:Times;-inkscape-font-specification:Times-Roman"
       d="m 176.65509,3.018848 c 0.896,0.1039999 1.336,0.2560004 1.88,0.648 0.832,0.6079994 1.32,1.6000011 1.32,2.68 0,1.3199987 -0.736,2.256 -1.768,2.256 -0.952,0 -1.664,-0.8080011 -1.664,-1.888 0,-0.975999 0.576,-1.624 1.44,-1.624 0.44,0 0.776,0.1280003 1.2,0.456 -0.328,-1.3039987 -1.216,-2.1600002 -2.432,-2.368 l 0.024,-0.16 m 2.424,3.016 c 0,-0.1599999 -0.032,-0.2320001 -0.12,-0.304 -0.224,-0.1919998 -0.52,-0.296 -0.808,-0.296 -0.608,0 -0.992,0.6000009 -0.992,1.552 0,0.4559995 0.128,0.9360002 0.296,1.144 0.136,0.1599998 0.336,0.248 0.568,0.248 0.696,0 1.056,-0.6880014 1.056,-2.032 l 0,-0.312" /><path
       inkscape:connector-curvature="0"
       id="path3319"
       style="font-size:8px;font-variant:normal;font-weight:normal;writing-mode:lr-tb;fill:#231f20;fill-opacity:1;fill-rule:nonzero;stroke:none;font-family:Times;-inkscape-font-specification:Times-Roman"
       d="m 181.63109,7.858848 1.568,0 c 0.128,0 0.16,0.016 0.184,0.072 l 0.304,0.712 -0.072,0.056 c -0.12,-0.1679999 -0.2,-0.208 -0.368,-0.208 l -1.672,0 -0.872,-1.896 c -0.008,-0.016 -0.008,-0.024 -0.008,-0.04 0,-0.04 0.032,-0.064 0.096,-0.064 0.256,0 0.576,-0.056 0.904,-0.16 0.92,-0.2959997 1.344,-0.7920008 1.344,-1.584 0,-0.7679993 -0.488,-1.368 -1.112,-1.368 -0.16,0 -0.296,0.056 -0.536,0.232 -0.256,0.1839998 -0.44,0.264 -0.608,0.264 -0.232,0 -0.344,-0.096 -0.344,-0.296 0,-0.3039997 0.376,-0.496 0.976,-0.496 0.672,0 1.248,0.2160004 1.648,0.624 0.368,0.3599996 0.536,0.8160006 0.536,1.424 0,0.5759994 -0.152,0.9440004 -0.552,1.344 -0.352,0.3519996 -0.808,0.5360001 -1.752,0.704 l 0.336,0.68" /><path
       inkscape:connector-curvature="0"
       id="path3321"
       style="font-size:8px;font-variant:normal;font-weight:normal;writing-mode:lr-tb;fill:#231f20;fill-opacity:1;fill-rule:nonzero;stroke:none;font-family:Times;-inkscape-font-specification:Times-Roman"
       d="m 191.75909,8.490848 -1.64,0 0,-0.152 c 0.44,-0.024 0.584,-0.1120002 0.584,-0.336 0,-0.1279999 -0.056,-0.3440003 -0.152,-0.584 l -1.176,-2.936 -1.208,2.704 c -0.264,0.5839994 -0.328,0.7680001 -0.328,0.888 0,0.1519998 0.112,0.232 0.368,0.248 0.032,0 0.12,0.008 0.232,0.016 l 0,0.152 -2.128,0 0,-0.152 c 0.392,-0.016 0.504,-0.1280007 0.848,-0.84 l 1.968,-4.392 0.12,0 1.776,4.488 c 0.264,0.6319993 0.352,0.72 0.736,0.744 l 0,0.152" /><path
       inkscape:connector-curvature="0"
       id="path3323"
       style="font-size:8px;font-variant:normal;font-weight:normal;writing-mode:lr-tb;fill:#231f20;fill-opacity:1;fill-rule:nonzero;stroke:none;font-family:Times;-inkscape-font-specification:Times-Roman"
       d="m 62.12525,8.602848 c -0.44,0 -0.776,-0.1360003 -1.072,-0.416 -0.464,-0.4479996 -0.768,-1.368001 -0.768,-2.304 0,-0.8719992 0.264,-1.8080005 0.64,-2.256 0.296,-0.3519997 0.704,-0.544 1.168,-0.544 0.408,0 0.752,0.1360003 1.04,0.416 0.464,0.4399995 0.768,1.3680009 0.768,2.336 0,1.6399983 -0.728,2.768 -1.776,2.768 m -0.024,-0.208 c 0.672,0 1.032,-0.9040017 1.032,-2.576 0,-1.6719984 -0.352,-2.528 -1.04,-2.528 -0.688,0 -1.04,0.8560016 -1.04,2.52 0,1.6959983 0.36,2.584 1.048,2.584" /><path
       inkscape:connector-curvature="0"
       id="path98"
       style="fill:none;stroke:#231f20;stroke-width:0.5;stroke-linecap:butt;stroke-linejoin:miter;stroke-miterlimit:4;stroke-opacity:1;stroke-dasharray:none"
       d="m 253.577,12.3012 -191.1594,0 0,165.7628" /><path
       inkscape:connector-curvature="0"
       id="path100"
       style="fill:#231f20;fill-opacity:1;fill-rule:nonzero;stroke:none"
       d="m 61.6488,179.836 c -0.375,-1.241 -0.7195,-2.047 -1.1191,-3.041 l 3.784,0 c -0.1696,0.355 -0.7449,1.8 -1.1196,3.041 -0.4007,1.327 -0.675,2.53 -0.7726,3.31 -0.0977,-0.78 -0.3723,-1.983 -0.7727,-3.31" /><path
       inkscape:connector-curvature="0"
       id="path102"
       style="fill:#231f20;fill-opacity:1;fill-rule:nonzero;stroke:none"
       d="m 255.349,13.0691 c -1.24,0.375 -2.046,0.72 -3.041,1.12 l 0,-3.784 c 0.356,0.1687 1.801,0.7437 3.041,1.1179 1.327,0.402 2.53,0.6758 3.311,0.7739 -0.781,0.098 -1.984,0.3722 -3.311,0.7722" /><path
       inkscape:connector-curvature="0"
       id="path104"
       style="fill:none;stroke:#231f20;stroke-width:0.5;stroke-linecap:butt;stroke-linejoin:miter;stroke-miterlimit:4;stroke-opacity:1;stroke-dasharray:2.5, 2;stroke-dashoffset:0"
       d="m 101.297,12.3012 0,116.6908" /><path
       inkscape:connector-curvature="0"
       id="path106"
       style="fill:none;stroke:#231f20;stroke-width:0.5;stroke-linecap:butt;stroke-linejoin:miter;stroke-miterlimit:4;stroke-opacity:1;stroke-dasharray:2.5, 2;stroke-dashoffset:0"
       d="m 178.814,51.7078 0,-39.3019" /><path
       inkscape:connector-curvature="0"
       id="path108"
       style="fill:none;stroke:#231f20;stroke-width:0.5;stroke-linecap:butt;stroke-linejoin:miter;stroke-miterlimit:4;stroke-opacity:1;stroke-dasharray:2.5, 2;stroke-dashoffset:0"
       d="m 178.814,51.1801 -116.3964,0" /><path
       inkscape:connector-curvature="0"
       id="path110"
       style="fill:none;stroke:#231f20;stroke-width:0.5;stroke-linecap:butt;stroke-linejoin:miter;stroke-miterlimit:4;stroke-opacity:1;stroke-dasharray:2.5, 2;stroke-dashoffset:0"
       d="m 101.297,128.889 -38.8794,0" /><path
       inkscape:connector-curvature="0"
       id="path112"
       style="fill:none;stroke:#231f20;stroke-width:0.96;stroke-linecap:butt;stroke-linejoin:miter;stroke-miterlimit:4;stroke-opacity:1;stroke-dasharray:none"
       d="M 62.5473,168.039 218.286,12.3012" /><path
       inkscape:connector-curvature="0"
       id="path114"
       style="fill:none;stroke:#231f20;stroke-width:0.75;stroke-linecap:butt;stroke-linejoin:miter;stroke-miterlimit:4;stroke-opacity:1;stroke-dasharray:none"
       d="m 215.646,9.52188 5.155,5.15312" /><path
       inkscape:connector-curvature="0"
       id="path116"
       style="fill:none;stroke:#231f20;stroke-width:0.75;stroke-linecap:butt;stroke-linejoin:miter;stroke-miterlimit:4;stroke-opacity:1;stroke-dasharray:none"
       d="m 58.7027,167.909 7.2891,0" /><path
       inkscape:connector-curvature="0"
       id="path118"
       style="fill:none;stroke:#231f20;stroke-width:0.5;stroke-linecap:butt;stroke-linejoin:miter;stroke-miterlimit:4;stroke-opacity:1;stroke-dasharray:none"
       d="m 0,167.827 16.2578,0" /><path
       inkscape:connector-curvature="0"
       id="path120"
       style="fill:#231f20;fill-opacity:1;fill-rule:nonzero;stroke:none"
       d="m 102.964,128.888 c 0,-0.92 -0.746,-1.666 -1.668,-1.666 -0.92,0 -1.6655,0.746 -1.6655,1.666 0,0.921 0.7455,1.668 1.6655,1.668 0.922,0 1.668,-0.747 1.668,-1.668" /><path
       inkscape:connector-curvature="0"
       id="path122"
       style="fill:#231f20;fill-opacity:1;fill-rule:nonzero;stroke:none"
       d="m 180.577,51.2738 c 0,-0.9187 -0.746,-1.666 -1.668,-1.666 -0.92,0 -1.666,0.7473 -1.666,1.666 0,0.9211 0.746,1.6684 1.666,1.6684 0.922,0 1.668,-0.7473 1.668,-1.6684" /><path
       inkscape:connector-curvature="0"
       id="path3326"
       style="font-size:8px;font-style:italic;font-variant:normal;writing-mode:lr-tb;fill:#231f20;fill-opacity:1;fill-rule:nonzero;stroke:none;font-family:Times;-inkscape-font-specification:Times-Italic"
       d="m 6.69267,176.062 -1.488,0 0,-0.128 c 0.3599996,-0.04 0.504,-0.12 0.504,-0.272 0,-0.152 -0.1520003,-0.496 -0.416,-0.952 l -1.648,-2.848 -0.528,3.544 c -0.008,0.04 -0.008,0.072 -0.008,0.12 0,0.272 0.1120005,0.352 0.616,0.408 l 0,0.128 -1.928,0 0,-0.128 c 0.4479996,-0.056 0.4640002,-0.08 0.632,-1.08 l 0.68,-4.16 0.152,0 2.984,4.92 c 0.1359999,0.216 0.2640002,0.312 0.448,0.32 l 0,0.128" /><path
       inkscape:connector-curvature="0"
       id="path3329"
       style="font-size:6px;font-style:italic;font-variant:normal;writing-mode:lr-tb;fill:#231f20;fill-opacity:1;fill-rule:nonzero;stroke:none;font-family:Times;-inkscape-font-specification:Times-Italic"
       d="m 9.98817,171.628 0.222,1.194 -0.126,0 c -0.048,-0.096 -0.1080001,-0.132 -0.228,-0.132 -0.048,0 -0.1200001,0.012 -0.246,0.042 -0.2699997,0.066 -0.5100002,0.102 -0.702,0.102 -1.2779987,0 -2.436,-1.206 -2.436,-2.538 0,-0.918 0.6480009,-1.566 1.566,-1.566 0.6179994,0 1.0980005,0.264 1.638,0.894 l -0.102,0.084 C 9.0341705,169.18 8.6861695,169 8.19417,169 c -0.6659993,0 -1.05,0.456 -1.05,1.23 0,0.714 0.2880005,1.44 0.756,1.926 0.2879997,0.294 0.6660004,0.462 1.062,0.462 0.5519994,0 0.8580001,-0.324 0.918,-0.972 l 0.108,-0.018" /><path
       inkscape:connector-curvature="0"
       id="path3331"
       style="font-size:6px;font-style:italic;font-variant:normal;writing-mode:lr-tb;fill:#231f20;fill-opacity:1;fill-rule:nonzero;stroke:none;font-family:Times;-inkscape-font-specification:Times-Italic"
       d="m 13.99017,171.628 0.222,1.194 -0.126,0 c -0.048,-0.096 -0.108,-0.132 -0.228,-0.132 -0.048,0 -0.12,0.012 -0.246,0.042 -0.27,0.066 -0.51,0.102 -0.702,0.102 -1.277999,0 -2.436,-1.206 -2.436,-2.538 0,-0.918 0.648001,-1.566 1.566,-1.566 0.617999,0 1.098,0.264 1.638,0.894 l -0.102,0.084 c -0.54,-0.528 -0.888001,-0.708 -1.38,-0.708 -0.665999,0 -1.05,0.456 -1.05,1.23 0,0.714 0.288,1.44 0.756,1.926 0.288,0.294 0.666,0.462 1.062,0.462 0.551999,0 0.858,-0.324 0.918,-0.972 l 0.108,-0.018" /><path
       inkscape:connector-curvature="0"
       id="path3334"
       style="font-size:8px;font-style:italic;font-variant:normal;writing-mode:lr-tb;fill:#231f20;fill-opacity:1;fill-rule:nonzero;stroke:none;font-family:Times;-inkscape-font-specification:Times-Italic"
       d="m 9.726623,161.366 c -0.3519996,0.024 -0.5120002,0.16 -0.664,0.576 l -0.744,1.96 c 0.6159994,0.136 0.8800003,0.248 1.168,0.504 0.2639997,0.232 0.408,0.544 0.408,0.904 0,0.744 -0.5920011,1.152 -1.664,1.152 l -1.984,0 0,-0.128 c 0.3359997,-0.048 0.3760001,-0.056 0.456,-0.112 0.064,-0.04 0.112,-0.136 0.112,-0.224 0,-0.096 -0.04,-0.288 -0.096,-0.504 l -0.984,-3.536 c -0.1439999,-0.472 -0.2000004,-0.52 -0.648,-0.592 l 0,-0.128 1.952,0 0,0.128 c -0.4879995,0.064 -0.544,0.104 -0.544,0.368 0,0.08 0.024,0.184 0.096,0.464 l 0.448,1.672 0.52,-0.04 0.984,-2.592 1.184,0 0,0.128 m -2.072,4.632 c 0.048,0.168 0.1520003,0.224 0.408,0.224 0.6639993,0 0.992,-0.304 0.992,-0.896 0,-0.792 -0.512001,-1.2 -1.512,-1.2 -0.1279999,0 -0.2160002,0.008 -0.408,0.04 l 0.52,1.832" /><path
       inkscape:connector-curvature="0"
       id="path3337"
       style="font-size:6px;font-style:italic;font-variant:normal;writing-mode:lr-tb;fill:#231f20;fill-opacity:1;fill-rule:nonzero;stroke:none;font-family:Times;-inkscape-font-specification:Times-Italic"
       d="m 13.990123,162.028 0.222,1.194 -0.126,0 c -0.048,-0.096 -0.108,-0.132 -0.228,-0.132 -0.048,0 -0.12,0.012 -0.246,0.042 -0.27,0.066 -0.51,0.102 -0.702,0.102 -1.277999,0 -2.436,-1.206 -2.436,-2.538 0,-0.918 0.648001,-1.566 1.566,-1.566 0.617999,0 1.098,0.264 1.638,0.894 l -0.102,0.084 c -0.539999,-0.528 -0.888,-0.708 -1.38,-0.708 -0.665999,0 -1.05,0.456 -1.05,1.23 0,0.714 0.288001,1.44 0.756,1.926 0.288,0.294 0.666,0.462 1.062,0.462 0.551999,0 0.858,-0.324 0.918,-0.972 l 0.108,-0.018" /></g></svg>