<?xml version="1.0" encoding="UTF-8" standalone="no"?>
<!-- Created with Inkscape (http://www.inkscape.org/) -->

<svg
   xmlns:dc="http://purl.org/dc/elements/1.1/"
   xmlns:cc="http://creativecommons.org/ns#"
   xmlns:rdf="http://www.w3.org/1999/02/22-rdf-syntax-ns#"
   xmlns:svg="http://www.w3.org/2000/svg"
   xmlns="http://www.w3.org/2000/svg"
   xmlns:sodipodi="http://sodipodi.sourceforge.net/DTD/sodipodi-0.dtd"
   xmlns:inkscape="http://www.inkscape.org/namespaces/inkscape"
   id="svg2"
   version="1.1"
   inkscape:version="0.48.4 r9939"
   width="354.33069"
   height="283.46457"
   xml:space="preserve"
   sodipodi:docname="S3-EE-03-IN029.eps"><metadata
     id="metadata8"><rdf:RDF><cc:Work
         rdf:about=""><dc:format>image/svg+xml</dc:format><dc:type
           rdf:resource="http://purl.org/dc/dcmitype/StillImage" /><dc:title></dc:title></cc:Work></rdf:RDF></metadata><defs
     id="defs6" /><sodipodi:namedview
     pagecolor="#ffffff"
     bordercolor="#666666"
     borderopacity="1"
     objecttolerance="10"
     gridtolerance="10"
     guidetolerance="10"
     inkscape:pageopacity="0"
     inkscape:pageshadow="2"
     inkscape:window-width="1366"
     inkscape:window-height="744"
     id="namedview4"
     showgrid="false"
     inkscape:zoom="2.5460581"
     inkscape:cx="171.56029"
     inkscape:cy="146.35101"
     inkscape:window-x="0"
     inkscape:window-y="24"
     inkscape:window-maximized="1"
     inkscape:current-layer="g10"
     units="cm" /><g
     id="g10"
     inkscape:groupmode="layer"
     inkscape:label="ink_ext_XXXXXX"
     transform="matrix(1.25,0,0,-1.25,0,283.46471)"><path
       inkscape:connector-curvature="0"
       id="path3481"
       style="font-size:8px;font-style:italic;font-variant:normal;writing-mode:lr-tb;fill:#231f20;fill-opacity:1;fill-rule:nonzero;stroke:none;font-family:Times;-inkscape-font-specification:Times-Italic"
       d="m 172.13158,125.76877 -1.488,0 0,-0.128 c 0.36,-0.04 0.504,-0.12 0.504,-0.272 0,-0.152 -0.152,-0.496 -0.416,-0.952 l -1.648,-2.84799 -0.528,3.54399 c -0.008,0.04 -0.008,0.072 -0.008,0.12 0,0.272 0.112,0.352 0.616,0.408 l 0,0.128 -1.928,0 0,-0.128 c 0.448,-0.056 0.464,-0.08 0.632,-1.08 l 0.68,-4.15999 0.152,0 2.984,4.91999 c 0.136,0.216 0.264,0.312 0.448,0.32 l 0,0.128" /><path
       inkscape:connector-curvature="0"
       id="path3484"
       style="font-size:6px;font-style:italic;font-variant:normal;writing-mode:lr-tb;fill:#231f20;fill-opacity:1;fill-rule:nonzero;stroke:none;font-family:Times;-inkscape-font-specification:Times-Italic"
       d="m 175.42747,121.33478 0.222,1.194 -0.126,0 c -0.048,-0.096 -0.108,-0.132 -0.228,-0.132 -0.048,0 -0.12,0.012 -0.246,0.042 -0.27,0.066 -0.51,0.102 -0.702,0.102 -1.278,0 -2.436,-1.20601 -2.436,-2.538 0,-0.918 0.648,-1.566 1.566,-1.566 0.618,0 1.098,0.264 1.638,0.894 l -0.102,0.084 c -0.54,-0.528 -0.888,-0.708 -1.38,-0.708 -0.666,0 -1.05,0.456 -1.05,1.23 0,0.71399 0.288,1.44 0.756,1.926 0.288,0.294 0.666,0.462 1.062,0.462 0.552,0 0.858,-0.324 0.918,-0.972 l 0.108,-0.018" /><path
       inkscape:connector-curvature="0"
       id="path3486"
       style="font-size:6px;font-style:italic;font-variant:normal;writing-mode:lr-tb;fill:#231f20;fill-opacity:1;fill-rule:nonzero;stroke:none;font-family:Times;-inkscape-font-specification:Times-Italic"
       d="m 179.32147,122.46278 -2.982,0 0,-0.096 c 0.372,-0.036 0.462,-0.084 0.462,-0.246 0,-0.066 -0.036,-0.276 -0.066,-0.384 l -0.738,-2.652 c -0.102,-0.342 -0.15,-0.384 -0.486,-0.444 l 0,-0.096 3.042,0 0.372,0.972 -0.096,0.048 c -0.282,-0.384 -0.438,-0.54 -0.696,-0.66 -0.222,-0.102 -0.63,-0.162 -1.08,-0.162 -0.336,0 -0.48,0.06 -0.48,0.204 0,0.066 0.066,0.348 0.216,0.876 0.078,0.264 0.132,0.462 0.192,0.69 0.21,-0.012 0.396,-0.018 0.468,-0.018 0.234,0.006 0.402,-0.03 0.468,-0.09 0.03,-0.03 0.042,-0.084 0.042,-0.186 0,-0.102 -0.012,-0.18 -0.042,-0.312 l 0.12,-0.03 0.408,1.392 -0.108,0.024 c -0.228,-0.51 -0.282,-0.546 -0.828,-0.57 -0.072,0 -0.264,-0.006 -0.474,-0.012 l 0.396,1.398 c 0.036,0.132 0.102,0.156 0.438,0.156 0.942,0 1.152,-0.078 1.152,-0.438 0,-0.078 -0.006,-0.168 -0.012,-0.27 l 0.126,-0.012 0.186,0.918" /><path
       inkscape:connector-curvature="0"
       id="path3489"
       style="font-size:8px;font-variant:normal;font-weight:normal;writing-mode:lr-tb;fill:#231f20;fill-opacity:1;fill-rule:nonzero;stroke:none;font-family:Times;-inkscape-font-specification:Times-Roman"
       d="m 185.45583,123.63277 -4.032,0 0,-0.52799 4.032,0 0,0.52799 m 0,-1.59999 -4.032,0 0,-0.528 4.032,0 0,0.528" /><path
       inkscape:connector-curvature="0"
       id="path3491"
       style="font-size:8px;font-variant:normal;font-weight:normal;writing-mode:lr-tb;fill:#231f20;fill-opacity:1;fill-rule:nonzero;stroke:none;font-family:Times;-inkscape-font-specification:Times-Roman"
       d="m 189.14383,125.20877 1.568,0 c 0.128,0 0.16,0.016 0.184,0.072 l 0.304,0.712 -0.072,0.056 c -0.12,-0.168 -0.2,-0.208 -0.368,-0.208 l -1.672,0 -0.872,-1.896 c -0.008,-0.016 -0.008,-0.024 -0.008,-0.04 0,-0.04 0.032,-0.064 0.096,-0.064 0.256,0 0.576,-0.056 0.904,-0.16 0.92,-0.296 1.344,-0.792 1.344,-1.58399 0,-0.768 -0.488,-1.368 -1.112,-1.368 -0.16,0 -0.296,0.056 -0.536,0.232 -0.256,0.184 -0.44,0.264 -0.608,0.264 -0.232,0 -0.344,-0.096 -0.344,-0.296 0,-0.304 0.376,-0.496 0.976,-0.496 0.672,0 1.248,0.216 1.648,0.624 0.368,0.36 0.536,0.816 0.536,1.424 0,0.576 -0.152,0.94399 -0.552,1.34399 -0.352,0.352 -0.808,0.536 -1.752,0.704 l 0.336,0.68" /><path
       inkscape:connector-curvature="0"
       id="path3493"
       style="font-size:8px;font-variant:normal;font-weight:normal;writing-mode:lr-tb;fill:#231f20;fill-opacity:1;fill-rule:nonzero;stroke:none;font-family:Times;-inkscape-font-specification:Times-Roman"
       d="m 197.27183,125.84077 -1.64,0 0,-0.152 c 0.44,-0.024 0.584,-0.112 0.584,-0.336 0,-0.128 -0.056,-0.344 -0.152,-0.584 l -1.176,-2.93599 -1.208,2.70399 c -0.264,0.584 -0.328,0.768 -0.328,0.888 0,0.152 0.112,0.232 0.368,0.248 0.032,0 0.12,0.008 0.232,0.016 l 0,0.152 -2.128,0 0,-0.152 c 0.392,-0.016 0.504,-0.128 0.848,-0.84 l 1.968,-4.39199 0.12,0 1.776,4.48799 c 0.264,0.632 0.352,0.72 0.736,0.744 l 0,0.152" /><path
       inkscape:connector-curvature="0"
       id="path3496"
       style="font-size:8px;font-style:italic;font-variant:normal;writing-mode:lr-tb;fill:#231f20;fill-opacity:1;fill-rule:nonzero;stroke:none;font-family:Times;-inkscape-font-specification:Times-Italic"
       d="m 224.02063,210.59297 -1.488,0 0,-0.128 c 0.36,-0.04 0.504,-0.12 0.504,-0.272 0,-0.152 -0.152,-0.496 -0.416,-0.952 l -1.648,-2.848 -0.528,3.544 c -0.008,0.04 -0.008,0.072 -0.008,0.12 0,0.272 0.112,0.352 0.616,0.408 l 0,0.128 -1.928,0 0,-0.128 c 0.448,-0.056 0.464,-0.08 0.632,-1.08 l 0.68,-4.16 0.152,0 2.984,4.92 c 0.136,0.216 0.264,0.312 0.448,0.32 l 0,0.128" /><path
       inkscape:connector-curvature="0"
       id="path3499"
       style="font-size:6px;font-style:italic;font-variant:normal;writing-mode:lr-tb;fill:#231f20;fill-opacity:1;fill-rule:nonzero;stroke:none;font-family:Times;-inkscape-font-specification:Times-Italic"
       d="m 227.31652,206.15897 0.222,1.194 -0.126,0 c -0.048,-0.096 -0.108,-0.132 -0.228,-0.132 -0.048,0 -0.12,0.012 -0.246,0.042 -0.27,0.066 -0.51,0.102 -0.702,0.102 -1.278,0 -2.436,-1.206 -2.436,-2.538 0,-0.918 0.648,-1.566 1.566,-1.566 0.618,0 1.098,0.264 1.638,0.894 l -0.102,0.084 c -0.54,-0.528 -0.888,-0.708 -1.38,-0.708 -0.666,0 -1.05,0.456 -1.05,1.23 0,0.714 0.288,1.44 0.756,1.926 0.288,0.294 0.666,0.462 1.062,0.462 0.552,0 0.858,-0.324 0.918,-0.972 l 0.108,-0.018" /><path
       inkscape:connector-curvature="0"
       id="path3501"
       style="font-size:6px;font-style:italic;font-variant:normal;writing-mode:lr-tb;fill:#231f20;fill-opacity:1;fill-rule:nonzero;stroke:none;font-family:Times;-inkscape-font-specification:Times-Italic"
       d="m 231.31852,206.15897 0.222,1.194 -0.126,0 c -0.048,-0.096 -0.108,-0.132 -0.228,-0.132 -0.048,0 -0.12,0.012 -0.246,0.042 -0.27,0.066 -0.51,0.102 -0.702,0.102 -1.278,0 -2.436,-1.206 -2.436,-2.538 0,-0.918 0.648,-1.566 1.566,-1.566 0.618,0 1.098,0.264 1.638,0.894 l -0.102,0.084 c -0.54,-0.528 -0.888,-0.708 -1.38,-0.708 -0.666,0 -1.05,0.456 -1.05,1.23 0,0.714 0.288,1.44 0.756,1.926 0.288,0.294 0.666,0.462 1.062,0.462 0.552,0 0.858,-0.324 0.918,-0.972 l 0.108,-0.018" /><path
       inkscape:connector-curvature="0"
       id="path3504"
       style="font-size:8px;font-variant:normal;font-weight:normal;writing-mode:lr-tb;fill:#231f20;fill-opacity:1;fill-rule:nonzero;stroke:none;font-family:Times;-inkscape-font-specification:Times-Roman"
       d="m 237.68083,208.45697 -4.032,0 0,-0.528 4.032,0 0,0.528 m 0,-1.6 -4.032,0 0,-0.528 4.032,0 0,0.528" /><path
       inkscape:connector-curvature="0"
       id="path3506"
       style="font-size:8px;font-variant:normal;font-weight:normal;writing-mode:lr-tb;fill:#231f20;fill-opacity:1;fill-rule:nonzero;stroke:none;font-family:Times;-inkscape-font-specification:Times-Roman"
       d="m 242.24882,210.77697 -1.44,-0.728 0,-0.112 c 0.096,0.04 0.184,0.072 0.216,0.088 0.144,0.056 0.28,0.088 0.36,0.088 0.168,0 0.24,-0.12 0.24,-0.376 l 0,-3.624 c 0,-0.264 -0.064,-0.448 -0.192,-0.52 -0.12,-0.072 -0.232,-0.096 -0.568,-0.104 l 0,-0.12 2.208,0 0,0.12 c -0.632,0.008 -0.76,0.088 -0.76,0.472 l 0,4.8 -0.064,0.016" /><path
       inkscape:connector-curvature="0"
       id="path3508"
       style="font-size:8px;font-variant:normal;font-weight:normal;writing-mode:lr-tb;fill:#231f20;fill-opacity:1;fill-rule:nonzero;stroke:none;font-family:Times;-inkscape-font-specification:Times-Roman"
       d="m 245.36882,210.03297 1.568,0 c 0.128,0 0.16,0.016 0.184,0.072 l 0.304,0.712 -0.072,0.056 c -0.12,-0.168 -0.2,-0.208 -0.368,-0.208 l -1.672,0 -0.872,-1.896 c -0.008,-0.016 -0.008,-0.024 -0.008,-0.04 0,-0.04 0.032,-0.064 0.096,-0.064 0.256,0 0.576,-0.056 0.904,-0.16 0.92,-0.296 1.344,-0.792 1.344,-1.584 0,-0.768 -0.488,-1.368 -1.112,-1.368 -0.16,0 -0.296,0.056 -0.536,0.232 -0.256,0.184 -0.44,0.264 -0.608,0.264 -0.232,0 -0.344,-0.096 -0.344,-0.296 0,-0.304 0.376,-0.496 0.976,-0.496 0.672,0 1.248,0.216 1.648,0.624 0.368,0.36 0.536,0.816 0.536,1.424 0,0.576 -0.152,0.944 -0.552,1.344 -0.352,0.352 -0.808,0.536 -1.752,0.704 l 0.336,0.68" /><path
       inkscape:connector-curvature="0"
       id="path3510"
       style="font-size:8px;font-variant:normal;font-weight:normal;writing-mode:lr-tb;fill:#231f20;fill-opacity:1;fill-rule:nonzero;stroke:none;font-family:Times;-inkscape-font-specification:Times-Roman"
       d="m 253.49682,210.66497 -1.64,0 0,-0.152 c 0.44,-0.024 0.584,-0.112 0.584,-0.336 0,-0.128 -0.056,-0.344 -0.152,-0.584 l -1.176,-2.936 -1.208,2.704 c -0.264,0.584 -0.328,0.768 -0.328,0.888 0,0.152 0.112,0.232 0.368,0.248 0.032,0 0.12,0.008 0.232,0.016 l 0,0.152 -2.128,0 0,-0.152 c 0.392,-0.016 0.504,-0.128 0.848,-0.84 l 1.968,-4.392 0.12,0 1.776,4.488 c 0.264,0.632 0.352,0.72 0.736,0.744 l 0,0.152" /><path
       inkscape:connector-curvature="0"
       id="path3513"
       style="font-size:8px;font-style:italic;font-variant:normal;writing-mode:lr-tb;fill:#231f20;fill-opacity:1;fill-rule:nonzero;stroke:none;font-family:Times;-inkscape-font-specification:Times-Italic"
       d="m 194.65957,71.596184 -1.488,0 0,-0.128 c 0.36,-0.04 0.504,-0.12 0.504,-0.272 0,-0.152 -0.152,-0.496001 -0.416,-0.952 l -1.648,-2.848 -0.528,3.544 c -0.008,0.04 -0.008,0.072 -0.008,0.12 0,0.271999 0.112,0.352 0.616,0.408 l 0,0.128 -1.928,0 0,-0.128 c 0.448,-0.056 0.464,-0.08 0.632,-1.08 l 0.68,-4.16 0.152,0 2.984,4.92 c 0.136,0.216 0.264,0.312 0.448,0.32 l 0,0.128" /><path
       inkscape:connector-curvature="0"
       id="path3516"
       style="font-size:6px;font-style:italic;font-variant:normal;writing-mode:lr-tb;fill:#231f20;fill-opacity:1;fill-rule:nonzero;stroke:none;font-family:Times;-inkscape-font-specification:Times-Italic"
       d="m 197.84747,68.290184 -2.982,0 0,-0.096 c 0.372,-0.036 0.462,-0.084 0.462,-0.246 0,-0.066 -0.036,-0.276 -0.066,-0.384 l -0.738,-2.652 c -0.102,-0.342 -0.15,-0.384 -0.486,-0.444 l 0,-0.096 3.042,0 0.372,0.972 -0.096,0.048 c -0.282,-0.384 -0.438,-0.54 -0.696,-0.66 -0.222,-0.102 -0.63001,-0.162 -1.08,-0.162 -0.336,0 -0.48,0.06 -0.48,0.204 0,0.066 0.066,0.348 0.216,0.876 0.078,0.263999 0.132,0.462 0.192,0.69 0.21,-0.012 0.396,-0.018 0.468,-0.018 0.234,0.006 0.402,-0.03 0.468,-0.09 0.03,-0.03 0.042,-0.084 0.042,-0.186 0,-0.102 -0.012,-0.18 -0.042,-0.312 l 0.12,-0.03 0.408,1.392 -0.108,0.024 c -0.228,-0.51 -0.28201,-0.546 -0.828,-0.57 -0.072,0 -0.264,-0.006 -0.474,-0.012 l 0.396,1.398 c 0.036,0.132 0.102,0.156 0.438,0.156 0.94199,0 1.152,-0.078 1.152,-0.438 0,-0.078 -0.006,-0.168 -0.012,-0.27 l 0.126,-0.012 0.186,0.918" /><path
       inkscape:connector-curvature="0"
       id="path3519"
       style="font-size:8px;font-variant:normal;font-weight:normal;writing-mode:lr-tb;fill:#231f20;fill-opacity:1;fill-rule:nonzero;stroke:none;font-family:Times;-inkscape-font-specification:Times-Roman"
       d="m 203.98148,69.460184 -4.032,0 0,-0.528 4.032,0 0,0.528 m 0,-1.6 -4.032,0 0,-0.528 4.032,0 0,0.528" /><path
       inkscape:connector-curvature="0"
       id="path3521"
       style="font-size:8px;font-variant:normal;font-weight:normal;writing-mode:lr-tb;fill:#231f20;fill-opacity:1;fill-rule:nonzero;stroke:none;font-family:Times;-inkscape-font-specification:Times-Roman"
       d="m 207.66947,71.036184 1.568,0 c 0.128,0 0.16,0.016 0.184,0.072 l 0.304,0.712 -0.072,0.056 c -0.12,-0.168 -0.2,-0.208 -0.368,-0.208 l -1.672,0 -0.872,-1.896 c -0.008,-0.016 -0.008,-0.024 -0.008,-0.04 0,-0.04 0.032,-0.064 0.096,-0.064 0.256,0 0.576,-0.056 0.904,-0.16 0.92,-0.296 1.344,-0.792001 1.344,-1.584 0,-0.767999 -0.488,-1.368 -1.112,-1.368 -0.16,0 -0.296,0.056 -0.536,0.232 -0.256,0.184 -0.44,0.264 -0.608,0.264 -0.232,0 -0.344,-0.096 -0.344,-0.296 0,-0.304 0.37601,-0.496 0.976,-0.496 0.672,0 1.248,0.216 1.648,0.624 0.368,0.359999 0.536,0.816 0.536,1.424 0,0.575999 -0.152,0.944 -0.552,1.344 -0.352,0.351999 -0.808,0.536 -1.752,0.704 l 0.336,0.68" /><path
       inkscape:connector-curvature="0"
       id="path3523"
       style="font-size:8px;font-variant:normal;font-weight:normal;writing-mode:lr-tb;fill:#231f20;fill-opacity:1;fill-rule:nonzero;stroke:none;font-family:Times;-inkscape-font-specification:Times-Roman"
       d="m 215.79747,71.668184 -1.64,0 0,-0.152 c 0.44,-0.024 0.584,-0.112 0.584,-0.336 0,-0.128 -0.056,-0.344001 -0.152,-0.584 l -1.176,-2.936 -1.208,2.704 c -0.264,0.583999 -0.328,0.768 -0.328,0.888 0,0.152 0.112,0.232 0.368,0.248 0.032,0 0.12,0.008 0.232,0.016 l 0,0.152 -2.128,0 0,-0.152 c 0.392,-0.016 0.504,-0.128001 0.848,-0.84 l 1.968,-4.392 0.12,0 1.776,4.488 c 0.264,0.631999 0.352,0.72 0.736,0.744 l 0,0.152" /><path
       inkscape:connector-curvature="0"
       id="path3525"
       style="font-size:8px;font-variant:normal;font-weight:normal;writing-mode:lr-tb;fill:#231f20;fill-opacity:1;fill-rule:nonzero;stroke:none;font-family:Times;-inkscape-font-specification:Times-Roman"
       d="m 63.404727,163.44792 -1.44,-0.728 0,-0.112 c 0.096,0.04 0.184,0.072 0.216,0.088 0.143999,0.056 0.28,0.088 0.36,0.088 0.167999,0 0.24,-0.12 0.24,-0.376 l 0,-3.624 c 0,-0.264 -0.064,-0.448 -0.192,-0.52 -0.12,-0.072 -0.232001,-0.096 -0.568,-0.104 l 0,-0.12 2.208,0 0,0.12 c -0.632,0.008 -0.76,0.088 -0.76,0.472 l 0,4.8 -0.064,0.016" /><path
       inkscape:connector-curvature="0"
       id="path3527"
       style="font-size:8px;font-variant:normal;font-weight:normal;writing-mode:lr-tb;fill:#231f20;fill-opacity:1;fill-rule:nonzero;stroke:none;font-family:Times;-inkscape-font-specification:Times-Roman"
       d="m 67.396727,161.00792 c 0.791999,0.424 1.072,0.76 1.072,1.304 0,0.656 -0.576001,1.136 -1.376,1.136 -0.872,0 -1.52,-0.536 -1.52,-1.264 0,-0.52 0.152,-0.752 0.992,-1.488 -0.864,-0.656 -1.04,-0.904 -1.04,-1.448 0,-0.776 0.632001,-1.32 1.536,-1.32 0.959999,0 1.576,0.528 1.576,1.352 0,0.616 -0.272001,1.008 -1.24,1.728 m -0.144,-0.824 c 0.583999,-0.416 0.776,-0.704 0.776,-1.152 0,-0.52 -0.360001,-0.88 -0.88,-0.88 -0.608,0 -1.016,0.464 -1.016,1.16 0,0.512 0.176,0.848 0.64,1.224 l 0.48,-0.352 m -0.088,0.968 c -0.712,0.464 -1,0.832 -1,1.28 0,0.464 0.36,0.792 0.864,0.792 0.543999,0 0.888,-0.352 0.888,-0.904 0,-0.456 -0.224001,-0.816 -0.68,-1.12 -0.04,-0.024 -0.04,-0.024 -0.072,-0.048" /><path
       inkscape:connector-curvature="0"
       id="path3529"
       style="font-size:8px;font-variant:normal;font-weight:normal;writing-mode:lr-tb;fill:#231f20;fill-opacity:1;fill-rule:nonzero;stroke:none;font-family:Times;-inkscape-font-specification:Times-Roman"
       d="m 70.076734,158.83992 c -0.24,0 -0.44,-0.208 -0.44,-0.456 0,-0.232 0.2,-0.432 0.432,-0.432 0.248,0 0.456,0.2 0.456,0.432 0,0.248 -0.208,0.456 -0.448,0.456" /><path
       inkscape:connector-curvature="0"
       id="path3531"
       style="font-size:8px;font-variant:normal;font-weight:normal;writing-mode:lr-tb;fill:#231f20;fill-opacity:1;fill-rule:nonzero;stroke:none;font-family:Times;-inkscape-font-specification:Times-Roman"
       d="m 74.644734,163.51192 c -0.911999,-0.08 -1.376,-0.232 -1.96,-0.64 -0.863999,-0.616 -1.336,-1.528 -1.336,-2.6 0,-0.696 0.216,-1.4 0.56,-1.8 0.304,-0.352 0.736001,-0.544 1.232,-0.544 0.991999,0 1.68,0.76 1.68,1.864 0,1.024 -0.584001,1.672 -1.504,1.672 -0.352,0 -0.52,-0.056 -1.024,-0.36 0.216,1.208 1.112001,2.072 2.368,2.28 l -0.016,0.128 m -1.632,-2.416 c 0.687999,0 1.088,-0.576 1.088,-1.576 0,-0.88 -0.312,-1.368 -0.872,-1.368 -0.703999,0 -1.136,0.752 -1.136,1.992 0,0.408 0.064,0.632 0.224,0.752 0.168,0.128 0.416,0.2 0.696,0.2" /><path
       inkscape:connector-curvature="0"
       id="path3533"
       style="font-size:8px;font-variant:normal;font-weight:normal;writing-mode:lr-tb;fill:#231f20;fill-opacity:1;fill-rule:nonzero;stroke:none;font-family:Times;-inkscape-font-specification:Times-Roman"
       d="m 76.732734,163.02392 c 0.104,0.008 0.176,0.016 0.256,0.016 0.264,0 0.344,-0.104 0.344,-0.488 l 0,-3.856 c 0,-0.416 -0.024,-0.44 -0.6,-0.536 l 0,-0.12 1.872,0 0,0.12 -0.16,0.008 c -0.32,0.016 -0.44,0.128 -0.44,0.408 l 0,1.472 1.12,-1.496 0.024,-0.032 c 0.016,-0.024 0.032,-0.048 0.056,-0.072 0.064,-0.08 0.088,-0.128 0.088,-0.168 0,-0.072 -0.072,-0.12 -0.168,-0.12 l -0.152,0 0,-0.12 1.744,0 0,0.12 c -0.352,0.024 -0.6,0.176 -0.936,0.584 l -1.224,1.552 0.232,0.216 c 0.568,0.528 1.064,0.896 1.296,0.96 0.12,0.032 0.232,0.048 0.368,0.048 l 0.064,0 0,0.12 -1.632,0 0,-0.112 c 0.312,-0.008 0.4,-0.04 0.4,-0.152 0,-0.064 -0.072,-0.176 -0.184,-0.272 l -1.096,-0.976 0,3.36 -0.032,0.016 c -0.304,-0.096 -0.536,-0.16 -1,-0.288 l -0.24,-0.064 0,-0.128" /><path
       inkscape:connector-curvature="0"
       id="path3536"
       style="font-size:8px;font-variant:normal;font-weight:normal;writing-mode:lr-tb;fill:#231f20;fill-opacity:1;fill-rule:nonzero;stroke:none;font-family:Symbol;-inkscape-font-specification:Symbol"
       d="m 83.284733,158.03994 -0.144,1.24 c -0.623999,0.352 -1.024,1.064 -1.024,1.816 0,0.416 0.12,0.888 0.328,1.264 0.288,0.52 0.768001,0.816 1.312,0.816 0.544,0 1.024,-0.296 1.312,-0.816 0.208,-0.376 0.328,-0.848 0.328,-1.264 0,-0.752 -0.4,-1.464 -1.024,-1.816 l -0.144,-1.24 2.336,0 0,1.224 -0.192,0 c -0.056,-0.352 -0.232,-0.504 -0.552,-0.504 l -1.168,0 0.024,0.304 c 0.28,0.104 0.448,0.184 0.64,0.304 0.608,0.392 0.976,1.04 0.976,1.728 0,0.528 -0.232,1.12 -0.616,1.568 -0.487999,0.56 -1.160001,0.864 -1.92,0.864 -0.759999,0 -1.432,-0.304 -1.92,-0.864 -0.383999,-0.448 -0.616,-1.04 -0.616,-1.568 0,-0.688 0.368001,-1.336 0.976,-1.728 0.184,-0.12 0.352,-0.2 0.64,-0.304 l 0.024,-0.304 -1.168,0 c -0.32,0 -0.496,0.152 -0.552,0.504 l -0.192,0 0,-1.224 2.336,0" /><path
       inkscape:connector-curvature="0"
       id="path3539"
       style="font-size:8px;font-variant:normal;font-weight:normal;writing-mode:lr-tb;fill:#231f20;fill-opacity:1;fill-rule:nonzero;stroke:none;font-family:Times;-inkscape-font-specification:Times-Roman"
       d="m 64.745615,77.702442 -1.44,-0.728 0,-0.112 c 0.096,0.04 0.184,0.072 0.216,0.088 0.144,0.056 0.28,0.088 0.36,0.088 0.168,0 0.24,-0.12 0.24,-0.376 l 0,-3.624 c 0,-0.263999 -0.064,-0.448 -0.192,-0.52 -0.12,-0.072 -0.232001,-0.096 -0.568,-0.104 l 0,-0.12 2.208,0 0,0.12 c -0.632,0.008 -0.76,0.088 -0.76,0.472 l 0,4.8 -0.064,0.016" /><path
       inkscape:connector-curvature="0"
       id="path3541"
       style="font-size:8px;font-variant:normal;font-weight:normal;writing-mode:lr-tb;fill:#231f20;fill-opacity:1;fill-rule:nonzero;stroke:none;font-family:Times;-inkscape-font-specification:Times-Roman"
       d="m 68.745615,77.702442 -1.44,-0.728 0,-0.112 c 0.096,0.04 0.184,0.072 0.216,0.088 0.144,0.056 0.28,0.088 0.36,0.088 0.168,0 0.24,-0.12 0.24,-0.376 l 0,-3.624 c 0,-0.263999 -0.064,-0.448 -0.192,-0.52 -0.12,-0.072 -0.232001,-0.096 -0.568,-0.104 l 0,-0.12 2.208,0 0,0.12 c -0.632,0.008 -0.76,0.088 -0.76,0.472 l 0,4.8 -0.064,0.016" /><path
       inkscape:connector-curvature="0"
       id="path3543"
       style="font-size:8px;font-variant:normal;font-weight:normal;writing-mode:lr-tb;fill:#231f20;fill-opacity:1;fill-rule:nonzero;stroke:none;font-family:Times;-inkscape-font-specification:Times-Roman"
       d="m 71.417614,73.094442 c -0.239999,0 -0.439999,-0.208 -0.439999,-0.456 0,-0.231999 0.2,-0.432 0.431999,-0.432 0.248,0 0.456,0.200001 0.456,0.432 0,0.248 -0.208,0.456 -0.448,0.456" /><path
       inkscape:connector-curvature="0"
       id="path3545"
       style="font-size:8px;font-variant:normal;font-weight:normal;writing-mode:lr-tb;fill:#231f20;fill-opacity:1;fill-rule:nonzero;stroke:none;font-family:Times;-inkscape-font-specification:Times-Roman"
       d="m 76.193615,74.142442 -0.816,0 0,3.56 -0.352,0 -2.512,-3.56 0,-0.512 2.248,0 0,-1.336 0.616,0 0,1.336 0.816,0 0,0.512 m -1.44,0 -1.92,0 1.92,2.744 0,-2.744" /><path
       inkscape:connector-curvature="0"
       id="path3547"
       style="font-size:8px;font-variant:normal;font-weight:normal;writing-mode:lr-tb;fill:#231f20;fill-opacity:1;fill-rule:nonzero;stroke:none;font-family:Times;-inkscape-font-specification:Times-Roman"
       d="m 78.073615,77.278442 c 0.104,0.008 0.176,0.016 0.256,0.016 0.264,0 0.344,-0.104 0.344,-0.488 l 0,-3.856 c 0,-0.415999 -0.024,-0.44 -0.6,-0.536 l 0,-0.12 1.872,0 0,0.12 -0.16,0.008 c -0.319999,0.016 -0.44,0.128001 -0.44,0.408 l 0,1.472 1.12,-1.496 0.024,-0.032 c 0.016,-0.024 0.032,-0.048 0.056,-0.072 0.064,-0.08 0.088,-0.128 0.088,-0.168 0,-0.072 -0.072,-0.12 -0.168,-0.12 l -0.152,0 0,-0.12 1.744,0 0,0.12 c -0.351999,0.024 -0.6,0.176001 -0.936,0.584 l -1.224,1.552 0.232,0.216 c 0.568,0.528 1.064001,0.896 1.296,0.96 0.12,0.032 0.232001,0.048 0.368,0.048 l 0.064,0 0,0.12 -1.632,0 0,-0.112 c 0.312,-0.008 0.4,-0.04 0.4,-0.152 0,-0.064 -0.072,-0.176 -0.184,-0.272 l -1.096,-0.976 0,3.36 -0.032,0.016 c -0.303999,-0.096 -0.536,-0.16 -1,-0.288 l -0.24,-0.064 0,-0.128" /><path
       inkscape:connector-curvature="0"
       id="path3550"
       style="font-size:8px;font-variant:normal;font-weight:normal;writing-mode:lr-tb;fill:#231f20;fill-opacity:1;fill-rule:nonzero;stroke:none;font-family:Symbol;-inkscape-font-specification:Symbol"
       d="m 84.625615,72.294442 -0.144,1.24 c -0.623999,0.352 -1.024,1.064001 -1.024,1.816 0,0.416 0.120001,0.888001 0.328,1.264 0.288,0.52 0.768001,0.816 1.312,0.816 0.544,0 1.024001,-0.296 1.312,-0.816 0.208,-0.375999 0.328,-0.848 0.328,-1.264 0,-0.751999 -0.4,-1.464 -1.024,-1.816 l -0.144,-1.24 2.336,0 0,1.224 -0.192,0 c -0.056,-0.351999 -0.232,-0.504 -0.552,-0.504 l -1.168,0 0.024,0.304 c 0.28,0.104 0.448001,0.184 0.64,0.304 0.608,0.392 0.976,1.040001 0.976,1.728 0,0.528 -0.232,1.120001 -0.616,1.568 -0.487999,0.56 -1.16,0.864 -1.92,0.864 -0.759999,0 -1.432,-0.304 -1.92,-0.864 -0.383999,-0.447999 -0.616,-1.04 -0.616,-1.568 0,-0.687999 0.368001,-1.336 0.976,-1.728 0.184,-0.12 0.352001,-0.2 0.64,-0.304 l 0.024,-0.304 -1.168,0 c -0.319999,0 -0.496,0.152001 -0.552,0.504 l -0.192,0 0,-1.224 2.336,0" /><path
       inkscape:connector-curvature="0"
       id="path3553"
       style="font-size:8px;font-variant:normal;font-weight:normal;writing-mode:lr-tb;fill:#231f20;fill-opacity:1;fill-rule:nonzero;stroke:none;font-family:Times;-inkscape-font-specification:Times-Roman"
       d="m 33.774775,79.326074 -4.032,0 0,-0.528 4.032,0 0,0.528 m 0,-1.6 -4.032,0 0,-0.528 4.032,0 0,0.528" /><path
       inkscape:connector-curvature="0"
       id="path3555"
       style="font-size:8px;font-variant:normal;font-weight:normal;writing-mode:lr-tb;fill:#231f20;fill-opacity:1;fill-rule:nonzero;stroke:none;font-family:Times;-inkscape-font-specification:Times-Roman"
       d="m 37.462535,80.902074 1.568,0 c 0.128,0 0.16,0.016 0.184,0.072 l 0.304,0.712 -0.072,0.056 c -0.12,-0.168 -0.2,-0.208 -0.368,-0.208 l -1.672,0 -0.872,-1.896 c -0.008,-0.016 -0.008,-0.024 -0.008,-0.04 0,-0.04 0.032,-0.064 0.096,-0.064 0.256,0 0.576,-0.056 0.904,-0.16 0.92,-0.296 1.344,-0.792001 1.344,-1.584 0,-0.768 -0.488,-1.368 -1.112,-1.368 -0.16,0 -0.296,0.056 -0.536,0.232 -0.256,0.183999 -0.44,0.264 -0.608,0.264 -0.232,0 -0.344,-0.096 -0.344,-0.296 0,-0.304 0.376,-0.496 0.976,-0.496 0.672,0 1.248,0.216 1.648,0.624 0.368,0.359999 0.536,0.816 0.536,1.424 0,0.575999 -0.152,0.944 -0.552,1.344 -0.352,0.351999 -0.808,0.536 -1.752,0.704 l 0.336,0.68" /><path
       inkscape:connector-curvature="0"
       id="path3557"
       style="font-size:8px;font-variant:normal;font-weight:normal;writing-mode:lr-tb;fill:#231f20;fill-opacity:1;fill-rule:nonzero;stroke:none;font-family:Times;-inkscape-font-specification:Times-Roman"
       d="m 41.014475,77.038074 c -0.24,0 -0.44,-0.208001 -0.44,-0.456 0,-0.232 0.2,-0.432 0.432,-0.432 0.248,0 0.456,0.2 0.456,0.432 0,0.247999 -0.208,0.456 -0.448,0.456" /><path
       inkscape:connector-curvature="0"
       id="path3559"
       style="font-size:8px;font-variant:normal;font-weight:normal;writing-mode:lr-tb;fill:#231f20;fill-opacity:1;fill-rule:nonzero;stroke:none;font-family:Times;-inkscape-font-specification:Times-Roman"
       d="m 45.606475,81.534074 -2.96,0 -0.472,-1.176 0.136,-0.064 c 0.344,0.543999 0.488,0.648 0.928,0.648 l 1.736,0 -1.584,-4.768 0.52,0 1.696,5.232 0,0.128" /><path
       inkscape:connector-curvature="0"
       id="path3561"
       style="font-size:8px;font-variant:normal;font-weight:normal;writing-mode:lr-tb;fill:#231f20;fill-opacity:1;fill-rule:nonzero;stroke:none;font-family:Times;-inkscape-font-specification:Times-Roman"
       d="m 51.590475,81.534074 -1.64,0 0,-0.152 c 0.44,-0.024 0.584,-0.112001 0.584,-0.336 0,-0.128 -0.056,-0.344001 -0.152,-0.584 l -1.176,-2.936 -1.208,2.704 c -0.264,0.583999 -0.328,0.768 -0.328,0.888 0,0.151999 0.112,0.232 0.368,0.248 0.032,0 0.12,0.008 0.232,0.016 l 0,0.152 -2.128,0 0,-0.152 c 0.392,-0.016 0.504,-0.128001 0.848,-0.84 l 1.968,-4.392 0.12,0 1.776,4.488 c 0.264,0.631999 0.352,0.72 0.736,0.744 l 0,0.152" /><path
       inkscape:connector-curvature="0"
       id="path3563"
       style="font-size:8px;font-variant:normal;font-weight:normal;writing-mode:lr-tb;fill:#231f20;fill-opacity:1;fill-rule:nonzero;stroke:none;font-family:Times;-inkscape-font-specification:Times-Roman"
       d="m 144.71238,54.920538 1.568,0 c 0.128,0 0.16,0.016 0.184,0.072 l 0.304,0.712 -0.072,0.056 c -0.12,-0.168 -0.2,-0.208 -0.368,-0.208 l -1.672,0 -0.872,-1.896 c -0.008,-0.016 -0.008,-0.024 -0.008,-0.04 0,-0.04 0.032,-0.064 0.096,-0.064 0.256,0 0.576,-0.056 0.904,-0.16 0.91999,-0.296 1.344,-0.792001 1.344,-1.584 0,-0.767999 -0.488,-1.368 -1.112,-1.368 -0.16,0 -0.296,0.056 -0.536,0.232 -0.256,0.184 -0.44,0.264 -0.608,0.264 -0.232,0 -0.344,-0.096 -0.344,-0.296 0,-0.304 0.376,-0.496 0.976,-0.496 0.672,0 1.248,0.216 1.648,0.624 0.368,0.359999 0.536,0.816 0.536,1.424 0,0.575999 -0.152,0.944 -0.552,1.344 -0.352,0.351999 -0.80801,0.536 -1.752,0.704 l 0.336,0.68" /><path
       inkscape:connector-curvature="0"
       id="path3565"
       style="font-size:8px;font-variant:normal;font-weight:normal;writing-mode:lr-tb;fill:#231f20;fill-opacity:1;fill-rule:nonzero;stroke:none;font-family:Times;-inkscape-font-specification:Times-Roman"
       d="m 149.01638,53.440538 c 0.104,0.024 0.168,0.032 0.256,0.032 0.208,0 0.28,-0.128001 0.28,-0.512 l 0,-2.024 c 0,-0.432 -0.112,-0.552 -0.56,-0.56 l 0,-0.12 1.776,0 0,0.12 c -0.424,0.016 -0.544,0.104 -0.544,0.416 l 0,2.256 c 0,0.016 0.064,0.096 0.12,0.152 0.2,0.184 0.544,0.32 0.824,0.32 0.352,0 0.528,-0.280001 0.528,-0.84 l 0,-1.736 c 0,-0.448 -0.088,-0.536 -0.544,-0.568 l 0,-0.12 1.792,0 0,0.12 c -0.456,0.008 -0.576,0.144 -0.576,0.64 l 0,2.016 c 0.24,0.343999 0.504,0.488 0.872,0.488 0.456,0 0.6,-0.216001 0.6,-0.88 l 0,-1.688 c 0,-0.456 -0.064,-0.52 -0.528,-0.576 l 0,-0.12 1.752,0 0,0.12 -0.208,0.016 c -0.24,0.016 -0.344,0.16 -0.344,0.472 l 0,1.648 c 0,0.943999 -0.312,1.424 -0.928,1.424 -0.464,0 -0.872,-0.208001 -1.304,-0.672 -0.144,0.455999 -0.416,0.672 -0.848,0.672 -0.352,0 -0.576,-0.112001 -1.24,-0.616 l 0,0.6 -0.056,0.016 c -0.408,-0.152 -0.68,-0.24 -1.12,-0.36 l 0,-0.136" /><path
       inkscape:connector-curvature="0"
       id="path3567"
       style="font-size:8px;font-variant:normal;font-weight:normal;writing-mode:lr-tb;fill:#231f20;fill-opacity:1;fill-rule:nonzero;stroke:none;font-family:Times;-inkscape-font-specification:Times-Roman"
       d="m 160.73602,50.408538 c -0.36,0.024 -0.44,0.104 -0.72,0.696 l -1.992,4.544 -0.16,0 -1.664,-3.928 c -0.512,-1.167999 -0.608,-1.296 -0.992,-1.312 l 0,-0.152 1.584,0 0,0.152 c -0.384,0 -0.544,0.104 -0.544,0.328 0,0.096 0.024,0.208 0.064,0.312 l 0.368,0.936 2.096,0 0.328,-0.768 c 0.096,-0.216 0.152,-0.424 0.152,-0.536 0,-0.2 -0.136,-0.264 -0.56,-0.272 l 0,-0.152 2.04,0 0,0.152 m -3.92,1.904 0.92,2.2 0.928,-2.2 -1.848,0" /><path
       inkscape:connector-curvature="0"
       id="path3569"
       style="font-size:8px;font-variant:normal;font-weight:normal;writing-mode:lr-tb;fill:#231f20;fill-opacity:1;fill-rule:nonzero;stroke:none;font-family:Times;-inkscape-font-specification:Times-Roman"
       d="m 142.25139,153.60442 1.568,0 c 0.128,0 0.16,0.016 0.184,0.072 l 0.304,0.712 -0.072,0.056 c -0.12,-0.168 -0.2,-0.208 -0.368,-0.208 l -1.672,0 -0.872,-1.896 c -0.008,-0.016 -0.008,-0.024 -0.008,-0.04 0,-0.04 0.032,-0.064 0.096,-0.064 0.256,0 0.576,-0.056 0.904,-0.16 0.92,-0.296 1.344,-0.792 1.344,-1.584 0,-0.768 -0.488,-1.368 -1.112,-1.368 -0.16,0 -0.296,0.056 -0.536,0.232 -0.256,0.184 -0.44,0.264 -0.608,0.264 -0.232,0 -0.344,-0.096 -0.344,-0.296 0,-0.304 0.376,-0.496 0.976,-0.496 0.672,0 1.248,0.216 1.648,0.624 0.368,0.36 0.536,0.816 0.536,1.424 0,0.576 -0.152,0.944 -0.552,1.344 -0.352,0.352 -0.808,0.536 -1.752,0.704 l 0.336,0.68" /><path
       inkscape:connector-curvature="0"
       id="path3571"
       style="font-size:8px;font-variant:normal;font-weight:normal;writing-mode:lr-tb;fill:#231f20;fill-opacity:1;fill-rule:nonzero;stroke:none;font-family:Times;-inkscape-font-specification:Times-Roman"
       d="m 146.5554,152.12442 c 0.104,0.024 0.168,0.032 0.256,0.032 0.208,0 0.28,-0.128 0.28,-0.512 l 0,-2.024 c 0,-0.432 -0.112,-0.552 -0.56,-0.56 l 0,-0.12 1.776,0 0,0.12 c -0.424,0.016 -0.544,0.104 -0.544,0.416 l 0,2.256 c 0,0.016 0.064,0.096 0.12,0.152 0.2,0.184 0.544,0.32 0.824,0.32 0.352,0 0.528,-0.28 0.528,-0.84 l 0,-1.736 c 0,-0.448 -0.088,-0.536 -0.544,-0.568 l 0,-0.12 1.792,0 0,0.12 c -0.456,0.008 -0.576,0.144 -0.576,0.64 l 0,2.016 c 0.24,0.344 0.504,0.488 0.872,0.488 0.456,0 0.6,-0.216 0.6,-0.88 l 0,-1.688 c 0,-0.456 -0.064,-0.52 -0.528,-0.576 l 0,-0.12 1.752,0 0,0.12 -0.208,0.016 c -0.24,0.016 -0.344,0.16 -0.344,0.472 l 0,1.648 c 0,0.944 -0.312,1.424 -0.928,1.424 -0.464,0 -0.872,-0.208 -1.304,-0.672 -0.144,0.456 -0.416,0.672 -0.848,0.672 -0.352,0 -0.576,-0.112 -1.24,-0.616 l 0,0.6 -0.056,0.016 c -0.408,-0.152 -0.68,-0.24 -1.12,-0.36 l 0,-0.136" /><path
       inkscape:connector-curvature="0"
       id="path3573"
       style="font-size:8px;font-variant:normal;font-weight:normal;writing-mode:lr-tb;fill:#231f20;fill-opacity:1;fill-rule:nonzero;stroke:none;font-family:Times;-inkscape-font-specification:Times-Roman"
       d="m 158.27503,149.09242 c -0.36,0.024 -0.44,0.104 -0.72,0.696 l -1.992,4.544 -0.16,0 -1.664,-3.928 c -0.512,-1.168 -0.608,-1.296 -0.992,-1.312 l 0,-0.152 1.584,0 0,0.152 c -0.384,0 -0.544,0.104 -0.544,0.328 0,0.096 0.024,0.208 0.064,0.312 l 0.368,0.936 2.096,0 0.328,-0.768 c 0.096,-0.216 0.152,-0.424 0.152,-0.536 0,-0.2 -0.136,-0.264 -0.56,-0.272 l 0,-0.152 2.04,0 0,0.152 m -3.92,1.904 0.92,2.2 0.928,-2.2 -1.848,0" /><path
       inkscape:connector-curvature="0"
       id="path3576"
       style="font-size:8px;font-style:italic;font-variant:normal;writing-mode:lr-tb;fill:#231f20;fill-opacity:1;fill-rule:nonzero;stroke:none;font-family:Times;-inkscape-font-specification:Times-Italic"
       d="m 99.372182,70.208795 1.951998,0 0,0.128 c -0.456,0.056 -0.544,0.104001 -0.544,0.328 0,0.152 0.016,0.248001 0.088,0.504 l 0.984,3.544 c 0.144,0.464 0.2,0.512 0.656,0.592 l 0,0.128 -1.976,0 0,-0.128 c 0.464,-0.056 0.56,-0.12 0.56,-0.344 0,-0.111999 -0.032,-0.296 -0.088,-0.496 l -0.984,-3.536 c -0.143998,-0.463999 -0.199999,-0.512 -0.647998,-0.592 l 0,-0.128" /><path
       inkscape:connector-curvature="0"
       id="path3579"
       style="font-size:6px;font-variant:normal;font-weight:normal;writing-mode:lr-tb;fill:#231f20;fill-opacity:1;fill-rule:nonzero;stroke:none;font-family:Times;-inkscape-font-specification:Times-Roman"
       d="m 104.95024,69.030795 -0.078,0.03 c -0.222,-0.341999 -0.3,-0.396 -0.57,-0.396 l -1.434,0 1.008,1.056 c 0.534,0.558 0.768,1.014001 0.768,1.482 0,0.6 -0.486,1.062 -1.11,1.062 -0.33,0 -0.642,-0.132 -0.864,-0.372 -0.192,-0.203999 -0.282,-0.396 -0.384,-0.822 l 0.126,-0.03 c 0.24,0.588 0.456,0.78 0.87,0.78 0.504,0 0.846,-0.342 0.846,-0.846 0,-0.467999 -0.276,-1.026 -0.78,-1.56 l -1.068,-1.134 0,-0.072 2.34,0 0.33,0.822" /><path
       inkscape:connector-curvature="0"
       id="path3582"
       style="font-size:8px;font-variant:normal;font-weight:normal;writing-mode:lr-tb;fill:#231f20;fill-opacity:1;fill-rule:nonzero;stroke:none;font-family:Times;-inkscape-font-specification:Times-Roman"
       d="m 97.390875,66.344323 1.568,0 c 0.128,0 0.16,0.016 0.184,0.072 l 0.304,0.712 -0.072,0.056 c -0.12,-0.168 -0.2,-0.208 -0.368,-0.208 l -1.672,0 -0.872,-1.896 c -0.008,-0.016 -0.008,-0.024 -0.008,-0.04 0,-0.04 0.032,-0.064 0.096,-0.064 0.256,0 0.576,-0.056 0.904,-0.16 0.919999,-0.296 1.344,-0.792001 1.344,-1.584 0,-0.767999 -0.488,-1.368 -1.112,-1.368 -0.16,0 -0.296,0.056 -0.536,0.232 -0.256,0.184 -0.44,0.264 -0.608,0.264 -0.232,0 -0.344,-0.096 -0.344,-0.296 0,-0.304 0.376001,-0.496 0.976,-0.496 0.671999,0 1.248001,0.216 1.648,0.624 0.368,0.36 0.536,0.816001 0.536,1.424 0,0.575999 -0.152,0.944 -0.552,1.344 -0.352,0.352 -0.808001,0.536 -1.752,0.704 l 0.336,0.68" /><path
       inkscape:connector-curvature="0"
       id="path3584"
       style="font-size:8px;font-variant:normal;font-weight:normal;writing-mode:lr-tb;fill:#231f20;fill-opacity:1;fill-rule:nonzero;stroke:none;font-family:Times;-inkscape-font-specification:Times-Roman"
       d="m 101.69488,64.864323 c 0.10399,0.024 0.168,0.032 0.256,0.032 0.20799,0 0.28,-0.128 0.28,-0.512 l 0,-2.024 c 0,-0.432 -0.11201,-0.552 -0.56,-0.56 l 0,-0.12 1.776,0 0,0.12 c -0.424,0.016 -0.544,0.104 -0.544,0.416 l 0,2.256 c 0,0.016 0.064,0.096 0.12,0.152 0.19999,0.184 0.544,0.32 0.824,0.32 0.35199,0 0.528,-0.280001 0.528,-0.84 l 0,-1.736 c 0,-0.448 -0.088,-0.536 -0.544,-0.568 l 0,-0.12 1.792,0 0,0.12 c -0.456,0.008 -0.576,0.144 -0.576,0.64 l 0,2.016 c 0.23999,0.344 0.504,0.488 0.872,0.488 0.45599,0 0.6,-0.216001 0.6,-0.88 l 0,-1.688 c 0,-0.456 -0.064,-0.52 -0.528,-0.576 l 0,-0.12 1.752,0 0,0.12 -0.208,0.016 c -0.24,0.016 -0.344,0.16 -0.344,0.472 l 0,1.648 c 0,0.943999 -0.31201,1.424 -0.928,1.424 -0.464,0 -0.87201,-0.208001 -1.304,-0.672 -0.144,0.455999 -0.41601,0.672 -0.848,0.672 -0.352,0 -0.57601,-0.112001 -1.24,-0.616 l 0,0.6 -0.056,0.016 c -0.408,-0.152 -0.68001,-0.24 -1.12,-0.36 l 0,-0.136" /><path
       inkscape:connector-curvature="0"
       id="path3586"
       style="font-size:8px;font-variant:normal;font-weight:normal;writing-mode:lr-tb;fill:#231f20;fill-opacity:1;fill-rule:nonzero;stroke:none;font-family:Times;-inkscape-font-specification:Times-Roman"
       d="m 114.08555,61.832323 c -0.36,0.024 -0.44,0.104001 -0.72,0.696 l -1.992,4.544 -0.16,0 -1.664,-3.928 c -0.512,-1.167999 -0.608,-1.296 -0.992,-1.312 l 0,-0.152 1.584,0 0,0.152 c -0.384,0 -0.544,0.104 -0.544,0.328 0,0.096 0.024,0.208 0.064,0.312 l 0.368,0.936 2.096,0 0.328,-0.768 c 0.096,-0.216 0.152,-0.424 0.152,-0.536 0,-0.2 -0.136,-0.264 -0.56,-0.272 l 0,-0.152 2.04,0 0,0.152 m -3.92,1.904 0.92,2.2 0.928,-2.2 -1.848,0" /><path
       inkscape:connector-curvature="0"
       id="path3588"
       style="font-size:8px;font-variant:normal;font-weight:normal;writing-mode:lr-tb;fill:#231f20;fill-opacity:1;fill-rule:nonzero;stroke:none;font-family:Times;-inkscape-font-specification:Times-Roman"
       d="m 171.84539,168.4106 -1.44,-0.728 0,-0.112 c 0.096,0.04 0.184,0.072 0.216,0.088 0.144,0.056 0.28,0.088 0.36,0.088 0.168,0 0.24,-0.12 0.24,-0.376 l 0,-3.624 c 0,-0.264 -0.064,-0.448 -0.192,-0.52 -0.12,-0.072 -0.232,-0.096 -0.568,-0.104 l 0,-0.12 2.208,0 0,0.12 c -0.632,0.008 -0.76,0.088 -0.76,0.472 l 0,4.8 -0.064,0.016" /><path
       inkscape:connector-curvature="0"
       id="path3594"
       style="font-size:8px;font-variant:normal;font-weight:normal;writing-mode:lr-tb;fill:#231f20;fill-opacity:1;fill-rule:nonzero;stroke:none;font-family:Times;-inkscape-font-specification:Times-Roman"
       d="m 175.77487,167.9866 c 0.104,0.008 0.176,0.016 0.256,0.016 0.264,0 0.344,-0.104 0.344,-0.488 l 0,-3.856 c 0,-0.416 -0.024,-0.44 -0.6,-0.536 l 0,-0.12 1.872,0 0,0.12 -0.16,0.008 c -0.32,0.016 -0.44,0.128 -0.44,0.408 l 0,1.472 1.12,-1.496 0.024,-0.032 c 0.016,-0.024 0.032,-0.048 0.056,-0.072 0.064,-0.08 0.088,-0.128 0.088,-0.168 0,-0.072 -0.072,-0.12 -0.168,-0.12 l -0.152,0 0,-0.12 1.744,0 0,0.12 c -0.352,0.024 -0.6,0.176 -0.936,0.584 l -1.224,1.552 0.232,0.216 c 0.568,0.528 1.064,0.896 1.296,0.96 0.12,0.032 0.232,0.048 0.368,0.048 l 0.064,0 0,0.12 -1.632,0 0,-0.112 c 0.312,-0.008 0.4,-0.04 0.4,-0.152 0,-0.064 -0.072,-0.176 -0.184,-0.272 l -1.096,-0.976 0,3.36 -0.032,0.016 c -0.304,-0.096 -0.536,-0.16 -1,-0.288 l -0.24,-0.064 0,-0.128" /><path
       inkscape:connector-curvature="0"
       id="path3597"
       style="font-size:8px;font-variant:normal;font-weight:normal;writing-mode:lr-tb;fill:#231f20;fill-opacity:1;fill-rule:nonzero;stroke:none;font-family:Symbol;-inkscape-font-specification:Symbol"
       d="m 182.32687,163.0026 -0.144,1.24 c -0.624,0.352 -1.024,1.06401 -1.024,1.816 0,0.416 0.12,0.888 0.328,1.264 0.288,0.52 0.768,0.816 1.312,0.816 0.544,0 1.024,-0.296 1.312,-0.816 0.208,-0.376 0.328,-0.848 0.328,-1.264 0,-0.75199 -0.4,-1.464 -1.024,-1.816 l -0.144,-1.24 2.336,0 0,1.224 -0.192,0 c -0.056,-0.352 -0.232,-0.504 -0.552,-0.504 l -1.168,0 0.024,0.304 c 0.28,0.104 0.448,0.184 0.64,0.304 0.608,0.392 0.976,1.04001 0.976,1.728 0,0.528 -0.232,1.12 -0.616,1.568 -0.488,0.56 -1.16,0.864 -1.92,0.864 -0.76,0 -1.432,-0.304 -1.92,-0.864 -0.384,-0.448 -0.616,-1.04 -0.616,-1.568 0,-0.68799 0.368,-1.336 0.976,-1.728 0.184,-0.12 0.352,-0.2 0.64,-0.304 l 0.024,-0.304 -1.168,0 c -0.32,0 -0.496,0.152 -0.552,0.504 l -0.192,0 0,-1.224 2.336,0" /><path
       inkscape:connector-curvature="0"
       id="path3600"
       style="font-size:8px;font-variant:normal;font-weight:normal;writing-mode:lr-tb;fill:#231f20;fill-opacity:1;fill-rule:nonzero;stroke:none;font-family:Times;-inkscape-font-specification:Times-Roman"
       d="m 170.92704,69.55021 -1.44,-0.728 0,-0.112 c 0.096,0.04 0.184,0.072 0.216,0.088 0.144,0.056 0.28,0.088 0.36,0.088 0.168,0 0.24,-0.120001 0.24,-0.376 l 0,-3.624 c 0,-0.264 -0.064,-0.448 -0.192,-0.52 -0.12,-0.072 -0.232,-0.096 -0.568,-0.104 l 0,-0.12 2.208,0 0,0.12 c -0.632,0.008 -0.76,0.088 -0.76,0.472 l 0,4.8 -0.064,0.016" /><path
       inkscape:connector-curvature="0"
       id="path3602"
       style="font-size:8px;font-variant:normal;font-weight:normal;writing-mode:lr-tb;fill:#231f20;fill-opacity:1;fill-rule:nonzero;stroke:none;font-family:Times;-inkscape-font-specification:Times-Roman"
       d="m 174.25504,69.12621 c 0.104,0.008 0.176,0.016 0.256,0.016 0.264,0 0.344,-0.104001 0.344,-0.488 l 0,-3.856 c 0,-0.416 -0.024,-0.44 -0.6,-0.536 l 0,-0.12 1.872,0 0,0.12 -0.16,0.008 c -0.32,0.016 -0.44,0.128 -0.44,0.408 l 0,1.472 1.12,-1.496 0.024,-0.032 c 0.016,-0.024 0.032,-0.048 0.056,-0.072 0.064,-0.08 0.088,-0.128 0.088,-0.168 0,-0.072 -0.072,-0.12 -0.168,-0.12 l -0.152,0 0,-0.12 1.744,0 0,0.12 c -0.352,0.024 -0.6,0.176 -0.936,0.584 l -1.224,1.552 0.232,0.216 c 0.568,0.527999 1.064,0.896 1.296,0.96 0.12,0.032 0.232,0.048 0.368,0.048 l 0.064,0 0,0.12 -1.632,0 0,-0.112 c 0.312,-0.008 0.4,-0.04 0.4,-0.152 0,-0.064 -0.072,-0.176 -0.184,-0.272 l -1.096,-0.976 0,3.36 -0.032,0.016 c -0.304,-0.096 -0.536,-0.160001 -1,-0.288 l -0.24,-0.064 0,-0.128" /><path
       inkscape:connector-curvature="0"
       id="path3605"
       style="font-size:8px;font-variant:normal;font-weight:normal;writing-mode:lr-tb;fill:#231f20;fill-opacity:1;fill-rule:nonzero;stroke:none;font-family:Symbol;-inkscape-font-specification:Symbol"
       d="m 180.80704,64.14221 -0.144,1.24 c -0.624,0.351999 -1.024,1.064 -1.024,1.816 0,0.415999 0.12,0.888 0.328,1.264 0.288,0.519999 0.768,0.816 1.312,0.816 0.544,0 1.024,-0.296001 1.312,-0.816 0.208,-0.376 0.328,-0.848001 0.328,-1.264 0,-0.752 -0.4,-1.464001 -1.024,-1.816 l -0.144,-1.24 2.336,0 0,1.224 -0.192,0 c -0.056,-0.352 -0.232,-0.504 -0.552,-0.504 l -1.168,0 0.024,0.304 c 0.28,0.104 0.448,0.184 0.64,0.304 0.608,0.391999 0.976,1.04 0.976,1.728 0,0.527999 -0.232,1.12 -0.616,1.568 -0.488,0.559999 -1.16,0.864 -1.92,0.864 -0.76,0 -1.432,-0.304001 -1.92,-0.864 -0.384,-0.448 -0.616,-1.040001 -0.616,-1.568 0,-0.688 0.368,-1.336001 0.976,-1.728 0.184,-0.12 0.352,-0.2 0.64,-0.304 l 0.024,-0.304 -1.168,0 c -0.32,0 -0.496,0.152 -0.552,0.504 l -0.192,0 0,-1.224 2.336,0" /><path
       inkscape:connector-curvature="0"
       id="path3608"
       style="font-size:8px;font-style:italic;font-variant:normal;writing-mode:lr-tb;fill:#231f20;fill-opacity:1;fill-rule:nonzero;stroke:none;font-family:Times;-inkscape-font-specification:Times-Italic"
       d="m 77.612303,169.57196 c -0.352,0.024 -0.512001,0.16 -0.664,0.576 l -0.744,1.96 c 0.615999,0.136 0.88,0.248 1.168,0.504 0.263999,0.232 0.408,0.544 0.408,0.904 0,0.744 -0.592001,1.152 -1.664,1.152 l -1.984,0 0,-0.128 c 0.335999,-0.048 0.376,-0.056 0.456,-0.112 0.064,-0.04 0.112,-0.136 0.112,-0.224 0,-0.096 -0.04,-0.288 -0.096,-0.504 l -0.984,-3.536 c -0.144,-0.472 -0.200001,-0.52 -0.648,-0.592 l 0,-0.128 1.952,0 0,0.128 c -0.488,0.064 -0.544,0.104 -0.544,0.368 0,0.08 0.024,0.184 0.096,0.464 l 0.448,1.672 0.52,-0.04 0.984,-2.592 1.184,0 0,0.128 m -2.072,4.632 c 0.048,0.168 0.152,0.224 0.408,0.224 0.663999,0 0.992,-0.304 0.992,-0.896 0,-0.792 -0.512001,-1.2 -1.512,-1.2 -0.128,0 -0.216001,0.008 -0.408,0.04 l 0.52,1.832" /><path
       inkscape:connector-curvature="0"
       id="path3611"
       style="font-size:6px;font-variant:normal;font-weight:normal;writing-mode:lr-tb;fill:#231f20;fill-opacity:1;fill-rule:nonzero;stroke:none;font-family:Times;-inkscape-font-specification:Times-Roman"
       d="m 79.710193,171.49996 -1.08,-0.546 0,-0.084 c 0.072,0.03 0.138,0.054 0.162,0.066 0.108,0.042 0.210001,0.066 0.27,0.066 0.126,0 0.18,-0.09 0.18,-0.282 l 0,-2.718 c 0,-0.198 -0.048,-0.336 -0.144,-0.39 -0.09,-0.054 -0.174,-0.072 -0.426,-0.078 l 0,-0.09 1.656,0 0,0.09 c -0.473999,0.006 -0.57,0.066 -0.57,0.354 l 0,3.6 -0.048,0.012" /><path
       inkscape:connector-curvature="0"
       id="path3614"
       style="font-size:8px;font-style:italic;font-variant:normal;writing-mode:lr-tb;fill:#231f20;fill-opacity:1;fill-rule:nonzero;stroke:none;font-family:Times;-inkscape-font-specification:Times-Italic"
       d="m 78.041105,83.203954 c -0.352,0.024 -0.512,0.16 -0.664,0.576 l -0.744,1.96 c 0.615999,0.135999 0.88,0.248 1.168,0.504 0.264,0.231999 0.408,0.544 0.408,0.904 0,0.743999 -0.592001,1.152 -1.664,1.152 l -1.984,0 0,-0.128 c 0.336,-0.048 0.376,-0.056 0.456,-0.112 0.064,-0.04 0.112,-0.136001 0.112,-0.224 0,-0.096 -0.04,-0.288001 -0.096,-0.504 l -0.984,-3.536 c -0.144,-0.472 -0.200001,-0.520001 -0.648,-0.592 l 0,-0.128 1.952,0 0,0.128 c -0.487999,0.064 -0.544,0.104 -0.544,0.368 0,0.08 0.024,0.184 0.096,0.464 l 0.448,1.672 0.52,-0.04 0.984,-2.592 1.184,0 0,0.128 m -2.072,4.632 c 0.048,0.167999 0.152,0.224 0.408,0.224 0.663999,0 0.992,-0.304001 0.992,-0.896 0,-0.792 -0.512001,-1.2 -1.512,-1.2 -0.128,0 -0.216,0.008 -0.408,0.04 l 0.52,1.832" /><path
       inkscape:connector-curvature="0"
       id="path3617"
       style="font-size:6px;font-variant:normal;font-weight:normal;writing-mode:lr-tb;fill:#231f20;fill-opacity:1;fill-rule:nonzero;stroke:none;font-family:Times;-inkscape-font-specification:Times-Roman"
       d="m 81.242995,81.897954 -0.078,0.03 c -0.222,-0.342 -0.3,-0.396 -0.57,-0.396 l -1.434,0 1.008,1.056 c 0.533999,0.557999 0.768,1.014 0.768,1.482 0,0.599999 -0.486001,1.062 -1.11,1.062 -0.33,0 -0.642,-0.132001 -0.864,-0.372 -0.192,-0.204 -0.282,-0.396001 -0.384,-0.822 l 0.126,-0.03 c 0.24,0.587999 0.456,0.78 0.87,0.78 0.503999,0 0.846,-0.342001 0.846,-0.846 0,-0.468 -0.276001,-1.026001 -0.78,-1.56 l -1.068,-1.134 0,-0.072 2.34,0 0.33,0.822" /><path
       inkscape:connector-curvature="0"
       id="path116"
       style="fill:none;stroke:#231f20;stroke-width:0.5;stroke-linecap:butt;stroke-linejoin:miter;stroke-miterlimit:4;stroke-opacity:1;stroke-dasharray:none"
       d="m 152.55958,185.6342 0,-15.5" /><path
       inkscape:connector-curvature="0"
       id="path118"
       style="fill:#231f20;fill-opacity:1;fill-rule:nonzero;stroke:none"
       d="m 152.55958,170.5172 1.3516,0.822 0.0305,-0.046 -0.875,-2.204 c -0.1692,-0.767 -0.3379,-1.535 -0.5071,-2.302 -0.1687,0.767 -0.3379,1.535 -0.5066,2.302 l -0.875,2.204 0.0234,0.046 1.3582,-0.822" /><path
       inkscape:connector-curvature="0"
       id="path120"
       style="fill:none;stroke:#231f20;stroke-width:0.5;stroke-linecap:butt;stroke-linejoin:miter;stroke-miterlimit:4;stroke-opacity:1;stroke-dasharray:none"
       d="m 101.50264,95.730748 0,-15.5004" /><path
       inkscape:connector-curvature="0"
       id="path122"
       style="fill:#231f20;fill-opacity:1;fill-rule:nonzero;stroke:none"
       d="m 101.50264,80.613548 1.3516,0.8207 0.0305,-0.0449 -0.875,-2.2039 c -0.1692,-0.7672 -0.3379,-1.5352 -0.5071,-2.302 -0.1687,0.7668 -0.3379,1.5348 -0.5066,2.302 l -0.875,2.2039 0.0234,0.0449 1.3582,-0.8207" /><path
       inkscape:connector-curvature="0"
       id="path124"
       style="fill:none;stroke:#231f20;stroke-width:0.5;stroke-linecap:butt;stroke-linejoin:miter;stroke-miterlimit:4;stroke-opacity:1;stroke-dasharray:none"
       d="m 31.128245,72.683873 0,-34.0309" /><path
       inkscape:connector-curvature="0"
       id="path126"
       style="fill:#231f20;fill-opacity:1;fill-rule:nonzero;stroke:none"
       d="m 31.128245,39.035773 1.3516,0.8211 0.03,-0.0461 -0.875,-2.2027 c -0.1687,-0.7672 -0.3379,-1.5351 -0.5066,-2.3019 -0.1691,0.7668 -0.3379,1.5347 -0.507,2.3019 l -0.875,2.2027 0.0234,0.0461 1.3586,-0.8211" /><path
       inkscape:connector-curvature="0"
       id="path128"
       style="fill:none;stroke:#231f20;stroke-width:0.5;stroke-linecap:butt;stroke-linejoin:miter;stroke-miterlimit:4;stroke-opacity:1;stroke-dasharray:none"
       d="m 31.128245,86.638173 0,34.030797" /><path
       inkscape:connector-curvature="0"
       id="path130"
       style="fill:#231f20;fill-opacity:1;fill-rule:nonzero;stroke:none"
       d="m 31.128245,120.28577 -1.3516,-0.821 -0.0304,0.046 0.875,2.2032 c 0.1691,0.7675 0.3379,1.535 0.507,2.302 0.1687,-0.767 0.3379,-1.5345 0.5066,-2.302 l 0.875,-2.2032 -0.0234,-0.046 -1.3582,0.821" /><path
       inkscape:connector-curvature="0"
       id="path132"
       style="fill:none;stroke:#231f20;stroke-width:0.8;stroke-linecap:butt;stroke-linejoin:miter;stroke-miterlimit:4;stroke-opacity:1;stroke-dasharray:none"
       d="m 162.70758,35.481173 -69.863597,0 0,172.813797 69.863597,0" /><path
       inkscape:connector-curvature="0"
       id="path134"
       style="fill:none;stroke:#231f20;stroke-width:0.8;stroke-linecap:butt;stroke-linejoin:miter;stroke-miterlimit:4;stroke-opacity:1;stroke-dasharray:none"
       d="m 162.70758,208.29497 0,-73.119" /><path
       inkscape:connector-curvature="0"
       id="path136"
       style="fill:none;stroke:#231f20;stroke-width:0.80000001;stroke-linecap:round;stroke-linejoin:round;stroke-miterlimit:3.86369991;stroke-opacity:1;stroke-dasharray:none"
       d="m 145.87638,129.14797 16.8412,6.028" /><path
       inkscape:connector-curvature="0"
       id="path138"
       style="fill:none;stroke:#231f20;stroke-width:2;stroke-linecap:round;stroke-linejoin:round;stroke-miterlimit:3.86369991;stroke-opacity:1;stroke-dasharray:none"
       d="m 145.51898,114.91897 0,18.804" /><path
       inkscape:connector-curvature="0"
       id="path140"
       style="fill:none;stroke:#231f20;stroke-width:0.80000007;stroke-linecap:round;stroke-linejoin:round;stroke-miterlimit:3.86369991;stroke-opacity:1;stroke-dasharray:none"
       d="m 146.11378,119.19686 14.28991,-8.95478" /><path
       inkscape:connector-curvature="0"
       id="path142"
       style="fill:#231f20;fill-opacity:1;fill-rule:nonzero;stroke:none"
       d="m 157.68108,111.52097 -0.0899,2.5297 0.0899,0.006 2.3886,-2.9476 c 0.9375,-0.8359 1.877,-1.6719 2.8139,-2.509 -1.2025,0.3652 -2.4057,0.732 -3.6088,1.0973 l -3.7578,0.5039 -0.0469,0.0679 2.211,1.252" /><path
       inkscape:connector-curvature="0"
       id="path3476"
       style="font-size:8px;font-variant:normal;font-weight:normal;writing-mode:lr-tb;fill:#231f20;fill-opacity:1;fill-rule:nonzero;stroke:none;font-family:Symbol;-inkscape-font-specification:Symbol"
       d="m 24.473535,119.25407 -0.44,0 0,-1.912 -1.896,0 0,-0.44 1.896,0 0,-1.912 0.44,0 0,1.912 1.896,0 0,0.44 -1.896,0 0,1.912" /><path
       inkscape:connector-curvature="0"
       id="path3478"
       style="font-size:8px;font-variant:normal;font-weight:normal;writing-mode:lr-tb;fill:#231f20;fill-opacity:1;fill-rule:nonzero;stroke:none;font-family:Symbol;-inkscape-font-specification:Symbol"
       d="m 22.145535,41.283875 0,-0.44 4.192,0 0,0.44 -4.192,0" /><path
       inkscape:connector-curvature="0"
       id="path152"
       style="fill:#ffffff;fill-opacity:1;fill-rule:nonzero;stroke:none"
       d="m 159.04508,155.62097 7.46836,0 0,32.4512 -7.46836,0 0,-32.4512 z" /><path
       inkscape:connector-curvature="0"
       id="path154"
       style="fill:none;stroke:#231f20;stroke-width:0.80000001;stroke-linecap:round;stroke-linejoin:round;stroke-miterlimit:3.86369991;stroke-opacity:1;stroke-dasharray:none"
       d="m 162.74458,155.39797 0,3.613 -3.6995,1.57 7.4685,3.149 -7.4685,3.196 7.4685,3.197 -7.4685,3.15 7.4685,3.123 -7.4685,3.151 7.3735,3.197 -3.674,1.529 0,3.799" /><path
       inkscape:connector-curvature="0"
       id="path156"
       style="fill:none;stroke:#231f20;stroke-width:0.8;stroke-linecap:butt;stroke-linejoin:miter;stroke-miterlimit:4;stroke-opacity:1;stroke-dasharray:none"
       d="m 162.70758,108.86507 0,-73.571097" /><path
       inkscape:connector-curvature="0"
       id="path158"
       style="fill:#ffffff;fill-opacity:1;fill-rule:nonzero;stroke:none"
       d="m 159.04508,56.190073 7.46836,0 0,32.4508 -7.46836,0 0,-32.4508 z" /><path
       inkscape:connector-curvature="0"
       id="path160"
       style="fill:none;stroke:#231f20;stroke-width:0.80000001;stroke-linecap:round;stroke-linejoin:round;stroke-miterlimit:3.86369991;stroke-opacity:1;stroke-dasharray:none"
       d="m 162.74458,55.967873 0,3.6133 -3.6995,1.5699 7.4685,3.1488 -7.4685,3.1949 7.4685,3.1973 -7.4685,3.1508 7.4685,3.1222 -7.4685,3.15 7.3735,3.1969 -3.674,1.5301 0,3.7988" /><path
       inkscape:connector-curvature="0"
       id="path162"
       style="fill:#ffffff;fill-opacity:1;fill-rule:nonzero;stroke:none"
       d="m 89.146683,63.795202 7.46875,0 0,32.4508 -7.46875,0 0,-32.4508 z" /><path
       inkscape:connector-curvature="0"
       id="path164"
       style="fill:none;stroke:#231f20;stroke-width:0.80000001;stroke-linecap:round;stroke-linejoin:round;stroke-miterlimit:3.86369991;stroke-opacity:1;stroke-dasharray:none"
       d="m 92.845883,63.573002 0,3.6133 -3.6992,1.5699 7.4687,3.1488 -7.4687,3.1949 7.4687,3.1973 -7.4687,3.1508 7.4687,3.1222 -7.4687,3.15 7.373,3.1969 -3.6738,1.5301 0,3.7988" /><path
       inkscape:connector-curvature="0"
       id="path166"
       style="fill:#ffffff;fill-opacity:1;fill-rule:nonzero;stroke:none"
       d="m 89.144683,151.19233 7.46875,0 0,32.4512 -7.46875,0 0,-32.4512 z" /><path
       inkscape:connector-curvature="0"
       id="path168"
       style="fill:none;stroke:#231f20;stroke-width:0.80000001;stroke-linecap:round;stroke-linejoin:round;stroke-miterlimit:3.86369991;stroke-opacity:1;stroke-dasharray:none"
       d="m 92.843983,150.96933 0,3.613 -3.6993,1.57 7.4688,3.149 -7.4688,3.196 7.4688,3.197 -7.4688,3.15 7.4688,3.123 -7.4688,3.151 7.3731,3.197 -3.6738,1.529 0,3.799" /><path
       inkscape:connector-curvature="0"
       id="path170"
       style="fill:none;stroke:#231f20;stroke-width:0.80000001;stroke-linecap:round;stroke-linejoin:round;stroke-miterlimit:3.86369991;stroke-opacity:1;stroke-dasharray:none"
       d="m 127.89858,35.288173 0,-6.43009" /><path
       inkscape:connector-curvature="0"
       id="path172"
       style="fill:none;stroke:#231f20;stroke-width:0.80000001;stroke-linecap:round;stroke-linejoin:round;stroke-miterlimit:3.86369991;stroke-opacity:1;stroke-dasharray:none"
       d="m 134.89858,28.858083 -14,0" /><path
       inkscape:connector-curvature="0"
       id="path174"
       style="fill:none;stroke:#231f20;stroke-width:0.80000001;stroke-linecap:round;stroke-linejoin:round;stroke-miterlimit:3.86369991;stroke-opacity:1;stroke-dasharray:none"
       d="m 133.39858,26.213943 -11,0" /><path
       inkscape:connector-curvature="0"
       id="path176"
       style="fill:none;stroke:#231f20;stroke-width:0.80000001;stroke-linecap:round;stroke-linejoin:round;stroke-miterlimit:3.86369991;stroke-opacity:1;stroke-dasharray:none"
       d="m 131.89858,23.688876 -8,0" /><path
       inkscape:connector-curvature="0"
       id="path178"
       style="fill:none;stroke:#231f20;stroke-width:0.5;stroke-linecap:butt;stroke-linejoin:miter;stroke-miterlimit:4;stroke-opacity:1;stroke-dasharray:none"
       d="m 145.51898,124.29197 -52.674997,0" /><path
       inkscape:connector-curvature="0"
       id="path180"
       style="fill:none;stroke:#231f20;stroke-width:0.8;stroke-linecap:butt;stroke-linejoin:miter;stroke-miterlimit:4;stroke-opacity:1;stroke-dasharray:none"
       d="m 215.30158,208.22997 -52.6744,0" /><path
       inkscape:connector-curvature="0"
       id="path182"
       style="fill:none;stroke:#231f20;stroke-width:0.49999997;stroke-linecap:butt;stroke-linejoin:miter;stroke-miterlimit:4;stroke-opacity:1;stroke-dasharray:2.00000001, 2.00000001;stroke-dashoffset:0"
       d="m 204.46925,35.331458 -42.35633,0" /><path
       inkscape:connector-curvature="0"
       id="path184"
       style="fill:none;stroke:#231f20;stroke-width:0.49999997;stroke-linecap:butt;stroke-linejoin:miter;stroke-miterlimit:4;stroke-opacity:1;stroke-dasharray:2.00000001, 2.00000001;stroke-dashoffset:0"
       d="m 204.07061,98.613173 -41.36303,0" /><path
       inkscape:connector-curvature="0"
       id="path186"
       style="fill:none;stroke:#231f20;stroke-width:0.5;stroke-linecap:butt;stroke-linejoin:miter;stroke-miterlimit:4;stroke-opacity:1;stroke-dasharray:none"
       d="m 153.76379,86.175302 0,-15.5" /><path
       inkscape:connector-curvature="0"
       id="path188"
       style="fill:#231f20;fill-opacity:1;fill-rule:nonzero;stroke:none"
       d="m 153.76379,71.058102 1.3516,0.823 0.0301,-0.0468 -0.875,-2.2032 c -0.1688,-0.7679 -0.3379,-1.5359 -0.5067,-2.3031 -0.1691,0.7672 -0.3379,1.5352 -0.507,2.3031 l -0.875,2.2032 0.0234,0.0468 1.3586,-0.823" /><path
       inkscape:connector-curvature="0"
       id="path190"
       style="fill:none;stroke:#231f20;stroke-width:0.49999997;stroke-linecap:butt;stroke-linejoin:miter;stroke-miterlimit:4;stroke-opacity:1;stroke-dasharray:none"
       d="m 199.07223,63.336329 0,-24.441532" /><path
       inkscape:connector-curvature="0"
       id="path192"
       style="fill:#231f20;fill-opacity:1;fill-rule:nonzero;stroke:none"
       d="m 199.07223,39.222276 1.351,0.8219 0.03,-0.0461 -0.875,-2.2039 c -0.169,-0.7672 -0.338,-1.5352 -0.506,-2.302 -0.169,0.7668 -0.338,1.5348 -0.507,2.302 l -0.875,2.2039 0.023,0.0461 1.359,-0.8219" /><path
       inkscape:connector-curvature="0"
       id="path194"
       style="fill:none;stroke:#231f20;stroke-width:0.5;stroke-linecap:butt;stroke-linejoin:miter;stroke-miterlimit:4;stroke-opacity:1;stroke-dasharray:none"
       d="m 199.07223,74.785437 0,20.485414" /><path
       inkscape:connector-curvature="0"
       id="path196"
       style="fill:#231f20;fill-opacity:1;fill-rule:nonzero;stroke:none"
       d="m 199.07223,94.883073 -1.352,-0.823 -0.03,0.0468 0.875,2.2032 c 0.169,0.7679 0.338,1.5359 0.507,2.3031 0.168,-0.7672 0.337,-1.5352 0.506,-2.3031 l 0.875,-2.2032 -0.023,-0.0468 -1.358,0.823" /><path
       inkscape:connector-curvature="0"
       id="path3437"
       style="font-size:8px;font-style:italic;font-variant:normal;writing-mode:lr-tb;fill:#231f20;fill-opacity:1;fill-rule:nonzero;stroke:none;font-family:Times;-inkscape-font-specification:Times-Italic"
       d="m 178.11985,173.40098 c -0.352,0.024 -0.512,0.16 -0.664,0.576 l -0.744,1.96 c 0.616,0.13599 0.88,0.248 1.168,0.504 0.264,0.23199 0.408,0.544 0.408,0.904 0,0.74399 -0.592,1.152 -1.664,1.152 l -1.984,0 0,-0.128 c 0.336,-0.048 0.376,-0.056 0.456,-0.112 0.064,-0.04 0.112,-0.13601 0.112,-0.224 0,-0.096 -0.04,-0.28801 -0.096,-0.504 l -0.984,-3.536 c -0.144,-0.472 -0.2,-0.52001 -0.648,-0.592 l 0,-0.128 1.952,0 0,0.128 c -0.488,0.064 -0.544,0.104 -0.544,0.368 0,0.08 0.024,0.184 0.096,0.464 l 0.448,1.672 0.52,-0.04 0.984,-2.592 1.184,0 0,0.128 m -2.072,4.632 c 0.048,0.16799 0.152,0.224 0.408,0.224 0.664,0 0.992,-0.30401 0.992,-0.896 0,-0.792 -0.512,-1.2 -1.512,-1.2 -0.128,0 -0.216,0.008 -0.408,0.04 l 0.52,1.832" /><path
       inkscape:connector-curvature="0"
       id="path3440"
       style="font-size:6px;font-style:italic;font-variant:normal;writing-mode:lr-tb;fill:#231f20;fill-opacity:1;fill-rule:nonzero;stroke:none;font-family:Times;-inkscape-font-specification:Times-Italic"
       d="m 182.38296,174.06298 0.222,1.194 -0.126,0 c -0.048,-0.096 -0.108,-0.132 -0.228,-0.132 -0.048,0 -0.12,0.012 -0.246,0.042 -0.27,0.066 -0.51,0.102 -0.702,0.102 -1.278,0 -2.436,-1.20601 -2.436,-2.538 0,-0.918 0.648,-1.566 1.566,-1.566 0.618,0 1.098,0.264 1.638,0.894 l -0.102,0.084 c -0.54,-0.528 -0.888,-0.708 -1.38,-0.708 -0.666,0 -1.05,0.456 -1.05,1.23 0,0.71399 0.288,1.44 0.756,1.926 0.288,0.29399 0.666,0.462 1.062,0.462 0.552,0 0.858,-0.32401 0.918,-0.972 l 0.108,-0.018" /><path
       inkscape:connector-curvature="0"
       id="path3443"
       style="font-size:8px;font-style:italic;font-variant:normal;writing-mode:lr-tb;fill:#231f20;fill-opacity:1;fill-rule:nonzero;stroke:none;font-family:Times;-inkscape-font-specification:Times-Italic"
       d="m 174.7974,74.662582 c -0.352,0.024 -0.512,0.16 -0.664,0.576 l -0.744,1.96 c 0.616,0.136 0.88,0.248 1.168,0.504 0.264,0.232 0.408,0.544 0.408,0.904 0,0.743999 -0.592,1.152 -1.664,1.152 l -1.984,0 0,-0.128 c 0.336,-0.048 0.376,-0.056 0.456,-0.112 0.064,-0.04 0.112,-0.136 0.112,-0.224 0,-0.096 -0.04,-0.288 -0.096,-0.504 l -0.984,-3.536 c -0.144,-0.472 -0.2,-0.52 -0.648,-0.592 l 0,-0.128 1.952,0 0,0.128 c -0.488,0.064 -0.544,0.104 -0.544,0.368 0,0.08 0.024,0.184 0.096,0.464 l 0.448,1.672 0.52,-0.04 0.984,-2.592 1.184,0 0,0.128 m -2.072,4.632 c 0.048,0.168 0.152,0.224 0.408,0.224 0.664,0 0.992,-0.304001 0.992,-0.896 0,-0.791999 -0.512,-1.2 -1.512,-1.2 -0.128,0 -0.216,0.008 -0.408,0.04 l 0.52,1.832" /><path
       inkscape:connector-curvature="0"
       id="path3446"
       style="font-size:6px;font-style:italic;font-variant:normal;writing-mode:lr-tb;fill:#231f20;fill-opacity:1;fill-rule:nonzero;stroke:none;font-family:Times;-inkscape-font-specification:Times-Italic"
       d="m 178.95329,76.452582 -2.982,0 0,-0.096 c 0.372,-0.036 0.462,-0.084 0.462,-0.246 0,-0.066 -0.036,-0.276 -0.066,-0.384 l -0.738,-2.652 c -0.102,-0.342 -0.15,-0.384 -0.486,-0.444 l 0,-0.096 3.042,0 0.372,0.972 -0.096,0.048 c -0.282,-0.384 -0.438,-0.54 -0.696,-0.66 -0.222,-0.102 -0.63,-0.162 -1.08,-0.162 -0.336,0 -0.48,0.06 -0.48,0.204 0,0.066 0.066,0.348 0.216,0.876 0.078,0.263999 0.132,0.462 0.192,0.69 0.21,-0.012 0.396,-0.018 0.468,-0.018 0.234,0.006 0.402,-0.03 0.468,-0.09 0.03,-0.03 0.042,-0.084 0.042,-0.186 0,-0.102 -0.012,-0.18 -0.042,-0.312 l 0.12,-0.03 0.408,1.392 -0.108,0.024 c -0.228,-0.51 -0.282,-0.546 -0.828,-0.57 -0.072,0 -0.264,-0.006 -0.474,-0.012 l 0.396,1.398 c 0.036,0.132 0.102,0.156 0.438,0.156 0.942,0 1.152,-0.078 1.152,-0.438 0,-0.078 -0.006,-0.168 -0.012,-0.27 l 0.126,-0.012 0.186,0.918" /><path
       inkscape:connector-curvature="0"
       id="path3449"
       style="font-size:8px;font-style:italic;font-variant:normal;writing-mode:lr-tb;fill:#231f20;fill-opacity:1;fill-rule:nonzero;stroke:none;font-family:Times;-inkscape-font-specification:Times-Italic"
       d="m 148.13691,159.21923 1.952,0 0,0.128 c -0.456,0.056 -0.544,0.104 -0.544,0.328 0,0.152 0.016,0.248 0.088,0.504 l 0.984,3.544 c 0.144,0.464 0.2,0.512 0.656,0.592 l 0,0.128 -1.976,0 0,-0.128 c 0.464,-0.056 0.56,-0.12 0.56,-0.344 0,-0.112 -0.032,-0.296 -0.088,-0.496 l -0.984,-3.536 c -0.144,-0.464 -0.2,-0.512 -0.648,-0.592 l 0,-0.128" /><path
       inkscape:connector-curvature="0"
       id="path3452"
       style="font-size:6px;font-style:italic;font-variant:normal;writing-mode:lr-tb;fill:#231f20;fill-opacity:1;fill-rule:nonzero;stroke:none;font-family:Times;-inkscape-font-specification:Times-Italic"
       d="m 154.77698,160.00923 0.222,1.194 -0.126,0 c -0.048,-0.096 -0.108,-0.132 -0.228,-0.132 -0.048,0 -0.12,0.012 -0.246,0.042 -0.27,0.066 -0.51,0.102 -0.702,0.102 -1.278,0 -2.436,-1.206 -2.436,-2.538 0,-0.918 0.648,-1.566 1.566,-1.566 0.618,0 1.098,0.264 1.638,0.894 l -0.102,0.084 c -0.54,-0.528 -0.888,-0.708 -1.38,-0.708 -0.666,0 -1.05,0.456 -1.05,1.23 0,0.714 0.288,1.44 0.756,1.926 0.288,0.294 0.666,0.462 1.062,0.462 0.552,0 0.858,-0.324 0.918,-0.972 l 0.108,-0.018" /><path
       inkscape:connector-curvature="0"
       id="path3455"
       style="font-size:8px;font-style:italic;font-variant:normal;writing-mode:lr-tb;fill:#231f20;fill-opacity:1;fill-rule:nonzero;stroke:none;font-family:Times;-inkscape-font-specification:Times-Italic"
       d="m 150.29829,59.714637 1.952,0 0,0.128 c -0.456,0.056 -0.544,0.104 -0.544,0.328 0,0.152 0.016,0.248 0.088,0.504 l 0.984,3.544 c 0.144,0.464 0.2,0.512 0.656,0.592 l 0,0.128 -1.976,0 0,-0.128 c 0.464,-0.056 0.56,-0.12 0.56,-0.344 0,-0.112 -0.032,-0.296 -0.088,-0.496 l -0.984,-3.536 c -0.144,-0.463999 -0.2,-0.512 -0.648,-0.592 l 0,-0.128" /><path
       inkscape:connector-curvature="0"
       id="path3458"
       style="font-size:6px;font-style:italic;font-variant:normal;writing-mode:lr-tb;fill:#231f20;fill-opacity:1;fill-rule:nonzero;stroke:none;font-family:Times;-inkscape-font-specification:Times-Italic"
       d="m 156.83035,61.632637 -2.982,0 0,-0.096 c 0.372,-0.036 0.462,-0.084 0.462,-0.246 0,-0.066 -0.036,-0.276 -0.066,-0.384 l -0.738,-2.652 c -0.102,-0.342 -0.15,-0.384 -0.486,-0.444 l 0,-0.096 3.042,0 0.372,0.972 -0.096,0.048 c -0.282,-0.383999 -0.438,-0.54 -0.696,-0.66 -0.222,-0.102 -0.63,-0.162 -1.08,-0.162 -0.336,0 -0.48,0.06 -0.48,0.204 0,0.066 0.066,0.348001 0.216,0.876 0.078,0.264 0.132,0.462 0.192,0.69 0.21,-0.012 0.396,-0.018 0.468,-0.018 0.234,0.006 0.402,-0.03 0.468,-0.09 0.03,-0.03 0.042,-0.084 0.042,-0.186 0,-0.102 -0.012,-0.18 -0.042,-0.312 l 0.12,-0.03 0.408,1.392 -0.108,0.024 c -0.228,-0.509999 -0.282,-0.546 -0.828,-0.57 -0.072,0 -0.264,-0.006 -0.474,-0.012 l 0.396,1.398 c 0.036,0.132 0.102,0.156 0.438,0.156 0.942,0 1.152,-0.078 1.152,-0.438 0,-0.078 -0.006,-0.168 -0.012,-0.27 l 0.126,-0.012 0.186,0.918" /><path
       inkscape:connector-curvature="0"
       id="path3461"
       style="font-size:8px;font-style:italic;font-variant:normal;writing-mode:lr-tb;fill:#231f20;fill-opacity:1;fill-rule:nonzero;stroke:none;font-family:Times;-inkscape-font-specification:Times-Italic"
       d="m 25.895645,82.302642 -1.488,0 0,-0.128 c 0.36,-0.04 0.504,-0.12 0.504,-0.272 0,-0.152 -0.152,-0.496 -0.416,-0.952 l -1.648,-2.848 -0.528,3.544 c -0.008,0.04 -0.008,0.072 -0.008,0.12 0,0.272 0.112,0.352 0.616,0.408 l 0,0.128 -1.928,0 0,-0.128 c 0.448,-0.056 0.464,-0.08 0.632,-1.08 l 0.68,-4.16 0.152,0 2.984,4.92 c 0.136,0.216 0.264,0.312 0.448,0.32 l 0,0.128" /><path
       inkscape:connector-curvature="0"
       id="path3464"
       style="font-size:6px;font-style:italic;font-variant:normal;writing-mode:lr-tb;fill:#231f20;fill-opacity:1;fill-rule:nonzero;stroke:none;font-family:Times;-inkscape-font-specification:Times-Italic"
       d="m 25.231535,75.078642 1.692,0 c 0.942,0 1.59,0.492001 1.59,1.2 0,0.222 -0.072,0.432 -0.204,0.564 -0.12,0.138 -0.24,0.21 -0.552,0.342 0.426,0.102 0.6,0.174 0.792,0.342 0.168,0.144 0.258,0.348 0.258,0.588 0,0.569999 -0.426,0.882 -1.2,0.882 l -1.548,0 0,-0.096 c 0.372,-0.03 0.462,-0.078 0.462,-0.246 0,-0.09 -0.024,-0.24 -0.066,-0.384 l -0.738,-2.652 c -0.108,-0.348 -0.15,-0.384 -0.486,-0.444 l 0,-0.096 m 1.476,1.986 c 0.39,0 0.642,-0.024 0.762,-0.072 0.246,-0.102 0.396,-0.366 0.396,-0.69 0,-0.647999 -0.444,-1.044 -1.176,-1.044 -0.252,0 -0.384,0.09 -0.384,0.252 0,0.072 0.072,0.360001 0.21,0.84 0.078,0.27 0.114,0.408 0.192,0.714 m 0.45,1.584 c 0.036,0.132 0.108,0.168 0.342,0.168 0.48,0 0.702,-0.204 0.702,-0.648 0,-0.342 -0.144,-0.606 -0.402,-0.75 -0.204,-0.12 -0.492,-0.162 -1.032,-0.162 l 0.39,1.392" /><path
       inkscape:connector-curvature="0"
       id="path3467"
       style="font-size:8px;font-variant:normal;font-weight:normal;writing-mode:lr-tb;fill:#231f20;fill-opacity:1;fill-rule:nonzero;stroke:none;font-family:Symbol;-inkscape-font-specification:Symbol"
       d="m 169.04479,137.89964 -0.44,0 0,-1.912 -1.896,0 0,-0.44 1.896,0 0,-1.912 0.44,0 0,1.912 1.896,0 0,0.44 -1.896,0 0,1.912" /><path
       inkscape:connector-curvature="0"
       id="path3469"
       style="font-size:8px;font-variant:normal;font-weight:normal;writing-mode:lr-tb;fill:#231f20;fill-opacity:1;fill-rule:nonzero;stroke:none;font-family:Symbol;-inkscape-font-specification:Symbol"
       d="m 205.84252,97.274603 -0.44,0 0,-1.912 -1.896,0 0,-0.44 1.896,0 0,-1.912 0.44,0 0,1.912 1.896,0 0,0.44 -1.896,0 0,1.912" /><path
       inkscape:connector-curvature="0"
       id="path3471"
       style="font-size:8px;font-variant:normal;font-weight:normal;writing-mode:lr-tb;fill:#231f20;fill-opacity:1;fill-rule:nonzero;stroke:none;font-family:Symbol;-inkscape-font-specification:Symbol"
       d="m 166.71679,110.59784 0,-0.44 4.192,0 0,0.44 -4.192,0" /><path
       inkscape:connector-curvature="0"
       id="path3473"
       style="font-size:8px;font-variant:normal;font-weight:normal;writing-mode:lr-tb;fill:#231f20;fill-opacity:1;fill-rule:nonzero;stroke:none;font-family:Symbol;-inkscape-font-specification:Symbol"
       d="m 203.06716,38.060904 0,-0.44 4.192,0 0,0.44 -4.192,0" /><path
       inkscape:connector-curvature="0"
       id="path250"
       style="fill:#ffffff;fill-opacity:1;fill-rule:nonzero;stroke:none"
       d="m 216.71758,208.01397 c 0,-0.921 -0.746,-1.667 -1.667,-1.667 -0.92,0 -1.667,0.746 -1.667,1.667 0,0.92 0.747,1.667 1.667,1.667 0.921,0 1.667,-0.747 1.667,-1.667" /><path
       inkscape:connector-curvature="0"
       id="path252"
       style="fill:none;stroke:#231f20;stroke-width:0.5;stroke-linecap:butt;stroke-linejoin:miter;stroke-miterlimit:4;stroke-opacity:1;stroke-dasharray:none"
       d="m 216.71758,208.01397 c 0,-0.921 -0.746,-1.667 -1.667,-1.667 -0.92,0 -1.667,0.746 -1.667,1.667 0,0.92 0.747,1.667 1.667,1.667 0.921,0 1.667,-0.747 1.667,-1.667 z" /><path
       inkscape:connector-curvature="0"
       id="path254"
       style="fill:#231f20;fill-opacity:1;fill-rule:nonzero;stroke:none"
       d="m 164.29458,207.93197 c 0,-0.921 -0.746,-1.667 -1.6674,-1.667 -0.9207,0 -1.6668,0.746 -1.6668,1.667 0,0.92 0.7461,1.667 1.6668,1.667 0.9214,0 1.6674,-0.747 1.6674,-1.667" /><path
       inkscape:connector-curvature="0"
       id="path256"
       style="fill:#231f20;fill-opacity:1;fill-rule:nonzero;stroke:none"
       d="m 94.511083,124.29197 c 0,-0.921 -0.746,-1.6671 -1.6671,-1.6671 -0.9207,0 -1.6668,0.7461 -1.6668,1.6671 0,0.92 0.7461,1.667 1.6668,1.667 0.9211,0 1.6671,-0.747 1.6671,-1.667" /><path
       inkscape:connector-curvature="0"
       id="path258"
       style="fill:#231f20;fill-opacity:1;fill-rule:nonzero;stroke:none"
       d="m 129.56578,35.288173 c 0,-0.9211 -0.7461,-1.6672 -1.6672,-1.6672 -0.9207,0 -1.6667,0.7461 -1.6667,1.6672 0,0.9207 0.746,1.6668 1.6667,1.6668 0.9211,0 1.6672,-0.7461 1.6672,-1.6668" /><path
       d="m 92.792755,35.331458 -71.096095,0"
       style="fill:none;stroke:#231f20;stroke-width:0.49999997;stroke-linecap:butt;stroke-linejoin:miter;stroke-miterlimit:4;stroke-opacity:1;stroke-dasharray:1.99999999, 1.99999999;stroke-dashoffset:0"
       id="path3866"
       inkscape:connector-curvature="0" /><path
       d="m 92.123628,124.25318 -69.428818,0"
       style="fill:none;stroke:#231f20;stroke-width:0.49999997;stroke-linecap:butt;stroke-linejoin:miter;stroke-miterlimit:4;stroke-opacity:1;stroke-dasharray:1.99999999, 1.99999999;stroke-dashoffset:0"
       id="path3868"
       inkscape:connector-curvature="0" /></g></svg>