<?xml version="1.0" encoding="UTF-8" standalone="no"?>
<!-- Created with Inkscape (http://www.inkscape.org/) -->

<svg
   xmlns:dc="http://purl.org/dc/elements/1.1/"
   xmlns:cc="http://creativecommons.org/ns#"
   xmlns:rdf="http://www.w3.org/1999/02/22-rdf-syntax-ns#"
   xmlns:svg="http://www.w3.org/2000/svg"
   xmlns="http://www.w3.org/2000/svg"
   xmlns:sodipodi="http://sodipodi.sourceforge.net/DTD/sodipodi-0.dtd"
   xmlns:inkscape="http://www.inkscape.org/namespaces/inkscape"
   id="svg2"
   version="1.1"
   inkscape:version="0.48.4 r9939"
   width="143.25"
   height="147.1625"
   xml:space="preserve"
   sodipodi:docname="S3-EE-03-041.svg"><metadata
     id="metadata8"><rdf:RDF><cc:Work
         rdf:about=""><dc:format>image/svg+xml</dc:format><dc:type
           rdf:resource="http://purl.org/dc/dcmitype/StillImage" /><dc:title></dc:title></cc:Work></rdf:RDF></metadata><defs
     id="defs6" /><sodipodi:namedview
     pagecolor="#ffffff"
     bordercolor="#666666"
     borderopacity="1"
     objecttolerance="10"
     gridtolerance="10"
     guidetolerance="10"
     inkscape:pageopacity="0"
     inkscape:pageshadow="2"
     inkscape:window-width="1366"
     inkscape:window-height="744"
     id="namedview4"
     showgrid="false"
     inkscape:zoom="4.0567398"
     inkscape:cx="71.625"
     inkscape:cy="73.581253"
     inkscape:window-x="0"
     inkscape:window-y="24"
     inkscape:window-maximized="1"
     inkscape:current-layer="g10" /><g
     id="g10"
     inkscape:groupmode="layer"
     inkscape:label="ink_ext_XXXXXX"
     transform="matrix(1.25,0,0,-1.25,0,147.1625)"><path
       id="path3108"
       style="font-size:8px;font-style:italic;font-variant:normal;writing-mode:lr-tb;fill:#231f20;fill-opacity:1;fill-rule:nonzero;stroke:none;font-family:Times;-inkscape-font-specification:Times-Italic"
       d="m 107.084,116.341 -1.488,0 0,-0.128 c 0.36,-0.04 0.504,-0.12 0.504,-0.272 0,-0.152 -0.152,-0.496 -0.416,-0.952 l -1.648,-2.848 -0.528,3.544 c -0.008,0.04 -0.008,0.072 -0.008,0.12 0,0.272 0.112,0.352 0.616,0.408 l 0,0.128 -1.928,0 0,-0.128 c 0.448,-0.056 0.464,-0.08 0.632,-1.08 l 0.68,-4.16 0.152,0 2.984,4.92 c 0.136,0.216 0.264,0.312 0.448,0.32 l 0,0.128"
       inkscape:connector-curvature="0" /><path
       id="path3111"
       style="font-size:6px;font-style:italic;font-variant:normal;writing-mode:lr-tb;fill:#231f20;fill-opacity:1;fill-rule:nonzero;stroke:none;font-family:Times;-inkscape-font-specification:Times-Italic"
       d="m 110.37989,111.907 0.222,1.194 -0.126,0 c -0.048,-0.096 -0.108,-0.132 -0.228,-0.132 -0.048,0 -0.12,0.012 -0.246,0.042 -0.27,0.066 -0.51,0.102 -0.702,0.102 -1.278,0 -2.436,-1.206 -2.436,-2.538 0,-0.918 0.648,-1.566 1.566,-1.566 0.618,0 1.098,0.264 1.638,0.894 l -0.102,0.084 c -0.54,-0.528 -0.888,-0.708 -1.38,-0.708 -0.666,0 -1.05,0.456 -1.05,1.23 0,0.714 0.288,1.44 0.756,1.926 0.288,0.294 0.666,0.462 1.062,0.462 0.552,0 0.858,-0.324 0.918,-0.972 l 0.108,-0.018"
       inkscape:connector-curvature="0" /><path
       id="path3113"
       style="font-size:6px;font-style:italic;font-variant:normal;writing-mode:lr-tb;fill:#231f20;fill-opacity:1;fill-rule:nonzero;stroke:none;font-family:Times;-inkscape-font-specification:Times-Italic"
       d="m 114.38189,111.907 0.222,1.194 -0.126,0 c -0.048,-0.096 -0.108,-0.132 -0.228,-0.132 -0.048,0 -0.12,0.012 -0.246,0.042 -0.27,0.066 -0.51,0.102 -0.702,0.102 -1.278,0 -2.436,-1.206 -2.436,-2.538 0,-0.918 0.648,-1.566 1.566,-1.566 0.618,0 1.098,0.264 1.638,0.894 l -0.102,0.084 c -0.54,-0.528 -0.888,-0.708 -1.38,-0.708 -0.666,0 -1.05,0.456 -1.05,1.23 0,0.714 0.288,1.44 0.756,1.926 0.288,0.294 0.666,0.462 1.062,0.462 0.552,0 0.858,-0.324 0.918,-0.972 l 0.108,-0.018"
       inkscape:connector-curvature="0" /><path
       id="path24"
       style="fill:none;stroke:#231f20;stroke-width:0.80000000000000004;stroke-linecap:round;stroke-linejoin:miter;stroke-miterlimit:4;stroke-opacity:1;stroke-dasharray:none"
       d="m 16.552,114.389 0,-63.6124"
       inkscape:connector-curvature="0" /><path
       id="path26"
       style="fill:none;stroke:#231f20;stroke-width:0.56;stroke-linecap:butt;stroke-linejoin:miter;stroke-miterlimit:4;stroke-opacity:1;stroke-dasharray:none"
       d="m 25.8215,79.7742 0,17.052"
       inkscape:connector-curvature="0" /><path
       id="path28"
       style="fill:#231f20;fill-opacity:1;fill-rule:nonzero;stroke:none"
       d="m 25.837996,80.099275 1.794862,1.091073 0.04084,-0.06059 -1.162648,-2.927392 c -0.225266,-1.019676 -0.449203,-2.039794 -0.673051,-3.059913 -0.224912,1.020119 -0.449115,2.040237 -0.673406,3.059913 l -1.163357,2.927392 0.03012,0.06059 1.806645,-1.091073"
       inkscape:connector-curvature="0" /><path
       id="path30"
       style="fill:none;stroke:#231f20;stroke-width:0.56;stroke-linecap:butt;stroke-linejoin:miter;stroke-miterlimit:4;stroke-opacity:1;stroke-dasharray:none"
       d="m 55.1277,79.7742 0,17.052"
       inkscape:connector-curvature="0" /><path
       id="path32"
       style="fill:#231f20;fill-opacity:1;fill-rule:nonzero;stroke:none"
       d="m 55.111113,80.099275 1.795217,1.091073 0.04084,-0.06059 -1.162648,-2.927392 c -0.224912,-1.019676 -0.449114,-2.039794 -0.673406,-3.059913 -0.224911,1.020119 -0.44876,2.040237 -0.672608,3.059913 l -1.163711,2.927392 0.03047,0.06059 1.805847,-1.091073"
       inkscape:connector-curvature="0" /><path
       id="path34"
       style="fill:none;stroke:#231f20;stroke-width:0.8;stroke-linecap:butt;stroke-linejoin:miter;stroke-miterlimit:4;stroke-opacity:1;stroke-dasharray:none"
       d="m 63.8215,62.1777 0,52.2113 35.0879,0"
       inkscape:connector-curvature="0" /><path
       id="path3116"
       style="font-size:8px;font-style:italic;font-variant:normal;writing-mode:lr-tb;fill:#231f20;fill-opacity:1;fill-rule:nonzero;stroke:none;font-family:Times;-inkscape-font-specification:Times-Italic"
       d="m 71.6056,53.1681 -1.488,0 0,-0.128 c 0.36,-0.04 0.504,-0.12 0.504,-0.272 0,-0.152 -0.152,-0.496001 -0.416,-0.952 l -1.648,-2.848 -0.528,3.544 c -0.008,0.04 -0.008,0.072 -0.008,0.12 0,0.272 0.112,0.352 0.616,0.408 l 0,0.128 -1.928,0 0,-0.128 c 0.448,-0.056 0.464,-0.08 0.632,-1.08 l 0.68,-4.16 0.152,0 2.984,4.92 c 0.136,0.216 0.264,0.312 0.448,0.32 l 0,0.128"
       inkscape:connector-curvature="0" /><path
       id="path3119"
       style="font-size:6px;font-style:italic;font-variant:normal;writing-mode:lr-tb;fill:#231f20;fill-opacity:1;fill-rule:nonzero;stroke:none;font-family:Times;-inkscape-font-specification:Times-Italic"
       d="m 74.90149,48.7341 0.222,1.194 -0.126,0 c -0.048,-0.096 -0.108,-0.132 -0.228,-0.132 -0.048,0 -0.12,0.012 -0.246,0.042 -0.27,0.066 -0.51,0.102 -0.702,0.102 -1.277999,0 -2.436,-1.206001 -2.436,-2.538 0,-0.917999 0.648001,-1.566 1.566,-1.566 0.617999,0 1.098001,0.264001 1.638,0.894 l -0.102,0.084 c -0.54,-0.527999 -0.888,-0.708 -1.38,-0.708 -0.665999,0 -1.05,0.456001 -1.05,1.23 0,0.713999 0.288001,1.44 0.756,1.926 0.288,0.294 0.666,0.462 1.062,0.462 0.551999,0 0.858,-0.324001 0.918,-0.972 l 0.108,-0.018"
       inkscape:connector-curvature="0" /><path
       id="path3121"
       style="font-size:6px;font-style:italic;font-variant:normal;writing-mode:lr-tb;fill:#231f20;fill-opacity:1;fill-rule:nonzero;stroke:none;font-family:Times;-inkscape-font-specification:Times-Italic"
       d="m 78.79549,49.8621 -2.982,0 0,-0.096 c 0.372,-0.036 0.462,-0.084 0.462,-0.246 0,-0.066 -0.036,-0.276 -0.066,-0.384 l -0.738,-2.652 c -0.102,-0.342 -0.150001,-0.384 -0.486,-0.444 l 0,-0.096 3.042,0 0.372,0.972 -0.096,0.048 c -0.282,-0.384 -0.438,-0.54 -0.696,-0.66 -0.222,-0.102 -0.630001,-0.162 -1.08,-0.162 -0.336,0 -0.48,0.06 -0.48,0.204 0,0.066 0.066,0.348001 0.216,0.876 0.078,0.264 0.132,0.462 0.192,0.69 0.21,-0.012 0.396,-0.018 0.468,-0.018 0.234,0.006 0.402,-0.03 0.468,-0.09 0.03,-0.03 0.042,-0.084 0.042,-0.186 0,-0.102 -0.012,-0.18 -0.042,-0.312 l 0.12,-0.03 0.408,1.392 -0.108,0.024 c -0.228,-0.51 -0.282001,-0.546 -0.828,-0.57 -0.072,0 -0.264,-0.006 -0.474,-0.012 l 0.396,1.398 c 0.036,0.132 0.102,0.156 0.438,0.156 0.941999,0 1.152,-0.078 1.152,-0.438 0,-0.078 -0.006,-0.168 -0.012,-0.27 l 0.126,-0.012 0.186,0.918"
       inkscape:connector-curvature="0" /><path
       id="path3124"
       style="font-size:8px;font-style:italic;font-variant:normal;writing-mode:lr-tb;fill:#231f20;fill-opacity:1;fill-rule:nonzero;stroke:none;font-family:Times;-inkscape-font-specification:Times-Italic"
       d="m 76.245021,85.5186 c -0.352,0.024 -0.512,0.16 -0.664,0.576 l -0.744,1.96 c 0.615999,0.136 0.88,0.248 1.168,0.504 0.264,0.232 0.408,0.544 0.408,0.904 0,0.743999 -0.592001,1.152 -1.664,1.152 l -1.984,0 0,-0.128 c 0.336,-0.048 0.376,-0.056 0.456,-0.112 0.064,-0.04 0.112,-0.136 0.112,-0.224 0,-0.096 -0.04,-0.288 -0.096,-0.504 l -0.984,-3.536 c -0.144,-0.472 -0.2,-0.52 -0.648,-0.592 l 0,-0.128 1.952,0 0,0.128 c -0.487999,0.064 -0.544,0.104 -0.544,0.368 0,0.08 0.024,0.184 0.096,0.464 l 0.448,1.672 0.52,-0.04 0.984,-2.592 1.184,0 0,0.128 m -2.072,4.632 c 0.048,0.168 0.152,0.224 0.408,0.224 0.663999,0 0.992,-0.304001 0.992,-0.896 0,-0.791999 -0.512001,-1.2 -1.512,-1.2 -0.128,0 -0.216,0.008 -0.408,0.04 l 0.52,1.832"
       inkscape:connector-curvature="0" /><path
       id="path3127"
       style="font-size:6px;font-style:italic;font-variant:normal;writing-mode:lr-tb;fill:#231f20;fill-opacity:1;fill-rule:nonzero;stroke:none;font-family:Times;-inkscape-font-specification:Times-Italic"
       d="m 80.508911,86.1806 0.222,1.194 -0.126,0 c -0.048,-0.096 -0.108,-0.132 -0.228,-0.132 -0.048,0 -0.12,0.012 -0.246,0.042 -0.27,0.066 -0.51,0.102 -0.702,0.102 -1.277999,0 -2.436,-1.206001 -2.436,-2.538 0,-0.917999 0.648001,-1.566 1.566,-1.566 0.617999,0 1.098001,0.264001 1.638,0.894 l -0.102,0.084 c -0.539999,-0.527999 -0.888,-0.708 -1.38,-0.708 -0.665999,0 -1.05,0.456001 -1.05,1.23 0,0.713999 0.288,1.440001 0.756,1.926 0.288,0.294 0.666,0.462 1.062,0.462 0.551999,0 0.858,-0.324001 0.918,-0.972 l 0.108,-0.018"
       inkscape:connector-curvature="0" /><path
       id="path3130"
       style="font-size:8px;font-style:italic;font-variant:normal;writing-mode:lr-tb;fill:#231f20;fill-opacity:1;fill-rule:nonzero;stroke:none;font-family:Times;-inkscape-font-specification:Times-Italic"
       d="m 6.5882715,87.05408 c -0.3519996,0.024 -0.5120002,0.16 -0.664,0.576 l -0.744,1.96 c 0.6159994,0.136 0.8800003,0.248 1.168,0.504 0.2639997,0.232 0.408,0.544 0.408,0.904 0,0.743999 -0.5920011,1.152 -1.664,1.152 l -1.984,0 0,-0.128 c 0.3359997,-0.048 0.3760001,-0.056 0.456,-0.112 0.064,-0.04 0.112,-0.136 0.112,-0.224 0,-0.096 -0.04,-0.288 -0.096,-0.504 l -0.984,-3.536 c -0.1439999,-0.472 -0.2000005,-0.52 -0.648,-0.592 l 0,-0.128 1.952,0 0,0.128 c -0.4879995,0.064 -0.544,0.104 -0.544,0.368 0,0.08 0.024,0.184 0.096,0.464 l 0.448,1.672 0.52,-0.04 0.984,-2.592 1.184,0 0,0.128 m -2.072,4.632 c 0.048,0.168 0.1520003,0.224 0.408,0.224 0.6639993,0 0.992,-0.304001 0.992,-0.896 0,-0.791999 -0.512001,-1.2 -1.512,-1.2 -0.1279999,0 -0.2160002,0.008 -0.408,0.04 l 0.52,1.832"
       inkscape:connector-curvature="0" /><path
       id="path3133"
       style="font-size:6px;font-style:italic;font-variant:normal;writing-mode:lr-tb;fill:#231f20;fill-opacity:1;fill-rule:nonzero;stroke:none;font-family:Times;-inkscape-font-specification:Times-Italic"
       d="m 6.8917715,84.92608 1.692,0 c 0.9419991,0 1.5899995,0.492001 1.5899995,1.2 0,0.222 -0.072,0.432 -0.2039995,0.564 -0.1199999,0.138 -0.2400003,0.21 -0.552,0.342 0.4259996,0.102 0.6000005,0.174 0.7919995,0.342 0.168,0.144 0.258,0.348 0.258,0.588 0,0.569999 -0.426,0.882 -1.1999995,0.882 l -1.548,0 0,-0.096 c 0.3719996,-0.03 0.462,-0.078 0.462,-0.246 0,-0.09 -0.024,-0.24 -0.066,-0.384 l -0.738,-2.652 c -0.1079999,-0.348 -0.1500003,-0.384 -0.486,-0.444 l 0,-0.096 m 1.476,1.986 c 0.3899996,0 0.6420001,-0.024 0.762,-0.072 0.2459998,-0.102 0.396,-0.366 0.396,-0.69 0,-0.647999 -0.4440007,-1.044 -1.176,-1.044 -0.2519997,0 -0.384,0.09 -0.384,0.252 0,0.072 0.072,0.36 0.21,0.84 0.078,0.27 0.1140001,0.408 0.192,0.714 m 0.45,1.584 c 0.036,0.132 0.1080002,0.168 0.342,0.168 0.4799995,0 0.702,-0.204 0.702,-0.648 0,-0.342 -0.1440003,-0.606 -0.402,-0.75 -0.2039998,-0.12 -0.4920005,-0.162 -1.032,-0.162 l 0.39,1.392"
       inkscape:connector-curvature="0" /><path
       id="path3136"
       style="font-size:8px;font-style:italic;font-variant:normal;writing-mode:lr-tb;fill:#231f20;fill-opacity:1;fill-rule:nonzero;stroke:none;font-family:Times;-inkscape-font-specification:Times-Italic"
       d="m 37.039111,38.62432 -1.488,0 0,-0.128 c 0.36,-0.04 0.504,-0.12 0.504,-0.272 0,-0.152 -0.152,-0.496001 -0.416,-0.952 l -1.648,-2.848 -0.528,3.544 c -0.008,0.04 -0.008,0.072 -0.008,0.12 0,0.272 0.112001,0.352 0.616,0.408 l 0,0.128 -1.928,0 0,-0.128 c 0.448,-0.056 0.464,-0.08 0.632,-1.08 l 0.68,-4.16 0.152,0 2.984,4.92 c 0.136,0.216 0.264,0.312 0.448,0.32 l 0,0.128"
       inkscape:connector-curvature="0" /><path
       id="path3139"
       style="font-size:6px;font-style:italic;font-variant:normal;writing-mode:lr-tb;fill:#231f20;fill-opacity:1;fill-rule:nonzero;stroke:none;font-family:Times;-inkscape-font-specification:Times-Italic"
       d="m 36.375001,31.40032 1.692,0 c 0.941999,0 1.59,0.492001 1.59,1.2 0,0.222 -0.072,0.432 -0.204,0.564 -0.12,0.138 -0.24,0.21 -0.552,0.342 0.426,0.102 0.6,0.174 0.792,0.342 0.168,0.144 0.258,0.348 0.258,0.588 0,0.569999 -0.426001,0.882 -1.2,0.882 l -1.548,0 0,-0.096 c 0.372,-0.03 0.462,-0.078 0.462,-0.246 0,-0.09 -0.024,-0.24 -0.066,-0.384 l -0.738,-2.652 c -0.108,-0.348 -0.15,-0.384 -0.486,-0.444 l 0,-0.096 m 1.476,1.986 c 0.39,0 0.642,-0.024 0.762,-0.072 0.246,-0.102 0.396,-0.366 0.396,-0.69 0,-0.647999 -0.444001,-1.044 -1.176,-1.044 -0.252,0 -0.384,0.09 -0.384,0.252 0,0.072 0.072,0.36 0.21,0.84 0.078,0.27 0.114,0.408 0.192,0.714 m 0.45,1.584 c 0.036,0.132 0.108,0.168 0.342,0.168 0.479999,0 0.702,-0.204 0.702,-0.648 0,-0.342 -0.144,-0.606 -0.402,-0.75 -0.204,-0.12 -0.492001,-0.162 -1.032,-0.162 l 0.39,1.392"
       inkscape:connector-curvature="0" /><path
       id="path3141"
       style="font-size:6px;font-style:italic;font-variant:normal;writing-mode:lr-tb;fill:#231f20;fill-opacity:1;fill-rule:nonzero;stroke:none;font-family:Times;-inkscape-font-specification:Times-Italic"
       d="m 43.893001,35.31832 -2.982,0 0,-0.096 c 0.371999,-0.036 0.462,-0.084 0.462,-0.246 0,-0.066 -0.036,-0.276 -0.066,-0.384 l -0.738,-2.652 c -0.102,-0.342 -0.15,-0.384 -0.486,-0.444 l 0,-0.096 3.042,0 0.372,0.972 -0.096,0.048 c -0.282,-0.384 -0.438,-0.54 -0.696,-0.66 -0.222,-0.102 -0.630001,-0.162 -1.08,-0.162 -0.336,0 -0.48,0.06 -0.48,0.204 0,0.066 0.066,0.348001 0.216,0.876 0.078,0.264 0.132,0.462 0.192,0.69 0.21,-0.012 0.396,-0.018 0.468,-0.018 0.234,0.006 0.402,-0.03 0.468,-0.09 0.03,-0.03 0.042,-0.084 0.042,-0.186 0,-0.102 -0.012,-0.18 -0.042,-0.312 l 0.12,-0.03 0.408,1.392 -0.108,0.024 c -0.228,-0.51 -0.282001,-0.546 -0.828,-0.57 -0.072,0 -0.264,-0.006 -0.474,-0.012 l 0.396,1.398 c 0.036,0.132 0.102,0.156 0.438,0.156 0.941999,0 1.152,-0.078 1.152,-0.438 0,-0.078 -0.006,-0.168 -0.012,-0.27 l 0.126,-0.012 0.186,0.918"
       inkscape:connector-curvature="0" /><path
       id="path3144"
       style="font-size:8px;font-style:italic;font-variant:normal;writing-mode:lr-tb;fill:#231f20;fill-opacity:1;fill-rule:nonzero;stroke:none;font-family:Times;-inkscape-font-specification:Times-Italic"
       d="m 51.230901,65.95772 1.952,0 0,0.128 c -0.455999,0.056 -0.544,0.104 -0.544,0.328 0,0.152 0.016,0.248 0.088,0.504 l 0.984,3.544 c 0.144,0.463999 0.200001,0.512 0.656,0.592 l 0,0.128 -1.976,0 0,-0.128 c 0.464,-0.056 0.56,-0.12 0.56,-0.344 0,-0.112 -0.032,-0.296 -0.088,-0.496 l -0.984,-3.536 c -0.144,-0.464 -0.2,-0.512 -0.648,-0.592 l 0,-0.128"
       inkscape:connector-curvature="0" /><path
       id="path3147"
       style="font-size:6px;font-style:italic;font-variant:normal;writing-mode:lr-tb;fill:#231f20;fill-opacity:1;fill-rule:nonzero;stroke:none;font-family:Times;-inkscape-font-specification:Times-Italic"
       d="m 57.870961,66.74772 0.222,1.194 -0.126,0 c -0.048,-0.096 -0.108,-0.132 -0.228,-0.132 -0.048,0 -0.12,0.012 -0.246,0.042 -0.27,0.066 -0.51,0.102 -0.702,0.102 -1.277999,0 -2.436,-1.206001 -2.436,-2.538 0,-0.917999 0.648001,-1.566 1.566,-1.566 0.617999,0 1.098001,0.264001 1.638,0.894 l -0.102,0.084 c -0.54,-0.527999 -0.888,-0.708 -1.38,-0.708 -0.665999,0 -1.05,0.456001 -1.05,1.23 0,0.713999 0.288001,1.440001 0.756,1.926 0.288,0.294 0.666,0.462 1.062,0.462 0.551999,0 0.858,-0.324001 0.918,-0.972 l 0.108,-0.018"
       inkscape:connector-curvature="0" /><path
       id="path3150"
       style="font-size:8px;font-style:italic;font-variant:normal;writing-mode:lr-tb;fill:#231f20;fill-opacity:1;fill-rule:nonzero;stroke:none;font-family:Times;-inkscape-font-specification:Times-Italic"
       d="m 22.418361,65.95772 1.952,0 0,0.128 c -0.455999,0.056 -0.544,0.104 -0.544,0.328 0,0.152 0.016,0.248 0.088,0.504 l 0.984,3.544 c 0.144,0.463999 0.200001,0.512 0.656,0.592 l 0,0.128 -1.976,0 0,-0.128 c 0.463999,-0.056 0.56,-0.12 0.56,-0.344 0,-0.112 -0.032,-0.296 -0.088,-0.496 l -0.984,-3.536 c -0.144,-0.464 -0.2,-0.512 -0.648,-0.592 l 0,-0.128"
       inkscape:connector-curvature="0" /><path
       id="path3153"
       style="font-size:6px;font-style:italic;font-variant:normal;writing-mode:lr-tb;fill:#231f20;fill-opacity:1;fill-rule:nonzero;stroke:none;font-family:Times;-inkscape-font-specification:Times-Italic"
       d="m 25.098421,63.95772 1.692,0 c 0.941999,0 1.59,0.492001 1.59,1.2 0,0.222 -0.072,0.432 -0.204,0.564 -0.12,0.138 -0.24,0.21 -0.552,0.342 0.426,0.102 0.6,0.174 0.792,0.342 0.168,0.144 0.258,0.348 0.258,0.588 0,0.569999 -0.426001,0.882 -1.2,0.882 l -1.548,0 0,-0.096 c 0.372,-0.03 0.462,-0.078 0.462,-0.246 0,-0.09 -0.024,-0.24 -0.066,-0.384 l -0.738,-2.652 c -0.108,-0.348 -0.15,-0.384 -0.486,-0.444 l 0,-0.096 m 1.476,1.986 c 0.39,0 0.642,-0.024 0.762,-0.072 0.246,-0.102 0.396,-0.366 0.396,-0.69 0,-0.647999 -0.444001,-1.044 -1.176,-1.044 -0.252,0 -0.384,0.09 -0.384,0.252 0,0.072 0.072,0.36 0.21,0.84 0.078,0.27 0.114,0.408 0.192,0.714 m 0.45,1.584 c 0.036,0.132 0.108,0.168 0.342,0.168 0.479999,0 0.702,-0.204 0.702,-0.648 0,-0.342 -0.144,-0.606 -0.402,-0.75 -0.204,-0.12 -0.492001,-0.162 -1.032,-0.162 l 0.39,1.392"
       inkscape:connector-curvature="0" /><path
       id="path3156"
       style="font-size:8px;font-variant:normal;font-weight:normal;writing-mode:lr-tb;fill:#231f20;fill-opacity:1;fill-rule:nonzero;stroke:none;font-family:Symbol;-inkscape-font-specification:Symbol"
       d="m 38.161621,47.96472 -0.44,0 0,-1.912 -1.896,0 0,-0.44 1.896,0 0,-1.912 0.44,0 0,1.912 1.896,0 0,0.44 -1.896,0 0,1.912"
       inkscape:connector-curvature="0" /><path
       id="path3158"
       style="font-size:8px;font-variant:normal;font-weight:normal;writing-mode:lr-tb;fill:#231f20;fill-opacity:1;fill-rule:nonzero;stroke:none;font-family:Symbol;-inkscape-font-specification:Symbol"
       d="m 71.161621,63.46472 -0.44,0 0,-1.912 -1.896,0 0,-0.44 1.896,0 0,-1.912 0.44,0 0,1.912 1.896,0 0,0.44 -1.896,0 0,1.912"
       inkscape:connector-curvature="0" /><path
       id="path3160"
       style="font-size:8px;font-variant:normal;font-weight:normal;writing-mode:lr-tb;fill:#231f20;fill-opacity:1;fill-rule:nonzero;stroke:none;font-family:Symbol;-inkscape-font-specification:Symbol"
       d="m 48.833621,35.16092 0,-0.44 4.192,0 0,0.44 -4.192,0"
       inkscape:connector-curvature="0" /><path
       id="path3162"
       style="font-size:8px;font-variant:normal;font-weight:normal;writing-mode:lr-tb;fill:#231f20;fill-opacity:1;fill-rule:nonzero;stroke:none;font-family:Symbol;-inkscape-font-specification:Symbol"
       d="m 70.242221,37.95389 0,-0.44 4.192,0 0,0.44 -4.192,0"
       inkscape:connector-curvature="0" /><path
       id="path96"
       style="fill:#ffffff;fill-opacity:1;fill-rule:nonzero;stroke:none"
       d="m 60.2473,71.4941 7.46836,0 0,32.4512 -7.46836,0 0,-32.4512 z"
       inkscape:connector-curvature="0" /><path
       id="path98"
       style="fill:none;stroke:#231f20;stroke-width:0.80000001;stroke-linecap:round;stroke-linejoin:round;stroke-miterlimit:3.86369991;stroke-opacity:1;stroke-dasharray:none"
       d="m 63.825925,71.2715 0,3.6133 -3.6992,1.5703 7.4683,3.1484 -7.4683,3.1953 7.4683,3.1973 -7.4683,3.1504 7.4683,3.123 -7.4683,3.1504 7.3726,3.1973 -3.6734,1.5288 0,3.799"
       inkscape:connector-curvature="0" /><path
       id="path100"
       style="fill:#ffffff;fill-opacity:1;fill-rule:nonzero;stroke:none"
       d="m 12.8523,71.4941 7.46914,0 0,32.4512 -7.46914,0 0,-32.4512 z"
       inkscape:connector-curvature="0" /><path
       id="path102"
       style="fill:none;stroke:#231f20;stroke-width:0.80000001;stroke-linecap:round;stroke-linejoin:round;stroke-miterlimit:3.86369991;stroke-opacity:1;stroke-dasharray:none"
       d="m 16.552,71.2715 0,3.6133 -3.6997,1.5703 7.4692,3.1484 -7.4692,3.1953 7.4692,3.1973 -7.4692,3.1504 7.4692,3.123 -7.4692,3.1504 7.3735,3.1973 -3.6738,1.5288 0,3.799"
       inkscape:connector-curvature="0" /><path
       id="path104"
       style="fill:none;stroke:#231f20;stroke-width:0.80000001;stroke-linecap:round;stroke-linejoin:round;stroke-miterlimit:3.86369991;stroke-opacity:1;stroke-dasharray:none"
       d="m 47.084,56.149199 16.721226,6.114624"
       inkscape:connector-curvature="0" /><path
       id="path106"
       style="fill:none;stroke:#231f20;stroke-width:2;stroke-linecap:round;stroke-linejoin:round;stroke-miterlimit:3.86369991;stroke-opacity:1;stroke-dasharray:none"
       d="m 46.7266,41.9207 0,18.8051"
       inkscape:connector-curvature="0" /><path
       id="path108"
       style="fill:none;stroke:#231f20;stroke-width:0.80000001;stroke-linecap:round;stroke-linejoin:round;stroke-miterlimit:3.86369991;stroke-opacity:1;stroke-dasharray:none"
       d="M 47.4785,45.177 61.6113,37.2449"
       inkscape:connector-curvature="0" /><path
       id="path110"
       style="fill:#231f20;fill-opacity:1;fill-rule:nonzero;stroke:none"
       d="m 58.8887,38.5242 -0.0899,2.5278 0.0899,0.0066 2.3886,-2.9465 c 0.9375,-0.8355 1.877,-1.6734 2.8145,-2.5098 -1.2031,0.3657 -2.4063,0.7305 -3.6094,1.0957 l -3.7578,0.5051 -0.0469,0.0684 2.211,1.2527"
       inkscape:connector-curvature="0" /><path
       id="path112"
       style="fill:none;stroke:#231f20;stroke-width:0.8;stroke-linecap:butt;stroke-linejoin:miter;stroke-miterlimit:4;stroke-opacity:1;stroke-dasharray:none"
       d="m 16.552,50.7766 0,-0.0141 30.3101,0"
       inkscape:connector-curvature="0" /><path
       id="path114"
       style="fill:none;stroke:#231f20;stroke-width:0.8;stroke-linecap:butt;stroke-linejoin:miter;stroke-miterlimit:4;stroke-opacity:1;stroke-dasharray:none"
       d="m 63.8215,114.389 -47.2695,0"
       inkscape:connector-curvature="0" /><path
       id="path116"
       style="fill:#ffffff;fill-opacity:1;fill-rule:nonzero;stroke:none"
       d="m 99.582,114.389 c 0,-0.92 -0.7461,-1.666 -1.6672,-1.666 -0.9207,0 -1.6668,0.746 -1.6668,1.666 0,0.922 0.7461,1.668 1.6668,1.668 0.9211,0 1.6672,-0.746 1.6672,-1.668"
       inkscape:connector-curvature="0" /><path
       id="path118"
       style="fill:none;stroke:#231f20;stroke-width:0.5;stroke-linecap:butt;stroke-linejoin:miter;stroke-miterlimit:4;stroke-opacity:1;stroke-dasharray:none"
       d="m 99.582,114.389 c 0,-0.92 -0.7461,-1.666 -1.6672,-1.666 -0.9207,0 -1.6668,0.746 -1.6668,1.666 0,0.922 0.7461,1.668 1.6668,1.668 0.9211,0 1.6672,-0.746 1.6672,-1.668 z"
       inkscape:connector-curvature="0" /><path
       id="path120"
       style="fill:#231f20;fill-opacity:1;fill-rule:nonzero;stroke:none"
       d="m 65.4883,114.389 c 0,-0.92 -0.7461,-1.666 -1.6668,-1.666 -0.9211,0 -1.6672,0.746 -1.6672,1.666 0,0.922 0.7461,1.668 1.6672,1.668 0.9207,0 1.6668,-0.746 1.6668,-1.668"
       inkscape:connector-curvature="0" /><path
       id="path122"
       style="fill:#000000;stroke:#231f20;stroke-width:0.80000000999999998;stroke-linecap:round;stroke-linejoin:round;stroke-miterlimit:3.86369990999999979;stroke-opacity:1;stroke-dasharray:none"
       d="m 63.7715,12.1172 0,-6.43009"
       inkscape:connector-curvature="0" /><path
       id="path124"
       style="fill:#000000;stroke:#231f20;stroke-width:0.80000000999999998;stroke-linecap:round;stroke-linejoin:round;stroke-miterlimit:3.86369990999999979;stroke-opacity:1;stroke-dasharray:none"
       d="m 70.7715,5.68711 -14,0"
       inkscape:connector-curvature="0" /><path
       id="path126"
       style="fill:#000000;stroke:#231f20;stroke-width:0.80000000999999998;stroke-linecap:round;stroke-linejoin:round;stroke-miterlimit:3.86369990999999979;stroke-opacity:1;stroke-dasharray:none"
       d="m 69.2715,3.04219 -11,0"
       inkscape:connector-curvature="0" /><path
       id="path128"
       style="fill:#000000;stroke:#231f20;stroke-width:0.80000000999999998;stroke-linecap:round;stroke-linejoin:round;stroke-miterlimit:3.86369990999999979;stroke-opacity:1;stroke-dasharray:none"
       d="m 67.7715,0.4 -8,0"
       inkscape:connector-curvature="0" /><path
       id="path130"
       style="fill:none;stroke:#231f20;stroke-width:0.80000001;stroke-linecap:round;stroke-linejoin:miter;stroke-miterlimit:4;stroke-opacity:1;stroke-dasharray:none"
       d="m 63.7766,35.466363 0,-26.8630191"
       inkscape:connector-curvature="0" /></g></svg>