<?xml version="1.0" encoding="UTF-8" standalone="no"?>
<!-- Created with Inkscape (http://www.inkscape.org/) -->

<svg
   xmlns:ns0="http://www.iki.fi/pav/software/textext/"
   xmlns:dc="http://purl.org/dc/elements/1.1/"
   xmlns:cc="http://creativecommons.org/ns#"
   xmlns:rdf="http://www.w3.org/1999/02/22-rdf-syntax-ns#"
   xmlns:svg="http://www.w3.org/2000/svg"
   xmlns="http://www.w3.org/2000/svg"
   xmlns:sodipodi="http://sodipodi.sourceforge.net/DTD/sodipodi-0.dtd"
   xmlns:inkscape="http://www.inkscape.org/namespaces/inkscape"
   id="svg2"
   version="1.1"
   inkscape:version="0.48.4 r9939"
   width="283.46457"
   height="212.59842"
   xml:space="preserve"
   sodipodi:docname="S3-EE-03-IN008.svg"><sodipodi:namedview
     pagecolor="#ffffff"
     bordercolor="#666666"
     borderopacity="1"
     objecttolerance="10"
     gridtolerance="10"
     guidetolerance="10"
     inkscape:pageopacity="0"
     inkscape:pageshadow="2"
     inkscape:window-width="1366"
     inkscape:window-height="744"
     id="namedview4"
     showgrid="false"
     units="cm"
     inkscape:zoom="2.8081112"
     inkscape:cx="155.16621"
     inkscape:cy="112.97912"
     inkscape:window-x="0"
     inkscape:window-y="24"
     inkscape:window-maximized="1"
     inkscape:current-layer="g10"><inkscape:grid
       type="xygrid"
       id="grid4379"
       empspacing="5"
       visible="true"
       enabled="true"
       snapvisiblegridlinesonly="true" /></sodipodi:namedview><metadata
     id="metadata8"><rdf:RDF><cc:Work
         rdf:about=""><dc:format>image/svg+xml</dc:format><dc:type
           rdf:resource="http://purl.org/dc/dcmitype/StillImage" /><dc:title></dc:title></cc:Work></rdf:RDF></metadata><defs
     id="defs6" /><g
     transform="matrix(1.25,0,0,-1.25,0,212.59842)"
     inkscape:label="ink_ext_XXXXXX"
     inkscape:groupmode="layer"
     id="g10"><path
       d="m 154.64023,80.688831 -1.44,-0.728 0,-0.112 c 0.096,0.04 0.184,0.072 0.216,0.088 0.144,0.056 0.28,0.088 0.36,0.088 0.168,0 0.24,-0.12 0.24,-0.376 l 0,-3.624 c 0,-0.264 -0.064,-0.448 -0.192,-0.52 -0.12,-0.072 -0.232,-0.096 -0.568,-0.104 l 0,-0.12 2.208,0 0,0.12 c -0.632,0.008 -0.76,0.088 -0.76,0.472 l 0,4.8 -0.064,0.016"
       style="font-size:8px;font-variant:normal;font-weight:normal;writing-mode:lr-tb;fill:#231f20;fill-opacity:1;fill-rule:nonzero;stroke:none;font-family:Times;-inkscape-font-specification:Times-Roman"
       id="path3164"
       inkscape:connector-curvature="0" /><path
       d="m 158.34423,80.688831 c -0.44,0 -0.776,-0.136 -1.072,-0.416 -0.464,-0.448 -0.768,-1.368001 -0.768,-2.304 0,-0.871999 0.264,-1.808 0.64,-2.256 0.296,-0.352 0.704,-0.544 1.168,-0.544 0.408,0 0.752,0.136 1.04,0.416 0.464,0.44 0.768,1.368001 0.768,2.336 0,1.639998 -0.728,2.768 -1.776,2.768 m -0.024,-0.208 c 0.672,0 1.032,-0.904002 1.032,-2.576 0,-1.671998 -0.352,-2.528 -1.04,-2.528 -0.688,0 -1.04,0.856002 -1.04,2.52 0,1.695998 0.36,2.584 1.048,2.584"
       style="font-size:8px;font-variant:normal;font-weight:normal;writing-mode:lr-tb;fill:#231f20;fill-opacity:1;fill-rule:nonzero;stroke:none;font-family:Times;-inkscape-font-specification:Times-Roman"
       id="path3166"
       inkscape:connector-curvature="0" /><path
       d="m 165.84823,79.280831 -0.712,0 0.008,-2.952 c -0.288,-0.408 -0.56,-0.584 -0.896,-0.584 -0.464,0 -0.736,0.328001 -0.736,0.888 l 0,2.648 -0.704,0 0,-3.84 c 0,-0.168 -0.032,-0.368 -0.088,-0.608 -0.136,-0.495999 -0.144,-0.544 -0.144,-0.728 0,-0.336 0.168,-0.576 0.4,-0.576 0.232,0 0.392,0.24 0.392,0.592 0,0.168 -0.024,0.272 -0.152,0.736 -0.08,0.288 -0.096,0.368 -0.096,0.592 l 0,0.096 c 0.336,-0.28 0.52,-0.368 0.792,-0.368 0.4,0 0.808,0.248 1.232,0.744 0.064,-0.256 0.104,-0.352 0.184,-0.472 0.12,-0.168 0.336,-0.272 0.568,-0.272 0.496,0 0.84,0.352001 0.952,0.968 l -0.216,0.008 c -0.032,-0.304 -0.2,-0.544 -0.384,-0.544 -0.24,0 -0.4,0.288 -0.4,0.72 l 0,2.952"
       style="font-size:8px;font-variant:normal;font-weight:normal;writing-mode:lr-tb;fill:#231f20;fill-opacity:1;fill-rule:nonzero;stroke:none;font-family:Symbol;-inkscape-font-specification:Symbol"
       id="path3169"
       inkscape:connector-curvature="0" /><path
       d="m 170.75321,77.128831 0,1.856 -0.184,0 c -0.096,-0.639999 -0.24,-0.76 -0.88,-0.76 l -1.16,0 0,1.776 c 0,0.224 0.04,0.272 0.256,0.272 l 1.088,0 c 0.904,0 1.08,-0.120001 1.216,-0.84 l 0.2,0 -0.024,1.144 -4.248,0 0,-0.152 c 0.592,-0.048 0.696,-0.160001 0.696,-0.72 l 0,-3.464 c 0,-0.663999 -0.088,-0.768 -0.696,-0.808 l 0,-0.152 2.24,0 0,0.152 c -0.616,0.032 -0.728,0.144001 -0.728,0.72 l 0,1.744 1.16,0 c 0.648,0 0.784,-0.120001 0.88,-0.768 l 0.184,0"
       style="font-size:8px;font-variant:normal;font-weight:normal;writing-mode:lr-tb;fill:#231f20;fill-opacity:1;fill-rule:nonzero;stroke:none;font-family:Times;-inkscape-font-specification:Times-Roman"
       id="path3172"
       inkscape:connector-curvature="0" /><path
       d="m 54.307214,65.020831 -1.44,-0.728 0,-0.112 c 0.096,0.04 0.184,0.072 0.216,0.088 0.144,0.056 0.28,0.088 0.36,0.088 0.168,0 0.24,-0.12 0.24,-0.376 l 0,-3.624 c 0,-0.264 -0.064,-0.448 -0.192,-0.52 -0.12,-0.072 -0.232,-0.096 -0.568,-0.104 l 0,-0.12 2.208,0 0,0.12 c -0.632,0.008 -0.76,0.088 -0.76,0.472 l 0,4.8 -0.064,0.016"
       style="font-size:8px;font-variant:normal;font-weight:normal;writing-mode:lr-tb;fill:#231f20;fill-opacity:1;fill-rule:nonzero;stroke:none;font-family:Times;-inkscape-font-specification:Times-Roman"
       id="path3174"
       inkscape:connector-curvature="0" /><path
       d="m 58.011214,65.020831 c -0.44,0 -0.776,-0.136001 -1.072,-0.416 -0.464,-0.448 -0.768,-1.368001 -0.768,-2.304 0,-0.871999 0.264,-1.808001 0.64,-2.256 0.296,-0.352 0.704,-0.544 1.168,-0.544 0.408,0 0.752,0.136 1.04,0.416 0.464,0.439999 0.768,1.368001 0.768,2.336 0,1.639998 -0.728,2.768 -1.776,2.768 m -0.024,-0.208 c 0.672,0 1.032,-0.904002 1.032,-2.576 0,-1.671999 -0.352,-2.528 -1.04,-2.528 -0.688,0 -1.04,0.856001 -1.04,2.52 0,1.695998 0.36,2.584 1.048,2.584"
       style="font-size:8px;font-variant:normal;font-weight:normal;writing-mode:lr-tb;fill:#231f20;fill-opacity:1;fill-rule:nonzero;stroke:none;font-family:Times;-inkscape-font-specification:Times-Roman"
       id="path3176"
       inkscape:connector-curvature="0" /><path
       d="m 65.515214,63.612831 -0.712,0 0.008,-2.952 c -0.288,-0.408 -0.56,-0.584 -0.896,-0.584 -0.464,0 -0.736,0.328001 -0.736,0.888 l 0,2.648 -0.704,0 0,-3.84 c 0,-0.168 -0.032,-0.368 -0.088,-0.608 -0.136,-0.495999 -0.144,-0.544 -0.144,-0.728 0,-0.336 0.168,-0.576 0.4,-0.576 0.232,0 0.392,0.24 0.392,0.592 0,0.168 -0.024,0.272 -0.152,0.736 -0.08,0.288 -0.096,0.368 -0.096,0.592 l 0,0.096 c 0.336,-0.28 0.52,-0.368 0.792,-0.368 0.4,0 0.808,0.248 1.232,0.744 0.064,-0.256 0.104,-0.352 0.184,-0.472 0.12,-0.168 0.336,-0.272 0.568,-0.272 0.495999,0 0.84,0.352001 0.952,0.968 l -0.216,0.008 c -0.032,-0.304 -0.2,-0.544 -0.384,-0.544 -0.24,0 -0.4,0.288 -0.4,0.72 l 0,2.952"
       style="font-size:8px;font-variant:normal;font-weight:normal;writing-mode:lr-tb;fill:#231f20;fill-opacity:1;fill-rule:nonzero;stroke:none;font-family:Symbol;-inkscape-font-specification:Symbol"
       id="path3179"
       inkscape:connector-curvature="0" /><path
       d="m 70.419414,61.460831 0,1.856 -0.184,0 c -0.096,-0.639999 -0.240001,-0.76 -0.88,-0.76 l -1.16,0 0,1.776 c 0,0.224 0.04,0.272 0.256,0.272 l 1.088,0 c 0.903999,0 1.08,-0.120001 1.216,-0.84 l 0.2,0 -0.024,1.144 -4.248,0 0,-0.152 c 0.591999,-0.048 0.696,-0.160001 0.696,-0.72 l 0,-3.464 c 0,-0.663999 -0.088,-0.768 -0.696,-0.808 l 0,-0.152 2.24,0 0,0.152 c -0.615999,0.032 -0.728,0.144001 -0.728,0.72 l 0,1.744 1.16,0 c 0.647999,0 0.784,-0.120001 0.88,-0.768 l 0.184,0"
       style="font-size:8px;font-variant:normal;font-weight:normal;writing-mode:lr-tb;fill:#231f20;fill-opacity:1;fill-rule:nonzero;stroke:none;font-family:Times;-inkscape-font-specification:Times-Roman"
       id="path3182"
       inkscape:connector-curvature="0" /><path
       d="m 56.451603,101.63147 -0.104,0.04 c -0.296,-0.456 -0.400001,-0.528 -0.76,-0.528 l -1.912,0 1.344,1.408 c 0.711999,0.744 1.024,1.352 1.024,1.976 0,0.8 -0.648001,1.416 -1.48,1.416 -0.44,0 -0.856001,-0.176 -1.152,-0.496 -0.256,-0.272 -0.376,-0.528 -0.512,-1.096 l 0.168,-0.04 c 0.319999,0.784 0.608,1.04 1.16,1.04 0.671999,0 1.128,-0.456 1.128,-1.128 0,-0.624 -0.368001,-1.368 -1.04,-2.08 l -1.424,-1.512 0,-0.096 3.12,0 0.44,1.096"
       style="font-size:8px;font-variant:normal;font-weight:normal;writing-mode:lr-tb;fill:#231f20;fill-opacity:1;fill-rule:nonzero;stroke:none;font-family:Times;-inkscape-font-specification:Times-Roman"
       id="path3184"
       inkscape:connector-curvature="0" /><path
       d="m 60.427603,102.38347 -0.816,0 0,3.56 -0.352,0 -2.512,-3.56 0,-0.512 2.248,0 0,-1.336 0.616,0 0,1.336 0.816,0 0,0.512 m -1.44,0 -1.92,0 1.92,2.744 0,-2.744"
       style="font-size:8px;font-variant:normal;font-weight:normal;writing-mode:lr-tb;fill:#231f20;fill-opacity:1;fill-rule:nonzero;stroke:none;font-family:Times;-inkscape-font-specification:Times-Roman"
       id="path3186"
       inkscape:connector-curvature="0" /><path
       d="m 62.683603,105.94347 c -0.439999,0 -0.776,-0.136 -1.072,-0.416 -0.463999,-0.448 -0.768,-1.368 -0.768,-2.304 0,-0.872 0.264001,-1.808 0.64,-2.256 0.296,-0.352 0.704001,-0.544 1.168,-0.544 0.408,0 0.752001,0.136 1.04,0.416 0.464,0.44 0.768,1.368 0.768,2.336 0,1.64 -0.728001,2.768 -1.776,2.768 m -0.024,-0.208 c 0.672,0 1.032,-0.904 1.032,-2.576 0,-1.672 -0.352,-2.528 -1.04,-2.528 -0.687999,0 -1.04,0.856 -1.04,2.52 0,1.696 0.360001,2.584 1.048,2.584"
       style="font-size:8px;font-variant:normal;font-weight:normal;writing-mode:lr-tb;fill:#231f20;fill-opacity:1;fill-rule:nonzero;stroke:none;font-family:Times;-inkscape-font-specification:Times-Roman"
       id="path3188"
       inkscape:connector-curvature="0" /><path
       d="m 66.707603,105.51947 c 0.104,0.008 0.176,0.016 0.256,0.016 0.264,0 0.344,-0.104 0.344,-0.488 l 0,-3.856 c 0,-0.416 -0.024,-0.44 -0.6,-0.536 l 0,-0.12 1.872,0 0,0.12 -0.16,0.008 c -0.32,0.016 -0.44,0.128 -0.44,0.408 l 0,1.472 1.12,-1.496 0.024,-0.032 c 0.016,-0.024 0.032,-0.048 0.056,-0.072 0.064,-0.08 0.088,-0.128 0.088,-0.168 0,-0.072 -0.072,-0.12 -0.168,-0.12 l -0.152,0 0,-0.12 1.744,0 0,0.12 c -0.352,0.024 -0.6,0.176 -0.936,0.584 l -1.224,1.552 0.232,0.216 c 0.567999,0.528 1.064,0.896 1.296,0.96 0.12,0.032 0.232,0.048 0.368,0.048 l 0.064,0 0,0.12 -1.632,0 0,-0.112 c 0.312,-0.008 0.4,-0.04 0.4,-0.152 0,-0.064 -0.072,-0.176 -0.184,-0.272 l -1.096,-0.976 0,3.36 -0.032,0.016 c -0.304,-0.096 -0.536,-0.16 -1,-0.288 l -0.24,-0.064 0,-0.128"
       style="font-size:8px;font-variant:normal;font-weight:normal;writing-mode:lr-tb;fill:#231f20;fill-opacity:1;fill-rule:nonzero;stroke:none;font-family:Times;-inkscape-font-specification:Times-Roman"
       id="path3190"
       inkscape:connector-curvature="0" /><path
       d="m 73.402047,100.49586 -0.144,1.24 c -0.623999,0.352 -1.024,1.064 -1.024,1.816 0,0.416 0.12,0.888 0.328,1.264 0.288,0.52 0.768001,0.816 1.312,0.816 0.543999,0 1.024,-0.296 1.312,-0.816 0.208,-0.376 0.328,-0.848 0.328,-1.264 0,-0.752 -0.400001,-1.464 -1.024,-1.816 l -0.144,-1.24 2.336,0 0,1.224 -0.192,0 c -0.056,-0.352 -0.232,-0.504 -0.552,-0.504 l -1.168,0 0.024,0.304 c 0.28,0.104 0.448,0.184 0.64,0.304 0.607999,0.392 0.976,1.04 0.976,1.728 0,0.528 -0.232,1.12 -0.616,1.568 -0.487999,0.56 -1.160001,0.864 -1.92,0.864 -0.759999,0 -1.432001,-0.304 -1.92,-0.864 -0.384,-0.448 -0.616,-1.04 -0.616,-1.568 0,-0.688 0.368001,-1.336 0.976,-1.728 0.184,-0.12 0.352,-0.2 0.64,-0.304 l 0.024,-0.304 -1.168,0 c -0.32,0 -0.496,0.152 -0.552,0.504 l -0.192,0 0,-1.224 2.336,0"
       style="font-size:8px;font-variant:normal;font-weight:normal;writing-mode:lr-tb;fill:#231f20;fill-opacity:1;fill-rule:nonzero;stroke:none;font-family:Symbol;-inkscape-font-specification:Symbol"
       id="path3193"
       inkscape:connector-curvature="0" /><path
       d="m 185.90971,90.933231 c 0.088,0.008 0.152,0.008 0.24,0.008 0.312,0 0.392,-0.136001 0.504,-0.872 0.08,-0.551999 0.176,-1.76 0.176,-2.224 0,-0.224 0.016,-0.28 0.072,-0.28 0.2,0 0.944,0.848001 1.76,1.984 0.28,0.4 0.488,0.92 0.488,1.216 0,0.256 -0.208,0.472 -0.448,0.472 -0.176,0 -0.296,-0.104 -0.296,-0.272 0,-0.128 0.048,-0.224 0.192,-0.352 0.104,-0.096 0.144,-0.16 0.144,-0.24 0,-0.368 -0.528,-1.256001 -1.096,-1.848 l -0.248,-0.256 c -0.056,1.127999 -0.104,1.544001 -0.208,2.136 -0.16,0.815999 -0.16,0.832 -0.232,0.832 -0.04,0 -0.096,-0.008 -0.16,-0.032 -0.144,-0.04 -0.584,-0.12 -0.888,-0.168 l 0,-0.104"
       style="font-size:8px;font-style:italic;font-variant:normal;writing-mode:lr-tb;fill:#231f20;fill-opacity:1;fill-rule:nonzero;stroke:none;font-family:Times;-inkscape-font-specification:Times-Italic"
       id="path3196"
       inkscape:connector-curvature="0" /><path
       d="m 191.24366,88.355231 c -0.9,0 -1.788,-0.930001 -1.788,-1.872 0,-0.515999 0.336,-0.84 0.882,-0.84 0.396,0 0.78,0.18 1.128,0.522 0.396,0.39 0.636,0.9 0.636,1.35 0,0.498 -0.348,0.84 -0.858,0.84 m -0.072,-0.126 c 0.258,0 0.426,-0.222 0.426,-0.564 0,-0.438 -0.198,-1.038 -0.462,-1.428 -0.222,-0.318 -0.45,-0.468 -0.708,-0.468 -0.282,0 -0.468,0.216 -0.468,0.546 0,0.444 0.174,0.972 0.468,1.398 0.234,0.336 0.486,0.516 0.744,0.516"
       style="font-size:6px;font-style:italic;font-variant:normal;writing-mode:lr-tb;fill:#231f20;fill-opacity:1;fill-rule:nonzero;stroke:none;font-family:Times;-inkscape-font-specification:Times-Italic"
       id="path3199"
       inkscape:connector-curvature="0" /><path
       d="m 82.840034,136.46223 0,-63.612999"
       style="fill:none;stroke:#231f20;stroke-width:0.80000000999999998;stroke-linecap:round;stroke-linejoin:miter;stroke-miterlimit:4;stroke-opacity:1;stroke-dasharray:none"
       id="path52"
       inkscape:connector-curvature="0" /><path
       d="m 130.29496,136.46223 50.26178,0"
       style="fill:none;stroke:#231f20;stroke-width:0.79999995;stroke-linecap:butt;stroke-linejoin:miter;stroke-miterlimit:4;stroke-opacity:1;stroke-dasharray:none"
       id="path54"
       inkscape:connector-curvature="0"
       sodipodi:nodetypes="cc" /><path
       d="m 130.10913,84.250331 0,52.211899"
       style="fill:none;stroke:#231f20;stroke-width:0.80000001;stroke-linecap:butt;stroke-linejoin:miter;stroke-miterlimit:4;stroke-opacity:1;stroke-dasharray:none"
       id="path56"
       inkscape:connector-curvature="0" /><path
       d="m 82.659134,72.835531 -52.2109,-0.0012"
       style="fill:none;stroke:#231f20;stroke-width:0.80000001;stroke-linecap:butt;stroke-linejoin:miter;stroke-miterlimit:4;stroke-opacity:1;stroke-dasharray:none"
       id="path58"
       inkscape:connector-curvature="0" /><path
       d="m 194.62452,137.92123 -1.488,0 0,-0.128 c 0.36,-0.04 0.504,-0.12 0.504,-0.272 0,-0.152 -0.152,-0.496 -0.416,-0.952 l -1.648,-2.848 -0.528,3.544 c -0.008,0.04 -0.008,0.072 -0.008,0.12 0,0.272 0.112,0.352 0.616,0.408 l 0,0.128 -1.928,0 0,-0.128 c 0.448,-0.056 0.464,-0.08 0.632,-1.08 l 0.68,-4.16 0.152,0 2.984,4.92 c 0.136,0.216 0.264,0.312 0.448,0.32 l 0,0.128"
       style="font-size:8px;font-style:italic;font-variant:normal;writing-mode:lr-tb;fill:#231f20;fill-opacity:1;fill-rule:nonzero;stroke:none;font-family:Times;-inkscape-font-specification:Times-Italic"
       id="path3202"
       inkscape:connector-curvature="0" /><path
       d="m 197.92041,133.48723 0.222,1.194 -0.126,0 c -0.048,-0.096 -0.108,-0.132 -0.228,-0.132 -0.048,0 -0.12,0.012 -0.246,0.042 -0.27,0.066 -0.51,0.102 -0.702,0.102 -1.278,0 -2.436,-1.206 -2.436,-2.538 0,-0.918 0.648,-1.566 1.566,-1.566 0.618,0 1.098,0.264 1.638,0.894 l -0.102,0.084 c -0.54,-0.528 -0.888,-0.708 -1.38,-0.708 -0.666,0 -1.05,0.456 -1.05,1.23 0,0.714 0.288,1.44 0.756,1.926 0.288,0.294 0.666,0.462 1.062,0.462 0.552,0 0.858,-0.324 0.918,-0.972 l 0.108,-0.018"
       style="font-size:6px;font-style:italic;font-variant:normal;writing-mode:lr-tb;fill:#231f20;fill-opacity:1;fill-rule:nonzero;stroke:none;font-family:Times;-inkscape-font-specification:Times-Italic"
       id="path3205"
       inkscape:connector-curvature="0" /><path
       d="m 201.92241,133.48723 0.222,1.194 -0.126,0 c -0.048,-0.096 -0.108,-0.132 -0.228,-0.132 -0.048,0 -0.12,0.012 -0.246,0.042 -0.27,0.066 -0.51,0.102 -0.702,0.102 -1.278,0 -2.436,-1.206 -2.436,-2.538 0,-0.918 0.648,-1.566 1.566,-1.566 0.618,0 1.098,0.264 1.638,0.894 l -0.102,0.084 c -0.54,-0.528 -0.888,-0.708 -1.38,-0.708 -0.666,0 -1.05,0.456 -1.05,1.23 0,0.714 0.288,1.44 0.756,1.926 0.288,0.294 0.666,0.462 1.062,0.462 0.552,0 0.858,-0.324 0.918,-0.972 l 0.108,-0.018"
       style="font-size:6px;font-style:italic;font-variant:normal;writing-mode:lr-tb;fill:#231f20;fill-opacity:1;fill-rule:nonzero;stroke:none;font-family:Times;-inkscape-font-specification:Times-Italic"
       id="path3207"
       inkscape:connector-curvature="0" /><path
       d="m 207.78354,135.78523 -4.032,0 0,-0.528 4.032,0 0,0.528 m 0,-1.6 -4.032,0 0,-0.528 4.032,0 0,0.528"
       style="font-size:8px;font-variant:normal;font-weight:normal;writing-mode:lr-tb;fill:#231f20;fill-opacity:1;fill-rule:nonzero;stroke:none;font-family:Times;-inkscape-font-specification:Times-Roman"
       id="path3210"
       inkscape:connector-curvature="0" /><path
       d="m 212.35243,138.10523 -1.44,-0.728 0,-0.112 c 0.096,0.04 0.184,0.072 0.216,0.088 0.144,0.056 0.28,0.088 0.36,0.088 0.168,0 0.24,-0.12 0.24,-0.376 l 0,-3.624 c 0,-0.264 -0.064,-0.448 -0.192,-0.52 -0.12,-0.072 -0.232,-0.096 -0.568,-0.104 l 0,-0.12 2.208,0 0,0.12 c -0.632,0.008 -0.76,0.088 -0.76,0.472 l 0,4.8 -0.064,0.016"
       style="font-size:8px;font-variant:normal;font-weight:normal;writing-mode:lr-tb;fill:#231f20;fill-opacity:1;fill-rule:nonzero;stroke:none;font-family:Times;-inkscape-font-specification:Times-Roman"
       id="path3212"
       inkscape:connector-curvature="0" /><path
       d="m 217.82443,133.79323 -0.104,0.04 c -0.296,-0.456 -0.4,-0.528 -0.76,-0.528 l -1.912,0 1.344,1.408 c 0.712,0.744 1.024,1.352 1.024,1.976 0,0.8 -0.648,1.416 -1.48,1.416 -0.44,0 -0.856,-0.176 -1.152,-0.496 -0.256,-0.272 -0.376,-0.528 -0.512,-1.096 l 0.168,-0.04 c 0.32,0.784 0.608,1.04 1.16,1.04 0.672,0 1.128,-0.456 1.128,-1.128 0,-0.624 -0.368,-1.368 -1.04,-2.08 l -1.424,-1.512 0,-0.096 3.12,0 0.44,1.096"
       style="font-size:8px;font-variant:normal;font-weight:normal;writing-mode:lr-tb;fill:#231f20;fill-opacity:1;fill-rule:nonzero;stroke:none;font-family:Times;-inkscape-font-specification:Times-Roman"
       id="path3214"
       inkscape:connector-curvature="0" /><path
       d="m 225.60043,137.99323 -1.64,0 0,-0.152 c 0.44,-0.024 0.584,-0.112 0.584,-0.336 0,-0.128 -0.056,-0.344 -0.152,-0.584 l -1.176,-2.936 -1.208,2.704 c -0.264,0.584 -0.328,0.768 -0.328,0.888 0,0.152 0.112,0.232 0.368,0.248 0.032,0 0.12,0.008 0.232,0.016 l 0,0.152 -2.128,0 0,-0.152 c 0.392,-0.016 0.504,-0.128 0.848,-0.84 l 1.968,-4.392 0.12,0 1.776,4.488 c 0.264,0.632 0.352,0.72 0.736,0.744 l 0,0.152"
       style="font-size:8px;font-variant:normal;font-weight:normal;writing-mode:lr-tb;fill:#231f20;fill-opacity:1;fill-rule:nonzero;stroke:none;font-family:Times;-inkscape-font-specification:Times-Roman"
       id="path3216"
       inkscape:connector-curvature="0" /><path
       d="m 145.97635,117.04123 c -0.352,0.024 -0.512,0.16 -0.664,0.576 l -0.744,1.96 c 0.616,0.136 0.88,0.248 1.168,0.504 0.264,0.232 0.408,0.544 0.408,0.904 0,0.744 -0.592,1.152 -1.664,1.152 l -1.984,0 0,-0.128 c 0.336,-0.048 0.376,-0.056 0.456,-0.112 0.064,-0.04 0.112,-0.136 0.112,-0.224 0,-0.096 -0.04,-0.288 -0.096,-0.504 l -0.984,-3.536 c -0.144,-0.472 -0.2,-0.52 -0.648,-0.592 l 0,-0.128 1.952,0 0,0.128 c -0.488,0.064 -0.544,0.104 -0.544,0.368 0,0.08 0.024,0.184 0.096,0.464 l 0.448,1.672 0.52,-0.04 0.984,-2.592 1.184,0 0,0.128 m -2.072,4.632 c 0.048,0.168 0.152,0.224 0.408,0.224 0.664,0 0.992,-0.304 0.992,-0.896 0,-0.792 -0.512,-1.2 -1.512,-1.2 -0.128,0 -0.216,0.008 -0.408,0.04 l 0.52,1.832"
       style="font-size:8px;font-style:italic;font-variant:normal;writing-mode:lr-tb;fill:#231f20;fill-opacity:1;fill-rule:nonzero;stroke:none;font-family:Times;-inkscape-font-specification:Times-Italic"
       id="path3219"
       inkscape:connector-curvature="0" /><path
       d="m 150.24024,117.70323 0.222,1.194 -0.126,0 c -0.048,-0.096 -0.108,-0.132 -0.228,-0.132 -0.048,0 -0.12,0.012 -0.246,0.042 -0.27,0.066 -0.51,0.102 -0.702,0.102 -1.278,0 -2.436,-1.206 -2.436,-2.538 0,-0.918 0.648,-1.566 1.566,-1.566 0.618,0 1.098,0.264 1.638,0.894 l -0.102,0.084 c -0.54,-0.528 -0.888,-0.708 -1.38,-0.708 -0.666,0 -1.05,0.456 -1.05,1.23 0,0.714 0.288,1.44 0.756,1.926 0.288,0.294 0.666,0.462 1.062,0.462 0.552,0 0.858,-0.324 0.918,-0.972 l 0.108,-0.018"
       style="font-size:6px;font-style:italic;font-variant:normal;writing-mode:lr-tb;fill:#231f20;fill-opacity:1;fill-rule:nonzero;stroke:none;font-family:Times;-inkscape-font-specification:Times-Italic"
       id="path3222"
       inkscape:connector-curvature="0" /><path
       d="m 64.544433,110.77367 c -0.352,0.024 -0.512,0.16 -0.664,0.576 l -0.744,1.96 c 0.615999,0.136 0.88,0.248 1.168,0.504 0.264,0.232 0.408,0.544 0.408,0.904 0,0.744 -0.592001,1.152 -1.664,1.152 l -1.984,0 0,-0.128 c 0.336,-0.048 0.376,-0.056 0.456,-0.112 0.064,-0.04 0.112,-0.136 0.112,-0.224 0,-0.096 -0.04,-0.288 -0.096,-0.504 l -0.984,-3.536 c -0.144,-0.472 -0.2,-0.52 -0.648,-0.592 l 0,-0.128 1.952,0 0,0.128 c -0.487999,0.064 -0.544,0.104 -0.544,0.368 0,0.08 0.024,0.184 0.096,0.464 l 0.448,1.672 0.52,-0.04 0.984,-2.592 1.184,0 0,0.128 m -2.072,4.632 c 0.048,0.168 0.152,0.224 0.408,0.224 0.663999,0 0.992,-0.304 0.992,-0.896 0,-0.792 -0.512001,-1.2 -1.512,-1.2 -0.128,0 -0.216,0.008 -0.408,0.04 l 0.52,1.832"
       style="font-size:8px;font-style:italic;font-variant:normal;writing-mode:lr-tb;fill:#231f20;fill-opacity:1;fill-rule:nonzero;stroke:none;font-family:Times;-inkscape-font-specification:Times-Italic"
       id="path3225"
       inkscape:connector-curvature="0" /><path
       d="m 64.848323,108.64567 1.692,0 c 0.941999,0 1.59,0.492 1.59,1.2 0,0.222 -0.072,0.432 -0.204,0.564 -0.12,0.138 -0.24,0.21 -0.552,0.342 0.426,0.102 0.6,0.174 0.792,0.342 0.168,0.144 0.258,0.348 0.258,0.588 0,0.57 -0.426001,0.882 -1.2,0.882 l -1.548,0 0,-0.096 c 0.372,-0.03 0.462,-0.078 0.462,-0.246 0,-0.09 -0.024,-0.24 -0.066,-0.384 l -0.738,-2.652 c -0.108,-0.348 -0.15,-0.384 -0.486,-0.444 l 0,-0.096 m 1.476,1.986 c 0.39,0 0.642,-0.024 0.762,-0.072 0.246,-0.102 0.396,-0.366 0.396,-0.69 0,-0.648 -0.444001,-1.044 -1.176,-1.044 -0.252,0 -0.384,0.09 -0.384,0.252 0,0.072 0.072,0.36 0.21,0.84 0.078,0.27 0.114,0.408 0.192,0.714 m 0.45,1.584 c 0.036,0.132 0.108,0.168 0.342,0.168 0.479999,0 0.702,-0.204 0.702,-0.648 0,-0.342 -0.144,-0.606 -0.402,-0.75 -0.204,-0.12 -0.492,-0.162 -1.032,-0.162 l 0.39,1.392"
       style="font-size:6px;font-style:italic;font-variant:normal;writing-mode:lr-tb;fill:#231f20;fill-opacity:1;fill-rule:nonzero;stroke:none;font-family:Times;-inkscape-font-specification:Times-Italic"
       id="path3228"
       inkscape:connector-curvature="0" /><path
       d="m 126.53493,99.378709 7.46914,0 0,28.071161 -7.46914,0 0,-28.071161 z"
       style="fill:#ffffff;fill-opacity:1;fill-rule:nonzero;stroke:none"
       id="path90"
       inkscape:connector-curvature="0" /><path
       d="m 130.11414,96.679531 0,3.613299 -3.69929,1.5703 7.46926,3.1484 -7.46926,3.1953 7.46926,3.1973 -7.46926,3.1504 7.46926,3.123 -7.46926,3.1504 7.37326,3.1973 -3.67397,1.5293 0,3.7991"
       style="fill:none;stroke:#231f20;stroke-width:0.80000001;stroke-linecap:round;stroke-linejoin:round;stroke-miterlimit:3.86369991;stroke-opacity:1;stroke-dasharray:none"
       id="path92"
       inkscape:connector-curvature="0" /><path
       d="m 79.140834,89.040117 7.46836,0 0,32.451203 -7.46836,0 0,-32.451203 z"
       style="fill:#ffffff;fill-opacity:1;fill-rule:nonzero;stroke:none"
       id="path94"
       inkscape:connector-curvature="0" /><path
       d="m 82.840034,88.817517 0,3.6133 -3.6992,1.5703 7.4683,3.148399 -7.4683,3.195304 7.4683,3.1973 -7.4683,3.1504 7.4683,3.123 -7.4683,3.1504 7.3726,3.1973 -3.6734,1.5293 0,3.7991"
       style="fill:none;stroke:#231f20;stroke-width:0.80000001;stroke-linecap:round;stroke-linejoin:round;stroke-miterlimit:3.86369991;stroke-opacity:1;stroke-dasharray:none"
       id="path96"
       inkscape:connector-curvature="0" /><path
       d="M 113.37203,78.222231 130.13,84.229273"
       style="fill:none;stroke:#231f20;stroke-width:0.80000001;stroke-linecap:round;stroke-linejoin:round;stroke-miterlimit:3.86369991;stroke-opacity:1;stroke-dasharray:none"
       id="path98"
       inkscape:connector-curvature="0"
       sodipodi:nodetypes="cc" /><path
       d="m 113.01463,63.993731 0,18.8047"
       style="fill:none;stroke:#231f20;stroke-width:2;stroke-linecap:round;stroke-linejoin:round;stroke-miterlimit:3.86369991;stroke-opacity:1;stroke-dasharray:none"
       id="path100"
       inkscape:connector-curvature="0" /><path
       d="m 113.76663,67.249631 14.1328,-7.9317"
       style="fill:none;stroke:#231f20;stroke-width:0.80000001;stroke-linecap:round;stroke-linejoin:round;stroke-miterlimit:3.86369991;stroke-opacity:1;stroke-dasharray:none"
       id="path102"
       inkscape:connector-curvature="0" /><path
       d="m 125.17673,60.597231 -0.0898,2.5274 0.0898,0.0066 2.3887,-2.9461 c 0.9375,-0.8359 1.8769,-1.6738 2.8148,-2.5098 -1.2035,0.3653 -2.4066,0.7305 -3.6097,1.0957 l -3.7578,0.5047 -0.0469,0.0684 2.2109,1.2531"
       style="fill:#231f20;fill-opacity:1;fill-rule:nonzero;stroke:none"
       id="path104"
       inkscape:connector-curvature="0" /><path
       d="m 82.840034,72.849231 0,-0.0137 30.310196,0"
       style="fill:none;stroke:#231f20;stroke-width:0.80000001;stroke-linecap:butt;stroke-linejoin:miter;stroke-miterlimit:4;stroke-opacity:1;stroke-dasharray:none"
       id="path106"
       inkscape:connector-curvature="0" /><path
       d="m 130.10913,136.46223 -47.269096,0"
       style="fill:none;stroke:#231f20;stroke-width:0.80000001;stroke-linecap:butt;stroke-linejoin:miter;stroke-miterlimit:4;stroke-opacity:1;stroke-dasharray:none"
       id="path108"
       inkscape:connector-curvature="0" /><path
       d="m 183.93673,136.46223 c 0,-0.921 -0.746,-1.667 -1.667,-1.667 -0.921,0 -1.667,0.746 -1.667,1.667 0,0.921 0.746,1.667 1.667,1.667 0.921,0 1.667,-0.746 1.667,-1.667 z"
       style="fill:none;stroke:#231f20;stroke-width:0.5;stroke-linecap:butt;stroke-linejoin:miter;stroke-miterlimit:4;stroke-opacity:1;stroke-dasharray:none"
       id="path112"
       inkscape:connector-curvature="0" /><path
       d="m 33.782214,72.834331 c 0,-0.9207 -0.74609,-1.6668 -1.66718,-1.6668 -0.920706,0 -1.6668,0.7461 -1.6668,1.6668 0,0.9211 0.746094,1.6672 1.6668,1.6672 0.92109,0 1.66718,-0.7461 1.66718,-1.6672"
       style="fill:#ffffff;fill-opacity:1;fill-rule:nonzero;stroke:none"
       id="path114"
       inkscape:connector-curvature="0" /><path
       d="m 33.782214,72.834331 c 0,-0.9207 -0.74609,-1.6668 -1.66718,-1.6668 -0.920706,0 -1.6668,0.7461 -1.6668,1.6668 0,0.9211 0.746094,1.6672 1.6668,1.6672 0.92109,0 1.66718,-0.7461 1.66718,-1.6672 z"
       style="fill:none;stroke:#231f20;stroke-width:0.5;stroke-linecap:butt;stroke-linejoin:miter;stroke-miterlimit:4;stroke-opacity:1;stroke-dasharray:none"
       id="path116"
       inkscape:connector-curvature="0" /><path
       d="m 130.10453,34.623431 0,-6.42931"
       style="fill:none;stroke:#231f20;stroke-width:0.80000001;stroke-linecap:round;stroke-linejoin:round;stroke-miterlimit:3.86369991;stroke-opacity:1;stroke-dasharray:none"
       id="path118"
       inkscape:connector-curvature="0" /><path
       d="m 137.10423,28.194121 -13.9997,0"
       style="fill:none;stroke:#231f20;stroke-width:0.80000001;stroke-linecap:round;stroke-linejoin:round;stroke-miterlimit:3.86369991;stroke-opacity:1;stroke-dasharray:none"
       id="path120"
       inkscape:connector-curvature="0" /><path
       d="m 135.60423,25.549201 -10.9997,0"
       style="fill:none;stroke:#231f20;stroke-width:0.80000001;stroke-linecap:round;stroke-linejoin:round;stroke-miterlimit:3.86369991;stroke-opacity:1;stroke-dasharray:none"
       id="path122"
       inkscape:connector-curvature="0" /><path
       d="m 134.10423,22.907403 -7.9997,0"
       style="fill:none;stroke:#231f20;stroke-width:0.80000001;stroke-linecap:round;stroke-linejoin:round;stroke-miterlimit:3.86369991;stroke-opacity:1;stroke-dasharray:none"
       id="path124"
       inkscape:connector-curvature="0" /><path
       d="m 130.10913,58.091431 0,-26.97934"
       style="fill:none;stroke:#231f20;stroke-width:0.80000001;stroke-linecap:butt;stroke-linejoin:miter;stroke-miterlimit:4;stroke-opacity:1;stroke-dasharray:none"
       id="path126"
       inkscape:connector-curvature="0" /><path
       d="m 49.299494,67.797231 12.3125,0 0,10.0754 -12.3125,0 0,-10.0754 z"
       style="fill:#ffffff;fill-opacity:1;fill-rule:nonzero;stroke:none"
       id="path128"
       inkscape:connector-curvature="0" /><path
       d="m 58.38704,72.835531 4.666,0"
       style="fill:none;stroke:#231f20;stroke-width:0.80000001;stroke-linecap:round;stroke-linejoin:round;stroke-miterlimit:3.86369991;stroke-opacity:1;stroke-dasharray:none"
       id="path130"
       inkscape:connector-curvature="0" /><path
       d="m 49.368115,72.835531 4.666,0"
       style="fill:none;stroke:#231f20;stroke-width:0.80000001;stroke-linecap:round;stroke-linejoin:round;stroke-miterlimit:3.86369991;stroke-opacity:1;stroke-dasharray:none"
       id="path132"
       inkscape:connector-curvature="0" /><path
       d="m 54.166694,77.872631 0,-10.0754"
       style="fill:none;stroke:#231f20;stroke-width:0.80000001;stroke-linecap:round;stroke-linejoin:round;stroke-miterlimit:3.86369991;stroke-opacity:1;stroke-dasharray:none"
       id="path134"
       inkscape:connector-curvature="0" /><path
       d="m 58.346794,77.872631 0,-10.0754"
       style="fill:none;stroke:#231f20;stroke-width:0.80000001;stroke-linecap:round;stroke-linejoin:round;stroke-miterlimit:3.86369991;stroke-opacity:1;stroke-dasharray:none"
       id="path136"
       inkscape:connector-curvature="0" /><path
       d="m 182.15923,89.335531 -52.211,-0.0012"
       style="fill:none;stroke:#231f20;stroke-width:0.80000001;stroke-linecap:butt;stroke-linejoin:miter;stroke-miterlimit:4;stroke-opacity:1;stroke-dasharray:none"
       id="path138"
       inkscape:connector-curvature="0" /><path
       d="m 149.21102,84.297231 12.3133,0 0,10.0754 -12.3133,0 0,-10.0754 z"
       style="fill:#ffffff;fill-opacity:1;fill-rule:nonzero;stroke:none"
       id="path140"
       inkscape:connector-curvature="0" /><path
       d="m 158.23044,89.335531 4.666,0"
       style="fill:none;stroke:#231f20;stroke-width:0.80000001;stroke-linecap:round;stroke-linejoin:round;stroke-miterlimit:3.86369991;stroke-opacity:1;stroke-dasharray:none"
       id="path142"
       inkscape:connector-curvature="0" /><path
       d="m 149.21102,89.335531 4.666,0"
       style="fill:none;stroke:#231f20;stroke-width:0.80000001;stroke-linecap:round;stroke-linejoin:round;stroke-miterlimit:3.86369991;stroke-opacity:1;stroke-dasharray:none"
       id="path144"
       inkscape:connector-curvature="0" /><path
       d="m 154.07802,94.372631 0,-10.0754"
       style="fill:none;stroke:#231f20;stroke-width:0.80000001;stroke-linecap:round;stroke-linejoin:round;stroke-miterlimit:3.86369991;stroke-opacity:1;stroke-dasharray:none"
       id="path146"
       inkscape:connector-curvature="0" /><path
       d="m 158.25802,94.372631 0,-10.0754"
       style="fill:none;stroke:#231f20;stroke-width:0.80000001;stroke-linecap:round;stroke-linejoin:round;stroke-miterlimit:3.86369991;stroke-opacity:1;stroke-dasharray:none"
       id="path148"
       inkscape:connector-curvature="0" /><path
       d="m 140.09723,107.89913 -0.104,0.04 c -0.296,-0.456 -0.4,-0.528 -0.76,-0.528 l -1.912,0 1.344,1.408 c 0.712,0.744 1.024,1.352 1.024,1.976 0,0.8 -0.648,1.416 -1.48,1.416 -0.44,0 -0.856,-0.176 -1.152,-0.496 -0.256,-0.272 -0.376,-0.528 -0.512,-1.096 l 0.168,-0.04 c 0.32,0.784 0.608,1.04 1.16,1.04 0.672,0 1.128,-0.456 1.128,-1.128 0,-0.624 -0.368,-1.368 -1.04,-2.08 l -1.424,-1.512 0,-0.096 3.12,0 0.44,1.096"
       style="font-size:8px;font-variant:normal;font-weight:normal;writing-mode:lr-tb;fill:#231f20;fill-opacity:1;fill-rule:nonzero;stroke:none;font-family:Times;-inkscape-font-specification:Times-Roman"
       id="path3231"
       inkscape:connector-curvature="0" /><path
       d="m 141.29723,107.60313 c -0.24,0 -0.44,-0.208 -0.44,-0.456 0,-0.232 0.2,-0.432 0.432,-0.432 0.248,0 0.456,0.2 0.456,0.432 0,0.248 -0.208,0.456 -0.448,0.456"
       style="font-size:8px;font-variant:normal;font-weight:normal;writing-mode:lr-tb;fill:#231f20;fill-opacity:1;fill-rule:nonzero;stroke:none;font-family:Times;-inkscape-font-specification:Times-Roman"
       id="path3233"
       inkscape:connector-curvature="0" /><path
       d="m 146.09723,107.89913 -0.104,0.04 c -0.296,-0.456 -0.4,-0.528 -0.76,-0.528 l -1.912,0 1.344,1.408 c 0.712,0.744 1.024,1.352 1.024,1.976 0,0.8 -0.648,1.416 -1.48,1.416 -0.44,0 -0.856,-0.176 -1.152,-0.496 -0.256,-0.272 -0.376,-0.528 -0.512,-1.096 l 0.168,-0.04 c 0.32,0.784 0.608,1.04 1.16,1.04 0.672,0 1.128,-0.456 1.128,-1.128 0,-0.624 -0.368,-1.368 -1.04,-2.08 l -1.424,-1.512 0,-0.096 3.12,0 0.44,1.096"
       style="font-size:8px;font-variant:normal;font-weight:normal;writing-mode:lr-tb;fill:#231f20;fill-opacity:1;fill-rule:nonzero;stroke:none;font-family:Times;-inkscape-font-specification:Times-Roman"
       id="path3235"
       inkscape:connector-curvature="0" /><path
       d="m 148.35323,111.78713 c 0.104,0.008 0.176,0.016 0.256,0.016 0.264,0 0.344,-0.104 0.344,-0.488 l 0,-3.856 c 0,-0.416 -0.024,-0.44 -0.6,-0.536 l 0,-0.12 1.872,0 0,0.12 -0.16,0.008 c -0.32,0.016 -0.44,0.128 -0.44,0.408 l 0,1.472 1.12,-1.496 0.024,-0.032 c 0.016,-0.024 0.032,-0.048 0.056,-0.072 0.064,-0.08 0.088,-0.128 0.088,-0.168 0,-0.072 -0.072,-0.12 -0.168,-0.12 l -0.152,0 0,-0.12 1.744,0 0,0.12 c -0.352,0.024 -0.6,0.176 -0.936,0.584 l -1.224,1.552 0.232,0.216 c 0.568,0.528 1.064,0.896 1.296,0.96 0.12,0.032 0.232,0.048 0.368,0.048 l 0.064,0 0,0.12 -1.632,0 0,-0.112 c 0.312,-0.008 0.4,-0.04 0.4,-0.152 0,-0.064 -0.072,-0.176 -0.184,-0.272 l -1.096,-0.976 0,3.36 -0.032,0.016 c -0.304,-0.096 -0.536,-0.16 -1,-0.288 l -0.24,-0.064 0,-0.128"
       style="font-size:8px;font-variant:normal;font-weight:normal;writing-mode:lr-tb;fill:#231f20;fill-opacity:1;fill-rule:nonzero;stroke:none;font-family:Times;-inkscape-font-specification:Times-Roman"
       id="path3237"
       inkscape:connector-curvature="0" /><path
       d="m 154.90523,106.80313 -0.144,1.24 c -0.624,0.352 -1.024,1.064 -1.024,1.816 0,0.416 0.12,0.888 0.328,1.264 0.288,0.52 0.768,0.816 1.312,0.816 0.544,0 1.024,-0.296 1.312,-0.816 0.208,-0.376 0.328,-0.848 0.328,-1.264 0,-0.752 -0.4,-1.464 -1.024,-1.816 l -0.144,-1.24 2.336,0 0,1.224 -0.192,0 c -0.056,-0.352 -0.232,-0.504 -0.552,-0.504 l -1.168,0 0.024,0.304 c 0.28,0.104 0.448,0.184 0.64,0.304 0.608,0.392 0.976,1.04 0.976,1.728 0,0.528 -0.232,1.12 -0.616,1.568 -0.488,0.56 -1.16,0.864 -1.92,0.864 -0.76,0 -1.432,-0.304 -1.92,-0.864 -0.384,-0.448 -0.616,-1.04 -0.616,-1.568 0,-0.688 0.368,-1.336 0.976,-1.728 0.184,-0.12 0.352,-0.2 0.64,-0.304 l 0.024,-0.304 -1.168,0 c -0.32,0 -0.496,0.152 -0.552,0.504 l -0.192,0 0,-1.224 2.336,0"
       style="font-size:8px;font-variant:normal;font-weight:normal;writing-mode:lr-tb;fill:#231f20;fill-opacity:1;fill-rule:nonzero;stroke:none;font-family:Symbol;-inkscape-font-specification:Symbol"
       id="path3240"
       inkscape:connector-curvature="0" /><path
       d="m 183.82623,89.335531 c 0,-0.9211 -0.746,-1.6672 -1.667,-1.6672 -0.921,0 -1.667,0.7461 -1.667,1.6672 0,0.9207 0.746,1.6668 1.667,1.6668 0.921,0 1.667,-0.7461 1.667,-1.6668"
       style="fill:#ffffff;fill-opacity:1;fill-rule:nonzero;stroke:none"
       id="path160"
       inkscape:connector-curvature="0" /><path
       d="m 183.82623,89.335531 c 0,-0.9211 -0.746,-1.6672 -1.667,-1.6672 -0.921,0 -1.667,0.7461 -1.667,1.6672 0,0.9207 0.746,1.6668 1.667,1.6668 0.921,0 1.667,-0.7461 1.667,-1.6668 z"
       style="fill:none;stroke:#231f20;stroke-width:0.5;stroke-linecap:butt;stroke-linejoin:miter;stroke-miterlimit:4;stroke-opacity:1;stroke-dasharray:none"
       id="path162"
       inkscape:connector-curvature="0" /><path
       d="m 131.77623,136.46323 c 0,-0.922 -0.746,-1.668 -1.6671,-1.668 -0.9207,0 -1.6668,0.746 -1.6668,1.668 0,0.92 0.7461,1.666 1.6668,1.666 0.9211,0 1.6671,-0.746 1.6671,-1.666"
       style="fill:#231f20;fill-opacity:1;fill-rule:nonzero;stroke:none"
       id="path164"
       inkscape:connector-curvature="0" /><path
       d="m 84.506834,72.836331 c 0,-0.9219 -0.7461,-1.668 -1.6668,-1.668 -0.9211,0 -1.6672,0.7461 -1.6672,1.668 0,0.9199 0.7461,1.666 1.6672,1.666 0.9207,0 1.6668,-0.7461 1.6668,-1.666"
       style="fill:#231f20;fill-opacity:1;fill-rule:nonzero;stroke:none"
       id="path166"
       inkscape:connector-curvature="0" /><path
       d="m 131.76264,89.335531 c 0,-0.9219 -0.746,-1.668 -1.667,-1.668 -0.9207,0 -1.6672,0.7461 -1.6672,1.668 0,0.9199 0.7465,1.666 1.6672,1.666 0.921,0 1.667,-0.7461 1.667,-1.666"
       style="fill:#231f20;fill-opacity:1;fill-rule:nonzero;stroke:none"
       id="path168"
       inkscape:connector-curvature="0" /><path
       d="m 58.427934,85.780931 0.296,1.592 -0.168,0 c -0.064,-0.128 -0.144,-0.176 -0.304,-0.176 -0.064,0 -0.16,0.016 -0.328,0.056 -0.36,0.088 -0.68,0.136 -0.936,0.136 -1.703998,0 -3.248,-1.608002 -3.248,-3.384 0,-1.223999 0.864001,-2.088 2.088,-2.088 0.823999,0 1.464001,0.352001 2.184,1.192 l -0.136,0.112 c -0.719999,-0.703999 -1.184001,-0.944 -1.84,-0.944 -0.887999,0 -1.4,0.608001 -1.4,1.64 0,0.951999 0.384001,1.920001 1.008,2.568 0.384,0.392 0.888,0.616 1.416,0.616 0.735999,0 1.144,-0.432001 1.224,-1.296 l 0.144,-0.024"
       style="font-size:8px;font-style:italic;font-variant:normal;writing-mode:lr-tb;fill:#231f20;fill-opacity:1;fill-rule:nonzero;stroke:none;font-family:Times;-inkscape-font-specification:Times-Italic"
       id="path3243"
       inkscape:connector-curvature="0" /><path
       d="m 61.397874,80.882931 -0.078,0.03 c -0.222,-0.342 -0.3,-0.396 -0.57,-0.396 l -1.434,0 1.008,1.056 c 0.533999,0.557999 0.768,1.014 0.768,1.482 0,0.599999 -0.486001,1.062 -1.11,1.062 -0.33,0 -0.642,-0.132 -0.864,-0.372 -0.192,-0.204 -0.282,-0.396 -0.384,-0.822 l 0.126,-0.03 c 0.24,0.587999 0.456,0.78 0.87,0.78 0.504,0 0.846,-0.342001 0.846,-0.846 0,-0.468 -0.276001,-1.026001 -0.78,-1.56 l -1.068,-1.134 0,-0.072 2.34,0 0.33,0.822"
       style="font-size:6px;font-variant:normal;font-weight:normal;writing-mode:lr-tb;fill:#231f20;fill-opacity:1;fill-rule:nonzero;stroke:none;font-family:Times;-inkscape-font-specification:Times-Roman"
       id="path3246"
       inkscape:connector-curvature="0" /><path
       d="m 158.94707,101.12473 0.296,1.592 -0.168,0 c -0.064,-0.128 -0.144,-0.176 -0.304,-0.176 -0.064,0 -0.16,0.016 -0.328,0.056 -0.36,0.088 -0.68,0.136 -0.936,0.136 -1.704,0 -3.248,-1.608 -3.248,-3.383999 0,-1.223999 0.864,-2.088 2.088,-2.088 0.824,0 1.464,0.352001 2.184,1.192 l -0.136,0.112 c -0.72,-0.703999 -1.184,-0.944 -1.84,-0.944 -0.888,0 -1.4,0.608001 -1.4,1.64 0,0.951999 0.384,1.919999 1.008,2.567999 0.384,0.392 0.888,0.616 1.416,0.616 0.736,0 1.144,-0.432 1.224,-1.296 l 0.144,-0.024"
       style="font-size:8px;font-style:italic;font-variant:normal;writing-mode:lr-tb;fill:#231f20;fill-opacity:1;fill-rule:nonzero;stroke:none;font-family:Times;-inkscape-font-specification:Times-Italic"
       id="path3249"
       inkscape:connector-curvature="0" /><path
       d="m 161.9174,96.226731 -0.078,0.03 c -0.222,-0.342 -0.3,-0.396 -0.57,-0.396 l -1.434,0 1.008,1.056 c 0.534,0.557999 0.768,1.014 0.768,1.482 0,0.599999 -0.486,1.062 -1.11,1.062 -0.33,0 -0.642,-0.132 -0.864,-0.372 -0.192,-0.204 -0.282,-0.396 -0.384,-0.822 l 0.126,-0.03 c 0.24,0.587999 0.456,0.78 0.87,0.78 0.504,0 0.846,-0.342001 0.846,-0.846 0,-0.468 -0.276,-1.026001 -0.78,-1.56 l -1.068,-1.134 0,-0.072 2.34,0 0.33,0.822"
       style="font-size:6px;font-variant:normal;font-weight:normal;writing-mode:lr-tb;fill:#231f20;fill-opacity:1;fill-rule:nonzero;stroke:none;font-family:Times;-inkscape-font-specification:Times-Roman"
       id="path3252"
       inkscape:connector-curvature="0" /><g
       ns0:preamble="/home/sriranga/Desktop/MCT/package.tex"
       ns0:text="$v_i$"
       word-spacing="normal"
       letter-spacing="normal"
       font-size-adjust="none"
       font-stretch="normal"
       font-weight="normal"
       font-variant="normal"
       font-style="normal"
       stroke-miterlimit="10.433"
       xml:space="preserve"
       transform="matrix(0.82342926,0,0,0.82289179,-160.81946,-509.73263)"
       id="content"
       style="font-style:normal;font-variant:normal;font-weight:normal;font-stretch:normal;letter-spacing:normal;word-spacing:normal;text-anchor:start;fill:none;stroke:#000000;stroke-width:1.21482992;stroke-linecap:butt;stroke-linejoin:miter;stroke-miterlimit:10.43299961;stroke-opacity:1;stroke-dasharray:none;stroke-dashoffset:0"><path
         id="path4292"
         d="m 223.64,711.13 0.02,0 0.02,0 0.02,0 0.02,0 0.02,0 0.01,0.01 0.02,0 0.02,0 0.04,0 0.01,0 0.02,0 0.02,0 0.02,0 0.02,0 0.02,0 c 0.39,0 0.49,-0.17 0.63,-1.09 0.1,-0.68 0.22,-2.18 0.22,-2.76 0,-0.27 0.01,-0.34 0.09,-0.34 0.24,0 1.17,1.05 2.18,2.46 0.35,0.5 0.61,1.14 0.61,1.51 0,0.32 -0.26,0.59 -0.56,0.59 -0.22,0 -0.37,-0.13 -0.37,-0.34 0,-0.16 0.06,-0.28 0.24,-0.44 0.13,-0.12 0.18,-0.2 0.18,-0.3 0,-0.45 -0.65,-1.56 -1.36,-2.29 l -0.31,-0.32 c -0.07,1.4 -0.13,1.92 -0.26,2.65 -0.2,1.02 -0.2,1.04 -0.29,1.04 -0.04,0 -0.12,-0.01 -0.2,-0.04 -0.17,-0.05 -0.72,-0.15 -1.1,-0.21 z"
         inkscape:connector-curvature="0"
         style="fill:#000000;stroke-width:0" /><path
         id="path4294"
         d="m 229.4,706.42 -0.01,-0.02 -0.02,-0.02 -0.01,-0.01 -0.02,-0.02 -0.01,-0.02 -0.01,-0.01 -0.01,-0.02 -0.01,-0.01 -0.01,-0.02 -0.01,-0.01 -0.01,-0.01 -0.01,-0.02 -0.01,-0.01 -0.01,-0.01 -0.01,-0.01 -0.01,-0.01 0,-0.01 -0.01,-0.01 -0.01,-0.01 -0.01,0 0,-0.01 -0.01,-0.01 -0.01,-0.01 -0.02,-0.02 -0.01,-0.01 -0.01,-0.02 -0.01,-0.01 c -0.12,-0.12 -0.23,-0.19 -0.29,-0.19 -0.06,0 -0.11,0.06 -0.11,0.11 0,0.06 0.02,0.17 0.07,0.3 0,0.02 0.02,0.07 0.03,0.13 v 0.01 l 0.01,0.02 0.61,2.23 -0.02,0.02 c -0.7,-0.13 -0.84,-0.16 -1.11,-0.18 v -0.11 c 0.37,0 0.44,-0.02 0.44,-0.16 0,-0.06 -0.02,-0.17 -0.07,-0.31 l -0.33,-1.23 c -0.11,-0.41 -0.15,-0.62 -0.15,-0.76 0,-0.26 0.11,-0.4 0.32,-0.4 0.32,0 0.58,0.21 0.97,0.8 z"
         inkscape:connector-curvature="0"
         style="fill:#000000;stroke-width:0" /><path
         id="path4296"
         d="m 229.35,710.18 -0.02,0 -0.02,0 -0.02,-0.01 -0.01,0 -0.02,0 -0.01,-0.01 -0.02,0 -0.01,-0.01 -0.02,-0.01 -0.01,0 -0.02,-0.01 -0.01,-0.01 -0.01,-0.01 -0.02,-0.01 -0.01,-0.02 -0.01,-0.01 -0.01,-0.01 -0.01,-0.01 -0.01,-0.02 -0.01,-0.01 -0.01,-0.02 0,-0.01 -0.01,-0.02 -0.01,-0.01 0,-0.02 -0.01,-0.02 0,-0.02 0,-0.01 -0.01,-0.02 0,-0.02 0,-0.02 0,-0.02 c 0,-0.22 0.13,-0.37 0.33,-0.37 0.18,0 0.35,0.16 0.35,0.36 0,0.2 -0.17,0.38 -0.35,0.38 z"
         inkscape:connector-curvature="0"
         style="fill:#000000;stroke-width:0" /></g></g></svg>