<?xml version="1.0" encoding="UTF-8" standalone="no"?>
<!-- Created with Inkscape (http://www.inkscape.org/) -->

<svg
   xmlns:dc="http://purl.org/dc/elements/1.1/"
   xmlns:cc="http://creativecommons.org/ns#"
   xmlns:rdf="http://www.w3.org/1999/02/22-rdf-syntax-ns#"
   xmlns:svg="http://www.w3.org/2000/svg"
   xmlns="http://www.w3.org/2000/svg"
   xmlns:sodipodi="http://sodipodi.sourceforge.net/DTD/sodipodi-0.dtd"
   xmlns:inkscape="http://www.inkscape.org/namespaces/inkscape"
   id="svg2"
   version="1.1"
   inkscape:version="0.48.4 r9939"
   width="248.03149"
   height="177.16534"
   xml:space="preserve"
   sodipodi:docname="S3-EE-03-IN005.eps"><metadata
     id="metadata8"><rdf:RDF><cc:Work
         rdf:about=""><dc:format>image/svg+xml</dc:format><dc:type
           rdf:resource="http://purl.org/dc/dcmitype/StillImage" /><dc:title></dc:title></cc:Work></rdf:RDF></metadata><defs
     id="defs6" /><sodipodi:namedview
     pagecolor="#ffffff"
     bordercolor="#666666"
     borderopacity="1"
     objecttolerance="10"
     gridtolerance="10"
     guidetolerance="10"
     inkscape:pageopacity="0"
     inkscape:pageshadow="2"
     inkscape:window-width="1366"
     inkscape:window-height="744"
     id="namedview4"
     showgrid="false"
     units="cm"
     inkscape:zoom="3.4229524"
     inkscape:cx="124.01575"
     inkscape:cy="71.899374"
     inkscape:window-x="0"
     inkscape:window-y="24"
     inkscape:window-maximized="1"
     inkscape:current-layer="g10" /><g
     id="g10"
     inkscape:groupmode="layer"
     inkscape:label="ink_ext_XXXXXX"
     transform="matrix(1.25,0,0,-1.25,0,177.16534)"><path
       inkscape:connector-curvature="0"
       id="path14"
       style="fill:none;stroke:#231f20;stroke-width:0.8;stroke-linecap:round;stroke-linejoin:round;stroke-miterlimit:3.86369991;stroke-opacity:1;stroke-dasharray:none"
       d="m 86.3043,11.5531 -69.0832,0 0,53.4668" /><path
       inkscape:connector-curvature="0"
       id="path16"
       style="fill:none;stroke:#231f20;stroke-width:0.8;stroke-linecap:round;stroke-linejoin:round;stroke-miterlimit:3.86369991;stroke-opacity:1;stroke-dasharray:none"
       d="m 86.3043,76.2184 0,38.3346 53.9997,0" /><path
       inkscape:connector-curvature="0"
       id="path18"
       style="fill:none;stroke:#231f20;stroke-width:0.80000001;stroke-linecap:round;stroke-linejoin:round;stroke-miterlimit:3.86369991;stroke-opacity:1;stroke-dasharray:none"
       d="m 140.304,11.5531 -53.9997,0 0,37.981688"
       sodipodi:nodetypes="ccc" /><path
       inkscape:connector-curvature="0"
       id="path20"
       style="fill:none;stroke:#231f20;stroke-width:0.8;stroke-linecap:round;stroke-linejoin:round;stroke-miterlimit:3.86369991;stroke-opacity:1;stroke-dasharray:none"
       d="m 140.304,63.4066 0,-51.8535" /><path
       inkscape:connector-curvature="0"
       id="path22"
       style="fill:none;stroke:#231f20;stroke-width:0.8;stroke-linecap:round;stroke-linejoin:round;stroke-miterlimit:3.86369991;stroke-opacity:1;stroke-dasharray:none"
       d="m 140.304,114.553 0,-51.1464" /><path
       inkscape:connector-curvature="0"
       id="path3120"
       style="font-size:8px;font-variant:normal;font-weight:normal;writing-mode:lr-tb;fill:#231f20;fill-opacity:1;fill-rule:nonzero;stroke:none;font-family:Times;-inkscape-font-specification:Times-Roman"
       d="m 148.47,40.485 -1.44,-0.728 0,-0.112 c 0.096,0.04 0.184,0.072 0.216,0.088 0.144,0.056 0.28,0.088 0.36,0.088 0.168,0 0.24,-0.120001 0.24,-0.376 l 0,-3.624 c 0,-0.264 -0.064,-0.448 -0.192,-0.52 -0.12,-0.072 -0.232,-0.096 -0.568,-0.104 l 0,-0.12 2.208,0 0,0.12 c -0.632,0.008 -0.76,0.088 -0.76,0.472 l 0,4.8 -0.064,0.016" /><path
       inkscape:connector-curvature="0"
       id="path3122"
       style="font-size:8px;font-variant:normal;font-weight:normal;writing-mode:lr-tb;fill:#231f20;fill-opacity:1;fill-rule:nonzero;stroke:none;font-family:Times;-inkscape-font-specification:Times-Roman"
       d="m 152.174,40.485 c -0.44,0 -0.776,-0.136001 -1.072,-0.416 -0.464,-0.448 -0.768,-1.368001 -0.768,-2.304 0,-0.871999 0.264,-1.808001 0.64,-2.256 0.296,-0.352 0.704,-0.544 1.168,-0.544 0.408,0 0.752,0.136 1.04,0.416 0.464,0.439999 0.768,1.368001 0.768,2.336 0,1.639998 -0.728,2.768 -1.776,2.768 m -0.024,-0.208 c 0.672,0 1.032,-0.904002 1.032,-2.576 0,-1.671999 -0.352,-2.528 -1.04,-2.528 -0.688,0 -1.04,0.856001 -1.04,2.52 0,1.695998 0.36,2.584 1.048,2.584" /><path
       inkscape:connector-curvature="0"
       id="path3124"
       style="font-size:8px;font-variant:normal;font-weight:normal;writing-mode:lr-tb;fill:#231f20;fill-opacity:1;fill-rule:nonzero;stroke:none;font-family:Times;-inkscape-font-specification:Times-Roman"
       d="m 159.718,40.373 -1.64,0 0,-0.152 c 0.44,-0.024 0.584,-0.112001 0.584,-0.336 0,-0.128 -0.056,-0.344001 -0.152,-0.584 l -1.176,-2.936 -1.208,2.704 c -0.264,0.583999 -0.328,0.768 -0.328,0.888 0,0.152 0.112,0.232 0.368,0.248 0.032,0 0.12,0.008 0.232,0.016 l 0,0.152 -2.128,0 0,-0.152 c 0.392,-0.016 0.504,-0.128001 0.848,-0.84 l 1.968,-4.392 0.12,0 1.776,4.488 c 0.264,0.631999 0.352,0.72 0.736,0.744 l 0,0.152" /><path
       inkscape:connector-curvature="0"
       id="path3126"
       style="font-size:8px;font-variant:normal;font-weight:normal;writing-mode:lr-tb;fill:#231f20;fill-opacity:1;fill-rule:nonzero;stroke:none;font-family:Times;-inkscape-font-specification:Times-Roman"
       d="m 2.0560525,39.08475 1.568,0 c 0.1279999,0 0.16,0.016 0.184,0.072 l 0.304,0.712 -0.072,0.056 c -0.1199999,-0.168 -0.2000002,-0.208 -0.368,-0.208 l -1.672,0 -0.8719999,-1.896 c -0.008,-0.016 -0.008,-0.024 -0.008,-0.04 0,-0.04 0.032,-0.064 0.096,-0.064 0.2559997,0 0.5760002,-0.056 0.9039999,-0.16 0.9199991,-0.296 1.344,-0.792001 1.344,-1.584 0,-0.768 -0.4880006,-1.368 -1.112,-1.368 -0.1599998,0 -0.2960002,0.056 -0.536,0.232 -0.2559997,0.183999 -0.4400001,0.264 -0.6079999,0.264 -0.23199981,0 -0.34400004,-0.096 -0.34400004,-0.296 0,-0.304 0.37600064,-0.496 0.97599994,-0.496 0.6719993,0 1.2480004,0.216 1.648,0.624 0.3679996,0.359999 0.536,0.816 0.536,1.424 0,0.575999 -0.1520004,0.944 -0.552,1.344 -0.3519996,0.351999 -0.8080009,0.536 -1.752,0.704 l 0.336,0.68" /><path
       inkscape:connector-curvature="0"
       id="path3128"
       style="font-size:8px;font-variant:normal;font-weight:normal;writing-mode:lr-tb;fill:#231f20;fill-opacity:1;fill-rule:nonzero;stroke:none;font-family:Times;-inkscape-font-specification:Times-Roman"
       d="m 10.184053,39.71675 -1.6400003,0 0,-0.152 c 0.4399996,-0.024 0.584,-0.112001 0.584,-0.336 0,-0.128 -0.056,-0.344001 -0.152,-0.584 l -1.176,-2.936 -1.208,2.704 c -0.2639997,0.583999 -0.328,0.768 -0.328,0.888 0,0.152 0.1120003,0.232 0.368,0.248 0.032,0 0.1200001,0.008 0.232,0.016 l 0,0.152 -2.128,0 0,-0.152 c 0.3919996,-0.016 0.5040004,-0.128001 0.848,-0.84 l 1.968,-4.392 0.12,0 1.776,4.488 c 0.2639997,0.631999 0.3520004,0.72 0.7360003,0.744 l 0,0.152" /><path
       inkscape:connector-curvature="0"
       id="path3130"
       style="font-size:8px;font-variant:normal;font-weight:normal;writing-mode:lr-tb;fill:#231f20;fill-opacity:1;fill-rule:nonzero;stroke:none;font-family:Times;-inkscape-font-specification:Times-Roman"
       d="m 148.102,82.273049 -1.44,-0.728 0,-0.112 c 0.096,0.04 0.184,0.072 0.216,0.088 0.144,0.056 0.28,0.088 0.36,0.088 0.168,0 0.24,-0.12 0.24,-0.376 l 0,-3.624 c 0,-0.263999 -0.064,-0.448 -0.192,-0.52 -0.12,-0.072 -0.232,-0.096 -0.568,-0.104 l 0,-0.12 2.208,0 0,0.12 c -0.632,0.008 -0.76,0.088 -0.76,0.472 l 0,4.8 -0.064,0.016" /><path
       inkscape:connector-curvature="0"
       id="path3132"
       style="font-size:8px;font-variant:normal;font-weight:normal;writing-mode:lr-tb;fill:#231f20;fill-opacity:1;fill-rule:nonzero;stroke:none;font-family:Times;-inkscape-font-specification:Times-Roman"
       d="m 149.83,81.849049 c 0.104,0.008 0.176,0.016 0.256,0.016 0.264,0 0.344,-0.104 0.344,-0.488 l 0,-3.856 c 0,-0.415999 -0.024,-0.44 -0.6,-0.536 l 0,-0.12 1.872,0 0,0.12 -0.16,0.008 c -0.32,0.016 -0.44,0.128001 -0.44,0.408 l 0,1.472 1.12,-1.496 0.024,-0.032 c 0.016,-0.024 0.032,-0.048 0.056,-0.072 0.064,-0.08 0.088,-0.128 0.088,-0.168 0,-0.072 -0.072,-0.12 -0.168,-0.12 l -0.152,0 0,-0.12 1.744,0 0,0.12 c -0.352,0.024 -0.6,0.176001 -0.936,0.584 l -1.224,1.552 0.232,0.216 c 0.568,0.528 1.064,0.896 1.296,0.96 0.12,0.032 0.232,0.048 0.368,0.048 l 0.064,0 0,0.12 -1.632,0 0,-0.112 c 0.312,-0.008 0.4,-0.04 0.4,-0.152 0,-0.064 -0.072,-0.176 -0.184,-0.272 l -1.096,-0.976 0,3.36 -0.032,0.016 c -0.304,-0.096 -0.536,-0.16 -1,-0.288 l -0.24,-0.064 0,-0.128" /><text
       transform="scale(1,-1)"
       id="text34"
       x="153.774"
       y="-76.865059"><tspan
         style="font-size:8px;font-variant:normal;font-weight:normal;writing-mode:lr-tb;fill:#231f20;fill-opacity:1;fill-rule:nonzero;stroke:none;font-family:Symbol;-inkscape-font-specification:Symbol"
         x="153.774"
         y="-76.865059"
         id="tspan36">Ω</tspan></text>
<text
       transform="scale(1,-1)"
       id="text38"
       x="31.357018"
       y="-71.062553"><tspan
         style="font-size:8px;font-variant:normal;font-weight:normal;writing-mode:lr-tb;fill:#231f20;fill-opacity:1;fill-rule:nonzero;stroke:none;font-family:Times;-inkscape-font-specification:Times-Roman"
         x="31.357018 35.357018 39.357018 43.357018 45.357018"
         y="-71.062553"
         sodipodi:role="line"
         id="tspan40">100 k</tspan></text>
<text
       transform="scale(1,-1)"
       id="text42"
       x="49.357018"
       y="-71.062553"><tspan
         style="font-size:8px;font-variant:normal;font-weight:normal;writing-mode:lr-tb;fill:#231f20;fill-opacity:1;fill-rule:nonzero;stroke:none;font-family:Symbol;-inkscape-font-specification:Symbol"
         x="49.357018"
         y="-71.062553"
         id="tspan44">Ω</tspan></text>
<path
       inkscape:connector-curvature="0"
       id="path46"
       style="fill:#ffffff;fill-opacity:1;fill-rule:nonzero;stroke:none;stroke-width:0.8;stroke-miterlimit:3.86369991;stroke-dasharray:none"
       d="m 135.104,31.523 10.3141,0 0,11.5586 -10.3141,0 0,-11.5586 z" /><path
       inkscape:connector-curvature="0"
       id="path48"
       style="fill:none;stroke:#231f20;stroke-width:0.80000001;stroke-linecap:round;stroke-linejoin:round;stroke-miterlimit:3.86369991;stroke-opacity:1;stroke-dasharray:none"
       d="m 145.45201,40.0156 -10.314,0" /><path
       inkscape:connector-curvature="0"
       id="path50"
       style="fill:none;stroke:#231f20;stroke-width:0.80000001;stroke-linecap:round;stroke-linejoin:round;stroke-miterlimit:3.86369991;stroke-opacity:1;stroke-dasharray:none"
       d="m 143.48001,36.5563 -6.369,0" /><path
       inkscape:connector-curvature="0"
       id="path52"
       style="fill:none;stroke:#231f20;stroke-width:0.80000001;stroke-linecap:round;stroke-linejoin:round;stroke-miterlimit:3.86369991;stroke-opacity:1;stroke-dasharray:none"
       d="m 140.29501,36.1891 0,-4.6661" /><path
       inkscape:connector-curvature="0"
       id="path54"
       style="fill:none;stroke:#231f20;stroke-width:0.80000001;stroke-linecap:round;stroke-linejoin:round;stroke-miterlimit:3.86369991;stroke-opacity:1;stroke-dasharray:none"
       d="m 140.29501,44.748241 0,-4.666" /><path
       inkscape:connector-curvature="0"
       id="path56"
       style="fill:#ffffff;fill-opacity:1;fill-rule:nonzero;stroke:none;stroke-width:0.8;stroke-miterlimit:3.86369991;stroke-dasharray:none"
       d="m 12.055305,31.523 10.3145,0 0,11.5586 -10.3145,0 0,-11.5586 z" /><path
       inkscape:connector-curvature="0"
       id="path58"
       style="fill:none;stroke:#231f20;stroke-width:0.8;stroke-linecap:round;stroke-linejoin:round;stroke-miterlimit:3.86369991;stroke-opacity:1;stroke-dasharray:none"
       d="m 22.369805,38.4156 -10.3145,0" /><path
       inkscape:connector-curvature="0"
       id="path60"
       style="fill:none;stroke:#231f20;stroke-width:0.80000001;stroke-linecap:round;stroke-linejoin:round;stroke-miterlimit:3.86369991;stroke-opacity:1;stroke-dasharray:none"
       d="m 20.397105,34.9563 -6.3691,0" /><path
       inkscape:connector-curvature="0"
       id="path62"
       style="fill:none;stroke:#231f20;stroke-width:0.80000001;stroke-linecap:round;stroke-linejoin:round;stroke-miterlimit:3.86369991;stroke-opacity:1;stroke-dasharray:none"
       d="m 17.212805,34.940087 0,-4.6661" /><path
       inkscape:connector-curvature="0"
       id="path64"
       style="fill:none;stroke:#231f20;stroke-width:0.8;stroke-linecap:round;stroke-linejoin:round;stroke-miterlimit:3.86369991;stroke-opacity:1;stroke-dasharray:none"
       d="m 17.212805,43.0816 0,-4.666" /><path
       inkscape:connector-curvature="0"
       id="path66"
       style="fill:#ffffff;fill-opacity:1;fill-rule:nonzero;stroke:none"
       d="m 136.52431,62.334548 7.38008,0 0,32.064239 -7.38008,0 0,-32.064239 z" /><path
       inkscape:connector-curvature="0"
       id="path68"
       style="fill:none;stroke:#231f20;stroke-width:0.80000001;stroke-linecap:round;stroke-linejoin:round;stroke-miterlimit:3.86369991;stroke-opacity:1;stroke-dasharray:none"
       d="m 140.336,61.747017 0,3.6125 -3.699,1.5703 7.469,3.1492 -7.469,3.1954 7.469,3.1972 -7.469,3.1504 7.469,3.1231 -7.469,3.1504 7.373,3.1972 -3.674,1.5293 0,3.799" /><path
       inkscape:connector-curvature="0"
       id="path70"
       style="fill:none;stroke:#231f20;stroke-width:0.8;stroke-linecap:round;stroke-linejoin:round;stroke-miterlimit:3.86369991;stroke-opacity:1;stroke-dasharray:none"
       d="m 17.2211,65.0199 50.916,0.002" /><path
       inkscape:connector-curvature="0"
       id="path72"
       style="fill:#ffffff;fill-opacity:1;fill-rule:nonzero;stroke:none"
       d="m 26.4039,61.3227 32.4512,0 0,7.46875 -32.4512,0 0,-7.46875 z" /><path
       inkscape:connector-curvature="0"
       id="path74"
       style="fill:none;stroke:#231f20;stroke-width:0.80000001;stroke-linecap:round;stroke-linejoin:round;stroke-miterlimit:3.86369991;stroke-opacity:1;stroke-dasharray:none"
       d="m 59.0777,65.0219 -3.6125,0 -1.5703,-3.6992 -3.1492,7.4687 -3.1953,-7.4687 -3.1973,7.4687 -3.1504,-7.4687 -3.123,7.4687 -3.1504,-7.4687 -3.1973,7.373 -1.5293,-3.6738 -3.7988,0" /><path
       inkscape:connector-curvature="0"
       id="path76"
       style="fill:none;stroke:#231f20;stroke-width:0.80000001;stroke-linecap:round;stroke-linejoin:round;stroke-miterlimit:3.86369991;stroke-opacity:1;stroke-dasharray:none"
       d="m 86.3473,12.1172 0,-6.43009" /><path
       inkscape:connector-curvature="0"
       id="path78"
       style="fill:none;stroke:#231f20;stroke-width:0.80000001;stroke-linecap:round;stroke-linejoin:round;stroke-miterlimit:3.86369991;stroke-opacity:1;stroke-dasharray:none"
       d="m 93.3473,5.68711 -14,0" /><path
       inkscape:connector-curvature="0"
       id="path80"
       style="fill:none;stroke:#231f20;stroke-width:0.80000001;stroke-linecap:round;stroke-linejoin:round;stroke-miterlimit:3.86369991;stroke-opacity:1;stroke-dasharray:none"
       d="m 91.210431,3.04297 -9.640271,0" /><path
       inkscape:connector-curvature="0"
       id="path82"
       style="fill:none;stroke:#231f20;stroke-width:0.80000001;stroke-linecap:round;stroke-linejoin:round;stroke-miterlimit:3.86369991;stroke-opacity:1;stroke-dasharray:none"
       d="m 89.704561,0.48599138 -6.32756,0" /><path
       inkscape:connector-curvature="0"
       id="path84"
       style="fill:none;stroke:#231f20;stroke-width:0.80000001;stroke-linecap:round;stroke-linejoin:round;stroke-miterlimit:3.86369991;stroke-opacity:1;stroke-dasharray:none"
       d="M 69.3988,70.3129 86.2406,76.341" /><path
       inkscape:connector-curvature="0"
       id="path86"
       style="fill:none;stroke:#231f20;stroke-width:2;stroke-linecap:round;stroke-linejoin:round;stroke-miterlimit:3.86369991;stroke-opacity:1;stroke-dasharray:none"
       d="m 69.0414,56.0832 0,18.8047" /><path
       inkscape:connector-curvature="0"
       id="path88"
       style="fill:none;stroke:#231f20;stroke-width:0.80000001;stroke-linecap:round;stroke-linejoin:round;stroke-miterlimit:3.86369991;stroke-opacity:1;stroke-dasharray:none"
       d="M 69.7934,59.3402 83.9262,51.4074" /><path
       inkscape:connector-curvature="0"
       id="path90"
       style="fill:#231f20;fill-opacity:1;fill-rule:nonzero;stroke:none"
       d="m 81.2035,52.6867 -0.0898,2.5285 0.0898,0.0067 2.3887,-2.9473 c 0.9375,-0.8359 1.8769,-1.6726 2.8144,-2.5098 -1.2031,0.3653 -2.4062,0.7317 -3.6093,1.0969 l -3.7578,0.5047 -0.0469,0.0684 2.2109,1.2519" /><path
       inkscape:connector-curvature="0"
       id="path92"
       style="fill:#231f20;fill-opacity:1;fill-rule:nonzero;stroke:none"
       d="m 88.0141,11.5531 c 0,-0.9211 -0.7461,-1.66716 -1.6668,-1.66716 -0.9211,0 -1.6672,0.74606 -1.6672,1.66716 0,0.9199 0.7461,1.6668 1.6672,1.6668 0.9207,0 1.6668,-0.7469 1.6668,-1.6668" /></g></svg>