<?xml version="1.0" encoding="UTF-8" standalone="no"?>
<!-- Created with Inkscape (http://www.inkscape.org/) -->

<svg
   xmlns:ns0="http://www.iki.fi/pav/software/textext/"
   xmlns:dc="http://purl.org/dc/elements/1.1/"
   xmlns:cc="http://creativecommons.org/ns#"
   xmlns:rdf="http://www.w3.org/1999/02/22-rdf-syntax-ns#"
   xmlns:svg="http://www.w3.org/2000/svg"
   xmlns="http://www.w3.org/2000/svg"
   xmlns:sodipodi="http://sodipodi.sourceforge.net/DTD/sodipodi-0.dtd"
   xmlns:inkscape="http://www.inkscape.org/namespaces/inkscape"
   width="425.19684"
   height="283.46457"
   id="svg2"
   version="1.1"
   inkscape:version="0.48.4 r9939"
   sodipodi:docname="sol3.2.svg">
  <sodipodi:namedview
     id="base"
     pagecolor="#ffffff"
     bordercolor="#666666"
     borderopacity="1.0"
     inkscape:pageopacity="0.0"
     inkscape:pageshadow="2"
     inkscape:zoom="1.9967223"
     inkscape:cx="182.79967"
     inkscape:cy="148.6096"
     inkscape:document-units="cm"
     inkscape:current-layer="layer1"
     showgrid="false"
     units="cm"
     inkscape:object-nodes="true"
     inkscape:window-width="1366"
     inkscape:window-height="744"
     inkscape:window-x="0"
     inkscape:window-y="24"
     inkscape:window-maximized="1">
    <inkscape:grid
       type="xygrid"
       id="grid2985"
       empspacing="5"
       visible="true"
       enabled="true"
       snapvisiblegridlinesonly="true" />
  </sodipodi:namedview>
  <defs
     id="defs4">
    <marker
       style="overflow:visible"
       id="Arrow1Mstart"
       refX="0.0"
       refY="0.0"
       orient="auto"
       inkscape:stockid="Arrow1Mstart">
      <path
         transform="scale(0.4) translate(10,0)"
         style="fill-rule:evenodd;stroke:#000000;stroke-width:1.0pt"
         d="M 0.0,0.0 L 5.0,-5.0 L -12.5,0.0 L 5.0,5.0 L 0.0,0.0 z "
         id="path6343" />
    </marker>
    <marker
       inkscape:stockid="Arrow1Mend"
       orient="auto"
       refY="0"
       refX="0"
       id="Arrow1Mend"
       style="overflow:visible">
      <path
         id="path3949"
         d="M 0,0 5,-5 -12.5,0 5,5 0,0 z"
         style="fill-rule:evenodd;stroke:#000000;stroke-width:1pt"
         transform="matrix(-0.4,0,0,-0.4,-4,0)"
         inkscape:connector-curvature="0" />
    </marker>
    <marker
       inkscape:stockid="Arrow1Mend"
       orient="auto"
       refY="0"
       refX="0"
       id="Arrow1Mend-0"
       style="overflow:visible">
      <path
         id="path3949-9"
         d="M 0,0 5,-5 -12.5,0 5,5 0,0 z"
         style="fill-rule:evenodd;stroke:#000000;stroke-width:1pt"
         transform="matrix(-0.4,0,0,-0.4,-4,0)"
         inkscape:connector-curvature="0" />
    </marker>
  </defs>
  <metadata
     id="metadata7">
    <rdf:RDF>
      <cc:Work
         rdf:about="">
        <dc:format>image/svg+xml</dc:format>
        <dc:type
           rdf:resource="http://purl.org/dc/dcmitype/StillImage" />
        <dc:title></dc:title>
      </cc:Work>
    </rdf:RDF>
  </metadata>
  <g
     inkscape:label="Layer 1"
     inkscape:groupmode="layer"
     id="layer1"
     transform="translate(0,-768.89631)">
    <text
       xml:space="preserve"
       style="font-size:12px;font-style:normal;font-variant:normal;font-weight:normal;font-stretch:normal;text-align:center;line-height:125%;letter-spacing:0px;word-spacing:0px;text-anchor:middle;fill:#000000;fill-opacity:1;stroke:none;font-family:LMRoman12;-inkscape-font-specification:LMRoman12"
       x="140.30785"
       y="115.38005"
       id="text3819"
       sodipodi:linespacing="125%"
       transform="translate(0,768.89631)"><tspan
         sodipodi:role="line"
         id="tspan3821"
         x="140.30785"
         y="115.38005" /></text>
    <g
       id="g4635"
       transform="matrix(1.2,0,0,-1.2,-182.33431,1666.3408)"
       xml:space="preserve"
       stroke-miterlimit="10.433"
       font-style="normal"
       font-variant="normal"
       font-weight="normal"
       font-stretch="normal"
       font-size-adjust="none"
       letter-spacing="normal"
       word-spacing="normal"
       ns0:text="$I_C$"
       ns0:preamble="/home/sriranga/Desktop/MCT/package.tex"
       style="font-style:normal;font-variant:normal;font-weight:normal;font-stretch:normal;letter-spacing:normal;word-spacing:normal;text-anchor:start;fill:none;stroke:#000000;stroke-width:1;stroke-linecap:butt;stroke-linejoin:miter;stroke-miterlimit:10.43299961;stroke-opacity:1;stroke-dasharray:none;stroke-dashoffset:0"><path
         d="m 223.6,707.12 h 2.43 v 0.16 c -0.57,0.07 -0.68,0.13 -0.68,0.41 0,0.19 0.02,0.31 0.11,0.63 l 1.23,4.4 c 0.18,0.57 0.24,0.63 0.81,0.73 v 0.16 h -2.46 v -0.16 c 0.58,-0.07 0.7,-0.15 0.7,-0.42 0,-0.14 -0.04,-0.37 -0.11,-0.62 l -1.22,-4.39 c -0.18,-0.58 -0.25,-0.64 -0.81,-0.74 z"
         id="path4637"
         inkscape:connector-curvature="0"
         style="fill:#000000;stroke-width:0" /><path
         d="m 231.37,708.86 0.25,1.39 h -0.14 c -0.06,-0.11 -0.13,-0.16 -0.27,-0.16 -0.05,0 -0.14,0.02 -0.28,0.05 -0.32,0.08 -0.6,0.12 -0.82,0.12 -1.48,0 -2.83,-1.4 -2.83,-2.94 0,-1.06 0.76,-1.81 1.82,-1.81 0.72,0 1.28,0.3 1.9,1.03 l -0.12,0.1 c -0.62,-0.61 -1.03,-0.82 -1.6,-0.82 -0.77,0 -1.22,0.53 -1.22,1.42 0,0.83 0.34,1.67 0.88,2.24 0.33,0.34 0.77,0.53 1.23,0.53 0.65,0 1,-0.37 1.07,-1.12 z"
         id="path4639"
         inkscape:connector-curvature="0"
         style="fill:#000000;stroke-width:0" /></g>    <g
       style="font-style:normal;font-variant:normal;font-weight:normal;font-stretch:normal;letter-spacing:normal;word-spacing:normal;text-anchor:start;fill:none;stroke:#000000;stroke-width:1;stroke-linecap:butt;stroke-linejoin:miter;stroke-miterlimit:10.43299961;stroke-opacity:1;stroke-dasharray:none;stroke-dashoffset:0"
       ns0:preamble="/home/sriranga/Desktop/MCT/package.tex"
       ns0:text="$V_{CE}$"
       word-spacing="normal"
       letter-spacing="normal"
       font-size-adjust="none"
       font-stretch="normal"
       font-weight="normal"
       font-variant="normal"
       font-style="normal"
       stroke-miterlimit="10.433"
       xml:space="preserve"
       transform="matrix(1.2,0,0,-1.2,-9.3865135,1784.8722)"
       id="g4800"><path
         id="path4802"
         d="m 230.28,713.61 h -1.85 v -0.16 c 0.44,-0.05 0.62,-0.15 0.62,-0.34 0,-0.18 -0.19,-0.61 -0.51,-1.18 l -2.05,-3.53 -0.66,4.4 c -0.01,0.05 -0.01,0.09 -0.01,0.15 0,0.33 0.14,0.43 0.77,0.5 v 0.16 h -2.4 v -0.16 c 0.55,-0.07 0.57,-0.1 0.78,-1.34 l 0.85,-5.16 h 0.19 l 3.71,6.1 c 0.17,0.27 0.33,0.39 0.56,0.4 z"
         inkscape:connector-curvature="0"
         style="fill:#000000;stroke-width:0" /><path
         id="path4804"
         d="m 233.89,708.86 0.25,1.39 H 234 c -0.06,-0.11 -0.13,-0.16 -0.27,-0.16 -0.05,0 -0.14,0.02 -0.28,0.05 -0.32,0.08 -0.6,0.12 -0.82,0.12 -1.48,0 -2.83,-1.4 -2.83,-2.94 0,-1.06 0.76,-1.81 1.82,-1.81 0.72,0 1.28,0.3 1.9,1.03 l -0.12,0.1 c -0.62,-0.61 -1.02,-0.82 -1.6,-0.82 -0.77,0 -1.21,0.53 -1.21,1.42 0,0.83 0.33,1.67 0.87,2.24 0.34,0.34 0.78,0.53 1.24,0.53 0.64,0 0.99,-0.37 1.06,-1.12 z"
         inkscape:connector-curvature="0"
         style="fill:#000000;stroke-width:0" /><path
         id="path4806"
         d="m 238.91,710.17 h -3.46 v -0.11 c 0.43,-0.04 0.54,-0.1 0.54,-0.28 0,-0.08 -0.04,-0.32 -0.08,-0.45 l -0.85,-3.07 c -0.12,-0.4 -0.18,-0.45 -0.57,-0.52 v -0.11 h 3.53 l 0.43,1.13 -0.11,0.05 c -0.32,-0.44 -0.5,-0.62 -0.8,-0.76 -0.26,-0.12 -0.74,-0.19 -1.26,-0.19 -0.39,0 -0.56,0.07 -0.56,0.24 0,0.07 0.08,0.4 0.26,1.01 0.09,0.31 0.15,0.54 0.22,0.8 0.24,-0.01 0.46,-0.02 0.54,-0.02 0.27,0.01 0.47,-0.03 0.54,-0.1 0.04,-0.04 0.05,-0.1 0.05,-0.22 0,-0.12 -0.01,-0.21 -0.05,-0.36 l 0.14,-0.04 0.48,1.62 -0.13,0.03 c -0.26,-0.6 -0.32,-0.64 -0.96,-0.66 -0.08,0 -0.31,-0.01 -0.55,-0.02 l 0.46,1.62 c 0.04,0.15 0.12,0.18 0.51,0.18 1.09,0 1.34,-0.09 1.34,-0.51 0,-0.09 -0.01,-0.19 -0.02,-0.31 l 0.15,-0.01 z"
         inkscape:connector-curvature="0"
         style="fill:#000000;stroke-width:0" /></g>    <path
       transform="translate(0,768.89631)"
       inkscape:connector-curvature="0"
       id="path6331"
       d="m 100,48.464569 0,115.000001 155,0"
       style="fill:none;stroke:#000000;stroke-width:1px;stroke-linecap:butt;stroke-linejoin:miter;stroke-opacity:1;marker-start:url(#Arrow1Mstart);marker-end:url(#Arrow1Mend-0)" />
    <path
       sodipodi:nodetypes="cc"
       inkscape:connector-curvature="0"
       id="path6971"
       d="m 200,932.36089 -100,-100"
       style="fill:none;stroke:#000000;stroke-width:1px;stroke-linecap:butt;stroke-linejoin:miter;stroke-opacity:1" />
    <path
       inkscape:connector-curvature="0"
       id="path6977"
       d="m 97,832.36088 6,0"
       style="fill:none;stroke:#000000;stroke-width:0.69999999;stroke-linecap:butt;stroke-linejoin:miter;stroke-miterlimit:4;stroke-opacity:1;stroke-dasharray:none" />
    <path
       style="fill:none;stroke:#000000;stroke-width:0.69999999;stroke-linecap:butt;stroke-linejoin:miter;stroke-miterlimit:4;stroke-opacity:1;stroke-dasharray:none"
       d="m 200,929.36088 0,6"
       id="path6979"
       inkscape:connector-curvature="0" />
    <text
       transform="translate(0,768.89631)"
       sodipodi:linespacing="125%"
       id="text6981"
       y="182.0696"
       x="96.023048"
       style="font-size:12px;font-style:normal;font-variant:normal;font-weight:normal;font-stretch:normal;text-align:center;line-height:125%;letter-spacing:0px;word-spacing:0px;text-anchor:middle;fill:#000000;fill-opacity:1;stroke:none;font-family:LMRoman12;-inkscape-font-specification:LMRoman12"
       xml:space="preserve"><tspan
         y="182.0696"
         x="96.023048"
         id="tspan6983"
         sodipodi:role="line" /></text>
    <text
       xml:space="preserve"
       style="font-size:12px;font-style:normal;font-variant:normal;font-weight:normal;font-stretch:normal;text-align:end;line-height:100%;letter-spacing:0px;word-spacing:0px;text-anchor:end;fill:#000000;fill-opacity:1;stroke:none;font-family:LMRoman12;-inkscape-font-specification:LMRoman12"
       x="100.92812"
       y="943.28766"
       id="text3027"
       sodipodi:linespacing="100%"><tspan
         sodipodi:role="line"
         id="tspan3029"
         x="100.92812"
         y="943.28766">0</tspan></text>
    <g
       id="content"
       transform="matrix(1.2,0,0,-1.2,-228.39361,1684.4758)"
       xml:space="preserve"
       stroke="black"
       stroke-linecap="butt"
       stroke-linejoin="miter"
       stroke-miterlimit="10.433"
       stroke-dasharray="none"
       stroke-dashoffset="0"
       stroke-opacity="1"
       fill="none"
       fill-rule="evenodd"
       fill-opacity="1"
       font-style="normal"
       font-variant="normal"
       font-weight="normal"
       font-stretch="normal"
       font-size-adjust="none"
       letter-spacing="normal"
       word-spacing="normal"
       text-anchor="start"
       ns0:text="$B(0V, 2\\, mA)$"
       ns0:preamble="/home/sriranga/Desktop/MCT/package.tex"
       style="font-style:normal;font-variant:normal;font-weight:normal;font-stretch:normal;letter-spacing:normal;word-spacing:normal;text-anchor:start;fill:none;stroke:#000000;stroke-width:1;stroke-linecap:butt;stroke-linejoin:miter;stroke-miterlimit:10.43299961;stroke-opacity:1;stroke-dasharray:none;stroke-dashoffset:0"><path
         d="M223.7,707.12 H226.51 C228.07,707.12,229.14,707.94,229.14,709.11 C229.14,709.48,229.02,709.83,228.8,710.05 C228.61,710.27,228.41,710.39,227.89,710.61 C228.6,710.78,228.88,710.9,229.2,711.18 C229.48,711.42,229.63,711.75,229.63,712.15 C229.63,713.09,228.93,713.61,227.64,713.61 L227.46,713.31 C228.26,713.31,228.63,712.98,228.63,712.24 C228.63,711.67,228.39,711.24,227.96,711 C227.62,710.8,227.14,710.73,226.25,710.73 L226.15,710.41 C226.8,710.41,227.21,710.37,227.41,710.29 C227.82,710.12,228.07,709.69,228.07,709.15 C228.07,708.08,227.33,707.42,226.12,707.42 C225.7,707.42,225.48,707.57,225.48,707.84 C225.48,707.96,225.6,708.44,225.83,709.23 C225.96,709.68,226.02,709.91,226.15,710.41 H226.15 L226.25,710.73 L226.9,713.04 C226.96,713.25,227.07,713.31,227.46,713.31 L227.64,713.61 H225.07 V713.45 C225.69,713.4,225.84,713.32,225.84,713.05 C225.84,712.9,225.8,712.65,225.73,712.41 L224.51,708.02 C224.33,707.44,224.26,707.38,223.7,707.28 Z "
         stroke-width="0"
         fill="black"
         id="path3072" /><path
         d="M232.7,713.84 L232.64,713.8 L232.57,713.75 L232.51,713.71 L232.45,713.67 L232.39,713.63 L232.33,713.59 L232.28,713.55 L232.23,713.52 L232.17,713.48 L232.13,713.44 L232.08,713.41 L232.03,713.37 L231.99,713.34 L231.95,713.3 L231.86,713.24 L231.79,713.17 L231.71,713.1 L231.64,713.03 L231.57,712.96 L231.5,712.89 L231.44,712.81 L231.37,712.73 L231.3,712.65 C230.59,711.78,230.25,710.79,230.25,709.63 C230.25,708.37,230.61,707.39,231.49,706.38 C231.9,705.9,232.16,705.68,232.67,705.37 L232.79,705.53 C232,706.15,231.72,706.5,231.45,707.24 C231.21,707.91,231.1,708.66,231.1,709.66 C231.1,710.7,231.23,711.52,231.5,712.13 C231.78,712.75,232.08,713.1,232.79,713.68 Z "
         stroke-width="0"
         fill="black"
         id="path3074" /><path
         d="M235.61,713.84 L235.56,713.84 L235.51,713.84 L235.46,713.84 L235.41,713.83 L235.37,713.83 L235.32,713.82 L235.27,713.82 L235.23,713.81 L235.18,713.8 L235.14,713.79 L235.09,713.78 L235.05,713.77 L235,713.76 L234.96,713.74 L234.92,713.73 L234.88,713.71 L234.84,713.7 L234.8,713.68 L234.76,713.66 L234.72,713.64 L234.68,713.62 L234.64,713.6 L234.6,713.57 L234.57,713.55 L234.53,713.53 L234.49,713.5 L234.46,713.47 L234.42,713.45 L234.38,713.42 L234.35,713.39 L234.31,713.36 L234.28,713.32 C233.7,712.77,233.32,711.62,233.32,710.46 C233.32,709.38,233.65,708.22,234.12,707.66 C234.49,707.22,235,706.99,235.57,706.99 V707.24 C234.72,707.24,234.28,708.31,234.28,710.37 C234.28,712.48,234.73,713.58,235.58,713.58 H235.58 C236.42,713.58,236.87,712.46,236.87,710.38 C236.87,708.31,236.43,707.24,235.57,707.24 V706.99 C236.08,706.99,236.51,707.16,236.87,707.5 C237.44,708.05,237.82,709.2,237.82,710.4 C237.82,712.44,236.92,713.84,235.61,713.84 Z "
         stroke-width="0"
         fill="black"
         id="path3076" /><path
         d="M244.91,713.61 H243.06 V713.45 C243.51,713.4,243.69,713.3,243.69,713.11 C243.69,712.93,243.5,712.5,243.17,711.93 L241.12,708.4 L240.46,712.8 C240.46,712.85,240.46,712.89,240.46,712.95 C240.46,713.28,240.59,713.38,241.22,713.45 V713.61 H238.82 V713.45 C239.38,713.38,239.4,713.35,239.61,712.11 L240.46,706.95 H240.64 L244.35,713.05 C244.52,713.32,244.68,713.44,244.91,713.45 Z "
         stroke-width="0"
         fill="black"
         id="path3078" /><path
         d="M245.21,707.18 L245.21,707.22 L245.21,707.26 L245.2,707.3 L245.2,707.33 L245.2,707.37 L245.19,707.4 L245.19,707.43 L245.18,707.46 L245.18,707.49 L245.17,707.52 L245.16,707.55 L245.15,707.58 L245.14,707.61 L245.13,707.63 L245.12,707.66 L245.11,707.68 L245.1,707.71 L245.09,707.73 L245.07,707.77 L245.04,707.81 L245.01,707.85 L244.98,707.88 L244.95,707.91 L244.92,707.94 L244.89,707.97 L244.86,707.99 L244.82,708.02 L244.79,708.04 L244.76,708.05 L244.72,708.07 L244.69,708.08 L244.66,708.09 L244.62,708.1 L244.59,708.11 L244.56,708.12 L244.53,708.13 L244.5,708.13 L244.47,708.13 L244.45,708.14 L244.42,708.14 L244.4,708.14 C244.15,708.14,243.82,707.99,243.82,707.56 C243.82,707.16,244.18,707.07,244.44,707.07 C244.51,707.07,244.56,707.08,244.59,707.09 C244.63,707.09,244.66,707.1,244.68,707.1 C244.75,707.1,244.82,707.05,244.82,706.97 C244.82,706.78,244.66,706.33,244,705.91 L244.09,705.72 C244.39,705.82,245.21,706.48,245.21,707.18 Z "
         stroke-width="0"
         fill="black"
         id="path3080" /><path
         d="M252.15,708.49 L252.02,708.54 C251.65,707.97,251.52,707.88,251.07,707.88 H248.69 L250.36,709.63 C251.25,710.55,251.64,711.31,251.64,712.08 C251.64,713.08,250.83,713.84,249.8,713.84 C249.25,713.84,248.73,713.62,248.36,713.22 C248.05,712.89,247.9,712.57,247.73,711.86 L247.94,711.81 C248.33,712.79,248.69,713.1,249.38,713.1 C250.21,713.1,250.78,712.54,250.78,711.71 C250.78,710.93,250.32,710.01,249.49,709.12 L247.72,707.24 V707.12 H251.6 Z "
         stroke-width="0"
         fill="black"
         id="path3082" /><path
         d="M260.92,708.29 L260.9,708.26 L260.88,708.24 L260.86,708.22 L260.84,708.2 L260.84,708.19 L260.83,708.18 L260.82,708.17 L260.81,708.16 L260.81,708.15 L260.8,708.15 L260.79,708.14 L260.78,708.13 L260.78,708.12 L260.77,708.11 L260.77,708.1 L260.76,708.1 L260.75,708.09 L260.75,708.08 L260.74,708.08 L260.74,708.07 L260.73,708.06 L260.73,708.06 L260.72,708.05 L260.72,708.05 L260.72,708.04 L260.71,708.04 L260.71,708.03 L260.71,708.03 C260.43,707.67,260.22,707.5,260.07,707.5 C259.99,707.5,259.94,707.56,259.94,707.66 C259.94,707.71,259.98,707.87,260.04,708.11 L260.72,710.6 C260.73,710.64,260.75,710.82,260.75,710.88 C260.75,711.24,260.5,711.51,260.16,711.51 C259.97,711.51,259.77,711.44,259.53,711.29 C259.05,710.97,258.64,710.49,257.95,709.4 C258.2,710.16,258.35,710.72,258.35,710.91 C258.35,711.26,258.12,711.51,257.78,711.51 C257.17,711.51,256.48,710.85,255.56,709.41 L256.14,711.49 L256.11,711.51 C255.55,711.39,255.34,711.35,254.52,711.2 V711.04 H254.77 C255.02,711.04,255.15,710.97,255.15,710.82 C255.15,710.71,254.93,709.81,254.57,708.55 C254.34,707.73,254.31,707.63,254.18,707.12 H254.93 C255.4,708.7,255.55,709.07,255.89,709.59 C256.45,710.43,257.05,710.99,257.38,710.99 C257.51,710.99,257.58,710.9,257.58,710.74 C257.58,710.65,257.26,709.45,256.64,707.12 H257.38 C257.78,708.67,257.98,709.17,258.49,709.88 C258.98,710.55,259.47,710.99,259.76,710.99 C259.87,710.99,259.96,710.89,259.96,710.78 C259.96,710.73,259.94,710.61,259.89,710.43 L259.31,708.15 C259.22,707.78,259.18,707.59,259.18,707.49 C259.18,707.19,259.32,707.04,259.58,707.04 C260.05,707.04,260.49,707.36,261.02,708.1 L261.06,708.17 Z "
         stroke-width="0"
         fill="black"
         id="path3084" /><path
         d="M267.11,707.28 L267.06,707.29 L267.01,707.29 L266.97,707.3 L266.92,707.31 L266.88,707.31 L266.84,707.32 L266.81,707.33 L266.77,707.34 L266.74,707.35 L266.71,707.36 L266.68,707.37 L266.66,707.39 L266.63,707.4 L266.61,707.42 L266.59,707.44 L266.57,707.46 L266.55,707.48 L266.54,707.51 L266.52,707.53 L266.5,707.56 L266.49,707.59 L266.48,707.63 L266.46,707.67 L266.45,707.71 L266.44,707.75 L266.43,707.79 L266.41,707.84 L266.4,707.9 L266.4,707.92 L266.39,707.95 L266.39,707.98 L266.38,708.01 L266.37,708.04 L266.37,708.07 L266.36,708.1 L266.36,708.14 L265.42,713.76 H265.16 L262.28,708.79 C261.49,707.47,261.39,707.36,260.99,707.28 V707.12 H262.86 V707.28 C262.35,707.33,262.27,707.38,262.27,707.63 C262.27,707.82,262.3,707.91,262.47,708.25 L263.03,709.37 H265.22 L265.17,709.73 H263.24 L264.73,712.31 L265.17,709.73 L265.22,709.37 L265.42,708.07 C265.43,707.98,265.44,707.89,265.44,707.81 C265.44,707.43,265.3,707.34,264.67,707.28 V707.12 H267.11 Z "
         stroke-width="0"
         fill="black"
         id="path3086" /><path
         d="M267.97,705.37 L268.04,705.41 L268.1,705.45 L268.16,705.5 L268.22,705.54 L268.28,705.58 L268.34,705.61 L268.39,705.65 L268.45,705.69 L268.5,705.73 L268.55,705.76 L268.59,705.8 L268.64,705.83 L268.68,705.87 L268.73,705.9 L268.81,705.97 L268.89,706.04 L268.96,706.11 L269.03,706.18 L269.1,706.25 L269.17,706.32 L269.24,706.4 L269.3,706.48 L269.37,706.56 C270.08,707.42,270.42,708.42,270.42,709.58 C270.42,710.85,270.06,711.81,269.18,712.83 C268.77,713.3,268.52,713.52,268,713.84 L267.88,713.68 C268.67,713.05,268.94,712.71,269.22,711.96 C269.46,711.3,269.57,710.54,269.57,709.55 C269.57,708.52,269.44,707.69,269.17,707.09 C268.89,706.46,268.6,706.1,267.88,705.53 Z "
         stroke-width="0"
         fill="black"
         id="path3088" /></g>    <g
       style="font-style:normal;font-variant:normal;font-weight:normal;font-stretch:normal;letter-spacing:normal;word-spacing:normal;text-anchor:start;fill:none;stroke:#000000;stroke-width:1;stroke-linecap:butt;stroke-linejoin:miter;stroke-miterlimit:10.43299961;stroke-opacity:1;stroke-dasharray:none;stroke-dashoffset:0"
       ns0:preamble="/home/sriranga/Desktop/MCT/package.tex"
       ns0:text="$A(20V, 0\\, mA)$"
       word-spacing="normal"
       letter-spacing="normal"
       font-size-adjust="none"
       font-stretch="normal"
       font-weight="normal"
       font-variant="normal"
       font-style="normal"
       stroke-miterlimit="10.433"
       xml:space="preserve"
       transform="matrix(1.2,0,0,-1.2,-101.54304,1796.1607)"
       id="g3177"><path
         id="path3179"
         d="m 229.29,707.28 -0.05,0.01 -0.05,0 -0.04,0.01 -0.05,0.01 -0.04,0 -0.04,0.01 -0.03,0.01 -0.04,0.01 -0.03,0.01 -0.03,0.01 -0.03,0.01 -0.02,0.02 -0.03,0.01 -0.02,0.02 -0.02,0.02 -0.02,0.02 -0.02,0.02 -0.02,0.03 -0.01,0.02 -0.02,0.03 -0.01,0.03 -0.02,0.04 -0.01,0.04 -0.01,0.04 -0.01,0.04 -0.01,0.04 -0.02,0.05 -0.01,0.06 0,0.02 -0.01,0.03 0,0.03 -0.01,0.03 -0.01,0.03 0,0.03 -0.01,0.03 0,0.04 -0.94,5.62 h -0.26 l -2.88,-4.97 c -0.79,-1.32 -0.89,-1.43 -1.29,-1.51 v -0.16 h 1.86 v 0.16 c -0.5,0.05 -0.58,0.1 -0.58,0.35 0,0.19 0.03,0.28 0.2,0.62 l 0.56,1.12 h 2.19 l -0.05,0.36 h -1.93 l 1.49,2.58 0.44,-2.58 0.05,-0.36 0.2,-1.3 c 0.01,-0.09 0.02,-0.18 0.02,-0.26 0,-0.38 -0.14,-0.47 -0.77,-0.53 v -0.16 h 2.44 z"
         inkscape:connector-curvature="0"
         style="fill:#000000;stroke-width:0" /><path
         id="path3181"
         d="m 232.7,713.84 -0.06,-0.04 -0.07,-0.05 -0.06,-0.04 -0.06,-0.04 -0.06,-0.04 -0.06,-0.04 -0.05,-0.04 -0.05,-0.03 -0.06,-0.04 -0.04,-0.04 -0.05,-0.03 -0.05,-0.04 -0.04,-0.03 -0.04,-0.04 -0.09,-0.06 -0.07,-0.07 -0.08,-0.07 -0.07,-0.07 -0.07,-0.07 -0.07,-0.07 -0.06,-0.08 -0.07,-0.08 -0.07,-0.08 c -0.71,-0.87 -1.05,-1.86 -1.05,-3.02 0,-1.26 0.36,-2.24 1.24,-3.25 0.41,-0.48 0.67,-0.7 1.18,-1.01 l 0.12,0.16 c -0.79,0.62 -1.07,0.97 -1.34,1.71 -0.24,0.67 -0.35,1.42 -0.35,2.42 0,1.04 0.13,1.86 0.4,2.47 0.28,0.62 0.58,0.97 1.29,1.55 z"
         inkscape:connector-curvature="0"
         style="fill:#000000;stroke-width:0" /><path
         id="path3183"
         d="m 237.81,708.49 -0.13,0.05 c -0.37,-0.57 -0.5,-0.66 -0.94,-0.66 h -2.38 l 1.67,1.75 c 0.89,0.92 1.27,1.68 1.27,2.45 0,1 -0.8,1.76 -1.84,1.76 -0.54,0 -1.06,-0.22 -1.43,-0.62 -0.32,-0.33 -0.47,-0.65 -0.64,-1.36 l 0.21,-0.05 c 0.4,0.98 0.76,1.29 1.45,1.29 0.83,0 1.4,-0.56 1.4,-1.39 0,-0.78 -0.46,-1.7 -1.3,-2.59 l -1.77,-1.88 v -0.12 h 3.88 z"
         inkscape:connector-curvature="0"
         style="fill:#000000;stroke-width:0" /><path
         id="path3185"
         d="m 240.59,713.84 -0.05,0 -0.05,0 -0.05,0 -0.05,-0.01 -0.04,0 -0.05,-0.01 -0.05,0 -0.04,-0.01 -0.05,-0.01 -0.04,-0.01 -0.05,-0.01 -0.04,-0.01 -0.04,-0.01 -0.05,-0.02 -0.04,-0.01 -0.04,-0.02 -0.04,-0.01 -0.04,-0.02 -0.04,-0.02 -0.04,-0.02 -0.04,-0.02 -0.04,-0.02 -0.03,-0.03 -0.04,-0.02 -0.04,-0.02 -0.04,-0.03 -0.03,-0.03 -0.04,-0.02 -0.03,-0.03 -0.04,-0.03 -0.03,-0.03 -0.04,-0.04 c -0.58,-0.55 -0.95,-1.7 -0.95,-2.86 0,-1.08 0.32,-2.24 0.79,-2.8 0.37,-0.44 0.88,-0.67 1.45,-0.67 v 0.25 c -0.85,0 -1.29,1.07 -1.29,3.13 0,2.11 0.45,3.21 1.3,3.21 h 0 c 0.84,0 1.29,-1.12 1.29,-3.2 0,-2.07 -0.44,-3.14 -1.3,-3.14 v -0.25 c 0.51,0 0.94,0.17 1.3,0.51 0.58,0.55 0.95,1.7 0.95,2.9 0,2.04 -0.9,3.44 -2.21,3.44 z"
         inkscape:connector-curvature="0"
         style="fill:#000000;stroke-width:0" /><path
         id="path3187"
         d="m 249.89,713.61 h -1.85 v -0.16 c 0.45,-0.05 0.63,-0.15 0.63,-0.34 0,-0.18 -0.19,-0.61 -0.52,-1.18 l -2.05,-3.53 -0.65,4.4 c -0.01,0.05 -0.01,0.09 -0.01,0.15 0,0.33 0.14,0.43 0.76,0.5 v 0.16 h -2.4 v -0.16 c 0.56,-0.07 0.58,-0.1 0.79,-1.34 l 0.85,-5.16 h 0.19 l 3.71,6.1 c 0.17,0.27 0.32,0.39 0.55,0.4 z"
         inkscape:connector-curvature="0"
         style="fill:#000000;stroke-width:0" /><path
         id="path3189"
         d="m 250.19,707.18 0,0.04 0,0.04 0,0.04 -0.01,0.03 0,0.04 -0.01,0.03 0,0.03 -0.01,0.03 0,0.03 -0.01,0.03 -0.01,0.03 -0.01,0.03 0,0.03 -0.01,0.02 -0.01,0.03 -0.01,0.02 -0.02,0.03 -0.01,0.02 -0.02,0.04 -0.03,0.04 -0.03,0.04 -0.02,0.03 -0.03,0.03 -0.04,0.03 -0.03,0.03 -0.03,0.02 -0.03,0.03 -0.04,0.02 -0.03,0.01 -0.04,0.02 -0.03,0.01 -0.03,0.01 -0.03,0.01 -0.04,0.01 -0.03,0.01 -0.03,0.01 -0.03,0 -0.02,0 -0.03,0.01 -0.02,0 -0.03,0 c -0.25,0 -0.57,-0.15 -0.57,-0.58 0,-0.4 0.35,-0.49 0.61,-0.49 0.07,0 0.12,0.01 0.15,0.02 0.04,0 0.07,0.01 0.09,0.01 0.07,0 0.14,-0.05 0.14,-0.13 0,-0.19 -0.16,-0.64 -0.81,-1.06 l 0.08,-0.19 c 0.3,0.1 1.12,0.76 1.12,1.46 z"
         inkscape:connector-curvature="0"
         style="fill:#000000;stroke-width:0" /><path
         id="path3191"
         d="m 254.93,713.84 -0.05,0 -0.05,0 -0.05,0 -0.05,-0.01 -0.05,0 -0.05,-0.01 -0.04,0 -0.05,-0.01 -0.05,-0.01 -0.04,-0.01 -0.04,-0.01 -0.05,-0.01 -0.04,-0.01 -0.04,-0.02 -0.05,-0.01 -0.04,-0.02 -0.04,-0.01 -0.04,-0.02 -0.04,-0.02 -0.04,-0.02 -0.04,-0.02 -0.03,-0.02 -0.04,-0.03 -0.04,-0.02 -0.04,-0.02 -0.03,-0.03 -0.04,-0.03 -0.04,-0.02 -0.03,-0.03 -0.04,-0.03 -0.03,-0.03 -0.04,-0.04 c -0.57,-0.55 -0.95,-1.7 -0.95,-2.86 0,-1.08 0.33,-2.24 0.79,-2.8 0.37,-0.44 0.88,-0.67 1.46,-0.67 v 0.25 c -0.86,0 -1.3,1.07 -1.3,3.13 0,2.11 0.45,3.21 1.31,3.21 h 0 c 0.83,0 1.28,-1.12 1.28,-3.2 0,-2.07 -0.44,-3.14 -1.29,-3.14 v -0.25 c 0.51,0 0.93,0.17 1.29,0.51 0.58,0.55 0.96,1.7 0.96,2.9 0,2.04 -0.91,3.44 -2.21,3.44 z"
         inkscape:connector-curvature="0"
         style="fill:#000000;stroke-width:0" /><path
         id="path3193"
         d="m 265.9,708.29 -0.02,-0.03 -0.02,-0.02 -0.02,-0.02 -0.01,-0.02 -0.01,-0.01 -0.01,-0.01 -0.01,-0.01 0,-0.01 -0.01,-0.01 -0.01,0 -0.01,-0.01 0,-0.01 -0.01,-0.01 -0.01,-0.01 0,-0.01 -0.01,0 0,-0.01 -0.01,-0.01 -0.01,0 0,-0.01 -0.01,-0.01 0,0 0,-0.01 -0.01,0 0,-0.01 -0.01,0 0,-0.01 0,0 c -0.28,-0.36 -0.49,-0.53 -0.64,-0.53 -0.08,0 -0.13,0.06 -0.13,0.16 0,0.05 0.04,0.21 0.1,0.45 l 0.68,2.49 c 0.01,0.04 0.03,0.22 0.03,0.28 0,0.36 -0.25,0.63 -0.59,0.63 -0.19,0 -0.39,-0.07 -0.63,-0.22 -0.48,-0.32 -0.89,-0.8 -1.58,-1.89 0.25,0.76 0.4,1.32 0.4,1.51 0,0.35 -0.23,0.6 -0.57,0.6 -0.6,0 -1.3,-0.66 -2.22,-2.1 l 0.58,2.08 -0.03,0.02 c -0.56,-0.12 -0.76,-0.16 -1.59,-0.31 v -0.16 h 0.25 c 0.26,0 0.39,-0.07 0.39,-0.22 0,-0.11 -0.23,-1.01 -0.59,-2.27 -0.23,-0.82 -0.26,-0.92 -0.39,-1.43 h 0.75 c 0.48,1.58 0.62,1.95 0.96,2.47 0.56,0.84 1.16,1.4 1.49,1.4 0.13,0 0.2,-0.09 0.2,-0.25 0,-0.09 -0.31,-1.29 -0.94,-3.62 h 0.74 c 0.4,1.55 0.6,2.05 1.11,2.76 0.49,0.67 0.98,1.11 1.27,1.11 0.11,0 0.2,-0.1 0.2,-0.21 0,-0.05 -0.02,-0.17 -0.07,-0.35 l -0.57,-2.28 c -0.09,-0.37 -0.13,-0.56 -0.13,-0.66 0,-0.3 0.13,-0.45 0.39,-0.45 0.47,0 0.91,0.32 1.44,1.06 l 0.05,0.07 z"
         inkscape:connector-curvature="0"
         style="fill:#000000;stroke-width:0" /><path
         id="path3195"
         d="m 272.1,707.28 -0.06,0.01 -0.05,0 -0.04,0.01 -0.04,0.01 -0.05,0 -0.03,0.01 -0.04,0.01 -0.03,0.01 -0.04,0.01 -0.03,0.01 -0.02,0.01 -0.03,0.02 -0.02,0.01 -0.03,0.02 -0.02,0.02 -0.02,0.02 -0.02,0.02 -0.01,0.03 -0.02,0.02 -0.01,0.03 -0.02,0.03 -0.01,0.04 -0.02,0.04 -0.01,0.04 -0.01,0.04 -0.01,0.04 -0.01,0.05 -0.01,0.06 -0.01,0.02 -0.01,0.03 0,0.03 -0.01,0.03 0,0.03 -0.01,0.03 0,0.03 -0.01,0.04 -0.94,5.62 h -0.26 l -2.88,-4.97 c -0.79,-1.32 -0.88,-1.43 -1.28,-1.51 v -0.16 h 1.86 v 0.16 c -0.51,0.05 -0.59,0.1 -0.59,0.35 0,0.19 0.03,0.28 0.2,0.62 l 0.57,1.12 h 2.18 l -0.05,0.36 h -1.92 l 1.49,2.58 0.43,-2.58 0.05,-0.36 0.2,-1.3 c 0.01,-0.09 0.02,-0.18 0.02,-0.26 0,-0.38 -0.13,-0.47 -0.77,-0.53 v -0.16 h 2.45 z"
         inkscape:connector-curvature="0"
         style="fill:#000000;stroke-width:0" /><path
         id="path3197"
         d="m 272.95,705.37 0.07,0.04 0.06,0.04 0.06,0.05 0.07,0.04 0.05,0.04 0.06,0.03 0.05,0.04 0.06,0.04 0.05,0.04 0.05,0.03 0.04,0.04 0.05,0.03 0.04,0.04 0.05,0.03 0.08,0.07 0.08,0.07 0.07,0.07 0.07,0.07 0.07,0.07 0.07,0.07 0.07,0.08 0.06,0.08 0.07,0.08 c 0.71,0.86 1.06,1.86 1.06,3.02 0,1.27 -0.37,2.23 -1.25,3.25 -0.4,0.47 -0.66,0.69 -1.18,1.01 l -0.12,-0.16 c 0.79,-0.63 1.06,-0.97 1.34,-1.72 0.24,-0.66 0.35,-1.42 0.35,-2.41 0,-1.03 -0.13,-1.86 -0.4,-2.46 -0.28,-0.63 -0.57,-0.99 -1.29,-1.56 z"
         inkscape:connector-curvature="0"
         style="fill:#000000;stroke-width:0" /></g>  </g>
</svg>
