<?xml version="1.0" encoding="UTF-8" standalone="no"?>
<!-- Created with Inkscape (http://www.inkscape.org/) -->

<svg
   xmlns:ns0="http://www.iki.fi/pav/software/textext/"
   xmlns:dc="http://purl.org/dc/elements/1.1/"
   xmlns:cc="http://creativecommons.org/ns#"
   xmlns:rdf="http://www.w3.org/1999/02/22-rdf-syntax-ns#"
   xmlns:svg="http://www.w3.org/2000/svg"
   xmlns="http://www.w3.org/2000/svg"
   xmlns:sodipodi="http://sodipodi.sourceforge.net/DTD/sodipodi-0.dtd"
   xmlns:inkscape="http://www.inkscape.org/namespaces/inkscape"
   width="425.19684"
   height="283.46457"
   id="svg2"
   version="1.1"
   inkscape:version="0.48.4 r9939"
   sodipodi:docname="sol3.1.eps">
  <sodipodi:namedview
     id="base"
     pagecolor="#ffffff"
     bordercolor="#666666"
     borderopacity="1.0"
     inkscape:pageopacity="0.0"
     inkscape:pageshadow="2"
     inkscape:zoom="1.9967223"
     inkscape:cx="132.2922"
     inkscape:cy="135.38401"
     inkscape:document-units="cm"
     inkscape:current-layer="layer1"
     showgrid="false"
     units="cm"
     inkscape:object-nodes="true"
     inkscape:window-width="1366"
     inkscape:window-height="744"
     inkscape:window-x="0"
     inkscape:window-y="24"
     inkscape:window-maximized="1">
    <inkscape:grid
       snapvisiblegridlinesonly="true"
       enabled="true"
       visible="true"
       empspacing="5"
       id="grid2985"
       type="xygrid" />
  </sodipodi:namedview>
  <defs
     id="defs4">
    <marker
       inkscape:stockid="Arrow1Mstart"
       orient="auto"
       refY="0.0"
       refX="0.0"
       id="Arrow1Mstart"
       style="overflow:visible">
      <path
         id="path6343"
         d="M 0.0,0.0 L 5.0,-5.0 L -12.5,0.0 L 5.0,5.0 L 0.0,0.0 z "
         style="fill-rule:evenodd;stroke:#000000;stroke-width:1.0pt"
         transform="scale(0.4) translate(10,0)" />
    </marker>
    <marker
       style="overflow:visible"
       id="Arrow1Mend"
       refX="0"
       refY="0"
       orient="auto"
       inkscape:stockid="Arrow1Mend">
      <path
         inkscape:connector-curvature="0"
         transform="matrix(-0.4,0,0,-0.4,-4,0)"
         style="fill-rule:evenodd;stroke:#000000;stroke-width:1pt"
         d="M 0,0 5,-5 -12.5,0 5,5 0,0 z"
         id="path3949" />
    </marker>
    <marker
       style="overflow:visible"
       id="Arrow1Mend-0"
       refX="0"
       refY="0"
       orient="auto"
       inkscape:stockid="Arrow1Mend">
      <path
         inkscape:connector-curvature="0"
         transform="matrix(-0.4,0,0,-0.4,-4,0)"
         style="fill-rule:evenodd;stroke:#000000;stroke-width:1pt"
         d="M 0,0 5,-5 -12.5,0 5,5 0,0 z"
         id="path3949-9" />
    </marker>
  </defs>
  <metadata
     id="metadata7">
    <rdf:RDF>
      <cc:Work
         rdf:about="">
        <dc:format>image/svg+xml</dc:format>
        <dc:type
           rdf:resource="http://purl.org/dc/dcmitype/StillImage" />
        <dc:title></dc:title>
      </cc:Work>
    </rdf:RDF>
  </metadata>
  <g
     transform="translate(0,-768.89631)"
     id="layer1"
     inkscape:groupmode="layer"
     inkscape:label="Layer 1">
    <text
       transform="translate(0,768.89631)"
       sodipodi:linespacing="125%"
       id="text3819"
       y="115.38005"
       x="140.30785"
       style="font-size:12px;font-style:normal;font-variant:normal;font-weight:normal;font-stretch:normal;text-align:center;line-height:125%;letter-spacing:0px;word-spacing:0px;text-anchor:middle;fill:#000000;fill-opacity:1;stroke:none;font-family:LMRoman12;-inkscape-font-specification:LMRoman12"
       xml:space="preserve"><tspan
         y="115.38005"
         x="140.30785"
         id="tspan3821"
         sodipodi:role="line" /></text>
    <g
       style="font-style:normal;font-variant:normal;font-weight:normal;font-stretch:normal;letter-spacing:normal;word-spacing:normal;text-anchor:start;fill:none;stroke:#000000;stroke-width:1;stroke-linecap:butt;stroke-linejoin:miter;stroke-miterlimit:10.43299961;stroke-opacity:1;stroke-dasharray:none;stroke-dashoffset:0"
       ns0:preamble="/home/sriranga/Desktop/MCT/package.tex"
       ns0:text="$I_C$"
       word-spacing="normal"
       letter-spacing="normal"
       font-size-adjust="none"
       font-stretch="normal"
       font-weight="normal"
       font-variant="normal"
       font-style="normal"
       stroke-miterlimit="10.433"
       xml:space="preserve"
       transform="matrix(1.2,0,0,-1.2,-182.33431,1666.3408)"
       id="g4635"><path
         style="fill:#000000;stroke-width:0"
         inkscape:connector-curvature="0"
         id="path4637"
         d="m 223.6,707.12 h 2.43 v 0.16 c -0.57,0.07 -0.68,0.13 -0.68,0.41 0,0.19 0.02,0.31 0.11,0.63 l 1.23,4.4 c 0.18,0.57 0.24,0.63 0.81,0.73 v 0.16 h -2.46 v -0.16 c 0.58,-0.07 0.7,-0.15 0.7,-0.42 0,-0.14 -0.04,-0.37 -0.11,-0.62 l -1.22,-4.39 c -0.18,-0.58 -0.25,-0.64 -0.81,-0.74 z" /><path
         style="fill:#000000;stroke-width:0"
         inkscape:connector-curvature="0"
         id="path4639"
         d="m 231.37,708.86 0.25,1.39 h -0.14 c -0.06,-0.11 -0.13,-0.16 -0.27,-0.16 -0.05,0 -0.14,0.02 -0.28,0.05 -0.32,0.08 -0.6,0.12 -0.82,0.12 -1.48,0 -2.83,-1.4 -2.83,-2.94 0,-1.06 0.76,-1.81 1.82,-1.81 0.72,0 1.28,0.3 1.9,1.03 l -0.12,0.1 c -0.62,-0.61 -1.03,-0.82 -1.6,-0.82 -0.77,0 -1.22,0.53 -1.22,1.42 0,0.83 0.34,1.67 0.88,2.24 0.33,0.34 0.77,0.53 1.23,0.53 0.65,0 1,-0.37 1.07,-1.12 z" /></g>    <g
       id="g4800"
       transform="matrix(1.2,0,0,-1.2,-9.3865135,1784.8722)"
       xml:space="preserve"
       stroke-miterlimit="10.433"
       font-style="normal"
       font-variant="normal"
       font-weight="normal"
       font-stretch="normal"
       font-size-adjust="none"
       letter-spacing="normal"
       word-spacing="normal"
       ns0:text="$V_{CE}$"
       ns0:preamble="/home/sriranga/Desktop/MCT/package.tex"
       style="font-style:normal;font-variant:normal;font-weight:normal;font-stretch:normal;letter-spacing:normal;word-spacing:normal;text-anchor:start;fill:none;stroke:#000000;stroke-width:1;stroke-linecap:butt;stroke-linejoin:miter;stroke-miterlimit:10.43299961;stroke-opacity:1;stroke-dasharray:none;stroke-dashoffset:0"><path
         style="fill:#000000;stroke-width:0"
         inkscape:connector-curvature="0"
         d="m 230.28,713.61 h -1.85 v -0.16 c 0.44,-0.05 0.62,-0.15 0.62,-0.34 0,-0.18 -0.19,-0.61 -0.51,-1.18 l -2.05,-3.53 -0.66,4.4 c -0.01,0.05 -0.01,0.09 -0.01,0.15 0,0.33 0.14,0.43 0.77,0.5 v 0.16 h -2.4 v -0.16 c 0.55,-0.07 0.57,-0.1 0.78,-1.34 l 0.85,-5.16 h 0.19 l 3.71,6.1 c 0.17,0.27 0.33,0.39 0.56,0.4 z"
         id="path4802" /><path
         style="fill:#000000;stroke-width:0"
         inkscape:connector-curvature="0"
         d="m 233.89,708.86 0.25,1.39 H 234 c -0.06,-0.11 -0.13,-0.16 -0.27,-0.16 -0.05,0 -0.14,0.02 -0.28,0.05 -0.32,0.08 -0.6,0.12 -0.82,0.12 -1.48,0 -2.83,-1.4 -2.83,-2.94 0,-1.06 0.76,-1.81 1.82,-1.81 0.72,0 1.28,0.3 1.9,1.03 l -0.12,0.1 c -0.62,-0.61 -1.02,-0.82 -1.6,-0.82 -0.77,0 -1.21,0.53 -1.21,1.42 0,0.83 0.33,1.67 0.87,2.24 0.34,0.34 0.78,0.53 1.24,0.53 0.64,0 0.99,-0.37 1.06,-1.12 z"
         id="path4804" /><path
         style="fill:#000000;stroke-width:0"
         inkscape:connector-curvature="0"
         d="m 238.91,710.17 h -3.46 v -0.11 c 0.43,-0.04 0.54,-0.1 0.54,-0.28 0,-0.08 -0.04,-0.32 -0.08,-0.45 l -0.85,-3.07 c -0.12,-0.4 -0.18,-0.45 -0.57,-0.52 v -0.11 h 3.53 l 0.43,1.13 -0.11,0.05 c -0.32,-0.44 -0.5,-0.62 -0.8,-0.76 -0.26,-0.12 -0.74,-0.19 -1.26,-0.19 -0.39,0 -0.56,0.07 -0.56,0.24 0,0.07 0.08,0.4 0.26,1.01 0.09,0.31 0.15,0.54 0.22,0.8 0.24,-0.01 0.46,-0.02 0.54,-0.02 0.27,0.01 0.47,-0.03 0.54,-0.1 0.04,-0.04 0.05,-0.1 0.05,-0.22 0,-0.12 -0.01,-0.21 -0.05,-0.36 l 0.14,-0.04 0.48,1.62 -0.13,0.03 c -0.26,-0.6 -0.32,-0.64 -0.96,-0.66 -0.08,0 -0.31,-0.01 -0.55,-0.02 l 0.46,1.62 c 0.04,0.15 0.12,0.18 0.51,0.18 1.09,0 1.34,-0.09 1.34,-0.51 0,-0.09 -0.01,-0.19 -0.02,-0.31 l 0.15,-0.01 z"
         id="path4806" /></g>    <path
       style="fill:none;stroke:#000000;stroke-width:1px;stroke-linecap:butt;stroke-linejoin:miter;stroke-opacity:1;marker-start:url(#Arrow1Mstart);marker-end:url(#Arrow1Mend-0)"
       d="m 100,48.464569 0,115.000001 155,0"
       id="path6331"
       inkscape:connector-curvature="0"
       transform="translate(0,768.89631)" />
    <path
       style="fill:none;stroke:#000000;stroke-width:1px;stroke-linecap:butt;stroke-linejoin:miter;stroke-opacity:1"
       d="m 200,932.36088 -100,-82"
       id="path6971"
       inkscape:connector-curvature="0"
       sodipodi:nodetypes="cc" />
    <path
       style="fill:none;stroke:#000000;stroke-width:0.7;stroke-linecap:butt;stroke-linejoin:miter;stroke-opacity:1;stroke-miterlimit:4;stroke-dasharray:none"
       d="m 97,81.464569 6,0"
       id="path6977"
       inkscape:connector-curvature="0"
       transform="translate(0,768.89631)" />
    <path
       inkscape:connector-curvature="0"
       id="path6979"
       d="m 200,929.36088 0,6"
       style="fill:none;stroke:#000000;stroke-width:0.69999999;stroke-linecap:butt;stroke-linejoin:miter;stroke-miterlimit:4;stroke-opacity:1;stroke-dasharray:none" />
    <text
       xml:space="preserve"
       style="font-size:12px;font-style:normal;font-variant:normal;font-weight:normal;font-stretch:normal;text-align:center;line-height:125%;letter-spacing:0px;word-spacing:0px;text-anchor:middle;fill:#000000;fill-opacity:1;stroke:none;font-family:LMRoman12;-inkscape-font-specification:LMRoman12"
       x="96.023048"
       y="182.0696"
       id="text6981"
       sodipodi:linespacing="125%"
       transform="translate(0,768.89631)"><tspan
         sodipodi:role="line"
         id="tspan6983"
         x="96.023048"
         y="182.0696" /></text>
    <g
       id="g3070"
       transform="matrix(1.2,0,0,-1.2,-243.4443,1701.9849)"
       xml:space="preserve"
       stroke="black"
       stroke-linecap="butt"
       stroke-linejoin="miter"
       stroke-miterlimit="10.433"
       stroke-dasharray="none"
       stroke-dashoffset="0"
       stroke-opacity="1"
       fill="none"
       fill-rule="evenodd"
       fill-opacity="1"
       font-style="normal"
       font-variant="normal"
       font-weight="normal"
       font-stretch="normal"
       font-size-adjust="none"
       letter-spacing="normal"
       word-spacing="normal"
       text-anchor="start"
       ns0:text="$B(0V, 1.67 mA)$"
       ns0:preamble="/home/sriranga/Desktop/MCT/package.tex"
       style="font-style:normal;font-variant:normal;font-weight:normal;font-stretch:normal;letter-spacing:normal;word-spacing:normal;text-anchor:start;fill:none;stroke:#000000;stroke-width:1;stroke-linecap:butt;stroke-linejoin:miter;stroke-miterlimit:10.43299961;stroke-opacity:1;stroke-dasharray:none;stroke-dashoffset:0"><path
         d="M223.7,707.12 H226.51 C228.07,707.12,229.14,707.94,229.14,709.11 C229.14,709.48,229.02,709.83,228.8,710.05 C228.61,710.27,228.41,710.39,227.89,710.61 C228.6,710.78,228.88,710.9,229.2,711.18 C229.48,711.42,229.63,711.75,229.63,712.15 C229.63,713.09,228.93,713.61,227.64,713.61 L227.46,713.31 C228.26,713.31,228.63,712.98,228.63,712.24 C228.63,711.67,228.39,711.24,227.96,711 C227.62,710.8,227.14,710.73,226.25,710.73 L226.15,710.41 C226.8,710.41,227.21,710.37,227.41,710.29 C227.82,710.12,228.07,709.69,228.07,709.15 C228.07,708.08,227.33,707.42,226.12,707.42 C225.7,707.42,225.48,707.57,225.48,707.84 C225.48,707.96,225.6,708.44,225.83,709.23 C225.96,709.68,226.02,709.91,226.15,710.41 H226.15 L226.25,710.73 L226.9,713.04 C226.96,713.25,227.07,713.31,227.46,713.31 L227.64,713.61 H225.07 V713.45 C225.69,713.4,225.84,713.32,225.84,713.05 C225.84,712.9,225.8,712.65,225.73,712.41 L224.51,708.02 C224.33,707.44,224.26,707.38,223.7,707.28 Z "
         stroke-width="0"
         fill="black"
         id="path3072" /><path
         d="M232.7,713.84 L232.64,713.8 L232.57,713.75 L232.51,713.71 L232.45,713.67 L232.39,713.63 L232.33,713.59 L232.28,713.55 L232.23,713.52 L232.17,713.48 L232.13,713.44 L232.08,713.41 L232.03,713.37 L231.99,713.34 L231.95,713.3 L231.86,713.24 L231.79,713.17 L231.71,713.1 L231.64,713.03 L231.57,712.96 L231.5,712.89 L231.44,712.81 L231.37,712.73 L231.3,712.65 C230.59,711.78,230.25,710.79,230.25,709.63 C230.25,708.37,230.61,707.39,231.49,706.38 C231.9,705.9,232.16,705.68,232.67,705.37 L232.79,705.53 C232,706.15,231.72,706.5,231.45,707.24 C231.21,707.91,231.1,708.66,231.1,709.66 C231.1,710.7,231.23,711.52,231.5,712.13 C231.78,712.75,232.08,713.1,232.79,713.68 Z "
         stroke-width="0"
         fill="black"
         id="path3074" /><path
         d="M235.61,713.84 L235.56,713.84 L235.51,713.84 L235.46,713.84 L235.41,713.83 L235.37,713.83 L235.32,713.82 L235.27,713.82 L235.23,713.81 L235.18,713.8 L235.14,713.79 L235.09,713.78 L235.05,713.77 L235,713.76 L234.96,713.74 L234.92,713.73 L234.88,713.71 L234.84,713.7 L234.8,713.68 L234.76,713.66 L234.72,713.64 L234.68,713.62 L234.64,713.6 L234.6,713.57 L234.57,713.55 L234.53,713.53 L234.49,713.5 L234.46,713.47 L234.42,713.45 L234.38,713.42 L234.35,713.39 L234.31,713.36 L234.28,713.32 C233.7,712.77,233.32,711.62,233.32,710.46 C233.32,709.38,233.65,708.22,234.12,707.66 C234.49,707.22,235,706.99,235.57,706.99 V707.24 C234.72,707.24,234.28,708.31,234.28,710.37 C234.28,712.48,234.73,713.58,235.58,713.58 H235.58 C236.42,713.58,236.87,712.46,236.87,710.38 C236.87,708.31,236.43,707.24,235.57,707.24 V706.99 C236.08,706.99,236.51,707.16,236.87,707.5 C237.44,708.05,237.82,709.2,237.82,710.4 C237.82,712.44,236.92,713.84,235.61,713.84 Z "
         stroke-width="0"
         fill="black"
         id="path3076" /><path
         d="M244.91,713.61 H243.06 V713.45 C243.51,713.4,243.69,713.3,243.69,713.11 C243.69,712.93,243.5,712.5,243.17,711.93 L241.12,708.4 L240.46,712.8 C240.46,712.85,240.46,712.89,240.46,712.95 C240.46,713.28,240.59,713.38,241.22,713.45 V713.61 H238.82 V713.45 C239.38,713.38,239.4,713.35,239.61,712.11 L240.46,706.95 H240.64 L244.35,713.05 C244.52,713.32,244.68,713.44,244.91,713.45 Z "
         stroke-width="0"
         fill="black"
         id="path3078" /><path
         d="M245.21,707.18 L245.21,707.22 L245.21,707.26 L245.2,707.3 L245.2,707.33 L245.2,707.37 L245.19,707.4 L245.19,707.43 L245.18,707.46 L245.18,707.49 L245.17,707.52 L245.16,707.55 L245.15,707.58 L245.14,707.61 L245.13,707.63 L245.12,707.66 L245.11,707.68 L245.1,707.71 L245.09,707.73 L245.07,707.77 L245.04,707.81 L245.01,707.85 L244.98,707.88 L244.95,707.91 L244.92,707.94 L244.89,707.97 L244.86,707.99 L244.82,708.02 L244.79,708.04 L244.76,708.05 L244.72,708.07 L244.69,708.08 L244.66,708.09 L244.62,708.1 L244.59,708.11 L244.56,708.12 L244.53,708.13 L244.5,708.13 L244.47,708.13 L244.45,708.14 L244.42,708.14 L244.4,708.14 C244.15,708.14,243.82,707.99,243.82,707.56 C243.82,707.16,244.18,707.07,244.44,707.07 C244.51,707.07,244.56,707.08,244.59,707.09 C244.63,707.09,244.66,707.1,244.68,707.1 C244.75,707.1,244.82,707.05,244.82,706.97 C244.82,706.78,244.66,706.33,244,705.91 L244.09,705.72 C244.39,705.82,245.21,706.48,245.21,707.18 Z "
         stroke-width="0"
         fill="black"
         id="path3080" /><path
         d="M250.31,713.84 L248.52,712.94 V712.8 C248.64,712.85,248.75,712.89,248.79,712.91 C248.97,712.98,249.14,713.02,249.24,713.02 C249.45,713.02,249.54,712.87,249.54,712.55 V708.05 C249.54,707.72,249.46,707.49,249.3,707.4 C249.15,707.31,249.01,707.28,248.59,707.27 V707.12 H251.34 V707.27 C250.55,707.28,250.39,707.38,250.39,707.86 V713.82 Z "
         stroke-width="0"
         fill="black"
         id="path3082" /><path
         d="M254.2,707.55 L254.2,707.58 L254.2,707.61 L254.19,707.64 L254.19,707.66 L254.18,707.69 L254.18,707.72 L254.17,707.74 L254.16,707.77 L254.14,707.8 L254.13,707.82 L254.12,707.84 L254.1,707.87 L254.09,707.89 L254.07,707.91 L254.05,707.93 L254.03,707.95 L254.01,707.97 L253.99,707.99 L253.97,708 L253.95,708.02 L253.93,708.03 L253.91,708.05 L253.88,708.06 L253.86,708.07 L253.83,708.08 L253.81,708.09 L253.78,708.1 L253.75,708.11 L253.73,708.11 L253.7,708.12 L253.67,708.12 L253.64,708.12 C253.35,708.12,253.1,707.87,253.1,707.55 C253.1,707.17,253.43,707.02,253.64,707.02 C253.85,707.02,254.2,707.18,254.2,707.55 Z "
         stroke-width="0"
         fill="black"
         id="path3084" /><path
         d="M259.33,713.92 L259.22,713.91 L259.12,713.9 L259.02,713.89 L258.93,713.88 L258.83,713.87 L258.74,713.85 L258.66,713.84 L258.57,713.82 L258.49,713.81 L258.41,713.79 L258.33,713.78 L258.25,713.76 L258.17,713.74 L258.1,713.72 L257.96,713.68 L257.82,713.63 L257.68,713.57 L257.55,713.51 L257.42,713.45 L257.29,713.38 L257.16,713.3 L257.03,713.22 L256.96,713.17 L256.89,713.12 C255.82,712.36,255.23,711.23,255.23,709.9 C255.23,709.03,255.5,708.16,255.93,707.66 C256.3,707.22,256.84,706.99,257.46,706.99 C258.69,706.99,259.55,707.93,259.55,709.3 C259.55,710.57,258.82,711.38,257.68,711.38 C257.24,711.38,257.03,711.31,256.4,710.93 L256.43,710.67 C256.64,710.83,256.95,710.92,257.3,710.92 H257.3 C258.15,710.92,258.65,710.2,258.65,708.96 C258.65,707.87,258.26,707.26,257.57,707.26 C256.69,707.26,256.15,708.2,256.15,709.74 C256.15,710.24,256.23,710.52,256.43,710.67 L256.4,710.93 C256.67,712.43,257.79,713.5,259.35,713.76 Z "
         stroke-width="0"
         fill="black"
         id="path3086" /><path
         d="M264.34,713.7 H260.66 L260.07,712.24 L260.24,712.16 C260.67,712.84,260.85,712.97,261.39,712.97 H263.55 L261.58,707.05 H262.23 L264.34,713.54 Z "
         stroke-width="0"
         fill="black"
         id="path3088" /><path
         d="M271.71,708.29 L271.69,708.26 L271.67,708.24 L271.65,708.22 L271.64,708.2 L271.63,708.19 L271.62,708.18 L271.61,708.17 L271.61,708.16 L271.6,708.15 L271.59,708.15 L271.58,708.14 L271.58,708.13 L271.57,708.12 L271.56,708.11 L271.56,708.1 L271.55,708.1 L271.55,708.09 L271.54,708.08 L271.54,708.08 L271.53,708.07 L271.53,708.06 L271.52,708.06 L271.52,708.05 L271.51,708.05 L271.51,708.04 L271.51,708.04 L271.5,708.03 L271.5,708.03 C271.22,707.67,271.01,707.5,270.86,707.5 C270.78,707.5,270.73,707.56,270.73,707.66 C270.73,707.71,270.77,707.87,270.83,708.11 L271.51,710.6 C271.52,710.64,271.54,710.82,271.54,710.88 C271.54,711.24,271.29,711.51,270.95,711.51 C270.76,711.51,270.56,711.44,270.33,711.29 C269.84,710.97,269.43,710.49,268.74,709.4 C268.99,710.16,269.14,710.72,269.14,710.91 C269.14,711.26,268.91,711.51,268.57,711.51 C267.97,711.51,267.27,710.85,266.36,709.41 L266.93,711.49 L266.9,711.51 C266.35,711.39,266.14,711.35,265.31,711.2 V711.04 H265.56 C265.82,711.04,265.95,710.97,265.95,710.82 C265.95,710.71,265.72,709.81,265.36,708.55 C265.13,707.73,265.1,707.63,264.97,707.12 H265.72 C266.2,708.7,266.35,709.07,266.68,709.59 C267.24,710.43,267.84,710.99,268.18,710.99 C268.3,710.99,268.38,710.9,268.38,710.74 C268.38,710.65,268.06,709.45,267.43,707.12 H268.18 C268.57,708.67,268.77,709.17,269.28,709.88 C269.77,710.55,270.27,710.99,270.55,710.99 C270.66,710.99,270.75,710.89,270.75,710.78 C270.75,710.73,270.73,710.61,270.68,710.43 L270.11,708.15 C270.02,707.78,269.98,707.59,269.98,707.49 C269.98,707.19,270.12,707.04,270.38,707.04 C270.84,707.04,271.28,707.36,271.81,708.1 L271.86,708.17 Z "
         stroke-width="0"
         fill="black"
         id="path3090" /><path
         d="M277.91,707.28 L277.85,707.29 L277.81,707.29 L277.76,707.3 L277.72,707.31 L277.68,707.31 L277.64,707.32 L277.6,707.33 L277.57,707.34 L277.54,707.35 L277.51,707.36 L277.48,707.37 L277.45,707.39 L277.43,707.4 L277.41,707.42 L277.38,707.44 L277.36,707.46 L277.35,707.48 L277.33,707.51 L277.31,707.53 L277.3,707.56 L277.28,707.59 L277.27,707.63 L277.26,707.67 L277.24,707.71 L277.23,707.75 L277.22,707.79 L277.21,707.84 L277.2,707.9 L277.19,707.92 L277.19,707.95 L277.18,707.98 L277.17,708.01 L277.17,708.04 L277.16,708.07 L277.16,708.1 L277.15,708.14 L276.21,713.76 H275.96 L273.07,708.79 C272.29,707.47,272.19,707.36,271.79,707.28 V707.12 H273.65 V707.28 C273.14,707.33,273.06,707.38,273.06,707.63 C273.06,707.82,273.09,707.91,273.26,708.25 L273.83,709.37 H276.02 L275.97,709.73 H274.04 L275.53,712.31 L275.97,709.73 L276.02,709.37 L276.21,708.07 C276.23,707.98,276.23,707.89,276.23,707.81 C276.23,707.43,276.1,707.34,275.46,707.28 V707.12 H277.91 Z "
         stroke-width="0"
         fill="black"
         id="path3092" /><path
         d="M278.76,705.37 L278.83,705.41 L278.89,705.45 L278.96,705.5 L279.02,705.54 L279.08,705.58 L279.13,705.61 L279.19,705.65 L279.24,705.69 L279.29,705.73 L279.34,705.76 L279.39,705.8 L279.43,705.83 L279.48,705.87 L279.52,705.9 L279.6,705.97 L279.68,706.04 L279.75,706.11 L279.82,706.18 L279.89,706.25 L279.96,706.32 L280.03,706.4 L280.1,706.48 L280.16,706.56 C280.87,707.42,281.22,708.42,281.22,709.58 C281.22,710.85,280.85,711.81,279.98,712.83 C279.57,713.3,279.31,713.52,278.79,713.84 L278.67,713.68 C279.47,713.05,279.74,712.71,280.02,711.96 C280.25,711.3,280.36,710.54,280.36,709.55 C280.36,708.52,280.23,707.69,279.96,707.09 C279.69,706.46,279.39,706.1,278.67,705.53 Z "
         stroke-width="0"
         fill="black"
         id="path3094" /></g>    <text
       sodipodi:linespacing="100%"
       id="text3147"
       y="944.24866"
       x="102.53199"
       style="font-size:12px;font-style:normal;font-variant:normal;font-weight:normal;font-stretch:normal;text-align:end;line-height:100%;letter-spacing:0px;word-spacing:0px;text-anchor:end;fill:#000000;fill-opacity:1;stroke:none;font-family:LMRoman12;-inkscape-font-specification:LMRoman12"
       xml:space="preserve"><tspan
         y="944.24866"
         x="102.53199"
         id="tspan3149"
         sodipodi:role="line">0</tspan></text>
    <g
       style="font-style:normal;font-variant:normal;font-weight:normal;font-stretch:normal;letter-spacing:normal;word-spacing:normal;text-anchor:start;fill:none;stroke:#000000;stroke-width:1;stroke-linecap:butt;stroke-linejoin:miter;stroke-miterlimit:10.43299961;stroke-opacity:1;stroke-dasharray:none;stroke-dashoffset:0"
       ns0:preamble="/home/sriranga/Desktop/MCT/package.tex"
       ns0:text="$A(20V, 0\\, mA)$"
       word-spacing="normal"
       letter-spacing="normal"
       font-size-adjust="none"
       font-stretch="normal"
       font-weight="normal"
       font-variant="normal"
       font-style="normal"
       stroke-miterlimit="10.433"
       xml:space="preserve"
       transform="matrix(1.2,0,0,-1.2,-99.0641,1796.1607)"
       id="content"><path
         id="path3194"
         d="m 229.29,707.28 -0.05,0.01 -0.05,0 -0.04,0.01 -0.05,0.01 -0.04,0 -0.04,0.01 -0.03,0.01 -0.04,0.01 -0.03,0.01 -0.03,0.01 -0.03,0.01 -0.02,0.02 -0.03,0.01 -0.02,0.02 -0.02,0.02 -0.02,0.02 -0.02,0.02 -0.02,0.03 -0.01,0.02 -0.02,0.03 -0.01,0.03 -0.02,0.04 -0.01,0.04 -0.01,0.04 -0.01,0.04 -0.01,0.04 -0.02,0.05 -0.01,0.06 0,0.02 -0.01,0.03 0,0.03 -0.01,0.03 -0.01,0.03 0,0.03 -0.01,0.03 0,0.04 -0.94,5.62 h -0.26 l -2.88,-4.97 c -0.79,-1.32 -0.89,-1.43 -1.29,-1.51 v -0.16 h 1.86 v 0.16 c -0.5,0.05 -0.58,0.1 -0.58,0.35 0,0.19 0.03,0.28 0.2,0.62 l 0.56,1.12 h 2.19 l -0.05,0.36 h -1.93 l 1.49,2.58 0.44,-2.58 0.05,-0.36 0.2,-1.3 c 0.01,-0.09 0.02,-0.18 0.02,-0.26 0,-0.38 -0.14,-0.47 -0.77,-0.53 v -0.16 h 2.44 z"
         inkscape:connector-curvature="0"
         style="fill:#000000;stroke-width:0" /><path
         id="path3196"
         d="m 232.7,713.84 -0.06,-0.04 -0.07,-0.05 -0.06,-0.04 -0.06,-0.04 -0.06,-0.04 -0.06,-0.04 -0.05,-0.04 -0.05,-0.03 -0.06,-0.04 -0.04,-0.04 -0.05,-0.03 -0.05,-0.04 -0.04,-0.03 -0.04,-0.04 -0.09,-0.06 -0.07,-0.07 -0.08,-0.07 -0.07,-0.07 -0.07,-0.07 -0.07,-0.07 -0.06,-0.08 -0.07,-0.08 -0.07,-0.08 c -0.71,-0.87 -1.05,-1.86 -1.05,-3.02 0,-1.26 0.36,-2.24 1.24,-3.25 0.41,-0.48 0.67,-0.7 1.18,-1.01 l 0.12,0.16 c -0.79,0.62 -1.07,0.97 -1.34,1.71 -0.24,0.67 -0.35,1.42 -0.35,2.42 0,1.04 0.13,1.86 0.4,2.47 0.28,0.62 0.58,0.97 1.29,1.55 z"
         inkscape:connector-curvature="0"
         style="fill:#000000;stroke-width:0" /><path
         id="path3198"
         d="m 237.81,708.49 -0.13,0.05 c -0.37,-0.57 -0.5,-0.66 -0.94,-0.66 h -2.38 l 1.67,1.75 c 0.89,0.92 1.27,1.68 1.27,2.45 0,1 -0.8,1.76 -1.84,1.76 -0.54,0 -1.06,-0.22 -1.43,-0.62 -0.32,-0.33 -0.47,-0.65 -0.64,-1.36 l 0.21,-0.05 c 0.4,0.98 0.76,1.29 1.45,1.29 0.83,0 1.4,-0.56 1.4,-1.39 0,-0.78 -0.46,-1.7 -1.3,-2.59 l -1.77,-1.88 v -0.12 h 3.88 z"
         inkscape:connector-curvature="0"
         style="fill:#000000;stroke-width:0" /><path
         id="path3200"
         d="m 240.59,713.84 -0.05,0 -0.05,0 -0.05,0 -0.05,-0.01 -0.04,0 -0.05,-0.01 -0.05,0 -0.04,-0.01 -0.05,-0.01 -0.04,-0.01 -0.05,-0.01 -0.04,-0.01 -0.04,-0.01 -0.05,-0.02 -0.04,-0.01 -0.04,-0.02 -0.04,-0.01 -0.04,-0.02 -0.04,-0.02 -0.04,-0.02 -0.04,-0.02 -0.04,-0.02 -0.03,-0.03 -0.04,-0.02 -0.04,-0.02 -0.04,-0.03 -0.03,-0.03 -0.04,-0.02 -0.03,-0.03 -0.04,-0.03 -0.03,-0.03 -0.04,-0.04 c -0.58,-0.55 -0.95,-1.7 -0.95,-2.86 0,-1.08 0.32,-2.24 0.79,-2.8 0.37,-0.44 0.88,-0.67 1.45,-0.67 v 0.25 c -0.85,0 -1.29,1.07 -1.29,3.13 0,2.11 0.45,3.21 1.3,3.21 h 0 c 0.84,0 1.29,-1.12 1.29,-3.2 0,-2.07 -0.44,-3.14 -1.3,-3.14 v -0.25 c 0.51,0 0.94,0.17 1.3,0.51 0.58,0.55 0.95,1.7 0.95,2.9 0,2.04 -0.9,3.44 -2.21,3.44 z"
         inkscape:connector-curvature="0"
         style="fill:#000000;stroke-width:0" /><path
         id="path3202"
         d="m 249.89,713.61 h -1.85 v -0.16 c 0.45,-0.05 0.63,-0.15 0.63,-0.34 0,-0.18 -0.19,-0.61 -0.52,-1.18 l -2.05,-3.53 -0.65,4.4 c -0.01,0.05 -0.01,0.09 -0.01,0.15 0,0.33 0.14,0.43 0.76,0.5 v 0.16 h -2.4 v -0.16 c 0.56,-0.07 0.58,-0.1 0.79,-1.34 l 0.85,-5.16 h 0.19 l 3.71,6.1 c 0.17,0.27 0.32,0.39 0.55,0.4 z"
         inkscape:connector-curvature="0"
         style="fill:#000000;stroke-width:0" /><path
         id="path3204"
         d="m 250.19,707.18 0,0.04 0,0.04 0,0.04 -0.01,0.03 0,0.04 -0.01,0.03 0,0.03 -0.01,0.03 0,0.03 -0.01,0.03 -0.01,0.03 -0.01,0.03 0,0.03 -0.01,0.02 -0.01,0.03 -0.01,0.02 -0.02,0.03 -0.01,0.02 -0.02,0.04 -0.03,0.04 -0.03,0.04 -0.02,0.03 -0.03,0.03 -0.04,0.03 -0.03,0.03 -0.03,0.02 -0.03,0.03 -0.04,0.02 -0.03,0.01 -0.04,0.02 -0.03,0.01 -0.03,0.01 -0.03,0.01 -0.04,0.01 -0.03,0.01 -0.03,0.01 -0.03,0 -0.02,0 -0.03,0.01 -0.02,0 -0.03,0 c -0.25,0 -0.57,-0.15 -0.57,-0.58 0,-0.4 0.35,-0.49 0.61,-0.49 0.07,0 0.12,0.01 0.15,0.02 0.04,0 0.07,0.01 0.09,0.01 0.07,0 0.14,-0.05 0.14,-0.13 0,-0.19 -0.16,-0.64 -0.81,-1.06 l 0.08,-0.19 c 0.3,0.1 1.12,0.76 1.12,1.46 z"
         inkscape:connector-curvature="0"
         style="fill:#000000;stroke-width:0" /><path
         id="path3206"
         d="m 254.93,713.84 -0.05,0 -0.05,0 -0.05,0 -0.05,-0.01 -0.05,0 -0.05,-0.01 -0.04,0 -0.05,-0.01 -0.05,-0.01 -0.04,-0.01 -0.04,-0.01 -0.05,-0.01 -0.04,-0.01 -0.04,-0.02 -0.05,-0.01 -0.04,-0.02 -0.04,-0.01 -0.04,-0.02 -0.04,-0.02 -0.04,-0.02 -0.04,-0.02 -0.03,-0.02 -0.04,-0.03 -0.04,-0.02 -0.04,-0.02 -0.03,-0.03 -0.04,-0.03 -0.04,-0.02 -0.03,-0.03 -0.04,-0.03 -0.03,-0.03 -0.04,-0.04 c -0.57,-0.55 -0.95,-1.7 -0.95,-2.86 0,-1.08 0.33,-2.24 0.79,-2.8 0.37,-0.44 0.88,-0.67 1.46,-0.67 v 0.25 c -0.86,0 -1.3,1.07 -1.3,3.13 0,2.11 0.45,3.21 1.31,3.21 h 0 c 0.83,0 1.28,-1.12 1.28,-3.2 0,-2.07 -0.44,-3.14 -1.29,-3.14 v -0.25 c 0.51,0 0.93,0.17 1.29,0.51 0.58,0.55 0.96,1.7 0.96,2.9 0,2.04 -0.91,3.44 -2.21,3.44 z"
         inkscape:connector-curvature="0"
         style="fill:#000000;stroke-width:0" /><path
         id="path3208"
         d="m 265.9,708.29 -0.02,-0.03 -0.02,-0.02 -0.02,-0.02 -0.01,-0.02 -0.01,-0.01 -0.01,-0.01 -0.01,-0.01 0,-0.01 -0.01,-0.01 -0.01,0 -0.01,-0.01 0,-0.01 -0.01,-0.01 -0.01,-0.01 0,-0.01 -0.01,0 0,-0.01 -0.01,-0.01 -0.01,0 0,-0.01 -0.01,-0.01 0,0 0,-0.01 -0.01,0 0,-0.01 -0.01,0 0,-0.01 0,0 c -0.28,-0.36 -0.49,-0.53 -0.64,-0.53 -0.08,0 -0.13,0.06 -0.13,0.16 0,0.05 0.04,0.21 0.1,0.45 l 0.68,2.49 c 0.01,0.04 0.03,0.22 0.03,0.28 0,0.36 -0.25,0.63 -0.59,0.63 -0.19,0 -0.39,-0.07 -0.63,-0.22 -0.48,-0.32 -0.89,-0.8 -1.58,-1.89 0.25,0.76 0.4,1.32 0.4,1.51 0,0.35 -0.23,0.6 -0.57,0.6 -0.6,0 -1.3,-0.66 -2.22,-2.1 l 0.58,2.08 -0.03,0.02 c -0.56,-0.12 -0.76,-0.16 -1.59,-0.31 v -0.16 h 0.25 c 0.26,0 0.39,-0.07 0.39,-0.22 0,-0.11 -0.23,-1.01 -0.59,-2.27 -0.23,-0.82 -0.26,-0.92 -0.39,-1.43 h 0.75 c 0.48,1.58 0.62,1.95 0.96,2.47 0.56,0.84 1.16,1.4 1.49,1.4 0.13,0 0.2,-0.09 0.2,-0.25 0,-0.09 -0.31,-1.29 -0.94,-3.62 h 0.74 c 0.4,1.55 0.6,2.05 1.11,2.76 0.49,0.67 0.98,1.11 1.27,1.11 0.11,0 0.2,-0.1 0.2,-0.21 0,-0.05 -0.02,-0.17 -0.07,-0.35 l -0.57,-2.28 c -0.09,-0.37 -0.13,-0.56 -0.13,-0.66 0,-0.3 0.13,-0.45 0.39,-0.45 0.47,0 0.91,0.32 1.44,1.06 l 0.05,0.07 z"
         inkscape:connector-curvature="0"
         style="fill:#000000;stroke-width:0" /><path
         id="path3210"
         d="m 272.1,707.28 -0.06,0.01 -0.05,0 -0.04,0.01 -0.04,0.01 -0.05,0 -0.03,0.01 -0.04,0.01 -0.03,0.01 -0.04,0.01 -0.03,0.01 -0.02,0.01 -0.03,0.02 -0.02,0.01 -0.03,0.02 -0.02,0.02 -0.02,0.02 -0.02,0.02 -0.01,0.03 -0.02,0.02 -0.01,0.03 -0.02,0.03 -0.01,0.04 -0.02,0.04 -0.01,0.04 -0.01,0.04 -0.01,0.04 -0.01,0.05 -0.01,0.06 -0.01,0.02 -0.01,0.03 0,0.03 -0.01,0.03 0,0.03 -0.01,0.03 0,0.03 -0.01,0.04 -0.94,5.62 h -0.26 l -2.88,-4.97 c -0.79,-1.32 -0.88,-1.43 -1.28,-1.51 v -0.16 h 1.86 v 0.16 c -0.51,0.05 -0.59,0.1 -0.59,0.35 0,0.19 0.03,0.28 0.2,0.62 l 0.57,1.12 h 2.18 l -0.05,0.36 h -1.92 l 1.49,2.58 0.43,-2.58 0.05,-0.36 0.2,-1.3 c 0.01,-0.09 0.02,-0.18 0.02,-0.26 0,-0.38 -0.13,-0.47 -0.77,-0.53 v -0.16 h 2.45 z"
         inkscape:connector-curvature="0"
         style="fill:#000000;stroke-width:0" /><path
         id="path3212"
         d="m 272.95,705.37 0.07,0.04 0.06,0.04 0.06,0.05 0.07,0.04 0.05,0.04 0.06,0.03 0.05,0.04 0.06,0.04 0.05,0.04 0.05,0.03 0.04,0.04 0.05,0.03 0.04,0.04 0.05,0.03 0.08,0.07 0.08,0.07 0.07,0.07 0.07,0.07 0.07,0.07 0.07,0.07 0.07,0.08 0.06,0.08 0.07,0.08 c 0.71,0.86 1.06,1.86 1.06,3.02 0,1.27 -0.37,2.23 -1.25,3.25 -0.4,0.47 -0.66,0.69 -1.18,1.01 l -0.12,-0.16 c 0.79,-0.63 1.06,-0.97 1.34,-1.72 0.24,-0.66 0.35,-1.42 0.35,-2.41 0,-1.03 -0.13,-1.86 -0.4,-2.46 -0.28,-0.63 -0.57,-0.99 -1.29,-1.56 z"
         inkscape:connector-curvature="0"
         style="fill:#000000;stroke-width:0" /></g>  </g>
</svg>
