<?xml version="1.0" encoding="UTF-8" standalone="no"?>
<!-- Created with Inkscape (http://www.inkscape.org/) -->

<svg
   xmlns:ns0="http://www.iki.fi/pav/software/textext/"
   xmlns:dc="http://purl.org/dc/elements/1.1/"
   xmlns:cc="http://creativecommons.org/ns#"
   xmlns:rdf="http://www.w3.org/1999/02/22-rdf-syntax-ns#"
   xmlns:svg="http://www.w3.org/2000/svg"
   xmlns="http://www.w3.org/2000/svg"
   xmlns:xlink="http://www.w3.org/1999/xlink"
   xmlns:sodipodi="http://sodipodi.sourceforge.net/DTD/sodipodi-0.dtd"
   xmlns:inkscape="http://www.inkscape.org/namespaces/inkscape"
   width="744.09448819"
   height="1052.3622047"
   id="svg2"
   version="1.1"
   inkscape:version="0.47 r22583"
   sodipodi:docname="New document 1">
  <sodipodi:namedview
     id="base"
     pagecolor="#ffffff"
     bordercolor="#666666"
     borderopacity="1.0"
     inkscape:pageopacity="0.0"
     inkscape:pageshadow="2"
     inkscape:zoom="2.8"
     inkscape:cx="292.98238"
     inkscape:cy="676.67937"
     inkscape:document-units="px"
     inkscape:current-layer="layer1"
     showgrid="false"
     inkscape:window-width="1024"
     inkscape:window-height="689"
     inkscape:window-x="0"
     inkscape:window-y="27"
     inkscape:window-maximized="1" />
  <defs
     id="defs4">
    <inkscape:perspective
       id="perspective10"
       inkscape:persp3d-origin="372.04724 : 350.78739 : 1"
       inkscape:vp_z="744.09448 : 526.18109 : 1"
       inkscape:vp_y="0 : 1000 : 0"
       inkscape:vp_x="0 : 526.18109 : 1"
       sodipodi:type="inkscape:persp3d" />
  </defs>
  <metadata
     id="metadata7">
    <rdf:RDF>
      <cc:Work
         rdf:about="">
        <dc:format>image/svg+xml</dc:format>
        <dc:type
           rdf:resource="http://purl.org/dc/dcmitype/StillImage" />
        <dc:title></dc:title>
      </cc:Work>
    </rdf:RDF>
  </metadata>
  <g
     id="layer1"
     inkscape:groupmode="layer"
     inkscape:label="Layer 1">
    <path
       id="path2816"
       d="m 221.42857,410.9336 94.99813,-85.81153 0,85.81153 -94.99813,0 z"
       style="color:#000000;fill:none;stroke:#000000;stroke-width:1.37499988;stroke-linecap:butt;stroke-linejoin:miter;stroke-miterlimit:4;stroke-opacity:1;stroke-dasharray:none;stroke-dashoffset:0;marker:none;visibility:visible;display:inline;overflow:visible;enable-background:accumulate" />
    <path
       sodipodi:nodetypes="cc"
       id="path3590"
       d="m 235.80544,398.00424 c 3.64673,2.06008 8.1882,4.43077 6.90895,12.62778"
       style="color:#000000;fill:none;stroke:#000000;stroke-width:1.37499988;stroke-linecap:butt;stroke-linejoin:miter;stroke-miterlimit:4;stroke-opacity:1;stroke-dasharray:none;stroke-dashoffset:0;marker:none;visibility:visible;display:inline;overflow:visible;enable-background:accumulate" />
    <g
       id="g3600"
       ns0:preamble="/home/sriranga/Desktop/MCT/package.tex"
       ns0:text="$\\phi$"
       transform="matrix(1.2,0,0,1.2,-19.192899,240.41631)">
      <defs
         id="defs3602">
        <g
           id="g3604">
          <symbol
             id="textext-a903159d-0"
             overflow="visible"
             style="overflow:visible">
            <path
               id="path3607"
               d=""
               style="stroke:none" />
          </symbol>
          <symbol
             id="textext-a903159d-1"
             overflow="visible"
             style="overflow:visible">
            <path
               id="path3610"
               d="m 5.234375,-2.90625 c 0,-0.71875 -0.53125,-1.34375 -1.53125,-1.46875 l 0.59375,-1.90625 -0.828125,0.125 -0.453125,1.796875 c -1.5625,0.15625 -2.78125,1.453125 -2.78125,2.921875 0,0.734375 0.40625,1.484375 1.671875,1.546875 L 1.453125,2.0625 l 0.234375,0 0.625,-1.96875 c 1.640625,-0.125 2.921875,-1.515625 2.921875,-3 z M 4.4375,-2.984375 c 0,1.703125 -1.0625,2.71875 -2.03125,2.8125 L 3.609375,-4.0625 c 0.6875,0.25 0.828125,0.828125 0.828125,1.078125 z M 2.953125,-4.09375 1.984375,-0.1875 C 1.3125,-0.375 1.078125,-0.984375 1.078125,-1.40625 c 0,-1.53125 0.828125,-2.546875 1.875,-2.6875 z m 0,0"
               style="stroke:none" />
          </symbol>
        </g>
      </defs>
      <g
         id="textext-a903159d-2">
        <g
           id="g3613"
           style="fill:#000000;fill-opacity:1">
          <use
             id="use3615"
             y="134.765"
             x="223.43201"
             xlink:href="#textext-a903159d-1"
             width="744.09448"
             height="1052.3622" />
        </g>
      </g>
    </g>
    <g
       id="g3748"
       transform="matrix(1.2,0,0,1.2,51.592815,204.98774)"
       ns0:preamble="/home/sriranga/Desktop/MCT/package.tex"
       ns0:text="$\\omega\\, C$">
      <defs
         id="defs3750">
        <g
           id="g3752">
          <symbol
             id="textext-6a06d74d-0"
             overflow="visible">
            <path
               id="path3755"
               d=""
               style="stroke:none;" />
          </symbol>
          <symbol
             id="textext-6a06d74d-1"
             overflow="visible">
            <path
               id="path3758"
               d="M 6.65625 -2.515625 C 6.65625 -3.5625 5.984375 -4.3125 5.890625 -4.390625 L 5.5625 -4.390625 C 5.625 -4.28125 5.875 -3.796875 5.875 -3.09375 C 5.875 -1.921875 5.109375 -0.296875 4.125 -0.296875 C 3.765625 -0.296875 3.5 -0.515625 3.5 -0.875 C 3.5 -1.859375 4.03125 -2.796875 4.03125 -3.03125 C 4.03125 -3.078125 4.015625 -3.09375 3.984375 -3.09375 L 3.5 -3.09375 C 3.1875 -3.09375 3.421875 -0.296875 1.890625 -0.296875 C 1.171875 -0.296875 1.140625 -1 1.140625 -1.265625 C 1.140625 -2.84375 2.296875 -4.1875 2.5 -4.390625 L 2.171875 -4.390625 C 2.15625 -4.390625 0.234375 -3.09375 0.234375 -1.296875 C 0.234375 -0.671875 0.5625 0.109375 1.59375 0.109375 C 2.828125 0.109375 3.1875 -0.90625 3.1875 -0.921875 L 3.1875 -0.921875 C 3.1875 -0.90625 3.171875 -0.828125 3.171875 -0.703125 C 3.171875 -0.390625 3.296875 0.109375 4.171875 0.109375 C 5.4375 0.109375 6.65625 -1.25 6.65625 -2.515625 Z M 6.65625 -2.515625 "
               style="stroke:none;" />
          </symbol>
          <symbol
             id="textext-6a06d74d-2"
             overflow="visible">
            <path
               id="path3761"
               d=""
               style="stroke:none;" />
          </symbol>
          <symbol
             id="textext-6a06d74d-3"
             overflow="visible">
            <path
               id="path3764"
               d="M 6.5 -4.640625 L 6.875 -6.625 L 6.65625 -6.625 C 6.578125 -6.453125 6.484375 -6.40625 6.28125 -6.40625 C 6.203125 -6.40625 6.078125 -6.421875 5.875 -6.46875 C 5.421875 -6.578125 5.03125 -6.640625 4.703125 -6.640625 C 2.578125 -6.640625 0.65625 -4.640625 0.65625 -2.421875 C 0.65625 -0.890625 1.734375 0.171875 3.265625 0.171875 C 4.28125 0.171875 5.078125 -0.265625 5.984375 -1.3125 L 5.8125 -1.453125 C 4.921875 -0.5625 4.34375 -0.265625 3.515625 -0.265625 C 2.40625 -0.265625 1.78125 -1.03125 1.78125 -2.3125 C 1.78125 -3.5 2.25 -4.703125 3.03125 -5.515625 C 3.515625 -6 4.140625 -6.28125 4.796875 -6.28125 C 5.71875 -6.28125 6.21875 -5.734375 6.3125 -4.671875 L 6.5 -4.640625 Z M 6.5 -4.640625 "
               style="stroke:none;" />
          </symbol>
        </g>
      </defs>
      <g
         id="textext-6a06d74d-4">
        <g
           id="g3767"
           style="fill:rgb(0%,0%,0%);fill-opacity:1;">
          <use
             id="use3769"
             y="134.765"
             x="223.432"
             xlink:href="#textext-6a06d74d-1" />
        </g>
        <g
           id="g3771"
           style="fill:rgb(0%,0%,0%);fill-opacity:1;">
          <use
             id="use3773"
             y="134.765"
             x="231.728"
             xlink:href="#textext-6a06d74d-3" />
        </g>
      </g>
    </g>
    <g
       ns0:text="$1/R_{L}$"
       ns0:preamble="/home/sriranga/Desktop/MCT/package.tex"
       transform="matrix(1.2,0,0,1.2,-1.5500419,262.34488)"
       id="g3861">
      <defs
         id="defs3863">
        <g
           id="g3865">
          <symbol
             style="overflow:visible"
             overflow="visible"
             id="textext-336f8c19-0">
            <path
               style="stroke:none"
               d=""
               id="path3868" />
          </symbol>
          <symbol
             style="overflow:visible"
             overflow="visible"
             id="textext-336f8c19-1">
            <path
               style="stroke:none"
               d="m 2.90625,-6.734375 -1.796875,0.90625 0,0.140625 C 1.21875,-5.734375 1.328125,-5.78125 1.375,-5.796875 1.5625,-5.875 1.71875,-5.90625 1.828125,-5.90625 2.03125,-5.90625 2.125,-5.765625 2.125,-5.4375 l 0,4.515625 c 0,0.328125 -0.078125,0.546875 -0.234375,0.640625 -0.15625,0.09375 -0.296875,0.125 -0.71875,0.125 l 0,0.15625 2.75,0 0,-0.15625 c -0.78125,0 -0.9375,-0.109375 -0.9375,-0.578125 l 0,-5.984375 -0.078125,-0.015625 z m 0,0"
               id="path3871" />
          </symbol>
          <symbol
             style="overflow:visible"
             overflow="visible"
             id="textext-336f8c19-2">
            <path
               style="stroke:none"
               d=""
               id="path3874" />
          </symbol>
          <symbol
             style="overflow:visible"
             overflow="visible"
             id="textext-336f8c19-3">
            <path
               style="stroke:none"
               d="m 3.78125,-6.765625 -0.515625,0 -2.640625,8.375 0.515625,0 2.640625,-8.375 z m 0,0"
               id="path3877" />
          </symbol>
          <symbol
             style="overflow:visible"
             overflow="visible"
             id="textext-336f8c19-4">
            <path
               style="stroke:none"
               d=""
               id="path3880" />
          </symbol>
          <symbol
             style="overflow:visible"
             overflow="visible"
             id="textext-336f8c19-5">
            <path
               style="stroke:none"
               d="M 5.65625,-0.15625 C 5.21875,-0.1875 5.015625,-0.359375 4.828125,-0.875 l -0.9375,-2.4375 C 4.671875,-3.484375 5,-3.625 5.359375,-3.953125 c 0.328125,-0.28125 0.5,-0.671875 0.5,-1.125 0,-0.921875 -0.734375,-1.4375 -2.078125,-1.4375 l -2.46875,0 0,0.171875 c 0.421875,0.046875 0.46875,0.0625 0.578125,0.140625 0.078125,0.046875 0.140625,0.15625 0.140625,0.265625 0,0.125 -0.0625,0.359375 -0.125,0.640625 l -1.234375,4.40625 C 0.5,-0.3125 0.421875,-0.25 -0.125,-0.15625 l 0,0.15625 2.421875,0 0,-0.15625 C 1.6875,-0.234375 1.625,-0.296875 1.625,-0.625 c 0,-0.09375 0.03125,-0.21875 0.125,-0.578125 L 2.296875,-3.28125 2.953125,-3.234375 4.171875,0 5.65625,0 l 0,-0.15625 z M 3.078125,-5.9375 c 0.046875,-0.203125 0.1875,-0.265625 0.5,-0.265625 0.828125,0 1.234375,0.375 1.234375,1.109375 0,0.984375 -0.640625,1.5 -1.875,1.5 -0.171875,0 -0.28125,-0.015625 -0.515625,-0.0625 l 0.65625,-2.28125 z m 0,0"
               id="path3883" />
          </symbol>
          <symbol
             style="overflow:visible"
             overflow="visible"
             id="textext-336f8c19-6">
            <path
               style="stroke:none"
               d=""
               id="path3886" />
          </symbol>
          <symbol
             style="overflow:visible"
             overflow="visible"
             id="textext-336f8c19-7">
            <path
               style="stroke:none"
               d="m 2.8125,-4.546875 -1.90625,0 0,0.109375 c 0.4375,0.046875 0.53125,0.09375 0.53125,0.296875 0,0.09375 -0.015625,0.265625 -0.078125,0.4375 L 0.515625,-0.625 c -0.125,0.40625 -0.1875,0.4375 -0.578125,0.515625 L -0.0625,0 3.484375,0 3.890625,-1.25 3.75,-1.296875 C 3.515625,-0.78125 3.328125,-0.5625 3.015625,-0.40625 2.78125,-0.296875 2.484375,-0.25 1.875,-0.25 1.359375,-0.25 1.171875,-0.3125 1.171875,-0.484375 1.171875,-0.53125 1.21875,-0.703125 1.25,-0.84375 L 2.109375,-3.921875 C 2.203125,-4.28125 2.390625,-4.40625 2.8125,-4.4375 l 0,-0.109375 z m 0,0"
               id="path3889" />
          </symbol>
        </g>
      </defs>
      <g
         id="textext-336f8c19-8">
        <g
           style="fill:#000000;fill-opacity:1"
           id="g3892">
          <use
             height="1052.3622"
             width="744.09448"
             xlink:href="#textext-336f8c19-1"
             x="223.43201"
             y="134.765"
             id="use3894" />
        </g>
        <g
           style="fill:#000000;fill-opacity:1"
           id="g3896">
          <use
             height="1052.3622"
             width="744.09448"
             xlink:href="#textext-336f8c19-3"
             x="228.41299"
             y="134.765"
             id="use3898" />
        </g>
        <g
           style="fill:#000000;fill-opacity:1"
           id="g3900">
          <use
             height="1052.3622"
             width="744.09448"
             xlink:href="#textext-336f8c19-5"
             x="232.80701"
             y="134.765"
             id="use3902" />
        </g>
        <g
           style="fill:#000000;fill-opacity:1"
           id="g3904">
          <use
             height="1052.3622"
             width="744.09448"
             xlink:href="#textext-336f8c19-7"
             x="239.06799"
             y="136.259"
             id="use3906" />
        </g>
      </g>
    </g>
    <g
       id="g4062"
       transform="matrix(0.88771621,-0.80744036,0.80744036,0.88771621,-83.343584,453.38272)"
       ns0:preamble="/home/sriranga/Desktop/MCT/package.tex"
       ns0:text="$\\sqrt{(1/R_{L})^{2}+(\\omega\\,C)^{2}}$">
      <defs
         id="defs4064">
        <g
           id="g4066">
          <symbol
             id="textext-5fcddba8-0"
             overflow="visible"
             style="overflow:visible">
            <path
               id="path4069"
               d=""
               style="stroke:none" />
          </symbol>
          <symbol
             id="textext-5fcddba8-1"
             overflow="visible"
             style="overflow:visible">
            <path
               id="path4072"
               d="m 7.59375,-0.5625 -0.578125,0 L 4.46875,9.40625 2.515625,5.25 0.59375,6.265625 l 0.125,0.203125 1.0625,-0.390625 2.625,5.484375 3.1875,-12.125 z m 0,0"
               style="stroke:none" />
          </symbol>
          <symbol
             id="textext-5fcddba8-2"
             overflow="visible"
             style="overflow:visible">
            <path
               id="path4075"
               d=""
               style="stroke:none" />
          </symbol>
          <symbol
             id="textext-5fcddba8-3"
             overflow="visible"
             style="overflow:visible">
            <path
               id="path4078"
               d="M 2.9375,-6.734375 C 2.203125,-6.265625 1.90625,-6 1.53125,-5.546875 c -0.703125,0.875 -1.046875,1.875 -1.046875,3.03125 0,1.265625 0.359375,2.25 1.234375,3.265625 0.421875,0.46875 0.671875,0.703125 1.1875,1.015625 l 0.125,-0.15625 C 2.234375,0.984375 1.953125,0.625 1.6875,-0.125 1.453125,-0.78125 1.328125,-1.546875 1.328125,-2.546875 1.328125,-3.59375 1.46875,-4.40625 1.734375,-5.03125 2.015625,-5.640625 2.3125,-6 3.03125,-6.578125 L 2.9375,-6.734375 z m 0,0"
               style="stroke:none" />
          </symbol>
          <symbol
             id="textext-5fcddba8-4"
             overflow="visible"
             style="overflow:visible">
            <path
               id="path4081"
               d="m 2.90625,-6.734375 -1.796875,0.90625 0,0.140625 C 1.21875,-5.734375 1.328125,-5.78125 1.375,-5.796875 1.5625,-5.875 1.71875,-5.90625 1.828125,-5.90625 2.03125,-5.90625 2.125,-5.765625 2.125,-5.4375 l 0,4.515625 c 0,0.328125 -0.078125,0.546875 -0.234375,0.640625 -0.15625,0.09375 -0.296875,0.125 -0.71875,0.125 l 0,0.15625 2.75,0 0,-0.15625 c -0.78125,0 -0.9375,-0.109375 -0.9375,-0.578125 l 0,-5.984375 -0.078125,-0.015625 z m 0,0"
               style="stroke:none" />
          </symbol>
          <symbol
             id="textext-5fcddba8-5"
             overflow="visible"
             style="overflow:visible">
            <path
               id="path4084"
               d="M 0.375,1.765625 C 1.109375,1.28125 1.421875,1.03125 1.78125,0.5625 2.5,-0.296875 2.84375,-1.296875 2.84375,-2.46875 c 0,-1.265625 -0.375,-2.234375 -1.25,-3.25 C 1.1875,-6.203125 0.921875,-6.421875 0.40625,-6.734375 l -0.109375,0.15625 c 0.796875,0.625 1.0625,0.96875 1.34375,1.71875 0.234375,0.671875 0.34375,1.4375 0.34375,2.421875 0,1.046875 -0.125,1.875 -0.40625,2.484375 C 1.3125,0.671875 1,1.03125 0.296875,1.609375 L 0.375,1.765625 z m 0,0"
               style="stroke:none" />
          </symbol>
          <symbol
             id="textext-5fcddba8-6"
             overflow="visible"
             style="overflow:visible">
            <path
               id="path4087"
               d=""
               style="stroke:none" />
          </symbol>
          <symbol
             id="textext-5fcddba8-7"
             overflow="visible"
             style="overflow:visible">
            <path
               id="path4090"
               d="m 3.78125,-6.765625 -0.515625,0 -2.640625,8.375 0.515625,0 2.640625,-8.375 z m 0,0"
               style="stroke:none" />
          </symbol>
          <symbol
             id="textext-5fcddba8-8"
             overflow="visible"
             style="overflow:visible">
            <path
               id="path4093"
               d="m 6.65625,-2.515625 c 0,-1.046875 -0.671875,-1.796875 -0.765625,-1.875 l -0.328125,0 c 0.0625,0.109375 0.3125,0.59375 0.3125,1.296875 0,1.171875 -0.765625,2.796875 -1.75,2.796875 -0.359375,0 -0.625,-0.21875 -0.625,-0.578125 0,-0.984375 0.53125,-1.921875 0.53125,-2.15625 0,-0.046875 -0.015625,-0.0625 -0.046875,-0.0625 l -0.484375,0 c -0.3125,0 -0.078125,2.796875 -1.609375,2.796875 -0.71875,0 -0.75,-0.703125 -0.75,-0.96875 0,-1.578125 1.15625,-2.921875 1.359375,-3.125 l -0.328125,0 c -0.015625,0 -1.9375,1.296875 -1.9375,3.09375 0,0.625 0.328125,1.40625 1.359375,1.40625 1.234375,0 1.59375,-1.015625 1.59375,-1.03125 l 0,0 c 0,0.015625 -0.015625,0.09375 -0.015625,0.21875 0,0.3125 0.125,0.8125 1,0.8125 1.265625,0 2.484375,-1.359375 2.484375,-2.625 z m 0,0"
               style="stroke:none" />
          </symbol>
          <symbol
             id="textext-5fcddba8-9"
             overflow="visible"
             style="overflow:visible">
            <path
               id="path4096"
               d=""
               style="stroke:none" />
          </symbol>
          <symbol
             id="textext-5fcddba8-10"
             overflow="visible"
             style="overflow:visible">
            <path
               id="path4099"
               d="M 5.65625,-0.15625 C 5.21875,-0.1875 5.015625,-0.359375 4.828125,-0.875 l -0.9375,-2.4375 C 4.671875,-3.484375 5,-3.625 5.359375,-3.953125 c 0.328125,-0.28125 0.5,-0.671875 0.5,-1.125 0,-0.921875 -0.734375,-1.4375 -2.078125,-1.4375 l -2.46875,0 0,0.171875 c 0.421875,0.046875 0.46875,0.0625 0.578125,0.140625 0.078125,0.046875 0.140625,0.15625 0.140625,0.265625 0,0.125 -0.0625,0.359375 -0.125,0.640625 l -1.234375,4.40625 C 0.5,-0.3125 0.421875,-0.25 -0.125,-0.15625 l 0,0.15625 2.421875,0 0,-0.15625 C 1.6875,-0.234375 1.625,-0.296875 1.625,-0.625 c 0,-0.09375 0.03125,-0.21875 0.125,-0.578125 L 2.296875,-3.28125 2.953125,-3.234375 4.171875,0 5.65625,0 l 0,-0.15625 z M 3.078125,-5.9375 c 0.046875,-0.203125 0.1875,-0.265625 0.5,-0.265625 0.828125,0 1.234375,0.375 1.234375,1.109375 0,0.984375 -0.640625,1.5 -1.875,1.5 -0.171875,0 -0.28125,-0.015625 -0.515625,-0.0625 l 0.65625,-2.28125 z m 0,0"
               style="stroke:none" />
          </symbol>
          <symbol
             id="textext-5fcddba8-11"
             overflow="visible"
             style="overflow:visible">
            <path
               id="path4102"
               d="M 6.5,-4.640625 6.875,-6.625 l -0.21875,0 c -0.078125,0.171875 -0.171875,0.21875 -0.375,0.21875 -0.078125,0 -0.203125,-0.015625 -0.40625,-0.0625 -0.453125,-0.109375 -0.84375,-0.171875 -1.171875,-0.171875 -2.125,0 -4.046875,2 -4.046875,4.21875 0,1.53125 1.078125,2.59375 2.609375,2.59375 1.015625,0 1.8125,-0.4375 2.71875,-1.484375 L 5.8125,-1.453125 c -0.890625,0.890625 -1.46875,1.1875 -2.296875,1.1875 -1.109375,0 -1.734375,-0.765625 -1.734375,-2.046875 0,-1.1875 0.46875,-2.390625 1.25,-3.203125 C 3.515625,-6 4.140625,-6.28125 4.796875,-6.28125 c 0.921875,0 1.421875,0.546875 1.515625,1.609375 L 6.5,-4.640625 z m 0,0"
               style="stroke:none" />
          </symbol>
          <symbol
             id="textext-5fcddba8-12"
             overflow="visible"
             style="overflow:visible">
            <path
               id="path4105"
               d=""
               style="stroke:none" />
          </symbol>
          <symbol
             id="textext-5fcddba8-13"
             overflow="visible"
             style="overflow:visible">
            <path
               id="path4108"
               d="m 2.8125,-4.546875 -1.90625,0 0,0.109375 c 0.4375,0.046875 0.53125,0.09375 0.53125,0.296875 0,0.09375 -0.015625,0.265625 -0.078125,0.4375 L 0.515625,-0.625 c -0.125,0.40625 -0.1875,0.4375 -0.578125,0.515625 L -0.0625,0 3.484375,0 3.890625,-1.25 3.75,-1.296875 C 3.515625,-0.78125 3.328125,-0.5625 3.015625,-0.40625 2.78125,-0.296875 2.484375,-0.25 1.875,-0.25 1.359375,-0.25 1.171875,-0.3125 1.171875,-0.484375 1.171875,-0.53125 1.21875,-0.703125 1.25,-0.84375 L 2.109375,-3.921875 C 2.203125,-4.28125 2.390625,-4.40625 2.8125,-4.4375 l 0,-0.109375 z m 0,0"
               style="stroke:none" />
          </symbol>
          <symbol
             id="textext-5fcddba8-14"
             overflow="visible"
             style="overflow:visible">
            <path
               id="path4111"
               d=""
               style="stroke:none" />
          </symbol>
          <symbol
             id="textext-5fcddba8-15"
             overflow="visible"
             style="overflow:visible">
            <path
               id="path4114"
               d="M 3.3125,-0.953125 3.21875,-0.984375 C 2.96875,-0.59375 2.875,-0.53125 2.5625,-0.53125 l -1.671875,0 L 2.0625,-1.75 c 0.625,-0.65625 0.890625,-1.1875 0.890625,-1.734375 0,-0.6875 -0.5625,-1.21875 -1.28125,-1.21875 -0.390625,0 -0.75,0.140625 -1.015625,0.421875 -0.21875,0.234375 -0.328125,0.46875 -0.4375,0.953125 l 0.140625,0.03125 C 0.640625,-3.96875 0.890625,-4.1875 1.375,-4.1875 c 0.578125,0 0.984375,0.390625 0.984375,0.96875 0,0.546875 -0.328125,1.203125 -0.90625,1.8125 l -1.25,1.328125 0,0.078125 2.71875,0 0.390625,-0.953125 z m 0,0"
               style="stroke:none" />
          </symbol>
          <symbol
             id="textext-5fcddba8-16"
             overflow="visible"
             style="overflow:visible">
            <path
               id="path4117"
               d=""
               style="stroke:none" />
          </symbol>
          <symbol
             id="textext-5fcddba8-17"
             overflow="visible"
             style="overflow:visible">
            <path
               id="path4120"
               d="m 5.71875,-2.28125 0,-0.5625 -2.265625,0 0,-2.25 -0.5625,0 0,2.25 -2.265625,0 0,0.5625 2.265625,0 0,2.28125 0.5625,0 0,-2.28125 2.265625,0 z m 0,0"
               style="stroke:none" />
          </symbol>
        </g>
      </defs>
      <g
         id="textext-5fcddba8-18">
        <g
           id="g4123"
           style="fill:#000000;fill-opacity:1">
          <use
             id="use4125"
             y="125.927"
             x="225.093"
             xlink:href="#textext-5fcddba8-1"
             width="744.09448"
             height="1052.3622" />
        </g>
        <path
           id="path4127"
           transform="matrix(1,0,0,-1,232.385,125.648)"
           d="m 0.00171875,-4.375e-4 67.44531225,0"
           style="fill:none;stroke:#000000;stroke-width:0.55800003;stroke-linecap:butt;stroke-linejoin:miter;stroke-miterlimit:10;stroke-opacity:1" />
        <g
           id="g4129"
           style="fill:#000000;fill-opacity:1">
          <use
             id="use4131"
             y="134.765"
             x="232.38499"
             xlink:href="#textext-5fcddba8-3"
             width="744.09448"
             height="1052.3622" />
          <use
             id="use4133"
             y="134.765"
             x="235.70255"
             xlink:href="#textext-5fcddba8-4"
             width="744.09448"
             height="1052.3622" />
        </g>
        <g
           id="g4135"
           style="fill:#000000;fill-opacity:1">
          <use
             id="use4137"
             y="134.765"
             x="240.68401"
             xlink:href="#textext-5fcddba8-7"
             width="744.09448"
             height="1052.3622" />
        </g>
        <g
           id="g4139"
           style="fill:#000000;fill-opacity:1">
          <use
             id="use4141"
             y="134.765"
             x="245.078"
             xlink:href="#textext-5fcddba8-10"
             width="744.09448"
             height="1052.3622" />
        </g>
        <g
           id="g4143"
           style="fill:#000000;fill-opacity:1">
          <use
             id="use4145"
             y="136.259"
             x="251.339"
             xlink:href="#textext-5fcddba8-13"
             width="744.09448"
             height="1052.3622" />
        </g>
        <g
           id="g4147"
           style="fill:#000000;fill-opacity:1">
          <use
             id="use4149"
             y="134.765"
             x="255.73599"
             xlink:href="#textext-5fcddba8-5"
             width="744.09448"
             height="1052.3622" />
        </g>
        <g
           id="g4151"
           style="fill:#000000;fill-opacity:1">
          <use
             id="use4153"
             y="131.886"
             x="259.05301"
             xlink:href="#textext-5fcddba8-15"
             width="744.09448"
             height="1052.3622" />
        </g>
        <g
           id="g4155"
           style="fill:#000000;fill-opacity:1">
          <use
             id="use4157"
             y="134.765"
             x="265.25201"
             xlink:href="#textext-5fcddba8-17"
             width="744.09448"
             height="1052.3622" />
        </g>
        <g
           id="g4159"
           style="fill:#000000;fill-opacity:1">
          <use
             id="use4161"
             y="134.765"
             x="273.802"
             xlink:href="#textext-5fcddba8-3"
             width="744.09448"
             height="1052.3622" />
        </g>
        <g
           id="g4163"
           style="fill:#000000;fill-opacity:1">
          <use
             id="use4165"
             y="134.765"
             x="277.12"
             xlink:href="#textext-5fcddba8-8"
             width="744.09448"
             height="1052.3622" />
        </g>
        <g
           id="g4167"
           style="fill:#000000;fill-opacity:1">
          <use
             id="use4169"
             y="134.765"
             x="285.41501"
             xlink:href="#textext-5fcddba8-11"
             width="744.09448"
             height="1052.3622" />
        </g>
        <g
           id="g4171"
           style="fill:#000000;fill-opacity:1">
          <use
             id="use4173"
             y="134.765"
             x="292.52899"
             xlink:href="#textext-5fcddba8-5"
             width="744.09448"
             height="1052.3622" />
        </g>
        <g
           id="g4175"
           style="fill:#000000;fill-opacity:1">
          <use
             id="use4177"
             y="131.886"
             x="295.84601"
             xlink:href="#textext-5fcddba8-15"
             width="744.09448"
             height="1052.3622" />
        </g>
      </g>
    </g>
  </g>
</svg>
