<?xml version="1.0" encoding="UTF-8" standalone="no"?>
<!-- Created with Inkscape (http://www.inkscape.org/) -->

<svg
   xmlns:ns0="http://www.iki.fi/pav/software/textext/"
   xmlns:dc="http://purl.org/dc/elements/1.1/"
   xmlns:cc="http://creativecommons.org/ns#"
   xmlns:rdf="http://www.w3.org/1999/02/22-rdf-syntax-ns#"
   xmlns:svg="http://www.w3.org/2000/svg"
   xmlns="http://www.w3.org/2000/svg"
   xmlns:sodipodi="http://sodipodi.sourceforge.net/DTD/sodipodi-0.dtd"
   xmlns:inkscape="http://www.inkscape.org/namespaces/inkscape"
   width="354.33069"
   height="283.46457"
   id="svg2"
   version="1.1"
   inkscape:version="0.48.4 r9939"
   sodipodi:docname="fig2.12.svg">
  <sodipodi:namedview
     id="base"
     pagecolor="#ffffff"
     bordercolor="#666666"
     borderopacity="1.0"
     inkscape:pageopacity="0.0"
     inkscape:pageshadow="2"
     inkscape:zoom="2.1060833"
     inkscape:cx="177.16534"
     inkscape:cy="141.73228"
     inkscape:document-units="cm"
     inkscape:current-layer="layer1"
     showgrid="false"
     units="cm"
     inkscape:object-nodes="true"
     inkscape:window-width="1366"
     inkscape:window-height="744"
     inkscape:window-x="0"
     inkscape:window-y="24"
     inkscape:window-maximized="1">
    <inkscape:grid
       type="xygrid"
       id="grid2985"
       empspacing="5"
       visible="true"
       enabled="true"
       snapvisiblegridlinesonly="true" />
  </sodipodi:namedview>
  <defs
     id="defs4">
    <marker
       inkscape:stockid="Arrow1Mstart"
       orient="auto"
       refY="0.0"
       refX="0.0"
       id="Arrow1Mstart"
       style="overflow:visible">
      <path
         id="path4512"
         d="M 0.0,0.0 L 5.0,-5.0 L -12.5,0.0 L 5.0,5.0 L 0.0,0.0 z "
         style="fill-rule:evenodd;stroke:#000000;stroke-width:1.0pt"
         transform="scale(0.4) translate(10,0)" />
    </marker>
    <marker
       inkscape:stockid="Arrow1Mend"
       orient="auto"
       refY="0.0"
       refX="0.0"
       id="Arrow1Mend"
       style="overflow:visible;">
      <path
         id="path3949"
         d="M 0.0,0.0 L 5.0,-5.0 L -12.5,0.0 L 5.0,5.0 L 0.0,0.0 z "
         style="fill-rule:evenodd;stroke:#000000;stroke-width:1.0pt;"
         transform="scale(0.4) rotate(180) translate(10,0)" />
    </marker>
  </defs>
  <metadata
     id="metadata7">
    <rdf:RDF>
      <cc:Work
         rdf:about="">
        <dc:format>image/svg+xml</dc:format>
        <dc:type
           rdf:resource="http://purl.org/dc/dcmitype/StillImage" />
        <dc:title></dc:title>
      </cc:Work>
    </rdf:RDF>
  </metadata>
  <g
     inkscape:label="Layer 1"
     inkscape:groupmode="layer"
     id="layer1"
     transform="translate(0,-768.89631)">
    <text
       xml:space="preserve"
       style="font-size:12px;font-style:normal;font-variant:normal;font-weight:normal;font-stretch:normal;text-align:center;line-height:125%;letter-spacing:0px;word-spacing:0px;text-anchor:middle;fill:#000000;fill-opacity:1;stroke:none;font-family:LMRoman12;-inkscape-font-specification:LMRoman12"
       x="140.30785"
       y="115.38005"
       id="text3819"
       sodipodi:linespacing="125%"
       transform="translate(0,768.89631)"><tspan
         sodipodi:role="line"
         id="tspan3821"
         x="140.30785"
         y="115.38005" /></text>
    <rect
       style="fill:#cccccc;stroke:#000000;stroke-width:1;stroke-linecap:square;stroke-linejoin:round;stroke-miterlimit:4;stroke-opacity:1;stroke-dasharray:none;stroke-dashoffset:0"
       id="rect3016"
       width="160"
       height="80"
       x="95"
       y="842.3609" />
    <rect
       y="842.3609"
       x="170"
       height="80"
       width="10"
       id="rect3792"
       style="fill:#666666;stroke:#000000;stroke-width:1;stroke-linecap:square;stroke-linejoin:round;stroke-miterlimit:4;stroke-opacity:1;stroke-dasharray:none;stroke-dashoffset:0" />
    <rect
       style="fill:none;stroke:#000000;stroke-width:1;stroke-linecap:square;stroke-linejoin:round;stroke-miterlimit:4;stroke-opacity:1;stroke-dasharray:none;stroke-dashoffset:0"
       id="rect3794"
       width="10"
       height="80"
       x="145"
       y="842.3609" />
    <rect
       y="842.3609"
       x="195"
       height="80"
       width="10"
       id="rect3796"
       style="fill:none;stroke:#000000;stroke-width:1;stroke-linecap:square;stroke-linejoin:round;stroke-miterlimit:4;stroke-opacity:1;stroke-dasharray:none;stroke-dashoffset:0" />
    <path
       style="fill:none;stroke:#000000;stroke-width:1;stroke-linecap:butt;stroke-linejoin:miter;stroke-opacity:1;stroke-miterlimit:4;stroke-dasharray:4,4;stroke-dashoffset:0"
       d="m 145,153.46457 0,45"
       id="path3798"
       inkscape:connector-curvature="0"
       transform="translate(0,768.89631)" />
    <path
       inkscape:connector-curvature="0"
       id="path3800"
       d="m 155,922.36088 0,45"
       style="fill:none;stroke:#000000;stroke-width:1;stroke-linecap:butt;stroke-linejoin:miter;stroke-miterlimit:4;stroke-opacity:1;stroke-dasharray:4, 4;stroke-dashoffset:0" />
    <path
       style="fill:none;stroke:#000000;stroke-width:1;stroke-linecap:butt;stroke-linejoin:miter;stroke-miterlimit:4;stroke-opacity:1;stroke-dasharray:4, 4;stroke-dashoffset:0"
       d="m 170,922.36088 0,45"
       id="path3802"
       inkscape:connector-curvature="0" />
    <path
       inkscape:connector-curvature="0"
       id="path3804"
       d="m 205,922.36088 0,45"
       style="fill:none;stroke:#000000;stroke-width:1;stroke-linecap:butt;stroke-linejoin:miter;stroke-miterlimit:4;stroke-opacity:1;stroke-dasharray:4, 4;stroke-dashoffset:0" />
    <path
       style="fill:none;stroke:#000000;stroke-width:1;stroke-linecap:butt;stroke-linejoin:miter;stroke-miterlimit:4;stroke-opacity:1;stroke-dasharray:4, 4;stroke-dashoffset:0"
       d="m 195,922.36088 0,45"
       id="path3806"
       inkscape:connector-curvature="0" />
    <path
       inkscape:connector-curvature="0"
       id="path3808"
       d="m 180,922.36088 0,45"
       style="fill:none;stroke:#000000;stroke-width:1;stroke-linecap:butt;stroke-linejoin:miter;stroke-miterlimit:4;stroke-opacity:1;stroke-dasharray:4, 4;stroke-dashoffset:0" />
    <path
       style="fill:none;stroke:#4d4d4d;stroke-width:1.5;stroke-linecap:butt;stroke-linejoin:round;stroke-miterlimit:4;stroke-opacity:1;stroke-dasharray:none"
       d="m 145,952.36088 10,10 0,-20 15,10 10,0 15,-10 0,20 10,-10"
       id="path3812"
       inkscape:connector-curvature="0" />
    <path
       style="fill:none;stroke:#000000;stroke-width:1px;stroke-linecap:butt;stroke-linejoin:miter;stroke-opacity:1"
       d="m 140,183.46457 70,0"
       id="path3810"
       inkscape:connector-curvature="0"
       transform="translate(0,768.89631)"
       sodipodi:nodetypes="cc" />
    <g
       id="g3860"
       transform="matrix(1.2,0,0,-1.2,-122.6008,1816.1586)"
       xml:space="preserve"
       stroke-miterlimit="10.433"
       font-style="normal"
       font-variant="normal"
       font-weight="normal"
       font-stretch="normal"
       font-size-adjust="none"
       letter-spacing="normal"
       word-spacing="normal"
       ns0:text="$-$"
       ns0:preamble="/home/sriranga/Desktop/MCT/package.tex"
       style="font-style:normal;font-variant:normal;font-weight:normal;font-stretch:normal;letter-spacing:normal;word-spacing:normal;text-anchor:start;fill:none;stroke:#000000;stroke-width:1;stroke-linecap:butt;stroke-linejoin:miter;stroke-miterlimit:10.43299961;stroke-opacity:1;stroke-dasharray:none;stroke-dashoffset:0"><polygon
         style="fill:#000000;stroke-width:0"
         points="224.05,709.4 229.14,709.4 229.14,709.96 224.05,709.96 "
         id="polygon3862" /></g>    <g
       style="font-style:normal;font-variant:normal;font-weight:normal;font-stretch:normal;letter-spacing:normal;word-spacing:normal;text-anchor:start;fill:none;stroke:#000000;stroke-width:1;stroke-linecap:butt;stroke-linejoin:miter;stroke-miterlimit:10.43299961;stroke-opacity:1;stroke-dasharray:none;stroke-dashoffset:0"
       ns0:preamble="/home/sriranga/Desktop/MCT/package.tex"
       ns0:text="$-$"
       word-spacing="normal"
       letter-spacing="normal"
       font-size-adjust="none"
       font-stretch="normal"
       font-weight="normal"
       font-variant="normal"
       font-style="normal"
       stroke-miterlimit="10.433"
       xml:space="preserve"
       transform="matrix(1.2,0,0,-1.2,-71.703697,1816.1586)"
       id="g3889"><polygon
         id="polygon3891"
         points="224.05,709.96 224.05,709.4 229.14,709.4 229.14,709.96 "
         style="fill:#000000;stroke-width:0" /></g>    <g
       style="font-style:normal;font-variant:normal;font-weight:normal;font-stretch:normal;letter-spacing:normal;word-spacing:normal;text-anchor:start;fill:none;stroke:#000000;stroke-width:1;stroke-linecap:butt;stroke-linejoin:miter;stroke-miterlimit:10.43299961;stroke-opacity:1;stroke-dasharray:none;stroke-dashoffset:0"
       ns0:preamble="/home/sriranga/Desktop/MCT/package.tex"
       ns0:text="$+$"
       text-anchor="start"
       word-spacing="normal"
       letter-spacing="normal"
       font-size-adjust="none"
       font-stretch="normal"
       font-weight="normal"
       font-variant="normal"
       font-style="normal"
       fill-opacity="1"
       fill-rule="evenodd"
       fill="none"
       stroke-opacity="1"
       stroke-dashoffset="0"
       stroke-dasharray="none"
       stroke-miterlimit="10.433"
       stroke-linejoin="miter"
       stroke-linecap="butt"
       stroke="black"
       xml:space="preserve"
       transform="matrix(1.2,0,0,-1.2,-85.044568,1791.2706)"
       id="g3926"><polygon
         id="polygon3928"
         fill="black"
         stroke-width="0"
         points="229.14,709.4 229.14,709.96 226.87,709.96 226.87,712.2 226.32,712.2 226.32,709.96 224.05,709.96 224.05,709.4 226.32,709.4 226.32,707.12 226.87,707.12 226.87,709.4 " /></g>    <g
       id="g3959"
       transform="matrix(1.2,0,0,-1.2,-109.70836,1791.2706)"
       xml:space="preserve"
       stroke-miterlimit="10.433"
       font-style="normal"
       font-variant="normal"
       font-weight="normal"
       font-stretch="normal"
       font-size-adjust="none"
       letter-spacing="normal"
       word-spacing="normal"
       ns0:text="$+$"
       ns0:preamble="/home/sriranga/Desktop/MCT/package.tex"
       style="font-style:normal;font-variant:normal;font-weight:normal;font-stretch:normal;letter-spacing:normal;word-spacing:normal;text-anchor:start;fill:none;stroke:#000000;stroke-width:1;stroke-linecap:butt;stroke-linejoin:miter;stroke-miterlimit:10.43299961;stroke-opacity:1;stroke-dasharray:none;stroke-dashoffset:0"><polygon
         points="226.87,712.2 226.32,712.2 226.32,709.96 224.05,709.96 224.05,709.4 226.32,709.4 226.32,707.12 226.87,707.12 226.87,709.4 229.14,709.4 229.14,709.96 226.87,709.96 "
         id="polygon3961"
         style="fill:#000000;stroke-width:0" /></g>    <path
       inkscape:connector-curvature="0"
       id="path3963"
       d="m 175,816.05514 0,15"
       style="fill:none;stroke:#000000;stroke-width:0.7;stroke-linecap:butt;stroke-linejoin:miter;stroke-miterlimit:4;stroke-opacity:1;stroke-dasharray:none;marker-end:url(#Arrow1Mend)"
       sodipodi:nodetypes="cc" />
    <path
       style="fill:none;stroke:#000000;stroke-width:0.80000001;stroke-linecap:butt;stroke-linejoin:miter;stroke-miterlimit:4;stroke-opacity:1;stroke-dasharray:none;marker-end:url(#Arrow1Mend)"
       d="M 173.93075,992.14911 157.00199,964.90409"
       id="path3965"
       inkscape:connector-curvature="0" />
    <path
       inkscape:connector-curvature="0"
       id="path3967"
       d="m 175.80515,992.14911 16.92876,-27.24502"
       style="fill:none;stroke:#000000;stroke-width:0.80000001;stroke-linecap:butt;stroke-linejoin:miter;stroke-miterlimit:4;stroke-opacity:1;stroke-dasharray:none;marker-end:url(#Arrow1Mend)" />
    <text
       xml:space="preserve"
       style="font-size:12px;font-style:normal;font-variant:normal;font-weight:normal;font-stretch:normal;text-align:center;line-height:125%;letter-spacing:0px;word-spacing:0px;text-anchor:middle;fill:#000000;fill-opacity:1;stroke:none;font-family:LMRoman12;-inkscape-font-specification:LMRoman12"
       x="174.44028"
       y="1001.9122"
       id="text3969"
       sodipodi:linespacing="125%"><tspan
         sodipodi:role="line"
         id="tspan3971"
         x="174.44028"
         y="1001.9122">Barrier voltages; positive on the</tspan><tspan
         sodipodi:role="line"
         x="174.44028"
         y="1016.9122"
         id="tspan3973">   side, negative on the     side</tspan></text>
    <g
       id="g4035"
       transform="matrix(1.2,0,0,-1.2,-174.61899,1865.5983)"
       xml:space="preserve"
       stroke-miterlimit="10.433"
       font-style="normal"
       font-variant="normal"
       font-weight="normal"
       font-stretch="normal"
       font-size-adjust="none"
       letter-spacing="normal"
       word-spacing="normal"
       ns0:text="$n-$"
       ns0:preamble="/home/sriranga/Desktop/MCT/package.tex"
       style="font-style:normal;font-variant:normal;font-weight:normal;font-stretch:normal;letter-spacing:normal;word-spacing:normal;text-anchor:start;fill:none;stroke:#000000;stroke-width:1;stroke-linecap:butt;stroke-linejoin:miter;stroke-miterlimit:10.43299961;stroke-opacity:1;stroke-dasharray:none;stroke-dashoffset:0"><path
         style="fill:#000000;stroke-width:0"
         inkscape:connector-curvature="0"
         d="m 228.01,708.29 -0.21,-0.26 c -0.29,-0.37 -0.47,-0.53 -0.61,-0.53 -0.08,0 -0.16,0.08 -0.16,0.16 0,0.07 0,0.07 0.14,0.63 l 0.57,2.04 c 0.05,0.21 0.09,0.43 0.09,0.57 0,0.36 -0.27,0.61 -0.66,0.61 -0.63,0 -1.26,-0.6 -2.29,-2.19 l 0.67,2.17 -0.03,0.02 c -0.54,-0.11 -0.75,-0.15 -1.61,-0.31 v -0.16 c 0.51,-0.01 0.64,-0.07 0.64,-0.27 0,-0.06 -0.01,-0.12 -0.02,-0.17 l -0.96,-3.48 h 0.75 c 0.47,1.57 0.56,1.79 0.99,2.47 0.6,0.91 1.11,1.41 1.48,1.41 0.14,0 0.23,-0.11 0.23,-0.29 0,-0.12 -0.06,-0.45 -0.14,-0.75 l -0.43,-1.64 c -0.13,-0.51 -0.16,-0.65 -0.16,-0.75 0,-0.38 0.14,-0.53 0.47,-0.53 0.44,0 0.7,0.2 1.39,1.12 z"
         id="path4037" /><polygon
         style="fill:#000000;stroke-width:0"
         points="229.03,709.96 229.03,709.4 234.12,709.4 234.12,709.96 "
         id="polygon4039" /></g>    <g
       style="font-style:normal;font-variant:normal;font-weight:normal;font-stretch:normal;letter-spacing:normal;word-spacing:normal;text-anchor:start;fill:none;stroke:#000000;stroke-width:1;stroke-linecap:butt;stroke-linejoin:miter;stroke-miterlimit:10.43299961;stroke-opacity:1;stroke-dasharray:none;stroke-dashoffset:0"
       ns0:preamble="/home/sriranga/Desktop/MCT/package.tex"
       ns0:text="$p-$"
       word-spacing="normal"
       letter-spacing="normal"
       font-size-adjust="none"
       font-stretch="normal"
       font-weight="normal"
       font-variant="normal"
       font-style="normal"
       stroke-miterlimit="10.433"
       xml:space="preserve"
       transform="matrix(1.2,0,0,-1.2,-49.730504,1865.5983)"
       id="g4129"><path
         id="path4131"
         d="m 224.74,711.14 h 0.22 c 0,0 0.03,0 0.03,0.01 0.13,0.06 0.39,-0.13 0.39,-0.28 0,-0.09 -0.36,-1.5 -0.7,-2.81 -0.27,-0.99 -0.51,-1.94 -0.58,-2.23 -0.11,-0.45 -0.24,-0.57 -0.67,-0.58 v -0.16 h 2.04 v 0.15 c -0.46,0 -0.63,0.09 -0.63,0.3 0,0.13 0.17,0.91 0.36,1.64 0.25,-0.13 0.43,-0.16 0.66,-0.16 l -0.04,0.18 c -0.28,0 -0.48,0.15 -0.48,0.37 0,0.34 0.36,1.64 0.65,2.38 0.27,0.67 0.85,1.16 1.34,1.13 h 0 c 0.43,-0.02 0.62,-0.28 0.62,-0.86 0,-0.65 -0.29,-1.51 -0.72,-2.12 -0.41,-0.59 -0.89,-0.9 -1.41,-0.9 l 0.04,-0.18 c 1.45,0 2.99,1.66 2.99,3.24 0,0.78 -0.44,1.25 -1.15,1.25 -0.65,0 -1.12,-0.32 -1.7,-1.13 l 0.29,1 0.03,0.09 c 0,0 -0.01,0.01 -0.02,0.03 l -0.02,0.01 c 0,0.01 -0.01,0.01 -0.01,0.01 l -0.02,-0.01 -1.53,-0.22 z"
         inkscape:connector-curvature="0"
         style="fill:#000000;stroke-width:0" /><polygon
         id="polygon4133"
         points="229.78,709.4 234.87,709.4 234.87,709.96 229.78,709.96 "
         style="fill:#000000;stroke-width:0" /></g>    <text
       xml:space="preserve"
       style="font-size:12px;font-style:normal;font-variant:normal;font-weight:normal;font-stretch:normal;text-align:center;line-height:125%;letter-spacing:0px;word-spacing:0px;text-anchor:middle;fill:#000000;fill-opacity:1;stroke:none;font-family:LMRoman12;-inkscape-font-specification:LMRoman12"
       x="175"
       y="812.3609"
       id="text4178"
       sodipodi:linespacing="125%"><tspan
         sodipodi:role="line"
         x="175"
         y="812.3609"
         id="tspan4182">Depletion regions penetrate deep into the base</tspan></text>
    <g
       id="g4253"
       transform="matrix(1.2,0,0,-1.2,-111.91918,1714.3358)"
       xml:space="preserve"
       stroke-miterlimit="10.433"
       font-style="normal"
       font-variant="normal"
       font-weight="normal"
       font-stretch="normal"
       font-size-adjust="none"
       letter-spacing="normal"
       word-spacing="normal"
       ns0:text="$n-$ type"
       ns0:preamble="/home/sriranga/Desktop/MCT/package.tex"
       style="font-style:normal;font-variant:normal;font-weight:normal;font-stretch:normal;letter-spacing:normal;word-spacing:normal;text-anchor:start;fill:none;stroke:#000000;stroke-width:1;stroke-linecap:butt;stroke-linejoin:miter;stroke-miterlimit:10.43299961;stroke-opacity:1;stroke-dasharray:none;stroke-dashoffset:0"><path
         style="fill:#000000;stroke-width:0"
         inkscape:connector-curvature="0"
         d="m 228.01,708.29 -0.21,-0.26 c -0.29,-0.37 -0.47,-0.53 -0.61,-0.53 -0.08,0 -0.16,0.08 -0.16,0.16 0,0.07 0,0.07 0.14,0.63 l 0.57,2.04 c 0.05,0.21 0.09,0.43 0.09,0.57 0,0.36 -0.27,0.61 -0.66,0.61 -0.63,0 -1.26,-0.6 -2.29,-2.19 l 0.67,2.17 -0.03,0.02 c -0.54,-0.11 -0.75,-0.15 -1.61,-0.31 v -0.16 c 0.51,-0.01 0.64,-0.07 0.64,-0.27 0,-0.06 -0.01,-0.12 -0.02,-0.17 l -0.96,-3.48 h 0.75 c 0.47,1.57 0.56,1.79 0.99,2.47 0.6,0.91 1.11,1.41 1.48,1.41 0.14,0 0.23,-0.11 0.23,-0.29 0,-0.12 -0.06,-0.45 -0.14,-0.75 l -0.43,-1.64 c -0.13,-0.51 -0.16,-0.65 -0.16,-0.75 0,-0.38 0.14,-0.53 0.47,-0.53 0.44,0 0.7,0.2 1.39,1.12 z"
         id="path4255" /><polygon
         style="fill:#000000;stroke-width:0"
         points="229.03,709.4 234.12,709.4 234.12,709.96 229.03,709.96 "
         id="polygon4257" /><path
         style="fill:#000000;stroke-width:0"
         inkscape:connector-curvature="0"
         d="m 239.78,711.59 h -1.01 v 1.16 c 0,0.1 -0.01,0.13 -0.07,0.13 -0.07,-0.09 -0.13,-0.18 -0.2,-0.28 -0.38,-0.55 -0.8,-1.02 -0.96,-1.06 -0.11,-0.07 -0.17,-0.14 -0.17,-0.19 0,-0.03 0.01,-0.05 0.04,-0.07 h 0.53 v -2.99 c 0,-0.84 0.3,-1.26 0.88,-1.26 0.49,0 0.87,0.23 1.2,0.75 l -0.13,0.11 c -0.21,-0.25 -0.38,-0.35 -0.6,-0.35 -0.37,0 -0.52,0.27 -0.52,0.9 v 2.84 h 1.01 z"
         id="path4259" /><path
         style="fill:#000000;stroke-width:0"
         inkscape:connector-curvature="0"
         d="m 244.74,711.59 h -1.35 v -0.14 c 0.32,0 0.48,-0.09 0.48,-0.25 0,-0.04 -0.01,-0.1 -0.04,-0.17 l -0.96,-2.74 -1.15,2.51 c -0.06,0.14 -0.1,0.27 -0.1,0.38 0,0.18 0.15,0.25 0.58,0.27 v 0.14 h -2.05 v -0.13 c 0.26,-0.04 0.43,-0.15 0.51,-0.32 l 1.13,-2.45 0.03,-0.08 0.15,-0.29 c 0.28,-0.5 0.44,-0.86 0.44,-1.01 0,-0.15 -0.23,-0.77 -0.4,-1.07 -0.14,-0.26 -0.36,-0.45 -0.5,-0.45 -0.06,0 -0.15,0.02 -0.25,0.07 -0.19,0.07 -0.36,0.11 -0.52,0.11 -0.23,0 -0.43,-0.2 -0.43,-0.43 0,-0.33 0.32,-0.58 0.73,-0.58 0.67,0 1.15,0.56 1.69,1.99 l 1.53,4.05 c 0.13,0.32 0.24,0.42 0.48,0.45 z"
         id="path4261" /><path
         style="fill:#000000;stroke-width:0"
         inkscape:connector-curvature="0"
         d="m 245.08,711.03 0.02,0 0.01,0 0.02,0 0.01,0 0.02,0.01 0.01,0 0.02,0 0.01,0 0.03,0 0.02,0 0.02,0 0.01,0 0.02,0 0.01,0 0.02,0 c 0.34,0 0.41,-0.1 0.41,-0.57 v -4.65 c 0,-0.51 -0.11,-0.62 -0.7,-0.68 v -0.17 h 2.41 v 0.18 c -0.75,0.01 -0.88,0.12 -0.88,0.74 v 1.56 c 0.35,-0.33 0.59,-0.42 1.01,-0.42 l 0.03,0.31 c -0.47,0 -1.04,0.36 -1.04,0.66 v 2.44 c 0,0.3 0.56,0.66 1.02,0.66 0.73,0 1.22,-0.76 1.22,-1.91 0,-1.1 -0.49,-1.85 -1.2,-1.85 l -0.03,-0.31 c 1.17,0 2.09,1.11 2.09,2.55 0,1.23 -0.7,2.12 -1.66,2.12 -0.56,0 -1,-0.25 -1.44,-0.79 v 0.76 l -0.06,0.03 c -0.53,-0.21 -0.88,-0.34 -1.43,-0.51 z"
         id="path4263" /><path
         style="fill:#000000;stroke-width:0"
         inkscape:connector-curvature="0"
         d="m 254.03,708.75 -0.04,-0.07 -0.05,-0.06 -0.04,-0.07 -0.05,-0.06 -0.04,-0.06 -0.04,-0.05 -0.05,-0.06 -0.04,-0.05 -0.05,-0.05 -0.04,-0.04 -0.04,-0.05 -0.05,-0.04 -0.04,-0.04 -0.05,-0.03 -0.04,-0.04 -0.05,-0.03 -0.05,-0.03 -0.04,-0.03 -0.05,-0.02 -0.05,-0.03 -0.05,-0.02 -0.05,-0.02 -0.05,-0.02 -0.05,-0.01 -0.05,-0.02 -0.05,-0.01 -0.06,-0.01 -0.05,-0.01 -0.06,0 -0.05,-0.01 -0.06,0 -0.06,0 c -0.57,0 -1,0.29 -1.28,0.86 -0.18,0.37 -0.25,0.7 -0.27,1.31 l 0.02,0.32 c 0.11,0.77 0.44,1.14 1.05,1.14 0.61,0 0.85,-0.28 0.98,-1.14 h -2.03 l -0.02,-0.32 H 254 c -0.08,0.64 -0.18,0.93 -0.43,1.25 -0.3,0.36 -0.75,0.57 -1.27,0.57 -0.5,0 -0.96,-0.18 -1.34,-0.52 -0.47,-0.41 -0.74,-1.11 -0.74,-1.93 0,-1.37 0.72,-2.22 1.86,-2.22 0.95,0 1.69,0.58 2.11,1.65 z"
         id="path4265" /></g>    <g
       style="font-style:normal;font-variant:normal;font-weight:normal;font-stretch:normal;letter-spacing:normal;word-spacing:normal;text-anchor:start;fill:none;stroke:#000000;stroke-width:1;stroke-linecap:butt;stroke-linejoin:miter;stroke-miterlimit:10.43299961;stroke-opacity:1;stroke-dasharray:none;stroke-dashoffset:0"
       ns0:preamble="/home/sriranga/Desktop/MCT/package.tex"
       ns0:text="$p-$ type"
       word-spacing="normal"
       letter-spacing="normal"
       font-size-adjust="none"
       font-stretch="normal"
       font-weight="normal"
       font-variant="normal"
       font-style="normal"
       stroke-miterlimit="10.433"
       xml:space="preserve"
       transform="matrix(1.2,0,0,-1.2,-167.94335,1714.3358)"
       id="g4396"><path
         id="path4398"
         d="m 224.74,711.14 h 0.22 c 0,0 0.03,0 0.03,0.01 0.13,0.06 0.39,-0.13 0.39,-0.28 0,-0.09 -0.36,-1.5 -0.7,-2.81 -0.27,-0.99 -0.51,-1.94 -0.58,-2.23 -0.11,-0.45 -0.24,-0.57 -0.67,-0.58 v -0.16 h 2.04 v 0.15 c -0.46,0 -0.63,0.09 -0.63,0.3 0,0.13 0.17,0.91 0.36,1.64 0.25,-0.13 0.43,-0.16 0.66,-0.16 l -0.04,0.18 c -0.28,0 -0.48,0.15 -0.48,0.37 0,0.34 0.36,1.64 0.65,2.38 0.27,0.67 0.85,1.16 1.34,1.13 h 0 c 0.43,-0.02 0.62,-0.28 0.62,-0.86 0,-0.65 -0.29,-1.51 -0.72,-2.12 -0.41,-0.59 -0.89,-0.9 -1.41,-0.9 l 0.04,-0.18 c 1.45,0 2.99,1.66 2.99,3.24 0,0.78 -0.44,1.25 -1.15,1.25 -0.65,0 -1.12,-0.32 -1.7,-1.13 l 0.29,1 0.03,0.09 c 0,0 -0.01,0.01 -0.02,0.03 l -0.02,0.01 c 0,0.01 -0.01,0.01 -0.01,0.01 l -0.02,-0.01 -1.53,-0.22 z"
         inkscape:connector-curvature="0"
         style="fill:#000000;stroke-width:0" /><polygon
         id="polygon4400"
         points="229.78,709.96 229.78,709.4 234.87,709.4 234.87,709.96 "
         style="fill:#000000;stroke-width:0" /><path
         id="path4402"
         d="m 240.52,711.59 h -1 v 1.16 c 0,0.1 -0.01,0.13 -0.07,0.13 -0.07,-0.09 -0.13,-0.18 -0.2,-0.28 -0.38,-0.55 -0.8,-1.02 -0.96,-1.06 -0.11,-0.07 -0.17,-0.14 -0.17,-0.19 0,-0.03 0.01,-0.05 0.04,-0.07 h 0.52 v -2.99 c 0,-0.84 0.3,-1.26 0.89,-1.26 0.49,0 0.86,0.23 1.19,0.75 l -0.13,0.11 c -0.2,-0.25 -0.37,-0.35 -0.59,-0.35 -0.37,0 -0.52,0.27 -0.52,0.9 v 2.84 h 1 z"
         inkscape:connector-curvature="0"
         style="fill:#000000;stroke-width:0" /><path
         id="path4404"
         d="m 245.48,711.59 h -1.34 v -0.14 c 0.32,0 0.48,-0.09 0.48,-0.25 0,-0.04 -0.01,-0.1 -0.04,-0.17 l -0.97,-2.74 -1.14,2.51 c -0.06,0.14 -0.1,0.27 -0.1,0.38 0,0.18 0.15,0.25 0.58,0.27 v 0.14 h -2.05 v -0.13 c 0.26,-0.04 0.42,-0.15 0.5,-0.32 l 1.14,-2.45 0.03,-0.08 0.15,-0.29 c 0.28,-0.5 0.43,-0.86 0.43,-1.01 0,-0.15 -0.22,-0.77 -0.39,-1.07 -0.14,-0.26 -0.36,-0.45 -0.5,-0.45 -0.06,0 -0.15,0.02 -0.25,0.07 -0.19,0.07 -0.36,0.11 -0.53,0.11 -0.22,0 -0.42,-0.2 -0.42,-0.43 0,-0.33 0.31,-0.58 0.73,-0.58 0.67,0 1.15,0.56 1.68,1.99 l 1.54,4.05 c 0.12,0.32 0.23,0.42 0.47,0.45 z"
         inkscape:connector-curvature="0"
         style="fill:#000000;stroke-width:0" /><path
         id="path4406"
         d="m 245.83,711.03 0.01,0 0.02,0 0.02,0 0.01,0 0.02,0.01 0.01,0 0.02,0 0.01,0 0.03,0 0.02,0 0.01,0 0.02,0 0.01,0 0.02,0 0.02,0 c 0.33,0 0.41,-0.1 0.41,-0.57 v -4.65 c 0,-0.51 -0.11,-0.62 -0.7,-0.68 v -0.17 h 2.41 v 0.18 c -0.75,0.01 -0.88,0.12 -0.88,0.74 v 1.56 c 0.35,-0.33 0.59,-0.42 1.01,-0.42 l 0.03,0.31 c -0.47,0 -1.04,0.36 -1.04,0.66 v 2.44 c 0,0.3 0.56,0.66 1.02,0.66 0.73,0 1.22,-0.76 1.22,-1.91 0,-1.1 -0.49,-1.85 -1.2,-1.85 l -0.03,-0.31 c 1.17,0 2.08,1.11 2.08,2.55 0,1.23 -0.69,2.12 -1.66,2.12 -0.55,0 -0.99,-0.25 -1.43,-0.79 v 0.76 l -0.06,0.03 c -0.54,-0.21 -0.88,-0.34 -1.43,-0.51 z"
         inkscape:connector-curvature="0"
         style="fill:#000000;stroke-width:0" /><path
         id="path4408"
         d="m 254.78,708.75 -0.05,-0.07 -0.04,-0.06 -0.04,-0.07 -0.05,-0.06 -0.04,-0.06 -0.05,-0.05 -0.04,-0.06 -0.04,-0.05 -0.05,-0.05 -0.04,-0.04 -0.05,-0.05 -0.04,-0.04 -0.05,-0.04 -0.04,-0.03 -0.05,-0.04 -0.04,-0.03 -0.05,-0.03 -0.05,-0.03 -0.04,-0.02 -0.05,-0.03 -0.05,-0.02 -0.05,-0.02 -0.05,-0.02 -0.05,-0.01 -0.05,-0.02 -0.06,-0.01 -0.05,-0.01 -0.05,-0.01 -0.06,0 -0.06,-0.01 -0.05,0 -0.06,0 c -0.57,0 -1,0.29 -1.29,0.86 -0.18,0.37 -0.24,0.7 -0.27,1.31 l 0.03,0.32 c 0.11,0.77 0.44,1.14 1.05,1.14 0.61,0 0.84,-0.28 0.98,-1.14 h -2.03 l -0.03,-0.32 h 3.07 c -0.08,0.64 -0.18,0.93 -0.43,1.25 -0.3,0.36 -0.75,0.57 -1.27,0.57 -0.5,0 -0.97,-0.18 -1.34,-0.52 -0.47,-0.41 -0.74,-1.11 -0.74,-1.93 0,-1.37 0.71,-2.22 1.86,-2.22 0.94,0 1.69,0.58 2.11,1.65 z"
         inkscape:connector-curvature="0"
         style="fill:#000000;stroke-width:0" /></g>    <g
       id="g4470"
       transform="matrix(1.2,0,0,-1.2,-57.308299,1714.3358)"
       xml:space="preserve"
       stroke-miterlimit="10.433"
       font-style="normal"
       font-variant="normal"
       font-weight="normal"
       font-stretch="normal"
       font-size-adjust="none"
       letter-spacing="normal"
       word-spacing="normal"
       ns0:text="$p-$ type"
       ns0:preamble="/home/sriranga/Desktop/MCT/package.tex"
       style="font-style:normal;font-variant:normal;font-weight:normal;font-stretch:normal;letter-spacing:normal;word-spacing:normal;text-anchor:start;fill:none;stroke:#000000;stroke-width:1;stroke-linecap:butt;stroke-linejoin:miter;stroke-miterlimit:10.43299961;stroke-opacity:1;stroke-dasharray:none;stroke-dashoffset:0"><path
         style="fill:#000000;stroke-width:0"
         inkscape:connector-curvature="0"
         d="m 224.74,711.14 h 0.22 c 0,0 0.03,0 0.03,0.01 0.13,0.06 0.39,-0.13 0.39,-0.28 0,-0.09 -0.36,-1.5 -0.7,-2.81 -0.27,-0.99 -0.51,-1.94 -0.58,-2.23 -0.11,-0.45 -0.24,-0.57 -0.67,-0.58 v -0.16 h 2.04 v 0.15 c -0.46,0 -0.63,0.09 -0.63,0.3 0,0.13 0.17,0.91 0.36,1.64 0.25,-0.13 0.43,-0.16 0.66,-0.16 l -0.04,0.18 c -0.28,0 -0.48,0.15 -0.48,0.37 0,0.34 0.36,1.64 0.65,2.38 0.27,0.67 0.85,1.16 1.34,1.13 h 0 c 0.43,-0.02 0.62,-0.28 0.62,-0.86 0,-0.65 -0.29,-1.51 -0.72,-2.12 -0.41,-0.59 -0.89,-0.9 -1.41,-0.9 l 0.04,-0.18 c 1.45,0 2.99,1.66 2.99,3.24 0,0.78 -0.44,1.25 -1.15,1.25 -0.65,0 -1.12,-0.32 -1.7,-1.13 l 0.29,1 0.03,0.09 c 0,0 -0.01,0.01 -0.02,0.03 l -0.02,0.01 c 0,0.01 -0.01,0.01 -0.01,0.01 l -0.02,-0.01 -1.53,-0.22 z"
         id="path4472" /><polygon
         style="fill:#000000;stroke-width:0"
         points="234.87,709.96 229.78,709.96 229.78,709.4 234.87,709.4 "
         id="polygon4474" /><path
         style="fill:#000000;stroke-width:0"
         inkscape:connector-curvature="0"
         d="m 240.52,711.59 h -1 v 1.16 c 0,0.1 -0.01,0.13 -0.07,0.13 -0.07,-0.09 -0.13,-0.18 -0.2,-0.28 -0.38,-0.55 -0.8,-1.02 -0.96,-1.06 -0.11,-0.07 -0.17,-0.14 -0.17,-0.19 0,-0.03 0.01,-0.05 0.04,-0.07 h 0.52 v -2.99 c 0,-0.84 0.3,-1.26 0.89,-1.26 0.49,0 0.86,0.23 1.19,0.75 l -0.13,0.11 c -0.2,-0.25 -0.37,-0.35 -0.59,-0.35 -0.37,0 -0.52,0.27 -0.52,0.9 v 2.84 h 1 z"
         id="path4476" /><path
         style="fill:#000000;stroke-width:0"
         inkscape:connector-curvature="0"
         d="m 245.48,711.59 h -1.34 v -0.14 c 0.32,0 0.48,-0.09 0.48,-0.25 0,-0.04 -0.01,-0.1 -0.04,-0.17 l -0.97,-2.74 -1.14,2.51 c -0.06,0.14 -0.1,0.27 -0.1,0.38 0,0.18 0.15,0.25 0.58,0.27 v 0.14 h -2.05 v -0.13 c 0.26,-0.04 0.42,-0.15 0.5,-0.32 l 1.14,-2.45 0.03,-0.08 0.15,-0.29 c 0.28,-0.5 0.43,-0.86 0.43,-1.01 0,-0.15 -0.22,-0.77 -0.39,-1.07 -0.14,-0.26 -0.36,-0.45 -0.5,-0.45 -0.06,0 -0.15,0.02 -0.25,0.07 -0.19,0.07 -0.36,0.11 -0.53,0.11 -0.22,0 -0.42,-0.2 -0.42,-0.43 0,-0.33 0.31,-0.58 0.73,-0.58 0.67,0 1.15,0.56 1.68,1.99 l 1.54,4.05 c 0.12,0.32 0.23,0.42 0.47,0.45 z"
         id="path4478" /><path
         style="fill:#000000;stroke-width:0"
         inkscape:connector-curvature="0"
         d="m 245.83,711.03 0.01,0 0.02,0 0.02,0 0.01,0 0.02,0.01 0.01,0 0.02,0 0.01,0 0.03,0 0.02,0 0.01,0 0.02,0 0.01,0 0.02,0 0.02,0 c 0.33,0 0.41,-0.1 0.41,-0.57 v -4.65 c 0,-0.51 -0.11,-0.62 -0.7,-0.68 v -0.17 h 2.41 v 0.18 c -0.75,0.01 -0.88,0.12 -0.88,0.74 v 1.56 c 0.35,-0.33 0.59,-0.42 1.01,-0.42 l 0.03,0.31 c -0.47,0 -1.04,0.36 -1.04,0.66 v 2.44 c 0,0.3 0.56,0.66 1.02,0.66 0.73,0 1.22,-0.76 1.22,-1.91 0,-1.1 -0.49,-1.85 -1.2,-1.85 l -0.03,-0.31 c 1.17,0 2.08,1.11 2.08,2.55 0,1.23 -0.69,2.12 -1.66,2.12 -0.55,0 -0.99,-0.25 -1.43,-0.79 v 0.76 l -0.06,0.03 c -0.54,-0.21 -0.88,-0.34 -1.43,-0.51 z"
         id="path4480" /><path
         style="fill:#000000;stroke-width:0"
         inkscape:connector-curvature="0"
         d="m 254.78,708.75 -0.05,-0.07 -0.04,-0.06 -0.04,-0.07 -0.05,-0.06 -0.04,-0.06 -0.05,-0.05 -0.04,-0.06 -0.04,-0.05 -0.05,-0.05 -0.04,-0.04 -0.05,-0.05 -0.04,-0.04 -0.05,-0.04 -0.04,-0.03 -0.05,-0.04 -0.04,-0.03 -0.05,-0.03 -0.05,-0.03 -0.04,-0.02 -0.05,-0.03 -0.05,-0.02 -0.05,-0.02 -0.05,-0.02 -0.05,-0.01 -0.05,-0.02 -0.06,-0.01 -0.05,-0.01 -0.05,-0.01 -0.06,0 -0.06,-0.01 -0.05,0 -0.06,0 c -0.57,0 -1,0.29 -1.29,0.86 -0.18,0.37 -0.24,0.7 -0.27,1.31 l 0.03,0.32 c 0.11,0.77 0.44,1.14 1.05,1.14 0.61,0 0.84,-0.28 0.98,-1.14 h -2.03 l -0.03,-0.32 h 3.07 c -0.08,0.64 -0.18,0.93 -0.43,1.25 -0.3,0.36 -0.75,0.57 -1.27,0.57 -0.5,0 -0.97,-0.18 -1.34,-0.52 -0.47,-0.41 -0.74,-1.11 -0.74,-1.93 0,-1.37 0.71,-2.22 1.86,-2.22 0.94,0 1.69,0.58 2.11,1.65 z"
         id="path4482" /></g>    <text
       xml:space="preserve"
       style="font-size:12px;font-style:normal;font-variant:normal;font-weight:normal;font-stretch:normal;text-align:center;line-height:125%;letter-spacing:0px;word-spacing:0px;text-anchor:middle;fill:#000000;fill-opacity:1;stroke:none;font-family:LMRoman12;-inkscape-font-specification:LMRoman12"
       x="122.02358"
       y="912.53448"
       id="text4484"
       sodipodi:linespacing="125%"><tspan
         sodipodi:role="line"
         id="tspan4486"
         x="122.02358"
         y="912.53448">Emitter</tspan></text>
    <rect
       style="fill:#ffffff;fill-opacity:1;stroke:#ffffff;stroke-width:1.5;stroke-linecap:square;stroke-linejoin:round;stroke-miterlimit:4;stroke-opacity:1;stroke-dasharray:none;stroke-dashoffset:0"
       id="rect4498"
       width="24.341507"
       height="8.7293682"
       x="161.4933"
       y="903.35968" />
    <text
       xml:space="preserve"
       style="font-size:12px;font-style:normal;font-variant:normal;font-weight:normal;font-stretch:normal;text-align:center;line-height:125%;letter-spacing:0px;word-spacing:0px;text-anchor:middle;fill:#000000;fill-opacity:1;stroke:none;font-family:LMRoman12;-inkscape-font-specification:LMRoman12"
       x="173.90349"
       y="911.79266"
       id="text4488"
       sodipodi:linespacing="125%"><tspan
         sodipodi:role="line"
         id="tspan4490"
         x="173.90349"
         y="911.79266">Base</tspan></text>
    <text
       sodipodi:linespacing="125%"
       id="text4492"
       y="911.79266"
       x="229.10281"
       style="font-size:12px;font-style:normal;font-variant:normal;font-weight:normal;font-stretch:normal;text-align:center;line-height:125%;letter-spacing:0px;word-spacing:0px;text-anchor:middle;fill:#000000;fill-opacity:1;stroke:none;font-family:LMRoman12;-inkscape-font-specification:LMRoman12"
       xml:space="preserve"><tspan
         y="911.79266"
         x="229.10281"
         id="tspan4494"
         sodipodi:role="line">Collector</tspan></text>
    <path
       style="fill:none;stroke:#000000;stroke-width:0.7;stroke-linecap:butt;stroke-linejoin:miter;stroke-opacity:1;marker-start:url(#Arrow1Mstart);marker-end:url(#Arrow1Mend);stroke-miterlimit:4;stroke-dasharray:none"
       d="m 160,83.464569 0,-20 30,0 0,20"
       id="path4500"
       inkscape:connector-curvature="0"
       transform="translate(0,768.89631)"
       sodipodi:nodetypes="cccc" />
  </g>
</svg>
