<?xml version="1.0" encoding="UTF-8" standalone="no"?>
<!-- Created with Inkscape (http://www.inkscape.org/) -->

<svg
   xmlns:ns0="http://www.iki.fi/pav/software/textext/"
   xmlns:dc="http://purl.org/dc/elements/1.1/"
   xmlns:cc="http://creativecommons.org/ns#"
   xmlns:rdf="http://www.w3.org/1999/02/22-rdf-syntax-ns#"
   xmlns:svg="http://www.w3.org/2000/svg"
   xmlns="http://www.w3.org/2000/svg"
   xmlns:sodipodi="http://sodipodi.sourceforge.net/DTD/sodipodi-0.dtd"
   xmlns:inkscape="http://www.inkscape.org/namespaces/inkscape"
   sodipodi:docname="fig2.18.eps"
   inkscape:version="0.48.4 r9939"
   version="1.1"
   id="svg2"
   height="283.46457"
   width="425.19684">
  <sodipodi:namedview
     id="base"
     pagecolor="#ffffff"
     bordercolor="#666666"
     borderopacity="1.0"
     inkscape:pageopacity="0.0"
     inkscape:pageshadow="2"
     inkscape:zoom="2.1060833"
     inkscape:cx="212.59842"
     inkscape:cy="141.73228"
     inkscape:document-units="cm"
     inkscape:current-layer="layer1"
     showgrid="false"
     units="cm"
     inkscape:object-nodes="true"
     inkscape:window-width="1366"
     inkscape:window-height="744"
     inkscape:window-x="0"
     inkscape:window-y="24"
     inkscape:window-maximized="1">
    <inkscape:grid
       type="xygrid"
       id="grid2985"
       empspacing="5"
       visible="true"
       enabled="true"
       snapvisiblegridlinesonly="true" />
  </sodipodi:namedview>
  <defs
     id="defs4">
    <marker
       inkscape:stockid="Arrow1Mend"
       orient="auto"
       refY="0"
       refX="0"
       id="Arrow1Mend"
       style="overflow:visible">
      <path
         id="path3949"
         d="M 0,0 5,-5 -12.5,0 5,5 0,0 z"
         style="fill-rule:evenodd;stroke:#000000;stroke-width:1pt"
         transform="matrix(-0.4,0,0,-0.4,-4,0)"
         inkscape:connector-curvature="0" />
    </marker>
  </defs>
  <metadata
     id="metadata7">
    <rdf:RDF>
      <cc:Work
         rdf:about="">
        <dc:format>image/svg+xml</dc:format>
        <dc:type
           rdf:resource="http://purl.org/dc/dcmitype/StillImage" />
        <dc:title></dc:title>
      </cc:Work>
    </rdf:RDF>
  </metadata>
  <g
     inkscape:label="Layer 1"
     inkscape:groupmode="layer"
     id="layer1"
     transform="translate(0,-768.89631)">
    <path
       inkscape:connector-curvature="0"
       id="path4935"
       d="m 140,867.36092 0,35"
       style="fill:none;stroke:#000000;stroke-width:1px;stroke-linecap:butt;stroke-linejoin:miter;stroke-opacity:1" />
    <text
       xml:space="preserve"
       style="font-size:12px;font-style:normal;font-variant:normal;font-weight:normal;font-stretch:normal;text-align:center;line-height:125%;letter-spacing:0px;word-spacing:0px;text-anchor:middle;fill:#000000;fill-opacity:1;stroke:none;font-family:LMRoman12;-inkscape-font-specification:LMRoman12"
       x="140.30785"
       y="115.38005"
       id="text3819"
       sodipodi:linespacing="125%"
       transform="translate(0,768.89631)"><tspan
         sodipodi:role="line"
         id="tspan3821"
         x="140.30785"
         y="115.38005" /></text>
    <path
       style="fill:none;stroke:#000000;stroke-width:1px;stroke-linecap:butt;stroke-linejoin:miter;stroke-opacity:1;marker-end:url(#Arrow1Mend)"
       d="m 187.74729,872.39304 1.54661,3.64815"
       id="path3934"
       inkscape:connector-curvature="0"
       sodipodi:nodetypes="cc" />
    <path
       inkscape:connector-curvature="0"
       id="path4380"
       d="M 55.540864,930.06823 79.274613,911.20655"
       style="fill:none;stroke:#000000;stroke-width:0.80000001;stroke-linecap:butt;stroke-linejoin:miter;stroke-miterlimit:4;stroke-opacity:1;stroke-dasharray:none;marker-end:url(#Arrow1Mend)" />
    <g
       id="g4635"
       transform="matrix(1.2,0,0,-1.2,-8.9377101,1710.8222)"
       xml:space="preserve"
       stroke-miterlimit="10.433"
       font-style="normal"
       font-variant="normal"
       font-weight="normal"
       font-stretch="normal"
       font-size-adjust="none"
       letter-spacing="normal"
       word-spacing="normal"
       ns0:text="$I_C$"
       ns0:preamble="/home/sriranga/Desktop/MCT/package.tex"
       style="font-style:normal;font-variant:normal;font-weight:normal;font-stretch:normal;letter-spacing:normal;word-spacing:normal;text-anchor:start;fill:none;stroke:#000000;stroke-width:1;stroke-linecap:butt;stroke-linejoin:miter;stroke-miterlimit:10.43299961;stroke-opacity:1;stroke-dasharray:none;stroke-dashoffset:0"><path
         d="m 223.6,707.12 h 2.43 v 0.16 c -0.57,0.07 -0.68,0.13 -0.68,0.41 0,0.19 0.02,0.31 0.11,0.63 l 1.23,4.4 c 0.18,0.57 0.24,0.63 0.81,0.73 v 0.16 h -2.46 v -0.16 c 0.58,-0.07 0.7,-0.15 0.7,-0.42 0,-0.14 -0.04,-0.37 -0.11,-0.62 l -1.22,-4.39 c -0.18,-0.58 -0.25,-0.64 -0.81,-0.74 z"
         id="path4637"
         inkscape:connector-curvature="0"
         style="fill:#000000;stroke-width:0" /><path
         d="m 231.37,708.86 0.25,1.39 h -0.14 c -0.06,-0.11 -0.13,-0.16 -0.27,-0.16 -0.05,0 -0.14,0.02 -0.28,0.05 -0.32,0.08 -0.6,0.12 -0.82,0.12 -1.48,0 -2.83,-1.4 -2.83,-2.94 0,-1.06 0.76,-1.81 1.82,-1.81 0.72,0 1.28,0.3 1.9,1.03 l -0.12,0.1 c -0.62,-0.61 -1.03,-0.82 -1.6,-0.82 -0.77,0 -1.22,0.53 -1.22,1.42 0,0.83 0.34,1.67 0.88,2.24 0.33,0.34 0.77,0.53 1.23,0.53 0.65,0 1,-0.37 1.07,-1.12 z"
         id="path4639"
         inkscape:connector-curvature="0"
         style="fill:#000000;stroke-width:0" /></g>    <g
       id="g5133"
       transform="matrix(1.2,0,0,-1.2,-82.549625,1764.8775)"
       xml:space="preserve"
       stroke-miterlimit="10.433"
       font-style="normal"
       font-variant="normal"
       font-weight="normal"
       font-stretch="normal"
       font-size-adjust="none"
       letter-spacing="normal"
       word-spacing="normal"
       ns0:text="$I_B$"
       ns0:preamble="/home/sriranga/Desktop/MCT/package.tex"
       style="font-style:normal;font-variant:normal;font-weight:normal;font-stretch:normal;letter-spacing:normal;word-spacing:normal;text-anchor:start;fill:none;stroke:#000000;stroke-width:1;stroke-linecap:butt;stroke-linejoin:miter;stroke-miterlimit:10.43299961;stroke-opacity:1;stroke-dasharray:none;stroke-dashoffset:0"><path
         style="fill:#000000;stroke-width:0"
         inkscape:connector-curvature="0"
         d="m 223.6,707.12 h 2.43 v 0.16 c -0.57,0.07 -0.68,0.13 -0.68,0.41 0,0.19 0.02,0.31 0.11,0.63 l 1.23,4.4 c 0.18,0.57 0.24,0.63 0.81,0.73 v 0.16 h -2.46 v -0.16 c 0.58,-0.07 0.7,-0.15 0.7,-0.42 0,-0.14 -0.04,-0.37 -0.11,-0.62 l -1.22,-4.39 c -0.18,-0.58 -0.25,-0.64 -0.81,-0.74 z"
         id="path5135" /><path
         style="fill:#000000;stroke-width:0"
         inkscape:connector-curvature="0"
         d="m 227.19,705.63 h 1.96 c 1.09,0 1.85,0.57 1.85,1.39 0,0.26 -0.09,0.5 -0.24,0.65 -0.14,0.17 -0.28,0.25 -0.64,0.4 0.49,0.12 0.7,0.2 0.92,0.4 0.19,0.17 0.3,0.4 0.3,0.68 0,0.66 -0.5,1.02 -1.39,1.02 l -0.13,-0.21 c 0.56,0 0.81,-0.23 0.81,-0.75 0,-0.39 -0.16,-0.7 -0.46,-0.87 -0.24,-0.14 -0.57,-0.18 -1.2,-0.18 l -0.07,-0.23 c 0.45,0 0.75,-0.02 0.89,-0.08 0.28,-0.12 0.45,-0.43 0.45,-0.8 0,-0.75 -0.51,-1.21 -1.36,-1.21 -0.29,0 -0.45,0.1 -0.45,0.29 0,0.09 0.09,0.42 0.25,0.97 0.09,0.32 0.13,0.48 0.22,0.83 h 0 l 0.07,0.23 0.45,1.61 c 0.04,0.15 0.13,0.19 0.4,0.19 l 0.13,0.21 h -1.8 v -0.11 c 0.43,-0.03 0.53,-0.09 0.53,-0.28 0,-0.11 -0.02,-0.28 -0.07,-0.45 l -0.86,-3.07 c -0.12,-0.41 -0.17,-0.45 -0.56,-0.52 z"
         id="path5137" /></g>    <path
       style="fill:none;stroke:#000000;stroke-width:1px;stroke-linecap:butt;stroke-linejoin:miter;stroke-opacity:1"
       d="m 140,915.36093 0,31.99998"
       id="path3899"
       inkscape:connector-curvature="0" />
    <path
       style="fill:none;stroke:#000000;stroke-width:1px;stroke-linecap:butt;stroke-linejoin:miter;stroke-opacity:1"
       d="m 55,917.36088 20,0"
       id="path3901"
       inkscape:connector-curvature="0" />
    <path
       style="fill:none;stroke:#000000;stroke-width:1px;stroke-linecap:butt;stroke-linejoin:miter;stroke-opacity:1"
       d="m 60,920.36088 10,0"
       id="path3903"
       inkscape:connector-curvature="0" />
    <path
       sodipodi:nodetypes="ccccccccccccc"
       inkscape:connector-curvature="0"
       id="path3911"
       d="m 95,867.36088 -30,0 0,15 5,2.41998 -10,2.58002 10,2 -10,3 10,2 -10,3 10.14251,2 -9.79881,3 4.6563,3 0,12"
       style="fill:none;stroke:#000000;stroke-width:1;stroke-linecap:butt;stroke-linejoin:round;stroke-miterlimit:4;stroke-opacity:1;stroke-dasharray:none" />
    <path
       style="fill:none;stroke:#000000;stroke-width:0.80000001;stroke-linecap:butt;stroke-linejoin:miter;stroke-miterlimit:4;stroke-opacity:1;stroke-dasharray:none;marker-end:url(#Arrow1Mend)"
       d="m 143.45397,860.0096 30.49571,0"
       id="path3913"
       inkscape:connector-curvature="0" />
    <g
       id="g4623"
       transform="matrix(1.2,0,0,-1.2,99.016714,1775.5858)"
       xml:space="preserve"
       stroke-miterlimit="10.433"
       font-style="normal"
       font-variant="normal"
       font-weight="normal"
       font-stretch="normal"
       font-size-adjust="none"
       letter-spacing="normal"
       word-spacing="normal"
       ns0:text="$V_{CC}$"
       ns0:preamble="/home/sriranga/Desktop/MCT/package.tex"
       style="font-style:normal;font-variant:normal;font-weight:normal;font-stretch:normal;letter-spacing:normal;word-spacing:normal;text-anchor:start;fill:none;stroke:#000000;stroke-width:1;stroke-linecap:butt;stroke-linejoin:miter;stroke-miterlimit:10.43299961;stroke-opacity:1;stroke-dasharray:none;stroke-dashoffset:0"><path
         style="fill:#000000;stroke-width:0"
         inkscape:connector-curvature="0"
         d="m 230.28,713.61 h -1.85 v -0.16 c 0.44,-0.05 0.62,-0.15 0.62,-0.34 0,-0.18 -0.19,-0.61 -0.51,-1.18 l -2.05,-3.53 -0.66,4.4 c -0.01,0.05 -0.01,0.09 -0.01,0.15 0,0.33 0.14,0.43 0.77,0.5 v 0.16 h -2.4 v -0.16 c 0.55,-0.07 0.57,-0.1 0.78,-1.34 l 0.85,-5.16 h 0.19 l 3.71,6.1 c 0.17,0.27 0.33,0.39 0.56,0.4 z"
         id="path4625" /><path
         style="fill:#000000;stroke-width:0"
         inkscape:connector-curvature="0"
         d="m 233.89,708.86 0.25,1.39 H 234 c -0.06,-0.11 -0.13,-0.16 -0.27,-0.16 -0.05,0 -0.14,0.02 -0.28,0.05 -0.32,0.08 -0.6,0.12 -0.82,0.12 -1.48,0 -2.83,-1.4 -2.83,-2.94 0,-1.06 0.76,-1.81 1.82,-1.81 0.72,0 1.28,0.3 1.9,1.03 l -0.12,0.1 c -0.62,-0.61 -1.02,-0.82 -1.6,-0.82 -0.77,0 -1.21,0.53 -1.21,1.42 0,0.83 0.33,1.67 0.87,2.24 0.34,0.34 0.78,0.53 1.24,0.53 0.64,0 0.99,-0.37 1.06,-1.12 z"
         id="path4627" /><path
         style="fill:#000000;stroke-width:0"
         inkscape:connector-curvature="0"
         d="m 238.69,708.86 0.26,1.39 h -0.15 c -0.05,-0.11 -0.12,-0.16 -0.26,-0.16 -0.06,0 -0.14,0.02 -0.29,0.05 -0.31,0.08 -0.59,0.12 -0.81,0.12 -1.49,0 -2.83,-1.4 -2.83,-2.94 0,-1.06 0.75,-1.81 1.82,-1.81 0.72,0 1.27,0.3 1.9,1.03 l -0.12,0.1 c -0.63,-0.61 -1.03,-0.82 -1.6,-0.82 -0.77,0 -1.22,0.53 -1.22,1.42 0,0.83 0.33,1.67 0.88,2.24 0.33,0.34 0.77,0.53 1.23,0.53 0.64,0 1,-0.37 1.07,-1.12 z"
         id="path4629" /></g>    <path
       transform="matrix(2.6666691,0,0,2.6666697,-353.33378,473.45486)"
       d="m 188,163.46457 c 0,1.65685 -1.34315,3 -3,3 -1.65685,0 -3,-1.34315 -3,-3 0,-1.65686 1.34315,-3 3,-3 1.65685,0 3,1.34314 3,3 z"
       sodipodi:ry="3"
       sodipodi:rx="3"
       sodipodi:cy="163.46457"
       sodipodi:cx="185"
       id="path3020"
       style="fill:#ffffff;stroke:#000000;stroke-width:0.29999968;stroke-miterlimit:4;stroke-dasharray:none"
       sodipodi:type="arc" />
    <path
       inkscape:connector-curvature="0"
       id="path4909"
       d="m 205,887.36092 0,59.99998"
       style="fill:none;stroke:#000000;stroke-width:1px;stroke-linecap:butt;stroke-linejoin:miter;stroke-opacity:1" />
    <path
       style="fill:none;stroke:#000000;stroke-width:1.41732283;stroke-linecap:round;stroke-linejoin:miter;stroke-opacity:1;stroke-miterlimit:4;stroke-dasharray:none"
       d="m 185,887.3609 40,0"
       id="path4911"
       inkscape:connector-curvature="0" />
    <path
       sodipodi:nodetypes="ccc"
       inkscape:connector-curvature="0"
       id="path4913"
       d="m 195,887.3609 -10,-20 -80,-2e-5"
       style="fill:none;stroke:#000000;stroke-width:1px;stroke-linecap:butt;stroke-linejoin:miter;stroke-opacity:1" />
    <path
       style="fill:none;stroke:#000000;stroke-width:1px;stroke-linecap:butt;stroke-linejoin:miter;stroke-opacity:1"
       d="m 215,887.3609 10,-20 85,-2e-5"
       id="path4915"
       inkscape:connector-curvature="0"
       sodipodi:nodetypes="ccc" />
    <path
       style="fill:none;stroke:#000000;stroke-width:1px;stroke-linecap:butt;stroke-linejoin:miter;stroke-opacity:1"
       d="m 275,867.36092 0,35"
       id="path4941"
       inkscape:connector-curvature="0" />
    <path
       inkscape:connector-curvature="0"
       id="path4943"
       d="m 275,915.36093 0,31.99998"
       style="fill:none;stroke:#000000;stroke-width:1px;stroke-linecap:butt;stroke-linejoin:miter;stroke-opacity:1" />
    <path
       sodipodi:type="arc"
       style="fill:#ffffff;stroke:#000000;stroke-width:0.29999968;stroke-miterlimit:4;stroke-dasharray:none"
       id="path4945"
       sodipodi:cx="185"
       sodipodi:cy="163.46457"
       sodipodi:rx="3"
       sodipodi:ry="3"
       d="m 188,163.46457 a 3,3 0 1 1 -6,0 3,3 0 1 1 6,0 z"
       transform="matrix(2.6666691,0,0,2.6666697,-218.33378,473.45486)" />
    <g
       style="font-style:normal;font-variant:normal;font-weight:normal;font-stretch:normal;letter-spacing:normal;word-spacing:normal;text-anchor:start;fill:none;stroke:#000000;stroke-width:1;stroke-linecap:butt;stroke-linejoin:miter;stroke-miterlimit:10.43299961;stroke-opacity:1;stroke-dasharray:none;stroke-dashoffset:0"
       ns0:preamble="/home/sriranga/Desktop/MCT/package.tex"
       ns0:text="$V$"
       word-spacing="normal"
       letter-spacing="normal"
       font-size-adjust="none"
       font-stretch="normal"
       font-weight="normal"
       font-variant="normal"
       font-style="normal"
       stroke-miterlimit="10.433"
       xml:space="preserve"
       transform="matrix(1.2,0,0,-1.2,2.318005,1761.6969)"
       id="g5168"><path
         id="path5170"
         d="m 230.28,713.61 h -1.85 v -0.16 c 0.44,-0.05 0.62,-0.15 0.62,-0.34 0,-0.18 -0.19,-0.61 -0.51,-1.18 l -2.05,-3.53 -0.66,4.4 c -0.01,0.05 -0.01,0.09 -0.01,0.15 0,0.33 0.14,0.43 0.77,0.5 v 0.16 h -2.4 v -0.16 c 0.55,-0.07 0.57,-0.1 0.78,-1.34 l 0.85,-5.16 h 0.19 l 3.71,6.1 c 0.17,0.27 0.33,0.39 0.56,0.4 z"
         inkscape:connector-curvature="0"
         style="fill:#000000;stroke-width:0" /></g>    <path
       sodipodi:type="arc"
       style="fill:#ffffff;stroke:#000000;stroke-width:0.29999968;stroke-miterlimit:4;stroke-dasharray:none"
       id="path5251"
       sodipodi:cx="185"
       sodipodi:cy="163.46457"
       sodipodi:rx="3"
       sodipodi:ry="3"
       d="m 188,163.46457 a 3,3 0 1 1 -6,0 3,3 0 1 1 6,0 z"
       transform="matrix(2.6666691,0,0,2.6666697,-392.33379,431.45487)" />
    <path
       inkscape:connector-curvature="0"
       id="path5265"
       d="m 55,923.36088 20,0"
       style="fill:none;stroke:#000000;stroke-width:1px;stroke-linecap:butt;stroke-linejoin:miter;stroke-opacity:1" />
    <path
       inkscape:connector-curvature="0"
       id="path5267"
       d="m 60,927.36088 10,0"
       style="fill:none;stroke:#000000;stroke-width:1px;stroke-linecap:butt;stroke-linejoin:miter;stroke-opacity:1" />
    <path
       style="fill:none;stroke:#000000;stroke-width:1px;stroke-linecap:butt;stroke-linejoin:miter;stroke-opacity:1"
       d="m 65,158.46457 0,20 291.20351,0 0,-19.98825"
       id="path5269"
       inkscape:connector-curvature="0"
       sodipodi:nodetypes="cccc"
       transform="translate(0,768.89631)" />
    <path
       inkscape:connector-curvature="0"
       id="path5281"
       d="m 345.91498,927.45962 20,0"
       style="fill:none;stroke:#000000;stroke-width:1px;stroke-linecap:butt;stroke-linejoin:miter;stroke-opacity:1" />
    <path
       inkscape:connector-curvature="0"
       id="path5283"
       d="m 350.91498,924.45962 10,0"
       style="fill:none;stroke:#000000;stroke-width:1px;stroke-linecap:butt;stroke-linejoin:miter;stroke-opacity:1" />
    <path
       style="fill:none;stroke:#000000;stroke-width:1px;stroke-linecap:butt;stroke-linejoin:miter;stroke-opacity:1"
       d="m 345.91498,921.45962 20,0"
       id="path5285"
       inkscape:connector-curvature="0" />
    <path
       style="fill:none;stroke:#000000;stroke-width:1px;stroke-linecap:butt;stroke-linejoin:miter;stroke-opacity:1"
       d="m 350.91498,917.45962 10,0"
       id="path5287"
       inkscape:connector-curvature="0" />
    <path
       style="fill:none;stroke:#000000;stroke-width:0.80000001;stroke-linecap:butt;stroke-linejoin:miter;stroke-miterlimit:4;stroke-opacity:1;stroke-dasharray:none;marker-end:url(#Arrow1Mend)"
       d="m 344.61088,932.84125 23.73375,-18.86168"
       id="path5289"
       inkscape:connector-curvature="0" />
    <g
       id="g5291"
       transform="matrix(1.2,0,0,-1.2,-132.63392,1761.6969)"
       xml:space="preserve"
       stroke-miterlimit="10.433"
       font-style="normal"
       font-variant="normal"
       font-weight="normal"
       font-stretch="normal"
       font-size-adjust="none"
       letter-spacing="normal"
       word-spacing="normal"
       ns0:text="$V$"
       ns0:preamble="/home/sriranga/Desktop/MCT/package.tex"
       style="font-style:normal;font-variant:normal;font-weight:normal;font-stretch:normal;letter-spacing:normal;word-spacing:normal;text-anchor:start;fill:none;stroke:#000000;stroke-width:1;stroke-linecap:butt;stroke-linejoin:miter;stroke-miterlimit:10.43299961;stroke-opacity:1;stroke-dasharray:none;stroke-dashoffset:0"><path
         style="fill:#000000;stroke-width:0"
         inkscape:connector-curvature="0"
         d="m 230.28,713.61 h -1.85 v -0.16 c 0.44,-0.05 0.62,-0.15 0.62,-0.34 0,-0.18 -0.19,-0.61 -0.51,-1.18 l -2.05,-3.53 -0.66,4.4 c -0.01,0.05 -0.01,0.09 -0.01,0.15 0,0.33 0.14,0.43 0.77,0.5 v 0.16 h -2.4 v -0.16 c 0.55,-0.07 0.57,-0.1 0.78,-1.34 l 0.85,-5.16 h 0.19 l 3.71,6.1 c 0.17,0.27 0.33,0.39 0.56,0.4 z"
         id="path5293" /></g>    <g
       id="content"
       transform="matrix(1.2,0,0,-1.2,-170.47601,1719.8889)"
       xml:space="preserve"
       stroke-miterlimit="10.433"
       font-style="normal"
       font-variant="normal"
       font-weight="normal"
       font-stretch="normal"
       font-size-adjust="none"
       letter-spacing="normal"
       word-spacing="normal"
       ns0:text="$A$"
       ns0:preamble="/home/sriranga/Desktop/MCT/package.tex"
       style="font-style:normal;font-variant:normal;font-weight:normal;font-stretch:normal;letter-spacing:normal;word-spacing:normal;text-anchor:start;fill:none;stroke:#000000;stroke-width:1;stroke-linecap:butt;stroke-linejoin:miter;stroke-miterlimit:10.43299961;stroke-opacity:1;stroke-dasharray:none;stroke-dashoffset:0"><path
         style="fill:#000000;stroke-width:0"
         inkscape:connector-curvature="0"
         d="m 229.29,707.28 -0.05,0.01 -0.05,0 -0.04,0.01 -0.05,0.01 -0.04,0 -0.04,0.01 -0.03,0.01 -0.04,0.01 -0.03,0.01 -0.03,0.01 -0.03,0.01 -0.02,0.02 -0.03,0.01 -0.02,0.02 -0.02,0.02 -0.02,0.02 -0.02,0.02 -0.02,0.03 -0.01,0.02 -0.02,0.03 -0.01,0.03 -0.02,0.04 -0.01,0.04 -0.01,0.04 -0.01,0.04 -0.01,0.04 -0.02,0.05 -0.01,0.06 0,0.02 -0.01,0.03 0,0.03 -0.01,0.03 -0.01,0.03 0,0.03 -0.01,0.03 0,0.04 -0.94,5.62 h -0.26 l -2.88,-4.97 c -0.79,-1.32 -0.89,-1.43 -1.29,-1.51 v -0.16 h 1.86 v 0.16 c -0.5,0.05 -0.58,0.1 -0.58,0.35 0,0.19 0.03,0.28 0.2,0.62 l 0.56,1.12 h 2.19 l -0.05,0.36 h -1.93 l 1.49,2.58 0.44,-2.58 0.05,-0.36 0.2,-1.3 c 0.01,-0.09 0.02,-0.18 0.02,-0.26 0,-0.38 -0.14,-0.47 -0.77,-0.53 v -0.16 h 2.44 z"
         id="path5401" /></g>    <path
       transform="matrix(2.6666691,0,0,2.6666697,-177.33378,431.45487)"
       d="m 188,163.46457 a 3,3 0 1 1 -6,0 3,3 0 1 1 6,0 z"
       sodipodi:ry="3"
       sodipodi:rx="3"
       sodipodi:cy="163.46457"
       sodipodi:cx="185"
       id="path5257"
       style="fill:#ffffff;stroke:#000000;stroke-width:0.29999968;stroke-miterlimit:4;stroke-dasharray:none"
       sodipodi:type="arc" />
    <g
       style="font-style:normal;font-variant:normal;font-weight:normal;font-stretch:normal;letter-spacing:normal;word-spacing:normal;text-anchor:start;fill:none;stroke:#000000;stroke-width:1;stroke-linecap:butt;stroke-linejoin:miter;stroke-miterlimit:10.43299961;stroke-opacity:1;stroke-dasharray:none;stroke-dashoffset:0"
       ns0:preamble="/home/sriranga/Desktop/MCT/package.tex"
       ns0:text="$A$"
       word-spacing="normal"
       letter-spacing="normal"
       font-size-adjust="none"
       font-stretch="normal"
       font-weight="normal"
       font-variant="normal"
       font-style="normal"
       stroke-miterlimit="10.433"
       xml:space="preserve"
       transform="matrix(1.2,0,0,-1.2,44.569656,1719.2518)"
       id="g5487"><path
         id="path5489"
         d="m 229.29,707.28 -0.05,0.01 -0.05,0 -0.04,0.01 -0.05,0.01 -0.04,0 -0.04,0.01 -0.03,0.01 -0.04,0.01 -0.03,0.01 -0.03,0.01 -0.03,0.01 -0.02,0.02 -0.03,0.01 -0.02,0.02 -0.02,0.02 -0.02,0.02 -0.02,0.02 -0.02,0.03 -0.01,0.02 -0.02,0.03 -0.01,0.03 -0.02,0.04 -0.01,0.04 -0.01,0.04 -0.01,0.04 -0.01,0.04 -0.02,0.05 -0.01,0.06 0,0.02 -0.01,0.03 0,0.03 -0.01,0.03 -0.01,0.03 0,0.03 -0.01,0.03 0,0.04 -0.94,5.62 h -0.26 l -2.88,-4.97 c -0.79,-1.32 -0.89,-1.43 -1.29,-1.51 v -0.16 h 1.86 v 0.16 c -0.5,0.05 -0.58,0.1 -0.58,0.35 0,0.19 0.03,0.28 0.2,0.62 l 0.56,1.12 h 2.19 l -0.05,0.36 h -1.93 l 1.49,2.58 0.44,-2.58 0.05,-0.36 0.2,-1.3 c 0.01,-0.09 0.02,-0.18 0.02,-0.26 0,-0.38 -0.14,-0.47 -0.77,-0.53 v -0.16 h 2.44 z"
         inkscape:connector-curvature="0"
         style="fill:#000000;stroke-width:0" /></g>    <path
       inkscape:connector-curvature="0"
       id="path5491"
       d="m 226.33504,860.0096 30.49571,0"
       style="fill:none;stroke:#000000;stroke-width:0.80000001;stroke-linecap:butt;stroke-linejoin:miter;stroke-miterlimit:4;stroke-opacity:1;stroke-dasharray:none;marker-end:url(#Arrow1Mend)" />
    <path
       style="fill:none;stroke:#000000;stroke-width:0.80000001;stroke-linecap:butt;stroke-linejoin:miter;stroke-miterlimit:4;stroke-opacity:1;stroke-dasharray:none;marker-end:url(#Arrow1Mend)"
       d="m 198.19016,899.41549 0,30.49571"
       id="path5493"
       inkscape:connector-curvature="0" />
    <g
       style="font-style:normal;font-variant:normal;font-weight:normal;font-stretch:normal;letter-spacing:normal;word-spacing:normal;text-anchor:start;fill:none;stroke:#000000;stroke-width:1;stroke-linecap:butt;stroke-linejoin:miter;stroke-miterlimit:10.43299961;stroke-opacity:1;stroke-dasharray:none;stroke-dashoffset:0"
       ns0:preamble="/home/sriranga/Desktop/MCT/package.tex"
       ns0:text="$I_E$"
       word-spacing="normal"
       letter-spacing="normal"
       font-size-adjust="none"
       font-stretch="normal"
       font-weight="normal"
       font-variant="normal"
       font-style="normal"
       stroke-miterlimit="10.433"
       xml:space="preserve"
       transform="matrix(1.2,0,0,-1.2,-92.445847,1711.3986)"
       id="g5581"><path
         id="path5583"
         d="m 223.6,707.12 h 2.43 v 0.16 c -0.57,0.07 -0.68,0.13 -0.68,0.41 0,0.19 0.02,0.31 0.11,0.63 l 1.23,4.4 c 0.18,0.57 0.24,0.63 0.81,0.73 v 0.16 h -2.46 v -0.16 c 0.58,-0.07 0.7,-0.15 0.7,-0.42 0,-0.14 -0.04,-0.37 -0.11,-0.62 l -1.22,-4.39 c -0.18,-0.58 -0.25,-0.64 -0.81,-0.74 z"
         inkscape:connector-curvature="0"
         style="fill:#000000;stroke-width:0" /><path
         id="path5585"
         d="m 231.59,710.17 h -3.46 v -0.11 c 0.43,-0.04 0.53,-0.1 0.53,-0.28 0,-0.08 -0.04,-0.32 -0.07,-0.45 l -0.86,-3.07 c -0.12,-0.4 -0.17,-0.45 -0.56,-0.52 v -0.11 h 3.53 l 0.43,1.13 -0.11,0.05 c -0.33,-0.44 -0.51,-0.62 -0.81,-0.76 -0.26,-0.12 -0.73,-0.19 -1.25,-0.19 -0.39,0 -0.56,0.07 -0.56,0.24 0,0.07 0.08,0.4 0.25,1.01 0.09,0.31 0.15,0.54 0.22,0.8 0.25,-0.01 0.46,-0.02 0.55,-0.02 0.27,0.01 0.46,-0.03 0.54,-0.1 0.03,-0.04 0.05,-0.1 0.05,-0.22 0,-0.12 -0.02,-0.21 -0.05,-0.36 l 0.14,-0.04 0.47,1.62 -0.12,0.03 c -0.27,-0.6 -0.33,-0.64 -0.96,-0.66 -0.09,0 -0.31,-0.01 -0.56,-0.02 l 0.47,1.62 c 0.04,0.15 0.11,0.18 0.5,0.18 1.1,0 1.34,-0.09 1.34,-0.51 0,-0.09 -0.01,-0.19 -0.01,-0.31 l 0.14,-0.01 z"
         inkscape:connector-curvature="0"
         style="fill:#000000;stroke-width:0" /></g>    <g
       id="g5760"
       transform="matrix(1.2,0,0,-1.2,-223.14483,1743.3945)"
       xml:space="preserve"
       stroke-miterlimit="10.433"
       font-style="normal"
       font-variant="normal"
       font-weight="normal"
       font-stretch="normal"
       font-size-adjust="none"
       letter-spacing="normal"
       word-spacing="normal"
       ns0:text="$R_1$"
       ns0:preamble="/home/sriranga/Desktop/MCT/package.tex"
       style="font-style:normal;font-variant:normal;font-weight:normal;font-stretch:normal;letter-spacing:normal;word-spacing:normal;text-anchor:start;fill:none;stroke:#000000;stroke-width:1;stroke-linecap:butt;stroke-linejoin:miter;stroke-miterlimit:10.43299961;stroke-opacity:1;stroke-dasharray:none;stroke-dashoffset:0"><path
         d="m 229.07,707.28 -0.04,0.01 -0.04,0 -0.03,0.01 -0.04,0 -0.04,0.01 -0.03,0.01 -0.03,0.01 -0.03,0.01 -0.03,0.01 -0.03,0.01 -0.03,0.01 -0.03,0.02 -0.03,0.01 -0.02,0.02 -0.03,0.02 -0.02,0.02 -0.03,0.02 -0.02,0.02 -0.02,0.03 -0.02,0.02 -0.02,0.03 -0.03,0.03 -0.02,0.03 -0.02,0.03 -0.01,0.04 -0.02,0.03 -0.02,0.04 -0.02,0.04 -0.02,0.04 -0.02,0.05 -0.02,0.04 -0.01,0.05 -0.93,2.43 c 0.77,0.17 1.1,0.31 1.45,0.63 0.33,0.29 0.51,0.67 0.51,1.12 0,0.92 -0.73,1.43 -2.07,1.43 l -0.21,-0.3 c 0.83,0 1.24,-0.37 1.24,-1.11 0,-0.98 -0.64,-1.49 -1.88,-1.49 -0.16,0 -0.27,0.01 -0.51,0.05 l 0.65,2.28 c 0.06,0.2 0.18,0.27 0.5,0.27 l 0.21,0.3 h -2.47 v -0.16 c 0.42,-0.06 0.47,-0.07 0.57,-0.14 0.08,-0.05 0.14,-0.16 0.14,-0.27 0,-0.12 -0.05,-0.36 -0.12,-0.63 l -1.22,-4.39 c -0.18,-0.59 -0.25,-0.65 -0.81,-0.74 v -0.16 h 2.43 v 0.16 c -0.61,0.08 -0.68,0.13 -0.68,0.46 0,0.1 0.03,0.23 0.12,0.58 l 0.56,2.07 0.65,-0.05 1.22,-3.22 h 1.47 z"
         id="path5762"
         inkscape:connector-curvature="0"
         style="fill:#000000;stroke-width:0" /><path
         d="m 231.55,710.33 -1.26,-0.63 v -0.1 c 0.09,0.04 0.16,0.06 0.19,0.08 0.12,0.05 0.24,0.08 0.31,0.08 0.15,0 0.21,-0.11 0.21,-0.33 v -3.15 c 0,-0.23 -0.05,-0.39 -0.16,-0.45 -0.11,-0.07 -0.21,-0.09 -0.5,-0.1 v -0.1 h 1.92 v 0.1 c -0.55,0.01 -0.66,0.08 -0.66,0.42 v 4.17 z"
         id="path5764"
         inkscape:connector-curvature="0"
         style="fill:#000000;stroke-width:0" /></g>    <g
       style="font-style:normal;font-variant:normal;font-weight:normal;font-stretch:normal;letter-spacing:normal;word-spacing:normal;text-anchor:start;fill:none;stroke:#000000;stroke-width:1;stroke-linecap:butt;stroke-linejoin:miter;stroke-miterlimit:10.43299961;stroke-opacity:1;stroke-dasharray:none;stroke-dashoffset:0"
       ns0:preamble="/home/sriranga/Desktop/MCT/package.tex"
       ns0:text="$V_{CB}$"
       text-anchor="start"
       word-spacing="normal"
       letter-spacing="normal"
       font-size-adjust="none"
       font-stretch="normal"
       font-weight="normal"
       font-variant="normal"
       font-style="normal"
       fill-opacity="1"
       fill-rule="evenodd"
       fill="none"
       stroke-opacity="1"
       stroke-dashoffset="0"
       stroke-dasharray="none"
       stroke-miterlimit="10.433"
       stroke-linejoin="miter"
       stroke-linecap="butt"
       stroke="black"
       xml:space="preserve"
       transform="matrix(1.2,0,0,-1.2,21.574708,1762.2815)"
       id="g6145"><path
         id="path6147"
         fill="black"
         stroke-width="0"
         d="M230.28,713.61 H228.43 V713.45 C228.87,713.4,229.05,713.3,229.05,713.11 C229.05,712.93,228.86,712.5,228.54,711.93 L226.49,708.4 L225.83,712.8 C225.82,712.85,225.82,712.89,225.82,712.95 C225.82,713.28,225.96,713.38,226.59,713.45 V713.61 H224.19 V713.45 C224.74,713.38,224.76,713.35,224.97,712.11 L225.82,706.95 H226.01 L229.72,713.05 C229.89,713.32,230.05,713.44,230.28,713.45 Z " /><path
         id="path6149"
         fill="black"
         stroke-width="0"
         d="M233.89,708.86 L234.14,710.25 H234 C233.94,710.14,233.87,710.09,233.73,710.09 C233.68,710.09,233.59,710.11,233.45,710.14 C233.13,710.22,232.85,710.26,232.63,710.26 C231.15,710.26,229.8,708.86,229.8,707.32 C229.8,706.26,230.56,705.51,231.62,705.51 C232.34,705.51,232.9,705.81,233.52,706.54 L233.4,706.64 C232.78,706.03,232.38,705.82,231.8,705.82 C231.03,705.82,230.59,706.35,230.59,707.24 C230.59,708.07,230.92,708.91,231.46,709.48 C231.8,709.82,232.24,710.01,232.7,710.01 C233.34,710.01,233.69,709.64,233.76,708.89 Z " /><path
         id="path6151"
         fill="black"
         stroke-width="0"
         d="M234.51,705.63 H236.48 C237.57,705.63,238.32,706.2,238.32,707.02 C238.32,707.28,238.24,707.52,238.09,707.67 C237.95,707.84,237.81,707.92,237.45,708.07 C237.94,708.19,238.14,708.27,238.36,708.47 C238.56,708.64,238.66,708.87,238.66,709.15 C238.66,709.81,238.17,710.17,237.27,710.17 L237.15,709.96 C237.7,709.96,237.96,709.73,237.96,709.21 C237.96,708.82,237.79,708.51,237.49,708.34 C237.26,708.2,236.92,708.16,236.3,708.16 L236.23,707.93 C236.68,707.93,236.97,707.91,237.11,707.85 C237.4,707.73,237.57,707.42,237.57,707.05 C237.57,706.3,237.05,705.84,236.21,705.84 C235.91,705.84,235.76,705.94,235.76,706.13 C235.76,706.22,235.84,706.55,236,707.1 C236.09,707.42,236.13,707.58,236.23,707.93 H236.23 L236.3,708.16 L236.75,709.77 C236.79,709.92,236.87,709.96,237.15,709.96 L237.27,710.17 H235.47 V710.06 C235.91,710.03,236.01,709.97,236.01,709.78 C236.01,709.67,235.98,709.5,235.93,709.33 L235.08,706.26 C234.95,705.85,234.9,705.81,234.51,705.74 Z " /></g>    <path
       style="fill:none;stroke:#000000;stroke-width:1;stroke-linecap:butt;stroke-linejoin:round;stroke-miterlimit:4;stroke-opacity:1;stroke-dasharray:none"
       d="m 324.00001,867.36088 32,0 0,15 -5,2.41998 10,2.58002 -10,2 10,3 -10,2 10,3 -10.14251,2 9.79881,3 -4.6563,3 0,12"
       id="path3052"
       inkscape:connector-curvature="0"
       sodipodi:nodetypes="ccccccccccccc" />
    <g
       id="g3121"
       transform="matrix(1.2,0,0,-1.2,-235.71746,1772.4847)"
       xml:space="preserve"
       stroke="black"
       stroke-linecap="butt"
       stroke-linejoin="miter"
       stroke-miterlimit="10.433"
       stroke-dasharray="none"
       stroke-dashoffset="0"
       stroke-opacity="1"
       fill="none"
       fill-rule="evenodd"
       fill-opacity="1"
       font-style="normal"
       font-variant="normal"
       font-weight="normal"
       font-stretch="normal"
       font-size-adjust="none"
       letter-spacing="normal"
       word-spacing="normal"
       text-anchor="start"
       ns0:text="$V_{EE}$"
       ns0:preamble="/home/sriranga/Desktop/MCT/package.tex"
       style="font-style:normal;font-variant:normal;font-weight:normal;font-stretch:normal;letter-spacing:normal;word-spacing:normal;text-anchor:start;fill:none;stroke:#000000;stroke-width:1;stroke-linecap:butt;stroke-linejoin:miter;stroke-miterlimit:10.43299961;stroke-opacity:1;stroke-dasharray:none;stroke-dashoffset:0"><path
         d="M230.28,713.61 H228.43 V713.45 C228.87,713.4,229.05,713.3,229.05,713.11 C229.05,712.93,228.86,712.5,228.54,711.93 L226.49,708.4 L225.83,712.8 C225.82,712.85,225.82,712.89,225.82,712.95 C225.82,713.28,225.96,713.38,226.59,713.45 V713.61 H224.19 V713.45 C224.74,713.38,224.76,713.35,224.97,712.11 L225.82,706.95 H226.01 L229.72,713.05 C229.89,713.32,230.05,713.44,230.28,713.45 Z "
         stroke-width="0"
         fill="black"
         id="path3123" /><path
         d="M234.11,710.17 H230.65 V710.06 C231.08,710.02,231.18,709.96,231.18,709.78 C231.18,709.7,231.14,709.46,231.11,709.33 L230.25,706.26 C230.13,705.86,230.08,705.81,229.69,705.74 V705.63 H233.22 L233.65,706.76 L233.54,706.81 C233.21,706.37,233.03,706.19,232.73,706.05 C232.47,705.93,232,705.86,231.48,705.86 C231.09,705.86,230.92,705.93,230.92,706.1 C230.92,706.17,231,706.5,231.17,707.11 C231.26,707.42,231.32,707.65,231.39,707.91 C231.64,707.9,231.85,707.89,231.94,707.89 C232.21,707.9,232.4,707.86,232.48,707.79 C232.51,707.75,232.53,707.69,232.53,707.57 C232.53,707.45,232.51,707.36,232.48,707.21 L232.62,707.17 L233.09,708.79 L232.97,708.82 C232.7,708.22,232.64,708.18,232.01,708.16 C231.92,708.16,231.7,708.15,231.46,708.14 L231.92,709.76 C231.96,709.91,232.03,709.94,232.42,709.94 C233.52,709.94,233.76,709.85,233.76,709.43 C233.76,709.34,233.75,709.24,233.75,709.12 L233.89,709.11 Z "
         stroke-width="0"
         fill="black"
         id="path3125" /><path
         d="M238.88,710.17 H235.42 V710.06 C235.85,710.02,235.95,709.96,235.95,709.78 C235.95,709.7,235.91,709.46,235.88,709.33 L235.02,706.26 C234.9,705.86,234.85,705.81,234.46,705.74 V705.63 H237.99 L238.42,706.76 L238.31,706.81 C237.98,706.37,237.8,706.19,237.5,706.05 C237.24,705.93,236.77,705.86,236.25,705.86 C235.86,705.86,235.69,705.93,235.69,706.1 C235.69,706.17,235.77,706.5,235.94,707.11 C236.03,707.42,236.09,707.65,236.16,707.91 C236.41,707.9,236.62,707.89,236.71,707.89 C236.98,707.9,237.17,707.86,237.25,707.79 C237.29,707.75,237.3,707.69,237.3,707.57 C237.3,707.45,237.29,707.36,237.25,707.21 L237.39,707.17 L237.86,708.79 L237.74,708.82 C237.47,708.22,237.41,708.18,236.78,708.16 C236.69,708.16,236.47,708.15,236.23,708.14 L236.69,709.76 C236.73,709.91,236.8,709.94,237.19,709.94 C238.29,709.94,238.53,709.85,238.53,709.43 C238.53,709.34,238.52,709.24,238.52,709.12 L238.66,709.11 Z "
         stroke-width="0"
         fill="black"
         id="path3127" /></g>    <g
       style="font-style:normal;font-variant:normal;font-weight:normal;font-stretch:normal;letter-spacing:normal;word-spacing:normal;text-anchor:start;fill:none;stroke:#000000;stroke-width:1;stroke-linecap:butt;stroke-linejoin:miter;stroke-miterlimit:10.43299961;stroke-opacity:1;stroke-dasharray:none;stroke-dashoffset:0"
       ns0:preamble="/home/sriranga/Desktop/MCT/package.tex"
       ns0:text="$R_2$"
       text-anchor="start"
       word-spacing="normal"
       letter-spacing="normal"
       font-size-adjust="none"
       font-stretch="normal"
       font-weight="normal"
       font-variant="normal"
       font-style="normal"
       fill-opacity="1"
       fill-rule="evenodd"
       fill="none"
       stroke-opacity="1"
       stroke-dashoffset="0"
       stroke-dasharray="none"
       stroke-miterlimit="10.433"
       stroke-linejoin="miter"
       stroke-linecap="butt"
       stroke="black"
       xml:space="preserve"
       transform="matrix(1.2,0,0,-1.2,96.323619,1744.6187)"
       id="g3283"><path
         id="path3285"
         fill="black"
         stroke-width="0"
         d="M229.07,707.28 L229.03,707.29 L228.99,707.29 L228.96,707.3 L228.92,707.3 L228.88,707.31 L228.85,707.32 L228.82,707.33 L228.79,707.34 L228.76,707.35 L228.73,707.36 L228.7,707.37 L228.67,707.39 L228.64,707.4 L228.62,707.42 L228.59,707.44 L228.57,707.46 L228.54,707.48 L228.52,707.5 L228.5,707.53 L228.48,707.55 L228.46,707.58 L228.43,707.61 L228.41,707.64 L228.39,707.67 L228.38,707.71 L228.36,707.74 L228.34,707.78 L228.32,707.82 L228.3,707.86 L228.28,707.91 L228.26,707.95 L228.25,708 L227.32,710.43 C228.09,710.6,228.42,710.74,228.77,711.06 C229.1,711.35,229.28,711.73,229.28,712.18 C229.28,713.1,228.55,713.61,227.21,713.61 L227,713.31 C227.83,713.31,228.24,712.94,228.24,712.2 C228.24,711.22,227.6,710.71,226.36,710.71 C226.2,710.71,226.09,710.72,225.85,710.76 L226.5,713.04 C226.56,713.24,226.68,713.31,227,713.31 L227.21,713.61 H224.74 V713.45 C225.16,713.39,225.21,713.38,225.31,713.31 C225.39,713.26,225.45,713.15,225.45,713.04 C225.45,712.92,225.4,712.68,225.33,712.41 L224.11,708.02 C223.93,707.43,223.86,707.37,223.3,707.28 V707.12 H225.73 V707.28 C225.12,707.36,225.05,707.41,225.05,707.74 C225.05,707.84,225.08,707.97,225.17,708.32 L225.73,710.39 L226.38,710.34 L227.6,707.12 H229.07 Z " /><path
         id="path3287"
         fill="black"
         stroke-width="0"
         d="M232.83,706.58 L232.74,706.62 C232.48,706.22,232.39,706.16,232.07,706.16 H230.41 L231.58,707.38 C232.2,708.03,232.47,708.56,232.47,709.1 C232.47,709.8,231.91,710.33,231.18,710.33 C230.8,710.33,230.44,710.18,230.18,709.9 C229.96,709.66,229.85,709.44,229.74,708.95 L229.88,708.91 C230.16,709.59,230.41,709.82,230.89,709.82 C231.48,709.82,231.87,709.42,231.87,708.84 C231.87,708.29,231.55,707.65,230.97,707.03 L229.73,705.71 V705.63 H232.44 Z " /></g>    <path
       sodipodi:type="arc"
       id="path3369"
       style="fill:#000000;stroke:none"
       sodipodi:cx="275"
       sodipodi:cy="867.3609"
       sodipodi:rx="2.5"
       sodipodi:ry="2.5"
       d="m 277.5,867.3609 a 2.5,2.5 0 1 1 -5,0 2.5,2.5 0 1 1 5,0 z" />
    <path
       sodipodi:type="arc"
       id="path3371"
       style="fill:#000000;stroke:none"
       sodipodi:cx="275"
       sodipodi:cy="947.3609"
       sodipodi:rx="2.5"
       sodipodi:ry="2.5"
       d="m 277.5,947.3609 a 2.5,2.5 0 1 1 -5,0 2.5,2.5 0 1 1 5,0 z" />
    <path
       sodipodi:type="arc"
       id="path3373"
       style="fill:#000000;stroke:none"
       sodipodi:cx="140"
       sodipodi:cy="867.3609"
       sodipodi:rx="2.5"
       sodipodi:ry="2.5"
       d="m 142.5,867.3609 a 2.5,2.5 0 1 1 -5,0 2.5,2.5 0 1 1 5,0 z" />
    <path
       sodipodi:type="arc"
       id="path3375"
       style="fill:#000000;stroke:none"
       sodipodi:cx="140"
       sodipodi:cy="947.3609"
       sodipodi:rx="2.5"
       sodipodi:ry="2.5"
       d="m 142.5,947.3609 a 2.5,2.5 0 1 1 -5,0 2.5,2.5 0 1 1 5,0 z" />
    <path
       sodipodi:type="arc"
       id="path3377"
       style="fill:#000000;stroke:none"
       sodipodi:cx="205"
       sodipodi:cy="947.3609"
       sodipodi:rx="2.5"
       sodipodi:ry="2.5"
       d="m 207.5,947.3609 a 2.5,2.5 0 1 1 -5,0 2.5,2.5 0 1 1 5,0 z" />
  </g>
  <g
     id="g5938"
     transform="matrix(1.2,0,0,-1.2,-118.23603,994.4711)"
     xml:space="preserve"
     stroke-miterlimit="10.433"
     font-style="normal"
     font-variant="normal"
     font-weight="normal"
     font-stretch="normal"
     font-size-adjust="none"
     letter-spacing="normal"
     word-spacing="normal"
     ns0:text="$V_{EB}$"
     ns0:preamble="/home/sriranga/Desktop/MCT/package.tex"
     style="font-style:normal;font-variant:normal;font-weight:normal;font-stretch:normal;letter-spacing:normal;word-spacing:normal;text-anchor:start;fill:none;stroke:#000000;stroke-width:1;stroke-linecap:butt;stroke-linejoin:miter;stroke-miterlimit:10.43299961;stroke-opacity:1;stroke-dasharray:none;stroke-dashoffset:0"><path
       d="m 230.28,713.61 h -1.85 v -0.16 c 0.44,-0.05 0.62,-0.15 0.62,-0.34 0,-0.18 -0.19,-0.61 -0.51,-1.18 l -2.05,-3.53 -0.66,4.4 c -0.01,0.05 -0.01,0.09 -0.01,0.15 0,0.33 0.14,0.43 0.77,0.5 v 0.16 h -2.4 v -0.16 c 0.55,-0.07 0.57,-0.1 0.78,-1.34 l 0.85,-5.16 h 0.19 l 3.71,6.1 c 0.17,0.27 0.33,0.39 0.56,0.4 z"
       id="path5940"
       inkscape:connector-curvature="0"
       style="fill:#000000;stroke-width:0" /><path
       d="m 234.11,710.17 h -3.46 v -0.11 c 0.43,-0.04 0.53,-0.1 0.53,-0.28 0,-0.08 -0.04,-0.32 -0.07,-0.45 l -0.86,-3.07 c -0.12,-0.4 -0.17,-0.45 -0.56,-0.52 v -0.11 h 3.53 l 0.43,1.13 -0.11,0.05 c -0.33,-0.44 -0.51,-0.62 -0.81,-0.76 -0.26,-0.12 -0.73,-0.19 -1.25,-0.19 -0.39,0 -0.56,0.07 -0.56,0.24 0,0.07 0.08,0.4 0.25,1.01 0.09,0.31 0.15,0.54 0.22,0.8 0.25,-0.01 0.46,-0.02 0.55,-0.02 0.27,0.01 0.46,-0.03 0.54,-0.1 0.03,-0.04 0.05,-0.1 0.05,-0.22 0,-0.12 -0.02,-0.21 -0.05,-0.36 l 0.14,-0.04 0.47,1.62 -0.12,0.03 c -0.27,-0.6 -0.33,-0.64 -0.96,-0.66 -0.09,0 -0.31,-0.01 -0.55,-0.02 l 0.46,1.62 c 0.04,0.15 0.11,0.18 0.5,0.18 1.1,0 1.34,-0.09 1.34,-0.51 0,-0.09 -0.01,-0.19 -0.01,-0.31 l 0.14,-0.01 z"
       id="path5942"
       inkscape:connector-curvature="0"
       style="fill:#000000;stroke-width:0" /><path
       d="m 234.48,705.63 h 1.96 c 1.1,0 1.85,0.57 1.85,1.39 0,0.26 -0.09,0.5 -0.24,0.65 -0.14,0.17 -0.28,0.25 -0.64,0.4 0.49,0.12 0.7,0.2 0.92,0.4 0.19,0.17 0.3,0.4 0.3,0.68 0,0.66 -0.5,1.02 -1.39,1.02 l -0.13,-0.21 c 0.56,0 0.82,-0.23 0.82,-0.75 0,-0.39 -0.17,-0.7 -0.47,-0.87 -0.24,-0.14 -0.57,-0.18 -1.2,-0.18 l -0.07,-0.23 c 0.45,0 0.75,-0.02 0.89,-0.08 0.28,-0.12 0.46,-0.43 0.46,-0.8 0,-0.75 -0.52,-1.21 -1.37,-1.21 -0.29,0 -0.44,0.1 -0.44,0.29 0,0.09 0.08,0.42 0.24,0.97 0.09,0.32 0.13,0.48 0.22,0.83 h 0 l 0.07,0.23 0.45,1.61 c 0.05,0.15 0.13,0.19 0.4,0.19 l 0.13,0.21 h -1.8 v -0.11 c 0.43,-0.03 0.54,-0.09 0.54,-0.28 0,-0.11 -0.03,-0.28 -0.08,-0.45 l -0.86,-3.07 c -0.12,-0.41 -0.17,-0.45 -0.56,-0.52 z"
       id="path5944"
       inkscape:connector-curvature="0"
       style="fill:#000000;stroke-width:0" /></g></svg>
