<?xml version="1.0" encoding="UTF-8" standalone="no"?>
<!-- Created with Inkscape (http://www.inkscape.org/) -->

<svg
   xmlns:ns0="http://www.iki.fi/pav/software/textext/"
   xmlns:dc="http://purl.org/dc/elements/1.1/"
   xmlns:cc="http://creativecommons.org/ns#"
   xmlns:rdf="http://www.w3.org/1999/02/22-rdf-syntax-ns#"
   xmlns:svg="http://www.w3.org/2000/svg"
   xmlns="http://www.w3.org/2000/svg"
   xmlns:sodipodi="http://sodipodi.sourceforge.net/DTD/sodipodi-0.dtd"
   xmlns:inkscape="http://www.inkscape.org/namespaces/inkscape"
   id="svg2"
   version="1.1"
   inkscape:version="0.48.4 r9939"
   width="425.19684"
   height="283.46457"
   xml:space="preserve"
   sodipodi:docname="fig2.19.svg"><sodipodi:namedview
     pagecolor="#ffffff"
     bordercolor="#666666"
     borderopacity="1"
     objecttolerance="10"
     gridtolerance="10"
     guidetolerance="10"
     inkscape:pageopacity="0"
     inkscape:pageshadow="2"
     inkscape:window-width="1366"
     inkscape:window-height="744"
     id="namedview4"
     showgrid="false"
     units="cm"
     inkscape:document-units="cm"
     inkscape:object-nodes="true"
     inkscape:zoom="1.4118959"
     inkscape:cx="130.69856"
     inkscape:cy="124.43673"
     inkscape:window-x="0"
     inkscape:window-y="24"
     inkscape:window-maximized="1"
     inkscape:current-layer="g10"><inkscape:grid
       type="xygrid"
       id="grid3567"
       empspacing="5"
       visible="true"
       enabled="true"
       snapvisiblegridlinesonly="true" /></sodipodi:namedview><metadata
     id="metadata8"><rdf:RDF><cc:Work
         rdf:about=""><dc:format>image/svg+xml</dc:format><dc:type
           rdf:resource="http://purl.org/dc/dcmitype/StillImage" /><dc:title></dc:title></cc:Work></rdf:RDF></metadata><defs
     id="defs6"><marker
       inkscape:stockid="Arrow1Mend"
       orient="auto"
       refY="0.0"
       refX="0.0"
       id="Arrow1Mend"
       style="overflow:visible;"><path
         id="path4352"
         d="M 0.0,0.0 L 5.0,-5.0 L -12.5,0.0 L 5.0,5.0 L 0.0,0.0 z "
         style="fill-rule:evenodd;stroke:#000000;stroke-width:1.0pt;"
         transform="scale(0.4) rotate(180) translate(10,0)" /></marker></defs><g
     id="g10"
     inkscape:groupmode="layer"
     inkscape:label="ink_ext_XXXXXX"
     transform="matrix(1.25,0,0,-1.25,0,283.46458)"><path
       style="fill:none;stroke:#000000;stroke-width:0.7936;stroke-linecap:round;stroke-linejoin:round;stroke-miterlimit:4;stroke-opacity:1;stroke-dasharray:none;stroke-dashoffset:0;marker-end:url(#Arrow1Mend)"
       d="M 48,40.000008 48,208.00001"
       id="path3569"
       inkscape:connector-curvature="0" /><path
       inkscape:connector-curvature="0"
       id="path4783"
       d="m 32.000001,56.000009 219.999999,0"
       style="fill:none;stroke:#000000;stroke-width:0.8;stroke-linecap:round;stroke-linejoin:round;stroke-miterlimit:4;stroke-opacity:1;stroke-dasharray:none;stroke-dashoffset:0;marker-end:url(#Arrow1Mend)" /><path
       style="fill:none;stroke:#000000;stroke-width:0.63999999;stroke-linecap:round;stroke-linejoin:round;stroke-miterlimit:4;stroke-opacity:1;stroke-dasharray:none;stroke-dashoffset:0"
       d="m 48,72.000004 2.4,8e-6"
       id="path4785"
       inkscape:connector-curvature="0"
       sodipodi:nodetypes="cc" /><path
       sodipodi:nodetypes="cc"
       inkscape:connector-curvature="0"
       id="path4787"
       d="m 48,88 2.4,1e-5"
       style="fill:none;stroke:#000000;stroke-width:0.63999999;stroke-linecap:round;stroke-linejoin:round;stroke-miterlimit:4;stroke-opacity:1;stroke-dasharray:none;stroke-dashoffset:0" /><path
       sodipodi:nodetypes="cc"
       inkscape:connector-curvature="0"
       id="path4789"
       d="m 48,104 2.4,1e-5"
       style="fill:none;stroke:#000000;stroke-width:0.63999999;stroke-linecap:round;stroke-linejoin:round;stroke-miterlimit:4;stroke-opacity:1;stroke-dasharray:none;stroke-dashoffset:0" /><path
       style="fill:none;stroke:#000000;stroke-width:0.63999999;stroke-linecap:round;stroke-linejoin:round;stroke-miterlimit:4;stroke-opacity:1;stroke-dasharray:none;stroke-dashoffset:0"
       d="m 48,120 2.4,1e-5"
       id="path4791"
       inkscape:connector-curvature="0"
       sodipodi:nodetypes="cc" /><path
       sodipodi:nodetypes="cc"
       inkscape:connector-curvature="0"
       id="path4793"
       d="m 48,136 2.4,1e-5"
       style="fill:none;stroke:#000000;stroke-width:0.63999999;stroke-linecap:round;stroke-linejoin:round;stroke-miterlimit:4;stroke-opacity:1;stroke-dasharray:none;stroke-dashoffset:0" /><path
       style="fill:none;stroke:#000000;stroke-width:0.63999999;stroke-linecap:round;stroke-linejoin:round;stroke-miterlimit:4;stroke-opacity:1;stroke-dasharray:none;stroke-dashoffset:0"
       d="m 48,152 2.4,1e-5"
       id="path4795"
       inkscape:connector-curvature="0"
       sodipodi:nodetypes="cc" /><path
       style="fill:none;stroke:#000000;stroke-width:0.63999999;stroke-linecap:round;stroke-linejoin:round;stroke-miterlimit:4;stroke-opacity:1;stroke-dasharray:none;stroke-dashoffset:0"
       d="m 48,168 2.4,1e-5"
       id="path4797"
       inkscape:connector-curvature="0"
       sodipodi:nodetypes="cc" /><path
       sodipodi:nodetypes="cc"
       inkscape:connector-curvature="0"
       id="path4799"
       d="m 48,184 2.4,1e-5"
       style="fill:none;stroke:#000000;stroke-width:0.63999999;stroke-linecap:round;stroke-linejoin:round;stroke-miterlimit:4;stroke-opacity:1;stroke-dasharray:none;stroke-dashoffset:0" /><path
       sodipodi:nodetypes="cc"
       inkscape:connector-curvature="0"
       id="path4801"
       d="m 64,58.40001 8e-6,-2.4"
       style="fill:none;stroke:#000000;stroke-width:0.63999999;stroke-linecap:round;stroke-linejoin:round;stroke-miterlimit:4;stroke-opacity:1;stroke-dasharray:none;stroke-dashoffset:0" /><path
       style="fill:none;stroke:#000000;stroke-width:0.63999999;stroke-linecap:round;stroke-linejoin:round;stroke-miterlimit:4;stroke-opacity:1;stroke-dasharray:none;stroke-dashoffset:0"
       d="m 79.999996,58.40001 1e-5,-2.4"
       id="path4803"
       inkscape:connector-curvature="0"
       sodipodi:nodetypes="cc" /><path
       style="fill:none;stroke:#000000;stroke-width:0.63999999;stroke-linecap:round;stroke-linejoin:round;stroke-miterlimit:4;stroke-opacity:1;stroke-dasharray:none;stroke-dashoffset:0"
       d="m 95.999996,58.40001 1e-5,-2.4"
       id="path4805"
       inkscape:connector-curvature="0"
       sodipodi:nodetypes="cc" /><path
       sodipodi:nodetypes="cc"
       inkscape:connector-curvature="0"
       id="path4807"
       d="m 112,58.40001 1e-5,-2.4"
       style="fill:none;stroke:#000000;stroke-width:0.63999999;stroke-linecap:round;stroke-linejoin:round;stroke-miterlimit:4;stroke-opacity:1;stroke-dasharray:none;stroke-dashoffset:0" /><path
       style="fill:none;stroke:#000000;stroke-width:0.63999999;stroke-linecap:round;stroke-linejoin:round;stroke-miterlimit:4;stroke-opacity:1;stroke-dasharray:none;stroke-dashoffset:0"
       d="m 128,58.40001 1e-5,-2.4"
       id="path4809"
       inkscape:connector-curvature="0"
       sodipodi:nodetypes="cc" /><path
       sodipodi:nodetypes="cc"
       inkscape:connector-curvature="0"
       id="path4811"
       d="m 144,58.40001 1e-5,-2.4"
       style="fill:none;stroke:#000000;stroke-width:0.63999999;stroke-linecap:round;stroke-linejoin:round;stroke-miterlimit:4;stroke-opacity:1;stroke-dasharray:none;stroke-dashoffset:0" /><path
       sodipodi:nodetypes="cc"
       inkscape:connector-curvature="0"
       id="path4813"
       d="m 160,58.40001 1e-5,-2.4"
       style="fill:none;stroke:#000000;stroke-width:0.63999999;stroke-linecap:round;stroke-linejoin:round;stroke-miterlimit:4;stroke-opacity:1;stroke-dasharray:none;stroke-dashoffset:0" /><path
       style="fill:none;stroke:#000000;stroke-width:0.63999999;stroke-linecap:round;stroke-linejoin:round;stroke-miterlimit:4;stroke-opacity:1;stroke-dasharray:none;stroke-dashoffset:0"
       d="m 176,58.40001 1e-5,-2.4"
       id="path4815"
       inkscape:connector-curvature="0"
       sodipodi:nodetypes="cc" /><text
       xml:space="preserve"
       style="font-size:9.60000038px;font-style:normal;font-variant:normal;font-weight:normal;font-stretch:normal;text-align:end;line-height:100%;letter-spacing:0px;word-spacing:0px;text-anchor:end;fill:#000000;fill-opacity:1;stroke:none;font-family:LMRoman12;-inkscape-font-specification:LMRoman12"
       x="44.946068"
       y="-68.505165"
       id="text4827"
       sodipodi:linespacing="100%"
       transform="scale(1,-1)"><tspan
         sodipodi:role="line"
         id="tspan4829"
         x="44.946068"
         y="-68.505165">1</tspan></text>
<text
       transform="scale(1,-1)"
       sodipodi:linespacing="100%"
       id="text4831"
       y="-84.87957"
       x="44.946068"
       style="font-size:9.60000038px;font-style:normal;font-variant:normal;font-weight:normal;font-stretch:normal;text-align:end;line-height:100%;letter-spacing:0px;word-spacing:0px;text-anchor:end;fill:#000000;fill-opacity:1;stroke:none;font-family:LMRoman12;-inkscape-font-specification:LMRoman12"
       xml:space="preserve"><tspan
         y="-84.87957"
         x="44.946068"
         id="tspan4833"
         sodipodi:role="line">2</tspan></text>
<text
       xml:space="preserve"
       style="font-size:9.60000038px;font-style:normal;font-variant:normal;font-weight:normal;font-stretch:normal;text-align:end;line-height:100%;letter-spacing:0px;word-spacing:0px;text-anchor:end;fill:#000000;fill-opacity:1;stroke:none;font-family:LMRoman12;-inkscape-font-specification:LMRoman12"
       x="44.946068"
       y="-100.87957"
       id="text4835"
       sodipodi:linespacing="100%"
       transform="scale(1,-1)"><tspan
         sodipodi:role="line"
         id="tspan4837"
         x="44.946068"
         y="-100.87957">3</tspan></text>
<text
       transform="scale(1,-1)"
       sodipodi:linespacing="100%"
       id="text4839"
       y="-116.87957"
       x="44.946068"
       style="font-size:9.60000038px;font-style:normal;font-variant:normal;font-weight:normal;font-stretch:normal;text-align:end;line-height:100%;letter-spacing:0px;word-spacing:0px;text-anchor:end;fill:#000000;fill-opacity:1;stroke:none;font-family:LMRoman12;-inkscape-font-specification:LMRoman12"
       xml:space="preserve"><tspan
         y="-116.87957"
         x="44.946068"
         id="tspan4841"
         sodipodi:role="line">4</tspan></text>
<text
       xml:space="preserve"
       style="font-size:9.60000038px;font-style:normal;font-variant:normal;font-weight:normal;font-stretch:normal;text-align:end;line-height:100%;letter-spacing:0px;word-spacing:0px;text-anchor:end;fill:#000000;fill-opacity:1;stroke:none;font-family:LMRoman12;-inkscape-font-specification:LMRoman12"
       x="44.946068"
       y="-132.87958"
       id="text4843"
       sodipodi:linespacing="100%"
       transform="scale(1,-1)"><tspan
         sodipodi:role="line"
         id="tspan4845"
         x="44.946068"
         y="-132.87958">5</tspan></text>
<text
       transform="scale(1,-1)"
       sodipodi:linespacing="100%"
       id="text4847"
       y="-148.87958"
       x="44.946068"
       style="font-size:9.60000038px;font-style:normal;font-variant:normal;font-weight:normal;font-stretch:normal;text-align:end;line-height:100%;letter-spacing:0px;word-spacing:0px;text-anchor:end;fill:#000000;fill-opacity:1;stroke:none;font-family:LMRoman12;-inkscape-font-specification:LMRoman12"
       xml:space="preserve"><tspan
         y="-148.87958"
         x="44.946068"
         id="tspan4849"
         sodipodi:role="line">6</tspan></text>
<text
       xml:space="preserve"
       style="font-size:9.60000038px;font-style:normal;font-variant:normal;font-weight:normal;font-stretch:normal;text-align:end;line-height:100%;letter-spacing:0px;word-spacing:0px;text-anchor:end;fill:#000000;fill-opacity:1;stroke:none;font-family:LMRoman12;-inkscape-font-specification:LMRoman12"
       x="44.946068"
       y="-164.87958"
       id="text4851"
       sodipodi:linespacing="100%"
       transform="scale(1,-1)"><tspan
         sodipodi:role="line"
         id="tspan4853"
         x="44.946068"
         y="-164.87958">7</tspan></text>
<text
       transform="scale(1,-1)"
       sodipodi:linespacing="100%"
       id="text4855"
       y="-180.87958"
       x="44.946068"
       style="font-size:9.60000038px;font-style:normal;font-variant:normal;font-weight:normal;font-stretch:normal;text-align:end;line-height:100%;letter-spacing:0px;word-spacing:0px;text-anchor:end;fill:#000000;fill-opacity:1;stroke:none;font-family:LMRoman12;-inkscape-font-specification:LMRoman12"
       xml:space="preserve"><tspan
         y="-180.87958"
         x="44.946068"
         id="tspan4857"
         sodipodi:role="line">8</tspan></text>
<text
       xml:space="preserve"
       style="font-size:9.60000038px;font-style:normal;font-variant:normal;font-weight:normal;font-stretch:normal;text-align:end;line-height:100%;letter-spacing:0px;word-spacing:0px;text-anchor:end;fill:#000000;fill-opacity:1;stroke:none;font-family:LMRoman12;-inkscape-font-specification:LMRoman12"
       x="85.811234"
       y="-44.110641"
       id="text4859"
       sodipodi:linespacing="100%"
       transform="scale(1,-1)"><tspan
         sodipodi:role="line"
         id="tspan4861"
         x="85.811234"
         y="-44.110641">0.2</tspan></text>
<text
       transform="scale(1,-1)"
       sodipodi:linespacing="100%"
       id="text4863"
       y="-44.110641"
       x="117.81123"
       style="font-size:9.60000038px;font-style:normal;font-variant:normal;font-weight:normal;font-stretch:normal;text-align:end;line-height:100%;letter-spacing:0px;word-spacing:0px;text-anchor:end;fill:#000000;fill-opacity:1;stroke:none;font-family:LMRoman12;-inkscape-font-specification:LMRoman12"
       xml:space="preserve"><tspan
         y="-44.110641"
         x="117.81123"
         id="tspan4865"
         sodipodi:role="line">0.4</tspan></text>
<text
       xml:space="preserve"
       style="font-size:9.60000038px;font-style:normal;font-variant:normal;font-weight:normal;font-stretch:normal;text-align:end;line-height:100%;letter-spacing:0px;word-spacing:0px;text-anchor:end;fill:#000000;fill-opacity:1;stroke:none;font-family:LMRoman12;-inkscape-font-specification:LMRoman12"
       x="149.81123"
       y="-44.110641"
       id="text4867"
       sodipodi:linespacing="100%"
       transform="scale(1,-1)"><tspan
         sodipodi:role="line"
         id="tspan4869"
         x="149.81123"
         y="-44.110641">0.6</tspan></text>
<text
       transform="scale(1,-1)"
       sodipodi:linespacing="100%"
       id="text4871"
       y="-44.110641"
       x="181.81123"
       style="font-size:9.60000038px;font-style:normal;font-variant:normal;font-weight:normal;font-stretch:normal;text-align:end;line-height:100%;letter-spacing:0px;word-spacing:0px;text-anchor:end;fill:#000000;fill-opacity:1;stroke:none;font-family:LMRoman12;-inkscape-font-specification:LMRoman12"
       xml:space="preserve"><tspan
         y="-44.110641"
         x="181.81123"
         id="tspan4873"
         sodipodi:role="line">0.8</tspan></text>
<path
       style="fill:none;stroke:#000000;stroke-width:0.63999999;stroke-linecap:round;stroke-linejoin:round;stroke-miterlimit:4;stroke-opacity:1;stroke-dasharray:none;stroke-dashoffset:0"
       d="m 192,58.40001 1e-5,-2.4"
       id="path4883"
       inkscape:connector-curvature="0"
       sodipodi:nodetypes="cc" /><path
       sodipodi:nodetypes="cc"
       inkscape:connector-curvature="0"
       id="path4885"
       d="m 208,58.40001 1e-5,-2.4"
       style="fill:none;stroke:#000000;stroke-width:0.63999999;stroke-linecap:round;stroke-linejoin:round;stroke-miterlimit:4;stroke-opacity:1;stroke-dasharray:none;stroke-dashoffset:0" /><text
       xml:space="preserve"
       style="font-size:9.60000038px;font-style:normal;font-variant:normal;font-weight:normal;font-stretch:normal;text-align:end;line-height:100%;letter-spacing:0px;word-spacing:0px;text-anchor:end;fill:#000000;fill-opacity:1;stroke:none;font-family:LMRoman12;-inkscape-font-specification:LMRoman12"
       x="216"
       y="-44.110641"
       id="text4887"
       sodipodi:linespacing="100%"
       transform="scale(1,-1)"><tspan
         sodipodi:role="line"
         id="tspan4889"
         x="216"
         y="-44.110641">0.10</tspan></text>
<path
       style="fill:none;stroke:#000000;stroke-width:1.5;stroke-linecap:round;stroke-linejoin:round;stroke-miterlimit:4;stroke-opacity:1;stroke-dasharray:none;stroke-dashoffset:0"
       d="m 60,213.46457 100,0 c 15,-1e-5 35,-15.00001 40,-65.00001 L 210,38.464564"
       id="path4899"
       inkscape:connector-curvature="0"
       transform="matrix(0.8,0,0,-0.8,0,226.77166)"
       sodipodi:nodetypes="cccc" /><path
       sodipodi:nodetypes="cccc"
       transform="matrix(0.8,0,0,-0.8,0,226.77166)"
       inkscape:connector-curvature="0"
       id="path4901"
       d="m 60,213.46457 100,0 c 15,-1e-5 35,-16.00165 42.00328,-69.01479 L 215,63.464564"
       style="fill:none;stroke:#000000;stroke-width:1.5;stroke-linecap:round;stroke-linejoin:round;stroke-miterlimit:4;stroke-opacity:1;stroke-dasharray:none;stroke-dashoffset:0" /><path
       style="fill:none;stroke:#000000;stroke-width:1.5;stroke-linecap:round;stroke-linejoin:round;stroke-miterlimit:4;stroke-opacity:1;stroke-dasharray:none;stroke-dashoffset:0"
       d="m 60,213.46457 100,0 c 15,-1e-5 31.99508,-13.99016 41.00164,-57.0115 l 14.74138,-63.238916"
       id="path4903"
       inkscape:connector-curvature="0"
       transform="matrix(0.8,0,0,-0.8,0,226.77166)"
       sodipodi:nodetypes="cccc" /><text
       transform="scale(1,-1)"
       sodipodi:linespacing="100%"
       id="text5794"
       y="-46.105156"
       x="44.946068"
       style="font-size:9.60000038px;font-style:normal;font-variant:normal;font-weight:normal;font-stretch:normal;text-align:end;line-height:100%;letter-spacing:0px;word-spacing:0px;text-anchor:end;fill:#000000;fill-opacity:1;stroke:none;font-family:LMRoman12;-inkscape-font-specification:LMRoman12"
       xml:space="preserve"><tspan
         y="-46.105156"
         x="44.946068"
         id="tspan5796"
         sodipodi:role="line">0</tspan></text>
<g
       ns0:preamble="/home/sriranga/Desktop/MCT/package.tex"
       ns0:text="$I_E$ (mA)"
       word-spacing="normal"
       letter-spacing="normal"
       font-size-adjust="none"
       font-stretch="normal"
       font-weight="normal"
       font-variant="normal"
       font-style="normal"
       stroke-miterlimit="10.433"
       xml:space="preserve"
       transform="translate(-188.79485,-493.08216)"
       id="g3175"
       style="font-style:normal;font-variant:normal;font-weight:normal;font-stretch:normal;letter-spacing:normal;word-spacing:normal;text-anchor:start;fill:none;stroke:#000000;stroke-linecap:butt;stroke-linejoin:miter;stroke-miterlimit:10.43299961;stroke-opacity:1;stroke-dasharray:none;stroke-dashoffset:0"><path
         id="path3177"
         d="m 223.6,707.12 h 2.43 v 0.16 c -0.57,0.07 -0.68,0.13 -0.68,0.41 0,0.19 0.02,0.31 0.11,0.63 l 1.23,4.4 c 0.18,0.57 0.24,0.63 0.81,0.73 v 0.16 h -2.46 v -0.16 c 0.58,-0.07 0.7,-0.15 0.7,-0.42 0,-0.14 -0.04,-0.37 -0.11,-0.62 l -1.22,-4.39 c -0.18,-0.58 -0.25,-0.64 -0.81,-0.74 z"
         inkscape:connector-curvature="0"
         style="fill:#000000;stroke-width:0" /><path
         id="path3179"
         d="m 231.59,710.17 h -3.46 v -0.11 c 0.43,-0.04 0.53,-0.1 0.53,-0.28 0,-0.08 -0.04,-0.32 -0.07,-0.45 l -0.86,-3.07 c -0.12,-0.4 -0.17,-0.45 -0.56,-0.52 v -0.11 h 3.53 l 0.43,1.13 -0.11,0.05 c -0.33,-0.44 -0.51,-0.62 -0.81,-0.76 -0.26,-0.12 -0.73,-0.19 -1.25,-0.19 -0.39,0 -0.56,0.07 -0.56,0.24 0,0.07 0.08,0.4 0.25,1.01 0.09,0.31 0.15,0.54 0.22,0.8 0.25,-0.01 0.46,-0.02 0.55,-0.02 0.27,0.01 0.46,-0.03 0.54,-0.1 0.03,-0.04 0.05,-0.1 0.05,-0.22 0,-0.12 -0.02,-0.21 -0.05,-0.36 l 0.14,-0.04 0.47,1.62 -0.12,0.03 c -0.27,-0.6 -0.33,-0.64 -0.96,-0.66 -0.09,0 -0.31,-0.01 -0.56,-0.02 l 0.47,1.62 c 0.04,0.15 0.11,0.18 0.5,0.18 1.1,0 1.34,-0.09 1.34,-0.51 0,-0.09 -0.01,-0.19 -0.01,-0.31 l 0.14,-0.01 z"
         inkscape:connector-curvature="0"
         style="fill:#000000;stroke-width:0" /><path
         id="path3181"
         d="m 237.69,713.84 -0.06,-0.04 -0.07,-0.05 -0.06,-0.04 -0.06,-0.04 -0.06,-0.04 -0.06,-0.04 -0.05,-0.04 -0.05,-0.03 -0.06,-0.04 -0.04,-0.04 -0.05,-0.03 -0.05,-0.04 -0.04,-0.03 -0.04,-0.04 -0.09,-0.06 -0.07,-0.07 -0.08,-0.07 -0.07,-0.07 -0.07,-0.07 -0.07,-0.07 -0.06,-0.08 -0.07,-0.08 -0.07,-0.08 c -0.71,-0.87 -1.05,-1.86 -1.05,-3.02 0,-1.26 0.36,-2.24 1.24,-3.25 0.41,-0.48 0.67,-0.7 1.18,-1.01 l 0.12,0.16 c -0.79,0.62 -1.07,0.97 -1.34,1.71 -0.24,0.67 -0.35,1.42 -0.35,2.42 0,1.04 0.13,1.86 0.4,2.47 0.28,0.62 0.58,0.97 1.29,1.55 z"
         inkscape:connector-curvature="0"
         style="fill:#000000;stroke-width:0" /><path
         id="path3183"
         d="m 238.26,711.08 0.02,0 0.01,0 0.01,0.01 0.01,0 0.01,0 0.01,0 0.02,0.01 0.02,0 0.02,0 0.02,0.01 0.02,0 0.02,0 0.02,0 0.02,0 0.02,0.01 0.01,0 0.02,0 0.02,0 0.02,0 c 0.26,0 0.35,-0.16 0.35,-0.64 v -2.51 c 0,-0.54 -0.14,-0.69 -0.69,-0.7 v -0.15 h 2.2 v 0.15 c -0.52,0.02 -0.67,0.13 -0.67,0.52 v 2.8 c 0,0.02 0.08,0.12 0.15,0.19 0.24,0.23 0.67,0.4 1.02,0.4 0.44,0 0.66,-0.35 0.66,-1.04 v -2.16 c 0,-0.56 -0.11,-0.67 -0.68,-0.71 v -0.15 h 2.23 v 0.15 c -0.57,0.01 -0.72,0.18 -0.72,0.8 v 2.5 c 0.3,0.43 0.63,0.61 1.09,0.61 0.57,0 0.74,-0.27 0.74,-1.09 v -2.1 c 0,-0.57 -0.08,-0.65 -0.65,-0.72 v -0.15 h 2.18 v 0.15 l -0.26,0.02 c -0.3,0.02 -0.43,0.2 -0.43,0.59 v 2.05 c 0,1.17 -0.39,1.77 -1.15,1.77 -0.58,0 -1.09,-0.26 -1.63,-0.84 -0.17,0.57 -0.51,0.84 -1.05,0.84 -0.44,0 -0.72,-0.15 -1.54,-0.77 v 0.74 l -0.07,0.03 c -0.51,-0.19 -0.85,-0.3 -1.4,-0.45 z"
         inkscape:connector-curvature="0"
         style="fill:#000000;stroke-width:0" /><path
         id="path3185"
         d="m 252.85,707.31 -0.04,0.01 -0.04,0 -0.04,0 -0.03,0.01 -0.04,0.01 -0.03,0 -0.03,0.01 -0.03,0.01 -0.03,0.01 -0.03,0.01 -0.02,0.01 -0.03,0.02 -0.02,0.01 -0.03,0.02 -0.02,0.02 -0.02,0.02 -0.03,0.03 -0.02,0.02 -0.02,0.03 -0.03,0.03 -0.02,0.03 -0.02,0.04 -0.03,0.04 -0.02,0.04 -0.03,0.04 -0.02,0.05 -0.03,0.05 -0.02,0.05 -0.03,0.06 -0.03,0.06 -0.02,0.03 -0.01,0.03 -0.02,0.03 -0.01,0.04 -2.48,5.64 h -0.2 l -2.07,-4.88 c -0.64,-1.45 -0.76,-1.61 -1.23,-1.63 v -0.19 h 1.97 v 0.19 c -0.48,0 -0.68,0.13 -0.68,0.41 0,0.12 0.03,0.26 0.08,0.39 l 0.46,1.16 h 2.6 l -0.14,0.41 h -2.29 l 1.14,2.73 1.15,-2.73 0.14,-0.41 0.41,-0.95 c 0.12,-0.27 0.19,-0.53 0.19,-0.67 0,-0.25 -0.17,-0.33 -0.7,-0.34 v -0.19 h 2.54 z"
         inkscape:connector-curvature="0"
         style="fill:#000000;stroke-width:0" /><path
         id="path3187"
         d="m 253.4,705.37 0.06,0.04 0.07,0.04 0.06,0.05 0.06,0.04 0.06,0.04 0.06,0.03 0.05,0.04 0.06,0.04 0.05,0.04 0.04,0.03 0.05,0.04 0.05,0.03 0.04,0.04 0.04,0.03 0.09,0.07 0.07,0.07 0.08,0.07 0.07,0.07 0.07,0.07 0.07,0.07 0.06,0.08 0.07,0.08 0.07,0.08 c 0.71,0.86 1.05,1.86 1.05,3.02 0,1.27 -0.36,2.23 -1.24,3.25 -0.41,0.47 -0.66,0.69 -1.18,1.01 l -0.12,-0.16 c 0.79,-0.63 1.06,-0.97 1.34,-1.72 0.24,-0.66 0.35,-1.42 0.35,-2.41 0,-1.03 -0.13,-1.86 -0.4,-2.46 -0.28,-0.63 -0.58,-0.99 -1.29,-1.56 z"
         inkscape:connector-curvature="0"
         style="fill:#000000;stroke-width:0" /></g><g
       id="content"
       transform="translate(-64.19064,-506.70448)"
       xml:space="preserve"
       stroke-miterlimit="10.433"
       font-style="normal"
       font-variant="normal"
       font-weight="normal"
       font-stretch="normal"
       font-size-adjust="none"
       letter-spacing="normal"
       word-spacing="normal"
       ns0:text="$V_{CB}=-20$ V "
       ns0:preamble="/home/sriranga/Desktop/MCT/package.tex"
       style="font-style:normal;font-variant:normal;font-weight:normal;font-stretch:normal;letter-spacing:normal;word-spacing:normal;text-anchor:start;fill:none;stroke:#000000;stroke-linecap:butt;stroke-linejoin:miter;stroke-miterlimit:10.43299961;stroke-opacity:1;stroke-dasharray:none;stroke-dashoffset:0"><path
         style="fill:#000000;stroke-width:0"
         inkscape:connector-curvature="0"
         d="m 230.28,713.61 h -1.85 v -0.16 c 0.44,-0.05 0.62,-0.15 0.62,-0.34 0,-0.18 -0.19,-0.61 -0.51,-1.18 l -2.05,-3.53 -0.66,4.4 c -0.01,0.05 -0.01,0.09 -0.01,0.15 0,0.33 0.14,0.43 0.77,0.5 v 0.16 h -2.4 v -0.16 c 0.55,-0.07 0.57,-0.1 0.78,-1.34 l 0.85,-5.16 h 0.19 l 3.71,6.1 c 0.17,0.27 0.33,0.39 0.56,0.4 z"
         id="path4181" /><path
         style="fill:#000000;stroke-width:0"
         inkscape:connector-curvature="0"
         d="m 233.89,708.86 0.25,1.39 H 234 c -0.06,-0.11 -0.13,-0.16 -0.27,-0.16 -0.05,0 -0.14,0.02 -0.28,0.05 -0.32,0.08 -0.6,0.12 -0.82,0.12 -1.48,0 -2.83,-1.4 -2.83,-2.94 0,-1.06 0.76,-1.81 1.82,-1.81 0.72,0 1.28,0.3 1.9,1.03 l -0.12,0.1 c -0.62,-0.61 -1.02,-0.82 -1.6,-0.82 -0.77,0 -1.21,0.53 -1.21,1.42 0,0.83 0.33,1.67 0.87,2.24 0.34,0.34 0.78,0.53 1.24,0.53 0.64,0 0.99,-0.37 1.06,-1.12 z"
         id="path4183" /><path
         style="fill:#000000;stroke-width:0"
         inkscape:connector-curvature="0"
         d="m 234.51,705.63 h 1.97 c 1.09,0 1.84,0.57 1.84,1.39 0,0.26 -0.08,0.5 -0.23,0.65 -0.14,0.17 -0.28,0.25 -0.64,0.4 0.49,0.12 0.69,0.2 0.91,0.4 0.2,0.17 0.3,0.4 0.3,0.68 0,0.66 -0.49,1.02 -1.39,1.02 l -0.12,-0.21 c 0.55,0 0.81,-0.23 0.81,-0.75 0,-0.39 -0.17,-0.7 -0.47,-0.87 -0.23,-0.14 -0.57,-0.18 -1.19,-0.18 l -0.07,-0.23 c 0.45,0 0.74,-0.02 0.88,-0.08 0.29,-0.12 0.46,-0.43 0.46,-0.8 0,-0.75 -0.52,-1.21 -1.36,-1.21 -0.3,0 -0.45,0.1 -0.45,0.29 0,0.09 0.08,0.42 0.24,0.97 0.09,0.32 0.13,0.48 0.23,0.83 h 0 l 0.07,0.23 0.45,1.61 c 0.04,0.15 0.12,0.19 0.4,0.19 l 0.12,0.21 h -1.8 v -0.11 c 0.44,-0.03 0.54,-0.09 0.54,-0.28 0,-0.11 -0.03,-0.28 -0.08,-0.45 l -0.85,-3.07 c -0.13,-0.41 -0.18,-0.45 -0.57,-0.52 z"
         id="path4185" /><polygon
         style="fill:#000000;stroke-width:0"
         points="247.74,710.96 242.64,710.96 242.64,710.4 247.74,710.4 "
         id="polygon4187" /><polygon
         style="fill:#000000;stroke-width:0"
         points="247.74,708.94 242.64,708.94 242.64,708.39 247.74,708.39 "
         id="polygon4189" /><polygon
         style="fill:#000000;stroke-width:0"
         points="256.84,709.96 251.75,709.96 251.75,709.4 256.84,709.4 "
         id="polygon4191" /><path
         style="fill:#000000;stroke-width:0"
         inkscape:connector-curvature="0"
         d="m 262.19,708.49 -0.13,0.05 c -0.37,-0.57 -0.5,-0.66 -0.94,-0.66 h -2.38 l 1.67,1.75 c 0.89,0.92 1.27,1.68 1.27,2.45 0,1 -0.8,1.76 -1.84,1.76 -0.54,0 -1.06,-0.22 -1.43,-0.62 -0.32,-0.33 -0.47,-0.65 -0.64,-1.36 l 0.21,-0.05 c 0.4,0.98 0.76,1.29 1.44,1.29 0.84,0 1.41,-0.56 1.41,-1.39 0,-0.78 -0.46,-1.7 -1.3,-2.59 l -1.77,-1.88 v -0.12 h 3.88 z"
         id="path4193" /><path
         style="fill:#000000;stroke-width:0"
         inkscape:connector-curvature="0"
         d="m 264.97,713.84 -0.05,0 -0.05,0 -0.05,0 -0.05,-0.01 -0.04,0 -0.05,-0.01 -0.05,0 -0.04,-0.01 -0.05,-0.01 -0.04,-0.01 -0.05,-0.01 -0.04,-0.01 -0.05,-0.01 -0.04,-0.02 -0.04,-0.01 -0.04,-0.02 -0.04,-0.01 -0.04,-0.02 -0.04,-0.02 -0.04,-0.02 -0.04,-0.02 -0.04,-0.02 -0.04,-0.03 -0.03,-0.02 -0.04,-0.02 -0.04,-0.03 -0.03,-0.03 -0.04,-0.02 -0.04,-0.03 -0.03,-0.03 -0.04,-0.03 -0.03,-0.04 c -0.58,-0.55 -0.96,-1.7 -0.96,-2.86 0,-1.08 0.33,-2.24 0.8,-2.8 0.37,-0.44 0.88,-0.67 1.45,-0.67 v 0.25 c -0.85,0 -1.29,1.07 -1.29,3.13 0,2.11 0.45,3.21 1.3,3.21 h 0 c 0.84,0 1.29,-1.12 1.29,-3.2 0,-2.07 -0.44,-3.14 -1.3,-3.14 v -0.25 c 0.51,0 0.94,0.17 1.3,0.51 0.57,0.55 0.95,1.7 0.95,2.9 0,2.04 -0.9,3.44 -2.21,3.44 z"
         id="path4195" /><path
         style="fill:#000000;stroke-width:0"
         inkscape:connector-curvature="0"
         d="m 276.85,713.7 h -2.04 v -0.19 c 0.55,-0.03 0.73,-0.14 0.73,-0.42 0,-0.15 -0.07,-0.42 -0.19,-0.72 l -1.46,-3.65 -1.5,3.36 c -0.33,0.73 -0.41,0.96 -0.41,1.1 0,0.19 0.14,0.29 0.45,0.31 0.05,0 0.15,0.01 0.29,0.02 v 0.19 h -2.64 v -0.19 c 0.49,-0.02 0.62,-0.16 1.05,-1.04 l 2.45,-5.45 h 0.15 l 2.21,5.57 c 0.33,0.78 0.44,0.89 0.91,0.92 z"
         id="path4197" /></g><g
       style="font-style:normal;font-variant:normal;font-weight:normal;font-stretch:normal;letter-spacing:normal;word-spacing:normal;text-anchor:start;fill:none;stroke:#000000;stroke-linecap:butt;stroke-linejoin:miter;stroke-miterlimit:10.43299961;stroke-opacity:1;stroke-dasharray:none;stroke-dashoffset:0"
       ns0:preamble="/home/sriranga/Desktop/MCT/package.tex"
       ns0:text="$V_{CB}=-10$ V "
       word-spacing="normal"
       letter-spacing="normal"
       font-size-adjust="none"
       font-stretch="normal"
       font-weight="normal"
       font-variant="normal"
       font-style="normal"
       stroke-miterlimit="10.433"
       xml:space="preserve"
       transform="translate(-52.170941,-528.33994)"
       id="g4482"><path
         id="path4484"
         d="m 230.28,713.61 h -1.85 v -0.16 c 0.44,-0.05 0.62,-0.15 0.62,-0.34 0,-0.18 -0.19,-0.61 -0.51,-1.18 l -2.05,-3.53 -0.66,4.4 c -0.01,0.05 -0.01,0.09 -0.01,0.15 0,0.33 0.14,0.43 0.77,0.5 v 0.16 h -2.4 v -0.16 c 0.55,-0.07 0.57,-0.1 0.78,-1.34 l 0.85,-5.16 h 0.19 l 3.71,6.1 c 0.17,0.27 0.33,0.39 0.56,0.4 z"
         inkscape:connector-curvature="0"
         style="fill:#000000;stroke-width:0" /><path
         id="path4486"
         d="m 233.89,708.86 0.25,1.39 H 234 c -0.06,-0.11 -0.13,-0.16 -0.27,-0.16 -0.05,0 -0.14,0.02 -0.28,0.05 -0.32,0.08 -0.6,0.12 -0.82,0.12 -1.48,0 -2.83,-1.4 -2.83,-2.94 0,-1.06 0.76,-1.81 1.82,-1.81 0.72,0 1.28,0.3 1.9,1.03 l -0.12,0.1 c -0.62,-0.61 -1.02,-0.82 -1.6,-0.82 -0.77,0 -1.21,0.53 -1.21,1.42 0,0.83 0.33,1.67 0.87,2.24 0.34,0.34 0.78,0.53 1.24,0.53 0.64,0 0.99,-0.37 1.06,-1.12 z"
         inkscape:connector-curvature="0"
         style="fill:#000000;stroke-width:0" /><path
         id="path4488"
         d="m 234.51,705.63 h 1.97 c 1.09,0 1.84,0.57 1.84,1.39 0,0.26 -0.08,0.5 -0.23,0.65 -0.14,0.17 -0.28,0.25 -0.64,0.4 0.49,0.12 0.69,0.2 0.91,0.4 0.2,0.17 0.3,0.4 0.3,0.68 0,0.66 -0.49,1.02 -1.39,1.02 l -0.12,-0.21 c 0.55,0 0.81,-0.23 0.81,-0.75 0,-0.39 -0.17,-0.7 -0.47,-0.87 -0.23,-0.14 -0.57,-0.18 -1.19,-0.18 l -0.07,-0.23 c 0.45,0 0.74,-0.02 0.88,-0.08 0.29,-0.12 0.46,-0.43 0.46,-0.8 0,-0.75 -0.52,-1.21 -1.36,-1.21 -0.3,0 -0.45,0.1 -0.45,0.29 0,0.09 0.08,0.42 0.24,0.97 0.09,0.32 0.13,0.48 0.23,0.83 h 0 l 0.07,0.23 0.45,1.61 c 0.04,0.15 0.12,0.19 0.4,0.19 l 0.12,0.21 h -1.8 v -0.11 c 0.44,-0.03 0.54,-0.09 0.54,-0.28 0,-0.11 -0.03,-0.28 -0.08,-0.45 l -0.85,-3.07 c -0.13,-0.41 -0.18,-0.45 -0.57,-0.52 z"
         inkscape:connector-curvature="0"
         style="fill:#000000;stroke-width:0" /><polygon
         id="polygon4490"
         points="247.74,710.96 242.64,710.96 242.64,710.4 247.74,710.4 "
         style="fill:#000000;stroke-width:0" /><polygon
         id="polygon4492"
         points="247.74,708.94 242.64,708.94 242.64,708.39 247.74,708.39 "
         style="fill:#000000;stroke-width:0" /><polygon
         id="polygon4494"
         points="256.84,709.96 251.75,709.96 251.75,709.4 256.84,709.4 "
         style="fill:#000000;stroke-width:0" /><path
         id="path4496"
         d="m 260.36,713.84 -1.79,-0.9 v -0.14 c 0.12,0.05 0.23,0.09 0.27,0.11 0.18,0.07 0.35,0.11 0.45,0.11 0.2,0 0.29,-0.15 0.29,-0.47 v -4.5 c 0,-0.33 -0.07,-0.56 -0.23,-0.65 -0.15,-0.09 -0.29,-0.12 -0.71,-0.13 v -0.15 h 2.75 v 0.15 c -0.79,0.01 -0.95,0.11 -0.95,0.59 v 5.96 z"
         inkscape:connector-curvature="0"
         style="fill:#000000;stroke-width:0" /><path
         id="path4498"
         d="m 264.97,713.84 -0.05,0 -0.05,0 -0.05,0 -0.05,-0.01 -0.04,0 -0.05,-0.01 -0.05,0 -0.04,-0.01 -0.05,-0.01 -0.04,-0.01 -0.05,-0.01 -0.04,-0.01 -0.05,-0.01 -0.04,-0.02 -0.04,-0.01 -0.04,-0.02 -0.04,-0.01 -0.04,-0.02 -0.04,-0.02 -0.04,-0.02 -0.04,-0.02 -0.04,-0.02 -0.04,-0.03 -0.03,-0.02 -0.04,-0.02 -0.04,-0.03 -0.03,-0.03 -0.04,-0.02 -0.04,-0.03 -0.03,-0.03 -0.04,-0.03 -0.03,-0.04 c -0.58,-0.55 -0.96,-1.7 -0.96,-2.86 0,-1.08 0.33,-2.24 0.8,-2.8 0.37,-0.44 0.88,-0.67 1.45,-0.67 v 0.25 c -0.85,0 -1.29,1.07 -1.29,3.13 0,2.11 0.45,3.21 1.3,3.21 h 0 c 0.84,0 1.29,-1.12 1.29,-3.2 0,-2.07 -0.44,-3.14 -1.3,-3.14 v -0.25 c 0.51,0 0.94,0.17 1.3,0.51 0.57,0.55 0.95,1.7 0.95,2.9 0,2.04 -0.9,3.44 -2.21,3.44 z"
         inkscape:connector-curvature="0"
         style="fill:#000000;stroke-width:0" /><path
         id="path4500"
         d="m 276.85,713.7 h -2.04 v -0.19 c 0.55,-0.03 0.73,-0.14 0.73,-0.42 0,-0.15 -0.07,-0.42 -0.19,-0.72 l -1.46,-3.65 -1.5,3.36 c -0.33,0.73 -0.41,0.96 -0.41,1.1 0,0.19 0.14,0.29 0.45,0.31 0.05,0 0.15,0.01 0.29,0.02 v 0.19 h -2.64 v -0.19 c 0.49,-0.02 0.62,-0.16 1.05,-1.04 l 2.45,-5.45 h 0.15 l 2.21,5.57 c 0.33,0.78 0.44,0.89 0.91,0.92 z"
         inkscape:connector-curvature="0"
         style="fill:#000000;stroke-width:0" /></g><g
       id="g4736"
       transform="translate(-49.791035,-551.81628)"
       xml:space="preserve"
       stroke-miterlimit="10.433"
       font-style="normal"
       font-variant="normal"
       font-weight="normal"
       font-stretch="normal"
       font-size-adjust="none"
       letter-spacing="normal"
       word-spacing="normal"
       ns0:text="$V_{CB}=-1$ V "
       ns0:preamble="/home/sriranga/Desktop/MCT/package.tex"
       style="font-style:normal;font-variant:normal;font-weight:normal;font-stretch:normal;letter-spacing:normal;word-spacing:normal;text-anchor:start;fill:none;stroke:#000000;stroke-linecap:butt;stroke-linejoin:miter;stroke-miterlimit:10.43299961;stroke-opacity:1;stroke-dasharray:none;stroke-dashoffset:0"><path
         style="fill:#000000;stroke-width:0"
         inkscape:connector-curvature="0"
         d="m 230.28,713.61 h -1.85 v -0.16 c 0.44,-0.05 0.62,-0.15 0.62,-0.34 0,-0.18 -0.19,-0.61 -0.51,-1.18 l -2.05,-3.53 -0.66,4.4 c -0.01,0.05 -0.01,0.09 -0.01,0.15 0,0.33 0.14,0.43 0.77,0.5 v 0.16 h -2.4 v -0.16 c 0.55,-0.07 0.57,-0.1 0.78,-1.34 l 0.85,-5.16 h 0.19 l 3.71,6.1 c 0.17,0.27 0.33,0.39 0.56,0.4 z"
         id="path4738" /><path
         style="fill:#000000;stroke-width:0"
         inkscape:connector-curvature="0"
         d="m 233.89,708.86 0.25,1.39 H 234 c -0.06,-0.11 -0.13,-0.16 -0.27,-0.16 -0.05,0 -0.14,0.02 -0.28,0.05 -0.32,0.08 -0.6,0.12 -0.82,0.12 -1.48,0 -2.83,-1.4 -2.83,-2.94 0,-1.06 0.76,-1.81 1.82,-1.81 0.72,0 1.28,0.3 1.9,1.03 l -0.12,0.1 c -0.62,-0.61 -1.02,-0.82 -1.6,-0.82 -0.77,0 -1.21,0.53 -1.21,1.42 0,0.83 0.33,1.67 0.87,2.24 0.34,0.34 0.78,0.53 1.24,0.53 0.64,0 0.99,-0.37 1.06,-1.12 z"
         id="path4740" /><path
         style="fill:#000000;stroke-width:0"
         inkscape:connector-curvature="0"
         d="m 234.51,705.63 h 1.97 c 1.09,0 1.84,0.57 1.84,1.39 0,0.26 -0.08,0.5 -0.23,0.65 -0.14,0.17 -0.28,0.25 -0.64,0.4 0.49,0.12 0.69,0.2 0.91,0.4 0.2,0.17 0.3,0.4 0.3,0.68 0,0.66 -0.49,1.02 -1.39,1.02 l -0.12,-0.21 c 0.55,0 0.81,-0.23 0.81,-0.75 0,-0.39 -0.17,-0.7 -0.47,-0.87 -0.23,-0.14 -0.57,-0.18 -1.19,-0.18 l -0.07,-0.23 c 0.45,0 0.74,-0.02 0.88,-0.08 0.29,-0.12 0.46,-0.43 0.46,-0.8 0,-0.75 -0.52,-1.21 -1.36,-1.21 -0.3,0 -0.45,0.1 -0.45,0.29 0,0.09 0.08,0.42 0.24,0.97 0.09,0.32 0.13,0.48 0.23,0.83 h 0 l 0.07,0.23 0.45,1.61 c 0.04,0.15 0.12,0.19 0.4,0.19 l 0.12,0.21 h -1.8 v -0.11 c 0.44,-0.03 0.54,-0.09 0.54,-0.28 0,-0.11 -0.03,-0.28 -0.08,-0.45 l -0.85,-3.07 c -0.13,-0.41 -0.18,-0.45 -0.57,-0.52 z"
         id="path4742" /><polygon
         style="fill:#000000;stroke-width:0"
         points="247.74,710.96 242.64,710.96 242.64,710.4 247.74,710.4 "
         id="polygon4744" /><polygon
         style="fill:#000000;stroke-width:0"
         points="247.74,708.94 242.64,708.94 242.64,708.39 247.74,708.39 "
         id="polygon4746" /><polygon
         style="fill:#000000;stroke-width:0"
         points="256.84,709.96 251.75,709.96 251.75,709.4 256.84,709.4 "
         id="polygon4748" /><path
         style="fill:#000000;stroke-width:0"
         inkscape:connector-curvature="0"
         d="m 260.36,713.84 -1.79,-0.9 v -0.14 c 0.12,0.05 0.23,0.09 0.27,0.11 0.18,0.07 0.35,0.11 0.45,0.11 0.2,0 0.29,-0.15 0.29,-0.47 v -4.5 c 0,-0.33 -0.07,-0.56 -0.23,-0.65 -0.15,-0.09 -0.29,-0.12 -0.71,-0.13 v -0.15 h 2.75 v 0.15 c -0.79,0.01 -0.95,0.11 -0.95,0.59 v 5.96 z"
         id="path4750" /><path
         style="fill:#000000;stroke-width:0"
         inkscape:connector-curvature="0"
         d="m 271.87,713.7 h -2.04 v -0.19 c 0.55,-0.03 0.73,-0.14 0.73,-0.42 0,-0.15 -0.07,-0.42 -0.19,-0.72 l -1.46,-3.65 -1.51,3.36 c -0.32,0.73 -0.4,0.96 -0.4,1.1 0,0.19 0.14,0.29 0.45,0.31 0.04,0 0.15,0.01 0.29,0.02 v 0.19 h -2.64 v -0.19 c 0.48,-0.02 0.62,-0.16 1.05,-1.04 l 2.45,-5.45 h 0.15 l 2.21,5.57 c 0.33,0.78 0.43,0.89 0.91,0.92 z"
         id="path4752" /></g><g
       style="font-style:normal;font-variant:normal;font-weight:normal;font-stretch:normal;letter-spacing:normal;word-spacing:normal;text-anchor:start;fill:none;stroke:#000000;stroke-linecap:butt;stroke-linejoin:miter;stroke-miterlimit:10.43299961;stroke-opacity:1;stroke-dasharray:none;stroke-dashoffset:0"
       ns0:preamble="/home/sriranga/Desktop/MCT/package.tex"
       ns0:text="$V_{EB}$ (V) "
       word-spacing="normal"
       letter-spacing="normal"
       font-size-adjust="none"
       font-stretch="normal"
       font-weight="normal"
       font-variant="normal"
       font-style="normal"
       stroke-miterlimit="10.433"
       xml:space="preserve"
       transform="translate(17.919937,-661.99686)"
       id="g4989"><path
         id="path4991"
         d="m 230.28,713.61 h -1.85 v -0.16 c 0.44,-0.05 0.62,-0.15 0.62,-0.34 0,-0.18 -0.19,-0.61 -0.51,-1.18 l -2.05,-3.53 -0.66,4.4 c -0.01,0.05 -0.01,0.09 -0.01,0.15 0,0.33 0.14,0.43 0.77,0.5 v 0.16 h -2.4 v -0.16 c 0.55,-0.07 0.57,-0.1 0.78,-1.34 l 0.85,-5.16 h 0.19 l 3.71,6.1 c 0.17,0.27 0.33,0.39 0.56,0.4 z"
         inkscape:connector-curvature="0"
         style="fill:#000000;stroke-width:0" /><path
         id="path4993"
         d="m 234.11,710.17 h -3.46 v -0.11 c 0.43,-0.04 0.53,-0.1 0.53,-0.28 0,-0.08 -0.04,-0.32 -0.07,-0.45 l -0.86,-3.07 c -0.12,-0.4 -0.17,-0.45 -0.56,-0.52 v -0.11 h 3.53 l 0.43,1.13 -0.11,0.05 c -0.33,-0.44 -0.51,-0.62 -0.81,-0.76 -0.26,-0.12 -0.73,-0.19 -1.25,-0.19 -0.39,0 -0.56,0.07 -0.56,0.24 0,0.07 0.08,0.4 0.25,1.01 0.09,0.31 0.15,0.54 0.22,0.8 0.25,-0.01 0.46,-0.02 0.55,-0.02 0.27,0.01 0.46,-0.03 0.54,-0.1 0.03,-0.04 0.05,-0.1 0.05,-0.22 0,-0.12 -0.02,-0.21 -0.05,-0.36 l 0.14,-0.04 0.47,1.62 -0.12,0.03 c -0.27,-0.6 -0.33,-0.64 -0.96,-0.66 -0.09,0 -0.31,-0.01 -0.55,-0.02 l 0.46,1.62 c 0.04,0.15 0.11,0.18 0.5,0.18 1.1,0 1.34,-0.09 1.34,-0.51 0,-0.09 -0.01,-0.19 -0.01,-0.31 l 0.14,-0.01 z"
         inkscape:connector-curvature="0"
         style="fill:#000000;stroke-width:0" /><path
         id="path4995"
         d="m 234.48,705.63 h 1.96 c 1.1,0 1.85,0.57 1.85,1.39 0,0.26 -0.09,0.5 -0.24,0.65 -0.14,0.17 -0.28,0.25 -0.64,0.4 0.49,0.12 0.7,0.2 0.92,0.4 0.19,0.17 0.3,0.4 0.3,0.68 0,0.66 -0.5,1.02 -1.39,1.02 l -0.13,-0.21 c 0.56,0 0.82,-0.23 0.82,-0.75 0,-0.39 -0.17,-0.7 -0.47,-0.87 -0.24,-0.14 -0.57,-0.18 -1.2,-0.18 l -0.07,-0.23 c 0.45,0 0.75,-0.02 0.89,-0.08 0.28,-0.12 0.46,-0.43 0.46,-0.8 0,-0.75 -0.52,-1.21 -1.37,-1.21 -0.29,0 -0.44,0.1 -0.44,0.29 0,0.09 0.08,0.42 0.24,0.97 0.09,0.32 0.13,0.48 0.22,0.83 h 0 l 0.07,0.23 0.45,1.61 c 0.05,0.15 0.13,0.19 0.4,0.19 l 0.13,0.21 h -1.8 v -0.11 c 0.43,-0.03 0.54,-0.09 0.54,-0.28 0,-0.11 -0.03,-0.28 -0.08,-0.45 l -0.86,-3.07 c -0.12,-0.41 -0.17,-0.45 -0.56,-0.52 z"
         inkscape:connector-curvature="0"
         style="fill:#000000;stroke-width:0" /><path
         id="path4997"
         d="m 244.65,713.84 -0.07,-0.04 -0.06,-0.05 -0.07,-0.04 -0.06,-0.04 -0.06,-0.04 -0.05,-0.04 -0.06,-0.04 -0.05,-0.03 -0.05,-0.04 -0.05,-0.04 -0.05,-0.03 -0.04,-0.04 -0.05,-0.03 -0.04,-0.04 -0.08,-0.06 -0.08,-0.07 -0.07,-0.07 -0.07,-0.07 -0.07,-0.07 -0.07,-0.07 -0.07,-0.08 -0.07,-0.08 -0.06,-0.08 c -0.71,-0.87 -1.06,-1.86 -1.06,-3.02 0,-1.26 0.37,-2.24 1.24,-3.25 0.41,-0.48 0.67,-0.7 1.19,-1.01 l 0.12,0.16 c -0.8,0.62 -1.08,0.97 -1.34,1.71 -0.24,0.67 -0.35,1.42 -0.35,2.42 0,1.04 0.13,1.86 0.4,2.47 0.27,0.62 0.57,0.97 1.29,1.55 z"
         inkscape:connector-curvature="0"
         style="fill:#000000;stroke-width:0" /><path
         id="path4999"
         d="m 251.97,713.7 h -2.04 v -0.19 c 0.54,-0.03 0.72,-0.14 0.72,-0.42 0,-0.15 -0.07,-0.42 -0.19,-0.72 l -1.46,-3.65 -1.5,3.36 c -0.33,0.73 -0.41,0.96 -0.41,1.1 0,0.19 0.14,0.29 0.46,0.31 0.04,0 0.15,0.01 0.29,0.02 v 0.19 h -2.65 v -0.19 c 0.49,-0.02 0.63,-0.16 1.05,-1.04 l 2.45,-5.45 h 0.15 l 2.21,5.57 c 0.33,0.78 0.44,0.89 0.92,0.92 z"
         inkscape:connector-curvature="0"
         style="fill:#000000;stroke-width:0" /><path
         id="path5001"
         d="m 252.6,705.37 0.07,0.04 0.07,0.04 0.06,0.05 0.06,0.04 0.06,0.04 0.05,0.03 0.06,0.04 0.05,0.04 0.05,0.04 0.05,0.03 0.05,0.04 0.04,0.03 0.05,0.04 0.04,0.03 0.08,0.07 0.08,0.07 0.07,0.07 0.08,0.07 0.06,0.07 0.07,0.07 0.07,0.08 0.07,0.08 0.07,0.08 c 0.7,0.86 1.05,1.86 1.05,3.02 0,1.27 -0.37,2.23 -1.24,3.25 -0.41,0.47 -0.67,0.69 -1.19,1.01 l -0.12,-0.16 c 0.8,-0.63 1.07,-0.97 1.35,-1.72 0.24,-0.66 0.34,-1.42 0.34,-2.41 0,-1.03 -0.13,-1.86 -0.39,-2.46 -0.28,-0.63 -0.58,-0.99 -1.3,-1.56 z"
         inkscape:connector-curvature="0"
         style="fill:#000000;stroke-width:0" /></g></g></svg>