<?xml version="1.0" encoding="UTF-8" standalone="no"?>
<!-- Created with Inkscape (http://www.inkscape.org/) -->

<svg
   xmlns:ns0="http://www.iki.fi/pav/software/textext/"
   xmlns:dc="http://purl.org/dc/elements/1.1/"
   xmlns:cc="http://creativecommons.org/ns#"
   xmlns:rdf="http://www.w3.org/1999/02/22-rdf-syntax-ns#"
   xmlns:svg="http://www.w3.org/2000/svg"
   xmlns="http://www.w3.org/2000/svg"
   xmlns:sodipodi="http://sodipodi.sourceforge.net/DTD/sodipodi-0.dtd"
   xmlns:inkscape="http://www.inkscape.org/namespaces/inkscape"
   width="354.33069"
   height="283.46457"
   id="svg2"
   version="1.1"
   inkscape:version="0.48.4 r9939"
   sodipodi:docname="fig2.17.eps">
  <sodipodi:namedview
     id="base"
     pagecolor="#ffffff"
     bordercolor="#666666"
     borderopacity="1.0"
     inkscape:pageopacity="0.0"
     inkscape:pageshadow="2"
     inkscape:zoom="2.1060833"
     inkscape:cx="76.142654"
     inkscape:cy="131.373"
     inkscape:document-units="cm"
     inkscape:current-layer="layer1"
     showgrid="false"
     units="cm"
     inkscape:object-nodes="true"
     inkscape:window-width="1366"
     inkscape:window-height="744"
     inkscape:window-x="0"
     inkscape:window-y="24"
     inkscape:window-maximized="1">
    <inkscape:grid
       type="xygrid"
       id="grid2985"
       empspacing="5"
       visible="true"
       enabled="true"
       snapvisiblegridlinesonly="true" />
  </sodipodi:namedview>
  <defs
     id="defs4">
    <marker
       inkscape:stockid="Arrow1Mend"
       orient="auto"
       refY="0.0"
       refX="0.0"
       id="Arrow1Mend"
       style="overflow:visible;">
      <path
         id="path3949"
         d="M 0.0,0.0 L 5.0,-5.0 L -12.5,0.0 L 5.0,5.0 L 0.0,0.0 z "
         style="fill-rule:evenodd;stroke:#000000;stroke-width:1.0pt;"
         transform="scale(0.4) rotate(180) translate(10,0)" />
    </marker>
  </defs>
  <metadata
     id="metadata7">
    <rdf:RDF>
      <cc:Work
         rdf:about="">
        <dc:format>image/svg+xml</dc:format>
        <dc:type
           rdf:resource="http://purl.org/dc/dcmitype/StillImage" />
        <dc:title></dc:title>
      </cc:Work>
    </rdf:RDF>
  </metadata>
  <g
     inkscape:label="Layer 1"
     inkscape:groupmode="layer"
     id="layer1"
     transform="translate(0,-768.89631)">
    <path
       style="fill:none;stroke:#000000;stroke-width:1px;stroke-linecap:butt;stroke-linejoin:miter;stroke-opacity:1"
       d="m 155,942.36088 -40,0"
       id="path3767"
       inkscape:connector-curvature="0" />
    <path
       inkscape:connector-curvature="0"
       id="path3777"
       d="m 155,922.36088 0,40"
       style="fill:none;stroke:#000000;stroke-width:0.99999994000000003px;stroke-linecap:round;stroke-linejoin:miter;stroke-opacity:1" />
    <text
       xml:space="preserve"
       style="font-size:12px;font-style:normal;font-variant:normal;font-weight:normal;font-stretch:normal;text-align:center;line-height:125%;letter-spacing:0px;word-spacing:0px;text-anchor:middle;fill:#000000;fill-opacity:1;stroke:none;font-family:LMRoman12;-inkscape-font-specification:LMRoman12"
       x="140.30785"
       y="115.38005"
       id="text3819"
       sodipodi:linespacing="125%"
       transform="translate(0,768.89631)"><tspan
         sodipodi:role="line"
         id="tspan3821"
         x="140.30785"
         y="115.38005" /></text>
    <path
       style="fill:none;stroke:#000000;stroke-width:1px;stroke-linecap:butt;stroke-linejoin:miter;stroke-opacity:1;marker-end:url(#Arrow1Mend)"
       d="m 169.41111,959.62799 3.57658,1.70562"
       id="path3934"
       inkscape:connector-curvature="0"
       sodipodi:nodetypes="cc" />
    <path
       inkscape:connector-curvature="0"
       id="path4380"
       d="m 69.140492,955.16204 20,0"
       style="fill:none;stroke:#000000;stroke-width:0.80000001;stroke-linecap:butt;stroke-linejoin:miter;stroke-miterlimit:4;stroke-opacity:1;stroke-dasharray:none;marker-end:url(#Arrow1Mend)" />
    <g
       id="g4635"
       transform="matrix(1.2,0,0,-1.2,-57.119037,1741.9191)"
       xml:space="preserve"
       stroke-miterlimit="10.433"
       font-style="normal"
       font-variant="normal"
       font-weight="normal"
       font-stretch="normal"
       font-size-adjust="none"
       letter-spacing="normal"
       word-spacing="normal"
       ns0:text="$I_C$"
       ns0:preamble="/home/sriranga/Desktop/MCT/package.tex"
       style="font-style:normal;font-variant:normal;font-weight:normal;font-stretch:normal;letter-spacing:normal;word-spacing:normal;text-anchor:start;fill:none;stroke:#000000;stroke-width:1;stroke-linecap:butt;stroke-linejoin:miter;stroke-miterlimit:10.43299961;stroke-opacity:1;stroke-dasharray:none;stroke-dashoffset:0"><path
         d="m 223.6,707.12 h 2.43 v 0.16 c -0.57,0.07 -0.68,0.13 -0.68,0.41 0,0.19 0.02,0.31 0.11,0.63 l 1.23,4.4 c 0.18,0.57 0.24,0.63 0.81,0.73 v 0.16 h -2.46 v -0.16 c 0.58,-0.07 0.7,-0.15 0.7,-0.42 0,-0.14 -0.04,-0.37 -0.11,-0.62 l -1.22,-4.39 c -0.18,-0.58 -0.25,-0.64 -0.81,-0.74 z"
         id="path4637"
         inkscape:connector-curvature="0"
         style="fill:#000000;stroke-width:0" /><path
         d="m 231.37,708.86 0.25,1.39 h -0.14 c -0.06,-0.11 -0.13,-0.16 -0.27,-0.16 -0.05,0 -0.14,0.02 -0.28,0.05 -0.32,0.08 -0.6,0.12 -0.82,0.12 -1.48,0 -2.83,-1.4 -2.83,-2.94 0,-1.06 0.76,-1.81 1.82,-1.81 0.72,0 1.28,0.3 1.9,1.03 l -0.12,0.1 c -0.62,-0.61 -1.03,-0.82 -1.6,-0.82 -0.77,0 -1.22,0.53 -1.22,1.42 0,0.83 0.34,1.67 0.88,2.24 0.33,0.34 0.77,0.53 1.23,0.53 0.65,0 1,-0.37 1.07,-1.12 z"
         id="path4639"
         inkscape:connector-curvature="0"
         style="fill:#000000;stroke-width:0" /></g>    <path
       style="fill:none;stroke:#000000;stroke-width:1px;stroke-linecap:butt;stroke-linejoin:miter;stroke-opacity:1"
       d="m 155,932.36088 20,-10 0,-40"
       id="path5060"
       inkscape:connector-curvature="0"
       sodipodi:nodetypes="ccc" />
    <path
       sodipodi:nodetypes="ccc"
       inkscape:connector-curvature="0"
       id="path5064"
       d="m 155,952.36088 20,10 0,65.00002"
       style="fill:none;stroke:#000000;stroke-width:1px;stroke-linecap:butt;stroke-linejoin:miter;stroke-opacity:1" />
    <path
       sodipodi:type="arc"
       style="fill:#ffffff;stroke:#000000;stroke-width:0.84854823;stroke-miterlimit:4;stroke-dasharray:none"
       id="path3779"
       sodipodi:cx="185"
       sodipodi:cy="163.46457"
       sodipodi:rx="3"
       sodipodi:ry="3"
       d="m 188,163.46457 a 3,3 0 1 1 -6,0 3,3 0 1 1 6,0 z"
       transform="matrix(0.82493834,0,0,0.82493834,22.379823,866.01066)" />
    <g
       id="g5133"
       transform="matrix(1.2,0,0,-1.2,-176.82941,1808.1363)"
       xml:space="preserve"
       stroke-miterlimit="10.433"
       font-style="normal"
       font-variant="normal"
       font-weight="normal"
       font-stretch="normal"
       font-size-adjust="none"
       letter-spacing="normal"
       word-spacing="normal"
       ns0:text="$I_B$"
       ns0:preamble="/home/sriranga/Desktop/MCT/package.tex"
       style="font-style:normal;font-variant:normal;font-weight:normal;font-stretch:normal;letter-spacing:normal;word-spacing:normal;text-anchor:start;fill:none;stroke:#000000;stroke-width:1;stroke-linecap:butt;stroke-linejoin:miter;stroke-miterlimit:10.43299961;stroke-opacity:1;stroke-dasharray:none;stroke-dashoffset:0"><path
         style="fill:#000000;stroke-width:0"
         inkscape:connector-curvature="0"
         d="m 223.6,707.12 h 2.43 v 0.16 c -0.57,0.07 -0.68,0.13 -0.68,0.41 0,0.19 0.02,0.31 0.11,0.63 l 1.23,4.4 c 0.18,0.57 0.24,0.63 0.81,0.73 v 0.16 h -2.46 v -0.16 c 0.58,-0.07 0.7,-0.15 0.7,-0.42 0,-0.14 -0.04,-0.37 -0.11,-0.62 l -1.22,-4.39 c -0.18,-0.58 -0.25,-0.64 -0.81,-0.74 z"
         id="path5135" /><path
         style="fill:#000000;stroke-width:0"
         inkscape:connector-curvature="0"
         d="m 227.19,705.63 h 1.96 c 1.09,0 1.85,0.57 1.85,1.39 0,0.26 -0.09,0.5 -0.24,0.65 -0.14,0.17 -0.28,0.25 -0.64,0.4 0.49,0.12 0.7,0.2 0.92,0.4 0.19,0.17 0.3,0.4 0.3,0.68 0,0.66 -0.5,1.02 -1.39,1.02 l -0.13,-0.21 c 0.56,0 0.81,-0.23 0.81,-0.75 0,-0.39 -0.16,-0.7 -0.46,-0.87 -0.24,-0.14 -0.57,-0.18 -1.2,-0.18 l -0.07,-0.23 c 0.45,0 0.75,-0.02 0.89,-0.08 0.28,-0.12 0.45,-0.43 0.45,-0.8 0,-0.75 -0.51,-1.21 -1.36,-1.21 -0.29,0 -0.45,0.1 -0.45,0.29 0,0.09 0.09,0.42 0.25,0.97 0.09,0.32 0.13,0.48 0.22,0.83 h 0 l 0.07,0.23 0.45,1.61 c 0.04,0.15 0.13,0.19 0.4,0.19 l 0.13,0.21 h -1.8 v -0.11 c 0.43,-0.03 0.53,-0.09 0.53,-0.28 0,-0.11 -0.02,-0.28 -0.07,-0.45 l -0.86,-3.07 c -0.12,-0.41 -0.17,-0.45 -0.56,-0.52 z"
         id="path5137" /></g>    <path
       style="fill:none;stroke:#000000;stroke-width:1;stroke-linecap:butt;stroke-linejoin:round;stroke-miterlimit:4;stroke-opacity:1;stroke-dasharray:none"
       d="m 35,967.36088 -0.252759,-25 20.252759,0 2.41998,5 5,-10 5,10 5,-10 5,10 5,-10 5.02528,10.14251 5,-9.79881 2.55474,4.6563 20,0"
       id="path5037"
       inkscape:connector-curvature="0"
       sodipodi:nodetypes="ccccccccccccc" />
    <path
       sodipodi:type="arc"
       style="fill:#ffffff;stroke:#000000;stroke-width:1.04999999;stroke-miterlimit:4;stroke-dasharray:none"
       id="path5068"
       sodipodi:cx="185"
       sodipodi:cy="163.46457"
       sodipodi:rx="3"
       sodipodi:ry="3"
       d="m 188,163.46457 c 0,1.65685 -1.34315,3 -3,3 -1.65685,0 -3,-1.34315 -3,-3 0,-1.65686 1.34315,-3 3,-3 1.65685,0 3,1.34314 3,3 z"
       transform="matrix(0.66666667,0,0,0.66666667,-8.084848,833.32978)" />
    <path
       style="fill:none;stroke:#000000;stroke-width:1px;stroke-linecap:butt;stroke-linejoin:miter;stroke-opacity:1"
       d="m 35,208.46457 0,25"
       id="path3899"
       inkscape:connector-curvature="0"
       transform="translate(0,768.89631)" />
    <path
       style="fill:none;stroke:#000000;stroke-width:0.99212597999999996;stroke-linecap:round;stroke-linejoin:miter;stroke-opacity:1;stroke-miterlimit:4;stroke-dasharray:none"
       d="m 25,233.46457 20,0"
       id="path3901"
       inkscape:connector-curvature="0"
       transform="translate(0,768.89631)" />
    <path
       style="fill:none;stroke:#000000;stroke-width:0.99212597999999996;stroke-linecap:round;stroke-linejoin:miter;stroke-opacity:1;stroke-miterlimit:4;stroke-dasharray:none"
       d="m 30,238.46457 10,0"
       id="path3903"
       inkscape:connector-curvature="0"
       transform="translate(0,768.89631)" />
    <path
       style="fill:none;stroke:#000000;stroke-width:1px;stroke-linecap:butt;stroke-linejoin:miter;stroke-opacity:1"
       d="m 35,238.46457 0,20 210,0 0,-40"
       id="path3905"
       inkscape:connector-curvature="0"
       transform="translate(0,768.89631)" />
    <path
       inkscape:connector-curvature="0"
       id="path3907"
       d="m 235,982.36088 20,0"
       style="fill:none;stroke:#000000;stroke-width:0.99212597999999996;stroke-linecap:round;stroke-linejoin:miter;stroke-opacity:1;stroke-miterlimit:4;stroke-dasharray:none" />
    <path
       inkscape:connector-curvature="0"
       id="path3909"
       d="m 240,987.36088 10,0"
       style="fill:none;stroke:#000000;stroke-width:0.99212597999999996;stroke-linecap:round;stroke-linejoin:miter;stroke-opacity:1;stroke-miterlimit:4;stroke-dasharray:none" />
    <path
       sodipodi:nodetypes="ccccccccccccc"
       inkscape:connector-curvature="0"
       id="path3911"
       d="m 175,882.36088 70,0 0,20 -5,2.41998 10,5 -10,5 10,5 -10,5 10,5 -10.14251,5.02528 9.79881,5 -4.6563,2.55474 0,40"
       style="fill:none;stroke:#000000;stroke-width:1;stroke-linecap:butt;stroke-linejoin:round;stroke-miterlimit:4;stroke-opacity:1;stroke-dasharray:none" />
    <path
       transform="matrix(0.66666667,0,0,0.66666667,51.666666,773.3845)"
       d="m 188,163.46457 c 0,1.65685 -1.34315,3 -3,3 -1.65685,0 -3,-1.34315 -3,-3 0,-1.65686 1.34315,-3 3,-3 1.65685,0 3,1.34314 3,3 z"
       sodipodi:ry="3"
       sodipodi:rx="3"
       sodipodi:cy="163.46457"
       sodipodi:cx="185"
       id="path5066"
       style="fill:#ffffff;stroke:#000000;stroke-width:1.04999999;stroke-miterlimit:4;stroke-dasharray:none"
       sodipodi:type="arc" />
    <path
       style="fill:none;stroke:#000000;stroke-width:0.80000001;stroke-linecap:butt;stroke-linejoin:miter;stroke-miterlimit:4;stroke-opacity:1;stroke-dasharray:none;marker-end:url(#Arrow1Mend)"
       d="m 208.12076,889.94616 -20,0"
       id="path3913"
       inkscape:connector-curvature="0" />
    <g
       style="font-style:normal;font-variant:normal;font-weight:normal;font-stretch:normal;letter-spacing:normal;word-spacing:normal;text-anchor:start;fill:none;stroke:#000000;stroke-width:1;stroke-linecap:butt;stroke-linejoin:miter;stroke-miterlimit:10.43299961;stroke-opacity:1;stroke-dasharray:none;stroke-dashoffset:0"
       ns0:preamble="/home/sriranga/Desktop/MCT/package.tex"
       ns0:text="$v_i$"
       word-spacing="normal"
       letter-spacing="normal"
       font-size-adjust="none"
       font-stretch="normal"
       font-weight="normal"
       font-variant="normal"
       font-style="normal"
       stroke-miterlimit="10.433"
       xml:space="preserve"
       transform="matrix(1.2,0,0,-1.2,-257.0448,1819.4584)"
       id="g4057"><path
         id="path4059"
         d="m 223.64,711.13 0.02,0 0.02,0 0.02,0 0.02,0 0.02,0 0.01,0.01 0.02,0 0.02,0 0.04,0 0.01,0 0.02,0 0.02,0 0.02,0 0.02,0 0.02,0 c 0.39,0 0.49,-0.17 0.63,-1.09 0.1,-0.68 0.22,-2.18 0.22,-2.76 0,-0.27 0.01,-0.34 0.09,-0.34 0.24,0 1.17,1.05 2.18,2.46 0.35,0.5 0.61,1.14 0.61,1.51 0,0.32 -0.26,0.59 -0.56,0.59 -0.22,0 -0.37,-0.13 -0.37,-0.34 0,-0.16 0.06,-0.28 0.24,-0.44 0.13,-0.12 0.18,-0.2 0.18,-0.3 0,-0.45 -0.65,-1.56 -1.36,-2.29 l -0.31,-0.32 c -0.07,1.4 -0.13,1.92 -0.26,2.65 -0.2,1.02 -0.2,1.04 -0.29,1.04 -0.04,0 -0.12,-0.01 -0.2,-0.04 -0.17,-0.05 -0.72,-0.15 -1.1,-0.21 z"
         inkscape:connector-curvature="0"
         style="fill:#000000;stroke-width:0" /><path
         id="path4061"
         d="m 229.4,706.42 -0.01,-0.02 -0.02,-0.02 -0.01,-0.01 -0.02,-0.02 -0.01,-0.02 -0.01,-0.01 -0.01,-0.02 -0.01,-0.01 -0.01,-0.02 -0.01,-0.01 -0.01,-0.01 -0.01,-0.02 -0.01,-0.01 -0.01,-0.01 -0.01,-0.01 -0.01,-0.01 0,-0.01 -0.01,-0.01 -0.01,-0.01 -0.01,0 0,-0.01 -0.01,-0.01 -0.01,-0.01 -0.02,-0.02 -0.01,-0.01 -0.01,-0.02 -0.01,-0.01 c -0.12,-0.12 -0.23,-0.19 -0.29,-0.19 -0.06,0 -0.11,0.06 -0.11,0.11 0,0.06 0.02,0.17 0.07,0.3 0,0.02 0.02,0.07 0.03,0.13 v 0.01 l 0.01,0.02 0.61,2.23 -0.02,0.02 c -0.7,-0.13 -0.84,-0.16 -1.11,-0.18 v -0.11 c 0.37,0 0.44,-0.02 0.44,-0.16 0,-0.06 -0.02,-0.17 -0.07,-0.31 l -0.33,-1.23 c -0.11,-0.41 -0.15,-0.62 -0.15,-0.76 0,-0.26 0.11,-0.4 0.32,-0.4 0.32,0 0.58,0.21 0.97,0.8 z"
         inkscape:connector-curvature="0"
         style="fill:#000000;stroke-width:0" /><path
         id="path4063"
         d="m 229.35,710.18 -0.02,0 -0.02,0 -0.02,-0.01 -0.01,0 -0.02,0 -0.01,-0.01 -0.02,0 -0.01,-0.01 -0.02,-0.01 -0.01,0 -0.02,-0.01 -0.01,-0.01 -0.01,-0.01 -0.02,-0.01 -0.01,-0.02 -0.01,-0.01 -0.01,-0.01 -0.01,-0.01 -0.01,-0.02 -0.01,-0.01 -0.01,-0.02 0,-0.01 -0.01,-0.02 -0.01,-0.01 0,-0.02 -0.01,-0.02 0,-0.02 0,-0.01 -0.01,-0.02 0,-0.02 0,-0.02 0,-0.02 c 0,-0.22 0.13,-0.37 0.33,-0.37 0.18,0 0.35,0.16 0.35,0.36 0,0.2 -0.17,0.38 -0.35,0.38 z"
         inkscape:connector-curvature="0"
         style="fill:#000000;stroke-width:0" /></g>    <g
       id="g4159"
       transform="matrix(1.2,0,0,-1.2,-263.31153,1856.7764)"
       xml:space="preserve"
       stroke-miterlimit="10.433"
       font-style="normal"
       font-variant="normal"
       font-weight="normal"
       font-stretch="normal"
       font-size-adjust="none"
       letter-spacing="normal"
       word-spacing="normal"
       ns0:text="$V_{BB}$"
       ns0:preamble="/home/sriranga/Desktop/MCT/package.tex"
       style="font-style:normal;font-variant:normal;font-weight:normal;font-stretch:normal;letter-spacing:normal;word-spacing:normal;text-anchor:start;fill:none;stroke:#000000;stroke-width:1;stroke-linecap:butt;stroke-linejoin:miter;stroke-miterlimit:10.43299961;stroke-opacity:1;stroke-dasharray:none;stroke-dashoffset:0"><path
         style="fill:#000000;stroke-width:0"
         inkscape:connector-curvature="0"
         d="m 230.28,713.61 h -1.85 v -0.16 c 0.44,-0.05 0.62,-0.15 0.62,-0.34 0,-0.18 -0.19,-0.61 -0.51,-1.18 l -2.05,-3.53 -0.66,4.4 c -0.01,0.05 -0.01,0.09 -0.01,0.15 0,0.33 0.14,0.43 0.77,0.5 v 0.16 h -2.4 v -0.16 c 0.55,-0.07 0.57,-0.1 0.78,-1.34 l 0.85,-5.16 h 0.19 l 3.71,6.1 c 0.17,0.27 0.33,0.39 0.56,0.4 z"
         id="path4161" /><path
         style="fill:#000000;stroke-width:0"
         inkscape:connector-curvature="0"
         d="m 229.71,705.63 h 1.96 c 1.09,0 1.85,0.57 1.85,1.39 0,0.26 -0.09,0.5 -0.24,0.65 -0.14,0.17 -0.28,0.25 -0.64,0.4 0.49,0.12 0.7,0.2 0.92,0.4 0.19,0.17 0.3,0.4 0.3,0.68 0,0.66 -0.5,1.02 -1.4,1.02 l -0.12,-0.21 c 0.56,0 0.81,-0.23 0.81,-0.75 0,-0.39 -0.16,-0.7 -0.46,-0.87 -0.24,-0.14 -0.57,-0.18 -1.2,-0.18 l -0.07,-0.23 c 0.45,0 0.75,-0.02 0.88,-0.08 0.29,-0.12 0.46,-0.43 0.46,-0.8 0,-0.75 -0.51,-1.21 -1.36,-1.21 -0.29,0 -0.45,0.1 -0.45,0.29 0,0.09 0.09,0.42 0.25,0.97 0.09,0.32 0.13,0.48 0.22,0.83 h 0 l 0.07,0.23 0.45,1.61 c 0.05,0.15 0.13,0.19 0.4,0.19 l 0.12,0.21 h -1.79 v -0.11 c 0.43,-0.03 0.54,-0.09 0.54,-0.28 0,-0.11 -0.03,-0.28 -0.08,-0.45 l -0.86,-3.07 c -0.12,-0.41 -0.17,-0.45 -0.56,-0.52 z"
         id="path4163" /><path
         style="fill:#000000;stroke-width:0"
         inkscape:connector-curvature="0"
         d="m 234.14,705.63 h 1.97 c 1.09,0 1.84,0.57 1.84,1.39 0,0.26 -0.08,0.5 -0.24,0.65 -0.13,0.17 -0.27,0.25 -0.64,0.4 0.5,0.12 0.7,0.2 0.92,0.4 0.2,0.17 0.3,0.4 0.3,0.68 0,0.66 -0.49,1.02 -1.39,1.02 l -0.13,-0.21 c 0.56,0 0.82,-0.23 0.82,-0.75 0,-0.39 -0.17,-0.7 -0.47,-0.87 -0.23,-0.14 -0.57,-0.18 -1.19,-0.18 l -0.07,-0.23 c 0.45,0 0.74,-0.02 0.88,-0.08 0.29,-0.12 0.46,-0.43 0.46,-0.8 0,-0.75 -0.52,-1.21 -1.36,-1.21 -0.3,0 -0.45,0.1 -0.45,0.29 0,0.09 0.08,0.42 0.24,0.97 0.09,0.32 0.13,0.48 0.23,0.83 h 0 l 0.07,0.23 0.45,1.61 c 0.04,0.15 0.12,0.19 0.39,0.19 l 0.13,0.21 h -1.8 v -0.11 c 0.44,-0.03 0.54,-0.09 0.54,-0.28 0,-0.11 -0.03,-0.28 -0.08,-0.45 l -0.85,-3.07 c -0.13,-0.41 -0.18,-0.45 -0.57,-0.52 z"
         id="path4165" /></g>    <g
       style="font-style:normal;font-variant:normal;font-weight:normal;font-stretch:normal;letter-spacing:normal;word-spacing:normal;text-anchor:start;fill:none;stroke:#000000;stroke-width:1;stroke-linecap:butt;stroke-linejoin:miter;stroke-miterlimit:10.43299961;stroke-opacity:1;stroke-dasharray:none;stroke-dashoffset:0"
       ns0:preamble="/home/sriranga/Desktop/MCT/package.tex"
       ns0:text="$R_B$"
       word-spacing="normal"
       letter-spacing="normal"
       font-size-adjust="none"
       font-stretch="normal"
       font-weight="normal"
       font-variant="normal"
       font-style="normal"
       stroke-miterlimit="10.433"
       xml:space="preserve"
       transform="matrix(1.2,0,0,-1.2,-198.78218,1778.9958)"
       id="g4278"><path
         id="path4280"
         d="m 229.07,707.28 -0.04,0.01 -0.04,0 -0.03,0.01 -0.04,0 -0.04,0.01 -0.03,0.01 -0.03,0.01 -0.03,0.01 -0.03,0.01 -0.03,0.01 -0.03,0.01 -0.03,0.02 -0.03,0.01 -0.02,0.02 -0.03,0.02 -0.02,0.02 -0.03,0.02 -0.02,0.02 -0.02,0.03 -0.02,0.02 -0.02,0.03 -0.03,0.03 -0.02,0.03 -0.02,0.03 -0.01,0.04 -0.02,0.03 -0.02,0.04 -0.02,0.04 -0.02,0.04 -0.02,0.05 -0.02,0.04 -0.01,0.05 -0.93,2.43 c 0.77,0.17 1.1,0.31 1.45,0.63 0.33,0.29 0.51,0.67 0.51,1.12 0,0.92 -0.73,1.43 -2.07,1.43 l -0.21,-0.3 c 0.83,0 1.24,-0.37 1.24,-1.11 0,-0.98 -0.64,-1.49 -1.88,-1.49 -0.16,0 -0.27,0.01 -0.51,0.05 l 0.65,2.28 c 0.06,0.2 0.18,0.27 0.5,0.27 l 0.21,0.3 h -2.47 v -0.16 c 0.42,-0.06 0.47,-0.07 0.57,-0.14 0.08,-0.05 0.14,-0.16 0.14,-0.27 0,-0.12 -0.05,-0.36 -0.12,-0.63 l -1.22,-4.39 c -0.18,-0.59 -0.25,-0.65 -0.81,-0.74 v -0.16 h 2.43 v 0.16 c -0.61,0.08 -0.68,0.13 -0.68,0.46 0,0.1 0.03,0.23 0.12,0.58 l 0.56,2.07 0.65,-0.05 1.22,-3.22 h 1.47 z"
         inkscape:connector-curvature="0"
         style="fill:#000000;stroke-width:0" /><path
         id="path4282"
         d="m 229.71,705.63 h 1.96 c 1.09,0 1.85,0.57 1.85,1.39 0,0.26 -0.09,0.5 -0.24,0.65 -0.14,0.17 -0.28,0.25 -0.64,0.4 0.49,0.12 0.7,0.2 0.92,0.4 0.19,0.17 0.3,0.4 0.3,0.68 0,0.66 -0.5,1.02 -1.4,1.02 l -0.12,-0.21 c 0.56,0 0.81,-0.23 0.81,-0.75 0,-0.39 -0.16,-0.7 -0.46,-0.87 -0.24,-0.14 -0.57,-0.18 -1.2,-0.18 l -0.07,-0.23 c 0.45,0 0.75,-0.02 0.88,-0.08 0.29,-0.12 0.46,-0.43 0.46,-0.8 0,-0.75 -0.51,-1.21 -1.36,-1.21 -0.29,0 -0.45,0.1 -0.45,0.29 0,0.09 0.09,0.42 0.25,0.97 0.09,0.32 0.13,0.48 0.22,0.83 h 0 l 0.07,0.23 0.45,1.61 c 0.05,0.15 0.13,0.19 0.4,0.19 l 0.12,0.21 h -1.79 v -0.11 c 0.43,-0.03 0.54,-0.09 0.54,-0.28 0,-0.11 -0.03,-0.28 -0.08,-0.45 l -0.86,-3.07 c -0.12,-0.41 -0.17,-0.45 -0.56,-0.52 z"
         inkscape:connector-curvature="0"
         style="fill:#000000;stroke-width:0" /></g>    <g
       id="g4386"
       transform="matrix(1.2,0,0,-1.2,-12.90669,1772.5872)"
       xml:space="preserve"
       stroke="black"
       stroke-linecap="butt"
       stroke-linejoin="miter"
       stroke-miterlimit="10.433"
       stroke-dasharray="none"
       stroke-dashoffset="0"
       stroke-opacity="1"
       fill="none"
       fill-rule="evenodd"
       fill-opacity="1"
       font-style="normal"
       font-variant="normal"
       font-weight="normal"
       font-stretch="normal"
       font-size-adjust="none"
       letter-spacing="normal"
       word-spacing="normal"
       text-anchor="start"
       ns0:text="$R_C $"
       ns0:preamble="/home/sriranga/Desktop/MCT/package.tex"
       style="font-style:normal;font-variant:normal;font-weight:normal;font-stretch:normal;letter-spacing:normal;word-spacing:normal;text-anchor:start;fill:none;stroke:#000000;stroke-width:1;stroke-linecap:butt;stroke-linejoin:miter;stroke-miterlimit:10.43299961;stroke-opacity:1;stroke-dasharray:none;stroke-dashoffset:0"><path
         d="M229.07,707.28 L229.03,707.29 L228.99,707.29 L228.96,707.3 L228.92,707.3 L228.88,707.31 L228.85,707.32 L228.82,707.33 L228.79,707.34 L228.76,707.35 L228.73,707.36 L228.7,707.37 L228.67,707.39 L228.64,707.4 L228.62,707.42 L228.59,707.44 L228.57,707.46 L228.54,707.48 L228.52,707.5 L228.5,707.53 L228.48,707.55 L228.46,707.58 L228.43,707.61 L228.41,707.64 L228.39,707.67 L228.38,707.71 L228.36,707.74 L228.34,707.78 L228.32,707.82 L228.3,707.86 L228.28,707.91 L228.26,707.95 L228.25,708 L227.32,710.43 C228.09,710.6,228.42,710.74,228.77,711.06 C229.1,711.35,229.28,711.73,229.28,712.18 C229.28,713.1,228.55,713.61,227.21,713.61 L227,713.31 C227.83,713.31,228.24,712.94,228.24,712.2 C228.24,711.22,227.6,710.71,226.36,710.71 C226.2,710.71,226.09,710.72,225.85,710.76 L226.5,713.04 C226.56,713.24,226.68,713.31,227,713.31 L227.21,713.61 H224.74 V713.45 C225.16,713.39,225.21,713.38,225.31,713.31 C225.39,713.26,225.45,713.15,225.45,713.04 C225.45,712.92,225.4,712.68,225.33,712.41 L224.11,708.02 C223.93,707.43,223.86,707.37,223.3,707.28 V707.12 H225.73 V707.28 C225.12,707.36,225.05,707.41,225.05,707.74 C225.05,707.84,225.08,707.97,225.17,708.32 L225.73,710.39 L226.38,710.34 L227.6,707.12 H229.07 Z "
         stroke-width="0"
         fill="black"
         id="path4388" /><path
         d="M233.89,708.86 L234.14,710.25 H234 C233.94,710.14,233.87,710.09,233.73,710.09 C233.68,710.09,233.59,710.11,233.45,710.14 C233.13,710.22,232.85,710.26,232.63,710.26 C231.15,710.26,229.8,708.86,229.8,707.32 C229.8,706.26,230.56,705.51,231.62,705.51 C232.34,705.51,232.9,705.81,233.52,706.54 L233.4,706.64 C232.78,706.03,232.38,705.82,231.8,705.82 C231.03,705.82,230.59,706.35,230.59,707.24 C230.59,708.07,230.92,708.91,231.46,709.48 C231.8,709.82,232.24,710.01,232.7,710.01 C233.34,710.01,233.69,709.64,233.76,708.89 Z "
         stroke-width="0"
         fill="black"
         id="path4390" /></g>    <g
       id="g4623"
       transform="matrix(1.2,0,0,-1.2,-9.6550991,1837.1487)"
       xml:space="preserve"
       stroke-miterlimit="10.433"
       font-style="normal"
       font-variant="normal"
       font-weight="normal"
       font-stretch="normal"
       font-size-adjust="none"
       letter-spacing="normal"
       word-spacing="normal"
       ns0:text="$V_{CC}$"
       ns0:preamble="/home/sriranga/Desktop/MCT/package.tex"
       style="font-style:normal;font-variant:normal;font-weight:normal;font-stretch:normal;letter-spacing:normal;word-spacing:normal;text-anchor:start;fill:none;stroke:#000000;stroke-width:1;stroke-linecap:butt;stroke-linejoin:miter;stroke-miterlimit:10.43299961;stroke-opacity:1;stroke-dasharray:none;stroke-dashoffset:0"><path
         style="fill:#000000;stroke-width:0"
         inkscape:connector-curvature="0"
         d="m 230.28,713.61 h -1.85 v -0.16 c 0.44,-0.05 0.62,-0.15 0.62,-0.34 0,-0.18 -0.19,-0.61 -0.51,-1.18 l -2.05,-3.53 -0.66,4.4 c -0.01,0.05 -0.01,0.09 -0.01,0.15 0,0.33 0.14,0.43 0.77,0.5 v 0.16 h -2.4 v -0.16 c 0.55,-0.07 0.57,-0.1 0.78,-1.34 l 0.85,-5.16 h 0.19 l 3.71,6.1 c 0.17,0.27 0.33,0.39 0.56,0.4 z"
         id="path4625" /><path
         style="fill:#000000;stroke-width:0"
         inkscape:connector-curvature="0"
         d="m 233.89,708.86 0.25,1.39 H 234 c -0.06,-0.11 -0.13,-0.16 -0.27,-0.16 -0.05,0 -0.14,0.02 -0.28,0.05 -0.32,0.08 -0.6,0.12 -0.82,0.12 -1.48,0 -2.83,-1.4 -2.83,-2.94 0,-1.06 0.76,-1.81 1.82,-1.81 0.72,0 1.28,0.3 1.9,1.03 l -0.12,0.1 c -0.62,-0.61 -1.02,-0.82 -1.6,-0.82 -0.77,0 -1.21,0.53 -1.21,1.42 0,0.83 0.33,1.67 0.87,2.24 0.34,0.34 0.78,0.53 1.24,0.53 0.64,0 0.99,-0.37 1.06,-1.12 z"
         id="path4627" /><path
         style="fill:#000000;stroke-width:0"
         inkscape:connector-curvature="0"
         d="m 238.69,708.86 0.26,1.39 h -0.15 c -0.05,-0.11 -0.12,-0.16 -0.26,-0.16 -0.06,0 -0.14,0.02 -0.29,0.05 -0.31,0.08 -0.59,0.12 -0.81,0.12 -1.49,0 -2.83,-1.4 -2.83,-2.94 0,-1.06 0.75,-1.81 1.82,-1.81 0.72,0 1.27,0.3 1.9,1.03 l -0.12,0.1 c -0.63,-0.61 -1.03,-0.82 -1.6,-0.82 -0.77,0 -1.22,0.53 -1.22,1.42 0,0.83 0.33,1.67 0.88,2.24 0.33,0.34 0.77,0.53 1.23,0.53 0.64,0 1,-0.37 1.07,-1.12 z"
         id="path4629" /></g>    <g
       id="g4983"
       transform="matrix(1.2,0,0,-1.2,-88.06143,1773.4036)"
       xml:space="preserve"
       stroke-miterlimit="10.433"
       font-style="normal"
       font-variant="normal"
       font-weight="normal"
       font-stretch="normal"
       font-size-adjust="none"
       letter-spacing="normal"
       word-spacing="normal"
       ns0:text="$+$"
       ns0:preamble="/home/sriranga/Desktop/MCT/package.tex"
       style="font-style:normal;font-variant:normal;font-weight:normal;font-stretch:normal;letter-spacing:normal;word-spacing:normal;text-anchor:start;fill:none;stroke:#000000;stroke-width:1;stroke-linecap:butt;stroke-linejoin:miter;stroke-miterlimit:10.43299961;stroke-opacity:1;stroke-dasharray:none;stroke-dashoffset:0"><polygon
         points="226.87,712.2 226.32,712.2 226.32,709.96 224.05,709.96 224.05,709.4 226.32,709.4 226.32,707.12 226.87,707.12 226.87,709.4 229.14,709.4 229.14,709.96 226.87,709.96 "
         id="polygon4985"
         style="fill:#000000;stroke-width:0" /></g>    <g
       style="font-style:normal;font-variant:normal;font-weight:normal;font-stretch:normal;letter-spacing:normal;word-spacing:normal;text-anchor:start;fill:none;stroke:#000000;stroke-width:1;stroke-linecap:butt;stroke-linejoin:miter;stroke-miterlimit:10.43299961;stroke-opacity:1;stroke-dasharray:none;stroke-dashoffset:0"
       ns0:preamble="/home/sriranga/Desktop/MCT/package.tex"
       ns0:text="$-$"
       word-spacing="normal"
       letter-spacing="normal"
       font-size-adjust="none"
       font-stretch="normal"
       font-weight="normal"
       font-variant="normal"
       font-style="normal"
       stroke-miterlimit="10.433"
       xml:space="preserve"
       transform="matrix(1.2,0,0,-1.2,-89.76657,1814.4201)"
       id="g5195"><polygon
         id="polygon5197"
         points="224.05,709.96 224.05,709.4 229.14,709.4 229.14,709.96 "
         style="fill:#000000;stroke-width:0" /></g>    <g
       style="font-style:normal;font-variant:normal;font-weight:normal;font-stretch:normal;letter-spacing:normal;word-spacing:normal;text-anchor:start;fill:none;stroke:#000000;stroke-width:1;stroke-linecap:butt;stroke-linejoin:miter;stroke-miterlimit:10.43299961;stroke-opacity:1;stroke-dasharray:none;stroke-dashoffset:0"
       ns0:preamble="/home/sriranga/Desktop/MCT/package.tex"
       ns0:text="$V_{CE}$"
       word-spacing="normal"
       letter-spacing="normal"
       font-size-adjust="none"
       font-stretch="normal"
       font-weight="normal"
       font-variant="normal"
       font-style="normal"
       stroke-miterlimit="10.433"
       xml:space="preserve"
       transform="matrix(1.2,0,0,-1.2,-92.974909,1793.3784)"
       id="g4800"><path
         id="path4802"
         d="m 230.28,713.61 h -1.85 v -0.16 c 0.44,-0.05 0.62,-0.15 0.62,-0.34 0,-0.18 -0.19,-0.61 -0.51,-1.18 l -2.05,-3.53 -0.66,4.4 c -0.01,0.05 -0.01,0.09 -0.01,0.15 0,0.33 0.14,0.43 0.77,0.5 v 0.16 h -2.4 v -0.16 c 0.55,-0.07 0.57,-0.1 0.78,-1.34 l 0.85,-5.16 h 0.19 l 3.71,6.1 c 0.17,0.27 0.33,0.39 0.56,0.4 z"
         inkscape:connector-curvature="0"
         style="fill:#000000;stroke-width:0" /><path
         id="path4804"
         d="m 233.89,708.86 0.25,1.39 H 234 c -0.06,-0.11 -0.13,-0.16 -0.27,-0.16 -0.05,0 -0.14,0.02 -0.28,0.05 -0.32,0.08 -0.6,0.12 -0.82,0.12 -1.48,0 -2.83,-1.4 -2.83,-2.94 0,-1.06 0.76,-1.81 1.82,-1.81 0.72,0 1.28,0.3 1.9,1.03 l -0.12,0.1 c -0.62,-0.61 -1.02,-0.82 -1.6,-0.82 -0.77,0 -1.21,0.53 -1.21,1.42 0,0.83 0.33,1.67 0.87,2.24 0.34,0.34 0.78,0.53 1.24,0.53 0.64,0 0.99,-0.37 1.06,-1.12 z"
         inkscape:connector-curvature="0"
         style="fill:#000000;stroke-width:0" /><path
         id="path4806"
         d="m 238.91,710.17 h -3.46 v -0.11 c 0.43,-0.04 0.54,-0.1 0.54,-0.28 0,-0.08 -0.04,-0.32 -0.08,-0.45 l -0.85,-3.07 c -0.12,-0.4 -0.18,-0.45 -0.57,-0.52 v -0.11 h 3.53 l 0.43,1.13 -0.11,0.05 c -0.32,-0.44 -0.5,-0.62 -0.8,-0.76 -0.26,-0.12 -0.74,-0.19 -1.26,-0.19 -0.39,0 -0.56,0.07 -0.56,0.24 0,0.07 0.08,0.4 0.26,1.01 0.09,0.31 0.15,0.54 0.22,0.8 0.24,-0.01 0.46,-0.02 0.54,-0.02 0.27,0.01 0.47,-0.03 0.54,-0.1 0.04,-0.04 0.05,-0.1 0.05,-0.22 0,-0.12 -0.01,-0.21 -0.05,-0.36 l 0.14,-0.04 0.48,1.62 -0.13,0.03 c -0.26,-0.6 -0.32,-0.64 -0.96,-0.66 -0.08,0 -0.31,-0.01 -0.55,-0.02 l 0.46,1.62 c 0.04,0.15 0.12,0.18 0.51,0.18 1.09,0 1.34,-0.09 1.34,-0.51 0,-0.09 -0.01,-0.19 -0.02,-0.31 l 0.15,-0.01 z"
         inkscape:connector-curvature="0"
         style="fill:#000000;stroke-width:0" /></g>    <path
       transform="matrix(3.4875053,0,0,3.487506,-610.18847,400.93422)"
       d="m 188,163.46457 c 0,1.65685 -1.34315,3 -3,3 -1.65685,0 -3,-1.34315 -3,-3 0,-1.65686 1.34315,-3 3,-3 1.65685,0 3,1.34314 3,3 z"
       sodipodi:ry="3"
       sodipodi:rx="3"
       sodipodi:cy="163.46457"
       sodipodi:cx="185"
       id="path3020"
       style="fill:#ffffff;stroke:#000000;stroke-width:0.22939032;stroke-miterlimit:4;stroke-dasharray:none"
       sodipodi:type="arc" />
    <g
       style="font-style:normal;font-variant:normal;font-weight:normal;font-stretch:normal;letter-spacing:normal;word-spacing:normal;text-anchor:start;fill:none;stroke:#000000;stroke-width:0.41616446;stroke-linecap:butt;stroke-linejoin:miter;stroke-miterlimit:10.43299961;stroke-opacity:1;stroke-dasharray:none;stroke-dashoffset:0"
       ns0:preamble="/home/sriranga/Desktop/MCT/package.tex"
       ns0:text="$\\sim$"
       word-spacing="normal"
       letter-spacing="normal"
       font-size-adjust="none"
       font-stretch="normal"
       font-weight="normal"
       font-variant="normal"
       font-style="normal"
       stroke-miterlimit="10.433"
       xml:space="preserve"
       transform="matrix(2.7020157,0,0,-3.0771218,-577.11534,3154.7743)"
       id="content"><path
         id="path3085"
         d="m 229.21,710.37 -0.2,0.09 c -0.16,-0.57 -0.47,-1.07 -1.13,-1.07 -0.78,0 -1.43,1.08 -2.33,1.08 -0.86,0 -1.33,-0.51 -1.56,-1.31 l 0.2,-0.08 c 0.23,0.51 0.58,0.88 1.17,0.88 0.78,0 1.35,-1.08 2.32,-1.08 0.95,0 1.39,0.61 1.53,1.49 z"
         inkscape:connector-curvature="0"
         style="fill:#000000;stroke-width:0" /></g>    <path
       sodipodi:type="arc"
       id="path3040"
       style="fill:#000000;stroke:none"
       sodipodi:cx="175"
       sodipodi:cy="1027.3608"
       sodipodi:rx="2.5"
       sodipodi:ry="2.5"
       d="m 177.5,1027.3608 a 2.5,2.5 0 1 1 -5,0 2.5,2.5 0 1 1 5,0 z" />
    <path
       transform="matrix(0.82493834,0,0,0.82493834,-36.890292,807.45797)"
       d="m 188,163.46457 a 3,3 0 1 1 -6,0 3,3 0 1 1 6,0 z"
       sodipodi:ry="3"
       sodipodi:rx="3"
       sodipodi:cy="163.46457"
       sodipodi:cx="185"
       id="path3816"
       style="fill:#ffffff;stroke:#000000;stroke-width:0.84854823;stroke-miterlimit:4;stroke-dasharray:none"
       sodipodi:type="arc" />
    <path
       sodipodi:type="arc"
       style="fill:#ffffff;stroke:#000000;stroke-width:0.84854823;stroke-miterlimit:4;stroke-dasharray:none"
       id="path3818"
       sodipodi:cx="185"
       sodipodi:cy="163.46457"
       sodipodi:rx="3"
       sodipodi:ry="3"
       d="m 188,163.46457 a 3,3 0 1 1 -6,0 3,3 0 1 1 6,0 z"
       transform="matrix(0.82493834,0,0,0.82493834,22.327056,747.51269)" />
  </g>
</svg>
