<?xml version="1.0" encoding="UTF-8" standalone="no"?>
<!-- Created with Inkscape (http://www.inkscape.org/) -->

<svg
   xmlns:ns0="http://www.iki.fi/pav/software/textext/"
   xmlns:dc="http://purl.org/dc/elements/1.1/"
   xmlns:cc="http://creativecommons.org/ns#"
   xmlns:rdf="http://www.w3.org/1999/02/22-rdf-syntax-ns#"
   xmlns:svg="http://www.w3.org/2000/svg"
   xmlns="http://www.w3.org/2000/svg"
   xmlns:sodipodi="http://sodipodi.sourceforge.net/DTD/sodipodi-0.dtd"
   xmlns:inkscape="http://www.inkscape.org/namespaces/inkscape"
   sodipodi:docname="fig2.28.svg"
   inkscape:version="0.48.4 r9939"
   version="1.1"
   id="svg2"
   height="354.33069"
   width="496.06299">
  <sodipodi:namedview
     id="base"
     pagecolor="#ffffff"
     bordercolor="#666666"
     borderopacity="1.0"
     inkscape:pageopacity="0.0"
     inkscape:pageshadow="2"
     inkscape:zoom="1.744218"
     inkscape:cx="247.57595"
     inkscape:cy="206.06647"
     inkscape:document-units="cm"
     inkscape:current-layer="layer1"
     showgrid="false"
     units="cm"
     inkscape:window-width="1366"
     inkscape:window-height="744"
     inkscape:window-x="0"
     inkscape:window-y="24"
     inkscape:window-maximized="1"
     inkscape:snap-global="true"
     inkscape:snap-bbox="false"
     inkscape:object-paths="false"
     inkscape:object-nodes="true">
    <inkscape:grid
       snapvisiblegridlinesonly="true"
       enabled="true"
       visible="true"
       empspacing="5"
       id="grid2985"
       type="xygrid" />
  </sodipodi:namedview>
  <defs
     id="defs4">
    <marker
       style="overflow:visible"
       id="Arrow1Mend"
       refX="0"
       refY="0"
       orient="auto"
       inkscape:stockid="Arrow1Mend">
      <path
         transform="matrix(-0.4,0,0,-0.4,-4,0)"
         style="fill-rule:evenodd;stroke:#000000;stroke-width:1pt"
         d="M 0,0 5,-5 -12.5,0 5,5 0,0 z"
         id="path5100"
         inkscape:connector-curvature="0" />
    </marker>
    <marker
       style="overflow:visible"
       id="Arrow1Mend-6"
       refX="0"
       refY="0"
       orient="auto"
       inkscape:stockid="Arrow1Mend">
      <path
         transform="matrix(-0.4,0,0,-0.4,-4,0)"
         style="fill-rule:evenodd;stroke:#000000;stroke-width:1pt"
         d="M 0,0 5,-5 -12.5,0 5,5 0,0 z"
         id="path5100-8"
         inkscape:connector-curvature="0" />
    </marker>
    <marker
       inkscape:stockid="Arrow1Mend"
       orient="auto"
       refY="0"
       refX="0"
       id="Arrow1Mend-9"
       style="overflow:visible">
      <path
         inkscape:connector-curvature="0"
         id="path5100-86"
         d="M 0,0 5,-5 -12.5,0 5,5 0,0 z"
         style="fill-rule:evenodd;stroke:#000000;stroke-width:1pt"
         transform="matrix(-0.4,0,0,-0.4,-4,0)" />
    </marker>
    <marker
       style="overflow:visible"
       id="Arrow1Mend-62"
       refX="0"
       refY="0"
       orient="auto"
       inkscape:stockid="Arrow1Mend">
      <path
         transform="matrix(-0.4,0,0,-0.4,-4,0)"
         style="fill-rule:evenodd;stroke:#000000;stroke-width:1pt"
         d="M 0,0 5,-5 -12.5,0 5,5 0,0 z"
         id="path5100-5"
         inkscape:connector-curvature="0" />
    </marker>
  </defs>
  <metadata
     id="metadata7">
    <rdf:RDF>
      <cc:Work
         rdf:about="">
        <dc:format>image/svg+xml</dc:format>
        <dc:type
           rdf:resource="http://purl.org/dc/dcmitype/StillImage" />
        <dc:title></dc:title>
      </cc:Work>
    </rdf:RDF>
  </metadata>
  <g
     transform="translate(0,-698.03023)"
     id="layer1"
     inkscape:groupmode="layer"
     inkscape:label="Layer 1">
    <path
       inkscape:connector-curvature="0"
       id="path5073"
       d="m 272.1334,892.36092 0,20"
       style="fill:none;stroke:#000000;stroke-width:1.20000005;stroke-linecap:butt;stroke-linejoin:miter;stroke-miterlimit:4;stroke-opacity:1;stroke-dasharray:none"
       sodipodi:nodetypes="cc" />
    <path
       sodipodi:nodetypes="ccccccccccccccccc"
       inkscape:connector-curvature="0"
       id="path3835"
       d="m 172.1334,797.36092 26.30841,0.20761 2.30282,-0.009 2.26435,5.17455 4.56221,-10.61317 4.56221,10.61317 4.56221,-10.61317 4.56221,10.61317 4.56221,-10.61317 4.58529,10.71267 4.56221,-10.4727 4.56221,10.3732 4.56221,-10.61317 2.2748,5.43862 2.73733,0 78.02932,0.007 0,6.98181"
       style="fill:none;stroke:#000000;stroke-width:1.20000017;stroke-linecap:butt;stroke-linejoin:round;stroke-miterlimit:4;stroke-opacity:1;stroke-dasharray:none" />
    <g
       style="font-style:normal;font-variant:normal;font-weight:normal;font-stretch:normal;letter-spacing:normal;word-spacing:normal;text-anchor:start;fill:none;stroke:#000000;stroke-width:1;stroke-linecap:butt;stroke-linejoin:miter;stroke-miterlimit:10.43299961;stroke-opacity:1;stroke-dasharray:none;stroke-dashoffset:0"
       ns0:preamble="/home/sriranga/Desktop/MCT/package.tex"
       ns0:text="$v_i$"
       word-spacing="normal"
       letter-spacing="normal"
       font-size-adjust="none"
       font-stretch="normal"
       font-weight="normal"
       font-variant="normal"
       font-style="normal"
       stroke-miterlimit="10.433"
       xml:space="preserve"
       transform="matrix(1.2,0,0,-1.2,-103.59842,1695.2448)"
       id="g4145"><path
         style="fill:#000000;stroke-width:0"
         inkscape:connector-curvature="0"
         id="path4147"
         d="m 223.64,711.13 0.02,0 0.02,0 0.02,0 0.02,0 0.02,0 0.01,0.01 0.02,0 0.02,0 0.04,0 0.01,0 0.02,0 0.02,0 0.02,0 0.02,0 0.02,0 c 0.39,0 0.49,-0.17 0.63,-1.09 0.1,-0.68 0.22,-2.18 0.22,-2.76 0,-0.27 0.01,-0.34 0.09,-0.34 0.24,0 1.17,1.05 2.18,2.46 0.35,0.5 0.61,1.14 0.61,1.51 0,0.32 -0.26,0.59 -0.56,0.59 -0.22,0 -0.37,-0.13 -0.37,-0.34 0,-0.16 0.06,-0.28 0.24,-0.44 0.13,-0.12 0.18,-0.2 0.18,-0.3 0,-0.45 -0.65,-1.56 -1.36,-2.29 l -0.31,-0.32 c -0.07,1.4 -0.13,1.92 -0.26,2.65 -0.2,1.02 -0.2,1.04 -0.29,1.04 -0.04,0 -0.12,-0.01 -0.2,-0.04 -0.17,-0.05 -0.72,-0.15 -1.1,-0.21 z" /><path
         style="fill:#000000;stroke-width:0"
         inkscape:connector-curvature="0"
         id="path4149"
         d="m 229.4,706.42 -0.01,-0.02 -0.02,-0.02 -0.01,-0.01 -0.02,-0.02 -0.01,-0.02 -0.01,-0.01 -0.01,-0.02 -0.01,-0.01 -0.01,-0.02 -0.01,-0.01 -0.01,-0.01 -0.01,-0.02 -0.01,-0.01 -0.01,-0.01 -0.01,-0.01 -0.01,-0.01 0,-0.01 -0.01,-0.01 -0.01,-0.01 -0.01,0 0,-0.01 -0.01,-0.01 -0.01,-0.01 -0.02,-0.02 -0.01,-0.01 -0.01,-0.02 -0.01,-0.01 c -0.12,-0.12 -0.23,-0.19 -0.29,-0.19 -0.06,0 -0.11,0.06 -0.11,0.11 0,0.06 0.02,0.17 0.07,0.3 0,0.02 0.02,0.07 0.03,0.13 v 0.01 l 0.01,0.02 0.61,2.23 -0.02,0.02 c -0.7,-0.13 -0.84,-0.16 -1.11,-0.18 v -0.11 c 0.37,0 0.44,-0.02 0.44,-0.16 0,-0.06 -0.02,-0.17 -0.07,-0.31 l -0.33,-1.23 c -0.11,-0.41 -0.15,-0.62 -0.15,-0.76 0,-0.26 0.11,-0.4 0.32,-0.4 0.32,0 0.58,0.21 0.97,0.8 z" /><path
         style="fill:#000000;stroke-width:0"
         inkscape:connector-curvature="0"
         id="path4151"
         d="m 229.35,710.18 -0.02,0 -0.02,0 -0.02,-0.01 -0.01,0 -0.02,0 -0.01,-0.01 -0.02,0 -0.01,-0.01 -0.02,-0.01 -0.01,0 -0.02,-0.01 -0.01,-0.01 -0.01,-0.01 -0.02,-0.01 -0.01,-0.02 -0.01,-0.01 -0.01,-0.01 -0.01,-0.01 -0.01,-0.02 -0.01,-0.01 -0.01,-0.02 0,-0.01 -0.01,-0.02 -0.01,-0.01 0,-0.02 -0.01,-0.02 0,-0.02 0,-0.01 -0.01,-0.02 0,-0.02 0,-0.02 0,-0.02 c 0,-0.22 0.13,-0.37 0.33,-0.37 0.18,0 0.35,0.16 0.35,0.36 0,0.2 -0.17,0.38 -0.35,0.38 z" /></g>    <g
       id="content"
       transform="matrix(1.2,0,0,-1.2,-50.652206,1635.6037)"
       xml:space="preserve"
       stroke-miterlimit="10.433"
       font-style="normal"
       font-variant="normal"
       font-weight="normal"
       font-stretch="normal"
       font-size-adjust="none"
       letter-spacing="normal"
       word-spacing="normal"
       ns0:text="$R_1$"
       ns0:preamble="/home/sriranga/Desktop/MCT/package.tex"
       style="font-style:normal;font-variant:normal;font-weight:normal;font-stretch:normal;letter-spacing:normal;word-spacing:normal;text-anchor:start;fill:none;stroke:#000000;stroke-width:1;stroke-linecap:butt;stroke-linejoin:miter;stroke-miterlimit:10.43299961;stroke-opacity:1;stroke-dasharray:none;stroke-dashoffset:0"><path
         d="m 229.07,707.28 -0.04,0.01 -0.04,0 -0.03,0.01 -0.04,0 -0.04,0.01 -0.03,0.01 -0.03,0.01 -0.03,0.01 -0.03,0.01 -0.03,0.01 -0.03,0.01 -0.03,0.02 -0.03,0.01 -0.02,0.02 -0.03,0.02 -0.02,0.02 -0.03,0.02 -0.02,0.02 -0.02,0.03 -0.02,0.02 -0.02,0.03 -0.03,0.03 -0.02,0.03 -0.02,0.03 -0.01,0.04 -0.02,0.03 -0.02,0.04 -0.02,0.04 -0.02,0.04 -0.02,0.05 -0.02,0.04 -0.01,0.05 -0.93,2.43 c 0.77,0.17 1.1,0.31 1.45,0.63 0.33,0.29 0.51,0.67 0.51,1.12 0,0.92 -0.73,1.43 -2.07,1.43 l -0.21,-0.3 c 0.83,0 1.24,-0.37 1.24,-1.11 0,-0.98 -0.64,-1.49 -1.88,-1.49 -0.16,0 -0.27,0.01 -0.51,0.05 l 0.65,2.28 c 0.06,0.2 0.18,0.27 0.5,0.27 l 0.21,0.3 h -2.47 v -0.16 c 0.42,-0.06 0.47,-0.07 0.57,-0.14 0.08,-0.05 0.14,-0.16 0.14,-0.27 0,-0.12 -0.05,-0.36 -0.12,-0.63 l -1.22,-4.39 c -0.18,-0.59 -0.25,-0.65 -0.81,-0.74 v -0.16 h 2.43 v 0.16 c -0.61,0.08 -0.68,0.13 -0.68,0.46 0,0.1 0.03,0.23 0.12,0.58 l 0.56,2.07 0.65,-0.05 1.22,-3.22 h 1.47 z"
         id="path4368"
         inkscape:connector-curvature="0"
         style="fill:#000000;stroke-width:0" /><path
         d="m 231.55,710.33 -1.26,-0.63 v -0.1 c 0.09,0.04 0.16,0.06 0.19,0.08 0.12,0.05 0.24,0.08 0.31,0.08 0.15,0 0.21,-0.11 0.21,-0.33 v -3.15 c 0,-0.23 -0.05,-0.39 -0.16,-0.45 -0.11,-0.07 -0.21,-0.09 -0.5,-0.1 v -0.1 h 1.92 v 0.1 c -0.55,0.01 -0.66,0.08 -0.66,0.42 v 4.17 z"
         id="path4370"
         inkscape:connector-curvature="0"
         style="fill:#000000;stroke-width:0" /></g>    <g
       style="font-style:normal;font-variant:normal;font-weight:normal;font-stretch:normal;letter-spacing:normal;word-spacing:normal;text-anchor:start;fill:none;stroke:#000000;stroke-width:1;stroke-linecap:butt;stroke-linejoin:miter;stroke-miterlimit:10.43299961;stroke-opacity:1;stroke-dasharray:none;stroke-dashoffset:0"
       ns0:preamble="/home/sriranga/Desktop/MCT/package.tex"
       ns0:text="$+$"
       word-spacing="normal"
       letter-spacing="normal"
       font-size-adjust="none"
       font-stretch="normal"
       font-weight="normal"
       font-variant="normal"
       font-style="normal"
       stroke-miterlimit="10.433"
       xml:space="preserve"
       transform="matrix(1.2,0,0,-1.2,36.479041,1657.2469)"
       id="g5311"><polygon
         style="fill:#000000;stroke-width:0"
         id="polygon5313"
         points="226.32,707.12 226.87,707.12 226.87,709.4 229.14,709.4 229.14,709.96 226.87,709.96 226.87,712.2 226.32,712.2 226.32,709.96 224.05,709.96 224.05,709.4 226.32,709.4 " /></g>    <g
       id="g5315"
       transform="matrix(1.2,0,0,-1.2,37.098527,1736.8681)"
       xml:space="preserve"
       stroke-miterlimit="10.433"
       font-style="normal"
       font-variant="normal"
       font-weight="normal"
       font-stretch="normal"
       font-size-adjust="none"
       letter-spacing="normal"
       word-spacing="normal"
       ns0:text="$-$"
       ns0:preamble="/home/sriranga/Desktop/MCT/package.tex"
       style="font-style:normal;font-variant:normal;font-weight:normal;font-stretch:normal;letter-spacing:normal;word-spacing:normal;text-anchor:start;fill:none;stroke:#000000;stroke-width:1;stroke-linecap:butt;stroke-linejoin:miter;stroke-miterlimit:10.43299961;stroke-opacity:1;stroke-dasharray:none;stroke-dashoffset:0"><polygon
         style="fill:#000000;stroke-width:0"
         points="229.14,709.96 224.05,709.96 224.05,709.4 229.14,709.4 "
         id="polygon5317" /></g>    <g
       id="g7510"
       transform="matrix(1.2,0,0,-1.2,35.041346,1694.5568)"
       xml:space="preserve"
       stroke-miterlimit="10.433"
       font-style="normal"
       font-variant="normal"
       font-weight="normal"
       font-stretch="normal"
       font-size-adjust="none"
       letter-spacing="normal"
       word-spacing="normal"
       ns0:text="$v_o$"
       ns0:preamble="/home/sriranga/Desktop/MCT/package.tex"
       style="font-style:normal;font-variant:normal;font-weight:normal;font-stretch:normal;letter-spacing:normal;word-spacing:normal;text-anchor:start;fill:none;stroke:#000000;stroke-width:1;stroke-linecap:butt;stroke-linejoin:miter;stroke-miterlimit:10.43299961;stroke-opacity:1;stroke-dasharray:none;stroke-dashoffset:0"><path
         d="m 223.64,711.13 0.02,0 0.02,0 0.02,0 0.02,0 0.02,0 0.01,0.01 0.02,0 0.02,0 0.04,0 0.01,0 0.02,0 0.02,0 0.02,0 0.02,0 0.02,0 c 0.39,0 0.49,-0.17 0.63,-1.09 0.1,-0.68 0.22,-2.18 0.22,-2.76 0,-0.27 0.01,-0.34 0.09,-0.34 0.24,0 1.17,1.05 2.18,2.46 0.35,0.5 0.61,1.14 0.61,1.51 0,0.32 -0.26,0.59 -0.56,0.59 -0.22,0 -0.37,-0.13 -0.37,-0.34 0,-0.16 0.06,-0.28 0.24,-0.44 0.13,-0.12 0.18,-0.2 0.18,-0.3 0,-0.45 -0.65,-1.56 -1.36,-2.29 l -0.31,-0.32 c -0.07,1.4 -0.13,1.92 -0.26,2.65 -0.2,1.02 -0.2,1.04 -0.29,1.04 -0.04,0 -0.12,-0.01 -0.2,-0.04 -0.17,-0.05 -0.72,-0.15 -1.1,-0.21 z"
         id="path7512"
         inkscape:connector-curvature="0"
         style="fill:#000000;stroke-width:0" /><path
         d="m 230.12,708.7 -0.08,-0.15 c 0.3,0 0.49,-0.26 0.49,-0.65 0,-0.51 -0.23,-1.2 -0.54,-1.66 -0.25,-0.37 -0.52,-0.54 -0.82,-0.54 -0.32,0 -0.54,0.25 -0.54,0.63 0,0.52 0.2,1.13 0.54,1.62 0.27,0.39 0.57,0.6 0.87,0.6 h 0 l 0.08,0.15 c -1.05,0 -2.08,-1.08 -2.08,-2.17 0,-0.6 0.39,-0.98 1.03,-0.98 0.46,0 0.9,0.21 1.31,0.61 0.46,0.45 0.74,1.04 0.74,1.56 0,0.58 -0.41,0.98 -1,0.98 z"
         id="path7514"
         inkscape:connector-curvature="0"
         style="fill:#000000;stroke-width:0" /></g>    <path
       style="fill:none;stroke:#000000;stroke-width:1;stroke-linecap:butt;stroke-linejoin:miter;stroke-miterlimit:4;stroke-opacity:1;stroke-dasharray:none;marker-end:url(#Arrow1Mend-62)"
       d="M 30,902.36092 30,762.36095"
       id="path3094"
       inkscape:connector-curvature="0"
       sodipodi:nodetypes="cc" />
    <path
       inkscape:connector-curvature="0"
       id="path4076"
       d="m 30,842.36092 112.64436,0"
       style="fill:none;stroke:#000000;stroke-width:1;stroke-linecap:butt;stroke-linejoin:miter;stroke-miterlimit:4;stroke-opacity:1;stroke-dasharray:none;marker-end:url(#Arrow1Mend-62)"
       sodipodi:nodetypes="cc" />
    <path
       style="fill:none;stroke:#000000;stroke-width:1.6;stroke-linecap:butt;stroke-linejoin:miter;stroke-miterlimit:4;stroke-opacity:1;stroke-dasharray:none"
       d="m 30,802.36092 25,0 0,80 25,0 0,-80 25,0 0,80 12.28426,0"
       id="path4078"
       inkscape:connector-curvature="0"
       sodipodi:nodetypes="cccccccc" />
    <path
       style="fill:none;stroke:#000000;stroke-width:1.20000005;stroke-linecap:butt;stroke-linejoin:miter;stroke-miterlimit:4;stroke-opacity:1;stroke-dasharray:none"
       d="m 272.1334,797.36092 0,95"
       id="path4080"
       inkscape:connector-curvature="0" />
    <path
       inkscape:connector-curvature="0"
       id="path4084"
       d="m 172.1334,892.36092 155,0 0,-10"
       style="fill:none;stroke:#000000;stroke-width:1.20000005;stroke-linecap:butt;stroke-linejoin:miter;stroke-miterlimit:4;stroke-opacity:1;stroke-dasharray:none"
       sodipodi:nodetypes="ccc" />
    <path
       sodipodi:type="arc"
       style="color:#000000;fill:none;stroke:#000000;stroke-width:0.80000001;stroke-linecap:square;stroke-linejoin:round;stroke-miterlimit:4;stroke-opacity:1;stroke-dasharray:none;stroke-dashoffset:0;marker:none;visibility:visible;display:inline;overflow:visible;enable-background:accumulate"
       id="path4086"
       sodipodi:cx="182.5"
       sodipodi:cy="96.830688"
       sodipodi:rx="2.5"
       sodipodi:ry="2.5"
       d="m 185,96.830688 a 2.5,2.5 0 1 1 -5,0 2.5,2.5 0 1 1 5,0 z"
       transform="translate(-12.866615,700.53023)" />
    <path
       transform="translate(126.33294,700.53023)"
       d="m 185,96.830688 a 2.5,2.5 0 1 1 -5,0 2.5,2.5 0 1 1 5,0 z"
       sodipodi:ry="2.5"
       sodipodi:rx="2.5"
       sodipodi:cy="96.830688"
       sodipodi:cx="182.5"
       id="path4088"
       style="color:#000000;fill:#ffffff;stroke:#000000;stroke-width:0.80000001;stroke-linecap:square;stroke-linejoin:round;stroke-miterlimit:4;stroke-opacity:1;stroke-dasharray:none;stroke-dashoffset:0;marker:none;visibility:visible;display:inline;overflow:visible;enable-background:accumulate"
       sodipodi:type="arc" />
    <path
       transform="translate(-12.866615,795.53023)"
       d="m 185,96.830688 a 2.5,2.5 0 1 1 -5,0 2.5,2.5 0 1 1 5,0 z"
       sodipodi:ry="2.5"
       sodipodi:rx="2.5"
       sodipodi:cy="96.830688"
       sodipodi:cx="182.5"
       id="path4090"
       style="color:#000000;fill:none;stroke:#000000;stroke-width:0.80000001;stroke-linecap:square;stroke-linejoin:round;stroke-miterlimit:4;stroke-opacity:1;stroke-dasharray:none;stroke-dashoffset:0;marker:none;visibility:visible;display:inline;overflow:visible;enable-background:accumulate"
       sodipodi:type="arc" />
    <path
       sodipodi:type="arc"
       style="color:#000000;fill:#ffffff;stroke:#000000;stroke-width:0.80000001;stroke-linecap:square;stroke-linejoin:round;stroke-miterlimit:4;stroke-opacity:1;stroke-dasharray:none;stroke-dashoffset:0;marker:none;visibility:visible;display:inline;overflow:visible;enable-background:accumulate"
       id="path4092"
       sodipodi:cx="182.5"
       sodipodi:cy="96.830688"
       sodipodi:rx="2.5"
       sodipodi:ry="2.5"
       d="m 185,96.830688 a 2.5,2.5 0 1 1 -5,0 2.5,2.5 0 1 1 5,0 z"
       transform="translate(126.33294,795.53023)" />
    <path
       sodipodi:type="star"
       style="fill:#ffffff;fill-opacity:1;stroke:#000000;stroke-width:1.20000005;stroke-linecap:square;stroke-linejoin:round;stroke-miterlimit:4;stroke-opacity:1;stroke-dasharray:none;stroke-dashoffset:0"
       id="path4094"
       sodipodi:sides="3"
       sodipodi:cx="235"
       sodipodi:cy="99.330688"
       sodipodi:r1="10"
       sodipodi:r2="5"
       sodipodi:arg1="0"
       sodipodi:arg2="1.0471976"
       inkscape:flatsided="true"
       inkscape:rounded="0"
       inkscape:randomized="0"
       d="m 245,99.330688 -15,8.660252 0,-17.320506 z"
       transform="matrix(-0.86602541,-0.50000001,-0.50000001,0.86602541,525.31472,868.83802)"
       inkscape:transform-center-y="2.4999994" />
    <path
       style="fill:#ffffff;fill-opacity:1;stroke:#000000;stroke-width:1.20000005;stroke-linecap:square;stroke-linejoin:round;stroke-miterlimit:4;stroke-opacity:1;stroke-dasharray:none;stroke-dashoffset:0"
       d="m 282.1334,847.36092 -20,0"
       id="path4096"
       inkscape:connector-curvature="0" />
    <g
       id="g4222"
       transform="matrix(1.2,0,0,-1.2,-20.727955,1686.2649)"
       xml:space="preserve"
       stroke-miterlimit="10.433"
       font-style="normal"
       font-variant="normal"
       font-weight="normal"
       font-stretch="normal"
       font-size-adjust="none"
       letter-spacing="normal"
       word-spacing="normal"
       ns0:text="$D_1$"
       ns0:preamble="/home/sriranga/Desktop/MCT/package.tex"
       style="font-style:normal;font-variant:normal;font-weight:normal;font-stretch:normal;letter-spacing:normal;word-spacing:normal;text-anchor:start;fill:none;stroke:#000000;stroke-width:1;stroke-linecap:butt;stroke-linejoin:miter;stroke-miterlimit:10.43299961;stroke-opacity:1;stroke-dasharray:none;stroke-dashoffset:0"><path
         style="fill:#000000;stroke-width:0"
         inkscape:connector-curvature="0"
         d="m 224.97,713.45 0.03,0 0.03,0 0.03,-0.01 0.02,0 0.03,0 0.03,0 0.04,-0.01 0.05,-0.01 0.04,0 0.05,-0.01 0.03,-0.01 0.04,-0.01 0.04,0 0.03,-0.01 0.03,-0.01 0.03,-0.01 0.02,-0.01 0.03,-0.01 0.02,-0.01 0.02,-0.01 0.02,-0.02 0.01,-0.01 0.02,-0.01 0.01,-0.02 0.02,-0.01 0.01,-0.02 0.01,-0.02 0.01,-0.01 0,-0.02 0.01,-0.02 0,-0.02 0.01,-0.02 0,-0.03 0,-0.02 0,-0.02 c 0,-0.15 -0.04,-0.39 -0.11,-0.64 l -1.22,-4.39 c -0.18,-0.58 -0.25,-0.64 -0.81,-0.74 v -0.16 h 2.52 l -0.1,0.3 c -0.46,0 -0.65,0.11 -0.65,0.37 0,0.13 0.05,0.35 0.22,0.94 l 1.2,4.3 c 0.06,0.21 0.21,0.28 0.61,0.28 0.57,0 1.07,-0.13 1.39,-0.36 0.48,-0.36 0.75,-0.99 0.75,-1.77 0,-1.08 -0.42,-2.19 -1.09,-2.86 -0.59,-0.6 -1.4,-0.9 -2.43,-0.9 l 0.1,-0.3 c 1.16,0 2.23,0.31 2.99,0.87 0.97,0.7 1.54,1.8 1.54,2.95 0,1.63 -1.14,2.67 -2.91,2.67 h -2.77 z"
         id="path4224" /><path
         style="fill:#000000;stroke-width:0"
         inkscape:connector-curvature="0"
         d="m 232.9,710.33 -1.25,-0.63 v -0.1 c 0.08,0.04 0.16,0.06 0.19,0.08 0.12,0.05 0.24,0.08 0.31,0.08 0.14,0 0.21,-0.11 0.21,-0.33 v -3.15 c 0,-0.23 -0.06,-0.39 -0.17,-0.45 -0.1,-0.07 -0.2,-0.09 -0.49,-0.1 v -0.1 h 1.92 v 0.1 c -0.55,0.01 -0.66,0.08 -0.66,0.42 v 4.17 z"
         id="path4226" /></g>    <g
       style="font-style:normal;font-variant:normal;font-weight:normal;font-stretch:normal;letter-spacing:normal;word-spacing:normal;text-anchor:start;fill:none;stroke:#000000;stroke-width:1;stroke-linecap:butt;stroke-linejoin:miter;stroke-miterlimit:10.43299961;stroke-opacity:1;stroke-dasharray:none;stroke-dashoffset:0"
       ns0:preamble="/home/sriranga/Desktop/MCT/package.tex"
       ns0:text="$V_F$"
       word-spacing="normal"
       letter-spacing="normal"
       font-size-adjust="none"
       font-stretch="normal"
       font-weight="normal"
       font-variant="normal"
       font-style="normal"
       stroke-miterlimit="10.433"
       xml:space="preserve"
       transform="matrix(1.2,0,0,-1.2,129.99951,1667.3066)"
       id="g4504"><path
         id="path4506"
         d="m 230.28,713.61 h -1.85 v -0.16 c 0.44,-0.05 0.62,-0.15 0.62,-0.34 0,-0.18 -0.19,-0.61 -0.51,-1.18 l -2.05,-3.53 -0.66,4.4 c -0.01,0.05 -0.01,0.09 -0.01,0.15 0,0.33 0.14,0.43 0.77,0.5 v 0.16 h -2.4 v -0.16 c 0.55,-0.07 0.57,-0.1 0.78,-1.34 l 0.85,-5.16 h 0.19 l 3.71,6.1 c 0.17,0.27 0.33,0.39 0.56,0.4 z"
         inkscape:connector-curvature="0"
         style="fill:#000000;stroke-width:0" /><path
         id="path4508"
         d="m 234.19,710.17 h -3.47 v -0.11 c 0.45,-0.04 0.53,-0.08 0.53,-0.28 0,-0.11 -0.02,-0.28 -0.07,-0.45 l -0.86,-3.07 c -0.12,-0.42 -0.17,-0.46 -0.57,-0.52 v -0.11 h 1.76 v 0.11 c -0.41,0.02 -0.53,0.1 -0.53,0.31 0,0.05 0.02,0.16 0.06,0.31 l 0.43,1.55 c 0.26,-0.01 0.41,-0.02 0.56,-0.02 0.28,0 0.32,-0.01 0.39,-0.03 0.1,-0.06 0.15,-0.15 0.15,-0.29 0,-0.11 -0.01,-0.19 -0.06,-0.41 l 0.12,-0.03 0.53,1.62 -0.12,0.04 c -0.32,-0.63 -0.34,-0.63 -1.51,-0.65 l 0.46,1.62 c 0.04,0.14 0.14,0.18 0.43,0.18 1.17,0 1.42,-0.09 1.42,-0.52 0,-0.04 0,-0.08 -0.01,-0.17 -0.01,-0.04 -0.01,-0.04 -0.01,-0.13 l 0.14,-0.01 z"
         inkscape:connector-curvature="0"
         style="fill:#000000;stroke-width:0" /></g>    <g
       id="g4638"
       transform="matrix(1.2,0,0,-1.2,-102.78041,1657.2469)"
       xml:space="preserve"
       stroke-miterlimit="10.433"
       font-style="normal"
       font-variant="normal"
       font-weight="normal"
       font-stretch="normal"
       font-size-adjust="none"
       letter-spacing="normal"
       word-spacing="normal"
       ns0:text="$+$"
       ns0:preamble="/home/sriranga/Desktop/MCT/package.tex"
       style="font-style:normal;font-variant:normal;font-weight:normal;font-stretch:normal;letter-spacing:normal;word-spacing:normal;text-anchor:start;fill:none;stroke:#000000;stroke-width:1;stroke-linecap:butt;stroke-linejoin:miter;stroke-miterlimit:10.43299961;stroke-opacity:1;stroke-dasharray:none;stroke-dashoffset:0"><polygon
         points="226.87,712.2 226.32,712.2 226.32,709.96 224.05,709.96 224.05,709.4 226.32,709.4 226.32,707.12 226.87,707.12 226.87,709.4 229.14,709.4 229.14,709.96 226.87,709.96 "
         id="polygon4640"
         style="fill:#000000;stroke-width:0" /></g>    <g
       style="font-style:normal;font-variant:normal;font-weight:normal;font-stretch:normal;letter-spacing:normal;word-spacing:normal;text-anchor:start;fill:none;stroke:#000000;stroke-width:1;stroke-linecap:butt;stroke-linejoin:miter;stroke-miterlimit:10.43299961;stroke-opacity:1;stroke-dasharray:none;stroke-dashoffset:0"
       ns0:preamble="/home/sriranga/Desktop/MCT/package.tex"
       ns0:text="$-$"
       word-spacing="normal"
       letter-spacing="normal"
       font-size-adjust="none"
       font-stretch="normal"
       font-weight="normal"
       font-variant="normal"
       font-style="normal"
       stroke-miterlimit="10.433"
       xml:space="preserve"
       transform="matrix(1.2,0,0,-1.2,-102.16093,1736.8681)"
       id="g4642"><polygon
         id="polygon4644"
         points="224.05,709.4 229.14,709.4 229.14,709.96 224.05,709.96 "
         style="fill:#000000;stroke-width:0" /></g>    <path
       sodipodi:nodetypes="cc"
       style="fill:none;stroke:#000000;stroke-width:1.20000005;stroke-linecap:butt;stroke-linejoin:miter;stroke-miterlimit:4;stroke-opacity:1;stroke-dasharray:none"
       d="m 282.1334,912.36092 -20,0"
       id="path4652"
       inkscape:connector-curvature="0" />
    <path
       inkscape:connector-curvature="0"
       id="path4654"
       d="m 278.1334,917.36092 -12,0"
       style="fill:none;stroke:#000000;stroke-width:1.20000005;stroke-linecap:butt;stroke-linejoin:miter;stroke-miterlimit:4;stroke-opacity:1;stroke-dasharray:none"
       sodipodi:nodetypes="cc" />
    <path
       sodipodi:nodetypes="cc"
       style="fill:none;stroke:#000000;stroke-width:1.20000005;stroke-linecap:butt;stroke-linejoin:miter;stroke-miterlimit:4;stroke-opacity:1;stroke-dasharray:none"
       d="m 275.1334,922.36092 -6,0"
       id="path4656"
       inkscape:connector-curvature="0" />
    <path
       sodipodi:type="arc"
       id="path4658"
       style="fill:#000000;stroke:none"
       sodipodi:cx="285"
       sodipodi:cy="892.3609"
       sodipodi:rx="2.5"
       sodipodi:ry="2.5"
       d="m 287.5,892.3609 a 2.5,2.5 0 1 1 -5,0 2.5,2.5 0 1 1 5,0 z"
       transform="translate(-12.866615,0)" />
    <g
       id="g4815"
       transform="matrix(1.2,0,0,-1.2,-120.70452,1694.0578)"
       xml:space="preserve"
       stroke="black"
       stroke-linecap="butt"
       stroke-linejoin="miter"
       stroke-miterlimit="10.433"
       stroke-dasharray="none"
       stroke-dashoffset="0"
       stroke-opacity="1"
       fill="none"
       fill-rule="evenodd"
       fill-opacity="1"
       font-style="normal"
       font-variant="normal"
       font-weight="normal"
       font-stretch="normal"
       font-size-adjust="none"
       letter-spacing="normal"
       word-spacing="normal"
       text-anchor="start"
       ns0:text="$t$"
       ns0:preamble="/home/sriranga/Desktop/MCT/package.tex"
       style="font-style:normal;font-variant:normal;font-weight:normal;font-stretch:normal;letter-spacing:normal;word-spacing:normal;text-anchor:start;fill:none;stroke:#000000;stroke-width:1;stroke-linecap:butt;stroke-linejoin:miter;stroke-miterlimit:10.43299961;stroke-opacity:1;stroke-dasharray:none;stroke-dashoffset:0"><path
         d="M226.38,711.38 H225.58 L225.86,712.4 C225.87,712.42,225.87,712.44,225.87,712.45 C225.87,712.52,225.84,712.55,225.79,712.55 C225.73,712.55,225.7,712.54,225.64,712.46 C225.25,711.95,224.64,711.46,224.32,711.37 C224.07,711.29,224,711.23,224,711.12 C224,711.11,224,711.09,224.01,711.06 H224.74 L224.03,708.33 C224.01,708.24,224,708.21,223.97,708.12 C223.88,707.82,223.8,707.47,223.8,707.39 C223.8,707.17,224.01,707.02,224.28,707.02 C224.74,707.02,225.06,707.29,225.69,708.22 L225.56,708.29 C225.07,707.66,224.91,707.5,224.76,707.5 C224.67,707.5,224.61,707.58,224.61,707.7 C224.61,707.71,224.61,707.72,224.62,707.75 L225.49,711.06 H226.33 Z "
         stroke-width="0"
         fill="black"
         id="path4817" /></g>    <g
       id="g4960"
       transform="matrix(1.2,0,0,-1.2,-248.11224,1608.7905)"
       xml:space="preserve"
       stroke-miterlimit="10.433"
       font-style="normal"
       font-variant="normal"
       font-weight="normal"
       font-stretch="normal"
       font-size-adjust="none"
       letter-spacing="normal"
       word-spacing="normal"
       ns0:text="$v_i$"
       ns0:preamble="/home/sriranga/Desktop/MCT/package.tex"
       style="font-style:normal;font-variant:normal;font-weight:normal;font-stretch:normal;letter-spacing:normal;word-spacing:normal;text-anchor:start;fill:none;stroke:#000000;stroke-width:1;stroke-linecap:butt;stroke-linejoin:miter;stroke-miterlimit:10.43299961;stroke-opacity:1;stroke-dasharray:none;stroke-dashoffset:0"><path
         d="m 223.64,711.13 0.02,0 0.02,0 0.02,0 0.02,0 0.02,0 0.01,0.01 0.02,0 0.02,0 0.04,0 0.01,0 0.02,0 0.02,0 0.02,0 0.02,0 0.02,0 c 0.39,0 0.49,-0.17 0.63,-1.09 0.1,-0.68 0.22,-2.18 0.22,-2.76 0,-0.27 0.01,-0.34 0.09,-0.34 0.24,0 1.17,1.05 2.18,2.46 0.35,0.5 0.61,1.14 0.61,1.51 0,0.32 -0.26,0.59 -0.56,0.59 -0.22,0 -0.37,-0.13 -0.37,-0.34 0,-0.16 0.06,-0.28 0.24,-0.44 0.13,-0.12 0.18,-0.2 0.18,-0.3 0,-0.45 -0.65,-1.56 -1.36,-2.29 l -0.31,-0.32 c -0.07,1.4 -0.13,1.92 -0.26,2.65 -0.2,1.02 -0.2,1.04 -0.29,1.04 -0.04,0 -0.12,-0.01 -0.2,-0.04 -0.17,-0.05 -0.72,-0.15 -1.1,-0.21 z"
         id="path4962"
         inkscape:connector-curvature="0"
         style="fill:#000000;stroke-width:0" /><path
         d="m 229.4,706.42 -0.01,-0.02 -0.02,-0.02 -0.01,-0.01 -0.02,-0.02 -0.01,-0.02 -0.01,-0.01 -0.01,-0.02 -0.01,-0.01 -0.01,-0.02 -0.01,-0.01 -0.01,-0.01 -0.01,-0.02 -0.01,-0.01 -0.01,-0.01 -0.01,-0.01 -0.01,-0.01 0,-0.01 -0.01,-0.01 -0.01,-0.01 -0.01,0 0,-0.01 -0.01,-0.01 -0.01,-0.01 -0.02,-0.02 -0.01,-0.01 -0.01,-0.02 -0.01,-0.01 c -0.12,-0.12 -0.23,-0.19 -0.29,-0.19 -0.06,0 -0.11,0.06 -0.11,0.11 0,0.06 0.02,0.17 0.07,0.3 0,0.02 0.02,0.07 0.03,0.13 v 0.01 l 0.01,0.02 0.61,2.23 -0.02,0.02 c -0.7,-0.13 -0.84,-0.16 -1.11,-0.18 v -0.11 c 0.37,0 0.44,-0.02 0.44,-0.16 0,-0.06 -0.02,-0.17 -0.07,-0.31 l -0.33,-1.23 c -0.11,-0.41 -0.15,-0.62 -0.15,-0.76 0,-0.26 0.11,-0.4 0.32,-0.4 0.32,0 0.58,0.21 0.97,0.8 z"
         id="path4964"
         inkscape:connector-curvature="0"
         style="fill:#000000;stroke-width:0" /><path
         d="m 229.35,710.18 -0.02,0 -0.02,0 -0.02,-0.01 -0.01,0 -0.02,0 -0.01,-0.01 -0.02,0 -0.01,-0.01 -0.02,-0.01 -0.01,0 -0.02,-0.01 -0.01,-0.01 -0.01,-0.01 -0.02,-0.01 -0.01,-0.02 -0.01,-0.01 -0.01,-0.01 -0.01,-0.01 -0.01,-0.02 -0.01,-0.01 -0.01,-0.02 0,-0.01 -0.01,-0.02 -0.01,-0.01 0,-0.02 -0.01,-0.02 0,-0.02 0,-0.01 -0.01,-0.02 0,-0.02 0,-0.02 0,-0.02 c 0,-0.22 0.13,-0.37 0.33,-0.37 0.18,0 0.35,0.16 0.35,0.36 0,0.2 -0.17,0.38 -0.35,0.38 z"
         id="path4966"
         inkscape:connector-curvature="0"
         style="fill:#000000;stroke-width:0" /></g>    <path
       inkscape:connector-curvature="0"
       id="path4974"
       d="m 31.6699,882.36092 -4.751472,0"
       style="fill:none;stroke:#000000;stroke-width:1.20000005;stroke-linecap:butt;stroke-linejoin:miter;stroke-miterlimit:4;stroke-opacity:1;stroke-dasharray:3.60000014, 3.60000014;stroke-dashoffset:0"
       sodipodi:nodetypes="cc" />
    <text
       sodipodi:linespacing="100%"
       id="text4976"
       y="846.71716"
       x="22.046288"
       style="font-size:12px;font-style:normal;font-variant:normal;font-weight:normal;font-stretch:normal;text-align:center;line-height:100%;letter-spacing:0px;word-spacing:0px;text-anchor:middle;fill:#000000;fill-opacity:1;stroke:none;font-family:LMRoman12;-inkscape-font-specification:LMRoman12"
       xml:space="preserve"><tspan
         y="846.71716"
         x="22.046288"
         id="tspan4978"
         sodipodi:role="line">0</tspan></text>
    <path
       sodipodi:nodetypes="cc"
       inkscape:connector-curvature="0"
       id="path3109"
       d="m 370,917.36089 0,-139.99997"
       style="fill:none;stroke:#000000;stroke-width:1;stroke-linecap:butt;stroke-linejoin:miter;stroke-miterlimit:4;stroke-opacity:1;stroke-dasharray:none;marker-end:url(#Arrow1Mend-62)" />
    <path
       sodipodi:nodetypes="cc"
       style="fill:none;stroke:#000000;stroke-width:1;stroke-linecap:butt;stroke-linejoin:miter;stroke-miterlimit:4;stroke-opacity:1;stroke-dasharray:none;marker-end:url(#Arrow1Mend-62)"
       d="m 370,842.36092 112.64436,0"
       id="path3111"
       inkscape:connector-curvature="0" />
    <path
       sodipodi:nodetypes="ccccccccc"
       inkscape:connector-curvature="0"
       id="path3113"
       d="m 370,842.36092 0,-5 25,0 0,70 25,0 0,-70 25,0 0,70 12.28426,0"
       style="fill:none;stroke:#000000;stroke-width:1.60000002;stroke-linecap:butt;stroke-linejoin:miter;stroke-miterlimit:4;stroke-opacity:1;stroke-dasharray:none" />
    <g
       style="font-style:normal;font-variant:normal;font-weight:normal;font-stretch:normal;letter-spacing:normal;word-spacing:normal;text-anchor:start;fill:none;stroke:#000000;stroke-width:1;stroke-linecap:butt;stroke-linejoin:miter;stroke-miterlimit:10.43299961;stroke-opacity:1;stroke-dasharray:none;stroke-dashoffset:0"
       ns0:preamble="/home/sriranga/Desktop/MCT/package.tex"
       ns0:text="$t$"
       word-spacing="normal"
       letter-spacing="normal"
       font-size-adjust="none"
       font-stretch="normal"
       font-weight="normal"
       font-variant="normal"
       font-style="normal"
       stroke-miterlimit="10.433"
       xml:space="preserve"
       transform="matrix(1.2,0,0,-1.2,219.29548,1694.0578)"
       id="g3115"><path
         id="path3117"
         d="m 226.38,711.38 h -0.8 l 0.28,1.02 c 0.01,0.02 0.01,0.04 0.01,0.05 0,0.07 -0.03,0.1 -0.08,0.1 -0.06,0 -0.09,-0.01 -0.15,-0.09 -0.39,-0.51 -1,-1 -1.32,-1.09 -0.25,-0.08 -0.32,-0.14 -0.32,-0.25 0,-0.01 0,-0.03 0.01,-0.06 h 0.73 l -0.71,-2.73 c -0.02,-0.09 -0.03,-0.12 -0.06,-0.21 -0.09,-0.3 -0.17,-0.65 -0.17,-0.73 0,-0.22 0.21,-0.37 0.48,-0.37 0.46,0 0.78,0.27 1.41,1.2 l -0.13,0.07 c -0.49,-0.63 -0.65,-0.79 -0.8,-0.79 -0.09,0 -0.15,0.08 -0.15,0.2 0,0.01 0,0.02 0.01,0.05 l 0.87,3.31 h 0.84 z"
         inkscape:connector-curvature="0"
         style="fill:#000000;stroke-width:0" /></g>    <text
       xml:space="preserve"
       style="font-size:12px;font-style:normal;font-variant:normal;font-weight:normal;font-stretch:normal;text-align:center;line-height:100%;letter-spacing:0px;word-spacing:0px;text-anchor:middle;fill:#000000;fill-opacity:1;stroke:none;font-family:LMRoman12;-inkscape-font-specification:LMRoman12"
       x="362.0463"
       y="846.71716"
       id="text3129"
       sodipodi:linespacing="100%"><tspan
         sodipodi:role="line"
         id="tspan3131"
         x="362.0463"
         y="846.71716">0</tspan></text>
    <path
       inkscape:connector-curvature="0"
       id="path3149"
       d="m 410,928.77943 -8.55809,-18.15919"
       style="fill:none;stroke:#000000;stroke-width:0.80500001;stroke-linecap:butt;stroke-linejoin:miter;stroke-miterlimit:4;stroke-opacity:1;stroke-dasharray:none;marker-end:url(#Arrow1Mend-62)"
       sodipodi:nodetypes="cc" />
    <path
       sodipodi:nodetypes="cc"
       style="fill:none;stroke:#000000;stroke-width:0.80500001;stroke-linecap:butt;stroke-linejoin:miter;stroke-miterlimit:4;stroke-opacity:1;stroke-dasharray:none;marker-end:url(#Arrow1Mend-62)"
       d="m 397.34971,818.06018 -12.3444,17.19017"
       id="path3943"
       inkscape:connector-curvature="0" />
    <g
       id="g4050"
       transform="matrix(1.2,0,0,-1.2,138.52504,1784.2944)"
       xml:space="preserve"
       stroke-miterlimit="10.433"
       font-style="normal"
       font-variant="normal"
       font-weight="normal"
       font-stretch="normal"
       font-size-adjust="none"
       letter-spacing="normal"
       word-spacing="normal"
       ns0:text="$-[V_m -V_F]$"
       ns0:preamble="/home/sriranga/Desktop/MCT/package.tex"
       style="font-style:normal;font-variant:normal;font-weight:normal;font-stretch:normal;letter-spacing:normal;word-spacing:normal;text-anchor:start;fill:none;stroke:#000000;stroke-width:1;stroke-linecap:butt;stroke-linejoin:miter;stroke-miterlimit:10.43299961;stroke-opacity:1;stroke-dasharray:none;stroke-dashoffset:0"><polygon
         style="fill:#000000;stroke-width:0"
         points="229.14,709.96 224.05,709.96 224.05,709.4 229.14,709.4 "
         id="polygon4052" /><path
         style="fill:#000000;stroke-width:0"
         inkscape:connector-curvature="0"
         d="m 232.74,705.82 h -0.85 c -0.33,0 -0.49,0.17 -0.49,0.52 v 6.68 c 0,0.3 0.13,0.43 0.45,0.43 h 0.89 v 0.25 h -2.1 v -8.12 h 2.1 z"
         id="path4054" /><path
         style="fill:#000000;stroke-width:0"
         inkscape:connector-curvature="0"
         d="m 239.93,713.61 h -1.85 v -0.16 c 0.45,-0.05 0.63,-0.15 0.63,-0.34 0,-0.18 -0.19,-0.61 -0.52,-1.18 l -2.05,-3.53 -0.66,4.4 c -0.01,0.05 -0.01,0.09 -0.01,0.15 0,0.33 0.14,0.43 0.77,0.5 v 0.16 h -2.4 v -0.16 c 0.56,-0.07 0.58,-0.1 0.79,-1.34 l 0.84,-5.16 h 0.19 l 3.71,6.1 c 0.17,0.27 0.33,0.39 0.56,0.4 z"
         id="path4056" /><path
         style="fill:#000000;stroke-width:0"
         inkscape:connector-curvature="0"
         d="m 243.97,706.45 -0.01,-0.02 -0.01,-0.02 -0.02,-0.01 -0.01,-0.01 0,-0.01 -0.01,-0.01 0,-0.01 -0.01,0 -0.01,-0.01 0,0 -0.01,-0.01 0,-0.01 0,0 -0.01,-0.01 0,0 -0.01,-0.01 0,0 -0.01,-0.01 0,0 0,-0.01 -0.01,0 0,-0.01 0,0 -0.01,0 0,-0.01 0,0 0,0 -0.01,-0.01 c -0.19,-0.25 -0.34,-0.36 -0.44,-0.36 -0.06,0 -0.09,0.04 -0.09,0.11 0,0.03 0.03,0.14 0.07,0.31 l 0.47,1.75 c 0.01,0.02 0.02,0.15 0.02,0.19 0,0.25 -0.17,0.44 -0.41,0.44 -0.13,0 -0.27,-0.05 -0.44,-0.16 -0.34,-0.22 -0.62,-0.55 -1.1,-1.32 0.17,0.53 0.28,0.93 0.28,1.06 0,0.24 -0.17,0.42 -0.4,0.42 -0.43,0 -0.91,-0.46 -1.55,-1.47 l 0.4,1.45 -0.02,0.02 c -0.39,-0.09 -0.54,-0.11 -1.12,-0.22 v -0.11 h 0.18 c 0.18,0 0.27,-0.05 0.27,-0.15 0,-0.08 -0.16,-0.71 -0.41,-1.6 -0.16,-0.57 -0.18,-0.63 -0.27,-0.99 h 0.52 c 0.33,1.11 0.44,1.36 0.67,1.72 0.39,0.6 0.81,0.99 1.05,0.99 0.09,0 0.14,-0.07 0.14,-0.18 0,-0.06 -0.22,-0.9 -0.66,-2.53 h 0.52 c 0.28,1.09 0.42,1.43 0.77,1.93 0.34,0.47 0.69,0.78 0.89,0.78 0.08,0 0.14,-0.07 0.14,-0.15 0,-0.03 -0.01,-0.12 -0.05,-0.24 l -0.4,-1.6 c -0.06,-0.26 -0.09,-0.39 -0.09,-0.46 0,-0.21 0.1,-0.32 0.28,-0.32 0.33,0 0.63,0.23 1,0.74 l 0.04,0.05 z"
         id="path4058" /><polygon
         style="fill:#000000;stroke-width:0"
         points="252.63,709.96 247.54,709.96 247.54,709.4 252.63,709.4 "
         id="polygon4060" /><path
         style="fill:#000000;stroke-width:0"
         inkscape:connector-curvature="0"
         d="m 262.32,713.61 h -1.86 v -0.16 c 0.45,-0.05 0.63,-0.15 0.63,-0.34 0,-0.18 -0.19,-0.61 -0.52,-1.18 l -2.05,-3.53 -0.65,4.4 c -0.01,0.05 -0.01,0.09 -0.01,0.15 0,0.33 0.14,0.43 0.76,0.5 v 0.16 h -2.39 v -0.16 c 0.55,-0.07 0.57,-0.1 0.78,-1.34 l 0.85,-5.16 h 0.19 l 3.71,6.1 c 0.17,0.27 0.33,0.39 0.56,0.4 z"
         id="path4062" /><path
         style="fill:#000000;stroke-width:0"
         inkscape:connector-curvature="0"
         d="m 266.22,710.17 h -3.46 v -0.11 c 0.45,-0.04 0.53,-0.08 0.53,-0.28 0,-0.11 -0.03,-0.28 -0.08,-0.45 l -0.85,-3.07 c -0.13,-0.42 -0.18,-0.46 -0.57,-0.52 v -0.11 h 1.75 v 0.11 c -0.4,0.02 -0.53,0.1 -0.53,0.31 0,0.05 0.02,0.16 0.07,0.31 l 0.43,1.55 c 0.26,-0.01 0.41,-0.02 0.56,-0.02 0.27,0 0.32,-0.01 0.38,-0.03 0.11,-0.06 0.16,-0.15 0.16,-0.29 0,-0.11 -0.02,-0.19 -0.06,-0.41 l 0.12,-0.03 0.53,1.62 -0.12,0.04 c -0.32,-0.63 -0.34,-0.63 -1.51,-0.65 l 0.46,1.62 c 0.04,0.14 0.14,0.18 0.42,0.18 1.17,0 1.43,-0.09 1.43,-0.52 0,-0.04 0,-0.08 -0.01,-0.17 -0.01,-0.04 -0.01,-0.04 -0.01,-0.13 l 0.14,-0.01 z"
         id="path4064" /><path
         style="fill:#000000;stroke-width:0"
         inkscape:connector-curvature="0"
         d="m 267.24,705.82 v -0.24 h 2.1 v 8.12 h -2.1 v -0.25 h 0.86 c 0.32,0 0.48,-0.17 0.48,-0.51 v -6.68 c 0,-0.31 -0.14,-0.44 -0.44,-0.44 z"
         id="path4066" /></g>    <g
       style="font-style:normal;font-variant:normal;font-weight:normal;font-stretch:normal;letter-spacing:normal;word-spacing:normal;text-anchor:start;fill:none;stroke:#000000;stroke-width:1;stroke-linecap:butt;stroke-linejoin:miter;stroke-miterlimit:10.43299961;stroke-opacity:1;stroke-dasharray:none;stroke-dashoffset:0"
       ns0:preamble="/home/sriranga/Desktop/MCT/package.tex"
       ns0:text="$V_m$"
       word-spacing="normal"
       letter-spacing="normal"
       font-size-adjust="none"
       font-stretch="normal"
       font-weight="normal"
       font-variant="normal"
       font-style="normal"
       stroke-miterlimit="10.433"
       xml:space="preserve"
       transform="matrix(1.2,0,0,-1.2,-256.61811,1654.467)"
       id="g4267"><path
         id="path4269"
         d="m 230.28,713.61 h -1.85 v -0.16 c 0.44,-0.05 0.62,-0.15 0.62,-0.34 0,-0.18 -0.19,-0.61 -0.51,-1.18 l -2.05,-3.53 -0.66,4.4 c -0.01,0.05 -0.01,0.09 -0.01,0.15 0,0.33 0.14,0.43 0.77,0.5 v 0.16 h -2.4 v -0.16 c 0.55,-0.07 0.57,-0.1 0.78,-1.34 l 0.85,-5.16 h 0.19 l 3.71,6.1 c 0.17,0.27 0.33,0.39 0.56,0.4 z"
         inkscape:connector-curvature="0"
         style="fill:#000000;stroke-width:0" /><path
         id="path4271"
         d="m 234.32,706.45 -0.01,-0.02 -0.02,-0.02 -0.01,-0.01 -0.01,-0.01 -0.01,-0.01 0,-0.01 -0.01,-0.01 0,0 -0.01,-0.01 0,0 -0.01,-0.01 0,-0.01 -0.01,0 0,-0.01 -0.01,0 0,-0.01 -0.01,0 0,-0.01 0,0 -0.01,-0.01 0,0 0,-0.01 -0.01,0 0,0 0,-0.01 0,0 -0.01,0 0,-0.01 c -0.19,-0.25 -0.34,-0.36 -0.44,-0.36 -0.06,0 -0.1,0.04 -0.1,0.11 0,0.03 0.03,0.14 0.08,0.31 l 0.47,1.75 c 0,0.02 0.02,0.15 0.02,0.19 0,0.25 -0.18,0.44 -0.41,0.44 -0.13,0 -0.27,-0.05 -0.44,-0.16 -0.34,-0.22 -0.63,-0.55 -1.11,-1.32 0.18,0.53 0.28,0.93 0.28,1.06 0,0.24 -0.16,0.42 -0.4,0.42 -0.42,0 -0.91,-0.46 -1.55,-1.47 l 0.41,1.45 -0.03,0.02 c -0.39,-0.09 -0.53,-0.11 -1.11,-0.22 v -0.11 h 0.17 c 0.19,0 0.28,-0.05 0.28,-0.15 0,-0.08 -0.17,-0.71 -0.42,-1.6 -0.16,-0.57 -0.18,-0.63 -0.27,-0.99 h 0.52 c 0.34,1.11 0.44,1.36 0.68,1.72 0.39,0.6 0.81,0.99 1.05,0.99 0.09,0 0.13,-0.07 0.13,-0.18 0,-0.06 -0.22,-0.9 -0.66,-2.53 h 0.53 c 0.27,1.09 0.41,1.43 0.77,1.93 0.34,0.47 0.69,0.78 0.89,0.78 0.08,0 0.14,-0.07 0.14,-0.15 0,-0.03 -0.02,-0.12 -0.05,-0.24 l -0.4,-1.6 c -0.07,-0.26 -0.09,-0.39 -0.09,-0.46 0,-0.21 0.09,-0.32 0.27,-0.32 0.33,0 0.64,0.23 1.01,0.74 l 0.03,0.05 z"
         inkscape:connector-curvature="0"
         style="fill:#000000;stroke-width:0" /></g>    <g
       id="g4447"
       transform="matrix(1.2,0,0,-1.2,-264.65959,1733.9985)"
       xml:space="preserve"
       stroke="black"
       stroke-linecap="butt"
       stroke-linejoin="miter"
       stroke-miterlimit="10.433"
       stroke-dasharray="none"
       stroke-dashoffset="0"
       stroke-opacity="1"
       fill="none"
       fill-rule="evenodd"
       fill-opacity="1"
       font-style="normal"
       font-variant="normal"
       font-weight="normal"
       font-stretch="normal"
       font-size-adjust="none"
       letter-spacing="normal"
       word-spacing="normal"
       text-anchor="start"
       ns0:text="$-V_m$"
       ns0:preamble="/home/sriranga/Desktop/MCT/package.tex"
       style="font-style:normal;font-variant:normal;font-weight:normal;font-stretch:normal;letter-spacing:normal;word-spacing:normal;text-anchor:start;fill:none;stroke:#000000;stroke-width:1;stroke-linecap:butt;stroke-linejoin:miter;stroke-miterlimit:10.43299961;stroke-opacity:1;stroke-dasharray:none;stroke-dashoffset:0"><polygon
         points="229.14,709.4 229.14,709.96 224.05,709.96 224.05,709.4 "
         stroke-width="0"
         fill="black"
         id="polygon4449" /><path
         d="M236.61,713.61 H234.76 V713.45 C235.21,713.4,235.39,713.3,235.39,713.11 C235.39,712.93,235.2,712.5,234.87,711.93 L232.82,708.4 L232.17,712.8 C232.16,712.85,232.16,712.89,232.16,712.95 C232.16,713.28,232.29,713.38,232.92,713.45 V713.61 H230.52 V713.45 C231.08,713.38,231.1,713.35,231.31,712.11 L232.16,706.95 H232.35 L236.06,713.05 C236.23,713.32,236.38,713.44,236.61,713.45 Z "
         stroke-width="0"
         fill="black"
         id="path4451" /><path
         d="M240.65,706.45 L240.64,706.43 L240.63,706.41 L240.62,706.4 L240.6,706.39 L240.6,706.38 L240.59,706.37 L240.59,706.36 L240.58,706.36 L240.58,706.35 L240.57,706.35 L240.57,706.34 L240.56,706.33 L240.56,706.33 L240.55,706.32 L240.55,706.32 L240.54,706.31 L240.54,706.31 L240.54,706.3 L240.53,706.3 L240.53,706.29 L240.53,706.29 L240.52,706.28 L240.52,706.28 L240.52,706.28 L240.51,706.27 L240.51,706.27 L240.51,706.27 L240.51,706.26 C240.31,706.01,240.17,705.9,240.06,705.9 C240.01,705.9,239.97,705.94,239.97,706.01 C239.97,706.04,240,706.15,240.04,706.32 L240.51,708.07 C240.52,708.09,240.54,708.22,240.54,708.26 C240.54,708.51,240.36,708.7,240.12,708.7 C239.99,708.7,239.85,708.65,239.68,708.54 C239.34,708.32,239.06,707.99,238.58,707.22 C238.75,707.75,238.86,708.15,238.86,708.28 C238.86,708.52,238.7,708.7,238.46,708.7 C238.04,708.7,237.55,708.24,236.91,707.23 L237.31,708.68 L237.29,708.7 C236.9,708.61,236.75,708.59,236.18,708.48 V708.37 H236.35 C236.53,708.37,236.62,708.32,236.62,708.22 C236.62,708.14,236.46,707.51,236.21,706.62 C236.05,706.05,236.03,705.99,235.94,705.63 H236.46 C236.79,706.74,236.9,706.99,237.14,707.35 C237.53,707.95,237.94,708.34,238.18,708.34 C238.27,708.34,238.32,708.27,238.32,708.16 C238.32,708.1,238.1,707.26,237.66,705.63 H238.18 C238.46,706.72,238.6,707.06,238.95,707.56 C239.29,708.03,239.64,708.34,239.85,708.34 C239.92,708.34,239.99,708.27,239.99,708.19 C239.99,708.16,239.97,708.07,239.94,707.95 L239.53,706.35 C239.47,706.09,239.44,705.96,239.44,705.89 C239.44,705.68,239.54,705.57,239.72,705.57 C240.05,705.57,240.35,705.8,240.72,706.31 L240.76,706.36 Z "
         stroke-width="0"
         fill="black"
         id="path4453" /></g>    <path
       style="fill:none;stroke:#000000;stroke-width:1.20000017;stroke-linecap:butt;stroke-linejoin:round;stroke-miterlimit:4;stroke-opacity:1;stroke-dasharray:none"
       d="m 327.20506,797.36092 -0.20761,19.33773 0.009,2.30282 -5.17454,2.26435 10.61316,4.56222 -10.61316,4.5622 10.61316,4.56221 -10.61316,4.56221 10.61316,4.56221 -10.71267,4.58529 10.47271,4.56221 -10.3732,4.56221 10.61316,4.56221 -5.43862,2.2748 0,2.73733 0.19861,25 -6.98181,0"
       id="path4543"
       inkscape:connector-curvature="0"
       sodipodi:nodetypes="ccccccccccccccccc" />
    <g
       style="font-style:normal;font-variant:normal;font-weight:normal;font-stretch:normal;letter-spacing:normal;word-spacing:normal;text-anchor:start;fill:none;stroke:#000000;stroke-width:1;stroke-linecap:butt;stroke-linejoin:miter;stroke-miterlimit:10.43299961;stroke-opacity:1;stroke-dasharray:none;stroke-dashoffset:0"
       ns0:preamble="/home/sriranga/Desktop/MCT/package.tex"
       ns0:text="$R_L$"
       word-spacing="normal"
       letter-spacing="normal"
       font-size-adjust="none"
       font-stretch="normal"
       font-weight="normal"
       font-variant="normal"
       font-style="normal"
       stroke-miterlimit="10.433"
       xml:space="preserve"
       transform="matrix(1.2,0,0,-1.2,67.487205,1691.96)"
       id="g4641"><path
         id="path4643"
         d="m 229.07,707.28 -0.04,0.01 -0.04,0 -0.03,0.01 -0.04,0 -0.04,0.01 -0.03,0.01 -0.03,0.01 -0.03,0.01 -0.03,0.01 -0.03,0.01 -0.03,0.01 -0.03,0.02 -0.03,0.01 -0.02,0.02 -0.03,0.02 -0.02,0.02 -0.03,0.02 -0.02,0.02 -0.02,0.03 -0.02,0.02 -0.02,0.03 -0.03,0.03 -0.02,0.03 -0.02,0.03 -0.01,0.04 -0.02,0.03 -0.02,0.04 -0.02,0.04 -0.02,0.04 -0.02,0.05 -0.02,0.04 -0.01,0.05 -0.93,2.43 c 0.77,0.17 1.1,0.31 1.45,0.63 0.33,0.29 0.51,0.67 0.51,1.12 0,0.92 -0.73,1.43 -2.07,1.43 l -0.21,-0.3 c 0.83,0 1.24,-0.37 1.24,-1.11 0,-0.98 -0.64,-1.49 -1.88,-1.49 -0.16,0 -0.27,0.01 -0.51,0.05 l 0.65,2.28 c 0.06,0.2 0.18,0.27 0.5,0.27 l 0.21,0.3 h -2.47 v -0.16 c 0.42,-0.06 0.47,-0.07 0.57,-0.14 0.08,-0.05 0.14,-0.16 0.14,-0.27 0,-0.12 -0.05,-0.36 -0.12,-0.63 l -1.22,-4.39 c -0.18,-0.59 -0.25,-0.65 -0.81,-0.74 v -0.16 h 2.43 v 0.16 c -0.61,0.08 -0.68,0.13 -0.68,0.46 0,0.1 0.03,0.23 0.12,0.58 l 0.56,2.07 0.65,-0.05 1.22,-3.22 h 1.47 z"
         inkscape:connector-curvature="0"
         style="fill:#000000;stroke-width:0" /><path
         id="path4645"
         d="m 232.5,710.17 h -1.9 v -0.11 c 0.43,-0.04 0.54,-0.1 0.54,-0.3 0,-0.1 -0.03,-0.26 -0.08,-0.43 l -0.86,-3.07 c -0.12,-0.41 -0.17,-0.45 -0.56,-0.52 v -0.11 h 3.54 l 0.41,1.25 -0.14,0.04 c -0.25,-0.5 -0.43,-0.73 -0.74,-0.88 -0.24,-0.12 -0.53,-0.16 -1.14,-0.16 -0.53,0 -0.7,0.06 -0.7,0.24 0,0.05 0.04,0.21 0.07,0.35 l 0.86,3.08 c 0.1,0.35 0.28,0.48 0.7,0.51 z"
         inkscape:connector-curvature="0"
         style="fill:#000000;stroke-width:0" /></g>    <g
       style="font-style:normal;font-variant:normal;font-weight:normal;font-stretch:normal;letter-spacing:normal;word-spacing:normal;text-anchor:start;fill:none;stroke:#000000;stroke-width:1;stroke-linecap:butt;stroke-linejoin:miter;stroke-miterlimit:10.43299961;stroke-opacity:1;stroke-dasharray:none;stroke-dashoffset:0"
       ns0:preamble="/home/sriranga/Desktop/MCT/package.tex"
       ns0:text="$v_i$"
       word-spacing="normal"
       letter-spacing="normal"
       font-size-adjust="none"
       font-stretch="normal"
       font-weight="normal"
       font-variant="normal"
       font-style="normal"
       stroke-miterlimit="10.433"
       xml:space="preserve"
       transform="matrix(1.2,0,0,-1.2,92.112565,1622.9839)"
       id="g4738"><path
         style="fill:#000000;stroke-width:0"
         inkscape:connector-curvature="0"
         id="path4740"
         d="m 223.64,711.13 0.02,0 0.02,0 0.02,0 0.02,0 0.02,0 0.01,0.01 0.02,0 0.02,0 0.04,0 0.01,0 0.02,0 0.02,0 0.02,0 0.02,0 0.02,0 c 0.39,0 0.49,-0.17 0.63,-1.09 0.1,-0.68 0.22,-2.18 0.22,-2.76 0,-0.27 0.01,-0.34 0.09,-0.34 0.24,0 1.17,1.05 2.18,2.46 0.35,0.5 0.61,1.14 0.61,1.51 0,0.32 -0.26,0.59 -0.56,0.59 -0.22,0 -0.37,-0.13 -0.37,-0.34 0,-0.16 0.06,-0.28 0.24,-0.44 0.13,-0.12 0.18,-0.2 0.18,-0.3 0,-0.45 -0.65,-1.56 -1.36,-2.29 l -0.31,-0.32 c -0.07,1.4 -0.13,1.92 -0.26,2.65 -0.2,1.02 -0.2,1.04 -0.29,1.04 -0.04,0 -0.12,-0.01 -0.2,-0.04 -0.17,-0.05 -0.72,-0.15 -1.1,-0.21 z" /><path
         style="fill:#000000;stroke-width:0"
         inkscape:connector-curvature="0"
         id="path4742"
         d="m 229.4,706.42 -0.01,-0.02 -0.02,-0.02 -0.01,-0.01 -0.02,-0.02 -0.01,-0.02 -0.01,-0.01 -0.01,-0.02 -0.01,-0.01 -0.01,-0.02 -0.01,-0.01 -0.01,-0.01 -0.01,-0.02 -0.01,-0.01 -0.01,-0.01 -0.01,-0.01 -0.01,-0.01 0,-0.01 -0.01,-0.01 -0.01,-0.01 -0.01,0 0,-0.01 -0.01,-0.01 -0.01,-0.01 -0.02,-0.02 -0.01,-0.01 -0.01,-0.02 -0.01,-0.01 c -0.12,-0.12 -0.23,-0.19 -0.29,-0.19 -0.06,0 -0.11,0.06 -0.11,0.11 0,0.06 0.02,0.17 0.07,0.3 0,0.02 0.02,0.07 0.03,0.13 v 0.01 l 0.01,0.02 0.61,2.23 -0.02,0.02 c -0.7,-0.13 -0.84,-0.16 -1.11,-0.18 v -0.11 c 0.37,0 0.44,-0.02 0.44,-0.16 0,-0.06 -0.02,-0.17 -0.07,-0.31 l -0.33,-1.23 c -0.11,-0.41 -0.15,-0.62 -0.15,-0.76 0,-0.26 0.11,-0.4 0.32,-0.4 0.32,0 0.58,0.21 0.97,0.8 z" /><path
         style="fill:#000000;stroke-width:0"
         inkscape:connector-curvature="0"
         id="path4744"
         d="m 229.35,710.18 -0.02,0 -0.02,0 -0.02,-0.01 -0.01,0 -0.02,0 -0.01,-0.01 -0.02,0 -0.01,-0.01 -0.02,-0.01 -0.01,0 -0.02,-0.01 -0.01,-0.01 -0.01,-0.01 -0.02,-0.01 -0.01,-0.02 -0.01,-0.01 -0.01,-0.01 -0.01,-0.01 -0.01,-0.02 -0.01,-0.01 -0.01,-0.02 0,-0.01 -0.01,-0.02 -0.01,-0.01 0,-0.02 -0.01,-0.02 0,-0.02 0,-0.01 -0.01,-0.02 0,-0.02 0,-0.02 0,-0.02 c 0,-0.22 0.13,-0.37 0.33,-0.37 0.18,0 0.35,0.16 0.35,0.36 0,0.2 -0.17,0.38 -0.35,0.38 z" /></g>    <path
       sodipodi:type="arc"
       id="path3074"
       style="fill:#000000;stroke:none"
       sodipodi:cx="275"
       sodipodi:cy="797.3609"
       sodipodi:rx="2.5"
       sodipodi:ry="2.5"
       d="m 277.5,797.3609 a 2.5,2.5 0 1 1 -5,0 2.5,2.5 0 1 1 5,0 z"
       transform="translate(-2.866614,0)" />
  </g>
</svg>
