<?xml version="1.0" encoding="UTF-8" standalone="no"?>
<!-- Created with Inkscape (http://www.inkscape.org/) -->

<svg
   xmlns:ns0="http://www.iki.fi/pav/software/textext/"
   xmlns:dc="http://purl.org/dc/elements/1.1/"
   xmlns:cc="http://creativecommons.org/ns#"
   xmlns:rdf="http://www.w3.org/1999/02/22-rdf-syntax-ns#"
   xmlns:svg="http://www.w3.org/2000/svg"
   xmlns="http://www.w3.org/2000/svg"
   xmlns:sodipodi="http://sodipodi.sourceforge.net/DTD/sodipodi-0.dtd"
   xmlns:inkscape="http://www.inkscape.org/namespaces/inkscape"
   sodipodi:docname="fig2.30.eps"
   inkscape:version="0.48.4 r9939"
   version="1.1"
   id="svg2"
   height="354.33069"
   width="496.06299">
  <sodipodi:namedview
     id="base"
     pagecolor="#ffffff"
     bordercolor="#666666"
     borderopacity="1.0"
     inkscape:pageopacity="0.0"
     inkscape:pageshadow="2"
     inkscape:zoom="3.1475348"
     inkscape:cx="241.7491"
     inkscape:cy="214.90271"
     inkscape:document-units="cm"
     inkscape:current-layer="layer1"
     showgrid="false"
     units="cm"
     inkscape:window-width="1366"
     inkscape:window-height="744"
     inkscape:window-x="0"
     inkscape:window-y="24"
     inkscape:window-maximized="1"
     inkscape:snap-global="true"
     inkscape:snap-bbox="false"
     inkscape:object-paths="false"
     inkscape:object-nodes="true">
    <inkscape:grid
       snapvisiblegridlinesonly="true"
       enabled="true"
       visible="true"
       empspacing="5"
       id="grid2985"
       type="xygrid" />
  </sodipodi:namedview>
  <defs
     id="defs4">
    <marker
       style="overflow:visible"
       id="Arrow1Mend"
       refX="0"
       refY="0"
       orient="auto"
       inkscape:stockid="Arrow1Mend">
      <path
         transform="matrix(-0.4,0,0,-0.4,-4,0)"
         style="fill-rule:evenodd;stroke:#000000;stroke-width:1pt"
         d="M 0,0 5,-5 -12.5,0 5,5 0,0 z"
         id="path5100"
         inkscape:connector-curvature="0" />
    </marker>
    <marker
       style="overflow:visible"
       id="Arrow1Mend-6"
       refX="0"
       refY="0"
       orient="auto"
       inkscape:stockid="Arrow1Mend">
      <path
         transform="matrix(-0.4,0,0,-0.4,-4,0)"
         style="fill-rule:evenodd;stroke:#000000;stroke-width:1pt"
         d="M 0,0 5,-5 -12.5,0 5,5 0,0 z"
         id="path5100-8"
         inkscape:connector-curvature="0" />
    </marker>
    <marker
       inkscape:stockid="Arrow1Mend"
       orient="auto"
       refY="0"
       refX="0"
       id="Arrow1Mend-9"
       style="overflow:visible">
      <path
         inkscape:connector-curvature="0"
         id="path5100-86"
         d="M 0,0 5,-5 -12.5,0 5,5 0,0 z"
         style="fill-rule:evenodd;stroke:#000000;stroke-width:1pt"
         transform="matrix(-0.4,0,0,-0.4,-4,0)" />
    </marker>
    <marker
       style="overflow:visible"
       id="Arrow1Mend-62"
       refX="0"
       refY="0"
       orient="auto"
       inkscape:stockid="Arrow1Mend">
      <path
         transform="matrix(-0.4,0,0,-0.4,-4,0)"
         style="fill-rule:evenodd;stroke:#000000;stroke-width:1pt"
         d="M 0,0 5,-5 -12.5,0 5,5 0,0 z"
         id="path5100-5"
         inkscape:connector-curvature="0" />
    </marker>
  </defs>
  <metadata
     id="metadata7">
    <rdf:RDF>
      <cc:Work
         rdf:about="">
        <dc:format>image/svg+xml</dc:format>
        <dc:type
           rdf:resource="http://purl.org/dc/dcmitype/StillImage" />
        <dc:title></dc:title>
      </cc:Work>
    </rdf:RDF>
  </metadata>
  <g
     transform="translate(0,-698.03023)"
     id="layer1"
     inkscape:groupmode="layer"
     inkscape:label="Layer 1">
    <path
       sodipodi:nodetypes="ccccccccccccccccc"
       inkscape:connector-curvature="0"
       id="path3835"
       d="m 140,797.36092 29.33773,0.20761 2.30282,-0.009 2.26435,5.17455 4.56221,-10.61317 4.56221,10.61317 4.56221,-10.61317 4.56221,10.61317 4.56221,-10.61317 4.58529,10.71267 4.56221,-10.4727 4.56221,10.3732 4.56221,-10.61317 2.2748,5.43862 2.73733,0 150,0.007 0,6.98181"
       style="fill:none;stroke:#000000;stroke-width:1.20000017;stroke-linecap:butt;stroke-linejoin:round;stroke-miterlimit:4;stroke-opacity:1;stroke-dasharray:none" />
    <g
       id="content"
       transform="matrix(1.2,0,0,-1.2,-77.164769,1636.1972)"
       xml:space="preserve"
       stroke-miterlimit="10.433"
       font-style="normal"
       font-variant="normal"
       font-weight="normal"
       font-stretch="normal"
       font-size-adjust="none"
       letter-spacing="normal"
       word-spacing="normal"
       ns0:text="$R_1$"
       ns0:preamble="/home/sriranga/Desktop/MCT/package.tex"
       style="font-style:normal;font-variant:normal;font-weight:normal;font-stretch:normal;letter-spacing:normal;word-spacing:normal;text-anchor:start;fill:none;stroke:#000000;stroke-width:1;stroke-linecap:butt;stroke-linejoin:miter;stroke-miterlimit:10.43299961;stroke-opacity:1;stroke-dasharray:none;stroke-dashoffset:0"><path
         d="m 229.07,707.28 -0.04,0.01 -0.04,0 -0.03,0.01 -0.04,0 -0.04,0.01 -0.03,0.01 -0.03,0.01 -0.03,0.01 -0.03,0.01 -0.03,0.01 -0.03,0.01 -0.03,0.02 -0.03,0.01 -0.02,0.02 -0.03,0.02 -0.02,0.02 -0.03,0.02 -0.02,0.02 -0.02,0.03 -0.02,0.02 -0.02,0.03 -0.03,0.03 -0.02,0.03 -0.02,0.03 -0.01,0.04 -0.02,0.03 -0.02,0.04 -0.02,0.04 -0.02,0.04 -0.02,0.05 -0.02,0.04 -0.01,0.05 -0.93,2.43 c 0.77,0.17 1.1,0.31 1.45,0.63 0.33,0.29 0.51,0.67 0.51,1.12 0,0.92 -0.73,1.43 -2.07,1.43 l -0.21,-0.3 c 0.83,0 1.24,-0.37 1.24,-1.11 0,-0.98 -0.64,-1.49 -1.88,-1.49 -0.16,0 -0.27,0.01 -0.51,0.05 l 0.65,2.28 c 0.06,0.2 0.18,0.27 0.5,0.27 l 0.21,0.3 h -2.47 v -0.16 c 0.42,-0.06 0.47,-0.07 0.57,-0.14 0.08,-0.05 0.14,-0.16 0.14,-0.27 0,-0.12 -0.05,-0.36 -0.12,-0.63 l -1.22,-4.39 c -0.18,-0.59 -0.25,-0.65 -0.81,-0.74 v -0.16 h 2.43 v 0.16 c -0.61,0.08 -0.68,0.13 -0.68,0.46 0,0.1 0.03,0.23 0.12,0.58 l 0.56,2.07 0.65,-0.05 1.22,-3.22 h 1.47 z"
         id="path4368"
         inkscape:connector-curvature="0"
         style="fill:#000000;stroke-width:0" /><path
         d="m 231.55,710.33 -1.26,-0.63 v -0.1 c 0.09,0.04 0.16,0.06 0.19,0.08 0.12,0.05 0.24,0.08 0.31,0.08 0.15,0 0.21,-0.11 0.21,-0.33 v -3.15 c 0,-0.23 -0.05,-0.39 -0.16,-0.45 -0.11,-0.07 -0.21,-0.09 -0.5,-0.1 v -0.1 h 1.92 v 0.1 c -0.55,0.01 -0.66,0.08 -0.66,0.42 v 4.17 z"
         id="path4370"
         inkscape:connector-curvature="0"
         style="fill:#000000;stroke-width:0" /></g>    <g
       style="font-style:normal;font-variant:normal;font-weight:normal;font-stretch:normal;letter-spacing:normal;word-spacing:normal;text-anchor:start;fill:none;stroke:#000000;stroke-width:1;stroke-linecap:butt;stroke-linejoin:miter;stroke-miterlimit:10.43299961;stroke-opacity:1;stroke-dasharray:none;stroke-dashoffset:0"
       ns0:preamble="/home/sriranga/Desktop/MCT/package.tex"
       ns0:text="$+$"
       word-spacing="normal"
       letter-spacing="normal"
       font-size-adjust="none"
       font-stretch="normal"
       font-weight="normal"
       font-variant="normal"
       font-style="normal"
       stroke-miterlimit="10.433"
       xml:space="preserve"
       transform="matrix(1.2,0,0,-1.2,79.544265,1657.2469)"
       id="g5311"><polygon
         style="fill:#000000;stroke-width:0"
         id="polygon5313"
         points="224.05,709.96 224.05,709.4 226.32,709.4 226.32,707.12 226.87,707.12 226.87,709.4 229.14,709.4 229.14,709.96 226.87,709.96 226.87,712.2 226.32,712.2 226.32,709.96 " /></g>    <g
       id="g5315"
       transform="matrix(1.2,0,0,-1.2,80.163751,1736.8681)"
       xml:space="preserve"
       stroke-miterlimit="10.433"
       font-style="normal"
       font-variant="normal"
       font-weight="normal"
       font-stretch="normal"
       font-size-adjust="none"
       letter-spacing="normal"
       word-spacing="normal"
       ns0:text="$-$"
       ns0:preamble="/home/sriranga/Desktop/MCT/package.tex"
       style="font-style:normal;font-variant:normal;font-weight:normal;font-stretch:normal;letter-spacing:normal;word-spacing:normal;text-anchor:start;fill:none;stroke:#000000;stroke-width:1;stroke-linecap:butt;stroke-linejoin:miter;stroke-miterlimit:10.43299961;stroke-opacity:1;stroke-dasharray:none;stroke-dashoffset:0"><polygon
         style="fill:#000000;stroke-width:0"
         points="224.05,709.96 224.05,709.4 229.14,709.4 229.14,709.96 "
         id="polygon5317" /></g>    <g
       id="g7510"
       transform="matrix(1.2,0,0,-1.2,78.10657,1694.5568)"
       xml:space="preserve"
       stroke-miterlimit="10.433"
       font-style="normal"
       font-variant="normal"
       font-weight="normal"
       font-stretch="normal"
       font-size-adjust="none"
       letter-spacing="normal"
       word-spacing="normal"
       ns0:text="$v_o$"
       ns0:preamble="/home/sriranga/Desktop/MCT/package.tex"
       style="font-style:normal;font-variant:normal;font-weight:normal;font-stretch:normal;letter-spacing:normal;word-spacing:normal;text-anchor:start;fill:none;stroke:#000000;stroke-width:1;stroke-linecap:butt;stroke-linejoin:miter;stroke-miterlimit:10.43299961;stroke-opacity:1;stroke-dasharray:none;stroke-dashoffset:0"><path
         d="m 223.64,711.13 0.02,0 0.02,0 0.02,0 0.02,0 0.02,0 0.01,0.01 0.02,0 0.02,0 0.04,0 0.01,0 0.02,0 0.02,0 0.02,0 0.02,0 0.02,0 c 0.39,0 0.49,-0.17 0.63,-1.09 0.1,-0.68 0.22,-2.18 0.22,-2.76 0,-0.27 0.01,-0.34 0.09,-0.34 0.24,0 1.17,1.05 2.18,2.46 0.35,0.5 0.61,1.14 0.61,1.51 0,0.32 -0.26,0.59 -0.56,0.59 -0.22,0 -0.37,-0.13 -0.37,-0.34 0,-0.16 0.06,-0.28 0.24,-0.44 0.13,-0.12 0.18,-0.2 0.18,-0.3 0,-0.45 -0.65,-1.56 -1.36,-2.29 l -0.31,-0.32 c -0.07,1.4 -0.13,1.92 -0.26,2.65 -0.2,1.02 -0.2,1.04 -0.29,1.04 -0.04,0 -0.12,-0.01 -0.2,-0.04 -0.17,-0.05 -0.72,-0.15 -1.1,-0.21 z"
         id="path7512"
         inkscape:connector-curvature="0"
         style="fill:#000000;stroke-width:0" /><path
         d="m 230.12,708.7 -0.08,-0.15 c 0.3,0 0.49,-0.26 0.49,-0.65 0,-0.51 -0.23,-1.2 -0.54,-1.66 -0.25,-0.37 -0.52,-0.54 -0.82,-0.54 -0.32,0 -0.54,0.25 -0.54,0.63 0,0.52 0.2,1.13 0.54,1.62 0.27,0.39 0.57,0.6 0.87,0.6 h 0 l 0.08,0.15 c -1.05,0 -2.08,-1.08 -2.08,-2.17 0,-0.6 0.39,-0.98 1.03,-0.98 0.46,0 0.9,0.21 1.31,0.61 0.46,0.45 0.74,1.04 0.74,1.56 0,0.58 -0.41,0.98 -1,0.98 z"
         id="path7514"
         inkscape:connector-curvature="0"
         style="fill:#000000;stroke-width:0" /></g>    <path
       style="fill:none;stroke:#000000;stroke-width:1.20000005;stroke-linecap:butt;stroke-linejoin:miter;stroke-miterlimit:4;stroke-opacity:1;stroke-dasharray:none"
       d="m 275,797.36092 0,95"
       id="path4080"
       inkscape:connector-curvature="0" />
    <path
       inkscape:connector-curvature="0"
       id="path4084"
       d="m 140,892.36092 230,0 0,-10"
       style="fill:none;stroke:#000000;stroke-width:1.20000005;stroke-linecap:butt;stroke-linejoin:miter;stroke-miterlimit:4;stroke-opacity:1;stroke-dasharray:none"
       sodipodi:nodetypes="ccc" />
    <path
       sodipodi:type="arc"
       style="color:#000000;fill:none;stroke:#000000;stroke-width:0.80000001;stroke-linecap:square;stroke-linejoin:round;stroke-miterlimit:4;stroke-opacity:1;stroke-dasharray:none;stroke-dashoffset:0;marker:none;visibility:visible;display:inline;overflow:visible;enable-background:accumulate"
       id="path4086"
       sodipodi:cx="182.5"
       sodipodi:cy="96.830688"
       sodipodi:rx="2.5"
       sodipodi:ry="2.5"
       d="m 185,96.830688 c 0,1.380712 -1.11929,2.5 -2.5,2.5 -1.38071,0 -2.5,-1.119288 -2.5,-2.5 0,-1.380711 1.11929,-2.5 2.5,-2.5 1.38071,0 2.5,1.119289 2.5,2.5 z"
       transform="translate(-45.05419,700.53023)" />
    <path
       transform="translate(169.39815,700.53023)"
       d="m 185,96.830688 c 0,1.380712 -1.11929,2.5 -2.5,2.5 -1.38071,0 -2.5,-1.119288 -2.5,-2.5 0,-1.380711 1.11929,-2.5 2.5,-2.5 1.38071,0 2.5,1.119289 2.5,2.5 z"
       sodipodi:ry="2.5"
       sodipodi:rx="2.5"
       sodipodi:cy="96.830688"
       sodipodi:cx="182.5"
       id="path4088"
       style="color:#000000;fill:#ffffff;stroke:#000000;stroke-width:0.80000001;stroke-linecap:square;stroke-linejoin:round;stroke-miterlimit:4;stroke-opacity:1;stroke-dasharray:none;stroke-dashoffset:0;marker:none;visibility:visible;display:inline;overflow:visible;enable-background:accumulate"
       sodipodi:type="arc" />
    <path
       transform="translate(-45.05419,795.53023)"
       d="m 185,96.830688 c 0,1.380712 -1.11929,2.5 -2.5,2.5 -1.38071,0 -2.5,-1.119288 -2.5,-2.5 0,-1.380711 1.11929,-2.5 2.5,-2.5 1.38071,0 2.5,1.119289 2.5,2.5 z"
       sodipodi:ry="2.5"
       sodipodi:rx="2.5"
       sodipodi:cy="96.830688"
       sodipodi:cx="182.5"
       id="path4090"
       style="color:#000000;fill:none;stroke:#000000;stroke-width:0.80000001;stroke-linecap:square;stroke-linejoin:round;stroke-miterlimit:4;stroke-opacity:1;stroke-dasharray:none;stroke-dashoffset:0;marker:none;visibility:visible;display:inline;overflow:visible;enable-background:accumulate"
       sodipodi:type="arc" />
    <path
       sodipodi:type="arc"
       style="color:#000000;fill:#ffffff;stroke:#000000;stroke-width:0.80000001;stroke-linecap:square;stroke-linejoin:round;stroke-miterlimit:4;stroke-opacity:1;stroke-dasharray:none;stroke-dashoffset:0;marker:none;visibility:visible;display:inline;overflow:visible;enable-background:accumulate"
       id="path4092"
       sodipodi:cx="182.5"
       sodipodi:cy="96.830688"
       sodipodi:rx="2.5"
       sodipodi:ry="2.5"
       d="m 185,96.830688 c 0,1.380712 -1.11929,2.5 -2.5,2.5 -1.38071,0 -2.5,-1.119288 -2.5,-2.5 0,-1.380711 1.11929,-2.5 2.5,-2.5 1.38071,0 2.5,1.119289 2.5,2.5 z"
       transform="translate(169.39815,795.53023)" />
    <path
       sodipodi:type="star"
       style="fill:#ffffff;fill-opacity:1;stroke:#000000;stroke-width:1.20000005;stroke-linecap:square;stroke-linejoin:round;stroke-miterlimit:4;stroke-opacity:1;stroke-dasharray:none;stroke-dashoffset:0"
       id="path4094"
       sodipodi:sides="3"
       sodipodi:cx="235"
       sodipodi:cy="99.330688"
       sodipodi:r1="10"
       sodipodi:r2="5"
       sodipodi:arg1="0"
       sodipodi:arg2="1.0471976"
       inkscape:flatsided="true"
       inkscape:rounded="0"
       inkscape:randomized="0"
       d="m 245,99.330688 -15,8.660252 0,-17.320506 z"
       transform="matrix(-0.86602541,-0.50000001,-0.50000001,0.86602541,528.18132,868.83802)"
       inkscape:transform-center-y="2.4999994" />
    <path
       style="fill:#ffffff;fill-opacity:1;stroke:#000000;stroke-width:1.20000005;stroke-linecap:square;stroke-linejoin:round;stroke-miterlimit:4;stroke-opacity:1;stroke-dasharray:none;stroke-dashoffset:0"
       d="m 285,847.36092 -20,0"
       id="path4096"
       inkscape:connector-curvature="0" />
    <g
       id="g4222"
       transform="matrix(1.2,0,0,-1.2,20.420619,1691.3098)"
       xml:space="preserve"
       stroke-miterlimit="10.433"
       font-style="normal"
       font-variant="normal"
       font-weight="normal"
       font-stretch="normal"
       font-size-adjust="none"
       letter-spacing="normal"
       word-spacing="normal"
       ns0:text="$D_1$"
       ns0:preamble="/home/sriranga/Desktop/MCT/package.tex"
       style="font-style:normal;font-variant:normal;font-weight:normal;font-stretch:normal;letter-spacing:normal;word-spacing:normal;text-anchor:start;fill:none;stroke:#000000;stroke-width:1;stroke-linecap:butt;stroke-linejoin:miter;stroke-miterlimit:10.43299961;stroke-opacity:1;stroke-dasharray:none;stroke-dashoffset:0"><path
         style="fill:#000000;stroke-width:0"
         inkscape:connector-curvature="0"
         d="m 224.97,713.45 0.03,0 0.03,0 0.03,-0.01 0.02,0 0.03,0 0.03,0 0.04,-0.01 0.05,-0.01 0.04,0 0.05,-0.01 0.03,-0.01 0.04,-0.01 0.04,0 0.03,-0.01 0.03,-0.01 0.03,-0.01 0.02,-0.01 0.03,-0.01 0.02,-0.01 0.02,-0.01 0.02,-0.02 0.01,-0.01 0.02,-0.01 0.01,-0.02 0.02,-0.01 0.01,-0.02 0.01,-0.02 0.01,-0.01 0,-0.02 0.01,-0.02 0,-0.02 0.01,-0.02 0,-0.03 0,-0.02 0,-0.02 c 0,-0.15 -0.04,-0.39 -0.11,-0.64 l -1.22,-4.39 c -0.18,-0.58 -0.25,-0.64 -0.81,-0.74 v -0.16 h 2.52 l -0.1,0.3 c -0.46,0 -0.65,0.11 -0.65,0.37 0,0.13 0.05,0.35 0.22,0.94 l 1.2,4.3 c 0.06,0.21 0.21,0.28 0.61,0.28 0.57,0 1.07,-0.13 1.39,-0.36 0.48,-0.36 0.75,-0.99 0.75,-1.77 0,-1.08 -0.42,-2.19 -1.09,-2.86 -0.59,-0.6 -1.4,-0.9 -2.43,-0.9 l 0.1,-0.3 c 1.16,0 2.23,0.31 2.99,0.87 0.97,0.7 1.54,1.8 1.54,2.95 0,1.63 -1.14,2.67 -2.91,2.67 h -2.77 z"
         id="path4224" /><path
         style="fill:#000000;stroke-width:0"
         inkscape:connector-curvature="0"
         d="m 232.9,710.33 -1.25,-0.63 v -0.1 c 0.08,0.04 0.16,0.06 0.19,0.08 0.12,0.05 0.24,0.08 0.31,0.08 0.14,0 0.21,-0.11 0.21,-0.33 v -3.15 c 0,-0.23 -0.06,-0.39 -0.17,-0.45 -0.1,-0.07 -0.2,-0.09 -0.49,-0.1 v -0.1 h 1.92 v 0.1 c -0.55,0.01 -0.66,0.08 -0.66,0.42 v 4.17 z"
         id="path4226" /></g>    <g
       id="g4638"
       transform="matrix(1.2,0,0,-1.2,-134.968,1657.2469)"
       xml:space="preserve"
       stroke-miterlimit="10.433"
       font-style="normal"
       font-variant="normal"
       font-weight="normal"
       font-stretch="normal"
       font-size-adjust="none"
       letter-spacing="normal"
       word-spacing="normal"
       ns0:text="$+$"
       ns0:preamble="/home/sriranga/Desktop/MCT/package.tex"
       style="font-style:normal;font-variant:normal;font-weight:normal;font-stretch:normal;letter-spacing:normal;word-spacing:normal;text-anchor:start;fill:none;stroke:#000000;stroke-width:1;stroke-linecap:butt;stroke-linejoin:miter;stroke-miterlimit:10.43299961;stroke-opacity:1;stroke-dasharray:none;stroke-dashoffset:0"><polygon
         points="229.14,709.4 229.14,709.96 226.87,709.96 226.87,712.2 226.32,712.2 226.32,709.96 224.05,709.96 224.05,709.4 226.32,709.4 226.32,707.12 226.87,707.12 226.87,709.4 "
         id="polygon4640"
         style="fill:#000000;stroke-width:0" /></g>    <g
       style="font-style:normal;font-variant:normal;font-weight:normal;font-stretch:normal;letter-spacing:normal;word-spacing:normal;text-anchor:start;fill:none;stroke:#000000;stroke-width:1;stroke-linecap:butt;stroke-linejoin:miter;stroke-miterlimit:10.43299961;stroke-opacity:1;stroke-dasharray:none;stroke-dashoffset:0"
       ns0:preamble="/home/sriranga/Desktop/MCT/package.tex"
       ns0:text="$-$"
       word-spacing="normal"
       letter-spacing="normal"
       font-size-adjust="none"
       font-stretch="normal"
       font-weight="normal"
       font-variant="normal"
       font-style="normal"
       stroke-miterlimit="10.433"
       xml:space="preserve"
       transform="matrix(1.2,0,0,-1.2,-134.34851,1736.8681)"
       id="g4642"><polygon
         id="polygon4644"
         points="229.14,709.4 229.14,709.96 224.05,709.96 224.05,709.4 "
         style="fill:#000000;stroke-width:0" /></g>    <path
       sodipodi:type="arc"
       id="path4658"
       style="fill:#000000;stroke:none"
       sodipodi:cx="285"
       sodipodi:cy="892.3609"
       sodipodi:rx="2.5"
       sodipodi:ry="2.5"
       d="m 287.5,892.3609 c 0,1.38071 -1.11929,2.5 -2.5,2.5 -1.38071,0 -2.5,-1.11929 -2.5,-2.5 0,-1.38071 1.11929,-2.5 2.5,-2.5 1.38071,0 2.5,1.11929 2.5,2.5 z"
       transform="translate(-10,0)" />
    <path
       sodipodi:nodetypes="cc"
       style="fill:none;stroke:#000000;stroke-width:0.80499995;stroke-linecap:butt;stroke-linejoin:miter;stroke-miterlimit:4;stroke-opacity:1;stroke-dasharray:none;marker-end:url(#Arrow1Mend-62)"
       d="m 255.90952,850.74015 0,-20.61835"
       id="path3943"
       inkscape:connector-curvature="0" />
    <path
       style="fill:none;stroke:#000000;stroke-width:1.20000017;stroke-linecap:butt;stroke-linejoin:round;stroke-miterlimit:4;stroke-opacity:1;stroke-dasharray:none"
       d="m 370,797.36092 -0.009,19.33773 0.009,2.30282 -5.17454,2.26435 10.61316,4.56222 -10.61316,4.5622 10.61316,4.56221 -10.61316,4.56221 10.61316,4.56221 -10.71267,4.58529 10.47271,4.56221 -10.3732,4.56221 10.61316,4.56221 -5.43862,2.2748 0,2.73733 0,25 -6.7832,0"
       id="path4543"
       inkscape:connector-curvature="0"
       sodipodi:nodetypes="ccccccccccccccccc" />
    <g
       style="font-style:normal;font-variant:normal;font-weight:normal;font-stretch:normal;letter-spacing:normal;word-spacing:normal;text-anchor:start;fill:none;stroke:#000000;stroke-width:1;stroke-linecap:butt;stroke-linejoin:miter;stroke-miterlimit:10.43299961;stroke-opacity:1;stroke-dasharray:none;stroke-dashoffset:0"
       ns0:preamble="/home/sriranga/Desktop/MCT/package.tex"
       ns0:text="$R_L$"
       word-spacing="normal"
       letter-spacing="normal"
       font-size-adjust="none"
       font-stretch="normal"
       font-weight="normal"
       font-variant="normal"
       font-style="normal"
       stroke-miterlimit="10.433"
       xml:space="preserve"
       transform="matrix(1.2,0,0,-1.2,110.55243,1691.96)"
       id="g4641"><path
         id="path4643"
         d="m 229.07,707.28 -0.04,0.01 -0.04,0 -0.03,0.01 -0.04,0 -0.04,0.01 -0.03,0.01 -0.03,0.01 -0.03,0.01 -0.03,0.01 -0.03,0.01 -0.03,0.01 -0.03,0.02 -0.03,0.01 -0.02,0.02 -0.03,0.02 -0.02,0.02 -0.03,0.02 -0.02,0.02 -0.02,0.03 -0.02,0.02 -0.02,0.03 -0.03,0.03 -0.02,0.03 -0.02,0.03 -0.01,0.04 -0.02,0.03 -0.02,0.04 -0.02,0.04 -0.02,0.04 -0.02,0.05 -0.02,0.04 -0.01,0.05 -0.93,2.43 c 0.77,0.17 1.1,0.31 1.45,0.63 0.33,0.29 0.51,0.67 0.51,1.12 0,0.92 -0.73,1.43 -2.07,1.43 l -0.21,-0.3 c 0.83,0 1.24,-0.37 1.24,-1.11 0,-0.98 -0.64,-1.49 -1.88,-1.49 -0.16,0 -0.27,0.01 -0.51,0.05 l 0.65,2.28 c 0.06,0.2 0.18,0.27 0.5,0.27 l 0.21,0.3 h -2.47 v -0.16 c 0.42,-0.06 0.47,-0.07 0.57,-0.14 0.08,-0.05 0.14,-0.16 0.14,-0.27 0,-0.12 -0.05,-0.36 -0.12,-0.63 l -1.22,-4.39 c -0.18,-0.59 -0.25,-0.65 -0.81,-0.74 v -0.16 h 2.43 v 0.16 c -0.61,0.08 -0.68,0.13 -0.68,0.46 0,0.1 0.03,0.23 0.12,0.58 l 0.56,2.07 0.65,-0.05 1.22,-3.22 h 1.47 z"
         inkscape:connector-curvature="0"
         style="fill:#000000;stroke-width:0" /><path
         id="path4645"
         d="m 232.5,710.17 h -1.9 v -0.11 c 0.43,-0.04 0.54,-0.1 0.54,-0.3 0,-0.1 -0.03,-0.26 -0.08,-0.43 l -0.86,-3.07 c -0.12,-0.41 -0.17,-0.45 -0.56,-0.52 v -0.11 h 3.54 l 0.41,1.25 -0.14,0.04 c -0.25,-0.5 -0.43,-0.73 -0.74,-0.88 -0.24,-0.12 -0.53,-0.16 -1.14,-0.16 -0.53,0 -0.7,0.06 -0.7,0.24 0,0.05 0.04,0.21 0.07,0.35 l 0.86,3.08 c 0.1,0.35 0.28,0.48 0.7,0.51 z"
         inkscape:connector-curvature="0"
         style="fill:#000000;stroke-width:0" /></g>    <path
       inkscape:connector-curvature="0"
       id="path4784"
       d="m 323.4042,788.52577 -20,0"
       style="fill:none;stroke:#000000;stroke-width:0.80500001;stroke-linecap:butt;stroke-linejoin:miter;stroke-miterlimit:4;stroke-opacity:1;stroke-dasharray:none;marker-end:url(#Arrow1Mend-62)"
       sodipodi:nodetypes="cc" />
    <g
       id="g4908"
       transform="matrix(1.2,0,0,-1.2,24.109167,1640.0859)"
       xml:space="preserve"
       stroke-miterlimit="10.433"
       font-style="normal"
       font-variant="normal"
       font-weight="normal"
       font-stretch="normal"
       font-size-adjust="none"
       letter-spacing="normal"
       word-spacing="normal"
       ns0:text="$I_L$"
       ns0:preamble="/home/sriranga/Desktop/MCT/package.tex"
       style="font-style:normal;font-variant:normal;font-weight:normal;font-stretch:normal;letter-spacing:normal;word-spacing:normal;text-anchor:start;fill:none;stroke:#000000;stroke-width:1;stroke-linecap:butt;stroke-linejoin:miter;stroke-miterlimit:10.43299961;stroke-opacity:1;stroke-dasharray:none;stroke-dashoffset:0"><path
         style="fill:#000000;stroke-width:0"
         inkscape:connector-curvature="0"
         d="m 223.6,707.12 h 2.43 v 0.16 c -0.57,0.07 -0.68,0.13 -0.68,0.41 0,0.19 0.02,0.31 0.11,0.63 l 1.23,4.4 c 0.18,0.57 0.24,0.63 0.81,0.73 v 0.16 h -2.46 v -0.16 c 0.58,-0.07 0.7,-0.15 0.7,-0.42 0,-0.14 -0.04,-0.37 -0.11,-0.62 l -1.22,-4.39 c -0.18,-0.58 -0.25,-0.64 -0.81,-0.74 z"
         id="path4910" /><path
         style="fill:#000000;stroke-width:0"
         inkscape:connector-curvature="0"
         d="m 229.98,710.17 h -1.9 v -0.11 c 0.43,-0.04 0.54,-0.1 0.54,-0.3 0,-0.1 -0.03,-0.26 -0.08,-0.43 l -0.86,-3.07 c -0.12,-0.41 -0.17,-0.45 -0.56,-0.52 v -0.11 h 3.54 l 0.41,1.25 -0.14,0.04 c -0.25,-0.5 -0.44,-0.73 -0.74,-0.88 -0.24,-0.12 -0.53,-0.16 -1.14,-0.16 -0.53,0 -0.7,0.06 -0.7,0.24 0,0.05 0.03,0.21 0.07,0.35 l 0.86,3.08 c 0.1,0.35 0.28,0.48 0.7,0.51 z"
         id="path4912" /></g>    <path
       sodipodi:nodetypes="cc"
       style="fill:none;stroke:#000000;stroke-width:0.80500001;stroke-linecap:butt;stroke-linejoin:miter;stroke-miterlimit:4;stroke-opacity:1;stroke-dasharray:none;marker-end:url(#Arrow1Mend-62)"
       d="m 261.67825,788.52577 -20,0"
       id="path5471"
       inkscape:connector-curvature="0" />
    <g
       style="font-style:normal;font-variant:normal;font-weight:normal;font-stretch:normal;letter-spacing:normal;word-spacing:normal;text-anchor:start;fill:none;stroke:#000000;stroke-width:1;stroke-linecap:butt;stroke-linejoin:miter;stroke-miterlimit:10.43299961;stroke-opacity:1;stroke-dasharray:none;stroke-dashoffset:0"
       ns0:preamble="/home/sriranga/Desktop/MCT/package.tex"
       ns0:text="$I_1$"
       word-spacing="normal"
       letter-spacing="normal"
       font-size-adjust="none"
       font-stretch="normal"
       font-weight="normal"
       font-variant="normal"
       font-style="normal"
       stroke-miterlimit="10.433"
       xml:space="preserve"
       transform="matrix(1.2,0,0,-1.2,-36.726503,1640.0859)"
       id="g5592"><path
         style="fill:#000000;stroke-width:0"
         inkscape:connector-curvature="0"
         id="path5594"
         d="m 223.6,707.12 h 2.43 v 0.16 c -0.57,0.07 -0.68,0.13 -0.68,0.41 0,0.19 0.02,0.31 0.11,0.63 l 1.23,4.4 c 0.18,0.57 0.24,0.63 0.81,0.73 v 0.16 h -2.46 v -0.16 c 0.58,-0.07 0.7,-0.15 0.7,-0.42 0,-0.14 -0.04,-0.37 -0.11,-0.62 l -1.22,-4.39 c -0.18,-0.58 -0.25,-0.64 -0.81,-0.74 z" /><path
         style="fill:#000000;stroke-width:0"
         inkscape:connector-curvature="0"
         id="path5596"
         d="m 229.03,710.33 -1.26,-0.63 v -0.1 c 0.09,0.04 0.16,0.06 0.19,0.08 0.13,0.05 0.24,0.08 0.31,0.08 0.15,0 0.21,-0.11 0.21,-0.33 v -3.15 c 0,-0.23 -0.05,-0.39 -0.16,-0.45 -0.11,-0.07 -0.21,-0.09 -0.5,-0.1 v -0.1 h 1.92 v 0.1 c -0.55,0.01 -0.66,0.08 -0.66,0.42 v 4.17 z" /></g>    <path
       sodipodi:type="arc"
       id="path5712"
       style="fill:#000000;stroke:none"
       sodipodi:cx="275"
       sodipodi:cy="797.3609"
       sodipodi:rx="2.5"
       sodipodi:ry="2.5"
       d="m 277.5,797.3609 c 0,1.38071 -1.11929,2.5 -2.5,2.5 -1.38071,0 -2.5,-1.11929 -2.5,-2.5 0,-1.38071 1.11929,-2.5 2.5,-2.5 1.38071,0 2.5,1.11929 2.5,2.5 z" />
    <g
       id="g5822"
       transform="matrix(1.2,0,0,-1.2,-16.440544,1673.0769)"
       xml:space="preserve"
       stroke-miterlimit="10.433"
       font-style="normal"
       font-variant="normal"
       font-weight="normal"
       font-stretch="normal"
       font-size-adjust="none"
       letter-spacing="normal"
       word-spacing="normal"
       ns0:text="$I_R$"
       ns0:preamble="/home/sriranga/Desktop/MCT/package.tex"
       style="font-style:normal;font-variant:normal;font-weight:normal;font-stretch:normal;letter-spacing:normal;word-spacing:normal;text-anchor:start;fill:none;stroke:#000000;stroke-width:1;stroke-linecap:butt;stroke-linejoin:miter;stroke-miterlimit:10.43299961;stroke-opacity:1;stroke-dasharray:none;stroke-dashoffset:0"><path
         d="m 223.6,707.12 h 2.43 v 0.16 c -0.57,0.07 -0.68,0.13 -0.68,0.41 0,0.19 0.02,0.31 0.11,0.63 l 1.23,4.4 c 0.18,0.57 0.24,0.63 0.81,0.73 v 0.16 h -2.46 v -0.16 c 0.58,-0.07 0.7,-0.15 0.7,-0.42 0,-0.14 -0.04,-0.37 -0.11,-0.62 l -1.22,-4.39 c -0.18,-0.58 -0.25,-0.64 -0.81,-0.74 z"
         id="path5824"
         inkscape:connector-curvature="0"
         style="fill:#000000;stroke-width:0" /><path
         d="m 230.95,705.74 -0.03,0 -0.03,0.01 -0.02,0 -0.03,0 -0.02,0.01 -0.03,0.01 -0.02,0 -0.02,0.01 -0.02,0.01 -0.03,0 -0.02,0.01 -0.01,0.01 -0.02,0.02 -0.02,0.01 -0.02,0.01 -0.02,0.01 -0.01,0.02 -0.02,0.02 -0.01,0.01 -0.02,0.02 -0.01,0.02 -0.02,0.02 -0.01,0.02 -0.02,0.02 -0.01,0.03 -0.01,0.02 -0.02,0.03 -0.01,0.03 -0.01,0.03 -0.02,0.03 -0.01,0.03 -0.01,0.03 -0.65,1.71 c 0.54,0.12 0.77,0.21 1.02,0.44 0.23,0.2 0.35,0.47 0.35,0.78 0,0.65 -0.51,1 -1.44,1 l -0.15,-0.21 c 0.58,0 0.86,-0.26 0.86,-0.78 0,-0.68 -0.44,-1.04 -1.31,-1.04 -0.12,0 -0.19,0.01 -0.36,0.04 l 0.45,1.59 c 0.05,0.14 0.14,0.19 0.36,0.19 l 0.15,0.21 h -1.73 v -0.11 c 0.29,-0.04 0.33,-0.05 0.4,-0.1 0.05,-0.03 0.09,-0.12 0.09,-0.19 0,-0.09 -0.03,-0.25 -0.08,-0.44 l -0.86,-3.07 c -0.12,-0.41 -0.17,-0.46 -0.56,-0.52 v -0.11 h 1.7 v 0.11 c -0.43,0.06 -0.48,0.09 -0.48,0.32 0,0.07 0.02,0.16 0.09,0.41 l 0.39,1.45 0.45,-0.04 0.86,-2.25 h 1.03 z"
         id="path5826"
         inkscape:connector-curvature="0"
         style="fill:#000000;stroke-width:0" /></g>    <g
       style="font-style:normal;font-variant:normal;font-weight:normal;font-stretch:normal;letter-spacing:normal;word-spacing:normal;text-anchor:start;fill:none;stroke:#000000;stroke-width:1;stroke-linecap:butt;stroke-linejoin:miter;stroke-miterlimit:10.43299961;stroke-opacity:1;stroke-dasharray:none;stroke-dashoffset:0"
       ns0:preamble="/home/sriranga/Desktop/MCT/package.tex"
       ns0:text="$v_i=-V_m$"
       text-anchor="start"
       word-spacing="normal"
       letter-spacing="normal"
       font-size-adjust="none"
       font-stretch="normal"
       font-weight="normal"
       font-variant="normal"
       font-style="normal"
       fill-opacity="1"
       fill-rule="evenodd"
       fill="none"
       stroke-opacity="1"
       stroke-dashoffset="0"
       stroke-dasharray="none"
       stroke-miterlimit="10.433"
       stroke-linejoin="miter"
       stroke-linecap="butt"
       stroke="black"
       xml:space="preserve"
       transform="matrix(1.2,0,0,-1.2,-147.31721,1695.2448)"
       id="g5964"><path
         id="path5966"
         fill="black"
         stroke-width="0"
         d="M223.64,711.13 L223.66,711.13 L223.68,711.13 L223.7,711.13 L223.72,711.13 L223.74,711.13 L223.75,711.14 L223.77,711.14 L223.79,711.14 L223.83,711.14 L223.84,711.14 L223.86,711.14 L223.88,711.14 L223.9,711.14 L223.92,711.14 L223.94,711.14 C224.33,711.14,224.43,710.97,224.57,710.05 C224.67,709.37,224.79,707.87,224.79,707.29 C224.79,707.02,224.8,706.95,224.88,706.95 C225.12,706.95,226.05,708,227.06,709.41 C227.41,709.91,227.67,710.55,227.67,710.92 C227.67,711.24,227.41,711.51,227.11,711.51 C226.89,711.51,226.74,711.38,226.74,711.17 C226.74,711.01,226.8,710.89,226.98,710.73 C227.11,710.61,227.16,710.53,227.16,710.43 C227.16,709.98,226.51,708.87,225.8,708.14 L225.49,707.82 C225.42,709.22,225.36,709.74,225.23,710.47 C225.03,711.49,225.03,711.51,224.94,711.51 C224.9,711.51,224.82,711.5,224.74,711.47 C224.57,711.42,224.02,711.32,223.64,711.26 Z " /><path
         id="path5968"
         fill="black"
         stroke-width="0"
         d="M229.4,706.42 L229.39,706.4 L229.37,706.38 L229.36,706.37 L229.34,706.35 L229.33,706.33 L229.32,706.32 L229.31,706.3 L229.3,706.29 L229.29,706.27 L229.28,706.26 L229.27,706.25 L229.26,706.23 L229.25,706.22 L229.24,706.21 L229.23,706.2 L229.22,706.19 L229.22,706.18 L229.21,706.17 L229.2,706.16 L229.19,706.16 L229.19,706.15 L229.18,706.14 L229.17,706.13 L229.15,706.11 L229.14,706.1 L229.13,706.08 L229.12,706.07 C229,705.95,228.89,705.88,228.83,705.88 C228.77,705.88,228.72,705.94,228.72,705.99 C228.72,706.05,228.74,706.16,228.79,706.29 C228.79,706.31,228.81,706.36,228.82,706.42 V706.43 L228.83,706.45 L229.44,708.68 L229.42,708.7 C228.72,708.57,228.58,708.54,228.31,708.52 V708.41 C228.68,708.41,228.75,708.39,228.75,708.25 C228.75,708.19,228.73,708.08,228.68,707.94 L228.35,706.71 C228.24,706.3,228.2,706.09,228.2,705.95 C228.2,705.69,228.31,705.55,228.52,705.55 C228.84,705.55,229.1,705.76,229.49,706.35 Z " /><path
         id="path5970"
         fill="black"
         stroke-width="0"
         d="M229.35,710.18 L229.33,710.18 L229.31,710.18 L229.29,710.17 L229.28,710.17 L229.26,710.17 L229.25,710.16 L229.23,710.16 L229.22,710.15 L229.2,710.14 L229.19,710.14 L229.17,710.13 L229.16,710.12 L229.15,710.11 L229.13,710.1 L229.12,710.08 L229.11,710.07 L229.1,710.06 L229.09,710.05 L229.08,710.03 L229.07,710.02 L229.06,710 L229.06,709.99 L229.05,709.97 L229.04,709.96 L229.04,709.94 L229.03,709.92 L229.03,709.9 L229.03,709.89 L229.02,709.87 L229.02,709.85 L229.02,709.83 L229.02,709.81 C229.02,709.59,229.15,709.44,229.35,709.44 C229.53,709.44,229.7,709.6,229.7,709.8 C229.7,710,229.53,710.18,229.35,710.18 Z " /><polygon
         id="polygon5972"
         fill="black"
         stroke-width="0"
         points="238.77,710.4 238.77,710.96 233.68,710.96 233.68,710.4 " /><polygon
         id="polygon5974"
         fill="black"
         stroke-width="0"
         points="238.77,708.39 238.77,708.94 233.68,708.94 233.68,708.39 " /><polygon
         id="polygon5976"
         fill="black"
         stroke-width="0"
         points="247.87,709.4 247.87,709.96 242.78,709.96 242.78,709.4 " /><path
         id="path5978"
         fill="black"
         stroke-width="0"
         d="M255.34,713.61 H253.49 V713.45 C253.94,713.4,254.12,713.3,254.12,713.11 C254.12,712.93,253.93,712.5,253.6,711.93 L251.55,708.4 L250.9,712.8 C250.89,712.85,250.89,712.89,250.89,712.95 C250.89,713.28,251.03,713.38,251.65,713.45 V713.61 H249.26 V713.45 C249.81,713.38,249.83,713.35,250.04,712.11 L250.89,706.95 H251.08 L254.79,713.05 C254.96,713.32,255.12,713.44,255.34,713.45 Z " /><path
         id="path5980"
         fill="black"
         stroke-width="0"
         d="M259.39,706.45 L259.37,706.43 L259.36,706.41 L259.35,706.4 L259.34,706.39 L259.33,706.38 L259.32,706.37 L259.32,706.36 L259.31,706.36 L259.31,706.35 L259.3,706.35 L259.3,706.34 L259.29,706.33 L259.29,706.33 L259.28,706.32 L259.28,706.32 L259.28,706.31 L259.27,706.31 L259.27,706.3 L259.26,706.3 L259.26,706.29 L259.26,706.29 L259.25,706.28 L259.25,706.28 L259.25,706.28 L259.25,706.27 L259.24,706.27 L259.24,706.27 L259.24,706.26 C259.04,706.01,258.9,705.9,258.79,705.9 C258.74,705.9,258.7,705.94,258.7,706.01 C258.7,706.04,258.73,706.15,258.77,706.32 L259.25,708.07 C259.25,708.09,259.27,708.22,259.27,708.26 C259.27,708.51,259.09,708.7,258.86,708.7 C258.72,708.7,258.58,708.65,258.42,708.54 C258.08,708.32,257.79,707.99,257.31,707.22 C257.48,707.75,257.59,708.15,257.59,708.28 C257.59,708.52,257.43,708.7,257.19,708.7 C256.77,708.7,256.28,708.24,255.64,707.23 L256.04,708.68 L256.02,708.7 C255.63,708.61,255.49,708.59,254.91,708.48 V708.37 H255.08 C255.26,708.37,255.35,708.32,255.35,708.22 C255.35,708.14,255.19,707.51,254.94,706.62 C254.78,706.05,254.76,705.99,254.67,705.63 H255.19 C255.53,706.74,255.63,706.99,255.87,707.35 C256.26,707.95,256.68,708.34,256.91,708.34 C257,708.34,257.05,708.27,257.05,708.16 C257.05,708.1,256.83,707.26,256.39,705.63 H256.91 C257.19,706.72,257.33,707.06,257.69,707.56 C258.03,708.03,258.38,708.34,258.58,708.34 C258.65,708.34,258.72,708.27,258.72,708.19 C258.72,708.16,258.7,708.07,258.67,707.95 L258.26,706.35 C258.2,706.09,258.17,705.96,258.17,705.89 C258.17,705.68,258.27,705.57,258.45,705.57 C258.78,705.57,259.09,705.8,259.45,706.31 L259.49,706.36 Z " /></g>  </g>
</svg>
