<?xml version="1.0" encoding="UTF-8" standalone="no"?>
<!-- Created with Inkscape (http://www.inkscape.org/) -->

<svg
   xmlns:ns0="http://www.iki.fi/pav/software/textext/"
   xmlns:dc="http://purl.org/dc/elements/1.1/"
   xmlns:cc="http://creativecommons.org/ns#"
   xmlns:rdf="http://www.w3.org/1999/02/22-rdf-syntax-ns#"
   xmlns:svg="http://www.w3.org/2000/svg"
   xmlns="http://www.w3.org/2000/svg"
   xmlns:sodipodi="http://sodipodi.sourceforge.net/DTD/sodipodi-0.dtd"
   xmlns:inkscape="http://www.inkscape.org/namespaces/inkscape"
   sodipodi:docname="figB.svg"
   inkscape:version="0.48.4 r9939"
   version="1.1"
   id="svg2"
   height="283.46457"
   width="496.06299">
  <sodipodi:namedview
     id="base"
     pagecolor="#ffffff"
     bordercolor="#666666"
     borderopacity="1.0"
     inkscape:pageopacity="0.0"
     inkscape:pageshadow="2"
     inkscape:zoom="3.4229524"
     inkscape:cx="384.35934"
     inkscape:cy="141.89937"
     inkscape:document-units="cm"
     inkscape:current-layer="layer1"
     showgrid="false"
     units="cm"
     inkscape:object-nodes="true"
     inkscape:window-width="1366"
     inkscape:window-height="744"
     inkscape:window-x="0"
     inkscape:window-y="24"
     inkscape:window-maximized="1">
    <inkscape:grid
       type="xygrid"
       id="grid2985"
       empspacing="5"
       visible="true"
       enabled="true"
       snapvisiblegridlinesonly="true" />
  </sodipodi:namedview>
  <defs
     id="defs4">
    <marker
       inkscape:stockid="Arrow1Mend"
       orient="auto"
       refY="0"
       refX="0"
       id="Arrow1Mend"
       style="overflow:visible">
      <path
         inkscape:connector-curvature="0"
         id="path3949"
         d="M 0,0 5,-5 -12.5,0 5,5 0,0 z"
         style="fill-rule:evenodd;stroke:#000000;stroke-width:1pt"
         transform="matrix(-0.4,0,0,-0.4,-4,0)" />
    </marker>
  </defs>
  <metadata
     id="metadata7">
    <rdf:RDF>
      <cc:Work
         rdf:about="">
        <dc:format>image/svg+xml</dc:format>
        <dc:type
           rdf:resource="http://purl.org/dc/dcmitype/StillImage" />
        <dc:title></dc:title>
      </cc:Work>
    </rdf:RDF>
  </metadata>
  <g
     inkscape:label="Layer 1"
     inkscape:groupmode="layer"
     id="layer1"
     transform="translate(0,-768.89631)">
    <text
       xml:space="preserve"
       style="font-size:12px;font-style:normal;font-variant:normal;font-weight:normal;font-stretch:normal;text-align:center;line-height:125%;letter-spacing:0px;word-spacing:0px;text-anchor:middle;fill:#000000;fill-opacity:1;stroke:none;font-family:LMRoman12;-inkscape-font-specification:LMRoman12"
       x="140.30785"
       y="115.38005"
       id="text3819"
       sodipodi:linespacing="125%"
       transform="translate(0,768.89631)"><tspan
         sodipodi:role="line"
         id="tspan3821"
         x="140.30785"
         y="115.38005" /></text>
    <path
       sodipodi:nodetypes="cc"
       inkscape:connector-curvature="0"
       id="path4184"
       d="m 272.9546,967.36088 195,0"
       style="fill:none;stroke:#000000;stroke-width:1px;stroke-linecap:butt;stroke-linejoin:miter;stroke-opacity:1" />
    <path
       style="fill:none;stroke:#000000;stroke-width:1;stroke-linecap:butt;stroke-linejoin:round;stroke-miterlimit:4;stroke-opacity:1;stroke-dasharray:none"
       d="m 272.9546,872.36088 44.00704,0 2.41998,5 5,-10 5,10 5,-10 5,10 5,-10 5.02528,10.14251 5,-9.79881 2.55474,4.6563 110.99296,0"
       id="path4186"
       inkscape:connector-curvature="0"
       sodipodi:nodetypes="cccccccccccc" />
    <path
       sodipodi:type="arc"
       id="path4194"
       style="fill:#000000;stroke:none"
       sodipodi:cx="200"
       sodipodi:cy="882.3609"
       sodipodi:rx="2.5"
       sodipodi:ry="2.5"
       d="m 202.5,882.3609 c 0,1.38071 -1.11929,2.5 -2.5,2.5 -1.38071,0 -2.5,-1.11929 -2.5,-2.5 0,-1.38071 1.11929,-2.5 2.5,-2.5 1.38071,0 2.5,1.11929 2.5,2.5 z"
       transform="translate(207.9546,84.999996)" />
    <path
       sodipodi:type="arc"
       id="path4196"
       style="fill:#000000;stroke:none"
       sodipodi:cx="200"
       sodipodi:cy="787.3609"
       sodipodi:rx="2.5"
       sodipodi:ry="2.5"
       d="m 202.5,787.3609 c 0,1.38071 -1.11929,2.5 -2.5,2.5 -1.38071,0 -2.5,-1.11929 -2.5,-2.5 0,-1.38071 1.11929,-2.5 2.5,-2.5 1.38071,0 2.5,1.11929 2.5,2.5 z"
       transform="translate(207.9546,84.999996)" />
    <path
       sodipodi:nodetypes="cccccccccccc"
       inkscape:connector-curvature="0"
       id="path4198"
       d="m 407.81209,872.36088 0,25 5,2.41998 -10,5 10,5 -10,5 10,5 -10,5 10.14251,5.02528 -9.79881,5 4.6563,2.55474 0,30"
       style="fill:none;stroke:#000000;stroke-width:1;stroke-linecap:butt;stroke-linejoin:round;stroke-miterlimit:4;stroke-opacity:1;stroke-dasharray:none" />
    <path
       transform="matrix(0.66666667,0,0,0.66666667,346.66667,763.3487)"
       d="m 188,163.46457 c 0,1.65685 -1.34315,3 -3,3 -1.65685,0 -3,-1.34315 -3,-3 0,-1.65686 1.34315,-3 3,-3 1.65685,0 3,1.34314 3,3 z"
       sodipodi:ry="3"
       sodipodi:rx="3"
       sodipodi:cy="163.46457"
       sodipodi:cx="185"
       id="path4200"
       style="fill:#ffffff;stroke:#000000;stroke-width:1.06299212;stroke-miterlimit:4;stroke-dasharray:none"
       sodipodi:type="arc" />
    <path
       sodipodi:type="arc"
       style="fill:#ffffff;stroke:#000000;stroke-width:1.06299212;stroke-miterlimit:4;stroke-dasharray:none"
       id="path4202"
       sodipodi:cx="185"
       sodipodi:cy="163.46457"
       sodipodi:rx="3"
       sodipodi:ry="3"
       d="m 188,163.46457 c 0,1.65685 -1.34315,3 -3,3 -1.65685,0 -3,-1.34315 -3,-3 0,-1.65686 1.34315,-3 3,-3 1.65685,0 3,1.34314 3,3 z"
       transform="matrix(0.66666667,0,0,0.66666667,346.62127,858.3845)" />
    <path
       inkscape:connector-curvature="0"
       id="path4210"
       d="m 469.5924,911.1684 0,-34.50957"
       style="fill:none;stroke:#000000;stroke-width:0.80000001;stroke-linecap:butt;stroke-linejoin:miter;stroke-miterlimit:4;stroke-opacity:1;stroke-dasharray:none;marker-end:url(#Arrow1Mend)" />
    <path
       style="fill:none;stroke:#000000;stroke-width:0.80000001;stroke-linecap:butt;stroke-linejoin:miter;stroke-miterlimit:4;stroke-opacity:1;stroke-dasharray:none;marker-end:url(#Arrow1Mend)"
       d="m 469.5924,928.40904 0,34.99363"
       id="path4218"
       inkscape:connector-curvature="0" />
    <path
       sodipodi:type="arc"
       style="fill:#ffffff;stroke:#000000;stroke-width:1.06299212;stroke-miterlimit:4;stroke-dasharray:none"
       id="path4228"
       sodipodi:cx="185"
       sodipodi:cy="163.46457"
       sodipodi:rx="3"
       sodipodi:ry="3"
       d="m 188,163.46457 c 0,1.65685 -1.34315,3 -3,3 -1.65685,0 -3,-1.34315 -3,-3 0,-1.65686 1.34315,-3 3,-3 1.65685,0 3,1.34314 3,3 z"
       transform="matrix(0.66666667,0,0,0.66666667,149.66667,763.3487)" />
    <path
       transform="matrix(0.66666667,0,0,0.66666667,149.62127,858.3845)"
       d="m 188,163.46457 c 0,1.65685 -1.34315,3 -3,3 -1.65685,0 -3,-1.34315 -3,-3 0,-1.65686 1.34315,-3 3,-3 1.65685,0 3,1.34314 3,3 z"
       sodipodi:ry="3"
       sodipodi:rx="3"
       sodipodi:cy="163.46457"
       sodipodi:cx="185"
       id="path4230"
       style="fill:#ffffff;stroke:#000000;stroke-width:1.06299212;stroke-miterlimit:4;stroke-dasharray:none"
       sodipodi:type="arc" />
    <path
       style="fill:none;stroke:#000000;stroke-width:0.80000001;stroke-linecap:butt;stroke-linejoin:miter;stroke-miterlimit:4;stroke-opacity:1;stroke-dasharray:none;marker-end:url(#Arrow1Mend)"
       d="m 272.5924,909.32181 0,-32.66298"
       id="path4232"
       inkscape:connector-curvature="0" />
    <path
       inkscape:connector-curvature="0"
       id="path4234"
       d="m 272.9546,926.84194 0,35.49724"
       style="fill:none;stroke:#000000;stroke-width:0.80000001;stroke-linecap:butt;stroke-linejoin:miter;stroke-miterlimit:4;stroke-opacity:1;stroke-dasharray:none;marker-end:url(#Arrow1Mend)" />
    <g
       id="g3151"
       transform="matrix(1.2,0,0,-1.2,-8.7689982,1723.6098)"
       xml:space="preserve"
       stroke-miterlimit="10.433"
       font-style="normal"
       font-variant="normal"
       font-weight="normal"
       font-stretch="normal"
       font-size-adjust="none"
       letter-spacing="normal"
       word-spacing="normal"
       ns0:text="$+$"
       ns0:preamble="/home/sriranga/Desktop/MCT/package.tex"
       style="font-style:normal;font-variant:normal;font-weight:normal;font-stretch:normal;letter-spacing:normal;word-spacing:normal;text-anchor:start;fill:none;stroke:#000000;stroke-width:1;stroke-linecap:butt;stroke-linejoin:miter;stroke-miterlimit:10.43299961;stroke-opacity:1;stroke-dasharray:none;stroke-dashoffset:0"><polygon
         style="fill:#000000;stroke-width:0"
         points="226.87,712.2 226.32,712.2 226.32,709.96 224.05,709.96 224.05,709.4 226.32,709.4 226.32,707.12 226.87,707.12 226.87,709.4 229.14,709.4 229.14,709.96 226.87,709.96 "
         id="polygon3153" /></g>    <g
       style="font-style:normal;font-variant:normal;font-weight:normal;font-stretch:normal;letter-spacing:normal;word-spacing:normal;text-anchor:start;fill:none;stroke:#000000;stroke-width:1;stroke-linecap:butt;stroke-linejoin:miter;stroke-miterlimit:10.43299961;stroke-opacity:1;stroke-dasharray:none;stroke-dashoffset:0"
       ns0:preamble="/home/sriranga/Desktop/MCT/package.tex"
       ns0:text="$-$"
       text-anchor="start"
       word-spacing="normal"
       letter-spacing="normal"
       font-size-adjust="none"
       font-stretch="normal"
       font-weight="normal"
       font-variant="normal"
       font-style="normal"
       fill-opacity="1"
       fill-rule="evenodd"
       fill="none"
       stroke-opacity="1"
       stroke-dashoffset="0"
       stroke-dasharray="none"
       stroke-miterlimit="10.433"
       stroke-linejoin="miter"
       stroke-linecap="butt"
       stroke="black"
       xml:space="preserve"
       transform="matrix(1.2,0,0,-1.2,-8.7689982,1819.6328)"
       id="g3311"><polygon
         id="polygon3313"
         fill="black"
         stroke-width="0"
         points="229.14,709.4 229.14,709.96 224.05,709.96 224.05,709.4 " /></g>    <g
       style="font-style:normal;font-variant:normal;font-weight:normal;font-stretch:normal;letter-spacing:normal;word-spacing:normal;text-anchor:start;fill:none;stroke:#000000;stroke-width:1;stroke-linecap:butt;stroke-linejoin:miter;stroke-miterlimit:10.43299961;stroke-opacity:1;stroke-dasharray:none;stroke-dashoffset:0"
       ns0:preamble="/home/sriranga/Desktop/MCT/package.tex"
       ns0:text="$+$"
       word-spacing="normal"
       letter-spacing="normal"
       font-size-adjust="none"
       font-stretch="normal"
       font-weight="normal"
       font-variant="normal"
       font-style="normal"
       stroke-miterlimit="10.433"
       xml:space="preserve"
       transform="matrix(1.2,0,0,-1.2,206.77924,1723.6098)"
       id="g3392"><polygon
         id="polygon3394"
         points="224.05,709.96 224.05,709.4 226.32,709.4 226.32,707.12 226.87,707.12 226.87,709.4 229.14,709.4 229.14,709.96 226.87,709.96 226.87,712.2 226.32,712.2 226.32,709.96 "
         style="fill:#000000;stroke-width:0" /></g>    <g
       id="g3396"
       transform="matrix(1.2,0,0,-1.2,206.77924,1819.6328)"
       xml:space="preserve"
       stroke-miterlimit="10.433"
       font-style="normal"
       font-variant="normal"
       font-weight="normal"
       font-stretch="normal"
       font-size-adjust="none"
       letter-spacing="normal"
       word-spacing="normal"
       ns0:text="$-$"
       ns0:preamble="/home/sriranga/Desktop/MCT/package.tex"
       style="font-style:normal;font-variant:normal;font-weight:normal;font-stretch:normal;letter-spacing:normal;word-spacing:normal;text-anchor:start;fill:none;stroke:#000000;stroke-width:1;stroke-linecap:butt;stroke-linejoin:miter;stroke-miterlimit:10.43299961;stroke-opacity:1;stroke-dasharray:none;stroke-dashoffset:0"><polygon
         points="224.05,709.4 229.14,709.4 229.14,709.96 224.05,709.96 "
         id="polygon3398"
         style="fill:#000000;stroke-width:0" /></g>    <g
       id="g4149"
       transform="matrix(1.2,0,0,-1.2,68.381568,1768.6226)"
       xml:space="preserve"
       stroke-miterlimit="10.433"
       font-style="normal"
       font-variant="normal"
       font-weight="normal"
       font-stretch="normal"
       font-size-adjust="none"
       letter-spacing="normal"
       word-spacing="normal"
       ns0:text="$Z= (Z_Z \\, ||\\,  R_L)$"
       ns0:preamble="/home/sriranga/Desktop/MCT/package.tex"
       style="font-style:normal;font-variant:normal;font-weight:normal;font-stretch:normal;letter-spacing:normal;word-spacing:normal;text-anchor:start;fill:none;stroke:#000000;stroke-width:1;stroke-linecap:butt;stroke-linejoin:miter;stroke-miterlimit:10.43299961;stroke-opacity:1;stroke-dasharray:none;stroke-dashoffset:0"><path
         style="fill:#000000;stroke-width:0"
         inkscape:connector-curvature="0"
         d="m 229.46,713.61 h -4.83 l -0.46,-1.45 0.19,-0.05 c 0.21,0.44 0.33,0.61 0.52,0.78 0.28,0.23 0.81,0.36 1.56,0.36 h 1.7 l -4.77,-5.99 v -0.14 h 5.03 l 0.53,1.67 -0.19,0.03 c -0.31,-0.63 -0.49,-0.87 -0.83,-1.06 -0.34,-0.2 -0.84,-0.28 -1.65,-0.28 h -1.6 l 4.8,5.99 z"
         id="path4151" /><polygon
         style="fill:#000000;stroke-width:0"
         points="232.85,710.96 232.85,710.4 237.95,710.4 237.95,710.96 "
         id="polygon4153" /><polygon
         style="fill:#000000;stroke-width:0"
         points="232.85,708.94 232.85,708.39 237.95,708.39 237.95,708.94 "
         id="polygon4155" /><path
         style="fill:#000000;stroke-width:0"
         inkscape:connector-curvature="0"
         d="m 244.27,713.84 -0.06,-0.04 -0.07,-0.05 -0.06,-0.04 -0.06,-0.04 -0.06,-0.04 -0.06,-0.04 -0.05,-0.04 -0.05,-0.03 -0.05,-0.04 -0.05,-0.04 -0.05,-0.03 -0.05,-0.04 -0.04,-0.03 -0.04,-0.04 -0.08,-0.06 -0.08,-0.07 -0.08,-0.07 -0.07,-0.07 -0.07,-0.07 -0.06,-0.07 -0.07,-0.08 -0.07,-0.08 -0.07,-0.08 c -0.7,-0.87 -1.05,-1.86 -1.05,-3.02 0,-1.26 0.37,-2.24 1.24,-3.25 0.41,-0.48 0.67,-0.7 1.18,-1.01 l 0.13,0.16 c -0.8,0.62 -1.08,0.97 -1.35,1.71 -0.24,0.67 -0.35,1.42 -0.35,2.42 0,1.04 0.13,1.86 0.4,2.47 0.28,0.62 0.58,0.97 1.3,1.55 z"
         id="path4157" /><path
         style="fill:#000000;stroke-width:0"
         inkscape:connector-curvature="0"
         d="m 250.69,713.61 h -4.84 l -0.46,-1.45 0.19,-0.05 c 0.21,0.44 0.33,0.61 0.52,0.78 0.29,0.23 0.82,0.36 1.56,0.36 h 1.7 l -4.76,-5.99 v -0.14 h 5.02 l 0.54,1.67 -0.19,0.03 c -0.32,-0.63 -0.5,-0.87 -0.84,-1.06 -0.33,-0.2 -0.83,-0.28 -1.65,-0.28 h -1.6 l 4.81,5.99 z"
         id="path4159" /><path
         style="fill:#000000;stroke-width:0"
         inkscape:connector-curvature="0"
         d="m 254.42,710.17 h -3.39 l -0.32,-1.01 0.14,-0.04 c 0.14,0.31 0.22,0.43 0.36,0.54 0.2,0.17 0.57,0.26 1.09,0.26 h 1.19 l -3.34,-4.19 v -0.1 h 3.52 l 0.38,1.17 -0.13,0.02 c -0.23,-0.44 -0.35,-0.61 -0.59,-0.74 -0.24,-0.14 -0.58,-0.2 -1.15,-0.2 h -1.13 l 3.37,4.19 z"
         id="path4161" /><polygon
         style="fill:#000000;stroke-width:0"
         points="257.3,713.85 257.3,705.51 257.86,705.51 257.86,713.85 "
         id="polygon4163" /><polygon
         style="fill:#000000;stroke-width:0"
         points="259.29,713.85 259.29,705.51 259.85,705.51 259.85,713.85 "
         id="polygon4165" /><path
         style="fill:#000000;stroke-width:0"
         inkscape:connector-curvature="0"
         d="m 267.87,707.28 -0.04,0.01 -0.04,0 -0.04,0.01 -0.04,0 -0.03,0.01 -0.03,0.01 -0.04,0.01 -0.03,0.01 -0.03,0.01 -0.03,0.01 -0.03,0.01 -0.03,0.02 -0.02,0.01 -0.03,0.02 -0.02,0.02 -0.03,0.02 -0.02,0.02 -0.03,0.02 -0.02,0.03 -0.02,0.02 -0.02,0.03 -0.02,0.03 -0.02,0.03 -0.02,0.03 -0.02,0.04 -0.02,0.03 -0.02,0.04 -0.02,0.04 -0.01,0.04 -0.02,0.05 -0.02,0.04 -0.02,0.05 -0.92,2.43 c 0.76,0.17 1.09,0.31 1.45,0.63 0.33,0.29 0.51,0.67 0.51,1.12 0,0.92 -0.74,1.43 -2.07,1.43 l -0.21,-0.3 c 0.82,0 1.23,-0.37 1.23,-1.11 0,-0.98 -0.63,-1.49 -1.88,-1.49 -0.16,0 -0.27,0.01 -0.51,0.05 l 0.65,2.28 c 0.06,0.2 0.19,0.27 0.51,0.27 l 0.21,0.3 h -2.47 v -0.16 c 0.42,-0.06 0.47,-0.07 0.57,-0.14 0.08,-0.05 0.14,-0.16 0.14,-0.27 0,-0.12 -0.05,-0.36 -0.12,-0.63 l -1.23,-4.39 c -0.18,-0.59 -0.25,-0.65 -0.8,-0.74 v -0.16 h 2.42 v 0.16 c -0.6,0.08 -0.67,0.13 -0.67,0.46 0,0.1 0.03,0.23 0.12,0.58 l 0.55,2.07 0.65,-0.05 1.23,-3.22 h 1.47 z"
         id="path4167" /><path
         style="fill:#000000;stroke-width:0"
         inkscape:connector-curvature="0"
         d="m 271.3,710.17 h -1.91 v -0.11 c 0.44,-0.04 0.54,-0.1 0.54,-0.3 0,-0.1 -0.03,-0.26 -0.08,-0.43 L 269,706.26 c -0.13,-0.41 -0.18,-0.45 -0.57,-0.52 v -0.11 h 3.55 l 0.4,1.25 -0.14,0.04 c -0.24,-0.5 -0.43,-0.73 -0.73,-0.88 -0.25,-0.12 -0.53,-0.16 -1.14,-0.16 -0.53,0 -0.7,0.06 -0.7,0.24 0,0.05 0.03,0.21 0.07,0.35 l 0.85,3.08 c 0.11,0.35 0.29,0.48 0.71,0.51 z"
         id="path4169" /><path
         style="fill:#000000;stroke-width:0"
         inkscape:connector-curvature="0"
         d="m 273.26,705.37 0.07,0.04 0.07,0.04 0.06,0.05 0.06,0.04 0.06,0.04 0.05,0.03 0.06,0.04 0.05,0.04 0.05,0.04 0.05,0.03 0.05,0.04 0.04,0.03 0.05,0.04 0.04,0.03 0.08,0.07 0.08,0.07 0.07,0.07 0.08,0.07 0.07,0.07 0.06,0.07 0.07,0.08 0.07,0.08 0.07,0.08 c 0.7,0.86 1.05,1.86 1.05,3.02 0,1.27 -0.37,2.23 -1.24,3.25 -0.41,0.47 -0.67,0.69 -1.19,1.01 l -0.12,-0.16 c 0.8,-0.63 1.07,-0.97 1.35,-1.72 0.24,-0.66 0.34,-1.42 0.34,-2.41 0,-1.03 -0.12,-1.86 -0.39,-2.46 -0.28,-0.63 -0.58,-0.99 -1.3,-1.56 z"
         id="path4171" /></g>    <g
       style="font-style:normal;font-variant:normal;font-weight:normal;font-stretch:normal;letter-spacing:normal;word-spacing:normal;text-anchor:start;fill:none;stroke:#000000;stroke-width:1;stroke-linecap:butt;stroke-linejoin:miter;stroke-miterlimit:10.43299961;stroke-opacity:1;stroke-dasharray:none;stroke-dashoffset:0"
       ns0:preamble="/home/sriranga/Desktop/MCT/package.tex"
       ns0:text="$R$"
       word-spacing="normal"
       letter-spacing="normal"
       font-size-adjust="none"
       font-stretch="normal"
       font-weight="normal"
       font-variant="normal"
       font-style="normal"
       stroke-miterlimit="10.433"
       xml:space="preserve"
       transform="matrix(1.2,0,0,-1.2,66.223318,1712.1064)"
       id="g4346"><path
         id="path4348"
         d="m 229.07,707.28 -0.04,0.01 -0.04,0 -0.03,0.01 -0.04,0 -0.04,0.01 -0.03,0.01 -0.03,0.01 -0.03,0.01 -0.03,0.01 -0.03,0.01 -0.03,0.01 -0.03,0.02 -0.03,0.01 -0.02,0.02 -0.03,0.02 -0.02,0.02 -0.03,0.02 -0.02,0.02 -0.02,0.03 -0.02,0.02 -0.02,0.03 -0.03,0.03 -0.02,0.03 -0.02,0.03 -0.01,0.04 -0.02,0.03 -0.02,0.04 -0.02,0.04 -0.02,0.04 -0.02,0.05 -0.02,0.04 -0.01,0.05 -0.93,2.43 c 0.77,0.17 1.1,0.31 1.45,0.63 0.33,0.29 0.51,0.67 0.51,1.12 0,0.92 -0.73,1.43 -2.07,1.43 l -0.21,-0.3 c 0.83,0 1.24,-0.37 1.24,-1.11 0,-0.98 -0.64,-1.49 -1.88,-1.49 -0.16,0 -0.27,0.01 -0.51,0.05 l 0.65,2.28 c 0.06,0.2 0.18,0.27 0.5,0.27 l 0.21,0.3 h -2.47 v -0.16 c 0.42,-0.06 0.47,-0.07 0.57,-0.14 0.08,-0.05 0.14,-0.16 0.14,-0.27 0,-0.12 -0.05,-0.36 -0.12,-0.63 l -1.22,-4.39 c -0.18,-0.59 -0.25,-0.65 -0.81,-0.74 v -0.16 h 2.43 v 0.16 c -0.61,0.08 -0.68,0.13 -0.68,0.46 0,0.1 0.03,0.23 0.12,0.58 l 0.56,2.07 0.65,-0.05 1.22,-3.22 h 1.47 z"
         inkscape:connector-curvature="0"
         style="fill:#000000;stroke-width:0" /></g>    <g
       id="content"
       transform="matrix(1.2,0,0,-1.2,-2.901152,1769.9778)"
       xml:space="preserve"
       stroke-miterlimit="10.433"
       font-style="normal"
       font-variant="normal"
       font-weight="normal"
       font-stretch="normal"
       font-size-adjust="none"
       letter-spacing="normal"
       word-spacing="normal"
       ns0:text="$V_{r_i}$"
       ns0:preamble="/home/sriranga/Desktop/MCT/package.tex"
       style="font-style:normal;font-variant:normal;font-weight:normal;font-stretch:normal;letter-spacing:normal;word-spacing:normal;text-anchor:start;fill:none;stroke:#000000;stroke-width:1;stroke-linecap:butt;stroke-linejoin:miter;stroke-miterlimit:10.43299961;stroke-opacity:1;stroke-dasharray:none;stroke-dashoffset:0"><path
         style="fill:#000000;stroke-width:0"
         inkscape:connector-curvature="0"
         d="m 230.28,713.61 h -1.85 v -0.16 c 0.44,-0.05 0.62,-0.15 0.62,-0.34 0,-0.18 -0.19,-0.61 -0.51,-1.18 l -2.05,-3.53 -0.66,4.4 c -0.01,0.05 -0.01,0.09 -0.01,0.15 0,0.33 0.14,0.43 0.77,0.5 v 0.16 h -2.4 v -0.16 c 0.55,-0.07 0.57,-0.1 0.78,-1.34 l 0.85,-5.16 h 0.19 l 3.71,6.1 c 0.17,0.27 0.33,0.39 0.56,0.4 z"
         id="path3081" /><path
         style="fill:#000000;stroke-width:0"
         inkscape:connector-curvature="0"
         d="m 230.36,705.63 0.04,0.11 0.03,0.1 0.03,0.1 0.03,0.1 0.03,0.08 0.02,0.09 0.03,0.08 0.02,0.08 0.03,0.07 0.02,0.07 0.03,0.07 0.02,0.07 0.02,0.06 0.02,0.06 0.03,0.06 0.02,0.05 0.02,0.05 0.02,0.06 0.04,0.09 0.05,0.1 0.04,0.09 0.05,0.09 0.05,0.09 0.06,0.09 0.02,0.05 0.03,0.05 c 0.23,0.39 0.43,0.61 0.55,0.61 0.04,0 0.07,-0.03 0.11,-0.1 0.05,-0.12 0.11,-0.16 0.25,-0.16 0.2,0 0.32,0.13 0.32,0.35 0,0.21 -0.13,0.36 -0.33,0.36 -0.16,0 -0.35,-0.11 -0.53,-0.29 -0.28,-0.3 -0.56,-0.71 -0.67,-0.99 l -0.1,-0.25 0.37,1.51 -0.02,0.02 c -0.51,-0.09 -0.57,-0.11 -1.08,-0.19 v -0.12 c 0.17,0.04 0.18,0.04 0.23,0.04 0.16,0 0.25,-0.07 0.25,-0.2 0,-0.1 0,-0.1 -0.11,-0.57 l -0.57,-2.03 z"
         id="path3083" /><path
         style="fill:#000000;stroke-width:0"
         inkscape:connector-curvature="0"
         d="m 233.34,705.15 -0.01,-0.01 -0.02,-0.02 -0.01,-0.01 0,-0.01 -0.01,-0.02 -0.01,-0.01 -0.01,-0.01 -0.01,-0.01 -0.01,-0.01 0,-0.01 -0.01,-0.01 -0.01,0 0,-0.01 -0.01,-0.01 -0.01,-0.01 0,0 -0.01,-0.01 0,-0.01 -0.01,0 0,-0.01 -0.01,-0.01 0,0 -0.01,-0.01 -0.01,-0.01 -0.01,-0.01 -0.01,-0.01 -0.01,-0.01 c -0.08,-0.09 -0.16,-0.14 -0.2,-0.14 -0.04,0 -0.08,0.04 -0.08,0.08 0,0.05 0.01,0.12 0.05,0.22 0,0.01 0.01,0.05 0.02,0.09 v 0.01 l 0.01,0.01 0.44,1.6 -0.02,0.01 c -0.5,-0.1 -0.6,-0.11 -0.8,-0.13 v -0.08 c 0.27,0 0.32,-0.02 0.32,-0.12 0,-0.04 -0.02,-0.12 -0.05,-0.22 l -0.23,-0.88 c -0.08,-0.28 -0.11,-0.44 -0.11,-0.54 0,-0.18 0.07,-0.28 0.23,-0.28 0.22,0 0.41,0.15 0.69,0.57 z"
         id="path3085" /><path
         style="fill:#000000;stroke-width:0"
         inkscape:connector-curvature="0"
         d="m 233.3,707.83 -0.02,0 -0.01,0 -0.01,0 -0.01,0 -0.01,-0.01 -0.01,0 -0.02,0 -0.01,-0.01 -0.01,0 -0.01,-0.01 -0.01,0 -0.01,-0.01 -0.01,-0.01 0,-0.01 -0.01,0 -0.01,-0.01 -0.01,-0.01 -0.01,-0.01 0,-0.01 -0.01,-0.01 0,-0.01 -0.01,-0.01 0,-0.01 -0.01,-0.02 0,-0.01 -0.01,-0.01 0,-0.01 0,-0.02 0,-0.01 -0.01,-0.01 0,-0.02 0,-0.01 c 0,-0.16 0.1,-0.26 0.24,-0.26 0.13,0 0.24,0.11 0.24,0.25 0,0.14 -0.11,0.27 -0.24,0.27 z"
         id="path3087" /></g>    <g
       style="font-style:normal;font-variant:normal;font-weight:normal;font-stretch:normal;letter-spacing:normal;word-spacing:normal;text-anchor:start;fill:none;stroke:#000000;stroke-width:1;stroke-linecap:butt;stroke-linejoin:miter;stroke-miterlimit:10.43299961;stroke-opacity:1;stroke-dasharray:none;stroke-dashoffset:0"
       ns0:preamble="/home/sriranga/Desktop/MCT/package.tex"
       ns0:text="$ V_{r_o}$"
       text-anchor="start"
       word-spacing="normal"
       letter-spacing="normal"
       font-size-adjust="none"
       font-stretch="normal"
       font-weight="normal"
       font-variant="normal"
       font-style="normal"
       fill-opacity="1"
       fill-rule="evenodd"
       fill="none"
       stroke-opacity="1"
       stroke-dashoffset="0"
       stroke-dasharray="none"
       stroke-miterlimit="10.433"
       stroke-linejoin="miter"
       stroke-linecap="butt"
       stroke="black"
       xml:space="preserve"
       transform="matrix(1.2,0,0,-1.2,192.67027,1770.9851)"
       id="g3191"><path
         id="path3193"
         fill="black"
         stroke-width="0"
         d="M230.28,713.61 H228.43 V713.45 C228.87,713.4,229.05,713.3,229.05,713.11 C229.05,712.93,228.86,712.5,228.54,711.93 L226.49,708.4 L225.83,712.8 C225.82,712.85,225.82,712.89,225.82,712.95 C225.82,713.28,225.96,713.38,226.59,713.45 V713.61 H224.19 V713.45 C224.74,713.38,224.76,713.35,224.97,712.11 L225.82,706.95 H226.01 L229.72,713.05 C229.89,713.32,230.05,713.44,230.28,713.45 Z " /><path
         id="path3195"
         fill="black"
         stroke-width="0"
         d="M230.36,705.63 L230.4,705.74 L230.43,705.84 L230.46,705.94 L230.49,706.04 L230.52,706.12 L230.54,706.21 L230.57,706.29 L230.59,706.37 L230.62,706.44 L230.64,706.51 L230.67,706.58 L230.69,706.65 L230.71,706.71 L230.73,706.77 L230.76,706.83 L230.78,706.88 L230.8,706.93 L230.82,706.99 L230.86,707.08 L230.91,707.18 L230.95,707.27 L231,707.36 L231.05,707.45 L231.11,707.54 L231.13,707.59 L231.16,707.64 C231.39,708.03,231.59,708.25,231.71,708.25 C231.75,708.25,231.78,708.22,231.82,708.15 C231.87,708.03,231.93,707.99,232.07,707.99 C232.27,707.99,232.39,708.12,232.39,708.34 C232.39,708.55,232.26,708.7,232.06,708.7 C231.9,708.7,231.71,708.59,231.53,708.41 C231.25,708.11,230.97,707.7,230.86,707.42 L230.76,707.17 L231.13,708.68 L231.11,708.7 C230.6,708.61,230.54,708.59,230.03,708.51 V708.39 C230.2,708.43,230.21,708.43,230.26,708.43 C230.42,708.43,230.51,708.36,230.51,708.23 C230.51,708.13,230.51,708.13,230.4,707.66 L229.83,705.63 Z " /><path
         id="path3197"
         fill="black"
         stroke-width="0"
         d="M233.85,706.78 L233.79,706.67 C234,706.67,234.14,706.49,234.14,706.2 C234.14,705.84,233.98,705.34,233.76,705.02 C233.57,704.76,233.39,704.64,233.17,704.64 C232.94,704.64,232.78,704.81,232.78,705.09 C232.78,705.45,232.93,705.89,233.17,706.24 C233.37,706.52,233.57,706.67,233.79,706.67 H233.79 L233.85,706.78 C233.1,706.78,232.37,706.01,232.37,705.23 C232.37,704.8,232.65,704.53,233.1,704.53 C233.43,704.53,233.74,704.68,234.03,704.96 C234.36,705.28,234.56,705.71,234.56,706.08 C234.56,706.49,234.27,706.78,233.85,706.78 Z " /></g>  </g>
</svg>
