<?xml version="1.0" encoding="UTF-8" standalone="no"?>
<!-- Created with Inkscape (http://www.inkscape.org/) -->

<svg
   xmlns:ns0="http://www.iki.fi/pav/software/textext/"
   xmlns:dc="http://purl.org/dc/elements/1.1/"
   xmlns:cc="http://creativecommons.org/ns#"
   xmlns:rdf="http://www.w3.org/1999/02/22-rdf-syntax-ns#"
   xmlns:svg="http://www.w3.org/2000/svg"
   xmlns="http://www.w3.org/2000/svg"
   xmlns:xlink="http://www.w3.org/1999/xlink"
   xmlns:sodipodi="http://sodipodi.sourceforge.net/DTD/sodipodi-0.dtd"
   xmlns:inkscape="http://www.inkscape.org/namespaces/inkscape"
   width="354.33069"
   height="283.46457"
   id="svg2"
   version="1.1"
   inkscape:version="0.48.4 r9939"
   sodipodi:docname="newfig1.eps">
  <sodipodi:namedview
     id="base"
     pagecolor="#ffffff"
     bordercolor="#666666"
     borderopacity="1.0"
     inkscape:pageopacity="0.0"
     inkscape:pageshadow="2"
     inkscape:zoom="2.1060833"
     inkscape:cx="177.16534"
     inkscape:cy="141.73228"
     inkscape:document-units="cm"
     inkscape:current-layer="layer1"
     showgrid="false"
     units="cm"
     inkscape:object-nodes="true"
     inkscape:window-width="1366"
     inkscape:window-height="744"
     inkscape:window-x="0"
     inkscape:window-y="24"
     inkscape:window-maximized="1"
     inkscape:snap-nodes="false">
    <inkscape:grid
       snapvisiblegridlinesonly="true"
       enabled="true"
       visible="true"
       empspacing="5"
       id="grid2985"
       type="xygrid" />
  </sodipodi:namedview>
  <defs
     id="defs4">
    <inkscape:perspective
       id="perspective62"
       inkscape:persp3d-origin="177.16534 : 94.48819 : 1"
       inkscape:vp_z="354.33069 : 141.73228 : 1"
       inkscape:vp_y="0 : 1000 : 0"
       inkscape:vp_x="0 : 141.73228 : 1"
       sodipodi:type="inkscape:persp3d" />
    <marker
       style="overflow:visible;"
       id="Arrow1Mend"
       refX="0.0"
       refY="0.0"
       orient="auto"
       inkscape:stockid="Arrow1Mend">
      <path
         transform="scale(0.4) rotate(180) translate(10,0)"
         style="fill-rule:evenodd;stroke:#000000;stroke-width:1.0pt;"
         d="M 0.0,0.0 L 5.0,-5.0 L -12.5,0.0 L 5.0,5.0 L 0.0,0.0 z "
         id="path3949" />
    </marker>
  </defs>
  <metadata
     id="metadata7">
    <rdf:RDF>
      <cc:Work
         rdf:about="">
        <dc:format>image/svg+xml</dc:format>
        <dc:type
           rdf:resource="http://purl.org/dc/dcmitype/StillImage" />
        <dc:title></dc:title>
      </cc:Work>
    </rdf:RDF>
  </metadata>
  <g
     transform="translate(0,-768.89631)"
     id="layer1"
     inkscape:groupmode="layer"
     inkscape:label="Layer 1">
    <text
       transform="translate(0,768.89631)"
       sodipodi:linespacing="125%"
       id="text3819"
       y="115.38005"
       x="140.30785"
       style="font-size:12px;font-style:normal;font-variant:normal;font-weight:normal;font-stretch:normal;text-align:center;line-height:125%;letter-spacing:0px;word-spacing:0px;text-anchor:middle;fill:#000000;fill-opacity:1;stroke:none;font-family:LMRoman12;-inkscape-font-specification:LMRoman12"
       xml:space="preserve"><tspan
         y="115.38005"
         x="140.30785"
         id="tspan3821"
         sodipodi:role="line" /></text>
    <path
       style="fill:none;stroke:#000000;stroke-width:1px;stroke-linecap:butt;stroke-linejoin:miter;stroke-opacity:1"
       d="m 200,787.36089 0,95"
       id="path5064"
       inkscape:connector-curvature="0"
       sodipodi:nodetypes="cc" />
    <path
       inkscape:connector-curvature="0"
       id="path3901"
       d="m 55,823.93128 20,0"
       style="fill:none;stroke:#000000;stroke-width:1px;stroke-linecap:round;stroke-linejoin:miter;stroke-opacity:1" />
    <path
       inkscape:connector-curvature="0"
       id="path3903"
       d="m 60,828.93128 10,0"
       style="fill:none;stroke:#000000;stroke-width:1px;stroke-linecap:round;stroke-linejoin:miter;stroke-opacity:1" />
    <path
       sodipodi:nodetypes="ccc"
       inkscape:connector-curvature="0"
       id="path3905"
       d="m 65,828.93108 0,53.4298 225.47651,0"
       style="fill:none;stroke:#000000;stroke-width:1px;stroke-linecap:butt;stroke-linejoin:miter;stroke-opacity:1" />
    <path
       sodipodi:nodetypes="cccc"
       style="fill:none;stroke:#000000;stroke-width:1px;stroke-linecap:round;stroke-linejoin:miter;stroke-opacity:1"
       d="m 190,825.82125 3.01136,-5 13.80751,0 3.18113,-5"
       id="path3907"
       inkscape:connector-curvature="0" />
    <path
       style="fill:none;stroke:#000000;stroke-width:1;stroke-linecap:butt;stroke-linejoin:round;stroke-miterlimit:4;stroke-opacity:1;stroke-dasharray:none"
       d="m 65,824.26683 0,-36.90595 45,0 2.41998,5 5,-10 5,10 5,-10 5,10 5,-10 5.02528,10.14251 5,-9.79881 2.55474,4.6563 140.49635,0"
       id="path3911"
       inkscape:connector-curvature="0"
       sodipodi:nodetypes="ccccccccccccc" />
    <path
       inkscape:transform-center-y="-1.6666624"
       transform="matrix(1.3856407,0,0,-1.3333328,-77.128132,905.44064)"
       d="m 200,63.464569 -2.16506,-3.75 -2.16507,-3.75 4.33013,0 4.33013,0 -2.16507,3.75 z"
       inkscape:randomized="0"
       inkscape:rounded="0"
       inkscape:flatsided="false"
       sodipodi:arg2="2.6179939"
       sodipodi:arg1="1.5707963"
       sodipodi:r2="2.5"
       sodipodi:r1="5"
       sodipodi:cy="58.464569"
       sodipodi:cx="200"
       sodipodi:sides="3"
       id="path3051"
       style="fill:#ffffff;fill-opacity:1;stroke:#000000;stroke-width:0.7299149;stroke-linecap:square;stroke-linejoin:round;stroke-miterlimit:4;stroke-opacity:1;stroke-dasharray:none;stroke-dashoffset:0"
       sodipodi:type="star" />
    <g
       id="g3557"
       transform="matrix(1.2,0,0,-1.2,10.791866,1645.475)"
       xml:space="preserve"
       stroke-miterlimit="10.433"
       font-style="normal"
       font-variant="normal"
       font-weight="normal"
       font-stretch="normal"
       font-size-adjust="none"
       letter-spacing="normal"
       word-spacing="normal"
       ns0:text="$+$"
       ns0:preamble="/home/sriranga/Desktop/MCT/package.tex"
       style="font-style:normal;font-variant:normal;font-weight:normal;font-stretch:normal;letter-spacing:normal;word-spacing:normal;text-anchor:start;fill:none;stroke:#000000;stroke-width:1;stroke-linecap:butt;stroke-linejoin:miter;stroke-miterlimit:10.43299961;stroke-opacity:1;stroke-dasharray:none;stroke-dashoffset:0"><polygon
         points="226.87,712.2 226.32,712.2 226.32,709.96 224.05,709.96 224.05,709.4 226.32,709.4 226.32,707.12 226.87,707.12 226.87,709.4 229.14,709.4 229.14,709.96 226.87,709.96 "
         id="polygon3559"
         style="fill:#000000;stroke-width:0" /></g>    <g
       style="font-style:normal;font-variant:normal;font-weight:normal;font-stretch:normal;letter-spacing:normal;word-spacing:normal;text-anchor:start;fill:none;stroke:#000000;stroke-width:1;stroke-linecap:butt;stroke-linejoin:miter;stroke-miterlimit:10.43299961;stroke-opacity:1;stroke-dasharray:none;stroke-dashoffset:0"
       ns0:preamble="/home/sriranga/Desktop/MCT/package.tex"
       ns0:text="$-$"
       word-spacing="normal"
       letter-spacing="normal"
       font-size-adjust="none"
       font-stretch="normal"
       font-weight="normal"
       font-variant="normal"
       font-style="normal"
       stroke-miterlimit="10.433"
       xml:space="preserve"
       transform="matrix(1.2,0,0,-1.2,11.935616,1726.7529)"
       id="g3561"><polygon
         id="polygon3563"
         points="229.14,709.4 229.14,709.96 224.05,709.96 224.05,709.4 "
         style="fill:#000000;stroke-width:0" /></g>    <path
       sodipodi:type="arc"
       id="path4504"
       style="fill:#000000;stroke:none"
       sodipodi:cx="200"
       sodipodi:cy="882.3609"
       sodipodi:rx="2.5"
       sodipodi:ry="2.5"
       d="m 202.5,882.3609 c 0,1.38071 -1.11929,2.5 -2.5,2.5 -1.38071,0 -2.5,-1.11929 -2.5,-2.5 0,-1.38071 1.11929,-2.5 2.5,-2.5 1.38071,0 2.5,1.11929 2.5,2.5 z" />
    <path
       sodipodi:type="arc"
       id="path4506"
       style="fill:#000000;stroke:none"
       sodipodi:cx="200"
       sodipodi:cy="787.3609"
       sodipodi:rx="2.5"
       sodipodi:ry="2.5"
       d="m 202.5,787.3609 c 0,1.38071 -1.11929,2.5 -2.5,2.5 -1.38071,0 -2.5,-1.11929 -2.5,-2.5 0,-1.38071 1.11929,-2.5 2.5,-2.5 1.38071,0 2.5,1.11929 2.5,2.5 z" />
    <path
       sodipodi:nodetypes="cccccccccccc"
       inkscape:connector-curvature="0"
       id="path6056"
       d="m 289.85749,787.36088 0,25 5,2.41998 -10,5 10,5 -10,5 10,5 -10,5 10.14251,5.02528 -9.79881,5 4.6563,2.55474 0,30"
       style="fill:none;stroke:#000000;stroke-width:1;stroke-linecap:butt;stroke-linejoin:round;stroke-miterlimit:4;stroke-opacity:1;stroke-dasharray:none" />
    <g
       style="font-style:normal;font-variant:normal;font-weight:normal;font-stretch:normal;letter-spacing:normal;word-spacing:normal;text-anchor:start;fill:none;stroke:#000000;stroke-width:1;stroke-linecap:butt;stroke-linejoin:miter;stroke-miterlimit:10.43299961;stroke-opacity:1;stroke-dasharray:none;stroke-dashoffset:0"
       ns0:preamble="/home/sriranga/Desktop/MCT/package.tex"
       ns0:text="$I_1$"
       word-spacing="normal"
       letter-spacing="normal"
       font-size-adjust="none"
       font-stretch="normal"
       font-weight="normal"
       font-variant="normal"
       font-style="normal"
       stroke-miterlimit="10.433"
       xml:space="preserve"
       transform="matrix(1.2,0,0,-1.2,-85.536408,1630.3375)"
       id="content"><path
         id="path6356"
         d="m 223.6,707.12 h 2.43 v 0.16 c -0.57,0.07 -0.68,0.13 -0.68,0.41 0,0.19 0.02,0.31 0.11,0.63 l 1.23,4.4 c 0.18,0.57 0.24,0.63 0.81,0.73 v 0.16 h -2.46 v -0.16 c 0.58,-0.07 0.7,-0.15 0.7,-0.42 0,-0.14 -0.04,-0.37 -0.11,-0.62 l -1.22,-4.39 c -0.18,-0.58 -0.25,-0.64 -0.81,-0.74 z"
         inkscape:connector-curvature="0"
         style="fill:#000000;stroke-width:0" /><path
         id="path6358"
         d="m 229.03,710.33 -1.26,-0.63 v -0.1 c 0.09,0.04 0.16,0.06 0.19,0.08 0.13,0.05 0.24,0.08 0.31,0.08 0.15,0 0.21,-0.11 0.21,-0.33 v -3.15 c 0,-0.23 -0.05,-0.39 -0.16,-0.45 -0.11,-0.07 -0.21,-0.09 -0.5,-0.1 v -0.1 h 1.92 v 0.1 c -0.55,0.01 -0.66,0.08 -0.66,0.42 v 4.17 z"
         inkscape:connector-curvature="0"
         style="fill:#000000;stroke-width:0" /></g>    <path
       style="fill:none;stroke:#000000;stroke-width:0.69999999;stroke-linecap:butt;stroke-linejoin:miter;stroke-miterlimit:4;stroke-opacity:1;stroke-dasharray:none;marker-end:url(#Arrow1Mend)"
       d="m 160.87136,778.03737 18.65481,0"
       id="path6416"
       inkscape:connector-curvature="0" />
    <path
       inkscape:connector-curvature="0"
       id="path6424"
       d="m 219.87201,779.69922 20.98354,0"
       style="fill:none;stroke:#000000;stroke-width:0.69999993;stroke-linecap:butt;stroke-linejoin:miter;stroke-miterlimit:4;stroke-opacity:1;stroke-dasharray:none;marker-end:url(#Arrow1Mend)" />
    <g
       id="g6486"
       transform="matrix(1.2,0,0,-1.2,-24.125903,1631.0498)"
       xml:space="preserve"
       stroke-miterlimit="10.433"
       font-style="normal"
       font-variant="normal"
       font-weight="normal"
       font-stretch="normal"
       font-size-adjust="none"
       letter-spacing="normal"
       word-spacing="normal"
       ns0:text="$I_L$"
       ns0:preamble="/home/sriranga/Desktop/MCT/package.tex"
       style="font-style:normal;font-variant:normal;font-weight:normal;font-stretch:normal;letter-spacing:normal;word-spacing:normal;text-anchor:start;fill:none;stroke:#000000;stroke-width:1;stroke-linecap:butt;stroke-linejoin:miter;stroke-miterlimit:10.43299961;stroke-opacity:1;stroke-dasharray:none;stroke-dashoffset:0"><path
         style="fill:#000000;stroke-width:0"
         d="m 223.6,707.12 h 2.43 v 0.16 c -0.57,0.07 -0.68,0.13 -0.68,0.41 0,0.19 0.02,0.31 0.11,0.63 l 1.23,4.4 c 0.18,0.57 0.24,0.63 0.81,0.73 v 0.16 h -2.46 v -0.16 c 0.58,-0.07 0.7,-0.15 0.7,-0.42 0,-0.14 -0.04,-0.37 -0.11,-0.62 l -1.22,-4.39 c -0.18,-0.58 -0.25,-0.64 -0.81,-0.74 z"
         id="path6488"
         inkscape:connector-curvature="0" /><path
         style="fill:#000000;stroke-width:0"
         d="m 229.98,710.17 h -1.9 v -0.11 c 0.43,-0.04 0.54,-0.1 0.54,-0.3 0,-0.1 -0.03,-0.26 -0.08,-0.43 l -0.86,-3.07 c -0.12,-0.41 -0.17,-0.45 -0.56,-0.52 v -0.11 h 3.54 l 0.41,1.25 -0.14,0.04 c -0.25,-0.5 -0.44,-0.73 -0.74,-0.88 -0.24,-0.12 -0.53,-0.16 -1.14,-0.16 -0.53,0 -0.7,0.06 -0.7,0.24 0,0.05 0.03,0.21 0.07,0.35 l 0.86,3.08 c 0.1,0.35 0.28,0.48 0.7,0.51 z"
         id="path6490"
         inkscape:connector-curvature="0" /></g>    <g
       style="font-style:normal;font-variant:normal;font-weight:normal;font-stretch:normal;letter-spacing:normal;word-spacing:normal;text-anchor:start;fill:none;stroke:#000000;stroke-width:1;stroke-linecap:butt;stroke-linejoin:miter;stroke-miterlimit:10.43299961;stroke-opacity:1;stroke-dasharray:none;stroke-dashoffset:0"
       ns0:preamble="/home/sriranga/Desktop/MCT/package.tex"
       ns0:text="$+$"
       word-spacing="normal"
       letter-spacing="normal"
       font-size-adjust="none"
       font-stretch="normal"
       font-weight="normal"
       font-variant="normal"
       font-style="normal"
       stroke-miterlimit="10.433"
       xml:space="preserve"
       transform="matrix(1.2,0,0,-1.2,-55.543879,1663.475)"
       id="g2868"><polygon
         style="fill:#000000;stroke-width:0"
         id="polygon2870"
         points="229.14,709.4 229.14,709.96 226.87,709.96 226.87,712.2 226.32,712.2 226.32,709.96 224.05,709.96 224.05,709.4 226.32,709.4 226.32,707.12 226.87,707.12 226.87,709.4 " /></g>    <g
       id="g2872"
       transform="matrix(1.2,0,0,-1.2,-56.064384,1688.7529)"
       xml:space="preserve"
       stroke-miterlimit="10.433"
       font-style="normal"
       font-variant="normal"
       font-weight="normal"
       font-stretch="normal"
       font-size-adjust="none"
       letter-spacing="normal"
       word-spacing="normal"
       ns0:text="$-$"
       ns0:preamble="/home/sriranga/Desktop/MCT/package.tex"
       style="font-style:normal;font-variant:normal;font-weight:normal;font-stretch:normal;letter-spacing:normal;word-spacing:normal;text-anchor:start;fill:none;stroke:#000000;stroke-width:1;stroke-linecap:butt;stroke-linejoin:miter;stroke-miterlimit:10.43299961;stroke-opacity:1;stroke-dasharray:none;stroke-dashoffset:0"><polygon
         style="fill:#000000;stroke-width:0"
         points="224.05,709.4 229.14,709.4 229.14,709.96 224.05,709.96 "
         id="polygon2874" /></g>    <g
       id="g2913"
       ns0:preamble="/home/sriranga/Desktop/MCT/package.tex"
       ns0:text="$V_{Z}$"
       transform="matrix(1.2,0,0,1.2,-55.078543,668.06474)">
      <defs
         id="defs2915">
        <g
           id="g2917">
          <symbol
             id="textext-e76d9314-0"
             overflow="visible"
             style="overflow:visible">
            <path
               id="path2920"
               d=""
               style="stroke:none" />
          </symbol>
          <symbol
             id="textext-e76d9314-1"
             overflow="visible"
             style="overflow:visible">
            <path
               id="path2923"
               d="m 6.859375,-6.515625 -1.859375,0 0,0.171875 c 0.453125,0.046875 0.625,0.140625 0.625,0.328125 0,0.1875 -0.1875,0.625 -0.515625,1.1875 L 3.0625,-1.28125 2.40625,-5.6875 C 2.390625,-5.734375 2.390625,-5.78125 2.390625,-5.84375 c 0,-0.34375 0.140625,-0.4375 0.765625,-0.5 l 0,-0.171875 -2.40625,0 0,0.171875 C 1.3125,-6.28125 1.328125,-6.25 1.546875,-5 l 0.84375,5.171875 0.1875,0 3.71875,-6.125 C 6.46875,-6.21875 6.625,-6.34375 6.859375,-6.34375 l 0,-0.171875 z m 0,0"
               style="stroke:none" />
          </symbol>
          <symbol
             id="textext-e76d9314-2"
             overflow="visible"
             style="overflow:visible">
            <path
               id="path2926"
               d=""
               style="stroke:none" />
          </symbol>
          <symbol
             id="textext-e76d9314-3"
             overflow="visible"
             style="overflow:visible">
            <path
               id="path2929"
               d="m 4.21875,-4.546875 -3.375,0 -0.328125,1.015625 0.125,0.03125 c 0.15625,-0.3125 0.234375,-0.421875 0.375,-0.546875 0.203125,-0.15625 0.5625,-0.25 1.09375,-0.25 l 1.1875,0 -3.34375,4.203125 0,0.09375 3.53125,0 0.375,-1.171875 L 3.71875,-1.1875 C 3.5,-0.75 3.375,-0.578125 3.140625,-0.453125 2.90625,-0.3125 2.546875,-0.25 1.984375,-0.25 l -1.125,0 3.359375,-4.203125 0,-0.09375 z m 0,0"
               style="stroke:none" />
          </symbol>
        </g>
      </defs>
      <g
         id="textext-e76d9314-4">
        <g
           id="g2932"
           style="fill:#000000;fill-opacity:1">
          <use
             id="use2934"
             y="134.765"
             x="223.43201"
             xlink:href="#textext-e76d9314-1"
             width="354.33069"
             height="283.46457" />
        </g>
        <g
           id="g2936"
           style="fill:#000000;fill-opacity:1">
          <use
             id="use2938"
             y="136.259"
             x="229.519"
             xlink:href="#textext-e76d9314-3"
             width="354.33069"
             height="283.46457" />
        </g>
      </g>
    </g>
    <path
       style="fill:none;stroke:#000000;stroke-width:0.7;stroke-linecap:butt;stroke-linejoin:miter;stroke-miterlimit:4;stroke-opacity:1;stroke-dasharray:none;marker-end:url(#Arrow1Mend)"
       d="m 209.87212,843.80525 0,15.07215"
       id="path2991"
       inkscape:connector-curvature="0" />
    <g
       ns0:text="$I_{Z}$"
       ns0:preamble="/home/sriranga/Desktop/MCT/package.tex"
       transform="matrix(1.2,0,0,1.2,-61.078543,712.06474)"
       id="g3079">
      <defs
         id="defs3081">
        <g
           id="g3083">
          <symbol
             overflow="visible"
             id="textext-7f59b5b9-0">
            <path
               style="stroke:none;"
               d=""
               id="path3086" />
          </symbol>
          <symbol
             overflow="visible"
             id="textext-7f59b5b9-1">
            <path
               style="stroke:none;"
               d="M -0.078125 0 L 2.359375 0 L 2.359375 -0.15625 C 1.78125 -0.234375 1.671875 -0.296875 1.671875 -0.5625 C 1.671875 -0.75 1.6875 -0.875 1.78125 -1.203125 L 3.015625 -5.609375 C 3.1875 -6.1875 3.265625 -6.25 3.828125 -6.34375 L 3.828125 -6.515625 L 1.359375 -6.515625 L 1.359375 -6.34375 C 1.9375 -6.28125 2.0625 -6.203125 2.0625 -5.921875 C 2.0625 -5.78125 2.03125 -5.546875 1.953125 -5.296875 L 0.734375 -0.890625 C 0.546875 -0.3125 0.484375 -0.265625 -0.078125 -0.15625 L -0.078125 0 Z M -0.078125 0 "
               id="path3089" />
          </symbol>
          <symbol
             overflow="visible"
             id="textext-7f59b5b9-2">
            <path
               style="stroke:none;"
               d=""
               id="path3092" />
          </symbol>
          <symbol
             overflow="visible"
             id="textext-7f59b5b9-3">
            <path
               style="stroke:none;"
               d="M 4.21875 -4.546875 L 0.84375 -4.546875 L 0.515625 -3.53125 L 0.640625 -3.5 C 0.796875 -3.8125 0.875 -3.921875 1.015625 -4.046875 C 1.21875 -4.203125 1.578125 -4.296875 2.109375 -4.296875 L 3.296875 -4.296875 L -0.046875 -0.09375 L -0.046875 0 L 3.484375 0 L 3.859375 -1.171875 L 3.71875 -1.1875 C 3.5 -0.75 3.375 -0.578125 3.140625 -0.453125 C 2.90625 -0.3125 2.546875 -0.25 1.984375 -0.25 L 0.859375 -0.25 L 4.21875 -4.453125 L 4.21875 -4.546875 Z M 4.21875 -4.546875 "
               id="path3095" />
          </symbol>
        </g>
      </defs>
      <g
         id="textext-7f59b5b9-4">
        <g
           style="fill:rgb(0%,0%,0%);fill-opacity:1;"
           id="g3098">
          <use
             xlink:href="#textext-7f59b5b9-1"
             x="223.681"
             y="134.765"
             id="use3100" />
        </g>
        <g
           style="fill:rgb(0%,0%,0%);fill-opacity:1;"
           id="g3102">
          <use
             xlink:href="#textext-7f59b5b9-3"
             x="226.999"
             y="136.259"
             id="use3104" />
        </g>
      </g>
    </g>
    <g
       id="g3276"
       transform="matrix(1.2,0,0,1.2,-0.74279807,673.05752)"
       ns0:preamble="/home/sriranga/Desktop/MCT/package.tex"
       ns0:text="$V_{0}$">
      <defs
         id="defs3278">
        <g
           id="g3280">
          <symbol
             id="textext-ede5cbf3-0"
             overflow="visible"
             style="overflow:visible">
            <path
               id="path3283"
               d=""
               style="stroke:none" />
          </symbol>
          <symbol
             id="textext-ede5cbf3-1"
             overflow="visible"
             style="overflow:visible">
            <path
               id="path3286"
               d="m 6.859375,-6.515625 -1.859375,0 0,0.171875 c 0.453125,0.046875 0.625,0.140625 0.625,0.328125 0,0.1875 -0.1875,0.625 -0.515625,1.1875 L 3.0625,-1.28125 2.40625,-5.6875 C 2.390625,-5.734375 2.390625,-5.78125 2.390625,-5.84375 c 0,-0.34375 0.140625,-0.4375 0.765625,-0.5 l 0,-0.171875 -2.40625,0 0,0.171875 C 1.3125,-6.28125 1.328125,-6.25 1.546875,-5 l 0.84375,5.171875 0.1875,0 3.71875,-6.125 C 6.46875,-6.21875 6.625,-6.34375 6.859375,-6.34375 l 0,-0.171875 z m 0,0"
               style="stroke:none" />
          </symbol>
          <symbol
             id="textext-ede5cbf3-2"
             overflow="visible"
             style="overflow:visible">
            <path
               id="path3289"
               d=""
               style="stroke:none" />
          </symbol>
          <symbol
             id="textext-ede5cbf3-3"
             overflow="visible"
             style="overflow:visible">
            <path
               id="path3292"
               d="m 1.765625,-4.703125 c -0.375,0 -0.671875,0.109375 -0.921875,0.359375 -0.40625,0.390625 -0.671875,1.1875 -0.671875,2 0,0.765625 0.21875,1.578125 0.546875,1.96875 0.265625,0.3125 0.625,0.46875 1.015625,0.46875 0.359375,0 0.65625,-0.109375 0.90625,-0.359375 0.40625,-0.375 0.671875,-1.1875 0.671875,-2.03125 0,-1.4375 -0.625,-2.40625 -1.546875,-2.40625 z M 1.75,-4.53125 c 0.578125,0 0.890625,0.78125 0.890625,2.25 0,1.453125 -0.296875,2.203125 -0.90625,2.203125 -0.59375,0 -0.890625,-0.75 -0.890625,-2.203125 0,-1.46875 0.3125,-2.25 0.90625,-2.25 z m 0,0"
               style="stroke:none" />
          </symbol>
        </g>
      </defs>
      <g
         id="textext-ede5cbf3-4">
        <g
           id="g3295"
           style="fill:#000000;fill-opacity:1">
          <use
             id="use3297"
             y="134.765"
             x="223.43201"
             xlink:href="#textext-ede5cbf3-1"
             width="354.33069"
             height="283.46457" />
        </g>
        <g
           id="g3299"
           style="fill:#000000;fill-opacity:1">
          <use
             id="use3301"
             y="136.259"
             x="229.519"
             xlink:href="#textext-ede5cbf3-3"
             width="354.33069"
             height="283.46457" />
        </g>
      </g>
    </g>
    <g
       ns0:text="$V_{S}$\n\n$8V-12V$"
       ns0:preamble="/home/sriranga/Desktop/MCT/package.tex"
       transform="matrix(1.2,0,0,1.2,-160.34623,670.22685)"
       id="g4269">
      <defs
         id="defs4271">
        <g
           id="g4273">
          <symbol
             overflow="visible"
             id="textext-b058f5b5-0">
            <path
               style="stroke:none;"
               d=""
               id="path4276" />
          </symbol>
          <symbol
             overflow="visible"
             id="textext-b058f5b5-1">
            <path
               style="stroke:none;"
               d="M 6.859375 -6.515625 L 5 -6.515625 L 5 -6.34375 C 5.453125 -6.296875 5.625 -6.203125 5.625 -6.015625 C 5.625 -5.828125 5.4375 -5.390625 5.109375 -4.828125 L 3.0625 -1.28125 L 2.40625 -5.6875 C 2.390625 -5.734375 2.390625 -5.78125 2.390625 -5.84375 C 2.390625 -6.1875 2.53125 -6.28125 3.15625 -6.34375 L 3.15625 -6.515625 L 0.75 -6.515625 L 0.75 -6.34375 C 1.3125 -6.28125 1.328125 -6.25 1.546875 -5 L 2.390625 0.171875 L 2.578125 0.171875 L 6.296875 -5.953125 C 6.46875 -6.21875 6.625 -6.34375 6.859375 -6.34375 L 6.859375 -6.515625 Z M 6.859375 -6.515625 "
               id="path4279" />
          </symbol>
          <symbol
             overflow="visible"
             id="textext-b058f5b5-2">
            <path
               style="stroke:none;"
               d=""
               id="path4282" />
          </symbol>
          <symbol
             overflow="visible"
             id="textext-b058f5b5-3">
            <path
               style="stroke:none;"
               d="M 3.265625 -3.265625 L 3.546875 -4.640625 L 3.375 -4.640625 C 3.28125 -4.5 3.21875 -4.46875 3.0625 -4.46875 C 2.984375 -4.46875 2.90625 -4.484375 2.75 -4.546875 C 2.59375 -4.609375 2.375 -4.640625 2.15625 -4.640625 C 1.421875 -4.640625 0.90625 -4.15625 0.90625 -3.484375 C 0.90625 -3.09375 1.015625 -2.90625 1.4375 -2.453125 C 1.5 -2.390625 1.59375 -2.296875 1.703125 -2.15625 C 1.828125 -2.03125 1.9375 -1.921875 1.984375 -1.875 C 2.3125 -1.53125 2.390625 -1.34375 2.390625 -1.046875 C 2.390625 -0.515625 2 -0.125 1.5 -0.125 C 0.921875 -0.125 0.484375 -0.609375 0.484375 -1.28125 C 0.484375 -1.328125 0.484375 -1.390625 0.5 -1.4375 L 0.359375 -1.453125 L 0.125 0.109375 L 0.25 0.109375 C 0.296875 -0.0625 0.375 -0.125 0.515625 -0.125 C 0.578125 -0.125 0.6875 -0.09375 0.875 -0.03125 C 1.1875 0.078125 1.375 0.125 1.59375 0.125 C 2.390625 0.125 3 -0.484375 3 -1.265625 C 3 -1.71875 2.84375 -2 2.21875 -2.625 C 1.59375 -3.265625 1.53125 -3.359375 1.53125 -3.703125 C 1.53125 -4.140625 1.8125 -4.40625 2.296875 -4.40625 C 2.546875 -4.40625 2.765625 -4.328125 2.90625 -4.15625 C 3.0625 -3.984375 3.125 -3.75 3.140625 -3.28125 L 3.265625 -3.265625 Z M 3.265625 -3.265625 "
               id="path4285" />
          </symbol>
          <symbol
             overflow="visible"
             id="textext-b058f5b5-4">
            <path
               style="stroke:none;"
               d=""
               id="path4288" />
          </symbol>
          <symbol
             overflow="visible"
             id="textext-b058f5b5-5">
            <path
               style="stroke:none;"
               d="M 2.890625 -3.703125 C 3.875 -4.234375 4.234375 -4.640625 4.234375 -5.328125 C 4.234375 -6.140625 3.515625 -6.734375 2.515625 -6.734375 C 1.421875 -6.734375 0.625 -6.078125 0.625 -5.15625 C 0.625 -4.515625 0.8125 -4.234375 1.859375 -3.3125 C 0.78125 -2.5 0.5625 -2.1875 0.5625 -1.5 C 0.5625 -0.53125 1.34375 0.140625 2.46875 0.140625 C 3.671875 0.140625 4.4375 -0.515625 4.4375 -1.546875 C 4.4375 -2.3125 4.09375 -2.796875 2.890625 -3.703125 Z M 2.71875 -2.671875 C 3.4375 -2.15625 3.671875 -1.796875 3.671875 -1.234375 C 3.671875 -0.59375 3.234375 -0.140625 2.578125 -0.140625 C 1.828125 -0.140625 1.3125 -0.71875 1.3125 -1.578125 C 1.3125 -2.21875 1.53125 -2.640625 2.109375 -3.109375 L 2.71875 -2.671875 Z M 2.609375 -3.875 C 1.71875 -4.453125 1.359375 -4.921875 1.359375 -5.46875 C 1.359375 -6.046875 1.796875 -6.453125 2.4375 -6.453125 C 3.109375 -6.453125 3.53125 -6.015625 3.53125 -5.328125 C 3.53125 -4.765625 3.265625 -4.3125 2.6875 -3.9375 C 2.640625 -3.90625 2.640625 -3.90625 2.609375 -3.875 Z M 2.609375 -3.875 "
               id="path4291" />
          </symbol>
          <symbol
             overflow="visible"
             id="textext-b058f5b5-6">
            <path
               style="stroke:none;"
               d="M 2.90625 -6.734375 L 1.109375 -5.828125 L 1.109375 -5.6875 C 1.21875 -5.734375 1.328125 -5.78125 1.375 -5.796875 C 1.5625 -5.875 1.71875 -5.90625 1.828125 -5.90625 C 2.03125 -5.90625 2.125 -5.765625 2.125 -5.4375 L 2.125 -0.921875 C 2.125 -0.59375 2.046875 -0.375 1.890625 -0.28125 C 1.734375 -0.1875 1.59375 -0.15625 1.171875 -0.15625 L 1.171875 0 L 3.921875 0 L 3.921875 -0.15625 C 3.140625 -0.15625 2.984375 -0.265625 2.984375 -0.734375 L 2.984375 -6.71875 L 2.90625 -6.734375 Z M 2.90625 -6.734375 "
               id="path4294" />
          </symbol>
          <symbol
             overflow="visible"
             id="textext-b058f5b5-7">
            <path
               style="stroke:none;"
               d="M 4.734375 -1.359375 L 4.609375 -1.421875 C 4.234375 -0.84375 4.109375 -0.75 3.65625 -0.75 L 1.28125 -0.75 L 2.953125 -2.515625 C 3.84375 -3.4375 4.234375 -4.203125 4.234375 -4.96875 C 4.234375 -5.96875 3.421875 -6.734375 2.375 -6.734375 C 1.828125 -6.734375 1.3125 -6.515625 0.953125 -6.125 C 0.625 -5.78125 0.484375 -5.46875 0.3125 -4.75 L 0.515625 -4.703125 C 0.921875 -5.6875 1.28125 -6 1.96875 -6 C 2.796875 -6 3.375 -5.4375 3.375 -4.59375 C 3.375 -3.8125 2.90625 -2.890625 2.078125 -2 L 0.296875 -0.125 L 0.296875 0 L 4.1875 0 L 4.734375 -1.359375 Z M 4.734375 -1.359375 "
               id="path4297" />
          </symbol>
          <symbol
             overflow="visible"
             id="textext-b058f5b5-8">
            <path
               style="stroke:none;"
               d=""
               id="path4300" />
          </symbol>
          <symbol
             overflow="visible"
             id="textext-b058f5b5-9">
            <path
               style="stroke:none;"
               d="M 5.71875 -2.28125 L 5.71875 -2.84375 L 0.625 -2.84375 L 0.625 -2.28125 L 5.71875 -2.28125 Z M 5.71875 -2.28125 "
               id="path4303" />
          </symbol>
        </g>
      </defs>
      <g
         id="textext-b058f5b5-10">
        <g
           transform="translate(-68.82771,-6.1553236)"
           style="fill:#000000;fill-opacity:1"
           id="g4306">
          <use
             height="283.46457"
             width="354.33069"
             xlink:href="#textext-b058f5b5-1"
             x="223.43201"
             y="134.765"
             id="use4308" />
        </g>
        <g
           transform="translate(-68.82771,-6.1553236)"
           style="fill:#000000;fill-opacity:1"
           id="g4310">
          <use
             height="283.46457"
             width="354.33069"
             xlink:href="#textext-b058f5b5-3"
             x="229.519"
             y="136.259"
             id="use4312" />
        </g>
        <g
           transform="translate(-95.407517,-5.5957488)"
           style="fill:#000000;fill-opacity:1"
           id="g4314">
          <use
             height="283.46457"
             width="354.33069"
             xlink:href="#textext-b058f5b5-5"
             x="238.37601"
             y="146.72"
             id="use4316" />
        </g>
        <g
           transform="translate(-95.407517,-5.5957488)"
           style="fill:#000000;fill-opacity:1"
           id="g4318">
          <use
             height="283.46457"
             width="354.33069"
             xlink:href="#textext-b058f5b5-1"
             x="243.35699"
             y="146.72"
             id="use4320" />
        </g>
        <g
           transform="translate(-95.407517,-5.5957488)"
           style="fill:#000000;fill-opacity:1"
           id="g4322">
          <use
             height="283.46457"
             width="354.33069"
             xlink:href="#textext-b058f5b5-9"
             x="252.42599"
             y="146.72"
             id="use4324" />
        </g>
        <g
           transform="translate(-95.407517,-5.5957488)"
           style="fill:#000000;fill-opacity:1"
           id="g4326">
          <use
             height="283.46457"
             width="354.33069"
             xlink:href="#textext-b058f5b5-6"
             x="260.97601"
             y="146.72"
             id="use4328" />
          <use
             height="283.46457"
             width="354.33069"
             xlink:href="#textext-b058f5b5-7"
             x="265.95731"
             y="146.72"
             id="use4330" />
        </g>
        <g
           transform="translate(-95.407517,-5.5957488)"
           style="fill:#000000;fill-opacity:1"
           id="g4332">
          <use
             height="283.46457"
             width="354.33069"
             xlink:href="#textext-b058f5b5-1"
             x="270.93799"
             y="146.72"
             id="use4334" />
        </g>
      </g>
    </g>
    <g
       style="font-style:normal;font-variant:normal;font-weight:normal;font-stretch:normal;letter-spacing:normal;word-spacing:normal;text-anchor:start;fill:none;stroke:#000000;stroke-width:1;stroke-linecap:butt;stroke-linejoin:miter;stroke-miterlimit:10.43299961;stroke-opacity:1;stroke-dasharray:none;stroke-dashoffset:0"
       ns0:preamble="/home/sriranga/Desktop/MCT/package.tex"
       ns0:text="$R_1$"
       word-spacing="normal"
       letter-spacing="normal"
       font-size-adjust="none"
       font-stretch="normal"
       font-weight="normal"
       font-variant="normal"
       font-style="normal"
       stroke-miterlimit="10.433"
       xml:space="preserve"
       transform="matrix(1.2,0,0,-1.2,-143.06057,1626.3016)"
       id="g3371"><path
         id="path3373"
         d="m 229.07,707.28 -0.04,0.01 -0.04,0 -0.03,0.01 -0.04,0 -0.04,0.01 -0.03,0.01 -0.03,0.01 -0.03,0.01 -0.03,0.01 -0.03,0.01 -0.03,0.01 -0.03,0.02 -0.03,0.01 -0.02,0.02 -0.03,0.02 -0.02,0.02 -0.03,0.02 -0.02,0.02 -0.02,0.03 -0.02,0.02 -0.02,0.03 -0.03,0.03 -0.02,0.03 -0.02,0.03 -0.01,0.04 -0.02,0.03 -0.02,0.04 -0.02,0.04 -0.02,0.04 -0.02,0.05 -0.02,0.04 -0.01,0.05 -0.93,2.43 c 0.77,0.17 1.1,0.31 1.45,0.63 0.33,0.29 0.51,0.67 0.51,1.12 0,0.92 -0.73,1.43 -2.07,1.43 l -0.21,-0.3 c 0.83,0 1.24,-0.37 1.24,-1.11 0,-0.98 -0.64,-1.49 -1.88,-1.49 -0.16,0 -0.27,0.01 -0.51,0.05 l 0.65,2.28 c 0.06,0.2 0.18,0.27 0.5,0.27 l 0.21,0.3 h -2.47 v -0.16 c 0.42,-0.06 0.47,-0.07 0.57,-0.14 0.08,-0.05 0.14,-0.16 0.14,-0.27 0,-0.12 -0.05,-0.36 -0.12,-0.63 l -1.22,-4.39 c -0.18,-0.59 -0.25,-0.65 -0.81,-0.74 v -0.16 h 2.43 v 0.16 c -0.61,0.08 -0.68,0.13 -0.68,0.46 0,0.1 0.03,0.23 0.12,0.58 l 0.56,2.07 0.65,-0.05 1.22,-3.22 h 1.47 z"
         inkscape:connector-curvature="0"
         style="fill:#000000;stroke-width:0" /><path
         id="path3375"
         d="m 231.55,710.33 -1.26,-0.63 v -0.1 c 0.09,0.04 0.16,0.06 0.19,0.08 0.12,0.05 0.24,0.08 0.31,0.08 0.15,0 0.21,-0.11 0.21,-0.33 v -3.15 c 0,-0.23 -0.05,-0.39 -0.16,-0.45 -0.11,-0.07 -0.21,-0.09 -0.5,-0.1 v -0.1 h 1.92 v 0.1 c -0.55,0.01 -0.66,0.08 -0.66,0.42 v 4.17 z"
         inkscape:connector-curvature="0"
         style="fill:#000000;stroke-width:0" /></g>    <g
       id="g5587"
       transform="matrix(1.2,0,0,-1.2,-160.85634,1655.5905)"
       xml:space="preserve"
       stroke-miterlimit="10.433"
       font-style="normal"
       font-variant="normal"
       font-weight="normal"
       font-stretch="normal"
       font-size-adjust="none"
       letter-spacing="normal"
       word-spacing="normal"
       ns0:text="$103.75\\, \\Omega$"
       ns0:preamble="/home/sriranga/Desktop/MCT/package.tex"
       style="font-style:normal;font-variant:normal;font-weight:normal;font-stretch:normal;letter-spacing:normal;word-spacing:normal;text-anchor:start;fill:none;stroke:#000000;stroke-width:1;stroke-linecap:butt;stroke-linejoin:miter;stroke-miterlimit:10.43299961;stroke-opacity:1;stroke-dasharray:none;stroke-dashoffset:0"><path
         style="fill:#000000;stroke-width:0"
         inkscape:connector-curvature="0"
         d="m 226.33,713.84 -1.79,-0.9 v -0.14 c 0.12,0.05 0.22,0.09 0.26,0.11 0.18,0.07 0.35,0.11 0.45,0.11 0.21,0 0.3,-0.15 0.3,-0.47 v -4.5 c 0,-0.33 -0.08,-0.56 -0.24,-0.65 -0.15,-0.09 -0.29,-0.12 -0.7,-0.13 v -0.15 h 2.74 v 0.15 c -0.78,0.01 -0.94,0.11 -0.94,0.59 v 5.96 z"
         id="path5589" /><path
         style="fill:#000000;stroke-width:0"
         inkscape:connector-curvature="0"
         d="m 230.94,713.84 -0.05,0 -0.05,0 -0.05,0 -0.05,-0.01 -0.05,0 -0.04,-0.01 -0.05,0 -0.05,-0.01 -0.04,-0.01 -0.05,-0.01 -0.04,-0.01 -0.05,-0.01 -0.04,-0.01 -0.04,-0.02 -0.04,-0.01 -0.04,-0.02 -0.04,-0.01 -0.04,-0.02 -0.04,-0.02 -0.04,-0.02 -0.04,-0.02 -0.04,-0.02 -0.04,-0.03 -0.04,-0.02 -0.03,-0.02 -0.04,-0.03 -0.04,-0.03 -0.03,-0.02 -0.04,-0.03 -0.03,-0.03 -0.04,-0.03 -0.03,-0.04 c -0.58,-0.55 -0.96,-1.7 -0.96,-2.86 0,-1.08 0.33,-2.24 0.8,-2.8 0.37,-0.44 0.87,-0.67 1.45,-0.67 v 0.25 c -0.86,0 -1.29,1.07 -1.29,3.13 0,2.11 0.44,3.21 1.3,3.21 h 0 c 0.84,0 1.28,-1.12 1.28,-3.2 0,-2.07 -0.43,-3.14 -1.29,-3.14 v -0.25 c 0.51,0 0.94,0.17 1.29,0.51 0.58,0.55 0.96,1.7 0.96,2.9 0,2.04 -0.91,3.44 -2.21,3.44 z"
         id="path5591" /><path
         style="fill:#000000;stroke-width:0"
         inkscape:connector-curvature="0"
         d="m 234.92,710.4 0.05,0 0.05,0 0.05,0 0.05,0 0.05,0 0.04,0 0.04,0 0.05,0 0.04,0 0.03,0 0.04,-0.01 0.04,0 0.03,0 0.03,0 0.03,-0.01 0.03,0 0.03,0 0.03,0 0.03,-0.01 0.03,0 0.02,-0.01 0.03,0 0.05,-0.01 0.05,-0.01 0.04,-0.02 0.05,-0.01 0.04,-0.02 c 0.62,-0.21 1.01,-0.78 1.01,-1.47 0,-0.83 -0.57,-1.48 -1.31,-1.48 -0.27,0 -0.46,0.07 -0.83,0.31 -0.3,0.18 -0.47,0.25 -0.64,0.25 -0.23,0 -0.38,-0.14 -0.38,-0.35 0,-0.35 0.43,-0.56 1.13,-0.56 0.76,0 1.55,0.25 2.02,0.66 0.46,0.41 0.72,0.99 0.72,1.65 0,0.51 -0.16,0.97 -0.45,1.28 -0.19,0.22 -0.38,0.34 -0.82,0.53 0.69,0.47 0.93,0.83 0.93,1.37 0,0.8 -0.63,1.36 -1.55,1.36 -0.5,0 -0.93,-0.17 -1.29,-0.49 -0.3,-0.26 -0.45,-0.52 -0.67,-1.12 l 0.15,-0.04 c 0.41,0.73 0.86,1.05 1.48,1.05 0.65,0 1.1,-0.43 1.1,-1.06 0,-0.36 -0.15,-0.71 -0.4,-0.96 -0.3,-0.3 -0.58,-0.45 -1.25,-0.69 z"
         id="path5593" /><path
         style="fill:#000000;stroke-width:0"
         inkscape:connector-curvature="0"
         d="m 240.18,707.55 0,0.03 -0.01,0.03 0,0.03 0,0.02 -0.01,0.03 -0.01,0.03 -0.01,0.02 -0.01,0.03 -0.01,0.03 -0.01,0.02 -0.02,0.02 -0.01,0.03 -0.02,0.02 -0.01,0.02 -0.02,0.02 -0.02,0.02 -0.02,0.02 -0.02,0.02 -0.02,0.01 -0.02,0.02 -0.03,0.01 -0.02,0.02 -0.02,0.01 -0.03,0.01 -0.02,0.01 -0.03,0.01 -0.02,0.01 -0.03,0.01 -0.03,0 -0.02,0.01 -0.03,0 -0.03,0 c -0.3,0 -0.55,-0.25 -0.55,-0.57 0,-0.38 0.34,-0.53 0.55,-0.53 0.21,0 0.56,0.16 0.56,0.53 z"
         id="path5595" /><path
         style="fill:#000000;stroke-width:0"
         inkscape:connector-curvature="0"
         d="m 245.33,713.7 h -3.68 l -0.58,-1.46 0.17,-0.08 c 0.42,0.68 0.6,0.81 1.15,0.81 h 2.16 l -1.97,-5.92 h 0.65 l 2.1,6.49 z"
         id="path5597" /><path
         style="fill:#000000;stroke-width:0"
         inkscape:connector-curvature="0"
         d="m 247.65,712.92 h 1.95 c 0.16,0 0.2,0.02 0.23,0.09 l 0.38,0.88 -0.09,0.07 c -0.15,-0.21 -0.25,-0.26 -0.46,-0.26 h -2.08 l -1.09,-2.35 c 0,-0.02 0,-0.03 0,-0.05 0,-0.05 0.03,-0.08 0.11,-0.08 0.32,0 0.72,-0.07 1.13,-0.2 1.14,-0.37 1.67,-0.98 1.67,-1.97 0,-0.95 -0.61,-1.7 -1.38,-1.7 -0.2,0 -0.37,0.07 -0.67,0.29 -0.32,0.23 -0.55,0.33 -0.76,0.33 -0.28,0 -0.42,-0.12 -0.42,-0.37 0,-0.38 0.46,-0.61 1.21,-0.61 0.84,0 1.55,0.26 2.05,0.77 0.46,0.45 0.67,1.01 0.67,1.77 0,0.71 -0.19,1.17 -0.69,1.67 -0.44,0.44 -1.01,0.66 -2.18,0.87 z"
         id="path5599" /><path
         style="fill:#000000;stroke-width:0"
         inkscape:connector-curvature="0"
         d="m 259.59,707.12 v 1.53 h -0.17 c -0.03,-0.51 -0.31,-0.62 -0.77,-0.62 h -1.35 l 0.05,0.33 c 1.26,0.36 2.01,1.35 2.01,2.67 0,1.8 -1.45,2.82 -3.14,2.82 -1.68,0 -3.19,-1.07 -3.19,-2.86 0,-1.21 0.79,-2.4 2.04,-2.63 l 0.01,-0.33 h -1.33 c -0.47,0 -0.75,0.1 -0.79,0.62 h -0.18 v -1.53 h 2.73 l -0.11,1.47 c -1.02,0.37 -1.24,1.4 -1.24,2.38 0,1.22 0.66,2.53 2.04,2.53 1.43,0 2.05,-1.36 2.05,-2.6 0,-0.95 -0.23,-1.99 -1.25,-2.31 l -0.13,-1.47 z"
         id="path5601" /></g>    <g
       style="font-style:normal;font-variant:normal;font-weight:normal;font-stretch:normal;letter-spacing:normal;word-spacing:normal;text-anchor:start;fill:none;stroke:#000000;stroke-width:1;stroke-linecap:butt;stroke-linejoin:miter;stroke-miterlimit:10.43299961;stroke-opacity:1;stroke-dasharray:none;stroke-dashoffset:0"
       ns0:preamble="/home/sriranga/Desktop/MCT/package.tex"
       ns0:text="\\begin{center}\n$ R_L$ \\\\\n$250\\, \\Omega$\n\\end{center}"
       word-spacing="normal"
       letter-spacing="normal"
       font-size-adjust="none"
       font-stretch="normal"
       font-weight="normal"
       font-variant="normal"
       font-style="normal"
       stroke-miterlimit="10.433"
       xml:space="preserve"
       transform="matrix(1.2,0,0,-1.2,-160.11486,1676.723)"
       id="g7029"><path
         id="path7031"
         d="m 395.6,707.28 -0.04,0.01 -0.04,0 -0.04,0.01 -0.03,0 -0.04,0.01 -0.03,0.01 -0.04,0.01 -0.03,0.01 -0.03,0.01 -0.03,0.01 -0.03,0.01 -0.02,0.02 -0.03,0.01 -0.03,0.02 -0.02,0.02 -0.03,0.02 -0.02,0.02 -0.02,0.02 -0.02,0.03 -0.03,0.02 -0.02,0.03 -0.02,0.03 -0.02,0.03 -0.02,0.03 -0.02,0.04 -0.02,0.03 -0.01,0.04 -0.02,0.04 -0.02,0.04 -0.02,0.05 -0.02,0.04 -0.02,0.05 -0.92,2.43 c 0.76,0.17 1.09,0.31 1.45,0.63 0.33,0.29 0.51,0.67 0.51,1.12 0,0.92 -0.74,1.43 -2.07,1.43 l -0.21,-0.3 c 0.83,0 1.24,-0.37 1.24,-1.11 0,-0.98 -0.64,-1.49 -1.89,-1.49 -0.15,0 -0.27,0.01 -0.5,0.05 l 0.64,2.28 c 0.06,0.2 0.19,0.27 0.51,0.27 l 0.21,0.3 h -2.47 v -0.16 c 0.42,-0.06 0.47,-0.07 0.57,-0.14 0.08,-0.05 0.14,-0.16 0.14,-0.27 0,-0.12 -0.05,-0.36 -0.12,-0.63 l -1.22,-4.39 c -0.18,-0.59 -0.25,-0.65 -0.81,-0.74 v -0.16 h 2.43 v 0.16 c -0.61,0.08 -0.68,0.13 -0.68,0.46 0,0.1 0.03,0.23 0.12,0.58 l 0.56,2.07 0.64,-0.05 1.23,-3.22 h 1.47 z"
         inkscape:connector-curvature="0"
         style="fill:#000000;stroke-width:0" /><path
         id="path7033"
         d="m 399.03,710.17 h -1.91 v -0.11 c 0.44,-0.04 0.54,-0.1 0.54,-0.3 0,-0.1 -0.03,-0.26 -0.08,-0.43 l -0.85,-3.07 c -0.13,-0.41 -0.18,-0.45 -0.57,-0.52 v -0.11 h 3.55 l 0.4,1.25 -0.14,0.04 c -0.24,-0.5 -0.43,-0.73 -0.73,-0.88 -0.25,-0.12 -0.53,-0.16 -1.14,-0.16 -0.53,0 -0.7,0.06 -0.7,0.24 0,0.05 0.03,0.21 0.07,0.35 l 0.85,3.08 c 0.11,0.35 0.29,0.48 0.71,0.51 z"
         inkscape:connector-curvature="0"
         style="fill:#000000;stroke-width:0" /><path
         id="path7035"
         d="m 388.01,696.53 -0.13,0.05 c -0.37,-0.57 -0.5,-0.66 -0.95,-0.66 h -2.37 l 1.67,1.75 c 0.88,0.93 1.27,1.68 1.27,2.46 0,0.99 -0.8,1.76 -1.84,1.76 -0.55,0 -1.06,-0.22 -1.43,-0.62 -0.32,-0.34 -0.47,-0.66 -0.64,-1.36 l 0.21,-0.05 c 0.4,0.97 0.76,1.29 1.44,1.29 0.84,0 1.41,-0.57 1.41,-1.4 0,-0.78 -0.46,-1.7 -1.3,-2.58 l -1.77,-1.88 v -0.12 h 3.88 z"
         inkscape:connector-curvature="0"
         style="fill:#000000;stroke-width:0" /><path
         id="path7037"
         d="m 390.07,700.96 h 1.95 c 0.15,0 0.19,0.02 0.22,0.09 l 0.38,0.88 -0.09,0.07 c -0.15,-0.2 -0.24,-0.25 -0.45,-0.25 H 390 l -1.09,-2.36 c -0.01,-0.02 -0.01,-0.03 -0.01,-0.05 0,-0.05 0.04,-0.08 0.12,-0.08 0.32,0 0.72,-0.07 1.13,-0.2 1.14,-0.36 1.67,-0.98 1.67,-1.96 0,-0.96 -0.61,-1.7 -1.39,-1.7 -0.2,0 -0.36,0.07 -0.66,0.29 -0.32,0.22 -0.55,0.32 -0.76,0.32 -0.29,0 -0.43,-0.11 -0.43,-0.36 0,-0.38 0.47,-0.62 1.22,-0.62 0.83,0 1.55,0.27 2.05,0.78 0.45,0.44 0.66,1.01 0.66,1.76 0,0.72 -0.18,1.18 -0.68,1.67 -0.44,0.44 -1.01,0.67 -2.18,0.88 z"
         inkscape:connector-curvature="0"
         style="fill:#000000;stroke-width:0" /><path
         id="path7039"
         d="m 395.77,701.89 -0.05,-0.01 -0.05,0 -0.05,0 -0.05,0 -0.04,-0.01 -0.05,0 -0.05,-0.01 -0.04,-0.01 -0.05,-0.01 -0.04,0 -0.05,-0.02 -0.04,-0.01 -0.04,-0.01 -0.05,-0.01 -0.04,-0.02 -0.04,-0.01 -0.04,-0.02 -0.04,-0.02 -0.04,-0.02 -0.04,-0.02 -0.04,-0.02 -0.04,-0.02 -0.04,-0.02 -0.03,-0.02 -0.04,-0.03 -0.04,-0.02 -0.03,-0.03 -0.04,-0.03 -0.03,-0.03 -0.04,-0.03 -0.04,-0.03 -0.03,-0.03 c -0.58,-0.56 -0.96,-1.7 -0.96,-2.86 0,-1.09 0.33,-2.25 0.8,-2.8 0.37,-0.44 0.88,-0.68 1.45,-0.68 v 0.26 c -0.85,0 -1.29,1.06 -1.29,3.13 0,2.1 0.45,3.21 1.3,3.21 h 0 c 0.84,0 1.29,-1.13 1.29,-3.2 0,-2.08 -0.44,-3.14 -1.3,-3.14 v -0.26 c 0.51,0 0.94,0.17 1.3,0.52 0.57,0.54 0.95,1.7 0.95,2.9 0,2.03 -0.9,3.44 -2.21,3.44 z"
         inkscape:connector-curvature="0"
         style="fill:#000000;stroke-width:0" /><path
         id="path7041"
         d="m 406.99,695.17 v 1.52 h -0.18 c -0.02,-0.51 -0.3,-0.62 -0.76,-0.62 h -1.35 l 0.04,0.33 c 1.27,0.37 2.02,1.35 2.02,2.67 0,1.8 -1.45,2.83 -3.14,2.83 -1.68,0 -3.19,-1.08 -3.19,-2.87 0,-1.21 0.79,-2.39 2.04,-2.63 l 0.01,-0.33 h -1.33 c -0.48,0 -0.75,0.1 -0.79,0.62 h -0.18 v -1.52 h 2.72 l -0.1,1.46 c -1.02,0.38 -1.24,1.4 -1.24,2.38 0,1.23 0.66,2.54 2.04,2.54 1.43,0 2.05,-1.36 2.05,-2.6 0,-0.96 -0.23,-1.99 -1.25,-2.32 l -0.13,-1.46 z"
         inkscape:connector-curvature="0"
         style="fill:#000000;stroke-width:0" /></g>  </g>
</svg>
