<?xml version="1.0" encoding="UTF-8" standalone="no"?>
<!-- Created with Inkscape (http://www.inkscape.org/) -->

<svg
   xmlns:dc="http://purl.org/dc/elements/1.1/"
   xmlns:cc="http://creativecommons.org/ns#"
   xmlns:rdf="http://www.w3.org/1999/02/22-rdf-syntax-ns#"
   xmlns:svg="http://www.w3.org/2000/svg"
   xmlns="http://www.w3.org/2000/svg"
   xmlns:sodipodi="http://sodipodi.sourceforge.net/DTD/sodipodi-0.dtd"
   xmlns:inkscape="http://www.inkscape.org/namespaces/inkscape"
   id="svg2"
   version="1.1"
   inkscape:version="0.48.4 r9939"
   width="389.76376"
   height="283.46457"
   xml:space="preserve"
   sodipodi:docname="S3-EE-03-007.svg"><metadata
     id="metadata8"><rdf:RDF><cc:Work
         rdf:about=""><dc:format>image/svg+xml</dc:format><dc:type
           rdf:resource="http://purl.org/dc/dcmitype/StillImage" /><dc:title></dc:title></cc:Work></rdf:RDF></metadata><defs
     id="defs6" /><sodipodi:namedview
     pagecolor="#ffffff"
     bordercolor="#666666"
     borderopacity="1"
     objecttolerance="10"
     gridtolerance="10"
     guidetolerance="10"
     inkscape:pageopacity="0"
     inkscape:pageshadow="2"
     inkscape:window-width="1366"
     inkscape:window-height="744"
     id="namedview4"
     showgrid="false"
     inkscape:zoom="2.1060833"
     inkscape:cx="194.88188"
     inkscape:cy="141.73228"
     inkscape:window-x="0"
     inkscape:window-y="24"
     inkscape:window-maximized="1"
     inkscape:current-layer="g10"
     units="cm" /><g
     id="g10"
     inkscape:groupmode="layer"
     inkscape:label="ink_ext_XXXXXX"
     transform="matrix(1.25,0,0,-1.25,0,283.46446)"><path
       inkscape:connector-curvature="0"
       id="path14"
       style="fill:none;stroke:#231f20;stroke-width:0.80000001;stroke-linecap:butt;stroke-linejoin:miter;stroke-miterlimit:4;stroke-opacity:1;stroke-dasharray:none"
       d="m 224.73752,201.30101 58.347,0 0,-156.667101 -155.637,0" /><path
       inkscape:connector-curvature="0"
       id="path16"
       style="fill:none;stroke:#231f20;stroke-width:0.80000001;stroke-linecap:butt;stroke-linejoin:miter;stroke-miterlimit:4;stroke-opacity:1;stroke-dasharray:none"
       d="m 127.44752,44.633909 0,53.641" /><path
       inkscape:connector-curvature="0"
       id="path18"
       style="fill:none;stroke:#231f20;stroke-width:0.80000001;stroke-linecap:round;stroke-linejoin:miter;stroke-miterlimit:4;stroke-opacity:1;stroke-dasharray:none"
       d="m 127.40952,98.274909 53.947,0" /><path
       inkscape:connector-curvature="0"
       id="path20"
       style="fill:none;stroke:#231f20;stroke-width:0.80000001;stroke-linecap:butt;stroke-linejoin:miter;stroke-miterlimit:4;stroke-opacity:1;stroke-dasharray:none"
       d="m 224.73752,138.01001 0,63.291" /><path
       inkscape:connector-curvature="0"
       id="path22"
       style="fill:none;stroke:#231f20;stroke-width:0.5;stroke-linecap:butt;stroke-linejoin:miter;stroke-miterlimit:4;stroke-opacity:1;stroke-dasharray:none"
       d="m 207.54852,98.274909 -27.345,0" /><path
       inkscape:connector-curvature="0"
       id="path24"
       style="fill:none;stroke:#231f20;stroke-width:0.5;stroke-linecap:butt;stroke-linejoin:miter;stroke-miterlimit:4;stroke-opacity:1;stroke-dasharray:none"
       d="m 224.73652,136.34201 10e-4,-27.3441" /><path
       inkscape:connector-curvature="0"
       id="path26"
       style="fill:none;stroke:#231f20;stroke-width:0.80000001;stroke-linecap:butt;stroke-linejoin:miter;stroke-miterlimit:4;stroke-opacity:1;stroke-dasharray:none"
       d="m 224.73552,66.269996 0.001,-21.634987" /><text
       transform="scale(1,-1)"
       id="text30"
       y="-22.692089"
       x="3.7985201"><tspan
         style="font-size:10px;font-variant:normal;font-weight:normal;writing-mode:lr-tb;fill:#231f20;fill-opacity:1;fill-rule:nonzero;stroke:none;font-family:Times;-inkscape-font-specification:Times-Roman"
         x="3.7985201 7.12852 11.568521 14.897885 17.397886 22.808119 27.248117 30.577822 38.358093 41.138367 46.13802 50.578018 53.358021 55.858021 60.658195 65.658195 68.438026 71.217812 75.657593 80.657921 85.097923"
         y="-22.692089"
         sodipodi:role="line"
         id="tspan32">(a) Terminal voltages</tspan><tspan
         style="font-size:10px;font-variant:normal;font-weight:normal;writing-mode:lr-tb;fill:#231f20;fill-opacity:1;fill-rule:nonzero;stroke:none;font-family:Times;-inkscape-font-specification:Times-Roman"
         x="133.42662 136.75662 141.75662 145.08662 147.58662 153.14662 155.92662 163.70662 168.70662 171.48662 175.92662 178.42662 182.8672 185.64653 188.97653 193.41725 198.41725 201.19533 203.9756 206.4756 210.36563 215.36563 220.11563 227.33563 230.11563 235.11563 240.11563 242.61563 247.41641 252.41641 255.19571 257.97653 262.41614 267.41574 271.85663 274.35663 278.24664 283.24664 288.24664 291.57663 296.01562 300.45621"
         y="-22.692871"
         sodipodi:role="line"
         id="tspan34">(b) Simple circuit showing voltage sources</tspan></text>
<text
       transform="scale(1,-1)"
       id="text36"
       x="289.90234"
       y="-121.19987"><tspan
         style="font-size:8px;font-style:italic;font-variant:normal;writing-mode:lr-tb;fill:#231f20;fill-opacity:1;fill-rule:nonzero;stroke:none;font-family:Times;-inkscape-font-specification:Times-Italic"
         x="289.90234"
         y="-121.19987"
         id="tspan38">V</tspan></text>
<text
       transform="scale(1,-1)"
       id="text40"
       x="294.79062"
       y="-119.19987"><tspan
         style="font-size:6px;font-style:italic;font-variant:normal;writing-mode:lr-tb;fill:#231f20;fill-opacity:1;fill-rule:nonzero;stroke:none;font-family:Times;-inkscape-font-specification:Times-Italic"
         x="294.79062 298.79263"
         y="-119.19987"
         sodipodi:role="line"
         id="tspan42">CC</tspan></text>
<text
       transform="scale(1,-1)"
       id="text44"
       x="106.33036"
       y="-71.151947"><tspan
         style="font-size:8px;font-style:italic;font-variant:normal;writing-mode:lr-tb;fill:#231f20;fill-opacity:1;fill-rule:nonzero;stroke:none;font-family:Times;-inkscape-font-specification:Times-Italic"
         x="106.33036"
         y="-71.151947"
         id="tspan46">V</tspan></text>
<text
       transform="scale(1,-1)"
       id="text48"
       x="111.21825"
       y="-69.151947"><tspan
         style="font-size:6px;font-style:italic;font-variant:normal;writing-mode:lr-tb;fill:#231f20;fill-opacity:1;fill-rule:nonzero;stroke:none;font-family:Times;-inkscape-font-specification:Times-Italic"
         x="111.21825"
         y="-69.151947"
         id="tspan50">B</tspan></text>
<text
       transform="scale(1,-1)"
       id="text52"
       x="149.66063"
       y="-107.19007"><tspan
         style="font-size:8px;font-style:italic;font-variant:normal;writing-mode:lr-tb;fill:#231f20;fill-opacity:1;fill-rule:nonzero;stroke:none;font-family:Times;-inkscape-font-specification:Times-Italic"
         x="149.66063"
         y="-107.19007"
         id="tspan54">R</tspan></text>
<text
       transform="scale(1,-1)"
       id="text56"
       x="154.54851"
       y="-105.19007"><tspan
         style="font-size:6px;font-style:italic;font-variant:normal;writing-mode:lr-tb;fill:#231f20;fill-opacity:1;fill-rule:nonzero;stroke:none;font-family:Times;-inkscape-font-specification:Times-Italic"
         x="154.54851"
         y="-105.19007"
         id="tspan58">B</tspan></text>
<path
       inkscape:connector-curvature="0"
       id="path60"
       style="fill:#ffffff;fill-opacity:1;fill-rule:nonzero;stroke:none"
       d="m 226.40452,136.34201 c 0,-0.92 -0.746,-1.666 -1.667,-1.666 -0.92,0 -1.667,0.746 -1.667,1.666 0,0.92 0.747,1.668 1.667,1.668 0.921,0 1.667,-0.748 1.667,-1.668" /><path
       inkscape:connector-curvature="0"
       id="path62"
       style="fill:none;stroke:#231f20;stroke-width:0.5;stroke-linecap:butt;stroke-linejoin:miter;stroke-miterlimit:4;stroke-opacity:1;stroke-dasharray:none"
       d="m 226.40452,136.34201 c 0,-0.92 -0.746,-1.666 -1.667,-1.666 -0.92,0 -1.667,0.746 -1.667,1.666 0,0.92 0.747,1.668 1.667,1.668 0.921,0 1.667,-0.748 1.667,-1.668 z" /><path
       inkscape:connector-curvature="0"
       id="path64"
       style="fill:#ffffff;fill-opacity:1;fill-rule:nonzero;stroke:none"
       d="m 226.40452,56.795209 c 0,-0.9203 -0.746,-1.666 -1.667,-1.666 -0.92,0 -1.667,0.7457 -1.667,1.666 0,0.9207 0.747,1.668 1.667,1.668 0.921,0 1.667,-0.7473 1.667,-1.668" /><path
       inkscape:connector-curvature="0"
       id="path66"
       style="fill:none;stroke:#231f20;stroke-width:0.5;stroke-linecap:butt;stroke-linejoin:miter;stroke-miterlimit:4;stroke-opacity:1;stroke-dasharray:none"
       d="m 226.40452,56.795209 c 0,-0.9203 -0.746,-1.666 -1.667,-1.666 -0.92,0 -1.667,0.7457 -1.667,1.666 0,0.9207 0.747,1.668 1.667,1.668 0.921,0 1.667,-0.7473 1.667,-1.668 z" /><path
       inkscape:connector-curvature="0"
       id="path68"
       style="fill:#ffffff;fill-opacity:1;fill-rule:nonzero;stroke:none"
       d="m 181.39452,98.274909 c 0,-0.9199 -0.746,-1.666 -1.667,-1.666 -0.921,0 -1.667,0.7461 -1.667,1.666 0,0.9211 0.746,1.668 1.667,1.668 0.921,0 1.667,-0.7469 1.667,-1.668" /><path
       inkscape:connector-curvature="0"
       id="path70"
       style="fill:none;stroke:#231f20;stroke-width:0.5;stroke-linecap:butt;stroke-linejoin:miter;stroke-miterlimit:4;stroke-opacity:1;stroke-dasharray:none"
       d="m 181.39452,98.274909 c 0,-0.9199 -0.746,-1.666 -1.667,-1.666 -0.921,0 -1.667,0.7461 -1.667,1.666 0,0.9211 0.746,1.668 1.667,1.668 0.921,0 1.667,-0.7469 1.667,-1.668 z" /><path
       inkscape:connector-curvature="0"
       id="path3535"
       style="font-size:8px;font-variant:normal;font-weight:normal;writing-mode:lr-tb;fill:#231f20;fill-opacity:1;fill-rule:nonzero;stroke:none;font-family:Symbol;-inkscape-font-specification:Symbol"
       d="m 121.45587,80.022369 -0.44,0 0,-1.912 -1.896,0 0,-0.44 1.896,0 0,-1.912 0.44,0 0,1.912 1.896,0 0,0.44 -1.896,0 0,1.912" /><path
       inkscape:connector-curvature="0"
       id="path3537"
       style="font-size:8px;font-variant:normal;font-weight:normal;writing-mode:lr-tb;fill:#231f20;fill-opacity:1;fill-rule:nonzero;stroke:none;font-family:Symbol;-inkscape-font-specification:Symbol"
       d="m 118.92677,65.918439 0,-0.44 4.192,0 0,0.44 -4.192,0" /><path
       inkscape:connector-curvature="0"
       id="path80"
       style="fill:#ffffff;fill-opacity:1;fill-rule:nonzero;stroke:none"
       d="m 124.54202,65.676109 5.38294,0 0,11.5578 -5.38294,0 0,-11.5578 z" /><path
       inkscape:connector-curvature="0"
       id="path82"
       style="fill:none;stroke:#231f20;stroke-width:0.80000001;stroke-linecap:round;stroke-linejoin:round;stroke-miterlimit:3.86369991;stroke-opacity:1;stroke-dasharray:none"
       d="m 132.60552,72.567909 -10.315,0" /><path
       inkscape:connector-curvature="0"
       id="path84"
       style="fill:none;stroke:#231f20;stroke-width:0.80000001;stroke-linecap:round;stroke-linejoin:round;stroke-miterlimit:3.86369991;stroke-opacity:1;stroke-dasharray:none"
       d="m 130.63252,69.723354 -6.369,0" /><path
       inkscape:connector-curvature="0"
       id="path86"
       style="fill:none;stroke:#231f20;stroke-width:0.80000001;stroke-linecap:round;stroke-linejoin:round;stroke-miterlimit:3.86369991;stroke-opacity:1;stroke-dasharray:none"
       d="m 127.44752,69.356554 0,-4.666" /><path
       inkscape:connector-curvature="0"
       id="path88"
       style="fill:none;stroke:#231f20;stroke-width:0.80000001;stroke-linecap:round;stroke-linejoin:round;stroke-miterlimit:3.86369991;stroke-opacity:1;stroke-dasharray:none"
       d="m 127.44752,77.233909 0,-4.666" /><path
       inkscape:connector-curvature="0"
       id="path90"
       style="fill:#ffffff;fill-opacity:1;fill-rule:nonzero;stroke:none"
       d="m 277.92752,117.18821 10.3141,0 0,11.5586 -10.3141,0 0,-11.5586 z" /><path
       inkscape:connector-curvature="0"
       id="path92"
       style="fill:none;stroke:#231f20;stroke-width:0.80000001;stroke-linecap:round;stroke-linejoin:round;stroke-miterlimit:3.86369991;stroke-opacity:1;stroke-dasharray:none"
       d="m 288.24152,124.08101 -10.314,0" /><path
       inkscape:connector-curvature="0"
       id="path94"
       style="fill:none;stroke:#231f20;stroke-width:0.80000001;stroke-linecap:round;stroke-linejoin:round;stroke-miterlimit:3.86369991;stroke-opacity:1;stroke-dasharray:none"
       d="m 286.26952,120.8564 -6.369,0" /><path
       inkscape:connector-curvature="0"
       id="path96"
       style="fill:none;stroke:#231f20;stroke-width:0.69999999;stroke-linecap:round;stroke-linejoin:round;stroke-miterlimit:3.86369991;stroke-opacity:1;stroke-dasharray:none"
       d="m 283.08452,120.48939 0,-4.6658" /><path
       inkscape:connector-curvature="0"
       id="path98"
       style="fill:none;stroke:#231f20;stroke-width:0.80000001;stroke-linecap:round;stroke-linejoin:round;stroke-miterlimit:3.86369991;stroke-opacity:1;stroke-dasharray:none"
       d="m 283.08452,128.74701 0,-4.666" /><path
       inkscape:connector-curvature="0"
       id="path100"
       style="fill:#ffffff;fill-opacity:1;fill-rule:nonzero;stroke:none"
       d="m 228.36852,185.99201 0,-32.451 -7.469,-0.001 0,32.451 7.469,0.001" /><path
       inkscape:connector-curvature="0"
       id="path102"
       style="fill:none;stroke:#231f20;stroke-width:0.80000001;stroke-linecap:round;stroke-linejoin:round;stroke-miterlimit:3.86369991;stroke-opacity:1;stroke-dasharray:none"
       d="m 224.73252,153.31801 0,3.612 -3.699,1.57 7.469,3.151 -7.469,3.194 7.469,3.198 -7.469,3.149 7.469,3.125 -7.469,3.149 7.374,3.198 -3.675,1.529 0,3.799" /><path
       inkscape:connector-curvature="0"
       id="path104"
       style="fill:#ffffff;fill-opacity:1;fill-rule:nonzero;stroke:none"
       d="m 136.22252,102.10261 32.451,4e-4 0.002,-7.469101 -32.451,-8e-4 -0.002,7.469501" /><path
       inkscape:connector-curvature="0"
       id="path106"
       style="fill:none;stroke:#231f20;stroke-width:0.80000001;stroke-linecap:round;stroke-linejoin:round;stroke-miterlimit:3.86369991;stroke-opacity:1;stroke-dasharray:none"
       d="m 168.89752,98.266929 -3.613,0 -1.57,-3.6992 -3.15,7.469101 -3.194,-7.469101 -3.199,7.468701 -3.148,-7.469501 -3.125,7.469501 -3.149,-7.469501 -3.199,7.373801 -1.528,-3.675001 -3.799,0" /><path
       inkscape:connector-curvature="0"
       id="path108"
       style="fill:none;stroke:#231f20;stroke-width:0.80000001;stroke-linecap:round;stroke-linejoin:round;stroke-miterlimit:3.86369991;stroke-opacity:1;stroke-dasharray:none"
       d="m 224.78752,45.526109 0,-6.4301" /><path
       inkscape:connector-curvature="0"
       id="path110"
       style="fill:none;stroke:#231f20;stroke-width:0.80000001;stroke-linecap:round;stroke-linejoin:round;stroke-miterlimit:3.86369991;stroke-opacity:1;stroke-dasharray:none"
       d="m 231.78752,39.096009 -14,0" /><path
       inkscape:connector-curvature="0"
       id="path112"
       style="fill:none;stroke:#231f20;stroke-width:0.80000001;stroke-linecap:round;stroke-linejoin:round;stroke-miterlimit:3.86369991;stroke-opacity:1;stroke-dasharray:none"
       d="m 230.28752,36.451109 -11,0" /><path
       inkscape:connector-curvature="0"
       id="path114"
       style="fill:none;stroke:#231f20;stroke-width:0.80000001;stroke-linecap:round;stroke-linejoin:round;stroke-miterlimit:3.86369991;stroke-opacity:1;stroke-dasharray:none"
       d="m 227.98168,33.808909 -6.70029,0" /><path
       inkscape:connector-curvature="0"
       id="path116"
       style="fill:none;stroke:#231f20;stroke-width:0.80000001;stroke-linecap:butt;stroke-linejoin:miter;stroke-miterlimit:4;stroke-opacity:1;stroke-dasharray:none"
       d="m 207.54852,98.274909 -27.345,0" /><path
       inkscape:connector-curvature="0"
       id="path118"
       style="fill:none;stroke:#231f20;stroke-width:0.80000001;stroke-linecap:butt;stroke-linejoin:miter;stroke-miterlimit:4;stroke-opacity:1;stroke-dasharray:none"
       d="m 224.73652,136.34201 10e-4,-27.3441" /><path
       inkscape:connector-curvature="0"
       id="path120"
       style="fill:none;stroke:#231f20;stroke-width:0.80000001;stroke-linecap:round;stroke-linejoin:miter;stroke-miterlimit:4;stroke-opacity:1;stroke-dasharray:none"
       d="m 224.73652,82.47859 10e-4,-26.93568" /><text
       transform="scale(1,-1)"
       id="text124"
       x="286.36652"
       y="-127.48001"><tspan
         style="font-size:8px;font-variant:normal;font-weight:normal;writing-mode:lr-tb;fill:#231f20;fill-opacity:1;fill-rule:nonzero;stroke:none;font-family:Symbol;-inkscape-font-specification:Symbol"
         x="286.36652"
         y="-127.48001"
         id="tspan126">+</tspan><tspan
         style="font-size:8px;font-variant:normal;font-weight:normal;writing-mode:lr-tb;fill:#231f20;fill-opacity:1;fill-rule:nonzero;stroke:none;font-family:Symbol;-inkscape-font-specification:Symbol"
         x="286.36652"
         y="-115.71441"
         id="tspan128">−</tspan></text>
<text
       transform="scale(1,-1)"
       id="text130"
       x="227.05173"
       y="-98.543709"><tspan
         style="font-size:8px;font-style:italic;font-variant:normal;writing-mode:lr-tb;fill:#231f20;fill-opacity:1;fill-rule:nonzero;stroke:none;font-family:Times;-inkscape-font-specification:Times-Italic"
         x="227.05173"
         y="-98.543709"
         id="tspan132">V</tspan></text>
<text
       transform="scale(1,-1)"
       id="text134"
       x="231.94078"
       y="-96.543709"><tspan
         style="font-size:6px;font-style:italic;font-variant:normal;writing-mode:lr-tb;fill:#231f20;fill-opacity:1;fill-rule:nonzero;stroke:none;font-family:Times;-inkscape-font-specification:Times-Italic"
         x="231.94078 235.94278"
         y="-96.543709"
         sodipodi:role="line"
         id="tspan136">CE</tspan></text>
<text
       transform="scale(1,-1)"
       id="text138"
       x="191.83179"
       y="-121.04101"><tspan
         style="font-size:8px;font-style:italic;font-variant:normal;writing-mode:lr-tb;fill:#231f20;fill-opacity:1;fill-rule:nonzero;stroke:none;font-family:Times;-inkscape-font-specification:Times-Italic"
         x="191.83179"
         y="-121.04101"
         id="tspan140">V</tspan></text>
<text
       transform="scale(1,-1)"
       id="text142"
       x="196.71967"
       y="-119.04101"><tspan
         style="font-size:6px;font-style:italic;font-variant:normal;writing-mode:lr-tb;fill:#231f20;fill-opacity:1;fill-rule:nonzero;stroke:none;font-family:Times;-inkscape-font-specification:Times-Italic"
         x="196.71967 200.72168"
         y="-119.04101"
         sodipodi:role="line"
         id="tspan144">CB</tspan></text>
<text
       transform="scale(1,-1)"
       id="text146"
       x="192.71967"
       y="-74.980812"><tspan
         style="font-size:8px;font-style:italic;font-variant:normal;writing-mode:lr-tb;fill:#231f20;fill-opacity:1;fill-rule:nonzero;stroke:none;font-family:Times;-inkscape-font-specification:Times-Italic"
         x="192.71967"
         y="-74.980812"
         id="tspan148">V</tspan></text>
<text
       transform="scale(1,-1)"
       id="text150"
       x="197.60873"
       y="-72.980812"><tspan
         style="font-size:6px;font-style:italic;font-variant:normal;writing-mode:lr-tb;fill:#231f20;fill-opacity:1;fill-rule:nonzero;stroke:none;font-family:Times;-inkscape-font-specification:Times-Italic"
         x="197.60873 201.27431"
         y="-72.980812"
         sodipodi:role="line"
         id="tspan152">BE</tspan></text>
<text
       transform="scale(1,-1)"
       id="text154"
       x="227.32553"
       y="-71.540581"><tspan
         style="font-size:8px;font-variant:normal;font-weight:normal;writing-mode:lr-tb;fill:#231f20;fill-opacity:1;fill-rule:nonzero;stroke:none;font-family:Symbol;-inkscape-font-specification:Symbol"
         x="227.32553"
         y="-71.540581"
         id="tspan156">−</tspan><tspan
         style="font-size:8px;font-variant:normal;font-weight:normal;writing-mode:lr-tb;fill:#231f20;fill-opacity:1;fill-rule:nonzero;stroke:none;font-family:Symbol;-inkscape-font-specification:Symbol"
         x="215.65364"
         y="-62.00972"
         id="tspan158">−</tspan><tspan
         style="font-size:8px;font-variant:normal;font-weight:normal;writing-mode:lr-tb;fill:#231f20;fill-opacity:1;fill-rule:nonzero;stroke:none;font-family:Symbol;-inkscape-font-specification:Symbol"
         x="188.24663"
         y="-100.50851"
         id="tspan160">−</tspan><tspan
         style="font-size:8px;font-variant:normal;font-weight:normal;writing-mode:lr-tb;fill:#231f20;fill-opacity:1;fill-rule:nonzero;stroke:none;font-family:Symbol;-inkscape-font-specification:Symbol"
         x="229.49863"
         y="-118.70652"
         id="tspan162">+</tspan><tspan
         style="font-size:8px;font-variant:normal;font-weight:normal;writing-mode:lr-tb;fill:#231f20;fill-opacity:1;fill-rule:nonzero;stroke:none;font-family:Symbol;-inkscape-font-specification:Symbol"
         x="213.93454"
         y="-130.93503"
         id="tspan164">+</tspan><tspan
         style="font-size:8px;font-variant:normal;font-weight:normal;writing-mode:lr-tb;fill:#231f20;fill-opacity:1;fill-rule:nonzero;stroke:none;font-family:Symbol;-inkscape-font-specification:Symbol"
         x="187.37473"
         y="-91.137718"
         id="tspan166">+</tspan></text>
<text
       transform="scale(1,-1)"
       id="text168"
       x="227.14073"
       y="-46.62952"
       style="stroke-width:0.80000001;stroke-miterlimit:4;stroke-dasharray:none"><tspan
         style="font-size:8px;font-style:italic;font-variant:normal;writing-mode:lr-tb;fill:#231f20;fill-opacity:1;fill-rule:nonzero;stroke:none;font-family:Times;-inkscape-font-specification:Times-Italic"
         x="227.14073"
         y="-46.62952"
         id="tspan170">E</tspan><tspan
         style="font-size:8px;font-style:italic;font-variant:normal;writing-mode:lr-tb;fill:#231f20;fill-opacity:1;fill-rule:nonzero;stroke:none;font-family:Times;-inkscape-font-specification:Times-Italic"
         x="170.79854"
         y="-100.26152"
         id="tspan172">B</tspan></text>
<path
       inkscape:connector-curvature="0"
       id="path174"
       style="fill:#ffffff;fill-opacity:1;fill-rule:nonzero;stroke:none"
       d="m 226.40452,136.34201 c 0,-0.92 -0.746,-1.666 -1.667,-1.666 -0.92,0 -1.667,0.746 -1.667,1.666 0,0.92 0.747,1.668 1.667,1.668 0.921,0 1.667,-0.748 1.667,-1.668" /><path
       inkscape:connector-curvature="0"
       id="path176"
       style="fill:none;stroke:#231f20;stroke-width:0.5;stroke-linecap:butt;stroke-linejoin:miter;stroke-miterlimit:4;stroke-opacity:1;stroke-dasharray:none"
       d="m 226.40452,136.34201 c 0,-0.92 -0.746,-1.666 -1.667,-1.666 -0.92,0 -1.667,0.746 -1.667,1.666 0,0.92 0.747,1.668 1.667,1.668 0.921,0 1.667,-0.748 1.667,-1.668 z" /><path
       inkscape:connector-curvature="0"
       id="path178"
       style="fill:#ffffff;fill-opacity:1;fill-rule:nonzero;stroke:none"
       d="m 226.40452,56.795209 c 0,-0.9203 -0.746,-1.666 -1.667,-1.666 -0.92,0 -1.667,0.7457 -1.667,1.666 0,0.9207 0.747,1.668 1.667,1.668 0.921,0 1.667,-0.7473 1.667,-1.668" /><path
       inkscape:connector-curvature="0"
       id="path180"
       style="fill:none;stroke:#231f20;stroke-width:0.5;stroke-linecap:butt;stroke-linejoin:miter;stroke-miterlimit:4;stroke-opacity:1;stroke-dasharray:none"
       d="m 226.40452,56.795209 c 0,-0.9203 -0.746,-1.666 -1.667,-1.666 -0.92,0 -1.667,0.7457 -1.667,1.666 0,0.9207 0.747,1.668 1.667,1.668 0.921,0 1.667,-0.7473 1.667,-1.668 z" /><path
       inkscape:connector-curvature="0"
       id="path182"
       style="fill:#ffffff;fill-opacity:1;fill-rule:nonzero;stroke:none"
       d="m 181.39452,98.274909 c 0,-0.9199 -0.746,-1.666 -1.667,-1.666 -0.921,0 -1.667,0.7461 -1.667,1.666 0,0.9211 0.746,1.668 1.667,1.668 0.921,0 1.667,-0.7469 1.667,-1.668" /><path
       inkscape:connector-curvature="0"
       id="path184"
       style="fill:none;stroke:#231f20;stroke-width:0.5;stroke-linecap:butt;stroke-linejoin:miter;stroke-miterlimit:4;stroke-opacity:1;stroke-dasharray:none"
       d="m 181.39452,98.274909 c 0,-0.9199 -0.746,-1.666 -1.667,-1.666 -0.921,0 -1.667,0.7461 -1.667,1.666 0,0.9211 0.746,1.668 1.667,1.668 0.921,0 1.667,-0.7469 1.667,-1.668 z" /><path
       inkscape:connector-curvature="0"
       id="path186"
       style="fill:none;stroke:#231f20;stroke-width:0.80000001;stroke-linecap:round;stroke-linejoin:round;stroke-miterlimit:3.86369991;stroke-opacity:1;stroke-dasharray:none"
       d="m 207.88452,103.18231 16.842,6.0285" /><path
       inkscape:connector-curvature="0"
       id="path188"
       style="fill:none;stroke:#231f20;stroke-width:2;stroke-linecap:round;stroke-linejoin:round;stroke-miterlimit:3.86369991;stroke-opacity:1;stroke-dasharray:none"
       d="m 207.52752,88.953009 0,18.804301" /><path
       inkscape:connector-curvature="0"
       id="path190"
       style="fill:none;stroke:#231f20;stroke-width:0.80000001;stroke-linecap:round;stroke-linejoin:round;stroke-miterlimit:3.86369991;stroke-opacity:1;stroke-dasharray:none"
       d="m 208.27852,92.210009 14.133,-7.9332" /><path
       inkscape:connector-curvature="0"
       id="path192"
       style="fill:#231f20;fill-opacity:1;fill-rule:nonzero;stroke:none"
       d="m 219.68952,85.556109 -0.09,2.5289 0.09,0.0071 2.388,-2.9481 c 0.938,-0.8359 1.877,-1.673 2.815,-2.5101 -1.203,0.366 -2.406,0.732 -3.61,1.0972 l -3.757,0.5047 -0.047,0.0684 2.211,1.2519" /><path
       inkscape:connector-curvature="0"
       id="path194"
       style="fill:none;stroke:#231f20;stroke-width:0.5;stroke-linecap:butt;stroke-linejoin:miter;stroke-miterlimit:4;stroke-opacity:1;stroke-dasharray:none"
       d="m 205.84652,123.01401 c 3.933,3.216 8.668,5.461 13.852,6.375" /><path
       inkscape:connector-curvature="0"
       id="path196"
       style="fill:none;stroke:#231f20;stroke-width:0.5;stroke-linecap:butt;stroke-linejoin:miter;stroke-miterlimit:4;stroke-opacity:1;stroke-dasharray:none"
       d="m 194.88352,104.09601 c 0.785,4.6754 2.6,8.9941 5.199,12.7055" /><path
       inkscape:connector-curvature="0"
       id="path198"
       style="fill:#231f20;fill-opacity:1;fill-rule:nonzero;stroke:none"
       d="m 219.32152,129.32201 -1.044,1.188 0.042,0.038 2.321,-0.479 c 0.785,-0.033 1.57,-0.066 2.355,-0.1 -0.726,-0.299 -1.453,-0.598 -2.179,-0.898 l -2.018,-1.245 -0.05,0.016 0.573,1.48" /><path
       inkscape:connector-curvature="0"
       id="path200"
       style="fill:#231f20;fill-opacity:1;fill-rule:nonzero;stroke:none"
       d="m 194.94752,104.47331 1.468,0.5864 0.023,-0.0508 -1.228,-2.0278 c -0.294,-0.7289 -0.587,-1.4582 -0.881,-2.1871 -0.04,0.7852 -0.079,1.57 -0.118,2.3551 l -0.498,2.3176 0.029,0.0418 1.205,-1.0352" /><path
       inkscape:connector-curvature="0"
       id="path202"
       style="fill:none;stroke:#231f20;stroke-width:0.5;stroke-linecap:butt;stroke-linejoin:miter;stroke-miterlimit:4;stroke-opacity:1;stroke-dasharray:none"
       d="m 235.64752,94.074909 c -0.507,-5.0547 -2.269,-9.9899 -5.288,-14.302" /><path
       inkscape:connector-curvature="0"
       id="path204"
       style="fill:none;stroke:#231f20;stroke-width:0.5;stroke-linecap:butt;stroke-linejoin:miter;stroke-miterlimit:4;stroke-opacity:1;stroke-dasharray:none"
       d="m 230.02152,115.20421 c 2.752,-3.8606 4.521,-8.1977 5.308,-12.6602" /><path
       inkscape:connector-curvature="0"
       id="path206"
       style="fill:#231f20;fill-opacity:1;fill-rule:nonzero;stroke:none"
       d="m 230.57852,80.087009 1.577,-0.102 -0.001,-0.0558 -1.98,-1.3024 c -0.579,-0.5328 -1.157,-1.0636 -1.735,-1.5957 0.301,0.7258 0.603,1.4508 0.906,2.177 l 0.546,2.3059 0.046,0.0242 0.641,-1.4512" /><path
       inkscape:connector-curvature="0"
       id="path208"
       style="fill:#231f20;fill-opacity:1;fill-rule:nonzero;stroke:none"
       d="m 230.24352,114.89291 -0.624,-1.4532 -0.051,0.02 -0.567,2.3015 c -0.307,0.7235 -0.615,1.4465 -0.923,2.1696 0.583,-0.5274 1.165,-1.054 1.749,-1.5809 l 1.991,-1.2867 0.008,-0.0512 -1.583,-0.1191" /><path
       inkscape:connector-curvature="0"
       id="path210"
       style="fill:none;stroke:#231f20;stroke-width:0.5;stroke-linecap:butt;stroke-linejoin:miter;stroke-miterlimit:4;stroke-opacity:1;stroke-dasharray:none"
       d="m 200.73752,79.989009 c -2.95,3.907 -5.004,8.548 -5.854,13.607" /><path
       inkscape:connector-curvature="0"
       id="path212"
       style="fill:none;stroke:#231f20;stroke-width:0.5;stroke-linecap:butt;stroke-linejoin:miter;stroke-miterlimit:4;stroke-opacity:1;stroke-dasharray:none"
       d="m 219.69752,68.303009 c -4.709,0.8309 -9.047,2.759 -12.752,5.5168" /><path
       inkscape:connector-curvature="0"
       id="path214"
       style="fill:#231f20;fill-opacity:1;fill-rule:nonzero;stroke:none"
       d="m 194.94752,93.217909 -1.197,-1.0329 -0.037,0.0399 0.498,2.318 c 0.039,0.7851 0.078,1.5703 0.118,2.355 0.294,-0.7289 0.587,-1.4578 0.881,-2.1871 l 1.228,-2.0277 -0.016,-0.0492 -1.475,0.584" /><path
       inkscape:connector-curvature="0"
       id="path216"
       style="fill:#231f20;fill-opacity:1;fill-rule:nonzero;stroke:none"
       d="m 219.32052,68.369809 -0.574,1.4731 0.051,0.0222 2.018,-1.2441 c 0.726,-0.2988 1.453,-0.5988 2.18,-0.8988 -0.786,-0.0332 -1.571,-0.0661 -2.356,-0.0993 l -2.321,-0.4789 -0.042,0.0309 1.044,1.1949" /><path
       inkscape:connector-curvature="0"
       id="path218"
       style="fill:none;stroke:#231f20;stroke-width:0.80000001;stroke-linecap:butt;stroke-linejoin:miter;stroke-miterlimit:4;stroke-opacity:1;stroke-dasharray:none"
       d="m 45.34072,98.274909 -27.3449,0" /><path
       inkscape:connector-curvature="0"
       id="path220"
       style="fill:none;stroke:#231f20;stroke-width:0.80000001;stroke-linecap:butt;stroke-linejoin:miter;stroke-miterlimit:4;stroke-opacity:1;stroke-dasharray:none"
       d="m 62.52902,136.34201 8e-4,-27.3441" /><path
       inkscape:connector-curvature="0"
       id="path222"
       style="fill:none;stroke:#231f20;stroke-width:0.80000001;stroke-linecap:butt;stroke-linejoin:miter;stroke-miterlimit:4;stroke-opacity:1;stroke-dasharray:none"
       d="m 62.52902,82.887009 8e-4,-27.3441" /><text
       transform="scale(1,-1)"
       id="text226"
       x="64.843819"
       y="-98.544006"><tspan
         style="font-size:8px;font-style:italic;font-variant:normal;writing-mode:lr-tb;fill:#231f20;fill-opacity:1;fill-rule:nonzero;stroke:none;font-family:Times;-inkscape-font-specification:Times-Italic"
         x="64.843819"
         y="-98.544006"
         id="tspan228">V</tspan></text>
<text
       transform="scale(1,-1)"
       id="text230"
       x="69.732101"
       y="-96.544006"><tspan
         style="font-size:6px;font-style:italic;font-variant:normal;writing-mode:lr-tb;fill:#231f20;fill-opacity:1;fill-rule:nonzero;stroke:none;font-family:Times;-inkscape-font-specification:Times-Italic"
         x="69.732101 73.7341"
         y="-96.544006"
         sodipodi:role="line"
         id="tspan232">CE</tspan></text>
<text
       transform="scale(1,-1)"
       id="text234"
       x="29.623901"
       y="-121.04131"><tspan
         style="font-size:8px;font-style:italic;font-variant:normal;writing-mode:lr-tb;fill:#231f20;fill-opacity:1;fill-rule:nonzero;stroke:none;font-family:Times;-inkscape-font-specification:Times-Italic"
         x="29.623901"
         y="-121.04131"
         id="tspan236">V</tspan></text>
<text
       transform="scale(1,-1)"
       id="text238"
       x="34.511398"
       y="-119.04131"><tspan
         style="font-size:6px;font-style:italic;font-variant:normal;writing-mode:lr-tb;fill:#231f20;fill-opacity:1;fill-rule:nonzero;stroke:none;font-family:Times;-inkscape-font-specification:Times-Italic"
         x="34.511398 38.513397"
         y="-119.04131"
         sodipodi:role="line"
         id="tspan240">CB</tspan></text>
<text
       transform="scale(1,-1)"
       id="text242"
       x="30.5114"
       y="-74.98111"><tspan
         style="font-size:8px;font-style:italic;font-variant:normal;writing-mode:lr-tb;fill:#231f20;fill-opacity:1;fill-rule:nonzero;stroke:none;font-family:Times;-inkscape-font-specification:Times-Italic"
         x="30.5114"
         y="-74.98111"
         id="tspan244">V</tspan></text>
<text
       transform="scale(1,-1)"
       id="text246"
       x="35.399681"
       y="-72.98111"><tspan
         style="font-size:6px;font-style:italic;font-variant:normal;writing-mode:lr-tb;fill:#231f20;fill-opacity:1;fill-rule:nonzero;stroke:none;font-family:Times;-inkscape-font-specification:Times-Italic"
         x="35.399681 39.06525"
         y="-72.98111"
         sodipodi:role="line"
         id="tspan248">BE</tspan></text>
<text
       transform="scale(1,-1)"
       id="text250"
       x="65.116882"
       y="-72.158844"><tspan
         style="font-size:8px;font-variant:normal;font-weight:normal;writing-mode:lr-tb;fill:#231f20;fill-opacity:1;fill-rule:nonzero;stroke:none;font-family:Symbol;-inkscape-font-specification:Symbol"
         x="65.116882"
         y="-72.158844"
         id="tspan252">−</tspan><tspan
         style="font-size:8px;font-variant:normal;font-weight:normal;writing-mode:lr-tb;fill:#231f20;fill-opacity:1;fill-rule:nonzero;stroke:none;font-family:Symbol;-inkscape-font-specification:Symbol"
         x="52.828579"
         y="-62.010044"
         id="tspan254">−</tspan><tspan
         style="font-size:8px;font-variant:normal;font-weight:normal;writing-mode:lr-tb;fill:#231f20;fill-opacity:1;fill-rule:nonzero;stroke:none;font-family:Symbol;-inkscape-font-specification:Symbol"
         x="25.420382"
         y="-100.50884"
         id="tspan256">−</tspan><tspan
         style="font-size:8px;font-variant:normal;font-weight:normal;writing-mode:lr-tb;fill:#231f20;fill-opacity:1;fill-rule:nonzero;stroke:none;font-family:Symbol;-inkscape-font-specification:Symbol"
         x="67.290283"
         y="-118.70684"
         id="tspan258">+</tspan><tspan
         style="font-size:8px;font-variant:normal;font-weight:normal;writing-mode:lr-tb;fill:#231f20;fill-opacity:1;fill-rule:nonzero;stroke:none;font-family:Symbol;-inkscape-font-specification:Symbol"
         x="48.790279"
         y="-130.70685"
         id="tspan260">+</tspan><tspan
         style="font-size:8px;font-variant:normal;font-weight:normal;writing-mode:lr-tb;fill:#231f20;fill-opacity:1;fill-rule:nonzero;stroke:none;font-family:Symbol;-inkscape-font-specification:Symbol"
         x="25.042982"
         y="-91.259941"
         id="tspan262">+</tspan></text>
<text
       transform="scale(1,-1)"
       id="text264"
       x="59.88868"
       y="-141.04904"><tspan
         style="font-size:8px;font-style:italic;font-variant:normal;writing-mode:lr-tb;fill:#231f20;fill-opacity:1;fill-rule:nonzero;stroke:none;font-family:Times;-inkscape-font-specification:Times-Italic"
         x="59.88868"
         y="-141.04904"
         id="tspan266">C</tspan><tspan
         style="font-size:8px;font-style:italic;font-variant:normal;writing-mode:lr-tb;fill:#231f20;fill-opacity:1;fill-rule:nonzero;stroke:none;font-family:Times;-inkscape-font-specification:Times-Italic"
         x="229.19669"
         y="-134.98615"
         id="tspan268">C</tspan><tspan
         style="font-size:8px;font-style:italic;font-variant:normal;writing-mode:lr-tb;fill:#231f20;fill-opacity:1;fill-rule:nonzero;stroke:none;font-family:Times;-inkscape-font-specification:Times-Italic"
         x="230.21974"
         y="-169.30565"
         id="tspan270">R</tspan></text>
<text
       transform="scale(1,-1)"
       id="text272"
       x="235.1088"
       y="-167.30565"><tspan
         style="font-size:6px;font-style:italic;font-variant:normal;writing-mode:lr-tb;fill:#231f20;fill-opacity:1;fill-rule:nonzero;stroke:none;font-family:Times;-inkscape-font-specification:Times-Italic"
         x="235.1088"
         y="-167.30565"
         id="tspan274">C</tspan></text>
<text
       transform="scale(1,-1)"
       id="text276"
       x="60.123791"
       y="-46.629654"><tspan
         style="font-size:8px;font-style:italic;font-variant:normal;writing-mode:lr-tb;fill:#231f20;fill-opacity:1;fill-rule:nonzero;stroke:none;font-family:Times;-inkscape-font-specification:Times-Italic"
         x="60.123791"
         y="-46.629654"
         id="tspan278">E</tspan><tspan
         style="font-size:8px;font-style:italic;font-variant:normal;writing-mode:lr-tb;fill:#231f20;fill-opacity:1;fill-rule:nonzero;stroke:none;font-family:Times;-inkscape-font-specification:Times-Italic"
         x="8.5905914"
         y="-95.937851"
         id="tspan280">B</tspan></text>
<path
       inkscape:connector-curvature="0"
       id="path282"
       style="fill:#ffffff;fill-opacity:1;fill-rule:nonzero;stroke:none"
       d="m 64.19692,136.34201 c 0,-0.92 -0.7461,-1.666 -1.6671,-1.666 -0.9208,0 -1.6668,0.746 -1.6668,1.666 0,0.92 0.746,1.668 1.6668,1.668 0.921,0 1.6671,-0.748 1.6671,-1.668" /><path
       inkscape:connector-curvature="0"
       id="path284"
       style="fill:none;stroke:#231f20;stroke-width:0.5;stroke-linecap:butt;stroke-linejoin:miter;stroke-miterlimit:4;stroke-opacity:1;stroke-dasharray:none"
       d="m 64.19692,136.34201 c 0,-0.92 -0.7461,-1.666 -1.6671,-1.666 -0.9208,0 -1.6668,0.746 -1.6668,1.666 0,0.92 0.746,1.668 1.6668,1.668 0.921,0 1.6671,-0.748 1.6671,-1.668 z" /><path
       inkscape:connector-curvature="0"
       id="path286"
       style="fill:#ffffff;fill-opacity:1;fill-rule:nonzero;stroke:none"
       d="m 64.19692,56.795209 c 0,-0.9203 -0.7461,-1.666 -1.6671,-1.666 -0.9208,0 -1.6668,0.7457 -1.6668,1.666 0,0.9207 0.746,1.668 1.6668,1.668 0.921,0 1.6671,-0.7473 1.6671,-1.668" /><path
       inkscape:connector-curvature="0"
       id="path288"
       style="fill:none;stroke:#231f20;stroke-width:0.5;stroke-linecap:butt;stroke-linejoin:miter;stroke-miterlimit:4;stroke-opacity:1;stroke-dasharray:none"
       d="m 64.19692,56.795209 c 0,-0.9203 -0.7461,-1.666 -1.6671,-1.666 -0.9208,0 -1.6668,0.7457 -1.6668,1.666 0,0.9207 0.746,1.668 1.6668,1.668 0.921,0 1.6671,-0.7473 1.6671,-1.668 z" /><path
       inkscape:connector-curvature="0"
       id="path290"
       style="fill:#ffffff;fill-opacity:1;fill-rule:nonzero;stroke:none"
       d="m 19.18642,98.274909 c 0,-0.9199 -0.7465,-1.666 -1.6672,-1.666 -0.9211,0 -1.6672,0.7461 -1.6672,1.666 0,0.9211 0.7461,1.668 1.6672,1.668 0.9207,0 1.6672,-0.7469 1.6672,-1.668" /><path
       inkscape:connector-curvature="0"
       id="path292"
       style="fill:none;stroke:#231f20;stroke-width:0.5;stroke-linecap:butt;stroke-linejoin:miter;stroke-miterlimit:4;stroke-opacity:1;stroke-dasharray:none"
       d="m 19.18642,98.274909 c 0,-0.9199 -0.7465,-1.666 -1.6672,-1.666 -0.9211,0 -1.6672,0.7461 -1.6672,1.666 0,0.9211 0.7461,1.668 1.6672,1.668 0.9207,0 1.6672,-0.7469 1.6672,-1.668 z" /><path
       inkscape:connector-curvature="0"
       id="path294"
       style="fill:none;stroke:#231f20;stroke-width:0.80000001;stroke-linecap:round;stroke-linejoin:round;stroke-miterlimit:3.86369991;stroke-opacity:1;stroke-dasharray:none"
       d="m 45.67622,103.18231 16.8418,6.0285" /><path
       inkscape:connector-curvature="0"
       id="path296"
       style="fill:none;stroke:#231f20;stroke-width:2;stroke-linecap:round;stroke-linejoin:round;stroke-miterlimit:3.86369991;stroke-opacity:1;stroke-dasharray:none"
       d="m 45.31882,88.953009 0,18.804301" /><path
       inkscape:connector-curvature="0"
       id="path298"
       style="fill:none;stroke:#231f20;stroke-width:0.80000001;stroke-linecap:round;stroke-linejoin:round;stroke-miterlimit:3.86369991;stroke-opacity:1;stroke-dasharray:none"
       d="m 46.07122,92.210009 14.1328,-7.9332" /><path
       inkscape:connector-curvature="0"
       id="path300"
       style="fill:#231f20;fill-opacity:1;fill-rule:nonzero;stroke:none"
       d="m 57.48092,85.556109 -0.0894,2.5289 0.0894,0.0071 2.3891,-2.9481 c 0.9375,-0.8359 1.8765,-1.673 2.814,-2.5101 -1.2031,0.366 -2.4058,0.732 -3.6089,1.0972 l -3.7578,0.5047 -0.0469,0.0684 2.2105,1.2519" /><path
       inkscape:connector-curvature="0"
       id="path302"
       style="fill:none;stroke:#231f20;stroke-width:0.5;stroke-linecap:butt;stroke-linejoin:miter;stroke-miterlimit:4;stroke-opacity:1;stroke-dasharray:none"
       d="m 43.63832,123.01401 c 3.9336,3.216 8.668,5.461 13.8528,6.375" /><path
       inkscape:connector-curvature="0"
       id="path304"
       style="fill:none;stroke:#231f20;stroke-width:0.5;stroke-linecap:butt;stroke-linejoin:miter;stroke-miterlimit:4;stroke-opacity:1;stroke-dasharray:none"
       d="m 32.67552,104.09601 c 0.7851,4.6754 2.5996,8.9941 5.1992,12.7055" /><path
       inkscape:connector-curvature="0"
       id="path306"
       style="fill:#231f20;fill-opacity:1;fill-rule:nonzero;stroke:none"
       d="m 57.11372,129.32201 -1.0437,1.188 0.041,0.038 2.3215,-0.479 c 0.7848,-0.033 1.5703,-0.066 2.3555,-0.1 -0.7266,-0.299 -1.4536,-0.598 -2.1797,-0.898 l -2.0176,-1.245 -0.05,0.016 0.573,1.48" /><path
       inkscape:connector-curvature="0"
       id="path308"
       style="fill:#231f20;fill-opacity:1;fill-rule:nonzero;stroke:none"
       d="m 32.73992,104.47331 1.468,0.5864 0.0222,-0.0508 -1.2277,-2.0278 c -0.2937,-0.7289 -0.5867,-1.4582 -0.8809,-2.1871 -0.0398,0.7852 -0.0789,1.57 -0.1179,2.3551 l -0.4981,2.3176 0.0293,0.0418 1.2051,-1.0352" /><path
       inkscape:connector-curvature="0"
       id="path310"
       style="fill:none;stroke:#231f20;stroke-width:0.5;stroke-linecap:butt;stroke-linejoin:miter;stroke-miterlimit:4;stroke-opacity:1;stroke-dasharray:none"
       d="m 73.43912,94.074909 c -0.5066,-5.0547 -2.2683,-9.9899 -5.2883,-14.302" /><path
       inkscape:connector-curvature="0"
       id="path312"
       style="fill:none;stroke:#231f20;stroke-width:0.5;stroke-linecap:butt;stroke-linejoin:miter;stroke-miterlimit:4;stroke-opacity:1;stroke-dasharray:none"
       d="m 67.81302,115.20421 c 2.7523,-3.8606 4.5214,-8.1977 5.3085,-12.6602" /><path
       inkscape:connector-curvature="0"
       id="path314"
       style="fill:#231f20;fill-opacity:1;fill-rule:nonzero;stroke:none"
       d="m 68.37082,80.087009 1.5769,-0.102 -8e-4,-0.0558 -1.9804,-1.3024 c -0.5789,-0.5328 -1.1575,-1.0636 -1.7356,-1.5957 0.302,0.7258 0.6035,1.4508 0.9067,2.177 l 0.5457,2.3059 0.0461,0.0242 0.6414,-1.4512" /><path
       inkscape:connector-curvature="0"
       id="path316"
       style="fill:#231f20;fill-opacity:1;fill-rule:nonzero;stroke:none"
       d="m 68.03562,114.89291 -0.6238,-1.4532 -0.052,0.02 -0.5664,2.3015 c -0.3074,0.7235 -0.6148,1.4465 -0.9226,2.1696 0.5832,-0.5274 1.1648,-1.054 1.7492,-1.5809 l 1.9898,-1.2867 0.009,-0.0512 -1.5832,-0.1191" /><path
       inkscape:connector-curvature="0"
       id="path318"
       style="fill:none;stroke:#231f20;stroke-width:0.5;stroke-linecap:butt;stroke-linejoin:miter;stroke-miterlimit:4;stroke-opacity:1;stroke-dasharray:none"
       d="m 38.52982,79.989009 c -2.95,3.907 -5.0047,8.548 -5.8543,13.607" /><path
       inkscape:connector-curvature="0"
       id="path320"
       style="fill:none;stroke:#231f20;stroke-width:0.5;stroke-linecap:butt;stroke-linejoin:miter;stroke-miterlimit:4;stroke-opacity:1;stroke-dasharray:none"
       d="m 57.48992,68.303009 c -4.709,0.8309 -9.0476,2.759 -12.7519,5.5168" /><path
       inkscape:connector-curvature="0"
       id="path322"
       style="fill:#231f20;fill-opacity:1;fill-rule:nonzero;stroke:none"
       d="m 32.73992,93.217909 -1.1973,-1.0329 -0.0371,0.0399 0.4981,2.318 c 0.039,0.7851 0.0781,1.5703 0.1179,2.355 0.2942,-0.7289 0.5872,-1.4578 0.8809,-2.1871 l 1.2277,-2.0277 -0.0156,-0.0492 -1.4746,0.584" /><path
       inkscape:connector-curvature="0"
       id="path324"
       style="fill:#231f20;fill-opacity:1;fill-rule:nonzero;stroke:none"
       d="m 57.11302,68.369809 -0.5743,1.4731 0.0508,0.0222 2.0176,-1.2441 c 0.7266,-0.2988 1.4531,-0.5988 2.1809,-0.8988 -0.7864,-0.0332 -1.5715,-0.0661 -2.3567,-0.0993 l -2.3215,-0.4789 -0.0418,0.0309 1.045,1.1949" /><text
       y="-69.151947"
       x="114.96444"
       id="text3528"
       transform="scale(1,-1)"><tspan
         id="tspan3530"
         y="-69.151947"
         x="114.96444"
         style="font-size:6px;font-style:italic;font-variant:normal;writing-mode:lr-tb;fill:#231f20;fill-opacity:1;fill-rule:nonzero;stroke:none;font-family:Times;-inkscape-font-specification:Times-Italic">B</tspan></text>
<path
       sodipodi:type="arc"
       id="path3135"
       style="fill:#000000;stroke:none"
       sodipodi:cx="220.8614"
       sodipodi:cy="24.123211"
       sodipodi:rx="2.5"
       sodipodi:ry="2.5"
       d="m 223.3614,24.123211 a 2.5,2.5 0 1 1 -5,0 2.5,2.5 0 1 1 5,0 z"
       transform="matrix(0.72124288,0,0,0.72124288,65.365209,27.236526)" /></g></svg>