<?xml version="1.0" encoding="UTF-8" standalone="no"?>
<!-- Created with Inkscape (http://www.inkscape.org/) -->

<svg
   xmlns:dc="http://purl.org/dc/elements/1.1/"
   xmlns:cc="http://creativecommons.org/ns#"
   xmlns:rdf="http://www.w3.org/1999/02/22-rdf-syntax-ns#"
   xmlns:svg="http://www.w3.org/2000/svg"
   xmlns="http://www.w3.org/2000/svg"
   xmlns:sodipodi="http://sodipodi.sourceforge.net/DTD/sodipodi-0.dtd"
   xmlns:inkscape="http://www.inkscape.org/namespaces/inkscape"
   id="svg2"
   version="1.1"
   inkscape:version="0.48.4 r9939"
   width="206.7625"
   height="191.2625"
   xml:space="preserve"
   sodipodi:docname="S3-EE-03-033a.eps"><metadata
     id="metadata8"><rdf:RDF><cc:Work
         rdf:about=""><dc:format>image/svg+xml</dc:format><dc:type
           rdf:resource="http://purl.org/dc/dcmitype/StillImage" /><dc:title></dc:title></cc:Work></rdf:RDF></metadata><defs
     id="defs6" /><sodipodi:namedview
     pagecolor="#ffffff"
     bordercolor="#666666"
     borderopacity="1"
     objecttolerance="10"
     gridtolerance="10"
     guidetolerance="10"
     inkscape:pageopacity="0"
     inkscape:pageshadow="2"
     inkscape:window-width="1366"
     inkscape:window-height="744"
     id="namedview4"
     showgrid="false"
     inkscape:zoom="2.2613556"
     inkscape:cx="51.878595"
     inkscape:cy="62.209996"
     inkscape:window-x="0"
     inkscape:window-y="24"
     inkscape:window-maximized="1"
     inkscape:current-layer="g10" /><g
     id="g10"
     inkscape:groupmode="layer"
     inkscape:label="ink_ext_XXXXXX"
     transform="matrix(1.25,0,0,-1.25,0,191.2625)"><path
       inkscape:connector-curvature="0"
       id="path88"
       style="fill:none;stroke:#918f90;stroke-width:0.5;stroke-linecap:butt;stroke-linejoin:miter;stroke-miterlimit:4;stroke-opacity:1;stroke-dasharray:none"
       d="m 22.6348,44.9242 108.07106,0"
       sodipodi:nodetypes="cc" /><path
       inkscape:connector-curvature="0"
       id="path90"
       style="fill:none;stroke:#918f90;stroke-width:0.5;stroke-linecap:butt;stroke-linejoin:miter;stroke-miterlimit:4;stroke-opacity:1;stroke-dasharray:none"
       d="m 22.6348,66.4477 108.07106,0"
       sodipodi:nodetypes="cc" /><path
       inkscape:connector-curvature="0"
       id="path92"
       style="fill:none;stroke:#918f90;stroke-width:0.5;stroke-linecap:butt;stroke-linejoin:miter;stroke-miterlimit:4;stroke-opacity:1;stroke-dasharray:none"
       d="m 22.6348,87.9711 108.07106,0"
       sodipodi:nodetypes="cc" /><path
       inkscape:connector-curvature="0"
       id="path94"
       style="fill:none;stroke:#918f90;stroke-width:0.5;stroke-linecap:butt;stroke-linejoin:miter;stroke-miterlimit:4;stroke-opacity:1;stroke-dasharray:none"
       d="m 22.6348,109.495 108.07106,0"
       sodipodi:nodetypes="cc" /><path
       inkscape:connector-curvature="0"
       id="path96"
       style="fill:none;stroke:#918f90;stroke-width:0.5;stroke-linecap:butt;stroke-linejoin:miter;stroke-miterlimit:4;stroke-opacity:1;stroke-dasharray:none"
       d="m 22.6348,131.018 108.07106,0"
       sodipodi:nodetypes="cc" /><path
       inkscape:connector-curvature="0"
       id="path74"
       style="fill:none;stroke:#918f90;stroke-width:0.5;stroke-linecap:butt;stroke-linejoin:miter;stroke-miterlimit:4;stroke-opacity:1;stroke-dasharray:none"
       d="m 44.3293,131.04113 0,-108.06813"
       sodipodi:nodetypes="cc" /><path
       inkscape:connector-curvature="0"
       id="path76"
       style="fill:none;stroke:#918f90;stroke-width:0.5;stroke-linecap:butt;stroke-linejoin:miter;stroke-miterlimit:4;stroke-opacity:1;stroke-dasharray:none"
       d="m 65.9215,131.04113 0,-108.06813"
       sodipodi:nodetypes="cc" /><path
       inkscape:connector-curvature="0"
       id="path78"
       style="fill:none;stroke:#918f90;stroke-width:0.5;stroke-linecap:butt;stroke-linejoin:miter;stroke-miterlimit:4;stroke-opacity:1;stroke-dasharray:none"
       d="m 87.5133,131.04113 0,-108.06813"
       sodipodi:nodetypes="cc" /><path
       inkscape:connector-curvature="0"
       id="path80"
       style="fill:none;stroke:#918f90;stroke-width:0.5;stroke-linecap:butt;stroke-linejoin:miter;stroke-miterlimit:4;stroke-opacity:1;stroke-dasharray:none"
       d="m 109.105,131.04113 0,-108.06813"
       sodipodi:nodetypes="cc" /><path
       inkscape:connector-curvature="0"
       id="path82"
       style="fill:none;stroke:#918f90;stroke-width:0.5;stroke-linecap:butt;stroke-linejoin:miter;stroke-miterlimit:4;stroke-opacity:1;stroke-dasharray:none"
       d="m 130.697,131.04113 0,-108.06813"
       sodipodi:nodetypes="cc" /><path
       inkscape:connector-curvature="0"
       id="path3128"
       style="font-size:8px;font-variant:normal;font-weight:normal;writing-mode:lr-tb;fill:#231f20;fill-opacity:1;fill-rule:nonzero;stroke:none;font-family:Times;-inkscape-font-specification:Times-Roman"
       d="m 7.94675,134.311 -1.44,-0.728 0,-0.112 c 0.096,0.04 0.184,0.072 0.216,0.088 0.1439999,0.056 0.2800001,0.088 0.36,0.088 0.1679998,0 0.24,-0.12 0.24,-0.376 l 0,-3.624 c 0,-0.264 -0.064,-0.448 -0.192,-0.52 -0.1199999,-0.072 -0.2320003,-0.096 -0.568,-0.104 l 0,-0.12 2.208,0 0,0.12 c -0.6319994,0.008 -0.76,0.088 -0.76,0.472 l 0,4.8 -0.064,0.016" /><path
       inkscape:connector-curvature="0"
       id="path3130"
       style="font-size:8px;font-variant:normal;font-weight:normal;writing-mode:lr-tb;fill:#231f20;fill-opacity:1;fill-rule:nonzero;stroke:none;font-family:Times;-inkscape-font-specification:Times-Roman"
       d="m 11.65075,134.311 c -0.44,0 -0.776,-0.136 -1.072,-0.416 -0.463999,-0.448 -0.768,-1.368 -0.768,-2.304 0,-0.872 0.264,-1.808 0.64,-2.256 0.296,-0.352 0.704001,-0.544 1.168,-0.544 0.408,0 0.752,0.136 1.04,0.416 0.464,0.44 0.768,1.368 0.768,2.336 0,1.64 -0.728001,2.768 -1.776,2.768 m -0.024,-0.208 c 0.671999,0 1.032,-0.904 1.032,-2.576 0,-1.672 -0.352001,-2.528 -1.04,-2.528 -0.687999,0 -1.04,0.856 -1.04,2.52 0,1.696 0.360001,2.584 1.048,2.584" /><path
       inkscape:connector-curvature="0"
       id="path3132"
       style="font-size:8px;font-variant:normal;font-weight:normal;writing-mode:lr-tb;fill:#231f20;fill-opacity:1;fill-rule:nonzero;stroke:none;font-family:Times;-inkscape-font-specification:Times-Roman"
       d="m 15.65075,134.311 c -0.44,0 -0.776,-0.136 -1.072,-0.416 -0.463999,-0.448 -0.768,-1.368 -0.768,-2.304 0,-0.872 0.264,-1.808 0.64,-2.256 0.296,-0.352 0.704001,-0.544 1.168,-0.544 0.408,0 0.752,0.136 1.04,0.416 0.464,0.44 0.768,1.368 0.768,2.336 0,1.64 -0.728001,2.768 -1.776,2.768 m -0.024,-0.208 c 0.671999,0 1.032,-0.904 1.032,-2.576 0,-1.672 -0.352001,-2.528 -1.04,-2.528 -0.687999,0 -1.04,0.856 -1.04,2.52 0,1.696 0.360001,2.584 1.048,2.584" /><path
       inkscape:connector-curvature="0"
       id="path3134"
       style="font-size:8px;font-variant:normal;font-weight:normal;writing-mode:lr-tb;fill:#231f20;fill-opacity:1;fill-rule:nonzero;stroke:none;font-family:Times;-inkscape-font-specification:Times-Roman"
       d="m 18.36035,151.7747 c -0.591999,-0.384 -0.832,-0.592 -1.128,-0.96 -0.567999,-0.696 -0.848,-1.496 -0.848,-2.432 0,-1.016 0.296001,-1.8 1,-2.616 0.328,-0.384 0.536001,-0.56 0.952,-0.816 l 0.096,0.128 c -0.639999,0.504 -0.864,0.784 -1.08,1.384 -0.191999,0.536 -0.28,1.144 -0.28,1.944 0,0.84 0.104001,1.496 0.32,1.992 0.224,0.496 0.464001,0.784 1.04,1.248 l -0.072,0.128" /><path
       inkscape:connector-curvature="0"
       id="path3136"
       style="font-size:8px;font-variant:normal;font-weight:normal;writing-mode:lr-tb;fill:#231f20;fill-opacity:1;fill-rule:nonzero;stroke:none;font-family:Times;-inkscape-font-specification:Times-Roman"
       d="m 22.10435,149.9667 -0.704,0 0,-2.68 c -0.192,-0.32 -0.512,-0.504 -0.88,-0.504 -0.416,0 -0.672,0.28 -0.672,0.736 l 0,2.448 -0.704,0 0,-3.168 c 0,-0.176 -0.016,-0.328 -0.096,-0.776 -0.056,-0.32 -0.096,-0.672 -0.096,-0.84 0,-0.352 0.136,-0.56 0.368,-0.56 0.248,0 0.368,0.208 0.368,0.616 0,0.224 -0.04,0.448 -0.144,0.864 -0.104,0.4 -0.12,0.48 -0.152,0.776 0.24,-0.408 0.528,-0.592 0.936,-0.592 0.439999,0 0.776,0.224 1.096,0.72 0.016,-0.496 0.2,-0.72 0.584,-0.72 0.304,0 0.488,0.112 0.752,0.456 l 0,0.064 c -0.184,-0.168 -0.28,-0.224 -0.4,-0.224 -0.176,0 -0.256,0.152 -0.256,0.52 l 0,2.864" /><path
       inkscape:connector-curvature="0"
       id="path3138"
       style="font-size:8px;font-variant:normal;font-weight:normal;writing-mode:lr-tb;fill:#231f20;fill-opacity:1;fill-rule:nonzero;stroke:none;font-family:Times;-inkscape-font-specification:Times-Roman"
       d="m 28.312351,146.5187 c -0.36,0.024 -0.44,0.104 -0.72,0.696 l -1.992,4.544 -0.16,0 -1.664,-3.928 c -0.512,-1.168 -0.608,-1.296 -0.992,-1.312 l 0,-0.152 1.584,0 0,0.152 c -0.384,0 -0.544,0.104 -0.544,0.328 0,0.096 0.024,0.208 0.064,0.312 l 0.368,0.936 2.096,0 0.328,-0.768 c 0.096,-0.216 0.152,-0.424 0.152,-0.536 0,-0.2 -0.136001,-0.264 -0.56,-0.272 l 0,-0.152 2.04,0 0,0.152 m -3.92,1.904 0.92,2.2 0.928,-2.2 -1.848,0" /><path
       inkscape:connector-curvature="0"
       id="path3140"
       style="font-size:8px;font-variant:normal;font-weight:normal;writing-mode:lr-tb;fill:#231f20;fill-opacity:1;fill-rule:nonzero;stroke:none;font-family:Times;-inkscape-font-specification:Times-Roman"
       d="m 28.74435,144.9507 c 0.591999,0.384 0.832,0.592 1.128,0.96 0.567999,0.696 0.848,1.496 0.848,2.432 0,1.024 -0.296001,1.8 -1,2.616 -0.328,0.384 -0.536,0.56 -0.952,0.816 l -0.096,-0.128 c 0.639999,-0.504 0.856,-0.784 1.08,-1.384 0.192,-0.536 0.28,-1.144 0.28,-1.944 0,-0.832 -0.104,-1.496 -0.32,-1.984 -0.224,-0.504 -0.464001,-0.792 -1.04,-1.256 l 0.072,-0.128" /><path
       inkscape:connector-curvature="0"
       id="path3143"
       style="font-size:8px;font-style:italic;font-variant:normal;writing-mode:lr-tb;fill:#231f20;fill-opacity:1;fill-rule:nonzero;stroke:none;font-family:Times;-inkscape-font-specification:Times-Italic"
       d="m 76.774312,9.8587436 -1.488,0 0,-0.128 c 0.36,-0.04 0.504,-0.1200002 0.504,-0.272 0,-0.1519998 -0.152,-0.4960005 -0.416,-0.952 l -1.648,-2.848 -0.528,3.544 c -0.008,0.04 -0.008,0.072 -0.008,0.12 0,0.2719997 0.112,0.3520001 0.616,0.408 l 0,0.128 -1.928,0 0,-0.128 c 0.448,-0.056 0.464,-0.080001 0.632,-1.08 l 0.68,-4.16 0.152,0 2.984,4.92 c 0.136,0.2159998 0.264,0.312 0.448,0.32 l 0,0.128" /><path
       inkscape:connector-curvature="0"
       id="path3146"
       style="font-size:6px;font-style:italic;font-variant:normal;writing-mode:lr-tb;fill:#231f20;fill-opacity:1;fill-rule:nonzero;stroke:none;font-family:Times;-inkscape-font-specification:Times-Italic"
       d="m 76.110592,2.6347436 1.692,0 c 0.941999,0 1.59,0.4920007 1.59,1.2 0,0.2219998 -0.072,0.4320001 -0.204,0.564 -0.12,0.1379999 -0.24,0.2100001 -0.552,0.342 0.426,0.1019999 0.6,0.1740002 0.792,0.342 0.168,0.1439999 0.258,0.3480002 0.258,0.588 0,0.5699994 -0.426001,0.882 -1.2,0.882 l -1.548,0 0,-0.096 c 0.372,-0.03 0.462,-0.078 0.462,-0.246 0,-0.09 -0.024,-0.2400001 -0.066,-0.384 l -0.738,-2.652 c -0.108,-0.3479997 -0.15,-0.3840001 -0.486,-0.444 l 0,-0.096 m 1.476,1.986 c 0.39,0 0.642,-0.024 0.762,-0.072 0.246,-0.1019999 0.396,-0.3660003 0.396,-0.69 0,-0.6479993 -0.444001,-1.044 -1.176,-1.044 -0.252,0 -0.384,0.09 -0.384,0.252 0,0.072 0.072,0.3600005 0.21,0.84 0.078,0.2699997 0.114,0.4080003 0.192,0.714 m 0.45,1.584 c 0.036,0.1319999 0.108,0.168 0.342,0.168 0.48,0 0.702,-0.2040004 0.702,-0.648 0,-0.3419997 -0.144,-0.6060001 -0.402,-0.75 -0.204,-0.1199999 -0.492001,-0.162 -1.032,-0.162 l 0.39,1.392" /><path
       inkscape:connector-curvature="0"
       id="path3149"
       style="font-size:8px;font-variant:normal;font-weight:normal;writing-mode:lr-tb;fill:#231f20;fill-opacity:1;fill-rule:nonzero;stroke:none;font-family:Times;-inkscape-font-specification:Times-Roman"
       d="m 11.93873,110.1977 c 0.791999,0.424 1.072,0.76 1.072,1.304 0,0.656 -0.576001,1.136 -1.376,1.136 -0.871999,0 -1.52,-0.536 -1.52,-1.264 0,-0.52 0.152001,-0.752 0.992,-1.488 -0.863999,-0.656 -1.04,-0.904 -1.04,-1.448 0,-0.776 0.632001,-1.32 1.536,-1.32 0.959999,0 1.576,0.528 1.576,1.352 0,0.616 -0.272001,1.008 -1.24,1.728 m -0.144,-0.824 c 0.583999,-0.416 0.776,-0.704 0.776,-1.152 0,-0.52 -0.360001,-0.88 -0.88,-0.88 -0.607999,0 -1.016,0.464 -1.016,1.16 0,0.512 0.176,0.848 0.64,1.224 l 0.48,-0.352 m -0.088,0.968 c -0.711999,0.464 -1,0.832 -1,1.28 0,0.464 0.36,0.792 0.864,0.792 0.543999,0 0.888,-0.352 0.888,-0.904 0,-0.456 -0.224,-0.816 -0.68,-1.12 -0.04,-0.024 -0.04,-0.024 -0.072,-0.048" /><path
       inkscape:connector-curvature="0"
       id="path3151"
       style="font-size:8px;font-variant:normal;font-weight:normal;writing-mode:lr-tb;fill:#231f20;fill-opacity:1;fill-rule:nonzero;stroke:none;font-family:Times;-inkscape-font-specification:Times-Roman"
       d="m 15.65073,112.6377 c -0.44,0 -0.776,-0.136 -1.072,-0.416 -0.463999,-0.448 -0.768,-1.368 -0.768,-2.304 0,-0.872 0.264,-1.808 0.64,-2.256 0.296,-0.352 0.704,-0.544 1.168,-0.544 0.408,0 0.752,0.136 1.04,0.416 0.463999,0.44 0.768,1.368 0.768,2.336 0,1.64 -0.728001,2.768 -1.776,2.768 m -0.024,-0.208 c 0.671999,0 1.032,-0.904 1.032,-2.576 0,-1.672 -0.352001,-2.528 -1.04,-2.528 -0.687999,0 -1.04,0.856 -1.04,2.52 0,1.696 0.360001,2.584 1.048,2.584" /><path
       inkscape:connector-curvature="0"
       id="path3153"
       style="font-size:8px;font-variant:normal;font-weight:normal;writing-mode:lr-tb;fill:#231f20;fill-opacity:1;fill-rule:nonzero;stroke:none;font-family:Times;-inkscape-font-specification:Times-Roman"
       d="m 13.18673,91.114601 c -0.911999,-0.08 -1.376001,-0.232 -1.96,-0.64 -0.863999,-0.615999 -1.336,-1.528001 -1.336,-2.6 0,-0.695999 0.216,-1.4 0.56,-1.8 0.304,-0.352 0.736,-0.544 1.232,-0.544 0.991999,0 1.68,0.760001 1.68,1.864 0,1.023999 -0.584001,1.672 -1.504,1.672 -0.352,0 -0.520001,-0.056 -1.024,-0.36 0.216,1.207999 1.112001,2.072 2.368,2.28 l -0.016,0.128 m -1.632,-2.416 c 0.687999,0 1.088,-0.576001 1.088,-1.576 0,-0.879999 -0.312001,-1.368 -0.872,-1.368 -0.703999,0 -1.136,0.752001 -1.136,1.992 0,0.408 0.064,0.632 0.224,0.752 0.168,0.128 0.416,0.2 0.696,0.2" /><path
       inkscape:connector-curvature="0"
       id="path3155"
       style="font-size:8px;font-variant:normal;font-weight:normal;writing-mode:lr-tb;fill:#231f20;fill-opacity:1;fill-rule:nonzero;stroke:none;font-family:Times;-inkscape-font-specification:Times-Roman"
       d="m 15.65073,91.050601 c -0.44,0 -0.776,-0.136 -1.072,-0.416 -0.463999,-0.448 -0.768,-1.368001 -0.768,-2.304 0,-0.871999 0.264,-1.808001 0.64,-2.256 0.296,-0.352 0.704,-0.544 1.168,-0.544 0.408,0 0.752,0.136 1.04,0.416 0.463999,0.439999 0.768,1.368001 0.768,2.336 0,1.639998 -0.728001,2.768 -1.776,2.768 m -0.024,-0.208 c 0.671999,0 1.032,-0.904002 1.032,-2.576 0,-1.671998 -0.352001,-2.528 -1.04,-2.528 -0.687999,0 -1.04,0.856002 -1.04,2.52 0,1.695998 0.360001,2.584 1.048,2.584" /><path
       inkscape:connector-curvature="0"
       id="path3157"
       style="font-size:8px;font-variant:normal;font-weight:normal;writing-mode:lr-tb;fill:#231f20;fill-opacity:1;fill-rule:nonzero;stroke:none;font-family:Times;-inkscape-font-specification:Times-Roman"
       d="m 13.39473,65.847201 -0.816,0 0,3.56 -0.352,0 -2.512,-3.56 0,-0.512 2.248,0 0,-1.336 0.616,0 0,1.336 0.816,0 0,0.512 m -1.44,0 -1.92,0 1.92,2.744 0,-2.744" /><path
       inkscape:connector-curvature="0"
       id="path3159"
       style="font-size:8px;font-variant:normal;font-weight:normal;writing-mode:lr-tb;fill:#231f20;fill-opacity:1;fill-rule:nonzero;stroke:none;font-family:Times;-inkscape-font-specification:Times-Roman"
       d="m 15.65073,69.407201 c -0.44,0 -0.776,-0.136001 -1.072,-0.416 -0.463999,-0.448 -0.768,-1.368001 -0.768,-2.304 0,-0.871999 0.264,-1.808001 0.64,-2.256 0.296,-0.352 0.704,-0.544 1.168,-0.544 0.408,0 0.752,0.136 1.04,0.416 0.463999,0.439999 0.768,1.368001 0.768,2.336 0,1.639998 -0.728001,2.768 -1.776,2.768 m -0.024,-0.208 c 0.671999,0 1.032,-0.904002 1.032,-2.576 0,-1.671999 -0.352001,-2.528 -1.04,-2.528 -0.687999,0 -1.04,0.856001 -1.04,2.52 0,1.695998 0.360001,2.584 1.048,2.584" /><path
       inkscape:connector-curvature="0"
       id="path3161"
       style="font-size:8px;font-variant:normal;font-weight:normal;writing-mode:lr-tb;fill:#231f20;fill-opacity:1;fill-rule:nonzero;stroke:none;font-family:Times;-inkscape-font-specification:Times-Roman"
       d="m 13.41873,43.506898 -0.104,0.04 c -0.296,-0.455999 -0.4,-0.528 -0.76,-0.528 l -1.912,0 1.344,1.408 c 0.711999,0.743999 1.024,1.352001 1.024,1.976 0,0.799999 -0.648001,1.416 -1.48,1.416 -0.44,0 -0.856,-0.176 -1.152,-0.496 -0.256,-0.272 -0.376,-0.528 -0.512,-1.096 l 0.168,-0.04 c 0.32,0.783999 0.608001,1.04 1.16,1.04 0.671999,0 1.128,-0.456001 1.128,-1.128 0,-0.623999 -0.368001,-1.368001 -1.04,-2.08 l -1.424,-1.512 0,-0.096 3.12,0 0.44,1.096" /><path
       inkscape:connector-curvature="0"
       id="path3163"
       style="font-size:8px;font-variant:normal;font-weight:normal;writing-mode:lr-tb;fill:#231f20;fill-opacity:1;fill-rule:nonzero;stroke:none;font-family:Times;-inkscape-font-specification:Times-Roman"
       d="m 15.65073,47.818898 c -0.44,0 -0.776,-0.136 -1.072,-0.416 -0.463999,-0.447999 -0.768,-1.368001 -0.768,-2.304 0,-0.871999 0.264,-1.808 0.64,-2.256 0.296,-0.352 0.704,-0.544 1.168,-0.544 0.408,0 0.752,0.136 1.04,0.416 0.463999,0.44 0.768,1.368001 0.768,2.336 0,1.639998 -0.728001,2.768 -1.776,2.768 m -0.024,-0.208 c 0.671999,0 1.032,-0.904002 1.032,-2.576 0,-1.671998 -0.352001,-2.528 -1.04,-2.528 -0.687999,0 -1.04,0.856002 -1.04,2.52 0,1.695998 0.360001,2.584 1.048,2.584" /><path
       inkscape:connector-curvature="0"
       id="path3167"
       style="font-size:8px;font-variant:normal;font-weight:normal;writing-mode:lr-tb;fill:#231f20;fill-opacity:1;fill-rule:nonzero;stroke:none;font-family:Times;-inkscape-font-specification:Times-Roman"
       d="m 45.001429,17.879804 -1.44,-0.728 0,-0.112 c 0.096,0.04 0.184,0.072 0.216,0.088 0.144,0.056 0.28,0.088 0.36,0.088 0.168,0 0.24,-0.120001 0.24,-0.376 l 0,-3.624 c 0,-0.264 -0.064,-0.448 -0.192,-0.52 -0.12,-0.072 -0.232,-0.096 -0.568,-0.104 l 0,-0.12 2.208,0 0,0.12 c -0.631999,0.008 -0.76,0.088 -0.76,0.472 l 0,4.8 -0.064,0.016" /><path
       inkscape:connector-curvature="0"
       id="path3169"
       style="font-size:8px;font-variant:normal;font-weight:normal;writing-mode:lr-tb;fill:#231f20;fill-opacity:1;fill-rule:nonzero;stroke:none;font-family:Times;-inkscape-font-specification:Times-Roman"
       d="m 16.899305,19.751508 c -0.439999,0 -0.776,-0.136001 -1.072,-0.416 -0.463999,-0.448 -0.768,-1.368001 -0.768,-2.304 0,-0.872 0.264001,-1.808001 0.64,-2.256 0.296,-0.352 0.704001,-0.544 1.168,-0.544 0.408,0 0.752,0.136 1.04,0.416 0.464,0.439999 0.768,1.368001 0.768,2.336 0,1.639998 -0.728001,2.768 -1.776,2.768 m -0.024,-0.208 c 0.671999,0 1.032,-0.904002 1.032,-2.576 0,-1.671999 -0.352001,-2.528 -1.04,-2.528 -0.687999,0 -1.04,0.856001 -1.04,2.52 0,1.695998 0.360001,2.584 1.048,2.584" /><path
       inkscape:connector-curvature="0"
       id="path3171"
       style="font-size:8px;font-variant:normal;font-weight:normal;writing-mode:lr-tb;fill:#231f20;fill-opacity:1;fill-rule:nonzero;stroke:none;font-family:Times;-inkscape-font-specification:Times-Roman"
       d="m 67.40893,13.567804 -0.104,0.04 c -0.296,-0.456 -0.4,-0.528 -0.76,-0.528 l -1.912,0 1.344,1.408 c 0.711999,0.743999 1.024,1.352 1.024,1.976 0,0.799999 -0.648001,1.416 -1.48,1.416 -0.44,0 -0.856,-0.176001 -1.152,-0.496 -0.256,-0.272 -0.376,-0.528001 -0.512,-1.096 l 0.168,-0.04 c 0.32,0.783999 0.608001,1.04 1.16,1.04 0.671999,0 1.128,-0.456001 1.128,-1.128 0,-0.624 -0.368001,-1.368001 -1.04,-2.08 l -1.424,-1.512 0,-0.096 3.12,0 0.44,1.096" /><path
       inkscape:connector-curvature="0"
       id="path3173"
       style="font-size:8px;font-variant:normal;font-weight:normal;writing-mode:lr-tb;fill:#231f20;fill-opacity:1;fill-rule:nonzero;stroke:none;font-family:Times;-inkscape-font-specification:Times-Roman"
       d="m 86.668848,15.111804 c 0.472,0 0.656001,-0.016 0.848,-0.088 0.496,-0.176 0.808,-0.632001 0.808,-1.184 0,-0.672 -0.456,-1.192 -1.048,-1.192 -0.215999,0 -0.376,0.056 -0.672,0.248 -0.239999,0.143999 -0.376,0.2 -0.512,0.2 -0.183999,0 -0.304,-0.112001 -0.304,-0.28 0,-0.28 0.344001,-0.456 0.904,-0.456 0.616,0 1.248001,0.208 1.624,0.536 0.376,0.327999 0.584,0.792 0.584,1.328 0,0.407999 -0.128,0.784 -0.36,1.032 -0.159999,0.175999 -0.312,0.272 -0.664,0.424 0.552,0.375999 0.752,0.672 0.752,1.104 0,0.647999 -0.512,1.096 -1.248,1.096 -0.399999,0 -0.752,-0.136001 -1.04,-0.392 -0.239999,-0.216 -0.36,-0.424001 -0.536,-0.904 l 0.12,-0.032 c 0.328,0.583999 0.688001,0.848 1.192,0.848 0.52,0 0.88,-0.352001 0.88,-0.856 0,-0.288 -0.12,-0.576001 -0.32,-0.776 -0.239999,-0.24 -0.464,-0.360001 -1.008,-0.552 l 0,-0.104" /><path
       inkscape:connector-curvature="0"
       id="path3175"
       style="font-size:8px;font-variant:normal;font-weight:normal;writing-mode:lr-tb;fill:#231f20;fill-opacity:1;fill-rule:nonzero;stroke:none;font-family:Times;-inkscape-font-specification:Times-Roman"
       d="m 111.05677,14.319804 -0.816,0 0,3.56 -0.352,0 -2.512,-3.56 0,-0.512 2.248,0 0,-1.336 0.616,0 0,1.336 0.816,0 0,0.512 m -1.44,0 -1.92,0 1.92,2.744 0,-2.744" /><path
       inkscape:connector-curvature="0"
       id="path3177"
       style="font-size:8px;font-variant:normal;font-weight:normal;writing-mode:lr-tb;fill:#231f20;fill-opacity:1;fill-rule:nonzero;stroke:none;font-family:Times;-inkscape-font-specification:Times-Roman"
       d="m 156.66773,28.025899 c -0.592,-0.384 -0.832,-0.592001 -1.128,-0.96 -0.568,-0.695999 -0.848,-1.496001 -0.848,-2.432 0,-1.015999 0.296,-1.800001 1,-2.616 0.328,-0.384 0.536,-0.56 0.952,-0.816 l 0.096,0.128 c -0.64,0.503999 -0.864,0.784 -1.08,1.384 -0.192,0.535999 -0.28,1.144001 -0.28,1.944 0,0.839999 0.104,1.496 0.32,1.992 0.224,0.495999 0.464,0.784 1.04,1.248 l -0.072,0.128" /><path
       inkscape:connector-curvature="0"
       id="path3179"
       style="font-size:8px;font-variant:normal;font-weight:normal;writing-mode:lr-tb;fill:#231f20;fill-opacity:1;fill-rule:nonzero;stroke:none;font-family:Times;-inkscape-font-specification:Times-Roman"
       d="m 162.54773,27.913899 -1.64,0 0,-0.152 c 0.44,-0.024 0.584,-0.112 0.584,-0.336 0,-0.128 -0.056,-0.344 -0.152,-0.584 l -1.176,-2.936 -1.208,2.704 c -0.264,0.583999 -0.328,0.768 -0.328,0.888 0,0.152 0.112,0.232 0.368,0.248 0.032,0 0.12,0.008 0.232,0.016 l 0,0.152 -2.128,0 0,-0.152 c 0.392,-0.016 0.504,-0.128001 0.848,-0.84 l 1.968,-4.392 0.12,0 1.776,4.488 c 0.264,0.631999 0.352,0.72 0.736,0.744 l 0,0.152" /><path
       inkscape:connector-curvature="0"
       id="path3181"
       style="font-size:8px;font-variant:normal;font-weight:normal;writing-mode:lr-tb;fill:#231f20;fill-opacity:1;fill-rule:nonzero;stroke:none;font-family:Times;-inkscape-font-specification:Times-Roman"
       d="m 163.05074,21.201899 c 0.592,0.383999 0.832,0.592 1.128,0.96 0.568,0.695999 0.848,1.496001 0.848,2.432 0,1.023999 -0.296,1.800001 -1,2.616 -0.328,0.383999 -0.536,0.56 -0.952,0.816 l -0.096,-0.128 c 0.64,-0.504 0.856,-0.784001 1.08,-1.384 0.192,-0.536 0.28,-1.144001 0.28,-1.944 0,-0.831999 -0.104,-1.496001 -0.32,-1.984 -0.224,-0.504 -0.464,-0.792001 -1.04,-1.256 l 0.072,-0.128" /><path
       inkscape:connector-curvature="0"
       id="path50"
       style="fill:none;stroke:#231f20;stroke-width:0.5;stroke-linecap:butt;stroke-linejoin:miter;stroke-miterlimit:4;stroke-opacity:1;stroke-dasharray:none"
       d="m 147.832,23.243 -125.1011,0 0,116.297" /><path
       inkscape:connector-curvature="0"
       id="path52"
       style="fill:#231f20;fill-opacity:1;fill-rule:nonzero;stroke:none"
       d="m 21.9625,141.311 c -0.375,-1.24 -0.7199,-2.045 -1.1191,-3.04 l 3.7836,0 c -0.1696,0.356 -0.7446,1.8 -1.1192,3.04 -0.4008,1.328 -0.6754,2.531 -0.773,3.311 -0.0977,-0.78 -0.3719,-1.983 -0.7723,-3.311" /><path
       inkscape:connector-curvature="0"
       id="path54"
       style="fill:#231f20;fill-opacity:1;fill-rule:nonzero;stroke:none"
       d="m 149.604,24.0109 c -1.241,0.375 -2.046,0.72 -3.041,1.1192 l 0,-3.7832 c 0.356,0.1691 1.8,0.7441 3.041,1.1179 1.326,0.4024 2.53,0.6762 3.31,0.7743 -0.78,0.0968 -1.984,0.3718 -3.31,0.7718" /><path
       inkscape:connector-curvature="0"
       id="path58"
       style="fill:none;stroke:#231f20;stroke-width:0.5;stroke-linecap:butt;stroke-linejoin:miter;stroke-miterlimit:4;stroke-opacity:1;stroke-dasharray:none"
       d="m 22.7309,44.9582 -2.7,0" /><path
       inkscape:connector-curvature="0"
       id="path60"
       style="fill:none;stroke:#231f20;stroke-width:0.5;stroke-linecap:butt;stroke-linejoin:miter;stroke-miterlimit:4;stroke-opacity:1;stroke-dasharray:none"
       d="m 22.7309,66.4457 -2.7,0" /><path
       inkscape:connector-curvature="0"
       id="path62"
       style="fill:none;stroke:#231f20;stroke-width:0.5;stroke-linecap:butt;stroke-linejoin:miter;stroke-miterlimit:4;stroke-opacity:1;stroke-dasharray:none"
       d="m 22.7309,87.9895 -2.7,0" /><path
       inkscape:connector-curvature="0"
       id="path64"
       style="fill:none;stroke:#231f20;stroke-width:0.5;stroke-linecap:butt;stroke-linejoin:miter;stroke-miterlimit:4;stroke-opacity:1;stroke-dasharray:none"
       d="m 20.0309,109.476 2.7,0" /><path
       inkscape:connector-curvature="0"
       id="path66"
       style="fill:none;stroke:#231f20;stroke-width:0.5;stroke-linecap:butt;stroke-linejoin:miter;stroke-miterlimit:4;stroke-opacity:1;stroke-dasharray:none"
       d="m 20.0309,131.051 2.7,0" /><path
       inkscape:connector-curvature="0"
       id="path68"
       style="fill:none;stroke:#231f20;stroke-width:0.5;stroke-linecap:butt;stroke-linejoin:miter;stroke-miterlimit:4;stroke-opacity:1;stroke-dasharray:none"
       d="m 44.3293,23.243 0,-2.7" /><path
       inkscape:connector-curvature="0"
       id="path70"
       style="fill:none;stroke:#231f20;stroke-width:0.5;stroke-linecap:butt;stroke-linejoin:miter;stroke-miterlimit:4;stroke-opacity:1;stroke-dasharray:none"
       d="m 65.9215,23.243 0,-2.7" /><path
       inkscape:connector-curvature="0"
       id="path72"
       style="fill:none;stroke:#231f20;stroke-width:0.5;stroke-linecap:butt;stroke-linejoin:miter;stroke-miterlimit:4;stroke-opacity:1;stroke-dasharray:none"
       d="m 87.5133,23.243 0,-2.7" /><path
       inkscape:connector-curvature="0"
       id="path84"
       style="fill:none;stroke:#231f20;stroke-width:0.5;stroke-linecap:butt;stroke-linejoin:miter;stroke-miterlimit:4;stroke-opacity:1;stroke-dasharray:none"
       d="m 130.697,23.243 0,-2.7" /><path
       inkscape:connector-curvature="0"
       id="path86"
       style="fill:none;stroke:#231f20;stroke-width:0.5;stroke-linecap:butt;stroke-linejoin:miter;stroke-miterlimit:4;stroke-opacity:1;stroke-dasharray:none"
       d="m 109.105,23.243 0,-2.7" /><path
       inkscape:connector-curvature="0"
       id="path98"
       style="fill:none;stroke:#231f20;stroke-width:0.5;stroke-linecap:butt;stroke-linejoin:miter;stroke-miterlimit:4;stroke-opacity:1;stroke-dasharray:none"
       d="M 85.782595,4.60313 102.0084,4.56211" /><path
       inkscape:connector-curvature="0"
       id="path100"
       style="fill:#231f20;fill-opacity:1;fill-rule:nonzero;stroke:none"
       d="m 101.6254,4.56289 -0.817,1.35313 0.045,0.03086 2.202,-0.88086 c 0.766,-0.1711 1.534,-0.3418 2.3,-0.51289 -0.767,-0.16719 -1.536,-0.33321 -2.303,-0.50118 l -2.205,-0.86875 -0.047,0.02266 0.825,1.35703" /><path
       inkscape:connector-curvature="0"
       id="path102"
       style="fill:none;stroke:#231f20;stroke-width:0.49999997;stroke-linecap:butt;stroke-linejoin:miter;stroke-miterlimit:4;stroke-opacity:1;stroke-dasharray:none"
       d="M 67.498738,113.39313 56.671498,100.377" /><path
       inkscape:connector-curvature="0"
       id="path104"
       style="fill:#231f20;fill-opacity:1;fill-rule:nonzero;stroke:none"
       d="m 56.9293,100.661 1.5516,-0.304 -0.0082,-0.055 -2.1313,-1.0379 c -0.6422,-0.4543 -1.2844,-0.9075 -1.9266,-1.3606 0.3926,0.6809 0.7856,1.3625 1.1782,2.043 l 0.8383,2.2175 0.0476,0.019 0.4504,-1.522" /><path
       inkscape:connector-curvature="0"
       id="path106"
       style="fill:none;stroke:#231f20;stroke-width:0.5;stroke-linecap:butt;stroke-linejoin:miter;stroke-miterlimit:4;stroke-opacity:1;stroke-dasharray:none"
       d="M 111.17697,113.39776 100.21951,98.905363" /><path
       inkscape:connector-curvature="0"
       id="path108"
       style="fill:#231f20;fill-opacity:1;fill-rule:nonzero;stroke:none"
       d="m 100.47751,99.188558 1.552,-0.3039 -0.009,-0.05458 -2.131105,-1.0379 c -0.642203,-0.454298 -1.284003,-0.907398 -1.926199,-1.3606 0.392604,0.6809 0.785099,1.362501 1.177703,2.043 l 0.837901,2.217996 0.04872,0.018 0.44999,-1.521902" /><path
       inkscape:connector-curvature="0"
       id="path110"
       style="fill:none;stroke:#231f20;stroke-width:0.5;stroke-linecap:butt;stroke-linejoin:miter;stroke-miterlimit:4;stroke-opacity:1;stroke-dasharray:none"
       d="M 3.18789,80.5871 3.2293,96.8121" /><path
       inkscape:connector-curvature="0"
       id="path112"
       style="fill:#231f20;fill-opacity:1;fill-rule:nonzero;stroke:none"
       d="m 3.22852,96.4289 -1.35313,-0.8172 -0.03047,0.0461 0.88086,2.2008 c 0.1707,0.7668 0.34102,1.5344 0.5125,2.3004 0.16641,-0.7672 0.3336,-1.5356 0.50039,-2.3031 l 0.86992,-2.2051 -0.02382,-0.0469 -1.35625,0.825" /><path
       inkscape:connector-curvature="0"
       id="path114"
       style="fill:none;stroke:#231f20;stroke-width:1.2;stroke-linecap:butt;stroke-linejoin:miter;stroke-miterlimit:4;stroke-opacity:1;stroke-dasharray:none"
       d="M 59.8848,23.243 50.3652,131.018" /><path
       inkscape:connector-curvature="0"
       id="path116"
       style="fill:none;stroke:#231f20;stroke-width:1.2;stroke-linecap:butt;stroke-linejoin:miter;stroke-miterlimit:4;stroke-opacity:1;stroke-dasharray:none"
       d="M 103.069,23.243 93.5496,131.018" /><path
       inkscape:connector-curvature="0"
       id="path3184"
       style="font-size:8px;font-style:italic;font-variant:normal;writing-mode:lr-tb;fill:#231f20;fill-opacity:1;fill-rule:nonzero;stroke:none;font-family:Times;-inkscape-font-specification:Times-Italic"
       d="m 57.4845,121.65 -1.488,0 0,-0.128 c 0.36,-0.04 0.504,-0.12 0.504,-0.272 0,-0.152 -0.152,-0.496 -0.416,-0.952 l -1.648,-2.848 -0.528,3.544 c -0.008,0.04 -0.008,0.072 -0.008,0.12 0,0.272 0.112001,0.352 0.616,0.408 l 0,0.128 -1.928,0 0,-0.128 c 0.448,-0.056 0.464,-0.08 0.632,-1.08 l 0.68,-4.16 0.152,0 2.984,4.92 c 0.136,0.216 0.264,0.312 0.448,0.32 l 0,0.128" /><path
       inkscape:connector-curvature="0"
       id="path3187"
       style="font-size:6px;font-style:italic;font-variant:normal;writing-mode:lr-tb;fill:#231f20;fill-opacity:1;fill-rule:nonzero;stroke:none;font-family:Times;-inkscape-font-specification:Times-Italic"
       d="m 60.67239,118.344 -2.982,0 0,-0.096 c 0.372,-0.036 0.462,-0.084 0.462,-0.246 0,-0.066 -0.036,-0.276 -0.066,-0.384 l -0.738,-2.652 c -0.102,-0.342 -0.15,-0.384 -0.486,-0.444 l 0,-0.096 3.042,0 0.372,0.972 -0.096,0.048 c -0.282,-0.384 -0.438,-0.54 -0.696,-0.66 -0.222,-0.102 -0.63,-0.162 -1.08,-0.162 -0.336,0 -0.48,0.06 -0.48,0.204 0,0.066 0.066,0.348 0.216,0.876 0.078,0.264 0.132,0.462 0.192,0.69 0.21,-0.012 0.396,-0.018 0.468,-0.018 0.234,0.006 0.402,-0.03 0.468,-0.09 0.03,-0.03 0.042,-0.084 0.042,-0.186 0,-0.102 -0.012,-0.18 -0.042,-0.312 l 0.12,-0.03 0.408,1.392 -0.108,0.024 c -0.228,-0.51 -0.282001,-0.546 -0.828,-0.57 -0.072,0 -0.264,-0.006 -0.474,-0.012 l 0.396,1.398 c 0.036,0.132 0.102,0.156 0.438,0.156 0.941999,0 1.152,-0.078 1.152,-0.438 0,-0.078 -0.006,-0.168 -0.012,-0.27 l 0.126,-0.012 0.186,0.918" /><path
       inkscape:connector-curvature="0"
       id="path3189"
       style="font-size:6px;font-style:italic;font-variant:normal;writing-mode:lr-tb;fill:#231f20;fill-opacity:1;fill-rule:nonzero;stroke:none;font-family:Times;-inkscape-font-specification:Times-Italic"
       d="m 64.44639,117.216 0.222,1.194 -0.126,0 c -0.048,-0.096 -0.108,-0.132 -0.228,-0.132 -0.048,0 -0.12,0.012 -0.246,0.042 -0.27,0.066 -0.51,0.102 -0.702,0.102 -1.277999,0 -2.436,-1.206 -2.436,-2.538 0,-0.918 0.648001,-1.566 1.566,-1.566 0.617999,0 1.098,0.264 1.638,0.894 l -0.102,0.084 c -0.54,-0.528 -0.888001,-0.708 -1.38,-0.708 -0.665999,0 -1.05,0.456 -1.05,1.23 0,0.714 0.288,1.44 0.756,1.926 0.288,0.294 0.666,0.462 1.062,0.462 0.551999,0 0.858,-0.324 0.918,-0.972 l 0.108,-0.018" /><path
       inkscape:connector-curvature="0"
       id="path3192"
       style="font-size:8px;font-variant:normal;font-weight:normal;writing-mode:lr-tb;fill:#231f20;fill-opacity:1;fill-rule:nonzero;stroke:none;font-family:Times;-inkscape-font-specification:Times-Roman"
       d="m 70.80797,119.514 -4.032,0 0,-0.528 4.032,0 0,0.528 m 0,-1.6 -4.032,0 0,-0.528 4.032,0 0,0.528" /><path
       inkscape:connector-curvature="0"
       id="path3194"
       style="font-size:8px;font-variant:normal;font-weight:normal;writing-mode:lr-tb;fill:#231f20;fill-opacity:1;fill-rule:nonzero;stroke:none;font-family:Times;-inkscape-font-specification:Times-Roman"
       d="m 76.84797,117.522 -0.104,0.04 c -0.296,-0.456 -0.4,-0.528 -0.76,-0.528 l -1.912,0 1.344,1.408 c 0.711999,0.744 1.024,1.352 1.024,1.976 0,0.8 -0.648001,1.416 -1.48,1.416 -0.44,0 -0.856,-0.176 -1.152,-0.496 -0.256,-0.272 -0.376,-0.528 -0.512,-1.096 l 0.168,-0.04 c 0.32,0.784 0.608001,1.04 1.16,1.04 0.671999,0 1.128,-0.456 1.128,-1.128 0,-0.624 -0.368001,-1.368 -1.04,-2.08 l -1.424,-1.512 0,-0.096 3.12,0 0.44,1.096" /><path
       inkscape:connector-curvature="0"
       id="path3196"
       style="font-size:8px;font-variant:normal;font-weight:normal;writing-mode:lr-tb;fill:#231f20;fill-opacity:1;fill-rule:nonzero;stroke:none;font-family:Times;-inkscape-font-specification:Times-Roman"
       d="m 84.62397,121.722 -1.64,0 0,-0.152 c 0.44,-0.024 0.584,-0.112 0.584,-0.336 0,-0.128 -0.056,-0.344 -0.152,-0.584 l -1.176,-2.936 -1.208,2.704 c -0.264,0.584 -0.328,0.768 -0.328,0.888 0,0.152 0.112,0.232 0.368,0.248 0.032,0 0.12,0.008 0.232,0.016 l 0,0.152 -2.128,0 0,-0.152 c 0.392,-0.016 0.504,-0.128 0.848,-0.84 l 1.968,-4.392 0.12,0 1.776,4.488 c 0.264,0.632 0.352,0.72 0.736,0.744 l 0,0.152" /><path
       inkscape:connector-curvature="0"
       id="path3199"
       style="font-size:8px;font-style:italic;font-variant:normal;writing-mode:lr-tb;fill:#231f20;fill-opacity:1;fill-rule:nonzero;stroke:none;font-family:Times;-inkscape-font-specification:Times-Italic"
       d="m 101.12397,120.70273 -1.488,0 0,-0.128 c 0.36,-0.04 0.504,-0.12 0.504,-0.272 0,-0.152 -0.152,-0.496 -0.416,-0.952 l -1.648,-2.848 -0.528,3.544 c -0.008,0.04 -0.008,0.072 -0.008,0.12 0,0.272 0.112,0.352 0.616,0.408 l 0,0.128 -1.928,0 0,-0.128 c 0.448,-0.056 0.464,-0.08 0.632,-1.08 l 0.68,-4.16 0.152,0 2.984,4.92 c 0.136,0.216 0.264,0.312 0.448,0.32 l 0,0.128" /><path
       inkscape:connector-curvature="0"
       id="path3202"
       style="font-size:6px;font-style:italic;font-variant:normal;writing-mode:lr-tb;fill:#231f20;fill-opacity:1;fill-rule:nonzero;stroke:none;font-family:Times;-inkscape-font-specification:Times-Italic"
       d="m 104.31186,117.39673 -2.982,0 0,-0.096 c 0.372,-0.036 0.462,-0.084 0.462,-0.246 0,-0.066 -0.036,-0.276 -0.066,-0.384 l -0.738,-2.652 c -0.102,-0.342 -0.15,-0.384 -0.486,-0.444 l 0,-0.096 3.042,0 0.372,0.972 -0.096,0.048 c -0.282,-0.384 -0.438,-0.54 -0.696,-0.66 -0.222,-0.102 -0.63,-0.162 -1.08,-0.162 -0.336,0 -0.48,0.06 -0.48,0.204 0,0.066 0.066,0.348 0.216,0.876 0.078,0.264 0.132,0.462 0.192,0.69 0.21,-0.012 0.396,-0.018 0.468,-0.018 0.234,0.006 0.402,-0.03 0.468,-0.09 0.03,-0.03 0.042,-0.084 0.042,-0.186 0,-0.102 -0.012,-0.18 -0.042,-0.312 l 0.12,-0.03 0.408,1.392 -0.108,0.024 c -0.228,-0.51 -0.282,-0.546 -0.828,-0.57 -0.072,0 -0.264,-0.006 -0.474,-0.012 l 0.396,1.398 c 0.036,0.132 0.102,0.156 0.438,0.156 0.942,0 1.152,-0.078 1.152,-0.438 0,-0.078 -0.006,-0.168 -0.012,-0.27 l 0.126,-0.012 0.186,0.918" /><path
       inkscape:connector-curvature="0"
       id="path3204"
       style="font-size:6px;font-style:italic;font-variant:normal;writing-mode:lr-tb;fill:#231f20;fill-opacity:1;fill-rule:nonzero;stroke:none;font-family:Times;-inkscape-font-specification:Times-Italic"
       d="m 108.08586,116.26873 0.222,1.194 -0.126,0 c -0.048,-0.096 -0.108,-0.132 -0.228,-0.132 -0.048,0 -0.12,0.012 -0.246,0.042 -0.27,0.066 -0.51,0.102 -0.702,0.102 -1.278,0 -2.436,-1.206 -2.436,-2.538 0,-0.918 0.648,-1.566 1.566,-1.566 0.618,0 1.098,0.264 1.638,0.894 l -0.102,0.084 c -0.54,-0.528 -0.888,-0.708 -1.38,-0.708 -0.666,0 -1.05,0.456 -1.05,1.23 0,0.714 0.288,1.44 0.756,1.926 0.288,0.294 0.666,0.462 1.062,0.462 0.552,0 0.858,-0.324 0.918,-0.972 l 0.108,-0.018" /><path
       inkscape:connector-curvature="0"
       id="path3207"
       style="font-size:8px;font-variant:normal;font-weight:normal;writing-mode:lr-tb;fill:#231f20;fill-opacity:1;fill-rule:nonzero;stroke:none;font-family:Times;-inkscape-font-specification:Times-Roman"
       d="m 114.44822,118.56673 -4.032,0 0,-0.528 4.032,0 0,0.528 m 0,-1.6 -4.032,0 0,-0.528 4.032,0 0,0.528" /><path
       inkscape:connector-curvature="0"
       id="path3209"
       style="font-size:8px;font-variant:normal;font-weight:normal;writing-mode:lr-tb;fill:#231f20;fill-opacity:1;fill-rule:nonzero;stroke:none;font-family:Times;-inkscape-font-specification:Times-Roman"
       d="m 120.46422,117.32673 -0.816,0 0,3.56 -0.352,0 -2.512,-3.56 0,-0.512 2.248,0 0,-1.336 0.616,0 0,1.336 0.816,0 0,0.512 m -1.44,0 -1.92,0 1.92,2.744 0,-2.744" /><path
       inkscape:connector-curvature="0"
       id="path3211"
       style="font-size:8px;font-variant:normal;font-weight:normal;writing-mode:lr-tb;fill:#231f20;fill-opacity:1;fill-rule:nonzero;stroke:none;font-family:Times;-inkscape-font-specification:Times-Roman"
       d="m 128.26422,120.77473 -1.64,0 0,-0.152 c 0.44,-0.024 0.584,-0.112 0.584,-0.336 0,-0.128 -0.056,-0.344 -0.152,-0.584 l -1.176,-2.936 -1.208,2.704 c -0.264,0.584 -0.328,0.768 -0.328,0.888 0,0.152 0.112,0.232 0.368,0.248 0.032,0 0.12,0.008 0.232,0.016 l 0,0.152 -2.128,0 0,-0.152 c 0.392,-0.016 0.504,-0.128 0.848,-0.84 l 1.968,-4.392 0.12,0 1.776,4.488 c 0.264,0.632 0.352,0.72 0.736,0.744 l 0,0.152" /><path
       inkscape:connector-curvature="0"
       id="path3214"
       style="font-size:8px;font-style:italic;font-variant:normal;writing-mode:lr-tb;fill:#231f20;fill-opacity:1;fill-rule:nonzero;stroke:none;font-family:Times;-inkscape-font-specification:Times-Italic"
       d="m 2.2e-4,71.936934 1.952,0 0,0.128 c -0.4559995,0.056 -0.544,0.104 -0.544,0.328 0,0.152 0.016,0.248 0.088,0.504 l 0.984,3.544 c 0.1439999,0.463999 0.2000005,0.512 0.656,0.592 l 0,0.128 -1.976,0 0,-0.128 c 0.4639995,-0.056 0.56,-0.12 0.56,-0.344 0,-0.112 -0.032,-0.296 -0.088,-0.496 l -0.984,-3.536 c -0.14399986,-0.464 -0.20000045,-0.512 -0.648,-0.592 l 0,-0.128" /><path
       inkscape:connector-curvature="0"
       id="path3217"
       style="font-size:6px;font-style:italic;font-variant:normal;writing-mode:lr-tb;fill:#231f20;fill-opacity:1;fill-rule:nonzero;stroke:none;font-family:Times;-inkscape-font-specification:Times-Italic"
       d="m 2.68028,69.936934 1.692,0 c 0.9419991,0 1.59,0.492001 1.59,1.2 0,0.222 -0.072,0.432 -0.204,0.564 -0.1199999,0.138 -0.2400003,0.21 -0.552,0.342 0.4259996,0.102 0.6000002,0.174 0.792,0.342 0.1679998,0.144 0.258,0.348 0.258,0.588 0,0.569999 -0.4260008,0.882 -1.2,0.882 l -1.548,0 0,-0.096 c 0.3719996,-0.03 0.462,-0.078 0.462,-0.246 0,-0.09 -0.024,-0.24 -0.066,-0.384 l -0.738,-2.652 c -0.1079999,-0.348 -0.1500003,-0.384 -0.486,-0.444 l 0,-0.096 m 1.476,1.986 c 0.3899996,0 0.6420001,-0.024 0.762,-0.072 0.2459998,-0.102 0.396,-0.366 0.396,-0.69 0,-0.647999 -0.4440007,-1.044 -1.176,-1.044 -0.2519997,0 -0.384,0.09 -0.384,0.252 0,0.072 0.072,0.36 0.21,0.84 0.078,0.27 0.1140001,0.408 0.192,0.714 m 0.45,1.584 c 0.036,0.132 0.1080002,0.168 0.342,0.168 0.4799995,0 0.702,-0.204 0.702,-0.648 0,-0.342 -0.1440003,-0.606 -0.402,-0.75 -0.2039998,-0.12 -0.4920005,-0.162 -1.032,-0.162 l 0.39,1.392" /><path
       inkscape:connector-curvature="0"
       id="path3204-5"
       style="font-size:6px;font-style:italic;font-variant:normal;writing-mode:lr-tb;fill:#231f20;fill-opacity:1;fill-rule:nonzero;stroke:none;font-family:Times;-inkscape-font-specification:Times-Italic"
       d="m 83.4465,5.3312202 0.222,1.194 -0.126,0 c -0.048,-0.096 -0.108,-0.132 -0.228,-0.132 -0.048,0 -0.12,0.012 -0.246,0.042 -0.27,0.066 -0.51,0.102 -0.702,0.102 -1.278,0 -2.436,-1.206 -2.436,-2.538 0,-0.918 0.648,-1.566 1.566,-1.566 0.618,0 1.098,0.264 1.638,0.894 l -0.102,0.084 c -0.54,-0.528 -0.888,-0.708 -1.38,-0.708 -0.666,0 -1.05,0.456 -1.05,1.23 0,0.714 0.288,1.44 0.756,1.926 0.288,0.294 0.666,0.462 1.062,0.462 0.552,0 0.858,-0.324 0.918,-0.972 l 0.108,-0.018" /></g></svg>