<?xml version="1.0" encoding="UTF-8" standalone="no"?>
<!-- Created with Inkscape (http://www.inkscape.org/) -->

<svg
   xmlns:dc="http://purl.org/dc/elements/1.1/"
   xmlns:cc="http://creativecommons.org/ns#"
   xmlns:rdf="http://www.w3.org/1999/02/22-rdf-syntax-ns#"
   xmlns:svg="http://www.w3.org/2000/svg"
   xmlns="http://www.w3.org/2000/svg"
   xmlns:sodipodi="http://sodipodi.sourceforge.net/DTD/sodipodi-0.dtd"
   xmlns:inkscape="http://www.inkscape.org/namespaces/inkscape"
   id="svg2"
   version="1.1"
   inkscape:version="0.48.4 r9939"
   width="283.46457"
   height="212.59842"
   xml:space="preserve"
   sodipodi:docname="S3-EE-03-011.eps"><metadata
     id="metadata8"><rdf:RDF><cc:Work
         rdf:about=""><dc:format>image/svg+xml</dc:format><dc:type
           rdf:resource="http://purl.org/dc/dcmitype/StillImage" /><dc:title></dc:title></cc:Work></rdf:RDF></metadata><defs
     id="defs6" /><sodipodi:namedview
     pagecolor="#ffffff"
     bordercolor="#666666"
     borderopacity="1"
     objecttolerance="10"
     gridtolerance="10"
     guidetolerance="10"
     inkscape:pageopacity="0"
     inkscape:pageshadow="2"
     inkscape:window-width="1366"
     inkscape:window-height="744"
     id="namedview4"
     showgrid="false"
     units="cm"
     inkscape:zoom="2.8081112"
     inkscape:cx="141.73228"
     inkscape:cy="106.29921"
     inkscape:window-x="0"
     inkscape:window-y="24"
     inkscape:window-maximized="1"
     inkscape:current-layer="g10" /><g
     id="g10"
     inkscape:groupmode="layer"
     inkscape:label="ink_ext_XXXXXX"
     transform="matrix(1.25,0,0,-1.25,0,212.59844)"><path
       inkscape:connector-curvature="0"
       id="path3158"
       style="font-size:8px;font-style:italic;font-variant:normal;writing-mode:lr-tb;fill:#231f20;fill-opacity:1;fill-rule:nonzero;stroke:none;font-family:Times;-inkscape-font-specification:Times-Italic"
       d="m 143.91223,135.10034 1.952,0 0,0.128 c -0.456,0.056 -0.544,0.104 -0.544,0.328 0,0.152 0.016,0.248 0.088,0.504 l 0.984,3.544 c 0.144,0.464 0.2,0.512 0.656,0.592 l 0,0.128 -1.976,0 0,-0.128 c 0.464,-0.056 0.56,-0.12 0.56,-0.344 0,-0.112 -0.032,-0.296 -0.088,-0.496 l -0.984,-3.536 c -0.144,-0.464 -0.2,-0.512 -0.648,-0.592 l 0,-0.128" /><path
       inkscape:connector-curvature="0"
       id="path3161"
       style="font-size:6px;font-style:italic;font-variant:normal;writing-mode:lr-tb;fill:#231f20;fill-opacity:1;fill-rule:nonzero;stroke:none;font-family:Times;-inkscape-font-specification:Times-Italic"
       d="m 150.55229,135.89034 0.222,1.194 -0.126,0 c -0.048,-0.096 -0.108,-0.132 -0.228,-0.132 -0.048,0 -0.12,0.012 -0.246,0.042 -0.27,0.066 -0.51,0.102 -0.702,0.102 -1.278,0 -2.436,-1.206 -2.436,-2.538 0,-0.918 0.648,-1.566 1.566,-1.566 0.618,0 1.098,0.264 1.638,0.894 l -0.102,0.084 c -0.54,-0.528 -0.888,-0.708 -1.38,-0.708 -0.666,0 -1.05,0.456 -1.05,1.23 0,0.714 0.288,1.44 0.756,1.926 0.288,0.294 0.666,0.462 1.062,0.462 0.552,0 0.858,-0.324 0.918,-0.972 l 0.108,-0.018" /><path
       inkscape:connector-curvature="0"
       id="path3164"
       style="font-size:8px;font-variant:normal;font-weight:normal;writing-mode:lr-tb;fill:#231f20;fill-opacity:1;fill-rule:nonzero;stroke:none;font-family:Times;-inkscape-font-specification:Times-Roman"
       d="m 156.53924,138.18834 -4.032,0 0,-0.528 4.032,0 0,0.528 m 0,-1.6 -4.032,0 0,-0.528 4.032,0 0,0.528" /><path
       inkscape:connector-curvature="0"
       id="path3166"
       style="font-size:8px;font-variant:normal;font-weight:normal;writing-mode:lr-tb;fill:#231f20;fill-opacity:1;fill-rule:nonzero;stroke:none;font-family:Times;-inkscape-font-specification:Times-Roman"
       d="m 161.107,140.50834 -1.44,-0.728 0,-0.112 c 0.096,0.04 0.184,0.072 0.216,0.088 0.144,0.056 0.28,0.088 0.36,0.088 0.168,0 0.24,-0.12 0.24,-0.376 l 0,-3.624 c 0,-0.264 -0.064,-0.448 -0.192,-0.52 -0.12,-0.072 -0.232,-0.096 -0.568,-0.104 l 0,-0.12 2.208,0 0,0.12 c -0.632,0.008 -0.76,0.088 -0.76,0.472 l 0,4.8 -0.064,0.016" /><path
       inkscape:connector-curvature="0"
       id="path3168"
       style="font-size:8px;font-variant:normal;font-weight:normal;writing-mode:lr-tb;fill:#231f20;fill-opacity:1;fill-rule:nonzero;stroke:none;font-family:Times;-inkscape-font-specification:Times-Roman"
       d="m 163.77894,135.90034 c -0.24,0 -0.44,-0.208 -0.44,-0.456 0,-0.232 0.2,-0.432 0.432,-0.432 0.248,0 0.456,0.2 0.456,0.432 0,0.248 -0.208,0.456 -0.448,0.456" /><path
       inkscape:connector-curvature="0"
       id="path3170"
       style="font-size:8px;font-variant:normal;font-weight:normal;writing-mode:lr-tb;fill:#231f20;fill-opacity:1;fill-rule:nonzero;stroke:none;font-family:Times;-inkscape-font-specification:Times-Roman"
       d="m 168.57894,136.19634 -0.104,0.04 c -0.296,-0.456 -0.4,-0.528 -0.76,-0.528 l -1.912,0 1.344,1.408 c 0.712,0.744 1.024,1.352 1.024,1.976 0,0.8 -0.648,1.416 -1.48,1.416 -0.44,0 -0.856,-0.176 -1.152,-0.496 -0.256,-0.272 -0.376,-0.528 -0.512,-1.096 l 0.168,-0.04 c 0.32,0.784 0.608,1.04 1.16,1.04 0.672,0 1.128,-0.456 1.128,-1.128 0,-0.624 -0.368,-1.368 -1.04,-2.08 l -1.424,-1.512 0,-0.096 3.12,0 0.44,1.096" /><path
       inkscape:connector-curvature="0"
       id="path3172"
       style="font-size:8px;font-variant:normal;font-weight:normal;writing-mode:lr-tb;fill:#231f20;fill-opacity:1;fill-rule:nonzero;stroke:none;font-family:Times;-inkscape-font-specification:Times-Roman"
       d="m 170.93094,138.28434 c 0.104,0.024 0.168,0.032 0.256,0.032 0.208,0 0.28,-0.128 0.28,-0.512 l 0,-2.024 c 0,-0.432 -0.112,-0.552 -0.56,-0.56 l 0,-0.12 1.776,0 0,0.12 c -0.424,0.016 -0.544,0.104 -0.544,0.416 l 0,2.256 c 0,0.016 0.064,0.096 0.12,0.152 0.2,0.184 0.544,0.32 0.824,0.32 0.352,0 0.528,-0.28 0.528,-0.84 l 0,-1.736 c 0,-0.448 -0.088,-0.536 -0.544,-0.568 l 0,-0.12 1.792,0 0,0.12 c -0.456,0.008 -0.576,0.144 -0.576,0.64 l 0,2.016 c 0.24,0.344 0.504,0.488 0.872,0.488 0.456,0 0.6,-0.216 0.6,-0.88 l 0,-1.688 c 0,-0.456 -0.064,-0.52 -0.528,-0.576 l 0,-0.12 1.752,0 0,0.12 -0.208,0.016 c -0.24,0.016 -0.344,0.16 -0.344,0.472 l 0,1.648 c 0,0.944 -0.312,1.424 -0.928,1.424 -0.464,0 -0.872,-0.208 -1.304,-0.672 -0.144,0.456 -0.416,0.672 -0.848,0.672 -0.352,0 -0.576,-0.112 -1.24,-0.616 l 0,0.6 -0.056,0.016 c -0.408,-0.152 -0.68,-0.24 -1.12,-0.36 l 0,-0.136" /><path
       inkscape:connector-curvature="0"
       id="path3174"
       style="font-size:8px;font-variant:normal;font-weight:normal;writing-mode:lr-tb;fill:#231f20;fill-opacity:1;fill-rule:nonzero;stroke:none;font-family:Times;-inkscape-font-specification:Times-Roman"
       d="m 182.65094,135.25234 c -0.36,0.024 -0.44,0.104 -0.72,0.696 l -1.992,4.544 -0.16,0 -1.664,-3.928 c -0.512,-1.168 -0.608,-1.296 -0.992,-1.312 l 0,-0.152 1.584,0 0,0.152 c -0.384,0 -0.544,0.104 -0.544,0.328 0,0.096 0.024,0.208 0.064,0.312 l 0.368,0.936 2.096,0 0.328,-0.768 c 0.096,-0.216 0.152,-0.424 0.152,-0.536 0,-0.2 -0.136,-0.264 -0.56,-0.272 l 0,-0.152 2.04,0 0,0.152 m -3.92,1.904 0.92,2.2 0.928,-2.2 -1.848,0" /><path
       inkscape:connector-curvature="0"
       id="path3177"
       style="font-size:8px;font-style:italic;font-variant:normal;writing-mode:lr-tb;fill:#231f20;fill-opacity:1;fill-rule:nonzero;stroke:none;font-family:Times;-inkscape-font-specification:Times-Italic"
       d="m 46.828938,62.349939 1.952,0 0,0.128 c -0.455999,0.056 -0.544,0.104 -0.544,0.328 0,0.152 0.016,0.248 0.088,0.504 l 0.984,3.544 c 0.144,0.463999 0.2,0.512 0.656,0.592 l 0,0.128 -1.976,0 0,-0.128 c 0.464,-0.056 0.56,-0.12 0.56,-0.344 0,-0.112 -0.032,-0.296 -0.088,-0.496 l -0.984,-3.536 c -0.144,-0.464 -0.2,-0.512 -0.648,-0.592 l 0,-0.128" /><path
       inkscape:connector-curvature="0"
       id="path3180"
       style="font-size:6px;font-style:italic;font-variant:normal;writing-mode:lr-tb;fill:#231f20;fill-opacity:1;fill-rule:nonzero;stroke:none;font-family:Times;-inkscape-font-specification:Times-Italic"
       d="m 49.508998,60.349939 1.692,0 c 0.941999,0 1.59,0.492001 1.59,1.2 0,0.222 -0.072,0.432 -0.204,0.564 -0.12,0.138 -0.24,0.21 -0.552,0.342 0.426,0.102 0.6,0.174 0.792,0.342 0.168,0.144 0.258,0.348 0.258,0.588 0,0.569999 -0.426001,0.882 -1.2,0.882 l -1.548,0 0,-0.096 c 0.372,-0.03 0.462,-0.078 0.462,-0.246 0,-0.09 -0.024,-0.24 -0.066,-0.384 l -0.738,-2.652 c -0.108,-0.348 -0.15,-0.384 -0.486,-0.444 l 0,-0.096 m 1.476,1.986 c 0.39,0 0.642,-0.024 0.762,-0.072 0.246,-0.102 0.396,-0.366 0.396,-0.69 0,-0.647999 -0.444001,-1.044 -1.176,-1.044 -0.252,0 -0.384,0.09 -0.384,0.252 0,0.072 0.072,0.36 0.21,0.84 0.078,0.27 0.114,0.408 0.192,0.714 m 0.45,1.584 c 0.036,0.132 0.108,0.168 0.342,0.168 0.479999,0 0.702,-0.204 0.702,-0.648 0,-0.342 -0.144,-0.606 -0.402,-0.75 -0.204,-0.12 -0.492001,-0.162 -1.032,-0.162 l 0.39,1.392" /><path
       inkscape:connector-curvature="0"
       id="path3183"
       style="font-size:8px;font-variant:normal;font-weight:normal;writing-mode:lr-tb;fill:#231f20;fill-opacity:1;fill-rule:nonzero;stroke:none;font-family:Times;-inkscape-font-specification:Times-Roman"
       d="m 59.120018,65.437939 -4.032,0 0,-0.528 4.032,0 0,0.528 m 0,-1.6 -4.032,0 0,-0.528 4.032,0 0,0.528" /><path
       inkscape:connector-curvature="0"
       id="path3185"
       style="font-size:8px;font-variant:normal;font-weight:normal;writing-mode:lr-tb;fill:#231f20;fill-opacity:1;fill-rule:nonzero;stroke:none;font-family:Times;-inkscape-font-specification:Times-Roman"
       d="m 65.159774,63.445939 -0.104,0.04 c -0.296,-0.456 -0.4,-0.528 -0.76,-0.528 l -1.912,0 1.344,1.408 c 0.711999,0.743999 1.024,1.352001 1.024,1.976 0,0.799999 -0.648001,1.416 -1.48,1.416 -0.44,0 -0.856,-0.176 -1.152,-0.496 -0.256,-0.272 -0.376,-0.528001 -0.512,-1.096 l 0.168,-0.04 c 0.32,0.783999 0.608001,1.04 1.16,1.04 0.671999,0 1.128,-0.456001 1.128,-1.128 0,-0.623999 -0.368001,-1.368001 -1.04,-2.08 l -1.424,-1.512 0,-0.096 3.12,0 0.44,1.096" /><path
       inkscape:connector-curvature="0"
       id="path3187"
       style="font-size:8px;font-variant:normal;font-weight:normal;writing-mode:lr-tb;fill:#231f20;fill-opacity:1;fill-rule:nonzero;stroke:none;font-family:Times;-inkscape-font-specification:Times-Roman"
       d="m 67.391718,67.757939 c -0.44,0 -0.776001,-0.136 -1.072,-0.416 -0.464,-0.448 -0.768,-1.368001 -0.768,-2.304 0,-0.871999 0.264,-1.808 0.64,-2.256 0.295999,-0.352 0.704,-0.544 1.168,-0.544 0.407999,0 0.752,0.136 1.04,0.416 0.463999,0.44 0.768,1.368001 0.768,2.336 0,1.639998 -0.728001,2.768 -1.776,2.768 m -0.024,-0.208 c 0.671999,0 1.032,-0.904002 1.032,-2.576 0,-1.671998 -0.352001,-2.528 -1.04,-2.528 -0.688,0 -1.04,0.856002 -1.04,2.52 0,1.695998 0.36,2.584 1.048,2.584" /><path
       inkscape:connector-curvature="0"
       id="path3190"
       style="font-size:8px;font-variant:normal;font-weight:normal;writing-mode:lr-tb;fill:#231f20;fill-opacity:1;fill-rule:nonzero;stroke:none;font-family:Symbol;-inkscape-font-specification:Symbol"
       d="m 74.895718,66.349939 -0.712,0 0.008,-2.952 c -0.288,-0.408 -0.56,-0.584 -0.896,-0.584 -0.464,0 -0.736,0.328001 -0.736,0.888 l 0,2.648 -0.704,0 0,-3.84 c 0,-0.168 -0.032,-0.368 -0.088,-0.608 -0.136,-0.495999 -0.144,-0.544 -0.144,-0.728 0,-0.336 0.168,-0.576 0.4,-0.576 0.232,0 0.392,0.24 0.392,0.592 0,0.168 -0.024,0.272 -0.152,0.736 -0.08,0.288 -0.096,0.368 -0.096,0.592 l 0,0.096 c 0.336,-0.28 0.52,-0.368 0.792,-0.368 0.4,0 0.808,0.248 1.232,0.744 0.064,-0.256 0.104,-0.352 0.184,-0.472 0.12,-0.168 0.336,-0.272 0.568,-0.272 0.495999,0 0.84,0.352001 0.952,0.968 l -0.216,0.008 c -0.032,-0.304 -0.2,-0.544 -0.384,-0.544 -0.24,0 -0.4,0.288 -0.4,0.72 l 0,2.952" /><path
       inkscape:connector-curvature="0"
       id="path3193"
       style="font-size:8px;font-variant:normal;font-weight:normal;writing-mode:lr-tb;fill:#231f20;fill-opacity:1;fill-rule:nonzero;stroke:none;font-family:Times;-inkscape-font-specification:Times-Roman"
       d="m 81.615918,62.501939 c -0.36,0.024 -0.44,0.104001 -0.72,0.696 l -1.992,4.544 -0.16,0 -1.664,-3.928 c -0.511999,-1.167999 -0.608,-1.296 -0.992,-1.312 l 0,-0.152 1.584,0 0,0.152 c -0.384,0 -0.544,0.104 -0.544,0.328 0,0.096 0.024,0.208 0.064,0.312 l 0.368,0.936 2.096,0 0.328,-0.768 c 0.096,-0.216 0.152,-0.424 0.152,-0.536 0,-0.2 -0.136,-0.264 -0.56,-0.272 l 0,-0.152 2.04,0 0,0.152 m -3.92,1.904 0.92,2.2 0.928,-2.2 -1.848,0" /><path
       inkscape:connector-curvature="0"
       id="path48"
       style="fill:none;stroke:#231f20;stroke-width:0.5;stroke-linecap:butt;stroke-linejoin:miter;stroke-miterlimit:4;stroke-opacity:1;stroke-dasharray:none"
       d="m 53.891928,71.480539 10.75,0" /><path
       inkscape:connector-curvature="0"
       id="path50"
       style="fill:#231f20;fill-opacity:1;fill-rule:nonzero;stroke:none"
       d="m 64.259128,71.480539 -0.8215,1.3511 0.0461,0.0309 2.2032,-0.875 c 0.7675,-0.1691 1.5351,-0.3383 2.3027,-0.507 -0.7676,-0.1692 -1.5352,-0.3375 -2.3027,-0.5071 l -2.2032,-0.875 -0.0461,0.0231 0.8215,1.359" /><path
       inkscape:connector-curvature="0"
       id="path52"
       style="fill:none;stroke:#231f20;stroke-width:0.5;stroke-linecap:butt;stroke-linejoin:miter;stroke-miterlimit:4;stroke-opacity:1;stroke-dasharray:none"
       d="m 139.55723,143.60334 0,-10.75" /><path
       inkscape:connector-curvature="0"
       id="path54"
       style="fill:#231f20;fill-opacity:1;fill-rule:nonzero;stroke:none"
       d="m 139.55723,133.23634 1.351,0.821 0.031,-0.046 -0.875,-2.203 c -0.169,-0.768 -0.338,-1.535 -0.507,-2.303 -0.169,0.768 -0.338,1.535 -0.507,2.303 l -0.875,2.203 0.023,0.046 1.359,-0.821" /><path
       inkscape:connector-curvature="0"
       id="path56"
       style="fill:none;stroke:#231f20;stroke-width:0.5;stroke-linecap:butt;stroke-linejoin:miter;stroke-miterlimit:4;stroke-opacity:1;stroke-dasharray:none"
       d="m 137.55723,55.853139 0,-10.75" /><path
       inkscape:connector-curvature="0"
       id="path58"
       style="fill:#231f20;fill-opacity:1;fill-rule:nonzero;stroke:none"
       d="m 137.55723,45.486339 1.351,0.8211 0.031,-0.0461 -0.875,-2.2031 c -0.169,-0.768 -0.338,-1.5348 -0.507,-2.3027 -0.169,0.7679 -0.338,1.5347 -0.507,2.3027 l -0.875,2.2031 0.023,0.0461 1.359,-0.8211" /><path
       inkscape:connector-curvature="0"
       id="path60"
       style="fill:none;stroke:#231f20;stroke-width:0.8;stroke-linecap:butt;stroke-linejoin:miter;stroke-miterlimit:3.91180587;stroke-opacity:1;stroke-dasharray:none"
       d="m 131.80223,148.42234 58.486,0 0,-122.666001 -155.636502,0" /><path
       inkscape:connector-curvature="0"
       id="path62"
       style="fill:none;stroke:#231f20;stroke-width:0.80000000000000004;stroke-linecap:round;stroke-linejoin:miter;stroke-miterlimit:4;stroke-opacity:1;stroke-dasharray:none"
       d="m 34.651728,25.756339 0,53.6402" /><path
       inkscape:connector-curvature="0"
       id="path64"
       style="fill:none;stroke:#231f20;stroke-width:0.8;stroke-linecap:butt;stroke-linejoin:miter;stroke-miterlimit:3.91180587;stroke-opacity:1;stroke-dasharray:none"
       d="m 34.614628,79.396539 53.9453,0" /><path
       inkscape:connector-curvature="0"
       id="path66"
       style="fill:none;stroke:#231f20;stroke-width:0.8;stroke-linecap:butt;stroke-linejoin:miter;stroke-miterlimit:3.91180587;stroke-opacity:1;stroke-dasharray:none"
       d="m 131.94223,117.17934 0,31.243" /><path
       inkscape:connector-curvature="0"
       id="path68"
       style="fill:none;stroke:#231f20;stroke-width:0.8;stroke-linecap:butt;stroke-linejoin:miter;stroke-miterlimit:3.91180587;stroke-opacity:1;stroke-dasharray:none"
       d="m 114.75333,79.396539 -27.345702,0" /><path
       inkscape:connector-curvature="0"
       id="path70"
       style="fill:none;stroke:#231f20;stroke-width:0.8;stroke-linecap:butt;stroke-linejoin:miter;stroke-miterlimit:3.91180587;stroke-opacity:1;stroke-dasharray:none"
       d="m 131.94023,117.46434 0.002,-27.345201" /><path
       inkscape:connector-curvature="0"
       id="path72"
       style="fill:none;stroke:#231f20;stroke-width:0.8;stroke-linecap:butt;stroke-linejoin:miter;stroke-miterlimit:3.91180587;stroke-opacity:1;stroke-dasharray:none"
       d="m 131.93923,64.009439 0.001,-38.252" /><path
       inkscape:connector-curvature="0"
       id="path3196"
       style="font-size:8px;font-style:italic;font-variant:normal;writing-mode:lr-tb;fill:#231f20;fill-opacity:1;fill-rule:nonzero;stroke:none;font-family:Times;-inkscape-font-specification:Times-Italic"
       d="m 141.78723,47.475439 1.952,0 0,0.128 c -0.456,0.056 -0.544,0.104 -0.544,0.328 0,0.152 0.016,0.248 0.088,0.504 l 0.984,3.544 c 0.144,0.463999 0.2,0.512 0.656,0.592 l 0,0.128 -1.976,0 0,-0.128 c 0.464,-0.056 0.56,-0.12 0.56,-0.344 0,-0.112 -0.032,-0.296 -0.088,-0.496 l -0.984,-3.536 c -0.144,-0.464 -0.2,-0.512 -0.648,-0.592 l 0,-0.128" /><path
       inkscape:connector-curvature="0"
       id="path3199"
       style="font-size:6px;font-style:italic;font-variant:normal;writing-mode:lr-tb;fill:#231f20;fill-opacity:1;fill-rule:nonzero;stroke:none;font-family:Times;-inkscape-font-specification:Times-Italic"
       d="m 148.31929,49.393439 -2.982,0 0,-0.096 c 0.372,-0.036 0.462,-0.084 0.462,-0.246 0,-0.066 -0.036,-0.276 -0.066,-0.384 l -0.738,-2.652 c -0.102,-0.342 -0.15,-0.384 -0.486,-0.444 l 0,-0.096 3.042,0 0.372,0.972 -0.096,0.048 c -0.282,-0.384 -0.438,-0.54 -0.696,-0.66 -0.222,-0.102 -0.63,-0.162 -1.08,-0.162 -0.336,0 -0.48,0.06 -0.48,0.204 0,0.066 0.066,0.348001 0.216,0.876 0.078,0.264 0.132,0.462 0.192,0.69 0.21,-0.012 0.396,-0.018 0.468,-0.018 0.234,0.006 0.402,-0.03 0.468,-0.09 0.03,-0.03 0.042,-0.084 0.042,-0.186 0,-0.102 -0.012,-0.18 -0.042,-0.312 l 0.12,-0.03 0.408,1.392 -0.108,0.024 c -0.228,-0.51 -0.282,-0.546 -0.828,-0.57 -0.072,0 -0.264,-0.006 -0.474,-0.012 l 0.396,1.398 c 0.036,0.132 0.102,0.156 0.438,0.156 0.942,0 1.152,-0.078 1.152,-0.438 0,-0.078 -0.006,-0.168 -0.012,-0.27 l 0.126,-0.012 0.186,0.918" /><path
       inkscape:connector-curvature="0"
       id="path3202"
       style="font-size:8px;font-style:italic;font-variant:normal;writing-mode:lr-tb;fill:#231f20;fill-opacity:1;fill-rule:nonzero;stroke:none;font-family:Times;-inkscape-font-specification:Times-Italic"
       d="m 202.61029,91.045539 -1.488,0 0,-0.128 c 0.36,-0.04 0.504,-0.12 0.504,-0.272 0,-0.152 -0.152,-0.496 -0.416,-0.952 l -1.648,-2.848 -0.528,3.544 c -0.008,0.04 -0.008,0.072 -0.008,0.12 0,0.272 0.112,0.352 0.616,0.408 l 0,0.128 -1.928,0 0,-0.128 c 0.448,-0.056 0.464,-0.08 0.632,-1.08 l 0.68,-4.16 0.152,0 2.984,4.92 c 0.136,0.216 0.264,0.312 0.448,0.32 l 0,0.128" /><path
       inkscape:connector-curvature="0"
       id="path3205"
       style="font-size:6px;font-style:italic;font-variant:normal;writing-mode:lr-tb;fill:#231f20;fill-opacity:1;fill-rule:nonzero;stroke:none;font-family:Times;-inkscape-font-specification:Times-Italic"
       d="m 205.90618,86.611539 0.222,1.194 -0.126,0 c -0.048,-0.096 -0.108,-0.132 -0.228,-0.132 -0.048,0 -0.12,0.012 -0.246,0.042 -0.27,0.066 -0.51,0.102 -0.702,0.102 -1.278,0 -2.436,-1.206001 -2.436,-2.538 0,-0.917999 0.648,-1.566 1.566,-1.566 0.618,0 1.098,0.264001 1.638,0.894 l -0.102,0.084 c -0.54,-0.527999 -0.888,-0.708 -1.38,-0.708 -0.666,0 -1.05,0.456001 -1.05,1.23 0,0.713999 0.288,1.440001 0.756,1.926 0.288,0.294 0.666,0.462 1.062,0.462 0.552,0 0.858,-0.324001 0.918,-0.972 l 0.108,-0.018" /><path
       inkscape:connector-curvature="0"
       id="path3207"
       style="font-size:6px;font-style:italic;font-variant:normal;writing-mode:lr-tb;fill:#231f20;fill-opacity:1;fill-rule:nonzero;stroke:none;font-family:Times;-inkscape-font-specification:Times-Italic"
       d="m 209.90818,86.611539 0.222,1.194 -0.126,0 c -0.048,-0.096 -0.108,-0.132 -0.228,-0.132 -0.048,0 -0.12,0.012 -0.246,0.042 -0.27,0.066 -0.51,0.102 -0.702,0.102 -1.278,0 -2.436,-1.206001 -2.436,-2.538 0,-0.917999 0.648,-1.566 1.566,-1.566 0.618,0 1.098,0.264001 1.638,0.894 l -0.102,0.084 c -0.54,-0.527999 -0.888,-0.708 -1.38,-0.708 -0.666,0 -1.05,0.456001 -1.05,1.23 0,0.713999 0.288,1.44 0.756,1.926 0.288,0.294 0.666,0.462 1.062,0.462 0.552,0 0.858,-0.324001 0.918,-0.972 l 0.108,-0.018" /><path
       inkscape:connector-curvature="0"
       id="path3210"
       style="font-size:8px;font-style:italic;font-variant:normal;writing-mode:lr-tb;fill:#231f20;fill-opacity:1;fill-rule:nonzero;stroke:none;font-family:Times;-inkscape-font-specification:Times-Italic"
       d="m 14.174046,56.961539 -1.488,0 0,-0.128 c 0.36,-0.04 0.504,-0.12 0.504,-0.272 0,-0.152 -0.152,-0.496001 -0.416,-0.952 l -1.648,-2.848 -0.528,3.544 c -0.008,0.04 -0.008,0.072 -0.008,0.12 0,0.272 0.112,0.352 0.616,0.408 l 0,0.128 -1.9279999,0 0,-0.128 c 0.448,-0.056 0.464,-0.08 0.632,-1.08 l 0.6799999,-4.16 0.152,0 2.984,4.92 c 0.136,0.216 0.264,0.312 0.448,0.32 l 0,0.128" /><path
       inkscape:connector-curvature="0"
       id="path3213"
       style="font-size:6px;font-style:italic;font-variant:normal;writing-mode:lr-tb;fill:#231f20;fill-opacity:1;fill-rule:nonzero;stroke:none;font-family:Times;-inkscape-font-specification:Times-Italic"
       d="m 13.510326,49.737539 1.692,0 c 0.941999,0 1.59,0.492001 1.59,1.2 0,0.222 -0.072,0.432 -0.204,0.564 -0.12,0.138 -0.24,0.21 -0.552,0.342 0.426,0.102 0.6,0.174 0.792,0.342 0.168,0.144 0.258,0.348 0.258,0.588 0,0.569999 -0.426001,0.882 -1.2,0.882 l -1.548,0 0,-0.096 c 0.372,-0.03 0.462,-0.078 0.462,-0.246 0,-0.09 -0.024,-0.24 -0.066,-0.384 l -0.738,-2.652 c -0.108,-0.348 -0.15,-0.384 -0.486,-0.444 l 0,-0.096 m 1.476,1.986 c 0.39,0 0.642,-0.024 0.762,-0.072 0.246,-0.102 0.396,-0.366 0.396,-0.69 0,-0.647999 -0.444001,-1.044 -1.176,-1.044 -0.252,0 -0.384,0.09 -0.384,0.252 0,0.072 0.072,0.36 0.21,0.84 0.078,0.27 0.114,0.408 0.192,0.714 m 0.45,1.584 c 0.036,0.132 0.108,0.168 0.342,0.168 0.479999,0 0.702,-0.204 0.702,-0.648 0,-0.342 -0.144,-0.606 -0.402,-0.75 -0.204,-0.12 -0.492001,-0.162 -1.032,-0.162 l 0.39,1.392" /><path
       inkscape:connector-curvature="0"
       id="path3216"
       style="font-size:8px;font-style:italic;font-variant:normal;writing-mode:lr-tb;fill:#231f20;fill-opacity:1;fill-rule:nonzero;stroke:none;font-family:Times;-inkscape-font-specification:Times-Italic"
       d="m 161.56346,157.94054 c -0.352,0.024 -0.512,0.16 -0.664,0.576 l -0.744,1.96 c 0.616,0.136 0.88,0.248 1.168,0.504 0.264,0.232 0.408,0.544 0.408,0.904 0,0.744 -0.592,1.152 -1.664,1.152 l -1.984,0 0,-0.128 c 0.336,-0.048 0.376,-0.056 0.456,-0.112 0.064,-0.04 0.112,-0.136 0.112,-0.224 0,-0.096 -0.04,-0.288 -0.096,-0.504 l -0.984,-3.536 c -0.144,-0.472 -0.2,-0.52 -0.648,-0.592 l 0,-0.128 1.952,0 0,0.128 c -0.488,0.064 -0.544,0.104 -0.544,0.368 0,0.08 0.024,0.184 0.096,0.464 l 0.448,1.672 0.52,-0.04 0.984,-2.592 1.184,0 0,0.128 m -2.072,4.632 c 0.048,0.168 0.152,0.224 0.408,0.224 0.664,0 0.992,-0.304 0.992,-0.896 0,-0.792 -0.512,-1.2 -1.512,-1.2 -0.128,0 -0.216,0.008 -0.408,0.04 l 0.52,1.832" /><path
       inkscape:connector-curvature="0"
       id="path3219"
       style="font-size:6px;font-style:italic;font-variant:normal;writing-mode:lr-tb;fill:#231f20;fill-opacity:1;fill-rule:nonzero;stroke:none;font-family:Times;-inkscape-font-specification:Times-Italic"
       d="m 165.82774,158.60254 0.222,1.194 -0.126,0 c -0.048,-0.096 -0.108,-0.132 -0.228,-0.132 -0.048,0 -0.12,0.012 -0.246,0.042 -0.27,0.066 -0.51,0.102 -0.702,0.102 -1.278,0 -2.436,-1.206 -2.436,-2.538 0,-0.918 0.648,-1.566 1.566,-1.566 0.618,0 1.098,0.264 1.638,0.894 l -0.102,0.084 c -0.54,-0.528 -0.888,-0.708 -1.38,-0.708 -0.666,0 -1.05,0.456 -1.05,1.23 0,0.714 0.288,1.44 0.756,1.926 0.288,0.294 0.666,0.462 1.062,0.462 0.552,0 0.858,-0.324 0.918,-0.972 l 0.108,-0.018" /><path
       inkscape:connector-curvature="0"
       id="path3222"
       style="font-size:8px;font-style:italic;font-variant:normal;writing-mode:lr-tb;fill:#231f20;fill-opacity:1;fill-rule:nonzero;stroke:none;font-family:Times;-inkscape-font-specification:Times-Italic"
       d="m 59.149738,89.440539 c -0.352,0.024 -0.512,0.16 -0.664,0.576 l -0.744,1.96 c 0.615999,0.136 0.88,0.248 1.168,0.504 0.264,0.232 0.408,0.544 0.408,0.904 0,0.743999 -0.592001,1.152 -1.664,1.152 l -1.984,0 0,-0.128 c 0.336,-0.048 0.376,-0.056 0.456,-0.112 0.064,-0.04 0.112,-0.136 0.112,-0.224 0,-0.096 -0.04,-0.288 -0.096,-0.504 l -0.984,-3.536 c -0.144,-0.472 -0.2,-0.52 -0.648,-0.592 l 0,-0.128 1.952,0 0,0.128 c -0.488,0.064 -0.544,0.104 -0.544,0.368 0,0.08 0.024,0.184 0.096,0.464 l 0.448,1.672 0.52,-0.04 0.984,-2.592 1.184,0 0,0.128 m -2.072,4.632 c 0.048,0.168 0.152,0.224 0.408,0.224 0.663999,0 0.992,-0.304001 0.992,-0.896 0,-0.791999 -0.512001,-1.2 -1.512,-1.2 -0.128,0 -0.216,0.008 -0.408,0.04 l 0.52,1.832" /><path
       inkscape:connector-curvature="0"
       id="path3225"
       style="font-size:6px;font-style:italic;font-variant:normal;writing-mode:lr-tb;fill:#231f20;fill-opacity:1;fill-rule:nonzero;stroke:none;font-family:Times;-inkscape-font-specification:Times-Italic"
       d="m 59.454018,87.312539 1.692,0 c 0.941999,0 1.59,0.492001 1.59,1.2 0,0.222 -0.072,0.432 -0.204,0.564 -0.12,0.138 -0.24,0.21 -0.552,0.342 0.426,0.102 0.6,0.174 0.792,0.342 0.168,0.144 0.258,0.348 0.258,0.588 0,0.569999 -0.426001,0.882 -1.2,0.882 l -1.548,0 0,-0.096 c 0.372,-0.03 0.462,-0.078 0.462,-0.246 0,-0.09 -0.024,-0.24 -0.066,-0.384 l -0.738,-2.652 c -0.108,-0.348 -0.15,-0.384 -0.486,-0.444 l 0,-0.096 m 1.476,1.986 c 0.39,0 0.642,-0.024 0.762,-0.072 0.246,-0.102 0.396,-0.366 0.396,-0.69 0,-0.647999 -0.444001,-1.044 -1.176,-1.044 -0.252,0 -0.384,0.09 -0.384,0.252 0,0.072 0.072,0.36 0.21,0.84 0.078,0.27 0.114,0.408 0.192,0.714 m 0.45,1.584 c 0.036,0.132 0.108,0.168 0.342,0.168 0.479999,0 0.702,-0.204 0.702,-0.648 0,-0.342 -0.144,-0.606 -0.402,-0.75 -0.204,-0.12 -0.492001,-0.162 -1.032,-0.162 l 0.39,1.392" /><path
       inkscape:connector-curvature="0"
       id="path116"
       style="fill:#ffffff;fill-opacity:1;fill-rule:nonzero;stroke:none"
       d="m 96.599028,79.396539 c 0,-0.9199 -0.7461,-1.666 -1.668,-1.666 -0.9199,0 -1.666,0.7461 -1.666,1.666 0,0.9211 0.7461,1.668 1.666,1.668 0.9219,0 1.668,-0.7469 1.668,-1.668" /><path
       inkscape:connector-curvature="0"
       id="path118"
       style="fill:none;stroke:#231f20;stroke-width:0.5;stroke-linecap:butt;stroke-linejoin:miter;stroke-miterlimit:4;stroke-opacity:1;stroke-dasharray:none"
       d="m 96.599028,79.396539 c 0,-0.9199 -0.7461,-1.666 -1.668,-1.666 -0.9199,0 -1.666,0.7461 -1.666,1.666 0,0.9211 0.7461,1.668 1.666,1.668 0.9219,0 1.668,-0.7469 1.668,-1.668 z" /><path
       inkscape:connector-curvature="0"
       id="path120"
       style="fill:#231f20;fill-opacity:1;fill-rule:nonzero;stroke:none"
       d="m 133.60723,25.756339 c 0,-0.92 -0.746,-1.66606 -1.668,-1.66606 -0.919,0 -1.666,0.74606 -1.666,1.66606 0,0.9199 0.747,1.6679 1.666,1.6679 0.922,0 1.668,-0.748 1.668,-1.6679" /><path
       inkscape:connector-curvature="0"
       id="path122"
       style="fill:none;stroke:#231f20;stroke-width:0.80000001;stroke-linecap:round;stroke-linejoin:round;stroke-miterlimit:3.86369991;stroke-opacity:1;stroke-dasharray:none"
       d="m 115.08923,84.303539 16.842,6.0285" /><path
       inkscape:connector-curvature="0"
       id="path124"
       style="fill:none;stroke:#231f20;stroke-width:2;stroke-linecap:round;stroke-linejoin:round;stroke-miterlimit:3.86369991;stroke-opacity:1;stroke-dasharray:none"
       d="m 114.73183,70.074239 0,18.8047" /><path
       inkscape:connector-curvature="0"
       id="path126"
       style="fill:none;stroke:#231f20;stroke-width:0.80000001;stroke-linecap:round;stroke-linejoin:round;stroke-miterlimit:3.86369991;stroke-opacity:1;stroke-dasharray:none"
       d="m 115.48323,73.330939 14.133,-7.9325" /><path
       inkscape:connector-curvature="0"
       id="path128"
       style="fill:#231f20;fill-opacity:1;fill-rule:nonzero;stroke:none"
       d="m 126.89423,66.677739 -0.09,2.5282 0.09,0.007 2.388,-2.9473 c 0.938,-0.8359 1.877,-1.6726 2.815,-2.5093 -1.203,0.3652 -2.407,0.7312 -3.61,1.096 l -3.757,0.5051 -0.047,0.0684 2.211,1.2519" /><path
       inkscape:connector-curvature="0"
       id="path3228"
       style="font-size:8px;font-variant:normal;font-weight:normal;writing-mode:lr-tb;fill:#231f20;fill-opacity:1;fill-rule:nonzero;stroke:none;font-family:Symbol;-inkscape-font-specification:Symbol"
       d="m 25.979838,58.463239 -0.44,0 0,-1.912 -1.896,0 0,-0.44 1.896,0 0,-1.912 0.44,0 0,1.912 1.896,0 0,0.44 -1.896,0 0,1.912" /><path
       inkscape:connector-curvature="0"
       id="path3230"
       style="font-size:8px;font-variant:normal;font-weight:normal;writing-mode:lr-tb;fill:#231f20;fill-opacity:1;fill-rule:nonzero;stroke:none;font-family:Symbol;-inkscape-font-specification:Symbol"
       d="m 24.093635,48.326239 0,-0.44 4.192,0 0,0.44 -4.192,0" /><path
       inkscape:connector-curvature="0"
       id="path138"
       style="fill:#ffffff;fill-opacity:1;fill-rule:nonzero;stroke:none;stroke-width:0.8;stroke-miterlimit:3.91180587;stroke-dasharray:none"
       d="m 29.495528,46.797339 10.3145,0 0,11.5582 -10.3145,0 0,-11.5582 z" /><path
       inkscape:connector-curvature="0"
       id="path140"
       style="fill:none;stroke:#231f20;stroke-width:0.8;stroke-linecap:round;stroke-linejoin:round;stroke-miterlimit:3.91180587;stroke-opacity:1;stroke-dasharray:none"
       d="m 39.809928,53.689539 -10.3144,0" /><path
       inkscape:connector-curvature="0"
       id="path142"
       style="fill:none;stroke:#231f20;stroke-width:0.80000001;stroke-linecap:round;stroke-linejoin:round;stroke-miterlimit:3.91180587;stroke-opacity:1;stroke-dasharray:none"
       d="m 37.837228,50.230539 -6.3691,0" /><path
       inkscape:connector-curvature="0"
       id="path144"
       style="fill:none;stroke:#231f20;stroke-width:0.80000001;stroke-linecap:round;stroke-linejoin:round;stroke-miterlimit:3.91180587;stroke-opacity:1;stroke-dasharray:none"
       d="m 34.651728,50.157371 0,-4.666" /><path
       inkscape:connector-curvature="0"
       id="path146"
       style="fill:none;stroke:#231f20;stroke-width:0.8;stroke-linecap:round;stroke-linejoin:round;stroke-miterlimit:3.91180587;stroke-opacity:1;stroke-dasharray:none"
       d="m 34.651728,58.355539 0,-4.666" /><path
       inkscape:connector-curvature="0"
       id="path148"
       style="fill:#ffffff;fill-opacity:1;fill-rule:nonzero;stroke:none;stroke-width:0.8;stroke-miterlimit:3.91180587;stroke-dasharray:none"
       d="m 185.13223,81.309839 10.3141,0 0,11.5582 -10.3141,0 0,-11.5582 z" /><path
       inkscape:connector-curvature="0"
       id="path150"
       style="fill:none;stroke:#231f20;stroke-width:0.8;stroke-linecap:round;stroke-linejoin:round;stroke-miterlimit:3.91180587;stroke-opacity:1;stroke-dasharray:none"
       d="m 195.44623,88.202039 -10.314,0" /><path
       inkscape:connector-curvature="0"
       id="path152"
       style="fill:none;stroke:#231f20;stroke-width:0.80000001;stroke-linecap:round;stroke-linejoin:round;stroke-miterlimit:3.91180587;stroke-opacity:1;stroke-dasharray:none"
       d="m 193.47423,84.743039 -6.369,0" /><path
       inkscape:connector-curvature="0"
       id="path154"
       style="fill:none;stroke:#231f20;stroke-width:0.80000001;stroke-linecap:round;stroke-linejoin:round;stroke-miterlimit:3.91180587;stroke-opacity:1;stroke-dasharray:none"
       d="m 190.28823,84.744561 0,-4.666" /><path
       inkscape:connector-curvature="0"
       id="path156"
       style="fill:none;stroke:#231f20;stroke-width:0.8;stroke-linecap:round;stroke-linejoin:round;stroke-miterlimit:3.91180587;stroke-opacity:1;stroke-dasharray:none"
       d="m 190.28823,92.868039 0,-4.666" /><path
       inkscape:connector-curvature="0"
       id="path158"
       style="fill:#ffffff;fill-opacity:1;fill-rule:nonzero;stroke:none"
       d="m 177.31223,144.71434 -32.452,0 0,7.471 32.451,-0.001 0.001,-7.47" /><path
       inkscape:connector-curvature="0"
       id="path160"
       style="fill:none;stroke:#231f20;stroke-width:0.80000001;stroke-linecap:round;stroke-linejoin:round;stroke-miterlimit:3.86369991;stroke-opacity:1;stroke-dasharray:none"
       d="m 144.63823,148.42416 3.612,0 1.569,3.699 3.151,-7.471 3.195,7.471 3.197,-7.471 3.151,7.47 3.123,-7.47 3.15,7.47 3.197,-7.375 1.53,3.676 3.799,0" /><path
       inkscape:connector-curvature="0"
       id="path162"
       style="fill:#ffffff;fill-opacity:1;fill-rule:nonzero;stroke:none"
       d="m 43.427128,83.224639 32.4512,0 0.0019,-7.4695 -32.4512,-0.0012 -0.0019,7.4707" /><path
       inkscape:connector-curvature="0"
       id="path164"
       style="fill:none;stroke:#231f20;stroke-width:0.80000001;stroke-linecap:round;stroke-linejoin:round;stroke-miterlimit:3.86369991;stroke-opacity:1;stroke-dasharray:none"
       d="m 76.100928,79.388378 -3.6113,0 -1.5703,-3.6992 -3.1504,7.4695 -3.1934,-7.4695 -3.1992,7.4695 -3.1484,-7.4707 -3.125,7.4707 -3.1485,-7.4707 -3.1992,7.375 -1.5293,-3.6758 -3.7988,0" /><path
       inkscape:connector-curvature="0"
       id="path166"
       style="fill:none;stroke:#231f20;stroke-width:0.80000001;stroke-linecap:round;stroke-linejoin:round;stroke-miterlimit:3.86369991;stroke-opacity:1;stroke-dasharray:none"
       d="m 131.99123,26.646539 0,-6.43009" /><path
       inkscape:connector-curvature="0"
       id="path168"
       style="fill:none;stroke:#231f20;stroke-width:0.8;stroke-linecap:round;stroke-linejoin:round;stroke-miterlimit:3.91180587;stroke-opacity:1;stroke-dasharray:none"
       d="m 138.99123,20.216449 -14,0" /><path
       inkscape:connector-curvature="0"
       id="path170"
       style="fill:none;stroke:#231f20;stroke-width:0.8;stroke-linecap:round;stroke-linejoin:round;stroke-miterlimit:3.91180587;stroke-opacity:1;stroke-dasharray:none"
       d="m 137.49123,17.572309 -11,0" /><path
       inkscape:connector-curvature="0"
       id="path172"
       style="fill:none;stroke:#231f20;stroke-width:0.8;stroke-linecap:round;stroke-linejoin:round;stroke-miterlimit:3.91180587;stroke-opacity:1;stroke-dasharray:none"
       d="m 135.99123,14.929339 -8,0" /><path
       inkscape:connector-curvature="0"
       id="path3233"
       style="font-size:8px;font-variant:normal;font-weight:normal;writing-mode:lr-tb;fill:#231f20;fill-opacity:1;fill-rule:nonzero;stroke:none;font-family:Symbol;-inkscape-font-specification:Symbol"
       d="m 195.98623,96.365639 -0.44,0 0,-1.912 -1.896,0 0,-0.44 1.896,0 0,-1.912 0.44,0 0,1.912 1.896,0 0,0.44 -1.896,0 0,1.912" /><path
       inkscape:connector-curvature="0"
       id="path3235"
       style="font-size:8px;font-variant:normal;font-weight:normal;writing-mode:lr-tb;fill:#231f20;fill-opacity:1;fill-rule:nonzero;stroke:none;font-family:Symbol;-inkscape-font-specification:Symbol"
       d="m 193.65823,82.688039 0,-0.44 4.192,0 0,0.44 -4.192,0" /><path
       d="m 17.136372,49.737539 1.692,0 c 0.941999,0 1.59,0.492001 1.59,1.2 0,0.222 -0.072,0.432 -0.204,0.564 -0.12,0.138 -0.24,0.21 -0.552,0.342 0.426,0.102 0.6,0.174 0.792,0.342 0.168,0.144 0.258,0.348 0.258,0.588 0,0.569999 -0.426001,0.882 -1.2,0.882 l -1.548,0 0,-0.096 c 0.372,-0.03 0.462,-0.078 0.462,-0.246 0,-0.09 -0.024,-0.24 -0.066,-0.384 l -0.738,-2.652 c -0.108,-0.348 -0.15,-0.384 -0.486,-0.444 l 0,-0.096 m 1.476,1.986 c 0.39,0 0.642,-0.024 0.762,-0.072 0.246,-0.102 0.396,-0.366 0.396,-0.69 0,-0.647999 -0.444001,-1.044 -1.176,-1.044 -0.252,0 -0.384,0.09 -0.384,0.252 0,0.072 0.072,0.36 0.21,0.84 0.078,0.27 0.114,0.408 0.192,0.714 m 0.45,1.584 c 0.036,0.132 0.108,0.168 0.342,0.168 0.479999,0 0.702,-0.204 0.702,-0.648 0,-0.342 -0.144,-0.606 -0.402,-0.75 -0.204,-0.12 -0.492001,-0.162 -1.032,-0.162 l 0.39,1.392"
       style="font-size:6px;font-style:italic;font-variant:normal;writing-mode:lr-tb;fill:#231f20;fill-opacity:1;fill-rule:nonzero;stroke:none;font-family:Times;-inkscape-font-specification:Times-Italic"
       id="path3409"
       inkscape:connector-curvature="0" /></g></svg>