<?xml version="1.0" encoding="UTF-8" standalone="no"?>
<!-- Created with Inkscape (http://www.inkscape.org/) -->

<svg
   xmlns:ns0="http://www.iki.fi/pav/software/textext/"
   xmlns:dc="http://purl.org/dc/elements/1.1/"
   xmlns:cc="http://creativecommons.org/ns#"
   xmlns:rdf="http://www.w3.org/1999/02/22-rdf-syntax-ns#"
   xmlns:svg="http://www.w3.org/2000/svg"
   xmlns="http://www.w3.org/2000/svg"
   xmlns:sodipodi="http://sodipodi.sourceforge.net/DTD/sodipodi-0.dtd"
   xmlns:inkscape="http://www.inkscape.org/namespaces/inkscape"
   sodipodi:docname="S3-EE-03-029.svg"
   xml:space="preserve"
   height="354.33069"
   width="425.19684"
   inkscape:version="0.47 r22583"
   version="1.1"
   id="svg2"><sodipodi:namedview
     pagecolor="#ffffff"
     bordercolor="#666666"
     borderopacity="1"
     objecttolerance="10"
     gridtolerance="10"
     guidetolerance="10"
     inkscape:pageopacity="0"
     inkscape:pageshadow="2"
     inkscape:window-width="1024"
     inkscape:window-height="689"
     id="namedview4"
     showgrid="false"
     units="cm"
     inkscape:object-nodes="true"
     inkscape:zoom="1.1913807"
     inkscape:cx="244.04007"
     inkscape:cy="90.455359"
     inkscape:window-x="0"
     inkscape:window-y="27"
     inkscape:window-maximized="1"
     inkscape:current-layer="g9903"><inkscape:grid
       snapvisiblegridlinesonly="true"
       enabled="true"
       visible="true"
       empspacing="5"
       id="grid3199"
       type="xygrid" /></sodipodi:namedview><metadata
     id="metadata8"><rdf:RDF><cc:Work
         rdf:about=""><dc:format>image/svg+xml</dc:format><dc:type
           rdf:resource="http://purl.org/dc/dcmitype/StillImage" /><dc:title /></cc:Work></rdf:RDF></metadata><defs
     id="defs6"><inkscape:perspective
       sodipodi:type="inkscape:persp3d"
       inkscape:vp_x="0 : 177.16534 : 1"
       inkscape:vp_y="0 : 1000 : 0"
       inkscape:vp_z="425.19684 : 177.16534 : 1"
       inkscape:persp3d-origin="212.59842 : 118.11023 : 1"
       id="perspective142" /><marker
       style="overflow:visible"
       id="Arrow1Mstart"
       refX="0.0"
       refY="0.0"
       orient="auto"
       inkscape:stockid="Arrow1Mstart"><path
         transform="scale(0.4) translate(10,0)"
         style="fill-rule:evenodd;stroke:#000000;stroke-width:1.0pt"
         d="M 0.0,0.0 L 5.0,-5.0 L -12.5,0.0 L 5.0,5.0 L 0.0,0.0 z "
         id="path3981" /></marker></defs><g
     transform="matrix(1.25,0,0,-1.25,0,354.33129)"
     inkscape:label="ink_ext_XXXXXX"
     inkscape:groupmode="layer"
     id="g10"><path
   sodipodi:nodetypes="ccccccc"
   inkscape:connector-curvature="0"
   id="rect4591"
   d="m -53.179802,-216.7522 5.17932,0 0,176.705479 -3.580935,-0.188045 -1.1,-21.634451 -0.908284,-48.511903 z"
   style="fill:#cccccc;stroke:#cccccc;stroke-width:0.80000000999999998;stroke-linecap:round;stroke-linejoin:miter;stroke-miterlimit:4;stroke-opacity:1;stroke-dashoffset:0"
   transform="matrix(0,-1,-1,0,0,0)" /><rect
   transform="matrix(0.8,0,0,-0.8,0,283.46503)"
   y="84.330688"
   x="40"
   height="210"
   width="10"
   id="rect4589"
   style="fill:#cccccc;stroke:#cccccc;stroke-width:1;stroke-linecap:round;stroke-linejoin:miter;stroke-miterlimit:4;stroke-opacity:1;stroke-dasharray:none;stroke-dashoffset:0" /><path
   transform="matrix(0.8,0,0,-0.8,0,283.46503)"
   inkscape:connector-curvature="0"
   id="path3201"
   d="M 40,24.330688 40,314.33069"
   style="fill:#ffffff;fill-opacity:1;stroke:#000000;stroke-width:1;stroke-linecap:round;stroke-linejoin:miter;stroke-miterlimit:4;stroke-opacity:1;stroke-dasharray:none;stroke-dashoffset:0;marker-start:url(#Arrow1Mstart)" /><path
   style="fill:#ffffff;fill-opacity:1;stroke:#000000;stroke-width:0.80000001;stroke-linecap:round;stroke-linejoin:miter;stroke-miterlimit:4;stroke-opacity:1;stroke-dasharray:none;stroke-dashoffset:0;marker-start:url(#Arrow1Mstart)"
   d="M 278.30465,48.000481 16,48.000481"
   id="path4415"
   inkscape:connector-curvature="0" /><path
   inkscape:connector-curvature="0"
   id="path4417"
   d="m 30.4,72.000481 3.2,0"
   style="fill:#ffffff;fill-opacity:1;stroke:#000000;stroke-width:0.80000001;stroke-linecap:round;stroke-linejoin:miter;stroke-miterlimit:4;stroke-opacity:1;stroke-dasharray:none;stroke-dashoffset:0" /><path
   style="fill:#ffffff;fill-opacity:1;stroke:#000000;stroke-width:0.80000001;stroke-linecap:round;stroke-linejoin:miter;stroke-miterlimit:4;stroke-opacity:1;stroke-dasharray:none;stroke-dashoffset:0"
   d="m 30.4,96.000481 3.2,0"
   id="path4419"
   inkscape:connector-curvature="0" /><path
   inkscape:connector-curvature="0"
   id="path4433"
   d="m 30.4,120.00048 3.2,0"
   style="fill:#ffffff;fill-opacity:1;stroke:#000000;stroke-width:0.80000001;stroke-linecap:round;stroke-linejoin:miter;stroke-miterlimit:4;stroke-opacity:1;stroke-dasharray:none;stroke-dashoffset:0" /><path
   style="fill:#ffffff;fill-opacity:1;stroke:#000000;stroke-width:0.80000001;stroke-linecap:round;stroke-linejoin:miter;stroke-miterlimit:4;stroke-opacity:1;stroke-dasharray:none;stroke-dashoffset:0"
   d="m 30.4,144.00048 3.2,0"
   id="path4435"
   inkscape:connector-curvature="0" /><path
   inkscape:connector-curvature="0"
   id="path4437"
   d="m 30.4,168.00048 3.2,0"
   style="fill:#ffffff;fill-opacity:1;stroke:#000000;stroke-width:0.80000001;stroke-linecap:round;stroke-linejoin:miter;stroke-miterlimit:4;stroke-opacity:1;stroke-dasharray:none;stroke-dashoffset:0" /><path
   style="fill:#ffffff;fill-opacity:1;stroke:#000000;stroke-width:0.80000001;stroke-linecap:round;stroke-linejoin:miter;stroke-miterlimit:4;stroke-opacity:1;stroke-dasharray:none;stroke-dashoffset:0"
   d="m 30.4,192.01824 3.2,0"
   id="path4439"
   inkscape:connector-curvature="0" /><path
   inkscape:connector-curvature="0"
   id="path4441"
   d="m 30.4,216.00048 3.2,0"
   style="fill:#ffffff;fill-opacity:1;stroke:#000000;stroke-width:0.80000001;stroke-linecap:round;stroke-linejoin:miter;stroke-miterlimit:4;stroke-opacity:1;stroke-dasharray:none;stroke-dashoffset:0" /><path
   style="fill:#ffffff;fill-opacity:1;stroke:#000000;stroke-width:0.80000001;stroke-linecap:round;stroke-linejoin:miter;stroke-miterlimit:4;stroke-opacity:1;stroke-dasharray:none;stroke-dashoffset:0"
   d="m 30.4,240.00048 3.2,0"
   id="path4443"
   inkscape:connector-curvature="0" /><g
   transform="matrix(0,-1,1,0,-16.000481,79.938629)"
   id="g4463"><path
     inkscape:connector-curvature="0"
     id="path4447"
     d="m 30.4,72.000481 3.2,0"
     style="fill:#ffffff;fill-opacity:1;stroke:#000000;stroke-width:0.80000001;stroke-linecap:round;stroke-linejoin:miter;stroke-miterlimit:4;stroke-opacity:1;stroke-dasharray:none;stroke-dashoffset:0" /><path
     style="fill:#ffffff;fill-opacity:1;stroke:#000000;stroke-width:0.80000001;stroke-linecap:round;stroke-linejoin:miter;stroke-miterlimit:4;stroke-opacity:1;stroke-dasharray:none;stroke-dashoffset:0"
     d="m 30.4,96.000481 3.2,0"
     id="path4449"
     inkscape:connector-curvature="0" /><path
     inkscape:connector-curvature="0"
     id="path4451"
     d="m 30.4,120.00048 3.2,0"
     style="fill:#ffffff;fill-opacity:1;stroke:#000000;stroke-width:0.80000001;stroke-linecap:round;stroke-linejoin:miter;stroke-miterlimit:4;stroke-opacity:1;stroke-dasharray:none;stroke-dashoffset:0" /><path
     style="fill:#ffffff;fill-opacity:1;stroke:#000000;stroke-width:0.80000001;stroke-linecap:round;stroke-linejoin:miter;stroke-miterlimit:4;stroke-opacity:1;stroke-dasharray:none;stroke-dashoffset:0"
     d="m 30.4,144.00048 3.2,0"
     id="path4453"
     inkscape:connector-curvature="0" /><path
     inkscape:connector-curvature="0"
     id="path4455"
     d="m 30.4,168.00048 3.2,0"
     style="fill:#ffffff;fill-opacity:1;stroke:#000000;stroke-width:0.80000001;stroke-linecap:round;stroke-linejoin:miter;stroke-miterlimit:4;stroke-opacity:1;stroke-dasharray:none;stroke-dashoffset:0" /><path
     style="fill:#ffffff;fill-opacity:1;stroke:#000000;stroke-width:0.80000001;stroke-linecap:round;stroke-linejoin:miter;stroke-miterlimit:4;stroke-opacity:1;stroke-dasharray:none;stroke-dashoffset:0"
     d="m 30.4,192.00048 3.2,0"
     id="path4457"
     inkscape:connector-curvature="0" /><path
     inkscape:connector-curvature="0"
     id="path4459"
     d="m 30.4,216.00048 3.2,0"
     style="fill:#ffffff;fill-opacity:1;stroke:#000000;stroke-width:0.80000001;stroke-linecap:round;stroke-linejoin:miter;stroke-miterlimit:4;stroke-opacity:1;stroke-dasharray:none;stroke-dashoffset:0" /><path
     style="fill:#ffffff;fill-opacity:1;stroke:#000000;stroke-width:0.80000001;stroke-linecap:round;stroke-linejoin:miter;stroke-miterlimit:4;stroke-opacity:1;stroke-dasharray:none;stroke-dashoffset:0"
     d="m 30.4,240.00048 3.2,0"
     id="path4461"
     inkscape:connector-curvature="0" /></g><text
   transform="scale(1,-1)"
   sodipodi:linespacing="100%"
   id="text4473"
   y="-68.000481"
   x="25.402603"
   style="font-size:9.60000038px;font-style:normal;font-variant:normal;font-weight:normal;font-stretch:normal;text-align:end;line-height:100%;letter-spacing:0px;word-spacing:0px;text-anchor:end;fill:#000000;fill-opacity:1;stroke:none;font-family:LMRoman12;-inkscape-font-specification:LMRoman12"
   xml:space="preserve"><tspan
     y="-68.000481"
     x="25.402603"
     id="tspan4475"
     sodipodi:role="line">1</tspan></text>

<text
   xml:space="preserve"
   style="font-size:9.60000038px;font-style:normal;font-variant:normal;font-weight:normal;font-stretch:normal;text-align:end;line-height:100%;letter-spacing:0px;word-spacing:0px;text-anchor:end;fill:#000000;fill-opacity:1;stroke:none;font-family:LMRoman12;-inkscape-font-specification:LMRoman12"
   x="25.402603"
   y="-92.000481"
   id="text4477"
   sodipodi:linespacing="100%"
   transform="scale(1,-1)"><tspan
     sodipodi:role="line"
     id="tspan4479"
     x="25.402603"
     y="-92.000481">2</tspan></text>

<text
   transform="scale(1,-1)"
   sodipodi:linespacing="100%"
   id="text4481"
   y="-116.09734"
   x="25.402603"
   style="font-size:9.60000038px;font-style:normal;font-variant:normal;font-weight:normal;font-stretch:normal;text-align:end;line-height:100%;letter-spacing:0px;word-spacing:0px;text-anchor:end;fill:#000000;fill-opacity:1;stroke:none;font-family:LMRoman12;-inkscape-font-specification:LMRoman12"
   xml:space="preserve"><tspan
     y="-116.09734"
     x="25.402603"
     id="tspan4483"
     sodipodi:role="line">3</tspan></text>

<text
   xml:space="preserve"
   style="font-size:9.60000038px;font-style:normal;font-variant:normal;font-weight:normal;font-stretch:normal;text-align:end;line-height:100%;letter-spacing:0px;word-spacing:0px;text-anchor:end;fill:#000000;fill-opacity:1;stroke:none;font-family:LMRoman12;-inkscape-font-specification:LMRoman12"
   x="25.402603"
   y="-140.43161"
   id="text4485"
   sodipodi:linespacing="100%"
   transform="scale(1,-1)"><tspan
     sodipodi:role="line"
     id="tspan4487"
     x="25.402603"
     y="-140.43161">4</tspan></text>

<text
   transform="scale(1,-1)"
   sodipodi:linespacing="100%"
   id="text4489"
   y="-164.17236"
   x="25.402603"
   style="font-size:9.60000038px;font-style:normal;font-variant:normal;font-weight:normal;font-stretch:normal;text-align:end;line-height:100%;letter-spacing:0px;word-spacing:0px;text-anchor:end;fill:#000000;fill-opacity:1;stroke:none;font-family:LMRoman12;-inkscape-font-specification:LMRoman12"
   xml:space="preserve"><tspan
     y="-164.17236"
     x="25.402603"
     id="tspan4491"
     sodipodi:role="line">5</tspan></text>

<text
   xml:space="preserve"
   style="font-size:9.60000038px;font-style:normal;font-variant:normal;font-weight:normal;font-stretch:normal;text-align:end;line-height:100%;letter-spacing:0px;word-spacing:0px;text-anchor:end;fill:#000000;fill-opacity:1;stroke:none;font-family:LMRoman12;-inkscape-font-specification:LMRoman12"
   x="25.402603"
   y="-188.86275"
   id="text4493"
   sodipodi:linespacing="100%"
   transform="scale(1,-1)"><tspan
     sodipodi:role="line"
     id="tspan4495"
     x="25.402603"
     y="-188.86275">6</tspan></text>

<text
   transform="scale(1,-1)"
   sodipodi:linespacing="100%"
   id="text4497"
   y="-212.12868"
   x="25.402603"
   style="font-size:9.60000038px;font-style:normal;font-variant:normal;font-weight:normal;font-stretch:normal;text-align:end;line-height:100%;letter-spacing:0px;word-spacing:0px;text-anchor:end;fill:#000000;fill-opacity:1;stroke:none;font-family:LMRoman12;-inkscape-font-specification:LMRoman12"
   xml:space="preserve"><tspan
     y="-212.12868"
     x="25.402603"
     id="tspan4499"
     sodipodi:role="line">7</tspan></text>

<text
   xml:space="preserve"
   style="font-size:9.60000038px;font-style:normal;font-variant:normal;font-weight:normal;font-stretch:normal;text-align:end;line-height:100%;letter-spacing:0px;word-spacing:0px;text-anchor:end;fill:#000000;fill-opacity:1;stroke:none;font-family:LMRoman12;-inkscape-font-specification:LMRoman12"
   x="25.402603"
   y="-236.22554"
   id="text4501"
   sodipodi:linespacing="100%"
   transform="scale(1,-1)"><tspan
     sodipodi:role="line"
     id="tspan4503"
     x="25.402603"
     y="-236.22554">8</tspan></text>

<text
   transform="scale(1,-1)"
   sodipodi:linespacing="100%"
   id="text4505"
   y="-36.000481"
   x="82.2575"
   style="font-size:9.60000038px;font-style:normal;font-variant:normal;font-weight:normal;font-stretch:normal;text-align:end;line-height:100%;letter-spacing:0px;word-spacing:0px;text-anchor:end;fill:#000000;fill-opacity:1;stroke:none;font-family:LMRoman12;-inkscape-font-specification:LMRoman12"
   xml:space="preserve"><tspan
     y="-36.000481"
     x="82.2575"
     id="tspan4507"
     sodipodi:role="line">5</tspan></text>

<text
   xml:space="preserve"
   style="font-size:9.60000038px;font-style:normal;font-variant:normal;font-weight:normal;font-stretch:normal;text-align:end;line-height:100%;letter-spacing:0px;word-spacing:0px;text-anchor:end;fill:#000000;fill-opacity:1;stroke:none;font-family:LMRoman12;-inkscape-font-specification:LMRoman12"
   x="131.85751"
   y="-36.000481"
   id="text4509"
   sodipodi:linespacing="100%"
   transform="scale(1,-1)"><tspan
     sodipodi:role="line"
     id="tspan4511"
     x="131.85751"
     y="-36.000481">10</tspan></text>

<text
   transform="scale(1,-1)"
   sodipodi:linespacing="100%"
   id="text4513"
   y="-36.000481"
   x="180.78601"
   style="font-size:9.60000038px;font-style:normal;font-variant:normal;font-weight:normal;font-stretch:normal;text-align:end;line-height:100%;letter-spacing:0px;word-spacing:0px;text-anchor:end;fill:#000000;fill-opacity:1;stroke:none;font-family:LMRoman12;-inkscape-font-specification:LMRoman12"
   xml:space="preserve"><tspan
     y="-36.000481"
     x="180.78601"
     id="tspan4515"
     sodipodi:role="line">15</tspan></text>

<text
   xml:space="preserve"
   style="font-size:9.60000038px;font-style:normal;font-variant:normal;font-weight:normal;font-stretch:normal;text-align:end;line-height:100%;letter-spacing:0px;word-spacing:0px;text-anchor:end;fill:#000000;fill-opacity:1;stroke:none;font-family:LMRoman12;-inkscape-font-specification:LMRoman12"
   x="228.78601"
   y="-36.000481"
   id="text4517"
   sodipodi:linespacing="100%"
   transform="scale(1,-1)"><tspan
     sodipodi:role="line"
     id="tspan4519"
     x="228.78601"
     y="-36.000481">20</tspan></text>

<path
   sodipodi:nodetypes="ccc"
   transform="matrix(0.8,0,0,-0.8,0,283.46503)"
   inkscape:connector-curvature="0"
   id="path4521"
   d="M 42,299.33069 50,116.91631 C 53,96.916309 70,89.330686 95,79.330686"
   style="fill:none;fill-opacity:1;stroke:#000000;stroke-width:1.5;stroke-linecap:round;stroke-linejoin:miter;stroke-miterlimit:4;stroke-opacity:1;stroke-dasharray:none;stroke-dashoffset:0" /><path
   style="fill:none;fill-opacity:1;stroke:#000000;stroke-width:1.5;stroke-linecap:round;stroke-linejoin:miter;stroke-miterlimit:4;stroke-opacity:1;stroke-dasharray:none;stroke-dashoffset:0"
   d="m 42,299.33069 8,-170.8966 C 50,116.4462 70.70517,99.972046 115,89.330686"
   id="path4523"
   inkscape:connector-curvature="0"
   transform="matrix(0.8,0,0,-0.8,0,283.46503)"
   sodipodi:nodetypes="ccc" /><path
   sodipodi:nodetypes="ccc"
   transform="matrix(0.8,0,0,-0.8,0,283.46503)"
   inkscape:connector-curvature="0"
   id="path4569"
   d="m 42,299.33069 6.824717,-151.62195 c 0,-14.1034 20.655054,-31.8335 80.513743,-45.44994"
   style="fill:none;stroke:#000000;stroke-width:1.5;stroke-linecap:round;stroke-linejoin:miter;stroke-miterlimit:4;stroke-opacity:1;stroke-dasharray:none;stroke-dashoffset:0" /><path
   style="fill:none;stroke:#000000;stroke-width:1.2;stroke-linecap:round;stroke-linejoin:miter;stroke-miterlimit:4;stroke-opacity:1;stroke-dasharray:none;stroke-dashoffset:0"
   d="m 33.6,44.000473 4.927901,107.932087 c 0,10.28687 21.800384,26.26291 80.459379,35.98475"
   id="path4571"
   inkscape:connector-curvature="0"
   sodipodi:nodetypes="ccc" /><path
   sodipodi:nodetypes="ccc"
   inkscape:connector-curvature="0"
   id="path4573"
   d="m 33.6,44.000473 4.519547,95.987217 c 0,8.92843 38.842448,27.72986 93.558033,32.52327"
   style="fill:none;stroke:#000000;stroke-width:1.2;stroke-linecap:round;stroke-linejoin:miter;stroke-miterlimit:4;stroke-opacity:1;stroke-dasharray:none;stroke-dashoffset:0" /><path
   style="fill:none;stroke:#000000;stroke-width:1.2;stroke-linecap:round;stroke-linejoin:miter;stroke-miterlimit:4;stroke-opacity:1;stroke-dasharray:none;stroke-dashoffset:0"
   d="m 33.6,44.000473 4.120643,82.964127 c 0,9.47655 48.531172,24.81734 110.692977,28.24619"
   id="path4575"
   inkscape:connector-curvature="0"
   sodipodi:nodetypes="ccc" /><path
   sodipodi:nodetypes="ccc"
   inkscape:connector-curvature="0"
   id="path4581"
   d="m 33.6,44.000473 3.160252,64.704627 c 1.880453,9.81604 31.627255,20.75834 120.867588,25.51008"
   style="fill:none;stroke:#000000;stroke-width:1.2;stroke-linecap:round;stroke-linejoin:miter;stroke-miterlimit:4;stroke-opacity:1;stroke-dasharray:none;stroke-dashoffset:0" /><path
   style="fill:none;stroke:#000000;stroke-width:1.2;stroke-linecap:round;stroke-linejoin:miter;stroke-miterlimit:4;stroke-opacity:1;stroke-dasharray:none;stroke-dashoffset:0"
   d="m 33.6,44.000473 2.169673,44.870286 c 0.949676,7.907424 35.438514,17.352481 139.910517,20.704951"
   id="path4583"
   inkscape:connector-curvature="0"
   sodipodi:nodetypes="ccc" /><path
   sodipodi:nodetypes="ccc"
   inkscape:connector-curvature="0"
   id="path4585"
   d="m 33.6,44.000473 0.9884,21.176862 c 0.229758,9.974468 42.393444,15.426011 162.15287,18.315426"
   style="fill:none;stroke:#000000;stroke-width:1.2;stroke-linecap:round;stroke-linejoin:miter;stroke-miterlimit:4;stroke-opacity:1;stroke-dasharray:none;stroke-dashoffset:0" /><path
   style="fill:none;stroke:#000000;stroke-width:1.2;stroke-linecap:round;stroke-linejoin:miter;stroke-miterlimit:4;stroke-opacity:1;stroke-dasharray:none;stroke-dashoffset:0"
   d="m 33.6,44.000473 0.251199,5.359747 c 0.628663,4.3805 46.32188,4.415796 183.101231,4.081742"
   id="path4587"
   inkscape:connector-curvature="0"
   sodipodi:nodetypes="ccc" /><text
   transform="scale(1,-1)"
   sodipodi:linespacing="100%"
   id="text4594"
   y="-22.37233"
   x="187.06177"
   style="font-size:9.60000038px;font-style:normal;font-variant:normal;font-weight:normal;font-stretch:normal;text-align:end;line-height:100%;letter-spacing:0px;word-spacing:0px;text-anchor:end;fill:#000000;fill-opacity:1;stroke:none;font-family:LMRoman12;-inkscape-font-specification:LMRoman12"
   xml:space="preserve"><tspan
     y="-22.37233"
     x="187.06177"
     id="tspan4596"
     sodipodi:role="line">(Cutoff region)</tspan></text>

<path
   inkscape:connector-curvature="0"
   id="path4598"
   d="m 136.66851,50.144095 11.77867,-19.99564"
   style="fill:#ffffff;fill-opacity:1;stroke:#000000;stroke-width:0.80000001;stroke-linecap:round;stroke-linejoin:miter;stroke-miterlimit:4;stroke-opacity:1;stroke-dasharray:none;stroke-dashoffset:0;marker-start:url(#Arrow1Mstart)" /><text
   transform="matrix(0,1,1,0,0,0)"
   sodipodi:linespacing="100%"
   id="text4600"
   y="9.315382"
   x="106.98316"
   style="font-size:9.60000038px;font-style:normal;font-variant:normal;font-weight:normal;font-stretch:normal;text-align:start;line-height:100%;letter-spacing:0px;word-spacing:0px;text-anchor:start;fill:#000000;fill-opacity:1;stroke:none;font-family:LMRoman12;-inkscape-font-specification:LMRoman12"
   xml:space="preserve"><tspan
     y="9.315382"
     x="106.98316"
     id="tspan4602"
     sodipodi:role="line">(Saturation region)</tspan></text>

<path
   style="fill:#ffffff;fill-opacity:1;stroke:#000000;stroke-width:0.80000001;stroke-linecap:round;stroke-linejoin:miter;stroke-miterlimit:4;stroke-opacity:1;stroke-dasharray:none;stroke-dashoffset:0;marker-start:url(#Arrow1Mstart)"
   d="M 33.851105,158.76596 13.86938,146.9637"
   id="path4604"
   inkscape:connector-curvature="0" /><text
   transform="scale(1,-1)"
   sodipodi:linespacing="100%"
   id="text4606"
   y="-115.38054"
   x="85.941513"
   style="font-size:9.60000038px;font-style:normal;font-variant:normal;font-weight:normal;font-stretch:normal;text-align:start;line-height:100%;letter-spacing:0px;word-spacing:0px;text-anchor:start;fill:#000000;fill-opacity:1;stroke:none;font-family:LMRoman12;-inkscape-font-specification:LMRoman12"
   xml:space="preserve"><tspan
     id="tspan4610"
     y="-115.38054"
     x="85.941513"
     sodipodi:role="line">Active Region</tspan></text>

<g
   ns0:preamble="/home/sriranga/Desktop/MCT/package.tex"
   ns0:text="$I_C$ (mA)"
   word-spacing="normal"
   letter-spacing="normal"
   font-size-adjust="none"
   font-stretch="normal"
   font-weight="normal"
   font-variant="normal"
   font-style="normal"
   stroke-miterlimit="10.433"
   xml:space="preserve"
   transform="matrix(1.0725913,0,0,1.0724882,-219.90768,-489.46497)"
   id="content"
   style="font-style:normal;font-variant:normal;font-weight:normal;font-stretch:normal;letter-spacing:normal;word-spacing:normal;text-anchor:start;fill:none;stroke:#000000;stroke-width:1.11883962;stroke-linecap:butt;stroke-linejoin:miter;stroke-miterlimit:10.43299961;stroke-opacity:1;stroke-dasharray:none;stroke-dashoffset:0"><path
     id="path4810"
     d="m 223.6,707.12 h 2.43 v 0.16 c -0.57,0.07 -0.68,0.13 -0.68,0.41 0,0.19 0.02,0.31 0.11,0.63 l 1.23,4.4 c 0.18,0.57 0.24,0.63 0.81,0.73 v 0.16 h -2.46 v -0.16 c 0.58,-0.07 0.7,-0.15 0.7,-0.42 0,-0.14 -0.04,-0.37 -0.11,-0.62 l -1.22,-4.39 c -0.18,-0.58 -0.25,-0.64 -0.81,-0.74 z"
     inkscape:connector-curvature="0"
     style="fill:#000000;stroke-width:0" /><path
     id="path4812"
     d="m 231.37,708.86 0.25,1.39 h -0.14 c -0.06,-0.11 -0.13,-0.16 -0.27,-0.16 -0.05,0 -0.14,0.02 -0.28,0.05 -0.32,0.08 -0.6,0.12 -0.82,0.12 -1.48,0 -2.83,-1.4 -2.83,-2.94 0,-1.06 0.76,-1.81 1.82,-1.81 0.72,0 1.28,0.3 1.9,1.03 l -0.12,0.1 c -0.62,-0.61 -1.03,-0.82 -1.6,-0.82 -0.77,0 -1.22,0.53 -1.22,1.42 0,0.83 0.34,1.67 0.88,2.24 0.33,0.34 0.77,0.53 1.23,0.53 0.65,0 1,-0.37 1.07,-1.12 z"
     inkscape:connector-curvature="0"
     style="fill:#000000;stroke-width:0" /><path
     id="path4814"
     d="m 237.73,713.84 -0.07,-0.04 -0.07,-0.05 -0.06,-0.04 -0.06,-0.04 -0.06,-0.04 -0.05,-0.04 -0.06,-0.04 -0.05,-0.03 -0.05,-0.04 -0.05,-0.04 -0.05,-0.03 -0.04,-0.04 -0.05,-0.03 -0.04,-0.04 -0.08,-0.06 -0.08,-0.07 -0.07,-0.07 -0.08,-0.07 -0.07,-0.07 -0.06,-0.07 -0.07,-0.08 -0.07,-0.08 -0.07,-0.08 c -0.7,-0.87 -1.05,-1.86 -1.05,-3.02 0,-1.26 0.37,-2.24 1.24,-3.25 0.41,-0.48 0.67,-0.7 1.19,-1.01 l 0.12,0.16 c -0.8,0.62 -1.08,0.97 -1.35,1.71 -0.23,0.67 -0.35,1.42 -0.35,2.42 0,1.04 0.14,1.86 0.4,2.47 0.28,0.62 0.58,0.97 1.3,1.55 z"
     inkscape:connector-curvature="0"
     style="fill:#000000;stroke-width:0" /><path
     id="path4816"
     d="m 238.3,711.08 0.01,0 0.01,0 0.01,0.01 0.02,0 0.01,0 0.01,0 0.02,0.01 0.02,0 0.02,0 0.02,0.01 0.02,0 0.01,0 0.02,0 0.02,0 0.02,0.01 0.02,0 0.02,0 0.02,0 0.02,0 c 0.26,0 0.34,-0.16 0.34,-0.64 v -2.51 c 0,-0.54 -0.13,-0.69 -0.69,-0.7 v -0.15 h 2.21 v 0.15 c -0.53,0.02 -0.68,0.13 -0.68,0.52 v 2.8 c 0,0.02 0.08,0.12 0.15,0.19 0.25,0.23 0.68,0.4 1.03,0.4 0.43,0 0.65,-0.35 0.65,-1.04 v -2.16 c 0,-0.56 -0.11,-0.67 -0.67,-0.71 v -0.15 h 2.22 v 0.15 c -0.56,0.01 -0.71,0.18 -0.71,0.8 v 2.5 c 0.3,0.43 0.62,0.61 1.08,0.61 0.57,0 0.75,-0.27 0.75,-1.09 v -2.1 c 0,-0.57 -0.08,-0.65 -0.66,-0.72 v -0.15 h 2.18 v 0.15 l -0.26,0.02 c -0.3,0.02 -0.43,0.2 -0.43,0.59 v 2.05 c 0,1.17 -0.38,1.77 -1.15,1.77 -0.58,0 -1.08,-0.26 -1.62,-0.84 -0.18,0.57 -0.52,0.84 -1.06,0.84 -0.43,0 -0.71,-0.15 -1.54,-0.77 v 0.74 l -0.07,0.03 c -0.51,-0.19 -0.84,-0.3 -1.39,-0.45 z"
     inkscape:connector-curvature="0"
     style="fill:#000000;stroke-width:0" /><path
     id="path4818"
     d="m 252.88,707.31 -0.04,0.01 -0.04,0 -0.03,0 -0.04,0.01 -0.03,0.01 -0.03,0 -0.04,0.01 -0.03,0.01 -0.02,0.01 -0.03,0.01 -0.03,0.01 -0.02,0.02 -0.03,0.01 -0.02,0.02 -0.03,0.02 -0.02,0.02 -0.02,0.03 -0.03,0.02 -0.02,0.03 -0.02,0.03 -0.03,0.03 -0.02,0.04 -0.02,0.04 -0.03,0.04 -0.02,0.04 -0.03,0.05 -0.02,0.05 -0.03,0.05 -0.03,0.06 -0.03,0.06 -0.01,0.03 -0.02,0.03 -0.01,0.03 -0.02,0.04 -2.48,5.64 h -0.2 l -2.07,-4.88 c -0.63,-1.45 -0.75,-1.61 -1.23,-1.63 v -0.19 h 1.97 v 0.19 c -0.48,0 -0.68,0.13 -0.68,0.41 0,0.12 0.03,0.26 0.08,0.39 l 0.46,1.16 h 2.61 l -0.14,0.41 h -2.3 l 1.14,2.73 1.16,-2.73 0.14,-0.41 0.4,-0.95 c 0.12,-0.27 0.19,-0.53 0.19,-0.67 0,-0.25 -0.16,-0.33 -0.69,-0.34 v -0.19 h 2.53 z"
     inkscape:connector-curvature="0"
     style="fill:#000000;stroke-width:0" /><path
     id="path4820"
     d="m 253.43,705.37 0.07,0.04 0.06,0.04 0.07,0.05 0.06,0.04 0.06,0.04 0.05,0.03 0.06,0.04 0.05,0.04 0.05,0.04 0.05,0.03 0.05,0.04 0.04,0.03 0.05,0.04 0.04,0.03 0.08,0.07 0.08,0.07 0.07,0.07 0.07,0.07 0.07,0.07 0.07,0.07 0.07,0.08 0.07,0.08 0.06,0.08 c 0.71,0.86 1.06,1.86 1.06,3.02 0,1.27 -0.37,2.23 -1.24,3.25 -0.41,0.47 -0.67,0.69 -1.19,1.01 l -0.12,-0.16 c 0.8,-0.63 1.07,-0.97 1.34,-1.72 0.24,-0.66 0.35,-1.42 0.35,-2.41 0,-1.03 -0.13,-1.86 -0.4,-2.46 -0.27,-0.63 -0.57,-0.99 -1.29,-1.56 z"
     inkscape:connector-curvature="0"
     style="fill:#000000;stroke-width:0" /></g><g
   style="font-style:normal;font-variant:normal;font-weight:normal;font-stretch:normal;letter-spacing:normal;word-spacing:normal;text-anchor:start;fill:none;stroke:#000000;stroke-width:1.11883962;stroke-linecap:butt;stroke-linejoin:miter;stroke-miterlimit:10.43299961;stroke-opacity:1;stroke-dasharray:none;stroke-dashoffset:0"
   ns0:preamble="/home/sriranga/Desktop/MCT/package.tex"
   ns0:text="90 $\\mu$A"
   word-spacing="normal"
   letter-spacing="normal"
   font-size-adjust="none"
   font-stretch="normal"
   font-weight="normal"
   font-variant="normal"
   font-style="normal"
   stroke-miterlimit="10.433"
   xml:space="preserve"
   transform="matrix(1.0725913,0,0,1.0724882,-161.77452,-537.91004)"
   id="g5655"><path
     id="path5657"
     d="m 224.02,706.91 0.1,0.01 0.1,0.01 0.1,0.01 0.09,0.02 0.09,0.01 0.09,0.02 0.09,0.01 0.08,0.02 0.08,0.01 0.08,0.02 0.08,0.02 0.07,0.02 0.07,0.02 0.07,0.02 0.14,0.04 0.13,0.05 0.13,0.06 0.13,0.05 0.12,0.07 0.13,0.07 0.12,0.07 0.12,0.08 0.06,0.05 0.07,0.04 c 1.03,0.76 1.64,1.99 1.64,3.33 0,1.64 -0.92,2.8 -2.2,2.8 -1.18,0 -2.07,-1 -2.07,-2.34 0,-1.22 0.72,-2.02 1.79,-2.02 0.55,0 0.97,0.16 1.49,0.57 l -0.13,0.22 c -0.27,-0.23 -0.64,-0.36 -1,-0.36 -0.76,0 -1.23,0.74 -1.23,1.92 0,0.57 0.15,1.17 0.36,1.42 0.17,0.2 0.42,0.31 0.71,0.31 0.87,0 1.31,-0.85 1.31,-2.52 v -0.39 c 0,-0.2 -0.04,-0.29 -0.15,-0.38 l 0.13,-0.22 c -0.4,-1.62 -1.51,-2.69 -3.02,-2.95 z"
     inkscape:connector-curvature="0"
     style="fill:#000000;stroke-width:0" /><path
     id="path5659"
     d="m 230.94,713.84 -0.05,0 -0.05,0 -0.05,0 -0.05,-0.01 -0.05,0 -0.04,-0.01 -0.05,0 -0.05,-0.01 -0.04,-0.01 -0.05,-0.01 -0.04,-0.01 -0.05,-0.01 -0.04,-0.01 -0.04,-0.02 -0.04,-0.01 -0.04,-0.02 -0.04,-0.01 -0.04,-0.02 -0.04,-0.02 -0.04,-0.02 -0.04,-0.02 -0.04,-0.02 -0.04,-0.03 -0.04,-0.02 -0.03,-0.02 -0.04,-0.03 -0.04,-0.03 -0.03,-0.02 -0.04,-0.03 -0.03,-0.03 -0.04,-0.03 -0.03,-0.04 c -0.58,-0.55 -0.96,-1.7 -0.96,-2.86 0,-1.08 0.33,-2.24 0.8,-2.8 0.37,-0.44 0.87,-0.67 1.45,-0.67 v 0.25 c -0.86,0 -1.29,1.07 -1.29,3.13 0,2.11 0.44,3.21 1.3,3.21 h 0 c 0.84,0 1.28,-1.12 1.28,-3.2 0,-2.07 -0.43,-3.14 -1.29,-3.14 v -0.25 c 0.51,0 0.94,0.17 1.29,0.51 0.58,0.55 0.96,1.7 0.96,2.9 0,2.04 -0.91,3.44 -2.21,3.44 z"
     inkscape:connector-curvature="0"
     style="fill:#000000;stroke-width:0" /><path
     id="path5661"
     d="m 240.81,707.89 0,0.01 0,0 0,0.01 0,0 0,0.01 0,0 0,0 0,0.01 0,0 0,0.01 0,0 0,0 -0.01,0.01 0,0 0,0 0,0.01 0,0 0,0 0,0 0,0.01 -0.01,0 0,0 0,0 0,0 0,0 -0.01,0.01 0,0 0,0 0,0 0,0 -0.01,0 0,0 c -0.15,0 -0.14,-0.59 -0.68,-0.59 -0.15,0 -0.21,0.13 -0.21,0.32 0,0.26 0.1,0.64 0.2,1.03 l 0.7,2.77 -0.87,-0.15 -0.79,-2.99 c -0.02,-0.05 -0.61,-0.88 -1.22,-0.88 -0.56,0 -0.74,0.52 -0.74,0.91 0,0.12 0.02,0.22 0.04,0.31 l 0.7,2.8 -0.73,-0.13 -1.09,-4.26 c -0.2,-0.8 -0.6,-1.87 -0.68,-2.05 h 0.87 l 0.64,2.48 h 0.01 c 0,-0.01 0.04,-0.53 0.76,-0.53 0.79,0 1.28,0.78 1.38,0.9 -0.01,-0.08 -0.02,-0.15 -0.02,-0.22 0,-0.65 0.61,-0.68 0.78,-0.68 h 0.03 c 0.68,0 0.96,0.64 0.96,0.87 z"
     inkscape:connector-curvature="0"
     style="fill:#000000;stroke-width:0" /><path
     id="path5663"
     d="m 248.24,707.31 -0.04,0.01 -0.04,0 -0.04,0 -0.03,0.01 -0.04,0.01 -0.03,0 -0.03,0.01 -0.03,0.01 -0.03,0.01 -0.03,0.01 -0.02,0.01 -0.03,0.02 -0.02,0.01 -0.03,0.02 -0.02,0.02 -0.03,0.02 -0.02,0.03 -0.02,0.02 -0.03,0.03 -0.02,0.03 -0.02,0.03 -0.02,0.04 -0.03,0.04 -0.02,0.04 -0.03,0.04 -0.02,0.05 -0.03,0.05 -0.03,0.05 -0.02,0.06 -0.03,0.06 -0.02,0.03 -0.01,0.03 -0.02,0.03 -0.02,0.04 -2.47,5.64 h -0.2 l -2.07,-4.88 c -0.64,-1.45 -0.76,-1.61 -1.24,-1.63 v -0.19 h 1.97 v 0.19 c -0.47,0 -0.67,0.13 -0.67,0.41 0,0.12 0.03,0.26 0.08,0.39 l 0.46,1.16 h 2.6 l -0.14,0.41 h -2.3 l 1.15,2.73 1.15,-2.73 0.14,-0.41 0.41,-0.95 c 0.12,-0.27 0.19,-0.53 0.19,-0.67 0,-0.25 -0.17,-0.33 -0.7,-0.34 v -0.19 h 2.54 z"
     inkscape:connector-curvature="0"
     style="fill:#000000;stroke-width:0" /></g><g
   id="g6087"
   transform="matrix(1.0725913,0,0,1.0724882,-146.13723,-549.31415)"
   xml:space="preserve"
   stroke-miterlimit="10.433"
   font-style="normal"
   font-variant="normal"
   font-weight="normal"
   font-stretch="normal"
   font-size-adjust="none"
   letter-spacing="normal"
   word-spacing="normal"
   ns0:text="80 $\\mu$A"
   ns0:preamble="/home/sriranga/Desktop/MCT/package.tex"
   style="font-style:normal;font-variant:normal;font-weight:normal;font-stretch:normal;letter-spacing:normal;word-spacing:normal;text-anchor:start;fill:none;stroke:#000000;stroke-width:1.11883962;stroke-linecap:butt;stroke-linejoin:miter;stroke-miterlimit:10.43299961;stroke-opacity:1;stroke-dasharray:none;stroke-dashoffset:0"><path
     d="m 226.32,710.81 0.09,0.05 0.08,0.05 0.09,0.05 0.08,0.04 0.07,0.05 0.08,0.05 0.07,0.04 0.06,0.05 0.06,0.05 0.06,0.04 0.06,0.05 0.05,0.05 0.05,0.04 0.05,0.05 0.04,0.05 0.04,0.04 0.04,0.05 0.04,0.05 0.03,0.05 0.03,0.05 0.03,0.05 0.02,0.05 0.02,0.05 0.02,0.06 0.02,0.05 0.01,0.05 0.01,0.06 0.01,0.06 0.01,0.06 0.01,0.06 0,0.06 0,0.06 c 0,0.81 -0.72,1.41 -1.71,1.41 l -0.08,-0.28 c 0.68,0 1.1,-0.44 1.1,-1.12 0,-0.57 -0.28,-1.01 -0.84,-1.39 -0.05,-0.03 -0.05,-0.03 -0.09,-0.06 h 0 c -0.89,0.58 -1.24,1.03 -1.24,1.59 0,0.58 0.44,0.98 1.07,0.98 l 0.08,0.28 c -1.09,0 -1.89,-0.67 -1.89,-1.57 0,-0.65 0.19,-0.93 1.23,-1.85 -1.07,-0.81 -1.29,-1.12 -1.29,-1.8 0,-0.96 0.78,-1.63 1.91,-1.63 l 0.11,0.27 c -0.76,0 -1.27,0.58 -1.27,1.44 0,0.64 0.22,1.06 0.8,1.52 l 0.6,-0.43 c 0.72,-0.52 0.96,-0.88 0.96,-1.43 0,-0.65 -0.44,-1.1 -1.09,-1.1 l -0.11,-0.27 c 1.19,0 1.96,0.65 1.96,1.67 0,0.77 -0.34,1.26 -1.54,2.15 z"
     id="path6089"
     inkscape:connector-curvature="0"
     style="fill:#000000;stroke-width:0" /><path
     d="m 230.94,713.84 -0.05,0 -0.05,0 -0.05,0 -0.05,-0.01 -0.05,0 -0.04,-0.01 -0.05,0 -0.05,-0.01 -0.04,-0.01 -0.05,-0.01 -0.04,-0.01 -0.05,-0.01 -0.04,-0.01 -0.04,-0.02 -0.04,-0.01 -0.04,-0.02 -0.04,-0.01 -0.04,-0.02 -0.04,-0.02 -0.04,-0.02 -0.04,-0.02 -0.04,-0.02 -0.04,-0.03 -0.04,-0.02 -0.03,-0.02 -0.04,-0.03 -0.04,-0.03 -0.03,-0.02 -0.04,-0.03 -0.03,-0.03 -0.04,-0.03 -0.03,-0.04 c -0.58,-0.55 -0.96,-1.7 -0.96,-2.86 0,-1.08 0.33,-2.24 0.8,-2.8 0.37,-0.44 0.87,-0.67 1.45,-0.67 v 0.25 c -0.86,0 -1.29,1.07 -1.29,3.13 0,2.11 0.44,3.21 1.3,3.21 h 0 c 0.84,0 1.28,-1.12 1.28,-3.2 0,-2.07 -0.43,-3.14 -1.29,-3.14 v -0.25 c 0.51,0 0.94,0.17 1.29,0.51 0.58,0.55 0.96,1.7 0.96,2.9 0,2.04 -0.91,3.44 -2.21,3.44 z"
     id="path6091"
     inkscape:connector-curvature="0"
     style="fill:#000000;stroke-width:0" /><path
     d="m 240.81,707.89 0,0.01 0,0 0,0.01 0,0 0,0.01 0,0 0,0 0,0.01 0,0 0,0.01 0,0 0,0 -0.01,0.01 0,0 0,0 0,0.01 0,0 0,0 0,0 0,0.01 -0.01,0 0,0 0,0 0,0 0,0 -0.01,0.01 0,0 0,0 0,0 0,0 -0.01,0 0,0 c -0.15,0 -0.14,-0.59 -0.68,-0.59 -0.15,0 -0.21,0.13 -0.21,0.32 0,0.26 0.1,0.64 0.2,1.03 l 0.7,2.77 -0.87,-0.15 -0.79,-2.99 c -0.02,-0.05 -0.61,-0.88 -1.22,-0.88 -0.56,0 -0.74,0.52 -0.74,0.91 0,0.12 0.02,0.22 0.04,0.31 l 0.7,2.8 -0.73,-0.13 -1.09,-4.26 c -0.2,-0.8 -0.6,-1.87 -0.68,-2.05 h 0.87 l 0.64,2.48 h 0.01 c 0,-0.01 0.04,-0.53 0.76,-0.53 0.79,0 1.28,0.78 1.38,0.9 -0.01,-0.08 -0.02,-0.15 -0.02,-0.22 0,-0.65 0.61,-0.68 0.78,-0.68 h 0.03 c 0.68,0 0.96,0.64 0.96,0.87 z"
     id="path6093"
     inkscape:connector-curvature="0"
     style="fill:#000000;stroke-width:0" /><path
     d="m 248.24,707.31 -0.04,0.01 -0.04,0 -0.04,0 -0.03,0.01 -0.04,0.01 -0.03,0 -0.03,0.01 -0.03,0.01 -0.03,0.01 -0.03,0.01 -0.02,0.01 -0.03,0.02 -0.02,0.01 -0.03,0.02 -0.02,0.02 -0.03,0.02 -0.02,0.03 -0.02,0.02 -0.03,0.03 -0.02,0.03 -0.02,0.03 -0.02,0.04 -0.03,0.04 -0.02,0.04 -0.03,0.04 -0.02,0.05 -0.03,0.05 -0.03,0.05 -0.02,0.06 -0.03,0.06 -0.02,0.03 -0.01,0.03 -0.02,0.03 -0.02,0.04 -2.47,5.64 h -0.2 l -2.07,-4.88 c -0.64,-1.45 -0.76,-1.61 -1.24,-1.63 v -0.19 h 1.97 v 0.19 c -0.47,0 -0.67,0.13 -0.67,0.41 0,0.12 0.03,0.26 0.08,0.39 l 0.46,1.16 h 2.6 l -0.14,0.41 h -2.3 l 1.15,2.73 1.15,-2.73 0.14,-0.41 0.41,-0.95 c 0.12,-0.27 0.19,-0.53 0.19,-0.67 0,-0.25 -0.17,-0.33 -0.7,-0.34 v -0.19 h 2.54 z"
     id="path6095"
     inkscape:connector-curvature="0"
     style="fill:#000000;stroke-width:0" /></g><g
   style="font-style:normal;font-variant:normal;font-weight:normal;font-stretch:normal;letter-spacing:normal;word-spacing:normal;text-anchor:start;fill:none;stroke:#000000;stroke-width:1.11883962;stroke-linecap:butt;stroke-linejoin:miter;stroke-miterlimit:10.43299961;stroke-opacity:1;stroke-dasharray:none;stroke-dashoffset:0"
   ns0:preamble="/home/sriranga/Desktop/MCT/package.tex"
   ns0:text="70 $\\mu$A"
   word-spacing="normal"
   letter-spacing="normal"
   font-size-adjust="none"
   font-stretch="normal"
   font-weight="normal"
   font-variant="normal"
   font-style="normal"
   stroke-miterlimit="10.433"
   xml:space="preserve"
   transform="matrix(1.0725913,0,0,1.0724882,-135.04339,-560.17781)"
   id="g6529"><path
     id="path6531"
     d="m 227.9,713.7 h -3.68 l -0.59,-1.46 0.17,-0.08 c 0.43,0.68 0.61,0.81 1.15,0.81 h 2.16 l -1.97,-5.92 h 0.65 l 2.11,6.49 z"
     inkscape:connector-curvature="0"
     style="fill:#000000;stroke-width:0" /><path
     id="path6533"
     d="m 230.94,713.84 -0.05,0 -0.05,0 -0.05,0 -0.05,-0.01 -0.05,0 -0.04,-0.01 -0.05,0 -0.05,-0.01 -0.04,-0.01 -0.05,-0.01 -0.04,-0.01 -0.05,-0.01 -0.04,-0.01 -0.04,-0.02 -0.04,-0.01 -0.04,-0.02 -0.04,-0.01 -0.04,-0.02 -0.04,-0.02 -0.04,-0.02 -0.04,-0.02 -0.04,-0.02 -0.04,-0.03 -0.04,-0.02 -0.03,-0.02 -0.04,-0.03 -0.04,-0.03 -0.03,-0.02 -0.04,-0.03 -0.03,-0.03 -0.04,-0.03 -0.03,-0.04 c -0.58,-0.55 -0.96,-1.7 -0.96,-2.86 0,-1.08 0.33,-2.24 0.8,-2.8 0.37,-0.44 0.87,-0.67 1.45,-0.67 v 0.25 c -0.86,0 -1.29,1.07 -1.29,3.13 0,2.11 0.44,3.21 1.3,3.21 h 0 c 0.84,0 1.28,-1.12 1.28,-3.2 0,-2.07 -0.43,-3.14 -1.29,-3.14 v -0.25 c 0.51,0 0.94,0.17 1.29,0.51 0.58,0.55 0.96,1.7 0.96,2.9 0,2.04 -0.91,3.44 -2.21,3.44 z"
     inkscape:connector-curvature="0"
     style="fill:#000000;stroke-width:0" /><path
     id="path6535"
     d="m 240.81,707.89 0,0.01 0,0 0,0.01 0,0 0,0.01 0,0 0,0 0,0.01 0,0 0,0.01 0,0 0,0 -0.01,0.01 0,0 0,0 0,0.01 0,0 0,0 0,0 0,0.01 -0.01,0 0,0 0,0 0,0 0,0 -0.01,0.01 0,0 0,0 0,0 0,0 -0.01,0 0,0 c -0.15,0 -0.14,-0.59 -0.68,-0.59 -0.15,0 -0.21,0.13 -0.21,0.32 0,0.26 0.1,0.64 0.2,1.03 l 0.7,2.77 -0.87,-0.15 -0.79,-2.99 c -0.02,-0.05 -0.61,-0.88 -1.22,-0.88 -0.56,0 -0.74,0.52 -0.74,0.91 0,0.12 0.02,0.22 0.04,0.31 l 0.7,2.8 -0.73,-0.13 -1.09,-4.26 c -0.2,-0.8 -0.6,-1.87 -0.68,-2.05 h 0.87 l 0.64,2.48 h 0.01 c 0,-0.01 0.04,-0.53 0.76,-0.53 0.79,0 1.28,0.78 1.38,0.9 -0.01,-0.08 -0.02,-0.15 -0.02,-0.22 0,-0.65 0.61,-0.68 0.78,-0.68 h 0.03 c 0.68,0 0.96,0.64 0.96,0.87 z"
     inkscape:connector-curvature="0"
     style="fill:#000000;stroke-width:0" /><path
     id="path6537"
     d="m 248.24,707.31 -0.04,0.01 -0.04,0 -0.04,0 -0.03,0.01 -0.04,0.01 -0.03,0 -0.03,0.01 -0.03,0.01 -0.03,0.01 -0.03,0.01 -0.02,0.01 -0.03,0.02 -0.02,0.01 -0.03,0.02 -0.02,0.02 -0.03,0.02 -0.02,0.03 -0.02,0.02 -0.03,0.03 -0.02,0.03 -0.02,0.03 -0.02,0.04 -0.03,0.04 -0.02,0.04 -0.03,0.04 -0.02,0.05 -0.03,0.05 -0.03,0.05 -0.02,0.06 -0.03,0.06 -0.02,0.03 -0.01,0.03 -0.02,0.03 -0.02,0.04 -2.47,5.64 h -0.2 l -2.07,-4.88 c -0.64,-1.45 -0.76,-1.61 -1.24,-1.63 v -0.19 h 1.97 v 0.19 c -0.47,0 -0.67,0.13 -0.67,0.41 0,0.12 0.03,0.26 0.08,0.39 l 0.46,1.16 h 2.6 l -0.14,0.41 h -2.3 l 1.15,2.73 1.15,-2.73 0.14,-0.41 0.41,-0.95 c 0.12,-0.27 0.19,-0.53 0.19,-0.67 0,-0.25 -0.17,-0.33 -0.7,-0.34 v -0.19 h 2.54 z"
     inkscape:connector-curvature="0"
     style="fill:#000000;stroke-width:0" /></g><g
   id="g6981"
   transform="matrix(1.0725913,0,0,1.0724882,-118.41498,-573.19453)"
   xml:space="preserve"
   stroke-miterlimit="10.433"
   font-style="normal"
   font-variant="normal"
   font-weight="normal"
   font-stretch="normal"
   font-size-adjust="none"
   letter-spacing="normal"
   word-spacing="normal"
   ns0:text="60 $\\mu$A"
   ns0:preamble="/home/sriranga/Desktop/MCT/package.tex"
   style="font-style:normal;font-variant:normal;font-weight:normal;font-stretch:normal;letter-spacing:normal;word-spacing:normal;text-anchor:start;fill:none;stroke:#000000;stroke-width:1.11883962;stroke-linecap:butt;stroke-linejoin:miter;stroke-miterlimit:10.43299961;stroke-opacity:1;stroke-dasharray:none;stroke-dashoffset:0"><path
     style="fill:#000000;stroke-width:0"
     inkscape:connector-curvature="0"
     d="m 227.87,713.92 -0.11,-0.01 -0.1,-0.01 -0.1,-0.01 -0.09,-0.01 -0.09,-0.01 -0.09,-0.02 -0.09,-0.01 -0.09,-0.02 -0.08,-0.01 -0.08,-0.02 -0.08,-0.01 -0.08,-0.02 -0.07,-0.02 -0.08,-0.02 -0.14,-0.04 -0.14,-0.05 -0.14,-0.06 -0.13,-0.06 -0.13,-0.06 -0.13,-0.07 -0.13,-0.08 -0.13,-0.08 -0.07,-0.05 -0.07,-0.05 c -1.07,-0.76 -1.66,-1.89 -1.66,-3.22 0,-0.87 0.27,-1.74 0.7,-2.24 0.38,-0.44 0.91,-0.67 1.53,-0.67 1.23,0 2.09,0.94 2.09,2.31 0,1.27 -0.73,2.08 -1.87,2.08 -0.44,0 -0.65,-0.07 -1.28,-0.45 l 0.03,-0.26 c 0.21,0.16 0.52,0.25 0.87,0.25 h 0 c 0.86,0 1.35,-0.72 1.35,-1.96 0,-1.09 -0.39,-1.7 -1.08,-1.7 -0.88,0 -1.41,0.94 -1.41,2.48 0,0.5 0.07,0.78 0.27,0.93 l -0.03,0.26 c 0.27,1.5 1.39,2.57 2.95,2.83 z"
     id="path6983" /><path
     style="fill:#000000;stroke-width:0"
     inkscape:connector-curvature="0"
     d="m 230.94,713.84 -0.05,0 -0.05,0 -0.05,0 -0.05,-0.01 -0.05,0 -0.04,-0.01 -0.05,0 -0.05,-0.01 -0.04,-0.01 -0.05,-0.01 -0.04,-0.01 -0.05,-0.01 -0.04,-0.01 -0.04,-0.02 -0.04,-0.01 -0.04,-0.02 -0.04,-0.01 -0.04,-0.02 -0.04,-0.02 -0.04,-0.02 -0.04,-0.02 -0.04,-0.02 -0.04,-0.03 -0.04,-0.02 -0.03,-0.02 -0.04,-0.03 -0.04,-0.03 -0.03,-0.02 -0.04,-0.03 -0.03,-0.03 -0.04,-0.03 -0.03,-0.04 c -0.58,-0.55 -0.96,-1.7 -0.96,-2.86 0,-1.08 0.33,-2.24 0.8,-2.8 0.37,-0.44 0.87,-0.67 1.45,-0.67 v 0.25 c -0.86,0 -1.29,1.07 -1.29,3.13 0,2.11 0.44,3.21 1.3,3.21 h 0 c 0.84,0 1.28,-1.12 1.28,-3.2 0,-2.07 -0.43,-3.14 -1.29,-3.14 v -0.25 c 0.51,0 0.94,0.17 1.29,0.51 0.58,0.55 0.96,1.7 0.96,2.9 0,2.04 -0.91,3.44 -2.21,3.44 z"
     id="path6985" /><path
     style="fill:#000000;stroke-width:0"
     inkscape:connector-curvature="0"
     d="m 240.81,707.89 0,0.01 0,0 0,0.01 0,0 0,0.01 0,0 0,0 0,0.01 0,0 0,0.01 0,0 0,0 -0.01,0.01 0,0 0,0 0,0.01 0,0 0,0 0,0 0,0.01 -0.01,0 0,0 0,0 0,0 0,0 -0.01,0.01 0,0 0,0 0,0 0,0 -0.01,0 0,0 c -0.15,0 -0.14,-0.59 -0.68,-0.59 -0.15,0 -0.21,0.13 -0.21,0.32 0,0.26 0.1,0.64 0.2,1.03 l 0.7,2.77 -0.87,-0.15 -0.79,-2.99 c -0.02,-0.05 -0.61,-0.88 -1.22,-0.88 -0.56,0 -0.74,0.52 -0.74,0.91 0,0.12 0.02,0.22 0.04,0.31 l 0.7,2.8 -0.73,-0.13 -1.09,-4.26 c -0.2,-0.8 -0.6,-1.87 -0.68,-2.05 h 0.87 l 0.64,2.48 h 0.01 c 0,-0.01 0.04,-0.53 0.76,-0.53 0.79,0 1.28,0.78 1.38,0.9 -0.01,-0.08 -0.02,-0.15 -0.02,-0.22 0,-0.65 0.61,-0.68 0.78,-0.68 h 0.03 c 0.68,0 0.96,0.64 0.96,0.87 z"
     id="path6987" /><path
     style="fill:#000000;stroke-width:0"
     inkscape:connector-curvature="0"
     d="m 248.24,707.31 -0.04,0.01 -0.04,0 -0.04,0 -0.03,0.01 -0.04,0.01 -0.03,0 -0.03,0.01 -0.03,0.01 -0.03,0.01 -0.03,0.01 -0.02,0.01 -0.03,0.02 -0.02,0.01 -0.03,0.02 -0.02,0.02 -0.03,0.02 -0.02,0.03 -0.02,0.02 -0.03,0.03 -0.02,0.03 -0.02,0.03 -0.02,0.04 -0.03,0.04 -0.02,0.04 -0.03,0.04 -0.02,0.05 -0.03,0.05 -0.03,0.05 -0.02,0.06 -0.03,0.06 -0.02,0.03 -0.01,0.03 -0.02,0.03 -0.02,0.04 -2.47,5.64 h -0.2 l -2.07,-4.88 c -0.64,-1.45 -0.76,-1.61 -1.24,-1.63 v -0.19 h 1.97 v 0.19 c -0.47,0 -0.67,0.13 -0.67,0.41 0,0.12 0.03,0.26 0.08,0.39 l 0.46,1.16 h 2.6 l -0.14,0.41 h -2.3 l 1.15,2.73 1.15,-2.73 0.14,-0.41 0.41,-0.95 c 0.12,-0.27 0.19,-0.53 0.19,-0.67 0,-0.25 -0.17,-0.33 -0.7,-0.34 v -0.19 h 2.54 z"
     id="path6989" /></g><g
   style="font-style:normal;font-variant:normal;font-weight:normal;font-stretch:normal;letter-spacing:normal;word-spacing:normal;text-anchor:start;fill:none;stroke:#000000;stroke-width:1.11883962;stroke-linecap:butt;stroke-linejoin:miter;stroke-miterlimit:10.43299961;stroke-opacity:1;stroke-dasharray:none;stroke-dashoffset:0"
   ns0:preamble="/home/sriranga/Desktop/MCT/package.tex"
   ns0:text="50 $\\mu$A"
   word-spacing="normal"
   letter-spacing="normal"
   font-size-adjust="none"
   font-stretch="normal"
   font-weight="normal"
   font-variant="normal"
   font-style="normal"
   stroke-miterlimit="10.433"
   xml:space="preserve"
   transform="matrix(1.0725913,0,0,1.0724882,-106.35502,-588.14329)"
   id="g7443"><path
     id="path7445"
     d="m 225.23,712.92 h 1.95 c 0.16,0 0.2,0.02 0.23,0.09 l 0.38,0.88 -0.09,0.07 c -0.15,-0.21 -0.25,-0.26 -0.46,-0.26 h -2.08 l -1.08,-2.35 c -0.01,-0.02 -0.01,-0.03 -0.01,-0.05 0,-0.05 0.04,-0.08 0.12,-0.08 0.32,0 0.71,-0.07 1.12,-0.2 1.15,-0.37 1.67,-0.98 1.67,-1.97 0,-0.95 -0.6,-1.7 -1.38,-1.7 -0.2,0 -0.37,0.07 -0.67,0.29 -0.31,0.23 -0.54,0.33 -0.75,0.33 -0.29,0 -0.43,-0.12 -0.43,-0.37 0,-0.38 0.47,-0.61 1.21,-0.61 0.84,0 1.56,0.26 2.05,0.77 0.46,0.45 0.67,1.01 0.67,1.77 0,0.71 -0.19,1.17 -0.69,1.67 -0.43,0.44 -1,0.66 -2.17,0.87 z"
     inkscape:connector-curvature="0"
     style="fill:#000000;stroke-width:0" /><path
     id="path7447"
     d="m 230.94,713.84 -0.05,0 -0.05,0 -0.05,0 -0.05,-0.01 -0.05,0 -0.04,-0.01 -0.05,0 -0.05,-0.01 -0.04,-0.01 -0.05,-0.01 -0.04,-0.01 -0.05,-0.01 -0.04,-0.01 -0.04,-0.02 -0.04,-0.01 -0.04,-0.02 -0.04,-0.01 -0.04,-0.02 -0.04,-0.02 -0.04,-0.02 -0.04,-0.02 -0.04,-0.02 -0.04,-0.03 -0.04,-0.02 -0.03,-0.02 -0.04,-0.03 -0.04,-0.03 -0.03,-0.02 -0.04,-0.03 -0.03,-0.03 -0.04,-0.03 -0.03,-0.04 c -0.58,-0.55 -0.96,-1.7 -0.96,-2.86 0,-1.08 0.33,-2.24 0.8,-2.8 0.37,-0.44 0.87,-0.67 1.45,-0.67 v 0.25 c -0.86,0 -1.29,1.07 -1.29,3.13 0,2.11 0.44,3.21 1.3,3.21 h 0 c 0.84,0 1.28,-1.12 1.28,-3.2 0,-2.07 -0.43,-3.14 -1.29,-3.14 v -0.25 c 0.51,0 0.94,0.17 1.29,0.51 0.58,0.55 0.96,1.7 0.96,2.9 0,2.04 -0.91,3.44 -2.21,3.44 z"
     inkscape:connector-curvature="0"
     style="fill:#000000;stroke-width:0" /><path
     id="path7449"
     d="m 240.81,707.89 0,0.01 0,0 0,0.01 0,0 0,0.01 0,0 0,0 0,0.01 0,0 0,0.01 0,0 0,0 -0.01,0.01 0,0 0,0 0,0.01 0,0 0,0 0,0 0,0.01 -0.01,0 0,0 0,0 0,0 0,0 -0.01,0.01 0,0 0,0 0,0 0,0 -0.01,0 0,0 c -0.15,0 -0.14,-0.59 -0.68,-0.59 -0.15,0 -0.21,0.13 -0.21,0.32 0,0.26 0.1,0.64 0.2,1.03 l 0.7,2.77 -0.87,-0.15 -0.79,-2.99 c -0.02,-0.05 -0.61,-0.88 -1.22,-0.88 -0.56,0 -0.74,0.52 -0.74,0.91 0,0.12 0.02,0.22 0.04,0.31 l 0.7,2.8 -0.73,-0.13 -1.09,-4.26 c -0.2,-0.8 -0.6,-1.87 -0.68,-2.05 h 0.87 l 0.64,2.48 h 0.01 c 0,-0.01 0.04,-0.53 0.76,-0.53 0.79,0 1.28,0.78 1.38,0.9 -0.01,-0.08 -0.02,-0.15 -0.02,-0.22 0,-0.65 0.61,-0.68 0.78,-0.68 h 0.03 c 0.68,0 0.96,0.64 0.96,0.87 z"
     inkscape:connector-curvature="0"
     style="fill:#000000;stroke-width:0" /><path
     id="path7451"
     d="m 248.24,707.31 -0.04,0.01 -0.04,0 -0.04,0 -0.03,0.01 -0.04,0.01 -0.03,0 -0.03,0.01 -0.03,0.01 -0.03,0.01 -0.03,0.01 -0.02,0.01 -0.03,0.02 -0.02,0.01 -0.03,0.02 -0.02,0.02 -0.03,0.02 -0.02,0.03 -0.02,0.02 -0.03,0.03 -0.02,0.03 -0.02,0.03 -0.02,0.04 -0.03,0.04 -0.02,0.04 -0.03,0.04 -0.02,0.05 -0.03,0.05 -0.03,0.05 -0.02,0.06 -0.03,0.06 -0.02,0.03 -0.01,0.03 -0.02,0.03 -0.02,0.04 -2.47,5.64 h -0.2 l -2.07,-4.88 c -0.64,-1.45 -0.76,-1.61 -1.24,-1.63 v -0.19 h 1.97 v 0.19 c -0.47,0 -0.67,0.13 -0.67,0.41 0,0.12 0.03,0.26 0.08,0.39 l 0.46,1.16 h 2.6 l -0.14,0.41 h -2.3 l 1.15,2.73 1.15,-2.73 0.14,-0.41 0.41,-0.95 c 0.12,-0.27 0.19,-0.53 0.19,-0.67 0,-0.25 -0.17,-0.33 -0.7,-0.34 v -0.19 h 2.54 z"
     inkscape:connector-curvature="0"
     style="fill:#000000;stroke-width:0" /></g><g
   id="g7915"
   transform="matrix(1.0725913,0,0,1.0724882,-89.239445,-606.44855)"
   xml:space="preserve"
   stroke-miterlimit="10.433"
   font-style="normal"
   font-variant="normal"
   font-weight="normal"
   font-stretch="normal"
   font-size-adjust="none"
   letter-spacing="normal"
   word-spacing="normal"
   ns0:text="40 $\\mu$A"
   ns0:preamble="/home/sriranga/Desktop/MCT/package.tex"
   style="font-style:normal;font-variant:normal;font-weight:normal;font-stretch:normal;letter-spacing:normal;word-spacing:normal;text-anchor:start;fill:none;stroke:#000000;stroke-width:1.11883962;stroke-linecap:butt;stroke-linejoin:miter;stroke-miterlimit:10.43299961;stroke-opacity:1;stroke-dasharray:none;stroke-dashoffset:0"><polygon
     points="223.55,709.42 223.95,709.42 226.34,712.83 226.34,709.42 223.95,709.42 223.55,709.42 223.55,708.78 226.35,708.78 226.35,707.12 227.11,707.12 227.11,708.78 228.13,708.78 228.13,709.42 227.11,709.42 227.11,713.84 226.68,713.84 "
     id="polygon7917"
     style="fill:#000000;stroke-width:0" /><path
     d="m 230.94,713.84 -0.05,0 -0.05,0 -0.05,0 -0.05,-0.01 -0.05,0 -0.04,-0.01 -0.05,0 -0.05,-0.01 -0.04,-0.01 -0.05,-0.01 -0.04,-0.01 -0.05,-0.01 -0.04,-0.01 -0.04,-0.02 -0.04,-0.01 -0.04,-0.02 -0.04,-0.01 -0.04,-0.02 -0.04,-0.02 -0.04,-0.02 -0.04,-0.02 -0.04,-0.02 -0.04,-0.03 -0.04,-0.02 -0.03,-0.02 -0.04,-0.03 -0.04,-0.03 -0.03,-0.02 -0.04,-0.03 -0.03,-0.03 -0.04,-0.03 -0.03,-0.04 c -0.58,-0.55 -0.96,-1.7 -0.96,-2.86 0,-1.08 0.33,-2.24 0.8,-2.8 0.37,-0.44 0.87,-0.67 1.45,-0.67 v 0.25 c -0.86,0 -1.29,1.07 -1.29,3.13 0,2.11 0.44,3.21 1.3,3.21 h 0 c 0.84,0 1.28,-1.12 1.28,-3.2 0,-2.07 -0.43,-3.14 -1.29,-3.14 v -0.25 c 0.51,0 0.94,0.17 1.29,0.51 0.58,0.55 0.96,1.7 0.96,2.9 0,2.04 -0.91,3.44 -2.21,3.44 z"
     id="path7919"
     inkscape:connector-curvature="0"
     style="fill:#000000;stroke-width:0" /><path
     d="m 240.81,707.89 0,0.01 0,0 0,0.01 0,0 0,0.01 0,0 0,0 0,0.01 0,0 0,0.01 0,0 0,0 -0.01,0.01 0,0 0,0 0,0.01 0,0 0,0 0,0 0,0.01 -0.01,0 0,0 0,0 0,0 0,0 -0.01,0.01 0,0 0,0 0,0 0,0 -0.01,0 0,0 c -0.15,0 -0.14,-0.59 -0.68,-0.59 -0.15,0 -0.21,0.13 -0.21,0.32 0,0.26 0.1,0.64 0.2,1.03 l 0.7,2.77 -0.87,-0.15 -0.79,-2.99 c -0.02,-0.05 -0.61,-0.88 -1.22,-0.88 -0.56,0 -0.74,0.52 -0.74,0.91 0,0.12 0.02,0.22 0.04,0.31 l 0.7,2.8 -0.73,-0.13 -1.09,-4.26 c -0.2,-0.8 -0.6,-1.87 -0.68,-2.05 h 0.87 l 0.64,2.48 h 0.01 c 0,-0.01 0.04,-0.53 0.76,-0.53 0.79,0 1.28,0.78 1.38,0.9 -0.01,-0.08 -0.02,-0.15 -0.02,-0.22 0,-0.65 0.61,-0.68 0.78,-0.68 h 0.03 c 0.68,0 0.96,0.64 0.96,0.87 z"
     id="path7921"
     inkscape:connector-curvature="0"
     style="fill:#000000;stroke-width:0" /><path
     d="m 248.24,707.31 -0.04,0.01 -0.04,0 -0.04,0 -0.03,0.01 -0.04,0.01 -0.03,0 -0.03,0.01 -0.03,0.01 -0.03,0.01 -0.03,0.01 -0.02,0.01 -0.03,0.02 -0.02,0.01 -0.03,0.02 -0.02,0.02 -0.03,0.02 -0.02,0.03 -0.02,0.02 -0.03,0.03 -0.02,0.03 -0.02,0.03 -0.02,0.04 -0.03,0.04 -0.02,0.04 -0.03,0.04 -0.02,0.05 -0.03,0.05 -0.03,0.05 -0.02,0.06 -0.03,0.06 -0.02,0.03 -0.01,0.03 -0.02,0.03 -0.02,0.04 -2.47,5.64 h -0.2 l -2.07,-4.88 c -0.64,-1.45 -0.76,-1.61 -1.24,-1.63 v -0.19 h 1.97 v 0.19 c -0.47,0 -0.67,0.13 -0.67,0.41 0,0.12 0.03,0.26 0.08,0.39 l 0.46,1.16 h 2.6 l -0.14,0.41 h -2.3 l 1.15,2.73 1.15,-2.73 0.14,-0.41 0.41,-0.95 c 0.12,-0.27 0.19,-0.53 0.19,-0.67 0,-0.25 -0.17,-0.33 -0.7,-0.34 v -0.19 h 2.54 z"
     id="path7923"
     inkscape:connector-curvature="0"
     style="fill:#000000;stroke-width:0" /></g><g
   style="font-style:normal;font-variant:normal;font-weight:normal;font-stretch:normal;letter-spacing:normal;word-spacing:normal;text-anchor:start;fill:none;stroke:#000000;stroke-width:1.11883962;stroke-linecap:butt;stroke-linejoin:miter;stroke-miterlimit:10.43299961;stroke-opacity:1;stroke-dasharray:none;stroke-dashoffset:0"
   ns0:preamble="/home/sriranga/Desktop/MCT/package.tex"
   ns0:text="30 $\\mu$A"
   word-spacing="normal"
   letter-spacing="normal"
   font-size-adjust="none"
   font-stretch="normal"
   font-weight="normal"
   font-variant="normal"
   font-style="normal"
   stroke-miterlimit="10.433"
   xml:space="preserve"
   transform="matrix(1.0725913,0,0,1.0724882,-80.781811,-627.17705)"
   id="g8397"><path
     id="path8399"
     d="m 224.95,710.4 0.06,0 0.05,0 0.05,0 0.05,0 0.04,0 0.05,0 0.04,0 0.04,0 0.04,0 0.04,0 0.04,-0.01 0.03,0 0.04,0 0.03,0 0.03,-0.01 0.03,0 0.03,0 0.03,0 0.03,-0.01 0.02,0 0.03,-0.01 0.03,0 0.05,-0.01 0.04,-0.01 0.05,-0.02 0.04,-0.01 0.05,-0.02 c 0.62,-0.21 1,-0.78 1,-1.47 0,-0.83 -0.56,-1.48 -1.3,-1.48 -0.27,0 -0.47,0.07 -0.83,0.31 -0.3,0.18 -0.47,0.25 -0.64,0.25 -0.23,0 -0.38,-0.14 -0.38,-0.35 0,-0.35 0.43,-0.56 1.12,-0.56 0.77,0 1.56,0.25 2.02,0.66 0.47,0.41 0.73,0.99 0.73,1.65 0,0.51 -0.16,0.97 -0.45,1.28 -0.2,0.22 -0.39,0.34 -0.82,0.53 0.68,0.47 0.93,0.83 0.93,1.37 0,0.8 -0.63,1.36 -1.55,1.36 -0.5,0 -0.94,-0.17 -1.29,-0.49 -0.3,-0.26 -0.45,-0.52 -0.67,-1.12 l 0.15,-0.04 c 0.41,0.73 0.85,1.05 1.48,1.05 0.65,0 1.1,-0.43 1.1,-1.06 0,-0.36 -0.15,-0.71 -0.4,-0.96 -0.3,-0.3 -0.58,-0.45 -1.26,-0.69 z"
     inkscape:connector-curvature="0"
     style="fill:#000000;stroke-width:0" /><path
     id="path8401"
     d="m 230.94,713.84 -0.05,0 -0.05,0 -0.05,0 -0.05,-0.01 -0.05,0 -0.04,-0.01 -0.05,0 -0.05,-0.01 -0.04,-0.01 -0.05,-0.01 -0.04,-0.01 -0.05,-0.01 -0.04,-0.01 -0.04,-0.02 -0.04,-0.01 -0.04,-0.02 -0.04,-0.01 -0.04,-0.02 -0.04,-0.02 -0.04,-0.02 -0.04,-0.02 -0.04,-0.02 -0.04,-0.03 -0.04,-0.02 -0.03,-0.02 -0.04,-0.03 -0.04,-0.03 -0.03,-0.02 -0.04,-0.03 -0.03,-0.03 -0.04,-0.03 -0.03,-0.04 c -0.58,-0.55 -0.96,-1.7 -0.96,-2.86 0,-1.08 0.33,-2.24 0.8,-2.8 0.37,-0.44 0.87,-0.67 1.45,-0.67 v 0.25 c -0.86,0 -1.29,1.07 -1.29,3.13 0,2.11 0.44,3.21 1.3,3.21 h 0 c 0.84,0 1.28,-1.12 1.28,-3.2 0,-2.07 -0.43,-3.14 -1.29,-3.14 v -0.25 c 0.51,0 0.94,0.17 1.29,0.51 0.58,0.55 0.96,1.7 0.96,2.9 0,2.04 -0.91,3.44 -2.21,3.44 z"
     inkscape:connector-curvature="0"
     style="fill:#000000;stroke-width:0" /><path
     id="path8403"
     d="m 240.81,707.89 0,0.01 0,0 0,0.01 0,0 0,0.01 0,0 0,0 0,0.01 0,0 0,0.01 0,0 0,0 -0.01,0.01 0,0 0,0 0,0.01 0,0 0,0 0,0 0,0.01 -0.01,0 0,0 0,0 0,0 0,0 -0.01,0.01 0,0 0,0 0,0 0,0 -0.01,0 0,0 c -0.15,0 -0.14,-0.59 -0.68,-0.59 -0.15,0 -0.21,0.13 -0.21,0.32 0,0.26 0.1,0.64 0.2,1.03 l 0.7,2.77 -0.87,-0.15 -0.79,-2.99 c -0.02,-0.05 -0.61,-0.88 -1.22,-0.88 -0.56,0 -0.74,0.52 -0.74,0.91 0,0.12 0.02,0.22 0.04,0.31 l 0.7,2.8 -0.73,-0.13 -1.09,-4.26 c -0.2,-0.8 -0.6,-1.87 -0.68,-2.05 h 0.87 l 0.64,2.48 h 0.01 c 0,-0.01 0.04,-0.53 0.76,-0.53 0.79,0 1.28,0.78 1.38,0.9 -0.01,-0.08 -0.02,-0.15 -0.02,-0.22 0,-0.65 0.61,-0.68 0.78,-0.68 h 0.03 c 0.68,0 0.96,0.64 0.96,0.87 z"
     inkscape:connector-curvature="0"
     style="fill:#000000;stroke-width:0" /><path
     id="path8405"
     d="m 248.24,707.31 -0.04,0.01 -0.04,0 -0.04,0 -0.03,0.01 -0.04,0.01 -0.03,0 -0.03,0.01 -0.03,0.01 -0.03,0.01 -0.03,0.01 -0.02,0.01 -0.03,0.02 -0.02,0.01 -0.03,0.02 -0.02,0.02 -0.03,0.02 -0.02,0.03 -0.02,0.02 -0.03,0.03 -0.02,0.03 -0.02,0.03 -0.02,0.04 -0.03,0.04 -0.02,0.04 -0.03,0.04 -0.02,0.05 -0.03,0.05 -0.03,0.05 -0.02,0.06 -0.03,0.06 -0.02,0.03 -0.01,0.03 -0.02,0.03 -0.02,0.04 -2.47,5.64 h -0.2 l -2.07,-4.88 c -0.64,-1.45 -0.76,-1.61 -1.24,-1.63 v -0.19 h 1.97 v 0.19 c -0.47,0 -0.67,0.13 -0.67,0.41 0,0.12 0.03,0.26 0.08,0.39 l 0.46,1.16 h 2.6 l -0.14,0.41 h -2.3 l 1.15,2.73 1.15,-2.73 0.14,-0.41 0.41,-0.95 c 0.12,-0.27 0.19,-0.53 0.19,-0.67 0,-0.25 -0.17,-0.33 -0.7,-0.34 v -0.19 h 2.54 z"
     inkscape:connector-curvature="0"
     style="fill:#000000;stroke-width:0" /></g><g
   id="g8889"
   transform="matrix(1.0725913,0,0,1.0724882,-61.754605,-651.77784)"
   xml:space="preserve"
   stroke-miterlimit="10.433"
   font-style="normal"
   font-variant="normal"
   font-weight="normal"
   font-stretch="normal"
   font-size-adjust="none"
   letter-spacing="normal"
   word-spacing="normal"
   ns0:text="20 $\\mu$A"
   ns0:preamble="/home/sriranga/Desktop/MCT/package.tex"
   style="font-style:normal;font-variant:normal;font-weight:normal;font-stretch:normal;letter-spacing:normal;word-spacing:normal;text-anchor:start;fill:none;stroke:#000000;stroke-width:1.11883962;stroke-linecap:butt;stroke-linejoin:miter;stroke-miterlimit:10.43299961;stroke-opacity:1;stroke-dasharray:none;stroke-dashoffset:0"><path
     d="m 228.16,708.49 -0.13,0.05 c -0.37,-0.57 -0.5,-0.66 -0.95,-0.66 h -2.37 l 1.67,1.75 c 0.88,0.92 1.27,1.68 1.27,2.45 0,1 -0.8,1.76 -1.84,1.76 -0.55,0 -1.07,-0.22 -1.43,-0.62 -0.32,-0.33 -0.47,-0.65 -0.64,-1.36 l 0.21,-0.05 c 0.4,0.98 0.76,1.29 1.44,1.29 0.84,0 1.4,-0.56 1.4,-1.39 0,-0.78 -0.45,-1.7 -1.29,-2.59 l -1.77,-1.88 v -0.12 h 3.88 z"
     id="path8891"
     inkscape:connector-curvature="0"
     style="fill:#000000;stroke-width:0" /><path
     d="m 230.94,713.84 -0.05,0 -0.05,0 -0.05,0 -0.05,-0.01 -0.05,0 -0.04,-0.01 -0.05,0 -0.05,-0.01 -0.04,-0.01 -0.05,-0.01 -0.04,-0.01 -0.05,-0.01 -0.04,-0.01 -0.04,-0.02 -0.04,-0.01 -0.04,-0.02 -0.04,-0.01 -0.04,-0.02 -0.04,-0.02 -0.04,-0.02 -0.04,-0.02 -0.04,-0.02 -0.04,-0.03 -0.04,-0.02 -0.03,-0.02 -0.04,-0.03 -0.04,-0.03 -0.03,-0.02 -0.04,-0.03 -0.03,-0.03 -0.04,-0.03 -0.03,-0.04 c -0.58,-0.55 -0.96,-1.7 -0.96,-2.86 0,-1.08 0.33,-2.24 0.8,-2.8 0.37,-0.44 0.87,-0.67 1.45,-0.67 v 0.25 c -0.86,0 -1.29,1.07 -1.29,3.13 0,2.11 0.44,3.21 1.3,3.21 h 0 c 0.84,0 1.28,-1.12 1.28,-3.2 0,-2.07 -0.43,-3.14 -1.29,-3.14 v -0.25 c 0.51,0 0.94,0.17 1.29,0.51 0.58,0.55 0.96,1.7 0.96,2.9 0,2.04 -0.91,3.44 -2.21,3.44 z"
     id="path8893"
     inkscape:connector-curvature="0"
     style="fill:#000000;stroke-width:0" /><path
     d="m 240.81,707.89 0,0.01 0,0 0,0.01 0,0 0,0.01 0,0 0,0 0,0.01 0,0 0,0.01 0,0 0,0 -0.01,0.01 0,0 0,0 0,0.01 0,0 0,0 0,0 0,0.01 -0.01,0 0,0 0,0 0,0 0,0 -0.01,0.01 0,0 0,0 0,0 0,0 -0.01,0 0,0 c -0.15,0 -0.14,-0.59 -0.68,-0.59 -0.15,0 -0.21,0.13 -0.21,0.32 0,0.26 0.1,0.64 0.2,1.03 l 0.7,2.77 -0.87,-0.15 -0.79,-2.99 c -0.02,-0.05 -0.61,-0.88 -1.22,-0.88 -0.56,0 -0.74,0.52 -0.74,0.91 0,0.12 0.02,0.22 0.04,0.31 l 0.7,2.8 -0.73,-0.13 -1.09,-4.26 c -0.2,-0.8 -0.6,-1.87 -0.68,-2.05 h 0.87 l 0.64,2.48 h 0.01 c 0,-0.01 0.04,-0.53 0.76,-0.53 0.79,0 1.28,0.78 1.38,0.9 -0.01,-0.08 -0.02,-0.15 -0.02,-0.22 0,-0.65 0.61,-0.68 0.78,-0.68 h 0.03 c 0.68,0 0.96,0.64 0.96,0.87 z"
     id="path8895"
     inkscape:connector-curvature="0"
     style="fill:#000000;stroke-width:0" /><path
     d="m 248.24,707.31 -0.04,0.01 -0.04,0 -0.04,0 -0.03,0.01 -0.04,0.01 -0.03,0 -0.03,0.01 -0.03,0.01 -0.03,0.01 -0.03,0.01 -0.02,0.01 -0.03,0.02 -0.02,0.01 -0.03,0.02 -0.02,0.02 -0.03,0.02 -0.02,0.03 -0.02,0.02 -0.03,0.03 -0.02,0.03 -0.02,0.03 -0.02,0.04 -0.03,0.04 -0.02,0.04 -0.03,0.04 -0.02,0.05 -0.03,0.05 -0.03,0.05 -0.02,0.06 -0.03,0.06 -0.02,0.03 -0.01,0.03 -0.02,0.03 -0.02,0.04 -2.47,5.64 h -0.2 l -2.07,-4.88 c -0.64,-1.45 -0.76,-1.61 -1.24,-1.63 v -0.19 h 1.97 v 0.19 c -0.47,0 -0.67,0.13 -0.67,0.41 0,0.12 0.03,0.26 0.08,0.39 l 0.46,1.16 h 2.6 l -0.14,0.41 h -2.3 l 1.15,2.73 1.15,-2.73 0.14,-0.41 0.41,-0.95 c 0.12,-0.27 0.19,-0.53 0.19,-0.67 0,-0.25 -0.17,-0.33 -0.7,-0.34 v -0.19 h 2.54 z"
     id="path8897"
     inkscape:connector-curvature="0"
     style="fill:#000000;stroke-width:0" /></g><g
   style="font-style:normal;font-variant:normal;font-weight:normal;font-stretch:normal;letter-spacing:normal;word-spacing:normal;text-anchor:start;fill:none;stroke:#000000;stroke-width:1.11883962;stroke-linecap:butt;stroke-linejoin:miter;stroke-miterlimit:10.43299961;stroke-opacity:1;stroke-dasharray:none;stroke-dashoffset:0"
   ns0:preamble="/home/sriranga/Desktop/MCT/package.tex"
   ns0:text="10 $\\mu$A"
   word-spacing="normal"
   letter-spacing="normal"
   font-size-adjust="none"
   font-stretch="normal"
   font-weight="normal"
   font-variant="normal"
   font-style="normal"
   stroke-miterlimit="10.433"
   xml:space="preserve"
   transform="matrix(1.0725913,0,0,1.0724882,-40.778683,-677.56568)"
   id="g9391"><path
     id="path9393"
     d="m 226.33,713.84 -1.79,-0.9 v -0.14 c 0.12,0.05 0.22,0.09 0.26,0.11 0.18,0.07 0.35,0.11 0.45,0.11 0.21,0 0.3,-0.15 0.3,-0.47 v -4.5 c 0,-0.33 -0.08,-0.56 -0.24,-0.65 -0.15,-0.09 -0.29,-0.12 -0.7,-0.13 v -0.15 h 2.74 v 0.15 c -0.78,0.01 -0.94,0.11 -0.94,0.59 v 5.96 z"
     inkscape:connector-curvature="0"
     style="fill:#000000;stroke-width:0" /><path
     id="path9395"
     d="m 230.94,713.84 -0.05,0 -0.05,0 -0.05,0 -0.05,-0.01 -0.05,0 -0.04,-0.01 -0.05,0 -0.05,-0.01 -0.04,-0.01 -0.05,-0.01 -0.04,-0.01 -0.05,-0.01 -0.04,-0.01 -0.04,-0.02 -0.04,-0.01 -0.04,-0.02 -0.04,-0.01 -0.04,-0.02 -0.04,-0.02 -0.04,-0.02 -0.04,-0.02 -0.04,-0.02 -0.04,-0.03 -0.04,-0.02 -0.03,-0.02 -0.04,-0.03 -0.04,-0.03 -0.03,-0.02 -0.04,-0.03 -0.03,-0.03 -0.04,-0.03 -0.03,-0.04 c -0.58,-0.55 -0.96,-1.7 -0.96,-2.86 0,-1.08 0.33,-2.24 0.8,-2.8 0.37,-0.44 0.87,-0.67 1.45,-0.67 v 0.25 c -0.86,0 -1.29,1.07 -1.29,3.13 0,2.11 0.44,3.21 1.3,3.21 h 0 c 0.84,0 1.28,-1.12 1.28,-3.2 0,-2.07 -0.43,-3.14 -1.29,-3.14 v -0.25 c 0.51,0 0.94,0.17 1.29,0.51 0.58,0.55 0.96,1.7 0.96,2.9 0,2.04 -0.91,3.44 -2.21,3.44 z"
     inkscape:connector-curvature="0"
     style="fill:#000000;stroke-width:0" /><path
     id="path9397"
     d="m 240.81,707.89 0,0.01 0,0 0,0.01 0,0 0,0.01 0,0 0,0 0,0.01 0,0 0,0.01 0,0 0,0 -0.01,0.01 0,0 0,0 0,0.01 0,0 0,0 0,0 0,0.01 -0.01,0 0,0 0,0 0,0 0,0 -0.01,0.01 0,0 0,0 0,0 0,0 -0.01,0 0,0 c -0.15,0 -0.14,-0.59 -0.68,-0.59 -0.15,0 -0.21,0.13 -0.21,0.32 0,0.26 0.1,0.64 0.2,1.03 l 0.7,2.77 -0.87,-0.15 -0.79,-2.99 c -0.02,-0.05 -0.61,-0.88 -1.22,-0.88 -0.56,0 -0.74,0.52 -0.74,0.91 0,0.12 0.02,0.22 0.04,0.31 l 0.7,2.8 -0.73,-0.13 -1.09,-4.26 c -0.2,-0.8 -0.6,-1.87 -0.68,-2.05 h 0.87 l 0.64,2.48 h 0.01 c 0,-0.01 0.04,-0.53 0.76,-0.53 0.79,0 1.28,0.78 1.38,0.9 -0.01,-0.08 -0.02,-0.15 -0.02,-0.22 0,-0.65 0.61,-0.68 0.78,-0.68 h 0.03 c 0.68,0 0.96,0.64 0.96,0.87 z"
     inkscape:connector-curvature="0"
     style="fill:#000000;stroke-width:0" /><path
     id="path9399"
     d="m 248.24,707.31 -0.04,0.01 -0.04,0 -0.04,0 -0.03,0.01 -0.04,0.01 -0.03,0 -0.03,0.01 -0.03,0.01 -0.03,0.01 -0.03,0.01 -0.02,0.01 -0.03,0.02 -0.02,0.01 -0.03,0.02 -0.02,0.02 -0.03,0.02 -0.02,0.03 -0.02,0.02 -0.03,0.03 -0.02,0.03 -0.02,0.03 -0.02,0.04 -0.03,0.04 -0.02,0.04 -0.03,0.04 -0.02,0.05 -0.03,0.05 -0.03,0.05 -0.02,0.06 -0.03,0.06 -0.02,0.03 -0.01,0.03 -0.02,0.03 -0.02,0.04 -2.47,5.64 h -0.2 l -2.07,-4.88 c -0.64,-1.45 -0.76,-1.61 -1.24,-1.63 v -0.19 h 1.97 v 0.19 c -0.47,0 -0.67,0.13 -0.67,0.41 0,0.12 0.03,0.26 0.08,0.39 l 0.46,1.16 h 2.6 l -0.14,0.41 h -2.3 l 1.15,2.73 1.15,-2.73 0.14,-0.41 0.41,-0.95 c 0.12,-0.27 0.19,-0.53 0.19,-0.67 0,-0.25 -0.17,-0.33 -0.7,-0.34 v -0.19 h 2.54 z"
     inkscape:connector-curvature="0"
     style="fill:#000000;stroke-width:0" /></g><g
   id="g9903"
   transform="matrix(1.0725913,0,0,1.0724882,-19.46422,-704.59731)"
   xml:space="preserve"
   stroke-miterlimit="10.433"
   font-style="normal"
   font-variant="normal"
   font-weight="normal"
   font-stretch="normal"
   font-size-adjust="none"
   letter-spacing="normal"
   word-spacing="normal"
   ns0:text="$I_B= 0 \\mu$A"
   ns0:preamble="/home/sriranga/Desktop/MCT/package.tex"
   style="font-style:normal;font-variant:normal;font-weight:normal;font-stretch:normal;letter-spacing:normal;word-spacing:normal;text-anchor:start;fill:none;stroke:#000000;stroke-width:1.11883962;stroke-linecap:butt;stroke-linejoin:miter;stroke-miterlimit:10.43299961;stroke-opacity:1;stroke-dasharray:none;stroke-dashoffset:0"><path
     d="m 223.6,707.12 h 2.43 v 0.16 c -0.57,0.07 -0.68,0.13 -0.68,0.41 0,0.19 0.02,0.31 0.11,0.63 l 1.23,4.4 c 0.18,0.57 0.24,0.63 0.81,0.73 v 0.16 h -2.46 v -0.16 c 0.58,-0.07 0.7,-0.15 0.7,-0.42 0,-0.14 -0.04,-0.37 -0.11,-0.62 l -1.22,-4.39 c -0.18,-0.58 -0.25,-0.64 -0.81,-0.74 z"
     id="path9905"
     inkscape:connector-curvature="0"
     style="fill:#000000;stroke-width:0" /><path
     d="m 227.19,705.63 h 1.96 c 1.09,0 1.85,0.57 1.85,1.39 0,0.26 -0.09,0.5 -0.24,0.65 -0.14,0.17 -0.28,0.25 -0.64,0.4 0.49,0.12 0.7,0.2 0.92,0.4 0.19,0.17 0.3,0.4 0.3,0.68 0,0.66 -0.5,1.02 -1.39,1.02 l -0.13,-0.21 c 0.56,0 0.81,-0.23 0.81,-0.75 0,-0.39 -0.16,-0.7 -0.46,-0.87 -0.24,-0.14 -0.57,-0.18 -1.2,-0.18 l -0.07,-0.23 c 0.45,0 0.75,-0.02 0.89,-0.08 0.28,-0.12 0.45,-0.43 0.45,-0.8 0,-0.75 -0.51,-1.21 -1.36,-1.21 -0.29,0 -0.45,0.1 -0.45,0.29 0,0.09 0.09,0.42 0.25,0.97 0.09,0.32 0.13,0.48 0.22,0.83 h 0 l 0.07,0.23 0.45,1.61 c 0.04,0.15 0.13,0.19 0.4,0.19 l 0.13,0.21 h -1.8 v -0.11 c 0.43,-0.03 0.53,-0.09 0.53,-0.28 0,-0.11 -0.02,-0.28 -0.07,-0.45 l -0.86,-3.07 c -0.12,-0.41 -0.17,-0.45 -0.56,-0.52 z"
     id="path9907"
     inkscape:connector-curvature="0"
     style="fill:#000000;stroke-width:0" /><polygon
     points="240.41,710.4 240.41,710.96 235.32,710.96 235.32,710.4 "
     id="polygon9909"
     style="fill:#000000;stroke-width:0" /><polygon
     points="240.41,708.39 240.41,708.94 235.32,708.94 235.32,708.39 "
     id="polygon9911"
     style="fill:#000000;stroke-width:0" /><path
     d="m 246.33,713.84 -0.05,0 -0.05,0 -0.05,0 -0.05,-0.01 -0.05,0 -0.04,-0.01 -0.05,0 -0.05,-0.01 -0.04,-0.01 -0.05,-0.01 -0.04,-0.01 -0.05,-0.01 -0.04,-0.01 -0.04,-0.02 -0.04,-0.01 -0.04,-0.02 -0.04,-0.01 -0.04,-0.02 -0.04,-0.02 -0.04,-0.02 -0.04,-0.02 -0.04,-0.02 -0.04,-0.03 -0.04,-0.02 -0.03,-0.02 -0.04,-0.03 -0.04,-0.03 -0.03,-0.02 -0.04,-0.03 -0.03,-0.03 -0.04,-0.03 -0.03,-0.04 c -0.58,-0.55 -0.96,-1.7 -0.96,-2.86 0,-1.08 0.33,-2.24 0.8,-2.8 0.37,-0.44 0.87,-0.67 1.45,-0.67 v 0.25 c -0.86,0 -1.29,1.07 -1.29,3.13 0,2.11 0.45,3.21 1.3,3.21 h 0 c 0.84,0 1.28,-1.12 1.28,-3.2 0,-2.07 -0.43,-3.14 -1.29,-3.14 v -0.25 c 0.51,0 0.94,0.17 1.29,0.51 0.58,0.55 0.96,1.7 0.96,2.9 0,2.04 -0.91,3.44 -2.21,3.44 z"
     id="path9913"
     inkscape:connector-curvature="0"
     style="fill:#000000;stroke-width:0" /><path
     d="m 255.03804,707.89 0,0.01 0,0 0,0.01 0,0 0,0.01 0,0 0,0 0,0.01 0,0 0,0.01 0,0 -0.01,0 0,0.01 0,0 0,0 0,0.01 0,0 0,0 0,0 -0.01,0.01 0,0 0,0 0,0 0,0 0,0 -0.01,0.01 0,0 0,0 0,0 -0.01,0 0,0 0,0 c -0.15,0 -0.14,-0.59 -0.68,-0.59 -0.15,0 -0.21,0.13 -0.21,0.32 0,0.26 0.1,0.64 0.2,1.03 l 0.7,2.77 -0.87,-0.15 -0.79,-2.99 c -0.02,-0.05 -0.61,-0.88 -1.22,-0.88 -0.56,0 -0.74,0.52 -0.74,0.91 0,0.12 0.02,0.22 0.04,0.31 l 0.7,2.8 -0.73,-0.13 -1.09,-4.26 c -0.21,-0.8 -0.6,-1.87 -0.68,-2.05 h 0.87 l 0.64,2.48 h 0.01 c 0,-0.01 0.04,-0.53 0.75,-0.53 0.8,0 1.29,0.78 1.39,0.9 -0.01,-0.08 -0.02,-0.15 -0.02,-0.22 0,-0.65 0.6,-0.68 0.77,-0.68 h 0.03 c 0.69,0 0.97,0.64 0.97,0.87 z"
     id="path9915"
     inkscape:connector-curvature="0"
     style="fill:#000000;stroke-width:0" /><path
     d="m 262.46804,707.31 -0.04,0.01 -0.04,0 -0.04,0 -0.03,0.01 -0.04,0.01 -0.03,0 -0.03,0.01 -0.03,0.01 -0.03,0.01 -0.03,0.01 -0.02,0.01 -0.03,0.02 -0.03,0.01 -0.02,0.02 -0.02,0.02 -0.03,0.02 -0.02,0.03 -0.02,0.02 -0.03,0.03 -0.02,0.03 -0.02,0.03 -0.03,0.04 -0.02,0.04 -0.02,0.04 -0.03,0.04 -0.02,0.05 -0.03,0.05 -0.03,0.05 -0.03,0.06 -0.02,0.06 -0.02,0.03 -0.02,0.03 -0.01,0.03 -0.02,0.04 -2.47,5.64 h -0.2 l -2.07,-4.88 c -0.64,-1.45 -0.76,-1.61 -1.24,-1.63 v -0.19 h 1.97 v 0.19 c -0.47,0 -0.67,0.13 -0.67,0.41 0,0.12 0.03,0.26 0.08,0.39 l 0.45,1.16 h 2.61 l -0.14,0.41 h -2.3 l 1.15,2.73 1.15,-2.73 0.14,-0.41 0.41,-0.95 c 0.12,-0.27 0.19,-0.53 0.19,-0.67 0,-0.25 -0.17,-0.33 -0.7,-0.34 v -0.19 h 2.54 z"
     id="path9917"
     inkscape:connector-curvature="0"
     style="fill:#000000;stroke-width:0" /></g><g
   style="font-style:normal;font-variant:normal;font-weight:normal;font-stretch:normal;letter-spacing:normal;word-spacing:normal;text-anchor:start;fill:none;stroke:#000000;stroke-width:1.11883962;stroke-linecap:butt;stroke-linejoin:miter;stroke-miterlimit:10.43299961;stroke-opacity:1;stroke-dasharray:none;stroke-dashoffset:0"
   ns0:preamble="/home/sriranga/Desktop/MCT/package.tex"
   ns0:text="$V_{CE}$ (V)"
   word-spacing="normal"
   letter-spacing="normal"
   font-size-adjust="none"
   font-stretch="normal"
   font-weight="normal"
   font-variant="normal"
   font-style="normal"
   stroke-miterlimit="10.433"
   xml:space="preserve"
   transform="matrix(1.0725913,0,0,1.0724882,27.347148,-721.79928)"
   id="g10437"><path
     id="path10439"
     d="m 230.28,713.61 h -1.85 v -0.16 c 0.44,-0.05 0.62,-0.15 0.62,-0.34 0,-0.18 -0.19,-0.61 -0.51,-1.18 l -2.05,-3.53 -0.66,4.4 c -0.01,0.05 -0.01,0.09 -0.01,0.15 0,0.33 0.14,0.43 0.77,0.5 v 0.16 h -2.4 v -0.16 c 0.55,-0.07 0.57,-0.1 0.78,-1.34 l 0.85,-5.16 h 0.19 l 3.71,6.1 c 0.17,0.27 0.33,0.39 0.56,0.4 z"
     inkscape:connector-curvature="0"
     style="fill:#000000;stroke-width:0" /><path
     id="path10441"
     d="m 233.89,708.86 0.25,1.39 H 234 c -0.06,-0.11 -0.13,-0.16 -0.27,-0.16 -0.05,0 -0.14,0.02 -0.28,0.05 -0.32,0.08 -0.6,0.12 -0.82,0.12 -1.48,0 -2.83,-1.4 -2.83,-2.94 0,-1.06 0.76,-1.81 1.82,-1.81 0.72,0 1.28,0.3 1.9,1.03 l -0.12,0.1 c -0.62,-0.61 -1.02,-0.82 -1.6,-0.82 -0.77,0 -1.21,0.53 -1.21,1.42 0,0.83 0.33,1.67 0.87,2.24 0.34,0.34 0.78,0.53 1.24,0.53 0.64,0 0.99,-0.37 1.06,-1.12 z"
     inkscape:connector-curvature="0"
     style="fill:#000000;stroke-width:0" /><path
     id="path10443"
     d="m 238.91,710.17 h -3.46 v -0.11 c 0.43,-0.04 0.54,-0.1 0.54,-0.28 0,-0.08 -0.04,-0.32 -0.08,-0.45 l -0.85,-3.07 c -0.12,-0.4 -0.18,-0.45 -0.57,-0.52 v -0.11 h 3.53 l 0.43,1.13 -0.11,0.05 c -0.32,-0.44 -0.5,-0.62 -0.8,-0.76 -0.26,-0.12 -0.74,-0.19 -1.26,-0.19 -0.39,0 -0.56,0.07 -0.56,0.24 0,0.07 0.08,0.4 0.26,1.01 0.09,0.31 0.15,0.54 0.22,0.8 0.24,-0.01 0.46,-0.02 0.54,-0.02 0.27,0.01 0.47,-0.03 0.54,-0.1 0.04,-0.04 0.05,-0.1 0.05,-0.22 0,-0.12 -0.01,-0.21 -0.05,-0.36 l 0.14,-0.04 0.48,1.62 -0.13,0.03 c -0.26,-0.6 -0.32,-0.64 -0.96,-0.66 -0.08,0 -0.31,-0.01 -0.55,-0.02 l 0.46,1.62 c 0.04,0.15 0.12,0.18 0.51,0.18 1.09,0 1.34,-0.09 1.34,-0.51 0,-0.09 -0.01,-0.19 -0.02,-0.31 l 0.15,-0.01 z"
     inkscape:connector-curvature="0"
     style="fill:#000000;stroke-width:0" /><path
     id="path10445"
     d="m 245.02,713.84 -0.07,-0.04 -0.06,-0.05 -0.07,-0.04 -0.06,-0.04 -0.06,-0.04 -0.05,-0.04 -0.06,-0.04 -0.05,-0.03 -0.05,-0.04 -0.05,-0.04 -0.05,-0.03 -0.04,-0.04 -0.05,-0.03 -0.04,-0.04 -0.08,-0.06 -0.08,-0.07 -0.07,-0.07 -0.07,-0.07 -0.07,-0.07 -0.07,-0.07 -0.07,-0.08 -0.07,-0.08 -0.06,-0.08 c -0.71,-0.87 -1.06,-1.86 -1.06,-3.02 0,-1.26 0.37,-2.24 1.24,-3.25 0.41,-0.48 0.67,-0.7 1.19,-1.01 l 0.12,0.16 c -0.8,0.62 -1.08,0.97 -1.35,1.71 -0.23,0.67 -0.34,1.42 -0.34,2.42 0,1.04 0.13,1.86 0.39,2.47 0.28,0.62 0.58,0.97 1.3,1.55 z"
     inkscape:connector-curvature="0"
     style="fill:#000000;stroke-width:0" /><path
     id="path10447"
     d="m 252.34,713.7 h -2.04 v -0.19 c 0.54,-0.03 0.72,-0.14 0.72,-0.42 0,-0.15 -0.07,-0.42 -0.19,-0.72 l -1.46,-3.65 -1.5,3.36 c -0.33,0.73 -0.41,0.96 -0.41,1.1 0,0.19 0.14,0.29 0.46,0.31 0.04,0 0.15,0.01 0.29,0.02 v 0.19 h -2.65 v -0.19 c 0.49,-0.02 0.63,-0.16 1.05,-1.04 l 2.45,-5.45 h 0.15 l 2.21,5.57 c 0.33,0.78 0.44,0.89 0.92,0.92 z"
     inkscape:connector-curvature="0"
     style="fill:#000000;stroke-width:0" /><path
     id="path10449"
     d="m 252.97,705.37 0.07,0.04 0.06,0.04 0.07,0.05 0.06,0.04 0.06,0.04 0.05,0.03 0.06,0.04 0.05,0.04 0.05,0.04 0.05,0.03 0.05,0.04 0.04,0.03 0.05,0.04 0.04,0.03 0.08,0.07 0.08,0.07 0.07,0.07 0.07,0.07 0.07,0.07 0.07,0.07 0.07,0.08 0.07,0.08 0.06,0.08 c 0.71,0.86 1.06,1.86 1.06,3.02 0,1.27 -0.37,2.23 -1.25,3.25 -0.4,0.47 -0.66,0.69 -1.18,1.01 l -0.12,-0.16 c 0.8,-0.63 1.07,-0.97 1.35,-1.72 0.23,-0.66 0.34,-1.42 0.34,-2.41 0,-1.03 -0.13,-1.86 -0.39,-2.46 -0.28,-0.63 -0.58,-0.99 -1.3,-1.56 z"
     inkscape:connector-curvature="0"
     style="fill:#000000;stroke-width:0" /></g><text
   xml:space="preserve"
   style="font-size:9.60000038px;font-style:normal;font-variant:normal;font-weight:normal;font-stretch:normal;text-align:end;line-height:100%;letter-spacing:0px;word-spacing:0px;text-anchor:end;fill:#000000;fill-opacity:1;stroke:none;font-family:LMRoman12;-inkscape-font-specification:LMRoman12"
   x="28.251493"
   y="-37.612324"
   id="text10711"
   sodipodi:linespacing="100%"
   transform="scale(1,-1)"><tspan
     sodipodi:role="line"
     id="tspan10713"
     x="28.251493"
     y="-37.612324">0</tspan></text>

</g></svg>