<?xml version="1.0" encoding="UTF-8" standalone="no"?>
<!-- Created with Inkscape (http://www.inkscape.org/) -->

<svg
   xmlns:ns0="http://www.iki.fi/pav/software/textext/"
   xmlns:dc="http://purl.org/dc/elements/1.1/"
   xmlns:cc="http://creativecommons.org/ns#"
   xmlns:rdf="http://www.w3.org/1999/02/22-rdf-syntax-ns#"
   xmlns:svg="http://www.w3.org/2000/svg"
   xmlns="http://www.w3.org/2000/svg"
   xmlns:sodipodi="http://sodipodi.sourceforge.net/DTD/sodipodi-0.dtd"
   xmlns:inkscape="http://www.inkscape.org/namespaces/inkscape"
   width="354.33069"
   height="354.33069"
   id="svg2"
   version="1.1"
   inkscape:version="0.48.4 r9939"
   sodipodi:docname="S3-EE-03-016a.eps">
  <sodipodi:namedview
     id="base"
     pagecolor="#ffffff"
     bordercolor="#666666"
     borderopacity="1.0"
     inkscape:pageopacity="0.0"
     inkscape:pageshadow="2"
     inkscape:zoom="2.3827614"
     inkscape:cx="203.50174"
     inkscape:cy="179.85983"
     inkscape:document-units="cm"
     inkscape:current-layer="layer1"
     showgrid="false"
     units="cm"
     inkscape:object-nodes="true"
     inkscape:window-width="1366"
     inkscape:window-height="744"
     inkscape:window-x="0"
     inkscape:window-y="24"
     inkscape:window-maximized="1">
    <inkscape:grid
       type="xygrid"
       id="grid2985"
       empspacing="5"
       visible="true"
       enabled="true"
       snapvisiblegridlinesonly="true" />
  </sodipodi:namedview>
  <defs
     id="defs4">
    <marker
       inkscape:stockid="Arrow1Mstart"
       orient="auto"
       refY="0"
       refX="0"
       id="Arrow1Mstart"
       style="overflow:visible">
      <path
         inkscape:connector-curvature="0"
         id="path4512"
         d="M 0,0 5,-5 -12.5,0 5,5 0,0 z"
         style="fill-rule:evenodd;stroke:#000000;stroke-width:1pt"
         transform="matrix(0.4,0,0,0.4,4,0)" />
    </marker>
    <marker
       inkscape:stockid="Arrow1Mend"
       orient="auto"
       refY="0"
       refX="0"
       id="Arrow1Mend"
       style="overflow:visible">
      <path
         inkscape:connector-curvature="0"
         id="path3949"
         d="M 0,0 5,-5 -12.5,0 5,5 0,0 z"
         style="fill-rule:evenodd;stroke:#000000;stroke-width:1pt"
         transform="matrix(-0.4,0,0,-0.4,-4,0)" />
    </marker>
  </defs>
  <metadata
     id="metadata7">
    <rdf:RDF>
      <cc:Work
         rdf:about="">
        <dc:format>image/svg+xml</dc:format>
        <dc:type
           rdf:resource="http://purl.org/dc/dcmitype/StillImage" />
        <dc:title></dc:title>
      </cc:Work>
    </rdf:RDF>
  </metadata>
  <g
     inkscape:label="Layer 1"
     inkscape:groupmode="layer"
     id="layer1"
     transform="translate(0,-698.03019)">
    <text
       xml:space="preserve"
       style="font-size:12px;font-style:normal;font-variant:normal;font-weight:normal;font-stretch:normal;text-align:center;line-height:125%;letter-spacing:0px;word-spacing:0px;text-anchor:middle;fill:#000000;fill-opacity:1;stroke:none;font-family:LMRoman12;-inkscape-font-specification:LMRoman12"
       x="140.30785"
       y="115.38005"
       id="text3819"
       sodipodi:linespacing="125%"
       transform="translate(0,768.89631)"><tspan
         sodipodi:role="line"
         id="tspan3821"
         x="140.30785"
         y="115.38005" /></text>
    <text
       style="font-size:15px"
       y="816.75848"
       x="161.25665"
       id="text6159">
      <tspan
         id="tspan6161"
         y="816.75848"
         x="161.25665"
         style="font-size:10px;font-style:italic;font-variant:normal;writing-mode:lr-tb;fill:#231f20;fill-opacity:1;fill-rule:nonzero;stroke:none;font-family:Times;-inkscape-font-specification:Times-Italic">R</tspan>
    </text>
    <text
       style="font-size:15px"
       y="819.25848"
       x="167.36652"
       id="text6163">
      <tspan
         id="tspan6165"
         y="819.25848"
         x="167.36652"
         style="font-size:7.5px;font-style:italic;font-variant:normal;writing-mode:lr-tb;fill:#231f20;fill-opacity:1;fill-rule:nonzero;stroke:none;font-family:Times;-inkscape-font-specification:Times-Italic">C</tspan>
    </text>
    <text
       style="font-size:15px"
       y="901.25171"
       x="188.6156"
       id="text6171">
      <tspan
         id="tspan6173"
         y="901.25171"
         x="188.6156"
         style="font-size:10px;font-style:italic;font-variant:normal;writing-mode:lr-tb;fill:#231f20;fill-opacity:1;fill-rule:nonzero;stroke:none;font-family:Times;-inkscape-font-specification:Times-Italic">V</tspan>
    </text>
    <text
       style="font-size:15px"
       y="903.75171"
       x="194.72546"
       id="text6175">
      <tspan
         id="tspan6177"
         sodipodi:role="line"
         y="903.75171"
         x="194.72546 199.72644"
         style="font-size:7.5px;font-style:italic;font-variant:normal;writing-mode:lr-tb;fill:#231f20;fill-opacity:1;fill-rule:nonzero;stroke:none;font-family:Times;-inkscape-font-specification:Times-Italic">C</tspan>
    </text>
    <text
       style="font-size:15px"
       y="921.81805"
       x="108.25184"
       id="text6179">
      <tspan
         id="tspan6181"
         y="921.81805"
         x="108.25184"
         style="font-size:10px;font-style:italic;font-variant:normal;writing-mode:lr-tb;fill:#231f20;fill-opacity:1;fill-rule:nonzero;stroke:none;font-family:Times;-inkscape-font-specification:Times-Italic">I</tspan>
    </text>
    <text
       style="font-size:15px"
       y="924.31805"
       x="111.5824"
       id="text6183">
      <tspan
         id="tspan6185"
         sodipodi:role="line"
         y="924.31805"
         x="111.5824 116.1649"
         style="font-size:7.5px;font-style:italic;font-variant:normal;writing-mode:lr-tb;fill:#231f20;fill-opacity:1;fill-rule:nonzero;stroke:none;font-family:Times;-inkscape-font-specification:Times-Italic">B</tspan>
    </text>
    <text
       style="font-size:15px"
       y="776.10681"
       x="226.45403"
       id="text6187">
      <tspan
         id="tspan6189"
         y="776.10681"
         x="226.45403"
         style="font-size:10px;font-style:italic;font-variant:normal;writing-mode:lr-tb;fill:#231f20;fill-opacity:1;fill-rule:nonzero;stroke:none;font-family:Times;-inkscape-font-specification:Times-Italic">I</tspan>
    </text>
    <text
       style="font-size:15px"
       y="778.60681"
       x="229.7841"
       id="text6191">
      <tspan
         id="tspan6193"
         y="778.60681"
         x="229.7841"
         style="font-size:7.5px;font-style:italic;font-variant:normal;writing-mode:lr-tb;fill:#231f20;fill-opacity:1;fill-rule:nonzero;stroke:none;font-family:Times;-inkscape-font-specification:Times-Italic">C</tspan>
    </text>
    <text
       style="font-size:15px"
       y="878.73132"
       x="107.51698"
       id="text6195">
      <tspan
         id="tspan6197"
         y="878.73132"
         x="107.51698"
         style="font-size:10px;font-style:italic;font-variant:normal;writing-mode:lr-tb;fill:#231f20;fill-opacity:1;fill-rule:nonzero;stroke:none;font-family:Times;-inkscape-font-specification:Times-Italic">v</tspan>
    </text>
    <text
       style="font-size:15px"
       y="881.23132"
       x="111.95691"
       id="text6199">
      <tspan
         id="tspan6201"
         y="881.23132"
         x="111.95691"
         style="font-size:7.5px;font-style:italic;font-variant:normal;writing-mode:lr-tb;fill:#231f20;fill-opacity:1;fill-rule:nonzero;stroke:none;font-family:Times;-inkscape-font-specification:Times-Italic">i</tspan>
    </text>
    <path
       inkscape:connector-curvature="0"
       d="m 102.89286,909.116 14.9365,0"
       style="fill:none;stroke:#231f20;stroke-width:0.625;stroke-linecap:butt;stroke-linejoin:miter;stroke-miterlimit:4;stroke-opacity:1;stroke-dasharray:none"
       id="path6203" />
    <path
       inkscape:connector-curvature="0"
       d="m 117.35086,909.116 -1.02637,-1.69 0.0571,-0.0375 2.75438,1.09375 c 0.959,0.21125 1.9185,0.4225 2.8785,0.63375 -0.96,0.21 -1.9195,0.42125 -2.8785,0.6325 l -2.75438,1.09375 -0.0571,-0.0288 1.02637,-1.6975"
       style="fill:#231f20;fill-opacity:1;fill-rule:nonzero;stroke:none"
       id="path6205" />
    <path
       inkscape:connector-curvature="0"
       d="m 223.56286,774.691 -14.93625,0"
       style="fill:none;stroke:#231f20;stroke-width:0.625;stroke-linecap:butt;stroke-linejoin:miter;stroke-miterlimit:4;stroke-opacity:1;stroke-dasharray:none"
       id="path6207" />
    <path
       inkscape:connector-curvature="0"
       d="m 209.10536,774.691 1.02625,1.69 -0.0575,0.0375 -2.75375,-1.09375 c -0.95875,-0.21125 -1.91875,-0.4225 -2.87875,-0.63375 0.96,-0.21125 1.92,-0.4225 2.87875,-0.63375 l 2.75375,-1.09375 0.0575,0.0288 -1.02625,1.69875"
       style="fill:#231f20;fill-opacity:1;fill-rule:nonzero;stroke:none"
       id="path6209" />
    <path
       inkscape:connector-curvature="0"
       d="m 182.43911,763.64725 72.93375,0 0,195.83375 -194.546374,0"
       style="fill:none;stroke:#231f20;stroke-width:1;stroke-linecap:butt;stroke-linejoin:miter;stroke-miterlimit:3.92211413;stroke-opacity:1;stroke-dasharray:none"
       id="path6211" />
    <path
       inkscape:connector-curvature="0"
       d="m 60.826486,959.481 0,-67.05125"
       style="fill:none;stroke:#231f20;stroke-width:1;stroke-linecap:butt;stroke-linejoin:miter;stroke-miterlimit:3.92211413;stroke-opacity:1;stroke-dasharray:none"
       id="path6213" />
    <path
       inkscape:connector-curvature="0"
       d="m 60.917736,892.42975 100.146374,0"
       style="fill:none;stroke:#231f20;stroke-width:1;stroke-linecap:butt;stroke-linejoin:miter;stroke-miterlimit:3.92211413;stroke-opacity:1;stroke-dasharray:none"
       id="path6215" />
    <path
       inkscape:connector-curvature="0"
       d="m 182.43911,857.411 0,-93.76375"
       style="fill:none;stroke:#231f20;stroke-width:1;stroke-linecap:butt;stroke-linejoin:miter;stroke-miterlimit:3.92211413;stroke-opacity:1;stroke-dasharray:none"
       id="path6217" />
    <path
       inkscape:connector-curvature="0"
       d="m 182.43786,844.84475 0.001,34.1825"
       style="fill:none;stroke:#231f20;stroke-width:1;stroke-linecap:butt;stroke-linejoin:miter;stroke-miterlimit:3.92211413;stroke-opacity:1;stroke-dasharray:none"
       id="path6219" />
    <path
       inkscape:connector-curvature="0"
       d="m 182.43536,911.6635 0.001,47.815"
       style="fill:none;stroke:#231f20;stroke-width:1;stroke-linecap:butt;stroke-linejoin:miter;stroke-miterlimit:3.92211413;stroke-opacity:1;stroke-dasharray:none"
       id="path6221" />
    <path
       inkscape:connector-curvature="0"
       d="m 161.37161,886.29475 21.0525,-7.53375"
       style="fill:none;stroke:#231f20;stroke-width:1;stroke-linecap:round;stroke-linejoin:round;stroke-miterlimit:3.86369991;stroke-opacity:1;stroke-dasharray:none"
       id="path6223" />
    <path
       inkscape:connector-curvature="0"
       d="m 160.92561,904.0835 0,-23.50625"
       style="fill:none;stroke:#231f20;stroke-width:2.5;stroke-linecap:round;stroke-linejoin:round;stroke-miterlimit:3.86369991;stroke-opacity:1;stroke-dasharray:none"
       id="path6225" />
    <path
       inkscape:connector-curvature="0"
       d="m 161.86536,900.011 17.66625,9.91625"
       style="fill:none;stroke:#231f20;stroke-width:1;stroke-linecap:round;stroke-linejoin:round;stroke-miterlimit:3.86369991;stroke-opacity:1;stroke-dasharray:none"
       id="path6227" />
    <path
       inkscape:connector-curvature="0"
       d="m 176.12786,908.3285 -0.1125,-3.16125 0.1125,-0.008 2.98625,3.68375 c 1.17125,1.045 2.34625,2.09 3.5175,3.1375 -1.50375,-0.45625 -3.0075,-0.915 -4.51125,-1.3725 l -4.6975,-0.63 -0.0587,-0.085 2.76375,-1.565"
       style="fill:#231f20;fill-opacity:1;fill-rule:nonzero;stroke:none"
       id="path6229" />
    <text
       style="font-size:15px"
       y="863.99725"
       x="228.74286"
       id="text6233">
      <tspan
         id="tspan6235"
         y="863.99725"
         x="228.74286"
         style="font-size:10px;font-style:italic;font-variant:normal;writing-mode:lr-tb;fill:#231f20;fill-opacity:1;fill-rule:nonzero;stroke:none;font-family:Times;-inkscape-font-specification:Times-Italic">V</tspan>
    </text>
    <text
       style="font-size:15px"
       y="866.49725"
       x="234.85272"
       id="text6237">
      <tspan
         id="tspan6239"
         sodipodi:role="line"
         y="866.49725"
         x="234.85272 239.85522 244.85773"
         style="font-size:7.5px;font-style:italic;font-variant:normal;writing-mode:lr-tb;fill:#231f20;fill-opacity:1;fill-rule:nonzero;stroke:none;font-family:Times;-inkscape-font-specification:Times-Italic">CC</tspan>
    </text>
    <text
       style="font-size:15px"
       y="927.99988"
       x="29.283739"
       id="text6241">
      <tspan
         id="tspan6243"
         y="927.99988"
         x="29.283739"
         style="font-size:10px;font-style:italic;font-variant:normal;writing-mode:lr-tb;fill:#231f20;fill-opacity:1;fill-rule:nonzero;stroke:none;font-family:Times;-inkscape-font-specification:Times-Italic">V</tspan>
    </text>
    <text
       style="font-size:15px"
       y="930.49988"
       x="35.394089"
       id="text6245">
      <tspan
         id="tspan6247"
         y="930.49988"
         x="35.394089"
         style="font-size:7.5px;font-style:italic;font-variant:normal;writing-mode:lr-tb;fill:#231f20;fill-opacity:1;fill-rule:nonzero;stroke:none;font-family:Times;-inkscape-font-specification:Times-Italic">B</tspan>
    </text>
    <text
       style="font-size:15px"
       y="921.41693"
       x="46.95356"
       id="text6249"
       transform="matrix(1,-2e-5,2e-5,1,0,0)">
      <tspan
         id="tspan6251"
         y="921.41693"
         x="46.95356"
         style="font-size:10px;font-variant:normal;font-weight:normal;writing-mode:lr-tb;fill:#231f20;fill-opacity:1;fill-rule:nonzero;stroke:none;font-family:Symbol;-inkscape-font-specification:Symbol">+</tspan>
      <tspan
         id="tspan6253"
         y="936.69818"
         x="47.505985"
         style="font-size:10px;font-variant:normal;font-weight:normal;writing-mode:lr-tb;fill:#231f20;fill-opacity:1;fill-rule:nonzero;stroke:none;font-family:Symbol;-inkscape-font-specification:Symbol">−</tspan>
    </text>
    <path
       inkscape:connector-curvature="0"
       d="m 54.380236,933.17975 12.892625,0 0,-14.44875 -12.892625,0 0,14.44875 z"
       style="fill:#ffffff;fill-opacity:1;fill-rule:nonzero;stroke:none;stroke-width:1;stroke-miterlimit:3.92211413;stroke-dasharray:none"
       id="path6255" />
    <path
       inkscape:connector-curvature="0"
       d="m 67.272736,924.5635 -12.8925,0"
       style="fill:none;stroke:#231f20;stroke-width:1;stroke-linecap:round;stroke-linejoin:round;stroke-miterlimit:3.92211413;stroke-opacity:1;stroke-dasharray:none"
       id="path6257" />
    <path
       inkscape:connector-curvature="0"
       d="m 64.807486,928.8885 -7.962,0"
       style="fill:none;stroke:#231f20;stroke-width:1;stroke-linecap:round;stroke-linejoin:round;stroke-miterlimit:3.92211413;stroke-opacity:1;stroke-dasharray:none"
       id="path6259" />
    <path
       inkscape:connector-curvature="0"
       d="m 60.826486,928.82684 0,5.8325"
       style="fill:none;stroke:#231f20;stroke-width:1;stroke-linecap:round;stroke-linejoin:round;stroke-miterlimit:3.92211413;stroke-opacity:1;stroke-dasharray:none"
       id="path6261" />
    <path
       inkscape:connector-curvature="0"
       d="m 60.826486,918.731 0,5.8325"
       style="fill:none;stroke:#231f20;stroke-width:1;stroke-linecap:round;stroke-linejoin:round;stroke-miterlimit:3.92211413;stroke-opacity:1;stroke-dasharray:none"
       id="path6263" />
    <path
       inkscape:connector-curvature="0"
       d="m 248.92536,868.78725 12.8935,0 0,-14.44825 -12.8935,0 0,14.44825 z"
       style="fill:#ffffff;fill-opacity:1;fill-rule:nonzero;stroke:none;stroke-width:1;stroke-miterlimit:3.92211413;stroke-dasharray:none"
       id="path6265" />
    <path
       inkscape:connector-curvature="0"
       d="m 261.81911,860.17225 -12.89375,0"
       style="fill:none;stroke:#231f20;stroke-width:1;stroke-linecap:round;stroke-linejoin:round;stroke-miterlimit:3.92211413;stroke-opacity:1;stroke-dasharray:none"
       id="path6267" />
    <path
       inkscape:connector-curvature="0"
       d="m 259.35286,864.496 -7.96125,0"
       style="fill:none;stroke:#231f20;stroke-width:1;stroke-linecap:round;stroke-linejoin:round;stroke-miterlimit:3.92211413;stroke-opacity:1;stroke-dasharray:none"
       id="path6269" />
    <path
       inkscape:connector-curvature="0"
       d="m 255.37286,864.56884 0,5.8325"
       style="fill:none;stroke:#231f20;stroke-width:1;stroke-linecap:round;stroke-linejoin:round;stroke-miterlimit:3.92211413;stroke-opacity:1;stroke-dasharray:none"
       id="path6271" />
    <path
       inkscape:connector-curvature="0"
       d="m 255.37286,854.33975 0,5.8325"
       style="fill:none;stroke:#231f20;stroke-width:1;stroke-linecap:round;stroke-linejoin:round;stroke-miterlimit:3.92211413;stroke-opacity:1;stroke-dasharray:none"
       id="path6273" />
    <path
       inkscape:connector-curvature="0"
       d="m 187.15161,791.94975 0,40.56375 -9.33625,10e-4 0,-40.56375 9.33625,-10e-4"
       style="fill:#ffffff;fill-opacity:1;fill-rule:nonzero;stroke:none"
       id="path6275" />
    <path
       inkscape:connector-curvature="0"
       d="m 182.43911,832.7935 0,-4.51625 -4.62375,-1.9625 9.33625,-3.9375 -9.33625,-3.9925 9.33625,-3.99875 -9.33625,-3.93625 9.33625,-3.905 -9.33625,-3.93625 9.2175,-3.99875 -4.59375,-1.91 0,-4.74875"
       style="fill:none;stroke:#231f20;stroke-width:1;stroke-linecap:round;stroke-linejoin:round;stroke-miterlimit:3.86369991;stroke-opacity:1;stroke-dasharray:none"
       id="path6277" />
    <path
       inkscape:connector-curvature="0"
       d="m 182.50161,958.36725 0,8.0375"
       style="fill:none;stroke:#231f20;stroke-width:1;stroke-linecap:round;stroke-linejoin:round;stroke-miterlimit:3.86369991;stroke-opacity:1;stroke-dasharray:none"
       id="path6279" />
    <path
       inkscape:connector-curvature="0"
       d="m 191.25161,966.40475 -17.5,0"
       style="fill:none;stroke:#231f20;stroke-width:1;stroke-linecap:round;stroke-linejoin:round;stroke-miterlimit:3.86369991;stroke-opacity:1;stroke-dasharray:none"
       id="path6281" />
    <path
       inkscape:connector-curvature="0"
       d="m 189.37661,969.711 -13.75,0"
       style="fill:none;stroke:#231f20;stroke-width:1;stroke-linecap:round;stroke-linejoin:round;stroke-miterlimit:3.86369991;stroke-opacity:1;stroke-dasharray:none"
       id="path6283" />
    <path
       inkscape:connector-curvature="0"
       d="m 187.50161,973.0135 -10,0"
       style="fill:none;stroke:#231f20;stroke-width:1;stroke-linecap:round;stroke-linejoin:round;stroke-miterlimit:3.86369991;stroke-opacity:1;stroke-dasharray:none"
       id="path6285" />
    <text
       style="font-size:15.00007534px"
       y="855.99176"
       x="259.44464"
       id="text6289"
       transform="matrix(1.000005,-2.999985e-5,2.999985e-5,0.999995,0,0)">
      <tspan
         id="tspan6291"
         y="855.99176"
         x="259.44464"
         style="font-size:10.00004959px;font-variant:normal;font-weight:normal;writing-mode:lr-tb;fill:#231f20;fill-opacity:1;fill-rule:nonzero;stroke:none;font-family:Symbol;-inkscape-font-specification:Symbol">+</tspan>
      <tspan
         id="tspan6293"
         y="873.19904"
         x="259.44464"
         style="font-size:10.00004959px;font-variant:normal;font-weight:normal;writing-mode:lr-tb;fill:#231f20;fill-opacity:1;fill-rule:nonzero;stroke:none;font-family:Symbol;-inkscape-font-specification:Symbol">−</tspan>
    </text>
    <path
       inkscape:connector-curvature="0"
       d="m 120.64674,893.686 c 0.0235,5.33375 -4.28075,9.675 -9.61275,9.69875 -5.332,0.025 -9.67525,-4.28 -9.69875,-9.6125 -0.0229,-5.3325 4.28125,-9.675 9.61325,-9.69875 5.33212,-0.0238 9.67537,4.28125 9.69825,9.6125"
       style="fill:#ffffff;fill-opacity:1;fill-rule:nonzero;stroke:none"
       id="path6295" />
    <path
       inkscape:connector-curvature="0"
       d="m 120.64674,893.686 c 0.0235,5.33375 -4.28075,9.675 -9.61275,9.69875 -5.332,0.025 -9.67525,-4.28 -9.69875,-9.6125 -0.0229,-5.3325 4.28125,-9.675 9.61325,-9.69875 5.33212,-0.0238 9.67537,4.28125 9.69825,9.6125 z"
       style="fill:none;stroke:#231f20;stroke-width:0.9375;stroke-linecap:round;stroke-linejoin:round;stroke-miterlimit:3.86369991;stroke-opacity:1;stroke-dasharray:none"
       id="path6297" />
    <text
       style="font-size:14.99999714px"
       y="898.43549"
       x="102.30793"
       id="text6301"
       transform="matrix(0.99999019,-0.00442999,0.00442999,0.99999019,0,0)">
      <tspan
         id="tspan6303"
         y="898.43549"
         x="102.30793"
         style="font-size:17.49999237px;font-variant:normal;font-weight:normal;writing-mode:lr-tb;fill:#000000;fill-opacity:1;fill-rule:nonzero;stroke:none;font-family:Times;-inkscape-font-specification:Times-Roman">~</tspan>
    </text>
    <text
       style="font-size:15px"
       y="863.00848"
       x="265.89035"
       id="text6307">
      <tspan
         id="tspan6309"
         sodipodi:role="line"
         y="863.00848"
         x="265.89035 270.89035 275.89035 278.39035"
         style="font-size:10px;font-variant:normal;font-weight:normal;writing-mode:lr-tb;fill:#231f20;fill-opacity:1;fill-rule:nonzero;stroke:none;font-family:Times;-inkscape-font-specification:Times-Roman">25 V</tspan>
      <tspan
         id="tspan6311"
         sodipodi:role="line"
         y="930.28925"
         x="72.12661 77.12661 79.62661 84.62661 87.12661"
         style="font-size:10px;font-variant:normal;font-weight:normal;writing-mode:lr-tb;fill:#231f20;fill-opacity:1;fill-rule:nonzero;stroke:none;font-family:Times;-inkscape-font-specification:Times-Roman">0.7 V</tspan>
    </text>
    <path
       inkscape:connector-curvature="0"
       d="m 196.10286,894.47475 c -0.63375,-6.32 -2.83625,-12.4875 -6.61,-17.87875"
       style="fill:none;stroke:#231f20;stroke-width:0.625;stroke-linecap:butt;stroke-linejoin:miter;stroke-miterlimit:4;stroke-opacity:1;stroke-dasharray:none"
       id="path6415" />
    <path
       inkscape:connector-curvature="0"
       d="m 189.07036,920.886 c 3.44,-4.82625 5.65125,-10.2475 6.635,-15.82625"
       style="fill:none;stroke:#231f20;stroke-width:0.625;stroke-linecap:butt;stroke-linejoin:miter;stroke-miterlimit:4;stroke-opacity:1;stroke-dasharray:none"
       id="path6417" />
    <path
       inkscape:connector-curvature="0"
       d="m 189.76661,876.9885 1.97125,-0.12875 -0.001,-0.0688 -2.475,-1.6275 c -0.72375,-0.665 -1.44625,-1.33125 -2.16875,-1.995 0.37625,0.9075 0.75375,1.81375 1.1325,2.72125 l 0.6825,2.88375 0.0575,0.03 0.80125,-1.815"
       style="fill:#231f20;fill-opacity:1;fill-rule:nonzero;stroke:none"
       id="path6419" />
    <path
       inkscape:connector-curvature="0"
       d="m 189.34786,920.496 -0.78,-1.81625 -0.065,0.025 -0.7075,2.8775 c -0.385,0.90375 -0.76875,1.8075 -1.15375,2.71125 0.72875,-0.65875 1.45625,-1.3175 2.18625,-1.97625 l 2.4875,-1.60875 0.0112,-0.0638 -1.97875,-0.14875"
       style="fill:#231f20;fill-opacity:1;fill-rule:nonzero;stroke:none"
       id="path6421" />
    <path
       inkscape:connector-curvature="0"
       d="m 184.52036,959.47975 c 0,1.15 -0.9325,2.0825 -2.085,2.0825 -1.15,0 -2.0825,-0.9325 -2.0825,-2.0825 0,-1.15125 0.9325,-2.085 2.0825,-2.085 1.1525,0 2.085,0.93375 2.085,2.085"
       style="fill:#231f20;fill-opacity:1;fill-rule:nonzero;stroke:none"
       id="path6423" />
    <text
       style="font-size:15px"
       y="-862.83221"
       x="185.69911"
       id="text6427"
       transform="scale(1,-1)">
      <tspan
         id="tspan6429"
         y="-862.83221"
         x="185.69911"
         style="font-size:10px;font-variant:normal;font-weight:normal;writing-mode:lr-tb;fill:#231f20;fill-opacity:1;fill-rule:nonzero;stroke:none;font-family:Symbol;-inkscape-font-specification:Symbol">+</tspan>
      <tspan
         id="tspan6431"
         y="-925.26385"
         x="184.88905"
         style="font-size:10px;font-variant:normal;font-weight:normal;writing-mode:lr-tb;fill:#231f20;fill-opacity:1;fill-rule:nonzero;stroke:none;font-family:Symbol;-inkscape-font-specification:Symbol">−</tspan>
    </text>
    <text
       sodipodi:linespacing="125%"
       id="text6934"
       y="987.26117"
       x="176.63118"
       style="font-size:12px;font-style:normal;font-variant:normal;font-weight:normal;font-stretch:normal;text-align:center;line-height:125%;letter-spacing:0px;word-spacing:0px;text-anchor:middle;fill:#000000;fill-opacity:1;stroke:none;font-family:LMRoman12;-inkscape-font-specification:LMRoman12"
       xml:space="preserve"><tspan
         y="987.26117"
         x="176.63118"
         id="tspan6936"
         sodipodi:role="line">(A) Circuit</tspan></text>
    <g
       ns0:preamble="/home/sriranga/Desktop/MCT/package.tex"
       ns0:text="$12$ K$\\Omega$"
       word-spacing="normal"
       letter-spacing="normal"
       font-size-adjust="none"
       font-stretch="normal"
       font-weight="normal"
       font-variant="normal"
       font-style="normal"
       stroke-miterlimit="10.433"
       xml:space="preserve"
       transform="matrix(1.0639644,0,0,-1.046455,-47.565895,1556.7621)"
       id="content"
       style="font-style:normal;font-variant:normal;font-weight:normal;font-stretch:normal;letter-spacing:normal;word-spacing:normal;text-anchor:start;fill:none;stroke:#000000;stroke-width:1.13725388;stroke-linecap:butt;stroke-linejoin:miter;stroke-miterlimit:10.43299961;stroke-opacity:1;stroke-dasharray:none;stroke-dashoffset:0"><path
         id="path3274"
         d="m 226.33,713.84 -1.79,-0.9 v -0.14 c 0.12,0.05 0.22,0.09 0.26,0.11 0.18,0.07 0.35,0.11 0.45,0.11 0.21,0 0.3,-0.15 0.3,-0.47 v -4.5 c 0,-0.33 -0.08,-0.56 -0.24,-0.65 -0.15,-0.09 -0.29,-0.12 -0.7,-0.13 v -0.15 h 2.74 v 0.15 c -0.78,0.01 -0.94,0.11 -0.94,0.59 v 5.96 z"
         inkscape:connector-curvature="0"
         style="fill:#000000;stroke-width:0" /><path
         id="path3276"
         d="m 233.14,708.49 -0.13,0.05 c -0.37,-0.57 -0.5,-0.66 -0.94,-0.66 h -2.38 l 1.67,1.75 c 0.88,0.92 1.27,1.68 1.27,2.45 0,1 -0.8,1.76 -1.84,1.76 -0.55,0 -1.06,-0.22 -1.43,-0.62 -0.32,-0.33 -0.47,-0.65 -0.64,-1.36 l 0.21,-0.05 c 0.4,0.98 0.76,1.29 1.44,1.29 0.84,0 1.41,-0.56 1.41,-1.39 0,-0.78 -0.46,-1.7 -1.3,-2.59 l -1.77,-1.88 v -0.12 h 3.88 z"
         inkscape:connector-curvature="0"
         style="fill:#000000;stroke-width:0" /><path
         id="path3278"
         d="m 239.99,713.51 0.03,0 0.02,0 0.02,0 0.02,0 0.01,0 0.01,0 0.01,0 0.01,0 0.01,-0.01 0.01,0 0,0 0.01,0 0.01,0 0.01,0 0.01,0 0.01,0 0,0 0.01,0 0.01,0 0,0 0.01,0 0,0 0.01,0 0.01,0 0,0 0,0 0.01,0 0,0 c 0.3,-0.02 0.42,-0.1 0.42,-0.29 0,-0.22 -0.23,-0.52 -0.77,-1.03 l -1.77,-1.6 v 2.04 c 0,0.72 0.11,0.83 0.92,0.89 v 0.19 h -2.83 v -0.19 c 0.78,-0.06 0.9,-0.19 0.9,-0.89 v -4.3 c 0,-0.83 -0.11,-0.96 -0.9,-1.01 v -0.19 h 2.81 v 0.19 c -0.78,0.05 -0.9,0.17 -0.9,0.9 v 1.86 l 0.26,0.2 1.06,-1.04 c 0.75,-0.74 1.29,-1.45 1.29,-1.69 0,-0.14 -0.14,-0.21 -0.42,-0.22 -0.05,0 -0.16,0 -0.28,-0.01 v -0.19 h 3.04 v 0.19 c -0.52,0.01 -0.66,0.11 -1.56,1.08 l -2.32,2.48 1.89,1.87 c 0.67,0.64 0.83,0.72 1.51,0.77 v 0.19 h -2.61 z"
         inkscape:connector-curvature="0"
         style="fill:#000000;stroke-width:0" /><path
         id="path3280"
         d="m 250.18,707.12 v 1.53 H 250 c -0.02,-0.51 -0.31,-0.62 -0.76,-0.62 h -1.36 l 0.05,0.33 c 1.27,0.36 2.02,1.35 2.02,2.67 0,1.8 -1.45,2.82 -3.14,2.82 -1.68,0 -3.19,-1.07 -3.19,-2.86 0,-1.21 0.79,-2.4 2.03,-2.63 l 0.01,-0.33 h -1.32 c -0.48,0 -0.75,0.1 -0.79,0.62 h -0.18 v -1.53 h 2.72 l -0.1,1.47 c -1.02,0.37 -1.24,1.4 -1.24,2.38 0,1.22 0.66,2.53 2.04,2.53 1.43,0 2.05,-1.36 2.05,-2.6 0,-0.95 -0.23,-1.99 -1.25,-2.31 l -0.13,-1.47 z"
         inkscape:connector-curvature="0"
         style="fill:#000000;stroke-width:0" /></g>    <text
       id="text3433"
       x="40.086426"
       y="930.49988"
       style="font-size:15px">
      <tspan
         style="font-size:7.5px;font-style:italic;font-variant:normal;writing-mode:lr-tb;fill:#231f20;fill-opacity:1;fill-rule:nonzero;stroke:none;font-family:Times;-inkscape-font-specification:Times-Italic"
         x="40.086426"
         y="930.49988"
         id="tspan3435">B</tspan>
    </text>
  </g>
</svg>
