<?xml version="1.0" encoding="UTF-8" standalone="no"?>
<!-- Created with Inkscape (http://www.inkscape.org/) -->

<svg
   xmlns:dc="http://purl.org/dc/elements/1.1/"
   xmlns:cc="http://creativecommons.org/ns#"
   xmlns:rdf="http://www.w3.org/1999/02/22-rdf-syntax-ns#"
   xmlns:svg="http://www.w3.org/2000/svg"
   xmlns="http://www.w3.org/2000/svg"
   xmlns:sodipodi="http://sodipodi.sourceforge.net/DTD/sodipodi-0.dtd"
   xmlns:inkscape="http://www.inkscape.org/namespaces/inkscape"
   id="svg2"
   version="1.1"
   inkscape:version="0.48.4 r9939"
   width="177.16534"
   height="177.16534"
   xml:space="preserve"
   sodipodi:docname="S3-EE-03-030.eps"><metadata
     id="metadata8"><rdf:RDF><cc:Work
         rdf:about=""><dc:format>image/svg+xml</dc:format><dc:type
           rdf:resource="http://purl.org/dc/dcmitype/StillImage" /><dc:title></dc:title></cc:Work></rdf:RDF></metadata><defs
     id="defs6" /><sodipodi:namedview
     pagecolor="#ffffff"
     bordercolor="#666666"
     borderopacity="1"
     objecttolerance="10"
     gridtolerance="10"
     guidetolerance="10"
     inkscape:pageopacity="0"
     inkscape:pageshadow="2"
     inkscape:window-width="1366"
     inkscape:window-height="744"
     id="namedview4"
     showgrid="false"
     units="cm"
     inkscape:document-units="cm"
     inkscape:zoom="3.3697335"
     inkscape:cx="88.582672"
     inkscape:cy="88.582672"
     inkscape:window-x="0"
     inkscape:window-y="24"
     inkscape:window-maximized="1"
     inkscape:current-layer="g10" /><g
     id="g10"
     inkscape:groupmode="layer"
     inkscape:label="ink_ext_XXXXXX"
     transform="matrix(1.25,0,0,-1.25,0,177.16518)"><path
       inkscape:connector-curvature="0"
       id="path3068"
       style="font-size:8px;font-style:italic;font-variant:normal;writing-mode:lr-tb;fill:#231f20;fill-opacity:1;fill-rule:nonzero;stroke:none;font-family:Times;-inkscape-font-specification:Times-Italic"
       d="m 85.490892,123.51373 0.296,1.592 -0.168,0 c -0.064,-0.128 -0.144,-0.176 -0.304,-0.176 -0.064,0 -0.16,0.016 -0.328,0.056 -0.36,0.088 -0.68,0.136 -0.936,0.136 -1.703998,0 -3.248,-1.608 -3.248,-3.384 0,-1.224 0.864001,-2.088 2.088,-2.088 0.823999,0 1.464001,0.352 2.184,1.192 l -0.136,0.112 c -0.719999,-0.704 -1.184001,-0.944 -1.84,-0.944 -0.887999,0 -1.4,0.608 -1.4,1.64 0,0.952 0.384001,1.92 1.008,2.568 0.384,0.392 0.888,0.616 1.416,0.616 0.735999,0 1.144,-0.432 1.224,-1.296 l 0.144,-0.024" /><path
       inkscape:connector-curvature="0"
       id="path3070"
       style="font-size:8px;font-style:italic;font-variant:normal;writing-mode:lr-tb;fill:#231f20;fill-opacity:1;fill-rule:nonzero;stroke:none;font-family:Times;-inkscape-font-specification:Times-Italic"
       d="m 92.420302,78.173629 -1.488,0 0,-0.128 c 0.36,-0.04 0.504,-0.12 0.504,-0.272 0,-0.152 -0.152,-0.496 -0.416,-0.952 l -1.648,-2.848 -0.528,3.544 c -0.008,0.04 -0.008,0.072 -0.008,0.12 0,0.272 0.112,0.352 0.616,0.408 l 0,0.128 -1.928,0 0,-0.128 c 0.447999,-0.056 0.464,-0.08 0.632,-1.08 l 0.68,-4.16 0.152,0 2.984,4.92 c 0.136,0.216 0.264,0.312 0.448,0.32 l 0,0.128" /><path
       inkscape:connector-curvature="0"
       id="path3073"
       style="font-size:6px;font-style:italic;font-variant:normal;writing-mode:lr-tb;fill:#231f20;fill-opacity:1;fill-rule:nonzero;stroke:none;font-family:Times;-inkscape-font-specification:Times-Italic"
       d="m 95.716192,73.739627 0.222,1.194 -0.126,0 c -0.048,-0.096 -0.108,-0.132 -0.228,-0.132 -0.048,0 -0.12,0.012 -0.246,0.042 -0.27,0.066 -0.51,0.102 -0.702,0.102 -1.277999,0 -2.436,-1.206001 -2.436,-2.538 0,-0.917999 0.648001,-1.566 1.566,-1.566 0.617999,0 1.098001,0.264001 1.638,0.894 l -0.102,0.084 c -0.54,-0.527999 -0.888001,-0.708 -1.38,-0.708 -0.665999,0 -1.05,0.456001 -1.05,1.23 0,0.713999 0.288,1.440001 0.756,1.926 0.288,0.294 0.666,0.462 1.062,0.462 0.551999,0 0.858,-0.324001 0.918,-0.972 l 0.108,-0.018" /><path
       inkscape:connector-curvature="0"
       id="path3075"
       style="font-size:6px;font-style:italic;font-variant:normal;writing-mode:lr-tb;fill:#231f20;fill-opacity:1;fill-rule:nonzero;stroke:none;font-family:Times;-inkscape-font-specification:Times-Italic"
       d="m 99.610192,74.867627 -2.982,0 0,-0.096 c 0.371999,-0.036 0.462,-0.084 0.462,-0.246 0,-0.066 -0.036,-0.276 -0.066,-0.384 l -0.738,-2.652 c -0.102,-0.342 -0.150001,-0.384 -0.486,-0.444 l 0,-0.096 3.042,0 0.372,0.972 -0.096,0.048 c -0.282,-0.384 -0.438,-0.54 -0.696,-0.66 -0.222,-0.102 -0.630001,-0.162 -1.08,-0.162 -0.336,0 -0.48,0.06 -0.48,0.204 0,0.066 0.066,0.348001 0.216,0.876 0.078,0.264 0.132,0.462 0.192,0.69 0.21,-0.012 0.396,-0.018 0.468,-0.018 0.234,0.006 0.402,-0.03 0.468,-0.09 0.03,-0.03 0.042,-0.084 0.042,-0.186 0,-0.102 -0.012,-0.18 -0.042,-0.312 l 0.12,-0.03 0.408,1.392 -0.108,0.024 c -0.228,-0.509999 -0.282001,-0.546 -0.828,-0.57 -0.072,0 -0.264,-0.006 -0.474,-0.012 l 0.396,1.398 c 0.036,0.132 0.102,0.156 0.438,0.156 0.941999,0 1.152,-0.078 1.152,-0.438 0,-0.078 -0.006,-0.168 -0.012,-0.27 l 0.126,-0.012 0.186,0.918" /><path
       inkscape:connector-curvature="0"
       id="path3078"
       style="font-size:8px;font-style:italic;font-variant:normal;writing-mode:lr-tb;fill:#231f20;fill-opacity:1;fill-rule:nonzero;stroke:none;font-family:Times;-inkscape-font-specification:Times-Italic"
       d="m 58.727292,102.0078 -1.488,0 0,-0.128 c 0.36,-0.04 0.504,-0.12 0.504,-0.272 0,-0.152 -0.152,-0.496 -0.416,-0.952 l -1.648,-2.847999 -0.528,3.543999 c -0.008,0.04 -0.008,0.072 -0.008,0.12 0,0.272 0.112001,0.352 0.616,0.408 l 0,0.128 -1.928,0 0,-0.128 c 0.448,-0.056 0.464,-0.08 0.632,-1.08 l 0.68,-4.159999 0.152,0 2.984,4.919999 c 0.136,0.216 0.264,0.312 0.448,0.32 l 0,0.128" /><path
       inkscape:connector-curvature="0"
       id="path3081"
       style="font-size:6px;font-style:italic;font-variant:normal;writing-mode:lr-tb;fill:#231f20;fill-opacity:1;fill-rule:nonzero;stroke:none;font-family:Times;-inkscape-font-specification:Times-Italic"
       d="m 62.022792,97.573801 0.222,1.194002 -0.126,0 c -0.048,-0.096 -0.108,-0.132 -0.228,-0.132 -0.048,0 -0.12,0.012 -0.246,0.042 -0.27,0.066 -0.51,0.102 -0.702,0.102 -1.277999,0 -2.436,-1.206002 -2.436,-2.538002 0,-0.918 0.648001,-1.566 1.566,-1.566 0.617999,0 1.098,0.264 1.638,0.894 l -0.102,0.084 c -0.54,-0.528 -0.888001,-0.708 -1.38,-0.708 -0.665999,0 -1.05,0.456 -1.05,1.23 0,0.714 0.288,1.44 0.756,1.926002 0.288,0.294 0.666,0.462 1.062,0.462 0.551999,0 0.858,-0.324 0.918,-0.972002 l 0.108,-0.018" /><path
       inkscape:connector-curvature="0"
       id="path3083"
       style="font-size:6px;font-style:italic;font-variant:normal;writing-mode:lr-tb;fill:#231f20;fill-opacity:1;fill-rule:nonzero;stroke:none;font-family:Times;-inkscape-font-specification:Times-Italic"
       d="m 62.064792,94.783801 1.692,0 c 0.941999,0 1.59,0.492 1.59,1.2 0,0.222 -0.072,0.432 -0.204,0.564 -0.12,0.138 -0.240001,0.21 -0.552,0.342 0.425999,0.102 0.6,0.174 0.792,0.342 0.168,0.144 0.258,0.348 0.258,0.588 0,0.570002 -0.426001,0.882002 -1.2,0.882002 l -1.548,0 0,-0.096 c 0.371999,-0.03 0.462,-0.078 0.462,-0.246 0,-0.09 -0.024,-0.24 -0.066,-0.384 l -0.738,-2.652002 c -0.108,-0.348 -0.150001,-0.384 -0.486,-0.444 l 0,-0.096 m 1.476,1.986 c 0.389999,0 0.642,-0.024 0.762,-0.072 0.246,-0.102 0.396,-0.366 0.396,-0.69 0,-0.648 -0.444001,-1.044 -1.176,-1.044 -0.252,0 -0.384,0.09 -0.384,0.252 0,0.072 0.072,0.36 0.21,0.84 0.078,0.27 0.114,0.408 0.192,0.714 m 0.45,1.584002 c 0.036,0.132 0.108,0.168 0.342,0.168 0.479999,0 0.702,-0.204 0.702,-0.648 0,-0.342002 -0.144,-0.606002 -0.402,-0.750002 -0.204,-0.12 -0.492001,-0.162 -1.032,-0.162 l 0.39,1.392002" /><path
       inkscape:connector-curvature="0"
       id="path3086"
       style="font-size:8px;font-style:italic;font-variant:normal;writing-mode:lr-tb;fill:#231f20;fill-opacity:1;fill-rule:nonzero;stroke:none;font-family:Times;-inkscape-font-specification:Times-Italic"
       d="m 59.342132,57.389619 -1.488,0 0,-0.128 c 0.36,-0.04 0.504,-0.12 0.504,-0.272 0,-0.152 -0.152,-0.496001 -0.416,-0.952 l -1.648,-2.848 -0.528,3.544 c -0.008,0.04 -0.008,0.072 -0.008,0.12 0,0.272 0.112001,0.352 0.616,0.408 l 0,0.128 -1.928,0 0,-0.128 c 0.448,-0.056 0.464,-0.08 0.632,-1.08 l 0.68,-4.16 0.152,0 2.984,4.92 c 0.136,0.216 0.264,0.312 0.448,0.32 l 0,0.128" /><path
       inkscape:connector-curvature="0"
       id="path3089"
       style="font-size:6px;font-style:italic;font-variant:normal;writing-mode:lr-tb;fill:#231f20;fill-opacity:1;fill-rule:nonzero;stroke:none;font-family:Times;-inkscape-font-specification:Times-Italic"
       d="m 58.678022,50.165619 1.692,0 c 0.941999,0 1.59,0.492001 1.59,1.2 0,0.222 -0.072,0.432 -0.204,0.564 -0.12,0.138 -0.24,0.21 -0.552,0.342 0.426,0.102 0.6,0.174 0.792,0.342 0.168,0.144 0.258,0.348 0.258,0.588 0,0.569999 -0.426001,0.882 -1.2,0.882 l -1.548,0 0,-0.096 c 0.372,-0.03 0.462,-0.078 0.462,-0.246 0,-0.09 -0.024,-0.24 -0.066,-0.384 l -0.738,-2.652 c -0.108,-0.348 -0.15,-0.384 -0.486,-0.444 l 0,-0.096 m 1.476,1.986 c 0.39,0 0.642,-0.024 0.762,-0.072 0.246,-0.102 0.396,-0.366 0.396,-0.69 0,-0.647999 -0.444001,-1.044 -1.176,-1.044 -0.252,0 -0.384,0.09 -0.384,0.252 0,0.072 0.072,0.36 0.21,0.84 0.078,0.27 0.114,0.408 0.192,0.714 m 0.45,1.584 c 0.036,0.132 0.108,0.168 0.342,0.168 0.479999,0 0.702,-0.204 0.702,-0.648 0,-0.342 -0.144,-0.606 -0.402,-0.75 -0.204,-0.12 -0.492001,-0.162 -1.032,-0.162 l 0.39,1.392" /><path
       inkscape:connector-curvature="0"
       id="path3091"
       style="font-size:6px;font-style:italic;font-variant:normal;writing-mode:lr-tb;fill:#231f20;fill-opacity:1;fill-rule:nonzero;stroke:none;font-family:Times;-inkscape-font-specification:Times-Italic"
       d="m 66.196022,54.083619 -2.982,0 0,-0.096 c 0.371999,-0.036 0.462,-0.084 0.462,-0.246 0,-0.066 -0.036,-0.276 -0.066,-0.384 l -0.738,-2.652 c -0.102,-0.342 -0.15,-0.384 -0.486,-0.444 l 0,-0.096 3.042,0 0.372,0.972 -0.096,0.048 c -0.282,-0.384 -0.438,-0.54 -0.696,-0.66 -0.222,-0.102 -0.630001,-0.162 -1.08,-0.162 -0.336,0 -0.48,0.06 -0.48,0.204 0,0.066 0.066,0.348001 0.216,0.876 0.078,0.264 0.132,0.462 0.192,0.69 0.21,-0.012 0.396,-0.018 0.468,-0.018 0.234,0.006 0.402,-0.03 0.468,-0.09 0.03,-0.03 0.042,-0.084 0.042,-0.186 0,-0.102 -0.012,-0.18 -0.042,-0.312 l 0.12,-0.03 0.408,1.392 -0.108,0.024 c -0.228,-0.51 -0.282001,-0.546 -0.828,-0.57 -0.072,0 -0.264,-0.006 -0.474,-0.012 l 0.396,1.398 c 0.036,0.132 0.102,0.156 0.438,0.156 0.941999,0 1.152,-0.078 1.152,-0.438 0,-0.078 -0.006,-0.168 -0.012,-0.27 l 0.126,-0.012 0.186,0.918" /><path
       inkscape:connector-curvature="0"
       id="path3094"
       style="font-size:8px;font-style:italic;font-variant:normal;writing-mode:lr-tb;fill:#231f20;fill-opacity:1;fill-rule:nonzero;stroke:none;font-family:Times;-inkscape-font-specification:Times-Italic"
       d="m 84.777722,29.988527 -3.976,0 0,-0.128 c 0.495999,-0.048 0.616,-0.112 0.616,-0.328 0,-0.088 -0.048,-0.368 -0.088,-0.512 l -0.984,-3.536 c -0.136,-0.456 -0.2,-0.512 -0.648,-0.592 l 0,-0.128 4.056,0 0.496,1.296 -0.128,0.064 c -0.376,-0.511999 -0.584,-0.72 -0.928,-0.88 -0.296,-0.136 -0.840001,-0.216 -1.44,-0.216 -0.448,0 -0.64,0.08 -0.64,0.272 0,0.088 0.088,0.464001 0.288,1.168 0.104,0.352 0.176,0.616 0.256,0.92 0.28,-0.016 0.528,-0.024 0.624,-0.024 0.312,0.008 0.536,-0.04 0.624,-0.12 0.04,-0.04 0.056,-0.112 0.056,-0.248 0,-0.136 -0.016,-0.24 -0.056,-0.416 l 0.16,-0.04 0.544,1.856 -0.144,0.032 c -0.304,-0.679999 -0.376001,-0.728 -1.104,-0.76 -0.096,0 -0.352,-0.008 -0.632,-0.016 l 0.528,1.864 c 0.048,0.176 0.136,0.208 0.584,0.208 1.255999,0 1.536,-0.104001 1.536,-0.584 0,-0.104 -0.008,-0.224 -0.016,-0.36 l 0.168,-0.016 0.248,1.224" /><path
       inkscape:connector-curvature="0"
       id="path3096"
       style="font-size:8px;font-style:italic;font-variant:normal;writing-mode:lr-tb;fill:#231f20;fill-opacity:1;fill-rule:nonzero;stroke:none;font-family:Times;-inkscape-font-specification:Times-Italic"
       d="m 28.251921,74.235226 2.256,0 c 1.255999,0 2.12,0.656001 2.12,1.6 0,0.296 -0.096,0.576 -0.272,0.752 -0.16,0.184 -0.32,0.28 -0.736,0.456 0.567999,0.136 0.8,0.232001 1.056,0.456 0.224,0.192 0.344,0.464001 0.344,0.784 0,0.76 -0.568001,1.176 -1.6,1.176 l -2.064,0 0,-0.128 c 0.495999,-0.04 0.616,-0.104 0.616,-0.328 0,-0.12 -0.032,-0.32 -0.088,-0.512 l -0.984,-3.536 c -0.144,-0.463999 -0.2,-0.512 -0.648,-0.592 l 0,-0.128 m 1.968,2.648 c 0.519999,0 0.856,-0.032 1.016,-0.096 0.328,-0.136 0.528,-0.488 0.528,-0.92 0,-0.863999 -0.592001,-1.392 -1.568,-1.392 -0.336,0 -0.512,0.120001 -0.512,0.336 0,0.096 0.096,0.480001 0.28,1.12 0.104,0.36 0.152,0.544001 0.256,0.952 m 0.6,2.112 c 0.048,0.176 0.144,0.224 0.456,0.224 0.639999,0 0.936,-0.272 0.936,-0.864 0,-0.455999 -0.192,-0.808 -0.536,-1 -0.272,-0.16 -0.656001,-0.216 -1.376,-0.216 l 0.52,1.856" /><path
       inkscape:connector-curvature="0"
       id="path48"
       style="fill:none;stroke:#231f20;stroke-width:0.80000000000000004;stroke-linecap:round;stroke-linejoin:miter;stroke-miterlimit:4;stroke-opacity:1;stroke-dasharray:none"
       d="m 65.056192,76.601927 -27.34493,0" /><path
       inkscape:connector-curvature="0"
       id="path50"
       style="fill:none;stroke:#231f20;stroke-width:0.80000001;stroke-linecap:round;stroke-linejoin:miter;stroke-miterlimit:4;stroke-opacity:1;stroke-dasharray:none"
       d="m 82.244892,114.84719 7e-4,-27.344507" /><path
       inkscape:connector-curvature="0"
       id="path52"
       style="fill:none;stroke:#231f20;stroke-width:0.80000001;stroke-linecap:round;stroke-linejoin:miter;stroke-miterlimit:4;stroke-opacity:1;stroke-dasharray:none"
       d="m 82.244892,60.857916 7e-4,-27.3445" /><path
       inkscape:connector-curvature="0"
       id="path54"
       style="fill:#ffffff;fill-opacity:1;fill-rule:nonzero;stroke:none"
       d="m 83.912392,35.379327 c 0,-0.9199 -0.7461,-1.666 -1.6668,-1.666 -0.9211,0 -1.6671,0.7461 -1.6671,1.666 0,0.9207 0.746,1.668 1.6671,1.668 0.9207,0 1.6668,-0.7473 1.6668,-1.668" /><path
       inkscape:connector-curvature="0"
       id="path56"
       style="fill:none;stroke:#231f20;stroke-width:0.5;stroke-linecap:butt;stroke-linejoin:miter;stroke-miterlimit:4;stroke-opacity:1;stroke-dasharray:none"
       d="m 83.912392,35.379327 c 0,-0.9199 -0.7461,-1.666 -1.6668,-1.666 -0.9211,0 -1.6671,0.7461 -1.6671,1.666 0,0.9207 0.746,1.668 1.6671,1.668 0.9207,0 1.6668,-0.7473 1.6668,-1.668 z" /><path
       inkscape:connector-curvature="0"
       id="path58"
       style="fill:#ffffff;fill-opacity:1;fill-rule:nonzero;stroke:none"
       d="m 83.912392,114.66833 c 0,-0.9199 -0.7461,-1.666 -1.6668,-1.666 -0.9211,0 -1.6671,0.7461 -1.6671,1.666 0,0.9207 0.746,1.668 1.6671,1.668 0.9207,0 1.6668,-0.7473 1.6668,-1.668" /><path
       inkscape:connector-curvature="0"
       id="path60"
       style="fill:none;stroke:#231f20;stroke-width:0.5;stroke-linecap:butt;stroke-linejoin:miter;stroke-miterlimit:4;stroke-opacity:1;stroke-dasharray:none"
       d="m 83.912392,114.66833 c 0,-0.9199 -0.7461,-1.666 -1.6668,-1.666 -0.9211,0 -1.6671,0.7461 -1.6671,1.666 0,0.9207 0.746,1.668 1.6671,1.668 0.9207,0 1.6668,-0.7473 1.6668,-1.668 z" /><path
       inkscape:connector-curvature="0"
       id="path62"
       style="fill:#ffffff;fill-opacity:1;fill-rule:nonzero;stroke:none"
       d="m 38.901892,76.601927 c 0,-0.9199 -0.7461,-1.666 -1.66681,-1.666 -0.92109,0 -1.66718,0.7461 -1.66718,1.666 0,0.9207 0.74609,1.668 1.66718,1.668 0.92071,0 1.66681,-0.7473 1.66681,-1.668" /><path
       inkscape:connector-curvature="0"
       id="path64"
       style="fill:none;stroke:#231f20;stroke-width:0.5;stroke-linecap:butt;stroke-linejoin:miter;stroke-miterlimit:4;stroke-opacity:1;stroke-dasharray:none"
       d="m 38.901892,76.601927 c 0,-0.9199 -0.7461,-1.666 -1.66681,-1.666 -0.92109,0 -1.66718,0.7461 -1.66718,1.666 0,0.9207 0.74609,1.668 1.66718,1.668 0.92071,0 1.66681,-0.7473 1.66681,-1.668 z" /><path
       inkscape:connector-curvature="0"
       id="path66"
       style="fill:none;stroke:#231f20;stroke-width:0.80000001;stroke-linecap:round;stroke-linejoin:round;stroke-miterlimit:3.86369991;stroke-opacity:1;stroke-dasharray:none"
       d="m 65.392092,81.509027 16.8418,6.0277" /><path
       inkscape:connector-curvature="0"
       id="path68"
       style="fill:none;stroke:#231f20;stroke-width:2;stroke-linecap:round;stroke-linejoin:round;stroke-miterlimit:3.86369991;stroke-opacity:1;stroke-dasharray:none"
       d="m 65.034692,67.279727 0,18.8047" /><path
       inkscape:connector-curvature="0"
       id="path70"
       style="fill:none;stroke:#231f20;stroke-width:0.80000001;stroke-linecap:round;stroke-linejoin:round;stroke-miterlimit:3.86369991;stroke-opacity:1;stroke-dasharray:none"
       d="m 65.786692,70.536327 14.1328,-7.9324" /><path
       inkscape:connector-curvature="0"
       id="path72"
       style="fill:#231f20;fill-opacity:1;fill-rule:nonzero;stroke:none"
       d="m 77.196792,63.883227 -0.0898,2.5281 0.0898,0.007 2.3887,-2.9472 c 0.9375,-0.836 1.8769,-1.6731 2.8144,-2.5098 -1.2031,0.3652 -2.4062,0.7313 -3.6093,1.0965 l -3.7578,0.5051 -0.0469,0.0683 2.2109,1.252" /><path
       inkscape:connector-curvature="0"
       id="path3099"
       style="font-size:8px;font-variant:normal;font-weight:normal;writing-mode:lr-tb;fill:#231f20;fill-opacity:1;fill-rule:nonzero;stroke:none;font-family:Symbol;-inkscape-font-specification:Symbol"
       d="m 90.725692,89.984486 -0.44,0 0,-1.912 -1.896,0 0,-0.44 1.896,0 0,-1.912 0.44,0 0,1.912 1.896,0 0,0.44 -1.896,0 0,1.912" /><path
       inkscape:connector-curvature="0"
       id="path3101"
       style="font-size:8px;font-variant:normal;font-weight:normal;writing-mode:lr-tb;fill:#231f20;fill-opacity:1;fill-rule:nonzero;stroke:none;font-family:Symbol;-inkscape-font-specification:Symbol"
       d="m 71.402292,111.73051 -0.44,0 0,-1.912 -1.896,0 0,-0.44 1.896,0 0,-1.912 0.44,0 0,1.912 1.896,0 0,0.44 -1.896,0 0,1.912" /><path
       inkscape:connector-curvature="0"
       id="path3103"
       style="font-size:8px;font-variant:normal;font-weight:normal;writing-mode:lr-tb;fill:#231f20;fill-opacity:1;fill-rule:nonzero;stroke:none;font-family:Symbol;-inkscape-font-specification:Symbol"
       d="m 88.397692,61.126088 0,-0.44 4.192,0 0,0.44 -4.192,0" /><path
       inkscape:connector-curvature="0"
       id="path3105"
       style="font-size:8px;font-variant:normal;font-weight:normal;writing-mode:lr-tb;fill:#231f20;fill-opacity:1;fill-rule:nonzero;stroke:none;font-family:Symbol;-inkscape-font-specification:Symbol"
       d="m 69.074292,40.407323 0,-0.44 4.192,0 0,0.44 -4.192,0" /><path
       inkscape:connector-curvature="0"
       id="path3108"
       style="font-size:8px;font-variant:normal;font-weight:normal;writing-mode:lr-tb;fill:#231f20;fill-opacity:1;fill-rule:nonzero;stroke:none;font-family:Symbol;-inkscape-font-specification:Symbol"
       d="m 55.044682,67.644019 0.44,0 -3e-6,1.912 1.896,0 -10e-7,0.44 -1.896,0 -4e-6,1.912 -0.44,0 4e-6,-1.912 -1.896,0 1e-6,-0.44 1.896,0 3e-6,-1.912" /><path
       inkscape:connector-curvature="0"
       id="path3110"
       style="font-size:8px;font-variant:normal;font-weight:normal;writing-mode:lr-tb;fill:#231f20;fill-opacity:1;fill-rule:nonzero;stroke:none;font-family:Symbol;-inkscape-font-specification:Symbol"
       d="m 57.372698,83.306679 -10e-7,0.44 -4.192,0 10e-7,-0.44 4.192,0" /></g></svg>