<?xml version="1.0" encoding="UTF-8" standalone="no"?>
<!-- Created with Inkscape (http://www.inkscape.org/) -->

<svg
   xmlns:dc="http://purl.org/dc/elements/1.1/"
   xmlns:cc="http://creativecommons.org/ns#"
   xmlns:rdf="http://www.w3.org/1999/02/22-rdf-syntax-ns#"
   xmlns:svg="http://www.w3.org/2000/svg"
   xmlns="http://www.w3.org/2000/svg"
   xmlns:sodipodi="http://sodipodi.sourceforge.net/DTD/sodipodi-0.dtd"
   xmlns:inkscape="http://www.inkscape.org/namespaces/inkscape"
   id="svg2"
   version="1.1"
   inkscape:version="0.48.4 r9939"
   width="292.775"
   height="192.5625"
   xml:space="preserve"
   sodipodi:docname="S3-EE-03-021.svg"><metadata
     id="metadata8"><rdf:RDF><cc:Work
         rdf:about=""><dc:format>image/svg+xml</dc:format><dc:type
           rdf:resource="http://purl.org/dc/dcmitype/StillImage" /><dc:title></dc:title></cc:Work></rdf:RDF></metadata><defs
     id="defs6" /><sodipodi:namedview
     pagecolor="#ffffff"
     bordercolor="#666666"
     borderopacity="1"
     objecttolerance="10"
     gridtolerance="10"
     guidetolerance="10"
     inkscape:pageopacity="0"
     inkscape:pageshadow="2"
     inkscape:window-width="1366"
     inkscape:window-height="744"
     id="namedview4"
     showgrid="false"
     inkscape:zoom="2.8998378"
     inkscape:cx="146.3875"
     inkscape:cy="96.28125"
     inkscape:window-x="0"
     inkscape:window-y="24"
     inkscape:window-maximized="1"
     inkscape:current-layer="g10"
     inkscape:object-nodes="true"><inkscape:grid
       type="xygrid"
       id="grid3805" /></sodipodi:namedview><g
     id="g10"
     inkscape:groupmode="layer"
     inkscape:label="ink_ext_XXXXXX"
     transform="matrix(1.25,0,0,-1.25,0,192.5625)"><path
       inkscape:connector-curvature="0"
       id="path14"
       style="fill:#ffffff;fill-opacity:1;fill-rule:nonzero;stroke:none"
       d="M 0.9076015,16 189.95718,16" /><path
       inkscape:connector-curvature="0"
       id="path16"
       style="fill:none;stroke:#231f20;stroke-width:0.5;stroke-linecap:butt;stroke-linejoin:miter;stroke-miterlimit:4;stroke-opacity:1;stroke-dasharray:none"
       d="m 4,16 185.96126,0" /><path
       inkscape:connector-curvature="0"
       id="path18"
       style="fill:#231f20;fill-opacity:1;fill-rule:nonzero;stroke:none"
       d="m 191.72818,16.7688 c -1.24,0.375 -2.046,0.7203 -3.041,1.1191 l 0,-3.7832 c 0.357,0.1692 1.801,0.7442 3.041,1.1184 1.326,0.4008 2.53,0.6758 3.311,0.7726 -0.781,0.0981 -1.985,0.3731 -3.311,0.7731" /><path
       inkscape:connector-curvature="0"
       id="path20"
       style="fill:#ffffff;fill-opacity:1;fill-rule:nonzero;stroke:none"
       d="m 19.8699,136.088 0,-133.42589" /><path
       inkscape:connector-curvature="0"
       id="path22"
       style="fill:none;stroke:#231f20;stroke-width:0.5;stroke-linecap:butt;stroke-linejoin:miter;stroke-miterlimit:4;stroke-opacity:1;stroke-dasharray:none"
       d="m 19.8699,136.088 0,-133.42589" /><path
       inkscape:connector-curvature="0"
       id="path24"
       style="fill:#231f20;fill-opacity:1;fill-rule:nonzero;stroke:none"
       d="m 19.1016,137.859 c -0.3746,-1.241 -0.72,-2.046 -1.1188,-3.041 l 3.7832,0 c -0.1691,0.356 -0.7445,1.8 -1.1191,3.041 -0.4008,1.327 -0.675,2.53 -0.7731,3.311 -0.0972,-0.781 -0.3718,-1.984 -0.7722,-3.311" /><path
       inkscape:connector-curvature="0"
       id="path26"
       style="fill:none;stroke:#231f20;stroke-width:0.5;stroke-linecap:butt;stroke-linejoin:miter;stroke-miterlimit:4;stroke-opacity:1;stroke-dasharray:none"
       d="m 45.579879,12.3321 0,3.6457" /><path
       inkscape:connector-curvature="0"
       id="path28"
       style="fill:none;stroke:#231f20;stroke-width:0.5;stroke-linecap:butt;stroke-linejoin:miter;stroke-miterlimit:4;stroke-opacity:1;stroke-dasharray:none"
       d="m 80.39358,12.3321 0,3.6457" /><path
       inkscape:connector-curvature="0"
       id="path30"
       style="fill:none;stroke:#231f20;stroke-width:0.5;stroke-linecap:butt;stroke-linejoin:miter;stroke-miterlimit:4;stroke-opacity:1;stroke-dasharray:none"
       d="m 115.20618,12.3321 0,3.6457" /><path
       inkscape:connector-curvature="0"
       id="path32"
       style="fill:none;stroke:#231f20;stroke-width:0.5;stroke-linecap:butt;stroke-linejoin:miter;stroke-miterlimit:4;stroke-opacity:1;stroke-dasharray:none"
       d="m 150.01918,12.3321 0,3.6457" /><path
       inkscape:connector-curvature="0"
       id="path34"
       style="fill:none;stroke:#231f20;stroke-width:0.5;stroke-linecap:butt;stroke-linejoin:miter;stroke-miterlimit:4;stroke-opacity:1;stroke-dasharray:none"
       d="m 19.8277,74.609 0,0" /><path
       inkscape:connector-curvature="0"
       id="path36"
       style="fill:none;stroke:#231f20;stroke-width:0.95999998;stroke-linecap:butt;stroke-linejoin:miter;stroke-miterlimit:4;stroke-opacity:1;stroke-dasharray:none"
       d="M 195.448,100 19.6438,100" /><path
       inkscape:connector-curvature="0"
       id="path38"
       style="fill:none;stroke:#231f20;stroke-width:0.95999998;stroke-linecap:butt;stroke-linejoin:miter;stroke-miterlimit:4;stroke-opacity:1;stroke-dasharray:none"
       d="M 195.448,72 19.6438,72" /><path
       inkscape:connector-curvature="0"
       id="path40"
       style="fill:none;stroke:#231f20;stroke-width:0.95999998;stroke-linecap:butt;stroke-linejoin:miter;stroke-miterlimit:4;stroke-opacity:1;stroke-dasharray:none"
       d="M 195.448,44 19.6438,44" /><path
       inkscape:connector-curvature="0"
       id="path42"
       style="fill:none;stroke:#231f20;stroke-width:0.95999998;stroke-linecap:butt;stroke-linejoin:miter;stroke-miterlimit:4;stroke-opacity:1;stroke-dasharray:none"
       d="M 195.448,128 19.6438,128" /><path
       inkscape:connector-curvature="0"
       id="path3106"
       style="font-size:8px;font-style:italic;font-variant:normal;writing-mode:lr-tb;fill:#231f20;fill-opacity:1;fill-rule:nonzero;stroke:none;font-family:Times;-inkscape-font-specification:Times-Italic"
       d="m 202.76516,18.119535 -1.488,0 0,-0.128 c 0.36,-0.04 0.504,-0.12 0.504,-0.272 0,-0.152 -0.152,-0.496001 -0.416,-0.952 l -1.648,-2.848 -0.528,3.544 c -0.008,0.04 -0.008,0.072 -0.008,0.12 0,0.272 0.112,0.352 0.616,0.408 l 0,0.128 -1.928,0 0,-0.128 c 0.448,-0.056 0.464,-0.08 0.632,-1.08 l 0.68,-4.16 0.152,0 2.984,4.92 c 0.136,0.216 0.264,0.312 0.448,0.32 l 0,0.128" /><path
       inkscape:connector-curvature="0"
       id="path3109"
       style="font-size:6px;font-style:italic;font-variant:normal;writing-mode:lr-tb;fill:#231f20;fill-opacity:1;fill-rule:nonzero;stroke:none;font-family:Times;-inkscape-font-specification:Times-Italic"
       d="m 206.06105,13.685535 0.222,1.194 -0.126,0 c -0.048,-0.096 -0.108,-0.132 -0.228,-0.132 -0.048,0 -0.12,0.012 -0.246,0.042 -0.27,0.066 -0.51,0.102 -0.702,0.102 -1.278,0 -2.436,-1.206001 -2.436,-2.538 0,-0.917999 0.648,-1.566 1.566,-1.566 0.618,0 1.098,0.264001 1.638,0.894 l -0.102,0.084 c -0.54,-0.527999 -0.888,-0.708 -1.38,-0.708 -0.666,0 -1.05,0.456001 -1.05,1.23 0,0.713999 0.288,1.44 0.756,1.926 0.288,0.294 0.666,0.462 1.062,0.462 0.552,0 0.858,-0.324001 0.918,-0.972 l 0.108,-0.018" /><path
       inkscape:connector-curvature="0"
       id="path3111"
       style="font-size:6px;font-style:italic;font-variant:normal;writing-mode:lr-tb;fill:#231f20;fill-opacity:1;fill-rule:nonzero;stroke:none;font-family:Times;-inkscape-font-specification:Times-Italic"
       d="m 206.10305,10.895535 1.692,0 c 0.942,0 1.59,0.492001 1.59,1.2 0,0.222 -0.072,0.432 -0.204,0.564 -0.12,0.138 -0.24,0.21 -0.552,0.342 0.426,0.102 0.6,0.174 0.792,0.342 0.168,0.144 0.258,0.348 0.258,0.588 0,0.569999 -0.426,0.882 -1.2,0.882 l -1.548,0 0,-0.096 c 0.372,-0.03 0.462,-0.078 0.462,-0.246 0,-0.09 -0.024,-0.24 -0.066,-0.384 l -0.738,-2.652 c -0.108,-0.348 -0.15,-0.384 -0.486,-0.444 l 0,-0.096 m 1.476,1.986 c 0.39,0 0.642,-0.024 0.762,-0.072 0.246,-0.102 0.396,-0.366 0.396,-0.69 0,-0.647999 -0.444,-1.044 -1.176,-1.044 -0.252,0 -0.384,0.09 -0.384,0.252 0,0.072 0.072,0.36 0.21,0.84 0.078,0.27 0.114,0.408 0.192,0.714 m 0.45,1.584 c 0.036,0.132 0.108,0.168 0.342,0.168 0.48,0 0.702,-0.204 0.702,-0.648 0,-0.342 -0.144,-0.606 -0.402,-0.75 -0.204,-0.12 -0.492,-0.162 -1.032,-0.162 l 0.39,1.392" /><path
       inkscape:connector-curvature="0"
       id="path3114"
       style="font-size:8px;font-variant:normal;font-weight:normal;writing-mode:lr-tb;fill:#231f20;fill-opacity:1;fill-rule:nonzero;stroke:none;font-family:Times;-inkscape-font-specification:Times-Roman"
       d="m 214.17702,18.303535 c -0.592,-0.384 -0.832,-0.592 -1.128,-0.96 -0.568,-0.695999 -0.848,-1.496001 -0.848,-2.432 0,-1.015999 0.296,-1.800001 1,-2.616 0.328,-0.384 0.536,-0.56 0.952,-0.816 l 0.096,0.128 c -0.64,0.504 -0.864,0.784001 -1.08,1.384 -0.192,0.535999 -0.28,1.144001 -0.28,1.944 0,0.839999 0.104,1.496 0.32,1.992 0.224,0.495999 0.464,0.784 1.04,1.248 l -0.072,0.128" /><path
       inkscape:connector-curvature="0"
       id="path3116"
       style="font-size:8px;font-variant:normal;font-weight:normal;writing-mode:lr-tb;fill:#231f20;fill-opacity:1;fill-rule:nonzero;stroke:none;font-family:Times;-inkscape-font-specification:Times-Roman"
       d="m 220.05702,18.191535 -1.64,0 0,-0.152 c 0.44,-0.024 0.584,-0.112 0.584,-0.336 0,-0.128 -0.056,-0.344 -0.152,-0.584 l -1.176,-2.936 -1.208,2.704 c -0.264,0.583999 -0.328,0.768 -0.328,0.888 0,0.152 0.112,0.232 0.368,0.248 0.032,0 0.12,0.008 0.232,0.016 l 0,0.152 -2.128,0 0,-0.152 c 0.392,-0.016 0.504,-0.128001 0.848,-0.84 l 1.968,-4.392 0.12,0 1.776,4.488 c 0.264,0.631999 0.352,0.72 0.736,0.744 l 0,0.152" /><path
       inkscape:connector-curvature="0"
       id="path3118"
       style="font-size:8px;font-variant:normal;font-weight:normal;writing-mode:lr-tb;fill:#231f20;fill-opacity:1;fill-rule:nonzero;stroke:none;font-family:Times;-inkscape-font-specification:Times-Roman"
       d="m 220.56163,11.479535 c 0.592,0.384 0.832,0.592 1.128,0.96 0.568,0.695999 0.848,1.496001 0.848,2.432 0,1.023999 -0.296,1.800001 -1,2.616 -0.328,0.384 -0.536,0.56 -0.952,0.816 l -0.096,-0.128 c 0.64,-0.503999 0.856,-0.784001 1.08,-1.384 0.192,-0.535999 0.28,-1.144001 0.28,-1.944 0,-0.831999 -0.104,-1.496 -0.32,-1.984 -0.224,-0.503999 -0.464,-0.792 -1.04,-1.256 l 0.072,-0.128" /><path
       inkscape:connector-curvature="0"
       id="path3121"
       style="font-size:8px;font-style:italic;font-variant:normal;writing-mode:lr-tb;fill:#231f20;fill-opacity:1;fill-rule:nonzero;stroke:none;font-family:Times;-inkscape-font-specification:Times-Italic"
       d="m 200.21065,126.3168 1.952,0 0,0.128 c -0.456,0.056 -0.544,0.104 -0.544,0.328 0,0.152 0.016,0.248 0.088,0.504 l 0.984,3.544 c 0.144,0.464 0.2,0.512 0.656,0.592 l 0,0.128 -1.976,0 0,-0.128 c 0.464,-0.056 0.56,-0.12 0.56,-0.344 0,-0.112 -0.032,-0.296 -0.088,-0.496 l -0.984,-3.536 c -0.144,-0.464 -0.2,-0.512 -0.648,-0.592 l 0,-0.128" /><path
       inkscape:connector-curvature="0"
       id="path3124"
       style="font-size:6px;font-style:italic;font-variant:normal;writing-mode:lr-tb;fill:#231f20;fill-opacity:1;fill-rule:nonzero;stroke:none;font-family:Times;-inkscape-font-specification:Times-Italic"
       d="m 206.74271,128.2348 -2.982,0 0,-0.096 c 0.372,-0.036 0.462,-0.084 0.462,-0.246 0,-0.066 -0.036,-0.276 -0.066,-0.384 l -0.738,-2.652 c -0.102,-0.342 -0.15,-0.384 -0.486,-0.444 l 0,-0.096 3.042,0 0.372,0.972 -0.096,0.048 c -0.282,-0.384 -0.438,-0.54 -0.696,-0.66 -0.222,-0.102 -0.63,-0.162 -1.08,-0.162 -0.336,0 -0.48,0.06 -0.48,0.204 0,0.066 0.066,0.348 0.216,0.876 0.078,0.264 0.132,0.462 0.192,0.69 0.21,-0.012 0.396,-0.018 0.468,-0.018 0.234,0.006 0.402,-0.03 0.468,-0.09 0.03,-0.03 0.042,-0.084 0.042,-0.186 0,-0.102 -0.012,-0.18 -0.042,-0.312 l 0.12,-0.03 0.408,1.392 -0.108,0.024 c -0.228,-0.51 -0.282,-0.546 -0.828,-0.57 -0.072,0 -0.264,-0.006 -0.474,-0.012 l 0.396,1.398 c 0.036,0.132 0.102,0.156 0.438,0.156 0.942,0 1.152,-0.078 1.152,-0.438 0,-0.078 -0.006,-0.168 -0.012,-0.27 l 0.126,-0.012 0.186,0.918" /><path
       inkscape:connector-curvature="0"
       id="path3127"
       style="font-size:8px;font-variant:normal;font-weight:normal;writing-mode:lr-tb;fill:#231f20;fill-opacity:1;fill-rule:nonzero;stroke:none;font-family:Times;-inkscape-font-specification:Times-Roman"
       d="m 212.87633,129.4048 -4.032,0 0,-0.528 4.032,0 0,0.528 m 0,-1.6 -4.032,0 0,-0.528 4.032,0 0,0.528" /><path
       inkscape:connector-curvature="0"
       id="path3129"
       style="font-size:8px;font-variant:normal;font-weight:normal;writing-mode:lr-tb;fill:#231f20;fill-opacity:1;fill-rule:nonzero;stroke:none;font-family:Times;-inkscape-font-specification:Times-Roman"
       d="m 218.89233,128.1648 -0.816,0 0,3.56 -0.352,0 -2.512,-3.56 0,-0.512 2.248,0 0,-1.336 0.616,0 0,1.336 0.816,0 0,0.512 m -1.44,0 -1.92,0 1.92,2.744 0,-2.744" /><path
       inkscape:connector-curvature="0"
       id="path3131"
       style="font-size:8px;font-variant:normal;font-weight:normal;writing-mode:lr-tb;fill:#231f20;fill-opacity:1;fill-rule:nonzero;stroke:none;font-family:Times;-inkscape-font-specification:Times-Roman"
       d="m 221.26843,129.5008 c 0.104,0.024 0.168,0.032 0.256,0.032 0.208,0 0.28,-0.128 0.28,-0.512 l 0,-2.024 c 0,-0.432 -0.112,-0.552 -0.56,-0.56 l 0,-0.12 1.776,0 0,0.12 c -0.424,0.016 -0.544,0.104 -0.544,0.416 l 0,2.256 c 0,0.016 0.064,0.096 0.12,0.152 0.2,0.184 0.544,0.32 0.824,0.32 0.352,0 0.528,-0.28 0.528,-0.84 l 0,-1.736 c 0,-0.448 -0.088,-0.536 -0.544,-0.568 l 0,-0.12 1.792,0 0,0.12 c -0.456,0.008 -0.576,0.144 -0.576,0.64 l 0,2.016 c 0.24,0.344 0.504,0.488 0.872,0.488 0.456,0 0.6,-0.216 0.6,-0.88 l 0,-1.688 c 0,-0.456 -0.064,-0.52 -0.528,-0.576 l 0,-0.12 1.752,0 0,0.12 -0.208,0.016 c -0.24,0.016 -0.344,0.16 -0.344,0.472 l 0,1.648 c 0,0.944 -0.312,1.424 -0.928,1.424 -0.464,0 -0.872,-0.208 -1.304,-0.672 -0.144,0.456 -0.416,0.672 -0.848,0.672 -0.352,0 -0.576,-0.112 -1.24,-0.616 l 0,0.6 -0.056,0.016 c -0.408,-0.152 -0.68,-0.24 -1.12,-0.36 l 0,-0.136" /><path
       inkscape:connector-curvature="0"
       id="path3133"
       style="font-size:8px;font-variant:normal;font-weight:normal;writing-mode:lr-tb;fill:#231f20;fill-opacity:1;fill-rule:nonzero;stroke:none;font-family:Times;-inkscape-font-specification:Times-Roman"
       d="m 232.98806,126.4688 c -0.36,0.024 -0.44,0.104 -0.72,0.696 l -1.992,4.544 -0.16,0 -1.664,-3.928 c -0.512,-1.168 -0.608,-1.296 -0.992,-1.312 l 0,-0.152 1.584,0 0,0.152 c -0.384,0 -0.544,0.104 -0.544,0.328 0,0.096 0.024,0.208 0.064,0.312 l 0.368,0.936 2.096,0 0.328,-0.768 c 0.096,-0.216 0.152,-0.424 0.152,-0.536 0,-0.2 -0.136,-0.264 -0.56,-0.272 l 0,-0.152 2.04,0 0,0.152 m -3.92,1.904 0.92,2.2 0.928,-2.2 -1.848,0" /><path
       inkscape:connector-curvature="0"
       id="path3136"
       style="font-size:8px;font-style:italic;font-variant:normal;writing-mode:lr-tb;fill:#231f20;fill-opacity:1;fill-rule:nonzero;stroke:none;font-family:Times;-inkscape-font-specification:Times-Italic"
       d="m 8.9186599,143.99306 1.9520001,0 0,0.128 c -0.456,0.056 -0.544,0.104 -0.544,0.328 0,0.152 0.016,0.248 0.088,0.504 l 0.984,3.544 c 0.144,0.464 0.2,0.512 0.656,0.592 l 0,0.128 -1.976,0 0,-0.128 c 0.463999,-0.056 0.56,-0.12 0.56,-0.344 0,-0.112 -0.032,-0.296 -0.088,-0.496 l -0.9840001,-3.536 c -0.144,-0.464 -0.200001,-0.512 -0.648,-0.592 l 0,-0.128" /><path
       inkscape:connector-curvature="0"
       id="path3139"
       style="font-size:6px;font-style:italic;font-variant:normal;writing-mode:lr-tb;fill:#231f20;fill-opacity:1;fill-rule:nonzero;stroke:none;font-family:Times;-inkscape-font-specification:Times-Italic"
       d="m 15.55872,144.78306 0.222,1.194 -0.126,0 c -0.048,-0.096 -0.108,-0.132 -0.228,-0.132 -0.048,0 -0.12,0.012 -0.246,0.042 -0.27,0.066 -0.51,0.102 -0.702,0.102 -1.277999,0 -2.436,-1.206 -2.436,-2.538 0,-0.918 0.648001,-1.566 1.566,-1.566 0.617999,0 1.098001,0.264 1.638,0.894 l -0.102,0.084 c -0.539999,-0.528 -0.888,-0.708 -1.38,-0.708 -0.666,0 -1.05,0.456 -1.05,1.23 0,0.714 0.288,1.44 0.756,1.926 0.288,0.294 0.666,0.462 1.062,0.462 0.551999,0 0.858,-0.324 0.918,-0.972 l 0.108,-0.018" /><path
       inkscape:connector-curvature="0"
       id="path3144"
       style="font-size:8px;font-variant:normal;font-weight:normal;writing-mode:lr-tb;fill:#231f20;fill-opacity:1;fill-rule:nonzero;stroke:none;font-family:Times;-inkscape-font-specification:Times-Roman"
       d="m 19.458578,149.40106 c -0.591999,-0.384 -0.832,-0.592 -1.128,-0.96 -0.567999,-0.696 -0.848,-1.496 -0.848,-2.432 0,-1.016 0.296001,-1.8 1,-2.616 0.328,-0.384 0.536001,-0.56 0.952,-0.816 l 0.096,0.128 c -0.639999,0.504 -0.864,0.784 -1.08,1.384 -0.192,0.536 -0.28,1.144 -0.28,1.944 0,0.84 0.104,1.496 0.32,1.992 0.224,0.496 0.464001,0.784 1.04,1.248 l -0.072,0.128" /><path
       inkscape:connector-curvature="0"
       id="path3146"
       style="font-size:8px;font-variant:normal;font-weight:normal;writing-mode:lr-tb;fill:#231f20;fill-opacity:1;fill-rule:nonzero;stroke:none;font-family:Times;-inkscape-font-specification:Times-Roman"
       d="m 19.914378,147.17706 c 0.104,0.024 0.168,0.032 0.256,0.032 0.208,0 0.28,-0.128 0.28,-0.512 l 0,-2.024 c 0,-0.432 -0.112,-0.552 -0.56,-0.56 l 0,-0.12 1.776,0 0,0.12 c -0.423999,0.016 -0.544,0.104 -0.544,0.416 l 0,2.256 c 0,0.016 0.064,0.096 0.12,0.152 0.2,0.184 0.544001,0.32 0.824,0.32 0.352,0 0.528,-0.28 0.528,-0.84 l 0,-1.736 c 0,-0.448 -0.088,-0.536 -0.544,-0.568 l 0,-0.12 1.792,0 0,0.12 c -0.455999,0.008 -0.576,0.144 -0.576,0.64 l 0,2.016 c 0.24,0.344 0.504001,0.488 0.872,0.488 0.456,0 0.6,-0.216 0.6,-0.88 l 0,-1.688 c 0,-0.456 -0.064,-0.52 -0.528,-0.576 l 0,-0.12 1.752,0 0,0.12 -0.208,0.016 c -0.239999,0.016 -0.344,0.16 -0.344,0.472 l 0,1.648 c 0,0.944 -0.312,1.424 -0.928,1.424 -0.463999,0 -0.872,-0.208 -1.304,-0.672 -0.144,0.456 -0.416,0.672 -0.848,0.672 -0.351999,0 -0.576,-0.112 -1.24,-0.616 l 0,0.6 -0.056,0.016 c -0.407999,-0.152 -0.68,-0.24 -1.12,-0.36 l 0,-0.136" /><path
       inkscape:connector-curvature="0"
       id="path3148"
       style="font-size:8px;font-variant:normal;font-weight:normal;writing-mode:lr-tb;fill:#231f20;fill-opacity:1;fill-rule:nonzero;stroke:none;font-family:Times;-inkscape-font-specification:Times-Roman"
       d="m 31.634012,144.14506 c -0.36,0.024 -0.44,0.104 -0.72,0.696 l -1.992,4.544 -0.16,0 -1.664,-3.928 c -0.511999,-1.168 -0.608,-1.296 -0.992,-1.312 l 0,-0.152 1.584,0 0,0.152 c -0.384,0 -0.544,0.104 -0.544,0.328 0,0.096 0.024,0.208 0.064,0.312 l 0.368,0.936 2.096,0 0.328,-0.768 c 0.096,-0.216 0.152,-0.424 0.152,-0.536 0,-0.2 -0.136,-0.264 -0.56,-0.272 l 0,-0.152 2.04,0 0,0.152 m -3.92,1.904 0.92,2.2 0.928,-2.2 -1.848,0" /><path
       inkscape:connector-curvature="0"
       id="path3150"
       style="font-size:8px;font-variant:normal;font-weight:normal;writing-mode:lr-tb;fill:#231f20;fill-opacity:1;fill-rule:nonzero;stroke:none;font-family:Times;-inkscape-font-specification:Times-Roman"
       d="m 32.066378,142.57706 c 0.592,0.384 0.832001,0.592 1.128,0.96 0.568,0.696 0.848,1.496 0.848,2.432 0,1.024 -0.296,1.8 -1,2.616 -0.327999,0.384 -0.536,0.56 -0.952,0.816 l -0.096,-0.128 c 0.64,-0.504 0.856001,-0.784 1.08,-1.384 0.192,-0.536 0.28,-1.144 0.28,-1.944 0,-0.832 -0.104,-1.496 -0.32,-1.984 -0.223999,-0.504 -0.464,-0.792 -1.04,-1.256 l 0.072,-0.128" /><path
       inkscape:connector-curvature="0"
       id="path3152"
       style="font-size:8px;font-variant:normal;font-weight:normal;writing-mode:lr-tb;fill:#231f20;fill-opacity:1;fill-rule:nonzero;stroke:none;font-family:Times;-inkscape-font-specification:Times-Roman"
       d="m 202.53875,100.08036 c 0.472,0 0.656,-0.016 0.848,-0.08799 0.496,-0.176 0.808,-0.632 0.808,-1.184 0,-0.671999 -0.456,-1.192 -1.048,-1.192 -0.216,0 -0.376,0.056 -0.672,0.248 -0.24,0.144 -0.376,0.2 -0.512,0.2 -0.184,0 -0.304,-0.112 -0.304,-0.28 0,-0.28 0.344,-0.456 0.904,-0.456 0.616,0 1.248,0.208001 1.624,0.536 0.376,0.328 0.584,0.792001 0.584,1.328 0,0.408 -0.128,0.784 -0.36,1.031995 -0.16,0.17601 -0.312,0.27201 -0.664,0.42401 0.552,0.376 0.752,0.672 0.752,1.104 0,0.648 -0.512,1.096 -1.248,1.096 -0.4,0 -0.752,-0.136 -1.04,-0.392 -0.24,-0.216 -0.36,-0.424 -0.536,-0.904 l 0.12,-0.032 c 0.328,0.584 0.688,0.848 1.192,0.848 0.52,0 0.88,-0.352 0.88,-0.856 0,-0.288 -0.12,-0.576 -0.32,-0.776 -0.24,-0.24 -0.464,-0.36 -1.008,-0.55201 l 0,-0.104" /><path
       inkscape:connector-curvature="0"
       id="path3154"
       style="font-size:8px;font-variant:normal;font-weight:normal;writing-mode:lr-tb;fill:#231f20;fill-opacity:1;fill-rule:nonzero;stroke:none;font-family:Times;-inkscape-font-specification:Times-Roman"
       d="m 207.46675,100.62437 c 0.104,0.024 0.168,0.032 0.256,0.032 0.208,0 0.28,-0.128 0.28,-0.51201 l 0,-2.023995 c 0,-0.431999 -0.112,-0.552 -0.56,-0.56 l 0,-0.12 1.776,0 0,0.12 c -0.424,0.016 -0.544,0.104001 -0.544,0.416 l 0,2.255995 c 0,0.016 0.064,0.096 0.12,0.15201 0.2,0.184 0.544,0.32 0.824,0.32 0.352,0 0.528,-0.28 0.528,-0.840005 l 0,-1.736 c 0,-0.447999 -0.088,-0.536 -0.544,-0.568 l 0,-0.12 1.792,0 0,0.12 c -0.456,0.008 -0.576,0.144001 -0.576,0.64 l 0,2.015995 c 0.24,0.34401 0.504,0.48801 0.872,0.48801 0.456,0 0.6,-0.216 0.6,-0.880005 l 0,-1.688 c 0,-0.455999 -0.064,-0.52 -0.528,-0.576 l 0,-0.12 1.752,0 0,0.12 -0.208,0.016 c -0.24,0.016 -0.344,0.160001 -0.344,0.472 l 0,1.648 c 0,0.944005 -0.312,1.424005 -0.928,1.424005 -0.464,0 -0.872,-0.208 -1.304,-0.672 -0.144,0.456 -0.416,0.672 -0.848,0.672 -0.352,0 -0.576,-0.112 -1.24,-0.616 l 0,0.6 -0.056,0.016 c -0.408,-0.152 -0.68,-0.24 -1.12,-0.36 l 0,-0.136" /><path
       inkscape:connector-curvature="0"
       id="path3156"
       style="font-size:8px;font-variant:normal;font-weight:normal;writing-mode:lr-tb;fill:#231f20;fill-opacity:1;fill-rule:nonzero;stroke:none;font-family:Times;-inkscape-font-specification:Times-Roman"
       d="m 219.18638,97.592365 c -0.35999,0.024 -0.44,0.104001 -0.72,0.696 l -1.992,4.544005 -0.16,0 -1.664,-3.928005 c -0.51199,-1.167999 -0.608,-1.296 -0.992,-1.312 l 0,-0.152 1.584,0 0,0.152 c -0.38399,0 -0.544,0.104 -0.544,0.328 0,0.096 0.024,0.208 0.064,0.312 l 0.368,0.936 2.096,0 0.328,-0.768 c 0.096,-0.216 0.152,-0.424 0.152,-0.536 0,-0.2 -0.136,-0.264 -0.56,-0.272 l 0,-0.152 2.04,0 0,0.152 m -3.92,1.904 0.92,2.200005 0.928,-2.200005 -1.848,0" /><path
       inkscape:connector-curvature="0"
       id="path3158"
       style="font-size:8px;font-variant:normal;font-weight:normal;writing-mode:lr-tb;fill:#231f20;fill-opacity:1;fill-rule:nonzero;stroke:none;font-family:Times;-inkscape-font-specification:Times-Roman"
       d="m 205.11475,70.406349 -0.104,0.04 c -0.296,-0.456 -0.4,-0.528 -0.76,-0.528 l -1.912,0 1.344,1.408 c 0.712,0.743999 1.024,1.352 1.024,1.976 0,0.799999 -0.648,1.416 -1.48,1.416 -0.44,0 -0.856,-0.176001 -1.152,-0.496 -0.256,-0.272 -0.376,-0.528001 -0.512,-1.096 l 0.168,-0.04 c 0.32,0.783999 0.608,1.04 1.16,1.04 0.672,0 1.128,-0.456001 1.128,-1.128 0,-0.624 -0.368,-1.368001 -1.04,-2.08 l -1.424,-1.512 0,-0.096 3.12,0 0.44,1.096" /><path
       inkscape:connector-curvature="0"
       id="path3160"
       style="font-size:8px;font-variant:normal;font-weight:normal;writing-mode:lr-tb;fill:#231f20;fill-opacity:1;fill-rule:nonzero;stroke:none;font-family:Times;-inkscape-font-specification:Times-Roman"
       d="m 207.46675,72.494349 c 0.104,0.024 0.168,0.032 0.256,0.032 0.208,0 0.28,-0.128001 0.28,-0.512 l 0,-2.024 c 0,-0.432 -0.112,-0.552 -0.56,-0.56 l 0,-0.12 1.776,0 0,0.12 c -0.424,0.016 -0.544,0.104 -0.544,0.416 l 0,2.256 c 0,0.016 0.064,0.096 0.12,0.152 0.2,0.184 0.544,0.32 0.824,0.32 0.352,0 0.528,-0.280001 0.528,-0.84 l 0,-1.736 c 0,-0.448 -0.088,-0.536 -0.544,-0.568 l 0,-0.12 1.792,0 0,0.12 c -0.456,0.008 -0.576,0.144 -0.576,0.64 l 0,2.016 c 0.24,0.343999 0.504,0.488 0.872,0.488 0.456,0 0.6,-0.216001 0.6,-0.88 l 0,-1.688 c 0,-0.456 -0.064,-0.52 -0.528,-0.576 l 0,-0.12 1.752,0 0,0.12 -0.208,0.016 c -0.24,0.016 -0.344,0.16 -0.344,0.472 l 0,1.648 c 0,0.943999 -0.312,1.424 -0.928,1.424 -0.464,0 -0.872,-0.208001 -1.304,-0.672 -0.144,0.455999 -0.416,0.672 -0.848,0.672 -0.352,0 -0.576,-0.112001 -1.24,-0.616 l 0,0.6 -0.056,0.016 c -0.408,-0.152 -0.68,-0.24 -1.12,-0.36 l 0,-0.136" /><path
       inkscape:connector-curvature="0"
       id="path3162"
       style="font-size:8px;font-variant:normal;font-weight:normal;writing-mode:lr-tb;fill:#231f20;fill-opacity:1;fill-rule:nonzero;stroke:none;font-family:Times;-inkscape-font-specification:Times-Roman"
       d="m 219.18638,69.462349 c -0.35999,0.024 -0.44,0.104 -0.72,0.696 l -1.992,4.544 -0.16,0 -1.664,-3.928 c -0.51199,-1.167999 -0.608,-1.296 -0.992,-1.312 l 0,-0.152 1.584,0 0,0.152 c -0.38399,0 -0.544,0.104 -0.544,0.328 0,0.096 0.024,0.208 0.064,0.312 l 0.368,0.936 2.096,0 0.328,-0.768 c 0.096,-0.216 0.152,-0.424 0.152,-0.536 0,-0.2 -0.136,-0.264 -0.56,-0.272 l 0,-0.152 2.04,0 0,0.152 m -3.92,1.904 0.92,2.2 0.928,-2.2 -1.848,0" /><path
       inkscape:connector-curvature="0"
       id="path3164"
       style="font-size:8px;font-variant:normal;font-weight:normal;writing-mode:lr-tb;fill:#231f20;fill-opacity:1;fill-rule:nonzero;stroke:none;font-family:Times;-inkscape-font-specification:Times-Roman"
       d="m 203.64275,46.473287 -1.44,-0.728 0,-0.112 c 0.096,0.04 0.184,0.072 0.216,0.088 0.144,0.056 0.28,0.088 0.36,0.088 0.168,0 0.24,-0.12 0.24,-0.376 l 0,-3.624 c 0,-0.264 -0.064,-0.448 -0.192,-0.52 -0.12,-0.072 -0.232,-0.096 -0.568,-0.104 l 0,-0.12 2.208,0 0,0.12 c -0.632,0.008 -0.76,0.088 -0.76,0.472 l 0,4.8 -0.064,0.016" /><path
       inkscape:connector-curvature="0"
       id="path3166"
       style="font-size:8px;font-variant:normal;font-weight:normal;writing-mode:lr-tb;fill:#231f20;fill-opacity:1;fill-rule:nonzero;stroke:none;font-family:Times;-inkscape-font-specification:Times-Roman"
       d="m 207.46675,44.249287 c 0.104,0.024 0.168,0.032 0.256,0.032 0.208,0 0.28,-0.128 0.28,-0.512 l 0,-2.024 c 0,-0.432 -0.112,-0.552 -0.56,-0.56 l 0,-0.12 1.776,0 0,0.12 c -0.424,0.016 -0.544,0.104 -0.544,0.416 l 0,2.256 c 0,0.016 0.064,0.096 0.12,0.152 0.2,0.184 0.544,0.32 0.824,0.32 0.352,0 0.528,-0.28 0.528,-0.84 l 0,-1.736 c 0,-0.448 -0.088,-0.536 -0.544,-0.568 l 0,-0.12 1.792,0 0,0.12 c -0.456,0.008 -0.576,0.144 -0.576,0.64 l 0,2.016 c 0.24,0.344 0.504,0.488 0.872,0.488 0.456,0 0.6,-0.216 0.6,-0.88 l 0,-1.688 c 0,-0.456 -0.064,-0.52 -0.528,-0.576 l 0,-0.12 1.752,0 0,0.12 -0.208,0.016 c -0.24,0.016 -0.344,0.16 -0.344,0.472 l 0,1.648 c 0,0.944 -0.312,1.424 -0.928,1.424 -0.464,0 -0.872,-0.208 -1.304,-0.672 -0.144,0.456 -0.416,0.672 -0.848,0.672 -0.352,0 -0.576,-0.112 -1.24,-0.616 l 0,0.6 -0.056,0.016 c -0.408,-0.152 -0.68,-0.24 -1.12,-0.36 l 0,-0.136" /><path
       inkscape:connector-curvature="0"
       id="path3168"
       style="font-size:8px;font-variant:normal;font-weight:normal;writing-mode:lr-tb;fill:#231f20;fill-opacity:1;fill-rule:nonzero;stroke:none;font-family:Times;-inkscape-font-specification:Times-Roman"
       d="m 219.18638,41.217287 c -0.35999,0.024 -0.44,0.104 -0.72,0.696 l -1.992,4.544 -0.16,0 -1.664,-3.928 c -0.51199,-1.168 -0.608,-1.296 -0.992,-1.312 l 0,-0.152 1.584,0 0,0.152 c -0.38399,0 -0.544,0.104 -0.544,0.328 0,0.096 0.024,0.208 0.064,0.312 l 0.368,0.936 2.096,0 0.328,-0.768 c 0.096,-0.216 0.152,-0.424 0.152,-0.536 0,-0.2 -0.136,-0.264 -0.56,-0.272 l 0,-0.152 2.04,0 0,0.152 m -3.92,1.904 0.92,2.2 0.928,-2.2 -1.848,0" /><path
       inkscape:connector-curvature="0"
       id="path3170"
       style="font-size:8px;font-variant:normal;font-weight:normal;writing-mode:lr-tb;fill:#231f20;fill-opacity:1;fill-rule:nonzero;stroke:none;font-family:Times;-inkscape-font-specification:Times-Roman"
       d="m 11.20375,45.76109 -1.4400002,-0.728 0,-0.112 c 0.096,0.04 0.1840001,0.072 0.216,0.088 0.1440002,0.056 0.2800002,0.088 0.3600002,0.088 0.168,0 0.24,-0.12 0.24,-0.376 l 0,-3.624 c 0,-0.264 -0.064,-0.448 -0.192,-0.52 -0.12,-0.072 -0.232,-0.096 -0.5680002,-0.104 l 0,-0.12 2.2080002,0 0,0.12 c -0.631999,0.008 -0.76,0.088 -0.76,0.472 l 0,4.8 -0.064,0.016" /><path
       inkscape:connector-curvature="0"
       id="path3172"
       style="font-size:8px;font-variant:normal;font-weight:normal;writing-mode:lr-tb;fill:#231f20;fill-opacity:1;fill-rule:nonzero;stroke:none;font-family:Times;-inkscape-font-specification:Times-Roman"
       d="m 13.74895,13.14279 c -0.44,0 -0.776,-0.136 -1.072,-0.416 -0.463999,-0.448 -0.768,-1.368 -0.768,-2.304 0,-0.872 0.264,-1.808 0.64,-2.256 0.296,-0.352 0.704001,-0.544 1.168,-0.544 0.408,0 0.752,0.136 1.039999,0.416 0.464001,0.44 0.768001,1.368 0.768001,2.336 0,1.64 -0.728002,2.768 -1.776,2.768 m -0.024,-0.208 c 0.671999,0 1.032,-0.904 1.032,-2.576 0,-1.672 -0.352001,-2.528 -1.04,-2.528 -0.687999,0 -1.04,0.856 -1.04,2.52 0,1.696 0.360001,2.584 1.048,2.584" /><path
       inkscape:connector-curvature="0"
       id="path3175"
       style="font-size:8px;font-variant:normal;font-weight:normal;writing-mode:lr-tb;fill:#231f20;fill-opacity:1;fill-rule:nonzero;stroke:none;font-family:Symbol;-inkscape-font-specification:Symbol"
       d="m 41.449049,6.352018 0,-0.44 4.192,0 0,0.44 -4.192,0" /><path
       inkscape:connector-curvature="0"
       id="path3178"
       style="font-size:8px;font-variant:normal;font-weight:normal;writing-mode:lr-tb;fill:#231f20;fill-opacity:1;fill-rule:nonzero;stroke:none;font-family:Times;-inkscape-font-specification:Times-Roman"
       d="m 49.553239,5.096018 -0.104,0.04 c -0.296,-0.4559995 -0.4,-0.528 -0.76,-0.528 l -1.912,0 1.344001,1.408 c 0.711998,0.7439993 1.024,1.3520006 1.024,1.976 0,0.7999992 -0.648001,1.416 -1.48,1.416 -0.44,0 -0.856,-0.1760003 -1.152,-0.496 -0.256,-0.2719997 -0.376,-0.5280006 -0.512,-1.096 l 0.168,-0.04 c 0.32,0.7839992 0.608001,1.04 1.159999,1.04 0.671999,0 1.128,-0.4560007 1.128,-1.128 0,-0.6239994 -0.368001,-1.3680007 -1.04,-2.08 l -1.423999,-1.512 0,-0.096 3.119999,0 0.44,1.096" /><path
       inkscape:connector-curvature="0"
       id="path3181"
       style="font-size:8px;font-variant:normal;font-weight:normal;writing-mode:lr-tb;fill:#231f20;fill-opacity:1;fill-rule:nonzero;stroke:none;font-family:Symbol;-inkscape-font-specification:Symbol"
       d="m 76.09084,6.352018 0,-0.44 4.192,0 0,0.44 -4.192,0" /><path
       inkscape:connector-curvature="0"
       id="path3184"
       style="font-size:8px;font-variant:normal;font-weight:normal;writing-mode:lr-tb;fill:#231f20;fill-opacity:1;fill-rule:nonzero;stroke:none;font-family:Times;-inkscape-font-specification:Times-Roman"
       d="m 84.17103,5.848018 -0.816001,0 0,3.56 -0.352,0 -2.512,-3.56 0,-0.512 2.248,0 0,-1.336 0.616,0 0,1.336 0.816001,0 0,0.512 m -1.44,0 -1.92,0 1.92,2.744 0,-2.744" /><path
       inkscape:connector-curvature="0"
       id="path3187"
       style="font-size:8px;font-variant:normal;font-weight:normal;writing-mode:lr-tb;fill:#231f20;fill-opacity:1;fill-rule:nonzero;stroke:none;font-family:Symbol;-inkscape-font-specification:Symbol"
       d="m 110.73183,6.352018 0,-0.44 4.192,0 0,0.44 -4.192,0" /><path
       inkscape:connector-curvature="0"
       id="path3190"
       style="font-size:8px;font-variant:normal;font-weight:normal;writing-mode:lr-tb;fill:#231f20;fill-opacity:1;fill-rule:nonzero;stroke:none;font-family:Times;-inkscape-font-specification:Times-Roman"
       d="m 118.60363,9.472018 c -0.912,-0.08 -1.376,-0.2320004 -1.96,-0.64 -0.864,-0.6159994 -1.336,-1.5280011 -1.336,-2.6 0,-0.6959993 0.216,-1.4000004 0.56,-1.8 0.304,-0.3519996 0.736,-0.544 1.232,-0.544 0.992,0 1.68,0.7600011 1.68,1.864 0,1.023999 -0.584,1.672 -1.504,1.672 -0.352,0 -0.52,-0.056 -1.024,-0.36 0.216,1.2079988 1.112,2.0720002 2.368,2.28 l -0.016,0.128 m -1.632,-2.416 c 0.688,0 1.088,-0.576001 1.088,-1.576 0,-0.8799991 -0.312,-1.368 -0.872,-1.368 -0.704,0 -1.136,0.7520012 -1.136,1.992 0,0.4079996 0.064,0.6320001 0.224,0.752 0.168,0.1279999 0.416,0.2 0.696,0.2" /><path
       inkscape:connector-curvature="0"
       id="path3193"
       style="font-size:8px;font-variant:normal;font-weight:normal;writing-mode:lr-tb;fill:#231f20;fill-opacity:1;fill-rule:nonzero;stroke:none;font-family:Symbol;-inkscape-font-specification:Symbol"
       d="m 145.37363,6.352018 0,-0.44 4.192,0 0,0.44 -4.192,0" /><path
       inkscape:connector-curvature="0"
       id="path3196"
       style="font-size:8px;font-variant:normal;font-weight:normal;writing-mode:lr-tb;fill:#231f20;fill-opacity:1;fill-rule:nonzero;stroke:none;font-family:Times;-inkscape-font-specification:Times-Roman"
       d="m 151.99665,6.968018 c 0.792,0.4239996 1.072,0.7600005 1.072,1.304 0,0.6559993 -0.576,1.136 -1.376,1.136 -0.872,0 -1.52,-0.5360007 -1.52,-1.264 0,-0.5199995 0.152,-0.7520007 0.992,-1.488 -0.864,-0.6559993 -1.04,-0.9040005 -1.04,-1.448 0,-0.7759992 0.632,-1.32 1.536,-1.32 0.96,0 1.576,0.5280008 1.576,1.352 0,0.6159994 -0.272,1.0080007 -1.24,1.728 m -0.144,-0.824 c 0.584,-0.4159996 0.776,-0.7040004 0.776,-1.152 0,-0.5199995 -0.36,-0.88 -0.88,-0.88 -0.608,0 -1.016,0.4640007 -1.016,1.16 0,0.5119995 0.176,0.8480004 0.64,1.224 l 0.48,-0.352 m -0.088,0.968 c -0.712,0.4639995 -1,0.8320004 -1,1.28 0,0.4639995 0.36,0.792 0.864,0.792 0.544,0 0.888,-0.3520006 0.888,-0.904 0,-0.4559995 -0.224,-0.8160003 -0.68,-1.12 -0.04,-0.024 -0.04,-0.024 -0.072,-0.048" /><path
       inkscape:connector-curvature="0"
       id="path3198"
       style="font-size:8px;font-variant:normal;font-weight:normal;writing-mode:lr-tb;fill:#231f20;fill-opacity:1;fill-rule:nonzero;stroke:none;font-family:Times;-inkscape-font-specification:Times-Roman"
       d="m 12.67546,70.656402 -0.104,0.04 c -0.296,-0.456 -0.4,-0.528 -0.76,-0.528 l -1.912,0 1.344,1.408 c 0.712,0.743999 1.024,1.352 1.024,1.976 0,0.799999 -0.648,1.416 -1.48,1.416 -0.44,0 -0.856,-0.176001 -1.152,-0.496 -0.256,-0.272 -0.376,-0.528001 -0.512,-1.096 l 0.168,-0.04 c 0.32,0.783999 0.608,1.04 1.16,1.04 0.672,0 1.128,-0.456001 1.128,-1.128 0,-0.624 -0.368,-1.368001 -1.04,-2.08 l -1.424,-1.512 0,-0.096 3.12,0 0.44,1.096" /><path
       inkscape:connector-curvature="0"
       id="path3200"
       style="font-size:8px;font-variant:normal;font-weight:normal;writing-mode:lr-tb;fill:#231f20;fill-opacity:1;fill-rule:nonzero;stroke:none;font-family:Times;-inkscape-font-specification:Times-Roman"
       d="m 10.09946,99.432 c 0.472,0 0.656,-0.016 0.848,-0.088 0.496,-0.176 0.808,-0.632001 0.808,-1.184 0,-0.672 -0.456,-1.192 -1.048,-1.192 -0.216,0 -0.376,0.056 -0.672,0.248 -0.24,0.143999 -0.376,0.2 -0.512,0.2 -0.184,0 -0.304,-0.112001 -0.304,-0.28 0,-0.28 0.344,-0.456 0.904,-0.456 0.616,0 1.248,0.208 1.624,0.536 0.376,0.327999 0.584,0.792 0.584,1.328 0,0.407999 -0.128,0.784 -0.36,1.032 -0.16,0.175999 -0.312,0.272 -0.664,0.424 0.552,0.376 0.752,0.672 0.752,1.104 0,0.648 -0.512,1.096 -1.248,1.096 -0.4,0 -0.752,-0.136 -1.04,-0.392 -0.24,-0.216 -0.36,-0.424 -0.536,-0.904 l 0.12,-0.032 c 0.328,0.584 0.688,0.848 1.192,0.848 0.52,0 0.88,-0.352 0.88,-0.856 0,-0.288 -0.12,-0.576 -0.32,-0.776 -0.24,-0.24 -0.464,-0.360001 -1.008,-0.552 l 0,-0.104" /><path
       inkscape:connector-curvature="0"
       id="path3202"
       style="font-size:8px;font-variant:normal;font-weight:normal;writing-mode:lr-tb;fill:#231f20;fill-opacity:1;fill-rule:nonzero;stroke:none;font-family:Times;-inkscape-font-specification:Times-Roman"
       d="m 12.65146,126.58086 -0.816,0 0,3.56 -0.352,0 -2.512,-3.56 0,-0.512 2.248,0 0,-1.336 0.616,0 0,1.336 0.816,0 0,0.512 m -1.44,0 -1.92,0 1.92,2.744 0,-2.744" /></g></svg>