<?xml version="1.0" encoding="UTF-8" standalone="no"?>
<!-- Created with Inkscape (http://www.inkscape.org/) -->

<svg
   xmlns:ns0="http://www.iki.fi/pav/software/textext/"
   xmlns:dc="http://purl.org/dc/elements/1.1/"
   xmlns:cc="http://creativecommons.org/ns#"
   xmlns:rdf="http://www.w3.org/1999/02/22-rdf-syntax-ns#"
   xmlns:svg="http://www.w3.org/2000/svg"
   xmlns="http://www.w3.org/2000/svg"
   xmlns:sodipodi="http://sodipodi.sourceforge.net/DTD/sodipodi-0.dtd"
   xmlns:inkscape="http://www.inkscape.org/namespaces/inkscape"
   id="svg2"
   version="1.1"
   inkscape:version="0.48.4 r9939"
   width="354.33069"
   height="212.59842"
   xml:space="preserve"
   sodipodi:docname="S3-EE-03-027.eps"><sodipodi:namedview
     pagecolor="#ffffff"
     bordercolor="#666666"
     borderopacity="1"
     objecttolerance="10"
     gridtolerance="10"
     guidetolerance="10"
     inkscape:pageopacity="0"
     inkscape:pageshadow="2"
     inkscape:window-width="1366"
     inkscape:window-height="744"
     id="namedview4"
     showgrid="false"
     units="cm"
     inkscape:object-nodes="true"
     inkscape:zoom="2.3960668"
     inkscape:cx="177.16534"
     inkscape:cy="106.29921"
     inkscape:window-x="0"
     inkscape:window-y="24"
     inkscape:window-maximized="1"
     inkscape:current-layer="g10"><inkscape:grid
       type="xygrid"
       id="grid3147"
       empspacing="5"
       visible="true"
       enabled="true"
       snapvisiblegridlinesonly="true" /></sodipodi:namedview><metadata
     id="metadata8"><rdf:RDF><cc:Work
         rdf:about=""><dc:format>image/svg+xml</dc:format><dc:type
           rdf:resource="http://purl.org/dc/dcmitype/StillImage" /><dc:title></dc:title></cc:Work></rdf:RDF></metadata><defs
     id="defs6" /><g
     id="g10"
     inkscape:groupmode="layer"
     inkscape:label="ink_ext_XXXXXX"
     transform="matrix(1.25,0,0,-1.25,0,212.59832)"><path
       inkscape:connector-curvature="0"
       id="path14"
       style="fill:none;stroke:#231f20;stroke-width:0.80000007;stroke-linecap:square;stroke-linejoin:miter;stroke-miterlimit:4;stroke-opacity:1;stroke-dasharray:none"
       d="m 210.0357,133.22572 0,-12.9772 m 0,-27.580159 0,-40.783179"
       sodipodi:nodetypes="cccc" /><path
       inkscape:connector-curvature="0"
       id="path16"
       style="fill:none;stroke:#231f20;stroke-width:0.80000000999999998;stroke-linecap:square;stroke-linejoin:miter;stroke-miterlimit:3.98052859000000003;stroke-opacity:1;stroke-dasharray:none"
       d="m 60.035397,51.725711 0,31.975416 m 0,20.043973 0,10.70442"
       sodipodi:nodetypes="cccc" /><path
       inkscape:connector-curvature="0"
       id="path18"
       style="fill:none;stroke:#231f20;stroke-width:0.5;stroke-linecap:butt;stroke-linejoin:miter;stroke-miterlimit:4;stroke-opacity:1;stroke-dasharray:none"
       d="m 141.3527,77.224521 0,-12.5" /><path
       inkscape:connector-curvature="0"
       id="path20"
       style="fill:#231f20;fill-opacity:1;fill-rule:nonzero;stroke:none"
       d="m 141.3527,65.107421 -1.3509,0.821 -0.0308,-0.0457 0.875,-2.2031 c 0.1691,-0.7676 0.3379,-1.5351 0.5067,-2.3027 0.169,0.7676 0.338,1.5351 0.507,2.3027 l 0.875,2.2031 -0.023,0.0457 -1.359,-0.821" /><path
       inkscape:connector-curvature="0"
       id="path22"
       style="fill:none;stroke:#231f20;stroke-width:0.5;stroke-linecap:butt;stroke-linejoin:miter;stroke-miterlimit:4;stroke-opacity:1;stroke-dasharray:none"
       d="m 100.6877,120.16052 12.5,0" /><path
       inkscape:connector-curvature="0"
       id="path24"
       style="fill:#231f20;fill-opacity:1;fill-rule:nonzero;stroke:none"
       d="m 112.8049,120.16052 -0.8211,-1.3508 0.0457,-0.0309 2.2032,0.875 c 0.7675,0.1688 1.5351,0.3379 2.3027,0.5067 -0.7676,0.1691 -1.5352,0.3375 -2.3027,0.507 l -2.2032,0.875 -0.0457,-0.0235 0.8211,-1.3585" /><path
       inkscape:connector-curvature="0"
       id="path26"
       style="fill:none;stroke:#231f20;stroke-width:0.5;stroke-linecap:butt;stroke-linejoin:miter;stroke-miterlimit:4;stroke-opacity:1;stroke-dasharray:none"
       d="m 160.19554,137.05892 -12.5,0" /><path
       inkscape:connector-curvature="0"
       id="path28"
       style="fill:#231f20;fill-opacity:1;fill-rule:nonzero;stroke:none"
       d="m 148.07854,137.05892 0.821,1.3512 -0.046,0.0308 -2.203,-0.875 c -0.767,-0.1683 -1.535,-0.3375 -2.302,-0.5062 0.767,-0.1692 1.535,-0.3379 2.302,-0.5074 l 2.203,-0.875 0.046,0.0234 -0.821,1.3582" /><path
       inkscape:connector-curvature="0"
       id="path3158"
       style="font-size:8px;font-style:italic;font-variant:normal;writing-mode:lr-tb;fill:#231f20;fill-opacity:1;fill-rule:nonzero;stroke:none;font-family:Times;-inkscape-font-specification:Times-Italic"
       d="m 102.54608,110.80752 -3.976003,0 0,-0.128 c 0.495999,-0.048 0.616,-0.112 0.616,-0.328 0,-0.088 -0.048,-0.368 -0.088,-0.512 l -0.984,-3.536 c -0.136,-0.456 -0.2,-0.512 -0.648,-0.592 l 0,-0.128 4.056003,0 0.496,1.296 -0.128,0.064 c -0.376,-0.512 -0.584,-0.72 -0.928,-0.88 -0.296,-0.136 -0.84,-0.216 -1.440003,-0.216 -0.448,0 -0.64,0.08 -0.64,0.272 0,0.088 0.088,0.464 0.288,1.168 0.104,0.352 0.176,0.616 0.256,0.92 0.28,-0.016 0.528,-0.024 0.624003,-0.024 0.312,0.008 0.536,-0.04 0.624,-0.12 0.04,-0.04 0.056,-0.112 0.056,-0.248 0,-0.136 -0.016,-0.24 -0.056,-0.416 l 0.16,-0.04 0.544,1.856 -0.144,0.032 c -0.304,-0.68 -0.376,-0.728 -1.104,-0.76 -0.096,0 -0.352003,-0.008 -0.632003,-0.016 l 0.528003,1.864 c 0.048,0.176 0.136,0.208 0.584,0.208 1.256,0 1.536,-0.104 1.536,-0.584 0,-0.104 -0.008,-0.224 -0.016,-0.36 l 0.168,-0.016 0.248,1.224" /><path
       inkscape:connector-curvature="0"
       id="path3160"
       style="font-size:8px;font-style:italic;font-variant:normal;writing-mode:lr-tb;fill:#231f20;fill-opacity:1;fill-rule:nonzero;stroke:none;font-family:Times;-inkscape-font-specification:Times-Italic"
       d="m 144.35578,69.629671 1.952,0 0,0.128 c -0.456,0.056 -0.544,0.104 -0.544,0.328 0,0.152 0.016,0.248 0.088,0.504 l 0.984,3.544 c 0.144,0.464 0.2,0.512 0.656,0.592 l 0,0.128 -1.976,0 0,-0.128 c 0.464,-0.056 0.56,-0.12 0.56,-0.344 0,-0.112 -0.032,-0.296 -0.088,-0.496 l -0.984,-3.536 c -0.144,-0.463999 -0.2,-0.512 -0.648,-0.592 l 0,-0.128" /><path
       inkscape:connector-curvature="0"
       id="path3163"
       style="font-size:6px;font-style:italic;font-variant:normal;writing-mode:lr-tb;fill:#231f20;fill-opacity:1;fill-rule:nonzero;stroke:none;font-family:Times;-inkscape-font-specification:Times-Italic"
       d="m 150.88784,71.547671 -2.982,0 0,-0.096 c 0.372,-0.036 0.462,-0.084 0.462,-0.246 0,-0.066 -0.036,-0.276 -0.066,-0.384 l -0.738,-2.652 c -0.102,-0.342 -0.15,-0.384 -0.486,-0.444 l 0,-0.096 3.042,0 0.372,0.972 -0.096,0.048 c -0.282,-0.384 -0.438,-0.54 -0.696,-0.66 -0.222,-0.102 -0.63,-0.162 -1.08,-0.162 -0.336,0 -0.48,0.06 -0.48,0.204 0,0.066 0.066,0.348001 0.216,0.876 0.078,0.264 0.132,0.462 0.192,0.69 0.21,-0.012 0.396,-0.018 0.468,-0.018 0.234,0.006 0.402,-0.03 0.468,-0.09 0.03,-0.03 0.042,-0.084 0.042,-0.186 0,-0.102 -0.012,-0.18 -0.042,-0.312 l 0.12,-0.03 0.408,1.392 -0.108,0.024 c -0.228,-0.509999 -0.282,-0.546 -0.828,-0.57 -0.072,0 -0.264,-0.006 -0.474,-0.012 l 0.396,1.398 c 0.036,0.132 0.102,0.156 0.438,0.156 0.942,0 1.152,-0.078 1.152,-0.438 0,-0.078 -0.006,-0.168 -0.012,-0.27 l 0.126,-0.012 0.186,0.918" /><path
       inkscape:connector-curvature="0"
       id="path3174"
       style="font-size:8px;font-style:italic;font-variant:normal;writing-mode:lr-tb;fill:#231f20;fill-opacity:1;fill-rule:nonzero;stroke:none;font-family:Times;-inkscape-font-specification:Times-Italic"
       d="m 105.56982,124.93782 1.952,0 0,0.128 c -0.456,0.056 -0.544,0.104 -0.544,0.328 0,0.152 0.016,0.248 0.088,0.504 l 0.984,3.544 c 0.144,0.464 0.2,0.512 0.656,0.592 l 0,0.128 -1.976,0 0,-0.128 c 0.464,-0.056 0.56,-0.12 0.56,-0.344 0,-0.112 -0.032,-0.296 -0.088,-0.496 l -0.984,-3.536 c -0.144,-0.464 -0.2,-0.512 -0.648,-0.592 l 0,-0.128" /><path
       inkscape:connector-curvature="0"
       id="path3177"
       style="font-size:6px;font-style:italic;font-variant:normal;writing-mode:lr-tb;fill:#231f20;fill-opacity:1;fill-rule:nonzero;stroke:none;font-family:Times;-inkscape-font-specification:Times-Italic"
       d="m 108.24949,122.93782 1.692,0 c 0.942,0 1.59,0.492 1.59,1.2 0,0.222 -0.072,0.432 -0.204,0.564 -0.12,0.138 -0.24,0.21 -0.552,0.342 0.426,0.102 0.6,0.174 0.792,0.342 0.168,0.144 0.258,0.348 0.258,0.588 0,0.57 -0.426,0.882 -1.2,0.882 l -1.548,0 0,-0.096 c 0.372,-0.03 0.462,-0.078 0.462,-0.246 0,-0.09 -0.024,-0.24 -0.066,-0.384 l -0.738,-2.652 c -0.108,-0.348 -0.15,-0.384 -0.486,-0.444 l 0,-0.096 m 1.476,1.986 c 0.39,0 0.642,-0.024 0.762,-0.072 0.246,-0.102 0.396,-0.366 0.396,-0.69 0,-0.648 -0.444,-1.044 -1.176,-1.044 -0.252,0 -0.384,0.09 -0.384,0.252 0,0.072 0.072,0.36 0.21,0.84 0.078,0.27 0.114,0.408 0.192,0.714 m 0.45,1.584 c 0.036,0.132 0.108,0.168 0.342,0.168 0.48,0 0.702,-0.204 0.702,-0.648 0,-0.342 -0.144,-0.606 -0.402,-0.75 -0.204,-0.12 -0.492,-0.162 -1.032,-0.162 l 0.39,1.392" /><path
       inkscape:connector-curvature="0"
       id="path3180"
       style="font-size:8px;font-style:italic;font-variant:normal;writing-mode:lr-tb;fill:#231f20;fill-opacity:1;fill-rule:nonzero;stroke:none;font-family:Times;-inkscape-font-specification:Times-Italic"
       d="m 149.97179,140.86442 1.952,0 0,0.128 c -0.456,0.056 -0.544,0.104 -0.544,0.328 0,0.152 0.016,0.248 0.088,0.504 l 0.984,3.544 c 0.144,0.464 0.2,0.512 0.656,0.592 l 0,0.128 -1.976,0 0,-0.128 c 0.464,-0.056 0.56,-0.12 0.56,-0.344 0,-0.112 -0.032,-0.296 -0.088,-0.496 l -0.984,-3.536 c -0.144,-0.464 -0.2,-0.512 -0.648,-0.592 l 0,-0.128" /><path
       inkscape:connector-curvature="0"
       id="path3183"
       style="font-size:6px;font-style:italic;font-variant:normal;writing-mode:lr-tb;fill:#231f20;fill-opacity:1;fill-rule:nonzero;stroke:none;font-family:Times;-inkscape-font-specification:Times-Italic"
       d="m 156.61185,141.65442 0.222,1.194 -0.126,0 c -0.048,-0.096 -0.108,-0.132 -0.228,-0.132 -0.048,0 -0.12,0.012 -0.246,0.042 -0.27,0.066 -0.51,0.102 -0.702,0.102 -1.278,0 -2.436,-1.206 -2.436,-2.538 0,-0.918 0.648,-1.566 1.566,-1.566 0.618,0 1.098,0.264 1.638,0.894 l -0.102,0.084 c -0.54,-0.528 -0.888,-0.708 -1.38,-0.708 -0.666,0 -1.05,0.456 -1.05,1.23 0,0.714 0.288,1.44 0.756,1.926 0.288,0.294 0.666,0.462 1.062,0.462 0.552,0 0.858,-0.324 0.918,-0.972 l 0.108,-0.018" /><path
       inkscape:connector-curvature="0"
       id="path84"
       style="fill:#ffffff;fill-opacity:1;fill-rule:nonzero;stroke:none"
       d="m 58.202272,70.430153 3.817836,0 0,-2.140955 -3.817836,0 0,2.140955 z" /><path
       inkscape:connector-curvature="0"
       id="path86"
       style="fill:none;stroke:#231f20;stroke-width:0.69999999;stroke-linecap:round;stroke-linejoin:round;stroke-miterlimit:3.86369991;stroke-opacity:1;stroke-dasharray:none"
       d="m 54.878397,70.347071 10.3144,0" /><path
       inkscape:connector-curvature="0"
       id="path88"
       style="fill:none;stroke:#231f20;stroke-width:0.69999999;stroke-linecap:round;stroke-linejoin:round;stroke-miterlimit:3.86369991;stroke-opacity:1;stroke-dasharray:none"
       d="m 56.850997,68.487671 6.3692,0" /><path
       inkscape:connector-curvature="0"
       id="path90"
       style="fill:none;stroke:#231f20;stroke-width:0.69999999;stroke-linecap:round;stroke-linejoin:round;stroke-miterlimit:3.86369991;stroke-opacity:1;stroke-dasharray:none"
       d="m 60.035397,70.714271 0,4.666" /><path
       inkscape:connector-curvature="0"
       id="path92"
       style="fill:none;stroke:#231f20;stroke-width:0.69999999;stroke-linecap:round;stroke-linejoin:round;stroke-miterlimit:3.86369991;stroke-opacity:1;stroke-dasharray:none"
       d="m 60.035397,63.821671 0,4.666" /><path
       inkscape:connector-curvature="0"
       id="path94"
       style="fill:#ffffff;fill-opacity:1;fill-rule:nonzero;stroke:none"
       d="m 204.8787,74.6568 10.3141,0 0,-1.964465 -10.3141,0 0,1.964465 z" /><path
       inkscape:connector-curvature="0"
       id="path96"
       style="fill:none;stroke:#231f20;stroke-width:0.69999999;stroke-linecap:round;stroke-linejoin:round;stroke-miterlimit:3.86369991;stroke-opacity:1;stroke-dasharray:none"
       d="m 204.8787,74.691282 10.314,0" /><path
       inkscape:connector-curvature="0"
       id="path98"
       style="fill:none;stroke:#231f20;stroke-width:0.69999999;stroke-linecap:round;stroke-linejoin:round;stroke-miterlimit:3.86369991;stroke-opacity:1;stroke-dasharray:none"
       d="m 206.8507,72.831882 6.369,0" /><path
       inkscape:connector-curvature="0"
       id="path100"
       style="fill:none;stroke:#231f20;stroke-width:0.69999999;stroke-linecap:round;stroke-linejoin:round;stroke-miterlimit:3.86369991;stroke-opacity:1;stroke-dasharray:none"
       d="m 210.0357,75.058482 0,4.666" /><path
       inkscape:connector-curvature="0"
       id="path102"
       style="fill:none;stroke:#231f20;stroke-width:0.69999999;stroke-linecap:round;stroke-linejoin:round;stroke-miterlimit:3.86369991;stroke-opacity:1;stroke-dasharray:none"
       d="m 210.0357,68.165882 0,4.666" /><path
       inkscape:connector-curvature="0"
       id="path104"
       style="fill:none;stroke:#231f20;stroke-width:0.8;stroke-linecap:butt;stroke-linejoin:miter;stroke-miterlimit:4;stroke-opacity:1;stroke-dasharray:none"
       d="m 210.0357,51.725711 -150.000303,0" /><path
       inkscape:connector-curvature="0"
       id="path106"
       style="fill:none;stroke:#231f20;stroke-width:0.8;stroke-linecap:butt;stroke-linejoin:miter;stroke-miterlimit:3.98052859;stroke-opacity:1;stroke-dasharray:none"
       d="m 135.5354,133.22572 74.5003,0" /><path
       inkscape:connector-curvature="0"
       id="path108"
       style="fill:#ffffff;fill-opacity:1;fill-rule:nonzero;stroke:none"
       d="m 199.0207,133.34212 c 0,-4.2664 -3.459,-7.7246 -7.724,-7.7246 -4.266,0 -7.725,3.4582 -7.725,7.7246 0,4.2656 3.459,7.7246 7.725,7.7246 4.265,0 7.724,-3.459 7.724,-7.7246" /><path
       inkscape:connector-curvature="0"
       id="path110"
       style="fill:none;stroke:#231f20;stroke-width:0.75;stroke-linecap:round;stroke-linejoin:round;stroke-miterlimit:3.86369991;stroke-opacity:1;stroke-dasharray:none"
       d="m 199.0207,133.34212 c 0,-4.2664 -3.459,-7.7246 -7.724,-7.7246 -4.266,0 -7.725,3.4582 -7.725,7.7246 0,4.2656 3.459,7.7246 7.725,7.7246 4.265,0 7.724,-3.459 7.724,-7.7246 z" /><path
       inkscape:connector-curvature="0"
       id="path112"
       style="fill:#ffffff;fill-opacity:1;fill-rule:nonzero;stroke:none"
       d="m 172.7857,133.22572 -0.084,-81.500009" /><path
       inkscape:connector-curvature="0"
       id="path114"
       style="fill:none;stroke:#231f20;stroke-width:0.8;stroke-linecap:butt;stroke-linejoin:miter;stroke-miterlimit:3.98052859;stroke-opacity:1;stroke-dasharray:none"
       d="m 172.7857,133.22572 -0.084,-81.500009" /><path
       inkscape:connector-curvature="0"
       id="path116"
       style="fill:#ffffff;fill-opacity:1;fill-rule:nonzero;stroke:none"
       d="m 135.5354,99.162021 0,-47.43631" /><path
       inkscape:connector-curvature="0"
       id="path118"
       style="fill:none;stroke:#231f20;stroke-width:0.8;stroke-linecap:butt;stroke-linejoin:miter;stroke-miterlimit:3.98052859;stroke-opacity:1;stroke-dasharray:none"
       d="m 135.5354,99.162021 0,-47.43631" /><path
       inkscape:connector-curvature="0"
       id="path120"
       style="fill:#ffffff;fill-opacity:1;fill-rule:nonzero;stroke:none"
       d="m 135.5354,133.22572 0,-7.816" /><path
       inkscape:connector-curvature="0"
       id="path122"
       style="fill:none;stroke:#231f20;stroke-width:0.79999995;stroke-linecap:round;stroke-linejoin:miter;stroke-miterlimit:3.98052859;stroke-opacity:1;stroke-dasharray:none"
       d="m 135.5354,133.22572 0,-7.67661" /><path
       inkscape:connector-curvature="0"
       id="path124"
       style="fill:none;stroke:#231f20;stroke-width:0.80000001;stroke-linecap:round;stroke-linejoin:round;stroke-miterlimit:3.86369991;stroke-opacity:1;stroke-dasharray:none"
       d="m 118.4507,119.38232 16.8418,6.0278" /><path
       inkscape:connector-curvature="0"
       id="path126"
       style="fill:none;stroke:#231f20;stroke-width:2;stroke-linecap:round;stroke-linejoin:round;stroke-miterlimit:3.86369991;stroke-opacity:1;stroke-dasharray:none"
       d="m 118.0932,105.15262 0,18.8047" /><path
       inkscape:connector-curvature="0"
       id="path128"
       style="fill:none;stroke:#231f20;stroke-width:0.80000001;stroke-linecap:round;stroke-linejoin:round;stroke-miterlimit:3.86369991;stroke-opacity:1;stroke-dasharray:none"
       d="M 118.5567,109.14369 135.5354,98.986624" /><path
       inkscape:connector-curvature="0"
       id="path130"
       style="fill:#231f20;fill-opacity:1;fill-rule:nonzero;stroke:none"
       d="m 130.3323,101.90802 -0.0894,2.5282 0.0894,0.007 2.3891,-2.9465 c 0.9375,-0.8363 1.8765,-1.672999 2.814,-2.510099 -1.2031,0.3656 -2.4058,0.7312 -3.6089,1.096399 l -3.7582,0.5047 -0.0465,0.0684 2.2105,1.2523" /><path
       inkscape:connector-curvature="0"
       id="path132"
       style="fill:#ffffff;fill-opacity:1;fill-rule:nonzero;stroke:none"
       d="m 180.4277,87.159789 c 0,-4.2664 -3.459,-7.7247 -7.724,-7.7247 -4.266,0 -7.725,3.4583 -7.725,7.7247 0,4.2656 3.459,7.7246 7.725,7.7246 4.265,0 7.724,-3.459 7.724,-7.7246" /><path
       inkscape:connector-curvature="0"
       id="path134"
       style="fill:none;stroke:#231f20;stroke-width:0.75;stroke-linecap:round;stroke-linejoin:round;stroke-miterlimit:3.86369991;stroke-opacity:1;stroke-dasharray:none"
       d="m 180.4277,87.159789 c 0,-4.2664 -3.459,-7.7247 -7.724,-7.7247 -4.266,0 -7.725,3.4583 -7.725,7.7247 0,4.2656 3.459,7.7246 7.725,7.7246 4.265,0 7.724,-3.459 7.724,-7.7246 z" /><path
       inkscape:connector-curvature="0"
       id="path136"
       style="fill:#ffffff;fill-opacity:1;fill-rule:nonzero;stroke:none"
       d="m 95.731097,114.66202 0,-62.936309" /><path
       inkscape:connector-curvature="0"
       id="path138"
       style="fill:none;stroke:#231f20;stroke-width:0.8;stroke-linecap:butt;stroke-linejoin:miter;stroke-miterlimit:3.98052859;stroke-opacity:1;stroke-dasharray:none"
       d="m 95.731097,114.66202 0,-62.936309" /><path
       inkscape:connector-curvature="0"
       id="path140"
       style="fill:#ffffff;fill-opacity:1;fill-rule:nonzero;stroke:none"
       d="m 103.4573,83.193721 c 0,-4.2664 -3.459003,-7.7247 -7.724603,-7.7247 -4.2656,0 -7.7246,3.4583 -7.7246,7.7247 0,4.2656 3.459,7.7246 7.7246,7.7246 4.2656,0 7.724603,-3.459 7.724603,-7.7246" /><path
       inkscape:connector-curvature="0"
       id="path142"
       style="fill:none;stroke:#231f20;stroke-width:0.75;stroke-linecap:round;stroke-linejoin:round;stroke-miterlimit:3.86369991;stroke-opacity:1;stroke-dasharray:none"
       d="m 103.4573,83.193721 c 0,-4.2664 -3.459003,-7.7247 -7.724603,-7.7247 -4.2656,0 -7.7246,3.4583 -7.7246,7.7247 0,4.2656 3.459,7.7246 7.7246,7.7246 4.2656,0 7.724603,-3.459 7.724603,-7.7246 z" /><path
       inkscape:connector-curvature="0"
       id="path144"
       style="fill:none;stroke:#231f20;stroke-width:0.8;stroke-linecap:round;stroke-linejoin:round;stroke-miterlimit:3.98052859;stroke-opacity:1;stroke-dasharray:none"
       d="m 118.0932,114.44952 -58.057803,0" /><path
       inkscape:connector-curvature="0"
       id="path146"
       style="fill:#ffffff;fill-opacity:1;fill-rule:nonzero;stroke:none"
       d="m 85.526797,114.83742 c 0,-4.2668 -3.459,-7.7246 -7.7246,-7.7246 -4.2656,0 -7.7246,3.4578 -7.7246,7.7246 0,4.2656 3.459,7.7246 7.7246,7.7246 4.2656,0 7.7246,-3.459 7.7246,-7.7246" /><path
       inkscape:connector-curvature="0"
       id="path148"
       style="fill:none;stroke:#231f20;stroke-width:0.75;stroke-linecap:round;stroke-linejoin:round;stroke-miterlimit:3.86369991;stroke-opacity:1;stroke-dasharray:none"
       d="m 85.526797,114.83742 c 0,-4.2668 -3.459,-7.7246 -7.7246,-7.7246 -4.2656,0 -7.7246,3.4578 -7.7246,7.7246 0,4.2656 3.459,7.7246 7.7246,7.7246 4.2656,0 7.7246,-3.459 7.7246,-7.7246 z" /><path
       inkscape:connector-curvature="0"
       id="path150"
       style="fill:#231f20;fill-opacity:1;fill-rule:nonzero;stroke:none"
       d="m 97.343597,114.44952 c 0,-0.9203 -0.7461,-1.6668 -1.6672,-1.6668 -0.9207,0 -1.6668,0.7465 -1.6668,1.6668 0,0.9203 0.7461,1.6672 1.6668,1.6672 0.9211,0 1.6672,-0.7469 1.6672,-1.6672" /><path
       inkscape:connector-curvature="0"
       id="path152"
       style="fill:#231f20;fill-opacity:1;fill-rule:nonzero;stroke:none"
       d="m 97.343597,51.725711 c 0,-0.920706 -0.7461,-1.66719 -1.6672,-1.66719 -0.9207,0 -1.6668,0.746484 -1.6668,1.66719 0,0.92031 0.7461,1.66679 1.6668,1.66679 0.9211,0 1.6672,-0.74648 1.6672,-1.66679" /><path
       inkscape:connector-curvature="0"
       id="path154"
       style="fill:#231f20;fill-opacity:1;fill-rule:nonzero;stroke:none"
       d="m 174.3687,51.726101 c 0,-0.920314 -0.746,-1.66758 -1.667,-1.66758 -0.921,0 -1.667,0.747266 -1.667,1.66758 0,0.92031 0.746,1.6668 1.667,1.6668 0.921,0 1.667,-0.74649 1.667,-1.6668" /><path
       inkscape:connector-curvature="0"
       id="path156"
       style="fill:#231f20;fill-opacity:1;fill-rule:nonzero;stroke:none"
       d="m 137.2026,51.726101 c 0,-0.920314 -0.7461,-1.66758 -1.6672,-1.66758 -0.9207,0 -1.6668,0.747266 -1.6668,1.66758 0,0.92031 0.7461,1.6668 1.6668,1.6668 0.9211,0 1.6672,-0.74649 1.6672,-1.6668" /><path
       inkscape:connector-curvature="0"
       id="path158"
       style="fill:#231f20;fill-opacity:1;fill-rule:nonzero;stroke:none"
       d="m 174.4527,133.22572 c 0,-0.9207 -0.746,-1.6672 -1.667,-1.6672 -0.921,0 -1.667,0.7465 -1.667,1.6672 0,0.9203 0.746,1.6668 1.667,1.6668 0.921,0 1.667,-0.7465 1.667,-1.6668" /><path
       inkscape:connector-curvature="0"
       id="path3195"
       style="font-size:8px;font-style:italic;font-variant:normal;writing-mode:lr-tb;fill:#231f20;fill-opacity:1;fill-rule:nonzero;stroke:none;font-family:Times;-inkscape-font-specification:Times-Italic"
       d="m 193.5137,131.29702 c -0.456,0.04 -0.504,0.104 -0.608,0.688 l -0.752,4.528 -0.208,0 -2.32,-4 c -0.632,-1.064 -0.712,-1.152 -1.032,-1.216 l 0,-0.128 1.496,0 0,0.128 c -0.408,0.04 -0.472,0.08 -0.472,0.28 0,0.152 0.024,0.224 0.16,0.496 l 0.456,0.904 1.76,0 0.16,-1.048 c 0.008,-0.072 0.016,-0.144 0.016,-0.208 0,-0.304 -0.112,-0.376 -0.624,-0.424 l 0,-0.128 1.968,0 0,0.128 m -3.112,1.968 1.2,2.08 0.352,-2.08 -1.552,0" /><path
       inkscape:connector-curvature="0"
       id="path3197"
       style="font-size:8px;font-style:italic;font-variant:normal;writing-mode:lr-tb;fill:#231f20;fill-opacity:1;fill-rule:nonzero;stroke:none;font-family:Times;-inkscape-font-specification:Times-Italic"
       d="m 80.0187,112.79192 c -0.456,0.04 -0.504,0.104 -0.608,0.688 l -0.752,4.528 -0.208,0 -2.32,-4 c -0.632,-1.064 -0.712,-1.152 -1.032,-1.216 l 0,-0.128 1.496,0 0,0.128 c -0.408,0.04 -0.472,0.08 -0.472,0.28 0,0.152 0.024,0.224 0.16,0.496 l 0.456,0.904 1.76,0 0.16,-1.048 c 0.008,-0.072 0.016,-0.144 0.016,-0.208 0,-0.304 -0.112,-0.376 -0.624,-0.424 l 0,-0.128 1.968,0 0,0.128 m -3.112,1.968 1.2,2.08 0.352,-2.08 -1.552,0" /><path
       inkscape:connector-curvature="0"
       id="path3199"
       style="font-size:8px;font-style:italic;font-variant:normal;writing-mode:lr-tb;fill:#231f20;fill-opacity:1;fill-rule:nonzero;stroke:none;font-family:Times;-inkscape-font-specification:Times-Italic"
       d="m 98.283402,84.706722 -1.488,0 0,-0.128 c 0.36,-0.04 0.504,-0.120001 0.504,-0.272 0,-0.152 -0.152,-0.496001 -0.416,-0.952 l -1.648,-2.848 -0.528,3.544 c -0.008,0.04 -0.008,0.072 -0.008,0.12 0,0.271999 0.112001,0.352 0.616,0.408 l 0,0.128 -1.928,0 0,-0.128 c 0.448,-0.056 0.464,-0.08 0.632,-1.08 l 0.68,-4.16 0.152,0 2.984,4.92 c 0.136,0.215999 0.264001,0.312 0.448,0.32 l 0,0.128" /><path
       inkscape:connector-curvature="0"
       id="path3201"
       style="font-size:8px;font-style:italic;font-variant:normal;writing-mode:lr-tb;fill:#231f20;fill-opacity:1;fill-rule:nonzero;stroke:none;font-family:Times;-inkscape-font-specification:Times-Italic"
       d="m 175.9502,89.808337 -1.488,0 0,-0.128 c 0.36,-0.04 0.504,-0.12 0.504,-0.272 0,-0.152 -0.152,-0.496 -0.416,-0.952 l -1.648,-2.848 -0.528,3.544 c -0.008,0.04 -0.008,0.072 -0.008,0.12 0,0.272 0.112,0.352 0.616,0.408 l 0,0.128 -1.928,0 0,-0.128 c 0.448,-0.056 0.464,-0.08 0.632,-1.08 l 0.68,-4.16 0.152,0 2.984,4.92 c 0.136,0.216 0.264,0.312 0.448,0.32 l 0,0.128" /><path
       style="fill:none;stroke:#000000;stroke-width:0.80000001;stroke-linecap:butt;stroke-linejoin:round;stroke-miterlimit:4;stroke-opacity:1;stroke-dasharray:none"
       d="m 60.073159,114.40201 0,-12 -4,-1.93599 8,-2.06401 -8,-1.600005 8,-2.4 -8,-1.6 8,-2.4 -8.11401,-1.6 7.83905,-2.4 -3.72504,-2.4 0,-12.259645"
       id="path3052"
       inkscape:connector-curvature="0"
       sodipodi:nodetypes="cccccccccccc" /><g
       style="font-style:normal;font-variant:normal;font-weight:normal;font-stretch:normal;letter-spacing:normal;word-spacing:normal;text-anchor:start;fill:none;stroke:#000000;stroke-width:1;stroke-linecap:butt;stroke-linejoin:miter;stroke-miterlimit:10.43299961;stroke-opacity:1;stroke-dasharray:none;stroke-dashoffset:0"
       ns0:preamble="/home/sriranga/Desktop/MCT/package.tex"
       ns0:text="$R_2$"
       word-spacing="normal"
       letter-spacing="normal"
       font-size-adjust="none"
       font-stretch="normal"
       font-weight="normal"
       font-variant="normal"
       font-style="normal"
       stroke-miterlimit="10.433"
       xml:space="preserve"
       transform="matrix(0.96,0,0,0.96,2.0306481,-578.0008)"
       id="g3283"><path
         style="fill:#000000;stroke-width:0"
         inkscape:connector-curvature="0"
         id="path3285"
         d="m 229.07,707.28 -0.04,0.01 -0.04,0 -0.03,0.01 -0.04,0 -0.04,0.01 -0.03,0.01 -0.03,0.01 -0.03,0.01 -0.03,0.01 -0.03,0.01 -0.03,0.01 -0.03,0.02 -0.03,0.01 -0.02,0.02 -0.03,0.02 -0.02,0.02 -0.03,0.02 -0.02,0.02 -0.02,0.03 -0.02,0.02 -0.02,0.03 -0.03,0.03 -0.02,0.03 -0.02,0.03 -0.01,0.04 -0.02,0.03 -0.02,0.04 -0.02,0.04 -0.02,0.04 -0.02,0.05 -0.02,0.04 -0.01,0.05 -0.93,2.43 c 0.77,0.17 1.1,0.31 1.45,0.63 0.33,0.29 0.51,0.67 0.51,1.12 0,0.92 -0.73,1.43 -2.07,1.43 l -0.21,-0.3 c 0.83,0 1.24,-0.37 1.24,-1.11 0,-0.98 -0.64,-1.49 -1.88,-1.49 -0.16,0 -0.27,0.01 -0.51,0.05 l 0.65,2.28 c 0.06,0.2 0.18,0.27 0.5,0.27 l 0.21,0.3 h -2.47 v -0.16 c 0.42,-0.06 0.47,-0.07 0.57,-0.14 0.08,-0.05 0.14,-0.16 0.14,-0.27 0,-0.12 -0.05,-0.36 -0.12,-0.63 l -1.22,-4.39 c -0.18,-0.59 -0.25,-0.65 -0.81,-0.74 v -0.16 h 2.43 v 0.16 c -0.61,0.08 -0.68,0.13 -0.68,0.46 0,0.1 0.03,0.23 0.12,0.58 l 0.56,2.07 0.65,-0.05 1.22,-3.22 h 1.47 z" /><path
         style="fill:#000000;stroke-width:0"
         inkscape:connector-curvature="0"
         id="path3287"
         d="m 232.83,706.58 -0.09,0.04 c -0.26,-0.4 -0.35,-0.46 -0.67,-0.46 h -1.66 l 1.17,1.22 c 0.62,0.65 0.89,1.18 0.89,1.72 0,0.7 -0.56,1.23 -1.29,1.23 -0.38,0 -0.74,-0.15 -1,-0.43 -0.22,-0.24 -0.33,-0.46 -0.44,-0.95 l 0.14,-0.04 c 0.28,0.68 0.53,0.91 1.01,0.91 0.59,0 0.98,-0.4 0.98,-0.98 0,-0.55 -0.32,-1.19 -0.9,-1.81 l -1.24,-1.32 v -0.08 h 2.71 z" /></g><path
       sodipodi:nodetypes="cccccccccccc"
       inkscape:connector-curvature="0"
       id="path4119"
       d="m 210.0357,123.99993 0,-12 -4,-1.93599 8,-2.06401 -8,-1.60001 8,-2.4 -8,-1.6 8,-2.399999 -8.11401,-1.6 7.83905,-2.399999 -3.72504,-2.4 0,-12.25964"
       style="fill:none;stroke:#000000;stroke-width:0.80000001;stroke-linecap:butt;stroke-linejoin:round;stroke-miterlimit:4;stroke-opacity:1;stroke-dasharray:none" /><g
       id="g5760"
       transform="matrix(0.96,0,0,0.96,-169.98983,-587.4832)"
       xml:space="preserve"
       stroke-miterlimit="10.433"
       font-style="normal"
       font-variant="normal"
       font-weight="normal"
       font-stretch="normal"
       font-size-adjust="none"
       letter-spacing="normal"
       word-spacing="normal"
       ns0:text="$R_1$"
       ns0:preamble="/home/sriranga/Desktop/MCT/package.tex"
       style="font-style:normal;font-variant:normal;font-weight:normal;font-stretch:normal;letter-spacing:normal;word-spacing:normal;text-anchor:start;fill:none;stroke:#000000;stroke-width:1;stroke-linecap:butt;stroke-linejoin:miter;stroke-miterlimit:10.43299961;stroke-opacity:1;stroke-dasharray:none;stroke-dashoffset:0"><path
         d="m 229.07,707.28 -0.04,0.01 -0.04,0 -0.03,0.01 -0.04,0 -0.04,0.01 -0.03,0.01 -0.03,0.01 -0.03,0.01 -0.03,0.01 -0.03,0.01 -0.03,0.01 -0.03,0.02 -0.03,0.01 -0.02,0.02 -0.03,0.02 -0.02,0.02 -0.03,0.02 -0.02,0.02 -0.02,0.03 -0.02,0.02 -0.02,0.03 -0.03,0.03 -0.02,0.03 -0.02,0.03 -0.01,0.04 -0.02,0.03 -0.02,0.04 -0.02,0.04 -0.02,0.04 -0.02,0.05 -0.02,0.04 -0.01,0.05 -0.93,2.43 c 0.77,0.17 1.1,0.31 1.45,0.63 0.33,0.29 0.51,0.67 0.51,1.12 0,0.92 -0.73,1.43 -2.07,1.43 l -0.21,-0.3 c 0.83,0 1.24,-0.37 1.24,-1.11 0,-0.98 -0.64,-1.49 -1.88,-1.49 -0.16,0 -0.27,0.01 -0.51,0.05 l 0.65,2.28 c 0.06,0.2 0.18,0.27 0.5,0.27 l 0.21,0.3 h -2.47 v -0.16 c 0.42,-0.06 0.47,-0.07 0.57,-0.14 0.08,-0.05 0.14,-0.16 0.14,-0.27 0,-0.12 -0.05,-0.36 -0.12,-0.63 l -1.22,-4.39 c -0.18,-0.59 -0.25,-0.65 -0.81,-0.74 v -0.16 h 2.43 v 0.16 c -0.61,0.08 -0.68,0.13 -0.68,0.46 0,0.1 0.03,0.23 0.12,0.58 l 0.56,2.07 0.65,-0.05 1.22,-3.22 h 1.47 z"
         id="path5762"
         inkscape:connector-curvature="0"
         style="fill:#000000;stroke-width:0" /><path
         d="m 231.55,710.33 -1.26,-0.63 v -0.1 c 0.09,0.04 0.16,0.06 0.19,0.08 0.12,0.05 0.24,0.08 0.31,0.08 0.15,0 0.21,-0.11 0.21,-0.33 v -3.15 c 0,-0.23 -0.05,-0.39 -0.16,-0.45 -0.11,-0.07 -0.21,-0.09 -0.5,-0.1 v -0.1 h 1.92 v 0.1 c -0.55,0.01 -0.66,0.08 -0.66,0.42 v 4.17 z"
         id="path5764"
         inkscape:connector-curvature="0"
         style="fill:#000000;stroke-width:0" /></g><g
       style="font-style:normal;font-variant:normal;font-weight:normal;font-stretch:normal;letter-spacing:normal;word-spacing:normal;text-anchor:start;fill:none;stroke:#000000;stroke-width:1;stroke-linecap:butt;stroke-linejoin:miter;stroke-miterlimit:10.43299961;stroke-opacity:1;stroke-dasharray:none;stroke-dashoffset:0"
       ns0:preamble="/home/sriranga/Desktop/MCT/package.tex"
       ns0:text="$V_{BB}$"
       word-spacing="normal"
       letter-spacing="normal"
       font-size-adjust="none"
       font-stretch="normal"
       font-weight="normal"
       font-variant="normal"
       font-style="normal"
       stroke-miterlimit="10.433"
       xml:space="preserve"
       transform="matrix(0.96,0,0,0.96,-177.31385,-610.05384)"
       id="g3178"><path
         id="path3180-4"
         d="m 230.28,713.61 h -1.85 v -0.16 c 0.44,-0.05 0.62,-0.15 0.62,-0.34 0,-0.18 -0.19,-0.61 -0.51,-1.18 l -2.05,-3.53 -0.66,4.4 c -0.01,0.05 -0.01,0.09 -0.01,0.15 0,0.33 0.14,0.43 0.77,0.5 v 0.16 h -2.4 v -0.16 c 0.55,-0.07 0.57,-0.1 0.78,-1.34 l 0.85,-5.16 h 0.19 l 3.71,6.1 c 0.17,0.27 0.33,0.39 0.56,0.4 z"
         inkscape:connector-curvature="0"
         style="fill:#000000;stroke-width:0" /><path
         id="path3182"
         d="m 229.71,705.63 h 1.96 c 1.09,0 1.85,0.57 1.85,1.39 0,0.26 -0.09,0.5 -0.24,0.65 -0.14,0.17 -0.28,0.25 -0.64,0.4 0.49,0.12 0.7,0.2 0.92,0.4 0.19,0.17 0.3,0.4 0.3,0.68 0,0.66 -0.5,1.02 -1.4,1.02 l -0.12,-0.21 c 0.56,0 0.81,-0.23 0.81,-0.75 0,-0.39 -0.16,-0.7 -0.46,-0.87 -0.24,-0.14 -0.57,-0.18 -1.2,-0.18 l -0.07,-0.23 c 0.45,0 0.75,-0.02 0.88,-0.08 0.29,-0.12 0.46,-0.43 0.46,-0.8 0,-0.75 -0.51,-1.21 -1.36,-1.21 -0.29,0 -0.45,0.1 -0.45,0.29 0,0.09 0.09,0.42 0.25,0.97 0.09,0.32 0.13,0.48 0.22,0.83 h 0 l 0.07,0.23 0.45,1.61 c 0.05,0.15 0.13,0.19 0.4,0.19 l 0.12,0.21 h -1.79 v -0.11 c 0.43,-0.03 0.54,-0.09 0.54,-0.28 0,-0.11 -0.03,-0.28 -0.08,-0.45 l -0.86,-3.07 c -0.12,-0.41 -0.17,-0.45 -0.56,-0.52 z"
         inkscape:connector-curvature="0"
         style="fill:#000000;stroke-width:0" /><path
         id="path3184"
         d="m 234.14,705.63 h 1.97 c 1.09,0 1.84,0.57 1.84,1.39 0,0.26 -0.08,0.5 -0.24,0.65 -0.13,0.17 -0.27,0.25 -0.64,0.4 0.5,0.12 0.7,0.2 0.92,0.4 0.2,0.17 0.3,0.4 0.3,0.68 0,0.66 -0.49,1.02 -1.39,1.02 l -0.13,-0.21 c 0.56,0 0.82,-0.23 0.82,-0.75 0,-0.39 -0.17,-0.7 -0.47,-0.87 -0.23,-0.14 -0.57,-0.18 -1.19,-0.18 l -0.07,-0.23 c 0.45,0 0.74,-0.02 0.88,-0.08 0.29,-0.12 0.46,-0.43 0.46,-0.8 0,-0.75 -0.52,-1.21 -1.36,-1.21 -0.3,0 -0.45,0.1 -0.45,0.29 0,0.09 0.08,0.42 0.24,0.97 0.09,0.32 0.13,0.48 0.23,0.83 h 0 l 0.07,0.23 0.45,1.61 c 0.04,0.15 0.12,0.19 0.39,0.19 l 0.13,0.21 h -1.8 v -0.11 c 0.44,-0.03 0.54,-0.09 0.54,-0.28 0,-0.11 -0.03,-0.28 -0.08,-0.45 l -0.85,-3.07 c -0.13,-0.41 -0.18,-0.45 -0.57,-0.52 z"
         inkscape:connector-curvature="0"
         style="fill:#000000;stroke-width:0" /></g><g
       style="font-style:normal;font-variant:normal;font-weight:normal;font-stretch:normal;letter-spacing:normal;word-spacing:normal;text-anchor:start;fill:none;stroke:#000000;stroke-width:1;stroke-linecap:butt;stroke-linejoin:miter;stroke-miterlimit:10.43299961;stroke-opacity:1;stroke-dasharray:none;stroke-dashoffset:0"
       ns0:preamble="/home/sriranga/Desktop/MCT/package.tex"
       ns0:text="$V_{CC}$"
       word-spacing="normal"
       letter-spacing="normal"
       font-size-adjust="none"
       font-stretch="normal"
       font-weight="normal"
       font-variant="normal"
       font-style="normal"
       stroke-miterlimit="10.433"
       xml:space="preserve"
       transform="matrix(0.96,0,0,0.96,4.2536749,-607.78215)"
       id="g4623"><path
         id="path4625"
         d="m 230.28,713.61 h -1.85 v -0.16 c 0.44,-0.05 0.62,-0.15 0.62,-0.34 0,-0.18 -0.19,-0.61 -0.51,-1.18 l -2.05,-3.53 -0.66,4.4 c -0.01,0.05 -0.01,0.09 -0.01,0.15 0,0.33 0.14,0.43 0.77,0.5 v 0.16 h -2.4 v -0.16 c 0.55,-0.07 0.57,-0.1 0.78,-1.34 l 0.85,-5.16 h 0.19 l 3.71,6.1 c 0.17,0.27 0.33,0.39 0.56,0.4 z"
         inkscape:connector-curvature="0"
         style="fill:#000000;stroke-width:0" /><path
         id="path4627"
         d="m 233.89,708.86 0.25,1.39 H 234 c -0.06,-0.11 -0.13,-0.16 -0.27,-0.16 -0.05,0 -0.14,0.02 -0.28,0.05 -0.32,0.08 -0.6,0.12 -0.82,0.12 -1.48,0 -2.83,-1.4 -2.83,-2.94 0,-1.06 0.76,-1.81 1.82,-1.81 0.72,0 1.28,0.3 1.9,1.03 l -0.12,0.1 c -0.62,-0.61 -1.02,-0.82 -1.6,-0.82 -0.77,0 -1.21,0.53 -1.21,1.42 0,0.83 0.33,1.67 0.87,2.24 0.34,0.34 0.78,0.53 1.24,0.53 0.64,0 0.99,-0.37 1.06,-1.12 z"
         inkscape:connector-curvature="0"
         style="fill:#000000;stroke-width:0" /><path
         id="path4629"
         d="m 238.69,708.86 0.26,1.39 h -0.15 c -0.05,-0.11 -0.12,-0.16 -0.26,-0.16 -0.06,0 -0.14,0.02 -0.29,0.05 -0.31,0.08 -0.59,0.12 -0.81,0.12 -1.49,0 -2.83,-1.4 -2.83,-2.94 0,-1.06 0.75,-1.81 1.82,-1.81 0.72,0 1.27,0.3 1.9,1.03 l -0.12,0.1 c -0.63,-0.61 -1.03,-0.82 -1.6,-0.82 -0.77,0 -1.22,0.53 -1.22,1.42 0,0.83 0.33,1.67 0.88,2.24 0.33,0.34 0.77,0.53 1.23,0.53 0.64,0 1,-0.37 1.07,-1.12 z"
         inkscape:connector-curvature="0"
         style="fill:#000000;stroke-width:0" /></g><g
       id="content"
       transform="matrix(0.96,0,0,0.96,-109.76444,-599.65754)"
       xml:space="preserve"
       stroke="black"
       stroke-linecap="butt"
       stroke-linejoin="miter"
       stroke-miterlimit="10.433"
       stroke-dasharray="none"
       stroke-dashoffset="0"
       stroke-opacity="1"
       fill="none"
       fill-rule="evenodd"
       fill-opacity="1"
       font-style="normal"
       font-variant="normal"
       font-weight="normal"
       font-stretch="normal"
       font-size-adjust="none"
       letter-spacing="normal"
       word-spacing="normal"
       text-anchor="start"
       ns0:text="$V_{BE}$"
       ns0:preamble="/home/sriranga/Desktop/MCT/package.tex"
       style="font-style:normal;font-variant:normal;font-weight:normal;font-stretch:normal;letter-spacing:normal;word-spacing:normal;text-anchor:start;fill:none;stroke:#000000;stroke-width:1;stroke-linecap:butt;stroke-linejoin:miter;stroke-miterlimit:10.43299961;stroke-opacity:1;stroke-dasharray:none;stroke-dashoffset:0"><path
         d="M230.28,713.61 H228.43 V713.45 C228.87,713.4,229.05,713.3,229.05,713.11 C229.05,712.93,228.86,712.5,228.54,711.93 L226.49,708.4 L225.83,712.8 C225.82,712.85,225.82,712.89,225.82,712.95 C225.82,713.28,225.96,713.38,226.59,713.45 V713.61 H224.19 V713.45 C224.74,713.38,224.76,713.35,224.97,712.11 L225.82,706.95 H226.01 L229.72,713.05 C229.89,713.32,230.05,713.44,230.28,713.45 Z "
         stroke-width="0"
         fill="black"
         id="path4246" /><path
         d="M229.71,705.63 H231.67 C232.76,705.63,233.52,706.2,233.52,707.02 C233.52,707.28,233.43,707.52,233.28,707.67 C233.14,707.84,233,707.92,232.64,708.07 C233.13,708.19,233.34,708.27,233.56,708.47 C233.75,708.64,233.86,708.87,233.86,709.15 C233.86,709.81,233.36,710.17,232.46,710.17 L232.34,709.96 C232.9,709.96,233.15,709.73,233.15,709.21 C233.15,708.82,232.99,708.51,232.69,708.34 C232.45,708.2,232.12,708.16,231.49,708.16 L231.42,707.93 C231.87,707.93,232.17,707.91,232.3,707.85 C232.59,707.73,232.76,707.42,232.76,707.05 C232.76,706.3,232.25,705.84,231.4,705.84 C231.11,705.84,230.95,705.94,230.95,706.13 C230.95,706.22,231.04,706.55,231.2,707.1 C231.29,707.42,231.33,707.58,231.42,707.93 H231.42 L231.49,708.16 L231.94,709.77 C231.99,709.92,232.07,709.96,232.34,709.96 L232.46,710.17 H230.67 V710.06 C231.1,710.03,231.21,709.97,231.21,709.78 C231.21,709.67,231.18,709.5,231.13,709.33 L230.27,706.26 C230.15,705.85,230.1,705.81,229.71,705.74 Z "
         stroke-width="0"
         fill="black"
         id="path4248" /><path
         d="M238.54,710.17 H235.08 V710.06 C235.51,710.02,235.62,709.96,235.62,709.78 C235.62,709.7,235.58,709.46,235.54,709.33 L234.69,706.26 C234.57,705.86,234.51,705.81,234.12,705.74 V705.63 H237.65 L238.08,706.76 L237.97,706.81 C237.65,706.37,237.46,706.19,237.16,706.05 C236.91,705.93,236.43,705.86,235.91,705.86 C235.52,705.86,235.35,705.93,235.35,706.1 C235.35,706.17,235.43,706.5,235.6,707.11 C235.7,707.42,235.76,707.65,235.83,707.91 C236.07,707.9,236.29,707.89,236.37,707.89 C236.64,707.9,236.84,707.86,236.91,707.79 C236.95,707.75,236.96,707.69,236.96,707.57 C236.96,707.45,236.95,707.36,236.91,707.21 L237.05,707.17 L237.53,708.79 L237.4,708.82 C237.14,708.22,237.07,708.18,236.44,708.16 C236.36,708.16,236.13,708.15,235.89,708.14 L236.35,709.76 C236.39,709.91,236.47,709.94,236.86,709.94 C237.95,709.94,238.2,709.85,238.2,709.43 C238.2,709.34,238.19,709.24,238.18,709.12 L238.33,709.11 Z "
         stroke-width="0"
         fill="black"
         id="path4250" /></g><g
       style="font-style:normal;font-variant:normal;font-weight:normal;font-stretch:normal;letter-spacing:normal;word-spacing:normal;text-anchor:start;fill:none;stroke:#000000;stroke-width:1;stroke-linecap:butt;stroke-linejoin:miter;stroke-miterlimit:10.43299961;stroke-opacity:1;stroke-dasharray:none;stroke-dashoffset:0"
       ns0:preamble="/home/sriranga/Desktop/MCT/package.tex"
       ns0:text="$V_{CE}$"
       word-spacing="normal"
       letter-spacing="normal"
       font-size-adjust="none"
       font-stretch="normal"
       font-weight="normal"
       font-variant="normal"
       font-style="normal"
       stroke-miterlimit="10.433"
       xml:space="preserve"
       transform="matrix(0.96,0,0,0.96,-32.963685,-595.28867)"
       id="g4429"><path
         id="path4431"
         d="m 230.28,713.61 h -1.85 v -0.16 c 0.44,-0.05 0.62,-0.15 0.62,-0.34 0,-0.18 -0.19,-0.61 -0.51,-1.18 l -2.05,-3.53 -0.66,4.4 c -0.01,0.05 -0.01,0.09 -0.01,0.15 0,0.33 0.14,0.43 0.77,0.5 v 0.16 h -2.4 v -0.16 c 0.55,-0.07 0.57,-0.1 0.78,-1.34 l 0.85,-5.16 h 0.19 l 3.71,6.1 c 0.17,0.27 0.33,0.39 0.56,0.4 z"
         inkscape:connector-curvature="0"
         style="fill:#000000;stroke-width:0" /><path
         id="path4433"
         d="m 233.89,708.86 0.25,1.39 H 234 c -0.06,-0.11 -0.13,-0.16 -0.27,-0.16 -0.05,0 -0.14,0.02 -0.28,0.05 -0.32,0.08 -0.6,0.12 -0.82,0.12 -1.48,0 -2.83,-1.4 -2.83,-2.94 0,-1.06 0.76,-1.81 1.82,-1.81 0.72,0 1.28,0.3 1.9,1.03 l -0.12,0.1 c -0.62,-0.61 -1.02,-0.82 -1.6,-0.82 -0.77,0 -1.21,0.53 -1.21,1.42 0,0.83 0.33,1.67 0.87,2.24 0.34,0.34 0.78,0.53 1.24,0.53 0.64,0 0.99,-0.37 1.06,-1.12 z"
         inkscape:connector-curvature="0"
         style="fill:#000000;stroke-width:0" /><path
         id="path4435"
         d="m 238.91,710.17 h -3.46 v -0.11 c 0.43,-0.04 0.54,-0.1 0.54,-0.28 0,-0.08 -0.04,-0.32 -0.08,-0.45 l -0.85,-3.07 c -0.12,-0.4 -0.18,-0.45 -0.57,-0.52 v -0.11 h 3.53 l 0.43,1.13 -0.11,0.05 c -0.32,-0.44 -0.5,-0.62 -0.8,-0.76 -0.26,-0.12 -0.74,-0.19 -1.26,-0.19 -0.39,0 -0.56,0.07 -0.56,0.24 0,0.07 0.08,0.4 0.26,1.01 0.09,0.31 0.15,0.54 0.22,0.8 0.24,-0.01 0.46,-0.02 0.54,-0.02 0.27,0.01 0.47,-0.03 0.54,-0.1 0.04,-0.04 0.05,-0.1 0.05,-0.22 0,-0.12 -0.01,-0.21 -0.05,-0.36 l 0.14,-0.04 0.48,1.62 -0.13,0.03 c -0.26,-0.6 -0.32,-0.64 -0.96,-0.66 -0.08,0 -0.31,-0.01 -0.55,-0.02 l 0.46,1.62 c 0.04,0.15 0.12,0.18 0.51,0.18 1.09,0 1.34,-0.09 1.34,-0.51 0,-0.09 -0.01,-0.19 -0.02,-0.31 l 0.15,-0.01 z"
         inkscape:connector-curvature="0"
         style="fill:#000000;stroke-width:0" /></g></g></svg>