<?xml version="1.0" encoding="UTF-8" standalone="no"?>
<!-- Created with Inkscape (http://www.inkscape.org/) -->

<svg
   xmlns:ns0="http://www.iki.fi/pav/software/textext/"
   xmlns:dc="http://purl.org/dc/elements/1.1/"
   xmlns:cc="http://creativecommons.org/ns#"
   xmlns:rdf="http://www.w3.org/1999/02/22-rdf-syntax-ns#"
   xmlns:svg="http://www.w3.org/2000/svg"
   xmlns="http://www.w3.org/2000/svg"
   xmlns:sodipodi="http://sodipodi.sourceforge.net/DTD/sodipodi-0.dtd"
   xmlns:inkscape="http://www.inkscape.org/namespaces/inkscape"
   sodipodi:docname="sol2.44.svg"
   inkscape:version="0.48.4 r9939"
   version="1.1"
   id="svg2"
   height="354.33069"
   width="496.06299">
  <sodipodi:namedview
     id="base"
     pagecolor="#ffffff"
     bordercolor="#666666"
     borderopacity="1.0"
     inkscape:pageopacity="0.0"
     inkscape:pageshadow="2"
     inkscape:zoom="1.7452982"
     inkscape:cx="245.20373"
     inkscape:cy="200.94786"
     inkscape:document-units="cm"
     inkscape:current-layer="layer1"
     showgrid="false"
     units="cm"
     inkscape:window-width="1366"
     inkscape:window-height="744"
     inkscape:window-x="0"
     inkscape:window-y="24"
     inkscape:window-maximized="1"
     inkscape:snap-global="true"
     inkscape:snap-bbox="false"
     inkscape:object-paths="false"
     inkscape:object-nodes="true">
    <inkscape:grid
       type="xygrid"
       id="grid2985"
       empspacing="5"
       visible="true"
       enabled="true"
       snapvisiblegridlinesonly="true" />
  </sodipodi:namedview>
  <defs
     id="defs4">
    <marker
       inkscape:stockid="Arrow1Mend"
       orient="auto"
       refY="0"
       refX="0"
       id="Arrow1Mend"
       style="overflow:visible">
      <path
         inkscape:connector-curvature="0"
         id="path5100"
         d="M 0,0 5,-5 -12.5,0 5,5 0,0 z"
         style="fill-rule:evenodd;stroke:#000000;stroke-width:1pt"
         transform="matrix(-0.4,0,0,-0.4,-4,0)" />
    </marker>
    <marker
       inkscape:stockid="Arrow1Mend"
       orient="auto"
       refY="0"
       refX="0"
       id="Arrow1Mend-6"
       style="overflow:visible">
      <path
         inkscape:connector-curvature="0"
         id="path5100-8"
         d="M 0,0 5,-5 -12.5,0 5,5 0,0 z"
         style="fill-rule:evenodd;stroke:#000000;stroke-width:1pt"
         transform="matrix(-0.4,0,0,-0.4,-4,0)" />
    </marker>
    <marker
       style="overflow:visible"
       id="Arrow1Mend-9"
       refX="0"
       refY="0"
       orient="auto"
       inkscape:stockid="Arrow1Mend">
      <path
         transform="matrix(-0.4,0,0,-0.4,-4,0)"
         style="fill-rule:evenodd;stroke:#000000;stroke-width:1pt"
         d="M 0,0 5,-5 -12.5,0 5,5 0,0 z"
         id="path5100-86"
         inkscape:connector-curvature="0" />
    </marker>
    <marker
       inkscape:stockid="Arrow1Mend"
       orient="auto"
       refY="0"
       refX="0"
       id="Arrow1Mend-62"
       style="overflow:visible">
      <path
         inkscape:connector-curvature="0"
         id="path5100-5"
         d="M 0,0 5,-5 -12.5,0 5,5 0,0 z"
         style="fill-rule:evenodd;stroke:#000000;stroke-width:1pt"
         transform="matrix(-0.4,0,0,-0.4,-4,0)" />
    </marker>
    <marker
       style="overflow:visible"
       id="Arrow1Mend-62-6"
       refX="0"
       refY="0"
       orient="auto"
       inkscape:stockid="Arrow1Mend">
      <path
         transform="matrix(-0.4,0,0,-0.4,-4,0)"
         style="fill-rule:evenodd;stroke:#000000;stroke-width:1pt"
         d="M 0,0 5,-5 -12.5,0 5,5 0,0 z"
         id="path5100-5-8"
         inkscape:connector-curvature="0" />
    </marker>
    <marker
       inkscape:stockid="Arrow1Mend"
       orient="auto"
       refY="0"
       refX="0"
       id="Arrow1Mend-62-1"
       style="overflow:visible">
      <path
         inkscape:connector-curvature="0"
         id="path5100-5-4"
         d="M 0,0 5,-5 -12.5,0 5,5 0,0 z"
         style="fill-rule:evenodd;stroke:#000000;stroke-width:1pt"
         transform="matrix(-0.4,0,0,-0.4,-4,0)" />
    </marker>
  </defs>
  <metadata
     id="metadata7">
    <rdf:RDF>
      <cc:Work
         rdf:about="">
        <dc:format>image/svg+xml</dc:format>
        <dc:type
           rdf:resource="http://purl.org/dc/dcmitype/StillImage" />
        <dc:title></dc:title>
      </cc:Work>
    </rdf:RDF>
  </metadata>
  <g
     inkscape:label="Layer 1"
     inkscape:groupmode="layer"
     id="layer1"
     transform="translate(0,-698.03023)">
    <path
       style="fill:none;stroke:#000000;stroke-width:1.20000017;stroke-linecap:butt;stroke-linejoin:round;stroke-miterlimit:4;stroke-opacity:1;stroke-dasharray:none"
       d="m 138.63179,797.36092 29.33773,0.20761 2.30282,-0.009 2.26435,5.17455 4.56221,-10.61317 4.56221,10.61317 4.56221,-10.61317 4.56221,10.61317 4.56221,-10.61317 4.58529,10.71267 4.56221,-10.4727 4.56221,10.3732 4.56221,-10.61317 2.2748,5.43862 2.73733,0 115,-0.19861"
       id="path3835"
       inkscape:connector-curvature="0"
       sodipodi:nodetypes="cccccccccccccccc" />
    <g
       style="font-style:normal;font-variant:normal;font-weight:normal;font-stretch:normal;letter-spacing:normal;word-spacing:normal;text-anchor:start;fill:none;stroke:#000000;stroke-width:1;stroke-linecap:butt;stroke-linejoin:miter;stroke-miterlimit:10.43299961;stroke-opacity:1;stroke-dasharray:none;stroke-dashoffset:0"
       ns0:preamble="/home/sriranga/Desktop/MCT/package.tex"
       ns0:text="$R_1$"
       word-spacing="normal"
       letter-spacing="normal"
       font-size-adjust="none"
       font-stretch="normal"
       font-weight="normal"
       font-variant="normal"
       font-style="normal"
       stroke-miterlimit="10.433"
       xml:space="preserve"
       transform="matrix(1.2,0,0,-1.2,-78.532983,1636.1972)"
       id="content"><path
         style="fill:#000000;stroke-width:0"
         inkscape:connector-curvature="0"
         id="path4368"
         d="m 229.07,707.28 -0.04,0.01 -0.04,0 -0.03,0.01 -0.04,0 -0.04,0.01 -0.03,0.01 -0.03,0.01 -0.03,0.01 -0.03,0.01 -0.03,0.01 -0.03,0.01 -0.03,0.02 -0.03,0.01 -0.02,0.02 -0.03,0.02 -0.02,0.02 -0.03,0.02 -0.02,0.02 -0.02,0.03 -0.02,0.02 -0.02,0.03 -0.03,0.03 -0.02,0.03 -0.02,0.03 -0.01,0.04 -0.02,0.03 -0.02,0.04 -0.02,0.04 -0.02,0.04 -0.02,0.05 -0.02,0.04 -0.01,0.05 -0.93,2.43 c 0.77,0.17 1.1,0.31 1.45,0.63 0.33,0.29 0.51,0.67 0.51,1.12 0,0.92 -0.73,1.43 -2.07,1.43 l -0.21,-0.3 c 0.83,0 1.24,-0.37 1.24,-1.11 0,-0.98 -0.64,-1.49 -1.88,-1.49 -0.16,0 -0.27,0.01 -0.51,0.05 l 0.65,2.28 c 0.06,0.2 0.18,0.27 0.5,0.27 l 0.21,0.3 h -2.47 v -0.16 c 0.42,-0.06 0.47,-0.07 0.57,-0.14 0.08,-0.05 0.14,-0.16 0.14,-0.27 0,-0.12 -0.05,-0.36 -0.12,-0.63 l -1.22,-4.39 c -0.18,-0.59 -0.25,-0.65 -0.81,-0.74 v -0.16 h 2.43 v 0.16 c -0.61,0.08 -0.68,0.13 -0.68,0.46 0,0.1 0.03,0.23 0.12,0.58 l 0.56,2.07 0.65,-0.05 1.22,-3.22 h 1.47 z" /><path
         style="fill:#000000;stroke-width:0"
         inkscape:connector-curvature="0"
         id="path4370"
         d="m 231.55,710.33 -1.26,-0.63 v -0.1 c 0.09,0.04 0.16,0.06 0.19,0.08 0.12,0.05 0.24,0.08 0.31,0.08 0.15,0 0.21,-0.11 0.21,-0.33 v -3.15 c 0,-0.23 -0.05,-0.39 -0.16,-0.45 -0.11,-0.07 -0.21,-0.09 -0.5,-0.1 v -0.1 h 1.92 v 0.1 c -0.55,0.01 -0.66,0.08 -0.66,0.42 v 4.17 z" /></g>    <g
       id="g5311"
       transform="matrix(1.2,0,0,-1.2,46.646396,1663.7756)"
       xml:space="preserve"
       stroke-miterlimit="10.433"
       font-style="normal"
       font-variant="normal"
       font-weight="normal"
       font-stretch="normal"
       font-size-adjust="none"
       letter-spacing="normal"
       word-spacing="normal"
       ns0:text="$+$"
       ns0:preamble="/home/sriranga/Desktop/MCT/package.tex"
       style="font-style:normal;font-variant:normal;font-weight:normal;font-stretch:normal;letter-spacing:normal;word-spacing:normal;text-anchor:start;fill:none;stroke:#000000;stroke-width:1;stroke-linecap:butt;stroke-linejoin:miter;stroke-miterlimit:10.43299961;stroke-opacity:1;stroke-dasharray:none;stroke-dashoffset:0"><polygon
         points="226.32,707.12 226.87,707.12 226.87,709.4 229.14,709.4 229.14,709.96 226.87,709.96 226.87,712.2 226.32,712.2 226.32,709.96 224.05,709.96 224.05,709.4 226.32,709.4 "
         id="polygon5313"
         style="fill:#000000;stroke-width:0" /></g>    <g
       style="font-style:normal;font-variant:normal;font-weight:normal;font-stretch:normal;letter-spacing:normal;word-spacing:normal;text-anchor:start;fill:none;stroke:#000000;stroke-width:1;stroke-linecap:butt;stroke-linejoin:miter;stroke-miterlimit:10.43299961;stroke-opacity:1;stroke-dasharray:none;stroke-dashoffset:0"
       ns0:preamble="/home/sriranga/Desktop/MCT/package.tex"
       ns0:text="$v_o$"
       word-spacing="normal"
       letter-spacing="normal"
       font-size-adjust="none"
       font-stretch="normal"
       font-weight="normal"
       font-variant="normal"
       font-style="normal"
       stroke-miterlimit="10.433"
       xml:space="preserve"
       transform="matrix(1.2,0,0,-1.2,45.966471,1694.5568)"
       id="g7510"><path
         style="fill:#000000;stroke-width:0"
         inkscape:connector-curvature="0"
         id="path7512"
         d="m 223.64,711.13 0.02,0 0.02,0 0.02,0 0.02,0 0.02,0 0.01,0.01 0.02,0 0.02,0 0.04,0 0.01,0 0.02,0 0.02,0 0.02,0 0.02,0 0.02,0 c 0.39,0 0.49,-0.17 0.63,-1.09 0.1,-0.68 0.22,-2.18 0.22,-2.76 0,-0.27 0.01,-0.34 0.09,-0.34 0.24,0 1.17,1.05 2.18,2.46 0.35,0.5 0.61,1.14 0.61,1.51 0,0.32 -0.26,0.59 -0.56,0.59 -0.22,0 -0.37,-0.13 -0.37,-0.34 0,-0.16 0.06,-0.28 0.24,-0.44 0.13,-0.12 0.18,-0.2 0.18,-0.3 0,-0.45 -0.65,-1.56 -1.36,-2.29 l -0.31,-0.32 c -0.07,1.4 -0.13,1.92 -0.26,2.65 -0.2,1.02 -0.2,1.04 -0.29,1.04 -0.04,0 -0.12,-0.01 -0.2,-0.04 -0.17,-0.05 -0.72,-0.15 -1.1,-0.21 z" /><path
         style="fill:#000000;stroke-width:0"
         inkscape:connector-curvature="0"
         id="path7514"
         d="m 230.12,708.7 -0.08,-0.15 c 0.3,0 0.49,-0.26 0.49,-0.65 0,-0.51 -0.23,-1.2 -0.54,-1.66 -0.25,-0.37 -0.52,-0.54 -0.82,-0.54 -0.32,0 -0.54,0.25 -0.54,0.63 0,0.52 0.2,1.13 0.54,1.62 0.27,0.39 0.57,0.6 0.87,0.6 h 0 l 0.08,0.15 c -1.05,0 -2.08,-1.08 -2.08,-2.17 0,-0.6 0.39,-0.98 1.03,-0.98 0.46,0 0.9,0.21 1.31,0.61 0.46,0.45 0.74,1.04 0.74,1.56 0,0.58 -0.41,0.98 -1,0.98 z" /></g>    <path
       inkscape:connector-curvature="0"
       id="path4080"
       d="m 273.63179,866.94339 0,25.41753"
       style="fill:none;stroke:#000000;stroke-width:1.20000005;stroke-linecap:butt;stroke-linejoin:miter;stroke-miterlimit:4;stroke-opacity:1;stroke-dasharray:none" />
    <path
       sodipodi:nodetypes="cc"
       style="fill:none;stroke:#000000;stroke-width:1.20000005;stroke-linecap:butt;stroke-linejoin:miter;stroke-miterlimit:4;stroke-opacity:1;stroke-dasharray:none"
       d="m 138.63179,892.36092 180,0"
       id="path4084"
       inkscape:connector-curvature="0" />
    <path
       transform="translate(-46.422403,700.53023)"
       d="m 185,96.830688 c 0,1.380712 -1.11929,2.5 -2.5,2.5 -1.38071,0 -2.5,-1.119288 -2.5,-2.5 0,-1.380711 1.11929,-2.5 2.5,-2.5 1.38071,0 2.5,1.119289 2.5,2.5 z"
       sodipodi:ry="2.5"
       sodipodi:rx="2.5"
       sodipodi:cy="96.830688"
       sodipodi:cx="182.5"
       id="path4086"
       style="color:#000000;fill:none;stroke:#000000;stroke-width:0.80000001;stroke-linecap:square;stroke-linejoin:round;stroke-miterlimit:4;stroke-opacity:1;stroke-dasharray:none;stroke-dashoffset:0;marker:none;visibility:visible;display:inline;overflow:visible;enable-background:accumulate"
       sodipodi:type="arc" />
    <path
       sodipodi:type="arc"
       style="color:#000000;fill:#ffffff;stroke:#000000;stroke-width:0.80000001;stroke-linecap:square;stroke-linejoin:round;stroke-miterlimit:4;stroke-opacity:1;stroke-dasharray:none;stroke-dashoffset:0;marker:none;visibility:visible;display:inline;overflow:visible;enable-background:accumulate"
       id="path4088"
       sodipodi:cx="182.5"
       sodipodi:cy="96.830688"
       sodipodi:rx="2.5"
       sodipodi:ry="2.5"
       d="m 185,96.830688 c 0,1.380712 -1.11929,2.5 -2.5,2.5 -1.38071,0 -2.5,-1.119288 -2.5,-2.5 0,-1.380711 1.11929,-2.5 2.5,-2.5 1.38071,0 2.5,1.119289 2.5,2.5 z"
       transform="translate(136.50028,700.53023)" />
    <path
       sodipodi:type="arc"
       style="color:#000000;fill:none;stroke:#000000;stroke-width:0.80000001;stroke-linecap:square;stroke-linejoin:round;stroke-miterlimit:4;stroke-opacity:1;stroke-dasharray:none;stroke-dashoffset:0;marker:none;visibility:visible;display:inline;overflow:visible;enable-background:accumulate"
       id="path4090"
       sodipodi:cx="182.5"
       sodipodi:cy="96.830688"
       sodipodi:rx="2.5"
       sodipodi:ry="2.5"
       d="m 185,96.830688 c 0,1.380712 -1.11929,2.5 -2.5,2.5 -1.38071,0 -2.5,-1.119288 -2.5,-2.5 0,-1.380711 1.11929,-2.5 2.5,-2.5 1.38071,0 2.5,1.119289 2.5,2.5 z"
       transform="translate(-46.422403,795.53023)" />
    <g
       style="font-style:normal;font-variant:normal;font-weight:normal;font-stretch:normal;letter-spacing:normal;word-spacing:normal;text-anchor:start;fill:none;stroke:#000000;stroke-width:1;stroke-linecap:butt;stroke-linejoin:miter;stroke-miterlimit:10.43299961;stroke-opacity:1;stroke-dasharray:none;stroke-dashoffset:0"
       ns0:preamble="/home/sriranga/Desktop/MCT/package.tex"
       ns0:text="$D_1$"
       word-spacing="normal"
       letter-spacing="normal"
       font-size-adjust="none"
       font-stretch="normal"
       font-weight="normal"
       font-variant="normal"
       font-style="normal"
       stroke-miterlimit="10.433"
       xml:space="preserve"
       transform="matrix(1.2,0,0,-1.2,-25.862621,1681.6665)"
       id="g4222"><path
         id="path4224"
         d="m 224.97,713.45 0.03,0 0.03,0 0.03,-0.01 0.02,0 0.03,0 0.03,0 0.04,-0.01 0.05,-0.01 0.04,0 0.05,-0.01 0.03,-0.01 0.04,-0.01 0.04,0 0.03,-0.01 0.03,-0.01 0.03,-0.01 0.02,-0.01 0.03,-0.01 0.02,-0.01 0.02,-0.01 0.02,-0.02 0.01,-0.01 0.02,-0.01 0.01,-0.02 0.02,-0.01 0.01,-0.02 0.01,-0.02 0.01,-0.01 0,-0.02 0.01,-0.02 0,-0.02 0.01,-0.02 0,-0.03 0,-0.02 0,-0.02 c 0,-0.15 -0.04,-0.39 -0.11,-0.64 l -1.22,-4.39 c -0.18,-0.58 -0.25,-0.64 -0.81,-0.74 v -0.16 h 2.52 l -0.1,0.3 c -0.46,0 -0.65,0.11 -0.65,0.37 0,0.13 0.05,0.35 0.22,0.94 l 1.2,4.3 c 0.06,0.21 0.21,0.28 0.61,0.28 0.57,0 1.07,-0.13 1.39,-0.36 0.48,-0.36 0.75,-0.99 0.75,-1.77 0,-1.08 -0.42,-2.19 -1.09,-2.86 -0.59,-0.6 -1.4,-0.9 -2.43,-0.9 l 0.1,-0.3 c 1.16,0 2.23,0.31 2.99,0.87 0.97,0.7 1.54,1.8 1.54,2.95 0,1.63 -1.14,2.67 -2.91,2.67 h -2.77 z"
         inkscape:connector-curvature="0"
         style="fill:#000000;stroke-width:0" /><path
         id="path4226"
         d="m 232.9,710.33 -1.25,-0.63 v -0.1 c 0.08,0.04 0.16,0.06 0.19,0.08 0.12,0.05 0.24,0.08 0.31,0.08 0.14,0 0.21,-0.11 0.21,-0.33 v -3.15 c 0,-0.23 -0.06,-0.39 -0.17,-0.45 -0.1,-0.07 -0.2,-0.09 -0.49,-0.1 v -0.1 h 1.92 v 0.1 c -0.55,0.01 -0.66,0.08 -0.66,0.42 v 4.17 z"
         inkscape:connector-curvature="0"
         style="fill:#000000;stroke-width:0" /></g>    <g
       style="font-style:normal;font-variant:normal;font-weight:normal;font-stretch:normal;letter-spacing:normal;word-spacing:normal;text-anchor:start;fill:none;stroke:#000000;stroke-width:1;stroke-linecap:butt;stroke-linejoin:miter;stroke-miterlimit:10.43299961;stroke-opacity:1;stroke-dasharray:none;stroke-dashoffset:0"
       ns0:preamble="/home/sriranga/Desktop/MCT/package.tex"
       ns0:text="$+$"
       word-spacing="normal"
       letter-spacing="normal"
       font-size-adjust="none"
       font-stretch="normal"
       font-weight="normal"
       font-variant="normal"
       font-style="normal"
       stroke-miterlimit="10.433"
       xml:space="preserve"
       transform="matrix(1.2,0,0,-1.2,-136.33621,1657.2469)"
       id="g4638"><polygon
         style="fill:#000000;stroke-width:0"
         id="polygon4640"
         points="226.32,707.12 226.87,707.12 226.87,709.4 229.14,709.4 229.14,709.96 226.87,709.96 226.87,712.2 226.32,712.2 226.32,709.96 224.05,709.96 224.05,709.4 226.32,709.4 " /></g>    <g
       id="g4642"
       transform="matrix(1.2,0,0,-1.2,-135.71672,1736.8681)"
       xml:space="preserve"
       stroke-miterlimit="10.433"
       font-style="normal"
       font-variant="normal"
       font-weight="normal"
       font-stretch="normal"
       font-size-adjust="none"
       letter-spacing="normal"
       word-spacing="normal"
       ns0:text="$-$"
       ns0:preamble="/home/sriranga/Desktop/MCT/package.tex"
       style="font-style:normal;font-variant:normal;font-weight:normal;font-stretch:normal;letter-spacing:normal;word-spacing:normal;text-anchor:start;fill:none;stroke:#000000;stroke-width:1;stroke-linecap:butt;stroke-linejoin:miter;stroke-miterlimit:10.43299961;stroke-opacity:1;stroke-dasharray:none;stroke-dashoffset:0"><polygon
         style="fill:#000000;stroke-width:0"
         points="229.14,709.96 224.05,709.96 224.05,709.4 229.14,709.4 "
         id="polygon4644" /></g>    <path
       transform="translate(-31.368213,-1.5234377e-6)"
       d="m 287.5,892.3609 c 0,1.38071 -1.11929,2.5 -2.5,2.5 -1.38071,0 -2.5,-1.11929 -2.5,-2.5 0,-1.38071 1.11929,-2.5 2.5,-2.5 1.38071,0 2.5,1.11929 2.5,2.5 z"
       sodipodi:ry="2.5"
       sodipodi:rx="2.5"
       sodipodi:cy="892.3609"
       sodipodi:cx="285"
       style="fill:#000000;stroke:none"
       id="path4658"
       sodipodi:type="arc" />
    <g
       style="font-style:normal;font-variant:normal;font-weight:normal;font-stretch:normal;letter-spacing:normal;word-spacing:normal;text-anchor:start;fill:none;stroke:#000000;stroke-width:1;stroke-linecap:butt;stroke-linejoin:miter;stroke-miterlimit:10.43299961;stroke-opacity:1;stroke-dasharray:none;stroke-dashoffset:0"
       ns0:preamble="/home/sriranga/Desktop/MCT/package.tex"
       ns0:text="$v_i$"
       word-spacing="normal"
       letter-spacing="normal"
       font-size-adjust="none"
       font-stretch="normal"
       font-weight="normal"
       font-variant="normal"
       font-style="normal"
       stroke-miterlimit="10.433"
       xml:space="preserve"
       transform="matrix(1.2,0,0,-1.2,-139.09777,1695.2448)"
       id="g6892"><path
         id="path6894"
         d="m 223.64,711.13 0.02,0 0.02,0 0.02,0 0.02,0 0.02,0 0.01,0.01 0.02,0 0.02,0 0.04,0 0.01,0 0.02,0 0.02,0 0.02,0 0.02,0 0.02,0 c 0.39,0 0.49,-0.17 0.63,-1.09 0.1,-0.68 0.22,-2.18 0.22,-2.76 0,-0.27 0.01,-0.34 0.09,-0.34 0.24,0 1.17,1.05 2.18,2.46 0.35,0.5 0.61,1.14 0.61,1.51 0,0.32 -0.26,0.59 -0.56,0.59 -0.22,0 -0.37,-0.13 -0.37,-0.34 0,-0.16 0.06,-0.28 0.24,-0.44 0.13,-0.12 0.18,-0.2 0.18,-0.3 0,-0.45 -0.65,-1.56 -1.36,-2.29 l -0.31,-0.32 c -0.07,1.4 -0.13,1.92 -0.26,2.65 -0.2,1.02 -0.2,1.04 -0.29,1.04 -0.04,0 -0.12,-0.01 -0.2,-0.04 -0.17,-0.05 -0.72,-0.15 -1.1,-0.21 z"
         inkscape:connector-curvature="0"
         style="fill:#000000;stroke-width:0" /><path
         id="path6896"
         d="m 229.4,706.42 -0.01,-0.02 -0.02,-0.02 -0.01,-0.01 -0.02,-0.02 -0.01,-0.02 -0.01,-0.01 -0.01,-0.02 -0.01,-0.01 -0.01,-0.02 -0.01,-0.01 -0.01,-0.01 -0.01,-0.02 -0.01,-0.01 -0.01,-0.01 -0.01,-0.01 -0.01,-0.01 0,-0.01 -0.01,-0.01 -0.01,-0.01 -0.01,0 0,-0.01 -0.01,-0.01 -0.01,-0.01 -0.02,-0.02 -0.01,-0.01 -0.01,-0.02 -0.01,-0.01 c -0.12,-0.12 -0.23,-0.19 -0.29,-0.19 -0.06,0 -0.11,0.06 -0.11,0.11 0,0.06 0.02,0.17 0.07,0.3 0,0.02 0.02,0.07 0.03,0.13 v 0.01 l 0.01,0.02 0.61,2.23 -0.02,0.02 c -0.7,-0.13 -0.84,-0.16 -1.11,-0.18 v -0.11 c 0.37,0 0.44,-0.02 0.44,-0.16 0,-0.06 -0.02,-0.17 -0.07,-0.31 l -0.33,-1.23 c -0.11,-0.41 -0.15,-0.62 -0.15,-0.76 0,-0.26 0.11,-0.4 0.32,-0.4 0.32,0 0.58,0.21 0.97,0.8 z"
         inkscape:connector-curvature="0"
         style="fill:#000000;stroke-width:0" /><path
         id="path6898"
         d="m 229.35,710.18 -0.02,0 -0.02,0 -0.02,-0.01 -0.01,0 -0.02,0 -0.01,-0.01 -0.02,0 -0.01,-0.01 -0.02,-0.01 -0.01,0 -0.02,-0.01 -0.01,-0.01 -0.01,-0.01 -0.02,-0.01 -0.01,-0.02 -0.01,-0.01 -0.01,-0.01 -0.01,-0.01 -0.01,-0.02 -0.01,-0.01 -0.01,-0.02 0,-0.01 -0.01,-0.02 -0.01,-0.01 0,-0.02 -0.01,-0.02 0,-0.02 0,-0.01 -0.01,-0.02 0,-0.02 0,-0.02 0,-0.02 c 0,-0.22 0.13,-0.37 0.33,-0.37 0.18,0 0.35,0.16 0.35,0.36 0,0.2 -0.17,0.38 -0.35,0.38 z"
         inkscape:connector-curvature="0"
         style="fill:#000000;stroke-width:0" /></g>    <path
       sodipodi:nodetypes="cc"
       style="fill:none;stroke:#000000;stroke-width:1;stroke-linecap:butt;stroke-linejoin:miter;stroke-miterlimit:4;stroke-opacity:1;stroke-dasharray:none;marker-end:url(#Arrow1Mend-62)"
       d="m 31.398332,847.36092 80.684468,0"
       id="path7143"
       inkscape:connector-curvature="0" />
    <path
       sodipodi:type="star"
       style="fill:#ffffff;fill-opacity:1;stroke:#000000;stroke-width:1.20000005;stroke-linecap:square;stroke-linejoin:round;stroke-miterlimit:4;stroke-opacity:1;stroke-dasharray:none;stroke-dashoffset:0"
       id="path7073"
       sodipodi:sides="3"
       sodipodi:cx="235"
       sodipodi:cy="99.330688"
       sodipodi:r1="10"
       sodipodi:r2="5"
       sodipodi:arg1="0"
       sodipodi:arg2="1.0471976"
       inkscape:flatsided="true"
       inkscape:rounded="0"
       inkscape:randomized="0"
       d="m 245,99.330688 -15,8.660252 0,-17.320506 z"
       transform="matrix(-0.86602541,0.50000001,-0.50000001,-0.86602541,526.75892,801.27232)"
       inkscape:transform-center-y="-2.4999928" />
    <path
       style="fill:#000000;fill-opacity:0;stroke:#000000;stroke-width:1.20472441000000008;stroke-linecap:round;stroke-linejoin:round;stroke-miterlimit:4;stroke-opacity:1;stroke-dasharray:none;stroke-dashoffset:0"
       d="m 283.5776,822.74942 -20,0"
       id="path7075"
       inkscape:connector-curvature="0" />
    <g
       id="g7171"
       transform="matrix(1.2,0,0,-1.2,14.236718,1682.6574)"
       xml:space="preserve"
       stroke-miterlimit="10.433"
       font-style="normal"
       font-variant="normal"
       font-weight="normal"
       font-stretch="normal"
       font-size-adjust="none"
       letter-spacing="normal"
       word-spacing="normal"
       ns0:text="$D_2$"
       ns0:preamble="/home/sriranga/Desktop/MCT/package.tex"
       style="font-style:normal;font-variant:normal;font-weight:normal;font-stretch:normal;letter-spacing:normal;word-spacing:normal;text-anchor:start;fill:none;stroke:#000000;stroke-width:1;stroke-linecap:butt;stroke-linejoin:miter;stroke-miterlimit:10.43299961;stroke-opacity:1;stroke-dasharray:none;stroke-dashoffset:0"><path
         style="fill:#000000;stroke-width:0"
         inkscape:connector-curvature="0"
         d="m 224.97,713.45 0.03,0 0.03,0 0.03,-0.01 0.02,0 0.03,0 0.03,0 0.04,-0.01 0.05,-0.01 0.04,0 0.05,-0.01 0.03,-0.01 0.04,-0.01 0.04,0 0.03,-0.01 0.03,-0.01 0.03,-0.01 0.02,-0.01 0.03,-0.01 0.02,-0.01 0.02,-0.01 0.02,-0.02 0.01,-0.01 0.02,-0.01 0.01,-0.02 0.02,-0.01 0.01,-0.02 0.01,-0.02 0.01,-0.01 0,-0.02 0.01,-0.02 0,-0.02 0.01,-0.02 0,-0.03 0,-0.02 0,-0.02 c 0,-0.15 -0.04,-0.39 -0.11,-0.64 l -1.22,-4.39 c -0.18,-0.58 -0.25,-0.64 -0.81,-0.74 v -0.16 h 2.52 l -0.1,0.3 c -0.46,0 -0.65,0.11 -0.65,0.37 0,0.13 0.05,0.35 0.22,0.94 l 1.2,4.3 c 0.06,0.21 0.21,0.28 0.61,0.28 0.57,0 1.07,-0.13 1.39,-0.36 0.48,-0.36 0.75,-0.99 0.75,-1.77 0,-1.08 -0.42,-2.19 -1.09,-2.86 -0.59,-0.6 -1.4,-0.9 -2.43,-0.9 l 0.1,-0.3 c 1.16,0 2.23,0.31 2.99,0.87 0.97,0.7 1.54,1.8 1.54,2.95 0,1.63 -1.14,2.67 -2.91,2.67 h -2.77 z"
         id="path7173" /><path
         style="fill:#000000;stroke-width:0"
         inkscape:connector-curvature="0"
         d="m 234.18,706.58 -0.09,0.04 c -0.26,-0.4 -0.35,-0.46 -0.66,-0.46 h -1.67 l 1.17,1.22 c 0.62,0.65 0.9,1.18 0.9,1.72 0,0.7 -0.57,1.23 -1.29,1.23 -0.39,0 -0.75,-0.15 -1,-0.43 -0.23,-0.24 -0.33,-0.46 -0.45,-0.95 l 0.15,-0.04 c 0.27,0.68 0.52,0.91 1.01,0.91 0.58,0 0.98,-0.4 0.98,-0.98 0,-0.55 -0.32,-1.19 -0.91,-1.81 l -1.24,-1.32 v -0.08 h 2.72 z"
         id="path7175" /></g>    <g
       id="g3115"
       transform="matrix(1.2,0,0,-1.2,-152.71785,1699.0192)"
       xml:space="preserve"
       stroke-miterlimit="10.433"
       font-style="normal"
       font-variant="normal"
       font-weight="normal"
       font-stretch="normal"
       font-size-adjust="none"
       letter-spacing="normal"
       word-spacing="normal"
       ns0:text="$t$"
       ns0:preamble="/home/sriranga/Desktop/MCT/package.tex"
       style="font-style:normal;font-variant:normal;font-weight:normal;font-stretch:normal;letter-spacing:normal;word-spacing:normal;text-anchor:start;fill:none;stroke:#000000;stroke-width:1;stroke-linecap:butt;stroke-linejoin:miter;stroke-miterlimit:10.43299961;stroke-opacity:1;stroke-dasharray:none;stroke-dashoffset:0"><path
         style="fill:#000000;stroke-width:0"
         inkscape:connector-curvature="0"
         d="m 226.38,711.38 h -0.8 l 0.28,1.02 c 0.01,0.02 0.01,0.04 0.01,0.05 0,0.07 -0.03,0.1 -0.08,0.1 -0.06,0 -0.09,-0.01 -0.15,-0.09 -0.39,-0.51 -1,-1 -1.32,-1.09 -0.25,-0.08 -0.32,-0.14 -0.32,-0.25 0,-0.01 0,-0.03 0.01,-0.06 h 0.73 l -0.71,-2.73 c -0.02,-0.09 -0.03,-0.12 -0.06,-0.21 -0.09,-0.3 -0.17,-0.65 -0.17,-0.73 0,-0.22 0.21,-0.37 0.48,-0.37 0.46,0 0.78,0.27 1.41,1.2 l -0.13,0.07 c -0.49,-0.63 -0.65,-0.79 -0.8,-0.79 -0.09,0 -0.15,0.08 -0.15,0.2 0,0.01 0,0.02 0.01,0.05 l 0.87,3.31 h 0.84 z"
         id="path3117" /></g>    <path
       inkscape:connector-curvature="0"
       id="path7303"
       d="m 376.59711,847.36092 105,0"
       style="fill:none;stroke:#000000;stroke-width:1;stroke-linecap:butt;stroke-linejoin:miter;stroke-miterlimit:4;stroke-opacity:1;stroke-dasharray:none;marker-end:url(#Arrow1Mend-62)"
       sodipodi:nodetypes="cc" />
    <text
       sodipodi:linespacing="100%"
       id="text7812"
       y="852.71106"
       x="26.395105"
       style="font-size:12px;font-style:normal;font-variant:normal;font-weight:normal;font-stretch:normal;text-align:center;line-height:100%;letter-spacing:0px;word-spacing:0px;text-anchor:middle;fill:#000000;fill-opacity:1;stroke:none;font-family:LMRoman12;-inkscape-font-specification:LMRoman12"
       xml:space="preserve"><tspan
         y="852.71106"
         x="26.395105"
         id="tspan7814"
         sodipodi:role="line">0</tspan></text>
    <text
       sodipodi:linespacing="100%"
       id="text7816"
       y="851.91974"
       x="370.23044"
       style="font-size:12px;font-style:normal;font-variant:normal;font-weight:normal;font-stretch:normal;text-align:center;line-height:100%;letter-spacing:0px;word-spacing:0px;text-anchor:middle;fill:#000000;fill-opacity:1;stroke:none;font-family:LMRoman12;-inkscape-font-specification:LMRoman12"
       xml:space="preserve"><tspan
         y="851.91974"
         x="370.23044"
         id="tspan7818"
         sodipodi:role="line">0</tspan></text>
    <path
       style="fill:#ffffff;fill-opacity:1;stroke:#000000;stroke-width:1.20000005;stroke-linecap:square;stroke-linejoin:round;stroke-miterlimit:4;stroke-opacity:1;stroke-dasharray:none;stroke-dashoffset:0"
       d="m 253.63179,912.36092 0,-20"
       id="path7820"
       inkscape:connector-curvature="0" />
    <path
       inkscape:connector-curvature="0"
       id="path7822"
       d="m 263.63179,912.36092 -20,0"
       style="fill:#ffffff;fill-opacity:1;stroke:#000000;stroke-width:1.20000005000000010;stroke-linecap:round;stroke-linejoin:round;stroke-miterlimit:4;stroke-opacity:1;stroke-dasharray:none;stroke-dashoffset:0" />
    <path
       style="fill:#ffffff;fill-opacity:1;stroke:#000000;stroke-width:1.20000005000000010;stroke-linecap:round;stroke-linejoin:round;stroke-miterlimit:4;stroke-opacity:1;stroke-dasharray:none;stroke-dashoffset:0"
       d="m 259.63179,917.36092 -12,0"
       id="path7824"
       inkscape:connector-curvature="0" />
    <path
       inkscape:connector-curvature="0"
       id="path7826"
       d="m 255.63179,922.36092 -5,0"
       style="fill:#ffffff;fill-opacity:1;stroke:#000000;stroke-width:1.20000005000000010;stroke-linecap:round;stroke-linejoin:round;stroke-miterlimit:4;stroke-opacity:1;stroke-dasharray:none;stroke-dashoffset:0" />
    <g
       style="font-style:normal;font-variant:normal;font-weight:normal;font-stretch:normal;letter-spacing:normal;word-spacing:normal;text-anchor:start;fill:none;stroke:#000000;stroke-width:1;stroke-linecap:butt;stroke-linejoin:miter;stroke-miterlimit:10.43299961;stroke-opacity:1;stroke-dasharray:none;stroke-dashoffset:0"
       ns0:preamble="/home/sriranga/Desktop/MCT/package.tex"
       ns0:text="$t$"
       word-spacing="normal"
       letter-spacing="normal"
       font-size-adjust="none"
       font-stretch="normal"
       font-weight="normal"
       font-variant="normal"
       font-style="normal"
       stroke-miterlimit="10.433"
       xml:space="preserve"
       transform="matrix(1.2,0,0,-1.2,216.77264,1698.5995)"
       id="g7828"><path
         id="path7830"
         d="m 226.38,711.38 h -0.8 l 0.28,1.02 c 0.01,0.02 0.01,0.04 0.01,0.05 0,0.07 -0.03,0.1 -0.08,0.1 -0.06,0 -0.09,-0.01 -0.15,-0.09 -0.39,-0.51 -1,-1 -1.32,-1.09 -0.25,-0.08 -0.32,-0.14 -0.32,-0.25 0,-0.01 0,-0.03 0.01,-0.06 h 0.73 l -0.71,-2.73 c -0.02,-0.09 -0.03,-0.12 -0.06,-0.21 -0.09,-0.3 -0.17,-0.65 -0.17,-0.73 0,-0.22 0.21,-0.37 0.48,-0.37 0.46,0 0.78,0.27 1.41,1.2 l -0.13,0.07 c -0.49,-0.63 -0.65,-0.79 -0.8,-0.79 -0.09,0 -0.15,0.08 -0.15,0.2 0,0.01 0,0.02 0.01,0.05 l 0.87,3.31 h 0.84 z"
         inkscape:connector-curvature="0"
         style="fill:#000000;stroke-width:0" /></g>    <path
       transform="translate(-21.368213,-1.5234377e-6)"
       d="m 297.5,797.3609 c 0,1.38071 -1.11929,2.5 -2.5,2.5 -1.38071,0 -2.5,-1.11929 -2.5,-2.5 0,-1.38071 1.11929,-2.5 2.5,-2.5 1.38071,0 2.5,1.11929 2.5,2.5 z"
       sodipodi:ry="2.5"
       sodipodi:rx="2.5"
       sodipodi:cy="797.3609"
       sodipodi:cx="295"
       style="fill:#000000;stroke:none"
       id="path7874"
       sodipodi:type="arc" />
    <path
       transform="translate(-21.368213,-1.5234377e-6)"
       d="m 297.5,892.3609 c 0,1.38071 -1.11929,2.5 -2.5,2.5 -1.38071,0 -2.5,-1.11929 -2.5,-2.5 0,-1.38071 1.11929,-2.5 2.5,-2.5 1.38071,0 2.5,1.11929 2.5,2.5 z"
       sodipodi:ry="2.5"
       sodipodi:rx="2.5"
       sodipodi:cy="892.3609"
       sodipodi:cx="295"
       style="fill:#000000;stroke:none"
       id="path7876"
       sodipodi:type="arc" />
    <path
       sodipodi:nodetypes="cccccccccccccccccc"
       inkscape:connector-curvature="0"
       id="path7880"
       d="m 328.63179,797.36092 5,0 -0.009,17.69717 0.009,2.30282 -5.17455,2.26435 10.61317,4.56221 -10.61317,4.56221 10.61317,4.56221 -10.61317,4.56221 10.61317,4.56221 -10.71267,4.58529 10.4727,4.56221 -10.3732,4.56221 10.61317,4.56221 -5.43862,2.2748 0,2.73733 -0.002,26.68727 -24.998,-0.0467"
       style="fill:none;stroke:#000000;stroke-width:1.20000017;stroke-linecap:butt;stroke-linejoin:round;stroke-miterlimit:4;stroke-opacity:1;stroke-dasharray:none" />
    <g
       style="font-style:normal;font-variant:normal;font-weight:normal;font-stretch:normal;letter-spacing:normal;word-spacing:normal;text-anchor:start;fill:none;stroke:#000000;stroke-width:1;stroke-linecap:butt;stroke-linejoin:miter;stroke-miterlimit:10.43299961;stroke-opacity:1;stroke-dasharray:none;stroke-dashoffset:0"
       ns0:preamble="/home/sriranga/Desktop/MCT/package.tex"
       ns0:text="$R_L$"
       word-spacing="normal"
       letter-spacing="normal"
       font-size-adjust="none"
       font-stretch="normal"
       font-weight="normal"
       font-variant="normal"
       font-style="normal"
       stroke-miterlimit="10.433"
       xml:space="preserve"
       transform="matrix(1.2,0,0,-1.2,73.080882,1689.3959)"
       id="g7998"><path
         id="path8000"
         d="m 229.07,707.28 -0.04,0.01 -0.04,0 -0.03,0.01 -0.04,0 -0.04,0.01 -0.03,0.01 -0.03,0.01 -0.03,0.01 -0.03,0.01 -0.03,0.01 -0.03,0.01 -0.03,0.02 -0.03,0.01 -0.02,0.02 -0.03,0.02 -0.02,0.02 -0.03,0.02 -0.02,0.02 -0.02,0.03 -0.02,0.02 -0.02,0.03 -0.03,0.03 -0.02,0.03 -0.02,0.03 -0.01,0.04 -0.02,0.03 -0.02,0.04 -0.02,0.04 -0.02,0.04 -0.02,0.05 -0.02,0.04 -0.01,0.05 -0.93,2.43 c 0.77,0.17 1.1,0.31 1.45,0.63 0.33,0.29 0.51,0.67 0.51,1.12 0,0.92 -0.73,1.43 -2.07,1.43 l -0.21,-0.3 c 0.83,0 1.24,-0.37 1.24,-1.11 0,-0.98 -0.64,-1.49 -1.88,-1.49 -0.16,0 -0.27,0.01 -0.51,0.05 l 0.65,2.28 c 0.06,0.2 0.18,0.27 0.5,0.27 l 0.21,0.3 h -2.47 v -0.16 c 0.42,-0.06 0.47,-0.07 0.57,-0.14 0.08,-0.05 0.14,-0.16 0.14,-0.27 0,-0.12 -0.05,-0.36 -0.12,-0.63 l -1.22,-4.39 c -0.18,-0.59 -0.25,-0.65 -0.81,-0.74 v -0.16 h 2.43 v 0.16 c -0.61,0.08 -0.68,0.13 -0.68,0.46 0,0.1 0.03,0.23 0.12,0.58 l 0.56,2.07 0.65,-0.05 1.22,-3.22 h 1.47 z"
         inkscape:connector-curvature="0"
         style="fill:#000000;stroke-width:0" /><path
         id="path8002"
         d="m 232.5,710.17 h -1.9 v -0.11 c 0.43,-0.04 0.54,-0.1 0.54,-0.3 0,-0.1 -0.03,-0.26 -0.08,-0.43 l -0.86,-3.07 c -0.12,-0.41 -0.17,-0.45 -0.56,-0.52 v -0.11 h 3.54 l 0.41,1.25 -0.14,0.04 c -0.25,-0.5 -0.43,-0.73 -0.74,-0.88 -0.24,-0.12 -0.53,-0.16 -1.14,-0.16 -0.53,0 -0.7,0.06 -0.7,0.24 0,0.05 0.04,0.21 0.07,0.35 l 0.86,3.08 c 0.1,0.35 0.28,0.48 0.7,0.51 z"
         inkscape:connector-curvature="0"
         style="fill:#000000;stroke-width:0" /></g>    <path
       sodipodi:nodetypes="cc"
       style="fill:none;stroke:#000000;stroke-width:1;stroke-linecap:butt;stroke-linejoin:miter;stroke-miterlimit:4;stroke-opacity:1;stroke-dasharray:none;marker-end:url(#Arrow1Mend-62)"
       d="m 376.59711,907.81092 0,-120"
       id="path8100"
       inkscape:connector-curvature="0" />
    <path
       inkscape:connector-curvature="0"
       id="path8115"
       d="m 31.398332,907.81092 0,-120"
       style="fill:none;stroke:#000000;stroke-width:1;stroke-linecap:butt;stroke-linejoin:miter;stroke-miterlimit:4;stroke-opacity:1;stroke-dasharray:none;marker-end:url(#Arrow1Mend-62)"
       sodipodi:nodetypes="cc" />
    <path
       style="fill:none;stroke:#000000;stroke-width:1.5;stroke-linecap:round;stroke-linejoin:round;stroke-miterlimit:4;stroke-opacity:1;stroke-dasharray:none;stroke-dashoffset:0"
       d="m 32.314336,847.07444 c 15.113016,-56.40254 20,-50 25,0"
       id="path8124"
       inkscape:connector-curvature="0"
       sodipodi:nodetypes="cc" />
    <path
       style="fill:none;stroke:#000000;stroke-width:0.80500001;stroke-linecap:butt;stroke-linejoin:round;stroke-miterlimit:4;stroke-opacity:1;stroke-dasharray:3.22000003, 3.22000003;stroke-dashoffset:0"
       d="m 31.398332,887.50416 35,0"
       id="path8128"
       inkscape:connector-curvature="0" />
    <path
       inkscape:connector-curvature="0"
       id="path8130"
       d="m 31.398333,807.14606 16.535535,0"
       style="fill:none;stroke:#000000;stroke-width:0.80500001;stroke-linecap:butt;stroke-linejoin:round;stroke-miterlimit:4;stroke-opacity:1;stroke-dasharray:3.22000003, 3.22000003;stroke-dashoffset:0" />
    <path
       inkscape:connector-curvature="0"
       id="path8804"
       d="m 283.03524,789.18434 20,0"
       style="fill:none;stroke:#000000;stroke-width:0.80500001;stroke-linecap:butt;stroke-linejoin:miter;stroke-miterlimit:4;stroke-opacity:1;stroke-dasharray:none;marker-end:url(#Arrow1Mend-62)"
       sodipodi:nodetypes="cc" />
    <g
       style="font-style:normal;font-variant:normal;font-weight:normal;font-stretch:normal;letter-spacing:normal;word-spacing:normal;text-anchor:start;fill:none;stroke:#000000;stroke-width:1;stroke-linecap:butt;stroke-linejoin:miter;stroke-miterlimit:10.43299961;stroke-opacity:1;stroke-dasharray:none;stroke-dashoffset:0"
       ns0:preamble="/home/sriranga/Desktop/MCT/package.tex"
       ns0:text="$-$"
       word-spacing="normal"
       letter-spacing="normal"
       font-size-adjust="none"
       font-stretch="normal"
       font-weight="normal"
       font-variant="normal"
       font-style="normal"
       stroke-miterlimit="10.433"
       xml:space="preserve"
       transform="matrix(1.2,0,0,-1.2,47.265882,1722.0301)"
       id="g5315"><polygon
         id="polygon5317"
         points="229.14,709.96 224.05,709.96 224.05,709.4 229.14,709.4 "
         style="fill:#000000;stroke-width:0" /></g>    <path
       transform="translate(136.50028,795.53023)"
       d="m 185,96.830688 c 0,1.380712 -1.11929,2.5 -2.5,2.5 -1.38071,0 -2.5,-1.119288 -2.5,-2.5 0,-1.380711 1.11929,-2.5 2.5,-2.5 1.38071,0 2.5,1.119289 2.5,2.5 z"
       sodipodi:ry="2.5"
       sodipodi:rx="2.5"
       sodipodi:cy="96.830688"
       sodipodi:cx="182.5"
       id="path4092"
       style="color:#000000;fill:#ffffff;stroke:#000000;stroke-width:0.80000001;stroke-linecap:square;stroke-linejoin:round;stroke-miterlimit:4;stroke-opacity:1;stroke-dasharray:none;stroke-dashoffset:0;marker:none;visibility:visible;display:inline;overflow:visible;enable-background:accumulate"
       sodipodi:type="arc" />
    <path
       inkscape:connector-curvature="0"
       id="path9041"
       d="m 273.63179,861.9434 0,-24.22522"
       style="fill:#ffffff;fill-opacity:1;stroke:#000000;stroke-width:1.20000005;stroke-linecap:square;stroke-linejoin:round;stroke-miterlimit:4;stroke-opacity:1;stroke-dasharray:none;stroke-dashoffset:0" />
    <path
       style="fill:none;stroke:#000000;stroke-width:1.20000005;stroke-linecap:butt;stroke-linejoin:miter;stroke-miterlimit:4;stroke-opacity:1;stroke-dasharray:none"
       d="m 273.63179,797.36092 0,25.61477"
       id="path9043"
       inkscape:connector-curvature="0" />
    <path
       style="fill:none;stroke:#000000;stroke-width:1.20000005;stroke-linecap:butt;stroke-linejoin:miter;stroke-miterlimit:4;stroke-opacity:1;stroke-dasharray:none"
       d="m 233.63179,866.94339 0,25.41753"
       id="path9045"
       inkscape:connector-curvature="0" />
    <path
       inkscape:transform-center-y="2.4999906"
       transform="matrix(-0.86602541,-0.50000001,-0.50000001,0.86602541,486.81311,858.73703)"
       d="m 245,99.330688 -15,8.660252 0,-17.320506 z"
       inkscape:randomized="0"
       inkscape:rounded="0"
       inkscape:flatsided="true"
       sodipodi:arg2="1.0471976"
       sodipodi:arg1="0"
       sodipodi:r2="5"
       sodipodi:r1="10"
       sodipodi:cy="99.330688"
       sodipodi:cx="235"
       sodipodi:sides="3"
       id="path9047"
       style="fill:#ffffff;fill-opacity:1;stroke:#000000;stroke-width:1.20000005;stroke-linecap:square;stroke-linejoin:round;stroke-miterlimit:4;stroke-opacity:1;stroke-dasharray:none;stroke-dashoffset:0"
       sodipodi:type="star" />
    <path
       inkscape:connector-curvature="0"
       id="path9049"
       d="m 243.63179,837.25993 -20,0"
       style="fill:#000000;fill-opacity:0;stroke:#000000;stroke-width:1.20472441000000008;stroke-linecap:round;stroke-linejoin:round;stroke-miterlimit:4;stroke-opacity:1;stroke-dasharray:none;stroke-dashoffset:0" />
    <path
       sodipodi:type="arc"
       id="path9051"
       style="fill:#000000;stroke:none"
       sodipodi:cx="295"
       sodipodi:cy="797.3609"
       sodipodi:rx="2.5"
       sodipodi:ry="2.5"
       d="m 297.5,797.3609 c 0,1.38071 -1.11929,2.5 -2.5,2.5 -1.38071,0 -2.5,-1.11929 -2.5,-2.5 0,-1.38071 1.11929,-2.5 2.5,-2.5 1.38071,0 2.5,1.11929 2.5,2.5 z"
       transform="translate(-61.368213,-1.5234377e-6)" />
    <path
       sodipodi:type="arc"
       id="path9053"
       style="fill:#000000;stroke:none"
       sodipodi:cx="295"
       sodipodi:cy="892.3609"
       sodipodi:rx="2.5"
       sodipodi:ry="2.5"
       d="m 297.5,892.3609 c 0,1.38071 -1.11929,2.5 -2.5,2.5 -1.38071,0 -2.5,-1.11929 -2.5,-2.5 0,-1.38071 1.11929,-2.5 2.5,-2.5 1.38071,0 2.5,1.11929 2.5,2.5 z"
       transform="translate(-61.368213,-1.5234377e-6)" />
    <path
       inkscape:connector-curvature="0"
       id="path9055"
       d="m 240.19724,862.2298 -13.13091,0"
       style="fill:#000000;fill-opacity:0;stroke:#000000;stroke-width:1.20472441000000008;stroke-linecap:round;stroke-linejoin:round;stroke-miterlimit:4;stroke-opacity:1;stroke-dasharray:none;stroke-dashoffset:0" />
    <path
       inkscape:connector-curvature="0"
       id="path9057"
       d="m 236.63179,867.2298 -6,0"
       style="fill:#000000;fill-opacity:0;stroke:#000000;stroke-width:1.20472441000000008;stroke-linecap:round;stroke-linejoin:round;stroke-miterlimit:4;stroke-opacity:1;stroke-dasharray:none;stroke-dashoffset:0" />
    <path
       style="fill:#ffffff;fill-opacity:1;stroke:#000000;stroke-width:1.20000017;stroke-linecap:square;stroke-linejoin:round;stroke-miterlimit:4;stroke-opacity:1;stroke-dasharray:none;stroke-dashoffset:0"
       d="m 233.63179,861.37411 0,-24.93231"
       id="path9059"
       inkscape:connector-curvature="0" />
    <path
       inkscape:connector-curvature="0"
       id="path9061"
       d="m 233.63179,797.36091 0,25.08135"
       style="fill:none;stroke:#000000;stroke-width:1.20000005;stroke-linecap:butt;stroke-linejoin:miter;stroke-miterlimit:4;stroke-opacity:1;stroke-dasharray:none" />
    <path
       sodipodi:nodetypes="cc"
       style="fill:none;stroke:#000000;stroke-width:0.80499995;stroke-linecap:butt;stroke-linejoin:miter;stroke-miterlimit:4;stroke-opacity:1;stroke-dasharray:none;marker-end:url(#Arrow1Mend-62)"
       d="m 413.11497,807.13534 -14.96382,0"
       id="path9343"
       inkscape:connector-curvature="0" />
    <path
       inkscape:connector-curvature="0"
       id="path9913"
       d="m 438.99181,862.58018 -12.2359,0"
       style="fill:none;stroke:#000000;stroke-width:0.80499995;stroke-linecap:butt;stroke-linejoin:miter;stroke-miterlimit:4;stroke-opacity:1;stroke-dasharray:none;marker-end:url(#Arrow1Mend-62)"
       sodipodi:nodetypes="cc" />
    <path
       sodipodi:nodetypes="cc"
       inkscape:connector-curvature="0"
       id="path10252"
       d="m 82.432255,847.6474 c -15.113016,56.40254 -20,50 -25,0"
       style="fill:none;stroke:#000000;stroke-width:1.5;stroke-linecap:round;stroke-linejoin:round;stroke-miterlimit:4;stroke-opacity:1;stroke-dasharray:none;stroke-dashoffset:0" />
    <path
       sodipodi:nodetypes="cccc"
       inkscape:connector-curvature="0"
       id="path10254"
       d="m 377.52098,847.05705 c 1.47054,-5.48811 2.84425,-10.68345 4.13068,-15 l 19.21176,0 c 0.5603,4.41524 1.10825,9.50687 1.65756,15"
       style="fill:none;stroke:#000000;stroke-width:1.5;stroke-linecap:round;stroke-linejoin:round;stroke-miterlimit:4;stroke-opacity:1;stroke-dasharray:none;stroke-dashoffset:0" />
    <path
       style="fill:none;stroke:#000000;stroke-width:0.80500001;stroke-linecap:butt;stroke-linejoin:round;stroke-miterlimit:4;stroke-opacity:1;stroke-dasharray:3.22000003, 3.22000003;stroke-dashoffset:0"
       d="m 427.62227,847.66479 c -1.47054,5.48811 -2.84425,10.68345 -4.13068,15 -10.48196,35.1719 -15.16834,31.86301 -19.21176,0 -0.5603,-4.41524 -1.10825,-9.50687 -1.65756,-15"
       id="path10262"
       inkscape:connector-curvature="0"
       sodipodi:nodetypes="cssc" />
    <path
       sodipodi:nodetypes="cssc"
       inkscape:connector-curvature="0"
       id="path10264"
       d="m 377.52098,847.05705 c 1.47054,-5.48811 2.84425,-10.68345 4.13068,-15 10.48196,-35.1719 15.16834,-31.86301 19.21176,0 0.5603,4.41524 1.10825,9.50687 1.65756,15"
       style="fill:none;stroke:#000000;stroke-width:0.80500001;stroke-linecap:butt;stroke-linejoin:round;stroke-miterlimit:4;stroke-opacity:1;stroke-dasharray:3.22000003, 3.22000003;stroke-dashoffset:0" />
    <path
       style="fill:none;stroke:#000000;stroke-width:1.5;stroke-linecap:round;stroke-linejoin:round;stroke-miterlimit:4;stroke-opacity:1;stroke-dasharray:none;stroke-dashoffset:0"
       d="m 427.62227,847.66479 c -1.47054,5.48811 -2.84425,10.68345 -4.13068,15 l -19.21176,0 c -0.5603,-4.41524 -1.10825,-9.50687 -1.65756,-15"
       id="path10266"
       inkscape:connector-curvature="0"
       sodipodi:nodetypes="cccc" />
    <g
       id="g10398"
       transform="matrix(1.2,0,0,-1.2,-96.497096,1663.64)"
       xml:space="preserve"
       stroke-miterlimit="10.433"
       font-style="normal"
       font-variant="normal"
       font-weight="normal"
       font-stretch="normal"
       font-size-adjust="none"
       letter-spacing="normal"
       word-spacing="normal"
       ns0:text="$2.52~k\\Omega$"
       ns0:preamble="/home/sriranga/Desktop/MCT/package.tex"
       style="font-style:normal;font-variant:normal;font-weight:normal;font-stretch:normal;letter-spacing:normal;word-spacing:normal;text-anchor:start;fill:none;stroke:#000000;stroke-width:1;stroke-linecap:butt;stroke-linejoin:miter;stroke-miterlimit:10.43299961;stroke-opacity:1;stroke-dasharray:none;stroke-dashoffset:0"><path
         style="fill:#000000;stroke-width:0"
         inkscape:connector-curvature="0"
         d="m 228.16,708.49 -0.13,0.05 c -0.37,-0.57 -0.5,-0.66 -0.95,-0.66 h -2.37 l 1.67,1.75 c 0.88,0.92 1.27,1.68 1.27,2.45 0,1 -0.8,1.76 -1.84,1.76 -0.55,0 -1.07,-0.22 -1.43,-0.62 -0.32,-0.33 -0.47,-0.65 -0.64,-1.36 l 0.21,-0.05 c 0.4,0.98 0.76,1.29 1.44,1.29 0.84,0 1.4,-0.56 1.4,-1.39 0,-0.78 -0.45,-1.7 -1.29,-2.59 l -1.77,-1.88 v -0.12 h 3.88 z"
         id="path10400" /><path
         style="fill:#000000;stroke-width:0"
         inkscape:connector-curvature="0"
         d="m 230.21,707.55 0,0.03 0,0.03 0,0.03 -0.01,0.02 0,0.03 -0.01,0.03 -0.01,0.02 -0.01,0.03 -0.01,0.03 -0.02,0.02 -0.01,0.02 -0.01,0.03 -0.02,0.02 -0.02,0.02 -0.01,0.02 -0.02,0.02 -0.02,0.02 -0.02,0.02 -0.02,0.01 -0.03,0.02 -0.02,0.01 -0.02,0.02 -0.03,0.01 -0.02,0.01 -0.03,0.01 -0.02,0.01 -0.03,0.01 -0.02,0.01 -0.03,0 -0.03,0.01 -0.03,0 -0.02,0 c -0.3,0 -0.55,-0.25 -0.55,-0.57 0,-0.38 0.34,-0.53 0.55,-0.53 0.21,0 0.55,0.16 0.55,0.53 z"
         id="path10402" /><path
         style="fill:#000000;stroke-width:0"
         inkscape:connector-curvature="0"
         d="m 232.71,712.92 h 1.94 c 0.16,0 0.2,0.02 0.23,0.09 l 0.38,0.88 -0.09,0.07 c -0.15,-0.21 -0.25,-0.26 -0.46,-0.26 h -2.08 l -1.08,-2.35 c -0.01,-0.02 -0.01,-0.03 -0.01,-0.05 0,-0.05 0.04,-0.08 0.12,-0.08 0.32,0 0.72,-0.07 1.12,-0.2 1.15,-0.37 1.68,-0.98 1.68,-1.97 0,-0.95 -0.61,-1.7 -1.39,-1.7 -0.2,0 -0.36,0.07 -0.66,0.29 -0.32,0.23 -0.55,0.33 -0.76,0.33 -0.29,0 -0.43,-0.12 -0.43,-0.37 0,-0.38 0.47,-0.61 1.22,-0.61 0.83,0 1.55,0.26 2.05,0.77 0.45,0.45 0.66,1.01 0.66,1.77 0,0.71 -0.19,1.17 -0.68,1.67 -0.44,0.44 -1.01,0.66 -2.18,0.87 z"
         id="path10404" /><path
         style="fill:#000000;stroke-width:0"
         inkscape:connector-curvature="0"
         d="m 240.61,708.49 -0.13,0.05 c -0.37,-0.57 -0.5,-0.66 -0.94,-0.66 h -2.38 l 1.67,1.75 c 0.89,0.92 1.27,1.68 1.27,2.45 0,1 -0.8,1.76 -1.84,1.76 -0.54,0 -1.06,-0.22 -1.43,-0.62 -0.32,-0.33 -0.47,-0.65 -0.64,-1.36 l 0.21,-0.05 c 0.4,0.98 0.76,1.29 1.45,1.29 0.83,0 1.4,-0.56 1.4,-1.39 0,-0.78 -0.46,-1.7 -1.29,-2.59 l -1.78,-1.88 v -0.12 h 3.88 z"
         id="path10406" /><path
         style="fill:#000000;stroke-width:0"
         inkscape:connector-curvature="0"
         d="m 247.48,708.21 -0.15,-0.26 c -0.18,-0.31 -0.3,-0.42 -0.45,-0.42 -0.21,0 -0.42,0.33 -0.81,1.28 -0.05,0.13 -0.2,0.49 -0.36,0.88 1.46,1.3 1.77,1.5 2.23,1.53 v 0.16 h -1.82 v -0.16 h 0.16 c 0.25,0 0.39,-0.07 0.39,-0.18 0,-0.2 -0.5,-0.69 -1.42,-1.39 -0.14,-0.11 -0.26,-0.21 -0.43,-0.33 l 1.19,4.54 -0.05,0.05 c -0.58,-0.13 -0.96,-0.2 -1.55,-0.27 v -0.16 c 0.48,0.01 0.67,-0.06 0.68,-0.25 -0.02,-0.16 -0.09,-0.43 -0.22,-0.89 -0.04,-0.14 -0.07,-0.25 -0.09,-0.33 l -0.02,-0.09 -1.26,-4.8 h 0.74 l 0.48,1.79 0.42,0.32 c 0.16,-0.44 0.42,-1.04 0.6,-1.4 0.31,-0.63 0.49,-0.81 0.78,-0.81 0.4,0 0.66,0.24 1.1,1.08 z"
         id="path10408" /><path
         style="fill:#000000;stroke-width:0"
         inkscape:connector-curvature="0"
         d="m 255.05,707.12 v 1.53 h -0.17 c -0.03,-0.51 -0.31,-0.62 -0.77,-0.62 h -1.35 l 0.04,0.33 c 1.27,0.36 2.02,1.35 2.02,2.67 0,1.8 -1.45,2.82 -3.14,2.82 -1.68,0 -3.19,-1.07 -3.19,-2.86 0,-1.21 0.79,-2.4 2.04,-2.63 l 0.01,-0.33 h -1.33 c -0.47,0 -0.75,0.1 -0.79,0.62 h -0.18 v -1.53 h 2.72 l -0.09,1.47 c -1.03,0.37 -1.25,1.4 -1.25,2.38 0,1.22 0.66,2.53 2.04,2.53 1.43,0 2.05,-1.36 2.05,-2.6 0,-0.95 -0.23,-1.99 -1.25,-2.31 l -0.13,-1.47 z"
         id="path10410" /></g>    <g
       style="font-style:normal;font-variant:normal;font-weight:normal;font-stretch:normal;letter-spacing:normal;word-spacing:normal;text-anchor:start;fill:none;stroke:#000000;stroke-width:1;stroke-linecap:butt;stroke-linejoin:miter;stroke-miterlimit:10.43299961;stroke-opacity:1;stroke-dasharray:none;stroke-dashoffset:0"
       ns0:preamble="/home/sriranga/Desktop/MCT/package.tex"
       ns0:text="$3V$"
       word-spacing="normal"
       letter-spacing="normal"
       font-size-adjust="none"
       font-stretch="normal"
       font-weight="normal"
       font-variant="normal"
       font-style="normal"
       stroke-miterlimit="10.433"
       xml:space="preserve"
       transform="matrix(1.2,0,0,-1.2,-57.764556,1720.8263)"
       id="g10681"><path
         id="path10683"
         d="m 224.95,710.4 0.06,0 0.05,0 0.05,0 0.05,0 0.04,0 0.05,0 0.04,0 0.04,0 0.04,0 0.04,0 0.04,-0.01 0.03,0 0.04,0 0.03,0 0.03,-0.01 0.03,0 0.03,0 0.03,0 0.03,-0.01 0.02,0 0.03,-0.01 0.03,0 0.05,-0.01 0.04,-0.01 0.05,-0.02 0.04,-0.01 0.05,-0.02 c 0.62,-0.21 1,-0.78 1,-1.47 0,-0.83 -0.56,-1.48 -1.3,-1.48 -0.27,0 -0.47,0.07 -0.83,0.31 -0.3,0.18 -0.47,0.25 -0.64,0.25 -0.23,0 -0.38,-0.14 -0.38,-0.35 0,-0.35 0.43,-0.56 1.12,-0.56 0.77,0 1.56,0.25 2.02,0.66 0.47,0.41 0.73,0.99 0.73,1.65 0,0.51 -0.16,0.97 -0.45,1.28 -0.2,0.22 -0.39,0.34 -0.82,0.53 0.68,0.47 0.93,0.83 0.93,1.37 0,0.8 -0.63,1.36 -1.55,1.36 -0.5,0 -0.94,-0.17 -1.29,-0.49 -0.3,-0.26 -0.45,-0.52 -0.67,-1.12 l 0.15,-0.04 c 0.41,0.73 0.85,1.05 1.48,1.05 0.65,0 1.1,-0.43 1.1,-1.06 0,-0.36 -0.15,-0.71 -0.4,-0.96 -0.3,-0.3 -0.58,-0.45 -1.26,-0.69 z"
         inkscape:connector-curvature="0"
         style="fill:#000000;stroke-width:0" /><path
         id="path10685"
         d="m 235.26,713.61 h -1.85 v -0.16 c 0.44,-0.05 0.62,-0.15 0.62,-0.34 0,-0.18 -0.18,-0.61 -0.51,-1.18 l -2.05,-3.53 -0.66,4.4 c -0.01,0.05 -0.01,0.09 -0.01,0.15 0,0.33 0.14,0.43 0.77,0.5 v 0.16 h -2.4 v -0.16 c 0.56,-0.07 0.58,-0.1 0.79,-1.34 l 0.84,-5.16 h 0.19 l 3.71,6.1 c 0.17,0.27 0.33,0.39 0.56,0.4 z"
         inkscape:connector-curvature="0"
         style="fill:#000000;stroke-width:0" /></g>    <g
       id="g10822"
       transform="matrix(1.2,0,0,-1.2,13.935738,1717.8144)"
       xml:space="preserve"
       stroke-miterlimit="10.433"
       font-style="normal"
       font-variant="normal"
       font-weight="normal"
       font-stretch="normal"
       font-size-adjust="none"
       letter-spacing="normal"
       word-spacing="normal"
       ns0:text="$3V$"
       ns0:preamble="/home/sriranga/Desktop/MCT/package.tex"
       style="font-style:normal;font-variant:normal;font-weight:normal;font-stretch:normal;letter-spacing:normal;word-spacing:normal;text-anchor:start;fill:none;stroke:#000000;stroke-width:1;stroke-linecap:butt;stroke-linejoin:miter;stroke-miterlimit:10.43299961;stroke-opacity:1;stroke-dasharray:none;stroke-dashoffset:0"><path
         style="fill:#000000;stroke-width:0"
         inkscape:connector-curvature="0"
         d="m 224.95,710.4 0.06,0 0.05,0 0.05,0 0.05,0 0.04,0 0.05,0 0.04,0 0.04,0 0.04,0 0.04,0 0.04,-0.01 0.03,0 0.04,0 0.03,0 0.03,-0.01 0.03,0 0.03,0 0.03,0 0.03,-0.01 0.02,0 0.03,-0.01 0.03,0 0.05,-0.01 0.04,-0.01 0.05,-0.02 0.04,-0.01 0.05,-0.02 c 0.62,-0.21 1,-0.78 1,-1.47 0,-0.83 -0.56,-1.48 -1.3,-1.48 -0.27,0 -0.47,0.07 -0.83,0.31 -0.3,0.18 -0.47,0.25 -0.64,0.25 -0.23,0 -0.38,-0.14 -0.38,-0.35 0,-0.35 0.43,-0.56 1.12,-0.56 0.77,0 1.56,0.25 2.02,0.66 0.47,0.41 0.73,0.99 0.73,1.65 0,0.51 -0.16,0.97 -0.45,1.28 -0.2,0.22 -0.39,0.34 -0.82,0.53 0.68,0.47 0.93,0.83 0.93,1.37 0,0.8 -0.63,1.36 -1.55,1.36 -0.5,0 -0.94,-0.17 -1.29,-0.49 -0.3,-0.26 -0.45,-0.52 -0.67,-1.12 l 0.15,-0.04 c 0.41,0.73 0.85,1.05 1.48,1.05 0.65,0 1.1,-0.43 1.1,-1.06 0,-0.36 -0.15,-0.71 -0.4,-0.96 -0.3,-0.3 -0.58,-0.45 -1.26,-0.69 z"
         id="path10824" /><path
         style="fill:#000000;stroke-width:0"
         inkscape:connector-curvature="0"
         d="m 235.26,713.61 h -1.85 v -0.16 c 0.44,-0.05 0.62,-0.15 0.62,-0.34 0,-0.18 -0.18,-0.61 -0.51,-1.18 l -2.05,-3.53 -0.66,4.4 c -0.01,0.05 -0.01,0.09 -0.01,0.15 0,0.33 0.14,0.43 0.77,0.5 v 0.16 h -2.4 v -0.16 c 0.56,-0.07 0.58,-0.1 0.79,-1.34 l 0.84,-5.16 h 0.19 l 3.71,6.1 c 0.17,0.27 0.33,0.39 0.56,0.4 z"
         id="path10826" /></g>    <g
       style="font-style:normal;font-variant:normal;font-weight:normal;font-stretch:normal;letter-spacing:normal;word-spacing:normal;text-anchor:start;fill:none;stroke:#000000;stroke-width:1;stroke-linecap:butt;stroke-linejoin:miter;stroke-miterlimit:10.43299961;stroke-opacity:1;stroke-dasharray:none;stroke-dashoffset:0"
       ns0:preamble="/home/sriranga/Desktop/MCT/package.tex"
       ns0:text="$10V$"
       word-spacing="normal"
       letter-spacing="normal"
       font-size-adjust="none"
       font-stretch="normal"
       font-weight="normal"
       font-variant="normal"
       font-style="normal"
       stroke-miterlimit="10.433"
       xml:space="preserve"
       transform="matrix(1.2,0,0,-1.2,146.04825,1659.2884)"
       id="g11234"><path
         id="path11236"
         d="m 226.33,713.84 -1.79,-0.9 v -0.14 c 0.12,0.05 0.22,0.09 0.26,0.11 0.18,0.07 0.35,0.11 0.45,0.11 0.21,0 0.3,-0.15 0.3,-0.47 v -4.5 c 0,-0.33 -0.08,-0.56 -0.24,-0.65 -0.15,-0.09 -0.29,-0.12 -0.7,-0.13 v -0.15 h 2.74 v 0.15 c -0.78,0.01 -0.94,0.11 -0.94,0.59 v 5.96 z"
         inkscape:connector-curvature="0"
         style="fill:#000000;stroke-width:0" /><path
         id="path11238"
         d="m 230.94,713.84 -0.05,0 -0.05,0 -0.05,0 -0.05,-0.01 -0.05,0 -0.04,-0.01 -0.05,0 -0.05,-0.01 -0.04,-0.01 -0.05,-0.01 -0.04,-0.01 -0.05,-0.01 -0.04,-0.01 -0.04,-0.02 -0.04,-0.01 -0.04,-0.02 -0.04,-0.01 -0.04,-0.02 -0.04,-0.02 -0.04,-0.02 -0.04,-0.02 -0.04,-0.02 -0.04,-0.03 -0.04,-0.02 -0.03,-0.02 -0.04,-0.03 -0.04,-0.03 -0.03,-0.02 -0.04,-0.03 -0.03,-0.03 -0.04,-0.03 -0.03,-0.04 c -0.58,-0.55 -0.96,-1.7 -0.96,-2.86 0,-1.08 0.33,-2.24 0.8,-2.8 0.37,-0.44 0.87,-0.67 1.45,-0.67 v 0.25 c -0.86,0 -1.29,1.07 -1.29,3.13 0,2.11 0.44,3.21 1.3,3.21 h 0 c 0.84,0 1.28,-1.12 1.28,-3.2 0,-2.07 -0.43,-3.14 -1.29,-3.14 v -0.25 c 0.51,0 0.94,0.17 1.29,0.51 0.58,0.55 0.96,1.7 0.96,2.9 0,2.04 -0.91,3.44 -2.21,3.44 z"
         inkscape:connector-curvature="0"
         style="fill:#000000;stroke-width:0" /><path
         id="path11240"
         d="m 240.24,713.61 h -1.85 v -0.16 c 0.45,-0.05 0.63,-0.15 0.63,-0.34 0,-0.18 -0.19,-0.61 -0.52,-1.18 l -2.05,-3.53 -0.66,4.4 c -0.01,0.05 -0.01,0.09 -0.01,0.15 0,0.33 0.14,0.43 0.77,0.5 v 0.16 h -2.4 v -0.16 c 0.56,-0.07 0.58,-0.1 0.79,-1.34 l 0.84,-5.16 h 0.19 l 3.71,6.1 c 0.17,0.27 0.33,0.39 0.56,0.4 z"
         inkscape:connector-curvature="0"
         style="fill:#000000;stroke-width:0" /></g>    <path
       inkscape:connector-curvature="0"
       id="path11375"
       d="m 416.31372,832.24172 -12.2359,0"
       style="fill:none;stroke:#000000;stroke-width:0.80499995;stroke-linecap:butt;stroke-linejoin:miter;stroke-miterlimit:4;stroke-opacity:1;stroke-dasharray:none;marker-end:url(#Arrow1Mend-62)"
       sodipodi:nodetypes="cc" />
    <g
       id="g11522"
       transform="matrix(1.2,0,0,-1.2,151.62719,1684.8188)"
       xml:space="preserve"
       stroke-miterlimit="10.433"
       font-style="normal"
       font-variant="normal"
       font-weight="normal"
       font-stretch="normal"
       font-size-adjust="none"
       letter-spacing="normal"
       word-spacing="normal"
       ns0:text="$3.7V$"
       ns0:preamble="/home/sriranga/Desktop/MCT/package.tex"
       style="font-style:normal;font-variant:normal;font-weight:normal;font-stretch:normal;letter-spacing:normal;word-spacing:normal;text-anchor:start;fill:none;stroke:#000000;stroke-width:1;stroke-linecap:butt;stroke-linejoin:miter;stroke-miterlimit:10.43299961;stroke-opacity:1;stroke-dasharray:none;stroke-dashoffset:0"><path
         style="fill:#000000;stroke-width:0"
         inkscape:connector-curvature="0"
         d="m 224.95,710.4 0.06,0 0.05,0 0.05,0 0.05,0 0.04,0 0.05,0 0.04,0 0.04,0 0.04,0 0.04,0 0.04,-0.01 0.03,0 0.04,0 0.03,0 0.03,-0.01 0.03,0 0.03,0 0.03,0 0.03,-0.01 0.02,0 0.03,-0.01 0.03,0 0.05,-0.01 0.04,-0.01 0.05,-0.02 0.04,-0.01 0.05,-0.02 c 0.62,-0.21 1,-0.78 1,-1.47 0,-0.83 -0.56,-1.48 -1.3,-1.48 -0.27,0 -0.47,0.07 -0.83,0.31 -0.3,0.18 -0.47,0.25 -0.64,0.25 -0.23,0 -0.38,-0.14 -0.38,-0.35 0,-0.35 0.43,-0.56 1.12,-0.56 0.77,0 1.56,0.25 2.02,0.66 0.47,0.41 0.73,0.99 0.73,1.65 0,0.51 -0.16,0.97 -0.45,1.28 -0.2,0.22 -0.39,0.34 -0.82,0.53 0.68,0.47 0.93,0.83 0.93,1.37 0,0.8 -0.63,1.36 -1.55,1.36 -0.5,0 -0.94,-0.17 -1.29,-0.49 -0.3,-0.26 -0.45,-0.52 -0.67,-1.12 l 0.15,-0.04 c 0.41,0.73 0.85,1.05 1.48,1.05 0.65,0 1.1,-0.43 1.1,-1.06 0,-0.36 -0.15,-0.71 -0.4,-0.96 -0.3,-0.3 -0.58,-0.45 -1.26,-0.69 z"
         id="path11524" /><path
         style="fill:#000000;stroke-width:0"
         inkscape:connector-curvature="0"
         d="m 230.21,707.55 0,0.03 0,0.03 0,0.03 -0.01,0.02 0,0.03 -0.01,0.03 -0.01,0.02 -0.01,0.03 -0.01,0.03 -0.02,0.02 -0.01,0.02 -0.01,0.03 -0.02,0.02 -0.02,0.02 -0.01,0.02 -0.02,0.02 -0.02,0.02 -0.02,0.02 -0.02,0.01 -0.03,0.02 -0.02,0.01 -0.02,0.02 -0.03,0.01 -0.02,0.01 -0.03,0.01 -0.02,0.01 -0.03,0.01 -0.02,0.01 -0.03,0 -0.03,0.01 -0.03,0 -0.02,0 c -0.3,0 -0.55,-0.25 -0.55,-0.57 0,-0.38 0.34,-0.53 0.55,-0.53 0.21,0 0.55,0.16 0.55,0.53 z"
         id="path11526" /><path
         style="fill:#000000;stroke-width:0"
         inkscape:connector-curvature="0"
         d="m 235.37,713.7 h -3.68 l -0.59,-1.46 0.17,-0.08 c 0.43,0.68 0.61,0.81 1.16,0.81 h 2.16 l -1.97,-5.92 h 0.64 l 2.11,6.49 z"
         id="path11528" /><path
         style="fill:#000000;stroke-width:0"
         inkscape:connector-curvature="0"
         d="m 242.73,713.61 h -1.85 v -0.16 c 0.45,-0.05 0.63,-0.15 0.63,-0.34 0,-0.18 -0.19,-0.61 -0.52,-1.18 l -2.05,-3.53 -0.66,4.4 c -0.01,0.05 -0.01,0.09 -0.01,0.15 0,0.33 0.14,0.43 0.77,0.5 v 0.16 h -2.4 v -0.16 c 0.56,-0.07 0.58,-0.1 0.79,-1.34 l 0.84,-5.16 h 0.19 l 3.71,6.1 c 0.17,0.27 0.33,0.39 0.56,0.4 z"
         id="path11530" /></g>    <g
       style="font-style:normal;font-variant:normal;font-weight:normal;font-stretch:normal;letter-spacing:normal;word-spacing:normal;text-anchor:start;fill:none;stroke:#000000;stroke-width:1;stroke-linecap:butt;stroke-linejoin:miter;stroke-miterlimit:10.43299961;stroke-opacity:1;stroke-dasharray:none;stroke-dashoffset:0"
       ns0:preamble="/home/sriranga/Desktop/MCT/package.tex"
       ns0:text="$-3.7V$"
       word-spacing="normal"
       letter-spacing="normal"
       font-size-adjust="none"
       font-stretch="normal"
       font-weight="normal"
       font-variant="normal"
       font-style="normal"
       stroke-miterlimit="10.433"
       xml:space="preserve"
       transform="matrix(1.2,0,0,-1.2,172.83122,1714.414)"
       id="g11803"><polygon
         id="polygon11805"
         points="229.14,709.96 224.05,709.96 224.05,709.4 229.14,709.4 "
         style="fill:#000000;stroke-width:0" /><path
         id="path11807"
         d="m 231.29,710.4 0.05,0 0.06,0 0.05,0 0.04,0 0.05,0 0.04,0 0.05,0 0.04,0 0.04,0 0.04,0 0.03,-0.01 0.04,0 0.03,0 0.04,0 0.03,-0.01 0.03,0 0.03,0 0.03,0 0.02,-0.01 0.03,0 0.03,-0.01 0.02,0 0.05,-0.01 0.05,-0.01 0.05,-0.02 0.04,-0.01 0.05,-0.02 c 0.61,-0.21 1,-0.78 1,-1.47 0,-0.83 -0.57,-1.48 -1.3,-1.48 -0.27,0 -0.47,0.07 -0.84,0.31 -0.3,0.18 -0.47,0.25 -0.64,0.25 -0.22,0 -0.37,-0.14 -0.37,-0.35 0,-0.35 0.42,-0.56 1.12,-0.56 0.77,0 1.55,0.25 2.02,0.66 0.47,0.41 0.73,0.99 0.73,1.65 0,0.51 -0.16,0.97 -0.45,1.28 -0.2,0.22 -0.39,0.34 -0.83,0.53 0.69,0.47 0.94,0.83 0.94,1.37 0,0.8 -0.64,1.36 -1.55,1.36 -0.5,0 -0.94,-0.17 -1.3,-0.49 -0.3,-0.26 -0.45,-0.52 -0.66,-1.12 l 0.15,-0.04 c 0.4,0.73 0.85,1.05 1.48,1.05 0.64,0 1.09,-0.43 1.09,-1.06 0,-0.36 -0.15,-0.71 -0.4,-0.96 -0.3,-0.3 -0.57,-0.45 -1.25,-0.69 z"
         inkscape:connector-curvature="0"
         style="fill:#000000;stroke-width:0" /><path
         id="path11809"
         d="m 236.55,707.55 0,0.03 0,0.03 -0.01,0.03 0,0.02 -0.01,0.03 0,0.03 -0.01,0.02 -0.01,0.03 -0.02,0.03 -0.01,0.02 -0.01,0.02 -0.02,0.03 -0.01,0.02 -0.02,0.02 -0.02,0.02 -0.02,0.02 -0.02,0.02 -0.02,0.02 -0.02,0.01 -0.02,0.02 -0.02,0.01 -0.02,0.02 -0.03,0.01 -0.02,0.01 -0.03,0.01 -0.02,0.01 -0.03,0.01 -0.03,0.01 -0.02,0 -0.03,0.01 -0.03,0 -0.03,0 c -0.29,0 -0.54,-0.25 -0.54,-0.57 0,-0.38 0.34,-0.53 0.54,-0.53 0.21,0 0.56,0.16 0.56,0.53 z"
         inkscape:connector-curvature="0"
         style="fill:#000000;stroke-width:0" /><path
         id="path11811"
         d="m 241.71,713.7 h -3.68 l -0.59,-1.46 0.17,-0.08 c 0.43,0.68 0.6,0.81 1.15,0.81 h 2.16 l -1.97,-5.92 h 0.65 l 2.11,6.49 z"
         inkscape:connector-curvature="0"
         style="fill:#000000;stroke-width:0" /><path
         id="path11813"
         d="m 249.07,713.61 h -1.85 v -0.16 c 0.44,-0.05 0.62,-0.15 0.62,-0.34 0,-0.18 -0.19,-0.61 -0.51,-1.18 l -2.05,-3.53 -0.66,4.4 c -0.01,0.05 -0.01,0.09 -0.01,0.15 0,0.33 0.14,0.43 0.77,0.5 v 0.16 h -2.4 v -0.16 c 0.56,-0.07 0.57,-0.1 0.78,-1.34 l 0.85,-5.16 h 0.19 l 3.71,6.1 c 0.17,0.27 0.33,0.39 0.56,0.4 z"
         inkscape:connector-curvature="0"
         style="fill:#000000;stroke-width:0" /></g>    <path
       sodipodi:nodetypes="cc"
       style="fill:none;stroke:#000000;stroke-width:0.80499995;stroke-linecap:butt;stroke-linejoin:miter;stroke-miterlimit:4;stroke-opacity:1;stroke-dasharray:none;marker-end:url(#Arrow1Mend-62)"
       d="m 428.66792,887.21121 -12.2359,0"
       id="path11951"
       inkscape:connector-curvature="0" />
    <g
       id="g12104"
       transform="matrix(1.2,0,0,-1.2,163.83612,1738.8664)"
       xml:space="preserve"
       stroke-miterlimit="10.433"
       font-style="normal"
       font-variant="normal"
       font-weight="normal"
       font-stretch="normal"
       font-size-adjust="none"
       letter-spacing="normal"
       word-spacing="normal"
       ns0:text="$-10V$"
       ns0:preamble="/home/sriranga/Desktop/MCT/package.tex"
       style="font-style:normal;font-variant:normal;font-weight:normal;font-stretch:normal;letter-spacing:normal;word-spacing:normal;text-anchor:start;fill:none;stroke:#000000;stroke-width:1;stroke-linecap:butt;stroke-linejoin:miter;stroke-miterlimit:10.43299961;stroke-opacity:1;stroke-dasharray:none;stroke-dashoffset:0"><polygon
         style="fill:#000000;stroke-width:0"
         points="224.05,709.96 224.05,709.4 229.14,709.4 229.14,709.96 "
         id="polygon12106" /><path
         style="fill:#000000;stroke-width:0"
         inkscape:connector-curvature="0"
         d="m 232.66,713.84 -1.79,-0.9 v -0.14 c 0.12,0.05 0.23,0.09 0.27,0.11 0.18,0.07 0.35,0.11 0.45,0.11 0.21,0 0.3,-0.15 0.3,-0.47 v -4.5 c 0,-0.33 -0.08,-0.56 -0.24,-0.65 -0.15,-0.09 -0.29,-0.12 -0.71,-0.13 v -0.15 h 2.75 v 0.15 c -0.79,0.01 -0.95,0.11 -0.95,0.59 v 5.96 z"
         id="path12108" /><path
         style="fill:#000000;stroke-width:0"
         inkscape:connector-curvature="0"
         d="m 237.28,713.84 -0.05,0 -0.06,0 -0.04,0 -0.05,-0.01 -0.05,0 -0.05,-0.01 -0.05,0 -0.04,-0.01 -0.05,-0.01 -0.04,-0.01 -0.05,-0.01 -0.04,-0.01 -0.04,-0.01 -0.04,-0.02 -0.05,-0.01 -0.04,-0.02 -0.04,-0.01 -0.04,-0.02 -0.04,-0.02 -0.04,-0.02 -0.04,-0.02 -0.03,-0.02 -0.04,-0.03 -0.04,-0.02 -0.04,-0.02 -0.03,-0.03 -0.04,-0.03 -0.04,-0.02 -0.03,-0.03 -0.04,-0.03 -0.03,-0.03 -0.04,-0.04 c -0.57,-0.55 -0.95,-1.7 -0.95,-2.86 0,-1.08 0.33,-2.24 0.79,-2.8 0.37,-0.44 0.88,-0.67 1.46,-0.67 v 0.25 c -0.86,0 -1.3,1.07 -1.3,3.13 0,2.11 0.45,3.21 1.31,3.21 h 0 c 0.83,0 1.28,-1.12 1.28,-3.2 0,-2.07 -0.44,-3.14 -1.29,-3.14 v -0.25 c 0.5,0 0.93,0.17 1.29,0.51 0.58,0.55 0.96,1.7 0.96,2.9 0,2.04 -0.91,3.44 -2.21,3.44 z"
         id="path12110" /><path
         style="fill:#000000;stroke-width:0"
         inkscape:connector-curvature="0"
         d="m 246.58,713.61 h -1.85 v -0.16 c 0.44,-0.05 0.62,-0.15 0.62,-0.34 0,-0.18 -0.19,-0.61 -0.51,-1.18 l -2.05,-3.53 -0.66,4.4 c -0.01,0.05 -0.01,0.09 -0.01,0.15 0,0.33 0.14,0.43 0.76,0.5 v 0.16 h -2.39 v -0.16 c 0.55,-0.07 0.57,-0.1 0.78,-1.34 l 0.85,-5.16 h 0.19 l 3.71,6.1 c 0.17,0.27 0.33,0.39 0.56,0.4 z"
         id="path12112" /></g>    <g
       id="g12256"
       transform="matrix(1.2,0,0,-1.2,-260.1473,1661.5506)"
       xml:space="preserve"
       stroke-miterlimit="10.433"
       font-style="normal"
       font-variant="normal"
       font-weight="normal"
       font-stretch="normal"
       font-size-adjust="none"
       letter-spacing="normal"
       word-spacing="normal"
       ns0:text="$10V$"
       ns0:preamble="/home/sriranga/Desktop/MCT/package.tex"
       style="font-style:normal;font-variant:normal;font-weight:normal;font-stretch:normal;letter-spacing:normal;word-spacing:normal;text-anchor:start;fill:none;stroke:#000000;stroke-width:1;stroke-linecap:butt;stroke-linejoin:miter;stroke-miterlimit:10.43299961;stroke-opacity:1;stroke-dasharray:none;stroke-dashoffset:0"><path
         style="fill:#000000;stroke-width:0"
         inkscape:connector-curvature="0"
         d="m 226.33,713.84 -1.79,-0.9 v -0.14 c 0.12,0.05 0.22,0.09 0.26,0.11 0.18,0.07 0.35,0.11 0.45,0.11 0.21,0 0.3,-0.15 0.3,-0.47 v -4.5 c 0,-0.33 -0.08,-0.56 -0.24,-0.65 -0.15,-0.09 -0.29,-0.12 -0.7,-0.13 v -0.15 h 2.74 v 0.15 c -0.78,0.01 -0.94,0.11 -0.94,0.59 v 5.96 z"
         id="path12258" /><path
         style="fill:#000000;stroke-width:0"
         inkscape:connector-curvature="0"
         d="m 230.94,713.84 -0.05,0 -0.05,0 -0.05,0 -0.05,-0.01 -0.05,0 -0.04,-0.01 -0.05,0 -0.05,-0.01 -0.04,-0.01 -0.05,-0.01 -0.04,-0.01 -0.05,-0.01 -0.04,-0.01 -0.04,-0.02 -0.04,-0.01 -0.04,-0.02 -0.04,-0.01 -0.04,-0.02 -0.04,-0.02 -0.04,-0.02 -0.04,-0.02 -0.04,-0.02 -0.04,-0.03 -0.04,-0.02 -0.03,-0.02 -0.04,-0.03 -0.04,-0.03 -0.03,-0.02 -0.04,-0.03 -0.03,-0.03 -0.04,-0.03 -0.03,-0.04 c -0.58,-0.55 -0.96,-1.7 -0.96,-2.86 0,-1.08 0.33,-2.24 0.8,-2.8 0.37,-0.44 0.87,-0.67 1.45,-0.67 v 0.25 c -0.86,0 -1.29,1.07 -1.29,3.13 0,2.11 0.44,3.21 1.3,3.21 h 0 c 0.84,0 1.28,-1.12 1.28,-3.2 0,-2.07 -0.43,-3.14 -1.29,-3.14 v -0.25 c 0.51,0 0.94,0.17 1.29,0.51 0.58,0.55 0.96,1.7 0.96,2.9 0,2.04 -0.91,3.44 -2.21,3.44 z"
         id="path12260" /><path
         style="fill:#000000;stroke-width:0"
         inkscape:connector-curvature="0"
         d="m 240.24,713.61 h -1.85 v -0.16 c 0.45,-0.05 0.63,-0.15 0.63,-0.34 0,-0.18 -0.19,-0.61 -0.52,-1.18 l -2.05,-3.53 -0.66,4.4 c -0.01,0.05 -0.01,0.09 -0.01,0.15 0,0.33 0.14,0.43 0.77,0.5 v 0.16 h -2.4 v -0.16 c 0.56,-0.07 0.58,-0.1 0.79,-1.34 l 0.84,-5.16 h 0.19 l 3.71,6.1 c 0.17,0.27 0.33,0.39 0.56,0.4 z"
         id="path12262" /></g>    <g
       style="font-style:normal;font-variant:normal;font-weight:normal;font-stretch:normal;letter-spacing:normal;word-spacing:normal;text-anchor:start;fill:none;stroke:#000000;stroke-width:1;stroke-linecap:butt;stroke-linejoin:miter;stroke-miterlimit:10.43299961;stroke-opacity:1;stroke-dasharray:none;stroke-dashoffset:0"
       ns0:preamble="/home/sriranga/Desktop/MCT/package.tex"
       ns0:text="$-10V$"
       word-spacing="normal"
       letter-spacing="normal"
       font-size-adjust="none"
       font-stretch="normal"
       font-weight="normal"
       font-variant="normal"
       font-style="normal"
       stroke-miterlimit="10.433"
       xml:space="preserve"
       transform="matrix(1.2,0,0,-1.2,-266.88119,1741.1286)"
       id="g12264"><polygon
         id="polygon12266"
         points="224.05,709.4 229.14,709.4 229.14,709.96 224.05,709.96 "
         style="fill:#000000;stroke-width:0" /><path
         id="path12268"
         d="m 232.66,713.84 -1.79,-0.9 v -0.14 c 0.12,0.05 0.23,0.09 0.27,0.11 0.18,0.07 0.35,0.11 0.45,0.11 0.21,0 0.3,-0.15 0.3,-0.47 v -4.5 c 0,-0.33 -0.08,-0.56 -0.24,-0.65 -0.15,-0.09 -0.29,-0.12 -0.71,-0.13 v -0.15 h 2.75 v 0.15 c -0.79,0.01 -0.95,0.11 -0.95,0.59 v 5.96 z"
         inkscape:connector-curvature="0"
         style="fill:#000000;stroke-width:0" /><path
         id="path12270"
         d="m 237.28,713.84 -0.05,0 -0.06,0 -0.04,0 -0.05,-0.01 -0.05,0 -0.05,-0.01 -0.05,0 -0.04,-0.01 -0.05,-0.01 -0.04,-0.01 -0.05,-0.01 -0.04,-0.01 -0.04,-0.01 -0.04,-0.02 -0.05,-0.01 -0.04,-0.02 -0.04,-0.01 -0.04,-0.02 -0.04,-0.02 -0.04,-0.02 -0.04,-0.02 -0.03,-0.02 -0.04,-0.03 -0.04,-0.02 -0.04,-0.02 -0.03,-0.03 -0.04,-0.03 -0.04,-0.02 -0.03,-0.03 -0.04,-0.03 -0.03,-0.03 -0.04,-0.04 c -0.57,-0.55 -0.95,-1.7 -0.95,-2.86 0,-1.08 0.33,-2.24 0.79,-2.8 0.37,-0.44 0.88,-0.67 1.46,-0.67 v 0.25 c -0.86,0 -1.3,1.07 -1.3,3.13 0,2.11 0.45,3.21 1.31,3.21 h 0 c 0.83,0 1.28,-1.12 1.28,-3.2 0,-2.07 -0.44,-3.14 -1.29,-3.14 v -0.25 c 0.5,0 0.93,0.17 1.29,0.51 0.58,0.55 0.96,1.7 0.96,2.9 0,2.04 -0.91,3.44 -2.21,3.44 z"
         inkscape:connector-curvature="0"
         style="fill:#000000;stroke-width:0" /><path
         id="path12272"
         d="m 246.58,713.61 h -1.85 v -0.16 c 0.44,-0.05 0.62,-0.15 0.62,-0.34 0,-0.18 -0.19,-0.61 -0.51,-1.18 l -2.05,-3.53 -0.66,4.4 c -0.01,0.05 -0.01,0.09 -0.01,0.15 0,0.33 0.14,0.43 0.76,0.5 v 0.16 h -2.39 v -0.16 c 0.55,-0.07 0.57,-0.1 0.78,-1.34 l 0.85,-5.16 h 0.19 l 3.71,6.1 c 0.17,0.27 0.33,0.39 0.56,0.4 z"
         inkscape:connector-curvature="0"
         style="fill:#000000;stroke-width:0" /></g>    <path
       style="fill:#000000;fill-opacity:0;stroke:#000000;stroke-width:1.20472441000000008;stroke-linecap:round;stroke-linejoin:round;stroke-miterlimit:4;stroke-opacity:1;stroke-dasharray:none;stroke-dashoffset:0"
       d="m 267.06377,867.53358 13.13091,0"
       id="path3122"
       inkscape:connector-curvature="0" />
    <path
       style="fill:#000000;fill-opacity:0;stroke:#000000;stroke-width:1.20472441000000008;stroke-linecap:round;stroke-linejoin:round;stroke-miterlimit:4;stroke-opacity:1;stroke-dasharray:none;stroke-dashoffset:0"
       d="m 270.62922,862.53358 6,0"
       id="path3124"
       inkscape:connector-curvature="0" />
    <g
       id="g3126"
       transform="matrix(1.2,0,0,-1.2,-247.05449,1634.0323)"
       xml:space="preserve"
       stroke-miterlimit="10.433"
       font-style="normal"
       font-variant="normal"
       font-weight="normal"
       font-stretch="normal"
       font-size-adjust="none"
       letter-spacing="normal"
       word-spacing="normal"
       ns0:text="$v_i$"
       ns0:preamble="/home/sriranga/Desktop/MCT/package.tex"
       style="font-style:normal;font-variant:normal;font-weight:normal;font-stretch:normal;letter-spacing:normal;word-spacing:normal;text-anchor:start;fill:none;stroke:#000000;stroke-width:1;stroke-linecap:butt;stroke-linejoin:miter;stroke-miterlimit:10.43299961;stroke-opacity:1;stroke-dasharray:none;stroke-dashoffset:0"><path
         style="fill:#000000;stroke-width:0"
         inkscape:connector-curvature="0"
         d="m 223.64,711.13 0.02,0 0.02,0 0.02,0 0.02,0 0.02,0 0.01,0.01 0.02,0 0.02,0 0.04,0 0.01,0 0.02,0 0.02,0 0.02,0 0.02,0 0.02,0 c 0.39,0 0.49,-0.17 0.63,-1.09 0.1,-0.68 0.22,-2.18 0.22,-2.76 0,-0.27 0.01,-0.34 0.09,-0.34 0.24,0 1.17,1.05 2.18,2.46 0.35,0.5 0.61,1.14 0.61,1.51 0,0.32 -0.26,0.59 -0.56,0.59 -0.22,0 -0.37,-0.13 -0.37,-0.34 0,-0.16 0.06,-0.28 0.24,-0.44 0.13,-0.12 0.18,-0.2 0.18,-0.3 0,-0.45 -0.65,-1.56 -1.36,-2.29 l -0.31,-0.32 c -0.07,1.4 -0.13,1.92 -0.26,2.65 -0.2,1.02 -0.2,1.04 -0.29,1.04 -0.04,0 -0.12,-0.01 -0.2,-0.04 -0.17,-0.05 -0.72,-0.15 -1.1,-0.21 z"
         id="path3128" /><path
         style="fill:#000000;stroke-width:0"
         inkscape:connector-curvature="0"
         d="m 229.4,706.42 -0.01,-0.02 -0.02,-0.02 -0.01,-0.01 -0.02,-0.02 -0.01,-0.02 -0.01,-0.01 -0.01,-0.02 -0.01,-0.01 -0.01,-0.02 -0.01,-0.01 -0.01,-0.01 -0.01,-0.02 -0.01,-0.01 -0.01,-0.01 -0.01,-0.01 -0.01,-0.01 0,-0.01 -0.01,-0.01 -0.01,-0.01 -0.01,0 0,-0.01 -0.01,-0.01 -0.01,-0.01 -0.02,-0.02 -0.01,-0.01 -0.01,-0.02 -0.01,-0.01 c -0.12,-0.12 -0.23,-0.19 -0.29,-0.19 -0.06,0 -0.11,0.06 -0.11,0.11 0,0.06 0.02,0.17 0.07,0.3 0,0.02 0.02,0.07 0.03,0.13 v 0.01 l 0.01,0.02 0.61,2.23 -0.02,0.02 c -0.7,-0.13 -0.84,-0.16 -1.11,-0.18 v -0.11 c 0.37,0 0.44,-0.02 0.44,-0.16 0,-0.06 -0.02,-0.17 -0.07,-0.31 l -0.33,-1.23 c -0.11,-0.41 -0.15,-0.62 -0.15,-0.76 0,-0.26 0.11,-0.4 0.32,-0.4 0.32,0 0.58,0.21 0.97,0.8 z"
         id="path3130" /><path
         style="fill:#000000;stroke-width:0"
         inkscape:connector-curvature="0"
         d="m 229.35,710.18 -0.02,0 -0.02,0 -0.02,-0.01 -0.01,0 -0.02,0 -0.01,-0.01 -0.02,0 -0.01,-0.01 -0.02,-0.01 -0.01,0 -0.02,-0.01 -0.01,-0.01 -0.01,-0.01 -0.02,-0.01 -0.01,-0.02 -0.01,-0.01 -0.01,-0.01 -0.01,-0.01 -0.01,-0.02 -0.01,-0.01 -0.01,-0.02 0,-0.01 -0.01,-0.02 -0.01,-0.01 0,-0.02 -0.01,-0.02 0,-0.02 0,-0.01 -0.01,-0.02 0,-0.02 0,-0.02 0,-0.02 c 0,-0.22 0.13,-0.37 0.33,-0.37 0.18,0 0.35,0.16 0.35,0.36 0,0.2 -0.17,0.38 -0.35,0.38 z"
         id="path3132" /></g>    <g
       id="g3134"
       transform="matrix(1.2,0,0,-1.2,95.470192,1634.9503)"
       xml:space="preserve"
       stroke-miterlimit="10.433"
       font-style="normal"
       font-variant="normal"
       font-weight="normal"
       font-stretch="normal"
       font-size-adjust="none"
       letter-spacing="normal"
       word-spacing="normal"
       ns0:text="$v_o$"
       ns0:preamble="/home/sriranga/Desktop/MCT/package.tex"
       style="font-style:normal;font-variant:normal;font-weight:normal;font-stretch:normal;letter-spacing:normal;word-spacing:normal;text-anchor:start;fill:none;stroke:#000000;stroke-width:1;stroke-linecap:butt;stroke-linejoin:miter;stroke-miterlimit:10.43299961;stroke-opacity:1;stroke-dasharray:none;stroke-dashoffset:0"><path
         d="m 223.64,711.13 0.02,0 0.02,0 0.02,0 0.02,0 0.02,0 0.01,0.01 0.02,0 0.02,0 0.04,0 0.01,0 0.02,0 0.02,0 0.02,0 0.02,0 0.02,0 c 0.39,0 0.49,-0.17 0.63,-1.09 0.1,-0.68 0.22,-2.18 0.22,-2.76 0,-0.27 0.01,-0.34 0.09,-0.34 0.24,0 1.17,1.05 2.18,2.46 0.35,0.5 0.61,1.14 0.61,1.51 0,0.32 -0.26,0.59 -0.56,0.59 -0.22,0 -0.37,-0.13 -0.37,-0.34 0,-0.16 0.06,-0.28 0.24,-0.44 0.13,-0.12 0.18,-0.2 0.18,-0.3 0,-0.45 -0.65,-1.56 -1.36,-2.29 l -0.31,-0.32 c -0.07,1.4 -0.13,1.92 -0.26,2.65 -0.2,1.02 -0.2,1.04 -0.29,1.04 -0.04,0 -0.12,-0.01 -0.2,-0.04 -0.17,-0.05 -0.72,-0.15 -1.1,-0.21 z"
         id="path3136"
         inkscape:connector-curvature="0"
         style="fill:#000000;stroke-width:0" /><path
         d="m 230.12,708.7 -0.08,-0.15 c 0.3,0 0.49,-0.26 0.49,-0.65 0,-0.51 -0.23,-1.2 -0.54,-1.66 -0.25,-0.37 -0.52,-0.54 -0.82,-0.54 -0.32,0 -0.54,0.25 -0.54,0.63 0,0.52 0.2,1.13 0.54,1.62 0.27,0.39 0.57,0.6 0.87,0.6 h 0 l 0.08,0.15 c -1.05,0 -2.08,-1.08 -2.08,-2.17 0,-0.6 0.39,-0.98 1.03,-0.98 0.46,0 0.9,0.21 1.31,0.61 0.46,0.45 0.74,1.04 0.74,1.56 0,0.58 -0.41,0.98 -1,0.98 z"
         id="path3138"
         inkscape:connector-curvature="0"
         style="fill:#000000;stroke-width:0" /></g>    <g
       style="font-style:normal;font-variant:normal;font-weight:normal;font-stretch:normal;letter-spacing:normal;word-spacing:normal;text-anchor:start;fill:none;stroke:#000000;stroke-width:1;stroke-linecap:butt;stroke-linejoin:miter;stroke-miterlimit:10.43299961;stroke-opacity:1;stroke-dasharray:none;stroke-dashoffset:0"
       ns0:preamble="/home/sriranga/Desktop/MCT/package.tex"
       ns0:text="$I_L$"
       text-anchor="start"
       word-spacing="normal"
       letter-spacing="normal"
       font-size-adjust="none"
       font-stretch="normal"
       font-weight="normal"
       font-variant="normal"
       font-style="normal"
       fill-opacity="1"
       fill-rule="evenodd"
       fill="none"
       stroke-opacity="1"
       stroke-dashoffset="0"
       stroke-dasharray="none"
       stroke-miterlimit="10.433"
       stroke-linejoin="miter"
       stroke-linecap="butt"
       stroke="black"
       xml:space="preserve"
       transform="matrix(1.2,0,0,-1.2,37.025589,1640.7531)"
       id="g4082"><path
         id="path4085"
         fill="black"
         stroke-width="0"
         d="M223.6,707.12 H226.03 V707.28 C225.46,707.35,225.35,707.41,225.35,707.69 C225.35,707.88,225.37,708,225.46,708.32 L226.69,712.72 C226.87,713.29,226.93,713.35,227.5,713.45 V713.61 H225.04 V713.45 C225.62,713.38,225.74,713.3,225.74,713.03 C225.74,712.89,225.7,712.66,225.63,712.41 L224.41,708.02 C224.23,707.44,224.16,707.38,223.6,707.28 Z " /><path
         id="path4087"
         fill="black"
         stroke-width="0"
         d="M229.98,710.17 H228.08 V710.06 C228.51,710.02,228.62,709.96,228.62,709.76 C228.62,709.66,228.59,709.5,228.54,709.33 L227.68,706.26 C227.56,705.85,227.51,705.81,227.12,705.74 V705.63 H230.66 L231.07,706.88 L230.93,706.92 C230.68,706.42,230.49,706.19,230.19,706.04 C229.95,705.92,229.66,705.88,229.05,705.88 C228.52,705.88,228.35,705.94,228.35,706.12 C228.35,706.17,228.38,706.33,228.42,706.47 L229.28,709.55 C229.38,709.9,229.56,710.03,229.98,710.06 Z " /></g>  </g>
</svg>
