<?xml version="1.0" encoding="UTF-8" standalone="no"?>
<!-- Created with Inkscape (http://www.inkscape.org/) -->

<svg
   xmlns:ns0="http://www.iki.fi/pav/software/textext/"
   xmlns:dc="http://purl.org/dc/elements/1.1/"
   xmlns:cc="http://creativecommons.org/ns#"
   xmlns:rdf="http://www.w3.org/1999/02/22-rdf-syntax-ns#"
   xmlns:svg="http://www.w3.org/2000/svg"
   xmlns="http://www.w3.org/2000/svg"
   xmlns:sodipodi="http://sodipodi.sourceforge.net/DTD/sodipodi-0.dtd"
   xmlns:inkscape="http://www.inkscape.org/namespaces/inkscape"
   sodipodi:docname="sol2.48b.svg"
   inkscape:version="0.48.4 r9939"
   version="1.1"
   id="svg2"
   height="354.33069"
   width="496.06299">
  <sodipodi:namedview
     id="base"
     pagecolor="#ffffff"
     bordercolor="#666666"
     borderopacity="1.0"
     inkscape:pageopacity="0.0"
     inkscape:pageshadow="2"
     inkscape:zoom="1.8029366"
     inkscape:cx="239.18666"
     inkscape:cy="194.51686"
     inkscape:document-units="cm"
     inkscape:current-layer="layer1"
     showgrid="false"
     units="cm"
     inkscape:window-width="1366"
     inkscape:window-height="744"
     inkscape:window-x="0"
     inkscape:window-y="24"
     inkscape:window-maximized="1"
     inkscape:snap-global="true"
     inkscape:snap-bbox="false"
     inkscape:object-paths="false"
     inkscape:object-nodes="true">
    <inkscape:grid
       snapvisiblegridlinesonly="true"
       enabled="true"
       visible="true"
       empspacing="5"
       id="grid2985"
       type="xygrid" />
  </sodipodi:namedview>
  <defs
     id="defs4">
    <marker
       style="overflow:visible"
       id="Arrow1Mend"
       refX="0"
       refY="0"
       orient="auto"
       inkscape:stockid="Arrow1Mend">
      <path
         transform="matrix(-0.4,0,0,-0.4,-4,0)"
         style="fill-rule:evenodd;stroke:#000000;stroke-width:1pt"
         d="M 0,0 5,-5 -12.5,0 5,5 0,0 z"
         id="path5100"
         inkscape:connector-curvature="0" />
    </marker>
    <marker
       style="overflow:visible"
       id="Arrow1Mend-6"
       refX="0"
       refY="0"
       orient="auto"
       inkscape:stockid="Arrow1Mend">
      <path
         transform="matrix(-0.4,0,0,-0.4,-4,0)"
         style="fill-rule:evenodd;stroke:#000000;stroke-width:1pt"
         d="M 0,0 5,-5 -12.5,0 5,5 0,0 z"
         id="path5100-8"
         inkscape:connector-curvature="0" />
    </marker>
    <marker
       inkscape:stockid="Arrow1Mend"
       orient="auto"
       refY="0"
       refX="0"
       id="Arrow1Mend-9"
       style="overflow:visible">
      <path
         inkscape:connector-curvature="0"
         id="path5100-86"
         d="M 0,0 5,-5 -12.5,0 5,5 0,0 z"
         style="fill-rule:evenodd;stroke:#000000;stroke-width:1pt"
         transform="matrix(-0.4,0,0,-0.4,-4,0)" />
    </marker>
    <marker
       style="overflow:visible"
       id="Arrow1Mend-62"
       refX="0"
       refY="0"
       orient="auto"
       inkscape:stockid="Arrow1Mend">
      <path
         transform="matrix(-0.4,0,0,-0.4,-4,0)"
         style="fill-rule:evenodd;stroke:#000000;stroke-width:1pt"
         d="M 0,0 5,-5 -12.5,0 5,5 0,0 z"
         id="path5100-5"
         inkscape:connector-curvature="0" />
    </marker>
  </defs>
  <metadata
     id="metadata7">
    <rdf:RDF>
      <cc:Work
         rdf:about="">
        <dc:format>image/svg+xml</dc:format>
        <dc:type
           rdf:resource="http://purl.org/dc/dcmitype/StillImage" />
        <dc:title></dc:title>
      </cc:Work>
    </rdf:RDF>
  </metadata>
  <g
     transform="translate(0,-698.03023)"
     id="layer1"
     inkscape:groupmode="layer"
     inkscape:label="Layer 1">
    <path
       inkscape:connector-curvature="0"
       id="path5073"
       d="m 285,892.36092 0,20"
       style="fill:none;stroke:#000000;stroke-width:1.20000005;stroke-linecap:butt;stroke-linejoin:miter;stroke-miterlimit:4;stroke-opacity:1;stroke-dasharray:none"
       sodipodi:nodetypes="cc" />
    <g
       id="content"
       transform="matrix(1.2,0,0,-1.2,-28.123208,1691.6912)"
       xml:space="preserve"
       stroke-miterlimit="10.433"
       font-style="normal"
       font-variant="normal"
       font-weight="normal"
       font-stretch="normal"
       font-size-adjust="none"
       letter-spacing="normal"
       word-spacing="normal"
       ns0:text="$R_1$"
       ns0:preamble="/home/sriranga/Desktop/MCT/package.tex"
       style="font-style:normal;font-variant:normal;font-weight:normal;font-stretch:normal;letter-spacing:normal;word-spacing:normal;text-anchor:start;fill:none;stroke:#000000;stroke-width:1;stroke-linecap:butt;stroke-linejoin:miter;stroke-miterlimit:10.43299961;stroke-opacity:1;stroke-dasharray:none;stroke-dashoffset:0"><path
         d="m 229.07,707.28 -0.04,0.01 -0.04,0 -0.03,0.01 -0.04,0 -0.04,0.01 -0.03,0.01 -0.03,0.01 -0.03,0.01 -0.03,0.01 -0.03,0.01 -0.03,0.01 -0.03,0.02 -0.03,0.01 -0.02,0.02 -0.03,0.02 -0.02,0.02 -0.03,0.02 -0.02,0.02 -0.02,0.03 -0.02,0.02 -0.02,0.03 -0.03,0.03 -0.02,0.03 -0.02,0.03 -0.01,0.04 -0.02,0.03 -0.02,0.04 -0.02,0.04 -0.02,0.04 -0.02,0.05 -0.02,0.04 -0.01,0.05 -0.93,2.43 c 0.77,0.17 1.1,0.31 1.45,0.63 0.33,0.29 0.51,0.67 0.51,1.12 0,0.92 -0.73,1.43 -2.07,1.43 l -0.21,-0.3 c 0.83,0 1.24,-0.37 1.24,-1.11 0,-0.98 -0.64,-1.49 -1.88,-1.49 -0.16,0 -0.27,0.01 -0.51,0.05 l 0.65,2.28 c 0.06,0.2 0.18,0.27 0.5,0.27 l 0.21,0.3 h -2.47 v -0.16 c 0.42,-0.06 0.47,-0.07 0.57,-0.14 0.08,-0.05 0.14,-0.16 0.14,-0.27 0,-0.12 -0.05,-0.36 -0.12,-0.63 l -1.22,-4.39 c -0.18,-0.59 -0.25,-0.65 -0.81,-0.74 v -0.16 h 2.43 v 0.16 c -0.61,0.08 -0.68,0.13 -0.68,0.46 0,0.1 0.03,0.23 0.12,0.58 l 0.56,2.07 0.65,-0.05 1.22,-3.22 h 1.47 z"
         id="path4368"
         inkscape:connector-curvature="0"
         style="fill:#000000;stroke-width:0" /><path
         d="m 231.55,710.33 -1.26,-0.63 v -0.1 c 0.09,0.04 0.16,0.06 0.19,0.08 0.12,0.05 0.24,0.08 0.31,0.08 0.15,0 0.21,-0.11 0.21,-0.33 v -3.15 c 0,-0.23 -0.05,-0.39 -0.16,-0.45 -0.11,-0.07 -0.21,-0.09 -0.5,-0.1 v -0.1 h 1.92 v 0.1 c -0.55,0.01 -0.66,0.08 -0.66,0.42 v 4.17 z"
         id="path4370"
         inkscape:connector-curvature="0"
         style="fill:#000000;stroke-width:0" /></g>    <g
       id="g5315"
       transform="matrix(1.2,0,0,-1.2,69.965142,1736.8681)"
       xml:space="preserve"
       stroke-miterlimit="10.433"
       font-style="normal"
       font-variant="normal"
       font-weight="normal"
       font-stretch="normal"
       font-size-adjust="none"
       letter-spacing="normal"
       word-spacing="normal"
       ns0:text="$-$"
       ns0:preamble="/home/sriranga/Desktop/MCT/package.tex"
       style="font-style:normal;font-variant:normal;font-weight:normal;font-stretch:normal;letter-spacing:normal;word-spacing:normal;text-anchor:start;fill:none;stroke:#000000;stroke-width:1;stroke-linecap:butt;stroke-linejoin:miter;stroke-miterlimit:10.43299961;stroke-opacity:1;stroke-dasharray:none;stroke-dashoffset:0"><polygon
         style="fill:#000000;stroke-width:0"
         points="224.05,709.4 229.14,709.4 229.14,709.96 224.05,709.96 "
         id="polygon5317" /></g>    <g
       id="g7510"
       transform="matrix(1.2,0,0,-1.2,73.969073,1690.6989)"
       xml:space="preserve"
       stroke-miterlimit="10.433"
       font-style="normal"
       font-variant="normal"
       font-weight="normal"
       font-stretch="normal"
       font-size-adjust="none"
       letter-spacing="normal"
       word-spacing="normal"
       ns0:text="$v_o$"
       ns0:preamble="/home/sriranga/Desktop/MCT/package.tex"
       style="font-style:normal;font-variant:normal;font-weight:normal;font-stretch:normal;letter-spacing:normal;word-spacing:normal;text-anchor:start;fill:none;stroke:#000000;stroke-width:1;stroke-linecap:butt;stroke-linejoin:miter;stroke-miterlimit:10.43299961;stroke-opacity:1;stroke-dasharray:none;stroke-dashoffset:0"><path
         d="m 223.64,711.13 0.02,0 0.02,0 0.02,0 0.02,0 0.02,0 0.01,0.01 0.02,0 0.02,0 0.04,0 0.01,0 0.02,0 0.02,0 0.02,0 0.02,0 0.02,0 c 0.39,0 0.49,-0.17 0.63,-1.09 0.1,-0.68 0.22,-2.18 0.22,-2.76 0,-0.27 0.01,-0.34 0.09,-0.34 0.24,0 1.17,1.05 2.18,2.46 0.35,0.5 0.61,1.14 0.61,1.51 0,0.32 -0.26,0.59 -0.56,0.59 -0.22,0 -0.37,-0.13 -0.37,-0.34 0,-0.16 0.06,-0.28 0.24,-0.44 0.13,-0.12 0.18,-0.2 0.18,-0.3 0,-0.45 -0.65,-1.56 -1.36,-2.29 l -0.31,-0.32 c -0.07,1.4 -0.13,1.92 -0.26,2.65 -0.2,1.02 -0.2,1.04 -0.29,1.04 -0.04,0 -0.12,-0.01 -0.2,-0.04 -0.17,-0.05 -0.72,-0.15 -1.1,-0.21 z"
         id="path7512"
         inkscape:connector-curvature="0"
         style="fill:#000000;stroke-width:0" /><path
         d="m 230.12,708.7 -0.08,-0.15 c 0.3,0 0.49,-0.26 0.49,-0.65 0,-0.51 -0.23,-1.2 -0.54,-1.66 -0.25,-0.37 -0.52,-0.54 -0.82,-0.54 -0.32,0 -0.54,0.25 -0.54,0.63 0,0.52 0.2,1.13 0.54,1.62 0.27,0.39 0.57,0.6 0.87,0.6 h 0 l 0.08,0.15 c -1.05,0 -2.08,-1.08 -2.08,-2.17 0,-0.6 0.39,-0.98 1.03,-0.98 0.46,0 0.9,0.21 1.31,0.61 0.46,0.45 0.74,1.04 0.74,1.56 0,0.58 -0.41,0.98 -1,0.98 z"
         id="path7514"
         inkscape:connector-curvature="0"
         style="fill:#000000;stroke-width:0" /></g>    <path
       style="fill:none;stroke:#000000;stroke-width:1.5;stroke-linecap:butt;stroke-linejoin:miter;stroke-miterlimit:4;stroke-opacity:1;stroke-dasharray:none"
       d="m 35,842.36092 0,-40 25,0 0,80 25,0 0,-40"
       id="path4078"
       inkscape:connector-curvature="0"
       sodipodi:nodetypes="cccccc" />
    <path
       style="fill:none;stroke:#000000;stroke-width:1.20000005;stroke-linecap:butt;stroke-linejoin:miter;stroke-miterlimit:4;stroke-opacity:1;stroke-dasharray:none"
       d="m 305,797.36092 0,95"
       id="path4080"
       inkscape:connector-curvature="0" />
    <path
       inkscape:connector-curvature="0"
       id="path4084"
       d="m 125,857.36092 0,35 215,0"
       style="fill:none;stroke:#000000;stroke-width:1.2;stroke-linecap:butt;stroke-linejoin:miter;stroke-miterlimit:4;stroke-opacity:1;stroke-dasharray:none"
       sodipodi:nodetypes="ccc" />
    <path
       sodipodi:type="arc"
       style="color:#000000;fill:#ffffff;stroke:#000000;stroke-width:0.80000001;stroke-linecap:square;stroke-linejoin:round;stroke-miterlimit:4;stroke-opacity:1;stroke-dasharray:none;stroke-dashoffset:0;marker:none;visibility:visible;display:inline;overflow:visible;enable-background:accumulate"
       id="path4092"
       sodipodi:cx="182.5"
       sodipodi:cy="96.830688"
       sodipodi:rx="2.5"
       sodipodi:ry="2.5"
       d="m 185,96.830688 c 0,1.380712 -1.11929,2.5 -2.5,2.5 -1.38071,0 -2.5,-1.119288 -2.5,-2.5 0,-1.380711 1.11929,-2.5 2.5,-2.5 1.38071,0 2.5,1.119289 2.5,2.5 z"
       transform="translate(160,795.53023)" />
    <path
       sodipodi:type="star"
       style="fill:#ffffff;fill-opacity:1;stroke:#000000;stroke-width:1.20000005;stroke-linecap:square;stroke-linejoin:round;stroke-miterlimit:4;stroke-opacity:1;stroke-dasharray:none;stroke-dashoffset:0"
       id="path4094"
       sodipodi:sides="3"
       sodipodi:cx="235"
       sodipodi:cy="99.330688"
       sodipodi:r1="10"
       sodipodi:r2="5"
       sodipodi:arg1="0"
       sodipodi:arg2="1.0471976"
       inkscape:flatsided="true"
       inkscape:rounded="0"
       inkscape:randomized="0"
       d="m 245,99.330688 -15,8.660252 0,-17.320506 z"
       transform="matrix(-0.86602541,-0.50000001,-0.50000001,0.86602541,558.18132,868.83802)"
       inkscape:transform-center-y="2.4999906" />
    <path
       style="fill:#ffffff;fill-opacity:1;stroke:#000000;stroke-width:1.20000005000000010;stroke-linecap:round;stroke-linejoin:round;stroke-miterlimit:4;stroke-opacity:1;stroke-dasharray:none;stroke-dashoffset:0"
       d="m 315,847.36092 -20,0"
       id="path4096"
       inkscape:connector-curvature="0" />
    <g
       id="g4222"
       transform="matrix(1.2,0,0,-1.2,49.77381,1692.3442)"
       xml:space="preserve"
       stroke-miterlimit="10.433"
       font-style="normal"
       font-variant="normal"
       font-weight="normal"
       font-stretch="normal"
       font-size-adjust="none"
       letter-spacing="normal"
       word-spacing="normal"
       ns0:text="$D_1$"
       ns0:preamble="/home/sriranga/Desktop/MCT/package.tex"
       style="font-style:normal;font-variant:normal;font-weight:normal;font-stretch:normal;letter-spacing:normal;word-spacing:normal;text-anchor:start;fill:none;stroke:#000000;stroke-width:1;stroke-linecap:butt;stroke-linejoin:miter;stroke-miterlimit:10.43299961;stroke-opacity:1;stroke-dasharray:none;stroke-dashoffset:0"><path
         style="fill:#000000;stroke-width:0"
         inkscape:connector-curvature="0"
         d="m 224.97,713.45 0.03,0 0.03,0 0.03,-0.01 0.02,0 0.03,0 0.03,0 0.04,-0.01 0.05,-0.01 0.04,0 0.05,-0.01 0.03,-0.01 0.04,-0.01 0.04,0 0.03,-0.01 0.03,-0.01 0.03,-0.01 0.02,-0.01 0.03,-0.01 0.02,-0.01 0.02,-0.01 0.02,-0.02 0.01,-0.01 0.02,-0.01 0.01,-0.02 0.02,-0.01 0.01,-0.02 0.01,-0.02 0.01,-0.01 0,-0.02 0.01,-0.02 0,-0.02 0.01,-0.02 0,-0.03 0,-0.02 0,-0.02 c 0,-0.15 -0.04,-0.39 -0.11,-0.64 l -1.22,-4.39 c -0.18,-0.58 -0.25,-0.64 -0.81,-0.74 v -0.16 h 2.52 l -0.1,0.3 c -0.46,0 -0.65,0.11 -0.65,0.37 0,0.13 0.05,0.35 0.22,0.94 l 1.2,4.3 c 0.06,0.21 0.21,0.28 0.61,0.28 0.57,0 1.07,-0.13 1.39,-0.36 0.48,-0.36 0.75,-0.99 0.75,-1.77 0,-1.08 -0.42,-2.19 -1.09,-2.86 -0.59,-0.6 -1.4,-0.9 -2.43,-0.9 l 0.1,-0.3 c 1.16,0 2.23,0.31 2.99,0.87 0.97,0.7 1.54,1.8 1.54,2.95 0,1.63 -1.14,2.67 -2.91,2.67 h -2.77 z"
         id="path4224" /><path
         style="fill:#000000;stroke-width:0"
         inkscape:connector-curvature="0"
         d="m 232.9,710.33 -1.25,-0.63 v -0.1 c 0.08,0.04 0.16,0.06 0.19,0.08 0.12,0.05 0.24,0.08 0.31,0.08 0.14,0 0.21,-0.11 0.21,-0.33 v -3.15 c 0,-0.23 -0.06,-0.39 -0.17,-0.45 -0.1,-0.07 -0.2,-0.09 -0.49,-0.1 v -0.1 h 1.92 v 0.1 c -0.55,0.01 -0.66,0.08 -0.66,0.42 v 4.17 z"
         id="path4226" /></g>    <path
       sodipodi:nodetypes="cc"
       style="fill:none;stroke:#000000;stroke-width:1.20000005000000010;stroke-linecap:round;stroke-linejoin:miter;stroke-miterlimit:4;stroke-opacity:1;stroke-dasharray:none"
       d="m 295,912.36092 -20,0"
       id="path4652"
       inkscape:connector-curvature="0" />
    <path
       inkscape:connector-curvature="0"
       id="path4654"
       d="m 291,917.36092 -12,0"
       style="fill:none;stroke:#000000;stroke-width:1.20000005000000010;stroke-linecap:round;stroke-linejoin:miter;stroke-miterlimit:4;stroke-opacity:1;stroke-dasharray:none"
       sodipodi:nodetypes="cc" />
    <path
       sodipodi:nodetypes="cc"
       style="fill:none;stroke:#000000;stroke-width:1.20000005000000010;stroke-linecap:round;stroke-linejoin:miter;stroke-miterlimit:4;stroke-opacity:1;stroke-dasharray:none"
       d="m 288,922.36092 -6,0"
       id="path4656"
       inkscape:connector-curvature="0" />
    <path
       inkscape:connector-curvature="0"
       id="path4974"
       d="m 93.907262,842.36092 -75.715414,0"
       style="fill:none;stroke:#000000;stroke-width:1;stroke-linecap:butt;stroke-linejoin:miter;stroke-miterlimit:4;stroke-opacity:1;stroke-dasharray:3,3;stroke-dashoffset:0"
       sodipodi:nodetypes="cc" />
    <text
       sodipodi:linespacing="100%"
       id="text4976"
       y="846.14386"
       x="12.746367"
       style="font-size:12px;font-style:normal;font-variant:normal;font-weight:normal;font-stretch:normal;text-align:center;line-height:100%;letter-spacing:0px;word-spacing:0px;text-anchor:middle;fill:#000000;fill-opacity:1;stroke:none;font-family:LMRoman12;-inkscape-font-specification:LMRoman12"
       xml:space="preserve"><tspan
         y="846.14386"
         x="12.746367"
         id="tspan4978"
         sodipodi:role="line">0</tspan></text>
    <path
       sodipodi:nodetypes="cccccccc"
       inkscape:connector-curvature="0"
       id="path3113"
       d="m 380,912.36092 0,-80 25,0 0,79.99999 25,-9.99999 0,-70 25,0 0,10.00002"
       style="fill:none;stroke:#000000;stroke-width:1.5;stroke-linecap:butt;stroke-linejoin:miter;stroke-miterlimit:4;stroke-opacity:1;stroke-dasharray:none" />
    <text
       xml:space="preserve"
       style="font-size:12px;font-style:normal;font-variant:normal;font-weight:normal;font-stretch:normal;text-align:center;line-height:100%;letter-spacing:0px;word-spacing:0px;text-anchor:middle;fill:#000000;fill-opacity:1;stroke:none;font-family:LMRoman12;-inkscape-font-specification:LMRoman12"
       x="361.60406"
       y="846.71716"
       id="text3129"
       sodipodi:linespacing="100%"><tspan
         sodipodi:role="line"
         id="tspan3131"
         x="361.60406"
         y="846.71716">0</tspan></text>
    <path
       inkscape:connector-curvature="0"
       id="path3149"
       d="m 426.00342,821.82234 -17.98995,8.9045"
       style="fill:none;stroke:#000000;stroke-width:0.75;stroke-linecap:butt;stroke-linejoin:miter;stroke-miterlimit:4;stroke-opacity:1;stroke-dasharray:none;marker-end:url(#Arrow1Mend-62)"
       sodipodi:nodetypes="cc" />
    <path
       sodipodi:nodetypes="cc"
       style="fill:none;stroke:#000000;stroke-width:0.75;stroke-linecap:butt;stroke-linejoin:miter;stroke-miterlimit:4;stroke-opacity:1;stroke-dasharray:none;marker-end:url(#Arrow1Mend-62)"
       d="m 442.5692,932.23551 0,-18.3784"
       id="path3943"
       inkscape:connector-curvature="0" />
    <path
       style="fill:none;stroke:#000000;stroke-width:1.20000017;stroke-linecap:butt;stroke-linejoin:round;stroke-miterlimit:4;stroke-opacity:1;stroke-dasharray:none"
       d="m 265,797.36092 -0.009,15 0.009,6.64055 -5.17454,2.26435 10.61316,4.56222 -10.61316,4.5622 10.61316,4.56221 -10.61316,4.56221 10.61316,4.56221 -10.71267,4.58529 10.47271,4.56221 -10.3732,4.56221 10.61316,4.56221 -5.43862,2.2748 0,2.73733 0,25 -6.7832,0"
       id="path4543"
       inkscape:connector-curvature="0"
       sodipodi:nodetypes="ccccccccccccccccc" />
    <path
       sodipodi:nodetypes="cc"
       style="fill:none;stroke:#000000;stroke-width:1.2;stroke-linecap:butt;stroke-linejoin:miter;stroke-miterlimit:4;stroke-opacity:1;stroke-dasharray:none"
       d="m 230,797.36092 110,0"
       id="path3076"
       inkscape:connector-curvature="0" />
    <g
       style="font-style:normal;font-variant:normal;font-weight:normal;font-stretch:normal;letter-spacing:normal;word-spacing:normal;text-anchor:start;fill:none;stroke:#000000;stroke-width:1;stroke-linecap:butt;stroke-linejoin:miter;stroke-miterlimit:10.43299961;stroke-opacity:1;stroke-dasharray:none;stroke-dashoffset:0"
       ns0:preamble="/home/sriranga/Desktop/MCT/package.tex"
       ns0:text="$v_i$"
       word-spacing="normal"
       letter-spacing="normal"
       font-size-adjust="none"
       font-stretch="normal"
       font-weight="normal"
       font-variant="normal"
       font-style="normal"
       stroke-miterlimit="10.433"
       xml:space="preserve"
       transform="matrix(1.2,0,0,-1.2,-70.925369,1693.2578)"
       id="g4145"><path
         style="fill:#000000;stroke-width:0"
         inkscape:connector-curvature="0"
         id="path4147"
         d="m 223.64,711.13 0.02,0 0.02,0 0.02,0 0.02,0 0.02,0 0.01,0.01 0.02,0 0.02,0 0.04,0 0.01,0 0.02,0 0.02,0 0.02,0 0.02,0 0.02,0 c 0.39,0 0.49,-0.17 0.63,-1.09 0.1,-0.68 0.22,-2.18 0.22,-2.76 0,-0.27 0.01,-0.34 0.09,-0.34 0.24,0 1.17,1.05 2.18,2.46 0.35,0.5 0.61,1.14 0.61,1.51 0,0.32 -0.26,0.59 -0.56,0.59 -0.22,0 -0.37,-0.13 -0.37,-0.34 0,-0.16 0.06,-0.28 0.24,-0.44 0.13,-0.12 0.18,-0.2 0.18,-0.3 0,-0.45 -0.65,-1.56 -1.36,-2.29 l -0.31,-0.32 c -0.07,1.4 -0.13,1.92 -0.26,2.65 -0.2,1.02 -0.2,1.04 -0.29,1.04 -0.04,0 -0.12,-0.01 -0.2,-0.04 -0.17,-0.05 -0.72,-0.15 -1.1,-0.21 z" /><path
         style="fill:#000000;stroke-width:0"
         inkscape:connector-curvature="0"
         id="path4149"
         d="m 229.4,706.42 -0.01,-0.02 -0.02,-0.02 -0.01,-0.01 -0.02,-0.02 -0.01,-0.02 -0.01,-0.01 -0.01,-0.02 -0.01,-0.01 -0.01,-0.02 -0.01,-0.01 -0.01,-0.01 -0.01,-0.02 -0.01,-0.01 -0.01,-0.01 -0.01,-0.01 -0.01,-0.01 0,-0.01 -0.01,-0.01 -0.01,-0.01 -0.01,0 0,-0.01 -0.01,-0.01 -0.01,-0.01 -0.02,-0.02 -0.01,-0.01 -0.01,-0.02 -0.01,-0.01 c -0.12,-0.12 -0.23,-0.19 -0.29,-0.19 -0.06,0 -0.11,0.06 -0.11,0.11 0,0.06 0.02,0.17 0.07,0.3 0,0.02 0.02,0.07 0.03,0.13 v 0.01 l 0.01,0.02 0.61,2.23 -0.02,0.02 c -0.7,-0.13 -0.84,-0.16 -1.11,-0.18 v -0.11 c 0.37,0 0.44,-0.02 0.44,-0.16 0,-0.06 -0.02,-0.17 -0.07,-0.31 l -0.33,-1.23 c -0.11,-0.41 -0.15,-0.62 -0.15,-0.76 0,-0.26 0.11,-0.4 0.32,-0.4 0.32,0 0.58,0.21 0.97,0.8 z" /><path
         style="fill:#000000;stroke-width:0"
         inkscape:connector-curvature="0"
         id="path4151"
         d="m 229.35,710.18 -0.02,0 -0.02,0 -0.02,-0.01 -0.01,0 -0.02,0 -0.01,-0.01 -0.02,0 -0.01,-0.01 -0.02,-0.01 -0.01,0 -0.02,-0.01 -0.01,-0.01 -0.01,-0.01 -0.02,-0.01 -0.01,-0.02 -0.01,-0.01 -0.01,-0.01 -0.01,-0.01 -0.01,-0.02 -0.01,-0.01 -0.01,-0.02 0,-0.01 -0.01,-0.02 -0.01,-0.01 0,-0.02 -0.01,-0.02 0,-0.02 0,-0.01 -0.01,-0.02 0,-0.02 0,-0.02 0,-0.02 c 0,-0.22 0.13,-0.37 0.33,-0.37 0.18,0 0.35,0.16 0.35,0.36 0,0.2 -0.17,0.38 -0.35,0.38 z" /></g>    <g
       id="g4638"
       transform="matrix(1.2,0,0,-1.2,-70.229676,1657.2469)"
       xml:space="preserve"
       stroke-miterlimit="10.433"
       font-style="normal"
       font-variant="normal"
       font-weight="normal"
       font-stretch="normal"
       font-size-adjust="none"
       letter-spacing="normal"
       word-spacing="normal"
       ns0:text="$+$"
       ns0:preamble="/home/sriranga/Desktop/MCT/package.tex"
       style="font-style:normal;font-variant:normal;font-weight:normal;font-stretch:normal;letter-spacing:normal;word-spacing:normal;text-anchor:start;fill:none;stroke:#000000;stroke-width:1;stroke-linecap:butt;stroke-linejoin:miter;stroke-miterlimit:10.43299961;stroke-opacity:1;stroke-dasharray:none;stroke-dashoffset:0"><polygon
         points="224.05,709.96 224.05,709.4 226.32,709.4 226.32,707.12 226.87,707.12 226.87,709.4 229.14,709.4 229.14,709.96 226.87,709.96 226.87,712.2 226.32,712.2 226.32,709.96 "
         id="polygon4640"
         style="fill:#000000;stroke-width:0" /></g>    <g
       style="font-style:normal;font-variant:normal;font-weight:normal;font-stretch:normal;letter-spacing:normal;word-spacing:normal;text-anchor:start;fill:none;stroke:#000000;stroke-width:1;stroke-linecap:butt;stroke-linejoin:miter;stroke-miterlimit:10.43299961;stroke-opacity:1;stroke-dasharray:none;stroke-dashoffset:0"
       ns0:preamble="/home/sriranga/Desktop/MCT/package.tex"
       ns0:text="$-$"
       word-spacing="normal"
       letter-spacing="normal"
       font-size-adjust="none"
       font-stretch="normal"
       font-weight="normal"
       font-variant="normal"
       font-style="normal"
       stroke-miterlimit="10.433"
       xml:space="preserve"
       transform="matrix(1.2,0,0,-1.2,-69.610186,1736.8681)"
       id="g4642"><polygon
         id="polygon4644"
         points="224.05,709.96 224.05,709.4 229.14,709.4 229.14,709.96 "
         style="fill:#000000;stroke-width:0" /></g>    <g
       style="font-style:normal;font-variant:normal;font-weight:normal;font-stretch:normal;letter-spacing:normal;word-spacing:normal;text-anchor:start;fill:none;stroke:#000000;stroke-width:1;stroke-linecap:butt;stroke-linejoin:miter;stroke-miterlimit:10.43299961;stroke-opacity:1;stroke-dasharray:none;stroke-dashoffset:0"
       ns0:preamble="/home/sriranga/Desktop/MCT/package.tex"
       ns0:text="$+$"
       word-spacing="normal"
       letter-spacing="normal"
       font-size-adjust="none"
       font-stretch="normal"
       font-weight="normal"
       font-variant="normal"
       font-style="normal"
       stroke-miterlimit="10.433"
       xml:space="preserve"
       transform="matrix(1.2,0,0,-1.2,69.345656,1657.2469)"
       id="g5311"><polygon
         style="fill:#000000;stroke-width:0"
         id="polygon5313"
         points="226.87,712.2 226.32,712.2 226.32,709.96 224.05,709.96 224.05,709.4 226.32,709.4 226.32,707.12 226.87,707.12 226.87,709.4 229.14,709.4 229.14,709.96 226.87,709.96 " /></g>    <path
       transform="translate(160,700.53023)"
       d="m 185,96.830688 c 0,1.380712 -1.11929,2.5 -2.5,2.5 -1.38071,0 -2.5,-1.119288 -2.5,-2.5 0,-1.380711 1.11929,-2.5 2.5,-2.5 1.38071,0 2.5,1.119289 2.5,2.5 z"
       sodipodi:ry="2.5"
       sodipodi:rx="2.5"
       sodipodi:cy="96.830688"
       sodipodi:cx="182.5"
       id="path4088"
       style="color:#000000;fill:#ffffff;stroke:#000000;stroke-width:0.80000001;stroke-linecap:square;stroke-linejoin:round;stroke-miterlimit:4;stroke-opacity:1;stroke-dasharray:none;stroke-dashoffset:0;marker:none;visibility:visible;display:inline;overflow:visible;enable-background:accumulate"
       sodipodi:type="arc" />
    <path
       sodipodi:nodetypes="cc"
       style="fill:none;stroke:#000000;stroke-width:1.19999993;stroke-linecap:butt;stroke-linejoin:miter;stroke-miterlimit:4;stroke-opacity:1;stroke-dasharray:none"
       d="m 231.42668,802.3608 c -2,-2.99988 -2.42403,-6.4802 0,-10"
       id="path3086"
       inkscape:connector-curvature="0" />
    <path
       inkscape:connector-curvature="0"
       id="path3088"
       d="m 225,802.3608 0,-10"
       style="fill:none;stroke:#000000;stroke-width:1.19999993;stroke-linecap:butt;stroke-linejoin:miter;stroke-miterlimit:4;stroke-opacity:1;stroke-dasharray:none"
       sodipodi:nodetypes="cc" />
    <g
       style="font-style:normal;font-variant:normal;font-weight:normal;font-stretch:normal;letter-spacing:normal;word-spacing:normal;text-anchor:start;fill:none;stroke:#000000;stroke-width:1;stroke-linecap:butt;stroke-linejoin:miter;stroke-miterlimit:10.43299961;stroke-opacity:1;stroke-dasharray:none;stroke-dashoffset:0"
       ns0:preamble="/home/sriranga/Desktop/MCT/package.tex"
       ns0:text="$C_1$"
       word-spacing="normal"
       letter-spacing="normal"
       font-size-adjust="none"
       font-stretch="normal"
       font-weight="normal"
       font-variant="normal"
       font-style="normal"
       stroke-miterlimit="10.433"
       xml:space="preserve"
       transform="matrix(1.2,0,0,-1.2,-45.924541,1662.765)"
       id="g3492"><path
         id="path3494"
         d="m 229.67,711.74 0.37,1.98 h -0.21 c -0.08,-0.16 -0.18,-0.22 -0.38,-0.22 -0.08,0 -0.2,0.02 -0.41,0.07 -0.44,0.11 -0.84,0.17 -1.16,0.17 -2.12,0 -4.04,-2 -4.04,-4.2 0,-1.52 1.07,-2.59 2.6,-2.59 1.02,0 1.82,0.43 2.71,1.48 l -0.17,0.14 c -0.89,-0.88 -1.47,-1.18 -2.28,-1.18 -1.11,0 -1.75,0.76 -1.75,2.04 0,1.18 0.48,2.38 1.26,3.19 0.47,0.48 1.1,0.76 1.76,0.76 0.91,0 1.42,-0.53 1.52,-1.61 z"
         inkscape:connector-curvature="0"
         style="fill:#000000;stroke-width:0" /><path
         id="path3496"
         d="m 232.1,710.33 -1.25,-0.63 v -0.1 c 0.08,0.04 0.16,0.06 0.19,0.08 0.12,0.05 0.24,0.08 0.31,0.08 0.15,0 0.21,-0.11 0.21,-0.33 v -3.15 c 0,-0.23 -0.05,-0.39 -0.17,-0.45 -0.1,-0.07 -0.2,-0.09 -0.49,-0.1 v -0.1 h 1.92 v 0.1 c -0.55,0.01 -0.66,0.08 -0.66,0.42 v 4.17 z"
         inkscape:connector-curvature="0"
         style="fill:#000000;stroke-width:0" /></g>    <path
       transform="translate(30,0)"
       sodipodi:type="arc"
       id="path4952"
       style="fill:#000000;stroke:none"
       sodipodi:cx="275"
       sodipodi:cy="892.3609"
       sodipodi:rx="2.5"
       sodipodi:ry="2.5"
       d="m 277.5,892.3609 c 0,1.38071 -1.11929,2.5 -2.5,2.5 -1.38071,0 -2.5,-1.11929 -2.5,-2.5 0,-1.38071 1.11929,-2.5 2.5,-2.5 1.38071,0 2.5,1.11929 2.5,2.5 z" />
    <path
       transform="translate(60,0)"
       sodipodi:type="arc"
       id="path4954"
       style="fill:#000000;stroke:none"
       sodipodi:cx="225"
       sodipodi:cy="892.3609"
       sodipodi:rx="2.5"
       sodipodi:ry="2.5"
       d="m 227.5,892.3609 c 0,1.38071 -1.11929,2.5 -2.5,2.5 -1.38071,0 -2.5,-1.11929 -2.5,-2.5 0,-1.38071 1.11929,-2.5 2.5,-2.5 1.38071,0 2.5,1.11929 2.5,2.5 z" />
    <path
       transform="translate(30,0)"
       sodipodi:type="arc"
       id="path4956"
       style="fill:#000000;stroke:none"
       sodipodi:cx="275"
       sodipodi:cy="797.3609"
       sodipodi:rx="2.5"
       sodipodi:ry="2.5"
       d="m 277.5,797.3609 c 0,1.38071 -1.11929,2.5 -2.5,2.5 -1.38071,0 -2.5,-1.11929 -2.5,-2.5 0,-1.38071 1.11929,-2.5 2.5,-2.5 1.38071,0 2.5,1.11929 2.5,2.5 z" />
    <path
       transform="translate(40,0)"
       sodipodi:type="arc"
       id="path4958"
       style="fill:#000000;stroke:none"
       sodipodi:cx="225"
       sodipodi:cy="797.3609"
       sodipodi:rx="2.5"
       sodipodi:ry="2.5"
       d="m 227.5,797.3609 c 0,1.38071 -1.11929,2.5 -2.5,2.5 -1.38071,0 -2.5,-1.11929 -2.5,-2.5 0,-1.38071 1.11929,-2.5 2.5,-2.5 1.38071,0 2.5,1.11929 2.5,2.5 z" />
    <g
       id="g3229"
       transform="matrix(1.2,0,0,-1.2,-265.12255,1655.6136)"
       xml:space="preserve"
       stroke-miterlimit="10.433"
       font-style="normal"
       font-variant="normal"
       font-weight="normal"
       font-stretch="normal"
       font-size-adjust="none"
       letter-spacing="normal"
       word-spacing="normal"
       ns0:text="$+10V$"
       ns0:preamble="/home/sriranga/Desktop/MCT/package.tex"
       style="font-style:normal;font-variant:normal;font-weight:normal;font-stretch:normal;letter-spacing:normal;word-spacing:normal;text-anchor:start;fill:none;stroke:#000000;stroke-width:1;stroke-linecap:butt;stroke-linejoin:miter;stroke-miterlimit:10.43299961;stroke-opacity:1;stroke-dasharray:none;stroke-dashoffset:0"><polygon
         style="fill:#000000;stroke-width:0"
         points="226.32,707.12 226.87,707.12 226.87,709.4 229.14,709.4 229.14,709.96 226.87,709.96 226.87,712.2 226.32,712.2 226.32,709.96 224.05,709.96 224.05,709.4 226.32,709.4 "
         id="polygon3231" /><path
         style="fill:#000000;stroke-width:0"
         inkscape:connector-curvature="0"
         d="m 232.66,713.84 -1.79,-0.9 v -0.14 c 0.12,0.05 0.23,0.09 0.27,0.11 0.18,0.07 0.35,0.11 0.45,0.11 0.21,0 0.3,-0.15 0.3,-0.47 v -4.5 c 0,-0.33 -0.08,-0.56 -0.24,-0.65 -0.15,-0.09 -0.29,-0.12 -0.71,-0.13 v -0.15 h 2.75 v 0.15 c -0.79,0.01 -0.95,0.11 -0.95,0.59 v 5.96 z"
         id="path3233" /><path
         style="fill:#000000;stroke-width:0"
         inkscape:connector-curvature="0"
         d="m 237.28,713.84 -0.05,0 -0.06,0 -0.04,0 -0.05,-0.01 -0.05,0 -0.05,-0.01 -0.05,0 -0.04,-0.01 -0.05,-0.01 -0.04,-0.01 -0.05,-0.01 -0.04,-0.01 -0.04,-0.01 -0.04,-0.02 -0.05,-0.01 -0.04,-0.02 -0.04,-0.01 -0.04,-0.02 -0.04,-0.02 -0.04,-0.02 -0.04,-0.02 -0.03,-0.02 -0.04,-0.03 -0.04,-0.02 -0.04,-0.02 -0.03,-0.03 -0.04,-0.03 -0.04,-0.02 -0.03,-0.03 -0.04,-0.03 -0.03,-0.03 -0.04,-0.04 c -0.57,-0.55 -0.95,-1.7 -0.95,-2.86 0,-1.08 0.33,-2.24 0.79,-2.8 0.37,-0.44 0.88,-0.67 1.46,-0.67 v 0.25 c -0.86,0 -1.3,1.07 -1.3,3.13 0,2.11 0.45,3.21 1.31,3.21 h 0 c 0.83,0 1.28,-1.12 1.28,-3.2 0,-2.07 -0.44,-3.14 -1.29,-3.14 v -0.25 c 0.5,0 0.93,0.17 1.29,0.51 0.58,0.55 0.96,1.7 0.96,2.9 0,2.04 -0.91,3.44 -2.21,3.44 z"
         id="path3235" /><path
         style="fill:#000000;stroke-width:0"
         inkscape:connector-curvature="0"
         d="m 246.58,713.61 h -1.85 v -0.16 c 0.44,-0.05 0.62,-0.15 0.62,-0.34 0,-0.18 -0.19,-0.61 -0.51,-1.18 l -2.05,-3.53 -0.66,4.4 c -0.01,0.05 -0.01,0.09 -0.01,0.15 0,0.33 0.14,0.43 0.76,0.5 v 0.16 h -2.39 v -0.16 c 0.55,-0.07 0.57,-0.1 0.78,-1.34 l 0.85,-5.16 h 0.19 l 3.71,6.1 c 0.17,0.27 0.33,0.39 0.56,0.4 z"
         id="path3237" /></g>    <g
       style="font-style:normal;font-variant:normal;font-weight:normal;font-stretch:normal;letter-spacing:normal;word-spacing:normal;text-anchor:start;fill:none;stroke:#000000;stroke-width:1;stroke-linecap:butt;stroke-linejoin:miter;stroke-miterlimit:10.43299961;stroke-opacity:1;stroke-dasharray:none;stroke-dashoffset:0"
       ns0:preamble="/home/sriranga/Desktop/MCT/package.tex"
       ns0:text="$-10V$"
       word-spacing="normal"
       letter-spacing="normal"
       font-size-adjust="none"
       font-stretch="normal"
       font-weight="normal"
       font-variant="normal"
       font-style="normal"
       stroke-miterlimit="10.433"
       xml:space="preserve"
       transform="matrix(1.2,0,0,-1.2,-241.37655,1734.8694)"
       id="g3494"><polygon
         style="fill:#000000;stroke-width:0"
         id="polygon3496"
         points="229.14,709.96 224.05,709.96 224.05,709.4 229.14,709.4 " /><path
         style="fill:#000000;stroke-width:0"
         inkscape:connector-curvature="0"
         id="path3498"
         d="m 232.66,713.84 -1.79,-0.9 v -0.14 c 0.12,0.05 0.23,0.09 0.27,0.11 0.18,0.07 0.35,0.11 0.45,0.11 0.21,0 0.3,-0.15 0.3,-0.47 v -4.5 c 0,-0.33 -0.08,-0.56 -0.24,-0.65 -0.15,-0.09 -0.29,-0.12 -0.71,-0.13 v -0.15 h 2.75 v 0.15 c -0.79,0.01 -0.95,0.11 -0.95,0.59 v 5.96 z" /><path
         style="fill:#000000;stroke-width:0"
         inkscape:connector-curvature="0"
         id="path3500"
         d="m 237.28,713.84 -0.05,0 -0.06,0 -0.04,0 -0.05,-0.01 -0.05,0 -0.05,-0.01 -0.05,0 -0.04,-0.01 -0.05,-0.01 -0.04,-0.01 -0.05,-0.01 -0.04,-0.01 -0.04,-0.01 -0.04,-0.02 -0.05,-0.01 -0.04,-0.02 -0.04,-0.01 -0.04,-0.02 -0.04,-0.02 -0.04,-0.02 -0.04,-0.02 -0.03,-0.02 -0.04,-0.03 -0.04,-0.02 -0.04,-0.02 -0.03,-0.03 -0.04,-0.03 -0.04,-0.02 -0.03,-0.03 -0.04,-0.03 -0.03,-0.03 -0.04,-0.04 c -0.57,-0.55 -0.95,-1.7 -0.95,-2.86 0,-1.08 0.33,-2.24 0.79,-2.8 0.37,-0.44 0.88,-0.67 1.46,-0.67 v 0.25 c -0.86,0 -1.3,1.07 -1.3,3.13 0,2.11 0.45,3.21 1.31,3.21 h 0 c 0.83,0 1.28,-1.12 1.28,-3.2 0,-2.07 -0.44,-3.14 -1.29,-3.14 v -0.25 c 0.5,0 0.93,0.17 1.29,0.51 0.58,0.55 0.96,1.7 0.96,2.9 0,2.04 -0.91,3.44 -2.21,3.44 z" /><path
         style="fill:#000000;stroke-width:0"
         inkscape:connector-curvature="0"
         id="path3502"
         d="m 246.58,713.61 h -1.85 v -0.16 c 0.44,-0.05 0.62,-0.15 0.62,-0.34 0,-0.18 -0.19,-0.61 -0.51,-1.18 l -2.05,-3.53 -0.66,4.4 c -0.01,0.05 -0.01,0.09 -0.01,0.15 0,0.33 0.14,0.43 0.76,0.5 v 0.16 h -2.39 v -0.16 c 0.55,-0.07 0.57,-0.1 0.78,-1.34 l 0.85,-5.16 h 0.19 l 3.71,6.1 c 0.17,0.27 0.33,0.39 0.56,0.4 z" /></g>    <path
       sodipodi:nodetypes="cc"
       style="fill:none;stroke:#000000;stroke-width:1;stroke-linecap:butt;stroke-linejoin:miter;stroke-miterlimit:4;stroke-opacity:1;stroke-dasharray:3,3;stroke-dashoffset:0"
       d="m 470.00001,842.36092 -104.99999,0"
       id="path3869"
       inkscape:connector-curvature="0" />
    <g
       style="font-style:normal;font-variant:normal;font-weight:normal;font-stretch:normal;letter-spacing:normal;word-spacing:normal;text-anchor:start;fill:none;stroke:#000000;stroke-width:1;stroke-linecap:butt;stroke-linejoin:miter;stroke-miterlimit:10.43299961;stroke-opacity:1;stroke-dasharray:none;stroke-dashoffset:0"
       ns0:preamble="/home/sriranga/Desktop/MCT/package.tex"
       ns0:text="$0.7V$"
       word-spacing="normal"
       letter-spacing="normal"
       font-size-adjust="none"
       font-stretch="normal"
       font-weight="normal"
       font-variant="normal"
       font-style="normal"
       stroke-miterlimit="10.433"
       xml:space="preserve"
       transform="matrix(1.2,0,0,-1.2,159.06995,1673.0406)"
       id="g3972"><path
         style="fill:#000000;stroke-width:0"
         inkscape:connector-curvature="0"
         id="path3974"
         d="m 225.96,713.84 -0.05,0 -0.05,0 -0.05,0 -0.05,-0.01 -0.05,0 -0.05,-0.01 -0.04,0 -0.05,-0.01 -0.04,-0.01 -0.05,-0.01 -0.04,-0.01 -0.05,-0.01 -0.04,-0.01 -0.04,-0.02 -0.04,-0.01 -0.04,-0.02 -0.05,-0.01 -0.04,-0.02 -0.04,-0.02 -0.03,-0.02 -0.04,-0.02 -0.04,-0.02 -0.04,-0.03 -0.04,-0.02 -0.03,-0.02 -0.04,-0.03 -0.04,-0.03 -0.03,-0.02 -0.04,-0.03 -0.03,-0.03 -0.04,-0.03 -0.03,-0.04 c -0.58,-0.55 -0.96,-1.7 -0.96,-2.86 0,-1.08 0.33,-2.24 0.8,-2.8 0.37,-0.44 0.87,-0.67 1.45,-0.67 v 0.25 c -0.86,0 -1.29,1.07 -1.29,3.13 0,2.11 0.44,3.21 1.3,3.21 h 0 c 0.83,0 1.28,-1.12 1.28,-3.2 0,-2.07 -0.44,-3.14 -1.29,-3.14 v -0.25 c 0.51,0 0.93,0.17 1.29,0.51 0.58,0.55 0.96,1.7 0.96,2.9 0,2.04 -0.91,3.44 -2.21,3.44 z" /><path
         style="fill:#000000;stroke-width:0"
         inkscape:connector-curvature="0"
         id="path3976"
         d="m 230.21,707.55 0,0.03 0,0.03 0,0.03 -0.01,0.02 0,0.03 -0.01,0.03 -0.01,0.02 -0.01,0.03 -0.01,0.03 -0.02,0.02 -0.01,0.02 -0.01,0.03 -0.02,0.02 -0.02,0.02 -0.01,0.02 -0.02,0.02 -0.02,0.02 -0.02,0.02 -0.02,0.01 -0.03,0.02 -0.02,0.01 -0.02,0.02 -0.03,0.01 -0.02,0.01 -0.03,0.01 -0.02,0.01 -0.03,0.01 -0.02,0.01 -0.03,0 -0.03,0.01 -0.03,0 -0.02,0 c -0.3,0 -0.55,-0.25 -0.55,-0.57 0,-0.38 0.34,-0.53 0.55,-0.53 0.21,0 0.55,0.16 0.55,0.53 z" /><path
         style="fill:#000000;stroke-width:0"
         inkscape:connector-curvature="0"
         id="path3978"
         d="m 235.37,713.7 h -3.68 l -0.59,-1.46 0.17,-0.08 c 0.43,0.68 0.61,0.81 1.16,0.81 h 2.16 l -1.97,-5.92 h 0.64 l 2.11,6.49 z" /><path
         style="fill:#000000;stroke-width:0"
         inkscape:connector-curvature="0"
         id="path3980"
         d="m 242.73,713.61 h -1.85 v -0.16 c 0.45,-0.05 0.63,-0.15 0.63,-0.34 0,-0.18 -0.19,-0.61 -0.52,-1.18 l -2.05,-3.53 -0.66,4.4 c -0.01,0.05 -0.01,0.09 -0.01,0.15 0,0.33 0.14,0.43 0.77,0.5 v 0.16 h -2.4 v -0.16 c 0.56,-0.07 0.58,-0.1 0.79,-1.34 l 0.84,-5.16 h 0.19 l 3.71,6.1 c 0.17,0.27 0.33,0.39 0.56,0.4 z" /></g>    <path
       sodipodi:nodetypes="cc"
       style="fill:none;stroke:#000000;stroke-width:0.80500001;stroke-linecap:butt;stroke-linejoin:miter;stroke-miterlimit:4;stroke-opacity:1;stroke-dasharray:none"
       d="m 380,937.36092 0,-20"
       id="path4652-3"
       inkscape:connector-curvature="0" />
    <path
       inkscape:connector-curvature="0"
       id="path5166"
       d="m 430,937.36092 0,-20"
       style="fill:none;stroke:#000000;stroke-width:0.80500001;stroke-linecap:butt;stroke-linejoin:miter;stroke-miterlimit:4;stroke-opacity:1;stroke-dasharray:none"
       sodipodi:nodetypes="cc" />
    <path
       inkscape:connector-curvature="0"
       id="path5168"
       d="m 400,927.36092 -19,0"
       style="fill:none;stroke:#000000;stroke-width:0.75;stroke-linecap:butt;stroke-linejoin:miter;stroke-miterlimit:4;stroke-opacity:1;stroke-dasharray:none;marker-end:url(#Arrow1Mend-62)"
       sodipodi:nodetypes="cc" />
    <path
       sodipodi:nodetypes="cc"
       style="fill:none;stroke:#000000;stroke-width:0.75;stroke-linecap:butt;stroke-linejoin:miter;stroke-miterlimit:4;stroke-opacity:1;stroke-dasharray:none;marker-end:url(#Arrow1Mend-62)"
       d="m 410,927.36092 19,0"
       id="path5170"
       inkscape:connector-curvature="0" />
    <g
       style="font-style:normal;font-variant:normal;font-weight:normal;font-stretch:normal;letter-spacing:normal;word-spacing:normal;text-anchor:start;fill:none;stroke:#000000;stroke-width:1;stroke-linecap:butt;stroke-linejoin:miter;stroke-miterlimit:10.43299961;stroke-opacity:1;stroke-dasharray:none;stroke-dashoffset:0"
       ns0:preamble="/home/sriranga/Desktop/MCT/package.tex"
       ns0:text="$T$"
       word-spacing="normal"
       letter-spacing="normal"
       font-size-adjust="none"
       font-stretch="normal"
       font-weight="normal"
       font-variant="normal"
       font-style="normal"
       stroke-miterlimit="10.433"
       xml:space="preserve"
       transform="matrix(1.2,0,0,-1.2,134.12389,1779.4829)"
       id="g5286"><path
         id="path5288"
         d="m 229.73,713.61 h -5.29 l -0.42,-1.53 0.18,-0.04 c 0.53,1.07 0.84,1.24 2.37,1.22 l -1.44,-5.24 c -0.16,-0.53 -0.39,-0.69 -1.05,-0.74 v -0.16 h 2.88 v 0.16 c -0.17,0.01 -0.31,0.03 -0.37,0.03 -0.4,0.03 -0.52,0.12 -0.52,0.42 0,0.13 0.03,0.25 0.12,0.59 l 1.38,4.94 h 0.55 c 0.71,0 1.03,-0.24 1.03,-0.8 0,-0.13 -0.01,-0.28 -0.03,-0.45 l 0.17,-0.02 z"
         inkscape:connector-curvature="0"
         style="fill:#000000;stroke-width:0" /></g>    <g
       style="font-style:normal;font-variant:normal;font-weight:normal;font-stretch:normal;letter-spacing:normal;word-spacing:normal;text-anchor:start;fill:none;stroke:#000000;stroke-width:1;stroke-linecap:butt;stroke-linejoin:miter;stroke-miterlimit:10.43299961;stroke-opacity:1;stroke-dasharray:none;stroke-dashoffset:0"
       ns0:preamble="/home/sriranga/Desktop/MCT/package.tex"
       ns0:text="$t$"
       word-spacing="normal"
       letter-spacing="normal"
       font-size-adjust="none"
       font-stretch="normal"
       font-weight="normal"
       font-variant="normal"
       font-style="normal"
       stroke-miterlimit="10.433"
       xml:space="preserve"
       transform="matrix(1.2,0,0,-1.2,147.77846,1734.933)"
       id="g5808"><path
         id="path5810"
         d="m 226.38,711.38 h -0.8 l 0.28,1.02 c 0.01,0.02 0.01,0.04 0.01,0.05 0,0.07 -0.03,0.1 -0.08,0.1 -0.06,0 -0.09,-0.01 -0.15,-0.09 -0.39,-0.51 -1,-1 -1.32,-1.09 -0.25,-0.08 -0.32,-0.14 -0.32,-0.25 0,-0.01 0,-0.03 0.01,-0.06 h 0.73 l -0.71,-2.73 c -0.02,-0.09 -0.03,-0.12 -0.06,-0.21 -0.09,-0.3 -0.17,-0.65 -0.17,-0.73 0,-0.22 0.21,-0.37 0.48,-0.37 0.46,0 0.78,0.27 1.41,1.2 l -0.13,0.07 c -0.49,-0.63 -0.65,-0.79 -0.8,-0.79 -0.09,0 -0.15,0.08 -0.15,0.2 0,0.01 0,0.02 0.01,0.05 l 0.87,3.31 h 0.84 z"
         inkscape:connector-curvature="0"
         style="fill:#000000;stroke-width:0" /></g>    <path
       inkscape:connector-curvature="0"
       id="path5917"
       d="m 409.79016,888.12073 19,0"
       style="fill:none;stroke:#000000;stroke-width:0.75;stroke-linecap:butt;stroke-linejoin:miter;stroke-miterlimit:4;stroke-opacity:1;stroke-dasharray:none;marker-end:url(#Arrow1Mend-62)"
       sodipodi:nodetypes="cc" />
    <path
       sodipodi:nodetypes="cc"
       style="fill:none;stroke:#000000;stroke-width:0.75;stroke-linecap:butt;stroke-linejoin:miter;stroke-miterlimit:4;stroke-opacity:1;stroke-dasharray:none;marker-end:url(#Arrow1Mend-62)"
       d="m 425.1971,888.12073 -19,0"
       id="path5919"
       inkscape:connector-curvature="0" />
    <path
       d="m 262.5,892.3609 c 0,1.38071 -1.11929,2.5 -2.5,2.5 -1.38071,0 -2.5,-1.11929 -2.5,-2.5 0,-1.38071 1.11929,-2.5 2.5,-2.5 1.38071,0 2.5,1.11929 2.5,2.5 z"
       sodipodi:ry="2.5"
       sodipodi:rx="2.5"
       sodipodi:cy="892.3609"
       sodipodi:cx="260"
       style="fill:#000000;stroke:none"
       id="path6184"
       sodipodi:type="arc"
       transform="translate(5,0)" />
    <path
       sodipodi:nodetypes="ccccccccccccccccc"
       inkscape:connector-curvature="0"
       id="path6186"
       d="m 225,797.48533 -36.97068,0.009 -6.64055,-0.009 -2.26435,4.87559 -4.56222,-10 -4.5622,10 -4.56221,-10 -4.56221,10 -4.56221,-10 -4.58529,10.09376 -4.56221,-9.86767 -4.56221,9.77391 -4.56221,-10 -2.2748,5.12441 -2.73733,0 -8.02932,0 0,39.87559"
       style="fill:none;stroke:#000000;stroke-width:1.2;stroke-linecap:butt;stroke-linejoin:round;stroke-miterlimit:4;stroke-opacity:1;stroke-dasharray:none" />
    <path
       sodipodi:type="arc"
       style="color:#000000;fill:#ffffff;stroke:#000000;stroke-width:0.80000001;stroke-linecap:square;stroke-linejoin:round;stroke-miterlimit:4;stroke-opacity:1;stroke-dasharray:none;stroke-dashoffset:0;marker:none;visibility:visible;display:inline;overflow:visible;enable-background:accumulate"
       id="path4086"
       sodipodi:cx="182.5"
       sodipodi:cy="96.830688"
       sodipodi:rx="2.5"
       sodipodi:ry="2.5"
       d="m 185,96.830688 c 0,1.380712 -1.11929,2.5 -2.5,2.5 -1.38071,0 -2.5,-1.119288 -2.5,-2.5 0,-1.380711 1.11929,-2.5 2.5,-2.5 1.38071,0 2.5,1.119289 2.5,2.5 z"
       transform="translate(20,700.53023)" />
    <path
       transform="translate(20,795.53023)"
       d="m 185,96.830688 c 0,1.380712 -1.11929,2.5 -2.5,2.5 -1.38071,0 -2.5,-1.119288 -2.5,-2.5 0,-1.380711 1.11929,-2.5 2.5,-2.5 1.38071,0 2.5,1.119289 2.5,2.5 z"
       sodipodi:ry="2.5"
       sodipodi:rx="2.5"
       sodipodi:cy="96.830688"
       sodipodi:cx="182.5"
       id="path6188"
       style="color:#000000;fill:#ffffff;stroke:#000000;stroke-width:0.80000001;stroke-linecap:square;stroke-linejoin:round;stroke-miterlimit:4;stroke-opacity:1;stroke-dasharray:none;stroke-dashoffset:0;marker:none;visibility:visible;display:inline;overflow:visible;enable-background:accumulate"
       sodipodi:type="arc" />
    <path
       d="m 50,134.33069 a 10,10 0 1 1 -20,0 10,10 0 1 1 20,0 z"
       sodipodi:ry="10"
       sodipodi:rx="10"
       sodipodi:cy="134.33069"
       sodipodi:cx="40"
       id="path7464"
       style="fill:none;stroke:#000000;stroke-width:1;stroke-linecap:round;stroke-linejoin:round;stroke-miterlimit:4;stroke-opacity:1;stroke-dasharray:none;stroke-dashoffset:0"
       sodipodi:type="arc"
       transform="translate(84.9791,713.03023)" />
    <g
       id="g3078-4-2"
       transform="matrix(-1.2,0,0,-1.2,388.15148,1715.5618)"
       xml:space="preserve"
       stroke-miterlimit="10.433"
       font-style="normal"
       font-variant="normal"
       font-weight="normal"
       font-stretch="normal"
       font-size-adjust="none"
       letter-spacing="normal"
       word-spacing="normal"
       ns0:text="$-$"
       ns0:preamble="/home/sriranga/Desktop/MCT/package.tex"
       style="font-style:normal;font-variant:normal;font-weight:normal;font-stretch:normal;letter-spacing:normal;word-spacing:normal;text-anchor:start;fill:none;stroke:#000000;stroke-width:1;stroke-linecap:butt;stroke-linejoin:miter;stroke-miterlimit:10.43299961;stroke-opacity:1;stroke-dasharray:none;stroke-dashoffset:0"><polygon
         style="fill:#000000;stroke-width:0"
         points="224.05,709.96 224.05,709.4 229.14,709.4 229.14,709.96 "
         id="polygon3080-3-8" /></g>    <g
       style="font-style:normal;font-variant:normal;font-weight:normal;font-stretch:normal;letter-spacing:normal;word-spacing:normal;text-anchor:start;fill:none;stroke:#000000;stroke-width:1;stroke-linecap:butt;stroke-linejoin:miter;stroke-miterlimit:10.43299961;stroke-opacity:1;stroke-dasharray:none;stroke-dashoffset:0"
       ns0:preamble="/home/sriranga/Desktop/MCT/package.tex"
       ns0:text="$+$"
       word-spacing="normal"
       letter-spacing="normal"
       font-size-adjust="none"
       font-stretch="normal"
       font-weight="normal"
       font-variant="normal"
       font-style="normal"
       stroke-miterlimit="10.433"
       xml:space="preserve"
       transform="matrix(-1.2,0,0,-1.2,389.20406,1685.1223)"
       id="g3082-1-1"><polygon
         style="fill:#000000;stroke-width:0"
         id="polygon3084-8-0"
         points="226.87,712.2 226.32,712.2 226.32,709.96 224.05,709.96 224.05,709.4 226.32,709.4 226.32,707.12 226.87,707.12 226.87,709.4 229.14,709.4 229.14,709.96 226.87,709.96 " /></g>    <g
       id="g7967"
       transform="matrix(1.2,0,0,-1.2,-164.03671,1696.2995)"
       xml:space="preserve"
       stroke-miterlimit="10.433"
       font-style="normal"
       font-variant="normal"
       font-weight="normal"
       font-stretch="normal"
       font-size-adjust="none"
       letter-spacing="normal"
       word-spacing="normal"
       ns0:text="$v_s$"
       ns0:preamble="/home/sriranga/Desktop/MCT/package.tex"
       style="font-style:normal;font-variant:normal;font-weight:normal;font-stretch:normal;letter-spacing:normal;word-spacing:normal;text-anchor:start;fill:none;stroke:#000000;stroke-width:1;stroke-linecap:butt;stroke-linejoin:miter;stroke-miterlimit:10.43299961;stroke-opacity:1;stroke-dasharray:none;stroke-dashoffset:0"><path
         d="m 223.64,711.13 0.02,0 0.02,0 0.02,0 0.02,0 0.02,0 0.01,0.01 0.02,0 0.02,0 0.04,0 0.01,0 0.02,0 0.02,0 0.02,0 0.02,0 0.02,0 c 0.39,0 0.49,-0.17 0.63,-1.09 0.1,-0.68 0.22,-2.18 0.22,-2.76 0,-0.27 0.01,-0.34 0.09,-0.34 0.24,0 1.17,1.05 2.18,2.46 0.35,0.5 0.61,1.14 0.61,1.51 0,0.32 -0.26,0.59 -0.56,0.59 -0.22,0 -0.37,-0.13 -0.37,-0.34 0,-0.16 0.06,-0.28 0.24,-0.44 0.13,-0.12 0.18,-0.2 0.18,-0.3 0,-0.45 -0.65,-1.56 -1.36,-2.29 l -0.31,-0.32 c -0.07,1.4 -0.13,1.92 -0.26,2.65 -0.2,1.02 -0.2,1.04 -0.29,1.04 -0.04,0 -0.12,-0.01 -0.2,-0.04 -0.17,-0.05 -0.72,-0.15 -1.1,-0.21 z"
         id="path7969"
         inkscape:connector-curvature="0"
         style="fill:#000000;stroke-width:0" /><path
         d="m 228.46,706.65 -0.14,-1.11 h 0.11 c 0.05,0.11 0.09,0.15 0.16,0.15 0.08,0 0.21,-0.03 0.34,-0.07 0.16,-0.04 0.28,-0.07 0.39,-0.07 0.58,0 1,0.38 1,0.91 0,0.26 -0.14,0.57 -0.47,0.97 -0.27,0.33 -0.38,0.54 -0.38,0.73 0,0.23 0.15,0.38 0.39,0.38 0.36,0 0.57,-0.26 0.64,-0.8 h 0.11 l 0.14,0.97 h -0.1 c -0.05,-0.1 -0.11,-0.13 -0.2,-0.13 -0.05,0 -0.12,0.01 -0.25,0.05 -0.18,0.05 -0.28,0.07 -0.39,0.07 -0.51,0 -0.85,-0.3 -0.85,-0.77 0,-0.22 0.15,-0.52 0.44,-0.89 0.27,-0.36 0.39,-0.6 0.39,-0.8 0,-0.32 -0.21,-0.54 -0.51,-0.54 -0.39,0 -0.6,0.29 -0.71,0.95 z"
         id="path7971"
         inkscape:connector-curvature="0"
         style="fill:#000000;stroke-width:0" /></g>    <g
       style="font-style:normal;font-variant:normal;font-weight:normal;font-stretch:normal;letter-spacing:normal;word-spacing:normal;text-anchor:start;fill:none;stroke:#000000;stroke-width:1;stroke-linecap:butt;stroke-linejoin:miter;stroke-miterlimit:10.43299961;stroke-opacity:1;stroke-dasharray:none;stroke-dashoffset:0"
       ns0:preamble="/home/sriranga/Desktop/MCT/package.tex"
       ns0:text="$60~k \\Omega$"
       word-spacing="normal"
       letter-spacing="normal"
       font-size-adjust="none"
       font-stretch="normal"
       font-weight="normal"
       font-variant="normal"
       font-style="normal"
       stroke-miterlimit="10.433"
       xml:space="preserve"
       transform="matrix(1.2,0,0,-1.2,-40.27577,1706.6859)"
       id="g6331"><path
         id="path6333"
         d="m 227.87,713.92 -0.11,-0.01 -0.1,-0.01 -0.1,-0.01 -0.09,-0.01 -0.09,-0.01 -0.09,-0.02 -0.09,-0.01 -0.09,-0.02 -0.08,-0.01 -0.08,-0.02 -0.08,-0.01 -0.08,-0.02 -0.07,-0.02 -0.08,-0.02 -0.14,-0.04 -0.14,-0.05 -0.14,-0.06 -0.13,-0.06 -0.13,-0.06 -0.13,-0.07 -0.13,-0.08 -0.13,-0.08 -0.07,-0.05 -0.07,-0.05 c -1.07,-0.76 -1.66,-1.89 -1.66,-3.22 0,-0.87 0.27,-1.74 0.7,-2.24 0.38,-0.44 0.91,-0.67 1.53,-0.67 1.23,0 2.09,0.94 2.09,2.31 0,1.27 -0.73,2.08 -1.87,2.08 -0.44,0 -0.65,-0.07 -1.28,-0.45 l 0.03,-0.26 c 0.21,0.16 0.52,0.25 0.87,0.25 h 0 c 0.86,0 1.35,-0.72 1.35,-1.96 0,-1.09 -0.39,-1.7 -1.08,-1.7 -0.88,0 -1.41,0.94 -1.41,2.48 0,0.5 0.07,0.78 0.27,0.93 l -0.03,0.26 c 0.27,1.5 1.39,2.57 2.95,2.83 z"
         inkscape:connector-curvature="0"
         style="fill:#000000;stroke-width:0" /><path
         id="path6335"
         d="m 230.94,713.84 -0.05,0 -0.05,0 -0.05,0 -0.05,-0.01 -0.05,0 -0.04,-0.01 -0.05,0 -0.05,-0.01 -0.04,-0.01 -0.05,-0.01 -0.04,-0.01 -0.05,-0.01 -0.04,-0.01 -0.04,-0.02 -0.04,-0.01 -0.04,-0.02 -0.04,-0.01 -0.04,-0.02 -0.04,-0.02 -0.04,-0.02 -0.04,-0.02 -0.04,-0.02 -0.04,-0.03 -0.04,-0.02 -0.03,-0.02 -0.04,-0.03 -0.04,-0.03 -0.03,-0.02 -0.04,-0.03 -0.03,-0.03 -0.04,-0.03 -0.03,-0.04 c -0.58,-0.55 -0.96,-1.7 -0.96,-2.86 0,-1.08 0.33,-2.24 0.8,-2.8 0.37,-0.44 0.87,-0.67 1.45,-0.67 v 0.25 c -0.86,0 -1.29,1.07 -1.29,3.13 0,2.11 0.44,3.21 1.3,3.21 h 0 c 0.84,0 1.28,-1.12 1.28,-3.2 0,-2.07 -0.43,-3.14 -1.29,-3.14 v -0.25 c 0.51,0 0.94,0.17 1.29,0.51 0.58,0.55 0.96,1.7 0.96,2.9 0,2.04 -0.91,3.44 -2.21,3.44 z"
         inkscape:connector-curvature="0"
         style="fill:#000000;stroke-width:0" /><path
         id="path6337"
         d="m 240,708.21 -0.15,-0.26 c -0.17,-0.31 -0.29,-0.42 -0.44,-0.42 -0.21,0 -0.42,0.33 -0.81,1.28 -0.05,0.13 -0.2,0.49 -0.37,0.88 1.47,1.3 1.77,1.5 2.24,1.53 v 0.16 h -1.82 v -0.16 h 0.16 c 0.25,0 0.39,-0.07 0.39,-0.18 0,-0.2 -0.5,-0.69 -1.43,-1.39 -0.13,-0.11 -0.25,-0.21 -0.42,-0.33 l 1.19,4.54 -0.05,0.05 c -0.59,-0.13 -0.96,-0.2 -1.55,-0.27 v -0.16 c 0.48,0.01 0.67,-0.06 0.68,-0.25 -0.02,-0.16 -0.09,-0.43 -0.22,-0.89 -0.04,-0.14 -0.07,-0.25 -0.09,-0.33 l -0.02,-0.09 -1.27,-4.8 h 0.75 l 0.48,1.79 0.42,0.32 c 0.15,-0.44 0.41,-1.04 0.59,-1.4 0.32,-0.63 0.5,-0.81 0.79,-0.81 0.4,0 0.66,0.24 1.1,1.08 z"
         inkscape:connector-curvature="0"
         style="fill:#000000;stroke-width:0" /><path
         id="path6339"
         d="m 247.58,707.12 v 1.53 h -0.18 c -0.02,-0.51 -0.31,-0.62 -0.76,-0.62 h -1.36 l 0.05,0.33 c 1.27,0.36 2.02,1.35 2.02,2.67 0,1.8 -1.45,2.82 -3.14,2.82 -1.68,0 -3.2,-1.07 -3.2,-2.86 0,-1.21 0.8,-2.4 2.04,-2.63 l 0.02,-0.33 h -1.33 c -0.48,0 -0.75,0.1 -0.79,0.62 h -0.18 v -1.53 h 2.72 l -0.1,1.47 c -1.02,0.37 -1.24,1.4 -1.24,2.38 0,1.22 0.66,2.53 2.04,2.53 1.43,0 2.05,-1.36 2.05,-2.6 0,-0.95 -0.23,-1.99 -1.25,-2.31 l -0.13,-1.47 z"
         inkscape:connector-curvature="0"
         style="fill:#000000;stroke-width:0" /></g>    <g
       style="font-style:normal;font-variant:normal;font-weight:normal;font-stretch:normal;letter-spacing:normal;word-spacing:normal;text-anchor:start;fill:none;stroke:#000000;stroke-width:1;stroke-linecap:butt;stroke-linejoin:miter;stroke-miterlimit:10.43299961;stroke-opacity:1;stroke-dasharray:none;stroke-dashoffset:0"
       ns0:preamble="/home/sriranga/Desktop/MCT/package.tex"
       ns0:text="$R_S$"
       word-spacing="normal"
       letter-spacing="normal"
       font-size-adjust="none"
       font-stretch="normal"
       font-weight="normal"
       font-variant="normal"
       font-style="normal"
       stroke-miterlimit="10.433"
       xml:space="preserve"
       transform="matrix(1.2,0,0,-1.2,-114.75685,1634.8173)"
       id="content-5"><path
         id="path8291"
         d="m 229.07,707.28 -0.04,0.01 -0.04,0 -0.03,0.01 -0.04,0 -0.04,0.01 -0.03,0.01 -0.03,0.01 -0.03,0.01 -0.03,0.01 -0.03,0.01 -0.03,0.01 -0.03,0.02 -0.03,0.01 -0.02,0.02 -0.03,0.02 -0.02,0.02 -0.03,0.02 -0.02,0.02 -0.02,0.03 -0.02,0.02 -0.02,0.03 -0.03,0.03 -0.02,0.03 -0.02,0.03 -0.01,0.04 -0.02,0.03 -0.02,0.04 -0.02,0.04 -0.02,0.04 -0.02,0.05 -0.02,0.04 -0.01,0.05 -0.93,2.43 c 0.77,0.17 1.1,0.31 1.45,0.63 0.33,0.29 0.51,0.67 0.51,1.12 0,0.92 -0.73,1.43 -2.07,1.43 l -0.21,-0.3 c 0.83,0 1.24,-0.37 1.24,-1.11 0,-0.98 -0.64,-1.49 -1.88,-1.49 -0.16,0 -0.27,0.01 -0.51,0.05 l 0.65,2.28 c 0.06,0.2 0.18,0.27 0.5,0.27 l 0.21,0.3 h -2.47 v -0.16 c 0.42,-0.06 0.47,-0.07 0.57,-0.14 0.08,-0.05 0.14,-0.16 0.14,-0.27 0,-0.12 -0.05,-0.36 -0.12,-0.63 l -1.22,-4.39 c -0.18,-0.59 -0.25,-0.65 -0.81,-0.74 v -0.16 h 2.43 v 0.16 c -0.61,0.08 -0.68,0.13 -0.68,0.46 0,0.1 0.03,0.23 0.12,0.58 l 0.56,2.07 0.65,-0.05 1.22,-3.22 h 1.47 z"
         inkscape:connector-curvature="0"
         style="fill:#000000;stroke-width:0" /><path
         id="path8293"
         d="m 232.78,708.89 0.28,1.38 h -0.16 c -0.1,-0.15 -0.16,-0.18 -0.32,-0.18 -0.08,0 -0.16,0.02 -0.32,0.07 -0.15,0.07 -0.37,0.1 -0.59,0.1 -0.72,0 -1.24,-0.48 -1.24,-1.16 0,-0.38 0.11,-0.58 0.52,-1.02 0.07,-0.06 0.16,-0.16 0.28,-0.29 0.12,-0.14 0.22,-0.24 0.27,-0.3 0.32,-0.34 0.41,-0.52 0.41,-0.82 0,-0.52 -0.39,-0.92 -0.89,-0.92 -0.58,0 -1.02,0.49 -1.02,1.15 0,0.06 0.01,0.12 0.01,0.16 l -0.14,0.02 -0.23,-1.55 h 0.12 c 0.05,0.16 0.13,0.23 0.27,0.23 0.07,0 0.18,-0.03 0.36,-0.09 0.32,-0.12 0.51,-0.16 0.72,-0.16 0.8,0 1.41,0.6 1.41,1.39 0,0.45 -0.16,0.72 -0.79,1.35 -0.62,0.64 -0.69,0.73 -0.69,1.07 0,0.44 0.3,0.71 0.77,0.71 0.26,0 0.47,-0.09 0.62,-0.25 0.15,-0.18 0.21,-0.42 0.22,-0.87 z"
         inkscape:connector-curvature="0"
         style="fill:#000000;stroke-width:0" /></g>    <g
       style="font-style:normal;font-variant:normal;font-weight:normal;font-stretch:normal;letter-spacing:normal;word-spacing:normal;text-anchor:start;fill:none;stroke:#000000;stroke-width:1;stroke-linecap:butt;stroke-linejoin:miter;stroke-miterlimit:10.43299961;stroke-opacity:1;stroke-dasharray:none;stroke-dashoffset:0"
       ns0:preamble="/home/sriranga/Desktop/MCT/package.tex"
       ns0:text="$600~\\Omega$"
       word-spacing="normal"
       letter-spacing="normal"
       font-size-adjust="none"
       font-stretch="normal"
       font-weight="normal"
       font-variant="normal"
       font-style="normal"
       stroke-miterlimit="10.433"
       xml:space="preserve"
       transform="matrix(1.2,0,0,-1.2,-124.17054,1662.7509)"
       id="g6885"><path
         id="path6887"
         d="m 227.87,713.92 -0.11,-0.01 -0.1,-0.01 -0.1,-0.01 -0.09,-0.01 -0.09,-0.01 -0.09,-0.02 -0.09,-0.01 -0.09,-0.02 -0.08,-0.01 -0.08,-0.02 -0.08,-0.01 -0.08,-0.02 -0.07,-0.02 -0.08,-0.02 -0.14,-0.04 -0.14,-0.05 -0.14,-0.06 -0.13,-0.06 -0.13,-0.06 -0.13,-0.07 -0.13,-0.08 -0.13,-0.08 -0.07,-0.05 -0.07,-0.05 c -1.07,-0.76 -1.66,-1.89 -1.66,-3.22 0,-0.87 0.27,-1.74 0.7,-2.24 0.38,-0.44 0.91,-0.67 1.53,-0.67 1.23,0 2.09,0.94 2.09,2.31 0,1.27 -0.73,2.08 -1.87,2.08 -0.44,0 -0.65,-0.07 -1.28,-0.45 l 0.03,-0.26 c 0.21,0.16 0.52,0.25 0.87,0.25 h 0 c 0.86,0 1.35,-0.72 1.35,-1.96 0,-1.09 -0.39,-1.7 -1.08,-1.7 -0.88,0 -1.41,0.94 -1.41,2.48 0,0.5 0.07,0.78 0.27,0.93 l -0.03,0.26 c 0.27,1.5 1.39,2.57 2.95,2.83 z"
         inkscape:connector-curvature="0"
         style="fill:#000000;stroke-width:0" /><path
         id="path6889"
         d="m 230.94,713.84 -0.05,0 -0.05,0 -0.05,0 -0.05,-0.01 -0.05,0 -0.04,-0.01 -0.05,0 -0.05,-0.01 -0.04,-0.01 -0.05,-0.01 -0.04,-0.01 -0.05,-0.01 -0.04,-0.01 -0.04,-0.02 -0.04,-0.01 -0.04,-0.02 -0.04,-0.01 -0.04,-0.02 -0.04,-0.02 -0.04,-0.02 -0.04,-0.02 -0.04,-0.02 -0.04,-0.03 -0.04,-0.02 -0.03,-0.02 -0.04,-0.03 -0.04,-0.03 -0.03,-0.02 -0.04,-0.03 -0.03,-0.03 -0.04,-0.03 -0.03,-0.04 c -0.58,-0.55 -0.96,-1.7 -0.96,-2.86 0,-1.08 0.33,-2.24 0.8,-2.8 0.37,-0.44 0.87,-0.67 1.45,-0.67 v 0.25 c -0.86,0 -1.29,1.07 -1.29,3.13 0,2.11 0.44,3.21 1.3,3.21 h 0 c 0.84,0 1.28,-1.12 1.28,-3.2 0,-2.07 -0.43,-3.14 -1.29,-3.14 v -0.25 c 0.51,0 0.94,0.17 1.29,0.51 0.58,0.55 0.96,1.7 0.96,2.9 0,2.04 -0.91,3.44 -2.21,3.44 z"
         inkscape:connector-curvature="0"
         style="fill:#000000;stroke-width:0" /><path
         id="path6891"
         d="m 235.92,713.84 -0.05,0 -0.05,0 -0.05,0 -0.05,-0.01 -0.05,0 -0.04,-0.01 -0.05,0 -0.05,-0.01 -0.04,-0.01 -0.05,-0.01 -0.04,-0.01 -0.04,-0.01 -0.05,-0.01 -0.04,-0.02 -0.04,-0.01 -0.04,-0.02 -0.04,-0.01 -0.04,-0.02 -0.04,-0.02 -0.04,-0.02 -0.04,-0.02 -0.04,-0.02 -0.04,-0.03 -0.03,-0.02 -0.04,-0.02 -0.04,-0.03 -0.03,-0.03 -0.04,-0.02 -0.04,-0.03 -0.03,-0.03 -0.04,-0.03 -0.03,-0.04 c -0.58,-0.55 -0.96,-1.7 -0.96,-2.86 0,-1.08 0.33,-2.24 0.8,-2.8 0.37,-0.44 0.87,-0.67 1.45,-0.67 v 0.25 c -0.85,0 -1.29,1.07 -1.29,3.13 0,2.11 0.45,3.21 1.3,3.21 h 0 c 0.84,0 1.29,-1.12 1.29,-3.2 0,-2.07 -0.44,-3.14 -1.3,-3.14 v -0.25 c 0.51,0 0.94,0.17 1.3,0.51 0.57,0.55 0.95,1.7 0.95,2.9 0,2.04 -0.9,3.44 -2.21,3.44 z"
         inkscape:connector-curvature="0"
         style="fill:#000000;stroke-width:0" /><path
         id="path6893"
         d="m 247.97,707.12 v 1.53 h -0.18 c -0.02,-0.51 -0.31,-0.62 -0.76,-0.62 h -1.36 l 0.05,0.33 c 1.27,0.36 2.02,1.35 2.02,2.67 0,1.8 -1.45,2.82 -3.14,2.82 -1.68,0 -3.2,-1.07 -3.2,-2.86 0,-1.21 0.8,-2.4 2.04,-2.63 l 0.01,-0.33 h -1.32 c -0.48,0 -0.76,0.1 -0.79,0.62 h -0.18 v -1.53 h 2.72 l -0.1,1.47 c -1.02,0.37 -1.24,1.4 -1.24,2.38 0,1.22 0.66,2.53 2.04,2.53 1.43,0 2.05,-1.36 2.05,-2.6 0,-0.95 -0.23,-1.99 -1.26,-2.31 l -0.13,-1.47 z"
         inkscape:connector-curvature="0"
         style="fill:#000000;stroke-width:0" /></g>    <path
       sodipodi:nodetypes="cc"
       style="fill:none;stroke:#000000;stroke-width:0.80500001;stroke-linecap:butt;stroke-linejoin:miter;stroke-miterlimit:4;stroke-opacity:1;stroke-dasharray:3.22000005, 3.22000005;stroke-dashoffset:0"
       d="m 430.00001,912.36092 -23.34168,0"
       id="path7026"
       inkscape:connector-curvature="0" />
    <path
       sodipodi:nodetypes="cc"
       style="fill:none;stroke:#000000;stroke-width:0.80500001;stroke-linecap:butt;stroke-linejoin:miter;stroke-miterlimit:4;stroke-opacity:1;stroke-dasharray:none"
       d="m 450,902.36092 -15,0"
       id="path7028"
       inkscape:connector-curvature="0" />
    <path
       inkscape:connector-curvature="0"
       id="path7030"
       d="m 450,912.36092 -15,0"
       style="fill:none;stroke:#000000;stroke-width:0.80500001;stroke-linecap:butt;stroke-linejoin:miter;stroke-miterlimit:4;stroke-opacity:1;stroke-dasharray:none"
       sodipodi:nodetypes="cc" />
    <path
       inkscape:connector-curvature="0"
       id="path7032"
       d="m 442.51208,882.42119 0,18.3784"
       style="fill:none;stroke:#000000;stroke-width:0.75;stroke-linecap:butt;stroke-linejoin:miter;stroke-miterlimit:4;stroke-opacity:1;stroke-dasharray:none;marker-end:url(#Arrow1Mend-62)"
       sodipodi:nodetypes="cc" />
    <g
       id="g7164"
       transform="matrix(1.2,0,0,-1.2,183.35987,1759.9484)"
       xml:space="preserve"
       stroke-miterlimit="10.433"
       font-style="normal"
       font-variant="normal"
       font-weight="normal"
       font-stretch="normal"
       font-size-adjust="none"
       letter-spacing="normal"
       word-spacing="normal"
       ns0:text="$0.2V$"
       ns0:preamble="/home/sriranga/Desktop/MCT/package.tex"
       style="font-style:normal;font-variant:normal;font-weight:normal;font-stretch:normal;letter-spacing:normal;word-spacing:normal;text-anchor:start;fill:none;stroke:#000000;stroke-width:1;stroke-linecap:butt;stroke-linejoin:miter;stroke-miterlimit:10.43299961;stroke-opacity:1;stroke-dasharray:none;stroke-dashoffset:0"><path
         style="fill:#000000;stroke-width:0"
         inkscape:connector-curvature="0"
         d="m 225.96,713.84 -0.05,0 -0.05,0 -0.05,0 -0.05,-0.01 -0.05,0 -0.05,-0.01 -0.04,0 -0.05,-0.01 -0.04,-0.01 -0.05,-0.01 -0.04,-0.01 -0.05,-0.01 -0.04,-0.01 -0.04,-0.02 -0.04,-0.01 -0.04,-0.02 -0.05,-0.01 -0.04,-0.02 -0.04,-0.02 -0.03,-0.02 -0.04,-0.02 -0.04,-0.02 -0.04,-0.03 -0.04,-0.02 -0.03,-0.02 -0.04,-0.03 -0.04,-0.03 -0.03,-0.02 -0.04,-0.03 -0.03,-0.03 -0.04,-0.03 -0.03,-0.04 c -0.58,-0.55 -0.96,-1.7 -0.96,-2.86 0,-1.08 0.33,-2.24 0.8,-2.8 0.37,-0.44 0.87,-0.67 1.45,-0.67 v 0.25 c -0.86,0 -1.29,1.07 -1.29,3.13 0,2.11 0.44,3.21 1.3,3.21 h 0 c 0.83,0 1.28,-1.12 1.28,-3.2 0,-2.07 -0.44,-3.14 -1.29,-3.14 v -0.25 c 0.51,0 0.93,0.17 1.29,0.51 0.58,0.55 0.96,1.7 0.96,2.9 0,2.04 -0.91,3.44 -2.21,3.44 z"
         id="path7166" /><path
         style="fill:#000000;stroke-width:0"
         inkscape:connector-curvature="0"
         d="m 230.21,707.55 0,0.03 0,0.03 0,0.03 -0.01,0.02 0,0.03 -0.01,0.03 -0.01,0.02 -0.01,0.03 -0.01,0.03 -0.02,0.02 -0.01,0.02 -0.01,0.03 -0.02,0.02 -0.02,0.02 -0.01,0.02 -0.02,0.02 -0.02,0.02 -0.02,0.02 -0.02,0.01 -0.03,0.02 -0.02,0.01 -0.02,0.02 -0.03,0.01 -0.02,0.01 -0.03,0.01 -0.02,0.01 -0.03,0.01 -0.02,0.01 -0.03,0 -0.03,0.01 -0.03,0 -0.02,0 c -0.3,0 -0.55,-0.25 -0.55,-0.57 0,-0.38 0.34,-0.53 0.55,-0.53 0.21,0 0.55,0.16 0.55,0.53 z"
         id="path7168" /><path
         style="fill:#000000;stroke-width:0"
         inkscape:connector-curvature="0"
         d="m 235.63,708.49 -0.13,0.05 c -0.37,-0.57 -0.5,-0.66 -0.95,-0.66 h -2.37 l 1.67,1.75 c 0.88,0.92 1.27,1.68 1.27,2.45 0,1 -0.8,1.76 -1.84,1.76 -0.54,0 -1.06,-0.22 -1.43,-0.62 -0.32,-0.33 -0.47,-0.65 -0.64,-1.36 l 0.21,-0.05 c 0.4,0.98 0.76,1.29 1.44,1.29 0.84,0 1.41,-0.56 1.41,-1.39 0,-0.78 -0.46,-1.7 -1.3,-2.59 l -1.77,-1.88 v -0.12 h 3.88 z"
         id="path7170" /><path
         style="fill:#000000;stroke-width:0"
         inkscape:connector-curvature="0"
         d="m 242.73,713.61 h -1.85 v -0.16 c 0.45,-0.05 0.63,-0.15 0.63,-0.34 0,-0.18 -0.19,-0.61 -0.52,-1.18 l -2.05,-3.53 -0.66,4.4 c -0.01,0.05 -0.01,0.09 -0.01,0.15 0,0.33 0.14,0.43 0.77,0.5 v 0.16 h -2.4 v -0.16 c 0.56,-0.07 0.58,-0.1 0.79,-1.34 l 0.84,-5.16 h 0.19 l 3.71,6.1 c 0.17,0.27 0.33,0.39 0.56,0.4 z"
         id="path7172" /></g>    <path
       sodipodi:nodetypes="cc"
       style="fill:none;stroke:#000000;stroke-width:0.80500001;stroke-linecap:butt;stroke-linejoin:miter;stroke-miterlimit:4;stroke-opacity:1;stroke-dasharray:none"
       d="m 382.02606,833.95622 c 5,0 0,38.8816 4.99999,38.88159"
       id="path7309"
       inkscape:connector-curvature="0" />
    <g
       style="font-style:normal;font-variant:normal;font-weight:normal;font-stretch:normal;letter-spacing:normal;word-spacing:normal;text-anchor:start;fill:none;stroke:#000000;stroke-width:1.24275136;stroke-linecap:butt;stroke-linejoin:miter;stroke-miterlimit:10.43299961;stroke-opacity:1;stroke-dasharray:none;stroke-dashoffset:0"
       ns0:preamble="/home/sriranga/Desktop/MCT/package.tex"
       ns0:text="$20V$"
       word-spacing="normal"
       letter-spacing="normal"
       font-size-adjust="none"
       font-stretch="normal"
       font-weight="normal"
       font-variant="normal"
       font-style="normal"
       stroke-miterlimit="10.433"
       xml:space="preserve"
       transform="matrix(0.97685491,0,0,-0.95447348,168.86932,1550.5085)"
       id="g7458"><path
         id="path7460"
         d="m 228.16,708.49 -0.13,0.05 c -0.37,-0.57 -0.5,-0.66 -0.95,-0.66 h -2.37 l 1.67,1.75 c 0.88,0.92 1.27,1.68 1.27,2.45 0,1 -0.8,1.76 -1.84,1.76 -0.55,0 -1.07,-0.22 -1.43,-0.62 -0.32,-0.33 -0.47,-0.65 -0.64,-1.36 l 0.21,-0.05 c 0.4,0.98 0.76,1.29 1.44,1.29 0.84,0 1.4,-0.56 1.4,-1.39 0,-0.78 -0.45,-1.7 -1.29,-2.59 l -1.77,-1.88 v -0.12 h 3.88 z"
         inkscape:connector-curvature="0"
         style="fill:#000000;stroke-width:0" /><path
         id="path7462"
         d="m 230.94,713.84 -0.05,0 -0.05,0 -0.05,0 -0.05,-0.01 -0.05,0 -0.04,-0.01 -0.05,0 -0.05,-0.01 -0.04,-0.01 -0.05,-0.01 -0.04,-0.01 -0.05,-0.01 -0.04,-0.01 -0.04,-0.02 -0.04,-0.01 -0.04,-0.02 -0.04,-0.01 -0.04,-0.02 -0.04,-0.02 -0.04,-0.02 -0.04,-0.02 -0.04,-0.02 -0.04,-0.03 -0.04,-0.02 -0.03,-0.02 -0.04,-0.03 -0.04,-0.03 -0.03,-0.02 -0.04,-0.03 -0.03,-0.03 -0.04,-0.03 -0.03,-0.04 c -0.58,-0.55 -0.96,-1.7 -0.96,-2.86 0,-1.08 0.33,-2.24 0.8,-2.8 0.37,-0.44 0.87,-0.67 1.45,-0.67 v 0.25 c -0.86,0 -1.29,1.07 -1.29,3.13 0,2.11 0.44,3.21 1.3,3.21 h 0 c 0.84,0 1.28,-1.12 1.28,-3.2 0,-2.07 -0.43,-3.14 -1.29,-3.14 v -0.25 c 0.51,0 0.94,0.17 1.29,0.51 0.58,0.55 0.96,1.7 0.96,2.9 0,2.04 -0.91,3.44 -2.21,3.44 z"
         inkscape:connector-curvature="0"
         style="fill:#000000;stroke-width:0" /><path
         id="path7465"
         d="m 240.24,713.61 h -1.85 v -0.16 c 0.45,-0.05 0.63,-0.15 0.63,-0.34 0,-0.18 -0.19,-0.61 -0.52,-1.18 l -2.05,-3.53 -0.66,4.4 c -0.01,0.05 -0.01,0.09 -0.01,0.15 0,0.33 0.14,0.43 0.77,0.5 v 0.16 h -2.4 v -0.16 c 0.56,-0.07 0.58,-0.1 0.79,-1.34 l 0.84,-5.16 h 0.19 l 3.71,6.1 c 0.17,0.27 0.33,0.39 0.56,0.4 z"
         inkscape:connector-curvature="0"
         style="fill:#000000;stroke-width:0" /></g>    <path
       style="fill:none;stroke:#000000;stroke-width:1.77165365;stroke-linecap:round;stroke-linejoin:round;stroke-miterlimit:4;stroke-opacity:1;stroke-dasharray:none;stroke-dashoffset:0"
       d="m 120.59352,851.7674 0,-8.81296 4.40648,0 0,8.81296 4.40648,0 0,-8.81296"
       id="path3118"
       inkscape:connector-curvature="0" />
    <path
       inkscape:connector-curvature="0"
       id="path3406"
       d="m 382.02606,911.69164 c 5,0 0,-38.88159 4.99999,-38.88158"
       style="fill:none;stroke:#000000;stroke-width:0.80500001;stroke-linecap:butt;stroke-linejoin:miter;stroke-miterlimit:4;stroke-opacity:1;stroke-dasharray:none"
       sodipodi:nodetypes="cc" />
    <g
       style="font-style:normal;font-variant:normal;font-weight:normal;font-stretch:normal;letter-spacing:normal;word-spacing:normal;text-anchor:start;fill:none;stroke:#000000;stroke-width:1;stroke-linecap:butt;stroke-linejoin:miter;stroke-miterlimit:10.43299961;stroke-opacity:1;stroke-dasharray:none;stroke-dashoffset:0"
       ns0:preamble="/home/sriranga/Desktop/MCT/package.tex"
       ns0:text="$0.833~ \\mu F$"
       text-anchor="start"
       word-spacing="normal"
       letter-spacing="normal"
       font-size-adjust="none"
       font-stretch="normal"
       font-weight="normal"
       font-variant="normal"
       font-style="normal"
       fill-opacity="1"
       fill-rule="evenodd"
       fill="none"
       stroke-opacity="1"
       stroke-dashoffset="0"
       stroke-dasharray="none"
       stroke-miterlimit="10.433"
       stroke-linejoin="miter"
       stroke-linecap="butt"
       stroke="black"
       xml:space="preserve"
       transform="matrix(1.2,0,0,-1.2,-57.44037,1634.5327)"
       id="g4291"><path
         id="path4293"
         fill="black"
         stroke-width="0"
         d="M225.96,713.84 L225.91,713.84 L225.86,713.84 L225.81,713.84 L225.76,713.83 L225.71,713.83 L225.66,713.82 L225.62,713.82 L225.57,713.81 L225.53,713.8 L225.48,713.79 L225.44,713.78 L225.39,713.77 L225.35,713.76 L225.31,713.74 L225.27,713.73 L225.23,713.71 L225.18,713.7 L225.14,713.68 L225.1,713.66 L225.07,713.64 L225.03,713.62 L224.99,713.6 L224.95,713.57 L224.91,713.55 L224.88,713.53 L224.84,713.5 L224.8,713.47 L224.77,713.45 L224.73,713.42 L224.7,713.39 L224.66,713.36 L224.63,713.32 C224.05,712.77,223.67,711.62,223.67,710.46 C223.67,709.38,224,708.22,224.47,707.66 C224.84,707.22,225.34,706.99,225.92,706.99 V707.24 C225.06,707.24,224.63,708.31,224.63,710.37 C224.63,712.48,225.07,713.58,225.93,713.58 H225.93 C226.76,713.58,227.21,712.46,227.21,710.38 C227.21,708.31,226.77,707.24,225.92,707.24 V706.99 C226.43,706.99,226.85,707.16,227.21,707.5 C227.79,708.05,228.17,709.2,228.17,710.4 C228.17,712.44,227.26,713.84,225.96,713.84 Z " /><path
         id="path4295"
         fill="black"
         stroke-width="0"
         d="M230.21,707.55 L230.21,707.58 L230.21,707.61 L230.21,707.64 L230.2,707.66 L230.2,707.69 L230.19,707.72 L230.18,707.74 L230.17,707.77 L230.16,707.8 L230.14,707.82 L230.13,707.84 L230.12,707.87 L230.1,707.89 L230.08,707.91 L230.07,707.93 L230.05,707.95 L230.03,707.97 L230.01,707.99 L229.99,708 L229.96,708.02 L229.94,708.03 L229.92,708.05 L229.89,708.06 L229.87,708.07 L229.84,708.08 L229.82,708.09 L229.79,708.1 L229.77,708.11 L229.74,708.11 L229.71,708.12 L229.68,708.12 L229.66,708.12 C229.36,708.12,229.11,707.87,229.11,707.55 C229.11,707.17,229.45,707.02,229.66,707.02 C229.87,707.02,230.21,707.18,230.21,707.55 Z " /><path
         id="path4297"
         fill="black"
         stroke-width="0"
         d="M233.79,710.81 L233.88,710.86 L233.97,710.91 L234.05,710.96 L234.13,711 L234.21,711.05 L234.28,711.1 L234.35,711.14 L234.41,711.19 L234.48,711.24 L234.53,711.28 L234.59,711.33 L234.64,711.38 L234.69,711.42 L234.74,711.47 L234.78,711.52 L234.83,711.56 L234.86,711.61 L234.9,711.66 L234.93,711.71 L234.96,711.76 L234.99,711.81 L235.01,711.86 L235.03,711.91 L235.05,711.97 L235.07,712.02 L235.08,712.07 L235.1,712.13 L235.11,712.19 L235.11,712.25 L235.12,712.31 L235.12,712.37 L235.12,712.43 C235.12,713.24,234.41,713.84,233.41,713.84 L233.33,713.56 C234.01,713.56,234.44,713.12,234.44,712.44 C234.44,711.87,234.16,711.43,233.59,711.05 C233.54,711.02,233.54,711.02,233.5,710.99 H233.5 C232.62,711.57,232.26,712.02,232.26,712.58 C232.26,713.16,232.71,713.56,233.33,713.56 L233.41,713.84 C232.33,713.84,231.52,713.17,231.52,712.27 C231.52,711.62,231.71,711.34,232.76,710.42 C231.68,709.61,231.46,709.3,231.46,708.62 C231.46,707.66,232.25,706.99,233.37,706.99 L233.48,707.26 C232.73,707.26,232.22,707.84,232.22,708.7 C232.22,709.34,232.44,709.76,233.01,710.22 L233.61,709.79 C234.34,709.27,234.57,708.91,234.57,708.36 C234.57,707.71,234.13,707.26,233.48,707.26 L233.37,706.99 C234.57,706.99,235.33,707.64,235.33,708.66 C235.33,709.43,234.99,709.92,233.79,710.81 Z " /><path
         id="path4299"
         fill="black"
         stroke-width="0"
         d="M237.41,710.4 L237.46,710.4 L237.51,710.4 L237.56,710.4 L237.61,710.4 L237.66,710.4 L237.7,710.4 L237.75,710.4 L237.79,710.4 L237.83,710.4 L237.86,710.4 L237.9,710.39 L237.94,710.39 L237.97,710.39 L238,710.39 L238.03,710.38 L238.07,710.38 L238.1,710.38 L238.12,710.38 L238.15,710.37 L238.18,710.37 L238.2,710.36 L238.23,710.36 L238.28,710.35 L238.33,710.34 L238.37,710.32 L238.42,710.31 L238.46,710.29 C239.08,710.08,239.47,709.51,239.47,708.82 C239.47,707.99,238.9,707.34,238.16,707.34 C237.9,707.34,237.7,707.41,237.33,707.65 C237.03,707.83,236.86,707.9,236.69,707.9 C236.46,707.9,236.31,707.76,236.31,707.55 C236.31,707.2,236.74,706.99,237.44,706.99 C238.2,706.99,238.99,707.24,239.46,707.65 C239.93,708.06,240.18,708.64,240.18,709.3 C240.18,709.81,240.02,710.27,239.74,710.58 C239.54,710.8,239.35,710.92,238.91,711.11 C239.6,711.58,239.85,711.94,239.85,712.48 C239.85,713.28,239.21,713.84,238.29,713.84 C237.8,713.84,237.36,713.67,237,713.35 C236.7,713.09,236.55,712.83,236.33,712.23 L236.48,712.19 C236.89,712.92,237.34,713.24,237.96,713.24 C238.61,713.24,239.06,712.81,239.06,712.18 C239.06,711.82,238.91,711.47,238.66,711.22 C238.36,710.92,238.08,710.77,237.41,710.53 Z " /><path
         id="path4301"
         fill="black"
         stroke-width="0"
         d="M242.39,710.4 L242.44,710.4 L242.49,710.4 L242.54,710.4 L242.59,710.4 L242.64,710.4 L242.68,710.4 L242.73,710.4 L242.77,710.4 L242.81,710.4 L242.85,710.4 L242.88,710.39 L242.92,710.39 L242.95,710.39 L242.98,710.39 L243.02,710.38 L243.05,710.38 L243.08,710.38 L243.11,710.38 L243.13,710.37 L243.16,710.37 L243.19,710.36 L243.21,710.36 L243.26,710.35 L243.31,710.34 L243.35,710.32 L243.4,710.31 L243.44,710.29 C244.06,710.08,244.45,709.51,244.45,708.82 C244.45,707.99,243.88,707.34,243.15,707.34 C242.88,707.34,242.68,707.41,242.31,707.65 C242.01,707.83,241.84,707.9,241.67,707.9 C241.44,707.9,241.29,707.76,241.29,707.55 C241.29,707.2,241.72,706.99,242.42,706.99 C243.18,706.99,243.97,707.24,244.44,707.65 C244.91,708.06,245.16,708.64,245.16,709.3 C245.16,709.81,245.01,710.27,244.72,710.58 C244.52,710.8,244.33,710.92,243.89,711.11 C244.58,711.58,244.83,711.94,244.83,712.48 C244.83,713.28,244.19,713.84,243.27,713.84 C242.78,713.84,242.34,713.67,241.98,713.35 C241.68,713.09,241.53,712.83,241.31,712.23 L241.46,712.19 C241.87,712.92,242.32,713.24,242.95,713.24 C243.59,713.24,244.04,712.81,244.04,712.18 C244.04,711.82,243.89,711.47,243.64,711.22 C243.34,710.92,243.07,710.77,242.39,710.53 Z " /><path
         id="path4303"
         fill="black"
         stroke-width="0"
         d="M253.26,707.89 L253.26,707.9 L253.26,707.9 L253.26,707.91 L253.26,707.91 L253.26,707.92 L253.26,707.92 L253.26,707.92 L253.26,707.93 L253.26,707.93 L253.26,707.94 L253.26,707.94 L253.26,707.94 L253.26,707.95 L253.26,707.95 L253.26,707.95 L253.26,707.96 L253.25,707.96 L253.25,707.96 L253.25,707.96 L253.25,707.97 L253.25,707.97 L253.25,707.97 L253.24,707.97 L253.24,707.97 L253.24,707.97 L253.24,707.98 L253.24,707.98 L253.23,707.98 L253.23,707.98 L253.23,707.98 L253.23,707.98 L253.22,707.98 C253.07,707.98,253.09,707.39,252.55,707.39 C252.4,707.39,252.34,707.52,252.34,707.71 C252.34,707.97,252.44,708.35,252.54,708.74 L253.23,711.51 L252.37,711.36 L251.57,708.37 C251.55,708.32,250.97,707.49,250.36,707.49 C249.79,707.49,249.61,708.01,249.61,708.4 C249.61,708.52,249.63,708.62,249.65,708.71 L250.36,711.51 L249.62,711.38 L248.54,707.12 C248.33,706.32,247.93,705.25,247.85,705.07 H248.73 L249.36,707.55 H249.37 C249.37,707.54,249.41,707.02,250.13,707.02 C250.93,707.02,251.41,707.8,251.51,707.92 C251.5,707.84,251.49,707.77,251.49,707.7 C251.49,707.05,252.1,707.02,252.27,707.02 H252.3 C252.99,707.02,253.26,707.66,253.26,707.89 Z " /><path
         id="path4305"
         fill="black"
         stroke-width="0"
         d="M260.33,713.61 H255.38 V713.45 C256.03,713.39,256.15,713.33,256.15,713.05 C256.15,712.9,256.11,712.65,256.04,712.41 L254.81,708.02 C254.63,707.42,254.57,707.36,254,707.28 V707.12 H256.51 V707.28 C255.93,707.31,255.75,707.42,255.75,707.72 C255.75,707.8,255.78,707.95,255.84,708.17 L256.45,710.38 C256.82,710.36,257.04,710.35,257.26,710.35 C257.65,710.35,257.72,710.34,257.81,710.3 C257.96,710.22,258.03,710.09,258.03,709.9 C258.03,709.74,258.01,709.62,257.95,709.31 L258.12,709.26 L258.87,711.59 L258.69,711.64 C258.25,710.74,258.22,710.73,256.55,710.71 L257.2,713.03 C257.26,713.22,257.4,713.28,257.81,713.28 C259.48,713.28,259.84,713.16,259.84,712.54 C259.84,712.48,259.84,712.43,259.83,712.3 C259.82,712.24,259.82,712.23,259.81,712.11 L260.02,712.09 Z " /></g>  </g>
</svg>
