<?xml version="1.0" encoding="UTF-8" standalone="no"?>
<!-- Created with Inkscape (http://www.inkscape.org/) -->

<svg
   xmlns:ns0="http://www.iki.fi/pav/software/textext/"
   xmlns:dc="http://purl.org/dc/elements/1.1/"
   xmlns:cc="http://creativecommons.org/ns#"
   xmlns:rdf="http://www.w3.org/1999/02/22-rdf-syntax-ns#"
   xmlns:svg="http://www.w3.org/2000/svg"
   xmlns="http://www.w3.org/2000/svg"
   xmlns:sodipodi="http://sodipodi.sourceforge.net/DTD/sodipodi-0.dtd"
   xmlns:inkscape="http://www.inkscape.org/namespaces/inkscape"
   width="354.33069"
   height="283.46457"
   id="svg2"
   version="1.1"
   inkscape:version="0.48.4 r9939"
   sodipodi:docname="sol2.27a.eps">
  <sodipodi:namedview
     id="base"
     pagecolor="#ffffff"
     bordercolor="#666666"
     borderopacity="1.0"
     inkscape:pageopacity="0.0"
     inkscape:pageshadow="2"
     inkscape:zoom="2.1060833"
     inkscape:cx="177.16534"
     inkscape:cy="141.73228"
     inkscape:document-units="cm"
     inkscape:current-layer="layer1"
     showgrid="false"
     units="cm"
     inkscape:object-nodes="true"
     inkscape:window-width="1366"
     inkscape:window-height="744"
     inkscape:window-x="0"
     inkscape:window-y="24"
     inkscape:window-maximized="1">
    <inkscape:grid
       snapvisiblegridlinesonly="true"
       enabled="true"
       visible="true"
       empspacing="5"
       id="grid2985"
       type="xygrid" />
  </sodipodi:namedview>
  <defs
     id="defs4">
    <marker
       style="overflow:visible;"
       id="Arrow1Mend"
       refX="0.0"
       refY="0.0"
       orient="auto"
       inkscape:stockid="Arrow1Mend">
      <path
         transform="scale(0.4) rotate(180) translate(10,0)"
         style="fill-rule:evenodd;stroke:#000000;stroke-width:1.0pt;"
         d="M 0.0,0.0 L 5.0,-5.0 L -12.5,0.0 L 5.0,5.0 L 0.0,0.0 z "
         id="path3949" />
    </marker>
  </defs>
  <metadata
     id="metadata7">
    <rdf:RDF>
      <cc:Work
         rdf:about="">
        <dc:format>image/svg+xml</dc:format>
        <dc:type
           rdf:resource="http://purl.org/dc/dcmitype/StillImage" />
        <dc:title></dc:title>
      </cc:Work>
    </rdf:RDF>
  </metadata>
  <g
     transform="translate(0,-768.89631)"
     id="layer1"
     inkscape:groupmode="layer"
     inkscape:label="Layer 1">
    <text
       transform="translate(0,768.89631)"
       sodipodi:linespacing="125%"
       id="text3819"
       y="115.38005"
       x="140.30785"
       style="font-size:12px;font-style:normal;font-variant:normal;font-weight:normal;font-stretch:normal;text-align:center;line-height:125%;letter-spacing:0px;word-spacing:0px;text-anchor:middle;fill:#000000;fill-opacity:1;stroke:none;font-family:LMRoman12;-inkscape-font-specification:LMRoman12"
       xml:space="preserve"><tspan
         y="115.38005"
         x="140.30785"
         id="tspan3821"
         sodipodi:role="line" /></text>
    <path
       style="fill:none;stroke:#000000;stroke-width:1px;stroke-linecap:butt;stroke-linejoin:miter;stroke-opacity:1"
       d="m 191.92814,787.36089 0,95"
       id="path5064"
       inkscape:connector-curvature="0"
       sodipodi:nodetypes="cc" />
    <path
       inkscape:connector-curvature="0"
       id="path3901"
       d="m 55,837.36088 20,0"
       style="fill:none;stroke:#000000;stroke-width:0.99212597999999996;stroke-linecap:round;stroke-linejoin:miter;stroke-opacity:1;stroke-miterlimit:4;stroke-dasharray:none" />
    <path
       inkscape:connector-curvature="0"
       id="path3903"
       d="m 60,842.36088 10,0"
       style="fill:none;stroke:#000000;stroke-width:0.99212597999999996;stroke-linecap:round;stroke-linejoin:miter;stroke-opacity:1;stroke-miterlimit:4;stroke-dasharray:none" />
    <path
       sodipodi:nodetypes="ccc"
       inkscape:connector-curvature="0"
       id="path3905"
       d="m 65,842.36088 0,40 252.95428,0"
       style="fill:none;stroke:#000000;stroke-width:1px;stroke-linecap:butt;stroke-linejoin:miter;stroke-opacity:1" />
    <path
       sodipodi:nodetypes="cccc"
       style="fill:none;stroke:#000000;stroke-width:0.99212597999999996;stroke-linecap:round;stroke-linejoin:miter;stroke-opacity:1;stroke-miterlimit:4;stroke-dasharray:none"
       d="m 181.92814,837.82125 3.01136,-5 13.80751,0 3.18113,-5"
       id="path3907"
       inkscape:connector-curvature="0" />
    <path
       style="fill:none;stroke:#000000;stroke-width:1;stroke-linecap:butt;stroke-linejoin:round;stroke-miterlimit:4;stroke-opacity:1;stroke-dasharray:none"
       d="m 65,837.36088 0,-50 33.768953,0 2.419977,5 5,-10 5,10 5,-10 5,10 5,-10 5.02528,10.14251 5,-9.79881 2.55474,4.6563 179.18533,0"
       id="path3911"
       inkscape:connector-curvature="0"
       sodipodi:nodetypes="ccccccccccccc" />
    <path
       inkscape:connector-curvature="0"
       id="path3913"
       d="m 199.95742,790.04649 0,15.07215"
       style="fill:none;stroke:#000000;stroke-width:0.80000001;stroke-linecap:butt;stroke-linejoin:miter;stroke-miterlimit:4;stroke-opacity:1;stroke-dasharray:none;marker-end:url(#Arrow1Mend)" />
    <g
       style="font-style:normal;font-variant:normal;font-weight:normal;font-stretch:normal;letter-spacing:normal;word-spacing:normal;text-anchor:start;fill:none;stroke:#000000;stroke-width:1;stroke-linecap:butt;stroke-linejoin:miter;stroke-miterlimit:10.43299961;stroke-opacity:1;stroke-dasharray:none;stroke-dashoffset:0"
       ns0:preamble="/home/sriranga/Desktop/MCT/package.tex"
       ns0:text="$+$"
       word-spacing="normal"
       letter-spacing="normal"
       font-size-adjust="none"
       font-stretch="normal"
       font-weight="normal"
       font-variant="normal"
       font-style="normal"
       stroke-miterlimit="10.433"
       xml:space="preserve"
       transform="matrix(1.2,0,0,-1.2,-64.010916,1675.0006)"
       id="g4983"><polygon
         style="fill:#000000;stroke-width:0"
         id="polygon4985"
         points="226.32,707.12 226.87,707.12 226.87,709.4 229.14,709.4 229.14,709.96 226.87,709.96 226.87,712.2 226.32,712.2 226.32,709.96 224.05,709.96 224.05,709.4 226.32,709.4 " /></g>    <g
       id="g5195"
       transform="matrix(1.2,0,0,-1.2,-65.21738,1700.9891)"
       xml:space="preserve"
       stroke-miterlimit="10.433"
       font-style="normal"
       font-variant="normal"
       font-weight="normal"
       font-stretch="normal"
       font-size-adjust="none"
       letter-spacing="normal"
       word-spacing="normal"
       ns0:text="$-$"
       ns0:preamble="/home/sriranga/Desktop/MCT/package.tex"
       style="font-style:normal;font-variant:normal;font-weight:normal;font-stretch:normal;letter-spacing:normal;word-spacing:normal;text-anchor:start;fill:none;stroke:#000000;stroke-width:1;stroke-linecap:butt;stroke-linejoin:miter;stroke-miterlimit:10.43299961;stroke-opacity:1;stroke-dasharray:none;stroke-dashoffset:0"><polygon
         style="fill:#000000;stroke-width:0"
         points="224.05,709.4 229.14,709.4 229.14,709.96 224.05,709.96 "
         id="polygon5197" /></g>    <path
       inkscape:transform-center-y="-1.6666624"
       transform="matrix(1.3856407,0,0,-1.3333328,-85.199987,917.44064)"
       d="m 200,63.464569 -2.16506,-3.75 -2.16507,-3.75 4.33013,0 4.33013,0 -2.16507,3.75 z"
       inkscape:randomized="0"
       inkscape:rounded="0"
       inkscape:flatsided="false"
       sodipodi:arg2="2.6179939"
       sodipodi:arg1="1.5707963"
       sodipodi:r2="2.5"
       sodipodi:r1="5"
       sodipodi:cy="58.464569"
       sodipodi:cx="200"
       sodipodi:sides="3"
       id="path3051"
       style="fill:#ffffff;fill-opacity:1;stroke:#000000;stroke-width:0.7299149;stroke-linecap:square;stroke-linejoin:round;stroke-miterlimit:4;stroke-opacity:1;stroke-dasharray:none;stroke-dashoffset:0"
       sodipodi:type="star" />
    <g
       id="g3491"
       transform="matrix(1.2,0,0,-1.2,-153.71482,1627.5298)"
       xml:space="preserve"
       stroke-miterlimit="10.433"
       font-style="normal"
       font-variant="normal"
       font-weight="normal"
       font-stretch="normal"
       font-size-adjust="none"
       letter-spacing="normal"
       word-spacing="normal"
       ns0:text="$R_1$"
       ns0:preamble="/home/sriranga/Desktop/MCT/package.tex"
       style="font-style:normal;font-variant:normal;font-weight:normal;font-stretch:normal;letter-spacing:normal;word-spacing:normal;text-anchor:start;fill:none;stroke:#000000;stroke-width:1;stroke-linecap:butt;stroke-linejoin:miter;stroke-miterlimit:10.43299961;stroke-opacity:1;stroke-dasharray:none;stroke-dashoffset:0"><path
         d="m 229.07,707.28 -0.04,0.01 -0.04,0 -0.03,0.01 -0.04,0 -0.04,0.01 -0.03,0.01 -0.03,0.01 -0.03,0.01 -0.03,0.01 -0.03,0.01 -0.03,0.01 -0.03,0.02 -0.03,0.01 -0.02,0.02 -0.03,0.02 -0.02,0.02 -0.03,0.02 -0.02,0.02 -0.02,0.03 -0.02,0.02 -0.02,0.03 -0.03,0.03 -0.02,0.03 -0.02,0.03 -0.01,0.04 -0.02,0.03 -0.02,0.04 -0.02,0.04 -0.02,0.04 -0.02,0.05 -0.02,0.04 -0.01,0.05 -0.93,2.43 c 0.77,0.17 1.1,0.31 1.45,0.63 0.33,0.29 0.51,0.67 0.51,1.12 0,0.92 -0.73,1.43 -2.07,1.43 l -0.21,-0.3 c 0.83,0 1.24,-0.37 1.24,-1.11 0,-0.98 -0.64,-1.49 -1.88,-1.49 -0.16,0 -0.27,0.01 -0.51,0.05 l 0.65,2.28 c 0.06,0.2 0.18,0.27 0.5,0.27 l 0.21,0.3 h -2.47 v -0.16 c 0.42,-0.06 0.47,-0.07 0.57,-0.14 0.08,-0.05 0.14,-0.16 0.14,-0.27 0,-0.12 -0.05,-0.36 -0.12,-0.63 l -1.22,-4.39 c -0.18,-0.59 -0.25,-0.65 -0.81,-0.74 v -0.16 h 2.43 v 0.16 c -0.61,0.08 -0.68,0.13 -0.68,0.46 0,0.1 0.03,0.23 0.12,0.58 l 0.56,2.07 0.65,-0.05 1.22,-3.22 h 1.47 z"
         id="path3493"
         inkscape:connector-curvature="0"
         style="fill:#000000;stroke-width:0" /><path
         d="m 231.55,710.33 -1.26,-0.63 v -0.1 c 0.09,0.04 0.16,0.06 0.19,0.08 0.12,0.05 0.24,0.08 0.31,0.08 0.15,0 0.21,-0.11 0.21,-0.33 v -3.15 c 0,-0.23 -0.05,-0.39 -0.16,-0.45 -0.11,-0.07 -0.21,-0.09 -0.5,-0.1 v -0.1 h 1.92 v 0.1 c -0.55,0.01 -0.66,0.08 -0.66,0.42 v 4.17 z"
         id="path3495"
         inkscape:connector-curvature="0"
         style="fill:#000000;stroke-width:0" /></g>    <g
       id="g3557"
       transform="matrix(1.2,0,0,-1.2,48.738447,1645.475)"
       xml:space="preserve"
       stroke-miterlimit="10.433"
       font-style="normal"
       font-variant="normal"
       font-weight="normal"
       font-stretch="normal"
       font-size-adjust="none"
       letter-spacing="normal"
       word-spacing="normal"
       ns0:text="$+$"
       ns0:preamble="/home/sriranga/Desktop/MCT/package.tex"
       style="font-style:normal;font-variant:normal;font-weight:normal;font-stretch:normal;letter-spacing:normal;word-spacing:normal;text-anchor:start;fill:none;stroke:#000000;stroke-width:1;stroke-linecap:butt;stroke-linejoin:miter;stroke-miterlimit:10.43299961;stroke-opacity:1;stroke-dasharray:none;stroke-dashoffset:0"><polygon
         points="226.32,707.12 226.87,707.12 226.87,709.4 229.14,709.4 229.14,709.96 226.87,709.96 226.87,712.2 226.32,712.2 226.32,709.96 224.05,709.96 224.05,709.4 226.32,709.4 "
         id="polygon3559"
         style="fill:#000000;stroke-width:0" /></g>    <g
       style="font-style:normal;font-variant:normal;font-weight:normal;font-stretch:normal;letter-spacing:normal;word-spacing:normal;text-anchor:start;fill:none;stroke:#000000;stroke-width:1;stroke-linecap:butt;stroke-linejoin:miter;stroke-miterlimit:10.43299961;stroke-opacity:1;stroke-dasharray:none;stroke-dashoffset:0"
       ns0:preamble="/home/sriranga/Desktop/MCT/package.tex"
       ns0:text="$-$"
       word-spacing="normal"
       letter-spacing="normal"
       font-size-adjust="none"
       font-stretch="normal"
       font-weight="normal"
       font-variant="normal"
       font-style="normal"
       stroke-miterlimit="10.433"
       xml:space="preserve"
       transform="matrix(1.2,0,0,-1.2,47.817394,1726.7529)"
       id="g3561"><polygon
         id="polygon3563"
         points="229.14,709.96 224.05,709.96 224.05,709.4 229.14,709.4 "
         style="fill:#000000;stroke-width:0" /></g>    <path
       sodipodi:type="arc"
       id="path4504"
       style="fill:#000000;stroke:none"
       sodipodi:cx="200"
       sodipodi:cy="882.3609"
       sodipodi:rx="2.5"
       sodipodi:ry="2.5"
       d="m 202.5,882.3609 c 0,1.38071 -1.11929,2.5 -2.5,2.5 -1.38071,0 -2.5,-1.11929 -2.5,-2.5 0,-1.38071 1.11929,-2.5 2.5,-2.5 1.38071,0 2.5,1.11929 2.5,2.5 z"
       transform="translate(-8.0718554,0)" />
    <path
       sodipodi:type="arc"
       id="path4506"
       style="fill:#000000;stroke:none"
       sodipodi:cx="200"
       sodipodi:cy="787.3609"
       sodipodi:rx="2.5"
       sodipodi:ry="2.5"
       d="m 202.5,787.3609 c 0,1.38071 -1.11929,2.5 -2.5,2.5 -1.38071,0 -2.5,-1.11929 -2.5,-2.5 0,-1.38071 1.11929,-2.5 2.5,-2.5 1.38071,0 2.5,1.11929 2.5,2.5 z"
       transform="translate(-8.0718554,0)" />
    <g
       id="g5992"
       transform="matrix(1.2,0,0,-1.2,-99.690831,1692.0978)"
       xml:space="preserve"
       stroke-miterlimit="10.433"
       font-style="normal"
       font-variant="normal"
       font-weight="normal"
       font-stretch="normal"
       font-size-adjust="none"
       letter-spacing="normal"
       word-spacing="normal"
       ns0:text="$D_1$"
       ns0:preamble="/home/sriranga/Desktop/MCT/package.tex"
       style="font-style:normal;font-variant:normal;font-weight:normal;font-stretch:normal;letter-spacing:normal;word-spacing:normal;text-anchor:start;fill:none;stroke:#000000;stroke-width:1;stroke-linecap:butt;stroke-linejoin:miter;stroke-miterlimit:10.43299961;stroke-opacity:1;stroke-dasharray:none;stroke-dashoffset:0"><path
         style="fill:#000000;stroke-width:0"
         inkscape:connector-curvature="0"
         d="m 224.97,713.45 0.03,0 0.03,0 0.03,-0.01 0.02,0 0.03,0 0.03,0 0.04,-0.01 0.05,-0.01 0.04,0 0.05,-0.01 0.03,-0.01 0.04,-0.01 0.04,0 0.03,-0.01 0.03,-0.01 0.03,-0.01 0.02,-0.01 0.03,-0.01 0.02,-0.01 0.02,-0.01 0.02,-0.02 0.01,-0.01 0.02,-0.01 0.01,-0.02 0.02,-0.01 0.01,-0.02 0.01,-0.02 0.01,-0.01 0,-0.02 0.01,-0.02 0,-0.02 0.01,-0.02 0,-0.03 0,-0.02 0,-0.02 c 0,-0.15 -0.04,-0.39 -0.11,-0.64 l -1.22,-4.39 c -0.18,-0.58 -0.25,-0.64 -0.81,-0.74 v -0.16 h 2.52 l -0.1,0.3 c -0.46,0 -0.65,0.11 -0.65,0.37 0,0.13 0.05,0.35 0.22,0.94 l 1.2,4.3 c 0.06,0.21 0.21,0.28 0.61,0.28 0.57,0 1.07,-0.13 1.39,-0.36 0.48,-0.36 0.75,-0.99 0.75,-1.77 0,-1.08 -0.42,-2.19 -1.09,-2.86 -0.59,-0.6 -1.4,-0.9 -2.43,-0.9 l 0.1,-0.3 c 1.16,0 2.23,0.31 2.99,0.87 0.97,0.7 1.54,1.8 1.54,2.95 0,1.63 -1.14,2.67 -2.91,2.67 h -2.77 z"
         id="path5994" /><path
         style="fill:#000000;stroke-width:0"
         inkscape:connector-curvature="0"
         d="m 232.9,710.33 -1.25,-0.63 v -0.1 c 0.08,0.04 0.16,0.06 0.19,0.08 0.12,0.05 0.24,0.08 0.31,0.08 0.14,0 0.21,-0.11 0.21,-0.33 v -3.15 c 0,-0.23 -0.06,-0.39 -0.17,-0.45 -0.1,-0.07 -0.2,-0.09 -0.49,-0.1 v -0.1 h 1.92 v 0.1 c -0.55,0.01 -0.66,0.08 -0.66,0.42 v 4.17 z"
         id="path5996" /></g>    <path
       sodipodi:nodetypes="cccccccccccc"
       inkscape:connector-curvature="0"
       id="path6056"
       d="m 280,787.36088 0,31.6709 -5,2.41998 10,5 -10,5 10,5 -10,5 10,5 -10.14251,5.02528 9.79881,5 -4.6563,2.55474 0,23.3291"
       style="fill:none;stroke:#000000;stroke-width:1;stroke-linecap:butt;stroke-linejoin:round;stroke-miterlimit:4;stroke-opacity:1;stroke-dasharray:none" />
    <path
       transform="matrix(0.66666667,0,0,0.66666667,196.76638,678.3487)"
       d="m 188,163.46457 c 0,1.65685 -1.34315,3 -3,3 -1.65685,0 -3,-1.34315 -3,-3 0,-1.65686 1.34315,-3 3,-3 1.65685,0 3,1.34314 3,3 z"
       sodipodi:ry="3"
       sodipodi:rx="3"
       sodipodi:cy="163.46457"
       sodipodi:cx="185"
       id="path3779"
       style="fill:#ffffff;stroke:#000000;stroke-width:1.06299212;stroke-miterlimit:4;stroke-dasharray:none"
       sodipodi:type="arc" />
    <path
       sodipodi:type="arc"
       style="fill:#ffffff;stroke:#000000;stroke-width:1.06299212;stroke-miterlimit:4;stroke-dasharray:none"
       id="path5066"
       sodipodi:cx="185"
       sodipodi:cy="163.46457"
       sodipodi:rx="3"
       sodipodi:ry="3"
       d="m 188,163.46457 c 0,1.65685 -1.34315,3 -3,3 -1.65685,0 -3,-1.34315 -3,-3 0,-1.65686 1.34315,-3 3,-3 1.65685,0 3,1.34314 3,3 z"
       transform="matrix(0.66666667,0,0,0.66666667,196.72098,773.3845)" />
    <path
       style="fill:none;stroke:#000000;stroke-width:0.80000001;stroke-linecap:butt;stroke-linejoin:miter;stroke-miterlimit:4;stroke-opacity:1;stroke-dasharray:none;marker-end:url(#Arrow1Mend)"
       d="m 145.61888,778.03737 15.07215,0"
       id="path6416"
       inkscape:connector-curvature="0" />
    <path
       inkscape:connector-curvature="0"
       id="path6424"
       d="m 271.89322,789.40915 0,15.07215"
       style="fill:none;stroke:#000000;stroke-width:0.80000001;stroke-linecap:butt;stroke-linejoin:miter;stroke-miterlimit:4;stroke-opacity:1;stroke-dasharray:none;marker-end:url(#Arrow1Mend)" />
    <path
       transform="translate(-10,0)"
       sodipodi:type="arc"
       id="path6765"
       style="fill:#000000;stroke:none"
       sodipodi:cx="290"
       sodipodi:cy="787.3609"
       sodipodi:rx="2.5"
       sodipodi:ry="2.5"
       d="m 292.5,787.3609 c 0,1.38071 -1.11929,2.5 -2.5,2.5 -1.38071,0 -2.5,-1.11929 -2.5,-2.5 0,-1.38071 1.11929,-2.5 2.5,-2.5 1.38071,0 2.5,1.11929 2.5,2.5 z" />
    <path
       transform="translate(-10,0)"
       sodipodi:type="arc"
       id="path6767"
       style="fill:#000000;stroke:none"
       sodipodi:cx="290"
       sodipodi:cy="882.3609"
       sodipodi:rx="2.5"
       sodipodi:ry="2.5"
       d="m 292.5,882.3609 c 0,1.38071 -1.11929,2.5 -2.5,2.5 -1.38071,0 -2.5,-1.11929 -2.5,-2.5 0,-1.38071 1.11929,-2.5 2.5,-2.5 1.38071,0 2.5,1.11929 2.5,2.5 z" />
    <g
       style="font-style:normal;font-variant:normal;font-weight:normal;font-stretch:normal;letter-spacing:normal;word-spacing:normal;text-anchor:start;fill:none;stroke:#000000;stroke-width:1;stroke-linecap:butt;stroke-linejoin:miter;stroke-miterlimit:10.43299961;stroke-opacity:1;stroke-dasharray:none;stroke-dashoffset:0"
       ns0:preamble="/home/sriranga/Desktop/MCT/package.tex"
       ns0:text="$V_{s}$\\\\\n$25 \\, V$"
       text-anchor="start"
       word-spacing="normal"
       letter-spacing="normal"
       font-size-adjust="none"
       font-stretch="normal"
       font-weight="normal"
       font-variant="normal"
       font-style="normal"
       fill-opacity="1"
       fill-rule="evenodd"
       fill="none"
       stroke-opacity="1"
       stroke-dashoffset="0"
       stroke-dasharray="none"
       stroke-miterlimit="10.433"
       stroke-linejoin="miter"
       stroke-linecap="butt"
       stroke="black"
       xml:space="preserve"
       transform="matrix(1.2,0,0,-1.2,-229.18196,1692.6057)"
       id="g8438"><path
         id="path8440"
         fill="black"
         stroke-width="0"
         d="M230.28,713.61 H228.43 V713.45 C228.87,713.4,229.05,713.3,229.05,713.11 C229.05,712.93,228.86,712.5,228.54,711.93 L226.49,708.4 L225.83,712.8 C225.82,712.85,225.82,712.89,225.82,712.95 C225.82,713.28,225.96,713.38,226.59,713.45 V713.61 H224.19 V713.45 C224.74,713.38,224.76,713.35,224.97,712.11 L225.82,706.95 H226.01 L229.72,713.05 C229.89,713.32,230.05,713.44,230.28,713.45 Z " /><path
         id="path8442"
         fill="black"
         stroke-width="0"
         d="M230.12,706.65 L229.98,705.54 H230.09 C230.15,705.65,230.19,705.69,230.26,705.69 C230.34,705.69,230.46,705.66,230.6,705.62 C230.75,705.58,230.87,705.55,230.98,705.55 C231.57,705.55,231.99,705.93,231.99,706.46 C231.99,706.72,231.84,707.03,231.51,707.43 C231.25,707.76,231.14,707.97,231.14,708.16 C231.14,708.39,231.28,708.54,231.53,708.54 C231.89,708.54,232.1,708.28,232.17,707.74 H232.28 L232.42,708.71 H232.32 C232.26,708.61,232.21,708.58,232.11,708.58 C232.06,708.58,231.99,708.59,231.86,708.63 C231.69,708.68,231.58,708.7,231.47,708.7 C230.96,708.7,230.63,708.4,230.63,707.93 C230.63,707.71,230.77,707.41,231.07,707.04 C231.34,706.68,231.46,706.44,231.46,706.24 C231.46,705.92,231.25,705.7,230.94,705.7 C230.56,705.7,230.34,705.99,230.23,706.65 Z " /><path
         id="path8444"
         fill="black"
         stroke-width="0"
         d="M228.16,696.53 L228.03,696.58 C227.66,696.01,227.53,695.92,227.08,695.92 H224.71 L226.38,697.67 C227.26,698.6,227.65,699.35,227.65,700.13 C227.65,701.12,226.85,701.89,225.81,701.89 C225.26,701.89,224.74,701.67,224.38,701.27 C224.06,700.93,223.91,700.61,223.74,699.91 L223.95,699.86 C224.35,700.83,224.71,701.15,225.39,701.15 C226.23,701.15,226.79,700.58,226.79,699.75 C226.79,698.97,226.34,698.05,225.5,697.17 L223.73,695.29 V695.17 H227.61 Z " /><path
         id="path8446"
         fill="black"
         stroke-width="0"
         d="M230.21,700.96 H232.16 C232.32,700.96,232.36,700.98,232.39,701.05 L232.77,701.93 L232.68,702 C232.53,701.8,232.43,701.75,232.22,701.75 H230.15 L229.06,699.39 C229.05,699.37,229.05,699.36,229.05,699.34 C229.05,699.29,229.09,699.26,229.17,699.26 C229.49,699.26,229.89,699.19,230.29,699.06 C231.44,698.7,231.96,698.08,231.96,697.1 C231.96,696.14,231.36,695.4,230.58,695.4 C230.38,695.4,230.21,695.47,229.92,695.69 C229.6,695.91,229.37,696.01,229.16,696.01 C228.87,696.01,228.73,695.9,228.73,695.65 C228.73,695.27,229.2,695.03,229.95,695.03 C230.78,695.03,231.5,695.3,231.99,695.81 C232.45,696.25,232.66,696.82,232.66,697.57 C232.66,698.29,232.47,698.75,231.98,699.24 C231.54,699.68,230.97,699.91,229.8,700.12 Z " /><path
         id="path8448"
         fill="black"
         stroke-width="0"
         d="M241.9,701.66 H240.05 V701.5 C240.5,701.45,240.68,701.35,240.68,701.16 C240.68,700.97,240.49,700.54,240.16,699.98 L238.11,696.44 L237.45,700.84 C237.44,700.89,237.44,700.93,237.44,700.99 C237.44,701.33,237.58,701.43,238.21,701.5 V701.66 H235.81 V701.5 C236.37,701.43,236.39,701.4,236.6,700.16 L237.44,694.99 H237.63 L241.34,701.1 C241.51,701.37,241.67,701.49,241.9,701.5 Z " /></g>    <g
       id="g8631"
       transform="matrix(1.2,0,0,-1.2,-164.04738,1654.4843)"
       xml:space="preserve"
       stroke="black"
       stroke-linecap="butt"
       stroke-linejoin="miter"
       stroke-miterlimit="10.433"
       stroke-dasharray="none"
       stroke-dashoffset="0"
       stroke-opacity="1"
       fill="none"
       fill-rule="evenodd"
       fill-opacity="1"
       font-style="normal"
       font-variant="normal"
       font-weight="normal"
       font-stretch="normal"
       font-size-adjust="none"
       letter-spacing="normal"
       word-spacing="normal"
       text-anchor="start"
       ns0:text="$375 \\, \\Omega$"
       ns0:preamble="/home/sriranga/Desktop/MCT/package.tex"
       style="font-style:normal;font-variant:normal;font-weight:normal;font-stretch:normal;letter-spacing:normal;word-spacing:normal;text-anchor:start;fill:none;stroke:#000000;stroke-width:1;stroke-linecap:butt;stroke-linejoin:miter;stroke-miterlimit:10.43299961;stroke-opacity:1;stroke-dasharray:none;stroke-dashoffset:0"><path
         d="M224.95,710.4 L225.01,710.4 L225.06,710.4 L225.11,710.4 L225.16,710.4 L225.2,710.4 L225.25,710.4 L225.29,710.4 L225.33,710.4 L225.37,710.4 L225.41,710.4 L225.45,710.39 L225.48,710.39 L225.52,710.39 L225.55,710.39 L225.58,710.38 L225.61,710.38 L225.64,710.38 L225.67,710.38 L225.7,710.37 L225.72,710.37 L225.75,710.36 L225.78,710.36 L225.83,710.35 L225.87,710.34 L225.92,710.32 L225.96,710.31 L226.01,710.29 C226.63,710.08,227.01,709.51,227.01,708.82 C227.01,707.99,226.45,707.34,225.71,707.34 C225.44,707.34,225.24,707.41,224.88,707.65 C224.58,707.83,224.41,707.9,224.24,707.9 C224.01,707.9,223.86,707.76,223.86,707.55 C223.86,707.2,224.29,706.99,224.98,706.99 C225.75,706.99,226.54,707.24,227,707.65 C227.47,708.06,227.73,708.64,227.73,709.3 C227.73,709.81,227.57,710.27,227.28,710.58 C227.08,710.8,226.89,710.92,226.46,711.11 C227.14,711.58,227.39,711.94,227.39,712.48 C227.39,713.28,226.76,713.84,225.84,713.84 C225.34,713.84,224.9,713.67,224.55,713.35 C224.25,713.09,224.1,712.83,223.88,712.23 L224.03,712.19 C224.44,712.92,224.88,713.24,225.51,713.24 C226.16,713.24,226.61,712.81,226.61,712.18 C226.61,711.82,226.46,711.47,226.21,711.22 C225.91,710.92,225.63,710.77,224.95,710.53 Z "
         stroke-width="0"
         fill="black"
         id="path8633" /><path
         d="M232.88,713.7 H229.2 L228.61,712.24 L228.78,712.16 C229.21,712.84,229.39,712.97,229.94,712.97 H232.1 L230.12,707.05 H230.77 L232.88,713.54 Z "
         stroke-width="0"
         fill="black"
         id="path8635" /><path
         d="M235.2,712.92 H237.15 C237.3,712.92,237.34,712.94,237.37,713.01 L237.75,713.89 L237.66,713.96 C237.51,713.75,237.41,713.7,237.21,713.7 H235.13 L234.04,711.35 C234.03,711.33,234.03,711.32,234.03,711.3 C234.03,711.25,234.07,711.22,234.15,711.22 C234.47,711.22,234.87,711.15,235.27,711.02 C236.42,710.65,236.95,710.04,236.95,709.05 C236.95,708.1,236.34,707.35,235.56,707.35 C235.37,707.35,235.2,707.42,234.9,707.64 C234.58,707.87,234.35,707.97,234.14,707.97 C233.85,707.97,233.71,707.85,233.71,707.6 C233.71,707.22,234.18,706.99,234.93,706.99 C235.76,706.99,236.48,707.25,236.98,707.76 C237.43,708.21,237.64,708.77,237.64,709.53 C237.64,710.24,237.45,710.7,236.96,711.2 C236.52,711.64,235.95,711.86,234.78,712.07 Z "
         stroke-width="0"
         fill="black"
         id="path8637" /><path
         d="M247.14,707.12 V708.65 H246.96 C246.94,708.14,246.65,708.03,246.2,708.03 H244.84 L244.89,708.36 C246.15,708.72,246.91,709.71,246.91,711.03 C246.91,712.83,245.46,713.85,243.77,713.85 C242.09,713.85,240.57,712.78,240.57,710.99 C240.57,709.78,241.37,708.59,242.61,708.36 L242.62,708.03 H241.3 C240.82,708.03,240.54,708.13,240.5,708.65 H240.32 V707.12 H243.05 L242.95,708.59 C241.93,708.96,241.71,709.99,241.71,710.97 C241.71,712.19,242.36,713.5,243.75,713.5 C245.18,713.5,245.8,712.14,245.8,710.9 C245.8,709.95,245.57,708.91,244.54,708.59 L244.41,707.12 Z "
         stroke-width="0"
         fill="black"
         id="path8639" /></g>    <g
       style="font-style:normal;font-variant:normal;font-weight:normal;font-stretch:normal;letter-spacing:normal;word-spacing:normal;text-anchor:start;fill:none;stroke:#000000;stroke-width:1;stroke-linecap:butt;stroke-linejoin:miter;stroke-miterlimit:10.43299961;stroke-opacity:1;stroke-dasharray:none;stroke-dashoffset:0"
       ns0:preamble="/home/sriranga/Desktop/MCT/package.tex"
       ns0:text="$V_{Z}=10 V$"
       word-spacing="normal"
       letter-spacing="normal"
       font-size-adjust="none"
       font-stretch="normal"
       font-weight="normal"
       font-variant="normal"
       font-style="normal"
       stroke-miterlimit="10.433"
       xml:space="preserve"
       transform="matrix(1.2,0,0,-1.2,-63.882989,1689.0137)"
       id="g9193"><path
         id="path9195"
         d="m 230.28,713.61 h -1.85 v -0.16 c 0.44,-0.05 0.62,-0.15 0.62,-0.34 0,-0.18 -0.19,-0.61 -0.51,-1.18 l -2.05,-3.53 -0.66,4.4 c -0.01,0.05 -0.01,0.09 -0.01,0.15 0,0.33 0.14,0.43 0.77,0.5 v 0.16 h -2.4 v -0.16 c 0.55,-0.07 0.57,-0.1 0.78,-1.34 l 0.85,-5.16 h 0.19 l 3.71,6.1 c 0.17,0.27 0.33,0.39 0.56,0.4 z"
         inkscape:connector-curvature="0"
         style="fill:#000000;stroke-width:0" /><path
         id="path9197"
         d="m 233.74,710.17 h -3.39 l -0.32,-1.01 0.14,-0.04 c 0.14,0.31 0.23,0.43 0.36,0.54 0.2,0.17 0.57,0.26 1.09,0.26 h 1.19 l -3.33,-4.19 v -0.1 h 3.51 l 0.38,1.17 -0.13,0.02 c -0.23,-0.44 -0.35,-0.61 -0.59,-0.74 -0.23,-0.14 -0.58,-0.2 -1.15,-0.2 h -1.12 l 3.36,4.19 z"
         inkscape:connector-curvature="0"
         style="fill:#000000;stroke-width:0" /><polygon
         id="polygon9199"
         points="242.72,710.96 237.63,710.96 237.63,710.4 242.72,710.4 "
         style="fill:#000000;stroke-width:0" /><polygon
         id="polygon9201"
         points="242.72,708.94 237.63,708.94 237.63,708.39 242.72,708.39 "
         style="fill:#000000;stroke-width:0" /><path
         id="path9203"
         d="m 249.01,713.84 -1.79,-0.9 v -0.14 c 0.12,0.05 0.23,0.09 0.27,0.11 0.18,0.07 0.35,0.11 0.44,0.11 0.21,0 0.3,-0.15 0.3,-0.47 v -4.5 c 0,-0.33 -0.08,-0.56 -0.24,-0.65 -0.14,-0.09 -0.28,-0.12 -0.7,-0.13 v -0.15 h 2.74 v 0.15 c -0.78,0.01 -0.94,0.11 -0.94,0.59 v 5.96 z"
         inkscape:connector-curvature="0"
         style="fill:#000000;stroke-width:0" /><path
         id="path9205"
         d="m 253.62,713.84 -0.05,0 -0.05,0 -0.05,0 -0.05,-0.01 -0.05,0 -0.04,-0.01 -0.05,0 -0.05,-0.01 -0.04,-0.01 -0.05,-0.01 -0.04,-0.01 -0.04,-0.01 -0.05,-0.01 -0.04,-0.02 -0.04,-0.01 -0.04,-0.02 -0.04,-0.01 -0.04,-0.02 -0.04,-0.02 -0.04,-0.02 -0.04,-0.02 -0.04,-0.02 -0.04,-0.03 -0.03,-0.02 -0.04,-0.02 -0.04,-0.03 -0.03,-0.03 -0.04,-0.02 -0.04,-0.03 -0.03,-0.03 -0.04,-0.03 -0.03,-0.04 c -0.58,-0.55 -0.96,-1.7 -0.96,-2.86 0,-1.08 0.33,-2.24 0.8,-2.8 0.37,-0.44 0.88,-0.67 1.45,-0.67 v 0.25 c -0.85,0 -1.29,1.07 -1.29,3.13 0,2.11 0.45,3.21 1.3,3.21 h 0 c 0.84,0 1.29,-1.12 1.29,-3.2 0,-2.07 -0.44,-3.14 -1.3,-3.14 v -0.25 c 0.51,0 0.94,0.17 1.3,0.51 0.57,0.55 0.95,1.7 0.95,2.9 0,2.04 -0.9,3.44 -2.21,3.44 z"
         inkscape:connector-curvature="0"
         style="fill:#000000;stroke-width:0" /><path
         id="path9207"
         d="m 262.92,713.61 h -1.85 v -0.16 c 0.45,-0.05 0.63,-0.15 0.63,-0.34 0,-0.18 -0.19,-0.61 -0.52,-1.18 l -2.05,-3.53 -0.65,4.4 c -0.02,0.05 -0.02,0.09 -0.02,0.15 0,0.33 0.14,0.43 0.77,0.5 v 0.16 h -2.4 v -0.16 c 0.56,-0.07 0.58,-0.1 0.79,-1.34 l 0.84,-5.16 h 0.19 l 3.71,6.1 c 0.17,0.27 0.33,0.39 0.56,0.4 z"
         inkscape:connector-curvature="0"
         style="fill:#000000;stroke-width:0" /></g>    <g
       style="font-style:normal;font-variant:normal;font-weight:normal;font-stretch:normal;letter-spacing:normal;word-spacing:normal;text-anchor:start;fill:none;stroke:#000000;stroke-width:1;stroke-linecap:butt;stroke-linejoin:miter;stroke-miterlimit:10.43299961;stroke-opacity:1;stroke-dasharray:none;stroke-dashoffset:0"
       ns0:preamble="/home/sriranga/Desktop/MCT/package.tex"
       ns0:text="$R_{L}$\\\\\n$666.67 \\, \\Omega$"
       word-spacing="normal"
       letter-spacing="normal"
       font-size-adjust="none"
       font-stretch="normal"
       font-weight="normal"
       font-variant="normal"
       font-style="normal"
       stroke-miterlimit="10.433"
       xml:space="preserve"
       transform="matrix(1.2,0,0,-1.2,20.363705,1687.9747)"
       id="g9577"><path
         id="path9579"
         d="m 229.07,707.28 -0.04,0.01 -0.04,0 -0.03,0.01 -0.04,0 -0.04,0.01 -0.03,0.01 -0.03,0.01 -0.03,0.01 -0.03,0.01 -0.03,0.01 -0.03,0.01 -0.03,0.02 -0.03,0.01 -0.02,0.02 -0.03,0.02 -0.02,0.02 -0.03,0.02 -0.02,0.02 -0.02,0.03 -0.02,0.02 -0.02,0.03 -0.03,0.03 -0.02,0.03 -0.02,0.03 -0.01,0.04 -0.02,0.03 -0.02,0.04 -0.02,0.04 -0.02,0.04 -0.02,0.05 -0.02,0.04 -0.01,0.05 -0.93,2.43 c 0.77,0.17 1.1,0.31 1.45,0.63 0.33,0.29 0.51,0.67 0.51,1.12 0,0.92 -0.73,1.43 -2.07,1.43 l -0.21,-0.3 c 0.83,0 1.24,-0.37 1.24,-1.11 0,-0.98 -0.64,-1.49 -1.88,-1.49 -0.16,0 -0.27,0.01 -0.51,0.05 l 0.65,2.28 c 0.06,0.2 0.18,0.27 0.5,0.27 l 0.21,0.3 h -2.47 v -0.16 c 0.42,-0.06 0.47,-0.07 0.57,-0.14 0.08,-0.05 0.14,-0.16 0.14,-0.27 0,-0.12 -0.05,-0.36 -0.12,-0.63 l -1.22,-4.39 c -0.18,-0.59 -0.25,-0.65 -0.81,-0.74 v -0.16 h 2.43 v 0.16 c -0.61,0.08 -0.68,0.13 -0.68,0.46 0,0.1 0.03,0.23 0.12,0.58 l 0.56,2.07 0.65,-0.05 1.22,-3.22 h 1.47 z"
         inkscape:connector-curvature="0"
         style="fill:#000000;stroke-width:0" /><path
         id="path9581"
         d="m 232.5,710.17 h -1.9 v -0.11 c 0.43,-0.04 0.54,-0.1 0.54,-0.3 0,-0.1 -0.03,-0.26 -0.08,-0.43 l -0.86,-3.07 c -0.12,-0.41 -0.17,-0.45 -0.56,-0.52 v -0.11 h 3.54 l 0.41,1.25 -0.14,0.04 c -0.25,-0.5 -0.43,-0.73 -0.74,-0.88 -0.24,-0.12 -0.53,-0.16 -1.14,-0.16 -0.53,0 -0.7,0.06 -0.7,0.24 0,0.05 0.04,0.21 0.07,0.35 l 0.86,3.08 c 0.1,0.35 0.28,0.48 0.7,0.51 z"
         inkscape:connector-curvature="0"
         style="fill:#000000;stroke-width:0" /><path
         id="path9583"
         d="m 227.87,701.97 -0.11,-0.01 -0.1,-0.01 -0.1,-0.02 -0.09,-0.01 -0.09,-0.01 -0.09,-0.01 -0.09,-0.02 -0.09,-0.01 -0.08,-0.02 -0.08,-0.01 -0.08,-0.02 -0.08,-0.02 -0.07,-0.02 -0.08,-0.02 -0.14,-0.04 -0.14,-0.05 -0.14,-0.05 -0.13,-0.06 -0.13,-0.07 -0.13,-0.07 -0.13,-0.07 -0.13,-0.09 -0.07,-0.04 -0.07,-0.05 c -1.07,-0.76 -1.66,-1.9 -1.66,-3.23 0,-0.86 0.27,-1.74 0.7,-2.23 0.38,-0.44 0.91,-0.68 1.53,-0.68 1.23,0 2.09,0.94 2.09,2.31 0,1.28 -0.73,2.08 -1.87,2.08 -0.44,0 -0.65,-0.07 -1.28,-0.45 l 0.03,-0.25 c 0.21,0.16 0.52,0.25 0.87,0.25 h 0 c 0.86,0 1.35,-0.72 1.35,-1.96 0,-1.1 -0.39,-1.7 -1.08,-1.7 -0.88,0 -1.41,0.93 -1.41,2.47 0,0.51 0.07,0.79 0.27,0.94 l -0.03,0.25 c 0.27,1.5 1.39,2.58 2.95,2.84 z"
         inkscape:connector-curvature="0"
         style="fill:#000000;stroke-width:0" /><path
         id="path9585"
         d="m 232.85,701.97 -0.1,-0.01 -0.11,-0.01 -0.09,-0.02 -0.1,-0.01 -0.09,-0.01 -0.09,-0.01 -0.09,-0.02 -0.09,-0.01 -0.08,-0.02 -0.08,-0.01 -0.08,-0.02 -0.08,-0.02 -0.07,-0.02 -0.08,-0.02 -0.14,-0.04 -0.14,-0.05 -0.14,-0.05 -0.13,-0.06 -0.13,-0.07 -0.13,-0.07 -0.13,-0.07 -0.13,-0.09 -0.07,-0.04 -0.07,-0.05 c -1.07,-0.76 -1.66,-1.9 -1.66,-3.23 0,-0.86 0.27,-1.74 0.7,-2.23 0.38,-0.44 0.91,-0.68 1.53,-0.68 1.23,0 2.09,0.94 2.09,2.31 0,1.28 -0.73,2.08 -1.87,2.08 -0.44,0 -0.65,-0.07 -1.27,-0.45 l 0.03,-0.25 c 0.2,0.16 0.51,0.25 0.86,0.25 h 0 c 0.86,0 1.35,-0.72 1.35,-1.96 0,-1.1 -0.38,-1.7 -1.08,-1.7 -0.88,0 -1.41,0.93 -1.41,2.47 0,0.51 0.08,0.79 0.28,0.94 l -0.03,0.25 c 0.26,1.5 1.38,2.58 2.94,2.84 z"
         inkscape:connector-curvature="0"
         style="fill:#000000;stroke-width:0" /><path
         id="path9587"
         d="m 237.83,701.97 -0.1,-0.01 -0.1,-0.01 -0.1,-0.02 -0.1,-0.01 -0.09,-0.01 -0.09,-0.01 -0.09,-0.02 -0.09,-0.01 -0.08,-0.02 -0.08,-0.01 -0.08,-0.02 -0.08,-0.02 -0.07,-0.02 -0.08,-0.02 -0.14,-0.04 -0.14,-0.05 -0.13,-0.05 -0.14,-0.06 -0.13,-0.07 -0.13,-0.07 -0.13,-0.07 -0.13,-0.09 -0.07,-0.04 -0.07,-0.05 c -1.07,-0.76 -1.66,-1.9 -1.66,-3.23 0,-0.86 0.27,-1.74 0.7,-2.23 0.38,-0.44 0.92,-0.68 1.53,-0.68 1.24,0 2.09,0.94 2.09,2.31 0,1.28 -0.73,2.08 -1.87,2.08 -0.44,0 -0.65,-0.07 -1.27,-0.45 l 0.03,-0.25 c 0.21,0.16 0.51,0.25 0.86,0.25 h 0 c 0.86,0 1.35,-0.72 1.35,-1.96 0,-1.1 -0.38,-1.7 -1.08,-1.7 -0.87,0 -1.41,0.93 -1.41,2.47 0,0.51 0.08,0.79 0.28,0.94 l -0.03,0.25 c 0.27,1.5 1.38,2.58 2.94,2.84 z"
         inkscape:connector-curvature="0"
         style="fill:#000000;stroke-width:0" /><path
         id="path9589"
         d="m 240.18,695.6 0,0.03 -0.01,0.02 0,0.03 0,0.03 -0.01,0.03 -0.01,0.02 -0.01,0.03 -0.01,0.03 -0.01,0.02 -0.01,0.02 -0.02,0.03 -0.01,0.02 -0.02,0.02 -0.01,0.03 -0.02,0.02 -0.02,0.02 -0.02,0.01 -0.02,0.02 -0.02,0.02 -0.02,0.02 -0.03,0.01 -0.02,0.01 -0.02,0.02 -0.03,0.01 -0.02,0.01 -0.03,0.01 -0.02,0 -0.03,0.01 -0.03,0.01 -0.02,0 -0.03,0 -0.03,0 c -0.3,0 -0.55,-0.25 -0.55,-0.56 0,-0.38 0.34,-0.54 0.55,-0.54 0.21,0 0.56,0.17 0.56,0.54 z"
         inkscape:connector-curvature="0"
         style="fill:#000000;stroke-width:0" /><path
         id="path9591"
         d="m 245.3,701.97 -0.1,-0.01 -0.1,-0.01 -0.1,-0.02 -0.1,-0.01 -0.09,-0.01 -0.09,-0.01 -0.09,-0.02 -0.08,-0.01 -0.09,-0.02 -0.08,-0.01 -0.08,-0.02 -0.07,-0.02 -0.08,-0.02 -0.07,-0.02 -0.15,-0.04 -0.14,-0.05 -0.13,-0.05 -0.13,-0.06 -0.14,-0.07 -0.13,-0.07 -0.13,-0.07 -0.13,-0.09 -0.07,-0.04 -0.06,-0.05 c -1.08,-0.76 -1.66,-1.9 -1.66,-3.23 0,-0.86 0.26,-1.74 0.69,-2.23 0.38,-0.44 0.92,-0.68 1.53,-0.68 1.24,0 2.09,0.94 2.09,2.31 0,1.28 -0.72,2.08 -1.87,2.08 -0.44,0 -0.64,-0.07 -1.27,-0.45 l 0.03,-0.25 c 0.21,0.16 0.52,0.25 0.86,0.25 h 0 c 0.86,0 1.36,-0.72 1.36,-1.96 0,-1.1 -0.39,-1.7 -1.09,-1.7 -0.87,0 -1.41,0.93 -1.41,2.47 0,0.51 0.08,0.79 0.28,0.94 l -0.03,0.25 c 0.27,1.5 1.38,2.58 2.94,2.84 z"
         inkscape:connector-curvature="0"
         style="fill:#000000;stroke-width:0" /><path
         id="path9593"
         d="m 250.32,701.75 h -3.69 l -0.58,-1.46 0.17,-0.08 c 0.42,0.67 0.6,0.8 1.15,0.8 h 2.16 l -1.97,-5.92 h 0.65 l 2.11,6.5 z"
         inkscape:connector-curvature="0"
         style="fill:#000000;stroke-width:0" /><path
         id="path9595"
         d="m 259.59,695.17 v 1.52 h -0.17 c -0.03,-0.51 -0.31,-0.62 -0.77,-0.62 h -1.35 l 0.05,0.33 c 1.26,0.37 2.01,1.35 2.01,2.67 0,1.8 -1.45,2.83 -3.14,2.83 -1.68,0 -3.19,-1.08 -3.19,-2.87 0,-1.21 0.79,-2.39 2.04,-2.63 l 0.01,-0.33 h -1.33 c -0.47,0 -0.75,0.1 -0.79,0.62 h -0.18 v -1.52 h 2.73 l -0.11,1.46 c -1.02,0.38 -1.24,1.4 -1.24,2.38 0,1.23 0.66,2.54 2.04,2.54 1.43,0 2.05,-1.36 2.05,-2.6 0,-0.96 -0.23,-1.99 -1.25,-2.32 l -0.13,-1.46 z"
         inkscape:connector-curvature="0"
         style="fill:#000000;stroke-width:0" /></g>    <g
       id="g9772"
       transform="matrix(1.2,0,0,-1.2,32.99822,1677.8724)"
       xml:space="preserve"
       stroke-miterlimit="10.433"
       font-style="normal"
       font-variant="normal"
       font-weight="normal"
       font-stretch="normal"
       font-size-adjust="none"
       letter-spacing="normal"
       word-spacing="normal"
       ns0:text="$V_o=10V$"
       ns0:preamble="/home/sriranga/Desktop/MCT/package.tex"
       style="font-style:normal;font-variant:normal;font-weight:normal;font-stretch:normal;letter-spacing:normal;word-spacing:normal;text-anchor:start;fill:none;stroke:#000000;stroke-width:1;stroke-linecap:butt;stroke-linejoin:miter;stroke-miterlimit:10.43299961;stroke-opacity:1;stroke-dasharray:none;stroke-dashoffset:0"><path
         style="fill:#000000;stroke-width:0"
         inkscape:connector-curvature="0"
         d="m 230.28,713.61 h -1.85 v -0.16 c 0.44,-0.05 0.62,-0.15 0.62,-0.34 0,-0.18 -0.19,-0.61 -0.51,-1.18 l -2.05,-3.53 -0.66,4.4 c -0.01,0.05 -0.01,0.09 -0.01,0.15 0,0.33 0.14,0.43 0.77,0.5 v 0.16 h -2.4 v -0.16 c 0.55,-0.07 0.57,-0.1 0.78,-1.34 l 0.85,-5.16 h 0.19 l 3.71,6.1 c 0.17,0.27 0.33,0.39 0.56,0.4 z"
         id="path9774" /><path
         style="fill:#000000;stroke-width:0"
         inkscape:connector-curvature="0"
         d="m 231.78,708.7 -0.08,-0.15 c 0.3,0 0.49,-0.26 0.49,-0.65 0,-0.51 -0.23,-1.2 -0.53,-1.66 -0.26,-0.37 -0.53,-0.54 -0.82,-0.54 -0.33,0 -0.55,0.25 -0.55,0.63 0,0.52 0.2,1.13 0.55,1.62 0.27,0.39 0.56,0.6 0.86,0.6 h 0 l 0.08,0.15 c -1.04,0 -2.07,-1.08 -2.07,-2.17 0,-0.6 0.39,-0.98 1.02,-0.98 0.46,0 0.91,0.21 1.31,0.61 0.46,0.45 0.74,1.04 0.74,1.56 0,0.58 -0.41,0.98 -1,0.98 z"
         id="path9776" /><polygon
         style="fill:#000000;stroke-width:0"
         points="236.89,710.4 241.98,710.4 241.98,710.96 236.89,710.96 "
         id="polygon9778" /><polygon
         style="fill:#000000;stroke-width:0"
         points="236.89,708.39 241.98,708.39 241.98,708.94 236.89,708.94 "
         id="polygon9780" /><path
         style="fill:#000000;stroke-width:0"
         inkscape:connector-curvature="0"
         d="m 248.27,713.84 -1.79,-0.9 v -0.14 c 0.12,0.05 0.23,0.09 0.27,0.11 0.18,0.07 0.35,0.11 0.45,0.11 0.2,0 0.29,-0.15 0.29,-0.47 v -4.5 c 0,-0.33 -0.08,-0.56 -0.23,-0.65 -0.15,-0.09 -0.29,-0.12 -0.71,-0.13 v -0.15 h 2.74 v 0.15 c -0.78,0.01 -0.94,0.11 -0.94,0.59 v 5.96 z"
         id="path9782" /><path
         style="fill:#000000;stroke-width:0"
         inkscape:connector-curvature="0"
         d="m 252.88,713.84 -0.05,0 -0.05,0 -0.05,0 -0.05,-0.01 -0.04,0 -0.05,-0.01 -0.05,0 -0.04,-0.01 -0.05,-0.01 -0.04,-0.01 -0.05,-0.01 -0.04,-0.01 -0.05,-0.01 -0.04,-0.02 -0.04,-0.01 -0.04,-0.02 -0.04,-0.01 -0.04,-0.02 -0.04,-0.02 -0.04,-0.02 -0.04,-0.02 -0.04,-0.02 -0.04,-0.03 -0.03,-0.02 -0.04,-0.02 -0.04,-0.03 -0.03,-0.03 -0.04,-0.02 -0.04,-0.03 -0.03,-0.03 -0.04,-0.03 -0.03,-0.04 c -0.58,-0.55 -0.95,-1.7 -0.95,-2.86 0,-1.08 0.32,-2.24 0.79,-2.8 0.37,-0.44 0.88,-0.67 1.45,-0.67 v 0.25 c -0.85,0 -1.29,1.07 -1.29,3.13 0,2.11 0.45,3.21 1.3,3.21 h 0 c 0.84,0 1.29,-1.12 1.29,-3.2 0,-2.07 -0.44,-3.14 -1.3,-3.14 v -0.25 c 0.51,0 0.94,0.17 1.3,0.51 0.57,0.55 0.95,1.7 0.95,2.9 0,2.04 -0.9,3.44 -2.21,3.44 z"
         id="path9784" /><path
         style="fill:#000000;stroke-width:0"
         inkscape:connector-curvature="0"
         d="m 262.18,713.61 h -1.85 v -0.16 c 0.45,-0.05 0.63,-0.15 0.63,-0.34 0,-0.18 -0.19,-0.61 -0.52,-1.18 l -2.05,-3.53 -0.65,4.4 c -0.01,0.05 -0.01,0.09 -0.01,0.15 0,0.33 0.13,0.43 0.76,0.5 v 0.16 h -2.4 v -0.16 c 0.56,-0.07 0.58,-0.1 0.79,-1.34 l 0.85,-5.16 h 0.19 l 3.71,6.1 c 0.17,0.27 0.32,0.39 0.55,0.4 z"
         id="path9786" /></g>    <g
       style="font-style:normal;font-variant:normal;font-weight:normal;font-stretch:normal;letter-spacing:normal;word-spacing:normal;text-anchor:start;fill:none;stroke:#000000;stroke-width:1;stroke-linecap:butt;stroke-linejoin:miter;stroke-miterlimit:10.43299961;stroke-opacity:1;stroke-dasharray:none;stroke-dashoffset:0"
       ns0:preamble="/home/sriranga/Desktop/MCT/package.tex"
       ns0:text="$40$ mA"
       text-anchor="start"
       word-spacing="normal"
       letter-spacing="normal"
       font-size-adjust="none"
       font-stretch="normal"
       font-weight="normal"
       font-variant="normal"
       font-style="normal"
       fill-opacity="1"
       fill-rule="evenodd"
       fill="none"
       stroke-opacity="1"
       stroke-dashoffset="0"
       stroke-dasharray="none"
       stroke-miterlimit="10.433"
       stroke-linejoin="miter"
       stroke-linecap="butt"
       stroke="black"
       xml:space="preserve"
       transform="matrix(1.2,0,0,-1.2,-104.33374,1630.3375)"
       id="content"><polygon
         id="polygon3159"
         fill="black"
         stroke-width="0"
         points="228.13,709.42 227.11,709.42 227.11,713.84 226.68,713.84 223.55,709.42 223.95,709.42 226.34,712.83 226.34,709.42 223.95,709.42 223.55,709.42 223.55,708.78 226.35,708.78 226.35,707.12 227.11,707.12 227.11,708.78 228.13,708.78 " /><path
         id="path3161"
         fill="black"
         stroke-width="0"
         d="M230.94,713.84 L230.89,713.84 L230.84,713.84 L230.79,713.84 L230.74,713.83 L230.69,713.83 L230.65,713.82 L230.6,713.82 L230.55,713.81 L230.51,713.8 L230.46,713.79 L230.42,713.78 L230.37,713.77 L230.33,713.76 L230.29,713.74 L230.25,713.73 L230.21,713.71 L230.17,713.7 L230.13,713.68 L230.09,713.66 L230.05,713.64 L230.01,713.62 L229.97,713.6 L229.93,713.57 L229.89,713.55 L229.86,713.53 L229.82,713.5 L229.78,713.47 L229.75,713.45 L229.71,713.42 L229.68,713.39 L229.64,713.36 L229.61,713.32 C229.03,712.77,228.65,711.62,228.65,710.46 C228.65,709.38,228.98,708.22,229.45,707.66 C229.82,707.22,230.32,706.99,230.9,706.99 V707.24 C230.04,707.24,229.61,708.31,229.61,710.37 C229.61,712.48,230.05,713.58,230.91,713.58 H230.91 C231.75,713.58,232.19,712.46,232.19,710.38 C232.19,708.31,231.76,707.24,230.9,707.24 V706.99 C231.41,706.99,231.84,707.16,232.19,707.5 C232.77,708.05,233.15,709.2,233.15,710.4 C233.15,712.44,232.24,713.84,230.94,713.84 Z " /><path
         id="path3163"
         fill="black"
         stroke-width="0"
         d="M236.07,711.08 L236.09,711.08 L236.1,711.08 L236.11,711.09 L236.12,711.09 L236.13,711.09 L236.14,711.09 L236.16,711.1 L236.18,711.1 L236.2,711.1 L236.22,711.11 L236.24,711.11 L236.26,711.11 L236.28,711.11 L236.3,711.11 L236.32,711.12 L236.33,711.12 L236.35,711.12 L236.37,711.12 L236.39,711.12 C236.65,711.12,236.74,710.96,236.74,710.48 V707.97 C236.74,707.43,236.6,707.28,236.04,707.27 V707.12 H238.25 V707.27 C237.73,707.29,237.58,707.4,237.58,707.79 V710.59 C237.58,710.61,237.66,710.71,237.73,710.78 C237.98,711.01,238.4,711.18,238.75,711.18 C239.19,711.18,239.41,710.83,239.41,710.14 V707.98 C239.41,707.42,239.3,707.31,238.73,707.27 V707.12 H240.96 V707.27 C240.39,707.28,240.24,707.45,240.24,708.07 V710.57 C240.54,711,240.87,711.18,241.33,711.18 C241.9,711.18,242.07,710.91,242.07,710.09 V707.99 C242.07,707.42,241.99,707.34,241.42,707.27 V707.12 H243.6 V707.27 L243.34,707.29 C243.04,707.31,242.91,707.49,242.91,707.88 V709.93 C242.91,711.1,242.52,711.7,241.76,711.7 C241.18,711.7,240.67,711.44,240.13,710.86 C239.95,711.43,239.62,711.7,239.08,711.7 C238.64,711.7,238.36,711.55,237.54,710.93 V711.67 L237.47,711.7 C236.96,711.51,236.62,711.4,236.07,711.25 Z " /><path
         id="path3165"
         fill="black"
         stroke-width="0"
         d="M250.66,707.31 L250.62,707.32 L250.58,707.32 L250.54,707.32 L250.51,707.33 L250.47,707.34 L250.44,707.34 L250.41,707.35 L250.38,707.36 L250.35,707.37 L250.32,707.38 L250.3,707.39 L250.27,707.41 L250.25,707.42 L250.22,707.44 L250.2,707.46 L250.18,707.48 L250.15,707.51 L250.13,707.53 L250.11,707.56 L250.08,707.59 L250.06,707.62 L250.04,707.66 L250.01,707.7 L249.99,707.74 L249.96,707.78 L249.94,707.83 L249.91,707.88 L249.89,707.93 L249.86,707.99 L249.83,708.05 L249.81,708.08 L249.8,708.11 L249.78,708.14 L249.76,708.18 L247.29,713.82 H247.09 L245.02,708.94 C244.38,707.49,244.26,707.33,243.79,707.31 V707.12 H245.76 V707.31 C245.28,707.31,245.08,707.44,245.08,707.72 C245.08,707.84,245.11,707.98,245.16,708.11 L245.62,709.27 H248.22 L248.08,709.68 H245.79 L246.93,712.41 L248.08,709.68 L248.22,709.27 L248.63,708.32 C248.75,708.05,248.82,707.79,248.82,707.65 C248.82,707.4,248.65,707.32,248.12,707.31 V707.12 H250.66 Z " /></g>    <g
       id="g3346"
       transform="matrix(1.2,0,0,-1.2,-74.701635,1663.8181)"
       xml:space="preserve"
       stroke="black"
       stroke-linecap="butt"
       stroke-linejoin="miter"
       stroke-miterlimit="10.433"
       stroke-dasharray="none"
       stroke-dashoffset="0"
       stroke-opacity="1"
       fill="none"
       fill-rule="evenodd"
       fill-opacity="1"
       font-style="normal"
       font-variant="normal"
       font-weight="normal"
       font-stretch="normal"
       font-size-adjust="none"
       letter-spacing="normal"
       word-spacing="normal"
       text-anchor="start"
       ns0:text="$25$ mA"
       ns0:preamble="/home/sriranga/Desktop/MCT/package.tex"
       style="font-style:normal;font-variant:normal;font-weight:normal;font-stretch:normal;letter-spacing:normal;word-spacing:normal;text-anchor:start;fill:none;stroke:#000000;stroke-width:1;stroke-linecap:butt;stroke-linejoin:miter;stroke-miterlimit:10.43299961;stroke-opacity:1;stroke-dasharray:none;stroke-dashoffset:0"><path
         d="M228.16,708.49 L228.03,708.54 C227.66,707.97,227.53,707.88,227.08,707.88 H224.71 L226.38,709.63 C227.26,710.55,227.65,711.31,227.65,712.08 C227.65,713.08,226.85,713.84,225.81,713.84 C225.26,713.84,224.74,713.62,224.38,713.22 C224.06,712.89,223.91,712.57,223.74,711.86 L223.95,711.81 C224.35,712.79,224.71,713.1,225.39,713.1 C226.23,713.1,226.79,712.54,226.79,711.71 C226.79,710.93,226.34,710.01,225.5,709.12 L223.73,707.24 V707.12 H227.61 Z "
         stroke-width="0"
         fill="black"
         id="path3348" /><path
         d="M230.21,712.92 H232.16 C232.32,712.92,232.36,712.94,232.39,713.01 L232.77,713.89 L232.68,713.96 C232.53,713.75,232.43,713.7,232.22,713.7 H230.15 L229.06,711.35 C229.05,711.33,229.05,711.32,229.05,711.3 C229.05,711.25,229.09,711.22,229.17,711.22 C229.49,711.22,229.89,711.15,230.29,711.02 C231.44,710.65,231.96,710.04,231.96,709.05 C231.96,708.1,231.36,707.35,230.58,707.35 C230.38,707.35,230.21,707.42,229.92,707.64 C229.6,707.87,229.37,707.97,229.16,707.97 C228.87,707.97,228.73,707.85,228.73,707.6 C228.73,707.22,229.2,706.99,229.95,706.99 C230.78,706.99,231.5,707.25,231.99,707.76 C232.45,708.21,232.66,708.77,232.66,709.53 C232.66,710.24,232.47,710.7,231.98,711.2 C231.54,711.64,230.97,711.86,229.8,712.07 Z "
         stroke-width="0"
         fill="black"
         id="path3350" /><path
         d="M236.07,711.08 L236.09,711.08 L236.1,711.08 L236.11,711.09 L236.12,711.09 L236.13,711.09 L236.14,711.09 L236.16,711.1 L236.18,711.1 L236.2,711.1 L236.22,711.11 L236.24,711.11 L236.26,711.11 L236.28,711.11 L236.3,711.11 L236.32,711.12 L236.33,711.12 L236.35,711.12 L236.37,711.12 L236.39,711.12 C236.65,711.12,236.74,710.96,236.74,710.48 V707.97 C236.74,707.43,236.6,707.28,236.04,707.27 V707.12 H238.25 V707.27 C237.73,707.29,237.58,707.4,237.58,707.79 V710.59 C237.58,710.61,237.66,710.71,237.73,710.78 C237.98,711.01,238.4,711.18,238.75,711.18 C239.19,711.18,239.41,710.83,239.41,710.14 V707.98 C239.41,707.42,239.3,707.31,238.73,707.27 V707.12 H240.96 V707.27 C240.39,707.28,240.24,707.45,240.24,708.07 V710.57 C240.54,711,240.87,711.18,241.33,711.18 C241.9,711.18,242.07,710.91,242.07,710.09 V707.99 C242.07,707.42,241.99,707.34,241.42,707.27 V707.12 H243.6 V707.27 L243.34,707.29 C243.04,707.31,242.91,707.49,242.91,707.88 V709.93 C242.91,711.1,242.52,711.7,241.76,711.7 C241.18,711.7,240.67,711.44,240.13,710.86 C239.95,711.43,239.62,711.7,239.08,711.7 C238.64,711.7,238.36,711.55,237.54,710.93 V711.67 L237.47,711.7 C236.96,711.51,236.62,711.4,236.07,711.25 Z "
         stroke-width="0"
         fill="black"
         id="path3352" /><path
         d="M250.66,707.31 L250.62,707.32 L250.58,707.32 L250.54,707.32 L250.51,707.33 L250.47,707.34 L250.44,707.34 L250.41,707.35 L250.38,707.36 L250.35,707.37 L250.32,707.38 L250.3,707.39 L250.27,707.41 L250.25,707.42 L250.22,707.44 L250.2,707.46 L250.18,707.48 L250.15,707.51 L250.13,707.53 L250.11,707.56 L250.08,707.59 L250.06,707.62 L250.04,707.66 L250.01,707.7 L249.99,707.74 L249.96,707.78 L249.94,707.83 L249.91,707.88 L249.89,707.93 L249.86,707.99 L249.83,708.05 L249.81,708.08 L249.8,708.11 L249.78,708.14 L249.76,708.18 L247.29,713.82 H247.09 L245.02,708.94 C244.38,707.49,244.26,707.33,243.79,707.31 V707.12 H245.76 V707.31 C245.28,707.31,245.08,707.44,245.08,707.72 C245.08,707.84,245.11,707.98,245.16,708.11 L245.62,709.27 H248.22 L248.08,709.68 H245.79 L246.93,712.41 L248.08,709.68 L248.22,709.27 L248.63,708.32 C248.75,708.05,248.82,707.79,248.82,707.65 C248.82,707.4,248.65,707.32,248.12,707.31 V707.12 H250.66 Z "
         stroke-width="0"
         fill="black"
         id="path3354" /></g>    <g
       style="font-style:normal;font-variant:normal;font-weight:normal;font-stretch:normal;letter-spacing:normal;word-spacing:normal;text-anchor:start;fill:none;stroke:#000000;stroke-width:1;stroke-linecap:butt;stroke-linejoin:miter;stroke-miterlimit:10.43299961;stroke-opacity:1;stroke-dasharray:none;stroke-dashoffset:0"
       ns0:preamble="/home/sriranga/Desktop/MCT/package.tex"
       ns0:text="$15$ mA"
       word-spacing="normal"
       letter-spacing="normal"
       font-size-adjust="none"
       font-stretch="normal"
       font-weight="normal"
       font-variant="normal"
       font-style="normal"
       stroke-miterlimit="10.433"
       xml:space="preserve"
       transform="matrix(1.2,0,0,-1.2,-21.90896,1663.5169)"
       id="g3535"><path
         id="path3537"
         d="m 226.33,713.84 -1.79,-0.9 v -0.14 c 0.12,0.05 0.22,0.09 0.26,0.11 0.18,0.07 0.35,0.11 0.45,0.11 0.21,0 0.3,-0.15 0.3,-0.47 v -4.5 c 0,-0.33 -0.08,-0.56 -0.24,-0.65 -0.15,-0.09 -0.29,-0.12 -0.7,-0.13 v -0.15 h 2.74 v 0.15 c -0.78,0.01 -0.94,0.11 -0.94,0.59 v 5.96 z"
         inkscape:connector-curvature="0"
         style="fill:#000000;stroke-width:0" /><path
         id="path3539"
         d="m 230.21,712.92 h 1.95 c 0.16,0 0.2,0.02 0.23,0.09 l 0.38,0.88 -0.09,0.07 c -0.15,-0.21 -0.25,-0.26 -0.46,-0.26 h -2.07 l -1.09,-2.35 c -0.01,-0.02 -0.01,-0.03 -0.01,-0.05 0,-0.05 0.04,-0.08 0.12,-0.08 0.32,0 0.72,-0.07 1.12,-0.2 1.15,-0.37 1.67,-0.98 1.67,-1.97 0,-0.95 -0.6,-1.7 -1.38,-1.7 -0.2,0 -0.37,0.07 -0.66,0.29 -0.32,0.23 -0.55,0.33 -0.76,0.33 -0.29,0 -0.43,-0.12 -0.43,-0.37 0,-0.38 0.47,-0.61 1.22,-0.61 0.83,0 1.55,0.26 2.04,0.77 0.46,0.45 0.67,1.01 0.67,1.77 0,0.71 -0.19,1.17 -0.68,1.67 -0.44,0.44 -1.01,0.66 -2.18,0.87 z"
         inkscape:connector-curvature="0"
         style="fill:#000000;stroke-width:0" /><path
         id="path3541"
         d="m 236.07,711.08 0.02,0 0.01,0 0.01,0.01 0.01,0 0.01,0 0.01,0 0.02,0.01 0.02,0 0.02,0 0.02,0.01 0.02,0 0.02,0 0.02,0 0.02,0 0.02,0.01 0.01,0 0.02,0 0.02,0 0.02,0 c 0.26,0 0.35,-0.16 0.35,-0.64 v -2.51 c 0,-0.54 -0.14,-0.69 -0.7,-0.7 v -0.15 h 2.21 v 0.15 c -0.52,0.02 -0.67,0.13 -0.67,0.52 v 2.8 c 0,0.02 0.08,0.12 0.15,0.19 0.25,0.23 0.67,0.4 1.02,0.4 0.44,0 0.66,-0.35 0.66,-1.04 v -2.16 c 0,-0.56 -0.11,-0.67 -0.68,-0.71 v -0.15 h 2.23 v 0.15 c -0.57,0.01 -0.72,0.18 -0.72,0.8 v 2.5 c 0.3,0.43 0.63,0.61 1.09,0.61 0.57,0 0.74,-0.27 0.74,-1.09 v -2.1 c 0,-0.57 -0.08,-0.65 -0.65,-0.72 v -0.15 h 2.18 v 0.15 l -0.26,0.02 c -0.3,0.02 -0.43,0.2 -0.43,0.59 v 2.05 c 0,1.17 -0.39,1.77 -1.15,1.77 -0.58,0 -1.09,-0.26 -1.63,-0.84 -0.18,0.57 -0.51,0.84 -1.05,0.84 -0.44,0 -0.72,-0.15 -1.54,-0.77 v 0.74 l -0.07,0.03 c -0.51,-0.19 -0.85,-0.3 -1.4,-0.45 z"
         inkscape:connector-curvature="0"
         style="fill:#000000;stroke-width:0" /><path
         id="path3543"
         d="m 250.66,707.31 -0.04,0.01 -0.04,0 -0.04,0 -0.03,0.01 -0.04,0.01 -0.03,0 -0.03,0.01 -0.03,0.01 -0.03,0.01 -0.03,0.01 -0.02,0.01 -0.03,0.02 -0.02,0.01 -0.03,0.02 -0.02,0.02 -0.02,0.02 -0.03,0.03 -0.02,0.02 -0.02,0.03 -0.03,0.03 -0.02,0.03 -0.02,0.04 -0.03,0.04 -0.02,0.04 -0.03,0.04 -0.02,0.05 -0.03,0.05 -0.02,0.05 -0.03,0.06 -0.03,0.06 -0.02,0.03 -0.01,0.03 -0.02,0.03 -0.02,0.04 -2.47,5.64 h -0.2 l -2.07,-4.88 c -0.64,-1.45 -0.76,-1.61 -1.23,-1.63 v -0.19 h 1.97 v 0.19 c -0.48,0 -0.68,0.13 -0.68,0.41 0,0.12 0.03,0.26 0.08,0.39 l 0.46,1.16 h 2.6 l -0.14,0.41 h -2.29 l 1.14,2.73 1.15,-2.73 0.14,-0.41 0.41,-0.95 c 0.12,-0.27 0.19,-0.53 0.19,-0.67 0,-0.25 -0.17,-0.33 -0.7,-0.34 v -0.19 h 2.54 z"
         inkscape:connector-curvature="0"
         style="fill:#000000;stroke-width:0" /></g>  </g>
</svg>
