<?xml version="1.0" encoding="UTF-8" standalone="no"?>
<!-- Created with Inkscape (http://www.inkscape.org/) -->

<svg
   xmlns:dc="http://purl.org/dc/elements/1.1/"
   xmlns:cc="http://creativecommons.org/ns#"
   xmlns:rdf="http://www.w3.org/1999/02/22-rdf-syntax-ns#"
   xmlns:svg="http://www.w3.org/2000/svg"
   xmlns="http://www.w3.org/2000/svg"
   xmlns:sodipodi="http://sodipodi.sourceforge.net/DTD/sodipodi-0.dtd"
   xmlns:inkscape="http://www.inkscape.org/namespaces/inkscape"
   width="496.06299"
   height="354.33069"
   id="svg2"
   version="1.1"
   inkscape:version="0.48.4 r9939"
   sodipodi:docname="fig8.2.svg">
  <sodipodi:namedview
     id="base"
     pagecolor="#ffffff"
     bordercolor="#666666"
     borderopacity="1.0"
     inkscape:pageopacity="0.0"
     inkscape:pageshadow="2"
     inkscape:zoom="1.6848668"
     inkscape:cx="248.03149"
     inkscape:cy="177.16534"
     inkscape:document-units="cm"
     inkscape:current-layer="layer1"
     showgrid="false"
     units="cm"
     inkscape:object-nodes="true"
     inkscape:window-width="1366"
     inkscape:window-height="744"
     inkscape:window-x="0"
     inkscape:window-y="24"
     inkscape:window-maximized="1">
    <inkscape:grid
       snapvisiblegridlinesonly="true"
       enabled="true"
       visible="true"
       empspacing="5"
       id="grid2985"
       type="xygrid" />
  </sodipodi:namedview>
  <defs
     id="defs4">
    <inkscape:path-effect
       effect="ruler"
       id="path-effect5138"
       is_visible="true"
       unit="px"
       mark_distance="7.4"
       mark_length="7"
       minor_mark_length="7"
       major_mark_steps="12"
       shift="0"
       offset="0"
       mark_dir="left"
       border_marks="both" />
    <inkscape:path-effect
       effect="ruler"
       id="path-effect5133"
       is_visible="true"
       unit="px"
       mark_distance="11.6"
       mark_length="14"
       minor_mark_length="7"
       major_mark_steps="1"
       shift="0"
       offset="0"
       mark_dir="right"
       border_marks="both" />
    <inkscape:path-effect
       effect="ruler"
       id="path-effect5128"
       is_visible="true"
       unit="px"
       mark_distance="10.1"
       mark_length="14"
       minor_mark_length="7"
       major_mark_steps="1"
       shift="0"
       offset="6"
       mark_dir="right"
       border_marks="both" />
    <marker
       style="overflow:visible;"
       id="Arrow1Mend"
       refX="0.0"
       refY="0.0"
       orient="auto"
       inkscape:stockid="Arrow1Mend">
      <path
         transform="scale(0.4) rotate(180) translate(10,0)"
         style="fill-rule:evenodd;stroke:#000000;stroke-width:1.0pt;"
         d="M 0.0,0.0 L 5.0,-5.0 L -12.5,0.0 L 5.0,5.0 L 0.0,0.0 z "
         id="path3772" />
    </marker>
  </defs>
  <metadata
     id="metadata7">
    <rdf:RDF>
      <cc:Work
         rdf:about="">
        <dc:format>image/svg+xml</dc:format>
        <dc:type
           rdf:resource="http://purl.org/dc/dcmitype/StillImage" />
        <dc:title></dc:title>
      </cc:Work>
    </rdf:RDF>
  </metadata>
  <g
     transform="translate(0,-698.03017)"
     id="layer1"
     inkscape:groupmode="layer"
     inkscape:label="Layer 1">
    <g
       id="g4935"
       transform="matrix(0,-1.6540031,-1.3724554,0,1244.777,1197.4017)">
      <g
         transform="translate(0,-105.20882)"
         id="g4929">
        <path
           id="path4931"
           transform="translate(0,698.03017)"
           style="fill:none;stroke:#000000;stroke-width:0.66371667"
           d="M 262.4809,159.33069 260,161.81159 m 0,4.24264 5,-5 m 0,4.24264 -5,5 m 0,4.24264 5,-5 m 0,4.24264 -5,5 m 0,4.24264 5,-5 m 0,4.24264 -5,5 m 0,4.24264 5,-5 m 0,4.24264 -5,5 m 0.0711,3.65217 4.9289,-4.40953"
           inkscape:connector-curvature="0"
           sodipodi:nodetypes="cccccccccccccccccccc" />
      </g>
      <path
         style="fill:none;stroke:#000000;stroke-width:0.66371667px;stroke-linecap:butt;stroke-linejoin:miter;stroke-opacity:1"
         d="m 260,792.15204 0,-39.99999"
         id="path4933"
         inkscape:connector-curvature="0"
         sodipodi:nodetypes="cc" />
    </g>
    <path
       inkscape:connector-curvature="0"
       id="path3757"
       d="m 247.82926,877.36087 -126.49978,0"
       style="fill:none;stroke:#000000;stroke-width:1.20000005;stroke-linecap:butt;stroke-linejoin:miter;stroke-miterlimit:4;stroke-opacity:1;stroke-dasharray:none;marker-end:url(#Arrow1Mend)" />
    <rect
       ry="2.2033293"
       rx="1.3411568"
       y="782.36084"
       x="150"
       height="5"
       width="70"
       id="rect4735"
       style="fill:none;stroke:#000000;stroke-width:1.20000005;stroke-linecap:square;stroke-linejoin:round;stroke-miterlimit:4;stroke-dasharray:none" />
    <rect
       style="fill:none;stroke:#000000;stroke-width:1.20000005;stroke-linecap:square;stroke-linejoin:round;stroke-miterlimit:4;stroke-dasharray:none"
       id="rect4737"
       width="70"
       height="5"
       x="150"
       y="797.36084"
       rx="1.3411568"
       ry="2.2033293" />
    <rect
       style="fill:none;stroke:#000000;stroke-width:1.20000005;stroke-linecap:square;stroke-linejoin:round;stroke-miterlimit:4;stroke-dasharray:none"
       id="rect4739"
       width="70"
       height="5"
       x="150"
       y="812.36084"
       rx="1.3411568"
       ry="2.2033293" />
    <rect
       ry="2.2033293"
       rx="1.3411568"
       y="827.36084"
       x="150"
       height="5"
       width="70"
       id="rect4741"
       style="fill:none;stroke:#000000;stroke-width:1.20000005;stroke-linecap:square;stroke-linejoin:round;stroke-miterlimit:4;stroke-dasharray:none" />
    <rect
       style="fill:none;stroke:#000000;stroke-width:1.20000005;stroke-linecap:square;stroke-linejoin:round;stroke-miterlimit:4;stroke-dasharray:none"
       id="rect4743"
       width="70"
       height="5"
       x="150"
       y="842.36084"
       rx="1.3411568"
       ry="2.2033293" />
    <path
       sodipodi:nodetypes="cc"
       inkscape:connector-curvature="0"
       id="path4745"
       d="m 151,787.36086 c 2.2265,3.33333 2.25007,6.66666 0,10"
       style="fill:none;stroke:#000000;stroke-width:1px;stroke-linecap:butt;stroke-linejoin:miter;stroke-opacity:1" />
    <path
       style="fill:none;stroke:#000000;stroke-width:1px;stroke-linecap:butt;stroke-linejoin:miter;stroke-opacity:1"
       d="m 151,802.36086 c 2.2265,3.33333 2.25007,6.66666 0,10"
       id="path4747"
       inkscape:connector-curvature="0"
       sodipodi:nodetypes="cc" />
    <path
       sodipodi:nodetypes="cc"
       inkscape:connector-curvature="0"
       id="path4749"
       d="m 151,817.36086 c 2.2265,3.33333 2.25007,6.66666 0,10"
       style="fill:none;stroke:#000000;stroke-width:1px;stroke-linecap:butt;stroke-linejoin:miter;stroke-opacity:1" />
    <path
       style="fill:none;stroke:#000000;stroke-width:1px;stroke-linecap:butt;stroke-linejoin:miter;stroke-opacity:1"
       d="m 151,832.36086 c 2.2265,3.33333 2.25007,6.66666 0,10"
       id="path4751"
       inkscape:connector-curvature="0"
       sodipodi:nodetypes="cc" />
    <path
       style="fill:none;stroke:#000000;stroke-width:1px;stroke-linecap:butt;stroke-linejoin:miter;stroke-opacity:1"
       d="m 219,787.36086 c -2.2265,3.33333 -2.25007,6.66666 0,10"
       id="path4753"
       inkscape:connector-curvature="0"
       sodipodi:nodetypes="cc" />
    <path
       sodipodi:nodetypes="cc"
       inkscape:connector-curvature="0"
       id="path4755"
       d="m 219,802.36086 c -2.2265,3.33333 -2.25007,6.66666 0,10"
       style="fill:none;stroke:#000000;stroke-width:1px;stroke-linecap:butt;stroke-linejoin:miter;stroke-opacity:1" />
    <path
       style="fill:none;stroke:#000000;stroke-width:1px;stroke-linecap:butt;stroke-linejoin:miter;stroke-opacity:1"
       d="m 219,817.36086 c -2.2265,3.33333 -2.25007,6.66666 0,10"
       id="path4757"
       inkscape:connector-curvature="0"
       sodipodi:nodetypes="cc" />
    <path
       sodipodi:nodetypes="cc"
       inkscape:connector-curvature="0"
       id="path4759"
       d="m 219,832.36086 c -2.2265,3.33333 -2.25007,6.66666 0,10"
       style="fill:none;stroke:#000000;stroke-width:1px;stroke-linecap:butt;stroke-linejoin:miter;stroke-opacity:1" />
    <path
       transform="translate(0,698.03017)"
       inkscape:connector-curvature="0"
       id="path4761"
       d="m 185,149.33069 0,30"
       style="fill:none;stroke:#000000;stroke-width:1px;stroke-linecap:butt;stroke-linejoin:miter;stroke-opacity:1" />
    <g
       id="g4892"
       transform="translate(-11.751072,0)">
      <path
         id="path4895"
         transform="translate(0,698.03017)"
         style="fill:none;stroke:#000000;stroke-width:1"
         d="M 262.4809,159.33069 260,161.81159 m 0,4.24264 5,-5 m 0,4.24264 -5,5 m 0,4.24264 5,-5 m 0,4.24264 -5,5 m 0,4.24264 5,-5 m 0,4.24264 -5,5 m 0,4.24264 5,-5 m 0,4.24264 -5,5 m 0.0711,3.65217 4.9289,-4.40953"
         inkscape:connector-curvature="0"
         sodipodi:nodetypes="cccccccccccccccccccc" />
    </g>
    <path
       style="fill:none;stroke:#000000;stroke-width:1px;stroke-linecap:butt;stroke-linejoin:miter;stroke-opacity:1"
       d="m 248.24893,897.36086 0,-39.99999"
       id="path4921"
       inkscape:connector-curvature="0"
       sodipodi:nodetypes="cc" />
    <path
       style="fill:none;stroke:#ffffff;stroke-width:1.4;stroke-linecap:butt;stroke-linejoin:miter;stroke-opacity:1;stroke-miterlimit:4;stroke-dasharray:none"
       d="m 180,84.330688 10,0"
       id="path4926"
       inkscape:connector-curvature="0"
       transform="translate(0,698.03017)" />
    <rect
       style="fill:#ffffff;stroke:#ffffff;stroke-width:1.39999998;stroke-linecap:square;stroke-linejoin:round;stroke-miterlimit:4;stroke-dasharray:none"
       id="rect4940"
       width="9.4229374"
       height="30"
       x="180.31476"
       y="752.36084" />
    <path
       style="fill:#ffffff;stroke:#000000;stroke-width:1.20000005000000010;stroke-linecap:square;stroke-linejoin:round;stroke-miterlimit:4"
       d="m 180,782.36084 0,-30 m 10,0 0,30"
       id="rect4923"
       inkscape:connector-curvature="0"
       sodipodi:nodetypes="cccc" />
    <path
       style="fill:none;stroke:#000000;stroke-width:1px;stroke-linecap:butt;stroke-linejoin:miter;stroke-opacity:1"
       d="m 124.90588,827.36086 c -34.999999,25 -34.999999,75 0,100 m 0,-100 4.06867,5.69613 m -9.84092,-1.07177 4.67593,5.20919 m -9.88596,0.04 5.2472,4.63323 m -9.80432,1.19152 5.76148,3.9756 m -9.58535,2.35454 6.20067,3.24833 m -9.22538,3.5002 6.55116,2.46624 m -8.72692,4.6018 6.80403,1.64475 m -8.097019,5.63669 6.954319,0.79844 m -7.345419,6.58656 6.999749,-0.0594 m -6.483344,7.43671 6.939754,-0.91641 m -5.52328,8.17483 6.7751,-1.7601 m -4.47962,8.79018 6.50837,-2.57705 m -3.36985,9.27341 6.14499,-3.35248 m -2.21547,9.61761 5.69449,-4.07097 m -1.04205,9.81991 5.17117,-4.71795 m 0.12216,9.88321 4.59363,-5.2819 m 0.41203,9.22894 4.06867,-5.69613"
       id="path5136"
       inkscape:connector-curvature="0"
       sodipodi:nodetypes="cc"
       inkscape:path-effect="#path-effect5138"
       inkscape:original-d="m 124.90588,827.36086 c -34.999999,25 -34.999999,75 0,100" />
    <path
       style="fill:none;stroke:#000000;stroke-width:1.20000005;stroke-linecap:butt;stroke-linejoin:miter;stroke-miterlimit:4;stroke-opacity:1;stroke-dasharray:none;marker-end:url(#Arrow1Mend)"
       d="m 184.92262,726.07436 0,30.14167"
       id="path5140"
       inkscape:connector-curvature="0" />
    <text
       xml:space="preserve"
       style="font-size:12px;font-style:normal;font-variant:normal;font-weight:normal;font-stretch:normal;text-align:center;line-height:125%;letter-spacing:0px;word-spacing:0px;text-anchor:middle;fill:#000000;fill-opacity:1;stroke:none;font-family:LMRoman12;-inkscape-font-specification:LMRoman12"
       x="187.40157"
       y="720.35529"
       id="text5142"
       sodipodi:linespacing="125%"><tspan
         sodipodi:role="line"
         id="tspan5144"
         x="187.40157"
         y="720.35529">Input Pressure</tspan></text>
  </g>
</svg>
