<?xml version="1.0" encoding="UTF-8" standalone="no"?>
<!-- Created with Inkscape (http://www.inkscape.org/) -->

<svg
   xmlns:ns0="http://www.iki.fi/pav/software/textext/"
   xmlns:dc="http://purl.org/dc/elements/1.1/"
   xmlns:cc="http://creativecommons.org/ns#"
   xmlns:rdf="http://www.w3.org/1999/02/22-rdf-syntax-ns#"
   xmlns:svg="http://www.w3.org/2000/svg"
   xmlns="http://www.w3.org/2000/svg"
   xmlns:sodipodi="http://sodipodi.sourceforge.net/DTD/sodipodi-0.dtd"
   xmlns:inkscape="http://www.inkscape.org/namespaces/inkscape"
   width="496.06299"
   height="354.33069"
   id="svg2"
   version="1.1"
   inkscape:version="0.48.4 r9939"
   sodipodi:docname="fig8.4.eps">
  <sodipodi:namedview
     id="base"
     pagecolor="#ffffff"
     bordercolor="#666666"
     borderopacity="1.0"
     inkscape:pageopacity="0.0"
     inkscape:pageshadow="2"
     inkscape:zoom="1.6848668"
     inkscape:cx="248.03149"
     inkscape:cy="177.16534"
     inkscape:document-units="cm"
     inkscape:current-layer="layer1"
     showgrid="false"
     units="cm"
     inkscape:object-nodes="true"
     inkscape:window-width="1366"
     inkscape:window-height="744"
     inkscape:window-x="0"
     inkscape:window-y="24"
     inkscape:window-maximized="1">
    <inkscape:grid
       type="xygrid"
       id="grid2985"
       empspacing="5"
       visible="true"
       enabled="true"
       snapvisiblegridlinesonly="true" />
  </sodipodi:namedview>
  <defs
     id="defs4">
    <inkscape:path-effect
       border_marks="both"
       mark_dir="left"
       offset="0"
       shift="0"
       major_mark_steps="12"
       minor_mark_length="7"
       mark_length="7"
       mark_distance="7.4"
       unit="px"
       is_visible="true"
       id="path-effect5138"
       effect="ruler" />
    <inkscape:path-effect
       border_marks="both"
       mark_dir="right"
       offset="0"
       shift="0"
       major_mark_steps="1"
       minor_mark_length="7"
       mark_length="14"
       mark_distance="11.6"
       unit="px"
       is_visible="true"
       id="path-effect5133"
       effect="ruler" />
    <inkscape:path-effect
       border_marks="both"
       mark_dir="right"
       offset="6"
       shift="0"
       major_mark_steps="1"
       minor_mark_length="7"
       mark_length="14"
       mark_distance="10.1"
       unit="px"
       is_visible="true"
       id="path-effect5128"
       effect="ruler" />
    <marker
       inkscape:stockid="Arrow1Mend"
       orient="auto"
       refY="0.0"
       refX="0.0"
       id="Arrow1Mend"
       style="overflow:visible;">
      <path
         id="path3772"
         d="M 0.0,0.0 L 5.0,-5.0 L -12.5,0.0 L 5.0,5.0 L 0.0,0.0 z "
         style="fill-rule:evenodd;stroke:#000000;stroke-width:1.0pt;"
         transform="scale(0.4) rotate(180) translate(10,0)" />
    </marker>
  </defs>
  <metadata
     id="metadata7">
    <rdf:RDF>
      <cc:Work
         rdf:about="">
        <dc:format>image/svg+xml</dc:format>
        <dc:type
           rdf:resource="http://purl.org/dc/dcmitype/StillImage" />
        <dc:title></dc:title>
      </cc:Work>
    </rdf:RDF>
  </metadata>
  <g
     inkscape:label="Layer 1"
     inkscape:groupmode="layer"
     id="layer1"
     transform="translate(0,-698.03017)">
    <path
       sodipodi:nodetypes="cc"
       inkscape:connector-curvature="0"
       id="path5140"
       d="m 284.49006,866.72145 c 10.80524,-7.27206 20.24218,-16.82222 20.89522,-40.99658"
       style="fill:none;stroke:#000000;stroke-width:1.20000005;stroke-linecap:butt;stroke-linejoin:miter;stroke-miterlimit:4;stroke-opacity:1;stroke-dasharray:none;marker-end:url(#Arrow1Mend)" />
    <path
       sodipodi:nodetypes="cssscscsc"
       inkscape:connector-curvature="0"
       id="path5186"
       d="m 130,169.33068 c 0,-41.42135 33.57865,-74.999993 75,-74.999992 41.42136,2e-6 75,33.578642 75,74.999992 0,0.001 0,5e-4 0,0 0,-5e-4 0,-0.001 0,0 0,0 0.9833,3.46154 5.76789,3.46154 4.54279,0 5.76788,-3.46153 5.76788,-3.46153 -0.37351,-47.41022 -38.82633,-86.374663 -86.23773,-86.537946 -47.7936,-0.164599 -86.67139,38.446326 -86.83599,86.239916"
       style="fill:none;stroke:#000000;stroke-width:1.61538458;stroke-linecap:square;stroke-linejoin:round;stroke-miterlimit:4"
       transform="matrix(0.86666667,0,0,0.86666667,27.333333,720.6076)" />
    <path
       sodipodi:nodetypes="cscscsc"
       inkscape:connector-curvature="0"
       id="path5188"
       d="m 130,169.33068 c 0,-41.42135 33.57865,-74.999993 75,-74.999992 25.70843,2e-6 49.62544,13.167662 63.37399,34.890932 0,0 0.60486,2.74064 -2.13201,4.14792 -2.55385,1.31317 -4.96291,-0.58718 -4.96291,-0.58718 C 248.90299,113.725 227.72333,102.22543 205,102.22543 c -37.06121,0 -67.10526,30.04405 -67.10526,67.10525"
       style="fill:none;stroke:#000000;stroke-width:1.10526311;stroke-linecap:square;stroke-linejoin:round;stroke-miterlimit:4;stroke-dasharray:3.31578933, 3.31578933;stroke-dashoffset:0"
       transform="matrix(1.2666667,0,0,1.2666667,-34.666671,652.87532)" />
    <path
       sodipodi:nodetypes="cccc"
       inkscape:connector-curvature="0"
       id="path5196"
       d="m 130,867.56608 -15,0 0,10 -30,0"
       style="fill:none;stroke:#000000;stroke-width:1px;stroke-linecap:butt;stroke-linejoin:miter;stroke-opacity:1" />
    <path
       sodipodi:nodetypes="cccccc"
       inkscape:connector-curvature="0"
       id="path5198"
       d="m 140,867.56608 15,0 0,30 -40,0 0,-10 -30,0"
       style="fill:none;stroke:#000000;stroke-width:1px;stroke-linecap:butt;stroke-linejoin:miter;stroke-opacity:1" />
    <path
       style="fill:none;stroke:#000000;stroke-width:1.20000005;stroke-linecap:butt;stroke-linejoin:miter;stroke-miterlimit:4;stroke-opacity:1;stroke-dasharray:none;marker-end:url(#Arrow1Mend)"
       d="m 308.68607,810.79573 c 3.94212,-12.14528 3.44807,-28.05494 -2.4025,-45.9517"
       id="path5200"
       inkscape:connector-curvature="0"
       sodipodi:nodetypes="cc" />
    <text
       transform="translate(0,698.03017)"
       sodipodi:linespacing="125%"
       id="text5202"
       y="55.748653"
       x="259.02628"
       style="font-size:12px;font-style:normal;font-variant:normal;font-weight:normal;font-stretch:normal;text-align:center;line-height:125%;letter-spacing:0px;word-spacing:0px;text-anchor:middle;fill:#000000;fill-opacity:1;stroke:none;font-family:LMRoman12;-inkscape-font-specification:LMRoman12"
       xml:space="preserve"><tspan
         y="55.748653"
         x="259.02628"
         id="tspan5204"
         sodipodi:role="line">Displacement</tspan></text>
    <text
       sodipodi:linespacing="125%"
       id="text5206"
       y="856.17712"
       x="331.11981"
       style="font-size:12px;font-style:normal;font-variant:normal;font-weight:normal;font-stretch:normal;text-align:center;line-height:125%;letter-spacing:0px;word-spacing:0px;text-anchor:middle;fill:#000000;fill-opacity:1;stroke:none;font-family:LMRoman12;-inkscape-font-specification:LMRoman12"
       xml:space="preserve"><tspan
         y="856.17712"
         x="331.11981"
         id="tspan5208"
         sodipodi:role="line">Increasing</tspan><tspan
         id="tspan5210"
         y="871.17712"
         x="331.11981"
         sodipodi:role="line">pressure</tspan></text>
    <g
       ns0:preamble="/home/sriranga/Desktop/Basic-Electronics-Figures/package.tex"
       ns0:text="$P_{\\text{in}}$"
       word-spacing="normal"
       letter-spacing="normal"
       font-size-adjust="none"
       font-stretch="normal"
       font-weight="normal"
       font-variant="normal"
       font-style="normal"
       stroke-miterlimit="10.433"
       xml:space="preserve"
       transform="matrix(1.2,0,0,-1.2,-199.92566,1732.8909)"
       id="content"
       style="font-style:normal;font-variant:normal;font-weight:normal;font-stretch:normal;letter-spacing:normal;word-spacing:normal;text-anchor:start;fill:none;stroke:#000000;stroke-width:1;stroke-linecap:butt;stroke-linejoin:miter;stroke-miterlimit:10.43299961;stroke-opacity:1;stroke-dasharray:none;stroke-dashoffset:0"><path
         id="path5235"
         d="m 225.13,713.45 0.03,0 0.03,0 0.05,-0.01 0.04,-0.01 0.05,0 0.04,-0.01 0.04,-0.01 0.04,-0.01 0.03,-0.01 0.04,0 0.03,-0.01 0.03,-0.01 0.03,-0.01 0.02,-0.01 0.03,-0.01 0.02,-0.01 0.02,-0.01 0.02,-0.02 0.02,-0.01 0.01,-0.01 0.02,-0.02 0.01,-0.01 0.01,-0.02 0.01,-0.01 0.01,-0.02 0.01,-0.02 0,-0.02 0.01,-0.01 0,-0.02 0.01,-0.03 0,-0.02 0,-0.02 0,-0.02 c 0,-0.14 -0.04,-0.35 -0.17,-0.8 l -1.17,-4.22 c -0.18,-0.6 -0.25,-0.66 -0.82,-0.74 v -0.16 h 2.44 v 0.16 c -0.63,0.09 -0.68,0.12 -0.68,0.46 0,0.12 0.02,0.22 0.12,0.58 l 0.53,1.91 0.09,0.34 0.7,2.47 c 0.06,0.2 0.18,0.27 0.46,0.27 0.39,0 0.77,-0.1 0.97,-0.23 0.26,-0.18 0.37,-0.48 0.37,-0.95 0,-0.64 -0.23,-1.1 -0.67,-1.36 -0.31,-0.17 -0.7,-0.25 -1.31,-0.25 -0.17,0 -0.25,0.01 -0.52,0.05 l -0.09,-0.34 c 0.25,-0.06 0.51,-0.07 0.91,-0.07 0.82,0 1.49,0.16 1.91,0.47 0.5,0.37 0.79,0.92 0.79,1.5 0,0.96 -0.75,1.48 -2.1,1.48 h -2.47 z"
         inkscape:connector-curvature="0"
         style="fill:#000000;stroke-width:0" /><path
         id="path5237"
         d="m 230.99,708.83 -1.08,-0.38 v -0.11 l 0.05,0.01 c 0.09,0.01 0.18,0.02 0.24,0.02 0.17,0 0.23,-0.11 0.23,-0.42 v -1.61 c 0,-0.5 -0.07,-0.58 -0.55,-0.61 v -0.1 h 1.65 v 0.1 c -0.46,0.04 -0.52,0.11 -0.52,0.61 v 2.47 z"
         inkscape:connector-curvature="0"
         style="fill:#000000;stroke-width:0" /><path
         id="path5239"
         d="m 230.66,710.38 -0.02,0 -0.02,0 -0.01,0 -0.02,-0.01 -0.02,0 -0.01,-0.01 -0.02,0 -0.01,-0.01 -0.02,-0.01 -0.02,0 -0.01,-0.01 -0.01,-0.01 -0.02,-0.01 -0.01,-0.01 -0.01,-0.01 -0.02,-0.01 -0.01,-0.02 -0.01,-0.01 -0.01,-0.01 -0.01,-0.02 -0.01,-0.01 -0.01,-0.02 0,-0.01 -0.01,-0.02 -0.01,-0.01 0,-0.02 -0.01,-0.02 0,-0.01 0,-0.02 -0.01,-0.02 0,-0.02 0,-0.01 c 0,-0.2 0.15,-0.36 0.35,-0.36 0.2,0 0.36,0.15 0.36,0.36 0,0.19 -0.16,0.35 -0.36,0.35 z"
         inkscape:connector-curvature="0"
         style="fill:#000000;stroke-width:0" /><path
         id="path5241"
         d="m 231.82,708.4 0,0 0.01,0 0,0 0.01,0.01 0,0 0,0 0.01,0 0,0 0.01,0 0,0 0.02,0.01 0.01,0 0.01,0 0.01,0 0.01,0 0.02,0 0.01,0 0.01,0.01 0.02,0 0.01,0 0.02,0 c 0.19,0 0.25,-0.11 0.25,-0.45 v -1.72 c 0,-0.4 -0.07,-0.5 -0.43,-0.53 v -0.1 h 1.48 v 0.1 c -0.36,0.03 -0.46,0.12 -0.46,0.37 v 1.95 c 0.33,0.31 0.49,0.4 0.72,0.4 0.34,0 0.5,-0.22 0.5,-0.68 v -1.45 c 0,-0.44 -0.09,-0.56 -0.43,-0.59 v -0.1 h 1.45 v 0.1 c -0.35,0.04 -0.43,0.12 -0.43,0.46 v 1.6 c 0,0.65 -0.31,1.04 -0.82,1.04 -0.32,0 -0.54,-0.12 -1.01,-0.56 v 0.55 l -0.05,0.01 c -0.34,-0.12 -0.58,-0.2 -0.96,-0.31 z"
         inkscape:connector-curvature="0"
         style="fill:#000000;stroke-width:0" /></g>  </g>
</svg>
