<?xml version="1.0" encoding="UTF-8" standalone="no"?>
<!-- Created with Inkscape (http://www.inkscape.org/) -->

<svg
   xmlns:ns0="http://www.iki.fi/pav/software/textext/"
   xmlns:dc="http://purl.org/dc/elements/1.1/"
   xmlns:cc="http://creativecommons.org/ns#"
   xmlns:rdf="http://www.w3.org/1999/02/22-rdf-syntax-ns#"
   xmlns:svg="http://www.w3.org/2000/svg"
   xmlns="http://www.w3.org/2000/svg"
   xmlns:sodipodi="http://sodipodi.sourceforge.net/DTD/sodipodi-0.dtd"
   xmlns:inkscape="http://www.inkscape.org/namespaces/inkscape"
   sodipodi:docname="fig8.17.svg"
   inkscape:version="0.48.4 r9939"
   version="1.1"
   id="svg2"
   height="354.33069"
   width="496.06299">
  <sodipodi:namedview
     id="base"
     pagecolor="#ffffff"
     bordercolor="#666666"
     borderopacity="1.0"
     inkscape:pageopacity="0.0"
     inkscape:pageshadow="2"
     inkscape:zoom="1.6848668"
     inkscape:cx="248.03149"
     inkscape:cy="177.16534"
     inkscape:document-units="cm"
     inkscape:current-layer="layer1"
     showgrid="false"
     units="cm"
     inkscape:object-nodes="true"
     inkscape:window-width="1366"
     inkscape:window-height="744"
     inkscape:window-x="0"
     inkscape:window-y="24"
     inkscape:window-maximized="1">
    <inkscape:grid
       type="xygrid"
       id="grid2985"
       empspacing="5"
       visible="true"
       enabled="true"
       snapvisiblegridlinesonly="true" />
  </sodipodi:namedview>
  <defs
     id="defs4">
    <marker
       inkscape:stockid="Arrow1Mstart"
       orient="auto"
       refY="0.0"
       refX="0.0"
       id="Arrow1Mstart"
       style="overflow:visible">
      <path
         id="path4252"
         d="M 0.0,0.0 L 5.0,-5.0 L -12.5,0.0 L 5.0,5.0 L 0.0,0.0 z "
         style="fill-rule:evenodd;stroke:#000000;stroke-width:1.0pt"
         transform="scale(0.4) translate(10,0)" />
    </marker>
    <inkscape:path-effect
       border_marks="both"
       mark_dir="left"
       offset="0"
       shift="0"
       major_mark_steps="12"
       minor_mark_length="7"
       mark_length="7"
       mark_distance="7.4"
       unit="px"
       is_visible="true"
       id="path-effect5138"
       effect="ruler" />
    <inkscape:path-effect
       border_marks="both"
       mark_dir="right"
       offset="0"
       shift="0"
       major_mark_steps="1"
       minor_mark_length="7"
       mark_length="14"
       mark_distance="11.6"
       unit="px"
       is_visible="true"
       id="path-effect5133"
       effect="ruler" />
    <inkscape:path-effect
       border_marks="both"
       mark_dir="right"
       offset="6"
       shift="0"
       major_mark_steps="1"
       minor_mark_length="7"
       mark_length="14"
       mark_distance="10.1"
       unit="px"
       is_visible="true"
       id="path-effect5128"
       effect="ruler" />
    <marker
       inkscape:stockid="Arrow1Mend"
       orient="auto"
       refY="0.0"
       refX="0.0"
       id="Arrow1Mend"
       style="overflow:visible;">
      <path
         id="path3772"
         d="M 0.0,0.0 L 5.0,-5.0 L -12.5,0.0 L 5.0,5.0 L 0.0,0.0 z "
         style="fill-rule:evenodd;stroke:#000000;stroke-width:1.0pt;"
         transform="scale(0.4) rotate(180) translate(10,0)" />
    </marker>
    <marker
       inkscape:stockid="Arrow1Mend"
       orient="auto"
       refY="0"
       refX="0"
       id="Arrow1Mend-62"
       style="overflow:visible">
      <path
         inkscape:connector-curvature="0"
         id="path5100-5"
         d="M 0,0 5,-5 -12.5,0 5,5 0,0 z"
         style="fill-rule:evenodd;stroke:#000000;stroke-width:1pt"
         transform="matrix(-0.4,0,0,-0.4,-4,0)" />
    </marker>
    <marker
       style="overflow:visible"
       id="Arrow1Mend-9"
       refX="0"
       refY="0"
       orient="auto"
       inkscape:stockid="Arrow1Mend">
      <path
         transform="matrix(-0.4,0,0,-0.4,-4,0)"
         style="fill-rule:evenodd;stroke:#000000;stroke-width:1pt"
         d="M 0,0 5,-5 -12.5,0 5,5 0,0 z"
         id="path5100-86"
         inkscape:connector-curvature="0" />
    </marker>
    <marker
       inkscape:stockid="Arrow1Mend"
       orient="auto"
       refY="0"
       refX="0"
       id="Arrow1Mend-6"
       style="overflow:visible">
      <path
         inkscape:connector-curvature="0"
         id="path5100-8"
         d="M 0,0 5,-5 -12.5,0 5,5 0,0 z"
         style="fill-rule:evenodd;stroke:#000000;stroke-width:1pt"
         transform="matrix(-0.4,0,0,-0.4,-4,0)" />
    </marker>
    <marker
       inkscape:stockid="Arrow1Mend"
       orient="auto"
       refY="0.0"
       refX="0.0"
       id="Arrow1Mend-96"
       style="overflow:visible;">
      <path
         id="path5100"
         d="M 0.0,0.0 L 5.0,-5.0 L -12.5,0.0 L 5.0,5.0 L 0.0,0.0 z "
         style="fill-rule:evenodd;stroke:#000000;stroke-width:1.0pt;"
         transform="scale(0.4) rotate(180) translate(10,0)" />
    </marker>
    <marker
       inkscape:stockid="Arrow1Mend"
       orient="auto"
       refY="0"
       refX="0"
       id="marker3138"
       style="overflow:visible">
      <path
         inkscape:connector-curvature="0"
         id="path3140"
         d="M 0,0 5,-5 -12.5,0 5,5 0,0 z"
         style="fill-rule:evenodd;stroke:#000000;stroke-width:1pt"
         transform="matrix(-0.4,0,0,-0.4,-4,0)" />
    </marker>
    <marker
       inkscape:stockid="Arrow1Mend"
       orient="auto"
       refY="0"
       refX="0"
       id="marker3134"
       style="overflow:visible">
      <path
         inkscape:connector-curvature="0"
         id="path3136"
         d="M 0,0 5,-5 -12.5,0 5,5 0,0 z"
         style="fill-rule:evenodd;stroke:#000000;stroke-width:1pt"
         transform="matrix(-0.4,0,0,-0.4,-4,0)" />
    </marker>
    <marker
       inkscape:stockid="Arrow1Mend"
       orient="auto"
       refY="0"
       refX="0"
       id="marker3130"
       style="overflow:visible">
      <path
         inkscape:connector-curvature="0"
         id="path3132"
         d="M 0,0 5,-5 -12.5,0 5,5 0,0 z"
         style="fill-rule:evenodd;stroke:#000000;stroke-width:1pt"
         transform="matrix(-0.4,0,0,-0.4,-4,0)" />
    </marker>
    <marker
       inkscape:stockid="Arrow1Mend"
       orient="auto"
       refY="0"
       refX="0"
       id="Arrow1Mend-8"
       style="overflow:visible">
      <path
         inkscape:connector-curvature="0"
         id="path5100-5-8"
         d="M 0,0 5,-5 -12.5,0 5,5 0,0 z"
         style="fill-rule:evenodd;stroke:#000000;stroke-width:1pt"
         transform="matrix(-0.4,0,0,-0.4,-4,0)" />
    </marker>
    <marker
       style="overflow:visible;"
       id="Arrow1Mend-5"
       refX="0.0"
       refY="0.0"
       orient="auto"
       inkscape:stockid="Arrow1Mend">
      <path
         transform="scale(0.4) rotate(180) translate(10,0)"
         style="fill-rule:evenodd;stroke:#000000;stroke-width:1.0pt;"
         d="M 0.0,0.0 L 5.0,-5.0 L -12.5,0.0 L 5.0,5.0 L 0.0,0.0 z "
         id="path5100-2" />
    </marker>
  </defs>
  <metadata
     id="metadata7">
    <rdf:RDF>
      <cc:Work
         rdf:about="">
        <dc:format>image/svg+xml</dc:format>
        <dc:type
           rdf:resource="http://purl.org/dc/dcmitype/StillImage" />
        <dc:title></dc:title>
      </cc:Work>
    </rdf:RDF>
  </metadata>
  <g
     inkscape:label="Layer 1"
     inkscape:groupmode="layer"
     id="layer1"
     transform="translate(0,-698.03017)">
    <path
       style="fill:none;stroke:#000000;stroke-width:1.2;stroke-linecap:butt;stroke-linejoin:miter;stroke-opacity:1;marker-start:url(#Arrow1Mstart);marker-end:url(#Arrow1Mend-5);stroke-miterlimit:4;stroke-dasharray:none"
       d="m 80,154.33069 300,0"
       id="path6748"
       inkscape:connector-curvature="0"
       transform="translate(0,698.03017)" />
    <path
       inkscape:connector-curvature="0"
       id="path7154"
       d="m 230,732.36086 0,228.12962"
       style="fill:none;stroke:#000000;stroke-width:1.20000005;stroke-linecap:butt;stroke-linejoin:miter;stroke-miterlimit:4;stroke-opacity:1;stroke-dasharray:none;marker-start:url(#Arrow1Mstart);marker-end:none" />
    <path
       style="fill:none;stroke:#000000;stroke-width:0.99999994px;stroke-linecap:butt;stroke-linejoin:miter;stroke-opacity:1"
       d="M 140.25266,921.24784 319.74733,783.47388"
       id="path7156"
       inkscape:connector-curvature="0"
       sodipodi:nodetypes="cc" />
    <path
       style="fill:none;stroke:#000000;stroke-width:1.2;stroke-linecap:butt;stroke-linejoin:miter;stroke-opacity:1;stroke-miterlimit:4;stroke-dasharray:3.6,3.6;stroke-dashoffset:0"
       d="m 320,84.330688 0,70.000002"
       id="path7158"
       inkscape:connector-curvature="0"
       transform="translate(0,698.03017)" />
    <path
       inkscape:connector-curvature="0"
       id="path7160"
       d="m 140,852.36086 0,70"
       style="fill:none;stroke:#000000;stroke-width:1.2;stroke-linecap:butt;stroke-linejoin:miter;stroke-miterlimit:4;stroke-opacity:1;stroke-dasharray:3.6,3.6;stroke-dashoffset:0" />
    <path
       sodipodi:type="arc"
       id="path7162"
       style="fill:#000000;stroke:none"
       sodipodi:cx="140"
       sodipodi:cy="852.36084"
       sodipodi:rx="2.5"
       sodipodi:ry="2.5"
       d="m 142.5,852.36084 c 0,1.38071 -1.11929,2.5 -2.5,2.5 -1.38071,0 -2.5,-1.11929 -2.5,-2.5 0,-1.38071 1.11929,-2.5 2.5,-2.5 1.38071,0 2.5,1.11929 2.5,2.5 z" />
    <path
       sodipodi:type="arc"
       id="path7164"
       style="fill:#000000;stroke:none"
       sodipodi:cx="320"
       sodipodi:cy="852.36084"
       sodipodi:rx="2.5"
       sodipodi:ry="2.5"
       d="m 322.5,852.36084 c 0,1.38071 -1.11929,2.5 -2.5,2.5 -1.38071,0 -2.5,-1.11929 -2.5,-2.5 0,-1.38071 1.11929,-2.5 2.5,-2.5 1.38071,0 2.5,1.11929 2.5,2.5 z" />
    <g
       id="content"
       transform="matrix(1.2,0,0,-1.2,-142.90576,1691.0124)"
       xml:space="preserve"
       stroke-miterlimit="10.433"
       font-style="normal"
       font-variant="normal"
       font-weight="normal"
       font-stretch="normal"
       font-size-adjust="none"
       letter-spacing="normal"
       word-spacing="normal"
       ns0:text="$-X_{\\text{max}}$"
       ns0:preamble="/home/sriranga/Desktop/MCT/package.tex"
       style="font-style:normal;font-variant:normal;font-weight:normal;font-stretch:normal;letter-spacing:normal;word-spacing:normal;text-anchor:start;fill:none;stroke:#000000;stroke-width:1;stroke-linecap:butt;stroke-linejoin:miter;stroke-miterlimit:10.43299961;stroke-opacity:1;stroke-dasharray:none;stroke-dashoffset:0"><polygon
         style="fill:#000000;stroke-width:0"
         points="224.05,709.4 229.14,709.4 229.14,709.96 224.05,709.96 "
         id="polygon7205" /><path
         style="fill:#000000;stroke-width:0"
         inkscape:connector-curvature="0"
         d="m 236.53,713.61 h -2.07 v -0.16 c 0.49,-0.06 0.61,-0.13 0.61,-0.36 0,-0.12 -0.06,-0.24 -0.2,-0.4 l -1.44,-1.66 -0.59,1.46 c -0.11,0.26 -0.15,0.43 -0.15,0.56 0,0.24 0.16,0.33 0.71,0.4 v 0.16 h -2.63 v -0.16 c 0.58,-0.05 0.73,-0.15 0.92,-0.6 l 1.05,-2.62 c -0.36,-0.41 -0.69,-0.8 -0.82,-0.96 -1.39,-1.63 -1.66,-1.88 -2.19,-1.99 v -0.16 h 2.13 v 0.16 c -0.48,0 -0.65,0.09 -0.65,0.34 0,0.15 0.08,0.32 0.21,0.47 l 1.5,1.71 0.67,-1.64 c 0.07,-0.18 0.11,-0.34 0.11,-0.49 0,-0.29 -0.1,-0.34 -0.76,-0.39 v -0.16 h 2.72 v 0.16 c -0.7,0.08 -0.79,0.14 -1.04,0.74 l -1.01,2.56 1.68,1.93 c 0.52,0.58 0.82,0.8 1.24,0.94 z"
         id="path7207" /><path
         style="fill:#000000;stroke-width:0"
         inkscape:connector-curvature="0"
         d="m 236.24,708.4 0.01,0 0,0 0.01,0 0.01,0.01 0.01,0 0,0 0.02,0 0.01,0 0.02,0.01 0.01,0 0.01,0 0.02,0 0.01,0 0.01,0 0.02,0 0.01,0.01 0.01,0 0.02,0 0.01,0 c 0.18,0 0.24,-0.11 0.24,-0.45 v -1.76 c 0,-0.37 -0.09,-0.48 -0.48,-0.49 v -0.1 h 1.54 v 0.1 c -0.37,0.02 -0.47,0.1 -0.47,0.37 v 1.96 c 0,0.01 0.06,0.08 0.1,0.13 0.18,0.16 0.48,0.28 0.72,0.28 0.31,0 0.46,-0.25 0.46,-0.73 v -1.51 c 0,-0.39 -0.08,-0.47 -0.47,-0.5 v -0.1 h 1.56 v 0.1 c -0.4,0.01 -0.51,0.13 -0.51,0.56 v 1.75 c 0.21,0.3 0.44,0.43 0.76,0.43 0.4,0 0.53,-0.19 0.53,-0.77 v -1.46 c 0,-0.4 -0.06,-0.46 -0.46,-0.51 v -0.1 h 1.52 v 0.1 l -0.18,0.02 c -0.21,0.01 -0.3,0.14 -0.3,0.41 v 1.43 c 0,0.82 -0.27,1.24 -0.81,1.24 -0.4,0 -0.75,-0.18 -1.13,-0.58 -0.13,0.39 -0.36,0.58 -0.74,0.58 -0.31,0 -0.5,-0.1 -1.08,-0.54 v 0.53 l -0.05,0.01 c -0.35,-0.13 -0.59,-0.21 -0.97,-0.31 z"
         id="path7209" /><path
         style="fill:#000000;stroke-width:0"
         inkscape:connector-curvature="0"
         d="m 244.61,706.09 -0.01,-0.01 -0.01,-0.01 -0.01,-0.01 -0.01,0 -0.01,-0.01 -0.01,-0.01 -0.01,-0.01 -0.01,0 -0.01,-0.01 -0.01,0 -0.01,-0.01 -0.01,0 -0.01,-0.01 -0.01,0 -0.01,-0.01 -0.01,0 -0.01,-0.01 -0.01,0 -0.01,0 -0.01,-0.01 0,0 -0.01,0 -0.01,0 -0.01,-0.01 -0.02,0 -0.02,0 -0.02,0 -0.02,0 c -0.16,0 -0.21,0.09 -0.21,0.4 v 1.36 c 0,0.36 -0.03,0.56 -0.14,0.73 -0.15,0.25 -0.45,0.38 -0.86,0.38 -0.65,0 -1.17,-0.34 -1.17,-0.78 0,-0.16 0.14,-0.3 0.3,-0.3 0.17,0 0.31,0.14 0.31,0.29 0,0.03 0,0.07 -0.01,0.12 -0.01,0.06 -0.02,0.11 -0.02,0.16 0,0.19 0.22,0.34 0.5,0.34 0.34,0 0.53,-0.2 0.53,-0.57 v -0.43 -0.17 -1 c 0,-0.22 -0.04,-0.28 -0.18,-0.37 -0.17,-0.09 -0.36,-0.15 -0.51,-0.15 -0.24,0 -0.44,0.23 -0.44,0.53 v 0.03 c 0,0.41 0.29,0.66 1.13,0.96 v 0.17 c -1.07,-0.43 -1.19,-0.49 -1.49,-0.75 -0.15,-0.14 -0.25,-0.38 -0.25,-0.61 0,-0.43 0.31,-0.74 0.73,-0.74 0.31,0 0.59,0.15 1.02,0.51 0.03,-0.36 0.16,-0.51 0.44,-0.51 0.24,0 0.39,0.09 0.63,0.35 z"
         id="path7211" /><path
         style="fill:#000000;stroke-width:0"
         inkscape:connector-curvature="0"
         d="m 246.56,705.63 h 1.4 v 0.1 c -0.21,0 -0.35,0.12 -0.57,0.42 l -0.89,1.37 0.58,0.83 c 0.13,0.19 0.34,0.3 0.56,0.31 v 0.1 h -1.1 v -0.1 c 0.21,-0.02 0.28,-0.06 0.28,-0.16 0,-0.08 -0.08,-0.23 -0.26,-0.45 -0.03,-0.04 -0.11,-0.17 -0.21,-0.31 l -0.09,0.14 c -0.2,0.3 -0.32,0.53 -0.32,0.62 0,0.1 0.09,0.15 0.3,0.16 v 0.1 h -1.45 v -0.1 h 0.07 c 0.21,0 0.32,-0.09 0.53,-0.42 l 0.66,-1 -0.8,-1.15 c -0.21,-0.29 -0.27,-0.33 -0.51,-0.36 v -0.1 h 1.02 v 0.1 c -0.2,0 -0.28,0.04 -0.28,0.13 0,0.04 0.04,0.15 0.14,0.29 l 0.55,0.85 0.63,-0.97 c 0.03,-0.04 0.04,-0.09 0.04,-0.13 0,-0.12 -0.05,-0.15 -0.28,-0.17 z"
         id="path7213" /></g>    <g
       id="g7420"
       transform="matrix(1.2,0,0,-1.2,40.788291,1716.2369)"
       xml:space="preserve"
       stroke-miterlimit="10.433"
       font-style="normal"
       font-variant="normal"
       font-weight="normal"
       font-stretch="normal"
       font-size-adjust="none"
       letter-spacing="normal"
       word-spacing="normal"
       ns0:text="$X_{\\text{max}}$"
       ns0:preamble="/home/sriranga/Desktop/MCT/package.tex"
       style="font-style:normal;font-variant:normal;font-weight:normal;font-stretch:normal;letter-spacing:normal;word-spacing:normal;text-anchor:start;fill:none;stroke:#000000;stroke-width:1;stroke-linecap:butt;stroke-linejoin:miter;stroke-miterlimit:10.43299961;stroke-opacity:1;stroke-dasharray:none;stroke-dashoffset:0"><path
         style="fill:#000000;stroke-width:0"
         inkscape:connector-curvature="0"
         d="m 230.2,713.61 h -2.07 v -0.16 c 0.49,-0.06 0.61,-0.13 0.61,-0.36 0,-0.12 -0.06,-0.24 -0.2,-0.4 l -1.45,-1.66 -0.58,1.46 c -0.11,0.26 -0.15,0.43 -0.15,0.56 0,0.24 0.16,0.33 0.7,0.4 v 0.16 h -2.62 v -0.16 c 0.57,-0.05 0.72,-0.15 0.91,-0.6 l 1.06,-2.62 c -0.37,-0.41 -0.7,-0.8 -0.83,-0.96 -1.38,-1.63 -1.66,-1.88 -2.19,-1.99 v -0.16 h 2.13 v 0.16 c -0.48,0 -0.64,0.09 -0.64,0.34 0,0.15 0.07,0.32 0.2,0.47 l 1.51,1.71 0.66,-1.64 c 0.07,-0.18 0.11,-0.34 0.11,-0.49 0,-0.29 -0.1,-0.34 -0.75,-0.39 v -0.16 h 2.71 v 0.16 c -0.69,0.08 -0.78,0.14 -1.03,0.74 l -1.02,2.56 1.68,1.93 c 0.52,0.58 0.82,0.8 1.25,0.94 z"
         id="path7422" /><path
         style="fill:#000000;stroke-width:0"
         inkscape:connector-curvature="0"
         d="m 229.9,708.4 0.01,0 0.01,0 0,0 0.01,0.01 0.01,0 0.01,0 0.01,0 0.02,0 0.01,0.01 0.01,0 0.02,0 0.01,0 0.01,0 0.02,0 0.01,0 0.01,0.01 0.02,0 0.01,0 0.01,0 c 0.18,0 0.25,-0.11 0.25,-0.45 v -1.76 c 0,-0.37 -0.1,-0.48 -0.49,-0.49 v -0.1 h 1.55 v 0.1 c -0.37,0.02 -0.48,0.1 -0.48,0.37 v 1.96 c 0,0.01 0.06,0.08 0.11,0.13 0.17,0.16 0.47,0.28 0.71,0.28 0.31,0 0.46,-0.25 0.46,-0.73 v -1.51 c 0,-0.39 -0.07,-0.47 -0.47,-0.5 v -0.1 h 1.56 v 0.1 c -0.4,0.01 -0.5,0.13 -0.5,0.56 v 1.75 c 0.21,0.3 0.44,0.43 0.76,0.43 0.4,0 0.52,-0.19 0.52,-0.77 v -1.46 c 0,-0.4 -0.06,-0.46 -0.46,-0.51 v -0.1 h 1.52 v 0.1 l -0.18,0.02 c -0.21,0.01 -0.3,0.14 -0.3,0.41 v 1.43 c 0,0.82 -0.27,1.24 -0.8,1.24 -0.41,0 -0.76,-0.18 -1.14,-0.58 -0.12,0.39 -0.36,0.58 -0.74,0.58 -0.3,0 -0.5,-0.1 -1.08,-0.54 v 0.53 l -0.04,0.01 c -0.36,-0.13 -0.6,-0.21 -0.98,-0.31 z"
         id="path7424" /><path
         style="fill:#000000;stroke-width:0"
         inkscape:connector-curvature="0"
         d="m 238.27,706.09 -0.01,-0.01 -0.01,-0.01 -0.01,-0.01 -0.01,0 -0.01,-0.01 -0.01,-0.01 -0.01,-0.01 -0.01,0 -0.01,-0.01 -0.01,0 -0.01,-0.01 -0.01,0 -0.01,-0.01 -0.01,0 -0.01,-0.01 -0.01,0 -0.01,-0.01 0,0 -0.01,0 -0.01,-0.01 -0.01,0 -0.01,0 -0.01,0 -0.01,-0.01 -0.02,0 -0.02,0 -0.02,0 -0.02,0 c -0.16,0 -0.2,0.09 -0.2,0.4 v 1.36 c 0,0.36 -0.04,0.56 -0.14,0.73 -0.16,0.25 -0.46,0.38 -0.87,0.38 -0.65,0 -1.17,-0.34 -1.17,-0.78 0,-0.16 0.14,-0.3 0.3,-0.3 0.17,0 0.32,0.14 0.32,0.29 0,0.03 -0.01,0.07 -0.02,0.12 -0.01,0.06 -0.02,0.11 -0.02,0.16 0,0.19 0.22,0.34 0.5,0.34 0.34,0 0.53,-0.2 0.53,-0.57 v -0.43 -0.17 -1 c 0,-0.22 -0.03,-0.28 -0.18,-0.37 -0.17,-0.09 -0.36,-0.15 -0.51,-0.15 -0.24,0 -0.44,0.23 -0.44,0.53 v 0.03 c 0,0.41 0.29,0.66 1.13,0.96 v 0.17 c -1.07,-0.43 -1.19,-0.49 -1.49,-0.75 -0.15,-0.14 -0.25,-0.38 -0.25,-0.61 0,-0.43 0.31,-0.74 0.73,-0.74 0.31,0 0.59,0.15 1.02,0.51 0.03,-0.36 0.16,-0.51 0.45,-0.51 0.23,0 0.38,0.09 0.62,0.35 z"
         id="path7426" /><path
         style="fill:#000000;stroke-width:0"
         inkscape:connector-curvature="0"
         d="m 240.23,705.63 h 1.4 v 0.1 c -0.22,0 -0.36,0.12 -0.58,0.42 l -0.89,1.37 0.58,0.83 c 0.13,0.19 0.34,0.3 0.57,0.31 v 0.1 h -1.1 v -0.1 c 0.2,-0.02 0.27,-0.06 0.27,-0.16 0,-0.08 -0.08,-0.23 -0.25,-0.45 -0.04,-0.04 -0.12,-0.17 -0.21,-0.31 l -0.1,0.14 c -0.19,0.3 -0.32,0.53 -0.32,0.62 0,0.1 0.09,0.15 0.3,0.16 v 0.1 h -1.44 v -0.1 h 0.06 c 0.21,0 0.32,-0.09 0.54,-0.42 l 0.65,-1 -0.79,-1.15 c -0.21,-0.29 -0.28,-0.33 -0.51,-0.36 v -0.1 h 1.01 v 0.1 c -0.2,0 -0.28,0.04 -0.28,0.13 0,0.04 0.05,0.15 0.14,0.29 l 0.55,0.85 0.63,-0.97 c 0.03,-0.04 0.05,-0.09 0.05,-0.13 0,-0.12 -0.05,-0.15 -0.28,-0.17 z"
         id="path7428" /></g>    <text
       sodipodi:linespacing="125%"
       id="text7477"
       y="863.84052"
       x="232.5564"
       style="font-size:12px;font-style:normal;font-variant:normal;font-weight:normal;font-stretch:normal;text-align:start;line-height:125%;letter-spacing:0px;word-spacing:0px;text-anchor:start;fill:#000000;fill-opacity:1;stroke:none;font-family:LMRoman12;-inkscape-font-specification:LMRoman12"
       xml:space="preserve"><tspan
         y="863.84052"
         x="232.5564"
         id="tspan7479"
         sodipodi:role="line">0</tspan></text>
    <g
       style="font-style:normal;font-variant:normal;font-weight:normal;font-stretch:normal;letter-spacing:normal;word-spacing:normal;text-anchor:start;fill:none;stroke:#000000;stroke-width:1;stroke-linecap:butt;stroke-linejoin:miter;stroke-miterlimit:10.43299961;stroke-opacity:1;stroke-dasharray:none;stroke-dashoffset:0"
       ns0:preamble="/home/sriranga/Desktop/MCT/package.tex"
       ns0:text="$V_0 = V_{01}-V_{02}$"
       word-spacing="normal"
       letter-spacing="normal"
       font-size-adjust="none"
       font-stretch="normal"
       font-weight="normal"
       font-variant="normal"
       font-style="normal"
       stroke-miterlimit="10.433"
       xml:space="preserve"
       transform="matrix(1.2,0,0,-1.2,-33.49573,1583.6461)"
       id="g7565"><path
         id="path7567"
         d="m 230.28,713.61 h -1.85 v -0.16 c 0.44,-0.05 0.62,-0.15 0.62,-0.34 0,-0.18 -0.19,-0.61 -0.51,-1.18 l -2.05,-3.53 -0.66,4.4 c -0.01,0.05 -0.01,0.09 -0.01,0.15 0,0.33 0.14,0.43 0.77,0.5 v 0.16 h -2.4 v -0.16 c 0.55,-0.07 0.57,-0.1 0.78,-1.34 l 0.85,-5.16 h 0.19 l 3.71,6.1 c 0.17,0.27 0.33,0.39 0.56,0.4 z"
         inkscape:connector-curvature="0"
         style="fill:#000000;stroke-width:0" /><path
         id="path7569"
         d="m 231.29,710.33 -0.04,0 -0.03,0 -0.04,0 -0.03,0 -0.04,-0.01 -0.03,0 -0.03,-0.01 -0.03,0 -0.04,-0.01 -0.03,0 -0.03,-0.01 -0.03,-0.01 -0.03,-0.01 -0.03,-0.01 -0.03,-0.01 -0.03,-0.01 -0.02,-0.01 -0.03,-0.01 -0.03,-0.01 -0.03,-0.02 -0.03,-0.01 -0.02,-0.02 -0.03,-0.01 -0.02,-0.02 -0.03,-0.02 -0.03,-0.02 -0.02,-0.02 -0.03,-0.01 -0.02,-0.02 -0.03,-0.03 -0.02,-0.02 -0.03,-0.02 c -0.4,-0.39 -0.66,-1.19 -0.66,-2 0,-0.76 0.23,-1.57 0.55,-1.96 0.26,-0.31 0.62,-0.48 1.02,-0.48 v 0.18 c -0.6,0 -0.91,0.75 -0.91,2.2 0,1.47 0.32,2.24 0.92,2.24 h 0 c 0.58,0 0.89,-0.79 0.89,-2.24 0,-1.45 -0.3,-2.2 -0.9,-2.2 v -0.18 c 0.36,0 0.65,0.12 0.9,0.37 0.41,0.38 0.67,1.18 0.67,2.03 0,1.42 -0.63,2.4 -1.54,2.4 z"
         inkscape:connector-curvature="0"
         style="fill:#000000;stroke-width:0" /><polygon
         id="polygon7571"
         points="236.89,710.4 241.98,710.4 241.98,710.96 236.89,710.96 "
         style="fill:#000000;stroke-width:0" /><polygon
         id="polygon7573"
         points="236.89,708.39 241.98,708.39 241.98,708.94 236.89,708.94 "
         style="fill:#000000;stroke-width:0" /><path
         id="path7575"
         d="m 252.22,713.61 h -1.85 v -0.16 c 0.45,-0.05 0.63,-0.15 0.63,-0.34 0,-0.18 -0.19,-0.61 -0.52,-1.18 l -2.05,-3.53 -0.66,4.4 c -0.01,0.05 -0.01,0.09 -0.01,0.15 0,0.33 0.14,0.43 0.77,0.5 v 0.16 h -2.4 v -0.16 c 0.56,-0.07 0.58,-0.1 0.79,-1.34 l 0.84,-5.16 h 0.19 l 3.71,6.1 c 0.17,0.27 0.33,0.39 0.56,0.4 z"
         inkscape:connector-curvature="0"
         style="fill:#000000;stroke-width:0" /><path
         id="path7577"
         d="m 253.23,710.33 -0.03,0 -0.04,0 -0.03,0 -0.04,0 -0.03,-0.01 -0.04,0 -0.03,-0.01 -0.03,0 -0.03,-0.01 -0.03,0 -0.03,-0.01 -0.03,-0.01 -0.03,-0.01 -0.03,-0.01 -0.03,-0.01 -0.03,-0.01 -0.03,-0.01 -0.03,-0.01 -0.03,-0.01 -0.02,-0.02 -0.03,-0.01 -0.03,-0.02 -0.03,-0.01 -0.02,-0.02 -0.03,-0.02 -0.02,-0.02 -0.03,-0.02 -0.02,-0.01 -0.03,-0.02 -0.02,-0.03 -0.03,-0.02 -0.02,-0.02 c -0.41,-0.39 -0.67,-1.19 -0.67,-2 0,-0.76 0.23,-1.57 0.56,-1.96 0.25,-0.31 0.61,-0.48 1.01,-0.48 v 0.18 c -0.6,0 -0.9,0.75 -0.9,2.2 0,1.47 0.31,2.24 0.91,2.24 h 0 c 0.58,0 0.9,-0.79 0.9,-2.24 0,-1.45 -0.31,-2.2 -0.91,-2.2 v -0.18 c 0.36,0 0.66,0.12 0.91,0.37 0.4,0.38 0.67,1.18 0.67,2.03 0,1.42 -0.64,2.4 -1.55,2.4 z"
         inkscape:connector-curvature="0"
         style="fill:#000000;stroke-width:0" /><path
         id="path7579"
         d="m 256.98,710.33 -1.26,-0.63 v -0.1 c 0.09,0.04 0.16,0.06 0.19,0.08 0.13,0.05 0.24,0.08 0.31,0.08 0.15,0 0.21,-0.11 0.21,-0.33 v -3.15 c 0,-0.23 -0.05,-0.39 -0.16,-0.45 -0.11,-0.07 -0.21,-0.09 -0.5,-0.1 v -0.1 h 1.92 v 0.1 c -0.55,0.01 -0.66,0.08 -0.66,0.42 v 4.17 z"
         inkscape:connector-curvature="0"
         style="fill:#000000;stroke-width:0" /><polygon
         id="polygon7581"
         points="261.77,709.4 266.86,709.4 266.86,709.96 261.77,709.96 "
         style="fill:#000000;stroke-width:0" /><path
         id="path7583"
         d="m 276.54,713.61 h -1.85 v -0.16 c 0.45,-0.05 0.63,-0.15 0.63,-0.34 0,-0.18 -0.19,-0.61 -0.52,-1.18 l -2.05,-3.53 -0.65,4.4 c -0.01,0.05 -0.01,0.09 -0.01,0.15 0,0.33 0.14,0.43 0.76,0.5 v 0.16 h -2.4 v -0.16 c 0.56,-0.07 0.58,-0.1 0.79,-1.34 l 0.85,-5.16 h 0.18 l 3.72,6.1 c 0.16,0.27 0.32,0.39 0.55,0.4 z"
         inkscape:connector-curvature="0"
         style="fill:#000000;stroke-width:0" /><path
         id="path7585"
         d="m 277.55,710.33 -0.03,0 -0.04,0 -0.03,0 -0.04,0 -0.03,-0.01 -0.03,0 -0.04,-0.01 -0.03,0 -0.03,-0.01 -0.03,0 -0.03,-0.01 -0.03,-0.01 -0.03,-0.01 -0.03,-0.01 -0.03,-0.01 -0.03,-0.01 -0.03,-0.01 -0.03,-0.01 -0.02,-0.01 -0.03,-0.02 -0.03,-0.01 -0.03,-0.02 -0.02,-0.01 -0.03,-0.02 -0.02,-0.02 -0.03,-0.02 -0.03,-0.02 -0.02,-0.01 -0.03,-0.02 -0.02,-0.03 -0.02,-0.02 -0.03,-0.02 c -0.4,-0.39 -0.67,-1.19 -0.67,-2 0,-0.76 0.23,-1.57 0.56,-1.96 0.26,-0.31 0.61,-0.48 1.02,-0.48 v 0.18 c -0.6,0 -0.91,0.75 -0.91,2.2 0,1.47 0.31,2.24 0.91,2.24 h 0 c 0.59,0 0.9,-0.79 0.9,-2.24 0,-1.45 -0.31,-2.2 -0.9,-2.2 v -0.18 c 0.35,0 0.65,0.12 0.9,0.37 0.4,0.38 0.67,1.18 0.67,2.03 0,1.42 -0.63,2.4 -1.55,2.4 z"
         inkscape:connector-curvature="0"
         style="fill:#000000;stroke-width:0" /><path
         id="path7587"
         d="m 282.58,706.58 -0.09,0.04 c -0.26,-0.4 -0.35,-0.46 -0.66,-0.46 h -1.67 l 1.17,1.22 c 0.62,0.65 0.9,1.18 0.9,1.72 0,0.7 -0.57,1.23 -1.29,1.23 -0.39,0 -0.75,-0.15 -1.01,-0.43 -0.22,-0.24 -0.32,-0.46 -0.44,-0.95 l 0.14,-0.04 c 0.28,0.68 0.53,0.91 1.01,0.91 0.59,0 0.99,-0.4 0.99,-0.98 0,-0.55 -0.32,-1.19 -0.91,-1.81 l -1.24,-1.32 v -0.08 h 2.72 z"
         inkscape:connector-curvature="0"
         style="fill:#000000;stroke-width:0" /></g>    <text
       xml:space="preserve"
       style="font-size:12px;font-style:normal;font-variant:normal;font-weight:normal;font-stretch:normal;text-align:start;line-height:125%;letter-spacing:0px;word-spacing:0px;text-anchor:start;fill:#000000;fill-opacity:1;stroke:none;font-family:LMRoman12;-inkscape-font-specification:LMRoman12"
       x="357.56833"
       y="759.00372"
       id="text7650"
       sodipodi:linespacing="125%"><tspan
         sodipodi:role="line"
         id="tspan7652"
         x="357.56833"
         y="759.00372">X : Displacement</tspan></text>
    <path
       style="fill:none;stroke:#000000;stroke-width:1px;stroke-linecap:butt;stroke-linejoin:miter;stroke-opacity:1;marker-end:url(#Arrow1Mend-5)"
       d="m 296.29446,904.14142 25,0"
       id="path7654"
       inkscape:connector-curvature="0" />
    <text
       xml:space="preserve"
       style="font-size:12px;font-style:normal;font-variant:normal;font-weight:normal;font-stretch:normal;text-align:center;line-height:125%;letter-spacing:0px;word-spacing:0px;text-anchor:middle;fill:#000000;fill-opacity:1;stroke:none;font-family:LMRoman12;-inkscape-font-specification:LMRoman12"
       x="366.2392"
       y="901.58356"
       id="text7858"
       sodipodi:linespacing="125%"><tspan
         sodipodi:role="line"
         id="tspan7860"
         x="368.19623"
         y="901.58356">Core towards </tspan><tspan
         sodipodi:role="line"
         x="366.2392"
         y="916.58356"
         id="tspan7870">secondary coil 1</tspan></text>
    <path
       inkscape:connector-curvature="0"
       id="path7862"
       d="m 176.63237,943.31365 -25,0"
       style="fill:none;stroke:#000000;stroke-width:1px;stroke-linecap:butt;stroke-linejoin:miter;stroke-opacity:1;marker-end:url(#Arrow1Mend-5)" />
    <text
       sodipodi:linespacing="125%"
       id="text7864"
       y="938.00763"
       x="103.50024"
       style="font-size:12px;font-style:normal;font-variant:normal;font-weight:normal;font-stretch:normal;text-align:center;line-height:125%;letter-spacing:0px;word-spacing:0px;text-anchor:middle;fill:#000000;fill-opacity:1;stroke:none;font-family:LMRoman12;-inkscape-font-specification:LMRoman12"
       xml:space="preserve"><tspan
         y="938.00763"
         x="103.50024"
         id="tspan7866"
         sodipodi:role="line">Core towards</tspan><tspan
         y="953.00763"
         x="103.50024"
         sodipodi:role="line"
         id="tspan7868">secondary coil 2</tspan></text>
  </g>
</svg>
