<?xml version="1.0" encoding="UTF-8" standalone="no"?>
<!-- Created with Inkscape (http://www.inkscape.org/) -->

<svg
   xmlns:ns0="http://www.iki.fi/pav/software/textext/"
   xmlns:dc="http://purl.org/dc/elements/1.1/"
   xmlns:cc="http://creativecommons.org/ns#"
   xmlns:rdf="http://www.w3.org/1999/02/22-rdf-syntax-ns#"
   xmlns:svg="http://www.w3.org/2000/svg"
   xmlns="http://www.w3.org/2000/svg"
   xmlns:sodipodi="http://sodipodi.sourceforge.net/DTD/sodipodi-0.dtd"
   xmlns:inkscape="http://www.inkscape.org/namespaces/inkscape"
   width="496.06299"
   height="354.33069"
   id="svg2"
   version="1.1"
   inkscape:version="0.48.4 r9939"
   sodipodi:docname="fig8.6.eps">
  <sodipodi:namedview
     id="base"
     pagecolor="#ffffff"
     bordercolor="#666666"
     borderopacity="1.0"
     inkscape:pageopacity="0.0"
     inkscape:pageshadow="2"
     inkscape:zoom="1.651"
     inkscape:cx="248.03149"
     inkscape:cy="177.16534"
     inkscape:document-units="cm"
     inkscape:current-layer="layer1"
     showgrid="false"
     units="cm"
     inkscape:object-nodes="true"
     inkscape:window-width="1366"
     inkscape:window-height="744"
     inkscape:window-x="0"
     inkscape:window-y="24"
     inkscape:window-maximized="1">
    <inkscape:grid
       type="xygrid"
       id="grid2985"
       empspacing="5"
       visible="true"
       enabled="true"
       snapvisiblegridlinesonly="true" />
  </sodipodi:namedview>
  <defs
     id="defs4">
    <inkscape:path-effect
       border_marks="both"
       mark_dir="left"
       offset="0"
       shift="0"
       major_mark_steps="12"
       minor_mark_length="7"
       mark_length="7"
       mark_distance="7.4"
       unit="px"
       is_visible="true"
       id="path-effect5138"
       effect="ruler" />
    <inkscape:path-effect
       border_marks="both"
       mark_dir="right"
       offset="0"
       shift="0"
       major_mark_steps="1"
       minor_mark_length="7"
       mark_length="14"
       mark_distance="11.6"
       unit="px"
       is_visible="true"
       id="path-effect5133"
       effect="ruler" />
    <inkscape:path-effect
       border_marks="both"
       mark_dir="right"
       offset="6"
       shift="0"
       major_mark_steps="1"
       minor_mark_length="7"
       mark_length="14"
       mark_distance="10.1"
       unit="px"
       is_visible="true"
       id="path-effect5128"
       effect="ruler" />
    <marker
       inkscape:stockid="Arrow1Mend"
       orient="auto"
       refY="0.0"
       refX="0.0"
       id="Arrow1Mend"
       style="overflow:visible;">
      <path
         id="path3772"
         d="M 0.0,0.0 L 5.0,-5.0 L -12.5,0.0 L 5.0,5.0 L 0.0,0.0 z "
         style="fill-rule:evenodd;stroke:#000000;stroke-width:1.0pt;"
         transform="scale(0.4) rotate(180) translate(10,0)" />
    </marker>
  </defs>
  <metadata
     id="metadata7">
    <rdf:RDF>
      <cc:Work
         rdf:about="">
        <dc:format>image/svg+xml</dc:format>
        <dc:type
           rdf:resource="http://purl.org/dc/dcmitype/StillImage" />
        <dc:title></dc:title>
      </cc:Work>
    </rdf:RDF>
  </metadata>
  <g
     inkscape:label="Layer 1"
     inkscape:groupmode="layer"
     id="layer1"
     transform="translate(0,-698.03017)">
    <path
       sodipodi:nodetypes="cccssccccccscccc"
       inkscape:connector-curvature="0"
       id="path5598"
       d="m 145,139.33069 0,60 0.009,-1.14516 c -0.006,0.38169 -0.009,0.76342 -0.009,1.14516 0,38.65993 31.34007,70 70,70 38.65993,0 70,-31.34007 70,-70 l 0,0 0,-85 -20,0 0,85 -0.0179,-1.33743 c 0.73864,27.60435 -21.04032,50.5809 -48.64468,51.31954 -27.60436,0.73864 -50.5809,-21.04032 -51.31954,-48.64468 -0.0282,-1.05514 -0.023,-2.11091 0.0156,-3.16573 l -0.0335,1.8283 0,-60"
       style="fill:#808080;stroke:#808080;stroke-width:1.20000005000000010;stroke-linecap:butt;stroke-linejoin:miter;stroke-miterlimit:4;stroke-opacity:1;stroke-dasharray:none"
       transform="translate(0,698.03017)" />
    <path
       style="fill:#f9f9f9;stroke:#000000;stroke-width:1px;stroke-linecap:butt;stroke-linejoin:miter;stroke-opacity:1"
       d="m 125,752.36086 20,0 c 2,0 5,3 5,5 l 0,30 5,0 0,-30 c 0,-5 -5,-10 -10,-10 l -20,0 z"
       id="path5602"
       inkscape:connector-curvature="0"
       sodipodi:nodetypes="ccccccccc" />
    <rect
       style="fill:#4d4d4d;stroke:#000000;stroke-width:1.20000005000000010;stroke-linecap:square;stroke-linejoin:round;stroke-miterlimit:4;stroke-dasharray:none;stroke-dashoffset:0"
       id="rect5600"
       width="19.109722"
       height="14.851621"
       x="145.89027"
       y="64.479065"
       transform="translate(0,698.03017)" />
    <path
       style="fill:none;stroke:#000000;stroke-width:1.20000005;stroke-linecap:butt;stroke-linejoin:miter;stroke-miterlimit:4;stroke-opacity:1;stroke-dasharray:none"
       d="m 145,69.33069 0,130 0.009,-1.14516 c -0.006,0.38169 -0.009,0.76342 -0.009,1.14516 0,38.65993 31.34007,70 70,70 38.65993,0 70,-31.34007 70,-70 l 0,0 0,-130.000002 -20,2e-6 0,130 -0.0179,-1.33743 c 0.73864,27.60435 -21.04032,50.5809 -48.64468,51.31954 -27.60436,0.73864 -50.5809,-21.04032 -51.31954,-48.64468 -0.0282,-1.05514 -0.023,-2.11091 0.0156,-3.16573 l -0.0335,1.8283 0,-130 z"
       id="path5588"
       inkscape:connector-curvature="0"
       sodipodi:nodetypes="cccssccccccsccccc"
       transform="translate(0,698.03017)" />
    <path
       style="fill:none;stroke:#000000;stroke-width:1px;stroke-linecap:butt;stroke-linejoin:miter;stroke-opacity:1"
       d="m 170,139.33069 55,0"
       id="path5604"
       inkscape:connector-curvature="0"
       transform="translate(0,698.03017)" />
    <path
       inkscape:connector-curvature="0"
       id="path5606"
       d="m 205,812.36086 55,0"
       style="fill:none;stroke:#000000;stroke-width:1px;stroke-linecap:butt;stroke-linejoin:miter;stroke-opacity:1" />
    <path
       inkscape:connector-curvature="0"
       id="path5608"
       d="m 215,784.11193 0,26.60638"
       style="fill:none;stroke:#000000;stroke-width:1;stroke-linecap:butt;stroke-linejoin:miter;stroke-miterlimit:4;stroke-opacity:1;stroke-dasharray:none;marker-end:url(#Arrow1Mend)" />
    <path
       style="fill:none;stroke:#000000;stroke-width:1;stroke-linecap:butt;stroke-linejoin:miter;stroke-miterlimit:4;stroke-opacity:1;stroke-dasharray:none;marker-end:url(#Arrow1Mend)"
       d="m 215,865.18749 0,-26.60638"
       id="path5610"
       inkscape:connector-curvature="0" />
    <g
       style="font-style:normal;font-variant:normal;font-weight:normal;font-stretch:normal;letter-spacing:normal;word-spacing:normal;text-anchor:start;fill:none;stroke:#000000;stroke-width:1;stroke-linecap:butt;stroke-linejoin:miter;stroke-miterlimit:10.43299961;stroke-opacity:1;stroke-dasharray:none;stroke-dashoffset:0"
       id="content"
       transform="matrix(1.2,0,0,-1.2,-57.001767,1676.7622)"
       xml:space="preserve"
       stroke-miterlimit="10.433"
       font-style="normal"
       font-variant="normal"
       font-weight="normal"
       font-stretch="normal"
       font-size-adjust="none"
       letter-spacing="normal"
       word-spacing="normal"
       ns0:text="$h$"
       ns0:preamble="/home/sriranga/Desktop/Basic-Electronics-Figures/package.tex"><path
         style="fill:#000000;stroke-width:0"
         inkscape:connector-curvature="0"
         d="m 228.06,708.29 -0.03,-0.03 -0.02,-0.03 -0.02,-0.03 -0.03,-0.03 -0.02,-0.03 -0.02,-0.03 -0.02,-0.02 -0.02,-0.03 -0.03,-0.03 -0.01,-0.02 -0.02,-0.02 -0.02,-0.03 -0.02,-0.02 -0.02,-0.02 -0.03,-0.04 -0.04,-0.04 -0.03,-0.03 -0.03,-0.04 -0.02,-0.03 -0.03,-0.03 -0.03,-0.02 -0.02,-0.03 -0.02,-0.02 -0.02,-0.02 -0.02,-0.02 -0.02,-0.01 -0.02,-0.02 -0.02,-0.01 -0.02,-0.01 -0.01,-0.01 -0.02,-0.01 -0.01,-0.01 -0.02,0 -0.01,-0.01 -0.02,0 -0.01,0 -0.02,-0.01 -0.03,0 c -0.09,0 -0.16,0.09 -0.16,0.18 0,0.1 0.16,0.73 0.33,1.24 0.29,0.95 0.48,1.68 0.48,1.92 0,0.4 -0.27,0.67 -0.66,0.67 -0.64,0 -1.35,-0.66 -2.28,-2.1 l 1.2,4.45 -0.05,0.05 c -0.58,-0.13 -0.97,-0.2 -1.56,-0.27 v -0.15 h 0.25 c 0.01,0 0.03,0 0.03,0.01 0.14,0.06 0.38,-0.11 0.38,-0.25 0,-0.14 -0.05,-0.38 -0.14,-0.67 -0.01,-0.01 -0.04,-0.15 -0.1,-0.37 l -1.34,-5.09 h 0.75 c 0.39,1.54 0.53,1.87 0.92,2.48 0.52,0.78 1.2,1.4 1.55,1.4 0.14,0 0.27,-0.12 0.27,-0.25 0,-0.04 -0.03,-0.17 -0.07,-0.33 l -0.54,-2.05 c -0.13,-0.49 -0.2,-0.8 -0.2,-0.92 0,-0.26 0.17,-0.41 0.44,-0.41 0.5,0 0.85,0.26 1.45,1.13 z"
         id="path5633" /></g>    <path
       style="fill:none;stroke:#000000;stroke-width:1;stroke-linecap:butt;stroke-linejoin:miter;stroke-miterlimit:4;stroke-opacity:1;stroke-dasharray:none;marker-end:url(#Arrow1Mend)"
       d="m 274.68784,738.38776 0,26.60638"
       id="path5655"
       inkscape:connector-curvature="0" />
    <g
       id="g5737"
       transform="matrix(1.2,0,0,-1.2,-11.098843,1583.379)"
       xml:space="preserve"
       stroke-miterlimit="10.433"
       font-style="normal"
       font-variant="normal"
       font-weight="normal"
       font-stretch="normal"
       font-size-adjust="none"
       letter-spacing="normal"
       word-spacing="normal"
       ns0:text="$P_0=$"
       ns0:preamble="/home/sriranga/Desktop/Basic-Electronics-Figures/package.tex"
       style="font-style:normal;font-variant:normal;font-weight:normal;font-stretch:normal;letter-spacing:normal;word-spacing:normal;text-anchor:start;fill:none;stroke:#000000;stroke-width:1;stroke-linecap:butt;stroke-linejoin:miter;stroke-miterlimit:10.43299961;stroke-opacity:1;stroke-dasharray:none;stroke-dashoffset:0"><path
         style="fill:#000000;stroke-width:0"
         inkscape:connector-curvature="0"
         d="m 225.13,713.45 0.03,0 0.03,0 0.05,-0.01 0.04,-0.01 0.05,0 0.04,-0.01 0.04,-0.01 0.04,-0.01 0.03,-0.01 0.04,0 0.03,-0.01 0.03,-0.01 0.03,-0.01 0.02,-0.01 0.03,-0.01 0.02,-0.01 0.02,-0.01 0.02,-0.02 0.02,-0.01 0.01,-0.01 0.02,-0.02 0.01,-0.01 0.01,-0.02 0.01,-0.01 0.01,-0.02 0.01,-0.02 0,-0.02 0.01,-0.01 0,-0.02 0.01,-0.03 0,-0.02 0,-0.02 0,-0.02 c 0,-0.14 -0.04,-0.35 -0.17,-0.8 l -1.17,-4.22 c -0.18,-0.6 -0.25,-0.66 -0.82,-0.74 v -0.16 h 2.44 v 0.16 c -0.63,0.09 -0.68,0.12 -0.68,0.46 0,0.12 0.02,0.22 0.12,0.58 l 0.53,1.91 0.09,0.34 0.7,2.47 c 0.06,0.2 0.18,0.27 0.46,0.27 0.39,0 0.77,-0.1 0.97,-0.23 0.26,-0.18 0.37,-0.48 0.37,-0.95 0,-0.64 -0.23,-1.1 -0.67,-1.36 -0.31,-0.17 -0.7,-0.25 -1.31,-0.25 -0.17,0 -0.25,0.01 -0.52,0.05 l -0.09,-0.34 c 0.25,-0.06 0.51,-0.07 0.91,-0.07 0.82,0 1.49,0.16 1.91,0.47 0.5,0.37 0.79,0.92 0.79,1.5 0,0.96 -0.75,1.48 -2.1,1.48 h -2.47 z"
         id="path5739" /><path
         style="fill:#000000;stroke-width:0"
         inkscape:connector-curvature="0"
         d="m 231.54,710.33 -0.04,0 -0.03,0 -0.04,0 -0.03,0 -0.04,-0.01 -0.03,0 -0.03,-0.01 -0.03,0 -0.04,-0.01 -0.03,0 -0.03,-0.01 -0.03,-0.01 -0.03,-0.01 -0.03,-0.01 -0.03,-0.01 -0.03,-0.01 -0.03,-0.01 -0.02,-0.01 -0.03,-0.01 -0.03,-0.02 -0.03,-0.01 -0.02,-0.02 -0.03,-0.01 -0.03,-0.02 -0.02,-0.02 -0.03,-0.02 -0.02,-0.02 -0.03,-0.01 -0.02,-0.02 -0.03,-0.03 -0.02,-0.02 -0.03,-0.02 c -0.4,-0.39 -0.67,-1.19 -0.67,-2 0,-0.76 0.23,-1.57 0.56,-1.96 0.26,-0.31 0.61,-0.48 1.02,-0.48 v 0.18 c -0.6,0 -0.91,0.75 -0.91,2.2 0,1.47 0.32,2.24 0.92,2.24 h 0 c 0.58,0 0.89,-0.79 0.89,-2.24 0,-1.45 -0.3,-2.2 -0.9,-2.2 v -0.18 c 0.35,0 0.65,0.12 0.9,0.37 0.41,0.38 0.67,1.18 0.67,2.03 0,1.42 -0.63,2.4 -1.54,2.4 z"
         id="path5741" /><polygon
         style="fill:#000000;stroke-width:0"
         points="237.14,710.4 242.23,710.4 242.23,710.96 237.14,710.96 "
         id="polygon5743" /><polygon
         style="fill:#000000;stroke-width:0"
         points="237.14,708.39 242.23,708.39 242.23,708.94 237.14,708.94 "
         id="polygon5745" /></g>    <text
       sodipodi:linespacing="125%"
       id="text5773"
       y="735.57721"
       x="335.40189"
       style="font-size:12px;font-style:normal;font-variant:normal;font-weight:normal;font-stretch:normal;text-align:center;line-height:125%;letter-spacing:0px;word-spacing:0px;text-anchor:middle;fill:#000000;fill-opacity:1;stroke:none;font-family:LMRoman12;-inkscape-font-specification:LMRoman12"
       xml:space="preserve"><tspan
         y="735.57721"
         x="335.40189"
         id="tspan5775"
         sodipodi:role="line">Atmosphere pressure</tspan></text>
    <path
       inkscape:connector-curvature="0"
       id="path5777"
       d="m 95.062496,750.07147 26.606374,0"
       style="fill:none;stroke:#000000;stroke-width:1;stroke-linecap:butt;stroke-linejoin:miter;stroke-miterlimit:4;stroke-opacity:1;stroke-dasharray:none;marker-end:url(#Arrow1Mend)" />
    <text
       sodipodi:linespacing="125%"
       id="text5779"
       y="739.12494"
       x="94.623177"
       style="font-size:12px;font-style:normal;font-variant:normal;font-weight:normal;font-stretch:normal;text-align:center;line-height:125%;letter-spacing:0px;word-spacing:0px;text-anchor:middle;fill:#000000;fill-opacity:1;stroke:none;font-family:LMRoman12;-inkscape-font-specification:LMRoman12"
       xml:space="preserve"><tspan
         y="739.12494"
         x="94.623177"
         id="tspan5781"
         sodipodi:role="line">Unknown Pressure</tspan></text>
    <g
       style="font-style:normal;font-variant:normal;font-weight:normal;font-stretch:normal;letter-spacing:normal;word-spacing:normal;text-anchor:start;fill:none;stroke:#000000;stroke-width:1;stroke-linecap:butt;stroke-linejoin:miter;stroke-miterlimit:10.43299961;stroke-opacity:1;stroke-dasharray:none;stroke-dashoffset:0"
       ns0:preamble="/home/sriranga/Desktop/Basic-Electronics-Figures/package.tex"
       ns0:text="$P$"
       word-spacing="normal"
       letter-spacing="normal"
       font-size-adjust="none"
       font-stretch="normal"
       font-weight="normal"
       font-variant="normal"
       font-style="normal"
       stroke-miterlimit="10.433"
       xml:space="preserve"
       transform="matrix(1.2,0,0,-1.2,-186.59751,1602.1503)"
       id="g5826"><path
         id="path5828"
         d="m 225.13,713.45 0.03,0 0.03,0 0.05,-0.01 0.04,-0.01 0.05,0 0.04,-0.01 0.04,-0.01 0.04,-0.01 0.03,-0.01 0.04,0 0.03,-0.01 0.03,-0.01 0.03,-0.01 0.02,-0.01 0.03,-0.01 0.02,-0.01 0.02,-0.01 0.02,-0.02 0.02,-0.01 0.01,-0.01 0.02,-0.02 0.01,-0.01 0.01,-0.02 0.01,-0.01 0.01,-0.02 0.01,-0.02 0,-0.02 0.01,-0.01 0,-0.02 0.01,-0.03 0,-0.02 0,-0.02 0,-0.02 c 0,-0.14 -0.04,-0.35 -0.17,-0.8 l -1.17,-4.22 c -0.18,-0.6 -0.25,-0.66 -0.82,-0.74 v -0.16 h 2.44 v 0.16 c -0.63,0.09 -0.68,0.12 -0.68,0.46 0,0.12 0.02,0.22 0.12,0.58 l 0.53,1.91 0.09,0.34 0.7,2.47 c 0.06,0.2 0.18,0.27 0.46,0.27 0.39,0 0.77,-0.1 0.97,-0.23 0.26,-0.18 0.37,-0.48 0.37,-0.95 0,-0.64 -0.23,-1.1 -0.67,-1.36 -0.31,-0.17 -0.7,-0.25 -1.31,-0.25 -0.17,0 -0.25,0.01 -0.52,0.05 l -0.09,-0.34 c 0.25,-0.06 0.51,-0.07 0.91,-0.07 0.82,0 1.49,0.16 1.91,0.47 0.5,0.37 0.79,0.92 0.79,1.5 0,0.96 -0.75,1.48 -2.1,1.48 h -2.47 z"
         inkscape:connector-curvature="0"
         style="fill:#000000;stroke-width:0" /></g>  </g>
</svg>
