<?xml version="1.0" encoding="UTF-8" standalone="no"?>
<!-- Created with Inkscape (http://www.inkscape.org/) -->

<svg
   xmlns:ns0="http://www.iki.fi/pav/software/textext/"
   xmlns:dc="http://purl.org/dc/elements/1.1/"
   xmlns:cc="http://creativecommons.org/ns#"
   xmlns:rdf="http://www.w3.org/1999/02/22-rdf-syntax-ns#"
   xmlns:svg="http://www.w3.org/2000/svg"
   xmlns="http://www.w3.org/2000/svg"
   xmlns:xlink="http://www.w3.org/1999/xlink"
   xmlns:sodipodi="http://sodipodi.sourceforge.net/DTD/sodipodi-0.dtd"
   xmlns:inkscape="http://www.inkscape.org/namespaces/inkscape"
   width="496.06299"
   height="354.33069"
   id="svg2"
   version="1.1"
   inkscape:version="0.47 r22583"
   sodipodi:docname="fig8.15.svg">
  <sodipodi:namedview
     id="base"
     pagecolor="#ffffff"
     bordercolor="#666666"
     borderopacity="1.0"
     inkscape:pageopacity="0.0"
     inkscape:pageshadow="2"
     inkscape:zoom="1.6848668"
     inkscape:cx="229.13809"
     inkscape:cy="173.32505"
     inkscape:document-units="cm"
     inkscape:current-layer="layer1"
     showgrid="false"
     units="cm"
     inkscape:object-nodes="true"
     inkscape:window-width="1024"
     inkscape:window-height="689"
     inkscape:window-x="0"
     inkscape:window-y="27"
     inkscape:window-maximized="1">
    <inkscape:grid
       type="xygrid"
       id="grid2985"
       empspacing="5"
       visible="true"
       enabled="true"
       snapvisiblegridlinesonly="true" />
  </sodipodi:namedview>
  <defs
     id="defs4">
    <inkscape:perspective
       id="perspective101"
       inkscape:persp3d-origin="248.03149 : 118.11023 : 1"
       inkscape:vp_z="496.06299 : 177.16534 : 1"
       inkscape:vp_y="0 : 1000 : 0"
       inkscape:vp_x="0 : 177.16534 : 1"
       sodipodi:type="inkscape:persp3d" />
    <marker
       inkscape:stockid="Arrow1Mstart"
       orient="auto"
       refY="0.0"
       refX="0.0"
       id="Arrow1Mstart"
       style="overflow:visible">
      <path
         id="path4252"
         d="M 0.0,0.0 L 5.0,-5.0 L -12.5,0.0 L 5.0,5.0 L 0.0,0.0 z "
         style="fill-rule:evenodd;stroke:#000000;stroke-width:1.0pt"
         transform="scale(0.4) translate(10,0)" />
    </marker>
    <inkscape:path-effect
       border_marks="both"
       mark_dir="left"
       offset="0"
       shift="0"
       major_mark_steps="12"
       minor_mark_length="7"
       mark_length="7"
       mark_distance="7.4"
       unit="px"
       is_visible="true"
       id="path-effect5138"
       effect="ruler" />
    <inkscape:path-effect
       border_marks="both"
       mark_dir="right"
       offset="0"
       shift="0"
       major_mark_steps="1"
       minor_mark_length="7"
       mark_length="14"
       mark_distance="11.6"
       unit="px"
       is_visible="true"
       id="path-effect5133"
       effect="ruler" />
    <inkscape:path-effect
       border_marks="both"
       mark_dir="right"
       offset="6"
       shift="0"
       major_mark_steps="1"
       minor_mark_length="7"
       mark_length="14"
       mark_distance="10.1"
       unit="px"
       is_visible="true"
       id="path-effect5128"
       effect="ruler" />
    <marker
       inkscape:stockid="Arrow1Mend"
       orient="auto"
       refY="0.0"
       refX="0.0"
       id="Arrow1Mend"
       style="overflow:visible;">
      <path
         id="path3772"
         d="M 0.0,0.0 L 5.0,-5.0 L -12.5,0.0 L 5.0,5.0 L 0.0,0.0 z "
         style="fill-rule:evenodd;stroke:#000000;stroke-width:1.0pt;"
         transform="scale(0.4) rotate(180) translate(10,0)" />
    </marker>
    <marker
       inkscape:stockid="Arrow1Mend"
       orient="auto"
       refY="0"
       refX="0"
       id="Arrow1Mend-62"
       style="overflow:visible">
      <path
         inkscape:connector-curvature="0"
         id="path5100-5"
         d="M 0,0 5,-5 -12.5,0 5,5 0,0 z"
         style="fill-rule:evenodd;stroke:#000000;stroke-width:1pt"
         transform="matrix(-0.4,0,0,-0.4,-4,0)" />
    </marker>
    <marker
       style="overflow:visible"
       id="Arrow1Mend-9"
       refX="0"
       refY="0"
       orient="auto"
       inkscape:stockid="Arrow1Mend">
      <path
         transform="matrix(-0.4,0,0,-0.4,-4,0)"
         style="fill-rule:evenodd;stroke:#000000;stroke-width:1pt"
         d="M 0,0 5,-5 -12.5,0 5,5 0,0 z"
         id="path5100-86"
         inkscape:connector-curvature="0" />
    </marker>
    <marker
       inkscape:stockid="Arrow1Mend"
       orient="auto"
       refY="0"
       refX="0"
       id="Arrow1Mend-6"
       style="overflow:visible">
      <path
         inkscape:connector-curvature="0"
         id="path5100-8"
         d="M 0,0 5,-5 -12.5,0 5,5 0,0 z"
         style="fill-rule:evenodd;stroke:#000000;stroke-width:1pt"
         transform="matrix(-0.4,0,0,-0.4,-4,0)" />
    </marker>
    <marker
       inkscape:stockid="Arrow1Mend"
       orient="auto"
       refY="0.0"
       refX="0.0"
       id="Arrow1Mend-96"
       style="overflow:visible;">
      <path
         id="path5100"
         d="M 0.0,0.0 L 5.0,-5.0 L -12.5,0.0 L 5.0,5.0 L 0.0,0.0 z "
         style="fill-rule:evenodd;stroke:#000000;stroke-width:1.0pt;"
         transform="scale(0.4) rotate(180) translate(10,0)" />
    </marker>
    <marker
       inkscape:stockid="Arrow1Mend"
       orient="auto"
       refY="0"
       refX="0"
       id="marker3138"
       style="overflow:visible">
      <path
         inkscape:connector-curvature="0"
         id="path3140"
         d="M 0,0 5,-5 -12.5,0 5,5 0,0 z"
         style="fill-rule:evenodd;stroke:#000000;stroke-width:1pt"
         transform="matrix(-0.4,0,0,-0.4,-4,0)" />
    </marker>
    <marker
       inkscape:stockid="Arrow1Mend"
       orient="auto"
       refY="0"
       refX="0"
       id="marker3134"
       style="overflow:visible">
      <path
         inkscape:connector-curvature="0"
         id="path3136"
         d="M 0,0 5,-5 -12.5,0 5,5 0,0 z"
         style="fill-rule:evenodd;stroke:#000000;stroke-width:1pt"
         transform="matrix(-0.4,0,0,-0.4,-4,0)" />
    </marker>
    <marker
       inkscape:stockid="Arrow1Mend"
       orient="auto"
       refY="0"
       refX="0"
       id="marker3130"
       style="overflow:visible">
      <path
         inkscape:connector-curvature="0"
         id="path3132"
         d="M 0,0 5,-5 -12.5,0 5,5 0,0 z"
         style="fill-rule:evenodd;stroke:#000000;stroke-width:1pt"
         transform="matrix(-0.4,0,0,-0.4,-4,0)" />
    </marker>
    <marker
       inkscape:stockid="Arrow1Mend"
       orient="auto"
       refY="0"
       refX="0"
       id="Arrow1Mend-8"
       style="overflow:visible">
      <path
         inkscape:connector-curvature="0"
         id="path5100-5-8"
         d="M 0,0 5,-5 -12.5,0 5,5 0,0 z"
         style="fill-rule:evenodd;stroke:#000000;stroke-width:1pt"
         transform="matrix(-0.4,0,0,-0.4,-4,0)" />
    </marker>
    <marker
       style="overflow:visible;"
       id="Arrow1Mend-5"
       refX="0.0"
       refY="0.0"
       orient="auto"
       inkscape:stockid="Arrow1Mend">
      <path
         transform="scale(0.4) rotate(180) translate(10,0)"
         style="fill-rule:evenodd;stroke:#000000;stroke-width:1.0pt;"
         d="M 0.0,0.0 L 5.0,-5.0 L -12.5,0.0 L 5.0,5.0 L 0.0,0.0 z "
         id="path5100-2" />
    </marker>
  </defs>
  <metadata
     id="metadata7">
    <rdf:RDF>
      <cc:Work
         rdf:about="">
        <dc:format>image/svg+xml</dc:format>
        <dc:type
           rdf:resource="http://purl.org/dc/dcmitype/StillImage" />
        <dc:title />
      </cc:Work>
    </rdf:RDF>
  </metadata>
  <g
     inkscape:label="Layer 1"
     inkscape:groupmode="layer"
     id="layer1"
     transform="translate(0,-698.03017)">
    <g
       style="stroke:#000000;stroke-width:1.28546822;stroke-miterlimit:4;stroke-dasharray:none"
       transform="matrix(0,0.87144478,-1,0,977.3609,664.28593)"
       id="g4574">
      <path
         style="fill:none;stroke:#000000;stroke-width:1.28546822;stroke-linecap:butt;stroke-linejoin:miter;stroke-miterlimit:4;stroke-opacity:1;stroke-dasharray:none"
         d="m 229.72106,827.61631 c 9.96875,-0.34375 9,15 5,15 -4,0 -5.01563,-15.32031 5,-15"
         id="path4576"
         inkscape:connector-curvature="0"
         sodipodi:nodetypes="ccc" />
      <path
         sodipodi:nodetypes="ccc"
         inkscape:connector-curvature="0"
         id="path4578"
         d="m 239.68264,827.61631 c 9.96875,-0.34375 9,15 5,15 -4,0 -5.01563,-15.32031 5,-15"
         style="fill:none;stroke:#000000;stroke-width:1.28546822;stroke-linecap:butt;stroke-linejoin:miter;stroke-miterlimit:4;stroke-opacity:1;stroke-dasharray:none" />
      <path
         style="fill:none;stroke:#000000;stroke-width:1.28546822;stroke-linecap:butt;stroke-linejoin:miter;stroke-miterlimit:4;stroke-opacity:1;stroke-dasharray:none"
         d="m 249.61792,827.61631 c 9.96875,-0.34375 9,15 5,15 -4,0 -5.01563,-15.32031 5,-15"
         id="path4580"
         inkscape:connector-curvature="0"
         sodipodi:nodetypes="ccc" />
      <path
         sodipodi:nodetypes="ccc"
         inkscape:connector-curvature="0"
         id="path4582"
         d="m 219.89959,827.61631 c 9.96875,-0.34375 9,15 5,15 -4,0 -5.01563,-15.32031 5,-15"
         style="fill:none;stroke:#000000;stroke-width:1.28546822;stroke-linecap:butt;stroke-linejoin:miter;stroke-miterlimit:4;stroke-opacity:1;stroke-dasharray:none" />
      <path
         style="fill:none;stroke:#000000;stroke-width:1.28546822;stroke-linecap:butt;stroke-linejoin:miter;stroke-miterlimit:4;stroke-opacity:1;stroke-dasharray:none"
         d="m 210.08208,827.61631 c 9.96875,-0.34375 9,15 5,15 -4,0 -5.01563,-15.32031 5,-15"
         id="path4584"
         inkscape:connector-curvature="0"
         sodipodi:nodetypes="ccc" />
      <path
         style="fill:none;stroke:#000000;stroke-width:1.28546822;stroke-linecap:butt;stroke-linejoin:miter;stroke-miterlimit:4;stroke-opacity:1;stroke-dasharray:none"
         d="m 210.4071,827.61774 c -2.31515,0.0221 -4.82296,2.27358 -5.25291,4.66979 -0.55713,3.10498 -1.714,4.89659 -3.58422,5.07337 -5,0 -19.65108,0 -21.65108,0"
         id="path4586"
         inkscape:connector-curvature="0"
         sodipodi:nodetypes="cscc" />
      <path
         sodipodi:nodetypes="cscc"
         inkscape:connector-curvature="0"
         id="path4588"
         d="m 259.51774,827.61774 c 2.31515,0.0221 4.82296,2.27358 5.25291,4.66979 0.55713,3.10498 1.714,4.89659 3.58422,5.07337 5,0 9.64513,0 11.64513,0"
         style="fill:none;stroke:#000000;stroke-width:1.28546822;stroke-linecap:butt;stroke-linejoin:miter;stroke-miterlimit:4;stroke-opacity:1;stroke-dasharray:none" />
    </g>
    <path
       inkscape:connector-curvature="0"
       id="path4590"
       d="m 140,902.36086 4e-5,30 -80.00004,0"
       style="fill:none;stroke:#000000;stroke-width:1.20472443;stroke-linecap:butt;stroke-linejoin:miter;stroke-miterlimit:4;stroke-opacity:1;stroke-dasharray:none"
       sodipodi:nodetypes="ccc" />
    <path
       inkscape:connector-curvature="0"
       id="path3191"
       d="m 60,802.36086 80,0 0,25"
       style="fill:none;stroke:#000000;stroke-width:1.20472443;stroke-linecap:butt;stroke-linejoin:miter;stroke-miterlimit:4;stroke-opacity:1;stroke-dasharray:none"
       sodipodi:nodetypes="ccc" />
    <g
       style="font-style:normal;font-variant:normal;font-weight:normal;font-stretch:normal;letter-spacing:normal;word-spacing:normal;text-anchor:start;fill:none;stroke:#000000;stroke-width:1;stroke-linecap:butt;stroke-linejoin:miter;stroke-miterlimit:10.43299961;stroke-opacity:1;stroke-dasharray:none;stroke-dashoffset:0"
       ns0:preamble="/home/sriranga/Desktop/MCT/package.tex"
       ns0:text="$+$"
       word-spacing="normal"
       letter-spacing="normal"
       font-size-adjust="none"
       font-stretch="normal"
       font-weight="normal"
       font-variant="normal"
       font-style="normal"
       stroke-miterlimit="10.433"
       xml:space="preserve"
       transform="matrix(1.2,0,0,-1.2,-56.706921,1637.8377)"
       id="g3236"><polygon
         id="polygon3238"
         points="226.32,709.4 226.32,707.12 226.87,707.12 226.87,709.4 229.14,709.4 229.14,709.96 226.87,709.96 226.87,712.2 226.32,712.2 226.32,709.96 224.05,709.96 224.05,709.4 "
         style="fill:#000000;stroke-width:0" /></g>    <g
       id="g4821"
       style="fill:none"
       transform="matrix(1,0,0,1.1176472,0,-102.04258)">
      <g
         id="g5072">
        <rect
           transform="translate(0,698.03017)"
           y="84.330688"
           x="160"
           height="170"
           width="20"
           id="rect4507"
           style="fill:none;stroke:#000000;stroke-width:1.1350863;stroke-linecap:square;stroke-linejoin:miter;stroke-miterlimit:4;stroke-dasharray:none;stroke-dashoffset:0" />
        <path
           d="M 165.262773,84.330688 l -5.262773,4.708797 M 160.000000,95.366229 l 12.333841,-11.035541 M 179.404909,84.330688 l -19.404909,17.362285 M 160.000000,108.019717 l 20.000000,-17.894735 M 180.000000,96.451726 l -20.000000,17.894735 M 160.000000,120.673205 l 20.000000,-17.894735 M 180.000000,109.105215 l -20.000000,17.894735 M 160.000000,133.326693 l 20.000000,-17.894735 M 180.000000,121.758703 l -20.000000,17.894735 M 160.000000,145.980181 l 20.000000,-17.894735 M 180.000000,134.412191 l -20.000000,17.894735 M 160.000000,158.633670 l 20.000000,-17.894735 M 180.000000,147.065679 l -20.000000,17.894735 M 160.000000,171.287158 l 20.000000,-17.894735 M 180.000000,159.719167 l -20.000000,17.894735 M 160.000000,183.940646 l 20.000000,-17.894735 M 180.000000,172.372655 l -20.000000,17.894735 M 160.000000,196.594134 l 20.000000,-17.894735 M 180.000000,185.026144 l -20.000000,17.894735 M 160.000000,209.247622 l 20.000000,-17.894735 M 180.000000,197.679632 l -20.000000,17.894735 M 160.000000,221.901110 l 20.000000,-17.894735 M 180.000000,210.333120 l -20.000000,17.894735 M 160.000000,234.554599 l 20.000000,-17.894735 M 180.000000,222.986608 l -20.000000,17.894735 M 160.000000,247.208087 l 20.000000,-17.894735 M 180.000000,235.640096 l -20.000000,17.894735 M 166.181580,254.330688 l 13.818420,-12.363848 M 180.000000,248.293584 l -6.747352,6.037104"
           style="stroke:#000000;stroke-width:0.948829;fill:none"
           transform="translate(0,698.03017)"
           id="path5075" />
      </g>
    </g>
    <g
       id="g4929"
       transform="matrix(0,0.87144478,1,0,-637.3609,610.73051)"
       style="stroke:#000000;stroke-width:1.28546822;stroke-miterlimit:4;stroke-dasharray:none">
      <path
         sodipodi:nodetypes="ccc"
         inkscape:connector-curvature="0"
         id="path4931"
         d="m 229.72106,827.61631 c 9.96875,-0.34375 9,15 5,15 -4,0 -5.01563,-15.32031 5,-15"
         style="fill:none;stroke:#000000;stroke-width:1.28546822;stroke-linecap:butt;stroke-linejoin:miter;stroke-miterlimit:4;stroke-opacity:1;stroke-dasharray:none" />
      <path
         style="fill:none;stroke:#000000;stroke-width:1.28546822;stroke-linecap:butt;stroke-linejoin:miter;stroke-miterlimit:4;stroke-opacity:1;stroke-dasharray:none"
         d="m 239.68264,827.61631 c 9.96875,-0.34375 9,15 5,15 -4,0 -5.01563,-15.32031 5,-15"
         id="path4933"
         inkscape:connector-curvature="0"
         sodipodi:nodetypes="ccc" />
      <path
         sodipodi:nodetypes="ccc"
         inkscape:connector-curvature="0"
         id="path4935"
         d="m 249.61792,827.61631 c 9.96875,-0.34375 9,15 5,15 -4,0 -5.01563,-15.32031 5,-15"
         style="fill:none;stroke:#000000;stroke-width:1.28546822;stroke-linecap:butt;stroke-linejoin:miter;stroke-miterlimit:4;stroke-opacity:1;stroke-dasharray:none" />
      <path
         style="fill:none;stroke:#000000;stroke-width:1.28546822;stroke-linecap:butt;stroke-linejoin:miter;stroke-miterlimit:4;stroke-opacity:1;stroke-dasharray:none"
         d="m 219.89959,827.61631 c 9.96875,-0.34375 9,15 5,15 -4,0 -5.01563,-15.32031 5,-15"
         id="path4937"
         inkscape:connector-curvature="0"
         sodipodi:nodetypes="ccc" />
      <path
         sodipodi:nodetypes="ccc"
         inkscape:connector-curvature="0"
         id="path4939"
         d="m 210.08208,827.61631 c 9.96875,-0.34375 9,15 5,15 -4,0 -5.01563,-15.32031 5,-15"
         style="fill:none;stroke:#000000;stroke-width:1.28546822;stroke-linecap:butt;stroke-linejoin:miter;stroke-miterlimit:4;stroke-opacity:1;stroke-dasharray:none" />
      <path
         sodipodi:nodetypes="cscc"
         inkscape:connector-curvature="0"
         id="path4941"
         d="m 210.4071,827.61774 c -2.31515,0.0221 -4.82296,2.27358 -5.25291,4.66979 -0.55713,3.10498 -1.714,4.89659 -3.58422,5.07337 -5,0 -8.35837,0 -10.35837,0"
         style="fill:none;stroke:#000000;stroke-width:1.28546822;stroke-linecap:butt;stroke-linejoin:miter;stroke-miterlimit:4;stroke-opacity:1;stroke-dasharray:none" />
      <path
         style="fill:none;stroke:#000000;stroke-width:1.28546822;stroke-linecap:butt;stroke-linejoin:miter;stroke-miterlimit:4;stroke-opacity:1;stroke-dasharray:none"
         d="m 259.51774,827.61774 c 2.31515,0.0221 4.82296,2.27358 5.25291,4.66979 0.55713,3.10498 1.714,4.89659 3.58422,5.07337 5,0 9.64513,0 11.64513,0"
         id="path4943"
         inkscape:connector-curvature="0"
         sodipodi:nodetypes="cscc" />
    </g>
    <g
       style="stroke:#000000;stroke-width:1.28546822;stroke-miterlimit:4;stroke-dasharray:none"
       transform="matrix(0,0.87144478,1,0,-637.3609,714.28593)"
       id="g4945">
      <path
         style="fill:none;stroke:#000000;stroke-width:1.28546822;stroke-linecap:butt;stroke-linejoin:miter;stroke-miterlimit:4;stroke-opacity:1;stroke-dasharray:none"
         d="m 229.72106,827.61631 c 9.96875,-0.34375 9,15 5,15 -4,0 -5.01563,-15.32031 5,-15"
         id="path4947"
         inkscape:connector-curvature="0"
         sodipodi:nodetypes="ccc" />
      <path
         sodipodi:nodetypes="ccc"
         inkscape:connector-curvature="0"
         id="path4949"
         d="m 239.68264,827.61631 c 9.96875,-0.34375 9,15 5,15 -4,0 -5.01563,-15.32031 5,-15"
         style="fill:none;stroke:#000000;stroke-width:1.28546822;stroke-linecap:butt;stroke-linejoin:miter;stroke-miterlimit:4;stroke-opacity:1;stroke-dasharray:none" />
      <path
         style="fill:none;stroke:#000000;stroke-width:1.28546822;stroke-linecap:butt;stroke-linejoin:miter;stroke-miterlimit:4;stroke-opacity:1;stroke-dasharray:none"
         d="m 249.61792,827.61631 c 9.96875,-0.34375 9,15 5,15 -4,0 -5.01563,-15.32031 5,-15"
         id="path4951"
         inkscape:connector-curvature="0"
         sodipodi:nodetypes="ccc" />
      <path
         sodipodi:nodetypes="ccc"
         inkscape:connector-curvature="0"
         id="path4953"
         d="m 219.89959,827.61631 c 9.96875,-0.34375 9,15 5,15 -4,0 -5.01563,-15.32031 5,-15"
         style="fill:none;stroke:#000000;stroke-width:1.28546822;stroke-linecap:butt;stroke-linejoin:miter;stroke-miterlimit:4;stroke-opacity:1;stroke-dasharray:none" />
      <path
         style="fill:none;stroke:#000000;stroke-width:1.28546822;stroke-linecap:butt;stroke-linejoin:miter;stroke-miterlimit:4;stroke-opacity:1;stroke-dasharray:none"
         d="m 210.08208,827.61631 c 9.96875,-0.34375 9,15 5,15 -4,0 -5.01563,-15.32031 5,-15"
         id="path4955"
         inkscape:connector-curvature="0"
         sodipodi:nodetypes="ccc" />
      <path
         style="fill:none;stroke:#000000;stroke-width:1.28546822;stroke-linecap:butt;stroke-linejoin:miter;stroke-miterlimit:4;stroke-opacity:1;stroke-dasharray:none"
         d="m 210.4071,827.61774 c -2.31515,0.0221 -4.82296,2.27358 -5.25291,4.66979 -0.55713,3.10498 -1.714,4.89659 -3.58422,5.07337 -5,0 -12.43829,0 -14.43829,0"
         id="path4957"
         inkscape:connector-curvature="0"
         sodipodi:nodetypes="cscc" />
      <path
         sodipodi:nodetypes="cscc"
         inkscape:connector-curvature="0"
         id="path4959"
         d="m 259.51774,827.61774 c 2.31515,0.0221 4.82296,2.27358 5.25291,4.66979 0.55713,3.10498 1.714,4.89659 3.58422,5.07337 5,0 9.64513,0 11.64513,0"
         style="fill:none;stroke:#000000;stroke-width:1.28546822;stroke-linecap:butt;stroke-linejoin:miter;stroke-miterlimit:4;stroke-opacity:1;stroke-dasharray:none" />
    </g>
    <path
       sodipodi:nodetypes="ccc"
       style="fill:none;stroke:#000000;stroke-width:1.20472443;stroke-linecap:butt;stroke-linejoin:miter;stroke-miterlimit:4;stroke-opacity:1;stroke-dasharray:none"
       d="m 295,772.36086 -95,0 0,10"
       id="path4961"
       inkscape:connector-curvature="0" />
    <path
       inkscape:connector-curvature="0"
       id="path4963"
       d="m 240,962.36086 5,0 -0.42394,-105 -44.57606,0 0,-10"
       style="fill:none;stroke:#000000;stroke-width:1.20472443;stroke-linecap:butt;stroke-linejoin:miter;stroke-miterlimit:4;stroke-opacity:1;stroke-dasharray:none"
       sodipodi:nodetypes="ccccc" />
    <path
       inkscape:connector-curvature="0"
       id="path4965"
       d="m 295,877.36086 -95,0 0,10"
       style="fill:none;stroke:#000000;stroke-width:1.20472443;stroke-linecap:butt;stroke-linejoin:miter;stroke-miterlimit:4;stroke-opacity:1;stroke-dasharray:none"
       sodipodi:nodetypes="ccc" />
    <path
       sodipodi:nodetypes="ccc"
       style="fill:none;stroke:#000000;stroke-width:1.20472443;stroke-linecap:butt;stroke-linejoin:miter;stroke-miterlimit:4;stroke-opacity:1;stroke-dasharray:none"
       d="m 245,962.36086 -45,0 0,-10"
       id="path4967"
       inkscape:connector-curvature="0" />
    <g
       style="font-style:normal;font-variant:normal;font-weight:normal;font-stretch:normal;letter-spacing:normal;word-spacing:normal;text-anchor:start;fill:none;stroke:#000000;stroke-width:1;stroke-linecap:butt;stroke-linejoin:miter;stroke-miterlimit:10.43299961;stroke-opacity:1;stroke-dasharray:none;stroke-dashoffset:0"
       ns0:preamble="/home/sriranga/Desktop/MCT/package.tex"
       ns0:text="$-$"
       text-anchor="start"
       word-spacing="normal"
       letter-spacing="normal"
       font-size-adjust="none"
       font-stretch="normal"
       font-weight="normal"
       font-variant="normal"
       font-style="normal"
       fill-opacity="1"
       fill-rule="evenodd"
       fill="none"
       stroke-opacity="1"
       stroke-dashoffset="0"
       stroke-dasharray="none"
       stroke-miterlimit="10.433"
       stroke-linejoin="miter"
       stroke-linecap="butt"
       stroke="black"
       xml:space="preserve"
       transform="matrix(1.2,0,0,-1.2,-56.706921,1692.3962)"
       id="content"><polygon
         id="polygon5352"
         fill="black"
         stroke-width="0"
         points="229.14,709.4 229.14,709.96 224.05,709.96 224.05,709.4 " /></g>    <g
       id="g5629"
       transform="matrix(1.2,0,0,-1.2,-55.77822,1666.857)"
       xml:space="preserve"
       stroke-miterlimit="10.433"
       font-style="normal"
       font-variant="normal"
       font-weight="normal"
       font-stretch="normal"
       font-size-adjust="none"
       letter-spacing="normal"
       word-spacing="normal"
       ns0:text="$V_{01}$"
       ns0:preamble="/home/sriranga/Desktop/MCT/package.tex"
       style="font-style:normal;font-variant:normal;font-weight:normal;font-stretch:normal;letter-spacing:normal;word-spacing:normal;text-anchor:start;fill:none;stroke:#000000;stroke-width:1;stroke-linecap:butt;stroke-linejoin:miter;stroke-miterlimit:10.43299961;stroke-opacity:1;stroke-dasharray:none;stroke-dashoffset:0"><path
         style="fill:#000000;stroke-width:0"
         inkscape:connector-curvature="0"
         d="m 230.28,713.61 h -1.85 v -0.16 c 0.44,-0.05 0.62,-0.15 0.62,-0.34 0,-0.18 -0.19,-0.61 -0.51,-1.18 l -2.05,-3.53 -0.66,4.4 c -0.01,0.05 -0.01,0.09 -0.01,0.15 0,0.33 0.14,0.43 0.77,0.5 v 0.16 h -2.4 v -0.16 c 0.55,-0.07 0.57,-0.1 0.78,-1.34 l 0.85,-5.16 h 0.19 l 3.71,6.1 c 0.17,0.27 0.33,0.39 0.56,0.4 z"
         id="path5631" /><path
         style="fill:#000000;stroke-width:0"
         inkscape:connector-curvature="0"
         d="m 231.29,710.33 -0.04,0 -0.03,0 -0.04,0 -0.03,0 -0.04,-0.01 -0.03,0 -0.03,-0.01 -0.03,0 -0.04,-0.01 -0.03,0 -0.03,-0.01 -0.03,-0.01 -0.03,-0.01 -0.03,-0.01 -0.03,-0.01 -0.03,-0.01 -0.02,-0.01 -0.03,-0.01 -0.03,-0.01 -0.03,-0.02 -0.03,-0.01 -0.02,-0.02 -0.03,-0.01 -0.02,-0.02 -0.03,-0.02 -0.03,-0.02 -0.02,-0.02 -0.03,-0.01 -0.02,-0.02 -0.03,-0.03 -0.02,-0.02 -0.03,-0.02 c -0.4,-0.39 -0.66,-1.19 -0.66,-2 0,-0.76 0.23,-1.57 0.55,-1.96 0.26,-0.31 0.62,-0.48 1.02,-0.48 v 0.18 c -0.6,0 -0.91,0.75 -0.91,2.2 0,1.47 0.32,2.24 0.92,2.24 h 0 c 0.58,0 0.89,-0.79 0.89,-2.24 0,-1.45 -0.3,-2.2 -0.9,-2.2 v -0.18 c 0.36,0 0.65,0.12 0.9,0.37 0.41,0.38 0.67,1.18 0.67,2.03 0,1.42 -0.63,2.4 -1.54,2.4 z"
         id="path5633" /><path
         style="fill:#000000;stroke-width:0"
         inkscape:connector-curvature="0"
         d="m 235.03,710.33 -1.25,-0.63 v -0.1 c 0.08,0.04 0.16,0.06 0.19,0.08 0.12,0.05 0.24,0.08 0.31,0.08 0.15,0 0.21,-0.11 0.21,-0.33 v -3.15 c 0,-0.23 -0.06,-0.39 -0.17,-0.45 -0.1,-0.07 -0.2,-0.09 -0.49,-0.1 v -0.1 h 1.92 v 0.1 c -0.55,0.01 -0.66,0.08 -0.66,0.42 v 4.17 z"
         id="path5635" /></g>    <g
       id="g5767"
       transform="matrix(1.2,0,0,-1.2,-56.706921,1742.758)"
       xml:space="preserve"
       stroke-miterlimit="10.433"
       font-style="normal"
       font-variant="normal"
       font-weight="normal"
       font-stretch="normal"
       font-size-adjust="none"
       letter-spacing="normal"
       word-spacing="normal"
       ns0:text="$+$"
       ns0:preamble="/home/sriranga/Desktop/MCT/package.tex"
       style="font-style:normal;font-variant:normal;font-weight:normal;font-stretch:normal;letter-spacing:normal;word-spacing:normal;text-anchor:start;fill:none;stroke:#000000;stroke-width:1;stroke-linecap:butt;stroke-linejoin:miter;stroke-miterlimit:10.43299961;stroke-opacity:1;stroke-dasharray:none;stroke-dashoffset:0"><polygon
         style="fill:#000000;stroke-width:0"
         points="226.87,709.4 229.14,709.4 229.14,709.96 226.87,709.96 226.87,712.2 226.32,712.2 226.32,709.96 224.05,709.96 224.05,709.4 226.32,709.4 226.32,707.12 226.87,707.12 "
         id="polygon5769" /></g>    <g
       id="g5771"
       transform="matrix(1.2,0,0,-1.2,-56.706921,1797.3165)"
       xml:space="preserve"
       stroke-miterlimit="10.433"
       font-style="normal"
       font-variant="normal"
       font-weight="normal"
       font-stretch="normal"
       font-size-adjust="none"
       letter-spacing="normal"
       word-spacing="normal"
       ns0:text="$-$"
       ns0:preamble="/home/sriranga/Desktop/MCT/package.tex"
       style="font-style:normal;font-variant:normal;font-weight:normal;font-stretch:normal;letter-spacing:normal;word-spacing:normal;text-anchor:start;fill:none;stroke:#000000;stroke-width:1;stroke-linecap:butt;stroke-linejoin:miter;stroke-miterlimit:10.43299961;stroke-opacity:1;stroke-dasharray:none;stroke-dashoffset:0"><polygon
         style="fill:#000000;stroke-width:0"
         points="224.05,709.4 229.14,709.4 229.14,709.96 224.05,709.96 "
         id="polygon5773" /></g>    <path
       transform="translate(0,695.53017)"
       d="m 300,76.830688 c 0,1.380712 -1.11929,2.5 -2.5,2.5 -1.38071,0 -2.5,-1.119288 -2.5,-2.5 0,-1.380711 1.11929,-2.5 2.5,-2.5 1.38071,0 2.5,1.119289 2.5,2.5 z"
       sodipodi:ry="2.5"
       sodipodi:rx="2.5"
       sodipodi:cy="76.830688"
       sodipodi:cx="297.5"
       id="path5783"
       style="fill:none;stroke:#000000;stroke-width:0.70866144;stroke-linecap:square;stroke-linejoin:miter;stroke-miterlimit:4;stroke-dasharray:none;stroke-dashoffset:0"
       sodipodi:type="arc" />
    <path
       sodipodi:type="arc"
       style="fill:none;stroke:#000000;stroke-width:0.70866144;stroke-linecap:square;stroke-linejoin:miter;stroke-miterlimit:4;stroke-dasharray:none;stroke-dashoffset:0"
       id="path5785"
       sodipodi:cx="297.5"
       sodipodi:cy="76.830688"
       sodipodi:rx="2.5"
       sodipodi:ry="2.5"
       d="m 300,76.830688 c 0,1.380712 -1.11929,2.5 -2.5,2.5 -1.38071,0 -2.5,-1.119288 -2.5,-2.5 0,-1.380711 1.11929,-2.5 2.5,-2.5 1.38071,0 2.5,1.119289 2.5,2.5 z"
       transform="translate(0,800.53017)" />
    <path
       transform="translate(-240,725.53017)"
       d="m 300,76.830688 c 0,1.380712 -1.11929,2.5 -2.5,2.5 -1.38071,0 -2.5,-1.119288 -2.5,-2.5 0,-1.380711 1.11929,-2.5 2.5,-2.5 1.38071,0 2.5,1.119289 2.5,2.5 z"
       sodipodi:ry="2.5"
       sodipodi:rx="2.5"
       sodipodi:cy="76.830688"
       sodipodi:cx="297.5"
       id="path5787"
       style="fill:none;stroke:#000000;stroke-width:0.70866144;stroke-linecap:square;stroke-linejoin:miter;stroke-miterlimit:4;stroke-dasharray:none;stroke-dashoffset:0"
       sodipodi:type="arc" />
    <path
       sodipodi:type="arc"
       style="fill:none;stroke:#000000;stroke-width:0.70866144;stroke-linecap:square;stroke-linejoin:miter;stroke-miterlimit:4;stroke-dasharray:none;stroke-dashoffset:0"
       id="path5789"
       sodipodi:cx="297.5"
       sodipodi:cy="76.830688"
       sodipodi:rx="2.5"
       sodipodi:ry="2.5"
       d="m 300,76.830688 c 0,1.380712 -1.11929,2.5 -2.5,2.5 -1.38071,0 -2.5,-1.119288 -2.5,-2.5 0,-1.380711 1.11929,-2.5 2.5,-2.5 1.38071,0 2.5,1.119289 2.5,2.5 z"
       transform="translate(-240,855.53017)" />
    <g
       style="font-style:normal;font-variant:normal;font-weight:normal;font-stretch:normal;letter-spacing:normal;word-spacing:normal;text-anchor:start;fill:none;stroke:#000000;stroke-width:1;stroke-linecap:butt;stroke-linejoin:miter;stroke-miterlimit:10.43299961;stroke-opacity:1;stroke-dasharray:none;stroke-dashoffset:0"
       ns0:preamble="/home/sriranga/Desktop/MCT/package.tex"
       ns0:text="$V_{02}$"
       text-anchor="start"
       word-spacing="normal"
       letter-spacing="normal"
       font-size-adjust="none"
       font-stretch="normal"
       font-weight="normal"
       font-variant="normal"
       font-style="normal"
       fill-opacity="1"
       fill-rule="evenodd"
       fill="none"
       stroke-opacity="1"
       stroke-dashoffset="0"
       stroke-dasharray="none"
       stroke-miterlimit="10.433"
       stroke-linejoin="miter"
       stroke-linecap="butt"
       stroke="black"
       xml:space="preserve"
       transform="matrix(1.2,0,0,-1.2,-55.77822,1771.7773)"
       id="g5931"><path
         id="path5933"
         fill="black"
         stroke-width="0"
         d="M230.28,713.61 H228.43 V713.45 C228.87,713.4,229.05,713.3,229.05,713.11 C229.05,712.93,228.86,712.5,228.54,711.93 L226.49,708.4 L225.83,712.8 C225.82,712.85,225.82,712.89,225.82,712.95 C225.82,713.28,225.96,713.38,226.59,713.45 V713.61 H224.19 V713.45 C224.74,713.38,224.76,713.35,224.97,712.11 L225.82,706.95 H226.01 L229.72,713.05 C229.89,713.32,230.05,713.44,230.28,713.45 Z " /><path
         id="path5935"
         fill="black"
         stroke-width="0"
         d="M231.29,710.33 L231.25,710.33 L231.22,710.33 L231.18,710.33 L231.15,710.33 L231.11,710.32 L231.08,710.32 L231.05,710.31 L231.02,710.31 L230.98,710.3 L230.95,710.3 L230.92,710.29 L230.89,710.28 L230.86,710.27 L230.83,710.26 L230.8,710.25 L230.77,710.24 L230.75,710.23 L230.72,710.22 L230.69,710.21 L230.66,710.19 L230.63,710.18 L230.61,710.16 L230.58,710.15 L230.56,710.13 L230.53,710.11 L230.5,710.09 L230.48,710.07 L230.45,710.06 L230.43,710.04 L230.4,710.01 L230.38,709.99 L230.35,709.97 C229.95,709.58,229.69,708.78,229.69,707.97 C229.69,707.21,229.92,706.4,230.24,706.01 C230.5,705.7,230.86,705.53,231.26,705.53 V705.71 C230.66,705.71,230.35,706.46,230.35,707.91 C230.35,709.38,230.67,710.15,231.27,710.15 H231.27 C231.85,710.15,232.16,709.36,232.16,707.91 C232.16,706.46,231.86,705.71,231.26,705.71 V705.53 C231.62,705.53,231.91,705.65,232.16,705.9 C232.57,706.28,232.83,707.08,232.83,707.93 C232.83,709.35,232.2,710.33,231.29,710.33 Z " /><path
         id="path5937"
         fill="black"
         stroke-width="0"
         d="M236.31,706.58 L236.22,706.62 C235.97,706.22,235.88,706.16,235.56,706.16 H233.9 L235.07,707.38 C235.69,708.03,235.96,708.56,235.96,709.1 C235.96,709.8,235.4,710.33,234.67,710.33 C234.29,710.33,233.93,710.18,233.67,709.9 C233.45,709.66,233.34,709.44,233.22,708.95 L233.37,708.91 C233.65,709.59,233.9,709.82,234.38,709.82 C234.96,709.82,235.36,709.42,235.36,708.84 C235.36,708.29,235.04,707.65,234.45,707.03 L233.21,705.71 V705.63 H235.93 Z " /></g>    <g
       id="g6081"
       transform="matrix(1.2,0,0,-1.2,25.970261,1632.3818)"
       xml:space="preserve"
       stroke-miterlimit="10.433"
       font-style="normal"
       font-variant="normal"
       font-weight="normal"
       font-stretch="normal"
       font-size-adjust="none"
       letter-spacing="normal"
       word-spacing="normal"
       ns0:text="$+$"
       ns0:preamble="/home/sriranga/Desktop/MCT/package.tex"
       style="font-style:normal;font-variant:normal;font-weight:normal;font-stretch:normal;letter-spacing:normal;word-spacing:normal;text-anchor:start;fill:none;stroke:#000000;stroke-width:1;stroke-linecap:butt;stroke-linejoin:miter;stroke-miterlimit:10.43299961;stroke-opacity:1;stroke-dasharray:none;stroke-dashoffset:0"><polygon
         style="fill:#000000;stroke-width:0"
         points="226.87,709.4 229.14,709.4 229.14,709.96 226.87,709.96 226.87,712.2 226.32,712.2 226.32,709.96 224.05,709.96 224.05,709.4 226.32,709.4 226.32,707.12 226.87,707.12 "
         id="polygon6083" /></g>    <g
       id="g6085"
       transform="matrix(1.2,0,0,-1.2,25.970261,1721.3542)"
       xml:space="preserve"
       stroke-miterlimit="10.433"
       font-style="normal"
       font-variant="normal"
       font-weight="normal"
       font-stretch="normal"
       font-size-adjust="none"
       letter-spacing="normal"
       word-spacing="normal"
       ns0:text="$-$"
       ns0:preamble="/home/sriranga/Desktop/MCT/package.tex"
       style="font-style:normal;font-variant:normal;font-weight:normal;font-stretch:normal;letter-spacing:normal;word-spacing:normal;text-anchor:start;fill:none;stroke:#000000;stroke-width:1;stroke-linecap:butt;stroke-linejoin:miter;stroke-miterlimit:10.43299961;stroke-opacity:1;stroke-dasharray:none;stroke-dashoffset:0"><polygon
         points="224.05,709.96 224.05,709.4 229.14,709.4 229.14,709.96 "
         id="polygon6087"
         style="fill:#000000;stroke-width:0" /></g>    <g
       id="g6245"
       transform="matrix(1.2,0,0,-1.2,23.961194,1674.4113)"
       xml:space="preserve"
       stroke="black"
       stroke-linecap="butt"
       stroke-linejoin="miter"
       stroke-miterlimit="10.433"
       stroke-dasharray="none"
       stroke-dashoffset="0"
       stroke-opacity="1"
       fill="none"
       fill-rule="evenodd"
       fill-opacity="1"
       font-style="normal"
       font-variant="normal"
       font-weight="normal"
       font-stretch="normal"
       font-size-adjust="none"
       letter-spacing="normal"
       word-spacing="normal"
       text-anchor="start"
       ns0:text="$V_{0}$"
       ns0:preamble="/home/sriranga/Desktop/MCT/package.tex"
       style="font-style:normal;font-variant:normal;font-weight:normal;font-stretch:normal;letter-spacing:normal;word-spacing:normal;text-anchor:start;fill:none;stroke:#000000;stroke-width:1;stroke-linecap:butt;stroke-linejoin:miter;stroke-miterlimit:10.43299961;stroke-opacity:1;stroke-dasharray:none;stroke-dashoffset:0"><path
         d="M230.28,713.61 H228.43 V713.45 C228.87,713.4,229.05,713.3,229.05,713.11 C229.05,712.93,228.86,712.5,228.54,711.93 L226.49,708.4 L225.83,712.8 C225.82,712.85,225.82,712.89,225.82,712.95 C225.82,713.28,225.96,713.38,226.59,713.45 V713.61 H224.19 V713.45 C224.74,713.38,224.76,713.35,224.97,712.11 L225.82,706.95 H226.01 L229.72,713.05 C229.89,713.32,230.05,713.44,230.28,713.45 Z "
         stroke-width="0"
         fill="black"
         id="path6247" /><path
         d="M231.29,710.33 L231.25,710.33 L231.22,710.33 L231.18,710.33 L231.15,710.33 L231.11,710.32 L231.08,710.32 L231.05,710.31 L231.02,710.31 L230.98,710.3 L230.95,710.3 L230.92,710.29 L230.89,710.28 L230.86,710.27 L230.83,710.26 L230.8,710.25 L230.77,710.24 L230.75,710.23 L230.72,710.22 L230.69,710.21 L230.66,710.19 L230.63,710.18 L230.61,710.16 L230.58,710.15 L230.56,710.13 L230.53,710.11 L230.5,710.09 L230.48,710.07 L230.45,710.06 L230.43,710.04 L230.4,710.01 L230.38,709.99 L230.35,709.97 C229.95,709.58,229.69,708.78,229.69,707.97 C229.69,707.21,229.92,706.4,230.24,706.01 C230.5,705.7,230.86,705.53,231.26,705.53 V705.71 C230.66,705.71,230.35,706.46,230.35,707.91 C230.35,709.38,230.67,710.15,231.27,710.15 H231.27 C231.85,710.15,232.16,709.36,232.16,707.91 C232.16,706.46,231.86,705.71,231.26,705.71 V705.53 C231.62,705.53,231.91,705.65,232.16,705.9 C232.57,706.28,232.83,707.08,232.83,707.93 C232.83,709.35,232.2,710.33,231.29,710.33 Z "
         stroke-width="0"
         fill="black"
         id="path6249" /></g>    <text
       sodipodi:linespacing="125%"
       id="text6400"
       y="863.92401"
       x="59.255051"
       style="font-size:12px;font-style:normal;font-variant:normal;font-weight:normal;font-stretch:normal;text-align:center;line-height:125%;letter-spacing:0px;word-spacing:0px;text-anchor:middle;fill:#000000;fill-opacity:1;stroke:none;font-family:LMRoman12;-inkscape-font-specification:LMRoman12"
       xml:space="preserve"><tspan
         id="tspan6404"
         y="863.92401"
         x="59.255051"
         sodipodi:role="line">AC</tspan></text>
    <g
       id="g3233"
       ns0:preamble=""
       ns0:text="$i/p$"
       transform="matrix(1.2,0,0,1.2,-216.63433,715.19006)">
      <defs
         id="defs3235">
        <g
           id="g3237">
          <symbol
             id="textext-97795fe3-0"
             overflow="visible"
             style="overflow:visible">
            <path
               id="path3240"
               d=""
               style="stroke:none" />
          </symbol>
          <symbol
             id="textext-97795fe3-1"
             overflow="visible"
             style="overflow:visible">
            <path
               id="path3243"
               d="m 2.828125,-6.234375 c 0,-0.203125 -0.140625,-0.359375 -0.359375,-0.359375 -0.28125,0 -0.546875,0.265625 -0.546875,0.53125 0,0.1875 0.140625,0.359375 0.375,0.359375 0.234375,0 0.53125,-0.234375 0.53125,-0.53125 z m -0.75,3.75 c 0.109375,-0.28125 0.109375,-0.3125 0.21875,-0.578125 0.078125,-0.203125 0.125,-0.34375 0.125,-0.53125 0,-0.4375 -0.3125,-0.8125 -0.8125,-0.8125 -0.9375,0 -1.3125,1.453125 -1.3125,1.53125 0,0.109375 0.09375,0.109375 0.109375,0.109375 0.109375,0 0.109375,-0.03125 0.15625,-0.1875 0.28125,-0.9375 0.671875,-1.234375 1.015625,-1.234375 0.078125,0 0.25,0 0.25,0.3125 0,0.21875 -0.078125,0.421875 -0.109375,0.53125 -0.078125,0.25 -0.53125,1.40625 -0.6875,1.84375 -0.109375,0.25 -0.234375,0.578125 -0.234375,0.796875 0,0.46875 0.34375,0.8125 0.8125,0.8125 0.9375,0 1.3125,-1.4375 1.3125,-1.53125 0,-0.109375 -0.09375,-0.109375 -0.125,-0.109375 -0.09375,0 -0.09375,0.03125 -0.140625,0.1875 -0.1875,0.625 -0.515625,1.234375 -1.015625,1.234375 -0.171875,0 -0.25,-0.09375 -0.25,-0.328125 0,-0.25 0.0625,-0.390625 0.296875,-1 l 0.390625,-1.046875 z m 0,0"
               style="stroke:none" />
          </symbol>
          <symbol
             id="textext-97795fe3-2"
             overflow="visible"
             style="overflow:visible">
            <path
               id="path3246"
               d="m 4.375,-7.09375 c 0.046875,-0.140625 0.046875,-0.171875 0.046875,-0.1875 0,-0.109375 -0.078125,-0.203125 -0.1875,-0.203125 -0.078125,0 -0.140625,0.03125 -0.171875,0.09375 l -3.46875,9.5 C 0.546875,2.25 0.546875,2.28125 0.546875,2.296875 0.546875,2.40625 0.640625,2.5 0.75,2.5 0.875,2.5 0.90625,2.421875 0.96875,2.25 L 4.375,-7.09375 z m 0,0"
               style="stroke:none" />
          </symbol>
          <symbol
             id="textext-97795fe3-3"
             overflow="visible"
             style="overflow:visible">
            <path
               id="path3249"
               d="M 0.453125,1.21875 C 0.375,1.5625 0.34375,1.625 -0.09375,1.625 c -0.109375,0 -0.21875,0 -0.21875,0.1875 0,0.078125 0.046875,0.125 0.125,0.125 0.265625,0 0.5625,-0.03125 0.828125,-0.03125 0.34375,0 0.671875,0.03125 1,0.03125 0.046875,0 0.171875,0 0.171875,-0.203125 C 1.8125,1.625 1.71875,1.625 1.578125,1.625 c -0.5,0 -0.5,-0.0625 -0.5,-0.15625 0,-0.125 0.421875,-1.75 0.484375,-2 0.125,0.296875 0.40625,0.640625 0.921875,0.640625 1.15625,0 2.40625,-1.453125 2.40625,-2.921875 0,-0.9375 -0.578125,-1.59375 -1.328125,-1.59375 -0.5,0 -0.984375,0.359375 -1.3125,0.75 -0.09375,-0.546875 -0.53125,-0.75 -0.890625,-0.75 -0.46875,0 -0.65625,0.390625 -0.734375,0.5625 C 0.4375,-3.5 0.3125,-2.90625 0.3125,-2.875 c 0,0.109375 0.09375,0.109375 0.109375,0.109375 0.109375,0 0.109375,-0.015625 0.171875,-0.234375 0.171875,-0.703125 0.375,-1.1875 0.734375,-1.1875 0.171875,0 0.3125,0.078125 0.3125,0.453125 0,0.234375 -0.03125,0.34375 -0.078125,0.515625 l -1.109375,4.4375 z m 1.75,-4.328125 C 2.265625,-3.375 2.546875,-3.65625 2.71875,-3.8125 c 0.359375,-0.296875 0.640625,-0.375 0.8125,-0.375 0.390625,0 0.640625,0.34375 0.640625,0.9375 0,0.59375 -0.328125,1.734375 -0.515625,2.109375 -0.34375,0.703125 -0.8125,1.03125 -1.1875,1.03125 C 1.8125,-0.109375 1.6875,-0.9375 1.6875,-1 c 0,-0.015625 0,-0.03125 0.03125,-0.15625 l 0.484375,-1.953125 z m 0,0"
               style="stroke:none" />
          </symbol>
        </g>
      </defs>
      <g
         id="textext-97795fe3-4">
        <g
           id="g3252"
           style="fill:#000000;fill-opacity:1">
          <use
             id="use3254"
             y="134.765"
             x="223.43201"
             xlink:href="#textext-97795fe3-1"
             width="496.06299"
             height="354.33069" />
          <use
             id="use3256"
             y="134.765"
             x="226.86412"
             xlink:href="#textext-97795fe3-2"
             width="496.06299"
             height="354.33069" />
          <use
             id="use3258"
             y="134.765"
             x="231.84541"
             xlink:href="#textext-97795fe3-3"
             width="496.06299"
             height="354.33069" />
        </g>
      </g>
    </g>
  </g>
</svg>
