<?xml version="1.0" encoding="UTF-8" standalone="no"?>
<!-- Created with Inkscape (http://www.inkscape.org/) -->

<svg
   xmlns:ns0="http://www.iki.fi/pav/software/textext/"
   xmlns:dc="http://purl.org/dc/elements/1.1/"
   xmlns:cc="http://creativecommons.org/ns#"
   xmlns:rdf="http://www.w3.org/1999/02/22-rdf-syntax-ns#"
   xmlns:svg="http://www.w3.org/2000/svg"
   xmlns="http://www.w3.org/2000/svg"
   xmlns:sodipodi="http://sodipodi.sourceforge.net/DTD/sodipodi-0.dtd"
   xmlns:inkscape="http://www.inkscape.org/namespaces/inkscape"
   width="496.06299"
   height="354.33069"
   id="svg2"
   version="1.1"
   inkscape:version="0.48.4 r9939"
   sodipodi:docname="fig8.10.eps">
  <sodipodi:namedview
     id="base"
     pagecolor="#ffffff"
     bordercolor="#666666"
     borderopacity="1.0"
     inkscape:pageopacity="0.0"
     inkscape:pageshadow="2"
     inkscape:zoom="2.3306427"
     inkscape:cx="239.36057"
     inkscape:cy="219.06357"
     inkscape:document-units="cm"
     inkscape:current-layer="layer1"
     showgrid="false"
     units="cm"
     inkscape:object-nodes="true"
     inkscape:window-width="1366"
     inkscape:window-height="744"
     inkscape:window-x="0"
     inkscape:window-y="24"
     inkscape:window-maximized="1">
    <inkscape:grid
       snapvisiblegridlinesonly="true"
       enabled="true"
       visible="true"
       empspacing="5"
       id="grid2985"
       type="xygrid" />
  </sodipodi:namedview>
  <defs
     id="defs4">
    <inkscape:path-effect
       effect="ruler"
       id="path-effect5138"
       is_visible="true"
       unit="px"
       mark_distance="7.4"
       mark_length="7"
       minor_mark_length="7"
       major_mark_steps="12"
       shift="0"
       offset="0"
       mark_dir="left"
       border_marks="both" />
    <inkscape:path-effect
       effect="ruler"
       id="path-effect5133"
       is_visible="true"
       unit="px"
       mark_distance="11.6"
       mark_length="14"
       minor_mark_length="7"
       major_mark_steps="1"
       shift="0"
       offset="0"
       mark_dir="right"
       border_marks="both" />
    <inkscape:path-effect
       effect="ruler"
       id="path-effect5128"
       is_visible="true"
       unit="px"
       mark_distance="10.1"
       mark_length="14"
       minor_mark_length="7"
       major_mark_steps="1"
       shift="0"
       offset="6"
       mark_dir="right"
       border_marks="both" />
    <marker
       style="overflow:visible;"
       id="Arrow1Mend"
       refX="0.0"
       refY="0.0"
       orient="auto"
       inkscape:stockid="Arrow1Mend">
      <path
         transform="scale(0.4) rotate(180) translate(10,0)"
         style="fill-rule:evenodd;stroke:#000000;stroke-width:1.0pt;"
         d="M 0.0,0.0 L 5.0,-5.0 L -12.5,0.0 L 5.0,5.0 L 0.0,0.0 z "
         id="path3772" />
    </marker>
    <marker
       style="overflow:visible"
       id="Arrow1Mend-62"
       refX="0"
       refY="0"
       orient="auto"
       inkscape:stockid="Arrow1Mend">
      <path
         transform="matrix(-0.4,0,0,-0.4,-4,0)"
         style="fill-rule:evenodd;stroke:#000000;stroke-width:1pt"
         d="M 0,0 5,-5 -12.5,0 5,5 0,0 z"
         id="path5100-5"
         inkscape:connector-curvature="0" />
    </marker>
    <marker
       inkscape:stockid="Arrow1Mend"
       orient="auto"
       refY="0"
       refX="0"
       id="Arrow1Mend-9"
       style="overflow:visible">
      <path
         inkscape:connector-curvature="0"
         id="path5100-86"
         d="M 0,0 5,-5 -12.5,0 5,5 0,0 z"
         style="fill-rule:evenodd;stroke:#000000;stroke-width:1pt"
         transform="matrix(-0.4,0,0,-0.4,-4,0)" />
    </marker>
    <marker
       style="overflow:visible"
       id="Arrow1Mend-6"
       refX="0"
       refY="0"
       orient="auto"
       inkscape:stockid="Arrow1Mend">
      <path
         transform="matrix(-0.4,0,0,-0.4,-4,0)"
         style="fill-rule:evenodd;stroke:#000000;stroke-width:1pt"
         d="M 0,0 5,-5 -12.5,0 5,5 0,0 z"
         id="path5100-8"
         inkscape:connector-curvature="0" />
    </marker>
    <marker
       style="overflow:visible;"
       id="Arrow1Mend-96"
       refX="0.0"
       refY="0.0"
       orient="auto"
       inkscape:stockid="Arrow1Mend">
      <path
         transform="scale(0.4) rotate(180) translate(10,0)"
         style="fill-rule:evenodd;stroke:#000000;stroke-width:1.0pt;"
         d="M 0.0,0.0 L 5.0,-5.0 L -12.5,0.0 L 5.0,5.0 L 0.0,0.0 z "
         id="path5100" />
    </marker>
  </defs>
  <metadata
     id="metadata7">
    <rdf:RDF>
      <cc:Work
         rdf:about="">
        <dc:format>image/svg+xml</dc:format>
        <dc:type
           rdf:resource="http://purl.org/dc/dcmitype/StillImage" />
        <dc:title></dc:title>
      </cc:Work>
    </rdf:RDF>
  </metadata>
  <g
     transform="translate(0,-698.03017)"
     id="layer1"
     inkscape:groupmode="layer"
     inkscape:label="Layer 1">
    <rect
       y="872.36029"
       x="130"
       height="30"
       width="180"
       id="rect7553"
       style="fill:none;stroke:#808080;stroke-width:1.19999969000000006;stroke-linecap:square;stroke-linejoin:round;stroke-miterlimit:4;stroke-dasharray:3.59999901999999983, 3.59999901999999983;stroke-dashoffset:0" />
    <rect
       style="fill:none;stroke:#808080;stroke-width:1.20000005000000010;stroke-linecap:square;stroke-linejoin:round;stroke-miterlimit:4;stroke-dasharray:3.60000016000000000, 3.60000016000000000;stroke-dashoffset:0"
       id="rect7555"
       width="120.00002"
       height="50"
       x="782.36084"
       y="-180"
       transform="matrix(0,1,-1,0,0,0)" />
    <path
       style="fill:none;stroke:#000000;stroke-width:1.20000005;stroke-linecap:butt;stroke-linejoin:miter;stroke-miterlimit:4;stroke-opacity:1;stroke-dasharray:none;marker-end:url(#Arrow1Mend-96)"
       d="m 130,923.26088 0,-170"
       id="path6372"
       inkscape:connector-curvature="0" />
    <path
       inkscape:connector-curvature="0"
       id="path7551"
       d="m 114.99999,902.36086 239.12346,0"
       style="fill:none;stroke:#000000;stroke-width:1.20000005;stroke-linecap:butt;stroke-linejoin:miter;stroke-miterlimit:4;stroke-opacity:1;stroke-dasharray:none;marker-end:url(#Arrow1Mend-96)" />
    <path
       sodipodi:nodetypes="csc"
       inkscape:connector-curvature="0"
       id="path7557"
       d="m 180,782.36086 c 1.91392,33.71908 12.43205,58.03983 32.5,70 31.23573,18.61599 97.5,15 97.5,15"
       style="fill:none;stroke:#000000;stroke-width:1px;stroke-linecap:butt;stroke-linejoin:miter;stroke-opacity:1" />
    <path
       style="fill:none;stroke:#000000;stroke-width:0.99999994;stroke-linecap:butt;stroke-linejoin:miter;stroke-miterlimit:4;stroke-opacity:1;stroke-dasharray:none;marker-end:url(#Arrow1Mend-96)"
       d="m 245.42829,820.07993 -45,15"
       id="path7559"
       inkscape:connector-curvature="0" />
    <g
       id="g7808"
       transform="matrix(1.2,0,0,-1.2,-5.3763433,1663.3604)"
       xml:space="preserve"
       stroke="black"
       stroke-linecap="butt"
       stroke-linejoin="miter"
       stroke-miterlimit="10.433"
       stroke-dasharray="none"
       stroke-dashoffset="0"
       stroke-opacity="1"
       fill="none"
       fill-rule="evenodd"
       fill-opacity="1"
       font-style="normal"
       font-variant="normal"
       font-weight="normal"
       font-stretch="normal"
       font-size-adjust="none"
       letter-spacing="normal"
       word-spacing="normal"
       text-anchor="start"
       ns0:text="$R= R_0 ~\\overline{e}^{\\alpha T}$"
       ns0:preamble="/home/sriranga/Desktop/MCT/package.tex"
       style="font-style:normal;font-variant:normal;font-weight:normal;font-stretch:normal;letter-spacing:normal;word-spacing:normal;text-anchor:start;fill:none;stroke:#000000;stroke-width:1;stroke-linecap:butt;stroke-linejoin:miter;stroke-miterlimit:10.43299961;stroke-opacity:1;stroke-dasharray:none;stroke-dashoffset:0"><path
         d="M229.07,707.28 L229.03,707.29 L228.99,707.29 L228.96,707.3 L228.92,707.3 L228.88,707.31 L228.85,707.32 L228.82,707.33 L228.79,707.34 L228.76,707.35 L228.73,707.36 L228.7,707.37 L228.67,707.39 L228.64,707.4 L228.62,707.42 L228.59,707.44 L228.57,707.46 L228.54,707.48 L228.52,707.5 L228.5,707.53 L228.48,707.55 L228.46,707.58 L228.43,707.61 L228.41,707.64 L228.39,707.67 L228.38,707.71 L228.36,707.74 L228.34,707.78 L228.32,707.82 L228.3,707.86 L228.28,707.91 L228.26,707.95 L228.25,708 L227.32,710.43 C228.09,710.6,228.42,710.74,228.77,711.06 C229.1,711.35,229.28,711.73,229.28,712.18 C229.28,713.1,228.55,713.61,227.21,713.61 L227,713.31 C227.83,713.31,228.24,712.94,228.24,712.2 C228.24,711.22,227.6,710.71,226.36,710.71 C226.2,710.71,226.09,710.72,225.85,710.76 L226.5,713.04 C226.56,713.24,226.68,713.31,227,713.31 L227.21,713.61 H224.74 V713.45 C225.16,713.39,225.21,713.38,225.31,713.31 C225.39,713.26,225.45,713.15,225.45,713.04 C225.45,712.92,225.4,712.68,225.33,712.41 L224.11,708.02 C223.93,707.43,223.86,707.37,223.3,707.28 V707.12 H225.73 V707.28 C225.12,707.36,225.05,707.41,225.05,707.74 C225.05,707.84,225.08,707.97,225.17,708.32 L225.73,710.39 L226.38,710.34 L227.6,707.12 H229.07 Z "
         stroke-width="0"
         fill="black"
         id="path7810" /><polygon
         points="238,710.4 238,710.96 232.9,710.96 232.9,710.4 "
         stroke-width="0"
         fill="black"
         id="polygon7812" /><polygon
         points="238,708.39 238,708.94 232.9,708.94 232.9,708.39 "
         stroke-width="0"
         fill="black"
         id="polygon7814" /><path
         d="M247.03,707.28 L246.99,707.29 L246.95,707.29 L246.91,707.3 L246.88,707.3 L246.84,707.31 L246.81,707.32 L246.78,707.33 L246.74,707.34 L246.71,707.35 L246.68,707.36 L246.65,707.37 L246.63,707.39 L246.6,707.4 L246.57,707.42 L246.55,707.44 L246.52,707.46 L246.5,707.48 L246.48,707.5 L246.46,707.53 L246.43,707.55 L246.41,707.58 L246.39,707.61 L246.37,707.64 L246.35,707.67 L246.33,707.71 L246.31,707.74 L246.3,707.78 L246.28,707.82 L246.26,707.86 L246.24,707.91 L246.22,707.95 L246.21,708 L245.28,710.43 C246.05,710.6,246.38,710.74,246.73,711.06 C247.06,711.35,247.24,711.73,247.24,712.18 C247.24,713.1,246.5,713.61,245.17,713.61 L244.96,713.31 C245.79,713.31,246.2,712.94,246.2,712.2 C246.2,711.22,245.56,710.71,244.32,710.71 C244.16,710.71,244.05,710.72,243.81,710.76 L244.45,713.04 C244.51,713.24,244.64,713.31,244.96,713.31 L245.17,713.61 H242.7 V713.45 C243.12,713.39,243.17,713.38,243.27,713.31 C243.35,713.26,243.41,713.15,243.41,713.04 C243.41,712.92,243.36,712.68,243.29,712.41 L242.07,708.02 C241.89,707.43,241.82,707.37,241.26,707.28 V707.12 H243.69 V707.28 C243.08,707.36,243.01,707.41,243.01,707.74 C243.01,707.84,243.04,707.97,243.13,708.32 L243.69,710.39 L244.34,710.34 L245.56,707.12 H247.03 Z "
         stroke-width="0"
         fill="black"
         id="path7816" /><path
         d="M249.25,710.33 L249.21,710.33 L249.18,710.33 L249.14,710.33 L249.11,710.33 L249.07,710.32 L249.04,710.32 L249.01,710.31 L248.97,710.31 L248.94,710.3 L248.91,710.3 L248.88,710.29 L248.85,710.28 L248.82,710.27 L248.79,710.26 L248.76,710.25 L248.73,710.24 L248.7,710.23 L248.68,710.22 L248.65,710.21 L248.62,710.19 L248.59,710.18 L248.57,710.16 L248.54,710.15 L248.51,710.13 L248.49,710.11 L248.46,710.09 L248.44,710.07 L248.41,710.06 L248.39,710.04 L248.36,710.01 L248.34,709.99 L248.31,709.97 C247.91,709.58,247.64,708.78,247.64,707.97 C247.64,707.21,247.87,706.4,248.2,706.01 C248.46,705.7,248.81,705.53,249.22,705.53 V705.71 C248.62,705.71,248.31,706.46,248.31,707.91 C248.31,709.38,248.63,710.15,249.23,710.15 H249.23 C249.81,710.15,250.12,709.36,250.12,707.91 C250.12,706.46,249.82,705.71,249.22,705.71 V705.53 C249.57,705.53,249.87,705.65,250.12,705.9 C250.53,706.28,250.79,707.08,250.79,707.93 C250.79,709.35,250.16,710.33,249.25,710.33 Z "
         stroke-width="0"
         fill="black"
         id="path7818" /><line
         x1="253.95"
         y1="713.48"
         x2="258.38"
         y2="713.48"
         stroke-width="0.558"
         id="line7820" /><path
         d="M257.52,708.21 L257.45,708.15 L257.39,708.1 L257.32,708.05 L257.26,708.01 L257.21,707.96 L257.15,707.92 L257.1,707.88 L257.05,707.84 L257,707.81 L256.95,707.78 L256.9,707.74 L256.85,707.71 L256.81,707.69 L256.76,707.66 L256.72,707.64 L256.68,707.62 L256.64,707.6 L256.6,707.58 L256.56,707.56 L256.52,707.54 L256.48,707.53 L256.44,707.52 L256.41,707.51 L256.37,707.5 L256.33,707.49 L256.29,707.48 L256.26,707.48 L256.22,707.47 L256.14,707.46 L256.06,707.46 C255.49,707.46,255.13,707.82,255.13,708.36 C255.13,708.51,255.15,708.66,255.23,708.97 L255.3,709.19 L255.46,709.63 C255.8,710.51,256.54,711.28,257.05,711.28 C257.26,711.28,257.39,711.12,257.39,710.89 C257.39,710.58,257.21,710.22,256.9,709.93 C256.53,709.58,256.15,709.4,255.3,709.19 L255.23,708.97 L255.51,709.01 C257,709.22,258.05,709.98,258.05,710.83 C258.05,711.25,257.75,711.51,257.26,711.51 C255.82,711.51,254.26,709.87,254.26,708.38 C254.26,707.57,254.8,707.02,255.57,707.02 C256.28,707.02,257.05,707.42,257.63,708.09 Z "
         stroke-width="0"
         fill="black"
         id="path7822" /><path
         d="M262.44,714.48 L261.96,714.41 C261.77,713.88,261.22,713.06,261.22,713.05 H261.22 C261.22,713.06,261.34,713.36,261.34,713.73 C261.34,714.18,261.18,714.69,260.43,714.69 C259.26,714.69,258.54,713.46,258.54,712.62 C258.54,712.03,258.86,711.55,259.58,711.55 L259.68,711.72 C259.53,711.72,259.16,711.77,259.16,712.66 C259.16,713.02,259.34,714.52,260.31,714.52 C260.79,714.52,260.83,713.93,260.83,713.68 H260.83 C260.83,713.02,260.57,712.26,260.57,712.25 C260.57,712.24,260.21,711.72,259.68,711.72 L259.58,711.55 C260.13,711.55,260.55,711.97,260.55,711.98 H260.56 C260.56,711.92,260.57,711.56,261.08,711.56 C261.64,711.56,261.96,712.19,261.96,712.35 C261.96,712.37,261.96,712.38,261.94,712.38 C261.85,712.38,261.68,711.81,261.28,711.81 C261.13,711.81,261.08,711.99,261.08,712.17 C261.08,712.32,261.11,712.48,261.14,712.55 C261.24,712.68,262.44,714.48,262.44,714.48 Z "
         stroke-width="0"
         fill="black"
         id="path7824" /><path
         d="M266.92,716.17 H263.21 L262.92,715.1 L263.05,715.07 C263.42,715.82,263.64,715.94,264.71,715.92 L263.7,712.25 C263.59,711.88,263.42,711.77,262.96,711.74 V711.63 H264.98 V711.74 C264.87,711.74,264.76,711.76,264.72,711.76 C264.44,711.78,264.36,711.84,264.36,712.05 C264.36,712.14,264.38,712.22,264.44,712.46 L265.41,715.92 H265.79 C266.29,715.92,266.52,715.75,266.52,715.36 C266.52,715.27,266.51,715.16,266.5,715.05 L266.61,715.03 Z "
         stroke-width="0"
         fill="black"
         id="path7826" /></g>    <g
       style="font-style:normal;font-variant:normal;font-weight:normal;font-stretch:normal;letter-spacing:normal;word-spacing:normal;text-anchor:start;fill:none;stroke:#000000;stroke-width:1;stroke-linecap:butt;stroke-linejoin:miter;stroke-miterlimit:10.43299961;stroke-opacity:1;stroke-dasharray:none;stroke-dashoffset:0"
       ns0:preamble="/home/sriranga/Desktop/MCT/package.tex"
       ns0:text="$R$"
       word-spacing="normal"
       letter-spacing="normal"
       font-size-adjust="none"
       font-stretch="normal"
       font-weight="normal"
       font-variant="normal"
       font-style="normal"
       stroke-miterlimit="10.433"
       xml:space="preserve"
       transform="matrix(1.2,0,0,-1.2,-160.31116,1599.0657)"
       id="g7990"><path
         style="fill:#000000;stroke-width:0"
         inkscape:connector-curvature="0"
         id="path7992"
         d="m 229.07,707.28 -0.04,0.01 -0.04,0 -0.03,0.01 -0.04,0 -0.04,0.01 -0.03,0.01 -0.03,0.01 -0.03,0.01 -0.03,0.01 -0.03,0.01 -0.03,0.01 -0.03,0.02 -0.03,0.01 -0.02,0.02 -0.03,0.02 -0.02,0.02 -0.03,0.02 -0.02,0.02 -0.02,0.03 -0.02,0.02 -0.02,0.03 -0.03,0.03 -0.02,0.03 -0.02,0.03 -0.01,0.04 -0.02,0.03 -0.02,0.04 -0.02,0.04 -0.02,0.04 -0.02,0.05 -0.02,0.04 -0.01,0.05 -0.93,2.43 c 0.77,0.17 1.1,0.31 1.45,0.63 0.33,0.29 0.51,0.67 0.51,1.12 0,0.92 -0.73,1.43 -2.07,1.43 l -0.21,-0.3 c 0.83,0 1.24,-0.37 1.24,-1.11 0,-0.98 -0.64,-1.49 -1.88,-1.49 -0.16,0 -0.27,0.01 -0.51,0.05 l 0.65,2.28 c 0.06,0.2 0.18,0.27 0.5,0.27 l 0.21,0.3 h -2.47 v -0.16 c 0.42,-0.06 0.47,-0.07 0.57,-0.14 0.08,-0.05 0.14,-0.16 0.14,-0.27 0,-0.12 -0.05,-0.36 -0.12,-0.63 l -1.22,-4.39 c -0.18,-0.59 -0.25,-0.65 -0.81,-0.74 v -0.16 h 2.43 v 0.16 c -0.61,0.08 -0.68,0.13 -0.68,0.46 0,0.1 0.03,0.23 0.12,0.58 l 0.56,2.07 0.65,-0.05 1.22,-3.22 h 1.47 z" /></g>    <g
       id="g8162"
       transform="matrix(1.2,0,0,-1.2,-152.82944,1632.6265)"
       xml:space="preserve"
       stroke-miterlimit="10.433"
       font-style="normal"
       font-variant="normal"
       font-weight="normal"
       font-stretch="normal"
       font-size-adjust="none"
       letter-spacing="normal"
       word-spacing="normal"
       ns0:text="$R_0$"
       ns0:preamble="/home/sriranga/Desktop/MCT/package.tex"
       style="font-style:normal;font-variant:normal;font-weight:normal;font-stretch:normal;letter-spacing:normal;word-spacing:normal;text-anchor:start;fill:none;stroke:#000000;stroke-width:1;stroke-linecap:butt;stroke-linejoin:miter;stroke-miterlimit:10.43299961;stroke-opacity:1;stroke-dasharray:none;stroke-dashoffset:0"><path
         style="fill:#000000;stroke-width:0"
         inkscape:connector-curvature="0"
         d="m 229.07,707.28 -0.04,0.01 -0.04,0 -0.03,0.01 -0.04,0 -0.04,0.01 -0.03,0.01 -0.03,0.01 -0.03,0.01 -0.03,0.01 -0.03,0.01 -0.03,0.01 -0.03,0.02 -0.03,0.01 -0.02,0.02 -0.03,0.02 -0.02,0.02 -0.03,0.02 -0.02,0.02 -0.02,0.03 -0.02,0.02 -0.02,0.03 -0.03,0.03 -0.02,0.03 -0.02,0.03 -0.01,0.04 -0.02,0.03 -0.02,0.04 -0.02,0.04 -0.02,0.04 -0.02,0.05 -0.02,0.04 -0.01,0.05 -0.93,2.43 c 0.77,0.17 1.1,0.31 1.45,0.63 0.33,0.29 0.51,0.67 0.51,1.12 0,0.92 -0.73,1.43 -2.07,1.43 l -0.21,-0.3 c 0.83,0 1.24,-0.37 1.24,-1.11 0,-0.98 -0.64,-1.49 -1.88,-1.49 -0.16,0 -0.27,0.01 -0.51,0.05 l 0.65,2.28 c 0.06,0.2 0.18,0.27 0.5,0.27 l 0.21,0.3 h -2.47 v -0.16 c 0.42,-0.06 0.47,-0.07 0.57,-0.14 0.08,-0.05 0.14,-0.16 0.14,-0.27 0,-0.12 -0.05,-0.36 -0.12,-0.63 l -1.22,-4.39 c -0.18,-0.59 -0.25,-0.65 -0.81,-0.74 v -0.16 h 2.43 v 0.16 c -0.61,0.08 -0.68,0.13 -0.68,0.46 0,0.1 0.03,0.23 0.12,0.58 l 0.56,2.07 0.65,-0.05 1.22,-3.22 h 1.47 z"
         id="path8164" /><path
         style="fill:#000000;stroke-width:0"
         inkscape:connector-curvature="0"
         d="m 231.29,710.33 -0.04,0 -0.03,0 -0.04,0 -0.03,0 -0.04,-0.01 -0.03,0 -0.03,-0.01 -0.03,0 -0.04,-0.01 -0.03,0 -0.03,-0.01 -0.03,-0.01 -0.03,-0.01 -0.03,-0.01 -0.03,-0.01 -0.03,-0.01 -0.02,-0.01 -0.03,-0.01 -0.03,-0.01 -0.03,-0.02 -0.03,-0.01 -0.02,-0.02 -0.03,-0.01 -0.02,-0.02 -0.03,-0.02 -0.03,-0.02 -0.02,-0.02 -0.03,-0.01 -0.02,-0.02 -0.03,-0.03 -0.02,-0.02 -0.03,-0.02 c -0.4,-0.39 -0.66,-1.19 -0.66,-2 0,-0.76 0.23,-1.57 0.55,-1.96 0.26,-0.31 0.62,-0.48 1.02,-0.48 v 0.18 c -0.6,0 -0.91,0.75 -0.91,2.2 0,1.47 0.32,2.24 0.92,2.24 h 0 c 0.58,0 0.89,-0.79 0.89,-2.24 0,-1.45 -0.3,-2.2 -0.9,-2.2 v -0.18 c 0.36,0 0.65,0.12 0.9,0.37 0.41,0.38 0.67,1.18 0.67,2.03 0,1.42 -0.63,2.4 -1.54,2.4 z"
         id="path8166" /></g>    <text
       sodipodi:linespacing="125%"
       id="text8252"
       y="762.49768"
       x="90.849457"
       style="font-size:12px;font-style:normal;font-variant:normal;font-weight:normal;font-stretch:normal;text-align:start;line-height:125%;letter-spacing:0px;word-spacing:0px;text-anchor:start;fill:#000000;fill-opacity:1;stroke:none;font-family:LMRoman12;-inkscape-font-specification:LMRoman12"
       xml:space="preserve"><tspan
         y="762.49768"
         x="90.849457"
         id="tspan8254"
         sodipodi:role="line">(ohms)</tspan></text>
    <g
       style="font-style:normal;font-variant:normal;font-weight:normal;font-stretch:normal;letter-spacing:normal;word-spacing:normal;text-anchor:start;fill:none;stroke:#000000;stroke-width:1;stroke-linecap:butt;stroke-linejoin:miter;stroke-miterlimit:10.43299961;stroke-opacity:1;stroke-dasharray:none;stroke-dashoffset:0"
       ns0:preamble="/home/sriranga/Desktop/MCT/package.tex"
       ns0:text="$R_{\\text{min}}$"
       text-anchor="start"
       word-spacing="normal"
       letter-spacing="normal"
       font-size-adjust="none"
       font-stretch="normal"
       font-weight="normal"
       font-variant="normal"
       font-style="normal"
       fill-opacity="1"
       fill-rule="evenodd"
       fill="none"
       stroke-opacity="1"
       stroke-dashoffset="0"
       stroke-dasharray="none"
       stroke-miterlimit="10.433"
       stroke-linejoin="miter"
       stroke-linecap="butt"
       stroke="black"
       xml:space="preserve"
       transform="matrix(1.2,0,0,-1.2,-164.58643,1723.0485)"
       id="g8348"><path
         id="path8350"
         fill="black"
         stroke-width="0"
         d="M229.07,707.28 L229.03,707.29 L228.99,707.29 L228.96,707.3 L228.92,707.3 L228.88,707.31 L228.85,707.32 L228.82,707.33 L228.79,707.34 L228.76,707.35 L228.73,707.36 L228.7,707.37 L228.67,707.39 L228.64,707.4 L228.62,707.42 L228.59,707.44 L228.57,707.46 L228.54,707.48 L228.52,707.5 L228.5,707.53 L228.48,707.55 L228.46,707.58 L228.43,707.61 L228.41,707.64 L228.39,707.67 L228.38,707.71 L228.36,707.74 L228.34,707.78 L228.32,707.82 L228.3,707.86 L228.28,707.91 L228.26,707.95 L228.25,708 L227.32,710.43 C228.09,710.6,228.42,710.74,228.77,711.06 C229.1,711.35,229.28,711.73,229.28,712.18 C229.28,713.1,228.55,713.61,227.21,713.61 L227,713.31 C227.83,713.31,228.24,712.94,228.24,712.2 C228.24,711.22,227.6,710.71,226.36,710.71 C226.2,710.71,226.09,710.72,225.85,710.76 L226.5,713.04 C226.56,713.24,226.68,713.31,227,713.31 L227.21,713.61 H224.74 V713.45 C225.16,713.39,225.21,713.38,225.31,713.31 C225.39,713.26,225.45,713.15,225.45,713.04 C225.45,712.92,225.4,712.68,225.33,712.41 L224.11,708.02 C223.93,707.43,223.86,707.37,223.3,707.28 V707.12 H225.73 V707.28 C225.12,707.36,225.05,707.41,225.05,707.74 C225.05,707.84,225.08,707.97,225.17,708.32 L225.73,710.39 L226.38,710.34 L227.6,707.12 H229.07 Z " /><path
         id="path8352"
         fill="black"
         stroke-width="0"
         d="M229.65,708.4 L229.66,708.4 L229.67,708.4 L229.68,708.4 L229.68,708.41 L229.69,708.41 L229.7,708.41 L229.71,708.41 L229.73,708.41 L229.74,708.42 L229.75,708.42 L229.77,708.42 L229.78,708.42 L229.79,708.42 L229.81,708.42 L229.82,708.42 L229.83,708.43 L229.85,708.43 L229.86,708.43 L229.87,708.43 C230.05,708.43,230.12,708.32,230.12,707.98 V706.22 C230.12,705.85,230.02,705.74,229.63,705.73 V705.63 H231.18 V705.73 C230.81,705.75,230.7,705.83,230.7,706.1 V708.06 C230.7,708.07,230.76,708.14,230.81,708.19 C230.98,708.35,231.28,708.47,231.52,708.47 C231.83,708.47,231.98,708.22,231.98,707.74 V706.23 C231.98,705.84,231.91,705.76,231.51,705.73 V705.63 H233.07 V705.73 C232.67,705.74,232.57,705.86,232.57,706.29 V708.04 C232.78,708.34,233.01,708.47,233.33,708.47 C233.73,708.47,233.85,708.28,233.85,707.7 V706.24 C233.85,705.84,233.79,705.78,233.39,705.73 V705.63 H234.92 V705.73 L234.74,705.75 C234.53,705.76,234.44,705.89,234.44,706.16 V707.59 C234.44,708.41,234.16,708.83,233.63,708.83 C233.22,708.83,232.87,708.65,232.49,708.25 C232.37,708.64,232.13,708.83,231.76,708.83 C231.45,708.83,231.25,708.73,230.68,708.29 V708.82 L230.63,708.83 C230.27,708.7,230.03,708.62,229.65,708.52 Z " /><path
         id="path8354"
         fill="black"
         stroke-width="0"
         d="M236.16,708.83 L235.08,708.45 V708.34 L235.14,708.35 C235.22,708.36,235.31,708.37,235.38,708.37 C235.54,708.37,235.61,708.26,235.61,707.95 V706.34 C235.61,705.84,235.54,705.76,235.06,705.73 V705.63 H236.71 V705.73 C236.25,705.77,236.19,705.84,236.19,706.34 V708.81 Z " /><path
         id="path8356"
         fill="black"
         stroke-width="0"
         d="M235.84,710.38 L235.82,710.38 L235.8,710.38 L235.78,710.38 L235.77,710.37 L235.75,710.37 L235.73,710.36 L235.72,710.36 L235.7,710.35 L235.69,710.34 L235.67,710.34 L235.66,710.33 L235.64,710.32 L235.63,710.31 L235.62,710.3 L235.6,710.29 L235.59,710.28 L235.58,710.26 L235.57,710.25 L235.56,710.24 L235.55,710.22 L235.54,710.21 L235.53,710.19 L235.52,710.18 L235.52,710.16 L235.51,710.15 L235.5,710.13 L235.5,710.11 L235.5,710.1 L235.49,710.08 L235.49,710.06 L235.49,710.04 L235.49,710.03 C235.49,709.83,235.64,709.67,235.84,709.67 C236.04,709.67,236.2,709.82,236.2,710.03 C236.2,710.22,236.04,710.38,235.84,710.38 Z " /><path
         id="path8358"
         fill="black"
         stroke-width="0"
         d="M236.99,708.4 L237,708.4 L237,708.4 L237.01,708.4 L237.01,708.41 L237.02,708.41 L237.02,708.41 L237.03,708.41 L237.03,708.41 L237.04,708.41 L237.04,708.41 L237.05,708.42 L237.05,708.42 L237.06,708.42 L237.08,708.42 L237.09,708.42 L237.1,708.42 L237.11,708.42 L237.13,708.42 L237.14,708.43 L237.15,708.43 L237.17,708.43 L237.18,708.43 C237.38,708.43,237.44,708.32,237.44,707.98 V706.26 C237.44,705.86,237.36,705.76,237.01,705.73 V705.63 H238.49 V705.73 C238.13,705.76,238.03,705.85,238.03,706.1 V708.05 C238.36,708.36,238.51,708.45,238.74,708.45 C239.08,708.45,239.25,708.23,239.25,707.77 V706.32 C239.25,705.88,239.16,705.76,238.81,705.73 V705.63 H240.26 V705.73 C239.92,705.77,239.84,705.85,239.84,706.19 V707.79 C239.84,708.44,239.53,708.83,239.01,708.83 C238.69,708.83,238.48,708.71,238.01,708.27 V708.82 L237.96,708.83 C237.62,708.71,237.38,708.63,236.99,708.52 Z " /></g>    <g
       id="g8576"
       transform="matrix(1.2,0,0,-1.2,32.930959,1764.0911)"
       xml:space="preserve"
       stroke="black"
       stroke-linecap="butt"
       stroke-linejoin="miter"
       stroke-miterlimit="10.433"
       stroke-dasharray="none"
       stroke-dashoffset="0"
       stroke-opacity="1"
       fill="none"
       fill-rule="evenodd"
       fill-opacity="1"
       font-style="normal"
       font-variant="normal"
       font-weight="normal"
       font-stretch="normal"
       font-size-adjust="none"
       letter-spacing="normal"
       word-spacing="normal"
       text-anchor="start"
       ns0:text="$T_{\\text{max}}$"
       ns0:preamble="/home/sriranga/Desktop/MCT/package.tex"
       style="font-style:normal;font-variant:normal;font-weight:normal;font-stretch:normal;letter-spacing:normal;word-spacing:normal;text-anchor:start;fill:none;stroke:#000000;stroke-width:1;stroke-linecap:butt;stroke-linejoin:miter;stroke-miterlimit:10.43299961;stroke-opacity:1;stroke-dasharray:none;stroke-dashoffset:0"><path
         d="M229.73,713.61 H224.44 L224.02,712.08 L224.2,712.04 C224.73,713.11,225.04,713.28,226.57,713.26 L225.13,708.02 C224.97,707.49,224.74,707.33,224.08,707.28 V707.12 H226.96 V707.28 C226.79,707.29,226.65,707.31,226.59,707.31 C226.19,707.34,226.07,707.43,226.07,707.73 C226.07,707.86,226.1,707.98,226.19,708.32 L227.57,713.26 H228.12 C228.83,713.26,229.15,713.02,229.15,712.46 C229.15,712.33,229.14,712.18,229.12,712.01 L229.29,711.99 Z "
         stroke-width="0"
         fill="black"
         id="path8578" /><path
         d="M229.51,708.4 L229.52,708.4 L229.53,708.4 L229.54,708.4 L229.54,708.41 L229.55,708.41 L229.56,708.41 L229.57,708.41 L229.59,708.41 L229.6,708.42 L229.62,708.42 L229.63,708.42 L229.64,708.42 L229.66,708.42 L229.67,708.42 L229.68,708.42 L229.69,708.43 L229.71,708.43 L229.72,708.43 L229.74,708.43 C229.92,708.43,229.98,708.32,229.98,707.98 V706.22 C229.98,705.85,229.88,705.74,229.49,705.73 V705.63 H231.04 V705.73 C230.67,705.75,230.56,705.83,230.56,706.1 V708.06 C230.56,708.07,230.62,708.14,230.67,708.19 C230.84,708.35,231.14,708.47,231.39,708.47 C231.69,708.47,231.85,708.22,231.85,707.74 V706.23 C231.85,705.84,231.77,705.76,231.37,705.73 V705.63 H232.93 V705.73 C232.54,705.74,232.43,705.86,232.43,706.29 V708.04 C232.64,708.34,232.87,708.47,233.19,708.47 C233.59,708.47,233.71,708.28,233.71,707.7 V706.24 C233.71,705.84,233.66,705.78,233.25,705.73 V705.63 H234.78 V705.73 L234.6,705.75 C234.39,705.76,234.3,705.89,234.3,706.16 V707.59 C234.3,708.41,234.02,708.83,233.49,708.83 C233.09,708.83,232.73,708.65,232.35,708.25 C232.23,708.64,231.99,708.83,231.62,708.83 C231.31,708.83,231.11,708.73,230.54,708.29 V708.82 L230.49,708.83 C230.13,708.7,229.9,708.62,229.51,708.52 Z "
         stroke-width="0"
         fill="black"
         id="path8580" /><path
         d="M237.88,706.09 L237.87,706.08 L237.86,706.07 L237.85,706.06 L237.84,706.06 L237.83,706.05 L237.82,706.04 L237.81,706.03 L237.8,706.03 L237.79,706.02 L237.78,706.02 L237.77,706.01 L237.76,706.01 L237.75,706 L237.74,706 L237.73,705.99 L237.73,705.99 L237.72,705.98 L237.71,705.98 L237.7,705.98 L237.69,705.97 L237.68,705.97 L237.67,705.97 L237.66,705.97 L237.65,705.96 L237.63,705.96 L237.62,705.96 L237.6,705.96 L237.58,705.96 C237.42,705.96,237.37,706.05,237.37,706.36 V707.72 C237.37,708.08,237.33,708.28,237.23,708.45 C237.08,708.7,236.78,708.83,236.37,708.83 C235.71,708.83,235.2,708.49,235.2,708.05 C235.2,707.89,235.34,707.75,235.49,707.75 C235.66,707.75,235.81,707.89,235.81,708.04 C235.81,708.07,235.8,708.11,235.79,708.16 C235.78,708.22,235.77,708.27,235.77,708.32 C235.77,708.51,236,708.66,236.27,708.66 C236.62,708.66,236.8,708.46,236.8,708.09 V707.66 V707.49 V706.49 C236.8,706.27,236.77,706.21,236.62,706.12 C236.46,706.03,236.26,705.97,236.12,705.97 C235.87,705.97,235.68,706.2,235.68,706.5 V706.53 C235.68,706.94,235.96,707.19,236.8,707.49 V707.66 C235.73,707.23,235.61,707.17,235.31,706.91 C235.16,706.77,235.06,706.53,235.06,706.3 C235.06,705.87,235.37,705.56,235.79,705.56 C236.1,705.56,236.39,705.71,236.81,706.07 C236.85,705.71,236.97,705.56,237.26,705.56 C237.49,705.56,237.64,705.65,237.88,705.91 Z "
         stroke-width="0"
         fill="black"
         id="path8582" /><path
         d="M239.84,705.63 H241.24 V705.73 C241.02,705.73,240.88,705.85,240.67,706.15 L239.77,707.52 L240.35,708.35 C240.49,708.54,240.7,708.65,240.92,708.66 V708.76 H239.82 V708.66 C240.03,708.64,240.1,708.6,240.1,708.5 C240.1,708.42,240.01,708.27,239.84,708.05 C239.8,708.01,239.72,707.88,239.63,707.74 L239.53,707.88 C239.34,708.18,239.21,708.41,239.21,708.5 C239.21,708.6,239.3,708.65,239.51,708.66 V708.76 H238.07 V708.66 H238.13 C238.34,708.66,238.45,708.57,238.67,708.24 L239.32,707.24 L238.53,706.09 C238.32,705.8,238.25,705.76,238.02,705.73 V705.63 H239.03 V705.73 C238.84,705.73,238.75,705.77,238.75,705.86 C238.75,705.9,238.8,706.01,238.89,706.15 L239.44,707 L240.07,706.03 C240.1,705.99,240.12,705.94,240.12,705.9 C240.12,705.78,240.07,705.75,239.84,705.73 Z "
         stroke-width="0"
         fill="black"
         id="path8584" /></g>    <g
       id="content"
       transform="matrix(1.2,0,0,-1.2,-99.602354,1764.0911)"
       xml:space="preserve"
       stroke="black"
       stroke-linecap="butt"
       stroke-linejoin="miter"
       stroke-miterlimit="10.433"
       stroke-dasharray="none"
       stroke-dashoffset="0"
       stroke-opacity="1"
       fill="none"
       fill-rule="evenodd"
       fill-opacity="1"
       font-style="normal"
       font-variant="normal"
       font-weight="normal"
       font-stretch="normal"
       font-size-adjust="none"
       letter-spacing="normal"
       word-spacing="normal"
       text-anchor="start"
       ns0:text="$T_{\\text{min}}$"
       ns0:preamble="/home/sriranga/Desktop/MCT/package.tex"
       style="font-style:normal;font-variant:normal;font-weight:normal;font-stretch:normal;letter-spacing:normal;word-spacing:normal;text-anchor:start;fill:none;stroke:#000000;stroke-width:1;stroke-linecap:butt;stroke-linejoin:miter;stroke-miterlimit:10.43299961;stroke-opacity:1;stroke-dasharray:none;stroke-dashoffset:0"><path
         d="M229.73,713.61 H224.44 L224.02,712.08 L224.2,712.04 C224.73,713.11,225.04,713.28,226.57,713.26 L225.13,708.02 C224.97,707.49,224.74,707.33,224.08,707.28 V707.12 H226.96 V707.28 C226.79,707.29,226.65,707.31,226.59,707.31 C226.19,707.34,226.07,707.43,226.07,707.73 C226.07,707.86,226.1,707.98,226.19,708.32 L227.57,713.26 H228.12 C228.83,713.26,229.15,713.02,229.15,712.46 C229.15,712.33,229.14,712.18,229.12,712.01 L229.29,711.99 Z "
         stroke-width="0"
         fill="black"
         id="path3102" /><path
         d="M229.51,708.4 L229.52,708.4 L229.53,708.4 L229.54,708.4 L229.54,708.41 L229.55,708.41 L229.56,708.41 L229.57,708.41 L229.59,708.41 L229.6,708.42 L229.62,708.42 L229.63,708.42 L229.64,708.42 L229.66,708.42 L229.67,708.42 L229.68,708.42 L229.69,708.43 L229.71,708.43 L229.72,708.43 L229.74,708.43 C229.92,708.43,229.98,708.32,229.98,707.98 V706.22 C229.98,705.85,229.88,705.74,229.49,705.73 V705.63 H231.04 V705.73 C230.67,705.75,230.56,705.83,230.56,706.1 V708.06 C230.56,708.07,230.62,708.14,230.67,708.19 C230.84,708.35,231.14,708.47,231.39,708.47 C231.69,708.47,231.85,708.22,231.85,707.74 V706.23 C231.85,705.84,231.77,705.76,231.37,705.73 V705.63 H232.93 V705.73 C232.54,705.74,232.43,705.86,232.43,706.29 V708.04 C232.64,708.34,232.87,708.47,233.19,708.47 C233.59,708.47,233.71,708.28,233.71,707.7 V706.24 C233.71,705.84,233.66,705.78,233.25,705.73 V705.63 H234.78 V705.73 L234.6,705.75 C234.39,705.76,234.3,705.89,234.3,706.16 V707.59 C234.3,708.41,234.02,708.83,233.49,708.83 C233.09,708.83,232.73,708.65,232.35,708.25 C232.23,708.64,231.99,708.83,231.62,708.83 C231.31,708.83,231.11,708.73,230.54,708.29 V708.82 L230.49,708.83 C230.13,708.7,229.9,708.62,229.51,708.52 Z "
         stroke-width="0"
         fill="black"
         id="path3104" /><path
         d="M236.02,708.83 L234.95,708.45 V708.34 L235,708.35 C235.08,708.36,235.18,708.37,235.24,708.37 C235.4,708.37,235.47,708.26,235.47,707.95 V706.34 C235.47,705.84,235.4,705.76,234.92,705.73 V705.63 H236.57 V705.73 C236.11,705.77,236.05,705.84,236.05,706.34 V708.81 Z "
         stroke-width="0"
         fill="black"
         id="path3106" /><path
         d="M235.7,710.38 L235.68,710.38 L235.66,710.38 L235.64,710.38 L235.63,710.37 L235.61,710.37 L235.6,710.36 L235.58,710.36 L235.56,710.35 L235.55,710.34 L235.53,710.34 L235.52,710.33 L235.5,710.32 L235.49,710.31 L235.48,710.3 L235.46,710.29 L235.45,710.28 L235.44,710.26 L235.43,710.25 L235.42,710.24 L235.41,710.22 L235.4,710.21 L235.39,710.19 L235.38,710.18 L235.38,710.16 L235.37,710.15 L235.37,710.13 L235.36,710.11 L235.36,710.1 L235.35,710.08 L235.35,710.06 L235.35,710.04 L235.35,710.03 C235.35,709.83,235.5,709.67,235.7,709.67 C235.9,709.67,236.06,709.82,236.06,710.03 C236.06,710.22,235.9,710.38,235.7,710.38 Z "
         stroke-width="0"
         fill="black"
         id="path3108" /><path
         d="M236.86,708.4 L236.86,708.4 L236.86,708.4 L236.87,708.4 L236.87,708.41 L236.88,708.41 L236.88,708.41 L236.89,708.41 L236.89,708.41 L236.9,708.41 L236.9,708.41 L236.91,708.42 L236.91,708.42 L236.92,708.42 L236.94,708.42 L236.95,708.42 L236.96,708.42 L236.97,708.42 L236.99,708.42 L237,708.43 L237.02,708.43 L237.03,708.43 L237.04,708.43 C237.24,708.43,237.3,708.32,237.3,707.98 V706.26 C237.3,705.86,237.23,705.76,236.87,705.73 V705.63 H238.35 V705.73 C237.99,705.76,237.89,705.85,237.89,706.1 V708.05 C238.22,708.36,238.37,708.45,238.6,708.45 C238.95,708.45,239.11,708.23,239.11,707.77 V706.32 C239.11,705.88,239.02,705.76,238.67,705.73 V705.63 H240.12 V705.73 C239.78,705.77,239.7,705.85,239.7,706.19 V707.79 C239.7,708.44,239.39,708.83,238.88,708.83 C238.55,708.83,238.34,708.71,237.87,708.27 V708.82 L237.82,708.83 C237.48,708.71,237.24,708.63,236.86,708.52 Z "
         stroke-width="0"
         fill="black"
         id="path3110" /></g>    <g
       style="font-style:normal;font-variant:normal;font-weight:normal;font-stretch:normal;letter-spacing:normal;word-spacing:normal;text-anchor:start;fill:none;stroke:#000000;stroke-width:1;stroke-linecap:butt;stroke-linejoin:miter;stroke-miterlimit:10.43299961;stroke-opacity:1;stroke-dasharray:none;stroke-dashoffset:0"
       ns0:preamble="/home/sriranga/Desktop/MCT/package.tex"
       ns0:text="$T({}^\\circ C)$"
       text-anchor="start"
       word-spacing="normal"
       letter-spacing="normal"
       font-size-adjust="none"
       font-stretch="normal"
       font-weight="normal"
       font-variant="normal"
       font-style="normal"
       fill-opacity="1"
       fill-rule="evenodd"
       fill="none"
       stroke-opacity="1"
       stroke-dashoffset="0"
       stroke-dasharray="none"
       stroke-miterlimit="10.433"
       stroke-linejoin="miter"
       stroke-linecap="butt"
       stroke="black"
       xml:space="preserve"
       transform="matrix(1.2,0,0,-1.2,90.139688,1755.1645)"
       id="g3502"><path
         id="path3504"
         fill="black"
         stroke-width="0"
         d="M229.73,713.61 H224.44 L224.02,712.08 L224.2,712.04 C224.73,713.11,225.04,713.28,226.57,713.26 L225.13,708.02 C224.97,707.49,224.74,707.33,224.08,707.28 V707.12 H226.96 V707.28 C226.79,707.29,226.65,707.31,226.59,707.31 C226.19,707.34,226.07,707.43,226.07,707.73 C226.07,707.86,226.1,707.98,226.19,708.32 L227.57,713.26 H228.12 C228.83,713.26,229.15,713.02,229.15,712.46 C229.15,712.33,229.14,712.18,229.12,712.01 L229.29,711.99 Z " /><path
         id="path3506"
         fill="black"
         stroke-width="0"
         d="M233.08,713.84 L233.01,713.8 L232.95,713.75 L232.89,713.71 L232.83,713.67 L232.77,713.63 L232.71,713.59 L232.66,713.55 L232.6,713.52 L232.55,713.48 L232.5,713.44 L232.46,713.41 L232.41,713.37 L232.37,713.34 L232.32,713.3 L232.24,713.24 L232.16,713.17 L232.09,713.1 L232.02,713.03 L231.95,712.96 L231.88,712.89 L231.81,712.81 L231.75,712.73 L231.68,712.65 C230.97,711.78,230.62,710.79,230.62,709.63 C230.62,708.37,230.99,707.39,231.87,706.38 C232.28,705.9,232.54,705.68,233.05,705.37 L233.17,705.53 C232.38,706.15,232.1,706.5,231.83,707.24 C231.59,707.91,231.48,708.66,231.48,709.66 C231.48,710.7,231.61,711.52,231.88,712.13 C232.16,712.75,232.46,713.1,233.17,713.68 Z " /><path
         id="path3508"
         fill="black"
         stroke-width="0"
         d="M236.49,712.53 L236.49,712.6 L236.49,712.66 L236.48,712.73 L236.47,712.79 L236.45,712.85 L236.44,712.91 L236.42,712.97 L236.39,713.03 L236.37,713.09 L236.34,713.15 L236.31,713.2 L236.27,713.25 L236.24,713.3 L236.2,713.35 L236.16,713.4 L236.11,713.44 L236.07,713.49 L236.02,713.53 L235.97,713.57 L235.92,713.6 L235.87,713.64 L235.82,713.67 L235.76,713.7 L235.7,713.72 L235.64,713.74 L235.58,713.76 L235.52,713.78 L235.46,713.8 L235.4,713.81 L235.33,713.82 L235.26,713.82 L235.2,713.82 C234.47,713.82,233.9,713.24,233.9,712.53 C233.9,711.81,234.47,711.24,235.2,711.24 V711.57 C234.65,711.57,234.23,711.99,234.23,712.53 C234.23,713.06,234.65,713.49,235.2,713.49 C235.72,713.49,236.16,713.06,236.16,712.53 H236.16 C236.16,711.99,235.72,711.57,235.2,711.57 V711.24 C235.91,711.24,236.49,711.81,236.49,712.53 Z " /><path
         id="path3510"
         fill="black"
         stroke-width="0"
         d="M243.67,711.74 L244.04,713.72 H243.83 C243.75,713.56,243.65,713.5,243.45,713.5 C243.37,713.5,243.25,713.52,243.04,713.57 C242.59,713.68,242.19,713.74,241.88,713.74 C239.76,713.74,237.84,711.74,237.84,709.54 C237.84,708.02,238.91,706.95,240.43,706.95 C241.46,706.95,242.25,707.38,243.15,708.43 L242.98,708.57 C242.09,707.69,241.51,707.39,240.69,707.39 C239.59,707.39,238.95,708.15,238.95,709.43 C238.95,710.61,239.43,711.81,240.21,712.62 C240.68,713.1,241.31,713.38,241.97,713.38 C242.88,713.38,243.39,712.85,243.49,711.77 Z " /><path
         id="path3512"
         fill="black"
         stroke-width="0"
         d="M244.67,705.37 L244.74,705.41 L244.8,705.45 L244.87,705.5 L244.93,705.54 L244.99,705.58 L245.04,705.61 L245.1,705.65 L245.15,705.69 L245.2,705.73 L245.25,705.76 L245.3,705.8 L245.34,705.83 L245.39,705.87 L245.43,705.9 L245.51,705.97 L245.59,706.04 L245.66,706.11 L245.73,706.18 L245.8,706.25 L245.87,706.32 L245.94,706.4 L246.01,706.48 L246.07,706.56 C246.78,707.42,247.13,708.42,247.13,709.58 C247.13,710.85,246.76,711.81,245.88,712.83 C245.48,713.3,245.22,713.52,244.7,713.84 L244.58,713.68 C245.38,713.05,245.65,712.71,245.93,711.96 C246.16,711.3,246.27,710.54,246.27,709.55 C246.27,708.52,246.14,707.69,245.88,707.09 C245.6,706.46,245.3,706.1,244.58,705.53 Z " /></g>  </g>
</svg>
