<?xml version="1.0" encoding="UTF-8" standalone="no"?>
<!-- Created with Inkscape (http://www.inkscape.org/) -->

<svg
   xmlns:ns0="http://www.iki.fi/pav/software/textext/"
   xmlns:dc="http://purl.org/dc/elements/1.1/"
   xmlns:cc="http://creativecommons.org/ns#"
   xmlns:rdf="http://www.w3.org/1999/02/22-rdf-syntax-ns#"
   xmlns:svg="http://www.w3.org/2000/svg"
   xmlns="http://www.w3.org/2000/svg"
   xmlns:xlink="http://www.w3.org/1999/xlink"
   xmlns:sodipodi="http://sodipodi.sourceforge.net/DTD/sodipodi-0.dtd"
   xmlns:inkscape="http://www.inkscape.org/namespaces/inkscape"
   width="744.09448819"
   height="1052.3622047"
   id="svg2"
   version="1.1"
   inkscape:version="0.47 r22583"
   sodipodi:docname="fig17.svg">
  <sodipodi:namedview
     id="base"
     pagecolor="#ffffff"
     bordercolor="#666666"
     borderopacity="1.0"
     inkscape:pageopacity="0.0"
     inkscape:pageshadow="2"
     inkscape:zoom="2.8"
     inkscape:cx="361.70438"
     inkscape:cy="599.53363"
     inkscape:document-units="px"
     inkscape:current-layer="layer1"
     showgrid="false"
     showguides="true"
     inkscape:guide-bbox="true"
     inkscape:window-width="1024"
     inkscape:window-height="689"
     inkscape:window-x="0"
     inkscape:window-y="27"
     inkscape:window-maximized="1" />
  <defs
     id="defs4">
    <marker
       style="overflow:visible;"
       id="Arrow1Mend"
       refX="0.0"
       refY="0.0"
       orient="auto"
       inkscape:stockid="Arrow1Mend">
      <path
         transform="scale(0.4) rotate(180) translate(10,0)"
         style="fill-rule:evenodd;stroke:#000000;stroke-width:1.0pt;marker-start:none;"
         d="M 0.0,0.0 L 5.0,-5.0 L -12.5,0.0 L 5.0,5.0 L 0.0,0.0 z "
         id="path3638" />
    </marker>
    <inkscape:perspective
       id="perspective10"
       inkscape:persp3d-origin="372.04724 : 350.78739 : 1"
       inkscape:vp_z="744.09448 : 526.18109 : 1"
       inkscape:vp_y="0 : 1000 : 0"
       inkscape:vp_x="0 : 526.18109 : 1"
       sodipodi:type="inkscape:persp3d" />
  </defs>
  <metadata
     id="metadata7">
    <rdf:RDF>
      <cc:Work
         rdf:about="">
        <dc:format>image/svg+xml</dc:format>
        <dc:type
           rdf:resource="http://purl.org/dc/dcmitype/StillImage" />
        <dc:title />
      </cc:Work>
    </rdf:RDF>
  </metadata>
  <g
     id="layer1"
     inkscape:groupmode="layer"
     inkscape:label="Layer 1">
    <text
       sodipodi:linespacing="125%"
       id="text2816"
       y="424.0473"
       x="259.60919"
       style="font-size:12px;font-style:normal;font-variant:normal;font-weight:normal;font-stretch:normal;line-height:125%;letter-spacing:0px;word-spacing:0px;fill:#000000;fill-opacity:1;stroke:none;font-family:LMRoman12;-inkscape-font-specification:LMRoman12"
       xml:space="preserve"><tspan
         y="424.0473"
         x="259.60919"
         id="tspan2818"
         sodipodi:role="line">16</tspan></text>
    <path
       id="path2820"
       d="m 274.28571,412.00504 0,13.57143 32.5,0"
       style="color:#000000;fill:none;stroke:#000000;stroke-width:1px;stroke-linecap:butt;stroke-linejoin:miter;stroke-miterlimit:4;stroke-opacity:1;stroke-dasharray:none;stroke-dashoffset:0;marker:none;visibility:visible;display:inline;overflow:visible;enable-background:accumulate" />
    <path
       style="color:#000000;fill:none;stroke:#000000;stroke-width:1px;stroke-linecap:butt;stroke-linejoin:miter;stroke-miterlimit:4;stroke-opacity:1;stroke-dasharray:none;stroke-dashoffset:0;marker:none;visibility:visible;display:inline;overflow:visible;enable-background:accumulate"
       d="m 276.28571,425.4336 0,13.57143 32.5,0"
       id="path2822" />
    <text
       sodipodi:linespacing="125%"
       id="text2824"
       y="423.07645"
       x="278.21426"
       style="font-size:12px;font-style:normal;font-variant:normal;font-weight:normal;font-stretch:normal;line-height:125%;letter-spacing:0px;word-spacing:0px;fill:#000000;fill-opacity:1;stroke:none;font-family:LMRoman12;-inkscape-font-specification:LMRoman12"
       xml:space="preserve"><tspan
         y="423.07645"
         x="278.21426"
         id="tspan2826"
         sodipodi:role="line">2146</tspan></text>
    <text
       sodipodi:linespacing="125%"
       id="text2828"
       y="436.64789"
       x="279.64285"
       style="font-size:12px;font-style:normal;font-variant:normal;font-weight:normal;font-stretch:normal;line-height:125%;letter-spacing:0px;word-spacing:0px;fill:#000000;fill-opacity:1;stroke:none;font-family:LMRoman12;-inkscape-font-specification:LMRoman12"
       xml:space="preserve"><tspan
         y="436.64789"
         x="279.64285"
         id="tspan2830"
         sodipodi:role="line">134</tspan></text>
    <text
       xml:space="preserve"
       style="font-size:12px;font-style:normal;font-variant:normal;font-weight:normal;font-stretch:normal;line-height:125%;letter-spacing:0px;word-spacing:0px;fill:#000000;fill-opacity:1;stroke:none;font-family:LMRoman12;-inkscape-font-specification:LMRoman12"
       x="261.03778"
       y="437.47589"
       id="text2832"
       sodipodi:linespacing="125%"><tspan
         sodipodi:role="line"
         id="tspan2834"
         x="261.03778"
         y="437.47589">16</tspan></text>
    <text
       sodipodi:linespacing="125%"
       id="text2836"
       y="449.83304"
       x="285.32355"
       style="font-size:12px;font-style:normal;font-variant:normal;font-weight:normal;font-stretch:normal;line-height:125%;letter-spacing:0px;word-spacing:0px;fill:#000000;fill-opacity:1;stroke:none;font-family:LMRoman12;-inkscape-font-specification:LMRoman12"
       xml:space="preserve"><tspan
         y="449.83304"
         x="285.32355"
         id="tspan2838"
         sodipodi:role="line">8</tspan></text>
    <text
       sodipodi:linespacing="125%"
       id="text2840"
       y="423.43359"
       x="325.28574"
       style="font-size:12px;font-style:normal;font-variant:normal;font-weight:normal;font-stretch:normal;line-height:125%;letter-spacing:0px;word-spacing:0px;fill:#000000;fill-opacity:1;stroke:none;font-family:LMRoman12;-inkscape-font-specification:LMRoman12"
       xml:space="preserve"><tspan
         y="423.43359"
         x="325.28574"
         id="tspan2842"
         sodipodi:role="line">Remainder</tspan></text>
    <text
       sodipodi:linespacing="125%"
       id="text2844"
       y="437.36218"
       x="347.78574"
       style="font-size:12px;font-style:normal;font-variant:normal;font-weight:normal;font-stretch:normal;line-height:125%;letter-spacing:0px;word-spacing:0px;fill:#000000;fill-opacity:1;stroke:none;font-family:LMRoman12;-inkscape-font-specification:LMRoman12"
       xml:space="preserve"><tspan
         y="437.36218"
         x="347.78574"
         id="tspan2846"
         sodipodi:role="line">2</tspan><tspan
         id="tspan2848"
         y="452.36218"
         x="347.78574"
         sodipodi:role="line"
         dy="-2.5">6</tspan><tspan
         y="467.36218"
         x="347.78574"
         sodipodi:role="line"
         dy="0 -2.5"
         id="tspan2891">8</tspan></text>
    <path
       id="path2852"
       d="m 363.85715,457.7193 0,-26.07143"
       style="color:#000000;fill:none;stroke:#000000;stroke-width:1px;stroke-linecap:butt;stroke-linejoin:miter;stroke-miterlimit:4;stroke-opacity:1;stroke-dasharray:none;stroke-dashoffset:0;marker:none;marker-end:url(#Arrow1Mend);visibility:visible;display:inline;overflow:visible;enable-background:accumulate"
       sodipodi:nodetypes="cc" />
    <g
       id="g4100"
       ns0:preamble="/home/sriranga/Desktop/MCT/package.tex"
       ns0:text="$\\therefore~~ (2146)_{10}=(862)_{16}$"
       transform="matrix(1.2,0,0,1.2,-4.3872398,321.281)">
      <defs
         id="defs4102">
        <g
           id="g4104">
          <symbol
             id="textext-dc1de842-0"
             overflow="visible"
             style="overflow:visible">
            <path
               id="path4107"
               d=""
               style="stroke:none" />
          </symbol>
          <symbol
             id="textext-dc1de842-1"
             overflow="visible"
             style="overflow:visible">
            <path
               id="path4110"
               d="m 3.671875,-4.4375 c 0,-0.28125 -0.25,-0.53125 -0.53125,-0.53125 -0.296875,0 -0.53125,0.25 -0.53125,0.53125 0,0.296875 0.234375,0.53125 0.53125,0.53125 0.28125,0 0.53125,-0.234375 0.53125,-0.53125 z M 5.65625,-0.46875 C 5.65625,-0.75 5.40625,-1 5.125,-1 c -0.296875,0 -0.53125,0.25 -0.53125,0.53125 0,0.296875 0.234375,0.53125 0.53125,0.53125 0.28125,0 0.53125,-0.234375 0.53125,-0.53125 z m -3.984375,0 C 1.671875,-0.75 1.4375,-1 1.140625,-1 0.84375,-1 0.625,-0.75 0.625,-0.46875 c 0,0.296875 0.21875,0.53125 0.515625,0.53125 0.296875,0 0.53125,-0.234375 0.53125,-0.53125 z m 0,0"
               style="stroke:none" />
          </symbol>
          <symbol
             id="textext-dc1de842-2"
             overflow="visible"
             style="overflow:visible">
            <path
               id="path4113"
               d=""
               style="stroke:none" />
          </symbol>
          <symbol
             id="textext-dc1de842-3"
             overflow="visible"
             style="overflow:visible">
            <path
               id="path4116"
               d="M 2.9375,-6.734375 C 2.203125,-6.265625 1.90625,-6 1.53125,-5.546875 c -0.703125,0.875 -1.046875,1.875 -1.046875,3.03125 0,1.265625 0.359375,2.25 1.234375,3.265625 0.421875,0.46875 0.671875,0.703125 1.1875,1.015625 l 0.125,-0.15625 C 2.234375,0.984375 1.953125,0.625 1.6875,-0.125 1.453125,-0.78125 1.328125,-1.546875 1.328125,-2.546875 1.328125,-3.59375 1.46875,-4.40625 1.734375,-5.03125 2.015625,-5.640625 2.3125,-6 3.03125,-6.578125 L 2.9375,-6.734375 z m 0,0"
               style="stroke:none" />
          </symbol>
          <symbol
             id="textext-dc1de842-4"
             overflow="visible"
             style="overflow:visible">
            <path
               id="path4119"
               d="m 4.734375,-1.359375 -0.125,-0.0625 C 4.234375,-0.84375 4.109375,-0.75 3.65625,-0.75 l -2.375,0 1.671875,-1.765625 c 0.890625,-0.921875 1.28125,-1.6875 1.28125,-2.453125 0,-1 -0.8125,-1.765625 -1.859375,-1.765625 -0.546875,0 -1.0625,0.21875 -1.421875,0.609375 C 0.625,-5.78125 0.484375,-5.46875 0.3125,-4.75 l 0.203125,0.046875 C 0.921875,-5.6875 1.28125,-6 1.96875,-6 2.796875,-6 3.375,-5.4375 3.375,-4.59375 3.375,-3.8125 2.90625,-2.890625 2.078125,-2 l -1.78125,1.875 0,0.125 3.890625,0 0.546875,-1.359375 z m 0,0"
               style="stroke:none" />
          </symbol>
          <symbol
             id="textext-dc1de842-5"
             overflow="visible"
             style="overflow:visible">
            <path
               id="path4122"
               d="m 2.90625,-6.734375 -1.796875,0.90625 0,0.140625 C 1.21875,-5.734375 1.328125,-5.78125 1.375,-5.796875 1.5625,-5.875 1.71875,-5.90625 1.828125,-5.90625 2.03125,-5.90625 2.125,-5.765625 2.125,-5.4375 l 0,4.515625 c 0,0.328125 -0.078125,0.546875 -0.234375,0.640625 -0.15625,0.09375 -0.296875,0.125 -0.71875,0.125 l 0,0.15625 2.75,0 0,-0.15625 c -0.78125,0 -0.9375,-0.109375 -0.9375,-0.578125 l 0,-5.984375 -0.078125,-0.015625 z m 0,0"
               style="stroke:none" />
          </symbol>
          <symbol
             id="textext-dc1de842-6"
             overflow="visible"
             style="overflow:visible">
            <path
               id="path4125"
               d="m 4.703125,-2.296875 -1.015625,0 0,-4.4375 -0.4375,0 -3.125,4.4375 0,0.625 2.796875,0 0,1.671875 0.765625,0 0,-1.671875 1.015625,0 0,-0.625 z m -1.796875,0 -2.390625,0 2.390625,-3.421875 0,3.421875 z m 0,0"
               style="stroke:none" />
          </symbol>
          <symbol
             id="textext-dc1de842-7"
             overflow="visible"
             style="overflow:visible">
            <path
               id="path4128"
               d="M 4.453125,-6.8125 C 3.3125,-6.71875 2.734375,-6.53125 2,-6.015625 0.921875,-5.25 0.34375,-4.109375 0.34375,-2.78125 c 0,0.875 0.265625,1.75 0.6875,2.25 0.390625,0.4375 0.921875,0.671875 1.546875,0.671875 1.234375,0 2.09375,-0.953125 2.09375,-2.328125 0,-1.265625 -0.734375,-2.078125 -1.875,-2.078125 -0.4375,0 -0.65625,0.0625 -1.28125,0.453125 C 1.78125,-5.328125 2.90625,-6.40625 4.46875,-6.65625 L 4.453125,-6.8125 z m -2.046875,3 c 0.859375,0 1.359375,0.71875 1.359375,1.96875 0,1.09375 -0.390625,1.703125 -1.078125,1.703125 -0.890625,0 -1.421875,-0.9375 -1.421875,-2.484375 0,-0.5 0.078125,-0.78125 0.28125,-0.9375 C 1.75,-3.71875 2.0625,-3.8125 2.40625,-3.8125 z m 0,0"
               style="stroke:none" />
          </symbol>
          <symbol
             id="textext-dc1de842-8"
             overflow="visible"
             style="overflow:visible">
            <path
               id="path4131"
               d="M 0.375,1.765625 C 1.109375,1.28125 1.421875,1.03125 1.78125,0.5625 2.5,-0.296875 2.84375,-1.296875 2.84375,-2.46875 c 0,-1.265625 -0.375,-2.234375 -1.25,-3.25 C 1.1875,-6.203125 0.921875,-6.421875 0.40625,-6.734375 l -0.109375,0.15625 c 0.796875,0.625 1.0625,0.96875 1.34375,1.71875 0.234375,0.671875 0.34375,1.4375 0.34375,2.421875 0,1.046875 -0.125,1.875 -0.40625,2.484375 C 1.3125,0.671875 1,1.03125 0.296875,1.609375 L 0.375,1.765625 z m 0,0"
               style="stroke:none" />
          </symbol>
          <symbol
             id="textext-dc1de842-9"
             overflow="visible"
             style="overflow:visible">
            <path
               id="path4134"
               d="m 2.890625,-3.703125 c 0.984375,-0.53125 1.34375,-0.9375 1.34375,-1.625 0,-0.8125 -0.71875,-1.40625 -1.71875,-1.40625 -1.09375,0 -1.890625,0.65625 -1.890625,1.578125 0,0.640625 0.1875,0.921875 1.234375,1.84375 C 0.78125,-2.5 0.5625,-2.1875 0.5625,-1.5 c 0,0.96875 0.78125,1.640625 1.90625,1.640625 1.203125,0 1.96875,-0.65625 1.96875,-1.6875 0,-0.765625 -0.34375,-1.25 -1.546875,-2.15625 z m -0.171875,1.03125 c 0.71875,0.515625 0.953125,0.875 0.953125,1.4375 0,0.640625 -0.4375,1.09375 -1.09375,1.09375 -0.75,0 -1.265625,-0.578125 -1.265625,-1.4375 0,-0.640625 0.21875,-1.0625 0.796875,-1.53125 l 0.609375,0.4375 z M 2.609375,-3.875 c -0.890625,-0.578125 -1.25,-1.046875 -1.25,-1.59375 0,-0.578125 0.4375,-0.984375 1.078125,-0.984375 0.671875,0 1.09375,0.4375 1.09375,1.125 0,0.5625 -0.265625,1.015625 -0.84375,1.390625 -0.046875,0.03125 -0.046875,0.03125 -0.078125,0.0625 z m 0,0"
               style="stroke:none" />
          </symbol>
          <symbol
             id="textext-dc1de842-10"
             overflow="visible"
             style="overflow:visible">
            <path
               id="path4137"
               d=""
               style="stroke:none" />
          </symbol>
          <symbol
             id="textext-dc1de842-11"
             overflow="visible"
             style="overflow:visible">
            <path
               id="path4140"
               d="m 2.03125,-4.703125 -1.25,0.625 0,0.09375 c 0.078125,-0.03125 0.15625,-0.0625 0.1875,-0.078125 0.125,-0.046875 0.234375,-0.0625 0.3125,-0.0625 0.140625,0 0.203125,0.09375 0.203125,0.3125 l 0,3.171875 c 0,0.21875 -0.0625,0.375 -0.171875,0.453125 -0.09375,0.0625 -0.203125,0.078125 -0.484375,0.078125 L 0.828125,0 2.75,0 l 0,-0.109375 c -0.5625,0 -0.671875,-0.078125 -0.671875,-0.40625 l 0,-4.1875 -0.046875,0 z m 0,0"
               style="stroke:none" />
          </symbol>
          <symbol
             id="textext-dc1de842-12"
             overflow="visible"
             style="overflow:visible">
            <path
               id="path4143"
               d="m 1.765625,-4.703125 c -0.375,0 -0.671875,0.109375 -0.921875,0.359375 -0.40625,0.390625 -0.671875,1.1875 -0.671875,2 0,0.765625 0.21875,1.578125 0.546875,1.96875 0.265625,0.3125 0.625,0.46875 1.015625,0.46875 0.359375,0 0.65625,-0.109375 0.90625,-0.359375 0.40625,-0.375 0.671875,-1.1875 0.671875,-2.03125 0,-1.4375 -0.625,-2.40625 -1.546875,-2.40625 z M 1.75,-4.53125 c 0.578125,0 0.890625,0.78125 0.890625,2.25 0,1.453125 -0.296875,2.203125 -0.90625,2.203125 -0.59375,0 -0.890625,-0.75 -0.890625,-2.203125 0,-1.46875 0.3125,-2.25 0.90625,-2.25 z m 0,0"
               style="stroke:none" />
          </symbol>
          <symbol
             id="textext-dc1de842-13"
             overflow="visible"
             style="overflow:visible">
            <path
               id="path4146"
               d="M 3.109375,-4.765625 C 2.3125,-4.703125 1.90625,-4.5625 1.40625,-4.203125 0.640625,-3.671875 0.234375,-2.875 0.234375,-1.9375 c 0,0.59375 0.1875,1.21875 0.484375,1.5625 0.265625,0.3125 0.640625,0.46875 1.078125,0.46875 0.859375,0 1.46875,-0.65625 1.46875,-1.625 0,-0.890625 -0.515625,-1.453125 -1.3125,-1.453125 -0.3125,0 -0.453125,0.046875 -0.890625,0.3125 C 1.25,-3.71875 2.03125,-4.46875 3.125,-4.65625 L 3.109375,-4.765625 z M 1.6875,-2.65625 c 0.59375,0 0.953125,0.5 0.953125,1.359375 0,0.78125 -0.28125,1.203125 -0.765625,1.203125 -0.609375,0 -0.984375,-0.65625 -0.984375,-1.734375 0,-0.359375 0.046875,-0.5625 0.1875,-0.65625 C 1.21875,-2.59375 1.4375,-2.65625 1.6875,-2.65625 z m 0,0"
               style="stroke:none" />
          </symbol>
          <symbol
             id="textext-dc1de842-14"
             overflow="visible"
             style="overflow:visible">
            <path
               id="path4149"
               d=""
               style="stroke:none" />
          </symbol>
          <symbol
             id="textext-dc1de842-15"
             overflow="visible"
             style="overflow:visible">
            <path
               id="path4152"
               d="m 5.71875,-3.296875 0,-0.546875 -5.09375,0 0,0.546875 5.09375,0 z m 0,2.03125 0,-0.5625 -5.09375,0 0,0.5625 5.09375,0 z m 0,0"
               style="stroke:none" />
          </symbol>
        </g>
      </defs>
      <g
         id="textext-dc1de842-16">
        <g
           id="g4155"
           style="fill:#000000;fill-opacity:1">
          <use
             id="use4157"
             y="134.765"
             x="223.43201"
             xlink:href="#textext-dc1de842-1"
             width="744.09448"
             height="1052.3622" />
        </g>
        <g
           id="g4159"
           style="fill:#000000;fill-opacity:1">
          <use
             id="use4161"
             y="134.765"
             x="237.44701"
             xlink:href="#textext-dc1de842-3"
             width="744.09448"
             height="1052.3622" />
          <use
             id="use4163"
             y="134.765"
             x="240.76454"
             xlink:href="#textext-dc1de842-4"
             width="744.09448"
             height="1052.3622" />
          <use
             id="use4165"
             y="134.765"
             x="245.74585"
             xlink:href="#textext-dc1de842-5"
             width="744.09448"
             height="1052.3622" />
          <use
             id="use4167"
             y="134.765"
             x="250.72714"
             xlink:href="#textext-dc1de842-6"
             width="744.09448"
             height="1052.3622" />
          <use
             id="use4169"
             y="134.765"
             x="255.70845"
             xlink:href="#textext-dc1de842-7"
             width="744.09448"
             height="1052.3622" />
          <use
             id="use4171"
             y="134.765"
             x="260.68976"
             xlink:href="#textext-dc1de842-8"
             width="744.09448"
             height="1052.3622" />
        </g>
        <g
           id="g4173"
           style="fill:#000000;fill-opacity:1">
          <use
             id="use4175"
             y="136.259"
             x="264.008"
             xlink:href="#textext-dc1de842-11"
             width="744.09448"
             height="1052.3622" />
          <use
             id="use4177"
             y="136.259"
             x="267.4949"
             xlink:href="#textext-dc1de842-12"
             width="744.09448"
             height="1052.3622" />
        </g>
        <g
           id="g4179"
           style="fill:#000000;fill-opacity:1">
          <use
             id="use4181"
             y="134.765"
             x="274.24701"
             xlink:href="#textext-dc1de842-15"
             width="744.09448"
             height="1052.3622" />
        </g>
        <g
           id="g4183"
           style="fill:#000000;fill-opacity:1">
          <use
             id="use4185"
             y="134.765"
             x="283.35101"
             xlink:href="#textext-dc1de842-3"
             width="744.09448"
             height="1052.3622" />
          <use
             id="use4187"
             y="134.765"
             x="286.66855"
             xlink:href="#textext-dc1de842-9"
             width="744.09448"
             height="1052.3622" />
          <use
             id="use4189"
             y="134.765"
             x="291.64984"
             xlink:href="#textext-dc1de842-7"
             width="744.09448"
             height="1052.3622" />
          <use
             id="use4191"
             y="134.765"
             x="296.63113"
             xlink:href="#textext-dc1de842-4"
             width="744.09448"
             height="1052.3622" />
          <use
             id="use4193"
             y="134.765"
             x="301.61246"
             xlink:href="#textext-dc1de842-8"
             width="744.09448"
             height="1052.3622" />
        </g>
        <g
           id="g4195"
           style="fill:#000000;fill-opacity:1">
          <use
             id="use4197"
             y="136.259"
             x="304.92999"
             xlink:href="#textext-dc1de842-11"
             width="744.09448"
             height="1052.3622" />
          <use
             id="use4199"
             y="136.259"
             x="308.4169"
             xlink:href="#textext-dc1de842-13"
             width="744.09448"
             height="1052.3622" />
        </g>
      </g>
    </g>
    <path
       sodipodi:nodetypes="cc"
       style="color:#000000;fill:none;stroke:#000000;stroke-width:1px;stroke-linecap:butt;stroke-linejoin:miter;stroke-miterlimit:4;stroke-opacity:1;stroke-dasharray:none;stroke-dashoffset:0;marker:none;marker-end:url(#Arrow1Mend);visibility:visible;display:inline;overflow:visible;enable-background:accumulate"
       d="m 314.73215,433.23715 26.07143,0"
       id="path2893" />
    <path
       id="path2895"
       d="m 314.73215,446.66571 26.07143,0"
       style="color:#000000;fill:none;stroke:#000000;stroke-width:1px;stroke-linecap:butt;stroke-linejoin:miter;stroke-miterlimit:4;stroke-opacity:1;stroke-dasharray:none;stroke-dashoffset:0;marker:none;marker-end:url(#Arrow1Mend);visibility:visible;display:inline;overflow:visible;enable-background:accumulate"
       sodipodi:nodetypes="cc" />
    <path
       sodipodi:nodetypes="ccc"
       style="color:#000000;fill:none;stroke:#000000;stroke-width:1px;stroke-linecap:butt;stroke-linejoin:miter;stroke-miterlimit:4;stroke-opacity:1;stroke-dasharray:none;stroke-dashoffset:0;marker:none;marker-end:url(#Arrow1Mend);visibility:visible;display:inline;overflow:visible;enable-background:accumulate"
       d="m 288.30358,452.95141 0.26785,7.85714 52.23215,0"
       id="path2897" />
  </g>
</svg>
