<?xml version="1.0" encoding="UTF-8" standalone="no"?>
<!-- Created with Inkscape (http://www.inkscape.org/) -->

<svg
   xmlns:ns0="http://www.iki.fi/pav/software/textext/"
   xmlns:dc="http://purl.org/dc/elements/1.1/"
   xmlns:cc="http://creativecommons.org/ns#"
   xmlns:rdf="http://www.w3.org/1999/02/22-rdf-syntax-ns#"
   xmlns:svg="http://www.w3.org/2000/svg"
   xmlns="http://www.w3.org/2000/svg"
   xmlns:xlink="http://www.w3.org/1999/xlink"
   xmlns:sodipodi="http://sodipodi.sourceforge.net/DTD/sodipodi-0.dtd"
   xmlns:inkscape="http://www.inkscape.org/namespaces/inkscape"
   width="531.49603"
   height="602.36218"
   id="svg2"
   version="1.1"
   inkscape:version="0.48.4 r9939"
   sodipodi:docname="fig132.svg">
  <sodipodi:namedview
     id="base"
     pagecolor="#ffffff"
     bordercolor="#666666"
     borderopacity="1.0"
     inkscape:pageopacity="0.0"
     inkscape:pageshadow="2"
     inkscape:zoom="0.99109808"
     inkscape:cx="265.74802"
     inkscape:cy="301.18109"
     inkscape:document-units="px"
     inkscape:current-layer="layer1"
     showgrid="false"
     units="cm"
     inkscape:window-width="1366"
     inkscape:window-height="744"
     inkscape:window-x="0"
     inkscape:window-y="24"
     inkscape:window-maximized="1" />
  <defs
     id="defs4">
    <marker
       inkscape:stockid="Arrow1Mend"
       orient="auto"
       refY="0.0"
       refX="0.0"
       id="Arrow1Mend"
       style="overflow:visible;">
      <path
         id="path3610"
         d="M 0.0,0.0 L 5.0,-5.0 L -12.5,0.0 L 5.0,5.0 L 0.0,0.0 z "
         style="fill-rule:evenodd;stroke:#000000;stroke-width:1.0pt;marker-start:none;"
         transform="scale(0.4) rotate(180) translate(10,0)" />
    </marker>
    <inkscape:perspective
       sodipodi:type="inkscape:persp3d"
       inkscape:vp_x="0 : 526.18109 : 1"
       inkscape:vp_y="0 : 1000 : 0"
       inkscape:vp_z="744.09448 : 526.18109 : 1"
       inkscape:persp3d-origin="372.04724 : 350.78739 : 1"
       id="perspective10" />
  </defs>
  <metadata
     id="metadata7">
    <rdf:RDF>
      <cc:Work
         rdf:about="">
        <dc:format>image/svg+xml</dc:format>
        <dc:type
           rdf:resource="http://purl.org/dc/dcmitype/StillImage" />
        <dc:title></dc:title>
      </cc:Work>
    </rdf:RDF>
  </metadata>
  <g
     inkscape:label="Layer 1"
     inkscape:groupmode="layer"
     id="layer1"
     transform="translate(0,-449.99867)">
    <rect
       style="fill:none;stroke:#000000;stroke-width:1.375;stroke-linecap:round;stroke-linejoin:miter;stroke-miterlimit:4;stroke-opacity:1;stroke-dasharray:none;stroke-dashoffset:0"
       id="rect2816"
       width="50.002552"
       height="51.012703"
       x="65.154839"
       y="606.88361" />
    <rect
       y="606.88361"
       x="175.15485"
       height="51.012703"
       width="50.002552"
       id="rect2818"
       style="fill:none;stroke:#000000;stroke-width:1.375;stroke-linecap:round;stroke-linejoin:miter;stroke-miterlimit:4;stroke-opacity:1;stroke-dasharray:none;stroke-dashoffset:0" />
    <rect
       style="fill:none;stroke:#000000;stroke-width:1.375;stroke-linecap:round;stroke-linejoin:miter;stroke-miterlimit:4;stroke-opacity:1;stroke-dasharray:none;stroke-dashoffset:0"
       id="rect2820"
       width="50.002552"
       height="51.012703"
       x="283.19537"
       y="606.88361" />
    <rect
       y="606.88361"
       x="391.76123"
       height="51.012703"
       width="50.002552"
       id="rect2822"
       style="fill:none;stroke:#000000;stroke-width:1.375;stroke-linecap:round;stroke-linejoin:miter;stroke-miterlimit:4;stroke-opacity:1;stroke-dasharray:none;stroke-dashoffset:0" />
    <path
       style="color:#000000;fill:none;stroke:#000000;stroke-width:1.2;stroke-linecap:butt;stroke-linejoin:miter;stroke-miterlimit:4;stroke-opacity:1;stroke-dasharray:none;stroke-dashoffset:0;marker:none;visibility:visible;display:inline;overflow:visible;enable-background:accumulate;marker-end:url(#Arrow1Mend)"
       d="m 64.144685,640.72369 -19.697975,0 0,55.55839"
       id="path2824"
       sodipodi:nodetypes="ccc" />
    <path
       id="path4046"
       d="m 120.8325,558.72369 -38.38579,0 0,45.96194"
       style="color:#000000;fill:none;stroke:#000000;stroke-width:1.2;stroke-linecap:butt;stroke-linejoin:miter;stroke-miterlimit:4;stroke-opacity:1;stroke-dasharray:none;stroke-dashoffset:0;marker:none;marker-end:url(#Arrow1Mend);visibility:visible;display:inline;overflow:visible;enable-background:accumulate"
       sodipodi:nodetypes="ccc" />
    <path
       style="color:#000000;fill:none;stroke:#000000;stroke-width:1.2;stroke-linecap:butt;stroke-linejoin:miter;stroke-miterlimit:4;stroke-opacity:1;stroke-dasharray:none;stroke-dashoffset:0;marker:none;marker-end:url(#Arrow1Mend);visibility:visible;display:inline;overflow:visible;enable-background:accumulate"
       d="m 122.71067,575.39121 -26.26396,0 0,29.66019"
       id="path4048"
       sodipodi:nodetypes="ccc" />
    <path
       sodipodi:nodetypes="ccc"
       style="color:#000000;fill:none;stroke:#000000;stroke-width:1.2;stroke-linecap:butt;stroke-linejoin:miter;stroke-miterlimit:4;stroke-opacity:1;stroke-dasharray:none;stroke-dashoffset:0;marker:none;marker-end:url(#Arrow1Mend);visibility:visible;display:inline;overflow:visible;enable-background:accumulate"
       d="m 230.8325,558.72369 -38.38579,0 0,45.96194"
       id="path4050" />
    <path
       sodipodi:nodetypes="ccc"
       id="path4052"
       d="m 232.71067,575.39121 -26.26396,0 0,29.66019"
       style="color:#000000;fill:none;stroke:#000000;stroke-width:1.2;stroke-linecap:butt;stroke-linejoin:miter;stroke-miterlimit:4;stroke-opacity:1;stroke-dasharray:none;stroke-dashoffset:0;marker:none;marker-end:url(#Arrow1Mend);visibility:visible;display:inline;overflow:visible;enable-background:accumulate" />
    <path
       id="path4054"
       d="m 338.87314,558.72369 -38.38579,0 0,45.96194"
       style="color:#000000;fill:none;stroke:#000000;stroke-width:1.2;stroke-linecap:butt;stroke-linejoin:miter;stroke-miterlimit:4;stroke-opacity:1;stroke-dasharray:none;stroke-dashoffset:0;marker:none;marker-end:url(#Arrow1Mend);visibility:visible;display:inline;overflow:visible;enable-background:accumulate"
       sodipodi:nodetypes="ccc" />
    <path
       style="color:#000000;fill:none;stroke:#000000;stroke-width:1.2;stroke-linecap:butt;stroke-linejoin:miter;stroke-miterlimit:4;stroke-opacity:1;stroke-dasharray:none;stroke-dashoffset:0;marker:none;marker-end:url(#Arrow1Mend);visibility:visible;display:inline;overflow:visible;enable-background:accumulate"
       d="m 340.75131,575.39121 -26.26396,0 0,29.66019"
       id="path4056"
       sodipodi:nodetypes="ccc" />
    <path
       sodipodi:nodetypes="ccc"
       style="color:#000000;fill:none;stroke:#000000;stroke-width:1.2;stroke-linecap:butt;stroke-linejoin:miter;stroke-miterlimit:4;stroke-opacity:1;stroke-dasharray:none;stroke-dashoffset:0;marker:none;marker-end:url(#Arrow1Mend);visibility:visible;display:inline;overflow:visible;enable-background:accumulate"
       d="m 447.43918,558.72369 -38.38579,0 0,45.96194"
       id="path4058" />
    <path
       sodipodi:nodetypes="ccc"
       id="path4060"
       d="m 449.31735,575.39121 -26.26396,0 0,29.66019"
       style="color:#000000;fill:none;stroke:#000000;stroke-width:1.2;stroke-linecap:butt;stroke-linejoin:miter;stroke-miterlimit:4;stroke-opacity:1;stroke-dasharray:none;stroke-dashoffset:0;marker:none;marker-end:url(#Arrow1Mend);visibility:visible;display:inline;overflow:visible;enable-background:accumulate" />
    <path
       sodipodi:nodetypes="cc"
       id="path4062"
       d="m 89.961938,657.39121 0,38.89087"
       style="color:#000000;fill:none;stroke:#000000;stroke-width:1.2;stroke-linecap:butt;stroke-linejoin:miter;stroke-miterlimit:4;stroke-opacity:1;stroke-dasharray:none;stroke-dashoffset:0;marker:none;marker-end:url(#Arrow1Mend);visibility:visible;display:inline;overflow:visible;enable-background:accumulate" />
    <path
       style="color:#000000;fill:none;stroke:#000000;stroke-width:1.2;stroke-linecap:butt;stroke-linejoin:miter;stroke-miterlimit:4;stroke-opacity:1;stroke-dasharray:none;stroke-dashoffset:0;marker:none;marker-end:url(#Arrow1Mend);visibility:visible;display:inline;overflow:visible;enable-background:accumulate"
       d="m 199.96194,657.39121 0,38.89087"
       id="path4064"
       sodipodi:nodetypes="cc" />
    <path
       sodipodi:nodetypes="cc"
       id="path4066"
       d="m 308.50766,657.39121 0,38.89087"
       style="color:#000000;fill:none;stroke:#000000;stroke-width:1.2;stroke-linecap:butt;stroke-linejoin:miter;stroke-miterlimit:4;stroke-opacity:1;stroke-dasharray:none;stroke-dashoffset:0;marker:none;marker-end:url(#Arrow1Mend);visibility:visible;display:inline;overflow:visible;enable-background:accumulate" />
    <path
       style="color:#000000;fill:none;stroke:#000000;stroke-width:1.2;stroke-linecap:butt;stroke-linejoin:miter;stroke-miterlimit:4;stroke-opacity:1;stroke-dasharray:none;stroke-dashoffset:0;marker:none;marker-end:url(#Arrow1Mend);visibility:visible;display:inline;overflow:visible;enable-background:accumulate"
       d="m 417.05338,657.39121 0,38.89087"
       id="path4068"
       sodipodi:nodetypes="cc" />
    <path
       sodipodi:nodetypes="cc"
       id="path4070"
       d="m 175.47629,633.14922 -57.57869,0"
       style="color:#000000;fill:none;stroke:#000000;stroke-width:1.2;stroke-linecap:butt;stroke-linejoin:miter;stroke-miterlimit:4;stroke-opacity:1;stroke-dasharray:none;stroke-dashoffset:0;marker:none;marker-end:url(#Arrow1Mend);visibility:visible;display:inline;overflow:visible;enable-background:accumulate" />
    <path
       style="color:#000000;fill:none;stroke:#000000;stroke-width:1.2;stroke-linecap:butt;stroke-linejoin:miter;stroke-miterlimit:4;stroke-opacity:1;stroke-dasharray:none;stroke-dashoffset:0;marker:none;marker-end:url(#Arrow1Mend);visibility:visible;display:inline;overflow:visible;enable-background:accumulate"
       d="m 283.47629,633.14922 -57.57869,0"
       id="path4072"
       sodipodi:nodetypes="cc" />
    <path
       sodipodi:nodetypes="cc"
       id="path4074"
       d="m 391.98137,633.14922 -57.57869,0"
       style="color:#000000;fill:none;stroke:#000000;stroke-width:1.2;stroke-linecap:butt;stroke-linejoin:miter;stroke-miterlimit:4;stroke-opacity:1;stroke-dasharray:none;stroke-dashoffset:0;marker:none;marker-end:url(#Arrow1Mend);visibility:visible;display:inline;overflow:visible;enable-background:accumulate" />
    <text
       xml:space="preserve"
       style="font-size:12px;font-style:normal;font-variant:normal;font-weight:normal;font-stretch:normal;line-height:125%;letter-spacing:0px;word-spacing:0px;fill:#000000;fill-opacity:1;stroke:none;font-family:LMRoman12;-inkscape-font-specification:LMRoman12"
       x="82.142853"
       y="636.64655"
       id="text4076"
       sodipodi:linespacing="125%"><tspan
         sodipodi:role="line"
         id="tspan4078"
         x="82.142853"
         y="636.64655"
         style="font-style:italic;-inkscape-font-specification:Arial Italic">FA</tspan></text>
    <text
       sodipodi:linespacing="125%"
       id="text4080"
       y="636.64655"
       x="192.14285"
       style="font-size:12px;font-style:normal;font-variant:normal;font-weight:normal;font-stretch:normal;line-height:125%;letter-spacing:0px;word-spacing:0px;fill:#000000;fill-opacity:1;stroke:none;font-family:LMRoman12;-inkscape-font-specification:LMRoman12"
       xml:space="preserve"><tspan
         style="font-style:italic;-inkscape-font-specification:Arial Italic"
         y="636.64655"
         x="192.14285"
         id="tspan4082"
         sodipodi:role="line">FA</tspan></text>
    <text
       xml:space="preserve"
       style="font-size:12px;font-style:normal;font-variant:normal;font-weight:normal;font-stretch:normal;line-height:125%;letter-spacing:0px;word-spacing:0px;fill:#000000;fill-opacity:1;stroke:none;font-family:LMRoman12;-inkscape-font-specification:LMRoman12"
       x="300.14285"
       y="636.64655"
       id="text4084"
       sodipodi:linespacing="125%"><tspan
         sodipodi:role="line"
         id="tspan4086"
         x="300.14285"
         y="636.64655"
         style="font-style:italic;-inkscape-font-specification:Arial Italic">FA</tspan></text>
    <text
       sodipodi:linespacing="125%"
       id="text4088"
       y="636.64655"
       x="407.99997"
       style="font-size:12px;font-style:normal;font-variant:normal;font-weight:normal;font-stretch:normal;line-height:125%;letter-spacing:0px;word-spacing:0px;fill:#000000;fill-opacity:1;stroke:none;font-family:LMRoman12;-inkscape-font-specification:LMRoman12"
       xml:space="preserve"><tspan
         style="font-style:italic;-inkscape-font-specification:Arial Italic"
         y="636.64655"
         x="407.99997"
         id="tspan4090"
         sodipodi:role="line">HA</tspan></text>
    <g
       transform="matrix(1.2,0,0,1.2,-142.85715,399.70413)"
       ns0:text="$B_{3}$"
       ns0:preamble="/home/sriranga/Desktop/Projects/running-project/Prism-Modern-Control-Theory/package.tex"
       id="g4128">
      <defs
         id="defs4130">
        <g
           id="g4132">
          <symbol
             style="overflow:visible"
             overflow="visible"
             id="textext-8fcd17b3-0">
            <path
               style="stroke:none"
               d=""
               id="path4135" />
          </symbol>
          <symbol
             style="overflow:visible"
             overflow="visible"
             id="textext-8fcd17b3-1">
            <path
               style="stroke:none"
               d="m -0.078125,0 2.8125,0 C 4.296875,0 5.375,-0.8125 5.375,-2 5.375,-2.359375 5.25,-2.71875 5.03125,-2.9375 4.828125,-3.15625 4.640625,-3.28125 4.109375,-3.5 c 0.71875,-0.171875 1,-0.28125 1.328125,-0.5625 0.28125,-0.25 0.421875,-0.578125 0.421875,-0.984375 0,-0.9375 -0.703125,-1.46875 -1.984375,-1.46875 l -2.578125,0 0,0.171875 c 0.609375,0.046875 0.765625,0.125 0.765625,0.40625 0,0.140625 -0.03125,0.390625 -0.109375,0.640625 l -1.21875,4.40625 c -0.1875,0.578125 -0.25,0.625 -0.8125,0.734375 l 0,0.15625 z M 2.375,-3.296875 c 0.640625,0 1.0625,0.03125 1.265625,0.109375 0.40625,0.171875 0.65625,0.609375 0.65625,1.15625 0,1.078125 -0.734375,1.734375 -1.953125,1.734375 -0.421875,0 -0.640625,-0.15625 -0.640625,-0.421875 0,-0.125 0.125,-0.59375 0.34375,-1.390625 C 2.1875,-2.5625 2.25,-2.796875 2.375,-3.296875 z M 3.125,-5.9375 c 0.0625,-0.21875 0.171875,-0.265625 0.5625,-0.265625 0.796875,0 1.171875,0.328125 1.171875,1.0625 0,0.578125 -0.25,1.015625 -0.671875,1.25 C 3.84375,-3.6875 3.375,-3.625 2.46875,-3.625 L 3.125,-5.9375 z m 0,0"
               id="path4138" />
          </symbol>
          <symbol
             style="overflow:visible"
             overflow="visible"
             id="textext-8fcd17b3-2">
            <path
               style="stroke:none"
               d=""
               id="path4141" />
          </symbol>
          <symbol
             style="overflow:visible"
             overflow="visible"
             id="textext-8fcd17b3-3">
            <path
               style="stroke:none"
               d="m 1.0625,-2.296875 c 0.421875,0 0.578125,0.015625 0.75,0.078125 0.421875,0.15625 0.703125,0.546875 0.703125,1.03125 0,0.578125 -0.40625,1.03125 -0.921875,1.03125 -0.1875,0 -0.328125,-0.046875 -0.578125,-0.21875 C 0.796875,-0.5 0.6875,-0.546875 0.5625,-0.546875 c -0.15625,0 -0.265625,0.09375 -0.265625,0.25 0,0.234375 0.296875,0.390625 0.796875,0.390625 0.53125,0 1.078125,-0.171875 1.40625,-0.46875 0.328125,-0.28125 0.515625,-0.6875 0.515625,-1.15625 0,-0.34375 -0.109375,-0.671875 -0.3125,-0.890625 C 2.5625,-2.578125 2.421875,-2.65625 2.125,-2.796875 2.59375,-3.125 2.78125,-3.375 2.78125,-3.75 c 0,-0.578125 -0.453125,-0.953125 -1.09375,-0.953125 -0.34375,0 -0.65625,0.109375 -0.90625,0.328125 C 0.578125,-4.1875 0.46875,-4 0.3125,-3.578125 l 0.109375,0.03125 c 0.28125,-0.515625 0.59375,-0.75 1.03125,-0.75 0.453125,0 0.765625,0.3125 0.765625,0.75 0,0.25 -0.09375,0.5 -0.28125,0.671875 -0.203125,0.21875 -0.390625,0.3125 -0.875,0.484375 l 0,0.09375 z m 0,0"
               id="path4144" />
          </symbol>
        </g>
      </defs>
      <g
         id="textext-8fcd17b3-4">
        <g
           style="fill:#000000;fill-opacity:1"
           id="g4147">
          <use
             height="602.36218"
             width="531.49603"
             xlink:href="#textext-8fcd17b3-1"
             x="223.78101"
             y="134.765"
             id="use4149" />
        </g>
        <g
           style="fill:#000000;fill-opacity:1"
           id="g4151">
          <use
             height="602.36218"
             width="531.49603"
             xlink:href="#textext-8fcd17b3-3"
             x="229.76801"
             y="136.259"
             id="use4153" />
        </g>
      </g>
    </g>
    <g
       id="g4289"
       transform="matrix(1.2,0,0,1.2,-142.85715,416.20921)"
       ns0:preamble="/home/sriranga/Desktop/Projects/running-project/Prism-Modern-Control-Theory/package.tex"
       ns0:text="$A_{3}$">
      <defs
         id="defs4291">
        <g
           id="g4293">
          <symbol
             id="textext-2794878e-0"
             overflow="visible">
            <path
               id="path4296"
               d=""
               style="stroke:none;" />
          </symbol>
          <symbol
             id="textext-2794878e-1"
             overflow="visible">
            <path
               id="path4299"
               d="M 5.625 -0.15625 C 5.046875 -0.203125 5 -0.296875 4.859375 -1.015625 L 3.921875 -6.65625 L 3.671875 -6.65625 L 0.78125 -1.671875 C -0.015625 -0.34375 -0.109375 -0.234375 -0.515625 -0.15625 L -0.515625 0 L 1.359375 0 L 1.359375 -0.15625 C 0.84375 -0.203125 0.765625 -0.265625 0.765625 -0.515625 C 0.765625 -0.703125 0.796875 -0.78125 0.96875 -1.125 L 1.53125 -2.25 L 3.734375 -2.25 L 3.921875 -0.953125 C 3.9375 -0.859375 3.953125 -0.765625 3.953125 -0.6875 C 3.953125 -0.3125 3.8125 -0.21875 3.171875 -0.15625 L 3.171875 0 L 5.625 0 L 5.625 -0.15625 Z M 1.75 -2.609375 L 3.234375 -5.203125 L 3.671875 -2.609375 L 1.75 -2.609375 Z M 1.75 -2.609375 "
               style="stroke:none;" />
          </symbol>
          <symbol
             id="textext-2794878e-2"
             overflow="visible">
            <path
               id="path4302"
               d=""
               style="stroke:none;" />
          </symbol>
          <symbol
             id="textext-2794878e-3"
             overflow="visible">
            <path
               id="path4305"
               d="M 1.0625 -2.296875 C 1.484375 -2.296875 1.640625 -2.28125 1.8125 -2.21875 C 2.234375 -2.0625 2.515625 -1.671875 2.515625 -1.1875 C 2.515625 -0.609375 2.109375 -0.15625 1.59375 -0.15625 C 1.40625 -0.15625 1.265625 -0.203125 1.015625 -0.375 C 0.796875 -0.5 0.6875 -0.546875 0.5625 -0.546875 C 0.40625 -0.546875 0.296875 -0.453125 0.296875 -0.296875 C 0.296875 -0.0625 0.59375 0.09375 1.09375 0.09375 C 1.625 0.09375 2.171875 -0.078125 2.5 -0.375 C 2.828125 -0.65625 3.015625 -1.0625 3.015625 -1.53125 C 3.015625 -1.875 2.90625 -2.203125 2.703125 -2.421875 C 2.5625 -2.578125 2.421875 -2.65625 2.125 -2.796875 C 2.59375 -3.125 2.78125 -3.375 2.78125 -3.75 C 2.78125 -4.328125 2.328125 -4.703125 1.6875 -4.703125 C 1.34375 -4.703125 1.03125 -4.59375 0.78125 -4.375 C 0.578125 -4.1875 0.46875 -4 0.3125 -3.578125 L 0.421875 -3.546875 C 0.703125 -4.0625 1.015625 -4.296875 1.453125 -4.296875 C 1.90625 -4.296875 2.21875 -3.984375 2.21875 -3.546875 C 2.21875 -3.296875 2.125 -3.046875 1.9375 -2.875 C 1.734375 -2.65625 1.546875 -2.5625 1.0625 -2.390625 L 1.0625 -2.296875 Z M 1.0625 -2.296875 "
               style="stroke:none;" />
          </symbol>
        </g>
      </defs>
      <g
         id="textext-2794878e-4">
        <g
           id="g4308"
           style="fill:rgb(0%,0%,0%);fill-opacity:1;">
          <use
             id="use4310"
             y="134.765"
             x="223.681"
             xlink:href="#textext-2794878e-1" />
        </g>
        <g
           id="g4312"
           style="fill:rgb(0%,0%,0%);fill-opacity:1;">
          <use
             id="use4314"
             y="136.259"
             x="229.768"
             xlink:href="#textext-2794878e-3" />
        </g>
      </g>
    </g>
    <g
       ns0:text="$B_{2}$"
       ns0:preamble="/home/sriranga/Desktop/Projects/running-project/Prism-Modern-Control-Theory/package.tex"
       transform="matrix(1.2,0,0,1.2,-33.59446,399.70413)"
       id="g4530">
      <defs
         id="defs4532">
        <g
           id="g4534">
          <symbol
             overflow="visible"
             id="textext-5cf78665-0"
             style="overflow:visible">
            <path
               style="stroke:none"
               d=""
               id="path4537" />
          </symbol>
          <symbol
             overflow="visible"
             id="textext-5cf78665-1"
             style="overflow:visible">
            <path
               style="stroke:none"
               d="m -0.078125,0 2.8125,0 C 4.296875,0 5.375,-0.8125 5.375,-2 5.375,-2.359375 5.25,-2.71875 5.03125,-2.9375 4.828125,-3.15625 4.640625,-3.28125 4.109375,-3.5 c 0.71875,-0.171875 1,-0.28125 1.328125,-0.5625 0.28125,-0.25 0.421875,-0.578125 0.421875,-0.984375 0,-0.9375 -0.703125,-1.46875 -1.984375,-1.46875 l -2.578125,0 0,0.171875 c 0.609375,0.046875 0.765625,0.125 0.765625,0.40625 0,0.140625 -0.03125,0.390625 -0.109375,0.640625 l -1.21875,4.40625 c -0.1875,0.578125 -0.25,0.625 -0.8125,0.734375 l 0,0.15625 z M 2.375,-3.296875 c 0.640625,0 1.0625,0.03125 1.265625,0.109375 0.40625,0.171875 0.65625,0.609375 0.65625,1.15625 0,1.078125 -0.734375,1.734375 -1.953125,1.734375 -0.421875,0 -0.640625,-0.15625 -0.640625,-0.421875 0,-0.125 0.125,-0.59375 0.34375,-1.390625 C 2.1875,-2.5625 2.25,-2.796875 2.375,-3.296875 z M 3.125,-5.9375 c 0.0625,-0.21875 0.171875,-0.265625 0.5625,-0.265625 0.796875,0 1.171875,0.328125 1.171875,1.0625 0,0.578125 -0.25,1.015625 -0.671875,1.25 C 3.84375,-3.6875 3.375,-3.625 2.46875,-3.625 L 3.125,-5.9375 z m 0,0"
               id="path4540" />
          </symbol>
          <symbol
             overflow="visible"
             id="textext-5cf78665-2"
             style="overflow:visible">
            <path
               style="stroke:none"
               d=""
               id="path4543" />
          </symbol>
          <symbol
             overflow="visible"
             id="textext-5cf78665-3"
             style="overflow:visible">
            <path
               style="stroke:none"
               d="M 3.3125,-0.953125 3.21875,-0.984375 C 2.96875,-0.59375 2.875,-0.53125 2.5625,-0.53125 l -1.671875,0 L 2.0625,-1.75 c 0.625,-0.65625 0.890625,-1.1875 0.890625,-1.734375 0,-0.6875 -0.5625,-1.21875 -1.28125,-1.21875 -0.390625,0 -0.75,0.140625 -1.015625,0.421875 -0.21875,0.234375 -0.328125,0.46875 -0.4375,0.953125 l 0.140625,0.03125 C 0.640625,-3.96875 0.890625,-4.1875 1.375,-4.1875 c 0.578125,0 0.984375,0.390625 0.984375,0.96875 0,0.546875 -0.328125,1.203125 -0.90625,1.8125 l -1.25,1.328125 0,0.078125 2.71875,0 0.390625,-0.953125 z m 0,0"
               id="path4546" />
          </symbol>
        </g>
      </defs>
      <g
         id="textext-5cf78665-4">
        <g
           style="fill:#000000;fill-opacity:1"
           id="g4549">
          <use
             xlink:href="#textext-5cf78665-1"
             x="223.78101"
             y="134.765"
             id="use4551"
             width="531.49603"
             height="602.36218" />
        </g>
        <g
           style="fill:#000000;fill-opacity:1"
           id="g4553">
          <use
             xlink:href="#textext-5cf78665-3"
             x="229.76801"
             y="136.259"
             id="use4555"
             width="531.49603"
             height="602.36218" />
        </g>
      </g>
    </g>
    <g
       id="g4739"
       transform="matrix(1.2,0,0,1.2,-33.59446,416.20921)"
       ns0:preamble="/home/sriranga/Desktop/Projects/running-project/Prism-Modern-Control-Theory/package.tex"
       ns0:text="$A_{2}$">
      <defs
         id="defs4741">
        <g
           id="g4743">
          <symbol
             id="textext-bc75745c-0"
             overflow="visible"
             style="overflow:visible">
            <path
               id="path4746"
               d=""
               style="stroke:none" />
          </symbol>
          <symbol
             id="textext-bc75745c-1"
             overflow="visible"
             style="overflow:visible">
            <path
               id="path4749"
               d="M 5.625,-0.15625 C 5.046875,-0.203125 5,-0.296875 4.859375,-1.015625 l -0.9375,-5.640625 -0.25,0 -2.890625,4.984375 c -0.796875,1.328125 -0.890625,1.4375 -1.296875,1.515625 l 0,0.15625 1.875,0 0,-0.15625 c -0.515625,-0.046875 -0.59375,-0.109375 -0.59375,-0.359375 0,-0.1875 0.03125,-0.265625 0.203125,-0.609375 l 0.5625,-1.125 2.203125,0 0.1875,1.296875 c 0.015625,0.09375 0.03125,0.1875 0.03125,0.265625 0,0.375 -0.140625,0.46875 -0.78125,0.53125 l 0,0.15625 2.453125,0 0,-0.15625 z m -3.875,-2.453125 1.484375,-2.59375 0.4375,2.59375 -1.921875,0 z m 0,0"
               style="stroke:none" />
          </symbol>
          <symbol
             id="textext-bc75745c-2"
             overflow="visible"
             style="overflow:visible">
            <path
               id="path4752"
               d=""
               style="stroke:none" />
          </symbol>
          <symbol
             id="textext-bc75745c-3"
             overflow="visible"
             style="overflow:visible">
            <path
               id="path4755"
               d="M 3.3125,-0.953125 3.21875,-0.984375 C 2.96875,-0.59375 2.875,-0.53125 2.5625,-0.53125 l -1.671875,0 L 2.0625,-1.75 c 0.625,-0.65625 0.890625,-1.1875 0.890625,-1.734375 0,-0.6875 -0.5625,-1.21875 -1.28125,-1.21875 -0.390625,0 -0.75,0.140625 -1.015625,0.421875 -0.21875,0.234375 -0.328125,0.46875 -0.4375,0.953125 l 0.140625,0.03125 C 0.640625,-3.96875 0.890625,-4.1875 1.375,-4.1875 c 0.578125,0 0.984375,0.390625 0.984375,0.96875 0,0.546875 -0.328125,1.203125 -0.90625,1.8125 l -1.25,1.328125 0,0.078125 2.71875,0 0.390625,-0.953125 z m 0,0"
               style="stroke:none" />
          </symbol>
        </g>
      </defs>
      <g
         id="textext-bc75745c-4">
        <g
           id="g4758"
           style="fill:#000000;fill-opacity:1">
          <use
             id="use4760"
             y="134.765"
             x="223.681"
             xlink:href="#textext-bc75745c-1"
             width="531.49603"
             height="602.36218" />
        </g>
        <g
           id="g4762"
           style="fill:#000000;fill-opacity:1">
          <use
             id="use4764"
             y="136.259"
             x="229.76801"
             xlink:href="#textext-bc75745c-3"
             width="531.49603"
             height="602.36218" />
        </g>
      </g>
    </g>
    <g
       ns0:text="$B_{1}$"
       ns0:preamble="/home/sriranga/Desktop/Projects/running-project/Prism-Modern-Control-Theory/package.tex"
       transform="matrix(1.2,0,0,1.2,74.658078,399.70413)"
       id="g5044">
      <defs
         id="defs5046">
        <g
           id="g5048">
          <symbol
             overflow="visible"
             id="textext-464d8156-0">
            <path
               style="stroke:none;"
               d=""
               id="path5051" />
          </symbol>
          <symbol
             overflow="visible"
             id="textext-464d8156-1">
            <path
               style="stroke:none;"
               d="M -0.078125 0 L 2.734375 0 C 4.296875 0 5.375 -0.8125 5.375 -2 C 5.375 -2.359375 5.25 -2.71875 5.03125 -2.9375 C 4.828125 -3.15625 4.640625 -3.28125 4.109375 -3.5 C 4.828125 -3.671875 5.109375 -3.78125 5.4375 -4.0625 C 5.71875 -4.3125 5.859375 -4.640625 5.859375 -5.046875 C 5.859375 -5.984375 5.15625 -6.515625 3.875 -6.515625 L 1.296875 -6.515625 L 1.296875 -6.34375 C 1.90625 -6.296875 2.0625 -6.21875 2.0625 -5.9375 C 2.0625 -5.796875 2.03125 -5.546875 1.953125 -5.296875 L 0.734375 -0.890625 C 0.546875 -0.3125 0.484375 -0.265625 -0.078125 -0.15625 L -0.078125 0 Z M 2.375 -3.296875 C 3.015625 -3.296875 3.4375 -3.265625 3.640625 -3.1875 C 4.046875 -3.015625 4.296875 -2.578125 4.296875 -2.03125 C 4.296875 -0.953125 3.5625 -0.296875 2.34375 -0.296875 C 1.921875 -0.296875 1.703125 -0.453125 1.703125 -0.71875 C 1.703125 -0.84375 1.828125 -1.3125 2.046875 -2.109375 C 2.1875 -2.5625 2.25 -2.796875 2.375 -3.296875 Z M 3.125 -5.9375 C 3.1875 -6.15625 3.296875 -6.203125 3.6875 -6.203125 C 4.484375 -6.203125 4.859375 -5.875 4.859375 -5.140625 C 4.859375 -4.5625 4.609375 -4.125 4.1875 -3.890625 C 3.84375 -3.6875 3.375 -3.625 2.46875 -3.625 L 3.125 -5.9375 Z M 3.125 -5.9375 "
               id="path5054" />
          </symbol>
          <symbol
             overflow="visible"
             id="textext-464d8156-2">
            <path
               style="stroke:none;"
               d=""
               id="path5057" />
          </symbol>
          <symbol
             overflow="visible"
             id="textext-464d8156-3">
            <path
               style="stroke:none;"
               d="M 2.03125 -4.703125 L 0.78125 -4.078125 L 0.78125 -3.984375 C 0.859375 -4.015625 0.9375 -4.046875 0.96875 -4.0625 C 1.09375 -4.109375 1.203125 -4.125 1.28125 -4.125 C 1.421875 -4.125 1.484375 -4.03125 1.484375 -3.8125 L 1.484375 -0.640625 C 1.484375 -0.421875 1.421875 -0.265625 1.3125 -0.1875 C 1.21875 -0.125 1.109375 -0.109375 0.828125 -0.109375 L 0.828125 0 L 2.75 0 L 2.75 -0.109375 C 2.1875 -0.109375 2.078125 -0.1875 2.078125 -0.515625 L 2.078125 -4.703125 L 2.03125 -4.703125 Z M 2.03125 -4.703125 "
               id="path5060" />
          </symbol>
        </g>
      </defs>
      <g
         id="textext-464d8156-4">
        <g
           style="fill:rgb(0%,0%,0%);fill-opacity:1;"
           id="g5063">
          <use
             xlink:href="#textext-464d8156-1"
             x="223.781"
             y="134.765"
             id="use5065" />
        </g>
        <g
           style="fill:rgb(0%,0%,0%);fill-opacity:1;"
           id="g5067">
          <use
             xlink:href="#textext-464d8156-3"
             x="229.768"
             y="136.259"
             id="use5069" />
        </g>
      </g>
    </g>
    <g
       id="g5317"
       transform="matrix(1.2,0,0,1.2,74.658078,416.20921)"
       ns0:preamble="/home/sriranga/Desktop/Projects/running-project/Prism-Modern-Control-Theory/package.tex"
       ns0:text="$A_{1}$">
      <defs
         id="defs5319">
        <g
           id="g5321">
          <symbol
             id="textext-82066854-0"
             overflow="visible">
            <path
               id="path5324"
               d=""
               style="stroke:none;" />
          </symbol>
          <symbol
             id="textext-82066854-1"
             overflow="visible">
            <path
               id="path5327"
               d="M 5.625 -0.15625 C 5.046875 -0.203125 5 -0.296875 4.859375 -1.015625 L 3.921875 -6.65625 L 3.671875 -6.65625 L 0.78125 -1.671875 C -0.015625 -0.34375 -0.109375 -0.234375 -0.515625 -0.15625 L -0.515625 0 L 1.359375 0 L 1.359375 -0.15625 C 0.84375 -0.203125 0.765625 -0.265625 0.765625 -0.515625 C 0.765625 -0.703125 0.796875 -0.78125 0.96875 -1.125 L 1.53125 -2.25 L 3.734375 -2.25 L 3.921875 -0.953125 C 3.9375 -0.859375 3.953125 -0.765625 3.953125 -0.6875 C 3.953125 -0.3125 3.8125 -0.21875 3.171875 -0.15625 L 3.171875 0 L 5.625 0 L 5.625 -0.15625 Z M 1.75 -2.609375 L 3.234375 -5.203125 L 3.671875 -2.609375 L 1.75 -2.609375 Z M 1.75 -2.609375 "
               style="stroke:none;" />
          </symbol>
          <symbol
             id="textext-82066854-2"
             overflow="visible">
            <path
               id="path5330"
               d=""
               style="stroke:none;" />
          </symbol>
          <symbol
             id="textext-82066854-3"
             overflow="visible">
            <path
               id="path5333"
               d="M 2.03125 -4.703125 L 0.78125 -4.078125 L 0.78125 -3.984375 C 0.859375 -4.015625 0.9375 -4.046875 0.96875 -4.0625 C 1.09375 -4.109375 1.203125 -4.125 1.28125 -4.125 C 1.421875 -4.125 1.484375 -4.03125 1.484375 -3.8125 L 1.484375 -0.640625 C 1.484375 -0.421875 1.421875 -0.265625 1.3125 -0.1875 C 1.21875 -0.125 1.109375 -0.109375 0.828125 -0.109375 L 0.828125 0 L 2.75 0 L 2.75 -0.109375 C 2.1875 -0.109375 2.078125 -0.1875 2.078125 -0.515625 L 2.078125 -4.703125 L 2.03125 -4.703125 Z M 2.03125 -4.703125 "
               style="stroke:none;" />
          </symbol>
        </g>
      </defs>
      <g
         id="textext-82066854-4">
        <g
           id="g5336"
           style="fill:rgb(0%,0%,0%);fill-opacity:1;">
          <use
             id="use5338"
             y="134.765"
             x="223.681"
             xlink:href="#textext-82066854-1" />
        </g>
        <g
           id="g5340"
           style="fill:rgb(0%,0%,0%);fill-opacity:1;">
          <use
             id="use5342"
             y="136.259"
             x="229.768"
             xlink:href="#textext-82066854-3" />
        </g>
      </g>
    </g>
    <g
       ns0:text="$B_{0}$"
       ns0:preamble="/home/sriranga/Desktop/Projects/running-project/Prism-Modern-Control-Theory/package.tex"
       transform="matrix(1.2,0,0,1.2,183.4157,399.70413)"
       id="g5686">
      <defs
         id="defs5688">
        <g
           id="g5690">
          <symbol
             overflow="visible"
             id="textext-eec9a28b-0">
            <path
               style="stroke:none;"
               d=""
               id="path5693" />
          </symbol>
          <symbol
             overflow="visible"
             id="textext-eec9a28b-1">
            <path
               style="stroke:none;"
               d="M -0.078125 0 L 2.734375 0 C 4.296875 0 5.375 -0.8125 5.375 -2 C 5.375 -2.359375 5.25 -2.71875 5.03125 -2.9375 C 4.828125 -3.15625 4.640625 -3.28125 4.109375 -3.5 C 4.828125 -3.671875 5.109375 -3.78125 5.4375 -4.0625 C 5.71875 -4.3125 5.859375 -4.640625 5.859375 -5.046875 C 5.859375 -5.984375 5.15625 -6.515625 3.875 -6.515625 L 1.296875 -6.515625 L 1.296875 -6.34375 C 1.90625 -6.296875 2.0625 -6.21875 2.0625 -5.9375 C 2.0625 -5.796875 2.03125 -5.546875 1.953125 -5.296875 L 0.734375 -0.890625 C 0.546875 -0.3125 0.484375 -0.265625 -0.078125 -0.15625 L -0.078125 0 Z M 2.375 -3.296875 C 3.015625 -3.296875 3.4375 -3.265625 3.640625 -3.1875 C 4.046875 -3.015625 4.296875 -2.578125 4.296875 -2.03125 C 4.296875 -0.953125 3.5625 -0.296875 2.34375 -0.296875 C 1.921875 -0.296875 1.703125 -0.453125 1.703125 -0.71875 C 1.703125 -0.84375 1.828125 -1.3125 2.046875 -2.109375 C 2.1875 -2.5625 2.25 -2.796875 2.375 -3.296875 Z M 3.125 -5.9375 C 3.1875 -6.15625 3.296875 -6.203125 3.6875 -6.203125 C 4.484375 -6.203125 4.859375 -5.875 4.859375 -5.140625 C 4.859375 -4.5625 4.609375 -4.125 4.1875 -3.890625 C 3.84375 -3.6875 3.375 -3.625 2.46875 -3.625 L 3.125 -5.9375 Z M 3.125 -5.9375 "
               id="path5696" />
          </symbol>
          <symbol
             overflow="visible"
             id="textext-eec9a28b-2">
            <path
               style="stroke:none;"
               d=""
               id="path5699" />
          </symbol>
          <symbol
             overflow="visible"
             id="textext-eec9a28b-3">
            <path
               style="stroke:none;"
               d="M 1.765625 -4.703125 C 1.390625 -4.703125 1.09375 -4.59375 0.84375 -4.34375 C 0.4375 -3.953125 0.171875 -3.15625 0.171875 -2.34375 C 0.171875 -1.578125 0.390625 -0.765625 0.71875 -0.375 C 0.984375 -0.0625 1.34375 0.09375 1.734375 0.09375 C 2.09375 0.09375 2.390625 -0.015625 2.640625 -0.265625 C 3.046875 -0.640625 3.3125 -1.453125 3.3125 -2.296875 C 3.3125 -3.734375 2.6875 -4.703125 1.765625 -4.703125 Z M 1.75 -4.53125 C 2.328125 -4.53125 2.640625 -3.75 2.640625 -2.28125 C 2.640625 -0.828125 2.34375 -0.078125 1.734375 -0.078125 C 1.140625 -0.078125 0.84375 -0.828125 0.84375 -2.28125 C 0.84375 -3.75 1.15625 -4.53125 1.75 -4.53125 Z M 1.75 -4.53125 "
               id="path5702" />
          </symbol>
        </g>
      </defs>
      <g
         id="textext-eec9a28b-4">
        <g
           style="fill:rgb(0%,0%,0%);fill-opacity:1;"
           id="g5705">
          <use
             xlink:href="#textext-eec9a28b-1"
             x="223.781"
             y="134.765"
             id="use5707" />
        </g>
        <g
           style="fill:rgb(0%,0%,0%);fill-opacity:1;"
           id="g5709">
          <use
             xlink:href="#textext-eec9a28b-3"
             x="229.768"
             y="136.259"
             id="use5711" />
        </g>
      </g>
    </g>
    <g
       id="g6023"
       transform="matrix(1.2,0,0,1.2,183.4157,416.20921)"
       ns0:preamble="/home/sriranga/Desktop/Projects/running-project/Prism-Modern-Control-Theory/package.tex"
       ns0:text="$A_{0}$">
      <defs
         id="defs6025">
        <g
           id="g6027">
          <symbol
             id="textext-fe42601d-0"
             overflow="visible">
            <path
               id="path6030"
               d=""
               style="stroke:none;" />
          </symbol>
          <symbol
             id="textext-fe42601d-1"
             overflow="visible">
            <path
               id="path6033"
               d="M 5.625 -0.15625 C 5.046875 -0.203125 5 -0.296875 4.859375 -1.015625 L 3.921875 -6.65625 L 3.671875 -6.65625 L 0.78125 -1.671875 C -0.015625 -0.34375 -0.109375 -0.234375 -0.515625 -0.15625 L -0.515625 0 L 1.359375 0 L 1.359375 -0.15625 C 0.84375 -0.203125 0.765625 -0.265625 0.765625 -0.515625 C 0.765625 -0.703125 0.796875 -0.78125 0.96875 -1.125 L 1.53125 -2.25 L 3.734375 -2.25 L 3.921875 -0.953125 C 3.9375 -0.859375 3.953125 -0.765625 3.953125 -0.6875 C 3.953125 -0.3125 3.8125 -0.21875 3.171875 -0.15625 L 3.171875 0 L 5.625 0 L 5.625 -0.15625 Z M 1.75 -2.609375 L 3.234375 -5.203125 L 3.671875 -2.609375 L 1.75 -2.609375 Z M 1.75 -2.609375 "
               style="stroke:none;" />
          </symbol>
          <symbol
             id="textext-fe42601d-2"
             overflow="visible">
            <path
               id="path6036"
               d=""
               style="stroke:none;" />
          </symbol>
          <symbol
             id="textext-fe42601d-3"
             overflow="visible">
            <path
               id="path6039"
               d="M 1.765625 -4.703125 C 1.390625 -4.703125 1.09375 -4.59375 0.84375 -4.34375 C 0.4375 -3.953125 0.171875 -3.15625 0.171875 -2.34375 C 0.171875 -1.578125 0.390625 -0.765625 0.71875 -0.375 C 0.984375 -0.0625 1.34375 0.09375 1.734375 0.09375 C 2.09375 0.09375 2.390625 -0.015625 2.640625 -0.265625 C 3.046875 -0.640625 3.3125 -1.453125 3.3125 -2.296875 C 3.3125 -3.734375 2.6875 -4.703125 1.765625 -4.703125 Z M 1.75 -4.53125 C 2.328125 -4.53125 2.640625 -3.75 2.640625 -2.28125 C 2.640625 -0.828125 2.34375 -0.078125 1.734375 -0.078125 C 1.140625 -0.078125 0.84375 -0.828125 0.84375 -2.28125 C 0.84375 -3.75 1.15625 -4.53125 1.75 -4.53125 Z M 1.75 -4.53125 "
               style="stroke:none;" />
          </symbol>
        </g>
      </defs>
      <g
         id="textext-fe42601d-4">
        <g
           id="g6042"
           style="fill:rgb(0%,0%,0%);fill-opacity:1;">
          <use
             id="use6044"
             y="134.765"
             x="223.681"
             xlink:href="#textext-fe42601d-1" />
        </g>
        <g
           id="g6046"
           style="fill:rgb(0%,0%,0%);fill-opacity:1;">
          <use
             id="use6048"
             y="136.259"
             x="229.768"
             xlink:href="#textext-fe42601d-3" />
        </g>
      </g>
    </g>
    <g
       ns0:text="$C_{2}$"
       ns0:preamble="/home/sriranga/Desktop/Projects/running-project/Prism-Modern-Control-Theory/package.tex"
       transform="matrix(1.2,0,0,1.2,-124.85715,466.20921)"
       id="g6408">
      <defs
         id="defs6410">
        <g
           id="g6412">
          <symbol
             overflow="visible"
             id="textext-a3aa008f-0">
            <path
               style="stroke:none;"
               d=""
               id="path6415" />
          </symbol>
          <symbol
             overflow="visible"
             id="textext-a3aa008f-1">
            <path
               style="stroke:none;"
               d="M 6.5 -4.640625 L 6.875 -6.625 L 6.65625 -6.625 C 6.578125 -6.453125 6.484375 -6.40625 6.28125 -6.40625 C 6.203125 -6.40625 6.078125 -6.421875 5.875 -6.46875 C 5.421875 -6.578125 5.03125 -6.640625 4.703125 -6.640625 C 2.578125 -6.640625 0.65625 -4.640625 0.65625 -2.421875 C 0.65625 -0.890625 1.734375 0.171875 3.265625 0.171875 C 4.28125 0.171875 5.078125 -0.265625 5.984375 -1.3125 L 5.8125 -1.453125 C 4.921875 -0.5625 4.34375 -0.265625 3.515625 -0.265625 C 2.40625 -0.265625 1.78125 -1.03125 1.78125 -2.3125 C 1.78125 -3.5 2.25 -4.703125 3.03125 -5.515625 C 3.515625 -6 4.140625 -6.28125 4.796875 -6.28125 C 5.71875 -6.28125 6.21875 -5.734375 6.3125 -4.671875 L 6.5 -4.640625 Z M 6.5 -4.640625 "
               id="path6418" />
          </symbol>
          <symbol
             overflow="visible"
             id="textext-a3aa008f-2">
            <path
               style="stroke:none;"
               d=""
               id="path6421" />
          </symbol>
          <symbol
             overflow="visible"
             id="textext-a3aa008f-3">
            <path
               style="stroke:none;"
               d="M 3.3125 -0.953125 L 3.21875 -0.984375 C 2.96875 -0.59375 2.875 -0.53125 2.5625 -0.53125 L 0.890625 -0.53125 L 2.0625 -1.75 C 2.6875 -2.40625 2.953125 -2.9375 2.953125 -3.484375 C 2.953125 -4.171875 2.390625 -4.703125 1.671875 -4.703125 C 1.28125 -4.703125 0.921875 -4.5625 0.65625 -4.28125 C 0.4375 -4.046875 0.328125 -3.8125 0.21875 -3.328125 L 0.359375 -3.296875 C 0.640625 -3.96875 0.890625 -4.1875 1.375 -4.1875 C 1.953125 -4.1875 2.359375 -3.796875 2.359375 -3.21875 C 2.359375 -2.671875 2.03125 -2.015625 1.453125 -1.40625 L 0.203125 -0.078125 L 0.203125 0 L 2.921875 0 L 3.3125 -0.953125 Z M 3.3125 -0.953125 "
               id="path6424" />
          </symbol>
        </g>
      </defs>
      <g
         id="textext-a3aa008f-4">
        <g
           style="fill:rgb(0%,0%,0%);fill-opacity:1;"
           id="g6427">
          <use
             xlink:href="#textext-a3aa008f-1"
             x="223.183"
             y="134.765"
             id="use6429" />
        </g>
        <g
           style="fill:rgb(0%,0%,0%);fill-opacity:1;"
           id="g6431">
          <use
             xlink:href="#textext-a3aa008f-3"
             x="230.077"
             y="136.259"
             id="use6433" />
        </g>
      </g>
    </g>
    <g
       id="g6825"
       transform="matrix(1.2,0,0,1.2,-16.85715,466.20921)"
       ns0:preamble="/home/sriranga/Desktop/Projects/running-project/Prism-Modern-Control-Theory/package.tex"
       ns0:text="$C_{1}$">
      <defs
         id="defs6827">
        <g
           id="g6829">
          <symbol
             id="textext-f56066ea-0"
             overflow="visible">
            <path
               id="path6832"
               d=""
               style="stroke:none;" />
          </symbol>
          <symbol
             id="textext-f56066ea-1"
             overflow="visible">
            <path
               id="path6835"
               d="M 6.5 -4.640625 L 6.875 -6.625 L 6.65625 -6.625 C 6.578125 -6.453125 6.484375 -6.40625 6.28125 -6.40625 C 6.203125 -6.40625 6.078125 -6.421875 5.875 -6.46875 C 5.421875 -6.578125 5.03125 -6.640625 4.703125 -6.640625 C 2.578125 -6.640625 0.65625 -4.640625 0.65625 -2.421875 C 0.65625 -0.890625 1.734375 0.171875 3.265625 0.171875 C 4.28125 0.171875 5.078125 -0.265625 5.984375 -1.3125 L 5.8125 -1.453125 C 4.921875 -0.5625 4.34375 -0.265625 3.515625 -0.265625 C 2.40625 -0.265625 1.78125 -1.03125 1.78125 -2.3125 C 1.78125 -3.5 2.25 -4.703125 3.03125 -5.515625 C 3.515625 -6 4.140625 -6.28125 4.796875 -6.28125 C 5.71875 -6.28125 6.21875 -5.734375 6.3125 -4.671875 L 6.5 -4.640625 Z M 6.5 -4.640625 "
               style="stroke:none;" />
          </symbol>
          <symbol
             id="textext-f56066ea-2"
             overflow="visible">
            <path
               id="path6838"
               d=""
               style="stroke:none;" />
          </symbol>
          <symbol
             id="textext-f56066ea-3"
             overflow="visible">
            <path
               id="path6841"
               d="M 2.03125 -4.703125 L 0.78125 -4.078125 L 0.78125 -3.984375 C 0.859375 -4.015625 0.9375 -4.046875 0.96875 -4.0625 C 1.09375 -4.109375 1.203125 -4.125 1.28125 -4.125 C 1.421875 -4.125 1.484375 -4.03125 1.484375 -3.8125 L 1.484375 -0.640625 C 1.484375 -0.421875 1.421875 -0.265625 1.3125 -0.1875 C 1.21875 -0.125 1.109375 -0.109375 0.828125 -0.109375 L 0.828125 0 L 2.75 0 L 2.75 -0.109375 C 2.1875 -0.109375 2.078125 -0.1875 2.078125 -0.515625 L 2.078125 -4.703125 L 2.03125 -4.703125 Z M 2.03125 -4.703125 "
               style="stroke:none;" />
          </symbol>
        </g>
      </defs>
      <g
         id="textext-f56066ea-4">
        <g
           id="g6844"
           style="fill:rgb(0%,0%,0%);fill-opacity:1;">
          <use
             id="use6846"
             y="134.765"
             x="223.183"
             xlink:href="#textext-f56066ea-1" />
        </g>
        <g
           id="g6848"
           style="fill:rgb(0%,0%,0%);fill-opacity:1;">
          <use
             id="use6850"
             y="136.259"
             x="230.077"
             xlink:href="#textext-f56066ea-3" />
        </g>
      </g>
    </g>
    <g
       ns0:text="$C_{0}$"
       ns0:preamble="/home/sriranga/Desktop/Projects/running-project/Prism-Modern-Control-Theory/package.tex"
       transform="matrix(1.2,0,0,1.2,87.14285,466.20921)"
       id="g7274">
      <defs
         id="defs7276">
        <g
           id="g7278">
          <symbol
             overflow="visible"
             id="textext-ae6c8b4c-0">
            <path
               style="stroke:none;"
               d=""
               id="path7281" />
          </symbol>
          <symbol
             overflow="visible"
             id="textext-ae6c8b4c-1">
            <path
               style="stroke:none;"
               d="M 6.5 -4.640625 L 6.875 -6.625 L 6.65625 -6.625 C 6.578125 -6.453125 6.484375 -6.40625 6.28125 -6.40625 C 6.203125 -6.40625 6.078125 -6.421875 5.875 -6.46875 C 5.421875 -6.578125 5.03125 -6.640625 4.703125 -6.640625 C 2.578125 -6.640625 0.65625 -4.640625 0.65625 -2.421875 C 0.65625 -0.890625 1.734375 0.171875 3.265625 0.171875 C 4.28125 0.171875 5.078125 -0.265625 5.984375 -1.3125 L 5.8125 -1.453125 C 4.921875 -0.5625 4.34375 -0.265625 3.515625 -0.265625 C 2.40625 -0.265625 1.78125 -1.03125 1.78125 -2.3125 C 1.78125 -3.5 2.25 -4.703125 3.03125 -5.515625 C 3.515625 -6 4.140625 -6.28125 4.796875 -6.28125 C 5.71875 -6.28125 6.21875 -5.734375 6.3125 -4.671875 L 6.5 -4.640625 Z M 6.5 -4.640625 "
               id="path7284" />
          </symbol>
          <symbol
             overflow="visible"
             id="textext-ae6c8b4c-2">
            <path
               style="stroke:none;"
               d=""
               id="path7287" />
          </symbol>
          <symbol
             overflow="visible"
             id="textext-ae6c8b4c-3">
            <path
               style="stroke:none;"
               d="M 1.765625 -4.703125 C 1.390625 -4.703125 1.09375 -4.59375 0.84375 -4.34375 C 0.4375 -3.953125 0.171875 -3.15625 0.171875 -2.34375 C 0.171875 -1.578125 0.390625 -0.765625 0.71875 -0.375 C 0.984375 -0.0625 1.34375 0.09375 1.734375 0.09375 C 2.09375 0.09375 2.390625 -0.015625 2.640625 -0.265625 C 3.046875 -0.640625 3.3125 -1.453125 3.3125 -2.296875 C 3.3125 -3.734375 2.6875 -4.703125 1.765625 -4.703125 Z M 1.75 -4.53125 C 2.328125 -4.53125 2.640625 -3.75 2.640625 -2.28125 C 2.640625 -0.828125 2.34375 -0.078125 1.734375 -0.078125 C 1.140625 -0.078125 0.84375 -0.828125 0.84375 -2.28125 C 0.84375 -3.75 1.15625 -4.53125 1.75 -4.53125 Z M 1.75 -4.53125 "
               id="path7290" />
          </symbol>
        </g>
      </defs>
      <g
         id="textext-ae6c8b4c-4">
        <g
           style="fill:rgb(0%,0%,0%);fill-opacity:1;"
           id="g7293">
          <use
             xlink:href="#textext-ae6c8b4c-1"
             x="223.183"
             y="134.765"
             id="use7295" />
        </g>
        <g
           style="fill:rgb(0%,0%,0%);fill-opacity:1;"
           id="g7297">
          <use
             xlink:href="#textext-ae6c8b4c-3"
             x="230.077"
             y="136.259"
             id="use7299" />
        </g>
      </g>
    </g>
    <g
       id="g7755"
       transform="matrix(1.2,0,0,1.2,-242.4739,548.94381)"
       ns0:preamble="/home/sriranga/Desktop/Projects/running-project/Prism-Modern-Control-Theory/package.tex"
       ns0:text="$S_{4}=C_{3}$">
      <defs
         id="defs7757">
        <g
           id="g7759">
          <symbol
             id="textext-294349f5-0"
             overflow="visible"
             style="overflow:visible">
            <path
               id="path7762"
               d=""
               style="stroke:none" />
          </symbol>
          <symbol
             id="textext-294349f5-1"
             overflow="visible"
             style="overflow:visible">
            <path
               id="path7765"
               d="M 4.671875,-4.671875 5.0625,-6.65625 l -0.234375,0 c -0.140625,0.21875 -0.21875,0.265625 -0.4375,0.265625 -0.125,0 -0.234375,-0.03125 -0.46875,-0.109375 -0.21875,-0.09375 -0.53125,-0.140625 -0.84375,-0.140625 -1.03125,0 -1.765625,0.6875 -1.765625,1.671875 0,0.53125 0.140625,0.828125 0.734375,1.453125 0.09375,0.09375 0.21875,0.234375 0.390625,0.421875 0.1875,0.1875 0.328125,0.34375 0.390625,0.421875 0.46875,0.484375 0.59375,0.75 0.59375,1.171875 0,0.75 -0.546875,1.328125 -1.28125,1.328125 -0.828125,0 -1.453125,-0.703125 -1.453125,-1.65625 0,-0.078125 0.015625,-0.15625 0.015625,-0.21875 l -0.1875,-0.03125 -0.34375,2.234375 0.171875,0 c 0.078125,-0.234375 0.1875,-0.328125 0.390625,-0.328125 0.109375,0 0.25,0.03125 0.515625,0.125 0.453125,0.171875 0.71875,0.21875 1.03125,0.21875 1.140625,0 2.015625,-0.859375 2.015625,-1.984375 0,-0.65625 -0.234375,-1.03125 -1.125,-1.953125 C 2.265625,-4.671875 2.1875,-4.8125 2.1875,-5.296875 c 0,-0.625 0.421875,-1.015625 1.09375,-1.015625 0.375,0 0.671875,0.125 0.890625,0.375 0.21875,0.25 0.296875,0.578125 0.3125,1.25 l 0.1875,0.015625 z m 0,0"
               style="stroke:none" />
          </symbol>
          <symbol
             id="textext-294349f5-2"
             overflow="visible"
             style="overflow:visible">
            <path
               id="path7768"
               d="M 6.5,-4.640625 6.875,-6.625 l -0.21875,0 c -0.078125,0.171875 -0.171875,0.21875 -0.375,0.21875 -0.078125,0 -0.203125,-0.015625 -0.40625,-0.0625 -0.453125,-0.109375 -0.84375,-0.171875 -1.171875,-0.171875 -2.125,0 -4.046875,2 -4.046875,4.21875 0,1.53125 1.078125,2.59375 2.609375,2.59375 1.015625,0 1.8125,-0.4375 2.71875,-1.484375 L 5.8125,-1.453125 c -0.890625,0.890625 -1.46875,1.1875 -2.296875,1.1875 -1.109375,0 -1.734375,-0.765625 -1.734375,-2.046875 0,-1.1875 0.46875,-2.390625 1.25,-3.203125 C 3.515625,-6 4.140625,-6.28125 4.796875,-6.28125 c 0.921875,0 1.421875,0.546875 1.515625,1.609375 L 6.5,-4.640625 z m 0,0"
               style="stroke:none" />
          </symbol>
          <symbol
             id="textext-294349f5-3"
             overflow="visible"
             style="overflow:visible">
            <path
               id="path7771"
               d=""
               style="stroke:none" />
          </symbol>
          <symbol
             id="textext-294349f5-4"
             overflow="visible"
             style="overflow:visible">
            <path
               id="path7774"
               d="m 3.296875,-1.609375 -0.71875,0 0,-3.09375 -0.3125,0 -2.1875,3.09375 0,0.453125 1.96875,0 0,1.15625 0.53125,0 0,-1.15625 0.71875,0 0,-0.453125 z m -1.265625,0 -1.671875,0 L 2.03125,-4 l 0,2.390625 z m 0,0"
               style="stroke:none" />
          </symbol>
          <symbol
             id="textext-294349f5-5"
             overflow="visible"
             style="overflow:visible">
            <path
               id="path7777"
               d="m 1.0625,-2.296875 c 0.421875,0 0.578125,0.015625 0.75,0.078125 0.421875,0.15625 0.703125,0.546875 0.703125,1.03125 0,0.578125 -0.40625,1.03125 -0.921875,1.03125 -0.1875,0 -0.328125,-0.046875 -0.578125,-0.21875 C 0.796875,-0.5 0.6875,-0.546875 0.5625,-0.546875 c -0.15625,0 -0.265625,0.09375 -0.265625,0.25 0,0.234375 0.296875,0.390625 0.796875,0.390625 0.53125,0 1.078125,-0.171875 1.40625,-0.46875 0.328125,-0.28125 0.515625,-0.6875 0.515625,-1.15625 0,-0.34375 -0.109375,-0.671875 -0.3125,-0.890625 C 2.5625,-2.578125 2.421875,-2.65625 2.125,-2.796875 2.59375,-3.125 2.78125,-3.375 2.78125,-3.75 c 0,-0.578125 -0.453125,-0.953125 -1.09375,-0.953125 -0.34375,0 -0.65625,0.109375 -0.90625,0.328125 C 0.578125,-4.1875 0.46875,-4 0.3125,-3.578125 l 0.109375,0.03125 c 0.28125,-0.515625 0.59375,-0.75 1.03125,-0.75 0.453125,0 0.765625,0.3125 0.765625,0.75 0,0.25 -0.09375,0.5 -0.28125,0.671875 -0.203125,0.21875 -0.390625,0.3125 -0.875,0.484375 l 0,0.09375 z m 0,0"
               style="stroke:none" />
          </symbol>
          <symbol
             id="textext-294349f5-6"
             overflow="visible"
             style="overflow:visible">
            <path
               id="path7780"
               d=""
               style="stroke:none" />
          </symbol>
          <symbol
             id="textext-294349f5-7"
             overflow="visible"
             style="overflow:visible">
            <path
               id="path7783"
               d="m 5.71875,-3.296875 0,-0.546875 -5.09375,0 0,0.546875 5.09375,0 z m 0,2.03125 0,-0.5625 -5.09375,0 0,0.5625 5.09375,0 z m 0,0"
               style="stroke:none" />
          </symbol>
        </g>
      </defs>
      <g
         id="textext-294349f5-8">
        <g
           id="g7786"
           style="fill:#000000;fill-opacity:1">
          <use
             id="use7788"
             y="134.765"
             x="223.43201"
             xlink:href="#textext-294349f5-1"
             width="531.49603"
             height="602.36218" />
        </g>
        <g
           id="g7790"
           style="fill:#000000;fill-opacity:1">
          <use
             id="use7792"
             y="136.259"
             x="229.908"
             xlink:href="#textext-294349f5-4"
             width="531.49603"
             height="602.36218" />
        </g>
        <g
           id="g7794"
           style="fill:#000000;fill-opacity:1">
          <use
             id="use7796"
             y="134.765"
             x="236.66"
             xlink:href="#textext-294349f5-7"
             width="531.49603"
             height="602.36218" />
        </g>
        <g
           id="g7798"
           style="fill:#000000;fill-opacity:1">
          <use
             id="use7800"
             y="134.765"
             x="245.515"
             xlink:href="#textext-294349f5-2"
             width="531.49603"
             height="602.36218" />
        </g>
        <g
           id="g7802"
           style="fill:#000000;fill-opacity:1">
          <use
             id="use7804"
             y="136.259"
             x="252.409"
             xlink:href="#textext-294349f5-5"
             width="531.49603"
             height="602.36218" />
        </g>
      </g>
    </g>
    <g
       ns0:text="$S_{3}$"
       ns0:preamble="/home/sriranga/Desktop/Projects/running-project/Prism-Modern-Control-Theory/package.tex"
       transform="matrix(1.2,0,0,1.2,-183.96882,548.94381)"
       id="g8348">
      <defs
         id="defs8350">
        <g
           id="g8352">
          <symbol
             style="overflow:visible"
             overflow="visible"
             id="textext-22bc17b3-0">
            <path
               style="stroke:none"
               d=""
               id="path8355" />
          </symbol>
          <symbol
             style="overflow:visible"
             overflow="visible"
             id="textext-22bc17b3-1">
            <path
               style="stroke:none"
               d="M 4.671875,-4.671875 5.0625,-6.65625 l -0.234375,0 c -0.140625,0.21875 -0.21875,0.265625 -0.4375,0.265625 -0.125,0 -0.234375,-0.03125 -0.46875,-0.109375 -0.21875,-0.09375 -0.53125,-0.140625 -0.84375,-0.140625 -1.03125,0 -1.765625,0.6875 -1.765625,1.671875 0,0.53125 0.140625,0.828125 0.734375,1.453125 0.09375,0.09375 0.21875,0.234375 0.390625,0.421875 0.1875,0.1875 0.328125,0.34375 0.390625,0.421875 0.46875,0.484375 0.59375,0.75 0.59375,1.171875 0,0.75 -0.546875,1.328125 -1.28125,1.328125 -0.828125,0 -1.453125,-0.703125 -1.453125,-1.65625 0,-0.078125 0.015625,-0.15625 0.015625,-0.21875 l -0.1875,-0.03125 -0.34375,2.234375 0.171875,0 c 0.078125,-0.234375 0.1875,-0.328125 0.390625,-0.328125 0.109375,0 0.25,0.03125 0.515625,0.125 0.453125,0.171875 0.71875,0.21875 1.03125,0.21875 1.140625,0 2.015625,-0.859375 2.015625,-1.984375 0,-0.65625 -0.234375,-1.03125 -1.125,-1.953125 C 2.265625,-4.671875 2.1875,-4.8125 2.1875,-5.296875 c 0,-0.625 0.421875,-1.015625 1.09375,-1.015625 0.375,0 0.671875,0.125 0.890625,0.375 0.21875,0.25 0.296875,0.578125 0.3125,1.25 l 0.1875,0.015625 z m 0,0"
               id="path8358" />
          </symbol>
          <symbol
             style="overflow:visible"
             overflow="visible"
             id="textext-22bc17b3-2">
            <path
               style="stroke:none"
               d=""
               id="path8361" />
          </symbol>
          <symbol
             style="overflow:visible"
             overflow="visible"
             id="textext-22bc17b3-3">
            <path
               style="stroke:none"
               d="m 1.0625,-2.296875 c 0.421875,0 0.578125,0.015625 0.75,0.078125 0.421875,0.15625 0.703125,0.546875 0.703125,1.03125 0,0.578125 -0.40625,1.03125 -0.921875,1.03125 -0.1875,0 -0.328125,-0.046875 -0.578125,-0.21875 C 0.796875,-0.5 0.6875,-0.546875 0.5625,-0.546875 c -0.15625,0 -0.265625,0.09375 -0.265625,0.25 0,0.234375 0.296875,0.390625 0.796875,0.390625 0.53125,0 1.078125,-0.171875 1.40625,-0.46875 0.328125,-0.28125 0.515625,-0.6875 0.515625,-1.15625 0,-0.34375 -0.109375,-0.671875 -0.3125,-0.890625 C 2.5625,-2.578125 2.421875,-2.65625 2.125,-2.796875 2.59375,-3.125 2.78125,-3.375 2.78125,-3.75 c 0,-0.578125 -0.453125,-0.953125 -1.09375,-0.953125 -0.34375,0 -0.65625,0.109375 -0.90625,0.328125 C 0.578125,-4.1875 0.46875,-4 0.3125,-3.578125 l 0.109375,0.03125 c 0.28125,-0.515625 0.59375,-0.75 1.03125,-0.75 0.453125,0 0.765625,0.3125 0.765625,0.75 0,0.25 -0.09375,0.5 -0.28125,0.671875 -0.203125,0.21875 -0.390625,0.3125 -0.875,0.484375 l 0,0.09375 z m 0,0"
               id="path8364" />
          </symbol>
        </g>
      </defs>
      <g
         id="textext-22bc17b3-4">
        <g
           style="fill:#000000;fill-opacity:1"
           id="g8367">
          <use
             height="602.36218"
             width="531.49603"
             xlink:href="#textext-22bc17b3-1"
             x="223.43201"
             y="134.765"
             id="use8369" />
        </g>
        <g
           style="fill:#000000;fill-opacity:1"
           id="g8371">
          <use
             height="602.36218"
             width="531.49603"
             xlink:href="#textext-22bc17b3-3"
             x="229.908"
             y="136.259"
             id="use8373" />
        </g>
      </g>
    </g>
    <g
       id="g8921"
       transform="matrix(1.2,0,0,1.2,-74.473896,548.94381)"
       ns0:preamble="/home/sriranga/Desktop/Projects/running-project/Prism-Modern-Control-Theory/package.tex"
       ns0:text="$S_{2}$">
      <defs
         id="defs8923">
        <g
           id="g8925">
          <symbol
             id="textext-d11a5441-0"
             overflow="visible"
             style="overflow:visible">
            <path
               id="path8928"
               d=""
               style="stroke:none" />
          </symbol>
          <symbol
             id="textext-d11a5441-1"
             overflow="visible"
             style="overflow:visible">
            <path
               id="path8931"
               d="M 4.671875,-4.671875 5.0625,-6.65625 l -0.234375,0 c -0.140625,0.21875 -0.21875,0.265625 -0.4375,0.265625 -0.125,0 -0.234375,-0.03125 -0.46875,-0.109375 -0.21875,-0.09375 -0.53125,-0.140625 -0.84375,-0.140625 -1.03125,0 -1.765625,0.6875 -1.765625,1.671875 0,0.53125 0.140625,0.828125 0.734375,1.453125 0.09375,0.09375 0.21875,0.234375 0.390625,0.421875 0.1875,0.1875 0.328125,0.34375 0.390625,0.421875 0.46875,0.484375 0.59375,0.75 0.59375,1.171875 0,0.75 -0.546875,1.328125 -1.28125,1.328125 -0.828125,0 -1.453125,-0.703125 -1.453125,-1.65625 0,-0.078125 0.015625,-0.15625 0.015625,-0.21875 l -0.1875,-0.03125 -0.34375,2.234375 0.171875,0 c 0.078125,-0.234375 0.1875,-0.328125 0.390625,-0.328125 0.109375,0 0.25,0.03125 0.515625,0.125 0.453125,0.171875 0.71875,0.21875 1.03125,0.21875 1.140625,0 2.015625,-0.859375 2.015625,-1.984375 0,-0.65625 -0.234375,-1.03125 -1.125,-1.953125 C 2.265625,-4.671875 2.1875,-4.8125 2.1875,-5.296875 c 0,-0.625 0.421875,-1.015625 1.09375,-1.015625 0.375,0 0.671875,0.125 0.890625,0.375 0.21875,0.25 0.296875,0.578125 0.3125,1.25 l 0.1875,0.015625 z m 0,0"
               style="stroke:none" />
          </symbol>
          <symbol
             id="textext-d11a5441-2"
             overflow="visible"
             style="overflow:visible">
            <path
               id="path8934"
               d=""
               style="stroke:none" />
          </symbol>
          <symbol
             id="textext-d11a5441-3"
             overflow="visible"
             style="overflow:visible">
            <path
               id="path8937"
               d="M 3.3125,-0.953125 3.21875,-0.984375 C 2.96875,-0.59375 2.875,-0.53125 2.5625,-0.53125 l -1.671875,0 L 2.0625,-1.75 c 0.625,-0.65625 0.890625,-1.1875 0.890625,-1.734375 0,-0.6875 -0.5625,-1.21875 -1.28125,-1.21875 -0.390625,0 -0.75,0.140625 -1.015625,0.421875 -0.21875,0.234375 -0.328125,0.46875 -0.4375,0.953125 l 0.140625,0.03125 C 0.640625,-3.96875 0.890625,-4.1875 1.375,-4.1875 c 0.578125,0 0.984375,0.390625 0.984375,0.96875 0,0.546875 -0.328125,1.203125 -0.90625,1.8125 l -1.25,1.328125 0,0.078125 2.71875,0 0.390625,-0.953125 z m 0,0"
               style="stroke:none" />
          </symbol>
        </g>
      </defs>
      <g
         id="textext-d11a5441-4">
        <g
           id="g8940"
           style="fill:#000000;fill-opacity:1">
          <use
             id="use8942"
             y="134.765"
             x="223.43201"
             xlink:href="#textext-d11a5441-1"
             width="531.49603"
             height="602.36218" />
        </g>
        <g
           id="g8944"
           style="fill:#000000;fill-opacity:1">
          <use
             id="use8946"
             y="136.259"
             x="229.908"
             xlink:href="#textext-d11a5441-3"
             width="531.49603"
             height="602.36218" />
        </g>
      </g>
    </g>
    <g
       ns0:text="$S_{1}$"
       ns0:preamble="/home/sriranga/Desktop/Projects/running-project/Prism-Modern-Control-Theory/package.tex"
       transform="matrix(1.2,0,0,1.2,34.03118,548.94381)"
       id="g9526">
      <defs
         id="defs9528">
        <g
           id="g9530">
          <symbol
             overflow="visible"
             id="textext-75d1d84e-0"
             style="overflow:visible">
            <path
               style="stroke:none"
               d=""
               id="path9533" />
          </symbol>
          <symbol
             overflow="visible"
             id="textext-75d1d84e-1"
             style="overflow:visible">
            <path
               style="stroke:none"
               d="M 4.671875,-4.671875 5.0625,-6.65625 l -0.234375,0 c -0.140625,0.21875 -0.21875,0.265625 -0.4375,0.265625 -0.125,0 -0.234375,-0.03125 -0.46875,-0.109375 -0.21875,-0.09375 -0.53125,-0.140625 -0.84375,-0.140625 -1.03125,0 -1.765625,0.6875 -1.765625,1.671875 0,0.53125 0.140625,0.828125 0.734375,1.453125 0.09375,0.09375 0.21875,0.234375 0.390625,0.421875 0.1875,0.1875 0.328125,0.34375 0.390625,0.421875 0.46875,0.484375 0.59375,0.75 0.59375,1.171875 0,0.75 -0.546875,1.328125 -1.28125,1.328125 -0.828125,0 -1.453125,-0.703125 -1.453125,-1.65625 0,-0.078125 0.015625,-0.15625 0.015625,-0.21875 l -0.1875,-0.03125 -0.34375,2.234375 0.171875,0 c 0.078125,-0.234375 0.1875,-0.328125 0.390625,-0.328125 0.109375,0 0.25,0.03125 0.515625,0.125 0.453125,0.171875 0.71875,0.21875 1.03125,0.21875 1.140625,0 2.015625,-0.859375 2.015625,-1.984375 0,-0.65625 -0.234375,-1.03125 -1.125,-1.953125 C 2.265625,-4.671875 2.1875,-4.8125 2.1875,-5.296875 c 0,-0.625 0.421875,-1.015625 1.09375,-1.015625 0.375,0 0.671875,0.125 0.890625,0.375 0.21875,0.25 0.296875,0.578125 0.3125,1.25 l 0.1875,0.015625 z m 0,0"
               id="path9536" />
          </symbol>
          <symbol
             overflow="visible"
             id="textext-75d1d84e-2"
             style="overflow:visible">
            <path
               style="stroke:none"
               d=""
               id="path9539" />
          </symbol>
          <symbol
             overflow="visible"
             id="textext-75d1d84e-3"
             style="overflow:visible">
            <path
               style="stroke:none"
               d="m 2.03125,-4.703125 -1.25,0.625 0,0.09375 c 0.078125,-0.03125 0.15625,-0.0625 0.1875,-0.078125 0.125,-0.046875 0.234375,-0.0625 0.3125,-0.0625 0.140625,0 0.203125,0.09375 0.203125,0.3125 l 0,3.171875 c 0,0.21875 -0.0625,0.375 -0.171875,0.453125 -0.09375,0.0625 -0.203125,0.078125 -0.484375,0.078125 L 0.828125,0 2.75,0 l 0,-0.109375 c -0.5625,0 -0.671875,-0.078125 -0.671875,-0.40625 l 0,-4.1875 -0.046875,0 z m 0,0"
               id="path9542" />
          </symbol>
        </g>
      </defs>
      <g
         id="textext-75d1d84e-4">
        <g
           style="fill:#000000;fill-opacity:1"
           id="g9545">
          <use
             xlink:href="#textext-75d1d84e-1"
             x="223.43201"
             y="134.765"
             id="use9547"
             width="531.49603"
             height="602.36218" />
        </g>
        <g
           style="fill:#000000;fill-opacity:1"
           id="g9549">
          <use
             xlink:href="#textext-75d1d84e-3"
             x="229.908"
             y="136.259"
             id="use9551"
             width="531.49603"
             height="602.36218" />
        </g>
      </g>
    </g>
    <g
       id="g10163"
       transform="matrix(1.2,0,0,1.2,143.04134,548.94381)"
       ns0:preamble="/home/sriranga/Desktop/Projects/running-project/Prism-Modern-Control-Theory/package.tex"
       ns0:text="$S_{0}$">
      <defs
         id="defs10165">
        <g
           id="g10167">
          <symbol
             id="textext-9d7d719c-0"
             overflow="visible"
             style="overflow:visible">
            <path
               id="path10170"
               d=""
               style="stroke:none" />
          </symbol>
          <symbol
             id="textext-9d7d719c-1"
             overflow="visible"
             style="overflow:visible">
            <path
               id="path10173"
               d="M 4.671875,-4.671875 5.0625,-6.65625 l -0.234375,0 c -0.140625,0.21875 -0.21875,0.265625 -0.4375,0.265625 -0.125,0 -0.234375,-0.03125 -0.46875,-0.109375 -0.21875,-0.09375 -0.53125,-0.140625 -0.84375,-0.140625 -1.03125,0 -1.765625,0.6875 -1.765625,1.671875 0,0.53125 0.140625,0.828125 0.734375,1.453125 0.09375,0.09375 0.21875,0.234375 0.390625,0.421875 0.1875,0.1875 0.328125,0.34375 0.390625,0.421875 0.46875,0.484375 0.59375,0.75 0.59375,1.171875 0,0.75 -0.546875,1.328125 -1.28125,1.328125 -0.828125,0 -1.453125,-0.703125 -1.453125,-1.65625 0,-0.078125 0.015625,-0.15625 0.015625,-0.21875 l -0.1875,-0.03125 -0.34375,2.234375 0.171875,0 c 0.078125,-0.234375 0.1875,-0.328125 0.390625,-0.328125 0.109375,0 0.25,0.03125 0.515625,0.125 0.453125,0.171875 0.71875,0.21875 1.03125,0.21875 1.140625,0 2.015625,-0.859375 2.015625,-1.984375 0,-0.65625 -0.234375,-1.03125 -1.125,-1.953125 C 2.265625,-4.671875 2.1875,-4.8125 2.1875,-5.296875 c 0,-0.625 0.421875,-1.015625 1.09375,-1.015625 0.375,0 0.671875,0.125 0.890625,0.375 0.21875,0.25 0.296875,0.578125 0.3125,1.25 l 0.1875,0.015625 z m 0,0"
               style="stroke:none" />
          </symbol>
          <symbol
             id="textext-9d7d719c-2"
             overflow="visible"
             style="overflow:visible">
            <path
               id="path10176"
               d=""
               style="stroke:none" />
          </symbol>
          <symbol
             id="textext-9d7d719c-3"
             overflow="visible"
             style="overflow:visible">
            <path
               id="path10179"
               d="m 1.765625,-4.703125 c -0.375,0 -0.671875,0.109375 -0.921875,0.359375 -0.40625,0.390625 -0.671875,1.1875 -0.671875,2 0,0.765625 0.21875,1.578125 0.546875,1.96875 0.265625,0.3125 0.625,0.46875 1.015625,0.46875 0.359375,0 0.65625,-0.109375 0.90625,-0.359375 0.40625,-0.375 0.671875,-1.1875 0.671875,-2.03125 0,-1.4375 -0.625,-2.40625 -1.546875,-2.40625 z M 1.75,-4.53125 c 0.578125,0 0.890625,0.78125 0.890625,2.25 0,1.453125 -0.296875,2.203125 -0.90625,2.203125 -0.59375,0 -0.890625,-0.75 -0.890625,-2.203125 0,-1.46875 0.3125,-2.25 0.90625,-2.25 z m 0,0"
               style="stroke:none" />
          </symbol>
        </g>
      </defs>
      <g
         id="textext-9d7d719c-4">
        <g
           id="g10182"
           style="fill:#000000;fill-opacity:1">
          <use
             id="use10184"
             y="134.765"
             x="223.43201"
             xlink:href="#textext-9d7d719c-1"
             width="531.49603"
             height="602.36218" />
        </g>
        <g
           id="g10186"
           style="fill:#000000;fill-opacity:1">
          <use
             id="use10188"
             y="136.259"
             x="229.908"
             xlink:href="#textext-9d7d719c-3"
             width="531.49603"
             height="602.36218" />
        </g>
      </g>
    </g>
  </g>
</svg>
