<?xml version="1.0" encoding="UTF-8" standalone="no"?>
<!-- Created with Inkscape (http://www.inkscape.org/) -->

<svg
   xmlns:ns0="http://www.iki.fi/pav/software/textext/"
   xmlns:dc="http://purl.org/dc/elements/1.1/"
   xmlns:cc="http://creativecommons.org/ns#"
   xmlns:rdf="http://www.w3.org/1999/02/22-rdf-syntax-ns#"
   xmlns:svg="http://www.w3.org/2000/svg"
   xmlns="http://www.w3.org/2000/svg"
   xmlns:xlink="http://www.w3.org/1999/xlink"
   xmlns:sodipodi="http://sodipodi.sourceforge.net/DTD/sodipodi-0.dtd"
   xmlns:inkscape="http://www.inkscape.org/namespaces/inkscape"
   width="744.09448819"
   height="1052.3622047"
   id="svg2"
   version="1.1"
   inkscape:version="0.47 r22583"
   sodipodi:docname="fig13.svg">
  <sodipodi:namedview
     id="base"
     pagecolor="#ffffff"
     bordercolor="#666666"
     borderopacity="1.0"
     inkscape:pageopacity="0.0"
     inkscape:pageshadow="2"
     inkscape:zoom="2.8"
     inkscape:cx="210.3391"
     inkscape:cy="854.96444"
     inkscape:document-units="px"
     inkscape:current-layer="layer1"
     showgrid="false"
     inkscape:window-width="1024"
     inkscape:window-height="689"
     inkscape:window-x="0"
     inkscape:window-y="27"
     inkscape:window-maximized="1" />
  <defs
     id="defs4">
    <marker
       inkscape:stockid="Arrow1Mstart"
       orient="auto"
       refY="0.0"
       refX="0.0"
       id="Arrow1Mstart"
       style="overflow:visible">
      <path
         id="path3613"
         d="M 0.0,0.0 L 5.0,-5.0 L -12.5,0.0 L 5.0,5.0 L 0.0,0.0 z "
         style="fill-rule:evenodd;stroke:#000000;stroke-width:1.0pt;marker-start:none"
         transform="scale(0.4) translate(10,0)" />
    </marker>
    <inkscape:perspective
       sodipodi:type="inkscape:persp3d"
       inkscape:vp_x="0 : 526.18109 : 1"
       inkscape:vp_y="0 : 1000 : 0"
       inkscape:vp_z="744.09448 : 526.18109 : 1"
       inkscape:persp3d-origin="372.04724 : 350.78739 : 1"
       id="perspective10" />
  </defs>
  <metadata
     id="metadata7">
    <rdf:RDF>
      <cc:Work
         rdf:about="">
        <dc:format>image/svg+xml</dc:format>
        <dc:type
           rdf:resource="http://purl.org/dc/dcmitype/StillImage" />
        <dc:title />
      </cc:Work>
    </rdf:RDF>
  </metadata>
  <g
     inkscape:label="Layer 1"
     inkscape:groupmode="layer"
     id="layer1">
    <text
       xml:space="preserve"
       style="font-size:12px;font-style:normal;font-variant:normal;font-weight:normal;font-stretch:normal;line-height:125%;letter-spacing:0px;word-spacing:0px;fill:#000000;fill-opacity:1;stroke:none;font-family:LMRoman12;-inkscape-font-specification:LMRoman12"
       x="140"
       y="186.6479"
       id="text2816"
       sodipodi:linespacing="125%"><tspan
         sodipodi:role="line"
         id="tspan2818"
         x="140"
         y="186.6479">101</tspan><tspan
         sodipodi:role="line"
         x="140"
         y="201.6479"
         id="tspan2820"
         dx="0 0 -1.7857141">  5</tspan></text>
    <text
       sodipodi:linespacing="125%"
       id="text2822"
       y="186.6479"
       x="186"
       style="font-size:12px;font-style:normal;font-variant:normal;font-weight:normal;font-stretch:normal;line-height:125%;letter-spacing:0px;word-spacing:0px;fill:#000000;fill-opacity:1;stroke:none;font-family:LMRoman12;-inkscape-font-specification:LMRoman12"
       xml:space="preserve"><tspan
         y="186.6479"
         x="186"
         id="tspan2824"
         sodipodi:role="line">111</tspan><tspan
         dx="0 0 -1.4285713"
         id="tspan2826"
         y="201.6479"
         x="186"
         sodipodi:role="line">  7</tspan></text>
    <path
       style="color:#000000;fill:none;stroke:#000000;stroke-width:1px;stroke-linecap:butt;stroke-linejoin:miter;stroke-miterlimit:4;stroke-opacity:1;stroke-dasharray:none;stroke-dashoffset:0;marker:none;visibility:visible;display:inline;overflow:visible;enable-background:accumulate"
       d="m 170.35714,177.71932 0,27.85715"
       id="path2828" />
    <path
       style="color:#000000;fill:none;stroke:#000000;stroke-width:1px;stroke-linecap:butt;stroke-linejoin:miter;stroke-miterlimit:4;stroke-opacity:1;stroke-dasharray:none;stroke-dashoffset:0;marker:none;marker-start:url(#Arrow1Mstart);visibility:visible;display:inline;overflow:visible;enable-background:accumulate"
       d="m 136.07144,172.00503 69.64285,0"
       id="path2830" />
    <text
       xml:space="preserve"
       style="font-size:12px;font-style:normal;font-variant:normal;font-weight:normal;font-stretch:normal;line-height:125%;letter-spacing:0px;word-spacing:0px;fill:#000000;fill-opacity:1;stroke:none;font-family:LMRoman12;-inkscape-font-specification:LMRoman12"
       x="227.14285"
       y="192.00504"
       id="text4052"
       sodipodi:linespacing="125%"><tspan
         sodipodi:role="line"
         id="tspan4054"
         x="227.14285"
         y="192.00504">From Table 6.1</tspan></text>
    <g
       id="g4255"
       transform="matrix(1.2,0,0,1.2,-148.21428,65)"
       ns0:preamble="/home/sriranga/Desktop/MCT/package.tex"
       ns0:text="$\\therefore~~ (101111)_{2}=(57)_{8}$">
      <defs
         id="defs4257">
        <g
           id="g4259">
          <symbol
             id="textext-1f4194b6-0"
             overflow="visible"
             style="overflow:visible">
            <path
               id="path4262"
               d=""
               style="stroke:none" />
          </symbol>
          <symbol
             id="textext-1f4194b6-1"
             overflow="visible"
             style="overflow:visible">
            <path
               id="path4265"
               d="m 3.671875,-4.4375 c 0,-0.28125 -0.25,-0.53125 -0.53125,-0.53125 -0.296875,0 -0.53125,0.25 -0.53125,0.53125 0,0.296875 0.234375,0.53125 0.53125,0.53125 0.28125,0 0.53125,-0.234375 0.53125,-0.53125 z M 5.65625,-0.46875 C 5.65625,-0.75 5.40625,-1 5.125,-1 c -0.296875,0 -0.53125,0.25 -0.53125,0.53125 0,0.296875 0.234375,0.53125 0.53125,0.53125 0.28125,0 0.53125,-0.234375 0.53125,-0.53125 z m -3.984375,0 C 1.671875,-0.75 1.4375,-1 1.140625,-1 0.84375,-1 0.625,-0.75 0.625,-0.46875 c 0,0.296875 0.21875,0.53125 0.515625,0.53125 0.296875,0 0.53125,-0.234375 0.53125,-0.53125 z m 0,0"
               style="stroke:none" />
          </symbol>
          <symbol
             id="textext-1f4194b6-2"
             overflow="visible"
             style="overflow:visible">
            <path
               id="path4268"
               d=""
               style="stroke:none" />
          </symbol>
          <symbol
             id="textext-1f4194b6-3"
             overflow="visible"
             style="overflow:visible">
            <path
               id="path4271"
               d="M 2.9375,-6.734375 C 2.203125,-6.265625 1.90625,-6 1.53125,-5.546875 c -0.703125,0.875 -1.046875,1.875 -1.046875,3.03125 0,1.265625 0.359375,2.25 1.234375,3.265625 0.421875,0.46875 0.671875,0.703125 1.1875,1.015625 l 0.125,-0.15625 C 2.234375,0.984375 1.953125,0.625 1.6875,-0.125 1.453125,-0.78125 1.328125,-1.546875 1.328125,-2.546875 1.328125,-3.59375 1.46875,-4.40625 1.734375,-5.03125 2.015625,-5.640625 2.3125,-6 3.03125,-6.578125 L 2.9375,-6.734375 z m 0,0"
               style="stroke:none" />
          </symbol>
          <symbol
             id="textext-1f4194b6-4"
             overflow="visible"
             style="overflow:visible">
            <path
               id="path4274"
               d="m 2.90625,-6.734375 -1.796875,0.90625 0,0.140625 C 1.21875,-5.734375 1.328125,-5.78125 1.375,-5.796875 1.5625,-5.875 1.71875,-5.90625 1.828125,-5.90625 2.03125,-5.90625 2.125,-5.765625 2.125,-5.4375 l 0,4.515625 c 0,0.328125 -0.078125,0.546875 -0.234375,0.640625 -0.15625,0.09375 -0.296875,0.125 -0.71875,0.125 l 0,0.15625 2.75,0 0,-0.15625 c -0.78125,0 -0.9375,-0.109375 -0.9375,-0.578125 l 0,-5.984375 -0.078125,-0.015625 z m 0,0"
               style="stroke:none" />
          </symbol>
          <symbol
             id="textext-1f4194b6-5"
             overflow="visible"
             style="overflow:visible">
            <path
               id="path4277"
               d="m 2.53125,-6.734375 c -0.546875,0 -0.96875,0.171875 -1.328125,0.515625 -0.578125,0.5625 -0.96875,1.703125 -0.96875,2.875 0,1.078125 0.328125,2.25 0.796875,2.8125 0.375,0.4375 0.875,0.671875 1.46875,0.671875 0.5,0 0.921875,-0.171875 1.28125,-0.515625 C 4.359375,-0.921875 4.75,-2.078125 4.75,-3.296875 c 0,-2.03125 -0.90625,-3.4375 -2.21875,-3.4375 z m -0.03125,0.25 c 0.84375,0 1.28125,1.125 1.28125,3.21875 0,2.078125 -0.4375,3.140625 -1.28125,3.140625 -0.859375,0 -1.296875,-1.0625 -1.296875,-3.140625 0,-2.109375 0.4375,-3.21875 1.296875,-3.21875 z m 0,0"
               style="stroke:none" />
          </symbol>
          <symbol
             id="textext-1f4194b6-6"
             overflow="visible"
             style="overflow:visible">
            <path
               id="path4280"
               d="M 0.375,1.765625 C 1.109375,1.28125 1.421875,1.03125 1.78125,0.5625 2.5,-0.296875 2.84375,-1.296875 2.84375,-2.46875 c 0,-1.265625 -0.375,-2.234375 -1.25,-3.25 C 1.1875,-6.203125 0.921875,-6.421875 0.40625,-6.734375 l -0.109375,0.15625 c 0.796875,0.625 1.0625,0.96875 1.34375,1.71875 0.234375,0.671875 0.34375,1.4375 0.34375,2.421875 0,1.046875 -0.125,1.875 -0.40625,2.484375 C 1.3125,0.671875 1,1.03125 0.296875,1.609375 L 0.375,1.765625 z m 0,0"
               style="stroke:none" />
          </symbol>
          <symbol
             id="textext-1f4194b6-7"
             overflow="visible"
             style="overflow:visible">
            <path
               id="path4283"
               d="m 1.796875,-5.8125 1.96875,0 c 0.15625,0 0.1875,-0.015625 0.21875,-0.09375 l 0.375,-0.875 L 4.28125,-6.859375 C 4.125,-6.65625 4.03125,-6.59375 3.8125,-6.59375 l -2.078125,0 -1.09375,2.359375 c 0,0.015625 0,0.03125 0,0.046875 0,0.046875 0.03125,0.078125 0.109375,0.078125 0.328125,0 0.71875,0.078125 1.140625,0.203125 1.140625,0.375 1.671875,0.984375 1.671875,1.96875 0,0.953125 -0.609375,1.703125 -1.390625,1.703125 -0.203125,0 -0.375,-0.0625 -0.671875,-0.28125 C 1.1875,-0.75 0.953125,-0.84375 0.75,-0.84375 c -0.296875,0 -0.4375,0.109375 -0.4375,0.359375 0,0.390625 0.46875,0.625 1.21875,0.625 0.84375,0 1.5625,-0.265625 2.0625,-0.78125 C 4.046875,-1.09375 4.25,-1.65625 4.25,-2.40625 c 0,-0.71875 -0.1875,-1.1875 -0.6875,-1.6875 -0.4375,-0.4375 -1,-0.65625 -2.171875,-0.875 l 0.40625,-0.84375 z m 0,0"
               style="stroke:none" />
          </symbol>
          <symbol
             id="textext-1f4194b6-8"
             overflow="visible"
             style="overflow:visible">
            <path
               id="path4286"
               d="m 4.46875,-6.59375 -3.6875,0 -0.578125,1.453125 0.171875,0.09375 c 0.421875,-0.6875 0.609375,-0.8125 1.15625,-0.8125 l 2.15625,0 -1.96875,5.9375 0.640625,0 2.109375,-6.515625 0,-0.15625 z m 0,0"
               style="stroke:none" />
          </symbol>
          <symbol
             id="textext-1f4194b6-9"
             overflow="visible"
             style="overflow:visible">
            <path
               id="path4289"
               d=""
               style="stroke:none" />
          </symbol>
          <symbol
             id="textext-1f4194b6-10"
             overflow="visible"
             style="overflow:visible">
            <path
               id="path4292"
               d="M 3.3125,-0.953125 3.21875,-0.984375 C 2.96875,-0.59375 2.875,-0.53125 2.5625,-0.53125 l -1.671875,0 L 2.0625,-1.75 c 0.625,-0.65625 0.890625,-1.1875 0.890625,-1.734375 0,-0.6875 -0.5625,-1.21875 -1.28125,-1.21875 -0.390625,0 -0.75,0.140625 -1.015625,0.421875 -0.21875,0.234375 -0.328125,0.46875 -0.4375,0.953125 l 0.140625,0.03125 C 0.640625,-3.96875 0.890625,-4.1875 1.375,-4.1875 c 0.578125,0 0.984375,0.390625 0.984375,0.96875 0,0.546875 -0.328125,1.203125 -0.90625,1.8125 l -1.25,1.328125 0,0.078125 2.71875,0 0.390625,-0.953125 z m 0,0"
               style="stroke:none" />
          </symbol>
          <symbol
             id="textext-1f4194b6-11"
             overflow="visible"
             style="overflow:visible">
            <path
               id="path4295"
               d="m 2.015625,-2.578125 c 0.6875,-0.375 0.9375,-0.671875 0.9375,-1.140625 0,-0.578125 -0.5,-0.984375 -1.203125,-0.984375 -0.75,0 -1.3125,0.453125 -1.3125,1.09375 0,0.453125 0.125,0.65625 0.859375,1.296875 -0.75,0.578125 -0.90625,0.78125 -0.90625,1.265625 0,0.671875 0.546875,1.140625 1.34375,1.140625 0.828125,0 1.359375,-0.453125 1.359375,-1.171875 0,-0.53125 -0.234375,-0.875 -1.078125,-1.5 z m -0.125,0.703125 c 0.515625,0.375 0.6875,0.625 0.6875,1.015625 0,0.453125 -0.3125,0.765625 -0.765625,0.765625 -0.53125,0 -0.890625,-0.40625 -0.890625,-1.015625 0,-0.4375 0.15625,-0.734375 0.5625,-1.0625 L 1.890625,-1.875 z M 1.8125,-2.703125 c -0.609375,-0.40625 -0.859375,-0.734375 -0.859375,-1.125 0,-0.40625 0.3125,-0.6875 0.75,-0.6875 0.46875,0 0.765625,0.3125 0.765625,0.78125 0,0.40625 -0.1875,0.71875 -0.59375,0.984375 -0.03125,0.015625 -0.03125,0.015625 -0.0625,0.046875 z m 0,0"
               style="stroke:none" />
          </symbol>
          <symbol
             id="textext-1f4194b6-12"
             overflow="visible"
             style="overflow:visible">
            <path
               id="path4298"
               d=""
               style="stroke:none" />
          </symbol>
          <symbol
             id="textext-1f4194b6-13"
             overflow="visible"
             style="overflow:visible">
            <path
               id="path4301"
               d="m 5.71875,-3.296875 0,-0.546875 -5.09375,0 0,0.546875 5.09375,0 z m 0,2.03125 0,-0.5625 -5.09375,0 0,0.5625 5.09375,0 z m 0,0"
               style="stroke:none" />
          </symbol>
        </g>
      </defs>
      <g
         id="textext-1f4194b6-14">
        <g
           id="g4304"
           style="fill:#000000;fill-opacity:1">
          <use
             id="use4306"
             y="134.765"
             x="223.43201"
             xlink:href="#textext-1f4194b6-1"
             width="744.09448"
             height="1052.3622" />
        </g>
        <g
           id="g4308"
           style="fill:#000000;fill-opacity:1">
          <use
             id="use4310"
             y="134.765"
             x="237.44701"
             xlink:href="#textext-1f4194b6-3"
             width="744.09448"
             height="1052.3622" />
          <use
             id="use4312"
             y="134.765"
             x="240.76454"
             xlink:href="#textext-1f4194b6-4"
             width="744.09448"
             height="1052.3622" />
          <use
             id="use4314"
             y="134.765"
             x="245.74585"
             xlink:href="#textext-1f4194b6-5"
             width="744.09448"
             height="1052.3622" />
          <use
             id="use4316"
             y="134.765"
             x="250.72714"
             xlink:href="#textext-1f4194b6-4"
             width="744.09448"
             height="1052.3622" />
          <use
             id="use4318"
             y="134.765"
             x="255.70845"
             xlink:href="#textext-1f4194b6-4"
             width="744.09448"
             height="1052.3622" />
          <use
             id="use4320"
             y="134.765"
             x="260.68976"
             xlink:href="#textext-1f4194b6-4"
             width="744.09448"
             height="1052.3622" />
          <use
             id="use4322"
             y="134.765"
             x="265.67105"
             xlink:href="#textext-1f4194b6-4"
             width="744.09448"
             height="1052.3622" />
          <use
             id="use4324"
             y="134.765"
             x="270.65234"
             xlink:href="#textext-1f4194b6-6"
             width="744.09448"
             height="1052.3622" />
        </g>
        <g
           id="g4326"
           style="fill:#000000;fill-opacity:1">
          <use
             id="use4328"
             y="136.259"
             x="273.97"
             xlink:href="#textext-1f4194b6-10"
             width="744.09448"
             height="1052.3622" />
        </g>
        <g
           id="g4330"
           style="fill:#000000;fill-opacity:1">
          <use
             id="use4332"
             y="134.765"
             x="280.72299"
             xlink:href="#textext-1f4194b6-13"
             width="744.09448"
             height="1052.3622" />
        </g>
        <g
           id="g4334"
           style="fill:#000000;fill-opacity:1">
          <use
             id="use4336"
             y="134.765"
             x="289.82599"
             xlink:href="#textext-1f4194b6-3"
             width="744.09448"
             height="1052.3622" />
          <use
             id="use4338"
             y="134.765"
             x="293.14355"
             xlink:href="#textext-1f4194b6-7"
             width="744.09448"
             height="1052.3622" />
          <use
             id="use4340"
             y="134.765"
             x="298.12485"
             xlink:href="#textext-1f4194b6-8"
             width="744.09448"
             height="1052.3622" />
          <use
             id="use4342"
             y="134.765"
             x="303.10614"
             xlink:href="#textext-1f4194b6-6"
             width="744.09448"
             height="1052.3622" />
        </g>
        <g
           id="g4344"
           style="fill:#000000;fill-opacity:1">
          <use
             id="use4346"
             y="136.259"
             x="306.42401"
             xlink:href="#textext-1f4194b6-11"
             width="744.09448"
             height="1052.3622" />
        </g>
      </g>
    </g>
  </g>
</svg>
