<?xml version="1.0" encoding="UTF-8" standalone="no"?>
<!-- Created with Inkscape (http://www.inkscape.org/) -->

<svg
   xmlns:ns0="http://www.iki.fi/pav/software/textext/"
   xmlns:dc="http://purl.org/dc/elements/1.1/"
   xmlns:cc="http://creativecommons.org/ns#"
   xmlns:rdf="http://www.w3.org/1999/02/22-rdf-syntax-ns#"
   xmlns:svg="http://www.w3.org/2000/svg"
   xmlns="http://www.w3.org/2000/svg"
   xmlns:xlink="http://www.w3.org/1999/xlink"
   xmlns:sodipodi="http://sodipodi.sourceforge.net/DTD/sodipodi-0.dtd"
   xmlns:inkscape="http://www.inkscape.org/namespaces/inkscape"
   width="744.09448819"
   height="1052.3622047"
   id="svg2"
   version="1.1"
   inkscape:version="0.48.4 r9939"
   sodipodi:docname="fig23.eps">
  <sodipodi:namedview
     id="base"
     pagecolor="#ffffff"
     bordercolor="#666666"
     borderopacity="1.0"
     inkscape:pageopacity="0.0"
     inkscape:pageshadow="2"
     inkscape:zoom="2.2691807"
     inkscape:cx="383.79614"
     inkscape:cy="545.36077"
     inkscape:document-units="px"
     inkscape:current-layer="layer1"
     showgrid="false"
     inkscape:window-width="1366"
     inkscape:window-height="744"
     inkscape:window-x="0"
     inkscape:window-y="24"
     inkscape:window-maximized="1" />
  <defs
     id="defs4">
    <marker
       style="overflow:visible;"
       id="Arrow1Mend"
       refX="0.0"
       refY="0.0"
       orient="auto"
       inkscape:stockid="Arrow1Mend">
      <path
         transform="scale(0.4) rotate(180) translate(10,0)"
         style="fill-rule:evenodd;stroke:#000000;stroke-width:1.0pt;marker-start:none;"
         d="M 0.0,0.0 L 5.0,-5.0 L -12.5,0.0 L 5.0,5.0 L 0.0,0.0 z "
         id="path3620" />
    </marker>
    <inkscape:perspective
       id="perspective10"
       inkscape:persp3d-origin="372.04724 : 350.78739 : 1"
       inkscape:vp_z="744.09448 : 526.18109 : 1"
       inkscape:vp_y="0 : 1000 : 0"
       inkscape:vp_x="0 : 526.18109 : 1"
       sodipodi:type="inkscape:persp3d" />
  </defs>
  <metadata
     id="metadata7">
    <rdf:RDF>
      <cc:Work
         rdf:about="">
        <dc:format>image/svg+xml</dc:format>
        <dc:type
           rdf:resource="http://purl.org/dc/dcmitype/StillImage" />
        <dc:title></dc:title>
      </cc:Work>
    </rdf:RDF>
  </metadata>
  <g
     id="layer1"
     inkscape:groupmode="layer"
     inkscape:label="Layer 1">
    <text
       sodipodi:linespacing="125%"
       id="text2816"
       y="503.84937"
       x="260.43549"
       style="font-size:12px;font-style:normal;font-variant:normal;font-weight:normal;font-stretch:normal;line-height:125%;letter-spacing:0px;word-spacing:0px;fill:#000000;fill-opacity:1;stroke:none;font-family:LMRoman12;-inkscape-font-specification:LMRoman12"
       xml:space="preserve"><tspan
         dx="0 1.7857141"
         y="503.84937"
         x="260.43549"
         id="tspan2818"
         sodipodi:role="line"> 0</tspan></text>
    <text
       sodipodi:linespacing="125%"
       id="text2820"
       y="504.1019"
       x="286.37827"
       style="font-size:12px;font-style:normal;font-variant:normal;font-weight:normal;font-stretch:normal;line-height:125%;letter-spacing:0px;word-spacing:0px;fill:#000000;fill-opacity:1;stroke:none;font-family:LMRoman12;-inkscape-font-specification:LMRoman12"
       xml:space="preserve"><tspan
         id="tspan2824"
         y="504.1019"
         x="286.37827"
         sodipodi:role="line">101</tspan></text>
    <path
       sodipodi:nodetypes="ccc"
       id="path2826"
       d="m 261.2444,495.20973 c -0.50818,-3.99284 6.79843,-3.03213 8.17948,-6.30449 1.85085,3.79645 7.95354,2.55143 7.47788,5.96003"
       style="color:#000000;fill:none;stroke:#000000;stroke-width:1px;stroke-linecap:butt;stroke-linejoin:miter;stroke-miterlimit:4;stroke-opacity:1;stroke-dasharray:none;stroke-dashoffset:0;marker:none;visibility:visible;display:inline;overflow:visible;enable-background:accumulate" />
    <text
       sodipodi:linespacing="125%"
       id="text2828"
       y="486.38016"
       x="263.75003"
       style="font-size:12px;font-style:normal;font-variant:normal;font-weight:normal;font-stretch:normal;line-height:125%;letter-spacing:0px;word-spacing:0px;fill:#000000;fill-opacity:1;stroke:none;font-family:LMRoman12;-inkscape-font-specification:LMRoman12"
       xml:space="preserve"><tspan
         style="font-size:7px"
         y="486.38016"
         x="263.75003"
         id="tspan2830"
         sodipodi:role="line">add</tspan></text>
    <path
       sodipodi:nodetypes="cc"
       id="path2832"
       d="m 307.33891,475.7025 0,49.61259"
       style="color:#000000;fill:none;stroke:#000000;stroke-width:1px;stroke-linecap:butt;stroke-linejoin:miter;stroke-miterlimit:4;stroke-opacity:1;stroke-dasharray:none;stroke-dashoffset:0;marker:none;visibility:visible;display:inline;overflow:visible;enable-background:accumulate" />
    <path
       id="path2834"
       d="m 338.4011,481.87853 -22.72843,0"
       style="color:#000000;fill:none;stroke:#000000;stroke-width:1px;stroke-linecap:butt;stroke-linejoin:miter;stroke-miterlimit:4;stroke-opacity:1;stroke-dasharray:none;stroke-dashoffset:0;marker:none;visibility:visible;display:inline;overflow:visible;enable-background:accumulate;marker-end:url(#Arrow1Mend)" />
    <text
       sodipodi:linespacing="125%"
       id="text4056"
       y="504.35443"
       x="314.24756"
       style="font-size:12px;font-style:normal;font-variant:normal;font-weight:normal;font-stretch:normal;line-height:125%;letter-spacing:0px;word-spacing:0px;fill:#000000;fill-opacity:1;stroke:none;font-family:LMRoman12;-inkscape-font-specification:LMRoman12"
       xml:space="preserve"><tspan
         y="504.35443"
         x="314.24756"
         id="tspan4058"
         sodipodi:role="line">1101</tspan><tspan
         style="font-style:italic;-inkscape-font-specification:Arial Italic"
         id="tspan4060"
         y="519.27374"
         x="314.24756"
         sodipodi:role="line">  D</tspan></text>
    <text
       xml:space="preserve"
       style="font-size:12px;font-style:normal;font-variant:normal;font-weight:normal;font-stretch:normal;line-height:125%;letter-spacing:0px;word-spacing:0px;fill:#000000;fill-opacity:1;stroke:none;font-family:LMRoman12;-inkscape-font-specification:LMRoman12"
       x="269.30682"
       y="517.17328"
       id="text4349"
       sodipodi:linespacing="125%"><tspan
         dx="0 0 -1.4285713"
         sodipodi:role="line"
         x="269.30682"
         y="517.17328"
         id="tspan4351">  5</tspan></text>
    <path
       style="color:#000000;fill:none;stroke:#000000;stroke-width:1px;stroke-linecap:butt;stroke-linejoin:miter;stroke-miterlimit:4;stroke-opacity:1;stroke-dasharray:none;stroke-dashoffset:0;marker:none;marker-end:url(#Arrow1Mend);visibility:visible;display:inline;overflow:visible;enable-background:accumulate"
       d="m 358.92267,481.87853 22.72843,0"
       id="path4353" />
    <text
       xml:space="preserve"
       style="font-size:12px;font-style:normal;font-variant:normal;font-weight:normal;font-stretch:normal;line-height:125%;letter-spacing:0px;word-spacing:0px;fill:#000000;fill-opacity:1;stroke:none;font-family:LMRoman12;-inkscape-font-specification:LMRoman12"
       x="360.24756"
       y="504.35443"
       id="text4361"
       sodipodi:linespacing="125%"><tspan
         sodipodi:role="line"
         id="tspan4363"
         x="360.24756"
         y="504.35443">1101</tspan><tspan
         sodipodi:role="line"
         x="360.24756"
         y="519.27374"
         id="tspan4365"
         style="font-style:italic;-inkscape-font-specification:Arial Italic">  D</tspan></text>
    <path
       style="color:#000000;fill:none;stroke:#000000;stroke-width:1px;stroke-linecap:butt;stroke-linejoin:miter;stroke-miterlimit:4;stroke-opacity:1;stroke-dasharray:none;stroke-dashoffset:0;marker:none;visibility:visible;display:inline;overflow:visible;enable-background:accumulate"
       d="m 391.33891,475.7025 0,49.61259"
       id="path4693"
       sodipodi:nodetypes="cc" />
    <text
       xml:space="preserve"
       style="font-size:12px;font-style:normal;font-variant:normal;font-weight:normal;font-stretch:normal;line-height:125%;letter-spacing:0px;word-spacing:0px;fill:#000000;fill-opacity:1;stroke:none;font-family:LMRoman12;-inkscape-font-specification:LMRoman12"
       x="418.43549"
       y="503.84937"
       id="text4695"
       sodipodi:linespacing="125%"><tspan
         sodipodi:role="line"
         id="tspan4697"
         x="418.43549"
         y="503.84937"
         dx="0 -0.71428573"> 00</tspan></text>
    <path
       style="color:#000000;fill:none;stroke:#000000;stroke-width:1px;stroke-linecap:butt;stroke-linejoin:miter;stroke-miterlimit:4;stroke-opacity:1;stroke-dasharray:none;stroke-dashoffset:0;marker:none;visibility:visible;display:inline;overflow:visible;enable-background:accumulate"
       d="m 419.2444,495.20973 c -0.50818,-3.99284 6.79843,-3.03213 8.17948,-6.30449 1.85085,3.79645 7.95354,2.55143 7.47788,5.96003"
       id="path4699"
       sodipodi:nodetypes="ccc" />
    <text
       xml:space="preserve"
       style="font-size:12px;font-style:normal;font-variant:normal;font-weight:normal;font-stretch:normal;line-height:125%;letter-spacing:0px;word-spacing:0px;fill:#000000;fill-opacity:1;stroke:none;font-family:LMRoman12;-inkscape-font-specification:LMRoman12"
       x="421.75003"
       y="486.38016"
       id="text4701"
       sodipodi:linespacing="125%"><tspan
         sodipodi:role="line"
         id="tspan4703"
         x="421.75003"
         y="486.38016"
         style="font-size:7px">add</tspan></text>
    <text
       sodipodi:linespacing="125%"
       id="text4705"
       y="504.35443"
       x="398.24756"
       style="font-size:12px;font-style:normal;font-variant:normal;font-weight:normal;font-stretch:normal;line-height:125%;letter-spacing:0px;word-spacing:0px;fill:#000000;fill-opacity:1;stroke:none;font-family:LMRoman12;-inkscape-font-specification:LMRoman12"
       xml:space="preserve"><tspan
         y="504.35443"
         x="398.24756"
         id="tspan4707"
         sodipodi:role="line">11</tspan><tspan
         style="font-style:italic;-inkscape-font-specification:Arial Italic"
         id="tspan4709"
         y="519.27374"
         x="398.24756"
         sodipodi:role="line">  C</tspan></text>
    <g
       id="g4755"
       transform="matrix(1.2,0,0,1.2,-12.728432,386.76033)"
       ns0:preamble="/home/sriranga/Desktop/MCT/package.tex"
       ns0:text="$\\therefore~~(1011101\\cdot 110111)_{2}=(5D\\cdot DC)_{16}$">
      <defs
         id="defs4757">
        <g
           id="g4759">
          <symbol
             id="textext-48d99b69-0"
             overflow="visible"
             style="overflow:visible">
            <path
               id="path4762"
               d=""
               style="stroke:none" />
          </symbol>
          <symbol
             id="textext-48d99b69-1"
             overflow="visible"
             style="overflow:visible">
            <path
               id="path4765"
               d="m 3.671875,-4.4375 c 0,-0.28125 -0.25,-0.53125 -0.53125,-0.53125 -0.296875,0 -0.53125,0.25 -0.53125,0.53125 0,0.296875 0.234375,0.53125 0.53125,0.53125 0.28125,0 0.53125,-0.234375 0.53125,-0.53125 z M 5.65625,-0.46875 C 5.65625,-0.75 5.40625,-1 5.125,-1 c -0.296875,0 -0.53125,0.25 -0.53125,0.53125 0,0.296875 0.234375,0.53125 0.53125,0.53125 0.28125,0 0.53125,-0.234375 0.53125,-0.53125 z m -3.984375,0 C 1.671875,-0.75 1.4375,-1 1.140625,-1 0.84375,-1 0.625,-0.75 0.625,-0.46875 c 0,0.296875 0.21875,0.53125 0.515625,0.53125 0.296875,0 0.53125,-0.234375 0.53125,-0.53125 z m 0,0"
               style="stroke:none" />
          </symbol>
          <symbol
             id="textext-48d99b69-2"
             overflow="visible"
             style="overflow:visible">
            <path
               id="path4768"
               d=""
               style="stroke:none" />
          </symbol>
          <symbol
             id="textext-48d99b69-3"
             overflow="visible"
             style="overflow:visible">
            <path
               id="path4771"
               d="M 2.9375,-6.734375 C 2.203125,-6.265625 1.90625,-6 1.53125,-5.546875 c -0.703125,0.875 -1.046875,1.875 -1.046875,3.03125 0,1.265625 0.359375,2.25 1.234375,3.265625 0.421875,0.46875 0.671875,0.703125 1.1875,1.015625 l 0.125,-0.15625 C 2.234375,0.984375 1.953125,0.625 1.6875,-0.125 1.453125,-0.78125 1.328125,-1.546875 1.328125,-2.546875 1.328125,-3.59375 1.46875,-4.40625 1.734375,-5.03125 2.015625,-5.640625 2.3125,-6 3.03125,-6.578125 L 2.9375,-6.734375 z m 0,0"
               style="stroke:none" />
          </symbol>
          <symbol
             id="textext-48d99b69-4"
             overflow="visible"
             style="overflow:visible">
            <path
               id="path4774"
               d="m 2.90625,-6.734375 -1.796875,0.90625 0,0.140625 C 1.21875,-5.734375 1.328125,-5.78125 1.375,-5.796875 1.5625,-5.875 1.71875,-5.90625 1.828125,-5.90625 2.03125,-5.90625 2.125,-5.765625 2.125,-5.4375 l 0,4.515625 c 0,0.328125 -0.078125,0.546875 -0.234375,0.640625 -0.15625,0.09375 -0.296875,0.125 -0.71875,0.125 l 0,0.15625 2.75,0 0,-0.15625 c -0.78125,0 -0.9375,-0.109375 -0.9375,-0.578125 l 0,-5.984375 -0.078125,-0.015625 z m 0,0"
               style="stroke:none" />
          </symbol>
          <symbol
             id="textext-48d99b69-5"
             overflow="visible"
             style="overflow:visible">
            <path
               id="path4777"
               d="m 2.53125,-6.734375 c -0.546875,0 -0.96875,0.171875 -1.328125,0.515625 -0.578125,0.5625 -0.96875,1.703125 -0.96875,2.875 0,1.078125 0.328125,2.25 0.796875,2.8125 0.375,0.4375 0.875,0.671875 1.46875,0.671875 0.5,0 0.921875,-0.171875 1.28125,-0.515625 C 4.359375,-0.921875 4.75,-2.078125 4.75,-3.296875 c 0,-2.03125 -0.90625,-3.4375 -2.21875,-3.4375 z m -0.03125,0.25 c 0.84375,0 1.28125,1.125 1.28125,3.21875 0,2.078125 -0.4375,3.140625 -1.28125,3.140625 -0.859375,0 -1.296875,-1.0625 -1.296875,-3.140625 0,-2.109375 0.4375,-3.21875 1.296875,-3.21875 z m 0,0"
               style="stroke:none" />
          </symbol>
          <symbol
             id="textext-48d99b69-6"
             overflow="visible"
             style="overflow:visible">
            <path
               id="path4780"
               d="M 0.375,1.765625 C 1.109375,1.28125 1.421875,1.03125 1.78125,0.5625 2.5,-0.296875 2.84375,-1.296875 2.84375,-2.46875 c 0,-1.265625 -0.375,-2.234375 -1.25,-3.25 C 1.1875,-6.203125 0.921875,-6.421875 0.40625,-6.734375 l -0.109375,0.15625 c 0.796875,0.625 1.0625,0.96875 1.34375,1.71875 0.234375,0.671875 0.34375,1.4375 0.34375,2.421875 0,1.046875 -0.125,1.875 -0.40625,2.484375 C 1.3125,0.671875 1,1.03125 0.296875,1.609375 L 0.375,1.765625 z m 0,0"
               style="stroke:none" />
          </symbol>
          <symbol
             id="textext-48d99b69-7"
             overflow="visible"
             style="overflow:visible">
            <path
               id="path4783"
               d="m 1.796875,-5.8125 1.96875,0 c 0.15625,0 0.1875,-0.015625 0.21875,-0.09375 l 0.375,-0.875 L 4.28125,-6.859375 C 4.125,-6.65625 4.03125,-6.59375 3.8125,-6.59375 l -2.078125,0 -1.09375,2.359375 c 0,0.015625 0,0.03125 0,0.046875 0,0.046875 0.03125,0.078125 0.109375,0.078125 0.328125,0 0.71875,0.078125 1.140625,0.203125 1.140625,0.375 1.671875,0.984375 1.671875,1.96875 0,0.953125 -0.609375,1.703125 -1.390625,1.703125 -0.203125,0 -0.375,-0.0625 -0.671875,-0.28125 C 1.1875,-0.75 0.953125,-0.84375 0.75,-0.84375 c -0.296875,0 -0.4375,0.109375 -0.4375,0.359375 0,0.390625 0.46875,0.625 1.21875,0.625 0.84375,0 1.5625,-0.265625 2.0625,-0.78125 C 4.046875,-1.09375 4.25,-1.65625 4.25,-2.40625 c 0,-0.71875 -0.1875,-1.1875 -0.6875,-1.6875 -0.4375,-0.4375 -1,-0.65625 -2.171875,-0.875 l 0.40625,-0.84375 z m 0,0"
               style="stroke:none" />
          </symbol>
          <symbol
             id="textext-48d99b69-8"
             overflow="visible"
             style="overflow:visible">
            <path
               id="path4786"
               d=""
               style="stroke:none" />
          </symbol>
          <symbol
             id="textext-48d99b69-9"
             overflow="visible"
             style="overflow:visible">
            <path
               id="path4789"
               d="m 1.796875,-2.5625 c 0,-0.3125 -0.25,-0.5625 -0.546875,-0.5625 -0.296875,0 -0.546875,0.25 -0.546875,0.5625 0,0.375 0.328125,0.53125 0.546875,0.53125 0.203125,0 0.546875,-0.15625 0.546875,-0.53125 z m 0,0"
               style="stroke:none" />
          </symbol>
          <symbol
             id="textext-48d99b69-10"
             overflow="visible"
             style="overflow:visible">
            <path
               id="path4792"
               d=""
               style="stroke:none" />
          </symbol>
          <symbol
             id="textext-48d99b69-11"
             overflow="visible"
             style="overflow:visible">
            <path
               id="path4795"
               d="M 3.3125,-0.953125 3.21875,-0.984375 C 2.96875,-0.59375 2.875,-0.53125 2.5625,-0.53125 l -1.671875,0 L 2.0625,-1.75 c 0.625,-0.65625 0.890625,-1.1875 0.890625,-1.734375 0,-0.6875 -0.5625,-1.21875 -1.28125,-1.21875 -0.390625,0 -0.75,0.140625 -1.015625,0.421875 -0.21875,0.234375 -0.328125,0.46875 -0.4375,0.953125 l 0.140625,0.03125 C 0.640625,-3.96875 0.890625,-4.1875 1.375,-4.1875 c 0.578125,0 0.984375,0.390625 0.984375,0.96875 0,0.546875 -0.328125,1.203125 -0.90625,1.8125 l -1.25,1.328125 0,0.078125 2.71875,0 0.390625,-0.953125 z m 0,0"
               style="stroke:none" />
          </symbol>
          <symbol
             id="textext-48d99b69-12"
             overflow="visible"
             style="overflow:visible">
            <path
               id="path4798"
               d="m 2.03125,-4.703125 -1.25,0.625 0,0.09375 c 0.078125,-0.03125 0.15625,-0.0625 0.1875,-0.078125 0.125,-0.046875 0.234375,-0.0625 0.3125,-0.0625 0.140625,0 0.203125,0.09375 0.203125,0.3125 l 0,3.171875 c 0,0.21875 -0.0625,0.375 -0.171875,0.453125 -0.09375,0.0625 -0.203125,0.078125 -0.484375,0.078125 L 0.828125,0 2.75,0 l 0,-0.109375 c -0.5625,0 -0.671875,-0.078125 -0.671875,-0.40625 l 0,-4.1875 -0.046875,0 z m 0,0"
               style="stroke:none" />
          </symbol>
          <symbol
             id="textext-48d99b69-13"
             overflow="visible"
             style="overflow:visible">
            <path
               id="path4801"
               d="M 3.109375,-4.765625 C 2.3125,-4.703125 1.90625,-4.5625 1.40625,-4.203125 0.640625,-3.671875 0.234375,-2.875 0.234375,-1.9375 c 0,0.59375 0.1875,1.21875 0.484375,1.5625 0.265625,0.3125 0.640625,0.46875 1.078125,0.46875 0.859375,0 1.46875,-0.65625 1.46875,-1.625 0,-0.890625 -0.515625,-1.453125 -1.3125,-1.453125 -0.3125,0 -0.453125,0.046875 -0.890625,0.3125 C 1.25,-3.71875 2.03125,-4.46875 3.125,-4.65625 L 3.109375,-4.765625 z M 1.6875,-2.65625 c 0.59375,0 0.953125,0.5 0.953125,1.359375 0,0.78125 -0.28125,1.203125 -0.765625,1.203125 -0.609375,0 -0.984375,-0.65625 -0.984375,-1.734375 0,-0.359375 0.046875,-0.5625 0.1875,-0.65625 C 1.21875,-2.59375 1.4375,-2.65625 1.6875,-2.65625 z m 0,0"
               style="stroke:none" />
          </symbol>
          <symbol
             id="textext-48d99b69-14"
             overflow="visible"
             style="overflow:visible">
            <path
               id="path4804"
               d=""
               style="stroke:none" />
          </symbol>
          <symbol
             id="textext-48d99b69-15"
             overflow="visible"
             style="overflow:visible">
            <path
               id="path4807"
               d="m 5.71875,-3.296875 0,-0.546875 -5.09375,0 0,0.546875 5.09375,0 z m 0,2.03125 0,-0.5625 -5.09375,0 0,0.5625 5.09375,0 z m 0,0"
               style="stroke:none" />
          </symbol>
          <symbol
             id="textext-48d99b69-16"
             overflow="visible"
             style="overflow:visible">
            <path
               id="path4810"
               d=""
               style="stroke:none" />
          </symbol>
          <symbol
             id="textext-48d99b69-17"
             overflow="visible"
             style="overflow:visible">
            <path
               id="path4813"
               d="M 1.296875,-6.34375 C 1.90625,-6.296875 2.0625,-6.203125 2.0625,-5.9375 c 0,0.140625 -0.03125,0.390625 -0.109375,0.640625 l -1.21875,4.40625 c -0.1875,0.578125 -0.25,0.625 -0.8125,0.734375 l 0,0.15625 2.515625,0 c 1.171875,0 2.234375,-0.3125 3,-0.875 0.96875,-0.703125 1.546875,-1.796875 1.546875,-2.953125 0,-1.640625 -1.140625,-2.6875 -2.921875,-2.6875 l -2.765625,0 0,0.171875 z M 3.125,-5.921875 c 0.0625,-0.21875 0.203125,-0.28125 0.609375,-0.28125 0.5625,0 1.0625,0.125 1.375,0.359375 0.5,0.359375 0.765625,0.984375 0.765625,1.78125 0,1.078125 -0.421875,2.1875 -1.09375,2.859375 -0.59375,0.609375 -1.40625,0.90625 -2.4375,0.90625 -0.453125,0 -0.65625,-0.109375 -0.65625,-0.375 0,-0.125 0.0625,-0.34375 0.21875,-0.9375 l 1.21875,-4.3125 z m 0,0"
               style="stroke:none" />
          </symbol>
          <symbol
             id="textext-48d99b69-18"
             overflow="visible"
             style="overflow:visible">
            <path
               id="path4816"
               d="M 6.5,-4.640625 6.875,-6.625 l -0.21875,0 c -0.078125,0.171875 -0.171875,0.21875 -0.375,0.21875 -0.078125,0 -0.203125,-0.015625 -0.40625,-0.0625 -0.453125,-0.109375 -0.84375,-0.171875 -1.171875,-0.171875 -2.125,0 -4.046875,2 -4.046875,4.21875 0,1.53125 1.078125,2.59375 2.609375,2.59375 1.015625,0 1.8125,-0.4375 2.71875,-1.484375 L 5.8125,-1.453125 c -0.890625,0.890625 -1.46875,1.1875 -2.296875,1.1875 -1.109375,0 -1.734375,-0.765625 -1.734375,-2.046875 0,-1.1875 0.46875,-2.390625 1.25,-3.203125 C 3.515625,-6 4.140625,-6.28125 4.796875,-6.28125 c 0.921875,0 1.421875,0.546875 1.515625,1.609375 L 6.5,-4.640625 z m 0,0"
               style="stroke:none" />
          </symbol>
        </g>
      </defs>
      <g
         id="textext-48d99b69-19">
        <g
           id="g4819"
           style="fill:#000000;fill-opacity:1">
          <use
             id="use4821"
             y="134.765"
             x="223.43201"
             xlink:href="#textext-48d99b69-1"
             width="744.09448"
             height="1052.3622" />
        </g>
        <g
           id="g4823"
           style="fill:#000000;fill-opacity:1">
          <use
             id="use4825"
             y="134.765"
             x="237.44701"
             xlink:href="#textext-48d99b69-3"
             width="744.09448"
             height="1052.3622" />
          <use
             id="use4827"
             y="134.765"
             x="240.76454"
             xlink:href="#textext-48d99b69-4"
             width="744.09448"
             height="1052.3622" />
          <use
             id="use4829"
             y="134.765"
             x="245.74585"
             xlink:href="#textext-48d99b69-5"
             width="744.09448"
             height="1052.3622" />
          <use
             id="use4831"
             y="134.765"
             x="250.72714"
             xlink:href="#textext-48d99b69-4"
             width="744.09448"
             height="1052.3622" />
          <use
             id="use4833"
             y="134.765"
             x="255.70845"
             xlink:href="#textext-48d99b69-4"
             width="744.09448"
             height="1052.3622" />
          <use
             id="use4835"
             y="134.765"
             x="260.68976"
             xlink:href="#textext-48d99b69-4"
             width="744.09448"
             height="1052.3622" />
          <use
             id="use4837"
             y="134.765"
             x="265.67105"
             xlink:href="#textext-48d99b69-5"
             width="744.09448"
             height="1052.3622" />
          <use
             id="use4839"
             y="134.765"
             x="270.65234"
             xlink:href="#textext-48d99b69-4"
             width="744.09448"
             height="1052.3622" />
        </g>
        <g
           id="g4841"
           style="fill:#000000;fill-opacity:1">
          <use
             id="use4843"
             y="134.765"
             x="277.84799"
             xlink:href="#textext-48d99b69-9"
             width="744.09448"
             height="1052.3622" />
        </g>
        <g
           id="g4845"
           style="fill:#000000;fill-opacity:1">
          <use
             id="use4847"
             y="134.765"
             x="282.552"
             xlink:href="#textext-48d99b69-4"
             width="744.09448"
             height="1052.3622" />
          <use
             id="use4849"
             y="134.765"
             x="287.53329"
             xlink:href="#textext-48d99b69-4"
             width="744.09448"
             height="1052.3622" />
          <use
             id="use4851"
             y="134.765"
             x="292.51459"
             xlink:href="#textext-48d99b69-5"
             width="744.09448"
             height="1052.3622" />
          <use
             id="use4853"
             y="134.765"
             x="297.49591"
             xlink:href="#textext-48d99b69-4"
             width="744.09448"
             height="1052.3622" />
          <use
             id="use4855"
             y="134.765"
             x="302.4772"
             xlink:href="#textext-48d99b69-4"
             width="744.09448"
             height="1052.3622" />
          <use
             id="use4857"
             y="134.765"
             x="307.4585"
             xlink:href="#textext-48d99b69-4"
             width="744.09448"
             height="1052.3622" />
          <use
             id="use4859"
             y="134.765"
             x="312.43979"
             xlink:href="#textext-48d99b69-6"
             width="744.09448"
             height="1052.3622" />
        </g>
        <g
           id="g4861"
           style="fill:#000000;fill-opacity:1">
          <use
             id="use4863"
             y="136.259"
             x="315.758"
             xlink:href="#textext-48d99b69-11"
             width="744.09448"
             height="1052.3622" />
        </g>
        <g
           id="g4865"
           style="fill:#000000;fill-opacity:1">
          <use
             id="use4867"
             y="134.765"
             x="322.51001"
             xlink:href="#textext-48d99b69-15"
             width="744.09448"
             height="1052.3622" />
        </g>
        <g
           id="g4869"
           style="fill:#000000;fill-opacity:1">
          <use
             id="use4871"
             y="134.765"
             x="331.61401"
             xlink:href="#textext-48d99b69-3"
             width="744.09448"
             height="1052.3622" />
          <use
             id="use4873"
             y="134.765"
             x="334.93155"
             xlink:href="#textext-48d99b69-7"
             width="744.09448"
             height="1052.3622" />
        </g>
        <g
           id="g4875"
           style="fill:#000000;fill-opacity:1">
          <use
             id="use4877"
             y="134.765"
             x="340.16199"
             xlink:href="#textext-48d99b69-17"
             width="744.09448"
             height="1052.3622" />
        </g>
        <g
           id="g4879"
           style="fill:#000000;fill-opacity:1">
          <use
             id="use4881"
             y="134.765"
             x="349.569"
             xlink:href="#textext-48d99b69-9"
             width="744.09448"
             height="1052.3622" />
        </g>
        <g
           id="g4883"
           style="fill:#000000;fill-opacity:1">
          <use
             id="use4885"
             y="134.765"
             x="354.522"
             xlink:href="#textext-48d99b69-17"
             width="744.09448"
             height="1052.3622" />
        </g>
        <g
           id="g4887"
           style="fill:#000000;fill-opacity:1">
          <use
             id="use4889"
             y="134.765"
             x="361.46594"
             xlink:href="#textext-48d99b69-18"
             width="744.09448"
             height="1052.3622" />
        </g>
        <g
           id="g4891"
           style="fill:#000000;fill-opacity:1">
          <use
             id="use4893"
             y="134.765"
             x="368.57999"
             xlink:href="#textext-48d99b69-6"
             width="744.09448"
             height="1052.3622" />
        </g>
        <g
           id="g4895"
           style="fill:#000000;fill-opacity:1">
          <use
             id="use4897"
             y="136.259"
             x="371.897"
             xlink:href="#textext-48d99b69-12"
             width="744.09448"
             height="1052.3622" />
          <use
             id="use4899"
             y="136.259"
             x="375.38391"
             xlink:href="#textext-48d99b69-13"
             width="744.09448"
             height="1052.3622" />
        </g>
      </g>
    </g>
    <text
       xml:space="preserve"
       style="font-size:12px;font-style:normal;font-variant:normal;font-weight:normal;font-stretch:normal;text-align:center;line-height:100%;letter-spacing:0px;word-spacing:0px;text-anchor:middle;fill:#000000;fill-opacity:1;stroke:none;font-family:LMRoman12;-inkscape-font-specification:LMRoman12"
       x="348.16168"
       y="482.78766"
       id="text3098"
       sodipodi:linespacing="100%"><tspan
         sodipodi:role="line"
         id="tspan3100"
         x="348.16168"
         y="482.78766">.</tspan></text>
    <text
       sodipodi:linespacing="100%"
       id="text3102"
       y="503.58307"
       x="348.16168"
       style="font-size:12px;font-style:normal;font-variant:normal;font-weight:normal;font-stretch:normal;text-align:center;line-height:100%;letter-spacing:0px;word-spacing:0px;text-anchor:middle;fill:#000000;fill-opacity:1;stroke:none;font-family:LMRoman12;-inkscape-font-specification:LMRoman12"
       xml:space="preserve"><tspan
         y="503.58307"
         x="348.16168"
         id="tspan3104"
         sodipodi:role="line">.</tspan></text>
    <text
       xml:space="preserve"
       style="font-size:12px;font-style:normal;font-variant:normal;font-weight:normal;font-stretch:normal;text-align:center;line-height:100%;letter-spacing:0px;word-spacing:0px;text-anchor:middle;fill:#000000;fill-opacity:1;stroke:none;font-family:LMRoman12;-inkscape-font-specification:LMRoman12"
       x="348.16168"
       y="518.20172"
       id="text3106"
       sodipodi:linespacing="100%"><tspan
         sodipodi:role="line"
         id="tspan3108"
         x="348.16168"
         y="518.20172">.</tspan></text>
  </g>
</svg>
