<?xml version="1.0" encoding="UTF-8" standalone="no"?>
<!-- Created with Inkscape (http://www.inkscape.org/) -->

<svg
   xmlns:ns0="http://www.iki.fi/pav/software/textext/"
   xmlns:dc="http://purl.org/dc/elements/1.1/"
   xmlns:cc="http://creativecommons.org/ns#"
   xmlns:rdf="http://www.w3.org/1999/02/22-rdf-syntax-ns#"
   xmlns:svg="http://www.w3.org/2000/svg"
   xmlns="http://www.w3.org/2000/svg"
   xmlns:xlink="http://www.w3.org/1999/xlink"
   xmlns:sodipodi="http://sodipodi.sourceforge.net/DTD/sodipodi-0.dtd"
   xmlns:inkscape="http://www.inkscape.org/namespaces/inkscape"
   width="744.09448819"
   height="1052.3622047"
   id="svg2"
   version="1.1"
   inkscape:version="0.48.4 r9939"
   sodipodi:docname="fig5.eps">
  <sodipodi:namedview
     id="base"
     pagecolor="#ffffff"
     bordercolor="#666666"
     borderopacity="1.0"
     inkscape:pageopacity="0.0"
     inkscape:pageshadow="2"
     inkscape:zoom="2.8"
     inkscape:cx="230.23266"
     inkscape:cy="839.15011"
     inkscape:document-units="px"
     inkscape:current-layer="layer1"
     showgrid="false"
     inkscape:window-width="1366"
     inkscape:window-height="744"
     inkscape:window-x="0"
     inkscape:window-y="24"
     inkscape:window-maximized="1">
    <inkscape:grid
       type="xygrid"
       id="grid3205" />
  </sodipodi:namedview>
  <defs
     id="defs4">
    <marker
       style="overflow:visible;"
       id="Arrow1Mend"
       refX="0.0"
       refY="0.0"
       orient="auto"
       inkscape:stockid="Arrow1Mend">
      <path
         transform="scale(0.4) rotate(180) translate(10,0)"
         style="fill-rule:evenodd;stroke:#000000;stroke-width:1.0pt;marker-start:none;"
         d="M 0.0,0.0 L 5.0,-5.0 L -12.5,0.0 L 5.0,5.0 L 0.0,0.0 z "
         id="path3678" />
    </marker>
    <inkscape:perspective
       id="perspective10"
       inkscape:persp3d-origin="372.04724 : 350.78739 : 1"
       inkscape:vp_z="744.09448 : 526.18109 : 1"
       inkscape:vp_y="0 : 1000 : 0"
       inkscape:vp_x="0 : 526.18109 : 1"
       sodipodi:type="inkscape:persp3d" />
    <marker
       inkscape:stockid="Arrow1Mend"
       orient="auto"
       refY="0"
       refX="0"
       id="Arrow1Mend-0"
       style="overflow:visible">
      <path
         inkscape:connector-curvature="0"
         id="path3678-7"
         d="M 0,0 5,-5 -12.5,0 5,5 0,0 z"
         style="fill-rule:evenodd;stroke:#000000;stroke-width:1pt;marker-start:none"
         transform="matrix(-0.4,0,0,-0.4,-4,0)" />
    </marker>
    <marker
       inkscape:stockid="Arrow1Mend"
       orient="auto"
       refY="0"
       refX="0"
       id="marker4101"
       style="overflow:visible">
      <path
         inkscape:connector-curvature="0"
         id="path4103"
         d="M 0,0 5,-5 -12.5,0 5,5 0,0 z"
         style="fill-rule:evenodd;stroke:#000000;stroke-width:1pt;marker-start:none"
         transform="matrix(-0.4,0,0,-0.4,-4,0)" />
    </marker>
    <marker
       inkscape:stockid="Arrow1Mend"
       orient="auto"
       refY="0"
       refX="0"
       id="marker4105"
       style="overflow:visible">
      <path
         inkscape:connector-curvature="0"
         id="path4107"
         d="M 0,0 5,-5 -12.5,0 5,5 0,0 z"
         style="fill-rule:evenodd;stroke:#000000;stroke-width:1pt;marker-start:none"
         transform="matrix(-0.4,0,0,-0.4,-4,0)" />
    </marker>
    <marker
       inkscape:stockid="Arrow1Mend"
       orient="auto"
       refY="0"
       refX="0"
       id="marker4109"
       style="overflow:visible">
      <path
         inkscape:connector-curvature="0"
         id="path4111"
         d="M 0,0 5,-5 -12.5,0 5,5 0,0 z"
         style="fill-rule:evenodd;stroke:#000000;stroke-width:1pt;marker-start:none"
         transform="matrix(-0.4,0,0,-0.4,-4,0)" />
    </marker>
    <marker
       inkscape:stockid="Arrow1Mend"
       orient="auto"
       refY="0"
       refX="0"
       id="marker4113"
       style="overflow:visible">
      <path
         inkscape:connector-curvature="0"
         id="path4115"
         d="M 0,0 5,-5 -12.5,0 5,5 0,0 z"
         style="fill-rule:evenodd;stroke:#000000;stroke-width:1pt;marker-start:none"
         transform="matrix(-0.4,0,0,-0.4,-4,0)" />
    </marker>
    <marker
       inkscape:stockid="Arrow1Mend"
       orient="auto"
       refY="0"
       refX="0"
       id="marker4117"
       style="overflow:visible">
      <path
         inkscape:connector-curvature="0"
         id="path4119"
         d="M 0,0 5,-5 -12.5,0 5,5 0,0 z"
         style="fill-rule:evenodd;stroke:#000000;stroke-width:1pt;marker-start:none"
         transform="matrix(-0.4,0,0,-0.4,-4,0)" />
    </marker>
    <marker
       inkscape:stockid="Arrow1Mend"
       orient="auto"
       refY="0"
       refX="0"
       id="marker4121"
       style="overflow:visible">
      <path
         inkscape:connector-curvature="0"
         id="path4123"
         d="M 0,0 5,-5 -12.5,0 5,5 0,0 z"
         style="fill-rule:evenodd;stroke:#000000;stroke-width:1pt;marker-start:none"
         transform="matrix(-0.4,0,0,-0.4,-4,0)" />
    </marker>
  </defs>
  <metadata
     id="metadata7">
    <rdf:RDF>
      <cc:Work
         rdf:about="">
        <dc:format>image/svg+xml</dc:format>
        <dc:type
           rdf:resource="http://purl.org/dc/dcmitype/StillImage" />
        <dc:title></dc:title>
      </cc:Work>
    </rdf:RDF>
  </metadata>
  <g
     id="layer1"
     inkscape:groupmode="layer"
     inkscape:label="Layer 1">
    <text
       sodipodi:linespacing="125%"
       id="text2872"
       y="214.50504"
       x="124.28571"
       style="font-size:12px;font-style:normal;font-variant:normal;font-weight:normal;font-stretch:normal;line-height:125%;letter-spacing:0px;word-spacing:0px;fill:#000000;fill-opacity:1;stroke:none;font-family:LMRoman12;-inkscape-font-specification:LMRoman12"
       xml:space="preserve"><tspan
         y="214.50504"
         x="124.28571"
         id="tspan2874"
         sodipodi:role="line" /></text>
    <g
       id="g2919"
       ns0:preamble="/home/sriranga/Desktop/MCT/package.tex"
       ns0:text="$(100)_{10}=(1100100)_{2}$"
       transform="matrix(1.2,0,0,1.2,9.1428876,113.85715)">
      <defs
         id="defs2921">
        <g
           id="g2923">
          <symbol
             id="textext-b92bc8a9-0"
             overflow="visible"
             style="overflow:visible">
            <path
               id="path2926"
               d=""
               style="stroke:none"
               inkscape:connector-curvature="0" />
          </symbol>
          <symbol
             id="textext-b92bc8a9-1"
             overflow="visible"
             style="overflow:visible">
            <path
               id="path2929"
               d="M 2.9375,-6.734375 C 2.203125,-6.265625 1.90625,-6 1.53125,-5.546875 c -0.703125,0.875 -1.046875,1.875 -1.046875,3.03125 0,1.265625 0.359375,2.25 1.234375,3.265625 0.421875,0.46875 0.671875,0.703125 1.1875,1.015625 l 0.125,-0.15625 C 2.234375,0.984375 1.953125,0.625 1.6875,-0.125 1.453125,-0.78125 1.328125,-1.546875 1.328125,-2.546875 1.328125,-3.59375 1.46875,-4.40625 1.734375,-5.03125 2.015625,-5.640625 2.3125,-6 3.03125,-6.578125 L 2.9375,-6.734375 z m 0,0"
               style="stroke:none"
               inkscape:connector-curvature="0" />
          </symbol>
          <symbol
             id="textext-b92bc8a9-2"
             overflow="visible"
             style="overflow:visible">
            <path
               id="path2932"
               d="m 2.90625,-6.734375 -1.796875,0.90625 0,0.140625 C 1.21875,-5.734375 1.328125,-5.78125 1.375,-5.796875 1.5625,-5.875 1.71875,-5.90625 1.828125,-5.90625 2.03125,-5.90625 2.125,-5.765625 2.125,-5.4375 l 0,4.515625 c 0,0.328125 -0.078125,0.546875 -0.234375,0.640625 -0.15625,0.09375 -0.296875,0.125 -0.71875,0.125 l 0,0.15625 2.75,0 0,-0.15625 c -0.78125,0 -0.9375,-0.109375 -0.9375,-0.578125 l 0,-5.984375 -0.078125,-0.015625 z m 0,0"
               style="stroke:none"
               inkscape:connector-curvature="0" />
          </symbol>
          <symbol
             id="textext-b92bc8a9-3"
             overflow="visible"
             style="overflow:visible">
            <path
               id="path2935"
               d="m 2.53125,-6.734375 c -0.546875,0 -0.96875,0.171875 -1.328125,0.515625 -0.578125,0.5625 -0.96875,1.703125 -0.96875,2.875 0,1.078125 0.328125,2.25 0.796875,2.8125 0.375,0.4375 0.875,0.671875 1.46875,0.671875 0.5,0 0.921875,-0.171875 1.28125,-0.515625 C 4.359375,-0.921875 4.75,-2.078125 4.75,-3.296875 c 0,-2.03125 -0.90625,-3.4375 -2.21875,-3.4375 z m -0.03125,0.25 c 0.84375,0 1.28125,1.125 1.28125,3.21875 0,2.078125 -0.4375,3.140625 -1.28125,3.140625 -0.859375,0 -1.296875,-1.0625 -1.296875,-3.140625 0,-2.109375 0.4375,-3.21875 1.296875,-3.21875 z m 0,0"
               style="stroke:none"
               inkscape:connector-curvature="0" />
          </symbol>
          <symbol
             id="textext-b92bc8a9-4"
             overflow="visible"
             style="overflow:visible">
            <path
               id="path2938"
               d="M 0.375,1.765625 C 1.109375,1.28125 1.421875,1.03125 1.78125,0.5625 2.5,-0.296875 2.84375,-1.296875 2.84375,-2.46875 c 0,-1.265625 -0.375,-2.234375 -1.25,-3.25 C 1.1875,-6.203125 0.921875,-6.421875 0.40625,-6.734375 l -0.109375,0.15625 c 0.796875,0.625 1.0625,0.96875 1.34375,1.71875 0.234375,0.671875 0.34375,1.4375 0.34375,2.421875 0,1.046875 -0.125,1.875 -0.40625,2.484375 C 1.3125,0.671875 1,1.03125 0.296875,1.609375 L 0.375,1.765625 z m 0,0"
               style="stroke:none"
               inkscape:connector-curvature="0" />
          </symbol>
          <symbol
             id="textext-b92bc8a9-5"
             overflow="visible"
             style="overflow:visible">
            <path
               id="path2941"
               d=""
               style="stroke:none"
               inkscape:connector-curvature="0" />
          </symbol>
          <symbol
             id="textext-b92bc8a9-6"
             overflow="visible"
             style="overflow:visible">
            <path
               id="path2944"
               d="m 2.03125,-4.703125 -1.25,0.625 0,0.09375 c 0.078125,-0.03125 0.15625,-0.0625 0.1875,-0.078125 0.125,-0.046875 0.234375,-0.0625 0.3125,-0.0625 0.140625,0 0.203125,0.09375 0.203125,0.3125 l 0,3.171875 c 0,0.21875 -0.0625,0.375 -0.171875,0.453125 -0.09375,0.0625 -0.203125,0.078125 -0.484375,0.078125 L 0.828125,0 2.75,0 l 0,-0.109375 c -0.5625,0 -0.671875,-0.078125 -0.671875,-0.40625 l 0,-4.1875 -0.046875,0 z m 0,0"
               style="stroke:none"
               inkscape:connector-curvature="0" />
          </symbol>
          <symbol
             id="textext-b92bc8a9-7"
             overflow="visible"
             style="overflow:visible">
            <path
               id="path2947"
               d="m 1.765625,-4.703125 c -0.375,0 -0.671875,0.109375 -0.921875,0.359375 -0.40625,0.390625 -0.671875,1.1875 -0.671875,2 0,0.765625 0.21875,1.578125 0.546875,1.96875 0.265625,0.3125 0.625,0.46875 1.015625,0.46875 0.359375,0 0.65625,-0.109375 0.90625,-0.359375 0.40625,-0.375 0.671875,-1.1875 0.671875,-2.03125 0,-1.4375 -0.625,-2.40625 -1.546875,-2.40625 z M 1.75,-4.53125 c 0.578125,0 0.890625,0.78125 0.890625,2.25 0,1.453125 -0.296875,2.203125 -0.90625,2.203125 -0.59375,0 -0.890625,-0.75 -0.890625,-2.203125 0,-1.46875 0.3125,-2.25 0.90625,-2.25 z m 0,0"
               style="stroke:none"
               inkscape:connector-curvature="0" />
          </symbol>
          <symbol
             id="textext-b92bc8a9-8"
             overflow="visible"
             style="overflow:visible">
            <path
               id="path2950"
               d="M 3.3125,-0.953125 3.21875,-0.984375 C 2.96875,-0.59375 2.875,-0.53125 2.5625,-0.53125 l -1.671875,0 L 2.0625,-1.75 c 0.625,-0.65625 0.890625,-1.1875 0.890625,-1.734375 0,-0.6875 -0.5625,-1.21875 -1.28125,-1.21875 -0.390625,0 -0.75,0.140625 -1.015625,0.421875 -0.21875,0.234375 -0.328125,0.46875 -0.4375,0.953125 l 0.140625,0.03125 C 0.640625,-3.96875 0.890625,-4.1875 1.375,-4.1875 c 0.578125,0 0.984375,0.390625 0.984375,0.96875 0,0.546875 -0.328125,1.203125 -0.90625,1.8125 l -1.25,1.328125 0,0.078125 2.71875,0 0.390625,-0.953125 z m 0,0"
               style="stroke:none"
               inkscape:connector-curvature="0" />
          </symbol>
          <symbol
             id="textext-b92bc8a9-9"
             overflow="visible"
             style="overflow:visible">
            <path
               id="path2953"
               d=""
               style="stroke:none"
               inkscape:connector-curvature="0" />
          </symbol>
          <symbol
             id="textext-b92bc8a9-10"
             overflow="visible"
             style="overflow:visible">
            <path
               id="path2956"
               d="m 5.71875,-3.296875 0,-0.546875 -5.09375,0 0,0.546875 5.09375,0 z m 0,2.03125 0,-0.5625 -5.09375,0 0,0.5625 5.09375,0 z m 0,0"
               style="stroke:none"
               inkscape:connector-curvature="0" />
          </symbol>
        </g>
      </defs>
      <g
         id="textext-b92bc8a9-11">
        <g
           id="g2959"
           style="fill:#000000;fill-opacity:1">
          <use
             id="use2961"
             y="134.765"
             x="223.43201"
             xlink:href="#textext-b92bc8a9-1"
             width="744.09448"
             height="1052.3622" />
          <use
             id="use2963"
             y="134.765"
             x="226.74954"
             xlink:href="#textext-b92bc8a9-2"
             width="744.09448"
             height="1052.3622" />
          <use
             id="use2965"
             y="134.765"
             x="231.73085"
             xlink:href="#textext-b92bc8a9-3"
             width="744.09448"
             height="1052.3622" />
          <use
             id="use2967"
             y="134.765"
             x="236.71214"
             xlink:href="#textext-b92bc8a9-3"
             width="744.09448"
             height="1052.3622" />
          <use
             id="use2969"
             y="134.765"
             x="241.69345"
             xlink:href="#textext-b92bc8a9-4"
             width="744.09448"
             height="1052.3622" />
        </g>
        <g
           id="g2971"
           style="fill:#000000;fill-opacity:1">
          <use
             id="use2973"
             y="136.259"
             x="245.011"
             xlink:href="#textext-b92bc8a9-6"
             width="744.09448"
             height="1052.3622" />
          <use
             id="use2975"
             y="136.259"
             x="248.49789"
             xlink:href="#textext-b92bc8a9-7"
             width="744.09448"
             height="1052.3622" />
        </g>
        <g
           id="g2977"
           style="fill:#000000;fill-opacity:1">
          <use
             id="use2979"
             y="134.765"
             x="255.25"
             xlink:href="#textext-b92bc8a9-10"
             width="744.09448"
             height="1052.3622" />
        </g>
        <g
           id="g2981"
           style="fill:#000000;fill-opacity:1">
          <use
             id="use2983"
             y="134.765"
             x="264.354"
             xlink:href="#textext-b92bc8a9-1"
             width="744.09448"
             height="1052.3622" />
          <use
             id="use2985"
             y="134.765"
             x="267.67154"
             xlink:href="#textext-b92bc8a9-2"
             width="744.09448"
             height="1052.3622" />
          <use
             id="use2987"
             y="134.765"
             x="272.65283"
             xlink:href="#textext-b92bc8a9-2"
             width="744.09448"
             height="1052.3622" />
          <use
             id="use2989"
             y="134.765"
             x="277.63416"
             xlink:href="#textext-b92bc8a9-3"
             width="744.09448"
             height="1052.3622" />
          <use
             id="use2991"
             y="134.765"
             x="282.61545"
             xlink:href="#textext-b92bc8a9-3"
             width="744.09448"
             height="1052.3622" />
          <use
             id="use2993"
             y="134.765"
             x="287.59674"
             xlink:href="#textext-b92bc8a9-2"
             width="744.09448"
             height="1052.3622" />
          <use
             id="use2995"
             y="134.765"
             x="292.57803"
             xlink:href="#textext-b92bc8a9-3"
             width="744.09448"
             height="1052.3622" />
          <use
             id="use2997"
             y="134.765"
             x="297.55936"
             xlink:href="#textext-b92bc8a9-3"
             width="744.09448"
             height="1052.3622" />
          <use
             id="use2999"
             y="134.765"
             x="302.54065"
             xlink:href="#textext-b92bc8a9-4"
             width="744.09448"
             height="1052.3622" />
        </g>
        <g
           id="g3001"
           style="fill:#000000;fill-opacity:1">
          <use
             id="use3003"
             y="136.259"
             x="305.858"
             xlink:href="#textext-b92bc8a9-8"
             width="744.09448"
             height="1052.3622" />
        </g>
      </g>
    </g>
    <text
       xml:space="preserve"
       style="font-size:12px;font-style:normal;font-variant:normal;font-weight:normal;font-stretch:normal;line-height:125%;letter-spacing:0px;word-spacing:0px;fill:#000000;fill-opacity:1;stroke:none;font-family:LMRoman12;-inkscape-font-specification:LMRoman12"
       x="265"
       y="153.6122"
       id="text2816-2"
       sodipodi:linespacing="125%"><tspan
         sodipodi:role="line"
         id="tspan2818-9"
         x="265"
         y="153.6122">2</tspan></text>
    <path
       style="color:#000000;fill:none;stroke:#000000;stroke-width:1px;stroke-linecap:butt;stroke-linejoin:miter;stroke-miterlimit:4;stroke-opacity:1;stroke-dasharray:none;stroke-dashoffset:0;marker:none;visibility:visible;display:inline;overflow:visible;enable-background:accumulate"
       d="m 275,142.36218 0,15.00001 23.03571,-1e-5"
       id="path2820-3"
       sodipodi:nodetypes="ccc"
       inkscape:connector-curvature="0" />
    <text
       xml:space="preserve"
       style="font-size:12px;font-style:normal;font-variant:normal;font-weight:normal;font-stretch:normal;line-height:125%;letter-spacing:0px;word-spacing:0px;fill:#000000;fill-opacity:1;stroke:none;font-family:LMRoman12;-inkscape-font-specification:LMRoman12"
       x="276.96429"
       y="153.6122"
       id="text2822-4"
       sodipodi:linespacing="125%"><tspan
         sodipodi:role="line"
         id="tspan2824-6"
         x="276.96429"
         y="153.6122">100</tspan></text>
    <text
       sodipodi:linespacing="125%"
       id="text2828-8"
       y="168.6122"
       x="267"
       style="font-size:12px;font-style:normal;font-variant:normal;font-weight:normal;font-stretch:normal;line-height:125%;letter-spacing:0px;word-spacing:0px;fill:#000000;fill-opacity:1;stroke:none;font-family:LMRoman12;-inkscape-font-specification:LMRoman12"
       xml:space="preserve"><tspan
         y="168.6122"
         x="267"
         id="tspan2830-2"
         sodipodi:role="line">2</tspan></text>
    <text
       xml:space="preserve"
       style="font-size:12px;font-style:normal;font-variant:normal;font-weight:normal;font-stretch:normal;line-height:125%;letter-spacing:0px;word-spacing:0px;fill:#000000;fill-opacity:1;stroke:none;font-family:LMRoman12;-inkscape-font-specification:LMRoman12"
       x="280.71423"
       y="168.6122"
       id="text2832-2"
       sodipodi:linespacing="125%"><tspan
         sodipodi:role="line"
         id="tspan2834-2"
         x="280.71423"
         y="168.6122">50</tspan></text>
    <text
       xml:space="preserve"
       style="font-size:12px;font-style:normal;font-variant:normal;font-weight:normal;font-stretch:normal;line-height:125%;letter-spacing:0px;word-spacing:0px;fill:#000000;fill-opacity:1;stroke:none;font-family:LMRoman12;-inkscape-font-specification:LMRoman12"
       x="268"
       y="183.6122"
       id="text2838-3"
       sodipodi:linespacing="125%"><tspan
         sodipodi:role="line"
         id="tspan2840-3"
         x="268"
         y="183.6122">2</tspan></text>
    <text
       xml:space="preserve"
       style="font-size:12px;font-style:normal;font-variant:normal;font-weight:normal;font-stretch:normal;line-height:125%;letter-spacing:0px;word-spacing:0px;fill:#000000;fill-opacity:1;stroke:none;font-family:LMRoman12;-inkscape-font-specification:LMRoman12"
       x="280.71423"
       y="183.6122"
       id="text2842-1"
       sodipodi:linespacing="125%"><tspan
         sodipodi:role="line"
         id="tspan2844-2"
         x="280.71423"
         y="183.6122">25</tspan></text>
    <text
       sodipodi:linespacing="125%"
       id="text2848-0"
       y="198.6122"
       x="269"
       style="font-size:12px;font-style:normal;font-variant:normal;font-weight:normal;font-stretch:normal;line-height:125%;letter-spacing:0px;word-spacing:0px;fill:#000000;fill-opacity:1;stroke:none;font-family:LMRoman12;-inkscape-font-specification:LMRoman12"
       xml:space="preserve"><tspan
         y="198.6122"
         x="269"
         id="tspan2850-8"
         sodipodi:role="line">2</tspan></text>
    <text
       xml:space="preserve"
       style="font-size:12px;font-style:normal;font-variant:normal;font-weight:normal;font-stretch:normal;line-height:125%;letter-spacing:0px;word-spacing:0px;fill:#000000;fill-opacity:1;stroke:none;font-family:LMRoman12;-inkscape-font-specification:LMRoman12"
       x="280.71423"
       y="198.6122"
       id="text2852-1"
       sodipodi:linespacing="125%"><tspan
         sodipodi:role="line"
         id="tspan2854-9"
         x="280.71423"
         y="198.6122">12</tspan></text>
    <text
       xml:space="preserve"
       style="font-size:12px;font-style:normal;font-variant:normal;font-weight:normal;font-stretch:normal;line-height:125%;letter-spacing:0px;word-spacing:0px;fill:#000000;fill-opacity:1;stroke:none;font-family:LMRoman12;-inkscape-font-specification:LMRoman12"
       x="270"
       y="213.6122"
       id="text2858-5"
       sodipodi:linespacing="125%"><tspan
         sodipodi:role="line"
         id="tspan2860-2"
         x="270"
         y="213.6122">2</tspan></text>
    <text
       xml:space="preserve"
       style="font-size:12px;font-style:normal;font-variant:normal;font-weight:normal;font-stretch:normal;line-height:125%;letter-spacing:0px;word-spacing:0px;fill:#000000;fill-opacity:1;stroke:none;font-family:LMRoman12;-inkscape-font-specification:LMRoman12"
       x="285.71423"
       y="213.6122"
       id="text2862-7"
       sodipodi:linespacing="125%"><tspan
         sodipodi:role="line"
         id="tspan2864-0"
         x="285.71423"
         y="213.6122">6</tspan></text>
    <text
       xml:space="preserve"
       style="font-size:12px;font-style:normal;font-variant:normal;font-weight:normal;font-stretch:normal;line-height:125%;letter-spacing:0px;word-spacing:0px;fill:#000000;fill-opacity:1;stroke:none;font-family:LMRoman12;-inkscape-font-specification:LMRoman12"
       x="285"
       y="228.6122"
       id="text2872-6"
       sodipodi:linespacing="125%"><tspan
         sodipodi:role="line"
         id="tspan2874-0"
         x="285"
         y="228.6122">3</tspan></text>
    <text
       xml:space="preserve"
       style="font-size:12px;font-style:normal;font-variant:normal;font-weight:normal;font-stretch:normal;line-height:125%;letter-spacing:0px;word-spacing:0px;fill:#000000;fill-opacity:1;stroke:none;font-family:LMRoman12;-inkscape-font-specification:LMRoman12"
       x="328.42856"
       y="151.6479"
       id="text2876-9"
       sodipodi:linespacing="125%"><tspan
         sodipodi:role="line"
         id="tspan2878-1"
         x="328.42856"
         y="151.6479">Remainder</tspan></text>
    <text
       xml:space="preserve"
       style="font-size:12px;font-style:normal;font-variant:normal;font-weight:normal;font-stretch:normal;line-height:125%;letter-spacing:0px;word-spacing:0px;fill:#000000;fill-opacity:1;stroke:none;font-family:LMRoman12;-inkscape-font-specification:LMRoman12"
       x="353.71426"
       y="166.64784"
       id="text2880-0"
       sodipodi:linespacing="125%"><tspan
         sodipodi:role="line"
         id="tspan2882-6"
         x="353.71426"
         y="166.64784">0</tspan><tspan
         sodipodi:role="line"
         x="353.71426"
         y="181.64784"
         id="tspan2884-2">0</tspan><tspan
         sodipodi:role="line"
         x="353.71426"
         y="196.64784"
         id="tspan2886-9">1</tspan><tspan
         sodipodi:role="line"
         x="353.71426"
         y="211.64784"
         id="tspan2888-8">0</tspan><tspan
         sodipodi:role="line"
         x="353.71426"
         y="226.64784"
         id="tspan2890-2">0</tspan><tspan
         sodipodi:role="line"
         x="353.71426"
         y="241.64784"
         id="tspan2859-3">1</tspan><tspan
         sodipodi:role="line"
         x="353.71426"
         y="256.64783"
         id="tspan3217">1</tspan></text>
    <path
       style="color:#000000;fill:none;stroke:#000000;stroke-width:1px;stroke-linecap:butt;stroke-linejoin:miter;stroke-miterlimit:4;stroke-opacity:1;stroke-dasharray:none;stroke-dashoffset:0;marker:none;marker-end:url(#Arrow1Mend);visibility:visible;display:inline;overflow:visible;enable-background:accumulate"
       d="m 307.85714,163.79075 34.28571,0"
       id="path2892-8"
       sodipodi:nodetypes="cc"
       inkscape:connector-curvature="0" />
    <path
       sodipodi:nodetypes="cc"
       id="path2850-5"
       d="m 307.85714,178.79075 34.28571,0"
       style="color:#000000;fill:none;stroke:#000000;stroke-width:1px;stroke-linecap:butt;stroke-linejoin:miter;stroke-miterlimit:4;stroke-opacity:1;stroke-dasharray:none;stroke-dashoffset:0;marker:none;marker-end:url(#Arrow1Mend);visibility:visible;display:inline;overflow:visible;enable-background:accumulate"
       inkscape:connector-curvature="0" />
    <path
       style="color:#000000;fill:none;stroke:#000000;stroke-width:1px;stroke-linecap:butt;stroke-linejoin:miter;stroke-miterlimit:4;stroke-opacity:1;stroke-dasharray:none;stroke-dashoffset:0;marker:none;marker-end:url(#Arrow1Mend);visibility:visible;display:inline;overflow:visible;enable-background:accumulate"
       d="m 307.85714,193.79075 34.28571,0"
       id="path2852"
       sodipodi:nodetypes="cc"
       inkscape:connector-curvature="0" />
    <path
       sodipodi:nodetypes="cc"
       id="path2854"
       d="m 307.85714,208.79075 34.28571,0"
       style="color:#000000;fill:none;stroke:#000000;stroke-width:1px;stroke-linecap:butt;stroke-linejoin:miter;stroke-miterlimit:4;stroke-opacity:1;stroke-dasharray:none;stroke-dashoffset:0;marker:none;marker-end:url(#Arrow1Mend);visibility:visible;display:inline;overflow:visible;enable-background:accumulate"
       inkscape:connector-curvature="0" />
    <path
       style="color:#000000;fill:none;stroke:#000000;stroke-width:1px;stroke-linecap:butt;stroke-linejoin:miter;stroke-miterlimit:4;stroke-opacity:1;stroke-dasharray:none;stroke-dashoffset:0;marker:none;marker-end:url(#Arrow1Mend);visibility:visible;display:inline;overflow:visible;enable-background:accumulate"
       d="m 307.85714,223.79075 34.28571,0"
       id="path2857"
       sodipodi:nodetypes="cc"
       inkscape:connector-curvature="0" />
    <path
       sodipodi:nodetypes="ccc"
       id="path2861"
       d="m 288.39286,248.07646 0.15651,7.85714 54.66492,0"
       style="color:#000000;fill:none;stroke:#000000;stroke-width:1px;stroke-linecap:butt;stroke-linejoin:miter;stroke-miterlimit:4;stroke-opacity:1;stroke-dasharray:none;stroke-dashoffset:0;marker:none;marker-end:url(#Arrow1Mend);visibility:visible;display:inline;overflow:visible;enable-background:accumulate"
       inkscape:connector-curvature="0" />
    <path
       sodipodi:nodetypes="cc"
       id="path2858"
       d="m 373.78571,256.29073 0,-98.45228"
       style="color:#000000;fill:none;stroke:#000000;stroke-width:1px;stroke-linecap:butt;stroke-linejoin:miter;stroke-miterlimit:4;stroke-opacity:1;stroke-dasharray:none;stroke-dashoffset:0;marker:none;marker-end:url(#Arrow1Mend);visibility:visible;display:inline;overflow:visible;enable-background:accumulate"
       inkscape:connector-curvature="0" />
    <path
       inkscape:connector-curvature="0"
       sodipodi:nodetypes="ccc"
       id="path3804"
       d="m 276.15178,157.36217 0,15.00001 21.88393,0"
       style="color:#000000;fill:none;stroke:#000000;stroke-width:1px;stroke-linecap:butt;stroke-linejoin:miter;stroke-miterlimit:4;stroke-opacity:1;stroke-dasharray:none;stroke-dashoffset:0;marker:none;visibility:visible;display:inline;overflow:visible;enable-background:accumulate" />
    <path
       style="color:#000000;fill:none;stroke:#000000;stroke-width:1px;stroke-linecap:butt;stroke-linejoin:miter;stroke-miterlimit:4;stroke-opacity:1;stroke-dasharray:none;stroke-dashoffset:0;marker:none;visibility:visible;display:inline;overflow:visible;enable-background:accumulate"
       d="m 277.30357,172.36218 0,15.00001 20.73214,-1e-5"
       id="path3806"
       sodipodi:nodetypes="ccc"
       inkscape:connector-curvature="0" />
    <path
       inkscape:connector-curvature="0"
       sodipodi:nodetypes="ccc"
       id="path3808"
       d="m 278.45535,187.36217 0,15.00001 19.58036,0"
       style="color:#000000;fill:none;stroke:#000000;stroke-width:1px;stroke-linecap:butt;stroke-linejoin:miter;stroke-miterlimit:4;stroke-opacity:1;stroke-dasharray:none;stroke-dashoffset:0;marker:none;visibility:visible;display:inline;overflow:visible;enable-background:accumulate" />
    <path
       style="color:#000000;fill:none;stroke:#000000;stroke-width:1px;stroke-linecap:butt;stroke-linejoin:miter;stroke-miterlimit:4;stroke-opacity:1;stroke-dasharray:none;stroke-dashoffset:0;marker:none;visibility:visible;display:inline;overflow:visible;enable-background:accumulate"
       d="m 279.60714,202.36217 0,15.00001 18.42857,0"
       id="path3810"
       sodipodi:nodetypes="ccc"
       inkscape:connector-curvature="0" />
    <text
       sodipodi:linespacing="125%"
       id="text3207"
       y="243.6122"
       x="285"
       style="font-size:12px;font-style:normal;font-variant:normal;font-weight:normal;font-stretch:normal;line-height:125%;letter-spacing:0px;word-spacing:0px;fill:#000000;fill-opacity:1;stroke:none;font-family:LMRoman12;-inkscape-font-specification:LMRoman12"
       xml:space="preserve"><tspan
         y="243.6122"
         x="285"
         id="tspan3209"
         sodipodi:role="line">1</tspan></text>
    <path
       inkscape:connector-curvature="0"
       sodipodi:nodetypes="ccc"
       id="path3211"
       d="m 280.5,217.36217 0,15.00001 18.42857,0"
       style="color:#000000;fill:none;stroke:#000000;stroke-width:1px;stroke-linecap:butt;stroke-linejoin:miter;stroke-miterlimit:4;stroke-opacity:1;stroke-dasharray:none;stroke-dashoffset:0;marker:none;visibility:visible;display:inline;overflow:visible;enable-background:accumulate" />
    <text
       sodipodi:linespacing="125%"
       id="text3213"
       y="227.71935"
       x="270"
       style="font-size:12px;font-style:normal;font-variant:normal;font-weight:normal;font-stretch:normal;line-height:125%;letter-spacing:0px;word-spacing:0px;fill:#000000;fill-opacity:1;stroke:none;font-family:LMRoman12;-inkscape-font-specification:LMRoman12"
       xml:space="preserve"><tspan
         y="227.71935"
         x="270"
         id="tspan3215"
         sodipodi:role="line">2</tspan></text>
    <path
       inkscape:connector-curvature="0"
       sodipodi:nodetypes="cc"
       id="path3219"
       d="m 307.85714,239.32646 34.28571,0"
       style="color:#000000;fill:none;stroke:#000000;stroke-width:1px;stroke-linecap:butt;stroke-linejoin:miter;stroke-miterlimit:4;stroke-opacity:1;stroke-dasharray:none;stroke-dashoffset:0;marker:none;marker-end:url(#Arrow1Mend);visibility:visible;display:inline;overflow:visible;enable-background:accumulate" />
  </g>
</svg>
