<?xml version="1.0" encoding="UTF-8" standalone="no"?>
<!-- Created with Inkscape (http://www.inkscape.org/) -->

<svg
   xmlns:ns0="http://www.iki.fi/pav/software/textext/"
   xmlns:dc="http://purl.org/dc/elements/1.1/"
   xmlns:cc="http://creativecommons.org/ns#"
   xmlns:rdf="http://www.w3.org/1999/02/22-rdf-syntax-ns#"
   xmlns:svg="http://www.w3.org/2000/svg"
   xmlns="http://www.w3.org/2000/svg"
   xmlns:sodipodi="http://sodipodi.sourceforge.net/DTD/sodipodi-0.dtd"
   xmlns:inkscape="http://www.inkscape.org/namespaces/inkscape"
   sodipodi:docname="fig64.svg"
   inkscape:version="0.47 r22583"
   version="1.1"
   id="svg2"
   height="354.33069"
   width="496.06299">
  <sodipodi:namedview
     id="base"
     pagecolor="#ffffff"
     bordercolor="#666666"
     borderopacity="1.0"
     inkscape:pageopacity="0.0"
     inkscape:pageshadow="2"
     inkscape:zoom="3.3697336"
     inkscape:cx="164.457"
     inkscape:cy="238.24833"
     inkscape:document-units="cm"
     inkscape:current-layer="layer1"
     showgrid="false"
     units="cm"
     inkscape:window-width="1024"
     inkscape:window-height="689"
     inkscape:window-x="0"
     inkscape:window-y="27"
     inkscape:window-maximized="1"
     showguides="true"
     inkscape:guide-bbox="true">
    <inkscape:grid
       type="xygrid"
       id="grid2985"
       empspacing="5"
       visible="true"
       enabled="true"
       snapvisiblegridlinesonly="true" />
  </sodipodi:namedview>
  <defs
     id="defs4">
    <inkscape:perspective
       sodipodi:type="inkscape:persp3d"
       inkscape:vp_x="0 : 177.16534 : 1"
       inkscape:vp_y="0 : 1000 : 0"
       inkscape:vp_z="496.06299 : 177.16534 : 1"
       inkscape:persp3d-origin="248.03149 : 118.11023 : 1"
       id="perspective80" />
    <marker
       inkscape:stockid="Arrow2Sstart"
       orient="auto"
       refY="0.0"
       refX="0.0"
       id="Arrow2Sstart"
       style="overflow:visible">
      <path
         id="path4185"
         style="fill-rule:evenodd;stroke-width:0.62500000;stroke-linejoin:round"
         d="M 8.7185878,4.0337352 L -2.2072895,0.016013256 L 8.7185884,-4.0017078 C 6.9730900,-1.6296469 6.9831476,1.6157441 8.7185878,4.0337352 z "
         transform="scale(0.3) translate(-2.3,0)" />
    </marker>
    <marker
       inkscape:stockid="Arrow1Mstart"
       orient="auto"
       refY="0.0"
       refX="0.0"
       id="Arrow1Mstart"
       style="overflow:visible">
      <path
         id="path4161"
         d="M 0.0,0.0 L 5.0,-5.0 L -12.5,0.0 L 5.0,5.0 L 0.0,0.0 z "
         style="fill-rule:evenodd;stroke:#000000;stroke-width:1.0pt"
         transform="scale(0.4) translate(10,0)" />
    </marker>
  </defs>
  <metadata
     id="metadata7">
    <rdf:RDF>
      <cc:Work
         rdf:about="">
        <dc:format>image/svg+xml</dc:format>
        <dc:type
           rdf:resource="http://purl.org/dc/dcmitype/StillImage" />
        <dc:title />
      </cc:Work>
    </rdf:RDF>
  </metadata>
  <g
     inkscape:label="Layer 1"
     inkscape:groupmode="layer"
     id="layer1"
     transform="translate(0,-698.03017)">
    <text
       sodipodi:linespacing="125%"
       id="text3035"
       y="767.36084"
       x="120.25948"
       style="font-size:12px;font-style:normal;font-variant:normal;font-weight:normal;font-stretch:normal;text-align:center;line-height:125%;letter-spacing:0px;word-spacing:0px;text-anchor:middle;fill:#000000;fill-opacity:1;stroke:none;font-family:LMRoman12;-inkscape-font-specification:Sans"
       xml:space="preserve"><tspan
         y="767.36084"
         x="120.25948"
         id="tspan3037"
         sodipodi:role="line">3</tspan></text>
    <text
       sodipodi:linespacing="125%"
       id="text3279"
       y="790.89227"
       x="171.6088"
       style="font-size:12px;font-style:normal;font-variant:normal;font-weight:normal;font-stretch:normal;text-align:center;line-height:125%;letter-spacing:0px;word-spacing:0px;text-anchor:middle;fill:#000000;fill-opacity:1;stroke:none;font-family:LMRoman12;-inkscape-font-specification:Sans"
       xml:space="preserve"><tspan
         y="790.89227"
         x="171.6088"
         id="tspan3281"
         sodipodi:role="line" /></text>
    <path
       style="fill:none;stroke:#000000;stroke-width:0.99999994px;stroke-linecap:butt;stroke-linejoin:miter;stroke-opacity:1"
       d="m 93.967086,862.1932 37.123954,0"
       id="path3295"
       inkscape:connector-curvature="0" />
    <path
       inkscape:connector-curvature="0"
       id="path4149"
       d="m 162.64028,798.16026 0,10.96374"
       style="fill:none;stroke:#000000;stroke-width:0.70866144;stroke-linecap:butt;stroke-linejoin:miter;stroke-miterlimit:4;stroke-opacity:1;stroke-dasharray:none;marker-start:url(#Arrow1Mstart)" />
    <path
       inkscape:connector-curvature="0"
       id="path5310"
       d="m 99.49258,787.02117 28.73895,0"
       style="fill:none;stroke:#000000;stroke-width:0.99999994px;stroke-linecap:butt;stroke-linejoin:miter;stroke-opacity:1" />
    <text
       xml:space="preserve"
       style="font-size:12px;font-style:normal;font-variant:normal;font-weight:normal;font-stretch:normal;text-align:center;line-height:125%;letter-spacing:0px;word-spacing:0px;text-anchor:middle;fill:#000000;fill-opacity:1;stroke:none;font-family:LMRoman12;-inkscape-font-specification:Sans"
       x="119.99241"
       y="782.18726"
       id="text3831"
       sodipodi:linespacing="125%"><tspan
         sodipodi:role="line"
         id="tspan3833"
         x="119.99241"
         y="782.18726">6</tspan></text>
    <text
       xml:space="preserve"
       style="font-size:12px;font-style:normal;font-variant:normal;font-weight:normal;font-stretch:normal;text-align:center;line-height:125%;letter-spacing:0px;word-spacing:0px;text-anchor:middle;fill:#000000;fill-opacity:1;stroke:none;font-family:LMRoman12;-inkscape-font-specification:Sans"
       x="120.71942"
       y="844.01355"
       id="text4031"
       sodipodi:linespacing="125%"><tspan
         sodipodi:role="line"
         id="tspan4033"
         x="120.71942"
         y="844.01355">364</tspan></text>
    <text
       sodipodi:linespacing="125%"
       id="text4035"
       y="856.01355"
       x="120.71942"
       style="font-size:12px;font-style:normal;font-variant:normal;font-weight:normal;font-stretch:normal;text-align:center;line-height:125%;letter-spacing:0px;word-spacing:0px;text-anchor:middle;fill:#000000;fill-opacity:1;stroke:none;font-family:LMRoman12;-inkscape-font-specification:Sans"
       xml:space="preserve"><tspan
         y="856.01355"
         x="120.71942"
         id="tspan4037"
         sodipodi:role="line">652</tspan></text>
    <g
       style="font-style:normal;font-variant:normal;font-weight:normal;font-stretch:normal;letter-spacing:normal;word-spacing:normal;text-anchor:start;fill:none;stroke:#000000;stroke-width:1;stroke-linecap:butt;stroke-linejoin:miter;stroke-miterlimit:10.43299961;stroke-opacity:1;stroke-dasharray:none;stroke-dashoffset:0"
       ns0:preamble="/home/sriranga/Desktop/Basic-Electronics-Figures/package.tex"
       ns0:text="$+$"
       word-spacing="normal"
       letter-spacing="normal"
       font-size-adjust="none"
       font-stretch="normal"
       font-weight="normal"
       font-variant="normal"
       font-style="normal"
       stroke-miterlimit="10.433"
       xml:space="preserve"
       transform="matrix(1.2,0,0,-1.2,-168.55583,1704.4272)"
       id="g4201"><polygon
         id="polygon4203"
         points="224.05,709.96 224.05,709.4 226.32,709.4 226.32,707.12 226.87,707.12 226.87,709.4 229.14,709.4 229.14,709.96 226.87,709.96 226.87,712.2 226.32,712.2 226.32,709.96 "
         style="fill:#000000;stroke-width:0" /></g>    <g
       id="g5480"
       transform="matrix(1.2,0,0,-1.2,-163.79068,1629.9062)"
       xml:space="preserve"
       stroke-miterlimit="10.433"
       font-style="normal"
       font-variant="normal"
       font-weight="normal"
       font-stretch="normal"
       font-size-adjust="none"
       letter-spacing="normal"
       word-spacing="normal"
       ns0:text="$+$"
       ns0:preamble="/home/sriranga/Desktop/Basic-Electronics-Figures/package.tex"
       style="font-style:normal;font-variant:normal;font-weight:normal;font-stretch:normal;letter-spacing:normal;word-spacing:normal;text-anchor:start;fill:none;stroke:#000000;stroke-width:1;stroke-linecap:butt;stroke-linejoin:miter;stroke-miterlimit:10.43299961;stroke-opacity:1;stroke-dasharray:none;stroke-dashoffset:0"><polygon
         style="fill:#000000;stroke-width:0"
         points="229.14,709.4 229.14,709.96 226.87,709.96 226.87,712.2 226.32,712.2 226.32,709.96 224.05,709.96 224.05,709.4 226.32,709.4 226.32,707.12 226.87,707.12 226.87,709.4 "
         id="polygon5482" /></g>    <text
       sodipodi:linespacing="125%"
       id="text5484"
       y="798.33582"
       x="117.8745"
       style="font-size:12px;font-style:normal;font-variant:normal;font-weight:normal;font-stretch:normal;text-align:center;line-height:125%;letter-spacing:0px;word-spacing:0px;text-anchor:middle;fill:#000000;fill-opacity:1;stroke:none;font-family:LMRoman12;-inkscape-font-specification:Sans"
       xml:space="preserve"><tspan
         y="798.33582"
         x="117.8745"
         id="tspan5486"
         sodipodi:role="line">10</tspan></text>
    <g
       id="content"
       transform="matrix(1.2,0,0,-1.2,-123.51811,1638.9307)"
       xml:space="preserve"
       stroke-miterlimit="10.433"
       font-style="normal"
       font-variant="normal"
       font-weight="normal"
       font-stretch="normal"
       font-size-adjust="none"
       letter-spacing="normal"
       word-spacing="normal"
       ns0:text="$\\equiv$"
       ns0:preamble="/home/sriranga/Desktop/Basic-Electronics-Figures/package.tex"
       style="font-style:normal;font-variant:normal;font-weight:normal;font-stretch:normal;letter-spacing:normal;word-spacing:normal;text-anchor:start;fill:none;stroke:#000000;stroke-width:1;stroke-linecap:butt;stroke-linejoin:miter;stroke-miterlimit:10.43299961;stroke-opacity:1;stroke-dasharray:none;stroke-dashoffset:0"><polygon
         style="fill:#000000;stroke-width:0"
         points="224.05,711.09 229.14,711.09 229.14,711.65 224.05,711.65 "
         id="polygon5527" /><polygon
         style="fill:#000000;stroke-width:0"
         points="224.05,709.4 229.14,709.4 229.14,709.96 224.05,709.96 "
         id="polygon5529" /><polygon
         style="fill:#000000;stroke-width:0"
         points="224.05,707.71 229.14,707.71 229.14,708.27 224.05,708.27 "
         id="polygon5531" /></g>    <text
       sodipodi:linespacing="125%"
       id="text5573"
       y="791.28601"
       x="162.48337"
       style="font-size:12px;font-style:normal;font-variant:normal;font-weight:normal;font-stretch:normal;text-align:center;line-height:125%;letter-spacing:0px;word-spacing:0px;text-anchor:middle;fill:#000000;fill-opacity:1;stroke:none;font-family:LMRoman12;-inkscape-font-specification:Sans"
       xml:space="preserve"><tspan
         y="791.28601"
         x="162.48337"
         id="tspan5575"
         sodipodi:role="line">1</tspan></text>
    <text
       xml:space="preserve"
       style="font-size:12px;font-style:normal;font-variant:normal;font-weight:normal;font-stretch:normal;text-align:center;line-height:125%;letter-spacing:0px;word-spacing:0px;text-anchor:middle;fill:#000000;fill-opacity:1;stroke:none;font-family:LMRoman12;-inkscape-font-specification:Sans"
       x="186.48337"
       y="791.28601"
       id="text5577"
       sodipodi:linespacing="125%"><tspan
         sodipodi:role="line"
         id="tspan5579"
         x="186.48337"
         y="791.28601">2</tspan></text>
    <path
       style="fill:none;stroke:#000000;stroke-width:0.70866144;stroke-linecap:butt;stroke-linejoin:miter;stroke-miterlimit:4;stroke-opacity:1;stroke-dasharray:none;marker-start:url(#Arrow1Mstart)"
       d="m 187.72412,798.16026 0,10.96374"
       id="path5581"
       inkscape:connector-curvature="0" />
    <text
       sodipodi:linespacing="125%"
       id="text5583"
       y="821.17773"
       x="157.05478"
       style="font-size:12px;font-style:normal;font-variant:normal;font-weight:normal;font-stretch:normal;text-align:center;line-height:125%;letter-spacing:0px;word-spacing:0px;text-anchor:middle;fill:#000000;fill-opacity:1;stroke:none;font-family:LMRoman12;-inkscape-font-specification:Sans"
       xml:space="preserve"><tspan
         y="821.17773"
         x="157.05478"
         id="tspan5585"
         sodipodi:role="line">carry</tspan></text>
    <text
       xml:space="preserve"
       style="font-size:12px;font-style:normal;font-variant:normal;font-weight:normal;font-stretch:normal;text-align:center;line-height:125%;letter-spacing:0px;word-spacing:0px;text-anchor:middle;fill:#000000;fill-opacity:1;stroke:none;font-family:LMRoman12;-inkscape-font-specification:Sans"
       x="194.11896"
       y="821.17773"
       id="text5587"
       sodipodi:linespacing="125%"><tspan
         sodipodi:role="line"
         id="tspan5589"
         x="194.11896"
         y="821.17773">sum</tspan></text>
    <text
       xml:space="preserve"
       style="font-size:12px;font-style:normal;font-variant:normal;font-weight:normal;font-stretch:normal;text-align:center;line-height:125%;letter-spacing:0px;word-spacing:0px;text-anchor:middle;fill:#000000;fill-opacity:1;stroke:none;font-family:LMRoman12;-inkscape-font-specification:Sans"
       x="120.71942"
       y="874.35846"
       id="text5591"
       sodipodi:linespacing="125%"><tspan
         sodipodi:role="line"
         id="tspan5593"
         x="120.71942"
         y="874.35846">236</tspan></text>
    <text
       sodipodi:linespacing="125%"
       id="text5595"
       y="874.35846"
       x="103.97066"
       style="font-size:12px;font-style:normal;font-variant:normal;font-weight:normal;font-stretch:normal;text-align:center;line-height:125%;letter-spacing:0px;word-spacing:0px;text-anchor:middle;fill:#000000;fill-opacity:1;stroke:none;font-family:LMRoman12;-inkscape-font-specification:Sans"
       xml:space="preserve"><tspan
         y="874.35846"
         x="103.97066"
         id="tspan5597"
         sodipodi:role="line">1</tspan></text>
    <path
       style="fill:none;stroke:#000000;stroke-width:0.70866144;stroke-linecap:butt;stroke-linejoin:miter;stroke-miterlimit:4;stroke-opacity:1;stroke-dasharray:none;marker-start:url(#Arrow1Mstart)"
       d="m 104.61051,880.15072 0,10.96374"
       id="path5599"
       inkscape:connector-curvature="0" />
    <text
       xml:space="preserve"
       style="font-size:12px;font-style:normal;font-variant:normal;font-weight:normal;font-stretch:normal;text-align:center;line-height:125%;letter-spacing:0px;word-spacing:0px;text-anchor:middle;fill:#000000;fill-opacity:1;stroke:none;font-family:LMRoman12;-inkscape-font-specification:Sans"
       x="125.37973"
       y="903.41455"
       id="text5601"
       sodipodi:linespacing="125%"><tspan
         sodipodi:role="line"
         id="tspan5603"
         x="125.37973"
         y="903.41455">Ignore carry</tspan></text>
    <g
       style="font-style:normal;font-variant:normal;font-weight:normal;font-stretch:normal;letter-spacing:normal;word-spacing:normal;text-anchor:start;fill:none;stroke:#000000;stroke-width:1;stroke-linecap:butt;stroke-linejoin:miter;stroke-miterlimit:10.43299961;stroke-opacity:1;stroke-dasharray:none;stroke-dashoffset:0"
       ns0:preamble="/home/sriranga/Desktop/Basic-Electronics-Figures/package.tex"
       ns0:text="$\\therefore ~ (364)_8 - (126)_8= (236)_8$"
       word-spacing="normal"
       letter-spacing="normal"
       font-size-adjust="none"
       font-stretch="normal"
       font-weight="normal"
       font-variant="normal"
       font-style="normal"
       stroke-miterlimit="10.433"
       xml:space="preserve"
       transform="matrix(1.2,0,0,-1.2,-176.9839,1769.4151)"
       id="g5659"><path
         id="path5661"
         d="m 227.09,711.55 0,0.02 0,0.03 0,0.03 -0.01,0.02 0,0.03 -0.01,0.02 -0.01,0.03 -0.01,0.02 -0.01,0.02 -0.01,0.03 -0.01,0.02 -0.02,0.02 -0.01,0.02 -0.02,0.02 -0.01,0.02 -0.02,0.02 -0.02,0.01 -0.02,0.02 -0.02,0.02 -0.02,0.01 -0.02,0.02 -0.02,0.01 -0.03,0.01 -0.02,0.01 -0.02,0.01 -0.03,0.01 -0.02,0.01 -0.03,0 -0.02,0.01 -0.03,0 -0.03,0 -0.02,0 c -0.3,0 -0.53,-0.24 -0.53,-0.52 0,-0.3 0.23,-0.53 0.53,-0.53 0.28,0 0.52,0.23 0.52,0.53 z"
         inkscape:connector-curvature="0"
         style="fill:#000000;stroke-width:0" /><path
         id="path5663"
         d="m 229.07,707.59 0,0.03 0,0.03 0,0.02 -0.01,0.03 0,0.02 -0.01,0.03 -0.01,0.02 -0.01,0.03 -0.01,0.02 -0.01,0.02 -0.01,0.02 -0.02,0.02 -0.01,0.03 -0.02,0.02 -0.01,0.01 -0.02,0.02 -0.02,0.02 -0.02,0.02 -0.02,0.01 -0.02,0.02 -0.02,0.01 -0.02,0.01 -0.03,0.02 -0.02,0.01 -0.02,0.01 -0.03,0 -0.02,0.01 -0.03,0.01 -0.02,0 -0.03,0.01 -0.03,0 -0.02,0 c -0.3,0 -0.53,-0.24 -0.53,-0.53 0,-0.3 0.23,-0.52 0.53,-0.52 0.28,0 0.52,0.22 0.52,0.52 z"
         inkscape:connector-curvature="0"
         style="fill:#000000;stroke-width:0" /><path
         id="path5665"
         d="m 225.1,707.59 0,0.03 0,0.03 0,0.02 -0.01,0.03 0,0.02 -0.01,0.03 -0.01,0.02 -0.01,0.03 -0.01,0.02 -0.01,0.02 -0.01,0.02 -0.02,0.02 -0.01,0.03 -0.02,0.02 -0.01,0.01 -0.02,0.02 -0.02,0.02 -0.02,0.02 -0.02,0.01 -0.02,0.02 -0.02,0.01 -0.02,0.01 -0.03,0.02 -0.02,0.01 -0.02,0.01 -0.03,0 -0.02,0.01 -0.03,0.01 -0.02,0 -0.03,0.01 -0.03,0 -0.02,0 c -0.3,0 -0.53,-0.24 -0.53,-0.53 0,-0.3 0.23,-0.52 0.53,-0.52 0.29,0 0.52,0.22 0.52,0.52 z"
         inkscape:connector-curvature="0"
         style="fill:#000000;stroke-width:0" /><path
         id="path5667"
         d="m 237.89,713.84 -0.07,-0.04 -0.06,-0.05 -0.06,-0.04 -0.06,-0.04 -0.06,-0.04 -0.06,-0.04 -0.05,-0.04 -0.06,-0.03 -0.05,-0.04 -0.05,-0.04 -0.04,-0.03 -0.05,-0.04 -0.04,-0.03 -0.05,-0.04 -0.08,-0.06 -0.08,-0.07 -0.07,-0.07 -0.07,-0.07 -0.07,-0.07 -0.07,-0.07 -0.07,-0.08 -0.06,-0.08 -0.07,-0.08 c -0.71,-0.87 -1.06,-1.86 -1.06,-3.02 0,-1.26 0.37,-2.24 1.25,-3.25 0.41,-0.48 0.67,-0.7 1.18,-1.01 l 0.12,0.16 c -0.79,0.62 -1.07,0.97 -1.34,1.71 -0.24,0.67 -0.35,1.42 -0.35,2.42 0,1.04 0.13,1.86 0.4,2.47 0.28,0.62 0.57,0.97 1.29,1.55 z"
         inkscape:connector-curvature="0"
         style="fill:#000000;stroke-width:0" /><path
         id="path5669"
         d="m 239.8,710.4 0.05,0 0.05,0 0.05,0 0.05,0 0.05,0 0.04,0 0.04,0 0.05,0 0.04,0 0.03,0 0.04,-0.01 0.04,0 0.03,0 0.03,0 0.03,-0.01 0.03,0 0.03,0 0.03,0 0.03,-0.01 0.03,0 0.02,-0.01 0.03,0 0.05,-0.01 0.05,-0.01 0.04,-0.02 0.05,-0.01 0.04,-0.02 c 0.62,-0.21 1.01,-0.78 1.01,-1.47 0,-0.83 -0.57,-1.48 -1.31,-1.48 -0.27,0 -0.46,0.07 -0.83,0.31 -0.3,0.18 -0.47,0.25 -0.64,0.25 -0.23,0 -0.38,-0.14 -0.38,-0.35 0,-0.35 0.43,-0.56 1.13,-0.56 0.76,0 1.55,0.25 2.02,0.66 0.46,0.41 0.72,0.99 0.72,1.65 0,0.51 -0.16,0.97 -0.45,1.28 -0.19,0.22 -0.38,0.34 -0.82,0.53 0.69,0.47 0.93,0.83 0.93,1.37 0,0.8 -0.63,1.36 -1.55,1.36 -0.5,0 -0.93,-0.17 -1.29,-0.49 -0.3,-0.26 -0.45,-0.52 -0.67,-1.12 l 0.15,-0.04 c 0.41,0.73 0.86,1.05 1.48,1.05 0.65,0 1.1,-0.43 1.1,-1.06 0,-0.36 -0.15,-0.71 -0.4,-0.96 -0.3,-0.3 -0.58,-0.45 -1.25,-0.69 z"
         inkscape:connector-curvature="0"
         style="fill:#000000;stroke-width:0" /><path
         id="path5671"
         d="m 247.69,713.92 -0.1,-0.01 -0.1,-0.01 -0.1,-0.01 -0.1,-0.01 -0.09,-0.01 -0.09,-0.02 -0.09,-0.01 -0.08,-0.02 -0.09,-0.01 -0.08,-0.02 -0.08,-0.01 -0.07,-0.02 -0.08,-0.02 -0.07,-0.02 -0.15,-0.04 -0.14,-0.05 -0.13,-0.06 -0.14,-0.06 -0.13,-0.06 -0.13,-0.07 -0.13,-0.08 -0.13,-0.08 -0.07,-0.05 -0.06,-0.05 c -1.08,-0.76 -1.67,-1.89 -1.67,-3.22 0,-0.87 0.27,-1.74 0.7,-2.24 0.38,-0.44 0.92,-0.67 1.53,-0.67 1.24,0 2.09,0.94 2.09,2.31 0,1.27 -0.72,2.08 -1.87,2.08 -0.44,0 -0.64,-0.07 -1.27,-0.45 l 0.03,-0.26 c 0.21,0.16 0.52,0.25 0.86,0.25 h 0 c 0.86,0 1.36,-0.72 1.36,-1.96 0,-1.09 -0.39,-1.7 -1.09,-1.7 -0.87,0 -1.41,0.94 -1.41,2.48 0,0.5 0.08,0.78 0.28,0.93 l -0.03,0.26 c 0.27,1.5 1.38,2.57 2.94,2.83 z"
         inkscape:connector-curvature="0"
         style="fill:#000000;stroke-width:0" /><polygon
         id="polygon5673"
         points="251.48,713.84 248.36,709.42 248.76,709.42 251.14,712.83 251.14,709.42 248.76,709.42 248.36,709.42 248.36,708.78 251.15,708.78 251.15,707.12 251.92,707.12 251.92,708.78 252.93,708.78 252.93,709.42 251.92,709.42 251.92,713.84 "
         style="fill:#000000;stroke-width:0" /><path
         id="path5675"
         d="m 253.6,705.37 0.06,0.04 0.07,0.04 0.06,0.05 0.06,0.04 0.06,0.04 0.06,0.03 0.05,0.04 0.05,0.04 0.05,0.04 0.05,0.03 0.05,0.04 0.05,0.03 0.04,0.04 0.04,0.03 0.09,0.07 0.07,0.07 0.08,0.07 0.07,0.07 0.07,0.07 0.07,0.07 0.06,0.08 0.07,0.08 0.07,0.08 c 0.71,0.86 1.05,1.86 1.05,3.02 0,1.27 -0.36,2.23 -1.24,3.25 -0.41,0.47 -0.67,0.69 -1.18,1.01 l -0.12,-0.16 c 0.79,-0.63 1.06,-0.97 1.34,-1.72 0.24,-0.66 0.35,-1.42 0.35,-2.41 0,-1.03 -0.13,-1.86 -0.4,-2.46 -0.28,-0.63 -0.58,-0.99 -1.29,-1.56 z"
         inkscape:connector-curvature="0"
         style="fill:#000000;stroke-width:0" /><path
         id="path5677"
         d="m 258.56,708.21 0.06,0.04 0.06,0.03 0.06,0.03 0.05,0.04 0.06,0.03 0.05,0.03 0.05,0.03 0.04,0.04 0.05,0.03 0.04,0.03 0.04,0.03 0.03,0.04 0.04,0.03 0.03,0.03 0.03,0.03 0.03,0.04 0.03,0.03 0.02,0.04 0.02,0.03 0.03,0.03 0.01,0.04 0.02,0.04 0.02,0.03 0.01,0.04 0.01,0.04 0.01,0.04 0.01,0.03 0.01,0.04 0,0.05 0.01,0.04 0,0.04 0,0.04 c 0,0.57 -0.5,0.99 -1.2,0.99 l -0.06,-0.19 c 0.48,0 0.78,-0.31 0.78,-0.79 0,-0.39 -0.2,-0.71 -0.59,-0.97 -0.04,-0.02 -0.04,-0.02 -0.07,-0.04 h 0 c -0.62,0.4 -0.87,0.72 -0.87,1.11 0,0.4 0.32,0.69 0.75,0.69 l 0.06,0.19 c -0.76,0 -1.32,-0.46 -1.32,-1.1 0,-0.45 0.13,-0.65 0.86,-1.29 -0.75,-0.57 -0.9,-0.79 -0.9,-1.26 0,-0.67 0.55,-1.15 1.33,-1.15 l 0.08,0.2 c -0.53,0 -0.89,0.4 -0.89,1.01 0,0.44 0.16,0.73 0.56,1.06 l 0.42,-0.31 c 0.51,-0.36 0.68,-0.61 0.68,-1 0,-0.45 -0.32,-0.76 -0.77,-0.76 l -0.08,-0.2 c 0.84,0 1.38,0.46 1.38,1.18 0,0.53 -0.24,0.88 -1.08,1.5 z"
         inkscape:connector-curvature="0"
         style="fill:#000000;stroke-width:0" /><polygon
         id="polygon5679"
         points="263.35,709.4 268.45,709.4 268.45,709.96 263.35,709.96 "
         style="fill:#000000;stroke-width:0" /><path
         id="path5681"
         d="m 274.22,713.84 -0.07,-0.04 -0.06,-0.05 -0.07,-0.04 -0.06,-0.04 -0.05,-0.04 -0.06,-0.04 -0.06,-0.04 -0.05,-0.03 -0.05,-0.04 -0.05,-0.04 -0.04,-0.03 -0.05,-0.04 -0.04,-0.03 -0.05,-0.04 -0.08,-0.06 -0.08,-0.07 -0.07,-0.07 -0.07,-0.07 -0.07,-0.07 -0.07,-0.07 -0.07,-0.08 -0.06,-0.08 -0.07,-0.08 c -0.71,-0.87 -1.06,-1.86 -1.06,-3.02 0,-1.26 0.37,-2.24 1.25,-3.25 0.4,-0.48 0.66,-0.7 1.18,-1.01 l 0.12,0.16 c -0.8,0.62 -1.08,0.97 -1.34,1.71 -0.24,0.67 -0.35,1.42 -0.35,2.42 0,1.04 0.13,1.86 0.4,2.47 0.28,0.62 0.57,0.97 1.29,1.55 z"
         inkscape:connector-curvature="0"
         style="fill:#000000;stroke-width:0" /><path
         id="path5683"
         d="m 277.5,713.84 -1.79,-0.9 v -0.14 c 0.12,0.05 0.23,0.09 0.27,0.11 0.17,0.07 0.34,0.11 0.44,0.11 0.21,0 0.3,-0.15 0.3,-0.47 v -4.5 c 0,-0.33 -0.08,-0.56 -0.24,-0.65 -0.15,-0.09 -0.29,-0.12 -0.7,-0.13 v -0.15 h 2.74 v 0.15 c -0.78,0.01 -0.94,0.11 -0.94,0.59 v 5.96 z"
         inkscape:connector-curvature="0"
         style="fill:#000000;stroke-width:0" /><path
         id="path5685"
         d="m 284.31,708.49 -0.13,0.05 c -0.37,-0.57 -0.5,-0.66 -0.95,-0.66 h -2.37 l 1.67,1.75 c 0.88,0.92 1.27,1.68 1.27,2.45 0,1 -0.8,1.76 -1.84,1.76 -0.54,0 -1.06,-0.22 -1.43,-0.62 -0.32,-0.33 -0.47,-0.65 -0.64,-1.36 l 0.21,-0.05 c 0.4,0.98 0.76,1.29 1.44,1.29 0.84,0 1.41,-0.56 1.41,-1.39 0,-0.78 -0.46,-1.7 -1.3,-2.59 l -1.77,-1.88 v -0.12 h 3.88 z"
         inkscape:connector-curvature="0"
         style="fill:#000000;stroke-width:0" /><path
         id="path5687"
         d="m 289,713.92 -0.1,-0.01 -0.1,-0.01 -0.1,-0.01 -0.1,-0.01 -0.09,-0.01 -0.09,-0.02 -0.09,-0.01 -0.09,-0.02 -0.08,-0.01 -0.08,-0.02 -0.08,-0.01 -0.08,-0.02 -0.07,-0.02 -0.08,-0.02 -0.14,-0.04 -0.14,-0.05 -0.13,-0.06 -0.14,-0.06 -0.13,-0.06 -0.13,-0.07 -0.13,-0.08 -0.13,-0.08 -0.07,-0.05 -0.06,-0.05 c -1.08,-0.76 -1.67,-1.89 -1.67,-3.22 0,-0.87 0.27,-1.74 0.7,-2.24 0.38,-0.44 0.92,-0.67 1.53,-0.67 1.24,0 2.09,0.94 2.09,2.31 0,1.27 -0.73,2.08 -1.87,2.08 -0.44,0 -0.65,-0.07 -1.27,-0.45 l 0.03,-0.26 c 0.21,0.16 0.51,0.25 0.86,0.25 h 0 c 0.86,0 1.36,-0.72 1.36,-1.96 0,-1.09 -0.39,-1.7 -1.09,-1.7 -0.87,0 -1.41,0.94 -1.41,2.48 0,0.5 0.08,0.78 0.28,0.93 l -0.03,0.26 c 0.27,1.5 1.38,2.57 2.94,2.83 z"
         inkscape:connector-curvature="0"
         style="fill:#000000;stroke-width:0" /><path
         id="path5689"
         d="m 289.92,705.37 0.07,0.04 0.07,0.04 0.06,0.05 0.06,0.04 0.06,0.04 0.06,0.03 0.05,0.04 0.05,0.04 0.05,0.04 0.05,0.03 0.05,0.04 0.04,0.03 0.05,0.04 0.04,0.03 0.08,0.07 0.08,0.07 0.08,0.07 0.07,0.07 0.07,0.07 0.06,0.07 0.07,0.08 0.07,0.08 0.07,0.08 c 0.7,0.86 1.05,1.86 1.05,3.02 0,1.27 -0.37,2.23 -1.24,3.25 -0.41,0.47 -0.67,0.69 -1.19,1.01 l -0.12,-0.16 c 0.8,-0.63 1.07,-0.97 1.35,-1.72 0.24,-0.66 0.35,-1.42 0.35,-2.41 0,-1.03 -0.13,-1.86 -0.4,-2.46 -0.28,-0.63 -0.58,-0.99 -1.3,-1.56 z"
         inkscape:connector-curvature="0"
         style="fill:#000000;stroke-width:0" /><path
         id="path5691"
         d="m 294.88,708.21 0.07,0.04 0.06,0.03 0.06,0.03 0.05,0.04 0.06,0.03 0.05,0.03 0.04,0.03 0.05,0.04 0.04,0.03 0.05,0.03 0.03,0.03 0.04,0.04 0.04,0.03 0.03,0.03 0.03,0.03 0.03,0.04 0.03,0.03 0.02,0.04 0.02,0.03 0.02,0.03 0.02,0.04 0.02,0.04 0.01,0.03 0.02,0.04 0.01,0.04 0.01,0.04 0.01,0.03 0.01,0.04 0,0.05 0,0.04 0.01,0.04 0,0.04 c 0,0.57 -0.5,0.99 -1.2,0.99 l -0.06,-0.19 c 0.48,0 0.78,-0.31 0.78,-0.79 0,-0.39 -0.2,-0.71 -0.6,-0.97 -0.03,-0.02 -0.03,-0.02 -0.06,-0.04 h 0 c -0.62,0.4 -0.87,0.72 -0.87,1.11 0,0.4 0.31,0.69 0.75,0.69 l 0.06,0.19 c -0.76,0 -1.32,-0.46 -1.32,-1.1 0,-0.45 0.13,-0.65 0.86,-1.29 -0.75,-0.57 -0.91,-0.79 -0.91,-1.26 0,-0.67 0.55,-1.15 1.34,-1.15 l 0.08,0.2 c -0.53,0 -0.89,0.4 -0.89,1.01 0,0.44 0.16,0.73 0.56,1.06 l 0.42,-0.31 c 0.51,-0.36 0.67,-0.61 0.67,-1 0,-0.45 -0.31,-0.76 -0.76,-0.76 l -0.08,-0.2 c 0.84,0 1.37,0.46 1.37,1.18 0,0.53 -0.23,0.88 -1.08,1.5 z"
         inkscape:connector-curvature="0"
         style="fill:#000000;stroke-width:0" /><polygon
         id="polygon5693"
         points="300.23,710.4 305.33,710.4 305.33,710.96 300.23,710.96 "
         style="fill:#000000;stroke-width:0" /><polygon
         id="polygon5695"
         points="300.23,708.39 305.33,708.39 305.33,708.94 300.23,708.94 "
         style="fill:#000000;stroke-width:0" /><path
         id="path5697"
         d="m 311.65,713.84 -0.06,-0.04 -0.07,-0.05 -0.06,-0.04 -0.06,-0.04 -0.06,-0.04 -0.06,-0.04 -0.05,-0.04 -0.05,-0.03 -0.05,-0.04 -0.05,-0.04 -0.05,-0.03 -0.05,-0.04 -0.04,-0.03 -0.04,-0.04 -0.08,-0.06 -0.08,-0.07 -0.08,-0.07 -0.07,-0.07 -0.07,-0.07 -0.06,-0.07 -0.07,-0.08 -0.07,-0.08 -0.07,-0.08 c -0.7,-0.87 -1.05,-1.86 -1.05,-3.02 0,-1.26 0.37,-2.24 1.24,-3.25 0.41,-0.48 0.67,-0.7 1.18,-1.01 l 0.12,0.16 c -0.79,0.62 -1.07,0.97 -1.34,1.71 -0.24,0.67 -0.35,1.42 -0.35,2.42 0,1.04 0.13,1.86 0.4,2.47 0.28,0.62 0.58,0.97 1.29,1.55 z"
         inkscape:connector-curvature="0"
         style="fill:#000000;stroke-width:0" /><path
         id="path5699"
         d="m 316.76,708.49 -0.13,0.05 c -0.36,-0.57 -0.49,-0.66 -0.94,-0.66 h -2.38 l 1.67,1.75 c 0.89,0.92 1.28,1.68 1.28,2.45 0,1 -0.81,1.76 -1.84,1.76 -0.55,0 -1.07,-0.22 -1.44,-0.62 -0.32,-0.33 -0.46,-0.65 -0.63,-1.36 l 0.2,-0.05 c 0.4,0.98 0.76,1.29 1.45,1.29 0.83,0 1.4,-0.56 1.4,-1.39 0,-0.78 -0.46,-1.7 -1.29,-2.59 l -1.77,-1.88 v -0.12 h 3.88 z"
         inkscape:connector-curvature="0"
         style="fill:#000000;stroke-width:0" /><path
         id="path5701"
         d="m 318.54,710.4 0.05,0 0.06,0 0.05,0 0.05,0 0.04,0 0.05,0 0.04,0 0.04,0 0.04,0 0.04,0 0.03,-0.01 0.04,0 0.03,0 0.04,0 0.03,-0.01 0.03,0 0.03,0 0.03,0 0.02,-0.01 0.03,0 0.03,-0.01 0.02,0 0.05,-0.01 0.05,-0.01 0.05,-0.02 0.04,-0.01 0.05,-0.02 c 0.61,-0.21 1,-0.78 1,-1.47 0,-0.83 -0.57,-1.48 -1.3,-1.48 -0.27,0 -0.47,0.07 -0.84,0.31 -0.3,0.18 -0.47,0.25 -0.63,0.25 -0.23,0 -0.38,-0.14 -0.38,-0.35 0,-0.35 0.42,-0.56 1.12,-0.56 0.77,0 1.55,0.25 2.02,0.66 0.47,0.41 0.73,0.99 0.73,1.65 0,0.51 -0.16,0.97 -0.45,1.28 -0.2,0.22 -0.39,0.34 -0.83,0.53 0.69,0.47 0.94,0.83 0.94,1.37 0,0.8 -0.64,1.36 -1.55,1.36 -0.5,0 -0.94,-0.17 -1.3,-0.49 -0.3,-0.26 -0.45,-0.52 -0.66,-1.12 l 0.15,-0.04 c 0.4,0.73 0.85,1.05 1.48,1.05 0.64,0 1.09,-0.43 1.09,-1.06 0,-0.36 -0.15,-0.71 -0.39,-0.96 -0.3,-0.3 -0.58,-0.45 -1.26,-0.69 z"
         inkscape:connector-curvature="0"
         style="fill:#000000;stroke-width:0" /><path
         id="path5703"
         d="m 326.44,713.92 -0.11,-0.01 -0.1,-0.01 -0.1,-0.01 -0.09,-0.01 -0.1,-0.01 -0.09,-0.02 -0.08,-0.01 -0.09,-0.02 -0.08,-0.01 -0.08,-0.02 -0.08,-0.01 -0.08,-0.02 -0.08,-0.02 -0.07,-0.02 -0.14,-0.04 -0.14,-0.05 -0.14,-0.06 -0.13,-0.06 -0.13,-0.06 -0.13,-0.07 -0.13,-0.08 -0.14,-0.08 -0.06,-0.05 -0.07,-0.05 c -1.08,-0.76 -1.66,-1.89 -1.66,-3.22 0,-0.87 0.27,-1.74 0.7,-2.24 0.37,-0.44 0.91,-0.67 1.53,-0.67 1.23,0 2.09,0.94 2.09,2.31 0,1.27 -0.73,2.08 -1.87,2.08 -0.44,0 -0.65,-0.07 -1.28,-0.45 l 0.03,-0.26 c 0.21,0.16 0.52,0.25 0.87,0.25 h 0 c 0.85,0 1.35,-0.72 1.35,-1.96 0,-1.09 -0.39,-1.7 -1.08,-1.7 -0.88,0 -1.42,0.94 -1.42,2.48 0,0.5 0.08,0.78 0.28,0.93 l -0.03,0.26 c 0.27,1.5 1.38,2.57 2.95,2.83 z"
         inkscape:connector-curvature="0"
         style="fill:#000000;stroke-width:0" /><path
         id="path5705"
         d="m 327.36,705.37 0.07,0.04 0.06,0.04 0.07,0.05 0.06,0.04 0.05,0.04 0.06,0.03 0.05,0.04 0.06,0.04 0.05,0.04 0.05,0.03 0.04,0.04 0.05,0.03 0.04,0.04 0.05,0.03 0.08,0.07 0.08,0.07 0.07,0.07 0.07,0.07 0.07,0.07 0.07,0.07 0.07,0.08 0.06,0.08 0.07,0.08 c 0.71,0.86 1.06,1.86 1.06,3.02 0,1.27 -0.37,2.23 -1.25,3.25 -0.4,0.47 -0.66,0.69 -1.18,1.01 l -0.12,-0.16 c 0.8,-0.63 1.06,-0.97 1.34,-1.72 0.24,-0.66 0.35,-1.42 0.35,-2.41 0,-1.03 -0.13,-1.86 -0.4,-2.46 -0.27,-0.63 -0.57,-0.99 -1.29,-1.56 z"
         inkscape:connector-curvature="0"
         style="fill:#000000;stroke-width:0" /><path
         id="path5707"
         d="m 332.32,708.21 0.06,0.04 0.06,0.03 0.06,0.03 0.06,0.04 0.05,0.03 0.05,0.03 0.05,0.03 0.05,0.04 0.04,0.03 0.04,0.03 0.04,0.03 0.04,0.04 0.03,0.03 0.03,0.03 0.04,0.03 0.02,0.04 0.03,0.03 0.03,0.04 0.02,0.03 0.02,0.03 0.02,0.04 0.01,0.04 0.02,0.03 0.01,0.04 0.01,0.04 0.01,0.04 0.01,0.03 0.01,0.04 0.01,0.05 0,0.04 0,0.04 0,0.04 c 0,0.57 -0.5,0.99 -1.2,0.99 L 332,710.14 c 0.47,0 0.77,-0.31 0.77,-0.79 0,-0.39 -0.19,-0.71 -0.59,-0.97 -0.04,-0.02 -0.04,-0.02 -0.06,-0.04 h 0 c -0.62,0.4 -0.87,0.72 -0.87,1.11 0,0.4 0.31,0.69 0.75,0.69 l 0.05,0.19 c -0.75,0 -1.32,-0.46 -1.32,-1.1 0,-0.45 0.13,-0.65 0.86,-1.29 -0.75,-0.57 -0.9,-0.79 -0.9,-1.26 0,-0.67 0.55,-1.15 1.34,-1.15 l 0.07,0.2 c -0.53,0 -0.88,0.4 -0.88,1.01 0,0.44 0.15,0.73 0.55,1.06 l 0.42,-0.31 c 0.51,-0.36 0.68,-0.61 0.68,-1 0,-0.45 -0.32,-0.76 -0.77,-0.76 l -0.07,-0.2 c 0.83,0 1.37,0.46 1.37,1.18 0,0.53 -0.24,0.88 -1.08,1.5 z"
         inkscape:connector-curvature="0"
         style="fill:#000000;stroke-width:0" /></g>    <text
       xml:space="preserve"
       style="font-size:12px;font-style:normal;font-variant:normal;font-weight:normal;font-stretch:normal;text-align:center;line-height:125%;letter-spacing:0px;word-spacing:0px;text-anchor:middle;fill:#333333;fill-opacity:1;stroke:none;font-family:LMRoman12;-inkscape-font-specification:Sans"
       x="120.2433"
       y="752.14612"
       id="text5786"
       sodipodi:linespacing="125%"><tspan
         sodipodi:role="line"
         id="tspan5788"
         x="120.2433"
         y="752.14612">1</tspan></text>
    <text
       sodipodi:linespacing="125%"
       id="text5790"
       y="791.28601"
       x="217.61002"
       style="font-size:12px;font-style:normal;font-variant:normal;font-weight:normal;font-stretch:normal;text-align:center;line-height:125%;letter-spacing:0px;word-spacing:0px;text-anchor:middle;fill:#000000;fill-opacity:1;stroke:none;font-family:LMRoman12;-inkscape-font-specification:Sans"
       xml:space="preserve"><tspan
         y="791.28601"
         x="217.61002"
         id="tspan5792"
         sodipodi:role="line">in octal</tspan></text>
    <g
       style="font-style:normal;font-variant:normal;font-weight:normal;font-stretch:normal;letter-spacing:normal;word-spacing:normal;text-anchor:start;fill:none;stroke:#000000;stroke-width:1;stroke-linecap:butt;stroke-linejoin:miter;stroke-miterlimit:10.43299961;stroke-opacity:1;stroke-dasharray:none;stroke-dashoffset:0"
       ns0:preamble="/home/sriranga/Desktop/Basic-Electronics-Figures/package.tex"
       ns0:text="$+$"
       word-spacing="normal"
       letter-spacing="normal"
       font-size-adjust="none"
       font-stretch="normal"
       font-weight="normal"
       font-variant="normal"
       font-style="normal"
       stroke-miterlimit="10.433"
       xml:space="preserve"
       transform="matrix(1.2,0,0,-1.2,-163.79068,1615.0932)"
       id="g2886"><polygon
         id="polygon2888"
         points="226.87,707.12 226.87,709.4 229.14,709.4 229.14,709.96 226.87,709.96 226.87,712.2 226.32,712.2 226.32,709.96 224.05,709.96 224.05,709.4 226.32,709.4 226.32,707.12 "
         style="fill:#000000;stroke-width:0" /></g>  </g>
</svg>
