<?xml version="1.0" encoding="UTF-8" standalone="no"?>
<!-- Created with Inkscape (http://www.inkscape.org/) -->

<svg
   xmlns:ns0="http://www.iki.fi/pav/software/textext/"
   xmlns:dc="http://purl.org/dc/elements/1.1/"
   xmlns:cc="http://creativecommons.org/ns#"
   xmlns:rdf="http://www.w3.org/1999/02/22-rdf-syntax-ns#"
   xmlns:svg="http://www.w3.org/2000/svg"
   xmlns="http://www.w3.org/2000/svg"
   xmlns:xlink="http://www.w3.org/1999/xlink"
   xmlns:sodipodi="http://sodipodi.sourceforge.net/DTD/sodipodi-0.dtd"
   xmlns:inkscape="http://www.inkscape.org/namespaces/inkscape"
   sodipodi:docname="fig7.svg"
   inkscape:version="0.48.4 r9939"
   version="1.1"
   id="svg2"
   height="1052.3622047"
   width="744.09448819">
  <sodipodi:namedview
     id="base"
     pagecolor="#ffffff"
     bordercolor="#666666"
     borderopacity="1.0"
     inkscape:pageopacity="0.0"
     inkscape:pageshadow="2"
     inkscape:zoom="0.56729519"
     inkscape:cx="372.04724"
     inkscape:cy="526.18109"
     inkscape:document-units="px"
     inkscape:current-layer="layer1"
     showgrid="false"
     inkscape:window-width="1366"
     inkscape:window-height="744"
     inkscape:window-x="0"
     inkscape:window-y="24"
     inkscape:window-maximized="1">
    <inkscape:grid
       type="xygrid"
       id="grid3743" />
  </sodipodi:namedview>
  <defs
     id="defs4">
    <marker
       style="overflow:visible;"
       id="Arrow1Mend"
       refX="0.0"
       refY="0.0"
       orient="auto"
       inkscape:stockid="Arrow1Mend">
      <path
         transform="scale(0.4) rotate(180) translate(10,0)"
         style="fill-rule:evenodd;stroke:#000000;stroke-width:1.0pt;marker-start:none;"
         d="M 0.0,0.0 L 5.0,-5.0 L -12.5,0.0 L 5.0,5.0 L 0.0,0.0 z "
         id="path3678" />
    </marker>
    <inkscape:perspective
       id="perspective10"
       inkscape:persp3d-origin="372.04724 : 350.78739 : 1"
       inkscape:vp_z="744.09448 : 526.18109 : 1"
       inkscape:vp_y="0 : 1000 : 0"
       inkscape:vp_x="0 : 526.18109 : 1"
       sodipodi:type="inkscape:persp3d" />
    <marker
       inkscape:stockid="Arrow1Mend"
       orient="auto"
       refY="0"
       refX="0"
       id="Arrow1Mend-0"
       style="overflow:visible">
      <path
         inkscape:connector-curvature="0"
         id="path3678-0"
         d="M 0,0 5,-5 -12.5,0 5,5 0,0 z"
         style="fill-rule:evenodd;stroke:#000000;stroke-width:1pt;marker-start:none"
         transform="matrix(-0.4,0,0,-0.4,-4,0)" />
    </marker>
    <marker
       inkscape:stockid="Arrow1Mend"
       orient="auto"
       refY="0"
       refX="0"
       id="marker4180"
       style="overflow:visible">
      <path
         inkscape:connector-curvature="0"
         id="path4182"
         d="M 0,0 5,-5 -12.5,0 5,5 0,0 z"
         style="fill-rule:evenodd;stroke:#000000;stroke-width:1pt;marker-start:none"
         transform="matrix(-0.4,0,0,-0.4,-4,0)" />
    </marker>
    <marker
       inkscape:stockid="Arrow1Mend"
       orient="auto"
       refY="0"
       refX="0"
       id="marker4184"
       style="overflow:visible">
      <path
         inkscape:connector-curvature="0"
         id="path4186"
         d="M 0,0 5,-5 -12.5,0 5,5 0,0 z"
         style="fill-rule:evenodd;stroke:#000000;stroke-width:1pt;marker-start:none"
         transform="matrix(-0.4,0,0,-0.4,-4,0)" />
    </marker>
    <marker
       inkscape:stockid="Arrow1Mend"
       orient="auto"
       refY="0"
       refX="0"
       id="marker4188"
       style="overflow:visible">
      <path
         inkscape:connector-curvature="0"
         id="path4190"
         d="M 0,0 5,-5 -12.5,0 5,5 0,0 z"
         style="fill-rule:evenodd;stroke:#000000;stroke-width:1pt;marker-start:none"
         transform="matrix(-0.4,0,0,-0.4,-4,0)" />
    </marker>
    <marker
       inkscape:stockid="Arrow1Mend"
       orient="auto"
       refY="0"
       refX="0"
       id="marker4192"
       style="overflow:visible">
      <path
         inkscape:connector-curvature="0"
         id="path4194"
         d="M 0,0 5,-5 -12.5,0 5,5 0,0 z"
         style="fill-rule:evenodd;stroke:#000000;stroke-width:1pt;marker-start:none"
         transform="matrix(-0.4,0,0,-0.4,-4,0)" />
    </marker>
    <marker
       inkscape:stockid="Arrow1Mend"
       orient="auto"
       refY="0"
       refX="0"
       id="marker4196"
       style="overflow:visible">
      <path
         inkscape:connector-curvature="0"
         id="path4198"
         d="M 0,0 5,-5 -12.5,0 5,5 0,0 z"
         style="fill-rule:evenodd;stroke:#000000;stroke-width:1pt;marker-start:none"
         transform="matrix(-0.4,0,0,-0.4,-4,0)" />
    </marker>
    <marker
       inkscape:stockid="Arrow1Mend"
       orient="auto"
       refY="0"
       refX="0"
       id="marker4200"
       style="overflow:visible">
      <path
         inkscape:connector-curvature="0"
         id="path4202"
         d="M 0,0 5,-5 -12.5,0 5,5 0,0 z"
         style="fill-rule:evenodd;stroke:#000000;stroke-width:1pt;marker-start:none"
         transform="matrix(-0.4,0,0,-0.4,-4,0)" />
    </marker>
  </defs>
  <metadata
     id="metadata7">
    <rdf:RDF>
      <cc:Work
         rdf:about="">
        <dc:format>image/svg+xml</dc:format>
        <dc:type
           rdf:resource="http://purl.org/dc/dcmitype/StillImage" />
        <dc:title></dc:title>
      </cc:Work>
    </rdf:RDF>
  </metadata>
  <g
     id="layer1"
     inkscape:groupmode="layer"
     inkscape:label="Layer 1">
    <text
       sodipodi:linespacing="125%"
       id="text2862"
       y="200.93359"
       x="123.92857"
       style="font-size:12px;font-style:normal;font-variant:normal;font-weight:normal;font-stretch:normal;line-height:125%;letter-spacing:0px;word-spacing:0px;fill:#000000;fill-opacity:1;stroke:none;font-family:LMRoman12;-inkscape-font-specification:LMRoman12"
       xml:space="preserve"><tspan
         y="200.93359"
         x="123.92857"
         id="tspan2864"
         sodipodi:role="line" /></text>
    <g
       id="g2886"
       ns0:preamble="/home/sriranga/Desktop/MCT/package.tex"
       ns0:text="$\\therefore\\quad (29)_{10}=(11101)_{2}$"
       transform="matrix(1.2,0,0,1.2,-11.428567,74.285715)">
      <defs
         id="defs2888">
        <g
           id="g2890">
          <symbol
             id="textext-286d14f4-0"
             overflow="visible"
             style="overflow:visible">
            <path
               id="path2893"
               d=""
               style="stroke:none"
               inkscape:connector-curvature="0" />
          </symbol>
          <symbol
             id="textext-286d14f4-1"
             overflow="visible"
             style="overflow:visible">
            <path
               id="path2896"
               d="m 3.671875,-4.4375 c 0,-0.28125 -0.25,-0.53125 -0.53125,-0.53125 -0.296875,0 -0.53125,0.25 -0.53125,0.53125 0,0.296875 0.234375,0.53125 0.53125,0.53125 0.28125,0 0.53125,-0.234375 0.53125,-0.53125 z M 5.65625,-0.46875 C 5.65625,-0.75 5.40625,-1 5.125,-1 c -0.296875,0 -0.53125,0.25 -0.53125,0.53125 0,0.296875 0.234375,0.53125 0.53125,0.53125 0.28125,0 0.53125,-0.234375 0.53125,-0.53125 z m -3.984375,0 C 1.671875,-0.75 1.4375,-1 1.140625,-1 0.84375,-1 0.625,-0.75 0.625,-0.46875 c 0,0.296875 0.21875,0.53125 0.515625,0.53125 0.296875,0 0.53125,-0.234375 0.53125,-0.53125 z m 0,0"
               style="stroke:none"
               inkscape:connector-curvature="0" />
          </symbol>
          <symbol
             id="textext-286d14f4-2"
             overflow="visible"
             style="overflow:visible">
            <path
               id="path2899"
               d=""
               style="stroke:none"
               inkscape:connector-curvature="0" />
          </symbol>
          <symbol
             id="textext-286d14f4-3"
             overflow="visible"
             style="overflow:visible">
            <path
               id="path2902"
               d="M 2.9375,-6.734375 C 2.203125,-6.265625 1.90625,-6 1.53125,-5.546875 c -0.703125,0.875 -1.046875,1.875 -1.046875,3.03125 0,1.265625 0.359375,2.25 1.234375,3.265625 0.421875,0.46875 0.671875,0.703125 1.1875,1.015625 l 0.125,-0.15625 C 2.234375,0.984375 1.953125,0.625 1.6875,-0.125 1.453125,-0.78125 1.328125,-1.546875 1.328125,-2.546875 1.328125,-3.59375 1.46875,-4.40625 1.734375,-5.03125 2.015625,-5.640625 2.3125,-6 3.03125,-6.578125 L 2.9375,-6.734375 z m 0,0"
               style="stroke:none"
               inkscape:connector-curvature="0" />
          </symbol>
          <symbol
             id="textext-286d14f4-4"
             overflow="visible"
             style="overflow:visible">
            <path
               id="path2905"
               d="m 4.734375,-1.359375 -0.125,-0.0625 C 4.234375,-0.84375 4.109375,-0.75 3.65625,-0.75 l -2.375,0 1.671875,-1.765625 c 0.890625,-0.921875 1.28125,-1.6875 1.28125,-2.453125 0,-1 -0.8125,-1.765625 -1.859375,-1.765625 -0.546875,0 -1.0625,0.21875 -1.421875,0.609375 C 0.625,-5.78125 0.484375,-5.46875 0.3125,-4.75 l 0.203125,0.046875 C 0.921875,-5.6875 1.28125,-6 1.96875,-6 2.796875,-6 3.375,-5.4375 3.375,-4.59375 3.375,-3.8125 2.90625,-2.890625 2.078125,-2 l -1.78125,1.875 0,0.125 3.890625,0 0.546875,-1.359375 z m 0,0"
               style="stroke:none"
               inkscape:connector-curvature="0" />
          </symbol>
          <symbol
             id="textext-286d14f4-5"
             overflow="visible"
             style="overflow:visible">
            <path
               id="path2908"
               d="m 0.59375,0.21875 c 1.109375,-0.125 1.65625,-0.3125 2.34375,-0.8125 1.03125,-0.75 1.640625,-1.984375 1.640625,-3.328125 0,-1.65625 -0.921875,-2.8125 -2.203125,-2.8125 -1.1875,0 -2.078125,1 -2.078125,2.34375 0,1.21875 0.71875,2.03125 1.796875,2.03125 0.546875,0 0.96875,-0.15625 1.5,-0.578125 C 3.1875,-1.3125 2.078125,-0.234375 0.5625,0.015625 L 0.59375,0.21875 z m 3.015625,-3.75 c 0,0.1875 -0.046875,0.28125 -0.15625,0.375 -0.265625,0.234375 -0.640625,0.359375 -1,0.359375 -0.765625,0 -1.234375,-0.734375 -1.234375,-1.921875 0,-0.578125 0.15625,-1.171875 0.359375,-1.4375 C 1.75,-6.34375 2,-6.453125 2.296875,-6.453125 c 0.859375,0 1.3125,0.84375 1.3125,2.53125 l 0,0.390625 z m 0,0"
               style="stroke:none"
               inkscape:connector-curvature="0" />
          </symbol>
          <symbol
             id="textext-286d14f4-6"
             overflow="visible"
             style="overflow:visible">
            <path
               id="path2911"
               d="M 0.375,1.765625 C 1.109375,1.28125 1.421875,1.03125 1.78125,0.5625 2.5,-0.296875 2.84375,-1.296875 2.84375,-2.46875 c 0,-1.265625 -0.375,-2.234375 -1.25,-3.25 C 1.1875,-6.203125 0.921875,-6.421875 0.40625,-6.734375 l -0.109375,0.15625 c 0.796875,0.625 1.0625,0.96875 1.34375,1.71875 0.234375,0.671875 0.34375,1.4375 0.34375,2.421875 0,1.046875 -0.125,1.875 -0.40625,2.484375 C 1.3125,0.671875 1,1.03125 0.296875,1.609375 L 0.375,1.765625 z m 0,0"
               style="stroke:none"
               inkscape:connector-curvature="0" />
          </symbol>
          <symbol
             id="textext-286d14f4-7"
             overflow="visible"
             style="overflow:visible">
            <path
               id="path2914"
               d="m 2.90625,-6.734375 -1.796875,0.90625 0,0.140625 C 1.21875,-5.734375 1.328125,-5.78125 1.375,-5.796875 1.5625,-5.875 1.71875,-5.90625 1.828125,-5.90625 2.03125,-5.90625 2.125,-5.765625 2.125,-5.4375 l 0,4.515625 c 0,0.328125 -0.078125,0.546875 -0.234375,0.640625 -0.15625,0.09375 -0.296875,0.125 -0.71875,0.125 l 0,0.15625 2.75,0 0,-0.15625 c -0.78125,0 -0.9375,-0.109375 -0.9375,-0.578125 l 0,-5.984375 -0.078125,-0.015625 z m 0,0"
               style="stroke:none"
               inkscape:connector-curvature="0" />
          </symbol>
          <symbol
             id="textext-286d14f4-8"
             overflow="visible"
             style="overflow:visible">
            <path
               id="path2917"
               d="m 2.53125,-6.734375 c -0.546875,0 -0.96875,0.171875 -1.328125,0.515625 -0.578125,0.5625 -0.96875,1.703125 -0.96875,2.875 0,1.078125 0.328125,2.25 0.796875,2.8125 0.375,0.4375 0.875,0.671875 1.46875,0.671875 0.5,0 0.921875,-0.171875 1.28125,-0.515625 C 4.359375,-0.921875 4.75,-2.078125 4.75,-3.296875 c 0,-2.03125 -0.90625,-3.4375 -2.21875,-3.4375 z m -0.03125,0.25 c 0.84375,0 1.28125,1.125 1.28125,3.21875 0,2.078125 -0.4375,3.140625 -1.28125,3.140625 -0.859375,0 -1.296875,-1.0625 -1.296875,-3.140625 0,-2.109375 0.4375,-3.21875 1.296875,-3.21875 z m 0,0"
               style="stroke:none"
               inkscape:connector-curvature="0" />
          </symbol>
          <symbol
             id="textext-286d14f4-9"
             overflow="visible"
             style="overflow:visible">
            <path
               id="path2920"
               d=""
               style="stroke:none"
               inkscape:connector-curvature="0" />
          </symbol>
          <symbol
             id="textext-286d14f4-10"
             overflow="visible"
             style="overflow:visible">
            <path
               id="path2923"
               d="m 2.03125,-4.703125 -1.25,0.625 0,0.09375 c 0.078125,-0.03125 0.15625,-0.0625 0.1875,-0.078125 0.125,-0.046875 0.234375,-0.0625 0.3125,-0.0625 0.140625,0 0.203125,0.09375 0.203125,0.3125 l 0,3.171875 c 0,0.21875 -0.0625,0.375 -0.171875,0.453125 -0.09375,0.0625 -0.203125,0.078125 -0.484375,0.078125 L 0.828125,0 2.75,0 l 0,-0.109375 c -0.5625,0 -0.671875,-0.078125 -0.671875,-0.40625 l 0,-4.1875 -0.046875,0 z m 0,0"
               style="stroke:none"
               inkscape:connector-curvature="0" />
          </symbol>
          <symbol
             id="textext-286d14f4-11"
             overflow="visible"
             style="overflow:visible">
            <path
               id="path2926"
               d="m 1.765625,-4.703125 c -0.375,0 -0.671875,0.109375 -0.921875,0.359375 -0.40625,0.390625 -0.671875,1.1875 -0.671875,2 0,0.765625 0.21875,1.578125 0.546875,1.96875 0.265625,0.3125 0.625,0.46875 1.015625,0.46875 0.359375,0 0.65625,-0.109375 0.90625,-0.359375 0.40625,-0.375 0.671875,-1.1875 0.671875,-2.03125 0,-1.4375 -0.625,-2.40625 -1.546875,-2.40625 z M 1.75,-4.53125 c 0.578125,0 0.890625,0.78125 0.890625,2.25 0,1.453125 -0.296875,2.203125 -0.90625,2.203125 -0.59375,0 -0.890625,-0.75 -0.890625,-2.203125 0,-1.46875 0.3125,-2.25 0.90625,-2.25 z m 0,0"
               style="stroke:none"
               inkscape:connector-curvature="0" />
          </symbol>
          <symbol
             id="textext-286d14f4-12"
             overflow="visible"
             style="overflow:visible">
            <path
               id="path2929"
               d="M 3.3125,-0.953125 3.21875,-0.984375 C 2.96875,-0.59375 2.875,-0.53125 2.5625,-0.53125 l -1.671875,0 L 2.0625,-1.75 c 0.625,-0.65625 0.890625,-1.1875 0.890625,-1.734375 0,-0.6875 -0.5625,-1.21875 -1.28125,-1.21875 -0.390625,0 -0.75,0.140625 -1.015625,0.421875 -0.21875,0.234375 -0.328125,0.46875 -0.4375,0.953125 l 0.140625,0.03125 C 0.640625,-3.96875 0.890625,-4.1875 1.375,-4.1875 c 0.578125,0 0.984375,0.390625 0.984375,0.96875 0,0.546875 -0.328125,1.203125 -0.90625,1.8125 l -1.25,1.328125 0,0.078125 2.71875,0 0.390625,-0.953125 z m 0,0"
               style="stroke:none"
               inkscape:connector-curvature="0" />
          </symbol>
          <symbol
             id="textext-286d14f4-13"
             overflow="visible"
             style="overflow:visible">
            <path
               id="path2932"
               d=""
               style="stroke:none"
               inkscape:connector-curvature="0" />
          </symbol>
          <symbol
             id="textext-286d14f4-14"
             overflow="visible"
             style="overflow:visible">
            <path
               id="path2935"
               d="m 5.71875,-3.296875 0,-0.546875 -5.09375,0 0,0.546875 5.09375,0 z m 0,2.03125 0,-0.5625 -5.09375,0 0,0.5625 5.09375,0 z m 0,0"
               style="stroke:none"
               inkscape:connector-curvature="0" />
          </symbol>
        </g>
      </defs>
      <g
         id="textext-286d14f4-15">
        <g
           id="g2938"
           style="fill:#000000;fill-opacity:1">
          <use
             id="use2940"
             y="134.765"
             x="223.43201"
             xlink:href="#textext-286d14f4-1"
             width="744.09448"
             height="1052.3622" />
        </g>
        <g
           id="g2942"
           style="fill:#000000;fill-opacity:1">
          <use
             id="use2944"
             y="134.765"
             x="242.429"
             xlink:href="#textext-286d14f4-3"
             width="744.09448"
             height="1052.3622" />
          <use
             id="use2946"
             y="134.765"
             x="245.74655"
             xlink:href="#textext-286d14f4-4"
             width="744.09448"
             height="1052.3622" />
          <use
             id="use2948"
             y="134.765"
             x="250.72784"
             xlink:href="#textext-286d14f4-5"
             width="744.09448"
             height="1052.3622" />
          <use
             id="use2950"
             y="134.765"
             x="255.70915"
             xlink:href="#textext-286d14f4-6"
             width="744.09448"
             height="1052.3622" />
        </g>
        <g
           id="g2952"
           style="fill:#000000;fill-opacity:1">
          <use
             id="use2954"
             y="136.259"
             x="259.026"
             xlink:href="#textext-286d14f4-10"
             width="744.09448"
             height="1052.3622" />
          <use
             id="use2956"
             y="136.259"
             x="262.51291"
             xlink:href="#textext-286d14f4-11"
             width="744.09448"
             height="1052.3622" />
        </g>
        <g
           id="g2958"
           style="fill:#000000;fill-opacity:1">
          <use
             id="use2960"
             y="134.765"
             x="269.26599"
             xlink:href="#textext-286d14f4-14"
             width="744.09448"
             height="1052.3622" />
        </g>
        <g
           id="g2962"
           style="fill:#000000;fill-opacity:1">
          <use
             id="use2964"
             y="134.765"
             x="278.36899"
             xlink:href="#textext-286d14f4-3"
             width="744.09448"
             height="1052.3622" />
          <use
             id="use2966"
             y="134.765"
             x="281.68655"
             xlink:href="#textext-286d14f4-7"
             width="744.09448"
             height="1052.3622" />
          <use
             id="use2968"
             y="134.765"
             x="286.66785"
             xlink:href="#textext-286d14f4-7"
             width="744.09448"
             height="1052.3622" />
          <use
             id="use2970"
             y="134.765"
             x="291.64914"
             xlink:href="#textext-286d14f4-7"
             width="744.09448"
             height="1052.3622" />
          <use
             id="use2972"
             y="134.765"
             x="296.63043"
             xlink:href="#textext-286d14f4-8"
             width="744.09448"
             height="1052.3622" />
          <use
             id="use2974"
             y="134.765"
             x="301.61176"
             xlink:href="#textext-286d14f4-7"
             width="744.09448"
             height="1052.3622" />
          <use
             id="use2976"
             y="134.765"
             x="306.59305"
             xlink:href="#textext-286d14f4-6"
             width="744.09448"
             height="1052.3622" />
        </g>
        <g
           id="g2978"
           style="fill:#000000;fill-opacity:1">
          <use
             id="use2980"
             y="136.259"
             x="309.91101"
             xlink:href="#textext-286d14f4-12"
             width="744.09448"
             height="1052.3622" />
        </g>
      </g>
    </g>
    <text
       xml:space="preserve"
       style="font-size:12px;font-style:normal;font-variant:normal;font-weight:normal;font-stretch:normal;line-height:125%;letter-spacing:0px;word-spacing:0px;fill:#000000;fill-opacity:1;stroke:none;font-family:LMRoman12;-inkscape-font-specification:LMRoman12"
       x="254.06512"
       y="145.57648"
       id="text2816-3"
       sodipodi:linespacing="125%"><tspan
         sodipodi:role="line"
         id="tspan2818-8"
         x="254.06512"
         y="145.57648">2</tspan></text>
    <path
       style="color:#000000;fill:none;stroke:#000000;stroke-width:1px;stroke-linecap:butt;stroke-linejoin:miter;stroke-miterlimit:4;stroke-opacity:1;stroke-dasharray:none;stroke-dashoffset:0;marker:none;visibility:visible;display:inline;overflow:visible;enable-background:accumulate"
       d="m 264.06512,135.57647 0,15.00001 19.63745,-1e-5"
       id="path2820-5"
       sodipodi:nodetypes="ccc"
       inkscape:connector-curvature="0" />
    <text
       xml:space="preserve"
       style="font-size:12px;font-style:normal;font-variant:normal;font-weight:normal;font-stretch:normal;line-height:125%;letter-spacing:0px;word-spacing:0px;fill:#000000;fill-opacity:1;stroke:none;font-family:LMRoman12;-inkscape-font-specification:LMRoman12"
       x="269.06512"
       y="145.57648"
       id="text2822-9"
       sodipodi:linespacing="125%"><tspan
         sodipodi:role="line"
         id="tspan2824-0"
         x="269.06512"
         y="145.57648">29</tspan></text>
    <text
       sodipodi:linespacing="125%"
       id="text2828-2"
       y="162.07141"
       x="258.06512"
       style="font-size:12px;font-style:normal;font-variant:normal;font-weight:normal;font-stretch:normal;line-height:125%;letter-spacing:0px;word-spacing:0px;fill:#000000;fill-opacity:1;stroke:none;font-family:LMRoman12;-inkscape-font-specification:LMRoman12"
       xml:space="preserve"><tspan
         y="162.07141"
         x="258.06512"
         id="tspan2830-1"
         sodipodi:role="line">2</tspan></text>
    <text
       xml:space="preserve"
       style="font-size:12px;font-style:normal;font-variant:normal;font-weight:normal;font-stretch:normal;line-height:125%;letter-spacing:0px;word-spacing:0px;fill:#000000;fill-opacity:1;stroke:none;font-family:LMRoman12;-inkscape-font-specification:LMRoman12"
       x="269.06512"
       y="162.07141"
       id="text2832-8"
       sodipodi:linespacing="125%"><tspan
         sodipodi:role="line"
         id="tspan2834-5"
         x="269.06512"
         y="162.07141">14</tspan></text>
    <text
       xml:space="preserve"
       style="font-size:12px;font-style:normal;font-variant:normal;font-weight:normal;font-stretch:normal;line-height:125%;letter-spacing:0px;word-spacing:0px;fill:#000000;fill-opacity:1;stroke:none;font-family:LMRoman12;-inkscape-font-specification:LMRoman12"
       x="261.06512"
       y="177.07141"
       id="text2838-6"
       sodipodi:linespacing="125%"><tspan
         sodipodi:role="line"
         id="tspan2840-8"
         x="261.06512"
         y="177.07141">2</tspan></text>
    <text
       xml:space="preserve"
       style="font-size:12px;font-style:normal;font-variant:normal;font-weight:normal;font-stretch:normal;line-height:125%;letter-spacing:0px;word-spacing:0px;fill:#000000;fill-opacity:1;stroke:none;font-family:LMRoman12;-inkscape-font-specification:LMRoman12"
       x="273.83841"
       y="177.07141"
       id="text2842-7"
       sodipodi:linespacing="125%"><tspan
         sodipodi:role="line"
         id="tspan2844-4"
         x="273.83841"
         y="177.07141">7</tspan></text>
    <text
       sodipodi:linespacing="125%"
       id="text2848-9"
       y="192.07141"
       x="264.06512"
       style="font-size:12px;font-style:normal;font-variant:normal;font-weight:normal;font-stretch:normal;line-height:125%;letter-spacing:0px;word-spacing:0px;fill:#000000;fill-opacity:1;stroke:none;font-family:LMRoman12;-inkscape-font-specification:LMRoman12"
       xml:space="preserve"><tspan
         y="192.07141"
         x="264.06512"
         id="tspan2850-7"
         sodipodi:role="line">2</tspan></text>
    <text
       xml:space="preserve"
       style="font-size:12px;font-style:normal;font-variant:normal;font-weight:normal;font-stretch:normal;line-height:125%;letter-spacing:0px;word-spacing:0px;fill:#000000;fill-opacity:1;stroke:none;font-family:LMRoman12;-inkscape-font-specification:LMRoman12"
       x="276.06512"
       y="192.07141"
       id="text2852-2"
       sodipodi:linespacing="125%"><tspan
         sodipodi:role="line"
         id="tspan2854-7"
         x="276.06512"
         y="192.07141">3</tspan></text>
    <text
       xml:space="preserve"
       style="font-size:12px;font-style:normal;font-variant:normal;font-weight:normal;font-stretch:normal;line-height:125%;letter-spacing:0px;word-spacing:0px;fill:#000000;fill-opacity:1;stroke:none;font-family:LMRoman12;-inkscape-font-specification:LMRoman12"
       x="276.06512"
       y="205.57648"
       id="text2862-1"
       sodipodi:linespacing="125%"><tspan
         sodipodi:role="line"
         id="tspan2864-9"
         x="276.06512"
         y="205.57648">1</tspan></text>
    <text
       xml:space="preserve"
       style="font-size:12px;font-style:normal;font-variant:normal;font-weight:normal;font-stretch:normal;line-height:125%;letter-spacing:0px;word-spacing:0px;fill:#000000;fill-opacity:1;stroke:none;font-family:LMRoman12;-inkscape-font-specification:LMRoman12"
       x="312.5838"
       y="143.43362"
       id="text2876-0"
       sodipodi:linespacing="125%"><tspan
         sodipodi:role="line"
         id="tspan2878-1"
         x="312.5838"
         y="143.43362">Remainder</tspan></text>
    <text
       xml:space="preserve"
       style="font-size:12px;font-style:normal;font-variant:normal;font-weight:normal;font-stretch:normal;line-height:125%;letter-spacing:0px;word-spacing:0px;fill:#000000;fill-opacity:1;stroke:none;font-family:LMRoman12;-inkscape-font-specification:LMRoman12"
       x="334.65524"
       y="159.86214"
       id="text2880-5"
       sodipodi:linespacing="125%"><tspan
         sodipodi:role="line"
         id="tspan2882-9"
         x="334.65524"
         y="159.86214">1</tspan><tspan
         sodipodi:role="line"
         x="334.65524"
         y="174.86214"
         id="tspan2884-6">0</tspan><tspan
         sodipodi:role="line"
         x="334.65524"
         y="189.86214"
         id="tspan2886">1</tspan><tspan
         sodipodi:role="line"
         x="334.65524"
         y="204.86214"
         id="tspan2888-2">1</tspan><tspan
         sodipodi:role="line"
         x="334.65524"
         y="219.86214"
         id="tspan2859">1</tspan></text>
    <path
       style="color:#000000;fill:none;stroke:#000000;stroke-width:1px;stroke-linecap:butt;stroke-linejoin:miter;stroke-miterlimit:4;stroke-opacity:1;stroke-dasharray:none;stroke-dashoffset:0;marker:none;marker-end:url(#Arrow1Mend);visibility:visible;display:inline;overflow:visible;enable-background:accumulate"
       d="m 292.72665,157.00504 34.28571,0"
       id="path2892-9"
       sodipodi:nodetypes="cc"
       inkscape:connector-curvature="0" />
    <path
       sodipodi:nodetypes="cc"
       id="path2850"
       d="m 292.72665,172.00504 34.28571,0"
       style="color:#000000;fill:none;stroke:#000000;stroke-width:1px;stroke-linecap:butt;stroke-linejoin:miter;stroke-miterlimit:4;stroke-opacity:1;stroke-dasharray:none;stroke-dashoffset:0;marker:none;marker-end:url(#Arrow1Mend);visibility:visible;display:inline;overflow:visible;enable-background:accumulate"
       inkscape:connector-curvature="0" />
    <path
       style="color:#000000;fill:none;stroke:#000000;stroke-width:1px;stroke-linecap:butt;stroke-linejoin:miter;stroke-miterlimit:4;stroke-opacity:1;stroke-dasharray:none;stroke-dashoffset:0;marker:none;marker-end:url(#Arrow1Mend);visibility:visible;display:inline;overflow:visible;enable-background:accumulate"
       d="m 292.72665,187.00504 34.28571,0"
       id="path2852"
       sodipodi:nodetypes="cc"
       inkscape:connector-curvature="0" />
    <path
       sodipodi:nodetypes="cc"
       id="path2854"
       d="m 292.72665,202.00504 34.28571,0"
       style="color:#000000;fill:none;stroke:#000000;stroke-width:1px;stroke-linecap:butt;stroke-linejoin:miter;stroke-miterlimit:4;stroke-opacity:1;stroke-dasharray:none;stroke-dashoffset:0;marker:none;marker-end:url(#Arrow1Mend);visibility:visible;display:inline;overflow:visible;enable-background:accumulate"
       inkscape:connector-curvature="0" />
    <path
       sodipodi:nodetypes="ccc"
       id="path2861"
       d="m 279.18404,209.1479 0.15651,7.85714 44.72457,0"
       style="color:#000000;fill:none;stroke:#000000;stroke-width:1px;stroke-linecap:butt;stroke-linejoin:miter;stroke-miterlimit:4;stroke-opacity:1;stroke-dasharray:none;stroke-dashoffset:0;marker:none;marker-end:url(#Arrow1Mend);visibility:visible;display:inline;overflow:visible;enable-background:accumulate"
       inkscape:connector-curvature="0" />
    <path
       sodipodi:nodetypes="cc"
       id="path2858"
       d="m 354.72665,217.71932 0,-67.29904"
       style="color:#000000;fill:none;stroke:#000000;stroke-width:1px;stroke-linecap:butt;stroke-linejoin:miter;stroke-miterlimit:4;stroke-opacity:1;stroke-dasharray:none;stroke-dashoffset:0;marker:none;marker-end:url(#Arrow1Mend);visibility:visible;display:inline;overflow:visible;enable-background:accumulate"
       inkscape:connector-curvature="0" />
    <path
       inkscape:connector-curvature="0"
       sodipodi:nodetypes="ccc"
       id="path3804"
       d="m 267.06512,150.57646 0,15.00001 17.96436,0"
       style="color:#000000;fill:none;stroke:#000000;stroke-width:1px;stroke-linecap:butt;stroke-linejoin:miter;stroke-miterlimit:4;stroke-opacity:1;stroke-dasharray:none;stroke-dashoffset:0;marker:none;visibility:visible;display:inline;overflow:visible;enable-background:accumulate" />
    <path
       style="color:#000000;fill:none;stroke:#000000;stroke-width:1px;stroke-linecap:butt;stroke-linejoin:miter;stroke-miterlimit:4;stroke-opacity:1;stroke-dasharray:none;stroke-dashoffset:0;marker:none;visibility:visible;display:inline;overflow:visible;enable-background:accumulate"
       d="m 270.06512,165.57647 0,15.00001 15.92872,-1e-5"
       id="path3806"
       sodipodi:nodetypes="ccc"
       inkscape:connector-curvature="0" />
    <path
       inkscape:connector-curvature="0"
       sodipodi:nodetypes="ccc"
       id="path3808"
       d="m 273.06512,180.57646 0,15.00001 14.4109,0"
       style="color:#000000;fill:none;stroke:#000000;stroke-width:1px;stroke-linecap:butt;stroke-linejoin:miter;stroke-miterlimit:4;stroke-opacity:1;stroke-dasharray:none;stroke-dashoffset:0;marker:none;visibility:visible;display:inline;overflow:visible;enable-background:accumulate" />
  </g>
</svg>
