<?xml version="1.0" encoding="UTF-8" standalone="no"?>
<!-- Created with Inkscape (http://www.inkscape.org/) -->

<svg
   xmlns:ns0="http://www.iki.fi/pav/software/textext/"
   xmlns:dc="http://purl.org/dc/elements/1.1/"
   xmlns:cc="http://creativecommons.org/ns#"
   xmlns:rdf="http://www.w3.org/1999/02/22-rdf-syntax-ns#"
   xmlns:svg="http://www.w3.org/2000/svg"
   xmlns="http://www.w3.org/2000/svg"
   xmlns:sodipodi="http://sodipodi.sourceforge.net/DTD/sodipodi-0.dtd"
   xmlns:inkscape="http://www.inkscape.org/namespaces/inkscape"
   sodipodi:docname="fig79_6.5.eps"
   inkscape:version="0.48.4 r9939"
   version="1.1"
   id="svg2"
   height="354.33069"
   width="496.06299">
  <sodipodi:namedview
     id="base"
     pagecolor="#ffffff"
     bordercolor="#666666"
     borderopacity="1.0"
     inkscape:pageopacity="0.0"
     inkscape:pageshadow="2"
     inkscape:zoom="1.6848668"
     inkscape:cx="289.09966"
     inkscape:cy="212.36488"
     inkscape:document-units="cm"
     inkscape:current-layer="layer1"
     showgrid="false"
     units="cm"
     inkscape:window-width="1366"
     inkscape:window-height="744"
     inkscape:window-x="0"
     inkscape:window-y="24"
     inkscape:window-maximized="1"
     showguides="true"
     inkscape:guide-bbox="true"
     inkscape:object-nodes="true">
    <inkscape:grid
       snapvisiblegridlinesonly="true"
       enabled="true"
       visible="true"
       empspacing="5"
       id="grid2985"
       type="xygrid" />
  </sodipodi:namedview>
  <defs
     id="defs4">
    <marker
       style="overflow:visible"
       id="Arrow2Sstart"
       refX="0.0"
       refY="0.0"
       orient="auto"
       inkscape:stockid="Arrow2Sstart">
      <path
         transform="scale(0.3) translate(-2.3,0)"
         d="M 8.7185878,4.0337352 L -2.2072895,0.016013256 L 8.7185884,-4.0017078 C 6.9730900,-1.6296469 6.9831476,1.6157441 8.7185878,4.0337352 z "
         style="fill-rule:evenodd;stroke-width:0.62500000;stroke-linejoin:round"
         id="path4185" />
    </marker>
    <marker
       style="overflow:visible"
       id="Arrow1Mstart"
       refX="0.0"
       refY="0.0"
       orient="auto"
       inkscape:stockid="Arrow1Mstart">
      <path
         transform="scale(0.4) translate(10,0)"
         style="fill-rule:evenodd;stroke:#000000;stroke-width:1.0pt"
         d="M 0.0,0.0 L 5.0,-5.0 L -12.5,0.0 L 5.0,5.0 L 0.0,0.0 z "
         id="path4161" />
    </marker>
    <marker
       style="overflow:visible"
       id="Arrow1Mstartf"
       refX="0.0"
       refY="0.0"
       orient="auto"
       inkscape:stockid="Arrow1Mstartf">
      <path
         transform="scale(0.4) translate(10,0)"
         style="stroke:#4d4d4d;stroke-width:1.0pt;fill:#4d4d4d;fill-rule:evenodd"
         d="M 0.0,0.0 L 5.0,-5.0 L -12.5,0.0 L 5.0,5.0 L 0.0,0.0 z "
         id="path8071" />
    </marker>
    <marker
       style="overflow:visible"
       id="Arrow1Mstart8"
       refX="0.0"
       refY="0.0"
       orient="auto"
       inkscape:stockid="Arrow1Mstart8">
      <path
         transform="scale(0.4) translate(10,0)"
         style="stroke:#4d4d4d;stroke-width:1.0pt;fill:#4d4d4d;fill-rule:evenodd"
         d="M 0.0,0.0 L 5.0,-5.0 L -12.5,0.0 L 5.0,5.0 L 0.0,0.0 z "
         id="path8074" />
    </marker>
    <marker
       style="overflow:visible"
       id="Arrow1MstartL"
       refX="0.0"
       refY="0.0"
       orient="auto"
       inkscape:stockid="Arrow1MstartL">
      <path
         transform="scale(0.4) translate(10,0)"
         style="stroke:#4d4d4d;stroke-width:1.0pt;fill:#4d4d4d;fill-rule:evenodd"
         d="M 0.0,0.0 L 5.0,-5.0 L -12.5,0.0 L 5.0,5.0 L 0.0,0.0 z "
         id="path13536" />
    </marker>
    <marker
       style="overflow:visible"
       id="Arrow1Mstartx"
       refX="0.0"
       refY="0.0"
       orient="auto"
       inkscape:stockid="Arrow1Mstartx">
      <path
         transform="scale(0.4) translate(10,0)"
         style="stroke:#4d4d4d;stroke-width:1.0pt;fill:#4d4d4d;fill-rule:evenodd"
         d="M 0.0,0.0 L 5.0,-5.0 L -12.5,0.0 L 5.0,5.0 L 0.0,0.0 z "
         id="path13539" />
    </marker>
    <marker
       style="overflow:visible;"
       id="Arrow1Mend"
       refX="0.0"
       refY="0.0"
       orient="auto"
       inkscape:stockid="Arrow1Mend">
      <path
         transform="scale(0.4) rotate(180) translate(10,0)"
         style="fill-rule:evenodd;stroke:#000000;stroke-width:1.0pt;"
         d="M 0.0,0.0 L 5.0,-5.0 L -12.5,0.0 L 5.0,5.0 L 0.0,0.0 z "
         id="path3823" />
    </marker>
    <marker
       style="overflow:visible;"
       id="Arrow1Mend-1"
       refX="0.0"
       refY="0.0"
       orient="auto"
       inkscape:stockid="Arrow1Mend">
      <path
         transform="scale(0.4) rotate(180) translate(10,0)"
         style="fill-rule:evenodd;stroke:#000000;stroke-width:1.0pt;"
         d="M 0.0,0.0 L 5.0,-5.0 L -12.5,0.0 L 5.0,5.0 L 0.0,0.0 z "
         id="path3823-8" />
    </marker>
  </defs>
  <metadata
     id="metadata7">
    <rdf:RDF>
      <cc:Work
         rdf:about="">
        <dc:format>image/svg+xml</dc:format>
        <dc:type
           rdf:resource="http://purl.org/dc/dcmitype/StillImage" />
        <dc:title></dc:title>
      </cc:Work>
    </rdf:RDF>
  </metadata>
  <g
     transform="translate(0,-698.03017)"
     id="layer1"
     inkscape:groupmode="layer"
     inkscape:label="Layer 1">
    <path
       style="fill:none;stroke:#000000;stroke-width:1.20000005;stroke-linecap:butt;stroke-linejoin:round;stroke-miterlimit:4;stroke-opacity:1;stroke-dasharray:none"
       d="m 310,772.36086 0,24.82286 -4.91528,1.84379 10.1196,3.80952 -10.1196,3.80953 10.1196,3.80951 -10.1196,3.80953 10.1196,3.80952 -10.20432,3.82879 10,3.80952 -5,1.94646 0,24.70093"
       id="path5037"
       inkscape:connector-curvature="0"
       sodipodi:nodetypes="cccccccccccc" />
    <text
       xml:space="preserve"
       style="font-size:12px;font-style:normal;font-variant:normal;font-weight:normal;font-stretch:normal;text-align:center;line-height:125%;letter-spacing:0px;word-spacing:0px;text-anchor:middle;fill:#000000;fill-opacity:1;stroke:none;font-family:LMRoman12;-inkscape-font-specification:Sans"
       x="171.6088"
       y="790.89227"
       id="text3279"
       sodipodi:linespacing="125%"><tspan
         sodipodi:role="line"
         id="tspan3281"
         x="171.6088"
         y="790.89227" /></text>
    <g
       id="g3895"
       transform="matrix(1.2,0,0,-1.2,-112.11439,1764.5383)"
       xml:space="preserve"
       stroke-miterlimit="10.433"
       font-style="normal"
       font-variant="normal"
       font-weight="normal"
       font-stretch="normal"
       font-size-adjust="none"
       letter-spacing="normal"
       word-spacing="normal"
       ns0:text="$B$"
       ns0:preamble="/home/sriranga/Desktop/Basic-Electronics-Figures/package.tex"
       style="font-style:normal;font-variant:normal;font-weight:normal;font-stretch:normal;letter-spacing:normal;word-spacing:normal;text-anchor:start;fill:none;stroke:#000000;stroke-width:1;stroke-linecap:butt;stroke-linejoin:miter;stroke-miterlimit:10.43299961;stroke-opacity:1;stroke-dasharray:none;stroke-dashoffset:0"><path
         style="fill:#000000;stroke-width:0"
         inkscape:connector-curvature="0"
         d="m 223.7,707.12 h 2.81 c 1.56,0 2.63,0.82 2.63,1.99 0,0.37 -0.12,0.72 -0.34,0.94 -0.19,0.22 -0.39,0.34 -0.91,0.56 0.71,0.17 0.99,0.29 1.31,0.57 0.28,0.24 0.43,0.57 0.43,0.97 0,0.94 -0.7,1.46 -1.99,1.46 l -0.18,-0.3 c 0.8,0 1.17,-0.33 1.17,-1.07 0,-0.57 -0.24,-1 -0.67,-1.24 -0.34,-0.2 -0.82,-0.27 -1.71,-0.27 l -0.1,-0.32 c 0.65,0 1.06,-0.04 1.26,-0.12 0.41,-0.17 0.66,-0.6 0.66,-1.14 0,-1.07 -0.74,-1.73 -1.95,-1.73 -0.42,0 -0.64,0.15 -0.64,0.42 0,0.12 0.12,0.6 0.35,1.39 0.13,0.45 0.19,0.68 0.32,1.18 h 0 l 0.1,0.32 0.65,2.31 c 0.06,0.21 0.17,0.27 0.56,0.27 l 0.18,0.3 h -2.57 v -0.16 c 0.62,-0.05 0.77,-0.13 0.77,-0.4 0,-0.15 -0.04,-0.4 -0.11,-0.64 l -1.22,-4.39 c -0.18,-0.58 -0.25,-0.64 -0.81,-0.74 z"
         id="path3897" /></g>    <g
       id="g5003"
       transform="matrix(1.2,0,0,-1.2,-109.74031,1683.4339)"
       xml:space="preserve"
       stroke-miterlimit="10.433"
       font-style="normal"
       font-variant="normal"
       font-weight="normal"
       font-stretch="normal"
       font-size-adjust="none"
       letter-spacing="normal"
       word-spacing="normal"
       ns0:text="$A$"
       ns0:preamble="/home/sriranga/Desktop/Basic-Electronics-Figures/package.tex"
       style="font-style:normal;font-variant:normal;font-weight:normal;font-stretch:normal;letter-spacing:normal;word-spacing:normal;text-anchor:start;fill:none;stroke:#000000;stroke-width:1;stroke-linecap:butt;stroke-linejoin:miter;stroke-miterlimit:10.43299961;stroke-opacity:1;stroke-dasharray:none;stroke-dashoffset:0"><path
         style="fill:#000000;stroke-width:0"
         inkscape:connector-curvature="0"
         d="m 229.29,707.28 -0.05,0.01 -0.05,0 -0.04,0.01 -0.05,0.01 -0.04,0 -0.04,0.01 -0.03,0.01 -0.04,0.01 -0.03,0.01 -0.03,0.01 -0.03,0.01 -0.02,0.02 -0.03,0.01 -0.02,0.02 -0.02,0.02 -0.02,0.02 -0.02,0.02 -0.02,0.03 -0.01,0.02 -0.02,0.03 -0.01,0.03 -0.02,0.04 -0.01,0.04 -0.01,0.04 -0.01,0.04 -0.01,0.04 -0.02,0.05 -0.01,0.06 0,0.02 -0.01,0.03 0,0.03 -0.01,0.03 -0.01,0.03 0,0.03 -0.01,0.03 0,0.04 -0.94,5.62 h -0.26 l -2.88,-4.97 c -0.79,-1.32 -0.89,-1.43 -1.29,-1.51 v -0.16 h 1.86 v 0.16 c -0.5,0.05 -0.58,0.1 -0.58,0.35 0,0.19 0.03,0.28 0.2,0.62 l 0.56,1.12 h 2.19 l -0.05,0.36 h -1.93 l 1.49,2.58 0.44,-2.58 0.05,-0.36 0.2,-1.3 c 0.01,-0.09 0.02,-0.18 0.02,-0.26 0,-0.38 -0.14,-0.47 -0.77,-0.53 v -0.16 h 2.44 z"
         id="path5005" /></g>    <path
       inkscape:connector-curvature="0"
       id="path4573"
       d="m 160,842.36086 185.00001,0"
       style="fill:none;stroke:#000000;stroke-width:1.20000005;stroke-linecap:butt;stroke-linejoin:miter;stroke-miterlimit:4;stroke-opacity:1;stroke-dasharray:none;marker-end:none" />
    <path
       inkscape:transform-center-y="-2.4956507"
       transform="matrix(-0.8663152,0.49949776,0.49949776,0.8663152,367.90236,654.13713)"
       d="m 205,109.33069 -4.33013,-7.5 -4.33012,-7.500001 8.66025,-1e-6 8.66025,0 -4.33012,7.500002 z"
       inkscape:randomized="0"
       inkscape:rounded="0"
       inkscape:flatsided="false"
       sodipodi:arg2="2.6179939"
       sodipodi:arg1="1.5707963"
       sodipodi:r2="5"
       sodipodi:r1="10"
       sodipodi:cy="99.330688"
       sodipodi:cx="205"
       sodipodi:sides="3"
       id="path3768"
       style="fill:#ffffff;stroke:#000000;stroke-width:1.20000005;stroke-linecap:square;stroke-linejoin:round;stroke-miterlimit:4;stroke-opacity:1;stroke-dasharray:none;stroke-dashoffset:0"
       sodipodi:type="star"
       inkscape:transform-center-x="-0.0039629853" />
    <path
       transform="matrix(0,-1,1,0,213.16931,1159.8609)"
       d="m 390,96.830688 c 0,1.380712 -1.11929,2.5 -2.5,2.5 -1.38071,0 -2.5,-1.119288 -2.5,-2.5 0,-1.380711 1.11929,-2.5 2.5,-2.5 1.38071,0 2.5,1.119289 2.5,2.5 z"
       sodipodi:ry="2.5"
       sodipodi:rx="2.5"
       sodipodi:cy="96.830688"
       sodipodi:cx="387.5"
       id="path3014"
       style="fill:#ffffff;fill-opacity:1;stroke:#000000;stroke-width:0.70866144;stroke-linecap:square;stroke-linejoin:round;stroke-miterlimit:4;stroke-opacity:1;stroke-dasharray:none;stroke-dashoffset:0"
       sodipodi:type="arc" />
    <path
       inkscape:connector-curvature="0"
       id="path3025"
       d="m 230,832.36086 0,20"
       style="fill:none;stroke:#000000;stroke-width:1.20000005;stroke-linecap:butt;stroke-linejoin:miter;stroke-miterlimit:4;stroke-opacity:1;stroke-dasharray:none;marker-end:none" />
    <path
       transform="translate(5.0000015,0)"
       d="m 307.5,842.36084 c 0,1.38071 -1.11929,2.5 -2.5,2.5 -1.38071,0 -2.5,-1.11929 -2.5,-2.5 0,-1.38071 1.11929,-2.5 2.5,-2.5 1.38071,0 2.5,1.11929 2.5,2.5 z"
       sodipodi:ry="2.5"
       sodipodi:rx="2.5"
       sodipodi:cy="842.36084"
       sodipodi:cx="305"
       style="fill:#000000;stroke:none"
       id="path5176"
       sodipodi:type="arc" />
    <path
       inkscape:connector-curvature="0"
       id="path5183"
       d="m 310,842.36082 0,80 -150,0"
       style="fill:none;stroke:#000000;stroke-width:1px;stroke-linecap:butt;stroke-linejoin:miter;stroke-opacity:1" />
    <path
       inkscape:transform-center-x="-0.0039629853"
       sodipodi:type="star"
       style="fill:#ffffff;stroke:#000000;stroke-width:1.20000005;stroke-linecap:square;stroke-linejoin:round;stroke-miterlimit:4;stroke-opacity:1;stroke-dasharray:none;stroke-dashoffset:0"
       id="path5185"
       sodipodi:sides="3"
       sodipodi:cx="205"
       sodipodi:cy="99.330688"
       sodipodi:r1="10"
       sodipodi:r2="5"
       sodipodi:arg1="1.5707963"
       sodipodi:arg2="2.6179939"
       inkscape:flatsided="false"
       inkscape:rounded="0"
       inkscape:randomized="0"
       d="m 205,109.33069 -4.33013,-7.5 -4.33012,-7.500001 8.66025,-1e-6 8.66025,0 -4.33012,7.500002 z"
       transform="matrix(-0.8663152,0.49949776,0.49949776,0.8663152,367.90236,734.13713)"
       inkscape:transform-center-y="-2.4956507" />
    <path
       style="fill:none;stroke:#000000;stroke-width:1.20000005;stroke-linecap:butt;stroke-linejoin:miter;stroke-miterlimit:4;stroke-opacity:1;stroke-dasharray:none;marker-end:none"
       d="m 230,912.36086 0,20"
       id="path5187"
       inkscape:connector-curvature="0" />
    <path
       sodipodi:type="arc"
       style="fill:#ffffff;fill-opacity:1;stroke:#000000;stroke-width:0.70866144;stroke-linecap:square;stroke-linejoin:round;stroke-miterlimit:4;stroke-opacity:1;stroke-dasharray:none;stroke-dashoffset:0"
       id="path5189"
       sodipodi:cx="387.5"
       sodipodi:cy="96.830688"
       sodipodi:rx="2.5"
       sodipodi:ry="2.5"
       d="m 390,96.830688 c 0,1.380712 -1.11929,2.5 -2.5,2.5 -1.38071,0 -2.5,-1.119288 -2.5,-2.5 0,-1.380711 1.11929,-2.5 2.5,-2.5 1.38071,0 2.5,1.119289 2.5,2.5 z"
       transform="matrix(0,-1,1,0,63.169312,1229.8609)" />
    <path
       transform="matrix(0,-1,1,0,63.169312,1309.8609)"
       d="m 390,96.830688 c 0,1.380712 -1.11929,2.5 -2.5,2.5 -1.38071,0 -2.5,-1.119288 -2.5,-2.5 0,-1.380711 1.11929,-2.5 2.5,-2.5 1.38071,0 2.5,1.119289 2.5,2.5 z"
       sodipodi:ry="2.5"
       sodipodi:rx="2.5"
       sodipodi:cy="96.830688"
       sodipodi:cx="387.5"
       id="path5191"
       style="fill:#ffffff;fill-opacity:1;stroke:#000000;stroke-width:0.70866144;stroke-linecap:square;stroke-linejoin:round;stroke-miterlimit:4;stroke-opacity:1;stroke-dasharray:none;stroke-dashoffset:0"
       sodipodi:type="arc" />
    <path
       transform="matrix(0,-1,1,0,63.169312,1242.3609)"
       d="m 390,96.830688 c 0,1.380712 -1.11929,2.5 -2.5,2.5 -1.38071,0 -2.5,-1.119288 -2.5,-2.5 0,-1.380711 1.11929,-2.5 2.5,-2.5 1.38071,0 2.5,1.119289 2.5,2.5 z"
       sodipodi:ry="2.5"
       sodipodi:rx="2.5"
       sodipodi:cy="96.830688"
       sodipodi:cx="387.5"
       id="path5193"
       style="fill:#ffffff;fill-opacity:1;stroke:#000000;stroke-width:0.70866144;stroke-linecap:square;stroke-linejoin:round;stroke-miterlimit:4;stroke-opacity:1;stroke-dasharray:none;stroke-dashoffset:0"
       sodipodi:type="arc" />
    <path
       transform="translate(0,698.03017)"
       inkscape:connector-curvature="0"
       id="path5195"
       d="m 160,159.33069 0,10"
       style="fill:none;stroke:#000000;stroke-width:1px;stroke-linecap:butt;stroke-linejoin:miter;stroke-opacity:1" />
    <path
       style="fill:none;stroke:#000000;stroke-width:1px;stroke-linecap:butt;stroke-linejoin:miter;stroke-opacity:1"
       d="m 169,867.36086 -17,0"
       id="path5197"
       inkscape:connector-curvature="0" />
    <path
       inkscape:connector-curvature="0"
       id="path5199"
       d="m 165,871.36086 -10,0"
       style="fill:none;stroke:#000000;stroke-width:1px;stroke-linecap:butt;stroke-linejoin:miter;stroke-opacity:1" />
    <path
       style="fill:none;stroke:#000000;stroke-width:1px;stroke-linecap:butt;stroke-linejoin:miter;stroke-opacity:1"
       d="m 162,875.41006 -4,0"
       id="path5201"
       inkscape:connector-curvature="0" />
    <path
       transform="matrix(0,-1,1,0,248.64392,1229.8609)"
       d="m 390,96.830688 c 0,1.380712 -1.11929,2.5 -2.5,2.5 -1.38071,0 -2.5,-1.119288 -2.5,-2.5 0,-1.380711 1.11929,-2.5 2.5,-2.5 1.38071,0 2.5,1.119289 2.5,2.5 z"
       sodipodi:ry="2.5"
       sodipodi:rx="2.5"
       sodipodi:cy="96.830688"
       sodipodi:cx="387.5"
       id="path5203"
       style="fill:#ffffff;fill-opacity:1;stroke:#000000;stroke-width:0.70866144;stroke-linecap:square;stroke-linejoin:round;stroke-miterlimit:4;stroke-opacity:1;stroke-dasharray:none;stroke-dashoffset:0"
       sodipodi:type="arc" />
    <path
       sodipodi:type="arc"
       style="fill:#ffffff;fill-opacity:1;stroke:#000000;stroke-width:0.70866144;stroke-linecap:square;stroke-linejoin:round;stroke-miterlimit:4;stroke-opacity:1;stroke-dasharray:none;stroke-dashoffset:0"
       id="path5205"
       sodipodi:cx="387.5"
       sodipodi:cy="96.830688"
       sodipodi:rx="2.5"
       sodipodi:ry="2.5"
       d="m 390,96.830688 c 0,1.380712 -1.11929,2.5 -2.5,2.5 -1.38071,0 -2.5,-1.119288 -2.5,-2.5 0,-1.380711 1.11929,-2.5 2.5,-2.5 1.38071,0 2.5,1.119289 2.5,2.5 z"
       transform="matrix(0,-1,1,0,248.64392,1242.3609)" />
    <path
       style="fill:none;stroke:#000000;stroke-width:1px;stroke-linecap:butt;stroke-linejoin:miter;stroke-opacity:1"
       d="m 345.47461,857.36086 0,10"
       id="path5207"
       inkscape:connector-curvature="0" />
    <path
       inkscape:connector-curvature="0"
       id="path5209"
       d="m 354.47461,867.36086 -17,0"
       style="fill:none;stroke:#000000;stroke-width:1px;stroke-linecap:butt;stroke-linejoin:miter;stroke-opacity:1" />
    <path
       style="fill:none;stroke:#000000;stroke-width:1px;stroke-linecap:butt;stroke-linejoin:miter;stroke-opacity:1"
       d="m 350.47461,871.36086 -10,0"
       id="path5211"
       inkscape:connector-curvature="0" />
    <path
       inkscape:connector-curvature="0"
       id="path5213"
       d="m 347.47461,875.41006 -4,0"
       style="fill:none;stroke:#000000;stroke-width:1px;stroke-linecap:butt;stroke-linejoin:miter;stroke-opacity:1" />
    <path
       sodipodi:type="arc"
       style="fill:#ffffff;fill-opacity:1;stroke:#000000;stroke-width:0.70866144;stroke-linecap:square;stroke-linejoin:round;stroke-miterlimit:4;stroke-opacity:1;stroke-dasharray:none;stroke-dashoffset:0"
       id="path5215"
       sodipodi:cx="387.5"
       sodipodi:cy="96.830688"
       sodipodi:rx="2.5"
       sodipodi:ry="2.5"
       d="m 390,96.830688 c 0,1.380712 -1.11929,2.5 -2.5,2.5 -1.38071,0 -2.5,-1.119288 -2.5,-2.5 0,-1.380711 1.11929,-2.5 2.5,-2.5 1.38071,0 2.5,1.119289 2.5,2.5 z"
       transform="matrix(0,-1,1,0,63.169312,1322.1892)" />
    <path
       style="fill:none;stroke:#000000;stroke-width:1px;stroke-linecap:butt;stroke-linejoin:miter;stroke-opacity:1"
       d="m 160,937.18913 0,10"
       id="path5217"
       inkscape:connector-curvature="0" />
    <path
       inkscape:connector-curvature="0"
       id="path5219"
       d="m 169,947.18913 -17,0"
       style="fill:none;stroke:#000000;stroke-width:1px;stroke-linecap:butt;stroke-linejoin:miter;stroke-opacity:1" />
    <path
       style="fill:none;stroke:#000000;stroke-width:1px;stroke-linecap:butt;stroke-linejoin:miter;stroke-opacity:1"
       d="m 165,951.18913 -10,0"
       id="path5221"
       inkscape:connector-curvature="0" />
    <path
       inkscape:connector-curvature="0"
       id="path5223"
       d="m 162,955.23833 -4,0"
       style="fill:none;stroke:#000000;stroke-width:1px;stroke-linecap:butt;stroke-linejoin:miter;stroke-opacity:1" />
    <g
       style="font-style:normal;font-variant:normal;font-weight:normal;font-stretch:normal;letter-spacing:normal;word-spacing:normal;text-anchor:start;fill:none;stroke:#000000;stroke-width:1;stroke-linecap:butt;stroke-linejoin:miter;stroke-miterlimit:10.43299961;stroke-opacity:1;stroke-dasharray:none;stroke-dashoffset:0"
       ns0:preamble="/home/sriranga/Desktop/Basic-Electronics-Figures/package.tex"
       ns0:text="$V_1$"
       word-spacing="normal"
       letter-spacing="normal"
       font-size-adjust="none"
       font-stretch="normal"
       font-weight="normal"
       font-variant="normal"
       font-style="normal"
       stroke-miterlimit="10.433"
       xml:space="preserve"
       transform="matrix(1.2,0,0,-1.2,-135.86568,1699.0515)"
       id="g5295"><path
         id="path5297"
         d="m 230.28,713.61 h -1.85 v -0.16 c 0.44,-0.05 0.62,-0.15 0.62,-0.34 0,-0.18 -0.19,-0.61 -0.51,-1.18 l -2.05,-3.53 -0.66,4.4 c -0.01,0.05 -0.01,0.09 -0.01,0.15 0,0.33 0.14,0.43 0.77,0.5 v 0.16 h -2.4 v -0.16 c 0.55,-0.07 0.57,-0.1 0.78,-1.34 l 0.85,-5.16 h 0.19 l 3.71,6.1 c 0.17,0.27 0.33,0.39 0.56,0.4 z"
         inkscape:connector-curvature="0"
         style="fill:#000000;stroke-width:0" /><path
         id="path5299"
         d="m 231.55,710.33 -1.26,-0.63 v -0.1 c 0.09,0.04 0.16,0.06 0.19,0.08 0.12,0.05 0.24,0.08 0.31,0.08 0.15,0 0.21,-0.11 0.21,-0.33 v -3.15 c 0,-0.23 -0.05,-0.39 -0.16,-0.45 -0.11,-0.07 -0.21,-0.09 -0.5,-0.1 v -0.1 h 1.92 v 0.1 c -0.55,0.01 -0.66,0.08 -0.66,0.42 v 4.17 z"
         inkscape:connector-curvature="0"
         style="fill:#000000;stroke-width:0" /></g>    <g
       id="g5451"
       transform="matrix(1.2,0,0,-1.2,-135.86568,1778.8798)"
       xml:space="preserve"
       stroke="black"
       stroke-linecap="butt"
       stroke-linejoin="miter"
       stroke-miterlimit="10.433"
       stroke-dasharray="none"
       stroke-dashoffset="0"
       stroke-opacity="1"
       fill="none"
       fill-rule="evenodd"
       fill-opacity="1"
       font-style="normal"
       font-variant="normal"
       font-weight="normal"
       font-stretch="normal"
       font-size-adjust="none"
       letter-spacing="normal"
       word-spacing="normal"
       text-anchor="start"
       ns0:text="$V_2$"
       ns0:preamble="/home/sriranga/Desktop/Basic-Electronics-Figures/package.tex"
       style="font-style:normal;font-variant:normal;font-weight:normal;font-stretch:normal;letter-spacing:normal;word-spacing:normal;text-anchor:start;fill:none;stroke:#000000;stroke-width:1;stroke-linecap:butt;stroke-linejoin:miter;stroke-miterlimit:10.43299961;stroke-opacity:1;stroke-dasharray:none;stroke-dashoffset:0"><path
         d="M230.28,713.61 H228.43 V713.45 C228.87,713.4,229.05,713.3,229.05,713.11 C229.05,712.93,228.86,712.5,228.54,711.93 L226.49,708.4 L225.83,712.8 C225.82,712.85,225.82,712.89,225.82,712.95 C225.82,713.28,225.96,713.38,226.59,713.45 V713.61 H224.19 V713.45 C224.74,713.38,224.76,713.35,224.97,712.11 L225.82,706.95 H226.01 L229.72,713.05 C229.89,713.32,230.05,713.44,230.28,713.45 Z "
         stroke-width="0"
         fill="black"
         id="path5453" /><path
         d="M232.83,706.58 L232.74,706.62 C232.48,706.22,232.39,706.16,232.07,706.16 H230.41 L231.58,707.38 C232.2,708.03,232.47,708.56,232.47,709.1 C232.47,709.8,231.91,710.33,231.18,710.33 C230.8,710.33,230.44,710.18,230.18,709.9 C229.96,709.66,229.85,709.44,229.74,708.95 L229.88,708.91 C230.16,709.59,230.41,709.82,230.89,709.82 C231.48,709.82,231.87,709.42,231.87,708.84 C231.87,708.29,231.55,707.65,230.97,707.03 L229.73,705.71 V705.63 H232.44 Z "
         stroke-width="0"
         fill="black"
         id="path5455" /></g>    <g
       style="font-style:normal;font-variant:normal;font-weight:normal;font-stretch:normal;letter-spacing:normal;word-spacing:normal;text-anchor:start;fill:none;stroke:#000000;stroke-width:1;stroke-linecap:butt;stroke-linejoin:miter;stroke-miterlimit:10.43299961;stroke-opacity:1;stroke-dasharray:none;stroke-dashoffset:0"
       ns0:preamble="/home/sriranga/Desktop/Basic-Electronics-Figures/package.tex"
       ns0:text="$+$"
       word-spacing="normal"
       letter-spacing="normal"
       font-size-adjust="none"
       font-stretch="normal"
       font-weight="normal"
       font-variant="normal"
       font-style="normal"
       stroke-miterlimit="10.433"
       xml:space="preserve"
       transform="matrix(1.2,0,0,-1.2,-120.52729,1693.5308)"
       id="g5604"><polygon
         id="polygon5606"
         points="226.32,707.12 226.87,707.12 226.87,709.4 229.14,709.4 229.14,709.96 226.87,709.96 226.87,712.2 226.32,712.2 226.32,709.96 224.05,709.96 224.05,709.4 226.32,709.4 "
         style="fill:#000000;stroke-width:0" /></g>    <g
       id="g5760"
       transform="matrix(1.2,0,0,-1.2,-120.52729,1707.234)"
       xml:space="preserve"
       stroke="black"
       stroke-linecap="butt"
       stroke-linejoin="miter"
       stroke-miterlimit="10.433"
       stroke-dasharray="none"
       stroke-dashoffset="0"
       stroke-opacity="1"
       fill="none"
       fill-rule="evenodd"
       fill-opacity="1"
       font-style="normal"
       font-variant="normal"
       font-weight="normal"
       font-stretch="normal"
       font-size-adjust="none"
       letter-spacing="normal"
       word-spacing="normal"
       text-anchor="start"
       ns0:text="$-$"
       ns0:preamble="/home/sriranga/Desktop/Basic-Electronics-Figures/package.tex"
       style="font-style:normal;font-variant:normal;font-weight:normal;font-stretch:normal;letter-spacing:normal;word-spacing:normal;text-anchor:start;fill:none;stroke:#000000;stroke-width:1;stroke-linecap:butt;stroke-linejoin:miter;stroke-miterlimit:10.43299961;stroke-opacity:1;stroke-dasharray:none;stroke-dashoffset:0"><polygon
         points="229.14,709.4 229.14,709.96 224.05,709.96 224.05,709.4 "
         stroke-width="0"
         fill="black"
         id="polygon5762" /></g>    <g
       id="g5839"
       transform="matrix(1.2,0,0,-1.2,-120.52729,1773.0623)"
       xml:space="preserve"
       stroke-miterlimit="10.433"
       font-style="normal"
       font-variant="normal"
       font-weight="normal"
       font-stretch="normal"
       font-size-adjust="none"
       letter-spacing="normal"
       word-spacing="normal"
       ns0:text="$+$"
       ns0:preamble="/home/sriranga/Desktop/Basic-Electronics-Figures/package.tex"
       style="font-style:normal;font-variant:normal;font-weight:normal;font-stretch:normal;letter-spacing:normal;word-spacing:normal;text-anchor:start;fill:none;stroke:#000000;stroke-width:1;stroke-linecap:butt;stroke-linejoin:miter;stroke-miterlimit:10.43299961;stroke-opacity:1;stroke-dasharray:none;stroke-dashoffset:0"><polygon
         style="fill:#000000;stroke-width:0"
         points="229.14,709.4 229.14,709.96 226.87,709.96 226.87,712.2 226.32,712.2 226.32,709.96 224.05,709.96 224.05,709.4 226.32,709.4 226.32,707.12 226.87,707.12 226.87,709.4 "
         id="polygon5841" /></g>    <g
       style="font-style:normal;font-variant:normal;font-weight:normal;font-stretch:normal;letter-spacing:normal;word-spacing:normal;text-anchor:start;fill:none;stroke:#000000;stroke-width:1;stroke-linecap:butt;stroke-linejoin:miter;stroke-miterlimit:10.43299961;stroke-opacity:1;stroke-dasharray:none;stroke-dashoffset:0"
       ns0:preamble="/home/sriranga/Desktop/Basic-Electronics-Figures/package.tex"
       ns0:text="$-$"
       word-spacing="normal"
       letter-spacing="normal"
       font-size-adjust="none"
       font-stretch="normal"
       font-weight="normal"
       font-variant="normal"
       font-style="normal"
       stroke-miterlimit="10.433"
       xml:space="preserve"
       transform="matrix(1.2,0,0,-1.2,-120.52729,1786.7655)"
       id="g5843"><polygon
         style="fill:#000000;stroke-width:0"
         id="polygon5845"
         points="224.05,709.4 229.14,709.4 229.14,709.96 224.05,709.96 " /></g>    <g
       style="font-style:normal;font-variant:normal;font-weight:normal;font-stretch:normal;letter-spacing:normal;word-spacing:normal;text-anchor:start;fill:none;stroke:#000000;stroke-width:1;stroke-linecap:butt;stroke-linejoin:miter;stroke-miterlimit:10.43299961;stroke-opacity:1;stroke-dasharray:none;stroke-dashoffset:0"
       ns0:preamble="/home/sriranga/Desktop/Basic-Electronics-Figures/package.tex"
       ns0:text="$(0V$ or $5V)$ "
       word-spacing="normal"
       letter-spacing="normal"
       font-size-adjust="none"
       font-stretch="normal"
       font-weight="normal"
       font-variant="normal"
       font-style="normal"
       stroke-miterlimit="10.433"
       xml:space="preserve"
       transform="matrix(1.2,0,0,-1.2,-198.61444,1700.6967)"
       id="g5949"><path
         id="path5951"
         d="m 226.37,713.84 -0.07,-0.04 -0.07,-0.05 -0.06,-0.04 -0.06,-0.04 -0.06,-0.04 -0.05,-0.04 -0.06,-0.04 -0.05,-0.03 -0.05,-0.04 -0.05,-0.04 -0.05,-0.03 -0.04,-0.04 -0.05,-0.03 -0.04,-0.04 -0.08,-0.06 -0.08,-0.07 -0.07,-0.07 -0.08,-0.07 -0.07,-0.07 -0.06,-0.07 -0.07,-0.08 -0.07,-0.08 -0.07,-0.08 c -0.7,-0.87 -1.05,-1.86 -1.05,-3.02 0,-1.26 0.37,-2.24 1.24,-3.25 0.41,-0.48 0.67,-0.7 1.19,-1.01 l 0.12,0.16 c -0.8,0.62 -1.08,0.97 -1.35,1.71 -0.23,0.67 -0.35,1.42 -0.35,2.42 0,1.04 0.14,1.86 0.4,2.47 0.28,0.62 0.58,0.97 1.3,1.55 z"
         inkscape:connector-curvature="0"
         style="fill:#000000;stroke-width:0" /><path
         id="path5953"
         d="m 229.28,713.84 -0.05,0 -0.05,0 -0.05,0 -0.05,-0.01 -0.05,0 -0.05,-0.01 -0.04,0 -0.05,-0.01 -0.05,-0.01 -0.04,-0.01 -0.05,-0.01 -0.04,-0.01 -0.04,-0.01 -0.04,-0.02 -0.05,-0.01 -0.04,-0.02 -0.04,-0.01 -0.04,-0.02 -0.04,-0.02 -0.04,-0.02 -0.04,-0.02 -0.03,-0.02 -0.04,-0.03 -0.04,-0.02 -0.04,-0.02 -0.03,-0.03 -0.04,-0.03 -0.04,-0.02 -0.03,-0.03 -0.04,-0.03 -0.03,-0.03 -0.04,-0.04 c -0.57,-0.55 -0.95,-1.7 -0.95,-2.86 0,-1.08 0.33,-2.24 0.79,-2.8 0.37,-0.44 0.88,-0.67 1.46,-0.67 v 0.25 c -0.86,0 -1.3,1.07 -1.3,3.13 0,2.11 0.45,3.21 1.31,3.21 h 0 c 0.83,0 1.28,-1.12 1.28,-3.2 0,-2.07 -0.44,-3.14 -1.29,-3.14 v -0.25 c 0.5,0 0.93,0.17 1.29,0.51 0.58,0.55 0.96,1.7 0.96,2.9 0,2.04 -0.91,3.44 -2.21,3.44 z"
         inkscape:connector-curvature="0"
         style="fill:#000000;stroke-width:0" /><path
         id="path5955"
         d="m 238.58,713.61 h -1.85 v -0.16 c 0.44,-0.05 0.62,-0.15 0.62,-0.34 0,-0.18 -0.19,-0.61 -0.51,-1.18 l -2.05,-3.53 -0.66,4.4 c -0.01,0.05 -0.01,0.09 -0.01,0.15 0,0.33 0.14,0.43 0.76,0.5 v 0.16 h -2.39 v -0.16 c 0.55,-0.07 0.57,-0.1 0.78,-1.34 l 0.85,-5.16 h 0.19 l 3.71,6.1 c 0.17,0.27 0.33,0.39 0.56,0.4 z"
         inkscape:connector-curvature="0"
         style="fill:#000000;stroke-width:0" /><path
         id="path5957"
         d="m 243.56,711.7 -0.12,-0.01 -0.11,-0.01 -0.12,-0.01 -0.11,-0.02 -0.11,-0.02 -0.11,-0.03 -0.1,-0.04 -0.11,-0.04 -0.09,-0.04 -0.1,-0.05 -0.09,-0.05 -0.09,-0.06 -0.09,-0.06 -0.08,-0.07 -0.08,-0.07 -0.07,-0.07 -0.07,-0.08 -0.07,-0.08 -0.06,-0.09 -0.06,-0.09 -0.06,-0.1 -0.05,-0.09 -0.04,-0.1 -0.04,-0.11 -0.04,-0.11 -0.03,-0.11 -0.03,-0.11 -0.02,-0.12 -0.02,-0.12 -0.01,-0.12 -0.01,-0.12 0,-0.13 c 0,-1.34 0.92,-2.34 2.17,-2.34 l 0.12,0.27 c -0.39,0 -0.75,0.24 -0.96,0.64 -0.28,0.52 -0.44,1.21 -0.44,1.92 0,0.94 0.47,1.56 1.17,1.56 h 0 c 0.84,0 1.43,-0.96 1.43,-2.32 0,-1.12 -0.45,-1.8 -1.2,-1.8 l -0.12,-0.27 c 1.26,0 2.21,1.05 2.21,2.42 0,1.3 -0.91,2.25 -2.19,2.25 z"
         inkscape:connector-curvature="0"
         style="fill:#000000;stroke-width:0" /><path
         id="path5959"
         d="m 246.13,711 0.01,0 0.01,0 0.01,0.01 0.02,0 0.02,0 0.02,0.01 0.03,0 0.02,0 0.02,0.01 0.02,0 0.02,0 0.02,0 0.02,0.01 0.02,0 0.02,0 0.02,0 0.02,0 0.03,0 c 0.24,0 0.33,-0.16 0.33,-0.6 v -2.48 c 0,-0.5 -0.07,-0.57 -0.7,-0.69 v -0.15 h 2.38 v 0.15 c -0.67,0.03 -0.84,0.18 -0.84,0.75 v 2.23 c 0,0.32 0.43,0.82 0.7,0.82 0.05,0 0.14,-0.05 0.25,-0.15 0.16,-0.14 0.27,-0.2 0.4,-0.2 0.24,0 0.39,0.17 0.39,0.45 0,0.33 -0.21,0.53 -0.55,0.53 -0.41,0 -0.7,-0.23 -1.19,-0.94 v 0.91 l -0.05,0.03 c -0.53,-0.22 -0.89,-0.35 -1.47,-0.54 z"
         inkscape:connector-curvature="0"
         style="fill:#000000;stroke-width:0" /><path
         id="path5961"
         d="m 253.67,712.92 h 1.95 c 0.16,0 0.2,0.02 0.23,0.09 l 0.37,0.88 -0.09,0.07 c -0.15,-0.21 -0.25,-0.26 -0.45,-0.26 h -2.08 l -1.09,-2.35 c -0.01,-0.02 -0.01,-0.03 -0.01,-0.05 0,-0.05 0.04,-0.08 0.12,-0.08 0.32,0 0.72,-0.07 1.13,-0.2 1.14,-0.37 1.67,-0.98 1.67,-1.97 0,-0.95 -0.61,-1.7 -1.39,-1.7 -0.19,0 -0.36,0.07 -0.66,0.29 -0.32,0.23 -0.55,0.33 -0.76,0.33 -0.29,0 -0.43,-0.12 -0.43,-0.37 0,-0.38 0.47,-0.61 1.22,-0.61 0.83,0 1.55,0.26 2.05,0.77 0.45,0.45 0.66,1.01 0.66,1.77 0,0.71 -0.18,1.17 -0.68,1.67 -0.44,0.44 -1.01,0.66 -2.18,0.87 z"
         inkscape:connector-curvature="0"
         style="fill:#000000;stroke-width:0" /><path
         id="path5963"
         d="m 263.69,713.61 h -1.85 v -0.16 c 0.45,-0.05 0.63,-0.15 0.63,-0.34 0,-0.18 -0.19,-0.61 -0.52,-1.18 l -2.05,-3.53 -0.66,4.4 c -0.01,0.05 -0.01,0.09 -0.01,0.15 0,0.33 0.14,0.43 0.77,0.5 v 0.16 h -2.4 v -0.16 c 0.56,-0.07 0.58,-0.1 0.79,-1.34 l 0.84,-5.16 h 0.19 l 3.72,6.1 c 0.16,0.27 0.32,0.39 0.55,0.4 z"
         inkscape:connector-curvature="0"
         style="fill:#000000;stroke-width:0" /><path
         id="path5965"
         d="m 264.08,705.37 0.07,0.04 0.06,0.04 0.06,0.05 0.07,0.04 0.05,0.04 0.06,0.03 0.05,0.04 0.06,0.04 0.05,0.04 0.05,0.03 0.04,0.04 0.05,0.03 0.04,0.04 0.05,0.03 0.08,0.07 0.08,0.07 0.07,0.07 0.07,0.07 0.07,0.07 0.07,0.07 0.07,0.08 0.06,0.08 0.07,0.08 c 0.71,0.86 1.06,1.86 1.06,3.02 0,1.27 -0.37,2.23 -1.25,3.25 -0.4,0.47 -0.66,0.69 -1.18,1.01 l -0.12,-0.16 c 0.8,-0.63 1.06,-0.97 1.34,-1.72 0.24,-0.66 0.35,-1.42 0.35,-2.41 0,-1.03 -0.13,-1.86 -0.4,-2.46 -0.28,-0.63 -0.57,-0.99 -1.29,-1.56 z"
         inkscape:connector-curvature="0"
         style="fill:#000000;stroke-width:0" /></g>    <g
       id="g6055"
       transform="matrix(1.2,0,0,-1.2,-198.61444,1777.2606)"
       xml:space="preserve"
       stroke-miterlimit="10.433"
       font-style="normal"
       font-variant="normal"
       font-weight="normal"
       font-stretch="normal"
       font-size-adjust="none"
       letter-spacing="normal"
       word-spacing="normal"
       ns0:text="$(0V$ or $5V)$ "
       ns0:preamble="/home/sriranga/Desktop/Basic-Electronics-Figures/package.tex"
       style="font-style:normal;font-variant:normal;font-weight:normal;font-stretch:normal;letter-spacing:normal;word-spacing:normal;text-anchor:start;fill:none;stroke:#000000;stroke-width:1;stroke-linecap:butt;stroke-linejoin:miter;stroke-miterlimit:10.43299961;stroke-opacity:1;stroke-dasharray:none;stroke-dashoffset:0"><path
         style="fill:#000000;stroke-width:0"
         inkscape:connector-curvature="0"
         d="m 226.37,713.84 -0.07,-0.04 -0.07,-0.05 -0.06,-0.04 -0.06,-0.04 -0.06,-0.04 -0.05,-0.04 -0.06,-0.04 -0.05,-0.03 -0.05,-0.04 -0.05,-0.04 -0.05,-0.03 -0.04,-0.04 -0.05,-0.03 -0.04,-0.04 -0.08,-0.06 -0.08,-0.07 -0.07,-0.07 -0.08,-0.07 -0.07,-0.07 -0.06,-0.07 -0.07,-0.08 -0.07,-0.08 -0.07,-0.08 c -0.7,-0.87 -1.05,-1.86 -1.05,-3.02 0,-1.26 0.37,-2.24 1.24,-3.25 0.41,-0.48 0.67,-0.7 1.19,-1.01 l 0.12,0.16 c -0.8,0.62 -1.08,0.97 -1.35,1.71 -0.23,0.67 -0.35,1.42 -0.35,2.42 0,1.04 0.14,1.86 0.4,2.47 0.28,0.62 0.58,0.97 1.3,1.55 z"
         id="path6057" /><path
         style="fill:#000000;stroke-width:0"
         inkscape:connector-curvature="0"
         d="m 229.28,713.84 -0.05,0 -0.05,0 -0.05,0 -0.05,-0.01 -0.05,0 -0.05,-0.01 -0.04,0 -0.05,-0.01 -0.05,-0.01 -0.04,-0.01 -0.05,-0.01 -0.04,-0.01 -0.04,-0.01 -0.04,-0.02 -0.05,-0.01 -0.04,-0.02 -0.04,-0.01 -0.04,-0.02 -0.04,-0.02 -0.04,-0.02 -0.04,-0.02 -0.03,-0.02 -0.04,-0.03 -0.04,-0.02 -0.04,-0.02 -0.03,-0.03 -0.04,-0.03 -0.04,-0.02 -0.03,-0.03 -0.04,-0.03 -0.03,-0.03 -0.04,-0.04 c -0.57,-0.55 -0.95,-1.7 -0.95,-2.86 0,-1.08 0.33,-2.24 0.79,-2.8 0.37,-0.44 0.88,-0.67 1.46,-0.67 v 0.25 c -0.86,0 -1.3,1.07 -1.3,3.13 0,2.11 0.45,3.21 1.31,3.21 h 0 c 0.83,0 1.28,-1.12 1.28,-3.2 0,-2.07 -0.44,-3.14 -1.29,-3.14 v -0.25 c 0.5,0 0.93,0.17 1.29,0.51 0.58,0.55 0.96,1.7 0.96,2.9 0,2.04 -0.91,3.44 -2.21,3.44 z"
         id="path6059" /><path
         style="fill:#000000;stroke-width:0"
         inkscape:connector-curvature="0"
         d="m 238.58,713.61 h -1.85 v -0.16 c 0.44,-0.05 0.62,-0.15 0.62,-0.34 0,-0.18 -0.19,-0.61 -0.51,-1.18 l -2.05,-3.53 -0.66,4.4 c -0.01,0.05 -0.01,0.09 -0.01,0.15 0,0.33 0.14,0.43 0.76,0.5 v 0.16 h -2.39 v -0.16 c 0.55,-0.07 0.57,-0.1 0.78,-1.34 l 0.85,-5.16 h 0.19 l 3.71,6.1 c 0.17,0.27 0.33,0.39 0.56,0.4 z"
         id="path6061" /><path
         style="fill:#000000;stroke-width:0"
         inkscape:connector-curvature="0"
         d="m 243.56,711.7 -0.12,-0.01 -0.11,-0.01 -0.12,-0.01 -0.11,-0.02 -0.11,-0.02 -0.11,-0.03 -0.1,-0.04 -0.11,-0.04 -0.09,-0.04 -0.1,-0.05 -0.09,-0.05 -0.09,-0.06 -0.09,-0.06 -0.08,-0.07 -0.08,-0.07 -0.07,-0.07 -0.07,-0.08 -0.07,-0.08 -0.06,-0.09 -0.06,-0.09 -0.06,-0.1 -0.05,-0.09 -0.04,-0.1 -0.04,-0.11 -0.04,-0.11 -0.03,-0.11 -0.03,-0.11 -0.02,-0.12 -0.02,-0.12 -0.01,-0.12 -0.01,-0.12 0,-0.13 c 0,-1.34 0.92,-2.34 2.17,-2.34 l 0.12,0.27 c -0.39,0 -0.75,0.24 -0.96,0.64 -0.28,0.52 -0.44,1.21 -0.44,1.92 0,0.94 0.47,1.56 1.17,1.56 h 0 c 0.84,0 1.43,-0.96 1.43,-2.32 0,-1.12 -0.45,-1.8 -1.2,-1.8 l -0.12,-0.27 c 1.26,0 2.21,1.05 2.21,2.42 0,1.3 -0.91,2.25 -2.19,2.25 z"
         id="path6063" /><path
         style="fill:#000000;stroke-width:0"
         inkscape:connector-curvature="0"
         d="m 246.13,711 0.01,0 0.01,0 0.01,0.01 0.02,0 0.02,0 0.02,0.01 0.03,0 0.02,0 0.02,0.01 0.02,0 0.02,0 0.02,0 0.02,0.01 0.02,0 0.02,0 0.02,0 0.02,0 0.03,0 c 0.24,0 0.33,-0.16 0.33,-0.6 v -2.48 c 0,-0.5 -0.07,-0.57 -0.7,-0.69 v -0.15 h 2.38 v 0.15 c -0.67,0.03 -0.84,0.18 -0.84,0.75 v 2.23 c 0,0.32 0.43,0.82 0.7,0.82 0.05,0 0.14,-0.05 0.25,-0.15 0.16,-0.14 0.27,-0.2 0.4,-0.2 0.24,0 0.39,0.17 0.39,0.45 0,0.33 -0.21,0.53 -0.55,0.53 -0.41,0 -0.7,-0.23 -1.19,-0.94 v 0.91 l -0.05,0.03 c -0.53,-0.22 -0.89,-0.35 -1.47,-0.54 z"
         id="path6065" /><path
         style="fill:#000000;stroke-width:0"
         inkscape:connector-curvature="0"
         d="m 253.67,712.92 h 1.95 c 0.16,0 0.2,0.02 0.23,0.09 l 0.37,0.88 -0.09,0.07 c -0.15,-0.21 -0.25,-0.26 -0.45,-0.26 h -2.08 l -1.09,-2.35 c -0.01,-0.02 -0.01,-0.03 -0.01,-0.05 0,-0.05 0.04,-0.08 0.12,-0.08 0.32,0 0.72,-0.07 1.13,-0.2 1.14,-0.37 1.67,-0.98 1.67,-1.97 0,-0.95 -0.61,-1.7 -1.39,-1.7 -0.19,0 -0.36,0.07 -0.66,0.29 -0.32,0.23 -0.55,0.33 -0.76,0.33 -0.29,0 -0.43,-0.12 -0.43,-0.37 0,-0.38 0.47,-0.61 1.22,-0.61 0.83,0 1.55,0.26 2.05,0.77 0.45,0.45 0.66,1.01 0.66,1.77 0,0.71 -0.18,1.17 -0.68,1.67 -0.44,0.44 -1.01,0.66 -2.18,0.87 z"
         id="path6067" /><path
         style="fill:#000000;stroke-width:0"
         inkscape:connector-curvature="0"
         d="m 263.69,713.61 h -1.85 v -0.16 c 0.45,-0.05 0.63,-0.15 0.63,-0.34 0,-0.18 -0.19,-0.61 -0.52,-1.18 l -2.05,-3.53 -0.66,4.4 c -0.01,0.05 -0.01,0.09 -0.01,0.15 0,0.33 0.14,0.43 0.77,0.5 v 0.16 h -2.4 v -0.16 c 0.56,-0.07 0.58,-0.1 0.79,-1.34 l 0.84,-5.16 h 0.19 l 3.72,6.1 c 0.16,0.27 0.32,0.39 0.55,0.4 z"
         id="path6069" /><path
         style="fill:#000000;stroke-width:0"
         inkscape:connector-curvature="0"
         d="m 264.08,705.37 0.07,0.04 0.06,0.04 0.06,0.05 0.07,0.04 0.05,0.04 0.06,0.03 0.05,0.04 0.06,0.04 0.05,0.04 0.05,0.03 0.04,0.04 0.05,0.03 0.04,0.04 0.05,0.03 0.08,0.07 0.08,0.07 0.07,0.07 0.07,0.07 0.07,0.07 0.07,0.07 0.07,0.08 0.06,0.08 0.07,0.08 c 0.71,0.86 1.06,1.86 1.06,3.02 0,1.27 -0.37,2.23 -1.25,3.25 -0.4,0.47 -0.66,0.69 -1.18,1.01 l -0.12,-0.16 c 0.8,-0.63 1.06,-0.97 1.34,-1.72 0.24,-0.66 0.35,-1.42 0.35,-2.41 0,-1.03 -0.13,-1.86 -0.4,-2.46 -0.28,-0.63 -0.57,-0.99 -1.29,-1.56 z"
         id="path6071" /></g>    <g
       id="g6181"
       transform="matrix(1.2,0,0,-1.2,48.58612,1624.7262)"
       xml:space="preserve"
       stroke-miterlimit="10.433"
       font-style="normal"
       font-variant="normal"
       font-weight="normal"
       font-stretch="normal"
       font-size-adjust="none"
       letter-spacing="normal"
       word-spacing="normal"
       ns0:text="$V=5V$"
       ns0:preamble="/home/sriranga/Desktop/Basic-Electronics-Figures/package.tex"
       style="font-style:normal;font-variant:normal;font-weight:normal;font-stretch:normal;letter-spacing:normal;word-spacing:normal;text-anchor:start;fill:none;stroke:#000000;stroke-width:1;stroke-linecap:butt;stroke-linejoin:miter;stroke-miterlimit:10.43299961;stroke-opacity:1;stroke-dasharray:none;stroke-dashoffset:0"><path
         style="fill:#000000;stroke-width:0"
         inkscape:connector-curvature="0"
         d="m 230.28,713.61 h -1.85 v -0.16 c 0.44,-0.05 0.62,-0.15 0.62,-0.34 0,-0.18 -0.19,-0.61 -0.51,-1.18 l -2.05,-3.53 -0.66,4.4 c -0.01,0.05 -0.01,0.09 -0.01,0.15 0,0.33 0.14,0.43 0.77,0.5 v 0.16 h -2.4 v -0.16 c 0.55,-0.07 0.57,-0.1 0.78,-1.34 l 0.85,-5.16 h 0.19 l 3.71,6.1 c 0.17,0.27 0.33,0.39 0.56,0.4 z"
         id="path6183" /><polygon
         style="fill:#000000;stroke-width:0"
         points="233.67,710.4 238.76,710.4 238.76,710.96 233.67,710.96 "
         id="polygon6185" /><polygon
         style="fill:#000000;stroke-width:0"
         points="233.67,708.39 238.76,708.39 238.76,708.94 233.67,708.94 "
         id="polygon6187" /><path
         style="fill:#000000;stroke-width:0"
         inkscape:connector-curvature="0"
         d="m 243.96,712.92 h 1.95 c 0.16,0 0.2,0.02 0.23,0.09 l 0.37,0.88 -0.08,0.07 c -0.15,-0.21 -0.25,-0.26 -0.46,-0.26 h -2.08 l -1.09,-2.35 c -0.01,-0.02 -0.01,-0.03 -0.01,-0.05 0,-0.05 0.04,-0.08 0.12,-0.08 0.32,0 0.72,-0.07 1.13,-0.2 1.14,-0.37 1.67,-0.98 1.67,-1.97 0,-0.95 -0.61,-1.7 -1.38,-1.7 -0.2,0 -0.37,0.07 -0.67,0.29 -0.32,0.23 -0.55,0.33 -0.76,0.33 -0.28,0 -0.42,-0.12 -0.42,-0.37 0,-0.38 0.46,-0.61 1.21,-0.61 0.83,0 1.55,0.26 2.05,0.77 0.46,0.45 0.66,1.01 0.66,1.77 0,0.71 -0.18,1.17 -0.68,1.67 -0.44,0.44 -1.01,0.66 -2.18,0.87 z"
         id="path6189" /><path
         style="fill:#000000;stroke-width:0"
         inkscape:connector-curvature="0"
         d="m 253.98,713.61 h -1.85 v -0.16 c 0.45,-0.05 0.63,-0.15 0.63,-0.34 0,-0.18 -0.19,-0.61 -0.52,-1.18 l -2.05,-3.53 -0.65,4.4 c -0.01,0.05 -0.01,0.09 -0.01,0.15 0,0.33 0.14,0.43 0.76,0.5 v 0.16 h -2.39 v -0.16 c 0.55,-0.07 0.57,-0.1 0.78,-1.34 l 0.85,-5.16 h 0.19 l 3.71,6.1 c 0.17,0.27 0.33,0.39 0.55,0.4 z"
         id="path6191" /></g>    <g
       style="font-style:normal;font-variant:normal;font-weight:normal;font-stretch:normal;letter-spacing:normal;word-spacing:normal;text-anchor:start;fill:none;stroke:#000000;stroke-width:1;stroke-linecap:butt;stroke-linejoin:miter;stroke-miterlimit:10.43299961;stroke-opacity:1;stroke-dasharray:none;stroke-dashoffset:0"
       ns0:preamble="/home/sriranga/Desktop/Basic-Electronics-Figures/package.tex"
       ns0:text="$Y$"
       word-spacing="normal"
       letter-spacing="normal"
       font-size-adjust="none"
       font-stretch="normal"
       font-weight="normal"
       font-variant="normal"
       font-style="normal"
       stroke-miterlimit="10.433"
       xml:space="preserve"
       transform="matrix(1.2,0,0,-1.2,75.591224,1684.6717)"
       id="g6410"><path
         id="path6412"
         d="m 224.34,713.45 0.02,0 0.03,0 0.05,-0.01 0.04,-0.01 0.04,-0.01 0.04,0 0.04,-0.01 0.03,-0.01 0.04,-0.01 0.03,-0.01 0.03,0 0.02,-0.01 0.03,-0.02 0.02,-0.01 0.02,-0.01 0.02,-0.01 0.02,-0.02 0.02,-0.02 0.02,-0.01 0.01,-0.02 0.02,-0.03 0.01,-0.02 0.02,-0.02 0.01,-0.03 0.01,-0.03 0.02,-0.03 0.01,-0.04 0.01,-0.03 0.01,-0.04 0.02,-0.04 0.01,-0.05 0.01,-0.02 0.01,-0.02 0.01,-0.03 0,-0.02 0.77,-2.68 -0.61,-2.1 c -0.17,-0.54 -0.38,-0.7 -1.04,-0.74 v -0.16 h 2.87 v 0.16 c -0.16,0.01 -0.29,0.02 -0.35,0.03 -0.39,0.02 -0.53,0.12 -0.53,0.37 0,0.21 0.07,0.51 0.31,1.28 0.03,0.09 0.05,0.16 0.06,0.2 l 0.28,1 2.18,2.69 c 0.32,0.39 0.4,0.46 0.7,0.6 v 0.16 h -1.88 v -0.16 c 0.12,-0.01 0.23,-0.02 0.27,-0.03 0.29,-0.03 0.42,-0.11 0.42,-0.27 0,-0.27 -0.46,-0.92 -1.5,-2.12 -0.17,-0.2 -0.22,-0.28 -0.38,-0.46 -0.11,0.44 -0.14,0.57 -0.3,1.09 -0.25,0.86 -0.36,1.29 -0.36,1.43 0,0.24 0.12,0.3 0.71,0.36 v 0.16 h -2.37 z"
         inkscape:connector-curvature="0"
         style="fill:#000000;stroke-width:0" /></g>    <g
       id="g6525"
       transform="matrix(1.2,0,0,-1.2,82.159365,1693.5308)"
       xml:space="preserve"
       stroke-miterlimit="10.433"
       font-style="normal"
       font-variant="normal"
       font-weight="normal"
       font-stretch="normal"
       font-size-adjust="none"
       letter-spacing="normal"
       word-spacing="normal"
       ns0:text="$+$"
       ns0:preamble="/home/sriranga/Desktop/Basic-Electronics-Figures/package.tex"
       style="font-style:normal;font-variant:normal;font-weight:normal;font-stretch:normal;letter-spacing:normal;word-spacing:normal;text-anchor:start;fill:none;stroke:#000000;stroke-width:1;stroke-linecap:butt;stroke-linejoin:miter;stroke-miterlimit:10.43299961;stroke-opacity:1;stroke-dasharray:none;stroke-dashoffset:0"><polygon
         style="fill:#000000;stroke-width:0"
         points="226.87,712.2 226.32,712.2 226.32,709.96 224.05,709.96 224.05,709.4 226.32,709.4 226.32,707.12 226.87,707.12 226.87,709.4 229.14,709.4 229.14,709.96 226.87,709.96 "
         id="polygon6527" /></g>    <g
       style="font-style:normal;font-variant:normal;font-weight:normal;font-stretch:normal;letter-spacing:normal;word-spacing:normal;text-anchor:start;fill:none;stroke:#000000;stroke-width:1;stroke-linecap:butt;stroke-linejoin:miter;stroke-miterlimit:10.43299961;stroke-opacity:1;stroke-dasharray:none;stroke-dashoffset:0"
       ns0:preamble="/home/sriranga/Desktop/Basic-Electronics-Figures/package.tex"
       ns0:text="$-$"
       word-spacing="normal"
       letter-spacing="normal"
       font-size-adjust="none"
       font-stretch="normal"
       font-weight="normal"
       font-variant="normal"
       font-style="normal"
       stroke-miterlimit="10.433"
       xml:space="preserve"
       transform="matrix(1.2,0,0,-1.2,82.159365,1707.234)"
       id="g6529"><polygon
         id="polygon6531"
         points="224.05,709.96 224.05,709.4 229.14,709.4 229.14,709.96 "
         style="fill:#000000;stroke-width:0" /></g>    <g
       id="g6644"
       transform="matrix(1.2,0,0,-1.2,92.639035,1699.0515)"
       xml:space="preserve"
       stroke="black"
       stroke-linecap="butt"
       stroke-linejoin="miter"
       stroke-miterlimit="10.433"
       stroke-dasharray="none"
       stroke-dashoffset="0"
       stroke-opacity="1"
       fill="none"
       fill-rule="evenodd"
       fill-opacity="1"
       font-style="normal"
       font-variant="normal"
       font-weight="normal"
       font-stretch="normal"
       font-size-adjust="none"
       letter-spacing="normal"
       word-spacing="normal"
       text-anchor="start"
       ns0:text="$V_0$"
       ns0:preamble="/home/sriranga/Desktop/Basic-Electronics-Figures/package.tex"
       style="font-style:normal;font-variant:normal;font-weight:normal;font-stretch:normal;letter-spacing:normal;word-spacing:normal;text-anchor:start;fill:none;stroke:#000000;stroke-width:1;stroke-linecap:butt;stroke-linejoin:miter;stroke-miterlimit:10.43299961;stroke-opacity:1;stroke-dasharray:none;stroke-dashoffset:0"><path
         d="M230.28,713.61 H228.43 V713.45 C228.87,713.4,229.05,713.3,229.05,713.11 C229.05,712.93,228.86,712.5,228.54,711.93 L226.49,708.4 L225.83,712.8 C225.82,712.85,225.82,712.89,225.82,712.95 C225.82,713.28,225.96,713.38,226.59,713.45 V713.61 H224.19 V713.45 C224.74,713.38,224.76,713.35,224.97,712.11 L225.82,706.95 H226.01 L229.72,713.05 C229.89,713.32,230.05,713.44,230.28,713.45 Z "
         stroke-width="0"
         fill="black"
         id="path6646" /><path
         d="M231.29,710.33 L231.25,710.33 L231.22,710.33 L231.18,710.33 L231.15,710.33 L231.11,710.32 L231.08,710.32 L231.05,710.31 L231.02,710.31 L230.98,710.3 L230.95,710.3 L230.92,710.29 L230.89,710.28 L230.86,710.27 L230.83,710.26 L230.8,710.25 L230.77,710.24 L230.75,710.23 L230.72,710.22 L230.69,710.21 L230.66,710.19 L230.63,710.18 L230.61,710.16 L230.58,710.15 L230.56,710.13 L230.53,710.11 L230.5,710.09 L230.48,710.07 L230.45,710.06 L230.43,710.04 L230.4,710.01 L230.38,709.99 L230.35,709.97 C229.95,709.58,229.69,708.78,229.69,707.97 C229.69,707.21,229.92,706.4,230.24,706.01 C230.5,705.7,230.86,705.53,231.26,705.53 V705.71 C230.66,705.71,230.35,706.46,230.35,707.91 C230.35,709.38,230.67,710.15,231.27,710.15 H231.27 C231.85,710.15,232.16,709.36,232.16,707.91 C232.16,706.46,231.86,705.71,231.26,705.71 V705.53 C231.62,705.53,231.91,705.65,232.16,705.9 C232.57,706.28,232.83,707.08,232.83,707.93 C232.83,709.35,232.2,710.33,231.29,710.33 Z "
         stroke-width="0"
         fill="black"
         id="path6648" /></g>    <g
       style="font-style:normal;font-variant:normal;font-weight:normal;font-stretch:normal;letter-spacing:normal;word-spacing:normal;text-anchor:start;fill:none;stroke:#000000;stroke-width:1;stroke-linecap:butt;stroke-linejoin:miter;stroke-miterlimit:10.43299961;stroke-opacity:1;stroke-dasharray:none;stroke-dashoffset:0"
       ns0:preamble="/home/sriranga/Desktop/Basic-Electronics-Figures/package.tex"
       ns0:text="$D_1$"
       word-spacing="normal"
       letter-spacing="normal"
       font-size-adjust="none"
       font-stretch="normal"
       font-weight="normal"
       font-variant="normal"
       font-style="normal"
       stroke-miterlimit="10.433"
       xml:space="preserve"
       transform="matrix(1.2,0,0,-1.2,-36.28706,1674.5819)"
       id="g6885"><path
         id="path6887"
         d="m 224.97,713.45 0.03,0 0.03,0 0.03,-0.01 0.02,0 0.03,0 0.03,0 0.04,-0.01 0.05,-0.01 0.04,0 0.05,-0.01 0.03,-0.01 0.04,-0.01 0.04,0 0.03,-0.01 0.03,-0.01 0.03,-0.01 0.02,-0.01 0.03,-0.01 0.02,-0.01 0.02,-0.01 0.02,-0.02 0.01,-0.01 0.02,-0.01 0.01,-0.02 0.02,-0.01 0.01,-0.02 0.01,-0.02 0.01,-0.01 0,-0.02 0.01,-0.02 0,-0.02 0.01,-0.02 0,-0.03 0,-0.02 0,-0.02 c 0,-0.15 -0.04,-0.39 -0.11,-0.64 l -1.22,-4.39 c -0.18,-0.58 -0.25,-0.64 -0.81,-0.74 v -0.16 h 2.52 l -0.1,0.3 c -0.46,0 -0.65,0.11 -0.65,0.37 0,0.13 0.05,0.35 0.22,0.94 l 1.2,4.3 c 0.06,0.21 0.21,0.28 0.61,0.28 0.57,0 1.07,-0.13 1.39,-0.36 0.48,-0.36 0.75,-0.99 0.75,-1.77 0,-1.08 -0.42,-2.19 -1.09,-2.86 -0.59,-0.6 -1.4,-0.9 -2.43,-0.9 l 0.1,-0.3 c 1.16,0 2.23,0.31 2.99,0.87 0.97,0.7 1.54,1.8 1.54,2.95 0,1.63 -1.14,2.67 -2.91,2.67 h -2.77 z"
         inkscape:connector-curvature="0"
         style="fill:#000000;stroke-width:0" /><path
         id="path6889"
         d="m 232.9,710.33 -1.25,-0.63 v -0.1 c 0.08,0.04 0.16,0.06 0.19,0.08 0.12,0.05 0.24,0.08 0.31,0.08 0.14,0 0.21,-0.11 0.21,-0.33 v -3.15 c 0,-0.23 -0.06,-0.39 -0.17,-0.45 -0.1,-0.07 -0.2,-0.09 -0.49,-0.1 v -0.1 h 1.92 v 0.1 c -0.55,0.01 -0.66,0.08 -0.66,0.42 v 4.17 z"
         inkscape:connector-curvature="0"
         style="fill:#000000;stroke-width:0" /></g>    <g
       id="g7129"
       transform="matrix(1.2,0,0,-1.2,-36.28706,1756.7842)"
       xml:space="preserve"
       stroke="black"
       stroke-linecap="butt"
       stroke-linejoin="miter"
       stroke-miterlimit="10.433"
       stroke-dasharray="none"
       stroke-dashoffset="0"
       stroke-opacity="1"
       fill="none"
       fill-rule="evenodd"
       fill-opacity="1"
       font-style="normal"
       font-variant="normal"
       font-weight="normal"
       font-stretch="normal"
       font-size-adjust="none"
       letter-spacing="normal"
       word-spacing="normal"
       text-anchor="start"
       ns0:text="$D_2$"
       ns0:preamble="/home/sriranga/Desktop/Basic-Electronics-Figures/package.tex"
       style="font-style:normal;font-variant:normal;font-weight:normal;font-stretch:normal;letter-spacing:normal;word-spacing:normal;text-anchor:start;fill:none;stroke:#000000;stroke-width:1;stroke-linecap:butt;stroke-linejoin:miter;stroke-miterlimit:10.43299961;stroke-opacity:1;stroke-dasharray:none;stroke-dashoffset:0"><path
         d="M224.97,713.45 L225,713.45 L225.03,713.45 L225.06,713.44 L225.08,713.44 L225.11,713.44 L225.14,713.44 L225.18,713.43 L225.23,713.42 L225.27,713.42 L225.32,713.41 L225.35,713.4 L225.39,713.39 L225.43,713.39 L225.46,713.38 L225.49,713.37 L225.52,713.36 L225.54,713.35 L225.57,713.34 L225.59,713.33 L225.61,713.32 L225.63,713.3 L225.64,713.29 L225.66,713.28 L225.67,713.26 L225.69,713.25 L225.7,713.23 L225.71,713.21 L225.72,713.2 L225.72,713.18 L225.73,713.16 L225.73,713.14 L225.74,713.12 L225.74,713.09 L225.74,713.07 L225.74,713.05 C225.74,712.9,225.7,712.66,225.63,712.41 L224.41,708.02 C224.23,707.44,224.16,707.38,223.6,707.28 V707.12 H226.12 L226.02,707.42 C225.56,707.42,225.37,707.53,225.37,707.79 C225.37,707.92,225.42,708.14,225.59,708.73 L226.79,713.03 C226.85,713.24,227,713.31,227.4,713.31 C227.97,713.31,228.47,713.18,228.79,712.95 C229.27,712.59,229.54,711.96,229.54,711.18 C229.54,710.1,229.12,708.99,228.45,708.32 C227.86,707.72,227.05,707.42,226.02,707.42 L226.12,707.12 C227.28,707.12,228.35,707.43,229.11,707.99 C230.08,708.69,230.65,709.79,230.65,710.94 C230.65,712.57,229.51,713.61,227.74,713.61 H224.97 Z "
         stroke-width="0"
         fill="black"
         id="path7131" /><path
         d="M234.18,706.58 L234.09,706.62 C233.83,706.22,233.74,706.16,233.43,706.16 H231.76 L232.93,707.38 C233.55,708.03,233.83,708.56,233.83,709.1 C233.83,709.8,233.26,710.33,232.54,710.33 C232.15,710.33,231.79,710.18,231.54,709.9 C231.31,709.66,231.21,709.44,231.09,708.95 L231.24,708.91 C231.51,709.59,231.76,709.82,232.25,709.82 C232.83,709.82,233.23,709.42,233.23,708.84 C233.23,708.29,232.91,707.65,232.32,707.03 L231.08,705.71 V705.63 H233.8 Z "
         stroke-width="0"
         fill="black"
         id="path7133" /></g>    <g
       style="font-style:normal;font-variant:normal;font-weight:normal;font-stretch:normal;letter-spacing:normal;word-spacing:normal;text-anchor:start;fill:none;stroke:#000000;stroke-width:1;stroke-linecap:butt;stroke-linejoin:miter;stroke-miterlimit:10.43299961;stroke-opacity:1;stroke-dasharray:none;stroke-dashoffset:0"
       ns0:preamble="/home/sriranga/Desktop/Basic-Electronics-Figures/package.tex"
       ns0:text="$R$"
       word-spacing="normal"
       letter-spacing="normal"
       font-size-adjust="none"
       font-stretch="normal"
       font-weight="normal"
       font-variant="normal"
       font-style="normal"
       stroke-miterlimit="10.433"
       xml:space="preserve"
       transform="matrix(1.2,0,0,-1.2,50.071154,1662.4565)"
       id="content"><path
         id="path3198"
         d="m 229.07,707.28 -0.04,0.01 -0.04,0 -0.03,0.01 -0.04,0 -0.04,0.01 -0.03,0.01 -0.03,0.01 -0.03,0.01 -0.03,0.01 -0.03,0.01 -0.03,0.01 -0.03,0.02 -0.03,0.01 -0.02,0.02 -0.03,0.02 -0.02,0.02 -0.03,0.02 -0.02,0.02 -0.02,0.03 -0.02,0.02 -0.02,0.03 -0.03,0.03 -0.02,0.03 -0.02,0.03 -0.01,0.04 -0.02,0.03 -0.02,0.04 -0.02,0.04 -0.02,0.04 -0.02,0.05 -0.02,0.04 -0.01,0.05 -0.93,2.43 c 0.77,0.17 1.1,0.31 1.45,0.63 0.33,0.29 0.51,0.67 0.51,1.12 0,0.92 -0.73,1.43 -2.07,1.43 l -0.21,-0.3 c 0.83,0 1.24,-0.37 1.24,-1.11 0,-0.98 -0.64,-1.49 -1.88,-1.49 -0.16,0 -0.27,0.01 -0.51,0.05 l 0.65,2.28 c 0.06,0.2 0.18,0.27 0.5,0.27 l 0.21,0.3 h -2.47 v -0.16 c 0.42,-0.06 0.47,-0.07 0.57,-0.14 0.08,-0.05 0.14,-0.16 0.14,-0.27 0,-0.12 -0.05,-0.36 -0.12,-0.63 l -1.22,-4.39 c -0.18,-0.59 -0.25,-0.65 -0.81,-0.74 v -0.16 h 2.43 v 0.16 c -0.61,0.08 -0.68,0.13 -0.68,0.46 0,0.1 0.03,0.23 0.12,0.58 l 0.56,2.07 0.65,-0.05 1.22,-3.22 h 1.47 z"
         inkscape:connector-curvature="0"
         style="fill:#000000;stroke-width:0" /></g>  </g>
</svg>
