<?xml version="1.0" encoding="UTF-8" standalone="no"?>
<!-- Created with Inkscape (http://www.inkscape.org/) -->

<svg
   xmlns:ns0="http://www.iki.fi/pav/software/textext/"
   xmlns:dc="http://purl.org/dc/elements/1.1/"
   xmlns:cc="http://creativecommons.org/ns#"
   xmlns:rdf="http://www.w3.org/1999/02/22-rdf-syntax-ns#"
   xmlns:svg="http://www.w3.org/2000/svg"
   xmlns="http://www.w3.org/2000/svg"
   xmlns:sodipodi="http://sodipodi.sourceforge.net/DTD/sodipodi-0.dtd"
   xmlns:inkscape="http://www.inkscape.org/namespaces/inkscape"
   sodipodi:docname="fig71.eps"
   inkscape:version="0.48.4 r9939"
   version="1.1"
   id="svg2"
   height="354.33069"
   width="496.06299">
  <sodipodi:namedview
     id="base"
     pagecolor="#ffffff"
     bordercolor="#666666"
     borderopacity="1.0"
     inkscape:pageopacity="0.0"
     inkscape:pageshadow="2"
     inkscape:zoom="1.6848668"
     inkscape:cx="248.03149"
     inkscape:cy="177.16534"
     inkscape:document-units="cm"
     inkscape:current-layer="layer1"
     showgrid="false"
     units="cm"
     inkscape:window-width="1366"
     inkscape:window-height="744"
     inkscape:window-x="0"
     inkscape:window-y="24"
     inkscape:window-maximized="1"
     showguides="true"
     inkscape:guide-bbox="true">
    <inkscape:grid
       type="xygrid"
       id="grid2985"
       empspacing="5"
       visible="true"
       enabled="true"
       snapvisiblegridlinesonly="true" />
  </sodipodi:namedview>
  <defs
     id="defs4">
    <marker
       inkscape:stockid="Arrow2Sstart"
       orient="auto"
       refY="0.0"
       refX="0.0"
       id="Arrow2Sstart"
       style="overflow:visible">
      <path
         id="path4185"
         style="fill-rule:evenodd;stroke-width:0.62500000;stroke-linejoin:round"
         d="M 8.7185878,4.0337352 L -2.2072895,0.016013256 L 8.7185884,-4.0017078 C 6.9730900,-1.6296469 6.9831476,1.6157441 8.7185878,4.0337352 z "
         transform="scale(0.3) translate(-2.3,0)" />
    </marker>
    <marker
       inkscape:stockid="Arrow1Mstart"
       orient="auto"
       refY="0.0"
       refX="0.0"
       id="Arrow1Mstart"
       style="overflow:visible">
      <path
         id="path4161"
         d="M 0.0,0.0 L 5.0,-5.0 L -12.5,0.0 L 5.0,5.0 L 0.0,0.0 z "
         style="fill-rule:evenodd;stroke:#000000;stroke-width:1.0pt"
         transform="scale(0.4) translate(10,0)" />
    </marker>
    <marker
       inkscape:stockid="Arrow1Mstartf"
       orient="auto"
       refY="0.0"
       refX="0.0"
       id="Arrow1Mstartf"
       style="overflow:visible">
      <path
         id="path8071"
         d="M 0.0,0.0 L 5.0,-5.0 L -12.5,0.0 L 5.0,5.0 L 0.0,0.0 z "
         style="stroke:#4d4d4d;stroke-width:1.0pt;fill:#4d4d4d;fill-rule:evenodd"
         transform="scale(0.4) translate(10,0)" />
    </marker>
    <marker
       inkscape:stockid="Arrow1Mstart8"
       orient="auto"
       refY="0.0"
       refX="0.0"
       id="Arrow1Mstart8"
       style="overflow:visible">
      <path
         id="path8074"
         d="M 0.0,0.0 L 5.0,-5.0 L -12.5,0.0 L 5.0,5.0 L 0.0,0.0 z "
         style="stroke:#4d4d4d;stroke-width:1.0pt;fill:#4d4d4d;fill-rule:evenodd"
         transform="scale(0.4) translate(10,0)" />
    </marker>
  </defs>
  <metadata
     id="metadata7">
    <rdf:RDF>
      <cc:Work
         rdf:about="">
        <dc:format>image/svg+xml</dc:format>
        <dc:type
           rdf:resource="http://purl.org/dc/dcmitype/StillImage" />
        <dc:title></dc:title>
      </cc:Work>
    </rdf:RDF>
  </metadata>
  <g
     inkscape:label="Layer 1"
     inkscape:groupmode="layer"
     id="layer1"
     transform="translate(0,-698.03017)">
    <text
       sodipodi:linespacing="125%"
       id="text3279"
       y="790.89227"
       x="171.6088"
       style="font-size:12px;font-style:normal;font-variant:normal;font-weight:normal;font-stretch:normal;text-align:center;line-height:125%;letter-spacing:0px;word-spacing:0px;text-anchor:middle;fill:#000000;fill-opacity:1;stroke:none;font-family:LMRoman12;-inkscape-font-specification:Sans"
       xml:space="preserve"><tspan
         y="790.89227"
         x="171.6088"
         id="tspan3281"
         sodipodi:role="line" /></text>
    <path
       inkscape:connector-curvature="0"
       id="path6327"
       d="m 171.30751,723.97916 10.96374,0"
       style="fill:none;stroke:#000000;stroke-width:0.70866144;stroke-linecap:butt;stroke-linejoin:miter;stroke-miterlimit:4;stroke-opacity:1;stroke-dasharray:none;marker-start:url(#Arrow1Mstart)" />
    <path
       style="fill:none;stroke:#000000;stroke-width:0.70866144;stroke-linecap:butt;stroke-linejoin:miter;stroke-miterlimit:4;stroke-opacity:1;stroke-dasharray:none;marker-start:url(#Arrow1Mstart)"
       d="m 112.48438,815.4427 0,10.96374"
       id="path6341"
       inkscape:connector-curvature="0" />
    <text
       xml:space="preserve"
       style="font-size:12px;font-style:normal;font-variant:normal;font-weight:normal;font-stretch:normal;text-align:center;line-height:125%;letter-spacing:0px;word-spacing:0px;text-anchor:middle;fill:#000000;fill-opacity:1;stroke:none;font-family:LMRoman12;-inkscape-font-specification:Sans"
       x="133.67329"
       y="837.02777"
       id="text6343"
       sodipodi:linespacing="125%"><tspan
         sodipodi:role="line"
         id="tspan6345"
         x="133.67329"
         y="837.02777">Ignore carry</tspan></text>
    <path
       inkscape:connector-curvature="0"
       id="path6347"
       d="m 100.71586,747.53844 47.99679,0"
       style="fill:none;stroke:#000000;stroke-width:0.99999994px;stroke-linecap:butt;stroke-linejoin:miter;stroke-opacity:1" />
    <text
       sodipodi:linespacing="125%"
       id="text6783"
       y="809.09558"
       x="112.12804"
       style="font-size:12px;font-style:normal;font-variant:normal;font-weight:normal;font-stretch:normal;text-align:center;line-height:125%;letter-spacing:0px;word-spacing:0px;text-anchor:middle;fill:#000000;fill-opacity:1;stroke:none;font-family:LMRoman12;-inkscape-font-specification:Sans"
       xml:space="preserve"><tspan
         y="809.09558"
         x="112.12804"
         id="tspan6785"
         sodipodi:role="line">1</tspan></text>
    <text
       sodipodi:linespacing="125%"
       id="text8052"
       y="789.45062"
       x="111.40145"
       style="font-size:12px;font-style:normal;font-variant:normal;font-weight:normal;font-stretch:normal;text-align:center;line-height:125%;letter-spacing:0px;word-spacing:0px;text-anchor:middle;fill:#000000;fill-opacity:1;stroke:none;font-family:LMRoman12;-inkscape-font-specification:Sans"
       xml:space="preserve"><tspan
         y="789.45062"
         x="111.40145"
         id="tspan8054"
         sodipodi:role="line">+</tspan></text>
    <path
       d="m 127.13466,721.4907 0.444,-2.376 h -0.252 c -0.096,0.192 -0.216,0.264 -0.456,0.264 -0.096,0 -0.24,-0.024 -0.492,-0.084 -0.528,-0.132 -1.008,-0.204 -1.392,-0.204 -2.544,0 -4.848,2.4 -4.848,5.04 0,1.824 1.284,3.108 3.12,3.108 1.224,0 2.184,-0.516 3.252,-1.776 l -0.204,-0.168 c -1.068,1.056 -1.764,1.416 -2.736,1.416 -1.332,0 -2.1,-0.912 -2.1,-2.448 0,-1.416 0.576,-2.856 1.512,-3.828 0.564,-0.576 1.32,-0.912 2.112,-0.912 1.092,0 1.704,0.636 1.824,1.932 z"
       id="path8790"
       inkscape:connector-curvature="0"
       style="font-style:normal;font-variant:normal;font-weight:normal;font-stretch:normal;letter-spacing:normal;word-spacing:normal;text-anchor:start;fill:#000000;stroke:#000000;stroke-width:0;stroke-linecap:butt;stroke-linejoin:miter;stroke-miterlimit:10.43299961;stroke-opacity:1;stroke-dasharray:none;stroke-dashoffset:0" />
    <path
       d="m 130.58666,727.2867 0.132,-0.012 0.12,-0.012 0.108,-0.012 0.12,-0.024 0.108,-0.012 0.096,-0.024 0.108,-0.012 0.096,-0.024 0.096,-0.012 0.096,-0.024 0.096,-0.024 0.084,-0.024 0.096,-0.024 0.084,-0.024 0.168,-0.048 0.156,-0.06 0.156,-0.072 0.144,-0.06 0.156,-0.084 0.144,-0.084 0.144,-0.084 0.156,-0.096 0.072,-0.06 0.072,-0.048 c 1.248,-0.912 1.968,-2.388 1.968,-3.996 0,-1.968 -1.092,-3.36 -2.64,-3.36 -1.416,0 -2.484,1.2 -2.484,2.808 0,1.464 0.864,2.424 2.148,2.424 0.66,0 1.164,-0.192 1.8,-0.684 l -0.156,-0.264 c -0.336,0.276 -0.78,0.432 -1.212,0.432 -0.9,0 -1.476,-0.888 -1.476,-2.304 0,-0.684 0.192,-1.404 0.444,-1.704 0.204,-0.24 0.504,-0.372 0.84,-0.372 1.044,0 1.584,1.02 1.584,3.024 v 0.468 c 0,0.24 -0.048,0.348 -0.18,0.456 l 0.156,0.264 c -0.492,1.944 -1.812,3.228 -3.636,3.54 z"
       id="path8792"
       inkscape:connector-curvature="0"
       style="font-style:normal;font-variant:normal;font-weight:normal;font-stretch:normal;letter-spacing:normal;word-spacing:normal;text-anchor:start;fill:#000000;stroke:#000000;stroke-width:0;stroke-linecap:butt;stroke-linejoin:miter;stroke-miterlimit:10.43299961;stroke-opacity:1;stroke-dasharray:none;stroke-dashoffset:0" />
    <path
       d="m 138.19066,727.0347 h 3.36 c 1.872,0 3.168,-0.984 3.168,-2.388 0,-0.444 -0.144,-0.864 -0.408,-1.128 -0.24,-0.264 -0.48,-0.408 -1.092,-0.672 0.84,-0.204 1.188,-0.348 1.572,-0.684 0.336,-0.288 0.516,-0.684 0.516,-1.164 0,-1.128 -0.852,-1.752 -2.388,-1.752 l -0.216,0.36 c 0.948,0 1.392,0.396 1.392,1.284 0,0.684 -0.288,1.2 -0.804,1.488 -0.396,0.24 -0.972,0.324 -2.052,0.324 l -0.12,0.384 c 0.78,0 1.284,0.048 1.524,0.144 0.48,0.204 0.78,0.72 0.78,1.368 0,1.284 -0.876,2.076 -2.34,2.076 -0.492,0 -0.756,-0.18 -0.756,-0.504 0,-0.144 0.144,-0.72 0.42,-1.668 0.144,-0.54 0.228,-0.816 0.372,-1.416 h 0 l 0.12,-0.384 0.78,-2.772 c 0.072,-0.252 0.216,-0.324 0.684,-0.324 l 0.216,-0.36 h -3.084 v 0.192 c 0.744,0.06 0.912,0.156 0.912,0.48 0,0.18 -0.036,0.48 -0.12,0.768 l -1.476,5.268 c -0.216,0.696 -0.3,0.768 -0.96,0.888 z"
       id="path8794"
       inkscape:connector-curvature="0"
       style="font-style:normal;font-variant:normal;font-weight:normal;font-stretch:normal;letter-spacing:normal;word-spacing:normal;text-anchor:start;fill:#000000;stroke:#000000;stroke-width:0;stroke-linecap:butt;stroke-linejoin:miter;stroke-miterlimit:10.43299961;stroke-opacity:1;stroke-dasharray:none;stroke-dashoffset:0" />
    <polygon
       points="245.29,709.42 245.29,713.84 244.86,713.84 241.73,709.42 242.13,709.42 244.52,712.83 244.52,709.42 242.13,709.42 241.73,709.42 241.73,708.78 244.53,708.78 244.53,707.12 245.29,707.12 245.29,708.78 246.31,708.78 246.31,709.42 "
       id="polygon8796"
       style="font-style:normal;font-variant:normal;font-weight:normal;font-stretch:normal;letter-spacing:normal;word-spacing:normal;text-anchor:start;fill:#000000;stroke:#000000;stroke-width:0;stroke-linecap:butt;stroke-linejoin:miter;stroke-miterlimit:10.43299961;stroke-opacity:1;stroke-dasharray:none;stroke-dashoffset:0"
       transform="matrix(1.2,0,0,-1.2,-142.46934,1575.5787)" />
    <polygon
       id="polygon8933"
       points="229.14,709.96 224.05,709.96 224.05,709.4 229.14,709.4 "
       style="font-style:normal;font-variant:normal;font-weight:normal;font-stretch:normal;letter-spacing:normal;word-spacing:normal;text-anchor:start;fill:#000000;stroke:#000000;stroke-width:0;stroke-linecap:butt;stroke-linejoin:miter;stroke-miterlimit:10.43299961;stroke-opacity:1;stroke-dasharray:none;stroke-dashoffset:0"
       transform="matrix(1.2,0,0,-1.2,-157.96564,1590.1199)" />
    <path
       id="path8935"
       d="m 124.79036,741.3839 -0.06,-0.012 -0.06,0 -0.06,-0.012 -0.048,-0.012 -0.048,0 -0.048,-0.012 -0.048,-0.012 -0.036,-0.012 -0.036,-0.012 -0.036,-0.012 -0.036,-0.012 -0.036,-0.024 -0.024,-0.012 -0.024,-0.024 -0.024,-0.024 -0.024,-0.024 -0.024,-0.024 -0.024,-0.036 -0.024,-0.024 -0.012,-0.036 -0.024,-0.036 -0.012,-0.048 -0.012,-0.048 -0.012,-0.048 -0.024,-0.048 -0.012,-0.048 -0.012,-0.06 -0.012,-0.072 -0.012,-0.024 0,-0.036 -0.012,-0.036 0,-0.036 -0.012,-0.036 -0.012,-0.036 0,-0.036 -0.012,-0.048 -1.116,-6.744 h -0.312 l -3.468,5.964 c -0.936,1.584 -1.056,1.716 -1.536,1.812 v 0.192 h 2.232 v -0.192 c -0.612,-0.06 -0.708,-0.12 -0.708,-0.42 0,-0.228 0.036,-0.336 0.24,-0.744 l 0.684,-1.344 h 2.628 l -0.06,-0.432 h -2.316 l 1.788,-3.096 0.528,3.096 0.06,0.432 0.24,1.56 c 0.012,0.108 0.024,0.216 0.024,0.312 0,0.456 -0.168,0.564 -0.936,0.636 v 0.192 h 2.94 z"
       inkscape:connector-curvature="0"
       style="font-style:normal;font-variant:normal;font-weight:normal;font-stretch:normal;letter-spacing:normal;word-spacing:normal;text-anchor:start;fill:#000000;stroke:#000000;stroke-width:0;stroke-linecap:butt;stroke-linejoin:miter;stroke-miterlimit:10.43299961;stroke-opacity:1;stroke-dasharray:none;stroke-dashoffset:0" />
    <path
       id="path8937"
       d="m 134.84236,736.0319 0.444,-2.376 h -0.252 c -0.096,0.192 -0.216,0.264 -0.456,0.264 -0.096,0 -0.24,-0.024 -0.492,-0.084 -0.528,-0.132 -1.008,-0.204 -1.392,-0.204 -2.544,0 -4.848,2.4 -4.848,5.04 0,1.824 1.296,3.108 3.12,3.108 1.224,0 2.184,-0.516 3.252,-1.776 l -0.192,-0.168 c -1.08,1.056 -1.776,1.416 -2.748,1.416 -1.332,0 -2.088,-0.912 -2.088,-2.448 0,-1.416 0.564,-2.856 1.5,-3.828 0.576,-0.576 1.32,-0.912 2.112,-0.912 1.104,0 1.704,0.636 1.824,1.932 z"
       inkscape:connector-curvature="0"
       style="font-style:normal;font-variant:normal;font-weight:normal;font-stretch:normal;letter-spacing:normal;word-spacing:normal;text-anchor:start;fill:#000000;stroke:#000000;stroke-width:0;stroke-linecap:butt;stroke-linejoin:miter;stroke-miterlimit:10.43299961;stroke-opacity:1;stroke-dasharray:none;stroke-dashoffset:0" />
    <polygon
       id="polygon8939"
       points="243.09,709.42 243.09,708.78 245.88,708.78 245.88,707.12 246.65,707.12 246.65,708.78 247.66,708.78 247.66,709.42 246.65,709.42 246.65,713.84 246.21,713.84 243.09,709.42 243.49,709.42 245.87,712.83 245.87,709.42 243.49,709.42 "
       style="font-style:normal;font-variant:normal;font-weight:normal;font-stretch:normal;letter-spacing:normal;word-spacing:normal;text-anchor:start;fill:#000000;stroke:#000000;stroke-width:0;stroke-linecap:butt;stroke-linejoin:miter;stroke-miterlimit:10.43299961;stroke-opacity:1;stroke-dasharray:none;stroke-dashoffset:0"
       transform="matrix(1.2,0,0,-1.2,-153.96564,1590.1199)" />
    <path
       id="path8941"
       d="m 153.57836,733.7879 h -5.952 v 0.192 c 0.78,0.072 0.924,0.144 0.924,0.48 0,0.18 -0.048,0.48 -0.132,0.768 l -1.476,5.268 c -0.216,0.72 -0.288,0.792 -0.972,0.888 v 0.192 h 3.012 v -0.192 c -0.696,-0.036 -0.912,-0.168 -0.912,-0.528 0,-0.096 0.036,-0.276 0.108,-0.54 l 0.744,-2.652 c 0.432,0.024 0.696,0.036 0.96,0.036 0.468,0 0.552,0.012 0.66,0.06 0.18,0.096 0.264,0.252 0.264,0.48 0,0.192 -0.024,0.336 -0.096,0.708 l 0.204,0.06 0.9,-2.796 -0.204,-0.06 c -0.54,1.08 -0.576,1.092 -2.58,1.116 l 0.78,-2.784 c 0.072,-0.228 0.24,-0.3 0.732,-0.3 2.004,0 2.436,0.144 2.436,0.888 0,0.072 0,0.132 -0.012,0.288 -0.012,0.072 -0.012,0.084 -0.024,0.228 l 0.252,0.024 z"
       inkscape:connector-curvature="0"
       style="font-style:normal;font-variant:normal;font-weight:normal;font-stretch:normal;letter-spacing:normal;word-spacing:normal;text-anchor:start;fill:#000000;stroke:#000000;stroke-width:0;stroke-linecap:butt;stroke-linejoin:miter;stroke-miterlimit:10.43299961;stroke-opacity:1;stroke-dasharray:none;stroke-dashoffset:0" />
    <text
       sodipodi:linespacing="125%"
       id="text9070"
       y="726.367"
       x="202.63364"
       style="font-size:12px;font-style:normal;font-variant:normal;font-weight:normal;font-stretch:normal;text-align:center;line-height:125%;letter-spacing:0px;word-spacing:0px;text-anchor:middle;fill:#000000;fill-opacity:1;stroke:none;font-family:LMRoman12;-inkscape-font-specification:Sans"
       xml:space="preserve"><tspan
         y="726.367"
         x="202.63364"
         id="tspan9072"
         sodipodi:role="line">retain</tspan></text>
    <path
       style="fill:none;stroke:#000000;stroke-width:0.70866144;stroke-linecap:butt;stroke-linejoin:miter;stroke-miterlimit:4;stroke-opacity:1;stroke-dasharray:none;marker-start:url(#Arrow1Mstart)"
       d="m 171.30751,737.19912 10.96374,0"
       id="path9074"
       inkscape:connector-curvature="0" />
    <text
       xml:space="preserve"
       style="font-size:12px;font-style:normal;font-variant:normal;font-weight:normal;font-stretch:normal;text-align:center;line-height:125%;letter-spacing:0px;word-spacing:0px;text-anchor:middle;fill:#000000;fill-opacity:1;stroke:none;font-family:LMRoman12;-inkscape-font-specification:Sans"
       x="258.66107"
       y="739.58698"
       id="text9076"
       sodipodi:linespacing="125%"><tspan
         sodipodi:role="line"
         id="tspan9078"
         x="258.66107"
         y="739.58698">replace by 16's complement</tspan></text>
    <path
       style="fill:none;stroke:#000000;stroke-width:0.99999994px;stroke-linecap:butt;stroke-linejoin:miter;stroke-opacity:1"
       d="m 100.80602,796.8005 56.65149,0"
       id="path9080"
       inkscape:connector-curvature="0" />
    <path
       style="font-style:normal;font-variant:normal;font-weight:normal;font-stretch:normal;letter-spacing:normal;word-spacing:normal;text-anchor:start;fill:#000000;stroke:#000000;stroke-width:0;stroke-linecap:butt;stroke-linejoin:miter;stroke-miterlimit:10.43299961;stroke-opacity:1;stroke-dasharray:none;stroke-dashoffset:0"
       inkscape:connector-curvature="0"
       id="path9084"
       d="m 127.13466,770.7528 0.444,-2.376 h -0.252 c -0.096,0.192 -0.216,0.264 -0.456,0.264 -0.096,0 -0.24,-0.024 -0.492,-0.084 -0.528,-0.132 -1.008,-0.204 -1.392,-0.204 -2.544,0 -4.848,2.4 -4.848,5.04 0,1.824 1.284,3.108 3.12,3.108 1.224,0 2.184,-0.516 3.252,-1.776 l -0.204,-0.168 c -1.068,1.056 -1.764,1.416 -2.736,1.416 -1.332,0 -2.1,-0.912 -2.1,-2.448 0,-1.416 0.576,-2.856 1.512,-3.828 0.564,-0.576 1.32,-0.912 2.112,-0.912 1.092,0 1.704,0.636 1.824,1.932 z" />
    <path
       style="font-style:normal;font-variant:normal;font-weight:normal;font-stretch:normal;letter-spacing:normal;word-spacing:normal;text-anchor:start;fill:#000000;stroke:#000000;stroke-width:0;stroke-linecap:butt;stroke-linejoin:miter;stroke-miterlimit:10.43299961;stroke-opacity:1;stroke-dasharray:none;stroke-dashoffset:0"
       inkscape:connector-curvature="0"
       id="path9086"
       d="m 130.58666,776.5488 0.132,-0.012 0.12,-0.012 0.108,-0.012 0.12,-0.024 0.108,-0.012 0.096,-0.024 0.108,-0.012 0.096,-0.024 0.096,-0.012 0.096,-0.024 0.096,-0.024 0.084,-0.024 0.096,-0.024 0.084,-0.024 0.168,-0.048 0.156,-0.06 0.156,-0.072 0.144,-0.06 0.156,-0.084 0.144,-0.084 0.144,-0.084 0.156,-0.096 0.072,-0.06 0.072,-0.048 c 1.248,-0.912 1.968,-2.388 1.968,-3.996 0,-1.968 -1.092,-3.36 -2.64,-3.36 -1.416,0 -2.484,1.2 -2.484,2.808 0,1.464 0.864,2.424 2.148,2.424 0.66,0 1.164,-0.192 1.8,-0.684 l -0.156,-0.264 c -0.336,0.276 -0.78,0.432 -1.212,0.432 -0.9,0 -1.476,-0.888 -1.476,-2.304 0,-0.684 0.192,-1.404 0.444,-1.704 0.204,-0.24 0.504,-0.372 0.84,-0.372 1.044,0 1.584,1.02 1.584,3.024 v 0.468 c 0,0.24 -0.048,0.348 -0.18,0.456 l 0.156,0.264 c -0.492,1.944 -1.812,3.228 -3.636,3.54 z" />
    <path
       style="font-style:normal;font-variant:normal;font-weight:normal;font-stretch:normal;letter-spacing:normal;word-spacing:normal;text-anchor:start;fill:#000000;stroke:#000000;stroke-width:0;stroke-linecap:butt;stroke-linejoin:miter;stroke-miterlimit:10.43299961;stroke-opacity:1;stroke-dasharray:none;stroke-dashoffset:0"
       inkscape:connector-curvature="0"
       id="path9088"
       d="m 138.19066,776.2968 h 3.36 c 1.872,0 3.168,-0.984 3.168,-2.388 0,-0.444 -0.144,-0.864 -0.408,-1.128 -0.24,-0.264 -0.48,-0.408 -1.092,-0.672 0.84,-0.204 1.188,-0.348 1.572,-0.684 0.336,-0.288 0.516,-0.684 0.516,-1.164 0,-1.128 -0.852,-1.752 -2.388,-1.752 l -0.216,0.36 c 0.948,0 1.392,0.396 1.392,1.284 0,0.684 -0.288,1.2 -0.804,1.488 -0.396,0.24 -0.972,0.324 -2.052,0.324 l -0.12,0.384 c 0.78,0 1.284,0.048 1.524,0.144 0.48,0.204 0.78,0.72 0.78,1.368 0,1.284 -0.876,2.076 -2.34,2.076 -0.492,0 -0.756,-0.18 -0.756,-0.504 0,-0.144 0.144,-0.72 0.42,-1.668 0.144,-0.54 0.228,-0.816 0.372,-1.416 h 0 l 0.12,-0.384 0.78,-2.772 c 0.072,-0.252 0.216,-0.324 0.684,-0.324 l 0.216,-0.36 h -3.084 v 0.192 c 0.744,0.06 0.912,0.156 0.912,0.48 0,0.18 -0.036,0.48 -0.12,0.768 l -1.476,5.268 c -0.216,0.696 -0.3,0.768 -0.96,0.888 z" />
    <polygon
       style="font-style:normal;font-variant:normal;font-weight:normal;font-stretch:normal;letter-spacing:normal;word-spacing:normal;text-anchor:start;fill:#000000;stroke:#000000;stroke-width:0;stroke-linecap:butt;stroke-linejoin:miter;stroke-miterlimit:10.43299961;stroke-opacity:1;stroke-dasharray:none;stroke-dashoffset:0"
       id="polygon9090"
       points="241.73,709.42 242.13,709.42 244.52,712.83 244.52,709.42 242.13,709.42 241.73,709.42 241.73,708.78 244.53,708.78 244.53,707.12 245.29,707.12 245.29,708.78 246.31,708.78 246.31,709.42 245.29,709.42 245.29,713.84 244.86,713.84 "
       transform="matrix(1.2,0,0,-1.2,-142.46934,1624.8408)" />
    <path
       style="font-style:normal;font-variant:normal;font-weight:normal;font-stretch:normal;letter-spacing:normal;word-spacing:normal;text-anchor:start;fill:#000000;stroke:#000000;stroke-width:0;stroke-linecap:butt;stroke-linejoin:miter;stroke-miterlimit:10.43299961;stroke-opacity:1;stroke-dasharray:none;stroke-dashoffset:0"
       inkscape:connector-curvature="0"
       d="m 123.88398,783.878 h 2.34 c 0.192,0 0.24,-0.024 0.276,-0.108 l 0.456,-1.056 -0.108,-0.084 c -0.18,0.252 -0.3,0.312 -0.552,0.312 h -2.496 l -1.296,2.82 c -0.012,0.024 -0.012,0.036 -0.012,0.06 0,0.06 0.048,0.096 0.144,0.096 0.384,0 0.852,0.084 1.344,0.24 1.38,0.444 2.004,1.176 2.004,2.364 0,1.14 -0.72,2.04 -1.656,2.04 -0.24,0 -0.444,-0.084 -0.804,-0.348 -0.372,-0.276 -0.648,-0.396 -0.9,-0.396 -0.348,0 -0.516,0.144 -0.516,0.444 0,0.456 0.564,0.732 1.452,0.732 1.008,0 1.872,-0.312 2.46,-0.924 0.552,-0.54 0.804,-1.212 0.804,-2.124 0,-0.852 -0.228,-1.404 -0.828,-2.004 -0.516,-0.528 -1.2,-0.792 -2.604,-1.044 z"
       id="path9246" />
    <path
       style="font-style:normal;font-variant:normal;font-weight:normal;font-stretch:normal;letter-spacing:normal;word-spacing:normal;text-anchor:start;fill:#000000;stroke:#000000;stroke-width:0;stroke-linecap:butt;stroke-linejoin:miter;stroke-miterlimit:10.43299961;stroke-opacity:1;stroke-dasharray:none;stroke-dashoffset:0"
       inkscape:connector-curvature="0"
       d="m 131.53598,786.902 0.06,0 0.06,0 0.06,0 0.06,0 0.06,0 0.048,0 0.048,0 0.048,0 0.048,0 0.048,0 0.048,0.012 0.036,0 0.048,0 0.036,0 0.036,0.012 0.036,0 0.036,0 0.036,0 0.036,0.012 0.036,0 0.024,0.012 0.036,0 0.06,0.012 0.048,0.012 0.06,0.024 0.06,0.012 0.048,0.024 c 0.744,0.252 1.2,0.936 1.2,1.764 0,0.996 -0.672,1.776 -1.56,1.776 -0.324,0 -0.564,-0.084 -0.996,-0.372 -0.36,-0.216 -0.564,-0.3 -0.768,-0.3 -0.276,0 -0.456,0.168 -0.456,0.42 0,0.42 0.516,0.672 1.344,0.672 0.924,0 1.872,-0.3 2.436,-0.792 0.552,-0.492 0.864,-1.188 0.864,-1.98 0,-0.612 -0.192,-1.164 -0.54,-1.536 -0.228,-0.264 -0.456,-0.408 -0.984,-0.636 0.816,-0.564 1.116,-0.996 1.116,-1.644 0,-0.96 -0.756,-1.632 -1.86,-1.632 -0.6,0 -1.116,0.204 -1.548,0.588 -0.36,0.312 -0.54,0.624 -0.804,1.344 l 0.18,0.048 c 0.492,-0.876 1.032,-1.26 1.776,-1.26 0.78,0 1.32,0.516 1.32,1.272 0,0.432 -0.18,0.852 -0.48,1.152 -0.36,0.36 -0.696,0.54 -1.5,0.828 z"
       id="path9248" />
    <path
       style="font-style:normal;font-variant:normal;font-weight:normal;font-stretch:normal;letter-spacing:normal;word-spacing:normal;text-anchor:start;fill:#000000;stroke:#000000;stroke-width:0;stroke-linecap:butt;stroke-linejoin:miter;stroke-miterlimit:10.43299961;stroke-opacity:1;stroke-dasharray:none;stroke-dashoffset:0"
       inkscape:connector-curvature="0"
       d="m 137.99998,790.838 h 3.372 c 1.872,0 3.168,-0.984 3.168,-2.388 0,-0.444 -0.144,-0.864 -0.408,-1.128 -0.24,-0.264 -0.48,-0.408 -1.104,-0.672 0.852,-0.204 1.2,-0.348 1.572,-0.684 0.336,-0.288 0.516,-0.684 0.516,-1.164 0,-1.128 -0.84,-1.752 -2.388,-1.752 l -0.216,0.36 c 0.96,0 1.404,0.396 1.404,1.284 0,0.684 -0.288,1.2 -0.804,1.488 -0.408,0.24 -0.972,0.324 -2.052,0.324 l -0.12,0.384 c 0.78,0 1.284,0.048 1.512,0.144 0.492,0.204 0.792,0.72 0.792,1.368 0,1.284 -0.888,2.076 -2.34,2.076 -0.504,0 -0.768,-0.18 -0.768,-0.504 0,-0.144 0.144,-0.72 0.42,-1.668 0.156,-0.54 0.228,-0.816 0.384,-1.416 h 0 l 0.12,-0.384 0.78,-2.772 c 0.072,-0.252 0.216,-0.324 0.672,-0.324 l 0.216,-0.36 h -3.072 v 0.192 c 0.732,0.06 0.912,0.156 0.912,0.48 0,0.18 -0.048,0.48 -0.132,0.768 l -1.464,5.268 c -0.216,0.696 -0.3,0.768 -0.972,0.888 z"
       id="path9250" />
    <path
       style="font-style:normal;font-variant:normal;font-weight:normal;font-stretch:normal;letter-spacing:normal;word-spacing:normal;text-anchor:start;fill:#000000;stroke:#000000;stroke-width:0;stroke-linecap:butt;stroke-linejoin:miter;stroke-miterlimit:10.43299961;stroke-opacity:1;stroke-dasharray:none;stroke-dashoffset:0"
       inkscape:connector-curvature="0"
       d="m 150.76398,782.774 -2.148,1.08 v 0.168 c 0.144,-0.06 0.264,-0.108 0.312,-0.132 0.216,-0.084 0.42,-0.132 0.54,-0.132 0.252,0 0.36,0.18 0.36,0.564 v 5.4 c 0,0.396 -0.096,0.672 -0.288,0.78 -0.18,0.108 -0.348,0.144 -0.852,0.156 v 0.18 h 3.3 v -0.18 c -0.936,-0.012 -1.128,-0.132 -1.128,-0.708 v -7.152 z"
       id="path9252" />
    <path
       id="path9554"
       d="m 124.3137,800.8763 -2.148,1.08 v 0.168 c 0.144,-0.06 0.264,-0.108 0.312,-0.132 0.216,-0.084 0.42,-0.132 0.54,-0.132 0.252,0 0.36,0.18 0.36,0.564 v 5.4 c 0,0.396 -0.096,0.672 -0.288,0.78 -0.18,0.108 -0.348,0.144 -0.84,0.156 v 0.18 h 3.288 v -0.18 c -0.936,-0.012 -1.128,-0.132 -1.128,-0.708 v -7.152 z"
       inkscape:connector-curvature="0"
       style="font-style:normal;font-variant:normal;font-weight:normal;font-stretch:normal;letter-spacing:normal;word-spacing:normal;text-anchor:start;fill:#000000;stroke:#000000;stroke-width:0;stroke-linecap:butt;stroke-linejoin:miter;stroke-miterlimit:10.43299961;stroke-opacity:1;stroke-dasharray:none;stroke-dashoffset:0" />
    <path
       id="path9556"
       d="m 130.6697,801.3443 0.024,0 0.036,0 0.036,0.012 0.036,0 0.024,0 0.036,0 0.06,0.012 0.048,0.012 0.048,0 0.06,0.012 0.036,0.012 0.048,0.012 0.048,0 0.036,0.012 0.036,0.012 0.036,0.012 0.024,0.012 0.036,0.012 0.024,0.012 0.024,0.012 0.024,0.024 0.024,0.012 0.012,0.012 0.024,0.024 0.012,0.012 0.012,0.024 0.012,0.024 0.012,0.012 0,0.024 0.012,0.024 0,0.024 0.012,0.024 0,0.036 0,0.024 0,0.024 c 0,0.18 -0.048,0.468 -0.132,0.768 l -1.464,5.268 c -0.216,0.696 -0.3,0.768 -0.972,0.888 v 0.192 h 3.024 l -0.12,-0.36 c -0.552,0 -0.78,-0.132 -0.78,-0.444 0,-0.156 0.06,-0.42 0.264,-1.128 l 1.452,-5.16 c 0.072,-0.252 0.252,-0.336 0.72,-0.336 0.684,0 1.284,0.156 1.668,0.432 0.576,0.432 0.9,1.188 0.9,2.124 0,1.296 -0.504,2.628 -1.308,3.432 -0.708,0.72 -1.668,1.08 -2.916,1.08 l 0.12,0.36 c 1.392,0 2.676,-0.372 3.588,-1.044 1.164,-0.84 1.848,-2.16 1.848,-3.54 0,-1.956 -1.368,-3.204 -3.492,-3.204 h -3.312 z"
       inkscape:connector-curvature="0"
       style="font-style:normal;font-variant:normal;font-weight:normal;font-stretch:normal;letter-spacing:normal;word-spacing:normal;text-anchor:start;fill:#000000;stroke:#000000;stroke-width:0;stroke-linecap:butt;stroke-linejoin:miter;stroke-miterlimit:10.43299961;stroke-opacity:1;stroke-dasharray:none;stroke-dashoffset:0" />
    <path
       id="path9558"
       d="m 145.0657,800.7803 -0.12,0.012 -0.12,0.012 -0.12,0.012 -0.12,0.012 -0.108,0.012 -0.108,0.024 -0.108,0.012 -0.108,0.024 -0.096,0.012 -0.096,0.024 -0.096,0.012 -0.096,0.024 -0.084,0.024 -0.096,0.024 -0.168,0.048 -0.168,0.06 -0.156,0.072 -0.168,0.072 -0.156,0.072 -0.156,0.084 -0.156,0.096 -0.156,0.096 -0.084,0.06 -0.084,0.06 c -1.284,0.912 -1.992,2.268 -1.992,3.864 0,1.044 0.324,2.088 0.84,2.688 0.456,0.528 1.092,0.804 1.836,0.804 1.488,0 2.508,-1.128 2.508,-2.772 0,-1.524 -0.864,-2.496 -2.244,-2.496 -0.528,0 -0.78,0.084 -1.524,0.54 l 0.036,0.312 c 0.252,-0.192 0.612,-0.3 1.032,-0.3 h 0 c 1.032,0 1.632,0.864 1.632,2.352 0,1.308 -0.468,2.04 -1.308,2.04 -1.044,0 -1.692,-1.128 -1.692,-2.976 0,-0.6 0.096,-0.936 0.336,-1.116 l -0.036,-0.312 c 0.324,-1.8 1.656,-3.084 3.528,-3.396 z"
       inkscape:connector-curvature="0"
       style="font-style:normal;font-variant:normal;font-weight:normal;font-stretch:normal;letter-spacing:normal;word-spacing:normal;text-anchor:start;fill:#000000;stroke:#000000;stroke-width:0;stroke-linecap:butt;stroke-linejoin:miter;stroke-miterlimit:10.43299961;stroke-opacity:1;stroke-dasharray:none;stroke-dashoffset:0" />
    <path
       id="path9560"
       d="m 149.8857,801.9803 h 2.34 c 0.192,0 0.24,-0.024 0.276,-0.108 l 0.444,-1.056 -0.108,-0.084 c -0.168,0.252 -0.288,0.312 -0.54,0.312 h -2.496 l -1.308,2.82 c -0.012,0.024 -0.012,0.036 -0.012,0.06 0,0.06 0.048,0.096 0.144,0.096 0.384,0 0.864,0.084 1.356,0.24 1.368,0.444 2.004,1.176 2.004,2.364 0,1.14 -0.732,2.04 -1.656,2.04 -0.24,0 -0.444,-0.084 -0.804,-0.348 -0.384,-0.276 -0.66,-0.396 -0.912,-0.396 -0.348,0 -0.516,0.144 -0.516,0.444 0,0.456 0.564,0.732 1.464,0.732 0.996,0 1.86,-0.312 2.46,-0.924 0.552,-0.54 0.804,-1.212 0.804,-2.124 0,-0.852 -0.228,-1.404 -0.828,-2.004 -0.528,-0.528 -1.212,-0.792 -2.616,-1.044 z"
       inkscape:connector-curvature="0"
       style="font-style:normal;font-variant:normal;font-weight:normal;font-stretch:normal;letter-spacing:normal;word-spacing:normal;text-anchor:start;fill:#000000;stroke:#000000;stroke-width:0;stroke-linecap:butt;stroke-linejoin:miter;stroke-miterlimit:10.43299961;stroke-opacity:1;stroke-dasharray:none;stroke-dashoffset:0" />
    <g
       style="font-style:normal;font-variant:normal;font-weight:normal;font-stretch:normal;letter-spacing:normal;word-spacing:normal;text-anchor:start;fill:none;stroke:#000000;stroke-width:1;stroke-linecap:butt;stroke-linejoin:miter;stroke-miterlimit:10.43299961;stroke-opacity:1;stroke-dasharray:none;stroke-dashoffset:0"
       ns0:preamble="/home/sriranga/Desktop/Basic-Electronics-Figures/package.tex"
       ns0:text="$\\therefore \\,(C9B4)_{16} - (AC4F)_{16}= (1D65)_{16}$"
       word-spacing="normal"
       letter-spacing="normal"
       font-size-adjust="none"
       font-stretch="normal"
       font-weight="normal"
       font-variant="normal"
       font-style="normal"
       stroke-miterlimit="10.433"
       xml:space="preserve"
       transform="matrix(1.2,0,0,-1.2,-180.70194,1703.7778)"
       id="content"><path
         id="path9830"
         d="m 227.09,711.55 0,0.02 0,0.03 0,0.03 -0.01,0.02 0,0.03 -0.01,0.02 -0.01,0.03 -0.01,0.02 -0.01,0.02 -0.01,0.03 -0.01,0.02 -0.02,0.02 -0.01,0.02 -0.02,0.02 -0.01,0.02 -0.02,0.02 -0.02,0.01 -0.02,0.02 -0.02,0.02 -0.02,0.01 -0.02,0.02 -0.02,0.01 -0.03,0.01 -0.02,0.01 -0.02,0.01 -0.03,0.01 -0.02,0.01 -0.03,0 -0.02,0.01 -0.03,0 -0.03,0 -0.02,0 c -0.3,0 -0.53,-0.24 -0.53,-0.52 0,-0.3 0.23,-0.53 0.53,-0.53 0.28,0 0.52,0.23 0.52,0.53 z"
         inkscape:connector-curvature="0"
         style="fill:#000000;stroke-width:0" /><path
         id="path9832"
         d="m 229.07,707.59 0,0.03 0,0.03 0,0.02 -0.01,0.03 0,0.02 -0.01,0.03 -0.01,0.02 -0.01,0.03 -0.01,0.02 -0.01,0.02 -0.01,0.02 -0.02,0.02 -0.01,0.03 -0.02,0.02 -0.01,0.01 -0.02,0.02 -0.02,0.02 -0.02,0.02 -0.02,0.01 -0.02,0.02 -0.02,0.01 -0.02,0.01 -0.03,0.02 -0.02,0.01 -0.02,0.01 -0.03,0 -0.02,0.01 -0.03,0.01 -0.02,0 -0.03,0.01 -0.03,0 -0.02,0 c -0.3,0 -0.53,-0.24 -0.53,-0.53 0,-0.3 0.23,-0.52 0.53,-0.52 0.28,0 0.52,0.22 0.52,0.52 z"
         inkscape:connector-curvature="0"
         style="fill:#000000;stroke-width:0" /><path
         id="path9834"
         d="m 225.1,707.59 0,0.03 0,0.03 0,0.02 -0.01,0.03 0,0.02 -0.01,0.03 -0.01,0.02 -0.01,0.03 -0.01,0.02 -0.01,0.02 -0.01,0.02 -0.02,0.02 -0.01,0.03 -0.02,0.02 -0.01,0.01 -0.02,0.02 -0.02,0.02 -0.02,0.02 -0.02,0.01 -0.02,0.02 -0.02,0.01 -0.02,0.01 -0.03,0.02 -0.02,0.01 -0.02,0.01 -0.03,0 -0.02,0.01 -0.03,0.01 -0.02,0 -0.03,0.01 -0.03,0 -0.02,0 c -0.3,0 -0.53,-0.24 -0.53,-0.53 0,-0.3 0.23,-0.52 0.53,-0.52 0.29,0 0.52,0.22 0.52,0.52 z"
         inkscape:connector-curvature="0"
         style="fill:#000000;stroke-width:0" /><path
         id="path9836"
         d="m 237.06,713.84 -0.07,-0.04 -0.06,-0.05 -0.06,-0.04 -0.07,-0.04 -0.05,-0.04 -0.06,-0.04 -0.05,-0.04 -0.06,-0.03 -0.05,-0.04 -0.05,-0.04 -0.04,-0.03 -0.05,-0.04 -0.04,-0.03 -0.05,-0.04 -0.08,-0.06 -0.08,-0.07 -0.07,-0.07 -0.07,-0.07 -0.07,-0.07 -0.07,-0.07 -0.07,-0.08 -0.06,-0.08 -0.07,-0.08 c -0.71,-0.87 -1.06,-1.86 -1.06,-3.02 0,-1.26 0.37,-2.24 1.25,-3.25 0.41,-0.48 0.66,-0.7 1.18,-1.01 l 0.12,0.16 c -0.8,0.62 -1.07,0.97 -1.34,1.71 -0.24,0.67 -0.35,1.42 -0.35,2.42 0,1.04 0.13,1.86 0.4,2.47 0.28,0.62 0.57,0.97 1.29,1.55 z"
         inkscape:connector-curvature="0"
         style="fill:#000000;stroke-width:0" /><path
         id="path9838"
         d="m 243.68,711.74 0.37,1.98 h -0.21 c -0.08,-0.16 -0.18,-0.22 -0.38,-0.22 -0.08,0 -0.2,0.02 -0.41,0.07 -0.44,0.11 -0.84,0.17 -1.16,0.17 -2.12,0 -4.04,-2 -4.04,-4.2 0,-1.52 1.08,-2.59 2.6,-2.59 1.02,0 1.82,0.43 2.71,1.48 l -0.17,0.14 c -0.89,-0.88 -1.47,-1.18 -2.28,-1.18 -1.11,0 -1.74,0.76 -1.74,2.04 0,1.18 0.47,2.38 1.25,3.19 0.48,0.48 1.1,0.76 1.76,0.76 0.92,0 1.42,-0.53 1.52,-1.61 z"
         inkscape:connector-curvature="0"
         style="fill:#000000;stroke-width:0" /><path
         id="path9840"
         d="m 244.9,706.91 0.1,0.01 0.1,0.01 0.09,0.01 0.1,0.02 0.09,0.01 0.09,0.02 0.08,0.01 0.09,0.02 0.08,0.01 0.07,0.02 0.08,0.02 0.08,0.02 0.07,0.02 0.07,0.02 0.14,0.04 0.13,0.05 0.13,0.06 0.13,0.05 0.12,0.07 0.12,0.07 0.12,0.07 0.13,0.08 0.06,0.05 0.06,0.04 c 1.04,0.76 1.65,1.99 1.65,3.33 0,1.64 -0.92,2.8 -2.2,2.8 -1.19,0 -2.07,-1 -2.07,-2.34 0,-1.22 0.71,-2.02 1.79,-2.02 0.55,0 0.96,0.16 1.49,0.57 l -0.13,0.22 c -0.28,-0.23 -0.65,-0.36 -1,-0.36 -0.76,0 -1.24,0.74 -1.24,1.92 0,0.57 0.16,1.17 0.37,1.42 0.17,0.2 0.42,0.31 0.71,0.31 0.86,0 1.31,-0.85 1.31,-2.52 v -0.39 c 0,-0.2 -0.04,-0.29 -0.15,-0.38 l 0.13,-0.22 c -0.41,-1.62 -1.51,-2.69 -3.02,-2.95 z"
         inkscape:connector-curvature="0"
         style="fill:#000000;stroke-width:0" /><path
         id="path9842"
         d="m 249.56,707.12 h 2.8 c 1.57,0 2.64,0.82 2.64,1.99 0,0.37 -0.12,0.72 -0.34,0.94 -0.2,0.22 -0.4,0.34 -0.91,0.56 0.7,0.17 0.99,0.29 1.31,0.57 0.28,0.24 0.43,0.57 0.43,0.97 0,0.94 -0.71,1.46 -1.99,1.46 l -0.18,-0.3 c 0.8,0 1.16,-0.33 1.16,-1.07 0,-0.57 -0.24,-1 -0.66,-1.24 -0.34,-0.2 -0.82,-0.27 -1.72,-0.27 l -0.09,-0.32 c 0.64,0 1.06,-0.04 1.26,-0.12 0.41,-0.17 0.66,-0.6 0.66,-1.14 0,-1.07 -0.74,-1.73 -1.95,-1.73 -0.42,0 -0.64,0.15 -0.64,0.42 0,0.12 0.12,0.6 0.35,1.39 0.13,0.45 0.19,0.68 0.32,1.18 h 0 l 0.09,0.32 0.65,2.31 c 0.06,0.21 0.18,0.27 0.57,0.27 l 0.18,0.3 h -2.57 v -0.16 c 0.62,-0.05 0.77,-0.13 0.77,-0.4 0,-0.15 -0.04,-0.4 -0.11,-0.64 l -1.23,-4.39 c -0.18,-0.58 -0.24,-0.64 -0.8,-0.74 z"
         inkscape:connector-curvature="0"
         style="fill:#000000;stroke-width:0" /><polygon
         id="polygon9844"
         points="258.53,712.83 258.53,709.42 256.14,709.42 255.74,709.42 255.74,708.78 258.54,708.78 258.54,707.12 259.31,707.12 259.31,708.78 260.32,708.78 260.32,709.42 259.31,709.42 259.31,713.84 258.87,713.84 255.74,709.42 256.14,709.42 "
         style="fill:#000000;stroke-width:0" /><path
         id="path9846"
         d="m 260.98,705.37 0.07,0.04 0.07,0.04 0.06,0.05 0.06,0.04 0.06,0.04 0.06,0.03 0.05,0.04 0.05,0.04 0.05,0.04 0.05,0.03 0.05,0.04 0.05,0.03 0.04,0.04 0.04,0.03 0.08,0.07 0.08,0.07 0.08,0.07 0.07,0.07 0.07,0.07 0.07,0.07 0.06,0.08 0.07,0.08 0.07,0.08 c 0.71,0.86 1.05,1.86 1.05,3.02 0,1.27 -0.36,2.23 -1.24,3.25 -0.41,0.47 -0.67,0.69 -1.18,1.01 l -0.12,-0.16 c 0.79,-0.63 1.06,-0.97 1.34,-1.72 0.24,-0.66 0.35,-1.42 0.35,-2.41 0,-1.03 -0.13,-1.86 -0.4,-2.46 -0.28,-0.63 -0.58,-0.99 -1.29,-1.56 z"
         inkscape:connector-curvature="0"
         style="fill:#000000;stroke-width:0" /><path
         id="path9848"
         d="m 265.95,710.33 -1.25,-0.63 v -0.1 c 0.08,0.04 0.16,0.06 0.19,0.08 0.12,0.05 0.24,0.08 0.31,0.08 0.15,0 0.21,-0.11 0.21,-0.33 v -3.15 c 0,-0.23 -0.06,-0.39 -0.17,-0.45 -0.1,-0.07 -0.2,-0.09 -0.49,-0.1 v -0.1 h 1.92 v 0.1 c -0.55,0.01 -0.66,0.08 -0.66,0.42 v 4.17 z"
         inkscape:connector-curvature="0"
         style="fill:#000000;stroke-width:0" /><path
         id="path9850"
         d="m 270.52,710.39 -0.08,-0.01 -0.07,-0.01 -0.07,0 -0.06,-0.01 -0.07,-0.01 -0.06,-0.01 -0.06,-0.01 -0.06,-0.01 -0.06,-0.01 -0.06,-0.01 -0.05,-0.01 -0.06,-0.02 -0.05,-0.01 -0.05,-0.01 -0.1,-0.03 -0.1,-0.04 -0.09,-0.04 -0.1,-0.04 -0.09,-0.04 -0.09,-0.05 -0.09,-0.06 -0.09,-0.06 -0.05,-0.03 -0.05,-0.03 c -0.75,-0.53 -1.16,-1.33 -1.16,-2.26 0,-0.6 0.19,-1.22 0.49,-1.56 0.26,-0.31 0.64,-0.48 1.07,-0.48 0.86,0 1.46,0.66 1.46,1.62 0,0.89 -0.51,1.46 -1.31,1.46 -0.31,0 -0.45,-0.05 -0.89,-0.32 l 0.02,-0.18 c 0.15,0.11 0.36,0.18 0.61,0.18 h 0 c 0.6,0 0.95,-0.5 0.95,-1.37 0,-0.77 -0.28,-1.19 -0.76,-1.19 -0.62,0 -0.99,0.65 -0.99,1.73 0,0.35 0.05,0.55 0.19,0.65 l -0.02,0.18 c 0.19,1.05 0.97,1.8 2.06,1.99 z"
         inkscape:connector-curvature="0"
         style="fill:#000000;stroke-width:0" /><polygon
         id="polygon9852"
         points="274.23,709.96 274.23,709.4 279.32,709.4 279.32,709.96 "
         style="fill:#000000;stroke-width:0" /><path
         id="path9854"
         d="m 285.1,713.84 -0.07,-0.04 -0.07,-0.05 -0.06,-0.04 -0.06,-0.04 -0.06,-0.04 -0.06,-0.04 -0.05,-0.04 -0.05,-0.03 -0.05,-0.04 -0.05,-0.04 -0.05,-0.03 -0.04,-0.04 -0.05,-0.03 -0.04,-0.04 -0.08,-0.06 -0.08,-0.07 -0.08,-0.07 -0.07,-0.07 -0.07,-0.07 -0.06,-0.07 -0.07,-0.08 -0.07,-0.08 -0.07,-0.08 c -0.7,-0.87 -1.05,-1.86 -1.05,-3.02 0,-1.26 0.37,-2.24 1.24,-3.25 0.41,-0.48 0.67,-0.7 1.19,-1.01 l 0.12,0.16 c -0.8,0.62 -1.08,0.97 -1.35,1.71 -0.24,0.67 -0.35,1.42 -0.35,2.42 0,1.04 0.13,1.86 0.4,2.47 0.28,0.62 0.58,0.97 1.3,1.55 z"
         inkscape:connector-curvature="0"
         style="fill:#000000;stroke-width:0" /><path
         id="path9856"
         d="m 291.34,707.28 -0.05,0.01 -0.05,0 -0.05,0.01 -0.04,0.01 -0.04,0 -0.04,0.01 -0.04,0.01 -0.03,0.01 -0.03,0.01 -0.03,0.01 -0.03,0.01 -0.03,0.02 -0.02,0.01 -0.02,0.02 -0.02,0.02 -0.02,0.02 -0.02,0.02 -0.02,0.03 -0.02,0.02 -0.01,0.03 -0.02,0.03 -0.01,0.04 -0.01,0.04 -0.01,0.04 -0.02,0.04 -0.01,0.04 -0.01,0.05 -0.01,0.06 -0.01,0.02 0,0.03 -0.01,0.03 0,0.03 -0.01,0.03 -0.01,0.03 0,0.03 -0.01,0.04 -0.93,5.62 h -0.26 l -2.89,-4.97 c -0.78,-1.32 -0.88,-1.43 -1.28,-1.51 v -0.16 h 1.86 v 0.16 c -0.51,0.05 -0.59,0.1 -0.59,0.35 0,0.19 0.03,0.28 0.2,0.62 l 0.57,1.12 h 2.19 l -0.05,0.36 h -1.93 l 1.49,2.58 0.44,-2.58 0.05,-0.36 0.2,-1.3 c 0.01,-0.09 0.02,-0.18 0.02,-0.26 0,-0.38 -0.14,-0.47 -0.78,-0.53 v -0.16 h 2.45 z"
         inkscape:connector-curvature="0"
         style="fill:#000000;stroke-width:0" /><path
         id="path9858"
         d="m 298.05,711.74 0.37,1.98 h -0.21 c -0.08,-0.16 -0.18,-0.22 -0.38,-0.22 -0.08,0 -0.2,0.02 -0.41,0.07 -0.44,0.11 -0.84,0.17 -1.16,0.17 -2.12,0 -4.04,-2 -4.04,-4.2 0,-1.52 1.08,-2.59 2.6,-2.59 1.02,0 1.82,0.43 2.72,1.48 l -0.17,0.14 c -0.9,-0.88 -1.48,-1.18 -2.29,-1.18 -1.11,0 -1.74,0.76 -1.74,2.04 0,1.18 0.47,2.38 1.25,3.19 0.48,0.48 1.1,0.76 1.76,0.76 0.92,0 1.42,-0.53 1.52,-1.61 z"
         inkscape:connector-curvature="0"
         style="fill:#000000;stroke-width:0" /><polygon
         id="polygon9860"
         points="301.58,712.83 301.58,709.42 299.2,709.42 298.8,709.42 298.8,708.78 301.59,708.78 301.59,707.12 302.36,707.12 302.36,708.78 303.38,708.78 303.38,709.42 302.36,709.42 302.36,713.84 301.92,713.84 298.8,709.42 299.2,709.42 "
         style="fill:#000000;stroke-width:0" /><path
         id="path9862"
         d="m 310.33,713.61 h -4.96 v -0.16 c 0.65,-0.06 0.77,-0.12 0.77,-0.4 0,-0.15 -0.04,-0.4 -0.11,-0.64 l -1.23,-4.39 c -0.18,-0.6 -0.24,-0.66 -0.81,-0.74 v -0.16 h 2.51 v 0.16 c -0.58,0.03 -0.76,0.14 -0.76,0.44 0,0.08 0.03,0.23 0.09,0.45 l 0.62,2.21 c 0.36,-0.02 0.58,-0.03 0.8,-0.03 0.39,0 0.46,-0.01 0.55,-0.05 0.15,-0.08 0.22,-0.21 0.22,-0.4 0,-0.16 -0.02,-0.28 -0.08,-0.59 l 0.17,-0.05 0.75,2.33 -0.18,0.05 c -0.44,-0.9 -0.47,-0.91 -2.14,-0.93 l 0.65,2.32 c 0.06,0.19 0.2,0.25 0.61,0.25 1.67,0 2.03,-0.12 2.03,-0.74 0,-0.06 0,-0.11 -0.01,-0.24 -0.01,-0.06 -0.01,-0.07 -0.02,-0.19 l 0.21,-0.02 z"
         inkscape:connector-curvature="0"
         style="fill:#000000;stroke-width:0" /><path
         id="path9864"
         d="m 310.96,705.37 0.07,0.04 0.07,0.04 0.06,0.05 0.06,0.04 0.06,0.04 0.05,0.03 0.06,0.04 0.05,0.04 0.05,0.04 0.05,0.03 0.05,0.04 0.04,0.03 0.05,0.04 0.04,0.03 0.08,0.07 0.08,0.07 0.07,0.07 0.07,0.07 0.07,0.07 0.07,0.07 0.07,0.08 0.07,0.08 0.06,0.08 c 0.71,0.86 1.06,1.86 1.06,3.02 0,1.27 -0.37,2.23 -1.24,3.25 -0.41,0.47 -0.67,0.69 -1.19,1.01 l -0.12,-0.16 c 0.8,-0.63 1.07,-0.97 1.35,-1.72 0.23,-0.66 0.34,-1.42 0.34,-2.41 0,-1.03 -0.13,-1.86 -0.39,-2.46 -0.28,-0.63 -0.58,-0.99 -1.3,-1.56 z"
         inkscape:connector-curvature="0"
         style="fill:#000000;stroke-width:0" /><path
         id="path9866"
         d="m 315.93,710.33 -1.26,-0.63 v -0.1 c 0.09,0.04 0.16,0.06 0.19,0.08 0.13,0.05 0.25,0.08 0.32,0.08 0.14,0 0.2,-0.11 0.2,-0.33 v -3.15 c 0,-0.23 -0.05,-0.39 -0.16,-0.45 -0.11,-0.07 -0.2,-0.09 -0.5,-0.1 v -0.1 h 1.92 v 0.1 c -0.54,0.01 -0.66,0.08 -0.66,0.42 v 4.17 z"
         inkscape:connector-curvature="0"
         style="fill:#000000;stroke-width:0" /><path
         id="path9868"
         d="m 320.49,710.39 -0.07,-0.01 -0.07,-0.01 -0.07,0 -0.07,-0.01 -0.06,-0.01 -0.06,-0.01 -0.07,-0.01 -0.06,-0.01 -0.05,-0.01 -0.06,-0.01 -0.06,-0.01 -0.05,-0.02 -0.05,-0.01 -0.06,-0.01 -0.1,-0.03 -0.09,-0.04 -0.1,-0.04 -0.09,-0.04 -0.09,-0.04 -0.09,-0.05 -0.1,-0.06 -0.09,-0.06 -0.04,-0.03 -0.05,-0.03 c -0.75,-0.53 -1.17,-1.33 -1.17,-2.26 0,-0.6 0.19,-1.22 0.49,-1.56 0.27,-0.31 0.64,-0.48 1.07,-0.48 0.87,0 1.47,0.66 1.47,1.62 0,0.89 -0.51,1.46 -1.31,1.46 -0.31,0 -0.45,-0.05 -0.89,-0.32 l 0.02,-0.18 c 0.14,0.11 0.36,0.18 0.6,0.18 h 0 c 0.6,0 0.95,-0.5 0.95,-1.37 0,-0.77 -0.27,-1.19 -0.76,-1.19 -0.61,0 -0.99,0.65 -0.99,1.73 0,0.35 0.06,0.55 0.2,0.65 l -0.02,0.18 c 0.19,1.05 0.97,1.8 2.06,1.99 z"
         inkscape:connector-curvature="0"
         style="fill:#000000;stroke-width:0" /><polygon
         id="polygon9870"
         points="324.76,710.96 324.76,710.4 329.85,710.4 329.85,710.96 "
         style="fill:#000000;stroke-width:0" /><polygon
         id="polygon9872"
         points="324.76,708.94 324.76,708.39 329.85,708.39 329.85,708.94 "
         style="fill:#000000;stroke-width:0" /><path
         id="path9874"
         d="m 336.18,713.84 -0.07,-0.04 -0.06,-0.05 -0.07,-0.04 -0.06,-0.04 -0.06,-0.04 -0.05,-0.04 -0.06,-0.04 -0.05,-0.03 -0.05,-0.04 -0.05,-0.04 -0.05,-0.03 -0.04,-0.04 -0.05,-0.03 -0.04,-0.04 -0.08,-0.06 -0.08,-0.07 -0.07,-0.07 -0.07,-0.07 -0.07,-0.07 -0.07,-0.07 -0.07,-0.08 -0.07,-0.08 -0.06,-0.08 c -0.71,-0.87 -1.06,-1.86 -1.06,-3.02 0,-1.26 0.37,-2.24 1.24,-3.25 0.41,-0.48 0.67,-0.7 1.19,-1.01 l 0.12,0.16 c -0.8,0.62 -1.08,0.97 -1.35,1.71 -0.23,0.67 -0.34,1.42 -0.34,2.42 0,1.04 0.13,1.86 0.4,2.47 0.27,0.62 0.57,0.97 1.29,1.55 z"
         inkscape:connector-curvature="0"
         style="fill:#000000;stroke-width:0" /><path
         id="path9876"
         d="m 339.46,713.84 -1.79,-0.9 v -0.14 c 0.12,0.05 0.22,0.09 0.26,0.11 0.18,0.07 0.35,0.11 0.45,0.11 0.21,0 0.3,-0.15 0.3,-0.47 v -4.5 c 0,-0.33 -0.08,-0.56 -0.24,-0.65 -0.15,-0.09 -0.29,-0.12 -0.7,-0.13 v -0.15 h 2.74 v 0.15 c -0.78,0.01 -0.94,0.11 -0.94,0.59 v 5.96 z"
         inkscape:connector-curvature="0"
         style="fill:#000000;stroke-width:0" /><path
         id="path9878"
         d="m 343.08,713.45 0.03,0 0.03,0 0.03,-0.01 0.03,0 0.02,0 0.03,0 0.05,-0.01 0.04,-0.01 0.04,0 0.05,-0.01 0.03,-0.01 0.04,-0.01 0.04,0 0.03,-0.01 0.03,-0.01 0.03,-0.01 0.02,-0.01 0.03,-0.01 0.02,-0.01 0.02,-0.01 0.02,-0.02 0.02,-0.01 0.01,-0.01 0.02,-0.02 0.01,-0.01 0.01,-0.02 0.01,-0.02 0.01,-0.01 0,-0.02 0.01,-0.02 0,-0.02 0.01,-0.02 0,-0.03 0,-0.02 0,-0.02 c 0,-0.15 -0.04,-0.39 -0.11,-0.64 l -1.22,-4.39 c -0.18,-0.58 -0.25,-0.64 -0.81,-0.74 v -0.16 h 2.52 l -0.1,0.3 c -0.46,0 -0.65,0.11 -0.65,0.37 0,0.13 0.05,0.35 0.22,0.94 l 1.21,4.3 c 0.06,0.21 0.2,0.28 0.6,0.28 0.57,0 1.07,-0.13 1.39,-0.36 0.48,-0.36 0.75,-0.99 0.75,-1.77 0,-1.08 -0.42,-2.19 -1.09,-2.86 -0.59,-0.6 -1.39,-0.9 -2.43,-0.9 l 0.1,-0.3 c 1.16,0 2.23,0.31 2.99,0.87 0.97,0.7 1.54,1.8 1.54,2.95 0,1.63 -1.14,2.67 -2.91,2.67 h -2.77 z"
         inkscape:connector-curvature="0"
         style="fill:#000000;stroke-width:0" /><path
         id="path9880"
         d="m 353.42,713.92 -0.1,-0.01 -0.1,-0.01 -0.1,-0.01 -0.1,-0.01 -0.09,-0.01 -0.09,-0.02 -0.09,-0.01 -0.09,-0.02 -0.08,-0.01 -0.08,-0.02 -0.08,-0.01 -0.08,-0.02 -0.07,-0.02 -0.08,-0.02 -0.14,-0.04 -0.14,-0.05 -0.13,-0.06 -0.14,-0.06 -0.13,-0.06 -0.13,-0.07 -0.13,-0.08 -0.13,-0.08 -0.07,-0.05 -0.07,-0.05 c -1.07,-0.76 -1.66,-1.89 -1.66,-3.22 0,-0.87 0.27,-1.74 0.7,-2.24 0.38,-0.44 0.91,-0.67 1.53,-0.67 1.24,0 2.09,0.94 2.09,2.31 0,1.27 -0.72,2.08 -1.87,2.08 -0.44,0 -0.65,-0.07 -1.27,-0.45 l 0.03,-0.26 c 0.21,0.16 0.51,0.25 0.86,0.25 h 0 c 0.86,0 1.36,-0.72 1.36,-1.96 0,-1.09 -0.39,-1.7 -1.09,-1.7 -0.87,0 -1.41,0.94 -1.41,2.48 0,0.5 0.08,0.78 0.28,0.93 l -0.03,0.26 c 0.27,1.5 1.38,2.57 2.94,2.83 z"
         inkscape:connector-curvature="0"
         style="fill:#000000;stroke-width:0" /><path
         id="path9882"
         d="m 355.77,712.92 h 1.95 c 0.16,0 0.2,0.02 0.23,0.09 l 0.37,0.88 -0.09,0.07 c -0.15,-0.21 -0.24,-0.26 -0.45,-0.26 h -2.08 l -1.09,-2.35 c -0.01,-0.02 -0.01,-0.03 -0.01,-0.05 0,-0.05 0.04,-0.08 0.12,-0.08 0.32,0 0.72,-0.07 1.13,-0.2 1.14,-0.37 1.67,-0.98 1.67,-1.97 0,-0.95 -0.61,-1.7 -1.38,-1.7 -0.2,0 -0.37,0.07 -0.67,0.29 -0.32,0.23 -0.55,0.33 -0.76,0.33 -0.29,0 -0.42,-0.12 -0.42,-0.37 0,-0.38 0.46,-0.61 1.21,-0.61 0.83,0 1.55,0.26 2.05,0.77 0.46,0.45 0.66,1.01 0.66,1.77 0,0.71 -0.18,1.17 -0.68,1.67 -0.44,0.44 -1.01,0.66 -2.18,0.87 z"
         inkscape:connector-curvature="0"
         style="fill:#000000;stroke-width:0" /><path
         id="path9884"
         d="m 359.33,705.37 0.06,0.04 0.07,0.04 0.06,0.05 0.06,0.04 0.06,0.04 0.06,0.03 0.05,0.04 0.05,0.04 0.05,0.04 0.05,0.03 0.05,0.04 0.05,0.03 0.04,0.04 0.04,0.03 0.08,0.07 0.08,0.07 0.08,0.07 0.07,0.07 0.07,0.07 0.07,0.07 0.06,0.08 0.07,0.08 0.07,0.08 c 0.7,0.86 1.05,1.86 1.05,3.02 0,1.27 -0.36,2.23 -1.24,3.25 -0.41,0.47 -0.67,0.69 -1.18,1.01 l -0.12,-0.16 c 0.79,-0.63 1.06,-0.97 1.34,-1.72 0.24,-0.66 0.35,-1.42 0.35,-2.41 0,-1.03 -0.13,-1.86 -0.4,-2.46 -0.28,-0.63 -0.58,-0.99 -1.29,-1.56 z"
         inkscape:connector-curvature="0"
         style="fill:#000000;stroke-width:0" /><path
         id="path9886"
         d="m 364.29,710.33 -1.25,-0.63 v -0.1 c 0.08,0.04 0.16,0.06 0.19,0.08 0.12,0.05 0.24,0.08 0.31,0.08 0.15,0 0.21,-0.11 0.21,-0.33 v -3.15 c 0,-0.23 -0.06,-0.39 -0.17,-0.45 -0.1,-0.07 -0.2,-0.09 -0.49,-0.1 v -0.1 h 1.92 v 0.1 c -0.55,0.01 -0.66,0.08 -0.66,0.42 v 4.17 z"
         inkscape:connector-curvature="0"
         style="fill:#000000;stroke-width:0" /><path
         id="path9888"
         d="m 368.86,710.39 -0.08,-0.01 -0.07,-0.01 -0.07,0 -0.06,-0.01 -0.07,-0.01 -0.06,-0.01 -0.06,-0.01 -0.06,-0.01 -0.06,-0.01 -0.06,-0.01 -0.05,-0.01 -0.06,-0.02 -0.05,-0.01 -0.05,-0.01 -0.1,-0.03 -0.1,-0.04 -0.09,-0.04 -0.1,-0.04 -0.09,-0.04 -0.09,-0.05 -0.09,-0.06 -0.09,-0.06 -0.05,-0.03 -0.05,-0.03 c -0.75,-0.53 -1.16,-1.33 -1.16,-2.26 0,-0.6 0.19,-1.22 0.49,-1.56 0.26,-0.31 0.64,-0.48 1.07,-0.48 0.86,0 1.46,0.66 1.46,1.62 0,0.89 -0.51,1.46 -1.31,1.46 -0.31,0 -0.45,-0.05 -0.89,-0.32 l 0.02,-0.18 c 0.15,0.11 0.36,0.18 0.61,0.18 h 0 c 0.6,0 0.94,-0.5 0.94,-1.37 0,-0.77 -0.27,-1.19 -0.76,-1.19 -0.61,0 -0.98,0.65 -0.98,1.73 0,0.35 0.05,0.55 0.19,0.65 l -0.02,0.18 c 0.19,1.05 0.97,1.8 2.06,1.99 z"
         inkscape:connector-curvature="0"
         style="fill:#000000;stroke-width:0" /></g>  </g>
</svg>
