<?xml version="1.0" encoding="UTF-8" standalone="no"?>
<!-- Created with Inkscape (http://www.inkscape.org/) -->

<svg
   xmlns:ns0="http://www.iki.fi/pav/software/textext/"
   xmlns:dc="http://purl.org/dc/elements/1.1/"
   xmlns:cc="http://creativecommons.org/ns#"
   xmlns:rdf="http://www.w3.org/1999/02/22-rdf-syntax-ns#"
   xmlns:svg="http://www.w3.org/2000/svg"
   xmlns="http://www.w3.org/2000/svg"
   xmlns:sodipodi="http://sodipodi.sourceforge.net/DTD/sodipodi-0.dtd"
   xmlns:inkscape="http://www.inkscape.org/namespaces/inkscape"
   sodipodi:docname="fig81_6.7cd.svg"
   inkscape:version="0.48.4 r9939"
   version="1.1"
   id="svg2"
   height="354.33069"
   width="496.06299">
  <sodipodi:namedview
     id="base"
     pagecolor="#ffffff"
     bordercolor="#666666"
     borderopacity="1.0"
     inkscape:pageopacity="0.0"
     inkscape:pageshadow="2"
     inkscape:zoom="1.6848668"
     inkscape:cx="248.03149"
     inkscape:cy="177.16534"
     inkscape:document-units="cm"
     inkscape:current-layer="layer1"
     showgrid="false"
     units="cm"
     inkscape:window-width="1366"
     inkscape:window-height="744"
     inkscape:window-x="0"
     inkscape:window-y="24"
     inkscape:window-maximized="1"
     showguides="true"
     inkscape:guide-bbox="true"
     inkscape:object-nodes="true">
    <inkscape:grid
       snapvisiblegridlinesonly="true"
       enabled="true"
       visible="true"
       empspacing="5"
       id="grid2985"
       type="xygrid" />
  </sodipodi:namedview>
  <defs
     id="defs4">
    <marker
       style="overflow:visible"
       id="Arrow2Sstart"
       refX="0.0"
       refY="0.0"
       orient="auto"
       inkscape:stockid="Arrow2Sstart">
      <path
         transform="scale(0.3) translate(-2.3,0)"
         d="M 8.7185878,4.0337352 L -2.2072895,0.016013256 L 8.7185884,-4.0017078 C 6.9730900,-1.6296469 6.9831476,1.6157441 8.7185878,4.0337352 z "
         style="fill-rule:evenodd;stroke-width:0.62500000;stroke-linejoin:round"
         id="path4185" />
    </marker>
    <marker
       style="overflow:visible"
       id="Arrow1Mstart"
       refX="0.0"
       refY="0.0"
       orient="auto"
       inkscape:stockid="Arrow1Mstart">
      <path
         transform="scale(0.4) translate(10,0)"
         style="fill-rule:evenodd;stroke:#000000;stroke-width:1.0pt"
         d="M 0.0,0.0 L 5.0,-5.0 L -12.5,0.0 L 5.0,5.0 L 0.0,0.0 z "
         id="path4161" />
    </marker>
    <marker
       style="overflow:visible"
       id="Arrow1Mstartf"
       refX="0.0"
       refY="0.0"
       orient="auto"
       inkscape:stockid="Arrow1Mstartf">
      <path
         transform="scale(0.4) translate(10,0)"
         style="stroke:#4d4d4d;stroke-width:1.0pt;fill:#4d4d4d;fill-rule:evenodd"
         d="M 0.0,0.0 L 5.0,-5.0 L -12.5,0.0 L 5.0,5.0 L 0.0,0.0 z "
         id="path8071" />
    </marker>
    <marker
       style="overflow:visible"
       id="Arrow1Mstart8"
       refX="0.0"
       refY="0.0"
       orient="auto"
       inkscape:stockid="Arrow1Mstart8">
      <path
         transform="scale(0.4) translate(10,0)"
         style="stroke:#4d4d4d;stroke-width:1.0pt;fill:#4d4d4d;fill-rule:evenodd"
         d="M 0.0,0.0 L 5.0,-5.0 L -12.5,0.0 L 5.0,5.0 L 0.0,0.0 z "
         id="path8074" />
    </marker>
    <marker
       style="overflow:visible"
       id="Arrow1MstartL"
       refX="0.0"
       refY="0.0"
       orient="auto"
       inkscape:stockid="Arrow1MstartL">
      <path
         transform="scale(0.4) translate(10,0)"
         style="stroke:#4d4d4d;stroke-width:1.0pt;fill:#4d4d4d;fill-rule:evenodd"
         d="M 0.0,0.0 L 5.0,-5.0 L -12.5,0.0 L 5.0,5.0 L 0.0,0.0 z "
         id="path13536" />
    </marker>
    <marker
       style="overflow:visible"
       id="Arrow1Mstartx"
       refX="0.0"
       refY="0.0"
       orient="auto"
       inkscape:stockid="Arrow1Mstartx">
      <path
         transform="scale(0.4) translate(10,0)"
         style="stroke:#4d4d4d;stroke-width:1.0pt;fill:#4d4d4d;fill-rule:evenodd"
         d="M 0.0,0.0 L 5.0,-5.0 L -12.5,0.0 L 5.0,5.0 L 0.0,0.0 z "
         id="path13539" />
    </marker>
    <marker
       style="overflow:visible;"
       id="Arrow1Mend"
       refX="0.0"
       refY="0.0"
       orient="auto"
       inkscape:stockid="Arrow1Mend">
      <path
         transform="scale(0.4) rotate(180) translate(10,0)"
         style="fill-rule:evenodd;stroke:#000000;stroke-width:1.0pt;"
         d="M 0.0,0.0 L 5.0,-5.0 L -12.5,0.0 L 5.0,5.0 L 0.0,0.0 z "
         id="path3823" />
    </marker>
    <marker
       style="overflow:visible;"
       id="Arrow1Mend-1"
       refX="0.0"
       refY="0.0"
       orient="auto"
       inkscape:stockid="Arrow1Mend">
      <path
         transform="scale(0.4) rotate(180) translate(10,0)"
         style="fill-rule:evenodd;stroke:#000000;stroke-width:1.0pt;"
         d="M 0.0,0.0 L 5.0,-5.0 L -12.5,0.0 L 5.0,5.0 L 0.0,0.0 z "
         id="path3823-8" />
    </marker>
  </defs>
  <metadata
     id="metadata7">
    <rdf:RDF>
      <cc:Work
         rdf:about="">
        <dc:format>image/svg+xml</dc:format>
        <dc:type
           rdf:resource="http://purl.org/dc/dcmitype/StillImage" />
        <dc:title></dc:title>
      </cc:Work>
    </rdf:RDF>
  </metadata>
  <g
     transform="translate(0,-698.03017)"
     id="layer1"
     inkscape:groupmode="layer"
     inkscape:label="Layer 1">
    <path
       style="fill:none;stroke:#000000;stroke-width:1.20000005;stroke-linecap:butt;stroke-linejoin:round;stroke-miterlimit:4;stroke-opacity:1;stroke-dasharray:none"
       d="m 175.66573,772.36086 0,24.82286 -4.91528,1.84379 10.1196,3.80952 -10.1196,3.80953 10.1196,3.80951 -10.1196,3.80953 10.1196,3.80952 -10.20432,3.82879 10,3.80952 -5,1.94646 0,24.70093"
       id="path5037"
       inkscape:connector-curvature="0"
       sodipodi:nodetypes="cccccccccccc" />
    <text
       xml:space="preserve"
       style="font-size:12px;font-style:normal;font-variant:normal;font-weight:normal;font-stretch:normal;text-align:center;line-height:125%;letter-spacing:0px;word-spacing:0px;text-anchor:middle;fill:#000000;fill-opacity:1;stroke:none;font-family:LMRoman12;-inkscape-font-specification:Sans"
       x="171.6088"
       y="790.89227"
       id="text3279"
       sodipodi:linespacing="125%"><tspan
         sodipodi:role="line"
         id="tspan3281"
         x="171.6088"
         y="790.89227" /></text>
    <path
       inkscape:connector-curvature="0"
       id="path4573"
       d="m 45.665732,842.36086 45.998152,0 m 41.843516,0 c 27.50001,0 49.65834,0 77.15834,0"
       style="fill:none;stroke:#000000;stroke-width:1.20000005;stroke-linecap:butt;stroke-linejoin:miter;stroke-miterlimit:4;stroke-opacity:1;stroke-dasharray:none;marker-end:none"
       sodipodi:nodetypes="cccc" />
    <path
       transform="matrix(0,-1,1,0,78.835042,1159.8609)"
       d="m 390,96.830688 c 0,1.380712 -1.11929,2.5 -2.5,2.5 -1.38071,0 -2.5,-1.119288 -2.5,-2.5 0,-1.380711 1.11929,-2.5 2.5,-2.5 1.38071,0 2.5,1.119289 2.5,2.5 z"
       sodipodi:ry="2.5"
       sodipodi:rx="2.5"
       sodipodi:cy="96.830688"
       sodipodi:cx="387.5"
       id="path3014"
       style="fill:#ffffff;fill-opacity:1;stroke:#000000;stroke-width:0.70866144;stroke-linecap:square;stroke-linejoin:round;stroke-miterlimit:4;stroke-opacity:1;stroke-dasharray:none;stroke-dashoffset:0"
       sodipodi:type="arc" />
    <path
       transform="translate(-129.33427,0)"
       d="m 307.5,842.36084 c 0,1.38071 -1.11929,2.5 -2.5,2.5 -1.38071,0 -2.5,-1.11929 -2.5,-2.5 0,-1.38071 1.11929,-2.5 2.5,-2.5 1.38071,0 2.5,1.11929 2.5,2.5 z"
       sodipodi:ry="2.5"
       sodipodi:rx="2.5"
       sodipodi:cy="842.36084"
       sodipodi:cx="305"
       style="fill:#000000;stroke:none"
       id="path5176"
       sodipodi:type="arc" />
    <path
       sodipodi:nodetypes="ccccc"
       inkscape:connector-curvature="0"
       id="path5183"
       d="m 175.66573,842.36082 0,60.00004 -30,0 -99.999998,0 0,23.22034"
       style="fill:none;stroke:#000000;stroke-width:1.20000005;stroke-linecap:butt;stroke-linejoin:miter;stroke-miterlimit:4;stroke-opacity:1;stroke-dasharray:none" />
    <path
       inkscape:connector-curvature="0"
       id="path5195"
       d="m 45.665732,842.86279 0,18.4127"
       style="fill:none;stroke:#000000;stroke-width:1.20000005;stroke-linecap:butt;stroke-linejoin:miter;stroke-miterlimit:4;stroke-opacity:1;stroke-dasharray:none" />
    <path
       style="fill:none;stroke:#000000;stroke-width:1px;stroke-linecap:butt;stroke-linejoin:miter;stroke-opacity:1"
       d="m 54.665732,861.27548 -17.000001,0"
       id="path5197"
       inkscape:connector-curvature="0" />
    <path
       inkscape:connector-curvature="0"
       id="path5199"
       d="m 50.665732,865.27548 -10.000001,0"
       style="fill:none;stroke:#000000;stroke-width:1px;stroke-linecap:butt;stroke-linejoin:miter;stroke-opacity:1" />
    <path
       style="fill:none;stroke:#000000;stroke-width:1px;stroke-linecap:butt;stroke-linejoin:miter;stroke-opacity:1"
       d="m 47.665732,869.32468 -4.000001,0"
       id="path5201"
       inkscape:connector-curvature="0" />
    <path
       transform="matrix(0,-1,1,0,114.30965,1229.8609)"
       d="m 390,96.830688 c 0,1.380712 -1.11929,2.5 -2.5,2.5 -1.38071,0 -2.5,-1.119288 -2.5,-2.5 0,-1.380711 1.11929,-2.5 2.5,-2.5 1.38071,0 2.5,1.119289 2.5,2.5 z"
       sodipodi:ry="2.5"
       sodipodi:rx="2.5"
       sodipodi:cy="96.830688"
       sodipodi:cx="387.5"
       id="path5203"
       style="fill:#ffffff;fill-opacity:1;stroke:#000000;stroke-width:0.70866144;stroke-linecap:square;stroke-linejoin:round;stroke-miterlimit:4;stroke-opacity:1;stroke-dasharray:none;stroke-dashoffset:0"
       sodipodi:type="arc" />
    <path
       sodipodi:type="arc"
       style="fill:#ffffff;fill-opacity:1;stroke:#000000;stroke-width:0.70866144;stroke-linecap:square;stroke-linejoin:round;stroke-miterlimit:4;stroke-opacity:1;stroke-dasharray:none;stroke-dashoffset:0"
       id="path5205"
       sodipodi:cx="387.5"
       sodipodi:cy="96.830688"
       sodipodi:rx="2.5"
       sodipodi:ry="2.5"
       d="m 390,96.830688 c 0,1.380712 -1.11929,2.5 -2.5,2.5 -1.38071,0 -2.5,-1.119288 -2.5,-2.5 0,-1.380711 1.11929,-2.5 2.5,-2.5 1.38071,0 2.5,1.119289 2.5,2.5 z"
       transform="matrix(0,-1,1,0,114.30965,1252.3609)" />
    <path
       style="fill:none;stroke:#000000;stroke-width:1.20000005;stroke-linecap:butt;stroke-linejoin:miter;stroke-miterlimit:4;stroke-opacity:1;stroke-dasharray:none"
       d="m 211.14034,867.36082 0,10"
       id="path5207"
       inkscape:connector-curvature="0" />
    <path
       inkscape:connector-curvature="0"
       id="path5209"
       d="m 220.14034,877.36082 -17,0"
       style="fill:none;stroke:#000000;stroke-width:1px;stroke-linecap:butt;stroke-linejoin:miter;stroke-opacity:1" />
    <path
       style="fill:none;stroke:#000000;stroke-width:1px;stroke-linecap:butt;stroke-linejoin:miter;stroke-opacity:1"
       d="m 216.14034,881.36082 -10,0"
       id="path5211"
       inkscape:connector-curvature="0" />
    <path
       inkscape:connector-curvature="0"
       id="path5213"
       d="m 213.14034,885.41002 -4,0"
       style="fill:none;stroke:#000000;stroke-width:1px;stroke-linecap:butt;stroke-linejoin:miter;stroke-opacity:1" />
    <path
       style="fill:none;stroke:#000000;stroke-width:1.20000005;stroke-linecap:butt;stroke-linejoin:miter;stroke-miterlimit:4;stroke-opacity:1;stroke-dasharray:none"
       d="m 45.665732,922.36086 0,10"
       id="path5217"
       inkscape:connector-curvature="0" />
    <path
       inkscape:connector-curvature="0"
       id="path5219"
       d="m 54.665732,932.36086 -17,0"
       style="fill:none;stroke:#000000;stroke-width:1px;stroke-linecap:butt;stroke-linejoin:miter;stroke-opacity:1" />
    <path
       style="fill:none;stroke:#000000;stroke-width:1px;stroke-linecap:butt;stroke-linejoin:miter;stroke-opacity:1"
       d="m 50.665732,936.36086 -10,0"
       id="path5221"
       inkscape:connector-curvature="0" />
    <path
       inkscape:connector-curvature="0"
       id="path5223"
       d="m 47.665732,940.41006 -4,0"
       style="fill:none;stroke:#000000;stroke-width:1px;stroke-linecap:butt;stroke-linejoin:miter;stroke-opacity:1" />
    <g
       id="g6181"
       transform="matrix(1.2,0,0,-1.2,-85.549118,1624.1326)"
       xml:space="preserve"
       stroke-miterlimit="10.433"
       font-style="normal"
       font-variant="normal"
       font-weight="normal"
       font-stretch="normal"
       font-size-adjust="none"
       letter-spacing="normal"
       word-spacing="normal"
       ns0:text="$V=5V$"
       ns0:preamble="/home/sriranga/Desktop/Basic-Electronics-Figures/package.tex"
       style="font-style:normal;font-variant:normal;font-weight:normal;font-stretch:normal;letter-spacing:normal;word-spacing:normal;text-anchor:start;fill:none;stroke:#000000;stroke-width:1;stroke-linecap:butt;stroke-linejoin:miter;stroke-miterlimit:10.43299961;stroke-opacity:1;stroke-dasharray:none;stroke-dashoffset:0"><path
         style="fill:#000000;stroke-width:0"
         inkscape:connector-curvature="0"
         d="m 230.28,713.61 h -1.85 v -0.16 c 0.44,-0.05 0.62,-0.15 0.62,-0.34 0,-0.18 -0.19,-0.61 -0.51,-1.18 l -2.05,-3.53 -0.66,4.4 c -0.01,0.05 -0.01,0.09 -0.01,0.15 0,0.33 0.14,0.43 0.77,0.5 v 0.16 h -2.4 v -0.16 c 0.55,-0.07 0.57,-0.1 0.78,-1.34 l 0.85,-5.16 h 0.19 l 3.71,6.1 c 0.17,0.27 0.33,0.39 0.56,0.4 z"
         id="path6183" /><polygon
         style="fill:#000000;stroke-width:0"
         points="238.76,710.4 238.76,710.96 233.67,710.96 233.67,710.4 "
         id="polygon6185" /><polygon
         style="fill:#000000;stroke-width:0"
         points="238.76,708.39 238.76,708.94 233.67,708.94 233.67,708.39 "
         id="polygon6187" /><path
         style="fill:#000000;stroke-width:0"
         inkscape:connector-curvature="0"
         d="m 243.96,712.92 h 1.95 c 0.16,0 0.2,0.02 0.23,0.09 l 0.37,0.88 -0.08,0.07 c -0.15,-0.21 -0.25,-0.26 -0.46,-0.26 h -2.08 l -1.09,-2.35 c -0.01,-0.02 -0.01,-0.03 -0.01,-0.05 0,-0.05 0.04,-0.08 0.12,-0.08 0.32,0 0.72,-0.07 1.13,-0.2 1.14,-0.37 1.67,-0.98 1.67,-1.97 0,-0.95 -0.61,-1.7 -1.38,-1.7 -0.2,0 -0.37,0.07 -0.67,0.29 -0.32,0.23 -0.55,0.33 -0.76,0.33 -0.28,0 -0.42,-0.12 -0.42,-0.37 0,-0.38 0.46,-0.61 1.21,-0.61 0.83,0 1.55,0.26 2.05,0.77 0.46,0.45 0.66,1.01 0.66,1.77 0,0.71 -0.18,1.17 -0.68,1.67 -0.44,0.44 -1.01,0.66 -2.18,0.87 z"
         id="path6189" /><path
         style="fill:#000000;stroke-width:0"
         inkscape:connector-curvature="0"
         d="m 253.98,713.61 h -1.85 v -0.16 c 0.45,-0.05 0.63,-0.15 0.63,-0.34 0,-0.18 -0.19,-0.61 -0.52,-1.18 l -2.05,-3.53 -0.65,4.4 c -0.01,0.05 -0.01,0.09 -0.01,0.15 0,0.33 0.14,0.43 0.76,0.5 v 0.16 h -2.39 v -0.16 c 0.55,-0.07 0.57,-0.1 0.78,-1.34 l 0.85,-5.16 h 0.19 l 3.71,6.1 c 0.17,0.27 0.33,0.39 0.55,0.4 z"
         id="path6191" /></g>    <path
       sodipodi:type="arc"
       style="fill:#ffffff;fill-opacity:1;stroke:#000000;stroke-width:0.70866144;stroke-linecap:square;stroke-linejoin:round;stroke-miterlimit:4;stroke-opacity:1;stroke-dasharray:none;stroke-dashoffset:0"
       id="path5189"
       sodipodi:cx="387.5"
       sodipodi:cy="96.830688"
       sodipodi:rx="2.5"
       sodipodi:ry="2.5"
       d="m 390,96.830688 c 0,1.380712 -1.11929,2.5 -2.5,2.5 -1.38071,0 -2.5,-1.119288 -2.5,-2.5 0,-1.380711 1.11929,-2.5 2.5,-2.5 1.38071,0 2.5,1.119289 2.5,2.5 z"
       transform="matrix(0,-1,1,0,-51.164956,1229.8609)" />
    <path
       sodipodi:nodetypes="cccccccccccc"
       inkscape:connector-curvature="0"
       id="path7985"
       d="m 430,772.36086 0,24.82286 -4.91528,1.84379 10.1196,3.80952 -10.1196,3.80953 10.1196,3.80951 -10.1196,3.80953 10.1196,3.80952 -10.20432,3.82879 10,3.80952 -5,1.94646 0,24.70093"
       style="fill:none;stroke:#000000;stroke-width:1.20000005;stroke-linecap:butt;stroke-linejoin:round;stroke-miterlimit:4;stroke-opacity:1;stroke-dasharray:none" />
    <path
       sodipodi:nodetypes="cccc"
       style="fill:none;stroke:#000000;stroke-width:1.20000005;stroke-linecap:butt;stroke-linejoin:miter;stroke-miterlimit:4;stroke-opacity:1;stroke-dasharray:none;marker-end:none"
       d="m 300,842.36086 45.06718,0 m 39.7025,0 c 26.74344,0 53.48689,0 80.23033,0"
       id="path7987"
       inkscape:connector-curvature="0" />
    <path
       sodipodi:type="arc"
       style="fill:#ffffff;fill-opacity:1;stroke:#000000;stroke-width:0.70866144;stroke-linecap:square;stroke-linejoin:round;stroke-miterlimit:4;stroke-opacity:1;stroke-dasharray:none;stroke-dashoffset:0"
       id="path7989"
       sodipodi:cx="387.5"
       sodipodi:cy="96.830688"
       sodipodi:rx="2.5"
       sodipodi:ry="2.5"
       d="m 390,96.830688 c 0,1.380712 -1.11929,2.5 -2.5,2.5 -1.38071,0 -2.5,-1.119288 -2.5,-2.5 0,-1.380711 1.11929,-2.5 2.5,-2.5 1.38071,0 2.5,1.119289 2.5,2.5 z"
       transform="matrix(0,-1,1,0,333.16931,1159.8609)" />
    <path
       sodipodi:type="arc"
       id="path7991"
       style="fill:#000000;stroke:none"
       sodipodi:cx="305"
       sodipodi:cy="842.36084"
       sodipodi:rx="2.5"
       sodipodi:ry="2.5"
       d="m 307.5,842.36084 c 0,1.38071 -1.11929,2.5 -2.5,2.5 -1.38071,0 -2.5,-1.11929 -2.5,-2.5 0,-1.38071 1.11929,-2.5 2.5,-2.5 1.38071,0 2.5,1.11929 2.5,2.5 z"
       transform="translate(125,0)" />
    <path
       style="fill:none;stroke:#000000;stroke-width:1.20000005;stroke-linecap:butt;stroke-linejoin:miter;stroke-miterlimit:4;stroke-opacity:1;stroke-dasharray:none"
       d="m 430,842.36082 0,60.00004 -45,0 m -40,0 -45,0"
       id="path7993"
       inkscape:connector-curvature="0"
       sodipodi:nodetypes="ccccc" />
    <path
       sodipodi:type="arc"
       style="fill:#ffffff;fill-opacity:1;stroke:#000000;stroke-width:0.70866144;stroke-linecap:square;stroke-linejoin:round;stroke-miterlimit:4;stroke-opacity:1;stroke-dasharray:none;stroke-dashoffset:0"
       id="path8003"
       sodipodi:cx="387.5"
       sodipodi:cy="96.830688"
       sodipodi:rx="2.5"
       sodipodi:ry="2.5"
       d="m 390,96.830688 c 0,1.380712 -1.11929,2.5 -2.5,2.5 -1.38071,0 -2.5,-1.119288 -2.5,-2.5 0,-1.380711 1.11929,-2.5 2.5,-2.5 1.38071,0 2.5,1.119289 2.5,2.5 z"
       transform="matrix(0,-1,1,0,368.64392,1229.8609)" />
    <path
       transform="matrix(0,-1,1,0,368.64392,1252.3609)"
       d="m 390,96.830688 c 0,1.380712 -1.11929,2.5 -2.5,2.5 -1.38071,0 -2.5,-1.119288 -2.5,-2.5 0,-1.380711 1.11929,-2.5 2.5,-2.5 1.38071,0 2.5,1.119289 2.5,2.5 z"
       sodipodi:ry="2.5"
       sodipodi:rx="2.5"
       sodipodi:cy="96.830688"
       sodipodi:cx="387.5"
       id="path8005"
       style="fill:#ffffff;fill-opacity:1;stroke:#000000;stroke-width:0.70866144;stroke-linecap:square;stroke-linejoin:round;stroke-miterlimit:4;stroke-opacity:1;stroke-dasharray:none;stroke-dashoffset:0"
       sodipodi:type="arc" />
    <path
       inkscape:connector-curvature="0"
       id="path8007"
       d="m 465.47461,867.36082 0,10"
       style="fill:none;stroke:#000000;stroke-width:1.20000005;stroke-linecap:butt;stroke-linejoin:miter;stroke-miterlimit:4;stroke-opacity:1;stroke-dasharray:none" />
    <path
       style="fill:none;stroke:#000000;stroke-width:1px;stroke-linecap:butt;stroke-linejoin:miter;stroke-opacity:1"
       d="m 474.47461,877.36082 -17,0"
       id="path8009"
       inkscape:connector-curvature="0" />
    <path
       inkscape:connector-curvature="0"
       id="path8011"
       d="m 470.47461,881.36082 -10,0"
       style="fill:none;stroke:#000000;stroke-width:1px;stroke-linecap:butt;stroke-linejoin:miter;stroke-opacity:1" />
    <path
       style="fill:none;stroke:#000000;stroke-width:1px;stroke-linecap:butt;stroke-linejoin:miter;stroke-opacity:1"
       d="m 467.47461,885.41002 -4,0"
       id="path8013"
       inkscape:connector-curvature="0" />
    <path
       transform="matrix(0,-1,1,0,203.16931,1229.8609)"
       d="m 390,96.830688 c 0,1.380712 -1.11929,2.5 -2.5,2.5 -1.38071,0 -2.5,-1.119288 -2.5,-2.5 0,-1.380711 1.11929,-2.5 2.5,-2.5 1.38071,0 2.5,1.119289 2.5,2.5 z"
       sodipodi:ry="2.5"
       sodipodi:rx="2.5"
       sodipodi:cy="96.830688"
       sodipodi:cx="387.5"
       id="path8023"
       style="fill:#ffffff;fill-opacity:1;stroke:#000000;stroke-width:0.70866144;stroke-linecap:square;stroke-linejoin:round;stroke-miterlimit:4;stroke-opacity:1;stroke-dasharray:none;stroke-dashoffset:0"
       sodipodi:type="arc" />
    <path
       sodipodi:type="arc"
       style="fill:#ffffff;fill-opacity:1;stroke:#000000;stroke-width:0.70866144;stroke-linecap:square;stroke-linejoin:round;stroke-miterlimit:4;stroke-opacity:1;stroke-dasharray:none;stroke-dashoffset:0"
       id="path8025"
       sodipodi:cx="387.5"
       sodipodi:cy="96.830688"
       sodipodi:rx="2.5"
       sodipodi:ry="2.5"
       d="m 390,96.830688 c 0,1.380712 -1.11929,2.5 -2.5,2.5 -1.38071,0 -2.5,-1.119288 -2.5,-2.5 0,-1.380711 1.11929,-2.5 2.5,-2.5 1.38071,0 2.5,1.119289 2.5,2.5 z"
       transform="matrix(0,-1,1,0,248.16931,1289.8609)" />
    <path
       transform="matrix(0,-1,1,0,288.16931,1289.8609)"
       d="m 390,96.830688 c 0,1.380712 -1.11929,2.5 -2.5,2.5 -1.38071,0 -2.5,-1.119288 -2.5,-2.5 0,-1.380711 1.11929,-2.5 2.5,-2.5 1.38071,0 2.5,1.119289 2.5,2.5 z"
       sodipodi:ry="2.5"
       sodipodi:rx="2.5"
       sodipodi:cy="96.830688"
       sodipodi:cx="387.5"
       id="path5191"
       style="fill:#ffffff;fill-opacity:1;stroke:#000000;stroke-width:0.70866144;stroke-linecap:square;stroke-linejoin:round;stroke-miterlimit:4;stroke-opacity:1;stroke-dasharray:none;stroke-dashoffset:0"
       sodipodi:type="arc" />
    <path
       transform="matrix(0,-1,1,0,203.16931,1289.8609)"
       d="m 390,96.830688 c 0,1.380712 -1.11929,2.5 -2.5,2.5 -1.38071,0 -2.5,-1.119288 -2.5,-2.5 0,-1.380711 1.11929,-2.5 2.5,-2.5 1.38071,0 2.5,1.119289 2.5,2.5 z"
       sodipodi:ry="2.5"
       sodipodi:rx="2.5"
       sodipodi:cy="96.830688"
       sodipodi:cx="387.5"
       id="path8027"
       style="fill:#ffffff;fill-opacity:1;stroke:#000000;stroke-width:0.70866144;stroke-linecap:square;stroke-linejoin:round;stroke-miterlimit:4;stroke-opacity:1;stroke-dasharray:none;stroke-dashoffset:0"
       sodipodi:type="arc" />
    <g
       style="font-style:normal;font-variant:normal;font-weight:normal;font-stretch:normal;letter-spacing:normal;word-spacing:normal;text-anchor:start;fill:none;stroke:#000000;stroke-width:1;stroke-linecap:butt;stroke-linejoin:miter;stroke-miterlimit:10.43299961;stroke-opacity:1;stroke-dasharray:none;stroke-dashoffset:0"
       ns0:preamble="/home/sriranga/Desktop/Basic-Electronics-Figures/package.tex"
       ns0:text="$V=5V$"
       word-spacing="normal"
       letter-spacing="normal"
       font-size-adjust="none"
       font-stretch="normal"
       font-weight="normal"
       font-variant="normal"
       font-style="normal"
       stroke-miterlimit="10.433"
       xml:space="preserve"
       transform="matrix(1.2,0,0,-1.2,167.28987,1624.1326)"
       id="g8029"><path
         id="path8031"
         d="m 230.28,713.61 h -1.85 v -0.16 c 0.44,-0.05 0.62,-0.15 0.62,-0.34 0,-0.18 -0.19,-0.61 -0.51,-1.18 l -2.05,-3.53 -0.66,4.4 c -0.01,0.05 -0.01,0.09 -0.01,0.15 0,0.33 0.14,0.43 0.77,0.5 v 0.16 h -2.4 v -0.16 c 0.55,-0.07 0.57,-0.1 0.78,-1.34 l 0.85,-5.16 h 0.19 l 3.71,6.1 c 0.17,0.27 0.33,0.39 0.56,0.4 z"
         inkscape:connector-curvature="0"
         style="fill:#000000;stroke-width:0" /><polygon
         id="polygon8033"
         points="238.76,710.4 238.76,710.96 233.67,710.96 233.67,710.4 "
         style="fill:#000000;stroke-width:0" /><polygon
         id="polygon8035"
         points="238.76,708.39 238.76,708.94 233.67,708.94 233.67,708.39 "
         style="fill:#000000;stroke-width:0" /><path
         id="path8037"
         d="m 243.96,712.92 h 1.95 c 0.16,0 0.2,0.02 0.23,0.09 l 0.37,0.88 -0.08,0.07 c -0.15,-0.21 -0.25,-0.26 -0.46,-0.26 h -2.08 l -1.09,-2.35 c -0.01,-0.02 -0.01,-0.03 -0.01,-0.05 0,-0.05 0.04,-0.08 0.12,-0.08 0.32,0 0.72,-0.07 1.13,-0.2 1.14,-0.37 1.67,-0.98 1.67,-1.97 0,-0.95 -0.61,-1.7 -1.38,-1.7 -0.2,0 -0.37,0.07 -0.67,0.29 -0.32,0.23 -0.55,0.33 -0.76,0.33 -0.28,0 -0.42,-0.12 -0.42,-0.37 0,-0.38 0.46,-0.61 1.21,-0.61 0.83,0 1.55,0.26 2.05,0.77 0.46,0.45 0.66,1.01 0.66,1.77 0,0.71 -0.18,1.17 -0.68,1.67 -0.44,0.44 -1.01,0.66 -2.18,0.87 z"
         inkscape:connector-curvature="0"
         style="fill:#000000;stroke-width:0" /><path
         id="path8039"
         d="m 253.98,713.61 h -1.85 v -0.16 c 0.45,-0.05 0.63,-0.15 0.63,-0.34 0,-0.18 -0.19,-0.61 -0.52,-1.18 l -2.05,-3.53 -0.65,4.4 c -0.01,0.05 -0.01,0.09 -0.01,0.15 0,0.33 0.14,0.43 0.76,0.5 v 0.16 h -2.39 v -0.16 c 0.55,-0.07 0.57,-0.1 0.78,-1.34 l 0.85,-5.16 h 0.19 l 3.71,6.1 c 0.17,0.27 0.33,0.39 0.55,0.4 z"
         inkscape:connector-curvature="0"
         style="fill:#000000;stroke-width:0" /></g>    <g
       id="g8152"
       transform="matrix(1.2,0,0,-1.2,-59.731046,1684.6717)"
       xml:space="preserve"
       stroke-miterlimit="10.433"
       font-style="normal"
       font-variant="normal"
       font-weight="normal"
       font-stretch="normal"
       font-size-adjust="none"
       letter-spacing="normal"
       word-spacing="normal"
       ns0:text="$Y=0$"
       ns0:preamble="/home/sriranga/Desktop/Basic-Electronics-Figures/package.tex"
       style="font-style:normal;font-variant:normal;font-weight:normal;font-stretch:normal;letter-spacing:normal;word-spacing:normal;text-anchor:start;fill:none;stroke:#000000;stroke-width:1;stroke-linecap:butt;stroke-linejoin:miter;stroke-miterlimit:10.43299961;stroke-opacity:1;stroke-dasharray:none;stroke-dashoffset:0"><path
         d="m 224.34,713.45 0.02,0 0.03,0 0.05,-0.01 0.04,-0.01 0.04,-0.01 0.04,0 0.04,-0.01 0.03,-0.01 0.04,-0.01 0.03,-0.01 0.03,0 0.02,-0.01 0.03,-0.02 0.02,-0.01 0.02,-0.01 0.02,-0.01 0.02,-0.02 0.02,-0.02 0.02,-0.01 0.01,-0.02 0.02,-0.03 0.01,-0.02 0.02,-0.02 0.01,-0.03 0.01,-0.03 0.02,-0.03 0.01,-0.04 0.01,-0.03 0.01,-0.04 0.02,-0.04 0.01,-0.05 0.01,-0.02 0.01,-0.02 0.01,-0.03 0,-0.02 0.77,-2.68 -0.61,-2.1 c -0.17,-0.54 -0.38,-0.7 -1.04,-0.74 v -0.16 h 2.87 v 0.16 c -0.16,0.01 -0.29,0.02 -0.35,0.03 -0.39,0.02 -0.53,0.12 -0.53,0.37 0,0.21 0.07,0.51 0.31,1.28 0.03,0.09 0.05,0.16 0.06,0.2 l 0.28,1 2.18,2.69 c 0.32,0.39 0.4,0.46 0.7,0.6 v 0.16 h -1.88 v -0.16 c 0.12,-0.01 0.23,-0.02 0.27,-0.03 0.29,-0.03 0.42,-0.11 0.42,-0.27 0,-0.27 -0.46,-0.92 -1.5,-2.12 -0.17,-0.2 -0.22,-0.28 -0.38,-0.46 -0.11,0.44 -0.14,0.57 -0.3,1.09 -0.25,0.86 -0.36,1.29 -0.36,1.43 0,0.24 0.12,0.3 0.71,0.36 v 0.16 h -2.37 z"
         id="path8154"
         inkscape:connector-curvature="0"
         style="fill:#000000;stroke-width:0" /><polygon
         points="233.12,710.4 238.22,710.4 238.22,710.96 233.12,710.96 "
         id="polygon8156"
         style="fill:#000000;stroke-width:0" /><polygon
         points="233.12,708.39 238.22,708.39 238.22,708.94 233.12,708.94 "
         id="polygon8158"
         style="fill:#000000;stroke-width:0" /><path
         d="m 244.14,713.84 -0.05,0 -0.06,0 -0.04,0 -0.05,-0.01 -0.05,0 -0.05,-0.01 -0.05,0 -0.04,-0.01 -0.05,-0.01 -0.04,-0.01 -0.05,-0.01 -0.04,-0.01 -0.04,-0.01 -0.04,-0.02 -0.05,-0.01 -0.04,-0.02 -0.04,-0.01 -0.04,-0.02 -0.04,-0.02 -0.04,-0.02 -0.04,-0.02 -0.03,-0.02 -0.04,-0.03 -0.04,-0.02 -0.04,-0.02 -0.03,-0.03 -0.04,-0.03 -0.04,-0.02 -0.03,-0.03 -0.04,-0.03 -0.03,-0.03 -0.04,-0.04 c -0.57,-0.55 -0.95,-1.7 -0.95,-2.86 0,-1.08 0.33,-2.24 0.79,-2.8 0.37,-0.44 0.88,-0.67 1.46,-0.67 v 0.25 c -0.86,0 -1.3,1.07 -1.3,3.13 0,2.11 0.45,3.21 1.31,3.21 h 0 c 0.83,0 1.28,-1.12 1.28,-3.2 0,-2.07 -0.44,-3.14 -1.29,-3.14 v -0.25 c 0.5,0 0.93,0.17 1.29,0.51 0.58,0.55 0.96,1.7 0.96,2.9 0,2.04 -0.91,3.44 -2.21,3.44 z"
         id="path8160"
         inkscape:connector-curvature="0"
         style="fill:#000000;stroke-width:0" /></g>    <g
       style="font-style:normal;font-variant:normal;font-weight:normal;font-stretch:normal;letter-spacing:normal;word-spacing:normal;text-anchor:start;fill:none;stroke:#000000;stroke-width:1;stroke-linecap:butt;stroke-linejoin:miter;stroke-miterlimit:10.43299961;stroke-opacity:1;stroke-dasharray:none;stroke-dashoffset:0"
       ns0:preamble="/home/sriranga/Desktop/Basic-Electronics-Figures/package.tex"
       ns0:text="$V_0=0V$"
       word-spacing="normal"
       letter-spacing="normal"
       font-size-adjust="none"
       font-stretch="normal"
       font-weight="normal"
       font-variant="normal"
       font-style="normal"
       stroke-miterlimit="10.433"
       xml:space="preserve"
       transform="matrix(1.2,0,0,-1.2,-71.172142,1704.9866)"
       id="g8389"><path
         id="path8391"
         d="m 230.28,713.61 h -1.85 v -0.16 c 0.44,-0.05 0.62,-0.15 0.62,-0.34 0,-0.18 -0.19,-0.61 -0.51,-1.18 l -2.05,-3.53 -0.66,4.4 c -0.01,0.05 -0.01,0.09 -0.01,0.15 0,0.33 0.14,0.43 0.77,0.5 v 0.16 h -2.4 v -0.16 c 0.55,-0.07 0.57,-0.1 0.78,-1.34 l 0.85,-5.16 h 0.19 l 3.71,6.1 c 0.17,0.27 0.33,0.39 0.56,0.4 z"
         inkscape:connector-curvature="0"
         style="fill:#000000;stroke-width:0" /><path
         id="path8393"
         d="m 231.29,710.33 -0.04,0 -0.03,0 -0.04,0 -0.03,0 -0.04,-0.01 -0.03,0 -0.03,-0.01 -0.03,0 -0.04,-0.01 -0.03,0 -0.03,-0.01 -0.03,-0.01 -0.03,-0.01 -0.03,-0.01 -0.03,-0.01 -0.03,-0.01 -0.02,-0.01 -0.03,-0.01 -0.03,-0.01 -0.03,-0.02 -0.03,-0.01 -0.02,-0.02 -0.03,-0.01 -0.02,-0.02 -0.03,-0.02 -0.03,-0.02 -0.02,-0.02 -0.03,-0.01 -0.02,-0.02 -0.03,-0.03 -0.02,-0.02 -0.03,-0.02 c -0.4,-0.39 -0.66,-1.19 -0.66,-2 0,-0.76 0.23,-1.57 0.55,-1.96 0.26,-0.31 0.62,-0.48 1.02,-0.48 v 0.18 c -0.6,0 -0.91,0.75 -0.91,2.2 0,1.47 0.32,2.24 0.92,2.24 h 0 c 0.58,0 0.89,-0.79 0.89,-2.24 0,-1.45 -0.3,-2.2 -0.9,-2.2 v -0.18 c 0.36,0 0.65,0.12 0.9,0.37 0.41,0.38 0.67,1.18 0.67,2.03 0,1.42 -0.63,2.4 -1.54,2.4 z"
         inkscape:connector-curvature="0"
         style="fill:#000000;stroke-width:0" /><polygon
         id="polygon8395"
         points="236.89,710.4 241.98,710.4 241.98,710.96 236.89,710.96 "
         style="fill:#000000;stroke-width:0" /><polygon
         id="polygon8397"
         points="236.89,708.39 241.98,708.39 241.98,708.94 236.89,708.94 "
         style="fill:#000000;stroke-width:0" /><path
         id="path8399"
         d="m 247.9,713.84 -0.05,0 -0.05,0 -0.05,0 -0.05,-0.01 -0.05,0 -0.04,-0.01 -0.05,0 -0.05,-0.01 -0.04,-0.01 -0.05,-0.01 -0.04,-0.01 -0.04,-0.01 -0.05,-0.01 -0.04,-0.02 -0.04,-0.01 -0.04,-0.02 -0.04,-0.01 -0.04,-0.02 -0.04,-0.02 -0.04,-0.02 -0.04,-0.02 -0.04,-0.02 -0.04,-0.03 -0.03,-0.02 -0.04,-0.02 -0.04,-0.03 -0.03,-0.03 -0.04,-0.02 -0.04,-0.03 -0.03,-0.03 -0.04,-0.03 -0.03,-0.04 c -0.58,-0.55 -0.96,-1.7 -0.96,-2.86 0,-1.08 0.33,-2.24 0.8,-2.8 0.37,-0.44 0.88,-0.67 1.45,-0.67 v 0.25 c -0.85,0 -1.29,1.07 -1.29,3.13 0,2.11 0.45,3.21 1.3,3.21 h 0 c 0.84,0 1.29,-1.12 1.29,-3.2 0,-2.07 -0.44,-3.14 -1.3,-3.14 v -0.25 c 0.51,0 0.94,0.17 1.3,0.51 0.57,0.55 0.95,1.7 0.95,2.9 0,2.04 -0.9,3.44 -2.21,3.44 z"
         inkscape:connector-curvature="0"
         style="fill:#000000;stroke-width:0" /><path
         id="path8401"
         d="m 257.2,713.61 h -1.85 v -0.16 c 0.45,-0.05 0.63,-0.15 0.63,-0.34 0,-0.18 -0.19,-0.61 -0.52,-1.18 l -2.05,-3.53 -0.65,4.4 c -0.02,0.05 -0.02,0.09 -0.02,0.15 0,0.33 0.14,0.43 0.77,0.5 v 0.16 h -2.4 v -0.16 c 0.56,-0.07 0.58,-0.1 0.79,-1.34 l 0.84,-5.16 h 0.19 l 3.71,6.1 c 0.17,0.27 0.33,0.39 0.56,0.4 z"
         inkscape:connector-curvature="0"
         style="fill:#000000;stroke-width:0" /></g>    <g
       style="font-style:normal;font-variant:normal;font-weight:normal;font-stretch:normal;letter-spacing:normal;word-spacing:normal;text-anchor:start;fill:none;stroke:#000000;stroke-width:1;stroke-linecap:butt;stroke-linejoin:miter;stroke-miterlimit:10.43299961;stroke-opacity:1;stroke-dasharray:none;stroke-dashoffset:0"
       ns0:preamble="/home/sriranga/Desktop/Basic-Electronics-Figures/package.tex"
       ns0:text="$R$"
       word-spacing="normal"
       letter-spacing="normal"
       font-size-adjust="none"
       font-stretch="normal"
       font-weight="normal"
       font-variant="normal"
       font-style="normal"
       stroke-miterlimit="10.433"
       xml:space="preserve"
       transform="matrix(1.2,0,0,-1.2,-82.730569,1663.8029)"
       id="g10198"><path
         id="path10200"
         d="m 229.07,707.28 -0.04,0.01 -0.04,0 -0.03,0.01 -0.04,0 -0.04,0.01 -0.03,0.01 -0.03,0.01 -0.03,0.01 -0.03,0.01 -0.03,0.01 -0.03,0.01 -0.03,0.02 -0.03,0.01 -0.02,0.02 -0.03,0.02 -0.02,0.02 -0.03,0.02 -0.02,0.02 -0.02,0.03 -0.02,0.02 -0.02,0.03 -0.03,0.03 -0.02,0.03 -0.02,0.03 -0.01,0.04 -0.02,0.03 -0.02,0.04 -0.02,0.04 -0.02,0.04 -0.02,0.05 -0.02,0.04 -0.01,0.05 -0.93,2.43 c 0.77,0.17 1.1,0.31 1.45,0.63 0.33,0.29 0.51,0.67 0.51,1.12 0,0.92 -0.73,1.43 -2.07,1.43 l -0.21,-0.3 c 0.83,0 1.24,-0.37 1.24,-1.11 0,-0.98 -0.64,-1.49 -1.88,-1.49 -0.16,0 -0.27,0.01 -0.51,0.05 l 0.65,2.28 c 0.06,0.2 0.18,0.27 0.5,0.27 l 0.21,0.3 h -2.47 v -0.16 c 0.42,-0.06 0.47,-0.07 0.57,-0.14 0.08,-0.05 0.14,-0.16 0.14,-0.27 0,-0.12 -0.05,-0.36 -0.12,-0.63 l -1.22,-4.39 c -0.18,-0.59 -0.25,-0.65 -0.81,-0.74 v -0.16 h 2.43 v 0.16 c -0.61,0.08 -0.68,0.13 -0.68,0.46 0,0.1 0.03,0.23 0.12,0.58 l 0.56,2.07 0.65,-0.05 1.22,-3.22 h 1.47 z"
         inkscape:connector-curvature="0"
         style="fill:#000000;stroke-width:0" /></g>    <g
       id="g10352"
       transform="matrix(1.2,0,0,-1.2,171.9455,1662.7784)"
       xml:space="preserve"
       stroke-miterlimit="10.433"
       font-style="normal"
       font-variant="normal"
       font-weight="normal"
       font-stretch="normal"
       font-size-adjust="none"
       letter-spacing="normal"
       word-spacing="normal"
       ns0:text="$R$"
       ns0:preamble="/home/sriranga/Desktop/Basic-Electronics-Figures/package.tex"
       style="font-style:normal;font-variant:normal;font-weight:normal;font-stretch:normal;letter-spacing:normal;word-spacing:normal;text-anchor:start;fill:none;stroke:#000000;stroke-width:1;stroke-linecap:butt;stroke-linejoin:miter;stroke-miterlimit:10.43299961;stroke-opacity:1;stroke-dasharray:none;stroke-dashoffset:0"><path
         style="fill:#000000;stroke-width:0"
         inkscape:connector-curvature="0"
         d="m 229.07,707.28 -0.04,0.01 -0.04,0 -0.03,0.01 -0.04,0 -0.04,0.01 -0.03,0.01 -0.03,0.01 -0.03,0.01 -0.03,0.01 -0.03,0.01 -0.03,0.01 -0.03,0.02 -0.03,0.01 -0.02,0.02 -0.03,0.02 -0.02,0.02 -0.03,0.02 -0.02,0.02 -0.02,0.03 -0.02,0.02 -0.02,0.03 -0.03,0.03 -0.02,0.03 -0.02,0.03 -0.01,0.04 -0.02,0.03 -0.02,0.04 -0.02,0.04 -0.02,0.04 -0.02,0.05 -0.02,0.04 -0.01,0.05 -0.93,2.43 c 0.77,0.17 1.1,0.31 1.45,0.63 0.33,0.29 0.51,0.67 0.51,1.12 0,0.92 -0.73,1.43 -2.07,1.43 l -0.21,-0.3 c 0.83,0 1.24,-0.37 1.24,-1.11 0,-0.98 -0.64,-1.49 -1.88,-1.49 -0.16,0 -0.27,0.01 -0.51,0.05 l 0.65,2.28 c 0.06,0.2 0.18,0.27 0.5,0.27 l 0.21,0.3 h -2.47 v -0.16 c 0.42,-0.06 0.47,-0.07 0.57,-0.14 0.08,-0.05 0.14,-0.16 0.14,-0.27 0,-0.12 -0.05,-0.36 -0.12,-0.63 l -1.22,-4.39 c -0.18,-0.59 -0.25,-0.65 -0.81,-0.74 v -0.16 h 2.43 v 0.16 c -0.61,0.08 -0.68,0.13 -0.68,0.46 0,0.1 0.03,0.23 0.12,0.58 l 0.56,2.07 0.65,-0.05 1.22,-3.22 h 1.47 z"
         id="path10354" /></g>    <g
       style="font-style:normal;font-variant:normal;font-weight:normal;font-stretch:normal;letter-spacing:normal;word-spacing:normal;text-anchor:start;fill:none;stroke:#000000;stroke-width:1;stroke-linecap:butt;stroke-linejoin:miter;stroke-miterlimit:10.43299961;stroke-opacity:1;stroke-dasharray:none;stroke-dashoffset:0"
       ns0:preamble="/home/sriranga/Desktop/Basic-Electronics-Figures/package.tex"
       ns0:text="$Y=0$"
       word-spacing="normal"
       letter-spacing="normal"
       font-size-adjust="none"
       font-stretch="normal"
       font-weight="normal"
       font-variant="normal"
       font-style="normal"
       stroke-miterlimit="10.433"
       xml:space="preserve"
       transform="matrix(1.2,0,0,-1.2,183.61164,1684.6717)"
       id="g10356"><path
         style="fill:#000000;stroke-width:0"
         inkscape:connector-curvature="0"
         id="path10358"
         d="m 224.34,713.45 0.02,0 0.03,0 0.05,-0.01 0.04,-0.01 0.04,-0.01 0.04,0 0.04,-0.01 0.03,-0.01 0.04,-0.01 0.03,-0.01 0.03,0 0.02,-0.01 0.03,-0.02 0.02,-0.01 0.02,-0.01 0.02,-0.01 0.02,-0.02 0.02,-0.02 0.02,-0.01 0.01,-0.02 0.02,-0.03 0.01,-0.02 0.02,-0.02 0.01,-0.03 0.01,-0.03 0.02,-0.03 0.01,-0.04 0.01,-0.03 0.01,-0.04 0.02,-0.04 0.01,-0.05 0.01,-0.02 0.01,-0.02 0.01,-0.03 0,-0.02 0.77,-2.68 -0.61,-2.1 c -0.17,-0.54 -0.38,-0.7 -1.04,-0.74 v -0.16 h 2.87 v 0.16 c -0.16,0.01 -0.29,0.02 -0.35,0.03 -0.39,0.02 -0.53,0.12 -0.53,0.37 0,0.21 0.07,0.51 0.31,1.28 0.03,0.09 0.05,0.16 0.06,0.2 l 0.28,1 2.18,2.69 c 0.32,0.39 0.4,0.46 0.7,0.6 v 0.16 h -1.88 v -0.16 c 0.12,-0.01 0.23,-0.02 0.27,-0.03 0.29,-0.03 0.42,-0.11 0.42,-0.27 0,-0.27 -0.46,-0.92 -1.5,-2.12 -0.17,-0.2 -0.22,-0.28 -0.38,-0.46 -0.11,0.44 -0.14,0.57 -0.3,1.09 -0.25,0.86 -0.36,1.29 -0.36,1.43 0,0.24 0.12,0.3 0.71,0.36 v 0.16 h -2.37 z" /><polygon
         style="fill:#000000;stroke-width:0"
         id="polygon10360"
         points="238.22,710.96 233.12,710.96 233.12,710.4 238.22,710.4 " /><polygon
         style="fill:#000000;stroke-width:0"
         id="polygon10362"
         points="238.22,708.94 233.12,708.94 233.12,708.39 238.22,708.39 " /><path
         style="fill:#000000;stroke-width:0"
         inkscape:connector-curvature="0"
         id="path10364"
         d="m 244.14,713.84 -0.05,0 -0.06,0 -0.04,0 -0.05,-0.01 -0.05,0 -0.05,-0.01 -0.05,0 -0.04,-0.01 -0.05,-0.01 -0.04,-0.01 -0.05,-0.01 -0.04,-0.01 -0.04,-0.01 -0.04,-0.02 -0.05,-0.01 -0.04,-0.02 -0.04,-0.01 -0.04,-0.02 -0.04,-0.02 -0.04,-0.02 -0.04,-0.02 -0.03,-0.02 -0.04,-0.03 -0.04,-0.02 -0.04,-0.02 -0.03,-0.03 -0.04,-0.03 -0.04,-0.02 -0.03,-0.03 -0.04,-0.03 -0.03,-0.03 -0.04,-0.04 c -0.57,-0.55 -0.95,-1.7 -0.95,-2.86 0,-1.08 0.33,-2.24 0.79,-2.8 0.37,-0.44 0.88,-0.67 1.46,-0.67 v 0.25 c -0.86,0 -1.3,1.07 -1.3,3.13 0,2.11 0.45,3.21 1.31,3.21 h 0 c 0.83,0 1.28,-1.12 1.28,-3.2 0,-2.07 -0.44,-3.14 -1.29,-3.14 v -0.25 c 0.5,0 0.93,0.17 1.29,0.51 0.58,0.55 0.96,1.7 0.96,2.9 0,2.04 -0.91,3.44 -2.21,3.44 z" /></g>    <text
       xml:space="preserve"
       style="font-size:12px;font-style:normal;font-variant:normal;font-weight:normal;font-stretch:normal;text-align:center;line-height:125%;letter-spacing:0px;word-spacing:0px;text-anchor:middle;fill:#000000;fill-opacity:1;stroke:none;font-family:LMRoman12;-inkscape-font-specification:Sans"
       x="86.285789"
       y="928.70135"
       id="text11125"
       sodipodi:linespacing="125%"><tspan
         sodipodi:role="line"
         id="tspan11127"
         x="86.285789"
         y="928.70135">(c)</tspan></text>
    <text
       sodipodi:linespacing="125%"
       id="text11179"
       y="928.70135"
       x="330.25543"
       style="font-size:12px;font-style:normal;font-variant:normal;font-weight:normal;font-stretch:normal;text-align:center;line-height:125%;letter-spacing:0px;word-spacing:0px;text-anchor:middle;fill:#000000;fill-opacity:1;stroke:none;font-family:LMRoman12;-inkscape-font-specification:Sans"
       xml:space="preserve"><tspan
         y="928.70135"
         x="330.25543"
         id="tspan11181"
         sodipodi:role="line">(d)</tspan></text>
    <path
       transform="matrix(0,-1,1,0,-4.7901915,1229.8609)"
       d="m 390,96.830688 c 0,1.380712 -1.11929,2.5 -2.5,2.5 -1.38071,0 -2.5,-1.119288 -2.5,-2.5 0,-1.380711 1.11929,-2.5 2.5,-2.5 1.38071,0 2.5,1.119289 2.5,2.5 z"
       sodipodi:ry="2.5"
       sodipodi:rx="2.5"
       sodipodi:cy="96.830688"
       sodipodi:cx="387.5"
       id="path11684"
       style="fill:#ffffff;fill-opacity:1;stroke:#000000;stroke-width:0.70866144;stroke-linecap:square;stroke-linejoin:round;stroke-miterlimit:4;stroke-opacity:1;stroke-dasharray:none;stroke-dashoffset:0"
       sodipodi:type="arc" />
    <path
       sodipodi:type="arc"
       style="fill:#ffffff;fill-opacity:1;stroke:#000000;stroke-width:0.70866144;stroke-linecap:square;stroke-linejoin:round;stroke-miterlimit:4;stroke-opacity:1;stroke-dasharray:none;stroke-dashoffset:0"
       id="path11686"
       sodipodi:cx="387.5"
       sodipodi:cy="96.830688"
       sodipodi:rx="2.5"
       sodipodi:ry="2.5"
       d="m 390,96.830688 c 0,1.380712 -1.11929,2.5 -2.5,2.5 -1.38071,0 -2.5,-1.119288 -2.5,-2.5 0,-1.380711 1.11929,-2.5 2.5,-2.5 1.38071,0 2.5,1.119289 2.5,2.5 z"
       transform="matrix(0,-1,1,0,38.017283,1229.8609)" />
    <path
       transform="matrix(0,-1,1,0,248.16931,1229.7678)"
       d="m 390,96.830688 c 0,1.380712 -1.11929,2.5 -2.5,2.5 -1.38071,0 -2.5,-1.119288 -2.5,-2.5 0,-1.380711 1.11929,-2.5 2.5,-2.5 1.38071,0 2.5,1.119289 2.5,2.5 z"
       sodipodi:ry="2.5"
       sodipodi:rx="2.5"
       sodipodi:cy="96.830688"
       sodipodi:cx="387.5"
       id="path14223"
       style="fill:#ffffff;fill-opacity:1;stroke:#000000;stroke-width:0.70866144;stroke-linecap:square;stroke-linejoin:round;stroke-miterlimit:4;stroke-opacity:1;stroke-dasharray:none;stroke-dashoffset:0"
       sodipodi:type="arc" />
    <path
       sodipodi:type="arc"
       style="fill:#ffffff;fill-opacity:1;stroke:#000000;stroke-width:0.70866144;stroke-linecap:square;stroke-linejoin:round;stroke-miterlimit:4;stroke-opacity:1;stroke-dasharray:none;stroke-dashoffset:0"
       id="path14225"
       sodipodi:cx="387.5"
       sodipodi:cy="96.830688"
       sodipodi:rx="2.5"
       sodipodi:ry="2.5"
       d="m 390,96.830688 c 0,1.380712 -1.11929,2.5 -2.5,2.5 -1.38071,0 -2.5,-1.119288 -2.5,-2.5 0,-1.380711 1.11929,-2.5 2.5,-2.5 1.38071,0 2.5,1.119289 2.5,2.5 z"
       transform="matrix(0,-1,1,0,288.16931,1229.7678)" />
    <g
       style="font-style:normal;font-variant:normal;font-weight:normal;font-stretch:normal;letter-spacing:normal;word-spacing:normal;text-anchor:start;fill:none;stroke:#000000;stroke-width:1;stroke-linecap:butt;stroke-linejoin:miter;stroke-miterlimit:10.43299961;stroke-opacity:1;stroke-dasharray:none;stroke-dashoffset:0"
       ns0:preamble="/home/sriranga/Desktop/Basic-Electronics-Figures/package.tex"
       ns0:text="$V_0=5V$"
       text-anchor="start"
       word-spacing="normal"
       letter-spacing="normal"
       font-size-adjust="none"
       font-stretch="normal"
       font-weight="normal"
       font-variant="normal"
       font-style="normal"
       fill-opacity="1"
       fill-rule="evenodd"
       fill="none"
       stroke-opacity="1"
       stroke-dashoffset="0"
       stroke-dasharray="none"
       stroke-miterlimit="10.433"
       stroke-linejoin="miter"
       stroke-linecap="butt"
       stroke="black"
       xml:space="preserve"
       transform="matrix(1.2,0,0,-1.2,177.21546,1708.5477)"
       id="g14421"><path
         id="path14423"
         fill="black"
         stroke-width="0"
         d="M230.28,713.61 H228.43 V713.45 C228.87,713.4,229.05,713.3,229.05,713.11 C229.05,712.93,228.86,712.5,228.54,711.93 L226.49,708.4 L225.83,712.8 C225.82,712.85,225.82,712.89,225.82,712.95 C225.82,713.28,225.96,713.38,226.59,713.45 V713.61 H224.19 V713.45 C224.74,713.38,224.76,713.35,224.97,712.11 L225.82,706.95 H226.01 L229.72,713.05 C229.89,713.32,230.05,713.44,230.28,713.45 Z " /><path
         id="path14425"
         fill="black"
         stroke-width="0"
         d="M231.29,710.33 L231.25,710.33 L231.22,710.33 L231.18,710.33 L231.15,710.33 L231.11,710.32 L231.08,710.32 L231.05,710.31 L231.02,710.31 L230.98,710.3 L230.95,710.3 L230.92,710.29 L230.89,710.28 L230.86,710.27 L230.83,710.26 L230.8,710.25 L230.77,710.24 L230.75,710.23 L230.72,710.22 L230.69,710.21 L230.66,710.19 L230.63,710.18 L230.61,710.16 L230.58,710.15 L230.56,710.13 L230.53,710.11 L230.5,710.09 L230.48,710.07 L230.45,710.06 L230.43,710.04 L230.4,710.01 L230.38,709.99 L230.35,709.97 C229.95,709.58,229.69,708.78,229.69,707.97 C229.69,707.21,229.92,706.4,230.24,706.01 C230.5,705.7,230.86,705.53,231.26,705.53 V705.71 C230.66,705.71,230.35,706.46,230.35,707.91 C230.35,709.38,230.67,710.15,231.27,710.15 H231.27 C231.85,710.15,232.16,709.36,232.16,707.91 C232.16,706.46,231.86,705.71,231.26,705.71 V705.53 C231.62,705.53,231.91,705.65,232.16,705.9 C232.57,706.28,232.83,707.08,232.83,707.93 C232.83,709.35,232.2,710.33,231.29,710.33 Z " /><polygon
         id="polygon14427"
         fill="black"
         stroke-width="0"
         points="241.98,710.4 241.98,710.96 236.89,710.96 236.89,710.4 " /><polygon
         id="polygon14429"
         fill="black"
         stroke-width="0"
         points="241.98,708.39 241.98,708.94 236.89,708.94 236.89,708.39 " /><path
         id="path14431"
         fill="black"
         stroke-width="0"
         d="M247.18,712.92 H249.13 C249.29,712.92,249.32,712.94,249.35,713.01 L249.73,713.89 L249.64,713.96 C249.49,713.75,249.4,713.7,249.19,713.7 H247.11 L246.02,711.35 C246.01,711.33,246.01,711.32,246.01,711.3 C246.01,711.25,246.05,711.22,246.13,711.22 C246.45,711.22,246.85,711.15,247.26,711.02 C248.4,710.65,248.93,710.04,248.93,709.05 C248.93,708.1,248.32,707.35,247.54,707.35 C247.35,707.35,247.18,707.42,246.88,707.64 C246.56,707.87,246.33,707.97,246.12,707.97 C245.83,707.97,245.69,707.85,245.69,707.6 C245.69,707.22,246.16,706.99,246.91,706.99 C247.74,706.99,248.46,707.25,248.96,707.76 C249.41,708.21,249.62,708.77,249.62,709.53 C249.62,710.24,249.43,710.7,248.94,711.2 C248.5,711.64,247.93,711.86,246.76,712.07 Z " /><path
         id="path14433"
         fill="black"
         stroke-width="0"
         d="M257.2,713.61 H255.35 V713.45 C255.8,713.4,255.98,713.3,255.98,713.11 C255.98,712.93,255.79,712.5,255.46,711.93 L253.41,708.4 L252.76,712.8 C252.74,712.85,252.74,712.89,252.74,712.95 C252.74,713.28,252.88,713.38,253.51,713.45 V713.61 H251.11 V713.45 C251.67,713.38,251.69,713.35,251.9,712.11 L252.74,706.95 H252.93 L256.64,713.05 C256.81,713.32,256.97,713.44,257.2,713.45 Z " /></g>    <g
       id="g14810"
       transform="matrix(1.2,0,0,-1.2,-92.031307,1778.2062)"
       xml:space="preserve"
       stroke-miterlimit="10.433"
       font-style="normal"
       font-variant="normal"
       font-weight="normal"
       font-stretch="normal"
       font-size-adjust="none"
       letter-spacing="normal"
       word-spacing="normal"
       ns0:text="\\begin{align*}\nV_1 &amp; = 5V ~(A=1)\\\\\nV_2 &amp; = 5V ~(B=1)\n\\end{align*}\n\n"
       ns0:preamble="/home/sriranga/Desktop/Basic-Electronics-Figures/package.tex"
       style="font-style:normal;font-variant:normal;font-weight:normal;font-stretch:normal;letter-spacing:normal;word-spacing:normal;text-anchor:start;fill:none;stroke:#000000;stroke-width:1;stroke-linecap:butt;stroke-linejoin:miter;stroke-miterlimit:10.43299961;stroke-opacity:1;stroke-dasharray:none;stroke-dashoffset:0"><path
         d="m 369.09,713.61 h -1.85 v -0.16 c 0.44,-0.05 0.62,-0.15 0.62,-0.34 0,-0.18 -0.19,-0.61 -0.51,-1.18 l -2.05,-3.53 -0.66,4.4 c -0.01,0.05 -0.01,0.09 -0.01,0.15 0,0.33 0.14,0.43 0.76,0.5 v 0.16 H 363 v -0.16 c 0.55,-0.07 0.57,-0.1 0.78,-1.34 l 0.85,-5.16 h 0.19 l 3.71,6.1 c 0.17,0.27 0.33,0.39 0.56,0.4 z"
         id="path14812"
         inkscape:connector-curvature="0"
         style="fill:#000000;stroke-width:0" /><path
         d="m 370.36,710.33 -1.26,-0.63 v -0.1 c 0.08,0.04 0.16,0.06 0.19,0.08 0.12,0.05 0.24,0.08 0.31,0.08 0.15,0 0.21,-0.11 0.21,-0.33 v -3.15 c 0,-0.23 -0.05,-0.39 -0.17,-0.45 -0.1,-0.07 -0.2,-0.09 -0.49,-0.1 v -0.1 h 1.92 v 0.1 c -0.55,0.01 -0.66,0.08 -0.66,0.42 v 4.17 z"
         id="path14814"
         inkscape:connector-curvature="0"
         style="fill:#000000;stroke-width:0" /><polygon
         points="375.7,710.96 375.7,710.4 380.79,710.4 380.79,710.96 "
         id="polygon14816"
         style="fill:#000000;stroke-width:0" /><polygon
         points="375.7,708.94 375.7,708.39 380.79,708.39 380.79,708.94 "
         id="polygon14818"
         style="fill:#000000;stroke-width:0" /><path
         d="m 385.98,712.92 h 1.95 c 0.16,0 0.2,0.02 0.23,0.09 l 0.38,0.88 -0.09,0.07 c -0.15,-0.21 -0.25,-0.26 -0.46,-0.26 h -2.07 l -1.09,-2.35 c -0.01,-0.02 -0.01,-0.03 -0.01,-0.05 0,-0.05 0.04,-0.08 0.12,-0.08 0.32,0 0.72,-0.07 1.12,-0.2 1.15,-0.37 1.68,-0.98 1.68,-1.97 0,-0.95 -0.61,-1.7 -1.39,-1.7 -0.2,0 -0.37,0.07 -0.66,0.29 -0.32,0.23 -0.55,0.33 -0.76,0.33 -0.29,0 -0.43,-0.12 -0.43,-0.37 0,-0.38 0.47,-0.61 1.22,-0.61 0.83,0 1.55,0.26 2.05,0.77 0.45,0.45 0.66,1.01 0.66,1.77 0,0.71 -0.19,1.17 -0.68,1.67 -0.44,0.44 -1.01,0.66 -2.18,0.87 z"
         id="path14820"
         inkscape:connector-curvature="0"
         style="fill:#000000;stroke-width:0" /><path
         d="m 396.01,713.61 h -1.85 v -0.16 c 0.45,-0.05 0.63,-0.15 0.63,-0.34 0,-0.18 -0.19,-0.61 -0.52,-1.18 l -2.05,-3.53 -0.66,4.4 c -0.01,0.05 -0.01,0.09 -0.01,0.15 0,0.33 0.14,0.43 0.77,0.5 v 0.16 h -2.4 v -0.16 c 0.56,-0.07 0.58,-0.1 0.79,-1.34 l 0.84,-5.16 h 0.19 l 3.71,6.1 c 0.17,0.27 0.33,0.39 0.56,0.4 z"
         id="path14822"
         inkscape:connector-curvature="0"
         style="fill:#000000;stroke-width:0" /><path
         d="m 401.45,713.84 -0.07,-0.04 -0.07,-0.05 -0.06,-0.04 -0.06,-0.04 -0.06,-0.04 -0.06,-0.04 -0.05,-0.04 -0.05,-0.03 -0.05,-0.04 -0.05,-0.04 -0.05,-0.03 -0.04,-0.04 -0.05,-0.03 -0.04,-0.04 -0.08,-0.06 -0.08,-0.07 -0.08,-0.07 -0.07,-0.07 -0.07,-0.07 -0.06,-0.07 -0.07,-0.08 -0.07,-0.08 -0.07,-0.08 c -0.7,-0.87 -1.05,-1.86 -1.05,-3.02 0,-1.26 0.37,-2.24 1.24,-3.25 0.41,-0.48 0.67,-0.7 1.19,-1.01 l 0.12,0.16 c -0.8,0.62 -1.08,0.97 -1.35,1.71 -0.24,0.67 -0.35,1.42 -0.35,2.42 0,1.04 0.13,1.86 0.4,2.47 0.28,0.62 0.58,0.97 1.3,1.55 z"
         id="path14824"
         inkscape:connector-curvature="0"
         style="fill:#000000;stroke-width:0" /><path
         d="m 407.69,707.28 -0.05,0.01 -0.05,0 -0.05,0.01 -0.04,0.01 -0.04,0 -0.04,0.01 -0.04,0.01 -0.03,0.01 -0.03,0.01 -0.03,0.01 -0.03,0.01 -0.03,0.02 -0.02,0.01 -0.02,0.02 -0.02,0.02 -0.02,0.02 -0.02,0.02 -0.02,0.03 -0.02,0.02 -0.01,0.03 -0.02,0.03 -0.01,0.04 -0.01,0.04 -0.01,0.04 -0.02,0.04 -0.01,0.04 -0.01,0.05 -0.01,0.06 -0.01,0.02 0,0.03 -0.01,0.03 0,0.03 -0.01,0.03 -0.01,0.03 0,0.03 -0.01,0.04 -0.93,5.62 h -0.26 l -2.89,-4.97 c -0.78,-1.32 -0.88,-1.43 -1.28,-1.51 v -0.16 h 1.86 v 0.16 c -0.51,0.05 -0.59,0.1 -0.59,0.35 0,0.19 0.03,0.28 0.2,0.62 l 0.57,1.12 h 2.19 l -0.05,0.36 h -1.93 l 1.49,2.58 0.44,-2.58 0.05,-0.36 0.2,-1.3 c 0.01,-0.09 0.02,-0.18 0.02,-0.26 0,-0.38 -0.14,-0.47 -0.78,-0.53 v -0.16 h 2.45 z"
         id="path14826"
         inkscape:connector-curvature="0"
         style="fill:#000000;stroke-width:0" /><polygon
         points="411.55,710.96 411.55,710.4 416.64,710.4 416.64,710.96 "
         id="polygon14828"
         style="fill:#000000;stroke-width:0" /><polygon
         points="411.55,708.94 411.55,708.39 416.64,708.39 416.64,708.94 "
         id="polygon14830"
         style="fill:#000000;stroke-width:0" /><path
         d="m 422.93,713.84 -1.79,-0.9 v -0.14 c 0.12,0.05 0.23,0.09 0.27,0.11 0.18,0.07 0.35,0.11 0.45,0.11 0.21,0 0.29,-0.15 0.29,-0.47 v -4.5 c 0,-0.33 -0.07,-0.56 -0.23,-0.65 -0.15,-0.09 -0.29,-0.12 -0.71,-0.13 v -0.15 h 2.74 v 0.15 c -0.78,0.01 -0.94,0.11 -0.94,0.59 v 5.96 z"
         id="path14832"
         inkscape:connector-curvature="0"
         style="fill:#000000;stroke-width:0" /><path
         d="m 425.39,705.37 0.07,0.04 0.07,0.04 0.06,0.05 0.06,0.04 0.06,0.04 0.06,0.03 0.05,0.04 0.05,0.04 0.05,0.04 0.05,0.03 0.05,0.04 0.04,0.03 0.05,0.04 0.04,0.03 0.08,0.07 0.08,0.07 0.08,0.07 0.07,0.07 0.07,0.07 0.06,0.07 0.07,0.08 0.07,0.08 0.07,0.08 c 0.7,0.86 1.05,1.86 1.05,3.02 0,1.27 -0.37,2.23 -1.24,3.25 -0.41,0.47 -0.67,0.69 -1.19,1.01 l -0.12,-0.16 c 0.8,-0.63 1.07,-0.97 1.35,-1.72 0.24,-0.66 0.35,-1.42 0.35,-2.41 0,-1.03 -0.13,-1.86 -0.4,-2.46 -0.28,-0.63 -0.58,-0.99 -1.3,-1.56 z"
         id="path14834"
         inkscape:connector-curvature="0"
         style="fill:#000000;stroke-width:0" /><path
         d="m 369.09,698.67 h -1.85 v -0.16 c 0.44,-0.05 0.62,-0.15 0.62,-0.34 0,-0.19 -0.19,-0.62 -0.51,-1.18 l -2.05,-3.54 -0.66,4.4 c -0.01,0.05 -0.01,0.09 -0.01,0.15 0,0.34 0.14,0.44 0.76,0.51 v 0.16 H 363 v -0.16 c 0.55,-0.07 0.57,-0.1 0.78,-1.34 l 0.85,-5.17 h 0.19 l 3.71,6.11 c 0.17,0.27 0.33,0.39 0.56,0.4 z"
         id="path14836"
         inkscape:connector-curvature="0"
         style="fill:#000000;stroke-width:0" /><path
         d="m 371.64,691.64 -0.09,0.03 c -0.26,-0.39 -0.35,-0.45 -0.67,-0.45 h -1.66 l 1.17,1.22 c 0.62,0.65 0.89,1.17 0.89,1.72 0,0.69 -0.56,1.23 -1.29,1.23 -0.38,0 -0.74,-0.16 -1,-0.43 -0.22,-0.24 -0.33,-0.46 -0.45,-0.96 l 0.15,-0.03 c 0.28,0.68 0.53,0.9 1.01,0.9 0.59,0 0.98,-0.39 0.98,-0.98 0,-0.54 -0.32,-1.19 -0.9,-1.8 l -1.24,-1.32 v -0.08 h 2.71 z"
         id="path14838"
         inkscape:connector-curvature="0"
         style="fill:#000000;stroke-width:0" /><polygon
         points="375.7,696.02 375.7,695.46 380.79,695.46 380.79,696.02 "
         id="polygon14840"
         style="fill:#000000;stroke-width:0" /><polygon
         points="375.7,694 375.7,693.44 380.79,693.44 380.79,694 "
         id="polygon14842"
         style="fill:#000000;stroke-width:0" /><path
         d="m 385.98,697.97 h 1.95 c 0.16,0 0.2,0.02 0.23,0.09 l 0.38,0.89 -0.09,0.07 c -0.15,-0.21 -0.25,-0.26 -0.46,-0.26 h -2.07 l -1.09,-2.36 c -0.01,-0.02 -0.01,-0.03 -0.01,-0.05 0,-0.05 0.04,-0.08 0.12,-0.08 0.32,0 0.72,-0.07 1.12,-0.19 1.15,-0.37 1.68,-0.99 1.68,-1.97 0,-0.96 -0.61,-1.7 -1.39,-1.7 -0.2,0 -0.37,0.07 -0.66,0.29 -0.32,0.23 -0.55,0.33 -0.76,0.33 -0.29,0 -0.43,-0.12 -0.43,-0.37 0,-0.38 0.47,-0.62 1.22,-0.62 0.83,0 1.55,0.27 2.05,0.78 0.45,0.44 0.66,1.01 0.66,1.77 0,0.71 -0.19,1.17 -0.68,1.66 -0.44,0.44 -1.01,0.67 -2.18,0.88 z"
         id="path14844"
         inkscape:connector-curvature="0"
         style="fill:#000000;stroke-width:0" /><path
         d="m 396.01,698.67 h -1.85 v -0.16 c 0.45,-0.05 0.63,-0.15 0.63,-0.34 0,-0.19 -0.19,-0.62 -0.52,-1.18 l -2.05,-3.54 -0.66,4.4 c -0.01,0.05 -0.01,0.09 -0.01,0.15 0,0.34 0.14,0.44 0.77,0.51 v 0.16 h -2.4 v -0.16 c 0.56,-0.07 0.58,-0.1 0.79,-1.34 l 0.84,-5.17 h 0.19 l 3.71,6.11 c 0.17,0.27 0.33,0.39 0.56,0.4 z"
         id="path14846"
         inkscape:connector-curvature="0"
         style="fill:#000000;stroke-width:0" /><path
         d="m 401.45,698.9 -0.07,-0.05 -0.07,-0.04 -0.06,-0.04 -0.06,-0.04 -0.06,-0.04 -0.06,-0.04 -0.05,-0.04 -0.05,-0.04 -0.05,-0.03 -0.05,-0.04 -0.05,-0.04 -0.04,-0.03 -0.05,-0.03 -0.04,-0.04 -0.08,-0.07 -0.08,-0.07 -0.08,-0.06 -0.07,-0.07 -0.07,-0.07 -0.06,-0.08 -0.07,-0.07 -0.07,-0.08 -0.07,-0.09 c -0.7,-0.86 -1.05,-1.85 -1.05,-3.02 0,-1.26 0.37,-2.23 1.24,-3.24 0.41,-0.48 0.67,-0.7 1.19,-1.02 l 0.12,0.16 c -0.8,0.63 -1.08,0.97 -1.35,1.72 -0.24,0.67 -0.35,1.42 -0.35,2.41 0,1.05 0.13,1.86 0.4,2.48 0.28,0.61 0.58,0.97 1.3,1.55 z"
         id="path14848"
         inkscape:connector-curvature="0"
         style="fill:#000000;stroke-width:0" /><path
         d="m 402.1,692.18 h 2.8 c 1.56,0 2.64,0.82 2.64,1.99 0,0.36 -0.12,0.71 -0.34,0.93 -0.2,0.23 -0.4,0.35 -0.91,0.57 0.7,0.17 0.99,0.29 1.31,0.56 0.28,0.24 0.43,0.58 0.43,0.98 0,0.94 -0.71,1.46 -1.99,1.46 l -0.18,-0.3 c 0.79,0 1.16,-0.34 1.16,-1.07 0,-0.57 -0.24,-1.01 -0.66,-1.25 -0.34,-0.19 -0.82,-0.26 -1.72,-0.26 l -0.09,-0.32 c 0.64,0 1.06,-0.04 1.26,-0.12 0.41,-0.17 0.65,-0.61 0.65,-1.14 0,-1.07 -0.73,-1.73 -1.94,-1.73 -0.42,0 -0.64,0.15 -0.64,0.42 0,0.12 0.12,0.59 0.35,1.39 0.13,0.44 0.19,0.67 0.32,1.18 h 0 l 0.09,0.32 0.65,2.3 c 0.06,0.22 0.18,0.28 0.57,0.28 l 0.18,0.3 h -2.57 v -0.16 c 0.62,-0.05 0.77,-0.13 0.77,-0.41 0,-0.15 -0.04,-0.4 -0.11,-0.63 l -1.23,-4.39 c -0.18,-0.58 -0.25,-0.64 -0.8,-0.74 z"
         id="path14850"
         inkscape:connector-curvature="0"
         style="fill:#000000;stroke-width:0" /><polygon
         points="411.55,696.02 411.55,695.46 416.64,695.46 416.64,696.02 "
         id="polygon14852"
         style="fill:#000000;stroke-width:0" /><polygon
         points="411.55,694 411.55,693.44 416.64,693.44 416.64,694 "
         id="polygon14854"
         style="fill:#000000;stroke-width:0" /><path
         d="m 422.93,698.9 -1.79,-0.91 v -0.14 c 0.12,0.05 0.23,0.09 0.27,0.11 0.18,0.07 0.35,0.11 0.45,0.11 0.21,0 0.29,-0.15 0.29,-0.47 v -4.5 c 0,-0.32 -0.08,-0.55 -0.23,-0.64 -0.15,-0.09 -0.29,-0.12 -0.71,-0.13 v -0.15 h 2.74 v 0.15 c -0.78,0.01 -0.94,0.11 -0.94,0.59 v 5.96 z"
         id="path14856"
         inkscape:connector-curvature="0"
         style="fill:#000000;stroke-width:0" /><path
         d="m 425.39,690.42 0.07,0.05 0.07,0.04 0.06,0.04 0.06,0.04 0.06,0.04 0.06,0.04 0.05,0.04 0.05,0.04 0.05,0.03 0.05,0.04 0.05,0.03 0.04,0.04 0.05,0.03 0.04,0.04 0.08,0.07 0.08,0.06 0.08,0.07 0.07,0.07 0.07,0.07 0.06,0.08 0.07,0.07 0.07,0.08 0.07,0.08 c 0.7,0.87 1.05,1.86 1.05,3.03 0,1.27 -0.37,2.23 -1.24,3.24 -0.41,0.48 -0.67,0.7 -1.19,1.02 l -0.12,-0.16 c 0.8,-0.63 1.07,-0.98 1.35,-1.72 0.24,-0.67 0.35,-1.42 0.35,-2.42 0,-1.03 -0.13,-1.85 -0.4,-2.46 -0.28,-0.62 -0.58,-0.98 -1.3,-1.56 z"
         id="path14858"
         inkscape:connector-curvature="0"
         style="fill:#000000;stroke-width:0" /></g>    <g
       style="font-style:normal;font-variant:normal;font-weight:normal;font-stretch:normal;letter-spacing:normal;word-spacing:normal;text-anchor:start;fill:none;stroke:#000000;stroke-width:1;stroke-linecap:butt;stroke-linejoin:miter;stroke-miterlimit:10.43299961;stroke-opacity:1;stroke-dasharray:none;stroke-dashoffset:0"
       ns0:preamble="/home/sriranga/Desktop/Basic-Electronics-Figures/package.tex"
       ns0:text="\\begin{align*}\nV_1 &amp; = 5V ~(A=1)\\\\\nV_2 &amp; = 0V ~(B=0)\n\\end{align*}\n\n"
       text-anchor="start"
       word-spacing="normal"
       letter-spacing="normal"
       font-size-adjust="none"
       font-stretch="normal"
       font-weight="normal"
       font-variant="normal"
       font-style="normal"
       fill-opacity="1"
       fill-rule="evenodd"
       fill="none"
       stroke-opacity="1"
       stroke-dashoffset="0"
       stroke-dasharray="none"
       stroke-miterlimit="10.433"
       stroke-linejoin="miter"
       stroke-linecap="butt"
       stroke="black"
       xml:space="preserve"
       transform="matrix(1.2,0,0,-1.2,-337.16815,1778.7898)"
       id="content"><path
         id="path15236"
         fill="black"
         stroke-width="0"
         d="M369.09,713.61 H367.24 V713.45 C367.68,713.4,367.86,713.3,367.86,713.11 C367.86,712.93,367.67,712.5,367.35,711.93 L365.3,708.4 L364.64,712.8 C364.63,712.85,364.63,712.89,364.63,712.95 C364.63,713.28,364.77,713.38,365.39,713.45 V713.61 H363 V713.45 C363.55,713.38,363.57,713.35,363.78,712.11 L364.63,706.95 H364.82 L368.53,713.05 C368.7,713.32,368.86,713.44,369.09,713.45 Z " /><path
         id="path15238"
         fill="black"
         stroke-width="0"
         d="M370.36,710.33 L369.1,709.7 V709.6 C369.18,709.64,369.26,709.66,369.29,709.68 C369.41,709.73,369.53,709.76,369.6,709.76 C369.75,709.76,369.81,709.65,369.81,709.43 V706.28 C369.81,706.05,369.76,705.89,369.64,705.83 C369.54,705.76,369.44,705.74,369.15,705.73 V705.63 H371.07 V705.73 C370.52,705.74,370.41,705.81,370.41,706.15 V710.32 Z " /><polygon
         id="polygon15240"
         fill="black"
         stroke-width="0"
         points="380.79,710.4 380.79,710.96 375.7,710.96 375.7,710.4 " /><polygon
         id="polygon15242"
         fill="black"
         stroke-width="0"
         points="380.79,708.39 380.79,708.94 375.7,708.94 375.7,708.39 " /><path
         id="path15244"
         fill="black"
         stroke-width="0"
         d="M385.98,712.92 H387.93 C388.09,712.92,388.13,712.94,388.16,713.01 L388.54,713.89 L388.45,713.96 C388.3,713.75,388.2,713.7,387.99,713.7 H385.92 L384.83,711.35 C384.82,711.33,384.82,711.32,384.82,711.3 C384.82,711.25,384.86,711.22,384.94,711.22 C385.26,711.22,385.66,711.15,386.06,711.02 C387.21,710.65,387.74,710.04,387.74,709.05 C387.74,708.1,387.13,707.35,386.35,707.35 C386.15,707.35,385.98,707.42,385.69,707.64 C385.37,707.87,385.14,707.97,384.93,707.97 C384.64,707.97,384.5,707.85,384.5,707.6 C384.5,707.22,384.97,706.99,385.72,706.99 C386.55,706.99,387.27,707.25,387.77,707.76 C388.22,708.21,388.43,708.77,388.43,709.53 C388.43,710.24,388.24,710.7,387.75,711.2 C387.31,711.64,386.74,711.86,385.57,712.07 Z " /><path
         id="path15246"
         fill="black"
         stroke-width="0"
         d="M396.01,713.61 H394.16 V713.45 C394.61,713.4,394.79,713.3,394.79,713.11 C394.79,712.93,394.6,712.5,394.27,711.93 L392.22,708.4 L391.56,712.8 C391.55,712.85,391.55,712.89,391.55,712.95 C391.55,713.28,391.69,713.38,392.32,713.45 V713.61 H389.92 V713.45 C390.48,713.38,390.5,713.35,390.71,712.11 L391.55,706.95 H391.74 L395.45,713.05 C395.62,713.32,395.78,713.44,396.01,713.45 Z " /><path
         id="path15248"
         fill="black"
         stroke-width="0"
         d="M401.45,713.84 L401.38,713.8 L401.31,713.75 L401.25,713.71 L401.19,713.67 L401.13,713.63 L401.07,713.59 L401.02,713.55 L400.97,713.52 L400.92,713.48 L400.87,713.44 L400.82,713.41 L400.78,713.37 L400.73,713.34 L400.69,713.3 L400.61,713.24 L400.53,713.17 L400.45,713.1 L400.38,713.03 L400.31,712.96 L400.25,712.89 L400.18,712.81 L400.11,712.73 L400.04,712.65 C399.34,711.78,398.99,710.79,398.99,709.63 C398.99,708.37,399.36,707.39,400.23,706.38 C400.64,705.9,400.9,705.68,401.42,705.37 L401.54,705.53 C400.74,706.15,400.46,706.5,400.19,707.24 C399.95,707.91,399.84,708.66,399.84,709.66 C399.84,710.7,399.97,711.52,400.24,712.13 C400.52,712.75,400.82,713.1,401.54,713.68 Z " /><path
         id="path15250"
         fill="black"
         stroke-width="0"
         d="M407.69,707.28 L407.64,707.29 L407.59,707.29 L407.54,707.3 L407.5,707.31 L407.46,707.31 L407.42,707.32 L407.38,707.33 L407.35,707.34 L407.32,707.35 L407.29,707.36 L407.26,707.37 L407.23,707.39 L407.21,707.4 L407.19,707.42 L407.17,707.44 L407.15,707.46 L407.13,707.48 L407.11,707.51 L407.09,707.53 L407.08,707.56 L407.06,707.59 L407.05,707.63 L407.04,707.67 L407.03,707.71 L407.01,707.75 L407,707.79 L406.99,707.84 L406.98,707.9 L406.97,707.92 L406.97,707.95 L406.96,707.98 L406.96,708.01 L406.95,708.04 L406.94,708.07 L406.94,708.1 L406.93,708.14 L406,713.76 H405.74 L402.85,708.79 C402.07,707.47,401.97,707.36,401.57,707.28 V707.12 H403.43 V707.28 C402.92,707.33,402.84,707.38,402.84,707.63 C402.84,707.82,402.87,707.91,403.04,708.25 L403.61,709.37 H405.8 L405.75,709.73 H403.82 L405.31,712.31 L405.75,709.73 L405.8,709.37 L406,708.07 C406.01,707.98,406.02,707.89,406.02,707.81 C406.02,707.43,405.88,707.34,405.24,707.28 V707.12 H407.69 Z " /><polygon
         id="polygon15252"
         fill="black"
         stroke-width="0"
         points="416.64,710.4 416.64,710.96 411.55,710.96 411.55,710.4 " /><polygon
         id="polygon15254"
         fill="black"
         stroke-width="0"
         points="416.64,708.39 416.64,708.94 411.55,708.94 411.55,708.39 " /><path
         id="path15256"
         fill="black"
         stroke-width="0"
         d="M422.93,713.84 L421.14,712.94 V712.8 C421.26,712.85,421.37,712.89,421.41,712.91 C421.59,712.98,421.76,713.02,421.86,713.02 C422.07,713.02,422.15,712.87,422.15,712.55 V708.05 C422.15,707.72,422.08,707.49,421.92,707.4 C421.77,707.31,421.63,707.28,421.21,707.27 V707.12 H423.95 V707.27 C423.17,707.28,423.01,707.38,423.01,707.86 V713.82 Z " /><path
         id="path15258"
         fill="black"
         stroke-width="0"
         d="M425.39,705.37 L425.46,705.41 L425.53,705.45 L425.59,705.5 L425.65,705.54 L425.71,705.58 L425.77,705.61 L425.82,705.65 L425.87,705.69 L425.92,705.73 L425.97,705.76 L426.02,705.8 L426.06,705.83 L426.11,705.87 L426.15,705.9 L426.23,705.97 L426.31,706.04 L426.39,706.11 L426.46,706.18 L426.53,706.25 L426.59,706.32 L426.66,706.4 L426.73,706.48 L426.8,706.56 C427.5,707.42,427.85,708.42,427.85,709.58 C427.85,710.85,427.48,711.81,426.61,712.83 C426.2,713.3,425.94,713.52,425.42,713.84 L425.3,713.68 C426.1,713.05,426.37,712.71,426.65,711.96 C426.89,711.3,427,710.54,427,709.55 C427,708.52,426.87,707.69,426.6,707.09 C426.32,706.46,426.02,706.1,425.3,705.53 Z " /><path
         id="path15260"
         fill="black"
         stroke-width="0"
         d="M369.09,698.67 H367.24 V698.51 C367.68,698.46,367.86,698.36,367.86,698.17 C367.86,697.98,367.67,697.55,367.35,696.99 L365.3,693.45 L364.64,697.85 C364.63,697.9,364.63,697.94,364.63,698 C364.63,698.34,364.77,698.44,365.39,698.51 V698.67 H363 V698.51 C363.55,698.44,363.57,698.41,363.78,697.17 L364.63,692 H364.82 L368.53,698.11 C368.7,698.38,368.86,698.5,369.09,698.51 Z " /><path
         id="path15262"
         fill="black"
         stroke-width="0"
         d="M371.64,691.64 L371.55,691.67 C371.29,691.28,371.2,691.22,370.88,691.22 H369.22 L370.39,692.44 C371.01,693.09,371.28,693.61,371.28,694.16 C371.28,694.85,370.72,695.39,369.99,695.39 C369.61,695.39,369.25,695.23,368.99,694.96 C368.77,694.72,368.66,694.5,368.54,694 L368.69,693.97 C368.97,694.65,369.22,694.87,369.7,694.87 C370.29,694.87,370.68,694.48,370.68,693.89 C370.68,693.35,370.36,692.7,369.78,692.09 L368.54,690.77 V690.69 H371.25 Z " /><polygon
         id="polygon15264"
         fill="black"
         stroke-width="0"
         points="380.79,695.46 380.79,696.02 375.7,696.02 375.7,695.46 " /><polygon
         id="polygon15266"
         fill="black"
         stroke-width="0"
         points="380.79,693.44 380.79,694 375.7,694 375.7,693.44 " /><path
         id="path15268"
         fill="black"
         stroke-width="0"
         d="M386.71,698.9 L386.66,698.9 L386.61,698.89 L386.56,698.89 L386.51,698.89 L386.46,698.88 L386.42,698.88 L386.37,698.87 L386.32,698.86 L386.28,698.86 L386.23,698.85 L386.19,698.84 L386.15,698.82 L386.1,698.81 L386.06,698.8 L386.02,698.78 L385.98,698.77 L385.94,698.75 L385.9,698.73 L385.86,698.72 L385.82,698.7 L385.78,698.68 L385.74,698.65 L385.7,698.63 L385.66,698.61 L385.63,698.58 L385.59,698.56 L385.55,698.53 L385.52,698.5 L385.48,698.47 L385.45,698.44 L385.41,698.41 L385.38,698.38 C384.8,697.82,384.42,696.68,384.42,695.52 C384.42,694.44,384.75,693.27,385.22,692.72 C385.59,692.28,386.09,692.04,386.67,692.04 V692.3 C385.82,692.3,385.38,693.36,385.38,695.43 C385.38,697.53,385.83,698.64,386.68,698.64 H386.68 C387.52,698.64,387.96,697.52,387.96,695.44 C387.96,693.36,387.53,692.3,386.67,692.3 V692.04 C387.18,692.04,387.61,692.21,387.96,692.56 C388.54,693.1,388.92,694.26,388.92,695.46 C388.92,697.5,388.01,698.9,386.71,698.9 Z " /><path
         id="path15270"
         fill="black"
         stroke-width="0"
         d="M396.01,698.67 H394.16 V698.51 C394.61,698.46,394.79,698.36,394.79,698.17 C394.79,697.98,394.6,697.55,394.27,696.99 L392.22,693.45 L391.56,697.85 C391.55,697.9,391.55,697.94,391.55,698 C391.55,698.34,391.69,698.44,392.32,698.51 V698.67 H389.92 V698.51 C390.48,698.44,390.5,698.41,390.71,697.17 L391.55,692 H391.74 L395.45,698.11 C395.62,698.38,395.78,698.5,396.01,698.51 Z " /><path
         id="path15272"
         fill="black"
         stroke-width="0"
         d="M401.45,698.9 L401.38,698.85 L401.31,698.81 L401.25,698.77 L401.19,698.73 L401.13,698.69 L401.07,698.65 L401.02,698.61 L400.97,698.57 L400.92,698.54 L400.87,698.5 L400.82,698.46 L400.78,698.43 L400.73,698.4 L400.69,698.36 L400.61,698.29 L400.53,698.22 L400.45,698.16 L400.38,698.09 L400.31,698.02 L400.25,697.94 L400.18,697.87 L400.11,697.79 L400.04,697.7 C399.34,696.84,398.99,695.85,398.99,694.68 C398.99,693.42,399.36,692.45,400.23,691.44 C400.64,690.96,400.9,690.74,401.42,690.42 L401.54,690.58 C400.74,691.21,400.46,691.55,400.19,692.3 C399.95,692.97,399.84,693.72,399.84,694.71 C399.84,695.76,399.97,696.57,400.24,697.19 C400.52,697.8,400.82,698.16,401.54,698.74 Z " /><path
         id="path15274"
         fill="black"
         stroke-width="0"
         d="M402.1,692.18 H404.9 C406.46,692.18,407.54,693,407.54,694.17 C407.54,694.53,407.42,694.88,407.2,695.1 C407,695.33,406.8,695.45,406.29,695.67 C406.99,695.84,407.28,695.96,407.6,696.23 C407.88,696.47,408.03,696.81,408.03,697.21 C408.03,698.15,407.32,698.67,406.04,698.67 L405.86,698.37 C406.65,698.37,407.02,698.03,407.02,697.3 C407.02,696.73,406.78,696.29,406.36,696.05 C406.02,695.86,405.54,695.79,404.64,695.79 L404.55,695.47 C405.19,695.47,405.61,695.43,405.81,695.35 C406.22,695.18,406.46,694.74,406.46,694.21 C406.46,693.14,405.73,692.48,404.52,692.48 C404.1,692.48,403.88,692.63,403.88,692.9 C403.88,693.02,404,693.49,404.23,694.29 C404.36,694.73,404.42,694.96,404.55,695.47 H404.55 L404.64,695.79 L405.29,698.09 C405.35,698.31,405.47,698.37,405.86,698.37 L406.04,698.67 H403.47 V698.51 C404.09,698.46,404.24,698.38,404.24,698.1 C404.24,697.95,404.2,697.7,404.13,697.47 L402.9,693.08 C402.72,692.5,402.65,692.44,402.1,692.34 Z " /><polygon
         id="polygon15276"
         fill="black"
         stroke-width="0"
         points="416.64,695.46 416.64,696.02 411.55,696.02 411.55,695.46 " /><polygon
         id="polygon15278"
         fill="black"
         stroke-width="0"
         points="416.64,693.44 416.64,694 411.55,694 411.55,693.44 " /><path
         id="path15280"
         fill="black"
         stroke-width="0"
         d="M422.56,698.9 L422.51,698.9 L422.46,698.89 L422.41,698.89 L422.36,698.89 L422.31,698.88 L422.27,698.88 L422.22,698.87 L422.17,698.86 L422.13,698.86 L422.08,698.85 L422.04,698.84 L422,698.82 L421.95,698.81 L421.91,698.8 L421.87,698.78 L421.83,698.77 L421.79,698.75 L421.75,698.73 L421.71,698.72 L421.67,698.7 L421.63,698.68 L421.59,698.65 L421.55,698.63 L421.52,698.61 L421.48,698.58 L421.44,698.56 L421.41,698.53 L421.37,698.5 L421.33,698.47 L421.3,698.44 L421.26,698.41 L421.23,698.38 C420.65,697.82,420.27,696.68,420.27,695.52 C420.27,694.44,420.6,693.27,421.07,692.72 C421.44,692.28,421.95,692.04,422.52,692.04 V692.3 C421.67,692.3,421.23,693.36,421.23,695.43 C421.23,697.53,421.68,698.64,422.53,698.64 H422.53 C423.37,698.64,423.82,697.52,423.82,695.44 C423.82,693.36,423.38,692.3,422.52,692.3 V692.04 C423.03,692.04,423.46,692.21,423.82,692.56 C424.39,693.1,424.77,694.26,424.77,695.46 C424.77,697.5,423.86,698.9,422.56,698.9 Z " /><path
         id="path15282"
         fill="black"
         stroke-width="0"
         d="M425.39,690.42 L425.46,690.47 L425.53,690.51 L425.59,690.55 L425.65,690.59 L425.71,690.63 L425.77,690.67 L425.82,690.71 L425.87,690.75 L425.92,690.78 L425.97,690.82 L426.02,690.85 L426.06,690.89 L426.11,690.92 L426.15,690.96 L426.23,691.03 L426.31,691.09 L426.39,691.16 L426.46,691.23 L426.53,691.3 L426.59,691.38 L426.66,691.45 L426.73,691.53 L426.8,691.61 C427.5,692.48,427.85,693.47,427.85,694.64 C427.85,695.91,427.48,696.87,426.61,697.88 C426.2,698.36,425.94,698.58,425.42,698.9 L425.3,698.74 C426.1,698.11,426.37,697.76,426.65,697.02 C426.89,696.35,427,695.6,427,694.6 C427,693.57,426.87,692.75,426.6,692.14 C426.32,691.52,426.02,691.16,425.3,690.58 Z " /></g>    <g
       id="g3368"
       transform="matrix(1.2,0,0,-1.2,-261.98841,1682.7297)"
       xml:space="preserve"
       stroke="black"
       stroke-linecap="butt"
       stroke-linejoin="miter"
       stroke-miterlimit="10.433"
       stroke-dasharray="none"
       stroke-dashoffset="0"
       stroke-opacity="1"
       fill="none"
       fill-rule="evenodd"
       fill-opacity="1"
       font-style="normal"
       font-variant="normal"
       font-weight="normal"
       font-stretch="normal"
       font-size-adjust="none"
       letter-spacing="normal"
       word-spacing="normal"
       text-anchor="start"
       ns0:text="$V_1= 5V$ or $A=1$"
       ns0:preamble="/home/sriranga/Desktop/Basic-Electronics-Figures/package.tex"
       style="font-style:normal;font-variant:normal;font-weight:normal;font-stretch:normal;letter-spacing:normal;word-spacing:normal;text-anchor:start;fill:none;stroke:#000000;stroke-width:1;stroke-linecap:butt;stroke-linejoin:miter;stroke-miterlimit:10.43299961;stroke-opacity:1;stroke-dasharray:none;stroke-dashoffset:0"><path
         d="M230.28,713.61 H228.43 V713.45 C228.87,713.4,229.05,713.3,229.05,713.11 C229.05,712.93,228.86,712.5,228.54,711.93 L226.49,708.4 L225.83,712.8 C225.82,712.85,225.82,712.89,225.82,712.95 C225.82,713.28,225.96,713.38,226.59,713.45 V713.61 H224.19 V713.45 C224.74,713.38,224.76,713.35,224.97,712.11 L225.82,706.95 H226.01 L229.72,713.05 C229.89,713.32,230.05,713.44,230.28,713.45 Z "
         stroke-width="0"
         fill="black"
         id="path3370" /><path
         d="M231.55,710.33 L230.29,709.7 V709.6 C230.38,709.64,230.45,709.66,230.48,709.68 C230.6,709.73,230.72,709.76,230.79,709.76 C230.94,709.76,231,709.65,231,709.43 V706.28 C231,706.05,230.95,705.89,230.84,705.83 C230.73,705.76,230.63,705.74,230.34,705.73 V705.63 H232.26 V705.73 C231.71,705.74,231.6,705.81,231.6,706.15 V710.32 Z "
         stroke-width="0"
         fill="black"
         id="path3372" /><polygon
         points="241.98,710.4 241.98,710.96 236.89,710.96 236.89,710.4 "
         stroke-width="0"
         fill="black"
         id="polygon3374" /><polygon
         points="241.98,708.39 241.98,708.94 236.89,708.94 236.89,708.39 "
         stroke-width="0"
         fill="black"
         id="polygon3376" /><path
         d="M247.18,712.92 H249.13 C249.29,712.92,249.32,712.94,249.35,713.01 L249.73,713.89 L249.64,713.96 C249.49,713.75,249.4,713.7,249.19,713.7 H247.11 L246.02,711.35 C246.01,711.33,246.01,711.32,246.01,711.3 C246.01,711.25,246.05,711.22,246.13,711.22 C246.45,711.22,246.85,711.15,247.26,711.02 C248.4,710.65,248.93,710.04,248.93,709.05 C248.93,708.1,248.32,707.35,247.54,707.35 C247.35,707.35,247.18,707.42,246.88,707.64 C246.56,707.87,246.33,707.97,246.12,707.97 C245.83,707.97,245.69,707.85,245.69,707.6 C245.69,707.22,246.16,706.99,246.91,706.99 C247.74,706.99,248.46,707.25,248.96,707.76 C249.41,708.21,249.62,708.77,249.62,709.53 C249.62,710.24,249.43,710.7,248.94,711.2 C248.5,711.64,247.93,711.86,246.76,712.07 Z "
         stroke-width="0"
         fill="black"
         id="path3378" /><path
         d="M257.2,713.61 H255.35 V713.45 C255.8,713.4,255.98,713.3,255.98,713.11 C255.98,712.93,255.79,712.5,255.46,711.93 L253.41,708.4 L252.76,712.8 C252.74,712.85,252.74,712.89,252.74,712.95 C252.74,713.28,252.88,713.38,253.51,713.45 V713.61 H251.11 V713.45 C251.67,713.38,251.69,713.35,251.9,712.11 L252.74,706.95 H252.93 L256.64,713.05 C256.81,713.32,256.97,713.44,257.2,713.45 Z "
         stroke-width="0"
         fill="black"
         id="path3380" /><path
         d="M262.19,711.7 L262.07,711.69 L261.95,711.68 L261.83,711.67 L261.72,711.65 L261.61,711.63 L261.51,711.6 L261.4,711.56 L261.3,711.52 L261.2,711.48 L261.11,711.43 L261.01,711.38 L260.92,711.32 L260.84,711.26 L260.76,711.19 L260.68,711.12 L260.6,711.05 L260.53,710.97 L260.47,710.89 L260.4,710.8 L260.34,710.71 L260.29,710.61 L260.24,710.52 L260.19,710.42 L260.15,710.31 L260.11,710.2 L260.08,710.09 L260.05,709.98 L260.03,709.86 L260.01,709.74 L260,709.62 L259.99,709.5 L259.99,709.37 C259.99,708.03,260.92,707.03,262.17,707.03 L262.29,707.3 C261.9,707.3,261.53,707.54,261.32,707.94 C261.04,708.46,260.89,709.15,260.89,709.86 C260.89,710.8,261.35,711.42,262.06,711.42 H262.06 C262.89,711.42,263.48,710.46,263.48,709.1 C263.48,707.98,263.03,707.3,262.29,707.3 L262.17,707.03 C263.42,707.03,264.38,708.08,264.38,709.45 C264.38,710.75,263.46,711.7,262.19,711.7 Z "
         stroke-width="0"
         fill="black"
         id="path3382" /><path
         d="M264.75,711 L264.76,711 L264.78,711 L264.79,711.01 L264.8,711.01 L264.83,711.01 L264.85,711.02 L264.87,711.02 L264.89,711.02 L264.91,711.03 L264.93,711.03 L264.95,711.03 L264.97,711.03 L264.99,711.04 L265.01,711.04 L265.04,711.04 L265.06,711.04 L265.08,711.04 L265.1,711.04 C265.35,711.04,265.44,710.88,265.44,710.44 V707.96 C265.44,707.46,265.37,707.39,264.73,707.27 V707.12 H267.12 V707.27 C266.44,707.3,266.27,707.45,266.27,708.02 V710.25 C266.27,710.57,266.7,711.07,266.97,711.07 C267.03,711.07,267.12,711.02,267.23,710.92 C267.39,710.78,267.5,710.72,267.63,710.72 C267.87,710.72,268.02,710.89,268.02,711.17 C268.02,711.5,267.81,711.7,267.47,711.7 C267.05,711.7,266.76,711.47,266.27,710.76 V711.67 L266.22,711.7 C265.7,711.48,265.34,711.35,264.75,711.16 Z "
         stroke-width="0"
         fill="black"
         id="path3384" /><path
         d="M276.35,707.28 L276.3,707.29 L276.25,707.29 L276.2,707.3 L276.16,707.31 L276.12,707.31 L276.08,707.32 L276.05,707.33 L276.01,707.34 L275.98,707.35 L275.95,707.36 L275.92,707.37 L275.9,707.39 L275.87,707.4 L275.85,707.42 L275.83,707.44 L275.81,707.46 L275.79,707.48 L275.77,707.51 L275.76,707.53 L275.74,707.56 L275.73,707.59 L275.71,707.63 L275.7,707.67 L275.69,707.71 L275.68,707.75 L275.66,707.79 L275.65,707.84 L275.64,707.9 L275.64,707.92 L275.63,707.95 L275.62,707.98 L275.62,708.01 L275.61,708.04 L275.61,708.07 L275.6,708.1 L275.6,708.14 L274.66,713.76 H274.4 L271.52,708.79 C270.73,707.47,270.63,707.36,270.23,707.28 V707.12 H272.09 V707.28 C271.59,707.33,271.51,707.38,271.51,707.63 C271.51,707.82,271.54,707.91,271.7,708.25 L272.27,709.37 H274.46 L274.41,709.73 H272.48 L273.97,712.31 L274.41,709.73 L274.46,709.37 L274.66,708.07 C274.67,707.98,274.68,707.89,274.68,707.81 C274.68,707.43,274.54,707.34,273.9,707.28 V707.12 H276.35 Z "
         stroke-width="0"
         fill="black"
         id="path3386" /><polygon
         points="285.31,710.4 285.31,710.96 280.21,710.96 280.21,710.4 "
         stroke-width="0"
         fill="black"
         id="polygon3388" /><polygon
         points="285.31,708.39 285.31,708.94 280.21,708.94 280.21,708.39 "
         stroke-width="0"
         fill="black"
         id="polygon3390" /><path
         d="M291.59,713.84 L289.8,712.94 V712.8 C289.92,712.85,290.03,712.89,290.07,712.91 C290.25,712.98,290.42,713.02,290.52,713.02 C290.73,713.02,290.82,712.87,290.82,712.55 V708.05 C290.82,707.72,290.74,707.49,290.58,707.4 C290.43,707.31,290.29,707.28,289.87,707.27 V707.12 H292.62 V707.27 C291.83,707.28,291.67,707.38,291.67,707.86 V713.82 Z "
         stroke-width="0"
         fill="black"
         id="path3392" /></g>    <g
       style="font-style:normal;font-variant:normal;font-weight:normal;font-stretch:normal;letter-spacing:normal;word-spacing:normal;text-anchor:start;fill:none;stroke:#000000;stroke-width:1;stroke-linecap:butt;stroke-linejoin:miter;stroke-miterlimit:10.43299961;stroke-opacity:1;stroke-dasharray:none;stroke-dashoffset:0"
       ns0:preamble="/home/sriranga/Desktop/Basic-Electronics-Figures/package.tex"
       ns0:text="$V_2=0V$ or $B=0$"
       text-anchor="start"
       word-spacing="normal"
       letter-spacing="normal"
       font-size-adjust="none"
       font-stretch="normal"
       font-weight="normal"
       font-variant="normal"
       font-style="normal"
       fill-opacity="1"
       fill-rule="evenodd"
       fill="none"
       stroke-opacity="1"
       stroke-dashoffset="0"
       stroke-dasharray="none"
       stroke-miterlimit="10.433"
       stroke-linejoin="miter"
       stroke-linecap="butt"
       stroke="black"
       xml:space="preserve"
       transform="matrix(1.2,0,0,-1.2,-259.59549,1744.6959)"
       id="g3787"><path
         id="path3789"
         fill="black"
         stroke-width="0"
         d="M230.28,713.61 H228.43 V713.45 C228.87,713.4,229.05,713.3,229.05,713.11 C229.05,712.93,228.86,712.5,228.54,711.93 L226.49,708.4 L225.83,712.8 C225.82,712.85,225.82,712.89,225.82,712.95 C225.82,713.28,225.96,713.38,226.59,713.45 V713.61 H224.19 V713.45 C224.74,713.38,224.76,713.35,224.97,712.11 L225.82,706.95 H226.01 L229.72,713.05 C229.89,713.32,230.05,713.44,230.28,713.45 Z " /><path
         id="path3791"
         fill="black"
         stroke-width="0"
         d="M232.83,706.58 L232.74,706.62 C232.48,706.22,232.39,706.16,232.07,706.16 H230.41 L231.58,707.38 C232.2,708.03,232.47,708.56,232.47,709.1 C232.47,709.8,231.91,710.33,231.18,710.33 C230.8,710.33,230.44,710.18,230.18,709.9 C229.96,709.66,229.85,709.44,229.74,708.95 L229.88,708.91 C230.16,709.59,230.41,709.82,230.89,709.82 C231.48,709.82,231.87,709.42,231.87,708.84 C231.87,708.29,231.55,707.65,230.97,707.03 L229.73,705.71 V705.63 H232.44 Z " /><polygon
         id="polygon3793"
         fill="black"
         stroke-width="0"
         points="241.98,710.4 241.98,710.96 236.89,710.96 236.89,710.4 " /><polygon
         id="polygon3795"
         fill="black"
         stroke-width="0"
         points="241.98,708.39 241.98,708.94 236.89,708.94 236.89,708.39 " /><path
         id="path3797"
         fill="black"
         stroke-width="0"
         d="M247.9,713.84 L247.85,713.84 L247.8,713.84 L247.75,713.84 L247.7,713.83 L247.65,713.83 L247.61,713.82 L247.56,713.82 L247.51,713.81 L247.47,713.8 L247.42,713.79 L247.38,713.78 L247.34,713.77 L247.29,713.76 L247.25,713.74 L247.21,713.73 L247.17,713.71 L247.13,713.7 L247.09,713.68 L247.05,713.66 L247.01,713.64 L246.97,713.62 L246.93,713.6 L246.89,713.57 L246.86,713.55 L246.82,713.53 L246.78,713.5 L246.75,713.47 L246.71,713.45 L246.67,713.42 L246.64,713.39 L246.6,713.36 L246.57,713.32 C245.99,712.77,245.61,711.62,245.61,710.46 C245.61,709.38,245.94,708.22,246.41,707.66 C246.78,707.22,247.29,706.99,247.86,706.99 V707.24 C247.01,707.24,246.57,708.31,246.57,710.37 C246.57,712.48,247.02,713.58,247.87,713.58 H247.87 C248.71,713.58,249.16,712.46,249.16,710.38 C249.16,708.31,248.72,707.24,247.86,707.24 V706.99 C248.37,706.99,248.8,707.16,249.16,707.5 C249.73,708.05,250.11,709.2,250.11,710.4 C250.11,712.44,249.21,713.84,247.9,713.84 Z " /><path
         id="path3799"
         fill="black"
         stroke-width="0"
         d="M257.2,713.61 H255.35 V713.45 C255.8,713.4,255.98,713.3,255.98,713.11 C255.98,712.93,255.79,712.5,255.46,711.93 L253.41,708.4 L252.76,712.8 C252.74,712.85,252.74,712.89,252.74,712.95 C252.74,713.28,252.88,713.38,253.51,713.45 V713.61 H251.11 V713.45 C251.67,713.38,251.69,713.35,251.9,712.11 L252.74,706.95 H252.93 L256.64,713.05 C256.81,713.32,256.97,713.44,257.2,713.45 Z " /><path
         id="path3801"
         fill="black"
         stroke-width="0"
         d="M262.19,711.7 L262.07,711.69 L261.95,711.68 L261.83,711.67 L261.72,711.65 L261.61,711.63 L261.51,711.6 L261.4,711.56 L261.3,711.52 L261.2,711.48 L261.11,711.43 L261.01,711.38 L260.92,711.32 L260.84,711.26 L260.76,711.19 L260.68,711.12 L260.6,711.05 L260.53,710.97 L260.47,710.89 L260.4,710.8 L260.34,710.71 L260.29,710.61 L260.24,710.52 L260.19,710.42 L260.15,710.31 L260.11,710.2 L260.08,710.09 L260.05,709.98 L260.03,709.86 L260.01,709.74 L260,709.62 L259.99,709.5 L259.99,709.37 C259.99,708.03,260.92,707.03,262.17,707.03 L262.29,707.3 C261.9,707.3,261.53,707.54,261.32,707.94 C261.04,708.46,260.89,709.15,260.89,709.86 C260.89,710.8,261.35,711.42,262.06,711.42 H262.06 C262.89,711.42,263.48,710.46,263.48,709.1 C263.48,707.98,263.03,707.3,262.29,707.3 L262.17,707.03 C263.42,707.03,264.38,708.08,264.38,709.45 C264.38,710.75,263.46,711.7,262.19,711.7 Z " /><path
         id="path3803"
         fill="black"
         stroke-width="0"
         d="M264.75,711 L264.76,711 L264.78,711 L264.79,711.01 L264.8,711.01 L264.83,711.01 L264.85,711.02 L264.87,711.02 L264.89,711.02 L264.91,711.03 L264.93,711.03 L264.95,711.03 L264.97,711.03 L264.99,711.04 L265.01,711.04 L265.04,711.04 L265.06,711.04 L265.08,711.04 L265.1,711.04 C265.35,711.04,265.44,710.88,265.44,710.44 V707.96 C265.44,707.46,265.37,707.39,264.73,707.27 V707.12 H267.12 V707.27 C266.44,707.3,266.27,707.45,266.27,708.02 V710.25 C266.27,710.57,266.7,711.07,266.97,711.07 C267.03,711.07,267.12,711.02,267.23,710.92 C267.39,710.78,267.5,710.72,267.63,710.72 C267.87,710.72,268.02,710.89,268.02,711.17 C268.02,711.5,267.81,711.7,267.47,711.7 C267.05,711.7,266.76,711.47,266.27,710.76 V711.67 L266.22,711.7 C265.7,711.48,265.34,711.35,264.75,711.16 Z " /><path
         id="path3805"
         fill="black"
         stroke-width="0"
         d="M270.76,707.12 H273.57 C275.13,707.12,276.2,707.94,276.2,709.11 C276.2,709.48,276.08,709.83,275.86,710.05 C275.67,710.27,275.47,710.39,274.95,710.61 C275.66,710.78,275.94,710.9,276.26,711.18 C276.54,711.42,276.69,711.75,276.69,712.15 C276.69,713.09,275.98,713.61,274.7,713.61 L274.52,713.31 C275.32,713.31,275.68,712.98,275.68,712.24 C275.68,711.67,275.45,711.24,275.02,711 C274.68,710.8,274.2,710.73,273.31,710.73 L273.21,710.41 C273.86,710.41,274.27,710.37,274.47,710.29 C274.88,710.12,275.13,709.69,275.13,709.15 C275.13,708.08,274.39,707.42,273.18,707.42 C272.76,707.42,272.54,707.57,272.54,707.84 C272.54,707.96,272.66,708.44,272.89,709.23 C273.02,709.68,273.08,709.91,273.21,710.41 H273.21 L273.31,710.73 L273.95,713.04 C274.01,713.25,274.13,713.31,274.52,713.31 L274.7,713.61 H272.13 V713.45 C272.75,713.4,272.9,713.32,272.9,713.05 C272.9,712.9,272.86,712.65,272.79,712.41 L271.57,708.02 C271.39,707.44,271.32,707.38,270.76,707.28 Z " /><polygon
         id="polygon3807"
         fill="black"
         stroke-width="0"
         points="285.31,710.4 285.31,710.96 280.21,710.96 280.21,710.4 " /><polygon
         id="polygon3809"
         fill="black"
         stroke-width="0"
         points="285.31,708.39 285.31,708.94 280.21,708.94 280.21,708.39 " /><path
         id="path3811"
         fill="black"
         stroke-width="0"
         d="M291.23,713.84 L291.17,713.84 L291.12,713.84 L291.07,713.84 L291.03,713.83 L290.98,713.83 L290.93,713.82 L290.88,713.82 L290.84,713.81 L290.79,713.8 L290.75,713.79 L290.7,713.78 L290.66,713.77 L290.62,713.76 L290.57,713.74 L290.53,713.73 L290.49,713.71 L290.45,713.7 L290.41,713.68 L290.37,713.66 L290.33,713.64 L290.29,713.62 L290.25,713.6 L290.22,713.57 L290.18,713.55 L290.14,713.53 L290.1,713.5 L290.07,713.47 L290.03,713.45 L290,713.42 L289.96,713.39 L289.93,713.36 L289.89,713.32 C289.32,712.77,288.94,711.62,288.94,710.46 C288.94,709.38,289.27,708.22,289.73,707.66 C290.1,707.22,290.61,706.99,291.18,706.99 V707.24 C290.33,707.24,289.89,708.31,289.89,710.37 C289.89,712.48,290.34,713.58,291.2,713.58 H291.2 C292.03,713.58,292.48,712.46,292.48,710.38 C292.48,708.31,292.04,707.24,291.18,707.24 V706.99 C291.69,706.99,292.12,707.16,292.48,707.5 C293.06,708.05,293.43,709.2,293.43,710.4 C293.43,712.44,292.53,713.84,291.23,713.84 Z " /></g>    <g
       id="g4210"
       transform="matrix(1.2,0,0,-1.2,-16.182394,1682.2706)"
       xml:space="preserve"
       stroke-miterlimit="10.433"
       font-style="normal"
       font-variant="normal"
       font-weight="normal"
       font-stretch="normal"
       font-size-adjust="none"
       letter-spacing="normal"
       word-spacing="normal"
       ns0:text="$V_1= 5V$ or $A=1$"
       ns0:preamble="/home/sriranga/Desktop/Basic-Electronics-Figures/package.tex"
       style="font-style:normal;font-variant:normal;font-weight:normal;font-stretch:normal;letter-spacing:normal;word-spacing:normal;text-anchor:start;fill:none;stroke:#000000;stroke-width:1;stroke-linecap:butt;stroke-linejoin:miter;stroke-miterlimit:10.43299961;stroke-opacity:1;stroke-dasharray:none;stroke-dashoffset:0"><path
         style="fill:#000000;stroke-width:0"
         inkscape:connector-curvature="0"
         d="m 230.28,713.61 h -1.85 v -0.16 c 0.44,-0.05 0.62,-0.15 0.62,-0.34 0,-0.18 -0.19,-0.61 -0.51,-1.18 l -2.05,-3.53 -0.66,4.4 c -0.01,0.05 -0.01,0.09 -0.01,0.15 0,0.33 0.14,0.43 0.77,0.5 v 0.16 h -2.4 v -0.16 c 0.55,-0.07 0.57,-0.1 0.78,-1.34 l 0.85,-5.16 h 0.19 l 3.71,6.1 c 0.17,0.27 0.33,0.39 0.56,0.4 z"
         id="path4212" /><path
         style="fill:#000000;stroke-width:0"
         inkscape:connector-curvature="0"
         d="m 231.55,710.33 -1.26,-0.63 v -0.1 c 0.09,0.04 0.16,0.06 0.19,0.08 0.12,0.05 0.24,0.08 0.31,0.08 0.15,0 0.21,-0.11 0.21,-0.33 v -3.15 c 0,-0.23 -0.05,-0.39 -0.16,-0.45 -0.11,-0.07 -0.21,-0.09 -0.5,-0.1 v -0.1 h 1.92 v 0.1 c -0.55,0.01 -0.66,0.08 -0.66,0.42 v 4.17 z"
         id="path4214" /><polygon
         style="fill:#000000;stroke-width:0"
         points="236.89,710.96 236.89,710.4 241.98,710.4 241.98,710.96 "
         id="polygon4216" /><polygon
         style="fill:#000000;stroke-width:0"
         points="236.89,708.94 236.89,708.39 241.98,708.39 241.98,708.94 "
         id="polygon4218" /><path
         style="fill:#000000;stroke-width:0"
         inkscape:connector-curvature="0"
         d="m 247.18,712.92 h 1.95 c 0.16,0 0.19,0.02 0.22,0.09 l 0.38,0.88 -0.09,0.07 c -0.15,-0.21 -0.24,-0.26 -0.45,-0.26 h -2.08 l -1.09,-2.35 c -0.01,-0.02 -0.01,-0.03 -0.01,-0.05 0,-0.05 0.04,-0.08 0.12,-0.08 0.32,0 0.72,-0.07 1.13,-0.2 1.14,-0.37 1.67,-0.98 1.67,-1.97 0,-0.95 -0.61,-1.7 -1.39,-1.7 -0.19,0 -0.36,0.07 -0.66,0.29 -0.32,0.23 -0.55,0.33 -0.76,0.33 -0.29,0 -0.43,-0.12 -0.43,-0.37 0,-0.38 0.47,-0.61 1.22,-0.61 0.83,0 1.55,0.26 2.05,0.77 0.45,0.45 0.66,1.01 0.66,1.77 0,0.71 -0.19,1.17 -0.68,1.67 -0.44,0.44 -1.01,0.66 -2.18,0.87 z"
         id="path4220" /><path
         style="fill:#000000;stroke-width:0"
         inkscape:connector-curvature="0"
         d="m 257.2,713.61 h -1.85 v -0.16 c 0.45,-0.05 0.63,-0.15 0.63,-0.34 0,-0.18 -0.19,-0.61 -0.52,-1.18 l -2.05,-3.53 -0.65,4.4 c -0.02,0.05 -0.02,0.09 -0.02,0.15 0,0.33 0.14,0.43 0.77,0.5 v 0.16 h -2.4 v -0.16 c 0.56,-0.07 0.58,-0.1 0.79,-1.34 l 0.84,-5.16 h 0.19 l 3.71,6.1 c 0.17,0.27 0.33,0.39 0.56,0.4 z"
         id="path4222" /><path
         style="fill:#000000;stroke-width:0"
         inkscape:connector-curvature="0"
         d="m 262.19,711.7 -0.12,-0.01 -0.12,-0.01 -0.12,-0.01 -0.11,-0.02 -0.11,-0.02 -0.1,-0.03 -0.11,-0.04 -0.1,-0.04 -0.1,-0.04 -0.09,-0.05 -0.1,-0.05 -0.09,-0.06 -0.08,-0.06 -0.08,-0.07 -0.08,-0.07 -0.08,-0.07 -0.07,-0.08 -0.06,-0.08 -0.07,-0.09 -0.06,-0.09 -0.05,-0.1 -0.05,-0.09 -0.05,-0.1 -0.04,-0.11 -0.04,-0.11 -0.03,-0.11 -0.03,-0.11 -0.02,-0.12 -0.02,-0.12 -0.01,-0.12 -0.01,-0.12 0,-0.13 c 0,-1.34 0.93,-2.34 2.18,-2.34 l 0.12,0.27 c -0.39,0 -0.76,0.24 -0.97,0.64 -0.28,0.52 -0.43,1.21 -0.43,1.92 0,0.94 0.46,1.56 1.17,1.56 h 0 c 0.83,0 1.42,-0.96 1.42,-2.32 0,-1.12 -0.45,-1.8 -1.19,-1.8 l -0.12,-0.27 c 1.25,0 2.21,1.05 2.21,2.42 0,1.3 -0.92,2.25 -2.19,2.25 z"
         id="path4224" /><path
         style="fill:#000000;stroke-width:0"
         inkscape:connector-curvature="0"
         d="m 264.75,711 0.01,0 0.02,0 0.01,0.01 0.01,0 0.03,0 0.02,0.01 0.02,0 0.02,0 0.02,0.01 0.02,0 0.02,0 0.02,0 0.02,0.01 0.02,0 0.03,0 0.02,0 0.02,0 0.02,0 c 0.25,0 0.34,-0.16 0.34,-0.6 v -2.48 c 0,-0.5 -0.07,-0.57 -0.71,-0.69 v -0.15 h 2.39 v 0.15 c -0.68,0.03 -0.85,0.18 -0.85,0.75 v 2.23 c 0,0.32 0.43,0.82 0.7,0.82 0.06,0 0.15,-0.05 0.26,-0.15 0.16,-0.14 0.27,-0.2 0.4,-0.2 0.24,0 0.39,0.17 0.39,0.45 0,0.33 -0.21,0.53 -0.55,0.53 -0.42,0 -0.71,-0.23 -1.2,-0.94 v 0.91 l -0.05,0.03 c -0.52,-0.22 -0.88,-0.35 -1.47,-0.54 z"
         id="path4226" /><path
         style="fill:#000000;stroke-width:0"
         inkscape:connector-curvature="0"
         d="m 276.35,707.28 -0.05,0.01 -0.05,0 -0.05,0.01 -0.04,0.01 -0.04,0 -0.04,0.01 -0.03,0.01 -0.04,0.01 -0.03,0.01 -0.03,0.01 -0.03,0.01 -0.02,0.02 -0.03,0.01 -0.02,0.02 -0.02,0.02 -0.02,0.02 -0.02,0.02 -0.02,0.03 -0.01,0.02 -0.02,0.03 -0.01,0.03 -0.02,0.04 -0.01,0.04 -0.01,0.04 -0.01,0.04 -0.02,0.04 -0.01,0.05 -0.01,0.06 0,0.02 -0.01,0.03 -0.01,0.03 0,0.03 -0.01,0.03 0,0.03 -0.01,0.03 0,0.04 -0.94,5.62 h -0.26 l -2.88,-4.97 c -0.79,-1.32 -0.89,-1.43 -1.29,-1.51 v -0.16 h 1.86 v 0.16 c -0.5,0.05 -0.58,0.1 -0.58,0.35 0,0.19 0.03,0.28 0.19,0.62 l 0.57,1.12 h 2.19 l -0.05,0.36 h -1.93 l 1.49,2.58 0.44,-2.58 0.05,-0.36 0.2,-1.3 c 0.01,-0.09 0.02,-0.18 0.02,-0.26 0,-0.38 -0.14,-0.47 -0.78,-0.53 v -0.16 h 2.45 z"
         id="path4228" /><polygon
         style="fill:#000000;stroke-width:0"
         points="280.21,710.96 280.21,710.4 285.31,710.4 285.31,710.96 "
         id="polygon4230" /><polygon
         style="fill:#000000;stroke-width:0"
         points="280.21,708.94 280.21,708.39 285.31,708.39 285.31,708.94 "
         id="polygon4232" /><path
         style="fill:#000000;stroke-width:0"
         inkscape:connector-curvature="0"
         d="m 291.59,713.84 -1.79,-0.9 v -0.14 c 0.12,0.05 0.23,0.09 0.27,0.11 0.18,0.07 0.35,0.11 0.45,0.11 0.21,0 0.3,-0.15 0.3,-0.47 v -4.5 c 0,-0.33 -0.08,-0.56 -0.24,-0.65 -0.15,-0.09 -0.29,-0.12 -0.71,-0.13 v -0.15 h 2.75 v 0.15 c -0.79,0.01 -0.95,0.11 -0.95,0.59 v 5.96 z"
         id="path4234" /></g>    <g
       style="font-style:normal;font-variant:normal;font-weight:normal;font-stretch:normal;letter-spacing:normal;word-spacing:normal;text-anchor:start;fill:none;stroke:#000000;stroke-width:1;stroke-linecap:butt;stroke-linejoin:miter;stroke-miterlimit:10.43299961;stroke-opacity:1;stroke-dasharray:none;stroke-dashoffset:0"
       ns0:preamble="/home/sriranga/Desktop/Basic-Electronics-Figures/package.tex"
       ns0:text="$V_2=5V$ or $B=1$"
       word-spacing="normal"
       letter-spacing="normal"
       font-size-adjust="none"
       font-stretch="normal"
       font-weight="normal"
       font-variant="normal"
       font-style="normal"
       stroke-miterlimit="10.433"
       xml:space="preserve"
       transform="matrix(1.2,0,0,-1.2,-14.876754,1742.4459)"
       id="g4637"><path
         id="path4639"
         d="m 230.28,713.61 h -1.85 v -0.16 c 0.44,-0.05 0.62,-0.15 0.62,-0.34 0,-0.18 -0.19,-0.61 -0.51,-1.18 l -2.05,-3.53 -0.66,4.4 c -0.01,0.05 -0.01,0.09 -0.01,0.15 0,0.33 0.14,0.43 0.77,0.5 v 0.16 h -2.4 v -0.16 c 0.55,-0.07 0.57,-0.1 0.78,-1.34 l 0.85,-5.16 h 0.19 l 3.71,6.1 c 0.17,0.27 0.33,0.39 0.56,0.4 z"
         inkscape:connector-curvature="0"
         style="fill:#000000;stroke-width:0" /><path
         id="path4641"
         d="m 232.83,706.58 -0.09,0.04 c -0.26,-0.4 -0.35,-0.46 -0.67,-0.46 h -1.66 l 1.17,1.22 c 0.62,0.65 0.89,1.18 0.89,1.72 0,0.7 -0.56,1.23 -1.29,1.23 -0.38,0 -0.74,-0.15 -1,-0.43 -0.22,-0.24 -0.33,-0.46 -0.44,-0.95 l 0.14,-0.04 c 0.28,0.68 0.53,0.91 1.01,0.91 0.59,0 0.98,-0.4 0.98,-0.98 0,-0.55 -0.32,-1.19 -0.9,-1.81 l -1.24,-1.32 v -0.08 h 2.71 z"
         inkscape:connector-curvature="0"
         style="fill:#000000;stroke-width:0" /><polygon
         id="polygon4643"
         points="236.89,710.4 241.98,710.4 241.98,710.96 236.89,710.96 "
         style="fill:#000000;stroke-width:0" /><polygon
         id="polygon4645"
         points="236.89,708.39 241.98,708.39 241.98,708.94 236.89,708.94 "
         style="fill:#000000;stroke-width:0" /><path
         id="path4647"
         d="m 247.18,712.92 h 1.95 c 0.16,0 0.19,0.02 0.22,0.09 l 0.38,0.88 -0.09,0.07 c -0.15,-0.21 -0.24,-0.26 -0.45,-0.26 h -2.08 l -1.09,-2.35 c -0.01,-0.02 -0.01,-0.03 -0.01,-0.05 0,-0.05 0.04,-0.08 0.12,-0.08 0.32,0 0.72,-0.07 1.13,-0.2 1.14,-0.37 1.67,-0.98 1.67,-1.97 0,-0.95 -0.61,-1.7 -1.39,-1.7 -0.19,0 -0.36,0.07 -0.66,0.29 -0.32,0.23 -0.55,0.33 -0.76,0.33 -0.29,0 -0.43,-0.12 -0.43,-0.37 0,-0.38 0.47,-0.61 1.22,-0.61 0.83,0 1.55,0.26 2.05,0.77 0.45,0.45 0.66,1.01 0.66,1.77 0,0.71 -0.19,1.17 -0.68,1.67 -0.44,0.44 -1.01,0.66 -2.18,0.87 z"
         inkscape:connector-curvature="0"
         style="fill:#000000;stroke-width:0" /><path
         id="path4649"
         d="m 257.2,713.61 h -1.85 v -0.16 c 0.45,-0.05 0.63,-0.15 0.63,-0.34 0,-0.18 -0.19,-0.61 -0.52,-1.18 l -2.05,-3.53 -0.65,4.4 c -0.02,0.05 -0.02,0.09 -0.02,0.15 0,0.33 0.14,0.43 0.77,0.5 v 0.16 h -2.4 v -0.16 c 0.56,-0.07 0.58,-0.1 0.79,-1.34 l 0.84,-5.16 h 0.19 l 3.71,6.1 c 0.17,0.27 0.33,0.39 0.56,0.4 z"
         inkscape:connector-curvature="0"
         style="fill:#000000;stroke-width:0" /><path
         id="path4651"
         d="m 262.19,711.7 -0.12,-0.01 -0.12,-0.01 -0.12,-0.01 -0.11,-0.02 -0.11,-0.02 -0.1,-0.03 -0.11,-0.04 -0.1,-0.04 -0.1,-0.04 -0.09,-0.05 -0.1,-0.05 -0.09,-0.06 -0.08,-0.06 -0.08,-0.07 -0.08,-0.07 -0.08,-0.07 -0.07,-0.08 -0.06,-0.08 -0.07,-0.09 -0.06,-0.09 -0.05,-0.1 -0.05,-0.09 -0.05,-0.1 -0.04,-0.11 -0.04,-0.11 -0.03,-0.11 -0.03,-0.11 -0.02,-0.12 -0.02,-0.12 -0.01,-0.12 -0.01,-0.12 0,-0.13 c 0,-1.34 0.93,-2.34 2.18,-2.34 l 0.12,0.27 c -0.39,0 -0.76,0.24 -0.97,0.64 -0.28,0.52 -0.43,1.21 -0.43,1.92 0,0.94 0.46,1.56 1.17,1.56 h 0 c 0.83,0 1.42,-0.96 1.42,-2.32 0,-1.12 -0.45,-1.8 -1.19,-1.8 l -0.12,-0.27 c 1.25,0 2.21,1.05 2.21,2.42 0,1.3 -0.92,2.25 -2.19,2.25 z"
         inkscape:connector-curvature="0"
         style="fill:#000000;stroke-width:0" /><path
         id="path4653"
         d="m 264.75,711 0.01,0 0.02,0 0.01,0.01 0.01,0 0.03,0 0.02,0.01 0.02,0 0.02,0 0.02,0.01 0.02,0 0.02,0 0.02,0 0.02,0.01 0.02,0 0.03,0 0.02,0 0.02,0 0.02,0 c 0.25,0 0.34,-0.16 0.34,-0.6 v -2.48 c 0,-0.5 -0.07,-0.57 -0.71,-0.69 v -0.15 h 2.39 v 0.15 c -0.68,0.03 -0.85,0.18 -0.85,0.75 v 2.23 c 0,0.32 0.43,0.82 0.7,0.82 0.06,0 0.15,-0.05 0.26,-0.15 0.16,-0.14 0.27,-0.2 0.4,-0.2 0.24,0 0.39,0.17 0.39,0.45 0,0.33 -0.21,0.53 -0.55,0.53 -0.42,0 -0.71,-0.23 -1.2,-0.94 v 0.91 l -0.05,0.03 c -0.52,-0.22 -0.88,-0.35 -1.47,-0.54 z"
         inkscape:connector-curvature="0"
         style="fill:#000000;stroke-width:0" /><path
         id="path4655"
         d="m 270.76,707.12 h 2.81 c 1.56,0 2.63,0.82 2.63,1.99 0,0.37 -0.12,0.72 -0.34,0.94 -0.19,0.22 -0.39,0.34 -0.91,0.56 0.71,0.17 0.99,0.29 1.31,0.57 0.28,0.24 0.43,0.57 0.43,0.97 0,0.94 -0.71,1.46 -1.99,1.46 l -0.18,-0.3 c 0.8,0 1.16,-0.33 1.16,-1.07 0,-0.57 -0.23,-1 -0.66,-1.24 -0.34,-0.2 -0.82,-0.27 -1.71,-0.27 l -0.1,-0.32 c 0.65,0 1.06,-0.04 1.26,-0.12 0.41,-0.17 0.66,-0.6 0.66,-1.14 0,-1.07 -0.74,-1.73 -1.95,-1.73 -0.42,0 -0.64,0.15 -0.64,0.42 0,0.12 0.12,0.6 0.35,1.39 0.13,0.45 0.19,0.68 0.32,1.18 h 0 l 0.1,0.32 0.64,2.31 c 0.06,0.21 0.18,0.27 0.57,0.27 l 0.18,0.3 h -2.57 v -0.16 c 0.62,-0.05 0.77,-0.13 0.77,-0.4 0,-0.15 -0.04,-0.4 -0.11,-0.64 l -1.22,-4.39 c -0.18,-0.58 -0.25,-0.64 -0.81,-0.74 z"
         inkscape:connector-curvature="0"
         style="fill:#000000;stroke-width:0" /><polygon
         id="polygon4657"
         points="280.21,710.4 285.31,710.4 285.31,710.96 280.21,710.96 "
         style="fill:#000000;stroke-width:0" /><polygon
         id="polygon4659"
         points="280.21,708.39 285.31,708.39 285.31,708.94 280.21,708.94 "
         style="fill:#000000;stroke-width:0" /><path
         id="path4661"
         d="m 291.59,713.84 -1.79,-0.9 v -0.14 c 0.12,0.05 0.23,0.09 0.27,0.11 0.18,0.07 0.35,0.11 0.45,0.11 0.21,0 0.3,-0.15 0.3,-0.47 v -4.5 c 0,-0.33 -0.08,-0.56 -0.24,-0.65 -0.15,-0.09 -0.29,-0.12 -0.71,-0.13 v -0.15 h 2.75 v 0.15 c -0.79,0.01 -0.95,0.11 -0.95,0.59 v 5.96 z"
         inkscape:connector-curvature="0"
         style="fill:#000000;stroke-width:0" /></g>  </g>
</svg>
