<?xml version="1.0" encoding="UTF-8" standalone="no"?>
<!-- Created with Inkscape (http://www.inkscape.org/) -->

<svg
   xmlns:ns0="http://www.iki.fi/pav/software/textext/"
   xmlns:dc="http://purl.org/dc/elements/1.1/"
   xmlns:cc="http://creativecommons.org/ns#"
   xmlns:rdf="http://www.w3.org/1999/02/22-rdf-syntax-ns#"
   xmlns:svg="http://www.w3.org/2000/svg"
   xmlns="http://www.w3.org/2000/svg"
   xmlns:xlink="http://www.w3.org/1999/xlink"
   xmlns:sodipodi="http://sodipodi.sourceforge.net/DTD/sodipodi-0.dtd"
   xmlns:inkscape="http://www.inkscape.org/namespaces/inkscape"
   width="744.09448819"
   height="1052.3622047"
   id="svg2"
   version="1.1"
   inkscape:version="0.48.4 r9939"
   sodipodi:docname="fig9.eps">
  <sodipodi:namedview
     id="base"
     pagecolor="#ffffff"
     bordercolor="#666666"
     borderopacity="1.0"
     inkscape:pageopacity="0.0"
     inkscape:pageshadow="2"
     inkscape:zoom="2.9672346"
     inkscape:cx="214.69651"
     inkscape:cy="744.72793"
     inkscape:document-units="px"
     inkscape:current-layer="layer1"
     showgrid="false"
     inkscape:window-width="1366"
     inkscape:window-height="744"
     inkscape:window-x="0"
     inkscape:window-y="24"
     inkscape:window-maximized="1" />
  <defs
     id="defs4">
    <marker
       inkscape:stockid="Arrow1Mend"
       orient="auto"
       refY="0.0"
       refX="0.0"
       id="Arrow1Mend"
       style="overflow:visible;">
      <path
         id="path3636"
         d="M 0.0,0.0 L 5.0,-5.0 L -12.5,0.0 L 5.0,5.0 L 0.0,0.0 z "
         style="fill-rule:evenodd;stroke:#000000;stroke-width:1.0pt;marker-start:none;"
         transform="scale(0.4) rotate(180) translate(10,0)" />
    </marker>
    <inkscape:perspective
       sodipodi:type="inkscape:persp3d"
       inkscape:vp_x="0 : 526.18109 : 1"
       inkscape:vp_y="0 : 1000 : 0"
       inkscape:vp_z="744.09448 : 526.18109 : 1"
       inkscape:persp3d-origin="372.04724 : 350.78739 : 1"
       id="perspective10" />
  </defs>
  <metadata
     id="metadata7">
    <rdf:RDF>
      <cc:Work
         rdf:about="">
        <dc:format>image/svg+xml</dc:format>
        <dc:type
           rdf:resource="http://purl.org/dc/dcmitype/StillImage" />
        <dc:title></dc:title>
      </cc:Work>
    </rdf:RDF>
  </metadata>
  <g
     inkscape:label="Layer 1"
     inkscape:groupmode="layer"
     id="layer1">
    <text
       xml:space="preserve"
       style="font-size:12px;font-style:normal;font-variant:normal;font-weight:normal;font-stretch:normal;line-height:125%;letter-spacing:0px;word-spacing:0px;fill:#000000;fill-opacity:1;stroke:none;font-family:LMRoman12;-inkscape-font-specification:LMRoman12"
       x="155.56349"
       y="272.52432"
       id="text2816"
       sodipodi:linespacing="125%"><tspan
         sodipodi:role="line"
         id="tspan2818"
         x="155.56349"
         y="272.52432">8</tspan></text>
    <path
       style="color:#000000;fill:none;stroke:#000000;stroke-width:1px;stroke-linecap:butt;stroke-linejoin:miter;stroke-miterlimit:4;stroke-opacity:1;stroke-dasharray:none;stroke-dashoffset:0;marker:none;visibility:visible;display:inline;overflow:visible;enable-background:accumulate"
       d="m 163.39217,262.42289 0,12.62691 22.72844,0"
       id="path2820"
       sodipodi:nodetypes="ccc" />
    <path
       id="path2822"
       d="m 166.88709,274.69575 0,12.62691 18.60861,0"
       style="color:#000000;fill:none;stroke:#000000;stroke-width:1px;stroke-linecap:butt;stroke-linejoin:miter;stroke-miterlimit:4;stroke-opacity:1;stroke-dasharray:none;stroke-dashoffset:0;marker:none;visibility:visible;display:inline;overflow:visible;enable-background:accumulate"
       sodipodi:nodetypes="ccc"
       inkscape:connector-curvature="0" />
    <text
       xml:space="preserve"
       style="font-size:12px;font-style:normal;font-variant:normal;font-weight:normal;font-stretch:normal;line-height:125%;letter-spacing:0px;word-spacing:0px;fill:#000000;fill-opacity:1;stroke:none;font-family:LMRoman12;-inkscape-font-specification:LMRoman12"
       x="165.66502"
       y="272.14551"
       id="text2824"
       sodipodi:linespacing="125%"><tspan
         sodipodi:role="line"
         id="tspan2826"
         x="165.66502"
         y="272.14551">283</tspan></text>
    <text
       xml:space="preserve"
       style="font-size:12px;font-style:normal;font-variant:normal;font-weight:normal;font-stretch:normal;line-height:125%;letter-spacing:0px;word-spacing:0px;fill:#000000;fill-opacity:1;stroke:none;font-family:LMRoman12;-inkscape-font-specification:LMRoman12"
       x="169.43279"
       y="285.15131"
       id="text2828"
       sodipodi:linespacing="125%"><tspan
         sodipodi:role="line"
         id="tspan2830"
         x="169.43279"
         y="285.15131">35</tspan></text>
    <text
       sodipodi:linespacing="125%"
       id="text2832"
       y="285.53452"
       x="159.07869"
       style="font-size:12px;font-style:normal;font-variant:normal;font-weight:normal;font-stretch:normal;line-height:125%;letter-spacing:0px;word-spacing:0px;fill:#000000;fill-opacity:1;stroke:none;font-family:LMRoman12;-inkscape-font-specification:LMRoman12"
       xml:space="preserve"><tspan
         y="285.53452"
         x="159.07869"
         id="tspan2834"
         sodipodi:role="line">8</tspan></text>
    <text
       xml:space="preserve"
       style="font-size:12px;font-style:normal;font-variant:normal;font-weight:normal;font-stretch:normal;line-height:125%;letter-spacing:0px;word-spacing:0px;fill:#000000;fill-opacity:1;stroke:none;font-family:LMRoman12;-inkscape-font-specification:LMRoman12"
       x="170.94801"
       y="298.03076"
       id="text2836"
       sodipodi:linespacing="125%"><tspan
         sodipodi:role="line"
         id="tspan2838"
         x="170.94801"
         y="298.03076">4</tspan></text>
    <text
       xml:space="preserve"
       style="font-size:12px;font-style:normal;font-variant:normal;font-weight:normal;font-stretch:normal;line-height:125%;letter-spacing:0px;word-spacing:0px;fill:#000000;fill-opacity:1;stroke:none;font-family:LMRoman12;-inkscape-font-specification:LMRoman12"
       x="200.61424"
       y="269.13989"
       id="text2840"
       sodipodi:linespacing="125%"><tspan
         sodipodi:role="line"
         id="tspan2842"
         x="200.61424"
         y="269.13989">Remainder</tspan></text>
    <text
       xml:space="preserve"
       style="font-size:12px;font-style:normal;font-variant:normal;font-weight:normal;font-stretch:normal;line-height:125%;letter-spacing:0px;word-spacing:0px;fill:#000000;fill-opacity:1;stroke:none;font-family:LMRoman12;-inkscape-font-specification:LMRoman12"
       x="226.37314"
       y="284.50198"
       id="text2844"
       sodipodi:linespacing="125%"><tspan
         sodipodi:role="line"
         id="tspan2846"
         x="226.37314"
         y="284.50198">3</tspan><tspan
         sodipodi:role="line"
         x="226.37314"
         y="299.50198"
         id="tspan2848"
         dy="-2.5253813">3</tspan><tspan
         sodipodi:role="line"
         x="226.37314"
         y="314.50198"
         dy="-2.5253813 -2.5253813"
         id="tspan2887">4</tspan></text>
    <path
       style="color:#000000;fill:none;stroke:#000000;stroke-width:1px;stroke-linecap:butt;stroke-linejoin:miter;stroke-miterlimit:4;stroke-opacity:1;stroke-dasharray:none;stroke-dashoffset:0;marker:none;marker-end:url(#Arrow1Mend);visibility:visible;display:inline;overflow:visible;enable-background:accumulate"
       d="m 241.52543,307.5257 0,-30.30457"
       id="path2850"
       sodipodi:nodetypes="cc" />
    <g
       id="g4297"
       transform="matrix(1.2,0,0,1.2,-110.10663,168.10918)"
       ns0:preamble="/home/sriranga/Desktop/MCT/package.tex"
       ns0:text="$\\therefore~~ (283)_{10}=(433)_{8}$">
      <defs
         id="defs4299">
        <g
           id="g4301">
          <symbol
             id="textext-4e17a9a2-0"
             overflow="visible"
             style="overflow:visible">
            <path
               id="path4304"
               d=""
               style="stroke:none" />
          </symbol>
          <symbol
             id="textext-4e17a9a2-1"
             overflow="visible"
             style="overflow:visible">
            <path
               id="path4307"
               d="m 3.671875,-4.4375 c 0,-0.28125 -0.25,-0.53125 -0.53125,-0.53125 -0.296875,0 -0.53125,0.25 -0.53125,0.53125 0,0.296875 0.234375,0.53125 0.53125,0.53125 0.28125,0 0.53125,-0.234375 0.53125,-0.53125 z M 5.65625,-0.46875 C 5.65625,-0.75 5.40625,-1 5.125,-1 c -0.296875,0 -0.53125,0.25 -0.53125,0.53125 0,0.296875 0.234375,0.53125 0.53125,0.53125 0.28125,0 0.53125,-0.234375 0.53125,-0.53125 z m -3.984375,0 C 1.671875,-0.75 1.4375,-1 1.140625,-1 0.84375,-1 0.625,-0.75 0.625,-0.46875 c 0,0.296875 0.21875,0.53125 0.515625,0.53125 0.296875,0 0.53125,-0.234375 0.53125,-0.53125 z m 0,0"
               style="stroke:none" />
          </symbol>
          <symbol
             id="textext-4e17a9a2-2"
             overflow="visible"
             style="overflow:visible">
            <path
               id="path4310"
               d=""
               style="stroke:none" />
          </symbol>
          <symbol
             id="textext-4e17a9a2-3"
             overflow="visible"
             style="overflow:visible">
            <path
               id="path4313"
               d="M 2.9375,-6.734375 C 2.203125,-6.265625 1.90625,-6 1.53125,-5.546875 c -0.703125,0.875 -1.046875,1.875 -1.046875,3.03125 0,1.265625 0.359375,2.25 1.234375,3.265625 0.421875,0.46875 0.671875,0.703125 1.1875,1.015625 l 0.125,-0.15625 C 2.234375,0.984375 1.953125,0.625 1.6875,-0.125 1.453125,-0.78125 1.328125,-1.546875 1.328125,-2.546875 1.328125,-3.59375 1.46875,-4.40625 1.734375,-5.03125 2.015625,-5.640625 2.3125,-6 3.03125,-6.578125 L 2.9375,-6.734375 z m 0,0"
               style="stroke:none" />
          </symbol>
          <symbol
             id="textext-4e17a9a2-4"
             overflow="visible"
             style="overflow:visible">
            <path
               id="path4316"
               d="m 4.734375,-1.359375 -0.125,-0.0625 C 4.234375,-0.84375 4.109375,-0.75 3.65625,-0.75 l -2.375,0 1.671875,-1.765625 c 0.890625,-0.921875 1.28125,-1.6875 1.28125,-2.453125 0,-1 -0.8125,-1.765625 -1.859375,-1.765625 -0.546875,0 -1.0625,0.21875 -1.421875,0.609375 C 0.625,-5.78125 0.484375,-5.46875 0.3125,-4.75 l 0.203125,0.046875 C 0.921875,-5.6875 1.28125,-6 1.96875,-6 2.796875,-6 3.375,-5.4375 3.375,-4.59375 3.375,-3.8125 2.90625,-2.890625 2.078125,-2 l -1.78125,1.875 0,0.125 3.890625,0 0.546875,-1.359375 z m 0,0"
               style="stroke:none" />
          </symbol>
          <symbol
             id="textext-4e17a9a2-5"
             overflow="visible"
             style="overflow:visible">
            <path
               id="path4319"
               d="m 2.890625,-3.703125 c 0.984375,-0.53125 1.34375,-0.9375 1.34375,-1.625 0,-0.8125 -0.71875,-1.40625 -1.71875,-1.40625 -1.09375,0 -1.890625,0.65625 -1.890625,1.578125 0,0.640625 0.1875,0.921875 1.234375,1.84375 C 0.78125,-2.5 0.5625,-2.1875 0.5625,-1.5 c 0,0.96875 0.78125,1.640625 1.90625,1.640625 1.203125,0 1.96875,-0.65625 1.96875,-1.6875 0,-0.765625 -0.34375,-1.25 -1.546875,-2.15625 z m -0.171875,1.03125 c 0.71875,0.515625 0.953125,0.875 0.953125,1.4375 0,0.640625 -0.4375,1.09375 -1.09375,1.09375 -0.75,0 -1.265625,-0.578125 -1.265625,-1.4375 0,-0.640625 0.21875,-1.0625 0.796875,-1.53125 l 0.609375,0.4375 z M 2.609375,-3.875 c -0.890625,-0.578125 -1.25,-1.046875 -1.25,-1.59375 0,-0.578125 0.4375,-0.984375 1.078125,-0.984375 0.671875,0 1.09375,0.4375 1.09375,1.125 0,0.5625 -0.265625,1.015625 -0.84375,1.390625 -0.046875,0.03125 -0.046875,0.03125 -0.078125,0.0625 z m 0,0"
               style="stroke:none" />
          </symbol>
          <symbol
             id="textext-4e17a9a2-6"
             overflow="visible"
             style="overflow:visible">
            <path
               id="path4322"
               d="m 1.53125,-3.296875 c 0.578125,0 0.8125,0.03125 1.046875,0.109375 0.625,0.234375 1.015625,0.796875 1.015625,1.484375 0,0.828125 -0.578125,1.484375 -1.3125,1.484375 -0.265625,0 -0.46875,-0.078125 -0.828125,-0.3125 -0.3125,-0.171875 -0.46875,-0.25 -0.640625,-0.25 -0.234375,0 -0.390625,0.140625 -0.390625,0.359375 0,0.34375 0.4375,0.5625 1.140625,0.5625 0.765625,0 1.546875,-0.265625 2.015625,-0.671875 C 4.046875,-0.9375 4.3125,-1.515625 4.3125,-2.1875 c 0,-0.5 -0.171875,-0.96875 -0.453125,-1.28125 C 3.65625,-3.6875 3.46875,-3.8125 3.03125,-4 c 0.6875,-0.46875 0.9375,-0.828125 0.9375,-1.375 0,-0.8125 -0.640625,-1.359375 -1.5625,-1.359375 -0.5,0 -0.9375,0.171875 -1.296875,0.484375 -0.296875,0.265625 -0.4375,0.53125 -0.65625,1.125 L 0.59375,-5.078125 C 1,-5.8125 1.453125,-6.140625 2.078125,-6.140625 c 0.65625,0 1.109375,0.4375 1.109375,1.0625 0,0.359375 -0.15625,0.71875 -0.40625,0.96875 -0.296875,0.296875 -0.578125,0.453125 -1.25,0.6875 l 0,0.125 z m 0,0"
               style="stroke:none" />
          </symbol>
          <symbol
             id="textext-4e17a9a2-7"
             overflow="visible"
             style="overflow:visible">
            <path
               id="path4325"
               d="M 0.375,1.765625 C 1.109375,1.28125 1.421875,1.03125 1.78125,0.5625 2.5,-0.296875 2.84375,-1.296875 2.84375,-2.46875 c 0,-1.265625 -0.375,-2.234375 -1.25,-3.25 C 1.1875,-6.203125 0.921875,-6.421875 0.40625,-6.734375 l -0.109375,0.15625 c 0.796875,0.625 1.0625,0.96875 1.34375,1.71875 0.234375,0.671875 0.34375,1.4375 0.34375,2.421875 0,1.046875 -0.125,1.875 -0.40625,2.484375 C 1.3125,0.671875 1,1.03125 0.296875,1.609375 L 0.375,1.765625 z m 0,0"
               style="stroke:none" />
          </symbol>
          <symbol
             id="textext-4e17a9a2-8"
             overflow="visible"
             style="overflow:visible">
            <path
               id="path4328"
               d="m 4.703125,-2.296875 -1.015625,0 0,-4.4375 -0.4375,0 -3.125,4.4375 0,0.625 2.796875,0 0,1.671875 0.765625,0 0,-1.671875 1.015625,0 0,-0.625 z m -1.796875,0 -2.390625,0 2.390625,-3.421875 0,3.421875 z m 0,0"
               style="stroke:none" />
          </symbol>
          <symbol
             id="textext-4e17a9a2-9"
             overflow="visible"
             style="overflow:visible">
            <path
               id="path4331"
               d=""
               style="stroke:none" />
          </symbol>
          <symbol
             id="textext-4e17a9a2-10"
             overflow="visible"
             style="overflow:visible">
            <path
               id="path4334"
               d="m 2.03125,-4.703125 -1.25,0.625 0,0.09375 c 0.078125,-0.03125 0.15625,-0.0625 0.1875,-0.078125 0.125,-0.046875 0.234375,-0.0625 0.3125,-0.0625 0.140625,0 0.203125,0.09375 0.203125,0.3125 l 0,3.171875 c 0,0.21875 -0.0625,0.375 -0.171875,0.453125 -0.09375,0.0625 -0.203125,0.078125 -0.484375,0.078125 L 0.828125,0 2.75,0 l 0,-0.109375 c -0.5625,0 -0.671875,-0.078125 -0.671875,-0.40625 l 0,-4.1875 -0.046875,0 z m 0,0"
               style="stroke:none" />
          </symbol>
          <symbol
             id="textext-4e17a9a2-11"
             overflow="visible"
             style="overflow:visible">
            <path
               id="path4337"
               d="m 1.765625,-4.703125 c -0.375,0 -0.671875,0.109375 -0.921875,0.359375 -0.40625,0.390625 -0.671875,1.1875 -0.671875,2 0,0.765625 0.21875,1.578125 0.546875,1.96875 0.265625,0.3125 0.625,0.46875 1.015625,0.46875 0.359375,0 0.65625,-0.109375 0.90625,-0.359375 0.40625,-0.375 0.671875,-1.1875 0.671875,-2.03125 0,-1.4375 -0.625,-2.40625 -1.546875,-2.40625 z M 1.75,-4.53125 c 0.578125,0 0.890625,0.78125 0.890625,2.25 0,1.453125 -0.296875,2.203125 -0.90625,2.203125 -0.59375,0 -0.890625,-0.75 -0.890625,-2.203125 0,-1.46875 0.3125,-2.25 0.90625,-2.25 z m 0,0"
               style="stroke:none" />
          </symbol>
          <symbol
             id="textext-4e17a9a2-12"
             overflow="visible"
             style="overflow:visible">
            <path
               id="path4340"
               d="m 2.015625,-2.578125 c 0.6875,-0.375 0.9375,-0.671875 0.9375,-1.140625 0,-0.578125 -0.5,-0.984375 -1.203125,-0.984375 -0.75,0 -1.3125,0.453125 -1.3125,1.09375 0,0.453125 0.125,0.65625 0.859375,1.296875 -0.75,0.578125 -0.90625,0.78125 -0.90625,1.265625 0,0.671875 0.546875,1.140625 1.34375,1.140625 0.828125,0 1.359375,-0.453125 1.359375,-1.171875 0,-0.53125 -0.234375,-0.875 -1.078125,-1.5 z m -0.125,0.703125 c 0.515625,0.375 0.6875,0.625 0.6875,1.015625 0,0.453125 -0.3125,0.765625 -0.765625,0.765625 -0.53125,0 -0.890625,-0.40625 -0.890625,-1.015625 0,-0.4375 0.15625,-0.734375 0.5625,-1.0625 L 1.890625,-1.875 z M 1.8125,-2.703125 c -0.609375,-0.40625 -0.859375,-0.734375 -0.859375,-1.125 0,-0.40625 0.3125,-0.6875 0.75,-0.6875 0.46875,0 0.765625,0.3125 0.765625,0.78125 0,0.40625 -0.1875,0.71875 -0.59375,0.984375 -0.03125,0.015625 -0.03125,0.015625 -0.0625,0.046875 z m 0,0"
               style="stroke:none" />
          </symbol>
          <symbol
             id="textext-4e17a9a2-13"
             overflow="visible"
             style="overflow:visible">
            <path
               id="path4343"
               d=""
               style="stroke:none" />
          </symbol>
          <symbol
             id="textext-4e17a9a2-14"
             overflow="visible"
             style="overflow:visible">
            <path
               id="path4346"
               d="m 5.71875,-3.296875 0,-0.546875 -5.09375,0 0,0.546875 5.09375,0 z m 0,2.03125 0,-0.5625 -5.09375,0 0,0.5625 5.09375,0 z m 0,0"
               style="stroke:none" />
          </symbol>
        </g>
      </defs>
      <g
         id="textext-4e17a9a2-15">
        <g
           id="g4349"
           style="fill:#000000;fill-opacity:1">
          <use
             id="use4351"
             y="134.765"
             x="223.43201"
             xlink:href="#textext-4e17a9a2-1"
             width="744.09448"
             height="1052.3622" />
        </g>
        <g
           id="g4353"
           style="fill:#000000;fill-opacity:1">
          <use
             id="use4355"
             y="134.765"
             x="237.44701"
             xlink:href="#textext-4e17a9a2-3"
             width="744.09448"
             height="1052.3622" />
          <use
             id="use4357"
             y="134.765"
             x="240.76454"
             xlink:href="#textext-4e17a9a2-4"
             width="744.09448"
             height="1052.3622" />
          <use
             id="use4359"
             y="134.765"
             x="245.74585"
             xlink:href="#textext-4e17a9a2-5"
             width="744.09448"
             height="1052.3622" />
          <use
             id="use4361"
             y="134.765"
             x="250.72714"
             xlink:href="#textext-4e17a9a2-6"
             width="744.09448"
             height="1052.3622" />
          <use
             id="use4363"
             y="134.765"
             x="255.70845"
             xlink:href="#textext-4e17a9a2-7"
             width="744.09448"
             height="1052.3622" />
        </g>
        <g
           id="g4365"
           style="fill:#000000;fill-opacity:1">
          <use
             id="use4367"
             y="136.259"
             x="259.026"
             xlink:href="#textext-4e17a9a2-10"
             width="744.09448"
             height="1052.3622" />
          <use
             id="use4369"
             y="136.259"
             x="262.51291"
             xlink:href="#textext-4e17a9a2-11"
             width="744.09448"
             height="1052.3622" />
        </g>
        <g
           id="g4371"
           style="fill:#000000;fill-opacity:1">
          <use
             id="use4373"
             y="134.765"
             x="269.26599"
             xlink:href="#textext-4e17a9a2-14"
             width="744.09448"
             height="1052.3622" />
        </g>
        <g
           id="g4375"
           style="fill:#000000;fill-opacity:1">
          <use
             id="use4377"
             y="134.765"
             x="278.36899"
             xlink:href="#textext-4e17a9a2-3"
             width="744.09448"
             height="1052.3622" />
          <use
             id="use4379"
             y="134.765"
             x="281.68655"
             xlink:href="#textext-4e17a9a2-8"
             width="744.09448"
             height="1052.3622" />
          <use
             id="use4381"
             y="134.765"
             x="286.66785"
             xlink:href="#textext-4e17a9a2-6"
             width="744.09448"
             height="1052.3622" />
          <use
             id="use4383"
             y="134.765"
             x="291.64914"
             xlink:href="#textext-4e17a9a2-6"
             width="744.09448"
             height="1052.3622" />
          <use
             id="use4385"
             y="134.765"
             x="296.63043"
             xlink:href="#textext-4e17a9a2-7"
             width="744.09448"
             height="1052.3622" />
        </g>
        <g
           id="g4387"
           style="fill:#000000;fill-opacity:1">
          <use
             id="use4389"
             y="136.259"
             x="299.948"
             xlink:href="#textext-4e17a9a2-12"
             width="744.09448"
             height="1052.3622" />
        </g>
      </g>
    </g>
    <path
       sodipodi:nodetypes="cc"
       id="path2889"
       d="m 191.04636,280.63419 30.30457,0"
       style="color:#000000;fill:none;stroke:#000000;stroke-width:1px;stroke-linecap:butt;stroke-linejoin:miter;stroke-miterlimit:4;stroke-opacity:1;stroke-dasharray:none;stroke-dashoffset:0;marker:none;marker-end:url(#Arrow1Mend);visibility:visible;display:inline;overflow:visible;enable-background:accumulate" />
    <path
       style="color:#000000;fill:none;stroke:#000000;stroke-width:1px;stroke-linecap:butt;stroke-linejoin:miter;stroke-miterlimit:4;stroke-opacity:1;stroke-dasharray:none;stroke-dashoffset:0;marker:none;marker-end:url(#Arrow1Mend);visibility:visible;display:inline;overflow:visible;enable-background:accumulate"
       d="m 191.04636,292.63419 30.30457,0"
       id="path2891"
       sodipodi:nodetypes="cc" />
    <path
       sodipodi:nodetypes="ccc"
       id="path2893"
       d="m 174.52525,300.90835 -0.12075,7.62413 46.98631,0"
       style="color:#000000;fill:none;stroke:#000000;stroke-width:1px;stroke-linecap:butt;stroke-linejoin:miter;stroke-miterlimit:4;stroke-opacity:1;stroke-dasharray:none;stroke-dashoffset:0;marker:none;marker-end:url(#Arrow1Mend);visibility:visible;display:inline;overflow:visible;enable-background:accumulate"
       inkscape:connector-curvature="0" />
  </g>
</svg>
